<?xml version="1.0" encoding="UTF-8" standalone="no"?>
<!DOCTYPE svg PUBLIC "-//W3C//DTD SVG 1.1//EN"
 "http://www.w3.org/Graphics/SVG/1.1/DTD/svg11.dtd">
<!-- Generated by graphviz version 2.43.0 (0)
 -->
<!-- Title: global/src/checkpointing/ChasteSerialization.hpp Pages: 1 -->
<svg width="362pt" height="104pt"
 viewBox="0.00 0.00 361.50 104.00" xmlns="http://www.w3.org/2000/svg" xmlns:xlink="http://www.w3.org/1999/xlink">
<g id="graph0" class="graph" transform="scale(1 1) rotate(0) translate(4 100)">
<title>global/src/checkpointing/ChasteSerialization.hpp</title>
<!-- Node1 -->
<g id="Node000001" class="node">
<title>Node1</title>
<g id="a_Node000001"><a xlink:title=" ">
<polygon fill="#999999" stroke="#666666" points="196,-96 61,-96 61,-66 196,-66 196,-96"/>
<text text-anchor="start" x="69" y="-84" font-family="Helvetica,sans-Serif" font-size="10.00">global/src/checkpointing</text>
<text text-anchor="middle" x="128.5" y="-73" font-family="Helvetica,sans-Serif" font-size="10.00">/ChasteSerialization.hpp</text>
</a>
</g>
</g>
<!-- Node2 -->
<g id="Node000002" class="node">
<title>Node2</title>
<g id="a_Node000002"><a xlink:title=" ">
<polygon fill="#e0e0e0" stroke="#999999" points="37,-24.5 0,-24.5 0,-5.5 37,-5.5 37,-24.5"/>
<text text-anchor="middle" x="18.5" y="-12.5" font-family="Helvetica,sans-Serif" font-size="10.00">new</text>
</a>
</g>
</g>
<!-- Node1&#45;&gt;Node2 -->
<g id="edge1_Node000001_Node000002" class="edge">
<title>Node1&#45;&gt;Node2</title>
<g id="a_edge1_Node000001_Node000002"><a xlink:title=" ">
<path fill="none" stroke="#63b8ff" d="M104.36,-65.95C85.83,-55.18 60.4,-40.38 42.03,-29.69"/>
<polygon fill="#63b8ff" stroke="#63b8ff" points="43.54,-26.52 33.14,-24.52 40.02,-32.57 43.54,-26.52"/>
</a>
</g>
</g>
<!-- Node3 -->
<g id="Node000003" class="node">
<title>Node3</title>
<g id="a_Node000003"><a xlink:title=" ">
<polygon fill="#e0e0e0" stroke="#999999" points="105.5,-24.5 55.5,-24.5 55.5,-5.5 105.5,-5.5 105.5,-24.5"/>
<text text-anchor="middle" x="80.5" y="-12.5" font-family="Helvetica,sans-Serif" font-size="10.00">climits</text>
</a>
</g>
</g>
<!-- Node1&#45;&gt;Node3 -->
<g id="edge2_Node000001_Node000003" class="edge">
<title>Node1&#45;&gt;Node3</title>
<g id="a_edge2_Node000001_Node000003"><a xlink:title=" ">
<path fill="none" stroke="#63b8ff" d="M117.85,-65.8C110.58,-56.11 100.93,-43.24 93.26,-33.01"/>
<polygon fill="#63b8ff" stroke="#63b8ff" points="95.93,-30.74 87.13,-24.84 90.33,-34.94 95.93,-30.74"/>
</a>
</g>
</g>
<!-- Node4 -->
<g id="Node000004" class="node">
<title>Node4</title>
<g id="a_Node000004"><a xlink:title=" ">
<polygon fill="#e0e0e0" stroke="#999999" points="231,-30 124,-30 124,0 231,0 231,-30"/>
<text text-anchor="start" x="132" y="-18" font-family="Helvetica,sans-Serif" font-size="10.00">boost/serialization</text>
<text text-anchor="middle" x="177.5" y="-7" font-family="Helvetica,sans-Serif" font-size="10.00">/access.hpp</text>
</a>
</g>
</g>
<!-- Node1&#45;&gt;Node4 -->
<g id="edge3_Node000001_Node000004" class="edge">
<title>Node1&#45;&gt;Node4</title>
<g id="a_edge3_Node000001_Node000004"><a xlink:title=" ">
<path fill="none" stroke="#63b8ff" d="M139.37,-65.8C145.59,-57.68 153.52,-47.31 160.54,-38.15"/>
<polygon fill="#63b8ff" stroke="#63b8ff" points="163.36,-40.23 166.66,-30.16 157.8,-35.98 163.36,-40.23"/>
</a>
</g>
</g>
<!-- Node5 -->
<g id="Node000005" class="node">
<title>Node5</title>
<g id="a_Node000005"><a xlink:title=" ">
<polygon fill="#e0e0e0" stroke="#999999" points="353.5,-24.5 249.5,-24.5 249.5,-5.5 353.5,-5.5 353.5,-24.5"/>
<text text-anchor="middle" x="301.5" y="-12.5" font-family="Helvetica,sans-Serif" font-size="10.00">boost/version.hpp</text>
</a>
</g>
</g>
<!-- Node1&#45;&gt;Node5 -->
<g id="edge4_Node000001_Node000005" class="edge">
<title>Node1&#45;&gt;Node5</title>
<g id="a_edge4_Node000001_Node000005"><a xlink:title=" ">
<path fill="none" stroke="#63b8ff" d="M166.47,-65.95C197.07,-54.63 239.67,-38.88 268.78,-28.1"/>
<polygon fill="#63b8ff" stroke="#63b8ff" points="270.31,-31.27 278.48,-24.52 267.88,-24.7 270.31,-31.27"/>
</a>
</g>
</g>
</g>
</svg>
