<?xml version="1.0" encoding="UTF-8" standalone="no"?>
<!DOCTYPE svg PUBLIC "-//W3C//DTD SVG 1.1//EN"
 "http://www.w3.org/Graphics/SVG/1.1/DTD/svg11.dtd">
<!-- Generated by graphviz version 2.43.0 (0)
 -->
<!-- Title: FemlabMeshReader&lt; ELEMENT_DIM, SPACE_DIM &gt; Pages: 1 -->
<svg width="1063pt" height="676pt"
 viewBox="0.00 0.00 1063.00 676.00" xmlns="http://www.w3.org/2000/svg" xmlns:xlink="http://www.w3.org/1999/xlink">
<g id="graph0" class="graph" transform="scale(1 1) rotate(0) translate(4 672)">
<title>FemlabMeshReader&lt; ELEMENT_DIM, SPACE_DIM &gt;</title>
<!-- Node1 -->
<g id="Node000001" class="node">
<title>Node1</title>
<g id="a_Node000001"><a xlink:title=" ">
<polygon fill="#999999" stroke="transparent" points="645,-105 481,-105 481,0 645,0 645,-105"/>
<text text-anchor="start" x="486" y="-92.5" font-family="Helvetica,sans-Serif" font-size="10.00">FemlabMeshReader&lt; ELEMENT</text>
<text text-anchor="start" x="514" y="-81.5" font-family="Helvetica,sans-Serif" font-size="10.00">_DIM, SPACE_DIM &gt;</text>
<text text-anchor="start" x="561" y="-66.5" font-family="Helvetica,sans-Serif" font-size="10.00"> </text>
<text text-anchor="start" x="487" y="-51.5" font-family="Helvetica,sans-Serif" font-size="10.00">+</text>
<text text-anchor="start" x="502" y="-51.5" font-family="Helvetica,sans-Serif" font-size="10.00">FemlabMeshReader()</text>
<text text-anchor="start" x="487" y="-36.5" font-family="Helvetica,sans-Serif" font-size="10.00">+</text>
<text text-anchor="start" x="502" y="-36.5" font-family="Helvetica,sans-Serif" font-size="10.00">~FemlabMeshReader()</text>
<text text-anchor="start" x="489.5" y="-21.5" font-family="Helvetica,sans-Serif" font-size="10.00">&#45;</text>
<text text-anchor="start" x="502" y="-21.5" font-family="Helvetica,sans-Serif" font-size="10.00">TokenizeStringsToDoubles()</text>
<text text-anchor="start" x="489.5" y="-6.5" font-family="Helvetica,sans-Serif" font-size="10.00">&#45;</text>
<text text-anchor="start" x="502" y="-6.5" font-family="Helvetica,sans-Serif" font-size="10.00">TokenizeStringsToInts()</text>
<polygon fill="#666666" stroke="#666666" points="481,-76.5 481,-76.5 645,-76.5 645,-76.5 481,-76.5"/>
<polygon fill="#666666" stroke="#666666" points="481,-61.5 481,-61.5 645,-61.5 645,-61.5 481,-61.5"/>
<polygon fill="none" stroke="#666666" points="481,0 481,-105 645,-105 645,0 481,0"/>
</a>
</g>
</g>
<!-- Node2 -->
<g id="Node000002" class="node">
<title>Node2</title>
<g id="a_Node000002"><a xlink:href="classAbstractCachedMeshReader.html" target="_top" xlink:title=" ">
<polygon fill="white" stroke="transparent" points="650.5,-367 475.5,-367 475.5,-142 650.5,-142 650.5,-367"/>
<text text-anchor="start" x="486" y="-354.5" font-family="Helvetica,sans-Serif" font-size="10.00">AbstractCachedMeshReader</text>
<text text-anchor="start" x="486" y="-343.5" font-family="Helvetica,sans-Serif" font-size="10.00">&lt; ELEMENT_DIM, SPACE_DIM &gt;</text>
<text text-anchor="start" x="561.5" y="-328.5" font-family="Helvetica,sans-Serif" font-size="10.00"> </text>
<text text-anchor="start" x="480" y="-313.5" font-family="Helvetica,sans-Serif" font-size="10.00">+</text>
<text text-anchor="start" x="493" y="-313.5" font-family="Helvetica,sans-Serif" font-size="10.00">AbstractCachedMeshReader()</text>
<text text-anchor="start" x="480" y="-298.5" font-family="Helvetica,sans-Serif" font-size="10.00">+</text>
<text text-anchor="start" x="493" y="-298.5" font-family="Helvetica,sans-Serif" font-size="10.00">~AbstractCachedMeshReader()</text>
<text text-anchor="start" x="480" y="-283.5" font-family="Helvetica,sans-Serif" font-size="10.00">+</text>
<text text-anchor="start" x="493" y="-283.5" font-family="Helvetica,sans-Serif" font-size="10.00">GetNumElements()</text>
<text text-anchor="start" x="480" y="-268.5" font-family="Helvetica,sans-Serif" font-size="10.00">+</text>
<text text-anchor="start" x="493" y="-268.5" font-family="Helvetica,sans-Serif" font-size="10.00">GetNumNodes()</text>
<text text-anchor="start" x="480" y="-253.5" font-family="Helvetica,sans-Serif" font-size="10.00">+</text>
<text text-anchor="start" x="493" y="-253.5" font-family="Helvetica,sans-Serif" font-size="10.00">GetNumFaces()</text>
<text text-anchor="start" x="480" y="-238.5" font-family="Helvetica,sans-Serif" font-size="10.00">+</text>
<text text-anchor="start" x="493" y="-238.5" font-family="Helvetica,sans-Serif" font-size="10.00">GetMaxNodeIndex()</text>
<text text-anchor="start" x="480" y="-223.5" font-family="Helvetica,sans-Serif" font-size="10.00">+</text>
<text text-anchor="start" x="493" y="-223.5" font-family="Helvetica,sans-Serif" font-size="10.00">GetMinNodeIndex()</text>
<text text-anchor="start" x="480" y="-208.5" font-family="Helvetica,sans-Serif" font-size="10.00">+</text>
<text text-anchor="start" x="493" y="-208.5" font-family="Helvetica,sans-Serif" font-size="10.00">GetNextNode()</text>
<text text-anchor="start" x="480" y="-193.5" font-family="Helvetica,sans-Serif" font-size="10.00">+</text>
<text text-anchor="start" x="493" y="-193.5" font-family="Helvetica,sans-Serif" font-size="10.00">Reset()</text>
<text text-anchor="start" x="480" y="-178.5" font-family="Helvetica,sans-Serif" font-size="10.00">+</text>
<text text-anchor="start" x="493" y="-178.5" font-family="Helvetica,sans-Serif" font-size="10.00">GetNextElementData()</text>
<text text-anchor="start" x="480" y="-163.5" font-family="Helvetica,sans-Serif" font-size="10.00">+</text>
<text text-anchor="start" x="493" y="-163.5" font-family="Helvetica,sans-Serif" font-size="10.00">GetNextFaceData()</text>
<text text-anchor="start" x="480" y="-148.5" font-family="Helvetica,sans-Serif" font-size="10.00">#</text>
<text text-anchor="start" x="493" y="-148.5" font-family="Helvetica,sans-Serif" font-size="10.00">GetRawDataFromFile()</text>
<polygon fill="#666666" stroke="#666666" points="476,-338.5 476,-338.5 651,-338.5 651,-338.5 476,-338.5"/>
<polygon fill="#666666" stroke="#666666" points="476,-323.5 476,-323.5 651,-323.5 651,-323.5 476,-323.5"/>
<polygon fill="none" stroke="#666666" points="475.5,-142 475.5,-367 650.5,-367 650.5,-142 475.5,-142"/>
</a>
</g>
</g>
<!-- Node2&#45;&gt;Node1 -->
<g id="edge1_Node000001_Node000002" class="edge">
<title>Node2&#45;&gt;Node1</title>
<g id="a_edge1_Node000001_Node000002"><a xlink:title=" ">
<path fill="none" stroke="#63b8ff" d="M563,-131.75C563,-122.56 563,-113.63 563,-105.29"/>
<polygon fill="none" stroke="#63b8ff" points="559.5,-131.81 563,-141.81 566.5,-131.81 559.5,-131.81"/>
</a>
</g>
</g>
<!-- Node3 -->
<g id="Node000003" class="node">
<title>Node3</title>
<g id="a_Node000003"><a xlink:href="classAbstractMeshReader.html" target="_top" xlink:title=" ">
<polygon fill="white" stroke="transparent" points="186,-668 0,-668 0,-458 186,-458 186,-668"/>
<text text-anchor="start" x="15.5" y="-656" font-family="Helvetica,sans-Serif" font-size="10.00">AbstractMeshReader</text>
<text text-anchor="start" x="15.5" y="-645" font-family="Helvetica,sans-Serif" font-size="10.00">&lt; ELEMENT_DIM, SPACE_DIM &gt;</text>
<text text-anchor="start" x="91" y="-630" font-family="Helvetica,sans-Serif" font-size="10.00"> </text>
<text text-anchor="start" x="4" y="-615" font-family="Helvetica,sans-Serif" font-size="10.00">+</text>
<text text-anchor="start" x="17" y="-615" font-family="Helvetica,sans-Serif" font-size="10.00">~AbstractMeshReader()</text>
<text text-anchor="start" x="4" y="-600" font-family="Helvetica,sans-Serif" font-size="10.00">+</text>
<text text-anchor="start" x="17" y="-600" font-family="Helvetica,sans-Serif" font-size="10.00">GetNumElements()</text>
<text text-anchor="start" x="4" y="-585" font-family="Helvetica,sans-Serif" font-size="10.00">+</text>
<text text-anchor="start" x="17" y="-585" font-family="Helvetica,sans-Serif" font-size="10.00">GetNumNodes()</text>
<text text-anchor="start" x="4" y="-570" font-family="Helvetica,sans-Serif" font-size="10.00">+</text>
<text text-anchor="start" x="17" y="-570" font-family="Helvetica,sans-Serif" font-size="10.00">GetNumFaces()</text>
<text text-anchor="start" x="4" y="-555" font-family="Helvetica,sans-Serif" font-size="10.00">+</text>
<text text-anchor="start" x="17" y="-555" font-family="Helvetica,sans-Serif" font-size="10.00">GetNumCableElements()</text>
<text text-anchor="start" x="4" y="-540" font-family="Helvetica,sans-Serif" font-size="10.00">+</text>
<text text-anchor="start" x="17" y="-540" font-family="Helvetica,sans-Serif" font-size="10.00">GetNumElementAttributes()</text>
<text text-anchor="start" x="4" y="-525" font-family="Helvetica,sans-Serif" font-size="10.00">+</text>
<text text-anchor="start" x="17" y="-525" font-family="Helvetica,sans-Serif" font-size="10.00">GetNumFaceAttributes()</text>
<text text-anchor="start" x="4" y="-510" font-family="Helvetica,sans-Serif" font-size="10.00">+</text>
<text text-anchor="start" x="17" y="-510" font-family="Helvetica,sans-Serif" font-size="10.00">GetNumCableElementAttributes()</text>
<text text-anchor="start" x="4" y="-495" font-family="Helvetica,sans-Serif" font-size="10.00">+</text>
<text text-anchor="start" x="17" y="-495" font-family="Helvetica,sans-Serif" font-size="10.00">GetNodeAttributes()</text>
<text text-anchor="start" x="4" y="-480" font-family="Helvetica,sans-Serif" font-size="10.00">+</text>
<text text-anchor="start" x="17" y="-480" font-family="Helvetica,sans-Serif" font-size="10.00">GetNumEdges()</text>
<text text-anchor="start" x="17" y="-465" font-family="Helvetica,sans-Serif" font-size="10.00">and 25 more...</text>
<polygon fill="#666666" stroke="#666666" points="0,-640 0,-640 186,-640 186,-640 0,-640"/>
<polygon fill="#666666" stroke="#666666" points="0,-625 0,-625 186,-625 186,-625 0,-625"/>
<polygon fill="none" stroke="#666666" points="0,-458 0,-668 186,-668 186,-458 0,-458"/>
</a>
</g>
</g>
<!-- Node3&#45;&gt;Node2 -->
<g id="edge2_Node000002_Node000003" class="edge">
<title>Node3&#45;&gt;Node2</title>
<g id="a_edge2_Node000002_Node000003"><a xlink:title=" ">
<path fill="none" stroke="#63b8ff" d="M161,-449.76C179.21,-426.06 200.47,-402.86 224,-385 299.27,-327.86 402.72,-293.22 475.49,-274.33"/>
<polygon fill="none" stroke="#63b8ff" points="158.16,-447.71 154.94,-457.8 163.75,-451.92 158.16,-447.71"/>
</a>
</g>
</g>
<!-- Node4 -->
<g id="Node000004" class="node">
<title>Node4</title>
<g id="a_Node000004"><a xlink:href="classunsigned.html" target="_top" xlink:title=" ">
<polygon fill="white" stroke="transparent" points="259.5,-587.5 204.5,-587.5 204.5,-538.5 259.5,-538.5 259.5,-587.5"/>
<text text-anchor="start" x="210" y="-575" font-family="Helvetica,sans-Serif" font-size="10.00">unsigned</text>
<text text-anchor="start" x="230.5" y="-560" font-family="Helvetica,sans-Serif" font-size="10.00"> </text>
<text text-anchor="start" x="230.5" y="-545" font-family="Helvetica,sans-Serif" font-size="10.00"> </text>
<polygon fill="#bfbfbf" stroke="#bfbfbf" points="205,-570 205,-570 260,-570 260,-570 205,-570"/>
<polygon fill="#bfbfbf" stroke="#bfbfbf" points="205,-555 205,-555 260,-555 260,-555 205,-555"/>
<polygon fill="none" stroke="#bfbfbf" points="204.5,-538.5 204.5,-587.5 259.5,-587.5 259.5,-538.5 204.5,-538.5"/>
</a>
</g>
</g>
<!-- Node4&#45;&gt;Node2 -->
<g id="edge3_Node000002_Node000004" class="edge">
<title>Node4&#45;&gt;Node2</title>
<g id="a_edge3_Node000002_Node000004"><a xlink:title=" ">
<path fill="none" stroke="#63b8ff" d="M227.37,-538.39C221.58,-501.69 216.16,-430.46 250,-385 300.21,-317.55 391.97,-285.05 463.2,-269.5"/>
<polygon fill="none" stroke="#63b8ff" points="463.6,-269.42 468.66,-264.27 475.35,-266.97 470.29,-272.11 463.6,-269.42"/>
</a>
</g>
<text text-anchor="middle" x="315" y="-432" font-family="Helvetica,sans-Serif" font-size="10.00" fill="grey"> #mMaxFaceBdyMarker</text>
<text text-anchor="middle" x="315" y="-421" font-family="Helvetica,sans-Serif" font-size="10.00" fill="grey">#mMaxNodeBdyMarker</text>
<text text-anchor="middle" x="315" y="-410" font-family="Helvetica,sans-Serif" font-size="10.00" fill="grey">#mNumElementAttributes</text>
<text text-anchor="middle" x="315" y="-399" font-family="Helvetica,sans-Serif" font-size="10.00" fill="grey">#mNumElementNodes</text>
<text text-anchor="middle" x="315" y="-388" font-family="Helvetica,sans-Serif" font-size="10.00" fill="grey">#mNumNodeAttributes</text>
</g>
<!-- Node5 -->
<g id="Node000005" class="node">
<title>Node5</title>
<g id="a_Node000005"><a xlink:title=" ">
<polygon fill="white" stroke="transparent" points="438.5,-587.5 325.5,-587.5 325.5,-538.5 438.5,-538.5 438.5,-587.5"/>
<text text-anchor="start" x="331" y="-575" font-family="Helvetica,sans-Serif" font-size="10.00">vector&lt; std::string &gt;</text>
<text text-anchor="start" x="380.5" y="-560" font-family="Helvetica,sans-Serif" font-size="10.00"> </text>
<text text-anchor="start" x="380.5" y="-545" font-family="Helvetica,sans-Serif" font-size="10.00"> </text>
<polygon fill="#bfbfbf" stroke="#bfbfbf" points="326,-570 326,-570 439,-570 439,-570 326,-570"/>
<polygon fill="#bfbfbf" stroke="#bfbfbf" points="326,-555 326,-555 439,-555 439,-555 326,-555"/>
<polygon fill="none" stroke="#bfbfbf" points="325.5,-538.5 325.5,-587.5 438.5,-587.5 438.5,-538.5 325.5,-538.5"/>
</a>
</g>
</g>
<!-- Node5&#45;&gt;Node2 -->
<g id="edge4_Node000002_Node000005" class="edge">
<title>Node5&#45;&gt;Node2</title>
<g id="a_edge4_Node000002_Node000005"><a xlink:title=" ">
<path fill="none" stroke="#63b8ff" d="M379.41,-538.25C376.65,-502.59 375.87,-434.17 403,-385 418.01,-357.79 441.29,-334.13 465.48,-314.74"/>
<polygon fill="none" stroke="#63b8ff" points="465.66,-314.59 467.95,-307.76 475.14,-307.24 472.85,-314.08 465.66,-314.59"/>
</a>
</g>
<text text-anchor="middle" x="456" y="-421" font-family="Helvetica,sans-Serif" font-size="10.00" fill="grey"> #mElementRawData</text>
<text text-anchor="middle" x="456" y="-410" font-family="Helvetica,sans-Serif" font-size="10.00" fill="grey">#mFaceRawData</text>
<text text-anchor="middle" x="456" y="-399" font-family="Helvetica,sans-Serif" font-size="10.00" fill="grey">#mNodeRawData</text>
</g>
<!-- Node6 -->
<g id="Node000006" class="node">
<title>Node6</title>
<g id="a_Node000006"><a xlink:title=" ">
<polygon fill="white" stroke="transparent" points="561,-593 457,-593 457,-533 561,-533 561,-593"/>
<text text-anchor="start" x="462" y="-581" font-family="Helvetica,sans-Serif" font-size="10.00">vector&lt; std::vector</text>
<text text-anchor="start" x="475.5" y="-570" font-family="Helvetica,sans-Serif" font-size="10.00">&lt; double &gt; &gt;</text>
<text text-anchor="start" x="507" y="-555" font-family="Helvetica,sans-Serif" font-size="10.00"> </text>
<text text-anchor="start" x="507" y="-540" font-family="Helvetica,sans-Serif" font-size="10.00"> </text>
<polygon fill="#bfbfbf" stroke="#bfbfbf" points="457,-565 457,-565 561,-565 561,-565 457,-565"/>
<polygon fill="#bfbfbf" stroke="#bfbfbf" points="457,-550 457,-550 561,-550 561,-550 457,-550"/>
<polygon fill="none" stroke="#bfbfbf" points="457,-533 457,-593 561,-593 561,-533 457,-533"/>
</a>
</g>
</g>
<!-- Node6&#45;&gt;Node2 -->
<g id="edge5_Node000002_Node000006" class="edge">
<title>Node6&#45;&gt;Node2</title>
<g id="a_edge5_Node000002_Node000006"><a xlink:title=" ">
<path fill="none" stroke="#63b8ff" d="M508.79,-532.9C509.04,-497.59 511.08,-436.41 521,-385 521.39,-382.97 521.81,-380.92 522.24,-378.86"/>
<polygon fill="none" stroke="#63b8ff" points="522.28,-378.71 519.71,-371.97 524.94,-367.01 527.51,-373.75 522.28,-378.71"/>
</a>
</g>
<text text-anchor="middle" x="556" y="-410" font-family="Helvetica,sans-Serif" font-size="10.00" fill="grey"> #mNodeData</text>
</g>
<!-- Node7 -->
<g id="Node000007" class="node">
<title>Node7</title>
<g id="a_Node000007"><a xlink:title=" ">
<polygon fill="white" stroke="transparent" points="683,-593 579,-593 579,-533 683,-533 683,-593"/>
<text text-anchor="start" x="584" y="-581" font-family="Helvetica,sans-Serif" font-size="10.00">vector&lt; std::vector</text>
<text text-anchor="start" x="591.5" y="-570" font-family="Helvetica,sans-Serif" font-size="10.00">&lt; unsigned &gt; &gt;</text>
<text text-anchor="start" x="629" y="-555" font-family="Helvetica,sans-Serif" font-size="10.00"> </text>
<text text-anchor="start" x="629" y="-540" font-family="Helvetica,sans-Serif" font-size="10.00"> </text>
<polygon fill="#bfbfbf" stroke="#bfbfbf" points="579,-565 579,-565 683,-565 683,-565 579,-565"/>
<polygon fill="#bfbfbf" stroke="#bfbfbf" points="579,-550 579,-550 683,-550 683,-550 579,-550"/>
<polygon fill="none" stroke="#bfbfbf" points="579,-533 579,-593 683,-593 683,-533 579,-533"/>
</a>
</g>
</g>
<!-- Node7&#45;&gt;Node2 -->
<g id="edge6_Node000002_Node000007" class="edge">
<title>Node7&#45;&gt;Node2</title>
<g id="a_edge6_Node000002_Node000007"><a xlink:title=" ">
<path fill="none" stroke="#63b8ff" d="M624.54,-532.89C616.7,-497.52 602.95,-435.59 590.44,-379.2"/>
<polygon fill="none" stroke="#63b8ff" points="590.39,-378.97 585.19,-373.98 587.79,-367.26 593,-372.25 590.39,-378.97"/>
</a>
</g>
<text text-anchor="middle" x="645.5" y="-415.5" font-family="Helvetica,sans-Serif" font-size="10.00" fill="grey"> #mElementData</text>
<text text-anchor="middle" x="645.5" y="-404.5" font-family="Helvetica,sans-Serif" font-size="10.00" fill="grey">#mFaceData</text>
</g>
<!-- Node8 -->
<g id="Node000008" class="node">
<title>Node8</title>
<g id="a_Node000008"><a xlink:title=" ">
<polygon fill="white" stroke="transparent" points="748.5,-587.5 701.5,-587.5 701.5,-538.5 748.5,-538.5 748.5,-587.5"/>
<text text-anchor="start" x="707" y="-575" font-family="Helvetica,sans-Serif" font-size="10.00">iterator</text>
<text text-anchor="start" x="723.5" y="-560" font-family="Helvetica,sans-Serif" font-size="10.00"> </text>
<text text-anchor="start" x="723.5" y="-545" font-family="Helvetica,sans-Serif" font-size="10.00"> </text>
<polygon fill="#bfbfbf" stroke="#bfbfbf" points="702,-570 702,-570 749,-570 749,-570 702,-570"/>
<polygon fill="#bfbfbf" stroke="#bfbfbf" points="702,-555 702,-555 749,-555 749,-555 702,-555"/>
<polygon fill="none" stroke="#bfbfbf" points="701.5,-538.5 701.5,-587.5 748.5,-587.5 748.5,-538.5 701.5,-538.5"/>
</a>
</g>
</g>
<!-- Node8&#45;&gt;Node2 -->
<g id="edge7_Node000002_Node000008" class="edge">
<title>Node8&#45;&gt;Node2</title>
<g id="a_edge7_Node000002_Node000008"><a xlink:title=" ">
<path fill="none" stroke="#63b8ff" d="M724.94,-538.22C723.92,-502.83 718.32,-435.08 692,-385 683.2,-368.25 671.5,-352.28 658.73,-337.63"/>
<polygon fill="none" stroke="#63b8ff" points="658.69,-337.59 651.7,-335.82 650.65,-328.69 657.64,-330.46 658.69,-337.59"/>
</a>
</g>
<text text-anchor="middle" x="755.5" y="-410" font-family="Helvetica,sans-Serif" font-size="10.00" fill="grey"> #mpNodeIterator</text>
</g>
<!-- Node9 -->
<g id="Node000009" class="node">
<title>Node9</title>
<g id="a_Node000009"><a xlink:title=" ">
<polygon fill="white" stroke="transparent" points="856.5,-587.5 809.5,-587.5 809.5,-538.5 856.5,-538.5 856.5,-587.5"/>
<text text-anchor="start" x="815" y="-575" font-family="Helvetica,sans-Serif" font-size="10.00">iterator</text>
<text text-anchor="start" x="831.5" y="-560" font-family="Helvetica,sans-Serif" font-size="10.00"> </text>
<text text-anchor="start" x="831.5" y="-545" font-family="Helvetica,sans-Serif" font-size="10.00"> </text>
<polygon fill="#bfbfbf" stroke="#bfbfbf" points="810,-570 810,-570 857,-570 857,-570 810,-570"/>
<polygon fill="#bfbfbf" stroke="#bfbfbf" points="810,-555 810,-555 857,-555 857,-555 810,-555"/>
<polygon fill="none" stroke="#bfbfbf" points="809.5,-538.5 809.5,-587.5 856.5,-587.5 856.5,-538.5 809.5,-538.5"/>
</a>
</g>
</g>
<!-- Node9&#45;&gt;Node2 -->
<g id="edge8_Node000002_Node000009" class="edge">
<title>Node9&#45;&gt;Node2</title>
<g id="a_edge8_Node000002_Node000009"><a xlink:title=" ">
<path fill="none" stroke="#63b8ff" d="M835.35,-538.34C837.7,-501.9 837.11,-431.38 804,-385 769.81,-337.11 712.27,-305.25 661.99,-285.11"/>
<polygon fill="none" stroke="#63b8ff" points="661.91,-285.08 654.87,-286.64 650.72,-280.74 657.76,-279.18 661.91,-285.08"/>
</a>
</g>
<text text-anchor="middle" x="879" y="-415.5" font-family="Helvetica,sans-Serif" font-size="10.00" fill="grey"> #mpElementIterator</text>
<text text-anchor="middle" x="879" y="-404.5" font-family="Helvetica,sans-Serif" font-size="10.00" fill="grey">#mpFaceIterator</text>
</g>
<!-- Node10 -->
<g id="Node000010" class="node">
<title>Node10</title>
<g id="a_Node000010"><a xlink:href="classbool.html" target="_top" xlink:title=" ">
<polygon fill="white" stroke="transparent" points="976,-587.5 944,-587.5 944,-538.5 976,-538.5 976,-587.5"/>
<text text-anchor="start" x="949" y="-575" font-family="Helvetica,sans-Serif" font-size="10.00">bool</text>
<text text-anchor="start" x="958" y="-560" font-family="Helvetica,sans-Serif" font-size="10.00"> </text>
<text text-anchor="start" x="958" y="-545" font-family="Helvetica,sans-Serif" font-size="10.00"> </text>
<polygon fill="#bfbfbf" stroke="#bfbfbf" points="944,-570 944,-570 976,-570 976,-570 944,-570"/>
<polygon fill="#bfbfbf" stroke="#bfbfbf" points="944,-555 944,-555 976,-555 976,-555 944,-555"/>
<polygon fill="none" stroke="#bfbfbf" points="944,-538.5 944,-587.5 976,-587.5 976,-538.5 944,-538.5"/>
</a>
</g>
</g>
<!-- Node10&#45;&gt;Node2 -->
<g id="edge9_Node000002_Node000010" class="edge">
<title>Node10&#45;&gt;Node2</title>
<g id="a_edge9_Node000002_Node000010"><a xlink:title=" ">
<path fill="none" stroke="#63b8ff" d="M963.78,-538.34C968.31,-501.25 971.26,-429.11 935,-385 868.5,-304.11 748.45,-273.65 662.71,-262.24"/>
<polygon fill="none" stroke="#63b8ff" points="662.49,-262.21 656.04,-265.44 650.58,-260.72 657.03,-257.5 662.49,-262.21"/>
</a>
</g>
<text text-anchor="middle" x="1007" y="-410" font-family="Helvetica,sans-Serif" font-size="10.00" fill="grey"> #mIndexFromZero</text>
</g>
</g>
</svg>
