<?xml version="1.0" encoding="UTF-8" standalone="no"?>
<!DOCTYPE svg PUBLIC "-//W3C//DTD SVG 1.1//EN"
 "http://www.w3.org/Graphics/SVG/1.1/DTD/svg11.dtd">
<!-- Generated by graphviz version 2.43.0 (0)
 -->
<!-- Title: EllipticBoxDomainPdeModifier&lt; DIM &gt; Pages: 1 -->
<svg width="327pt" height="1618pt"
 viewBox="0.00 0.00 327.00 1618.00" xmlns="http://www.w3.org/2000/svg" xmlns:xlink="http://www.w3.org/1999/xlink">
<g id="graph0" class="graph" transform="scale(1 1) rotate(0) translate(4 1614)">
<title>EllipticBoxDomainPdeModifier&lt; DIM &gt;</title>
<!-- Node1 -->
<g id="Node000001" class="node">
<title>Node1</title>
<g id="a_Node000001"><a xlink:title=" ">
<polygon fill="#999999" stroke="transparent" points="194,-172 9,-172 9,0 194,0 194,-172"/>
<text text-anchor="start" x="28" y="-160" font-family="Helvetica,sans-Serif" font-size="10.00">EllipticBoxDomainPdeModifier</text>
<text text-anchor="start" x="80.5" y="-149" font-family="Helvetica,sans-Serif" font-size="10.00">&lt; DIM &gt;</text>
<text text-anchor="start" x="100" y="-134" font-family="Helvetica,sans-Serif" font-size="10.00"> </text>
<text text-anchor="start" x="13.5" y="-119" font-family="Helvetica,sans-Serif" font-size="10.00">+</text>
<text text-anchor="start" x="26.5" y="-119" font-family="Helvetica,sans-Serif" font-size="10.00">EllipticBoxDomainPdeModifier()</text>
<text text-anchor="start" x="13.5" y="-104" font-family="Helvetica,sans-Serif" font-size="10.00">+</text>
<text text-anchor="start" x="26.5" y="-104" font-family="Helvetica,sans-Serif" font-size="10.00">~EllipticBoxDomainPdeModifier()</text>
<text text-anchor="start" x="13.5" y="-89" font-family="Helvetica,sans-Serif" font-size="10.00">+</text>
<text text-anchor="start" x="26.5" y="-89" font-family="Helvetica,sans-Serif" font-size="10.00">UpdateAtEndOfTimeStep()</text>
<text text-anchor="start" x="13.5" y="-74" font-family="Helvetica,sans-Serif" font-size="10.00">+</text>
<text text-anchor="start" x="26.5" y="-74" font-family="Helvetica,sans-Serif" font-size="10.00">SetupSolve()</text>
<text text-anchor="start" x="13.5" y="-59" font-family="Helvetica,sans-Serif" font-size="10.00">+</text>
<text text-anchor="start" x="26.5" y="-59" font-family="Helvetica,sans-Serif" font-size="10.00">ConstructBoundaryConditions</text>
<text text-anchor="start" x="26.5" y="-48" font-family="Helvetica,sans-Serif" font-size="10.00">Container()</text>
<text text-anchor="start" x="13.5" y="-33" font-family="Helvetica,sans-Serif" font-size="10.00">+</text>
<text text-anchor="start" x="26.5" y="-33" font-family="Helvetica,sans-Serif" font-size="10.00">OutputSimulationModifier</text>
<text text-anchor="start" x="26.5" y="-22" font-family="Helvetica,sans-Serif" font-size="10.00">Parameters()</text>
<text text-anchor="start" x="16" y="-7" font-family="Helvetica,sans-Serif" font-size="10.00">&#45;</text>
<text text-anchor="start" x="26.5" y="-7" font-family="Helvetica,sans-Serif" font-size="10.00">serialize()</text>
<polygon fill="#666666" stroke="#666666" points="9.5,-144 9.5,-144 194.5,-144 194.5,-144 9.5,-144"/>
<polygon fill="#666666" stroke="#666666" points="9.5,-129 9.5,-129 194.5,-129 194.5,-129 9.5,-129"/>
<polygon fill="none" stroke="#666666" points="9,0 9,-172 194,-172 194,0 9,0"/>
</a>
</g>
</g>
<!-- Node2 -->
<g id="Node000002" class="node">
<title>Node2</title>
<g id="a_Node000002"><a xlink:href="classAbstractBoxDomainPdeModifier.html" target="_top" xlink:title=" ">
<polygon fill="white" stroke="transparent" points="203,-524 0,-524 0,-209 203,-209 203,-524"/>
<text text-anchor="start" x="24" y="-511.5" font-family="Helvetica,sans-Serif" font-size="10.00">AbstractBoxDomainPdeModifier</text>
<text text-anchor="start" x="80.5" y="-500.5" font-family="Helvetica,sans-Serif" font-size="10.00">&lt; DIM &gt;</text>
<text text-anchor="start" x="4.5" y="-485.5" font-family="Helvetica,sans-Serif" font-size="10.00">#</text>
<text text-anchor="start" x="17.5" y="-485.5" font-family="Helvetica,sans-Serif" font-size="10.00">mCellPdeElementMap</text>
<text text-anchor="start" x="4.5" y="-470.5" font-family="Helvetica,sans-Serif" font-size="10.00">#</text>
<text text-anchor="start" x="17.5" y="-470.5" font-family="Helvetica,sans-Serif" font-size="10.00">mpMeshCuboid</text>
<text text-anchor="start" x="4.5" y="-455.5" font-family="Helvetica,sans-Serif" font-size="10.00">#</text>
<text text-anchor="start" x="17.5" y="-455.5" font-family="Helvetica,sans-Serif" font-size="10.00">mStepSize</text>
<text text-anchor="start" x="4.5" y="-440.5" font-family="Helvetica,sans-Serif" font-size="10.00">#</text>
<text text-anchor="start" x="17.5" y="-440.5" font-family="Helvetica,sans-Serif" font-size="10.00">mSetBcsOnBoxBoundary</text>
<text text-anchor="start" x="4.5" y="-425.5" font-family="Helvetica,sans-Serif" font-size="10.00">#</text>
<text text-anchor="start" x="17.5" y="-425.5" font-family="Helvetica,sans-Serif" font-size="10.00">mSetBcsOnBoundingSphere</text>
<text text-anchor="start" x="4.5" y="-410.5" font-family="Helvetica,sans-Serif" font-size="10.00">#</text>
<text text-anchor="start" x="17.5" y="-410.5" font-family="Helvetica,sans-Serif" font-size="10.00">mUseVoronoiCellsForInterpolation</text>
<text text-anchor="start" x="4.5" y="-395.5" font-family="Helvetica,sans-Serif" font-size="10.00">#</text>
<text text-anchor="start" x="17.5" y="-395.5" font-family="Helvetica,sans-Serif" font-size="10.00">mTypicalCellRadius</text>
<text text-anchor="start" x="4.5" y="-380.5" font-family="Helvetica,sans-Serif" font-size="10.00">+</text>
<text text-anchor="start" x="17.5" y="-380.5" font-family="Helvetica,sans-Serif" font-size="10.00">AbstractBoxDomainPdeModifier()</text>
<text text-anchor="start" x="4.5" y="-365.5" font-family="Helvetica,sans-Serif" font-size="10.00">+</text>
<text text-anchor="start" x="17.5" y="-365.5" font-family="Helvetica,sans-Serif" font-size="10.00">~AbstractBoxDomainPdeModifier()</text>
<text text-anchor="start" x="4.5" y="-350.5" font-family="Helvetica,sans-Serif" font-size="10.00">+</text>
<text text-anchor="start" x="17.5" y="-350.5" font-family="Helvetica,sans-Serif" font-size="10.00">GetStepSize()</text>
<text text-anchor="start" x="4.5" y="-335.5" font-family="Helvetica,sans-Serif" font-size="10.00">+</text>
<text text-anchor="start" x="17.5" y="-335.5" font-family="Helvetica,sans-Serif" font-size="10.00">SetBcsOnBoxBoundary()</text>
<text text-anchor="start" x="4.5" y="-320.5" font-family="Helvetica,sans-Serif" font-size="10.00">+</text>
<text text-anchor="start" x="17.5" y="-320.5" font-family="Helvetica,sans-Serif" font-size="10.00">AreBcsSetOnBoxBoundary()</text>
<text text-anchor="start" x="4.5" y="-305.5" font-family="Helvetica,sans-Serif" font-size="10.00">+</text>
<text text-anchor="start" x="17.5" y="-305.5" font-family="Helvetica,sans-Serif" font-size="10.00">SetBcsOnBoundingSphere()</text>
<text text-anchor="start" x="4.5" y="-290.5" font-family="Helvetica,sans-Serif" font-size="10.00">+</text>
<text text-anchor="start" x="17.5" y="-290.5" font-family="Helvetica,sans-Serif" font-size="10.00">AreBcsSetOnBoundingSphere()</text>
<text text-anchor="start" x="4.5" y="-275.5" font-family="Helvetica,sans-Serif" font-size="10.00">+</text>
<text text-anchor="start" x="17.5" y="-275.5" font-family="Helvetica,sans-Serif" font-size="10.00">SetUseVoronoiCellsForInterpolation()</text>
<text text-anchor="start" x="4.5" y="-260.5" font-family="Helvetica,sans-Serif" font-size="10.00">+</text>
<text text-anchor="start" x="17.5" y="-260.5" font-family="Helvetica,sans-Serif" font-size="10.00">GetUseVoronoiCellsForInterpolation()</text>
<text text-anchor="start" x="4.5" y="-245.5" font-family="Helvetica,sans-Serif" font-size="10.00">+</text>
<text text-anchor="start" x="17.5" y="-245.5" font-family="Helvetica,sans-Serif" font-size="10.00">SetTypicalCellRadius()</text>
<text text-anchor="start" x="17.5" y="-230.5" font-family="Helvetica,sans-Serif" font-size="10.00">and 9 more...</text>
<text text-anchor="start" x="7" y="-215.5" font-family="Helvetica,sans-Serif" font-size="10.00">&#45;</text>
<text text-anchor="start" x="17.5" y="-215.5" font-family="Helvetica,sans-Serif" font-size="10.00">serialize()</text>
<polygon fill="#666666" stroke="#666666" points="0.5,-495.5 0.5,-495.5 203.5,-495.5 203.5,-495.5 0.5,-495.5"/>
<polygon fill="#666666" stroke="#666666" points="0.5,-390.5 0.5,-390.5 15.5,-390.5 15.5,-390.5 0.5,-390.5"/>
<polygon fill="#666666" stroke="#666666" points="15.5,-390.5 15.5,-390.5 203.5,-390.5 203.5,-390.5 15.5,-390.5"/>
<polygon fill="none" stroke="#666666" points="0,-209 0,-524 203,-524 203,-209 0,-209"/>
</a>
</g>
</g>
<!-- Node2&#45;&gt;Node1 -->
<g id="edge1_Node000001_Node000002" class="edge">
<title>Node2&#45;&gt;Node1</title>
<g id="a_edge1_Node000001_Node000002"><a xlink:title=" ">
<path fill="none" stroke="#63b8ff" d="M101.5,-198.55C101.5,-189.57 101.5,-180.76 101.5,-172.26"/>
<polygon fill="none" stroke="#63b8ff" points="98,-198.75 101.5,-208.75 105,-198.75 98,-198.75"/>
</a>
</g>
</g>
<!-- Node3 -->
<g id="Node000003" class="node">
<title>Node3</title>
<g id="a_Node000003"><a xlink:href="classAbstractPdeModifier.html" target="_top" xlink:title=" ">
<polygon fill="white" stroke="transparent" points="191.5,-962 11.5,-962 11.5,-561 191.5,-561 191.5,-962"/>
<text text-anchor="start" x="52" y="-949.5" font-family="Helvetica,sans-Serif" font-size="10.00">AbstractPdeModifier</text>
<text text-anchor="start" x="80" y="-938.5" font-family="Helvetica,sans-Serif" font-size="10.00">&lt; DIM &gt;</text>
<text text-anchor="start" x="15.5" y="-923.5" font-family="Helvetica,sans-Serif" font-size="10.00">#</text>
<text text-anchor="start" x="28.5" y="-923.5" font-family="Helvetica,sans-Serif" font-size="10.00">mpPde</text>
<text text-anchor="start" x="15.5" y="-908.5" font-family="Helvetica,sans-Serif" font-size="10.00">#</text>
<text text-anchor="start" x="28.5" y="-908.5" font-family="Helvetica,sans-Serif" font-size="10.00">mpBoundaryCondition</text>
<text text-anchor="start" x="15.5" y="-893.5" font-family="Helvetica,sans-Serif" font-size="10.00">#</text>
<text text-anchor="start" x="28.5" y="-893.5" font-family="Helvetica,sans-Serif" font-size="10.00">mIsNeumannBoundaryCondition</text>
<text text-anchor="start" x="15.5" y="-878.5" font-family="Helvetica,sans-Serif" font-size="10.00">#</text>
<text text-anchor="start" x="28.5" y="-878.5" font-family="Helvetica,sans-Serif" font-size="10.00">mDependentVariableName</text>
<text text-anchor="start" x="15.5" y="-863.5" font-family="Helvetica,sans-Serif" font-size="10.00">#</text>
<text text-anchor="start" x="28.5" y="-863.5" font-family="Helvetica,sans-Serif" font-size="10.00">mSolution</text>
<text text-anchor="start" x="15.5" y="-848.5" font-family="Helvetica,sans-Serif" font-size="10.00">#</text>
<text text-anchor="start" x="28.5" y="-848.5" font-family="Helvetica,sans-Serif" font-size="10.00">mpFeMesh</text>
<text text-anchor="start" x="15.5" y="-833.5" font-family="Helvetica,sans-Serif" font-size="10.00">#</text>
<text text-anchor="start" x="28.5" y="-833.5" font-family="Helvetica,sans-Serif" font-size="10.00">mOutputDirectory</text>
<text text-anchor="start" x="15.5" y="-818.5" font-family="Helvetica,sans-Serif" font-size="10.00">#</text>
<text text-anchor="start" x="28.5" y="-818.5" font-family="Helvetica,sans-Serif" font-size="10.00">mOutputGradient</text>
<text text-anchor="start" x="15.5" y="-803.5" font-family="Helvetica,sans-Serif" font-size="10.00">#</text>
<text text-anchor="start" x="28.5" y="-803.5" font-family="Helvetica,sans-Serif" font-size="10.00">mOutputSolutionAtPdeNodes</text>
<text text-anchor="start" x="15.5" y="-788.5" font-family="Helvetica,sans-Serif" font-size="10.00">#</text>
<text text-anchor="start" x="28.5" y="-788.5" font-family="Helvetica,sans-Serif" font-size="10.00">mpVizPdeSolutionResultsFile</text>
<text text-anchor="start" x="15.5" y="-773.5" font-family="Helvetica,sans-Serif" font-size="10.00">#</text>
<text text-anchor="start" x="28.5" y="-773.5" font-family="Helvetica,sans-Serif" font-size="10.00">mDeleteFeMesh</text>
<text text-anchor="start" x="15.5" y="-758.5" font-family="Helvetica,sans-Serif" font-size="10.00">#</text>
<text text-anchor="start" x="28.5" y="-758.5" font-family="Helvetica,sans-Serif" font-size="10.00">mIsDirichletBoundaryNode</text>
<text text-anchor="start" x="15.5" y="-743.5" font-family="Helvetica,sans-Serif" font-size="10.00">+</text>
<text text-anchor="start" x="28.5" y="-743.5" font-family="Helvetica,sans-Serif" font-size="10.00">AbstractPdeModifier()</text>
<text text-anchor="start" x="15.5" y="-728.5" font-family="Helvetica,sans-Serif" font-size="10.00">+</text>
<text text-anchor="start" x="28.5" y="-728.5" font-family="Helvetica,sans-Serif" font-size="10.00">~AbstractPdeModifier()</text>
<text text-anchor="start" x="15.5" y="-713.5" font-family="Helvetica,sans-Serif" font-size="10.00">+</text>
<text text-anchor="start" x="28.5" y="-713.5" font-family="Helvetica,sans-Serif" font-size="10.00">GetPde()</text>
<text text-anchor="start" x="15.5" y="-698.5" font-family="Helvetica,sans-Serif" font-size="10.00">+</text>
<text text-anchor="start" x="28.5" y="-698.5" font-family="Helvetica,sans-Serif" font-size="10.00">GetBoundaryCondition()</text>
<text text-anchor="start" x="15.5" y="-683.5" font-family="Helvetica,sans-Serif" font-size="10.00">+</text>
<text text-anchor="start" x="28.5" y="-683.5" font-family="Helvetica,sans-Serif" font-size="10.00">IsNeumannBoundaryCondition()</text>
<text text-anchor="start" x="15.5" y="-668.5" font-family="Helvetica,sans-Serif" font-size="10.00">+</text>
<text text-anchor="start" x="28.5" y="-668.5" font-family="Helvetica,sans-Serif" font-size="10.00">SetDependentVariableName()</text>
<text text-anchor="start" x="15.5" y="-653.5" font-family="Helvetica,sans-Serif" font-size="10.00">+</text>
<text text-anchor="start" x="28.5" y="-653.5" font-family="Helvetica,sans-Serif" font-size="10.00">rGetDependentVariableName()</text>
<text text-anchor="start" x="15.5" y="-638.5" font-family="Helvetica,sans-Serif" font-size="10.00">+</text>
<text text-anchor="start" x="28.5" y="-638.5" font-family="Helvetica,sans-Serif" font-size="10.00">HasAveragedSourcePde()</text>
<text text-anchor="start" x="15.5" y="-623.5" font-family="Helvetica,sans-Serif" font-size="10.00">+</text>
<text text-anchor="start" x="28.5" y="-623.5" font-family="Helvetica,sans-Serif" font-size="10.00">SetUpSourceTermsForAveraged</text>
<text text-anchor="start" x="28.5" y="-612.5" font-family="Helvetica,sans-Serif" font-size="10.00">SourcePde()</text>
<text text-anchor="start" x="15.5" y="-597.5" font-family="Helvetica,sans-Serif" font-size="10.00">+</text>
<text text-anchor="start" x="28.5" y="-597.5" font-family="Helvetica,sans-Serif" font-size="10.00">GetSolution()</text>
<text text-anchor="start" x="28.5" y="-582.5" font-family="Helvetica,sans-Serif" font-size="10.00">and 10 more...</text>
<text text-anchor="start" x="18" y="-567.5" font-family="Helvetica,sans-Serif" font-size="10.00">&#45;</text>
<text text-anchor="start" x="28.5" y="-567.5" font-family="Helvetica,sans-Serif" font-size="10.00">serialize()</text>
<polygon fill="#666666" stroke="#666666" points="11.5,-933.5 11.5,-933.5 191.5,-933.5 191.5,-933.5 11.5,-933.5"/>
<polygon fill="#666666" stroke="#666666" points="11.5,-753.5 11.5,-753.5 26.5,-753.5 26.5,-753.5 11.5,-753.5"/>
<polygon fill="#666666" stroke="#666666" points="26.5,-753.5 26.5,-753.5 191.5,-753.5 191.5,-753.5 26.5,-753.5"/>
<polygon fill="none" stroke="#666666" points="11.5,-561 11.5,-962 191.5,-962 191.5,-561 11.5,-561"/>
</a>
</g>
</g>
<!-- Node3&#45;&gt;Node2 -->
<g id="edge2_Node000002_Node000003" class="edge">
<title>Node3&#45;&gt;Node2</title>
<g id="a_edge2_Node000002_Node000003"><a xlink:title=" ">
<path fill="none" stroke="#63b8ff" d="M101.5,-550.72C101.5,-541.77 101.5,-532.86 101.5,-524.07"/>
<polygon fill="none" stroke="#63b8ff" points="98,-550.83 101.5,-560.83 105,-550.83 98,-550.83"/>
</a>
</g>
</g>
<!-- Node4 -->
<g id="Node000004" class="node">
<title>Node4</title>
<g id="a_Node000004"><a xlink:href="classAbstractCellBasedSimulationModifier.html" target="_top" xlink:title=" ">
<polygon fill="white" stroke="transparent" points="193.5,-1223 9.5,-1223 9.5,-999 193.5,-999 193.5,-1223"/>
<text text-anchor="start" x="30.5" y="-1211" font-family="Helvetica,sans-Serif" font-size="10.00">AbstractCellBasedSimulation</text>
<text text-anchor="start" x="47.5" y="-1200" font-family="Helvetica,sans-Serif" font-size="10.00">Modifier&lt; DIM, DIM &gt;</text>
<text text-anchor="start" x="99.5" y="-1185" font-family="Helvetica,sans-Serif" font-size="10.00"> </text>
<text text-anchor="start" x="13.5" y="-1170" font-family="Helvetica,sans-Serif" font-size="10.00">+</text>
<text text-anchor="start" x="26.5" y="-1170" font-family="Helvetica,sans-Serif" font-size="10.00">AbstractCellBasedSimulation</text>
<text text-anchor="start" x="26.5" y="-1159" font-family="Helvetica,sans-Serif" font-size="10.00">Modifier()</text>
<text text-anchor="start" x="13.5" y="-1144" font-family="Helvetica,sans-Serif" font-size="10.00">+</text>
<text text-anchor="start" x="26.5" y="-1144" font-family="Helvetica,sans-Serif" font-size="10.00">~AbstractCellBasedSimulation</text>
<text text-anchor="start" x="26.5" y="-1133" font-family="Helvetica,sans-Serif" font-size="10.00">Modifier()</text>
<text text-anchor="start" x="13.5" y="-1118" font-family="Helvetica,sans-Serif" font-size="10.00">+</text>
<text text-anchor="start" x="26.5" y="-1118" font-family="Helvetica,sans-Serif" font-size="10.00">UpdateAtEndOfTimeStep()</text>
<text text-anchor="start" x="13.5" y="-1103" font-family="Helvetica,sans-Serif" font-size="10.00">+</text>
<text text-anchor="start" x="26.5" y="-1103" font-family="Helvetica,sans-Serif" font-size="10.00">UpdateAtEndOfOutputTimeStep()</text>
<text text-anchor="start" x="13.5" y="-1088" font-family="Helvetica,sans-Serif" font-size="10.00">+</text>
<text text-anchor="start" x="26.5" y="-1088" font-family="Helvetica,sans-Serif" font-size="10.00">SetupSolve()</text>
<text text-anchor="start" x="13.5" y="-1073" font-family="Helvetica,sans-Serif" font-size="10.00">+</text>
<text text-anchor="start" x="26.5" y="-1073" font-family="Helvetica,sans-Serif" font-size="10.00">UpdateAtEndOfSolve()</text>
<text text-anchor="start" x="13.5" y="-1058" font-family="Helvetica,sans-Serif" font-size="10.00">+</text>
<text text-anchor="start" x="26.5" y="-1058" font-family="Helvetica,sans-Serif" font-size="10.00">OutputSimulationModifier</text>
<text text-anchor="start" x="26.5" y="-1047" font-family="Helvetica,sans-Serif" font-size="10.00">Info()</text>
<text text-anchor="start" x="13.5" y="-1032" font-family="Helvetica,sans-Serif" font-size="10.00">+</text>
<text text-anchor="start" x="26.5" y="-1032" font-family="Helvetica,sans-Serif" font-size="10.00">OutputSimulationModifier</text>
<text text-anchor="start" x="26.5" y="-1021" font-family="Helvetica,sans-Serif" font-size="10.00">Parameters()</text>
<text text-anchor="start" x="16" y="-1006" font-family="Helvetica,sans-Serif" font-size="10.00">&#45;</text>
<text text-anchor="start" x="26.5" y="-1006" font-family="Helvetica,sans-Serif" font-size="10.00">serialize()</text>
<polygon fill="#666666" stroke="#666666" points="9.5,-1195 9.5,-1195 193.5,-1195 193.5,-1195 9.5,-1195"/>
<polygon fill="#666666" stroke="#666666" points="9.5,-1180 9.5,-1180 193.5,-1180 193.5,-1180 9.5,-1180"/>
<polygon fill="none" stroke="#666666" points="9.5,-999 9.5,-1223 193.5,-1223 193.5,-999 9.5,-999"/>
</a>
</g>
</g>
<!-- Node4&#45;&gt;Node3 -->
<g id="edge3_Node000003_Node000004" class="edge">
<title>Node4&#45;&gt;Node3</title>
<g id="a_edge3_Node000003_Node000004"><a xlink:title=" ">
<path fill="none" stroke="#63b8ff" d="M101.5,-988.55C101.5,-979.9 101.5,-971.05 101.5,-962.11"/>
<polygon fill="none" stroke="#63b8ff" points="98,-988.61 101.5,-998.61 105,-988.61 98,-988.61"/>
</a>
</g>
</g>
<!-- Node5 -->
<g id="Node000005" class="node">
<title>Node5</title>
<g id="a_Node000005"><a xlink:href="classIdentifiable.html" target="_top" xlink:title=" ">
<polygon fill="white" stroke="transparent" points="185.5,-1610 9.5,-1610 9.5,-1531 185.5,-1531 185.5,-1610"/>
<text text-anchor="start" x="70" y="-1597.5" font-family="Helvetica,sans-Serif" font-size="10.00">Identifiable</text>
<text text-anchor="start" x="95.5" y="-1582.5" font-family="Helvetica,sans-Serif" font-size="10.00"> </text>
<text text-anchor="start" x="13.5" y="-1567.5" font-family="Helvetica,sans-Serif" font-size="10.00">+</text>
<text text-anchor="start" x="26.5" y="-1567.5" font-family="Helvetica,sans-Serif" font-size="10.00">~Identifiable()</text>
<text text-anchor="start" x="13.5" y="-1552.5" font-family="Helvetica,sans-Serif" font-size="10.00">+</text>
<text text-anchor="start" x="26.5" y="-1552.5" font-family="Helvetica,sans-Serif" font-size="10.00">GetIdentifier()</text>
<text text-anchor="start" x="16" y="-1537.5" font-family="Helvetica,sans-Serif" font-size="10.00">&#45;</text>
<text text-anchor="start" x="26.5" y="-1537.5" font-family="Helvetica,sans-Serif" font-size="10.00">TidyTemplatedExportIdentifier()</text>
<polygon fill="#666666" stroke="#666666" points="9.5,-1592.5 9.5,-1592.5 185.5,-1592.5 185.5,-1592.5 9.5,-1592.5"/>
<polygon fill="#666666" stroke="#666666" points="9.5,-1577.5 9.5,-1577.5 185.5,-1577.5 185.5,-1577.5 9.5,-1577.5"/>
<polygon fill="none" stroke="#666666" points="9.5,-1531 9.5,-1610 185.5,-1610 185.5,-1531 9.5,-1531"/>
</a>
</g>
</g>
<!-- Node5&#45;&gt;Node4 -->
<g id="edge4_Node000004_Node000005" class="edge">
<title>Node5&#45;&gt;Node4</title>
<g id="a_edge4_Node000004_Node000005"><a xlink:title=" ">
<path fill="none" stroke="#63b8ff" d="M97.93,-1520.53C98.54,-1450.02 99.7,-1317.96 100.53,-1223.05"/>
<polygon fill="none" stroke="#63b8ff" points="94.43,-1520.86 97.84,-1530.89 101.42,-1520.92 94.43,-1520.86"/>
</a>
</g>
</g>
<!-- Node6 -->
<g id="Node000006" class="node">
<title>Node6</title>
<g id="a_Node000006"><a xlink:href="classAbstractCellBasedSimulationModifier.html" target="_top" xlink:title=" ">
<polygon fill="white" stroke="transparent" points="319,-1494 114,-1494 114,-1270 319,-1270 319,-1494"/>
<text text-anchor="start" x="119.5" y="-1482" font-family="Helvetica,sans-Serif" font-size="10.00">AbstractCellBasedSimulation</text>
<text text-anchor="start" x="119.5" y="-1471" font-family="Helvetica,sans-Serif" font-size="10.00">Modifier&lt; ELEMENT_DIM, SPACE_DIM &gt;</text>
<text text-anchor="start" x="215" y="-1456" font-family="Helvetica,sans-Serif" font-size="10.00"> </text>
<text text-anchor="start" x="123.5" y="-1441" font-family="Helvetica,sans-Serif" font-size="10.00">+</text>
<text text-anchor="start" x="141.5" y="-1441" font-family="Helvetica,sans-Serif" font-size="10.00">AbstractCellBasedSimulation</text>
<text text-anchor="start" x="141.5" y="-1430" font-family="Helvetica,sans-Serif" font-size="10.00">Modifier()</text>
<text text-anchor="start" x="123.5" y="-1415" font-family="Helvetica,sans-Serif" font-size="10.00">+</text>
<text text-anchor="start" x="141.5" y="-1415" font-family="Helvetica,sans-Serif" font-size="10.00">~AbstractCellBasedSimulation</text>
<text text-anchor="start" x="141.5" y="-1404" font-family="Helvetica,sans-Serif" font-size="10.00">Modifier()</text>
<text text-anchor="start" x="123.5" y="-1389" font-family="Helvetica,sans-Serif" font-size="10.00">+</text>
<text text-anchor="start" x="141.5" y="-1389" font-family="Helvetica,sans-Serif" font-size="10.00">UpdateAtEndOfTimeStep()</text>
<text text-anchor="start" x="123.5" y="-1374" font-family="Helvetica,sans-Serif" font-size="10.00">+</text>
<text text-anchor="start" x="141.5" y="-1374" font-family="Helvetica,sans-Serif" font-size="10.00">UpdateAtEndOfOutputTimeStep()</text>
<text text-anchor="start" x="123.5" y="-1359" font-family="Helvetica,sans-Serif" font-size="10.00">+</text>
<text text-anchor="start" x="141.5" y="-1359" font-family="Helvetica,sans-Serif" font-size="10.00">SetupSolve()</text>
<text text-anchor="start" x="123.5" y="-1344" font-family="Helvetica,sans-Serif" font-size="10.00">+</text>
<text text-anchor="start" x="141.5" y="-1344" font-family="Helvetica,sans-Serif" font-size="10.00">UpdateAtEndOfSolve()</text>
<text text-anchor="start" x="123.5" y="-1329" font-family="Helvetica,sans-Serif" font-size="10.00">+</text>
<text text-anchor="start" x="141.5" y="-1329" font-family="Helvetica,sans-Serif" font-size="10.00">OutputSimulationModifier</text>
<text text-anchor="start" x="141.5" y="-1318" font-family="Helvetica,sans-Serif" font-size="10.00">Info()</text>
<text text-anchor="start" x="123.5" y="-1303" font-family="Helvetica,sans-Serif" font-size="10.00">+</text>
<text text-anchor="start" x="141.5" y="-1303" font-family="Helvetica,sans-Serif" font-size="10.00">OutputSimulationModifier</text>
<text text-anchor="start" x="141.5" y="-1292" font-family="Helvetica,sans-Serif" font-size="10.00">Parameters()</text>
<text text-anchor="start" x="126" y="-1277" font-family="Helvetica,sans-Serif" font-size="10.00">&#45;</text>
<text text-anchor="start" x="141.5" y="-1277" font-family="Helvetica,sans-Serif" font-size="10.00">serialize()</text>
<polygon fill="#666666" stroke="#666666" points="114.5,-1466 114.5,-1466 319.5,-1466 319.5,-1466 114.5,-1466"/>
<polygon fill="#666666" stroke="#666666" points="114.5,-1451 114.5,-1451 319.5,-1451 319.5,-1451 114.5,-1451"/>
<polygon fill="none" stroke="#666666" points="114,-1270 114,-1494 319,-1494 319,-1270 114,-1270"/>
</a>
</g>
</g>
<!-- Node5&#45;&gt;Node6 -->
<g id="edge6_Node000006_Node000005" class="edge">
<title>Node5&#45;&gt;Node6</title>
<g id="a_edge6_Node000006_Node000005"><a xlink:title=" ">
<path fill="none" stroke="#63b8ff" d="M127.59,-1522.34C133.19,-1513.56 139.26,-1504.06 145.5,-1494.28"/>
<polygon fill="none" stroke="#63b8ff" points="124.59,-1520.54 122.16,-1530.86 130.49,-1524.31 124.59,-1520.54"/>
</a>
</g>
</g>
<!-- Node6&#45;&gt;Node4 -->
<g id="edge5_Node000004_Node000006" class="edge">
<title>Node6&#45;&gt;Node4</title>
<g id="a_edge5_Node000004_Node000006"><a xlink:title=" ">
<path fill="none" stroke="orange" d="M164.88,-1260.27C159.62,-1247.95 154.29,-1235.48 149.07,-1223.27"/>
<polygon fill="orange" stroke="orange" points="161.75,-1261.83 168.89,-1269.65 168.18,-1259.07 161.75,-1261.83"/>
</a>
</g>
<text text-anchor="middle" x="194" y="-1244" font-family="Helvetica,sans-Serif" font-size="10.00" fill="grey"> &lt; DIM, DIM &gt;</text>
</g>
</g>
</svg>
