<?xml version="1.0" encoding="UTF-8" standalone="no"?>
<!DOCTYPE svg PUBLIC "-//W3C//DTD SVG 1.1//EN"
 "http://www.w3.org/Graphics/SVG/1.1/DTD/svg11.dtd">
<!-- Generated by graphviz version 2.43.0 (0)
 -->
<!-- Title: TetrahedralMesh&lt; ELEMENT_DIM, SPACE_DIM &gt;::EdgeIterator Pages: 1 -->
<svg width="1645pt" height="1692pt"
 viewBox="0.00 0.00 1644.50 1692.00" xmlns="http://www.w3.org/2000/svg" xmlns:xlink="http://www.w3.org/1999/xlink">
<g id="graph0" class="graph" transform="scale(1 1) rotate(0) translate(4 1688)">
<title>TetrahedralMesh&lt; ELEMENT_DIM, SPACE_DIM &gt;::EdgeIterator</title>
<!-- Node1 -->
<g id="Node000001" class="node">
<title>Node1</title>
<g id="a_Node000001"><a xlink:title=" ">
<polygon fill="#999999" stroke="transparent" points="250.5,-120 76.5,-120 76.5,0 250.5,0 250.5,-120"/>
<text text-anchor="start" x="81.5" y="-108" font-family="Helvetica,sans-Serif" font-size="10.00">TetrahedralMesh&lt; ELEMENT</text>
<text text-anchor="start" x="81.5" y="-97" font-family="Helvetica,sans-Serif" font-size="10.00">_DIM, SPACE_DIM &gt;::EdgeIterator</text>
<text text-anchor="start" x="161.5" y="-82" font-family="Helvetica,sans-Serif" font-size="10.00"> </text>
<text text-anchor="start" x="101.5" y="-67" font-family="Helvetica,sans-Serif" font-size="10.00">+</text>
<text text-anchor="start" x="135.5" y="-67" font-family="Helvetica,sans-Serif" font-size="10.00">GetNodeA()</text>
<text text-anchor="start" x="101.5" y="-52" font-family="Helvetica,sans-Serif" font-size="10.00">+</text>
<text text-anchor="start" x="135.5" y="-52" font-family="Helvetica,sans-Serif" font-size="10.00">GetNodeB()</text>
<text text-anchor="start" x="101.5" y="-37" font-family="Helvetica,sans-Serif" font-size="10.00">+</text>
<text text-anchor="start" x="135.5" y="-37" font-family="Helvetica,sans-Serif" font-size="10.00">operator!=()</text>
<text text-anchor="start" x="101.5" y="-22" font-family="Helvetica,sans-Serif" font-size="10.00">+</text>
<text text-anchor="start" x="135.5" y="-22" font-family="Helvetica,sans-Serif" font-size="10.00">operator++()</text>
<text text-anchor="start" x="101.5" y="-7" font-family="Helvetica,sans-Serif" font-size="10.00">+</text>
<text text-anchor="start" x="135.5" y="-7" font-family="Helvetica,sans-Serif" font-size="10.00">EdgeIterator()</text>
<polygon fill="#666666" stroke="#666666" points="76.5,-92 76.5,-92 250.5,-92 250.5,-92 76.5,-92"/>
<polygon fill="#666666" stroke="#666666" points="76.5,-77 76.5,-77 250.5,-77 250.5,-77 76.5,-77"/>
<polygon fill="none" stroke="#666666" points="76.5,0 76.5,-120 250.5,-120 250.5,0 76.5,0"/>
</a>
</g>
</g>
<!-- Node2 -->
<g id="Node000002" class="node">
<title>Node2</title>
<g id="a_Node000002"><a xlink:title=" ">
<polygon fill="white" stroke="transparent" points="135,-367.5 0,-367.5 0,-307.5 135,-307.5 135,-367.5"/>
<text text-anchor="start" x="5.5" y="-355.5" font-family="Helvetica,sans-Serif" font-size="10.00">set&lt; std::pair&lt; unsigned,</text>
<text text-anchor="start" x="33" y="-344.5" font-family="Helvetica,sans-Serif" font-size="10.00"> unsigned &gt; &gt;</text>
<text text-anchor="start" x="66" y="-329.5" font-family="Helvetica,sans-Serif" font-size="10.00"> </text>
<text text-anchor="start" x="66" y="-314.5" font-family="Helvetica,sans-Serif" font-size="10.00"> </text>
<polygon fill="#bfbfbf" stroke="#bfbfbf" points="0.5,-339.5 0.5,-339.5 135.5,-339.5 135.5,-339.5 0.5,-339.5"/>
<polygon fill="#bfbfbf" stroke="#bfbfbf" points="0.5,-324.5 0.5,-324.5 135.5,-324.5 135.5,-324.5 0.5,-324.5"/>
<polygon fill="none" stroke="#bfbfbf" points="0,-307.5 0,-367.5 135,-367.5 135,-307.5 0,-307.5"/>
</a>
</g>
</g>
<!-- Node2&#45;&gt;Node1 -->
<g id="edge1_Node000001_Node000002" class="edge">
<title>Node2&#45;&gt;Node1</title>
<g id="a_edge1_Node000001_Node000002"><a xlink:title=" ">
<path fill="none" stroke="#63b8ff" d="M60.42,-307.17C52.26,-266.84 43.12,-193 69.5,-138 70.77,-135.35 72.18,-132.76 73.71,-130.24"/>
<polygon fill="none" stroke="#63b8ff" points="73.82,-130.08 73.94,-122.87 80.64,-120.2 80.52,-127.41 73.82,-130.08"/>
</a>
</g>
<text text-anchor="middle" x="109.5" y="-141" font-family="Helvetica,sans-Serif" font-size="10.00" fill="grey"> &#45;mEdgesVisited</text>
</g>
<!-- Node3 -->
<g id="Node000003" class="node">
<title>Node3</title>
<g id="a_Node000003"><a xlink:href="classTetrahedralMesh.html" target="_top" xlink:title=" ">
<polygon fill="white" stroke="transparent" points="1234,-508 1049,-508 1049,-167 1234,-167 1234,-508"/>
<text text-anchor="start" x="1072.5" y="-495.5" font-family="Helvetica,sans-Serif" font-size="10.00">TetrahedralMesh&lt; ELEMENT</text>
<text text-anchor="start" x="1093" y="-484.5" font-family="Helvetica,sans-Serif" font-size="10.00">_DIM, SPACE_DIM &gt;</text>
<text text-anchor="start" x="1140" y="-469.5" font-family="Helvetica,sans-Serif" font-size="10.00"> </text>
<text text-anchor="start" x="1053.5" y="-454.5" font-family="Helvetica,sans-Serif" font-size="10.00">+</text>
<text text-anchor="start" x="1066.5" y="-454.5" font-family="Helvetica,sans-Serif" font-size="10.00">TetrahedralMesh()</text>
<text text-anchor="start" x="1053.5" y="-439.5" font-family="Helvetica,sans-Serif" font-size="10.00">+</text>
<text text-anchor="start" x="1066.5" y="-439.5" font-family="Helvetica,sans-Serif" font-size="10.00">ConstructFromMeshReader()</text>
<text text-anchor="start" x="1053.5" y="-424.5" font-family="Helvetica,sans-Serif" font-size="10.00">+</text>
<text text-anchor="start" x="1066.5" y="-424.5" font-family="Helvetica,sans-Serif" font-size="10.00">ReadNodesPerProcessorFile()</text>
<text text-anchor="start" x="1053.5" y="-409.5" font-family="Helvetica,sans-Serif" font-size="10.00">+</text>
<text text-anchor="start" x="1066.5" y="-409.5" font-family="Helvetica,sans-Serif" font-size="10.00">CheckIsConforming()</text>
<text text-anchor="start" x="1053.5" y="-394.5" font-family="Helvetica,sans-Serif" font-size="10.00">+</text>
<text text-anchor="start" x="1066.5" y="-394.5" font-family="Helvetica,sans-Serif" font-size="10.00">GetVolume()</text>
<text text-anchor="start" x="1053.5" y="-379.5" font-family="Helvetica,sans-Serif" font-size="10.00">+</text>
<text text-anchor="start" x="1066.5" y="-379.5" font-family="Helvetica,sans-Serif" font-size="10.00">GetSurfaceArea()</text>
<text text-anchor="start" x="1053.5" y="-364.5" font-family="Helvetica,sans-Serif" font-size="10.00">+</text>
<text text-anchor="start" x="1066.5" y="-364.5" font-family="Helvetica,sans-Serif" font-size="10.00">RefreshMesh()</text>
<text text-anchor="start" x="1053.5" y="-349.5" font-family="Helvetica,sans-Serif" font-size="10.00">+</text>
<text text-anchor="start" x="1066.5" y="-349.5" font-family="Helvetica,sans-Serif" font-size="10.00">PermuteNodes()</text>
<text text-anchor="start" x="1053.5" y="-334.5" font-family="Helvetica,sans-Serif" font-size="10.00">+</text>
<text text-anchor="start" x="1066.5" y="-334.5" font-family="Helvetica,sans-Serif" font-size="10.00">PermuteNodes()</text>
<text text-anchor="start" x="1053.5" y="-319.5" font-family="Helvetica,sans-Serif" font-size="10.00">+</text>
<text text-anchor="start" x="1066.5" y="-319.5" font-family="Helvetica,sans-Serif" font-size="10.00">GetContainingElementIndex</text>
<text text-anchor="start" x="1066.5" y="-308.5" font-family="Helvetica,sans-Serif" font-size="10.00">WithInitialGuess()</text>
<text text-anchor="start" x="1066.5" y="-293.5" font-family="Helvetica,sans-Serif" font-size="10.00">and 11 more...</text>
<text text-anchor="start" x="1053.5" y="-278.5" font-family="Helvetica,sans-Serif" font-size="10.00">#</text>
<text text-anchor="start" x="1066.5" y="-278.5" font-family="Helvetica,sans-Serif" font-size="10.00">SolveNodeMapping()</text>
<text text-anchor="start" x="1053.5" y="-263.5" font-family="Helvetica,sans-Serif" font-size="10.00">#</text>
<text text-anchor="start" x="1066.5" y="-263.5" font-family="Helvetica,sans-Serif" font-size="10.00">SolveElementMapping()</text>
<text text-anchor="start" x="1053.5" y="-248.5" font-family="Helvetica,sans-Serif" font-size="10.00">#</text>
<text text-anchor="start" x="1066.5" y="-248.5" font-family="Helvetica,sans-Serif" font-size="10.00">SolveBoundaryElementMapping()</text>
<text text-anchor="start" x="1053.5" y="-233.5" font-family="Helvetica,sans-Serif" font-size="10.00">#</text>
<text text-anchor="start" x="1066.5" y="-233.5" font-family="Helvetica,sans-Serif" font-size="10.00">ExportToMesher()</text>
<text text-anchor="start" x="1053.5" y="-218.5" font-family="Helvetica,sans-Serif" font-size="10.00">#</text>
<text text-anchor="start" x="1066.5" y="-218.5" font-family="Helvetica,sans-Serif" font-size="10.00">ImportFromMesher()</text>
<text text-anchor="start" x="1053.5" y="-203.5" font-family="Helvetica,sans-Serif" font-size="10.00">#</text>
<text text-anchor="start" x="1066.5" y="-203.5" font-family="Helvetica,sans-Serif" font-size="10.00">InitialiseTriangulateIo()</text>
<text text-anchor="start" x="1053.5" y="-188.5" font-family="Helvetica,sans-Serif" font-size="10.00">#</text>
<text text-anchor="start" x="1066.5" y="-188.5" font-family="Helvetica,sans-Serif" font-size="10.00">FreeTriangulateIo()</text>
<text text-anchor="start" x="1056" y="-173.5" font-family="Helvetica,sans-Serif" font-size="10.00">&#45;</text>
<text text-anchor="start" x="1066.5" y="-173.5" font-family="Helvetica,sans-Serif" font-size="10.00">serialize()</text>
<polygon fill="#666666" stroke="#666666" points="1049.5,-479.5 1049.5,-479.5 1234.5,-479.5 1234.5,-479.5 1049.5,-479.5"/>
<polygon fill="#666666" stroke="#666666" points="1049.5,-464.5 1049.5,-464.5 1234.5,-464.5 1234.5,-464.5 1049.5,-464.5"/>
<polygon fill="none" stroke="#666666" points="1049,-167 1049,-508 1234,-508 1234,-167 1049,-167"/>
</a>
</g>
</g>
<!-- Node3&#45;&gt;Node1 -->
<g id="edge2_Node000001_Node000003" class="edge">
<title>Node3&#45;&gt;Node1</title>
<g id="a_edge2_Node000001_Node000003"><a xlink:title=" ">
<path fill="none" stroke="#63b8ff" d="M1048.61,-310.33C863.9,-258.3 452,-142.27 262.44,-88.87"/>
<polygon fill="none" stroke="#63b8ff" points="262.38,-88.86 255.52,-91.08 250.83,-85.6 257.69,-83.38 262.38,-88.86"/>
</a>
</g>
<text text-anchor="middle" x="476" y="-141" font-family="Helvetica,sans-Serif" font-size="10.00" fill="grey"> &#45;mrMesh</text>
</g>
<!-- Node4 -->
<g id="Node000004" class="node">
<title>Node4</title>
<g id="a_Node000004"><a xlink:href="classAbstractTetrahedralMesh.html" target="_top" xlink:title=" ">
<polygon fill="white" stroke="transparent" points="1105,-862 918,-862 918,-577 1105,-577 1105,-862"/>
<text text-anchor="start" x="934.5" y="-849.5" font-family="Helvetica,sans-Serif" font-size="10.00">AbstractTetrahedralMesh</text>
<text text-anchor="start" x="934.5" y="-838.5" font-family="Helvetica,sans-Serif" font-size="10.00">&lt; ELEMENT_DIM, SPACE_DIM &gt;</text>
<text text-anchor="start" x="1010" y="-823.5" font-family="Helvetica,sans-Serif" font-size="10.00"> </text>
<text text-anchor="start" x="922.5" y="-808.5" font-family="Helvetica,sans-Serif" font-size="10.00">+</text>
<text text-anchor="start" x="935.5" y="-808.5" font-family="Helvetica,sans-Serif" font-size="10.00">GetElementIteratorBegin()</text>
<text text-anchor="start" x="922.5" y="-793.5" font-family="Helvetica,sans-Serif" font-size="10.00">+</text>
<text text-anchor="start" x="935.5" y="-793.5" font-family="Helvetica,sans-Serif" font-size="10.00">GetElementIteratorEnd()</text>
<text text-anchor="start" x="922.5" y="-778.5" font-family="Helvetica,sans-Serif" font-size="10.00">+</text>
<text text-anchor="start" x="935.5" y="-778.5" font-family="Helvetica,sans-Serif" font-size="10.00">AbstractTetrahedralMesh()</text>
<text text-anchor="start" x="922.5" y="-763.5" font-family="Helvetica,sans-Serif" font-size="10.00">+</text>
<text text-anchor="start" x="935.5" y="-763.5" font-family="Helvetica,sans-Serif" font-size="10.00">~AbstractTetrahedralMesh()</text>
<text text-anchor="start" x="922.5" y="-748.5" font-family="Helvetica,sans-Serif" font-size="10.00">+</text>
<text text-anchor="start" x="935.5" y="-748.5" font-family="Helvetica,sans-Serif" font-size="10.00">GetNumElements()</text>
<text text-anchor="start" x="922.5" y="-733.5" font-family="Helvetica,sans-Serif" font-size="10.00">+</text>
<text text-anchor="start" x="935.5" y="-733.5" font-family="Helvetica,sans-Serif" font-size="10.00">GetNumLocalElements()</text>
<text text-anchor="start" x="922.5" y="-718.5" font-family="Helvetica,sans-Serif" font-size="10.00">+</text>
<text text-anchor="start" x="935.5" y="-718.5" font-family="Helvetica,sans-Serif" font-size="10.00">GetNumBoundaryElements()</text>
<text text-anchor="start" x="922.5" y="-703.5" font-family="Helvetica,sans-Serif" font-size="10.00">+</text>
<text text-anchor="start" x="935.5" y="-703.5" font-family="Helvetica,sans-Serif" font-size="10.00">GetNumLocalBoundaryElements()</text>
<text text-anchor="start" x="922.5" y="-688.5" font-family="Helvetica,sans-Serif" font-size="10.00">+</text>
<text text-anchor="start" x="935.5" y="-688.5" font-family="Helvetica,sans-Serif" font-size="10.00">GetNumAllElements()</text>
<text text-anchor="start" x="922.5" y="-673.5" font-family="Helvetica,sans-Serif" font-size="10.00">+</text>
<text text-anchor="start" x="935.5" y="-673.5" font-family="Helvetica,sans-Serif" font-size="10.00">GetNumAllBoundaryElements()</text>
<text text-anchor="start" x="935.5" y="-658.5" font-family="Helvetica,sans-Serif" font-size="10.00">and 25 more...</text>
<text text-anchor="start" x="922.5" y="-643.5" font-family="Helvetica,sans-Serif" font-size="10.00">#</text>
<text text-anchor="start" x="935.5" y="-643.5" font-family="Helvetica,sans-Serif" font-size="10.00">SetElementOwnerships()</text>
<text text-anchor="start" x="925" y="-628.5" font-family="Helvetica,sans-Serif" font-size="10.00">&#45;</text>
<text text-anchor="start" x="935.5" y="-628.5" font-family="Helvetica,sans-Serif" font-size="10.00">SolveElementMapping()</text>
<text text-anchor="start" x="925" y="-613.5" font-family="Helvetica,sans-Serif" font-size="10.00">&#45;</text>
<text text-anchor="start" x="935.5" y="-613.5" font-family="Helvetica,sans-Serif" font-size="10.00">SolveBoundaryElementMapping()</text>
<text text-anchor="start" x="925" y="-598.5" font-family="Helvetica,sans-Serif" font-size="10.00">&#45;</text>
<text text-anchor="start" x="935.5" y="-598.5" font-family="Helvetica,sans-Serif" font-size="10.00">save()</text>
<text text-anchor="start" x="925" y="-583.5" font-family="Helvetica,sans-Serif" font-size="10.00">&#45;</text>
<text text-anchor="start" x="935.5" y="-583.5" font-family="Helvetica,sans-Serif" font-size="10.00">load()</text>
<polygon fill="#666666" stroke="#666666" points="918.5,-833.5 918.5,-833.5 1105.5,-833.5 1105.5,-833.5 918.5,-833.5"/>
<polygon fill="#666666" stroke="#666666" points="918.5,-818.5 918.5,-818.5 1105.5,-818.5 1105.5,-818.5 918.5,-818.5"/>
<polygon fill="none" stroke="#666666" points="918,-577 918,-862 1105,-862 1105,-577 918,-577"/>
</a>
</g>
</g>
<!-- Node4&#45;&gt;Node3 -->
<g id="edge3_Node000003_Node000004" class="edge">
<title>Node4&#45;&gt;Node3</title>
<g id="a_edge3_Node000003_Node000004"><a xlink:title=" ">
<path fill="none" stroke="#63b8ff" d="M1063.24,-567.25C1069.89,-547.83 1076.72,-527.84 1083.46,-508.15"/>
<polygon fill="none" stroke="#63b8ff" points="1059.92,-566.14 1060,-576.73 1066.55,-568.4 1059.92,-566.14"/>
</a>
</g>
</g>
<!-- Node5 -->
<g id="Node000005" class="node">
<title>Node5</title>
<g id="a_Node000005"><a xlink:href="classAbstractMesh.html" target="_top" xlink:title=" ">
<polygon fill="white" stroke="transparent" points="746,-1201 599,-1201 599,-931 746,-931 746,-1201"/>
<text text-anchor="start" x="611" y="-1189" font-family="Helvetica,sans-Serif" font-size="10.00">AbstractMesh&lt; ELEMENT</text>
<text text-anchor="start" x="624" y="-1178" font-family="Helvetica,sans-Serif" font-size="10.00">_DIM, SPACE_DIM &gt;</text>
<text text-anchor="start" x="671" y="-1163" font-family="Helvetica,sans-Serif" font-size="10.00"> </text>
<text text-anchor="start" x="603.5" y="-1148" font-family="Helvetica,sans-Serif" font-size="10.00">+</text>
<text text-anchor="start" x="616.5" y="-1148" font-family="Helvetica,sans-Serif" font-size="10.00">GetNodeIteratorBegin()</text>
<text text-anchor="start" x="603.5" y="-1133" font-family="Helvetica,sans-Serif" font-size="10.00">+</text>
<text text-anchor="start" x="616.5" y="-1133" font-family="Helvetica,sans-Serif" font-size="10.00">GetNodeIteratorEnd()</text>
<text text-anchor="start" x="603.5" y="-1118" font-family="Helvetica,sans-Serif" font-size="10.00">+</text>
<text text-anchor="start" x="616.5" y="-1118" font-family="Helvetica,sans-Serif" font-size="10.00">AbstractMesh()</text>
<text text-anchor="start" x="603.5" y="-1103" font-family="Helvetica,sans-Serif" font-size="10.00">+</text>
<text text-anchor="start" x="616.5" y="-1103" font-family="Helvetica,sans-Serif" font-size="10.00">~AbstractMesh()</text>
<text text-anchor="start" x="603.5" y="-1088" font-family="Helvetica,sans-Serif" font-size="10.00">+</text>
<text text-anchor="start" x="616.5" y="-1088" font-family="Helvetica,sans-Serif" font-size="10.00">GetNumNodes()</text>
<text text-anchor="start" x="603.5" y="-1073" font-family="Helvetica,sans-Serif" font-size="10.00">+</text>
<text text-anchor="start" x="616.5" y="-1073" font-family="Helvetica,sans-Serif" font-size="10.00">GetNumBoundaryNodes()</text>
<text text-anchor="start" x="603.5" y="-1058" font-family="Helvetica,sans-Serif" font-size="10.00">+</text>
<text text-anchor="start" x="616.5" y="-1058" font-family="Helvetica,sans-Serif" font-size="10.00">GetNumAllNodes()</text>
<text text-anchor="start" x="603.5" y="-1043" font-family="Helvetica,sans-Serif" font-size="10.00">+</text>
<text text-anchor="start" x="616.5" y="-1043" font-family="Helvetica,sans-Serif" font-size="10.00">GetNumNodeAttributes()</text>
<text text-anchor="start" x="603.5" y="-1028" font-family="Helvetica,sans-Serif" font-size="10.00">+</text>
<text text-anchor="start" x="616.5" y="-1028" font-family="Helvetica,sans-Serif" font-size="10.00">GetNode()</text>
<text text-anchor="start" x="603.5" y="-1013" font-family="Helvetica,sans-Serif" font-size="10.00">+</text>
<text text-anchor="start" x="616.5" y="-1013" font-family="Helvetica,sans-Serif" font-size="10.00">GetNodeOrHaloNode()</text>
<text text-anchor="start" x="616.5" y="-998" font-family="Helvetica,sans-Serif" font-size="10.00">and 28 more...</text>
<text text-anchor="start" x="603.5" y="-983" font-family="Helvetica,sans-Serif" font-size="10.00">#</text>
<text text-anchor="start" x="616.5" y="-983" font-family="Helvetica,sans-Serif" font-size="10.00">SetElementOwnerships()</text>
<text text-anchor="start" x="603.5" y="-968" font-family="Helvetica,sans-Serif" font-size="10.00">#</text>
<text text-anchor="start" x="616.5" y="-968" font-family="Helvetica,sans-Serif" font-size="10.00">CalculateBoundingBox()</text>
<text text-anchor="start" x="606" y="-953" font-family="Helvetica,sans-Serif" font-size="10.00">&#45;</text>
<text text-anchor="start" x="616.5" y="-953" font-family="Helvetica,sans-Serif" font-size="10.00">SolveNodeMapping()</text>
<text text-anchor="start" x="606" y="-938" font-family="Helvetica,sans-Serif" font-size="10.00">&#45;</text>
<text text-anchor="start" x="616.5" y="-938" font-family="Helvetica,sans-Serif" font-size="10.00">serialize()</text>
<polygon fill="#666666" stroke="#666666" points="599.5,-1173 599.5,-1173 746.5,-1173 746.5,-1173 599.5,-1173"/>
<polygon fill="#666666" stroke="#666666" points="599.5,-1158 599.5,-1158 746.5,-1158 746.5,-1158 599.5,-1158"/>
<polygon fill="none" stroke="#666666" points="599,-931 599,-1201 746,-1201 746,-931 599,-931"/>
</a>
</g>
</g>
<!-- Node5&#45;&gt;Node4 -->
<g id="edge4_Node000004_Node000005" class="edge">
<title>Node5&#45;&gt;Node4</title>
<g id="a_edge4_Node000004_Node000005"><a xlink:title=" ">
<path fill="none" stroke="#63b8ff" d="M753.89,-1002.8C801.41,-964.64 861.13,-913.38 908.5,-862 911.59,-858.65 914.67,-855.21 917.73,-851.69"/>
<polygon fill="none" stroke="#63b8ff" points="751.7,-1000.07 746.08,-1009.05 756.07,-1005.54 751.7,-1000.07"/>
</a>
</g>
</g>
<!-- Node6 -->
<g id="Node000006" class="node">
<title>Node6</title>
<g id="a_Node000006"><a xlink:title=" ">
<polygon fill="white" stroke="transparent" points="435.5,-1431.5 329.5,-1431.5 329.5,-1382.5 435.5,-1382.5 435.5,-1431.5"/>
<text text-anchor="start" x="334.5" y="-1419" font-family="Helvetica,sans-Serif" font-size="10.00">boost::noncopyable</text>
<text text-anchor="start" x="380.5" y="-1404" font-family="Helvetica,sans-Serif" font-size="10.00"> </text>
<text text-anchor="start" x="380.5" y="-1389" font-family="Helvetica,sans-Serif" font-size="10.00"> </text>
<polygon fill="#bfbfbf" stroke="#bfbfbf" points="329.5,-1414 329.5,-1414 435.5,-1414 435.5,-1414 329.5,-1414"/>
<polygon fill="#bfbfbf" stroke="#bfbfbf" points="329.5,-1399 329.5,-1399 435.5,-1399 435.5,-1399 329.5,-1399"/>
<polygon fill="none" stroke="#bfbfbf" points="329.5,-1382.5 329.5,-1431.5 435.5,-1431.5 435.5,-1382.5 329.5,-1382.5"/>
</a>
</g>
</g>
<!-- Node6&#45;&gt;Node5 -->
<g id="edge5_Node000005_Node000006" class="edge">
<title>Node6&#45;&gt;Node5</title>
<g id="a_edge5_Node000005_Node000006"><a xlink:title=" ">
<path fill="none" stroke="#8b1a1a" d="M389.78,-1372.47C399.73,-1332.6 420.71,-1265.59 457.5,-1219 495.6,-1170.75 553.02,-1131.24 598.93,-1104.61"/>
<polygon fill="none" stroke="#8b1a1a" points="386.36,-1371.7 387.42,-1382.24 393.17,-1373.34 386.36,-1371.7"/>
</a>
</g>
</g>
<!-- Node7 -->
<g id="Node000007" class="node">
<title>Node7</title>
<g id="a_Node000007"><a xlink:title=" ">
<polygon fill="white" stroke="transparent" points="311.5,-1437 191.5,-1437 191.5,-1377 311.5,-1377 311.5,-1437"/>
<text text-anchor="start" x="196.5" y="-1425" font-family="Helvetica,sans-Serif" font-size="10.00">vector&lt; Node&lt; SPACE</text>
<text text-anchor="start" x="223.5" y="-1414" font-family="Helvetica,sans-Serif" font-size="10.00">_DIM &gt; * &gt;</text>
<text text-anchor="start" x="249.5" y="-1399" font-family="Helvetica,sans-Serif" font-size="10.00"> </text>
<text text-anchor="start" x="249.5" y="-1384" font-family="Helvetica,sans-Serif" font-size="10.00"> </text>
<polygon fill="#bfbfbf" stroke="#bfbfbf" points="191.5,-1409 191.5,-1409 311.5,-1409 311.5,-1409 191.5,-1409"/>
<polygon fill="#bfbfbf" stroke="#bfbfbf" points="191.5,-1394 191.5,-1394 311.5,-1394 311.5,-1394 191.5,-1394"/>
<polygon fill="none" stroke="#bfbfbf" points="191.5,-1377 191.5,-1437 311.5,-1437 311.5,-1377 191.5,-1377"/>
</a>
</g>
</g>
<!-- Node7&#45;&gt;Node5 -->
<g id="edge6_Node000005_Node000007" class="edge">
<title>Node7&#45;&gt;Node5</title>
<g id="a_edge6_Node000005_Node000007"><a xlink:title=" ">
<path fill="none" stroke="#63b8ff" d="M258.6,-1376.7C269.84,-1336.1 295.47,-1262.8 342.5,-1219 412.35,-1153.95 514.93,-1112.69 587.14,-1089.83"/>
<polygon fill="none" stroke="#63b8ff" points="587.44,-1089.74 591.99,-1084.14 598.91,-1086.18 594.36,-1091.78 587.44,-1089.74"/>
</a>
</g>
<text text-anchor="middle" x="392" y="-1233" font-family="Helvetica,sans-Serif" font-size="10.00" fill="grey"> #mBoundaryNodes</text>
<text text-anchor="middle" x="392" y="-1222" font-family="Helvetica,sans-Serif" font-size="10.00" fill="grey">#mNodes</text>
</g>
<!-- Node8 -->
<g id="Node000008" class="node">
<title>Node8</title>
<g id="a_Node000008"><a xlink:href="classDistributedVectorFactory.html" target="_top" xlink:title=" ">
<polygon fill="white" stroke="transparent" points="886.5,-1555 720.5,-1555 720.5,-1259 886.5,-1259 886.5,-1555"/>
<text text-anchor="start" x="743" y="-1543" font-family="Helvetica,sans-Serif" font-size="10.00">DistributedVectorFactory</text>
<text text-anchor="start" x="801.5" y="-1528" font-family="Helvetica,sans-Serif" font-size="10.00"> </text>
<text text-anchor="start" x="724.5" y="-1513" font-family="Helvetica,sans-Serif" font-size="10.00">+</text>
<text text-anchor="start" x="737.5" y="-1513" font-family="Helvetica,sans-Serif" font-size="10.00">DistributedVectorFactory()</text>
<text text-anchor="start" x="724.5" y="-1498" font-family="Helvetica,sans-Serif" font-size="10.00">+</text>
<text text-anchor="start" x="737.5" y="-1498" font-family="Helvetica,sans-Serif" font-size="10.00">DistributedVectorFactory()</text>
<text text-anchor="start" x="724.5" y="-1483" font-family="Helvetica,sans-Serif" font-size="10.00">+</text>
<text text-anchor="start" x="737.5" y="-1483" font-family="Helvetica,sans-Serif" font-size="10.00">DistributedVectorFactory()</text>
<text text-anchor="start" x="724.5" y="-1468" font-family="Helvetica,sans-Serif" font-size="10.00">+</text>
<text text-anchor="start" x="737.5" y="-1468" font-family="Helvetica,sans-Serif" font-size="10.00">DistributedVectorFactory()</text>
<text text-anchor="start" x="724.5" y="-1453" font-family="Helvetica,sans-Serif" font-size="10.00">+</text>
<text text-anchor="start" x="737.5" y="-1453" font-family="Helvetica,sans-Serif" font-size="10.00">~DistributedVectorFactory()</text>
<text text-anchor="start" x="724.5" y="-1438" font-family="Helvetica,sans-Serif" font-size="10.00">+</text>
<text text-anchor="start" x="737.5" y="-1438" font-family="Helvetica,sans-Serif" font-size="10.00">CreateVec()</text>
<text text-anchor="start" x="724.5" y="-1423" font-family="Helvetica,sans-Serif" font-size="10.00">+</text>
<text text-anchor="start" x="737.5" y="-1423" font-family="Helvetica,sans-Serif" font-size="10.00">CreateVec()</text>
<text text-anchor="start" x="724.5" y="-1408" font-family="Helvetica,sans-Serif" font-size="10.00">+</text>
<text text-anchor="start" x="737.5" y="-1408" font-family="Helvetica,sans-Serif" font-size="10.00">CreateDistributedVector()</text>
<text text-anchor="start" x="724.5" y="-1393" font-family="Helvetica,sans-Serif" font-size="10.00">+</text>
<text text-anchor="start" x="737.5" y="-1393" font-family="Helvetica,sans-Serif" font-size="10.00">IsGlobalIndexLocal()</text>
<text text-anchor="start" x="724.5" y="-1378" font-family="Helvetica,sans-Serif" font-size="10.00">+</text>
<text text-anchor="start" x="737.5" y="-1378" font-family="Helvetica,sans-Serif" font-size="10.00">GetLocalOwnership()</text>
<text text-anchor="start" x="737.5" y="-1363" font-family="Helvetica,sans-Serif" font-size="10.00">and 8 more...</text>
<text text-anchor="start" x="724.5" y="-1348" font-family="Helvetica,sans-Serif" font-size="10.00">+</text>
<text text-anchor="start" x="737.5" y="-1348" font-family="Helvetica,sans-Serif" font-size="10.00">SetCheckNumberOfProcesses</text>
<text text-anchor="start" x="737.5" y="-1337" font-family="Helvetica,sans-Serif" font-size="10.00">OnLoad()</text>
<text text-anchor="start" x="724.5" y="-1322" font-family="Helvetica,sans-Serif" font-size="10.00">+</text>
<text text-anchor="start" x="737.5" y="-1322" font-family="Helvetica,sans-Serif" font-size="10.00">CheckNumberOfProcessesOn</text>
<text text-anchor="start" x="737.5" y="-1311" font-family="Helvetica,sans-Serif" font-size="10.00">Load()</text>
<text text-anchor="start" x="727" y="-1296" font-family="Helvetica,sans-Serif" font-size="10.00">&#45;</text>
<text text-anchor="start" x="737.5" y="-1296" font-family="Helvetica,sans-Serif" font-size="10.00">CheckForPetsc()</text>
<text text-anchor="start" x="727" y="-1281" font-family="Helvetica,sans-Serif" font-size="10.00">&#45;</text>
<text text-anchor="start" x="737.5" y="-1281" font-family="Helvetica,sans-Serif" font-size="10.00">CalculateOwnership()</text>
<text text-anchor="start" x="727" y="-1266" font-family="Helvetica,sans-Serif" font-size="10.00">&#45;</text>
<text text-anchor="start" x="737.5" y="-1266" font-family="Helvetica,sans-Serif" font-size="10.00">serialize()</text>
<polygon fill="#666666" stroke="#666666" points="720.5,-1538 720.5,-1538 886.5,-1538 886.5,-1538 720.5,-1538"/>
<polygon fill="#666666" stroke="#666666" points="720.5,-1523 720.5,-1523 886.5,-1523 886.5,-1523 720.5,-1523"/>
<polygon fill="none" stroke="#666666" points="720.5,-1259 720.5,-1555 886.5,-1555 886.5,-1259 720.5,-1259"/>
</a>
</g>
</g>
<!-- Node8&#45;&gt;Node5 -->
<g id="edge7_Node000005_Node000008" class="edge">
<title>Node8&#45;&gt;Node5</title>
<g id="a_edge7_Node000005_Node000008"><a xlink:title=" ">
<path fill="none" stroke="#63b8ff" d="M802.47,-1258.72C799.87,-1245.06 796.31,-1231.62 791.5,-1219 782.54,-1195.48 768.59,-1172.68 753.35,-1152.2"/>
<polygon fill="none" stroke="#63b8ff" points="753.33,-1152.17 746.51,-1149.84 746.03,-1142.65 752.86,-1144.97 753.33,-1152.17"/>
</a>
</g>
<text text-anchor="middle" x="872.5" y="-1227.5" font-family="Helvetica,sans-Serif" font-size="10.00" fill="grey"> #mpDistributedVectorFactory</text>
</g>
<!-- Node8&#45;&gt;Node8 -->
<g id="edge11_Node000008_Node000008" class="edge">
<title>Node8&#45;&gt;Node8</title>
<g id="a_edge11_Node000008_Node000008"><a xlink:title=" ">
<path fill="none" stroke="#63b8ff" d="M886.71,-1435.92C897.42,-1430.91 904.5,-1421.27 904.5,-1407 904.5,-1397.86 901.6,-1390.62 896.69,-1385.28"/>
<polygon fill="none" stroke="#63b8ff" points="896.44,-1385.1 889.24,-1384.83 886.71,-1378.08 893.91,-1378.34 896.44,-1385.1"/>
</a>
</g>
<text text-anchor="middle" x="953" y="-1404.5" font-family="Helvetica,sans-Serif" font-size="10.00" fill="grey"> &#45;mpOriginalFactory</text>
</g>
<!-- Node9 -->
<g id="Node000009" class="node">
<title>Node9</title>
<g id="a_Node000009"><a xlink:href="classunsigned.html" target="_top" xlink:title=" ">
<polygon fill="white" stroke="transparent" points="246,-1684 191,-1684 191,-1635 246,-1635 246,-1684"/>
<text text-anchor="start" x="196.5" y="-1671.5" font-family="Helvetica,sans-Serif" font-size="10.00">unsigned</text>
<text text-anchor="start" x="217" y="-1656.5" font-family="Helvetica,sans-Serif" font-size="10.00"> </text>
<text text-anchor="start" x="217" y="-1641.5" font-family="Helvetica,sans-Serif" font-size="10.00"> </text>
<polygon fill="#bfbfbf" stroke="#bfbfbf" points="191.5,-1666.5 191.5,-1666.5 246.5,-1666.5 246.5,-1666.5 191.5,-1666.5"/>
<polygon fill="#bfbfbf" stroke="#bfbfbf" points="191.5,-1651.5 191.5,-1651.5 246.5,-1651.5 246.5,-1651.5 191.5,-1651.5"/>
<polygon fill="none" stroke="#bfbfbf" points="191,-1635 191,-1684 246,-1684 246,-1635 191,-1635"/>
</a>
</g>
</g>
<!-- Node9&#45;&gt;Node1 -->
<g id="edge22_Node000001_Node000009" class="edge">
<title>Node9&#45;&gt;Node1</title>
<g id="a_edge22_Node000001_Node000009"><a xlink:title=" ">
<path fill="none" stroke="#63b8ff" d="M208.63,-1634.66C200.43,-1613.95 189.09,-1582.96 182.5,-1555 167.38,-1490.88 163.5,-1473.88 163.5,-1408 163.5,-1408 163.5,-1408 163.5,-336.5 163.5,-267.13 163.5,-187.94 163.5,-132.32"/>
<polygon fill="none" stroke="#63b8ff" points="163.5,-132.12 159.5,-126.12 163.5,-120.12 167.5,-126.12 163.5,-132.12"/>
</a>
</g>
<text text-anchor="middle" x="213" y="-905" font-family="Helvetica,sans-Serif" font-size="10.00" fill="grey"> &#45;mElemIndex</text>
<text text-anchor="middle" x="213" y="-894" font-family="Helvetica,sans-Serif" font-size="10.00" fill="grey">&#45;mNodeALocalIndex</text>
<text text-anchor="middle" x="213" y="-883" font-family="Helvetica,sans-Serif" font-size="10.00" fill="grey">&#45;mNodeBLocalIndex</text>
</g>
<!-- Node9&#45;&gt;Node8 -->
<g id="edge8_Node000008_Node000009" class="edge">
<title>Node9&#45;&gt;Node8</title>
<g id="a_edge8_Node000008_Node000009"><a xlink:title=" ">
<path fill="none" stroke="#63b8ff" d="M246.13,-1655.56C334.96,-1645.7 612.63,-1611.53 709.76,-1555.06"/>
<polygon fill="none" stroke="#63b8ff" points="710.04,-1554.87 712.95,-1548.28 720.16,-1548.43 717.25,-1555.02 710.04,-1554.87"/>
</a>
</g>
<text text-anchor="middle" x="713" y="-1609" font-family="Helvetica,sans-Serif" font-size="10.00" fill="grey"> &#45;mHi</text>
<text text-anchor="middle" x="713" y="-1598" font-family="Helvetica,sans-Serif" font-size="10.00" fill="grey">&#45;mLo</text>
<text text-anchor="middle" x="713" y="-1587" font-family="Helvetica,sans-Serif" font-size="10.00" fill="grey">&#45;mNumProcs</text>
<text text-anchor="middle" x="713" y="-1576" font-family="Helvetica,sans-Serif" font-size="10.00" fill="grey">&#45;mProblemSize</text>
</g>
<!-- Node10 -->
<g id="Node000010" class="node">
<title>Node10</title>
<g id="a_Node000010"><a xlink:href="classbool.html" target="_top" xlink:title=" ">
<polygon fill="white" stroke="transparent" points="786.5,-1684 754.5,-1684 754.5,-1635 786.5,-1635 786.5,-1684"/>
<text text-anchor="start" x="759.5" y="-1671.5" font-family="Helvetica,sans-Serif" font-size="10.00">bool</text>
<text text-anchor="start" x="768.5" y="-1656.5" font-family="Helvetica,sans-Serif" font-size="10.00"> </text>
<text text-anchor="start" x="768.5" y="-1641.5" font-family="Helvetica,sans-Serif" font-size="10.00"> </text>
<polygon fill="#bfbfbf" stroke="#bfbfbf" points="754.5,-1666.5 754.5,-1666.5 786.5,-1666.5 786.5,-1666.5 754.5,-1666.5"/>
<polygon fill="#bfbfbf" stroke="#bfbfbf" points="754.5,-1651.5 754.5,-1651.5 786.5,-1651.5 786.5,-1651.5 754.5,-1651.5"/>
<polygon fill="none" stroke="#bfbfbf" points="754.5,-1635 754.5,-1684 786.5,-1684 786.5,-1635 754.5,-1635"/>
</a>
</g>
</g>
<!-- Node10&#45;&gt;Node4 -->
<g id="edge15_Node000004_Node000010" class="edge">
<title>Node10&#45;&gt;Node4</title>
<g id="a_edge15_Node000004_Node000010"><a xlink:title=" ">
<path fill="none" stroke="#63b8ff" d="M786.55,-1656.97C838.65,-1651.86 1000.57,-1634.67 1015.5,-1617 1038.99,-1589.2 1026.01,-1123.35 1017.32,-874.47"/>
<polygon fill="none" stroke="#63b8ff" points="1017.32,-874.42 1013.11,-868.56 1016.9,-862.42 1021.11,-868.28 1017.32,-874.42"/>
</a>
</g>
<text text-anchor="middle" x="1069.5" y="-1227.5" font-family="Helvetica,sans-Serif" font-size="10.00" fill="grey"> #mMeshIsLinear</text>
</g>
<!-- Node10&#45;&gt;Node5 -->
<g id="edge14_Node000005_Node000010" class="edge">
<title>Node10&#45;&gt;Node5</title>
<g id="a_edge14_Node000005_Node000010"><a xlink:title=" ">
<path fill="none" stroke="#63b8ff" d="M754.26,-1658.6C703.3,-1657.92 546.1,-1648.07 480.5,-1555 442.6,-1501.24 455.33,-1319.77 480.5,-1259 502.76,-1205.26 548.16,-1158.72 589.23,-1124.93"/>
<polygon fill="none" stroke="#63b8ff" points="589.4,-1124.79 591.56,-1117.91 598.74,-1117.26 596.58,-1124.14 589.4,-1124.79"/>
</a>
</g>
<text text-anchor="middle" x="568" y="-1404.5" font-family="Helvetica,sans-Serif" font-size="10.00" fill="grey"> #mMeshChangesDuringSimulation</text>
</g>
<!-- Node10&#45;&gt;Node8 -->
<g id="edge9_Node000008_Node000010" class="edge">
<title>Node10&#45;&gt;Node8</title>
<g id="a_edge9_Node000008_Node000010"><a xlink:title=" ">
<path fill="none" stroke="#63b8ff" d="M769.64,-1634.85C769.29,-1617.65 769.38,-1593.82 771.5,-1573 771.69,-1571.09 771.9,-1569.18 772.12,-1567.25"/>
<polygon fill="none" stroke="#63b8ff" points="772.12,-1567.25 768.87,-1560.81 773.56,-1555.33 776.81,-1561.77 772.12,-1567.25"/>
</a>
</g>
<text text-anchor="middle" x="845.5" y="-1603.5" font-family="Helvetica,sans-Serif" font-size="10.00" fill="grey"> &#45;mPetscStatusKnown</text>
<text text-anchor="start" x="771.5" y="-1592.5" font-family="Helvetica,sans-Serif" font-size="10.00" fill="grey">&#45;msCheckNumberOfProcesses</text>
<text text-anchor="middle" x="845.5" y="-1581.5" font-family="Helvetica,sans-Serif" font-size="10.00" fill="grey">OnLoad</text>
</g>
<!-- Node11 -->
<g id="Node000011" class="node">
<title>Node11</title>
<g id="a_Node000011"><a xlink:title=" ">
<polygon fill="white" stroke="transparent" points="1080.5,-1684 972.5,-1684 972.5,-1635 1080.5,-1635 1080.5,-1684"/>
<text text-anchor="start" x="977.5" y="-1671.5" font-family="Helvetica,sans-Serif" font-size="10.00">vector&lt; unsigned &gt;</text>
<text text-anchor="start" x="1024.5" y="-1656.5" font-family="Helvetica,sans-Serif" font-size="10.00"> </text>
<text text-anchor="start" x="1024.5" y="-1641.5" font-family="Helvetica,sans-Serif" font-size="10.00"> </text>
<polygon fill="#bfbfbf" stroke="#bfbfbf" points="972.5,-1666.5 972.5,-1666.5 1080.5,-1666.5 1080.5,-1666.5 972.5,-1666.5"/>
<polygon fill="#bfbfbf" stroke="#bfbfbf" points="972.5,-1651.5 972.5,-1651.5 1080.5,-1651.5 1080.5,-1651.5 972.5,-1651.5"/>
<polygon fill="none" stroke="#bfbfbf" points="972.5,-1635 972.5,-1684 1080.5,-1684 1080.5,-1635 972.5,-1635"/>
</a>
</g>
</g>
<!-- Node11&#45;&gt;Node5 -->
<g id="edge12_Node000005_Node000011" class="edge">
<title>Node11&#45;&gt;Node5</title>
<g id="a_edge12_Node000005_Node000011"><a xlink:title=" ">
<path fill="none" stroke="#63b8ff" d="M1041.46,-1634.77C1084.3,-1563.53 1198.13,-1348.43 1098.5,-1219 1079.43,-1194.23 1060.29,-1210.49 1030.5,-1201 935.82,-1170.83 829.42,-1130.11 757.4,-1101.5"/>
<polygon fill="none" stroke="#63b8ff" points="757.29,-1101.46 750.24,-1102.95 746.14,-1097.02 753.2,-1095.52 757.29,-1101.46"/>
</a>
</g>
<text text-anchor="middle" x="1191" y="-1404.5" font-family="Helvetica,sans-Serif" font-size="10.00" fill="grey"> #mNodePermutation</text>
</g>
<!-- Node11&#45;&gt;Node8 -->
<g id="edge10_Node000008_Node000011" class="edge">
<title>Node11&#45;&gt;Node8</title>
<g id="a_edge10_Node000008_Node000011"><a xlink:title=" ">
<path fill="none" stroke="#63b8ff" d="M1005.52,-1634.93C980.06,-1606.33 935.45,-1556.22 894.62,-1510.36"/>
<polygon fill="none" stroke="#63b8ff" points="894.49,-1510.21 887.51,-1508.39 886.51,-1501.25 893.49,-1503.07 894.49,-1510.21"/>
</a>
</g>
<text text-anchor="middle" x="1025" y="-1592.5" font-family="Helvetica,sans-Serif" font-size="10.00" fill="grey"> &#45;mGlobalLows</text>
</g>
<!-- Node12 -->
<g id="Node000012" class="node">
<title>Node12</title>
<g id="a_Node000012"><a xlink:title=" ">
<polygon fill="white" stroke="transparent" points="702.5,-1431.5 664.5,-1431.5 664.5,-1382.5 702.5,-1382.5 702.5,-1431.5"/>
<text text-anchor="start" x="669.5" y="-1419" font-family="Helvetica,sans-Serif" font-size="10.00">string</text>
<text text-anchor="start" x="681.5" y="-1404" font-family="Helvetica,sans-Serif" font-size="10.00"> </text>
<text text-anchor="start" x="681.5" y="-1389" font-family="Helvetica,sans-Serif" font-size="10.00"> </text>
<polygon fill="#bfbfbf" stroke="#bfbfbf" points="664.5,-1414 664.5,-1414 702.5,-1414 702.5,-1414 664.5,-1414"/>
<polygon fill="#bfbfbf" stroke="#bfbfbf" points="664.5,-1399 664.5,-1399 702.5,-1399 702.5,-1399 664.5,-1399"/>
<polygon fill="none" stroke="#bfbfbf" points="664.5,-1382.5 664.5,-1431.5 702.5,-1431.5 702.5,-1382.5 664.5,-1382.5"/>
</a>
</g>
</g>
<!-- Node12&#45;&gt;Node5 -->
<g id="edge13_Node000005_Node000012" class="edge">
<title>Node12&#45;&gt;Node5</title>
<g id="a_edge13_Node000005_Node000012"><a xlink:title=" ">
<path fill="none" stroke="#63b8ff" d="M681.65,-1382.25C679.25,-1350.2 675.17,-1291.34 673.5,-1241 673.2,-1232.08 672.96,-1222.9 672.77,-1213.64"/>
<polygon fill="none" stroke="#63b8ff" points="672.76,-1213.43 668.65,-1207.51 672.54,-1201.43 676.65,-1207.35 672.76,-1213.43"/>
</a>
</g>
<text text-anchor="middle" x="732.5" y="-1227.5" font-family="Helvetica,sans-Serif" font-size="10.00" fill="grey"> #mMeshFileBaseName</text>
</g>
<!-- Node13 -->
<g id="Node000013" class="node">
<title>Node13</title>
<g id="a_Node000013"><a xlink:title=" ">
<polygon fill="white" stroke="transparent" points="1189.5,-1096 1039.5,-1096 1039.5,-1036 1189.5,-1036 1189.5,-1096"/>
<text text-anchor="start" x="1044.5" y="-1084" font-family="Helvetica,sans-Serif" font-size="10.00">vector&lt; Element&lt; ELEMENT</text>
<text text-anchor="start" x="1055.5" y="-1073" font-family="Helvetica,sans-Serif" font-size="10.00">_DIM, SPACE_DIM &gt; * &gt;</text>
<text text-anchor="start" x="1112.5" y="-1058" font-family="Helvetica,sans-Serif" font-size="10.00"> </text>
<text text-anchor="start" x="1112.5" y="-1043" font-family="Helvetica,sans-Serif" font-size="10.00"> </text>
<polygon fill="#bfbfbf" stroke="#bfbfbf" points="1039.5,-1068 1039.5,-1068 1189.5,-1068 1189.5,-1068 1039.5,-1068"/>
<polygon fill="#bfbfbf" stroke="#bfbfbf" points="1039.5,-1053 1039.5,-1053 1189.5,-1053 1189.5,-1053 1039.5,-1053"/>
<polygon fill="none" stroke="#bfbfbf" points="1039.5,-1036 1039.5,-1096 1189.5,-1096 1189.5,-1036 1039.5,-1036"/>
</a>
</g>
</g>
<!-- Node13&#45;&gt;Node4 -->
<g id="edge16_Node000004_Node000013" class="edge">
<title>Node13&#45;&gt;Node4</title>
<g id="a_edge16_Node000004_Node000013"><a xlink:title=" ">
<path fill="none" stroke="#63b8ff" d="M1105.81,-1035.93C1094.99,-999.73 1075.69,-935.18 1057.35,-873.86"/>
<polygon fill="none" stroke="#63b8ff" points="1057.26,-873.55 1051.71,-868.95 1053.82,-862.06 1059.37,-866.66 1057.26,-873.55"/>
</a>
</g>
<text text-anchor="middle" x="1099" y="-894" font-family="Helvetica,sans-Serif" font-size="10.00" fill="grey"> #mElements</text>
</g>
<!-- Node14 -->
<g id="Node000014" class="node">
<title>Node14</title>
<g id="a_Node000014"><a xlink:title=" ">
<polygon fill="white" stroke="transparent" points="1347.5,-1101.5 1207.5,-1101.5 1207.5,-1030.5 1347.5,-1030.5 1347.5,-1101.5"/>
<text text-anchor="start" x="1212.5" y="-1089" font-family="Helvetica,sans-Serif" font-size="10.00">vector&lt; BoundaryElement</text>
<text text-anchor="start" x="1212.5" y="-1078" font-family="Helvetica,sans-Serif" font-size="10.00">&lt; ELEMENT_DIM&#45;1, SPACE</text>
<text text-anchor="start" x="1249.5" y="-1067" font-family="Helvetica,sans-Serif" font-size="10.00">_DIM &gt; * &gt;</text>
<text text-anchor="start" x="1275.5" y="-1052" font-family="Helvetica,sans-Serif" font-size="10.00"> </text>
<text text-anchor="start" x="1275.5" y="-1037" font-family="Helvetica,sans-Serif" font-size="10.00"> </text>
<polygon fill="#bfbfbf" stroke="#bfbfbf" points="1207.5,-1062 1207.5,-1062 1347.5,-1062 1347.5,-1062 1207.5,-1062"/>
<polygon fill="#bfbfbf" stroke="#bfbfbf" points="1207.5,-1047 1207.5,-1047 1347.5,-1047 1347.5,-1047 1207.5,-1047"/>
<polygon fill="none" stroke="#bfbfbf" points="1207.5,-1030.5 1207.5,-1101.5 1347.5,-1101.5 1347.5,-1030.5 1207.5,-1030.5"/>
</a>
</g>
</g>
<!-- Node14&#45;&gt;Node4 -->
<g id="edge17_Node000004_Node000014" class="edge">
<title>Node14&#45;&gt;Node4</title>
<g id="a_edge17_Node000004_Node000014"><a xlink:title=" ">
<path fill="none" stroke="#63b8ff" d="M1261.34,-1030.37C1247.13,-1001.96 1224.65,-961.58 1198.5,-931 1175.31,-903.88 1164.09,-902.63 1136.5,-880 1126.73,-871.99 1123.18,-871.18 1114.5,-862 1114.11,-861.59 1113.72,-861.17 1113.33,-860.75"/>
<polygon fill="none" stroke="#63b8ff" points="1113.24,-860.66 1106.24,-858.92 1105.16,-851.79 1112.16,-853.53 1113.24,-860.66"/>
</a>
</g>
<text text-anchor="middle" x="1236.5" y="-894" font-family="Helvetica,sans-Serif" font-size="10.00" fill="grey"> #mBoundaryElements</text>
</g>
<!-- Node15 -->
<g id="Node000015" class="node">
<title>Node15</title>
<g id="a_Node000015"><a xlink:title=" ">
<polygon fill="white" stroke="transparent" points="1264,-749.5 1123,-749.5 1123,-689.5 1264,-689.5 1264,-749.5"/>
<text text-anchor="start" x="1128.5" y="-737.5" font-family="Helvetica,sans-Serif" font-size="10.00">vector&lt; c_vector&lt; double,</text>
<text text-anchor="start" x="1153" y="-726.5" font-family="Helvetica,sans-Serif" font-size="10.00"> SPACE_DIM &gt; &gt;</text>
<text text-anchor="start" x="1192" y="-711.5" font-family="Helvetica,sans-Serif" font-size="10.00"> </text>
<text text-anchor="start" x="1192" y="-696.5" font-family="Helvetica,sans-Serif" font-size="10.00"> </text>
<polygon fill="#bfbfbf" stroke="#bfbfbf" points="1123.5,-721.5 1123.5,-721.5 1264.5,-721.5 1264.5,-721.5 1123.5,-721.5"/>
<polygon fill="#bfbfbf" stroke="#bfbfbf" points="1123.5,-706.5 1123.5,-706.5 1264.5,-706.5 1264.5,-706.5 1123.5,-706.5"/>
<polygon fill="none" stroke="#bfbfbf" points="1123,-689.5 1123,-749.5 1264,-749.5 1264,-689.5 1123,-689.5"/>
</a>
</g>
</g>
<!-- Node15&#45;&gt;Node3 -->
<g id="edge18_Node000003_Node000015" class="edge">
<title>Node15&#45;&gt;Node3</title>
<g id="a_edge18_Node000003_Node000015"><a xlink:title=" ">
<path fill="none" stroke="#63b8ff" d="M1189.51,-689.31C1184.46,-652.42 1175.34,-585.81 1166.4,-520.47"/>
<polygon fill="none" stroke="#63b8ff" points="1166.36,-520.18 1161.59,-514.78 1164.73,-508.29 1169.51,-513.69 1166.36,-520.18"/>
</a>
</g>
<text text-anchor="start" x="1170.5" y="-551" font-family="Helvetica,sans-Serif" font-size="10.00" fill="grey"> #mBoundaryElementWeighted</text>
<text text-anchor="middle" x="1247.5" y="-540" font-family="Helvetica,sans-Serif" font-size="10.00" fill="grey">Directions</text>
<text text-anchor="middle" x="1247.5" y="-529" font-family="Helvetica,sans-Serif" font-size="10.00" fill="grey">#mElementWeightedDirections</text>
</g>
<!-- Node16 -->
<g id="Node000016" class="node">
<title>Node16</title>
<g id="a_Node000016"><a xlink:title=" ">
<polygon fill="white" stroke="transparent" points="1450.5,-749.5 1282.5,-749.5 1282.5,-689.5 1450.5,-689.5 1450.5,-749.5"/>
<text text-anchor="start" x="1287.5" y="-737.5" font-family="Helvetica,sans-Serif" font-size="10.00">vector&lt; c_matrix&lt; double,</text>
<text text-anchor="start" x="1287.5" y="-726.5" font-family="Helvetica,sans-Serif" font-size="10.00"> SPACE_DIM, ELEMENT_DIM &gt; &gt;</text>
<text text-anchor="start" x="1364.5" y="-711.5" font-family="Helvetica,sans-Serif" font-size="10.00"> </text>
<text text-anchor="start" x="1364.5" y="-696.5" font-family="Helvetica,sans-Serif" font-size="10.00"> </text>
<polygon fill="#bfbfbf" stroke="#bfbfbf" points="1282.5,-721.5 1282.5,-721.5 1450.5,-721.5 1450.5,-721.5 1282.5,-721.5"/>
<polygon fill="#bfbfbf" stroke="#bfbfbf" points="1282.5,-706.5 1282.5,-706.5 1450.5,-706.5 1450.5,-706.5 1282.5,-706.5"/>
<polygon fill="none" stroke="#bfbfbf" points="1282.5,-689.5 1282.5,-749.5 1450.5,-749.5 1450.5,-689.5 1282.5,-689.5"/>
</a>
</g>
</g>
<!-- Node16&#45;&gt;Node3 -->
<g id="edge19_Node000003_Node000016" class="edge">
<title>Node16&#45;&gt;Node3</title>
<g id="a_edge19_Node000003_Node000016"><a xlink:title=" ">
<path fill="none" stroke="#63b8ff" d="M1365.94,-689.36C1364.08,-650.06 1356.69,-578.91 1328.5,-526 1307.36,-486.31 1275.08,-449.59 1243.25,-419.35"/>
<polygon fill="none" stroke="#63b8ff" points="1243.07,-419.18 1235.96,-418.01 1234.3,-410.99 1241.41,-412.16 1243.07,-419.18"/>
</a>
</g>
<text text-anchor="middle" x="1395" y="-540" font-family="Helvetica,sans-Serif" font-size="10.00" fill="grey"> #mElementJacobians</text>
</g>
<!-- Node17 -->
<g id="Node000017" class="node">
<title>Node17</title>
<g id="a_Node000017"><a xlink:title=" ">
<polygon fill="white" stroke="transparent" points="1636.5,-749.5 1468.5,-749.5 1468.5,-689.5 1636.5,-689.5 1636.5,-749.5"/>
<text text-anchor="start" x="1473.5" y="-737.5" font-family="Helvetica,sans-Serif" font-size="10.00">vector&lt; c_matrix&lt; double,</text>
<text text-anchor="start" x="1473.5" y="-726.5" font-family="Helvetica,sans-Serif" font-size="10.00"> ELEMENT_DIM, SPACE_DIM &gt; &gt;</text>
<text text-anchor="start" x="1550.5" y="-711.5" font-family="Helvetica,sans-Serif" font-size="10.00"> </text>
<text text-anchor="start" x="1550.5" y="-696.5" font-family="Helvetica,sans-Serif" font-size="10.00"> </text>
<polygon fill="#bfbfbf" stroke="#bfbfbf" points="1468.5,-721.5 1468.5,-721.5 1636.5,-721.5 1636.5,-721.5 1468.5,-721.5"/>
<polygon fill="#bfbfbf" stroke="#bfbfbf" points="1468.5,-706.5 1468.5,-706.5 1636.5,-706.5 1636.5,-706.5 1468.5,-706.5"/>
<polygon fill="none" stroke="#bfbfbf" points="1468.5,-689.5 1468.5,-749.5 1636.5,-749.5 1636.5,-689.5 1468.5,-689.5"/>
</a>
</g>
</g>
<!-- Node17&#45;&gt;Node3 -->
<g id="edge20_Node000003_Node000017" class="edge">
<title>Node17&#45;&gt;Node3</title>
<g id="a_edge20_Node000003_Node000017"><a xlink:title=" ">
<path fill="none" stroke="#63b8ff" d="M1543.26,-689.38C1529.22,-648.83 1499.21,-574.84 1453.5,-526 1395,-463.5 1311.06,-414.65 1244.97,-382.49"/>
<polygon fill="none" stroke="#63b8ff" points="1244.93,-382.47 1237.79,-383.48 1234.11,-377.28 1241.25,-376.27 1244.93,-382.47"/>
</a>
</g>
<text text-anchor="middle" x="1551" y="-540" font-family="Helvetica,sans-Serif" font-size="10.00" fill="grey"> #mElementInverseJacobians</text>
</g>
<!-- Node18 -->
<g id="Node000018" class="node">
<title>Node18</title>
<g id="a_Node000018"><a xlink:title=" ">
<polygon fill="white" stroke="transparent" points="900,-744 803,-744 803,-695 900,-695 900,-744"/>
<text text-anchor="start" x="808.5" y="-731.5" font-family="Helvetica,sans-Serif" font-size="10.00">vector&lt; double &gt;</text>
<text text-anchor="start" x="850" y="-716.5" font-family="Helvetica,sans-Serif" font-size="10.00"> </text>
<text text-anchor="start" x="850" y="-701.5" font-family="Helvetica,sans-Serif" font-size="10.00"> </text>
<polygon fill="#bfbfbf" stroke="#bfbfbf" points="803.5,-726.5 803.5,-726.5 900.5,-726.5 900.5,-726.5 803.5,-726.5"/>
<polygon fill="#bfbfbf" stroke="#bfbfbf" points="803.5,-711.5 803.5,-711.5 900.5,-711.5 900.5,-711.5 803.5,-711.5"/>
<polygon fill="none" stroke="#bfbfbf" points="803,-695 803,-744 900,-744 900,-695 803,-695"/>
</a>
</g>
</g>
<!-- Node18&#45;&gt;Node3 -->
<g id="edge21_Node000003_Node000018" class="edge">
<title>Node18&#45;&gt;Node3</title>
<g id="a_edge21_Node000003_Node000018"><a xlink:title=" ">
<path fill="none" stroke="#63b8ff" d="M852.16,-694.91C854.25,-656.53 862.83,-579.49 897.5,-526 932.64,-471.79 989.02,-426.96 1038.74,-394.74"/>
<polygon fill="none" stroke="#63b8ff" points="1038.79,-394.71 1041.7,-388.11 1048.91,-388.26 1045.99,-394.86 1038.79,-394.71"/>
</a>
</g>
<text text-anchor="start" x="897.5" y="-551" font-family="Helvetica,sans-Serif" font-size="10.00" fill="grey"> #mBoundaryElementJacobian</text>
<text text-anchor="middle" x="981" y="-540" font-family="Helvetica,sans-Serif" font-size="10.00" fill="grey">Determinants</text>
<text text-anchor="middle" x="981" y="-529" font-family="Helvetica,sans-Serif" font-size="10.00" fill="grey">#mElementJacobianDeterminants</text>
</g>
</g>
</svg>
