<?xml version="1.0" encoding="UTF-8" standalone="no"?>
<!DOCTYPE svg PUBLIC "-//W3C//DTD SVG 1.1//EN"
 "http://www.w3.org/Graphics/SVG/1.1/DTD/svg11.dtd">
<!-- Generated by graphviz version 2.43.0 (0)
 -->
<!-- Title: CellwiseDataGradient&lt; DIM &gt; Pages: 1 -->
<svg width="149pt" height="190pt"
 viewBox="0.00 0.00 149.00 190.00" xmlns="http://www.w3.org/2000/svg" xmlns:xlink="http://www.w3.org/1999/xlink">
<g id="graph0" class="graph" transform="scale(1 1) rotate(0) translate(4 186)">
<title>CellwiseDataGradient&lt; DIM &gt;</title>
<!-- Node1 -->
<g id="Node000001" class="node">
<title>Node1</title>
<g id="a_Node000001"><a xlink:title=" ">
<polygon fill="#999999" stroke="transparent" points="129,-75 12,-75 12,0 129,0 129,-75"/>
<text text-anchor="start" x="17.5" y="-62.5" font-family="Helvetica,sans-Serif" font-size="10.00">CellwiseDataGradient</text>
<text text-anchor="start" x="49.5" y="-51.5" font-family="Helvetica,sans-Serif" font-size="10.00">&lt; DIM &gt;</text>
<text text-anchor="start" x="69" y="-36.5" font-family="Helvetica,sans-Serif" font-size="10.00"> </text>
<text text-anchor="start" x="19.5" y="-21.5" font-family="Helvetica,sans-Serif" font-size="10.00">+</text>
<text text-anchor="start" x="35.5" y="-21.5" font-family="Helvetica,sans-Serif" font-size="10.00">SetupGradients()</text>
<text text-anchor="start" x="19.5" y="-6.5" font-family="Helvetica,sans-Serif" font-size="10.00">+</text>
<text text-anchor="start" x="35.5" y="-6.5" font-family="Helvetica,sans-Serif" font-size="10.00">rGetGradient()</text>
<polygon fill="#666666" stroke="#666666" points="12.5,-46.5 12.5,-46.5 129.5,-46.5 129.5,-46.5 12.5,-46.5"/>
<polygon fill="#666666" stroke="#666666" points="12.5,-31.5 12.5,-31.5 129.5,-31.5 129.5,-31.5 12.5,-31.5"/>
<polygon fill="none" stroke="#666666" points="12,0 12,-75 129,-75 129,0 12,0"/>
</a>
</g>
</g>
<!-- Node2 -->
<g id="Node000002" class="node">
<title>Node2</title>
<g id="a_Node000002"><a xlink:title=" ">
<polygon fill="white" stroke="transparent" points="141,-182 0,-182 0,-122 141,-122 141,-182"/>
<text text-anchor="start" x="5.5" y="-170" font-family="Helvetica,sans-Serif" font-size="10.00">vector&lt; c_vector&lt; double,</text>
<text text-anchor="start" x="48" y="-159" font-family="Helvetica,sans-Serif" font-size="10.00"> DIM &gt; &gt;</text>
<text text-anchor="start" x="69" y="-144" font-family="Helvetica,sans-Serif" font-size="10.00"> </text>
<text text-anchor="start" x="69" y="-129" font-family="Helvetica,sans-Serif" font-size="10.00"> </text>
<polygon fill="#bfbfbf" stroke="#bfbfbf" points="0.5,-154 0.5,-154 141.5,-154 141.5,-154 0.5,-154"/>
<polygon fill="#bfbfbf" stroke="#bfbfbf" points="0.5,-139 0.5,-139 141.5,-139 141.5,-139 0.5,-139"/>
<polygon fill="none" stroke="#bfbfbf" points="0,-122 0,-182 141,-182 141,-122 0,-122"/>
</a>
</g>
</g>
<!-- Node2&#45;&gt;Node1 -->
<g id="edge1_Node000001_Node000002" class="edge">
<title>Node2&#45;&gt;Node1</title>
<g id="a_edge1_Node000001_Node000002"><a xlink:title=" ">
<path fill="none" stroke="#63b8ff" d="M70.5,-121.74C70.5,-111.31 70.5,-99.27 70.5,-87.64"/>
<polygon fill="none" stroke="#63b8ff" points="70.5,-87.28 66.5,-81.28 70.5,-75.28 74.5,-81.28 70.5,-87.28"/>
</a>
</g>
<text text-anchor="middle" x="102.5" y="-96" font-family="Helvetica,sans-Serif" font-size="10.00" fill="grey"> &#45;mGradients</text>
</g>
</g>
</svg>
