<?xml version="1.0" encoding="UTF-8" standalone="no"?>
<!DOCTYPE svg PUBLIC "-//W3C//DTD SVG 1.1//EN"
 "http://www.w3.org/Graphics/SVG/1.1/DTD/svg11.dtd">
<!-- Generated by graphviz version 2.43.0 (0)
 -->
<!-- Title: ObjectCommunicator&lt; CLASS &gt; Pages: 1 -->
<svg width="599pt" height="265pt"
 viewBox="0.00 0.00 599.00 265.00" xmlns="http://www.w3.org/2000/svg" xmlns:xlink="http://www.w3.org/1999/xlink">
<g id="graph0" class="graph" transform="scale(1 1) rotate(0) translate(4 261)">
<title>ObjectCommunicator&lt; CLASS &gt;</title>
<!-- Node1 -->
<g id="Node000001" class="node">
<title>Node1</title>
<g id="a_Node000001"><a xlink:title=" ">
<polygon fill="#999999" stroke="transparent" points="342.5,-150 209.5,-150 209.5,0 342.5,0 342.5,-150"/>
<text text-anchor="start" x="224.5" y="-138" font-family="Helvetica,sans-Serif" font-size="10.00">ObjectCommunicator</text>
<text text-anchor="start" x="249" y="-127" font-family="Helvetica,sans-Serif" font-size="10.00">&lt; CLASS &gt;</text>
<text text-anchor="start" x="274.5" y="-112" font-family="Helvetica,sans-Serif" font-size="10.00"> </text>
<text text-anchor="start" x="214" y="-97" font-family="Helvetica,sans-Serif" font-size="10.00">+</text>
<text text-anchor="start" x="227" y="-97" font-family="Helvetica,sans-Serif" font-size="10.00">ObjectCommunicator()</text>
<text text-anchor="start" x="214" y="-82" font-family="Helvetica,sans-Serif" font-size="10.00">+</text>
<text text-anchor="start" x="227" y="-82" font-family="Helvetica,sans-Serif" font-size="10.00">SendObject()</text>
<text text-anchor="start" x="214" y="-67" font-family="Helvetica,sans-Serif" font-size="10.00">+</text>
<text text-anchor="start" x="227" y="-67" font-family="Helvetica,sans-Serif" font-size="10.00">ISendObject()</text>
<text text-anchor="start" x="214" y="-52" font-family="Helvetica,sans-Serif" font-size="10.00">+</text>
<text text-anchor="start" x="227" y="-52" font-family="Helvetica,sans-Serif" font-size="10.00">RecvObject()</text>
<text text-anchor="start" x="214" y="-37" font-family="Helvetica,sans-Serif" font-size="10.00">+</text>
<text text-anchor="start" x="227" y="-37" font-family="Helvetica,sans-Serif" font-size="10.00">IRecvObject()</text>
<text text-anchor="start" x="214" y="-22" font-family="Helvetica,sans-Serif" font-size="10.00">+</text>
<text text-anchor="start" x="227" y="-22" font-family="Helvetica,sans-Serif" font-size="10.00">GetRecvObject()</text>
<text text-anchor="start" x="214" y="-7" font-family="Helvetica,sans-Serif" font-size="10.00">+</text>
<text text-anchor="start" x="227" y="-7" font-family="Helvetica,sans-Serif" font-size="10.00">SendRecvObject()</text>
<polygon fill="#666666" stroke="#666666" points="210,-122 210,-122 343,-122 343,-122 210,-122"/>
<polygon fill="#666666" stroke="#666666" points="210,-107 210,-107 343,-107 343,-107 210,-107"/>
<polygon fill="none" stroke="#666666" points="209.5,0 209.5,-150 342.5,-150 342.5,0 209.5,0"/>
</a>
</g>
</g>
<!-- Node2 -->
<g id="Node000002" class="node">
<title>Node2</title>
<g id="a_Node000002"><a xlink:title=" ">
<polygon fill="white" stroke="transparent" points="40,-257 0,-257 0,-208 40,-208 40,-257"/>
<text text-anchor="start" x="5" y="-244.5" font-family="Helvetica,sans-Serif" font-size="10.00">char *</text>
<text text-anchor="start" x="18" y="-229.5" font-family="Helvetica,sans-Serif" font-size="10.00"> </text>
<text text-anchor="start" x="18" y="-214.5" font-family="Helvetica,sans-Serif" font-size="10.00"> </text>
<polygon fill="#bfbfbf" stroke="#bfbfbf" points="0,-239.5 0,-239.5 40,-239.5 40,-239.5 0,-239.5"/>
<polygon fill="#bfbfbf" stroke="#bfbfbf" points="0,-224.5 0,-224.5 40,-224.5 40,-224.5 0,-224.5"/>
<polygon fill="none" stroke="#bfbfbf" points="0,-208 0,-257 40,-257 40,-208 0,-208"/>
</a>
</g>
</g>
<!-- Node2&#45;&gt;Node1 -->
<g id="edge1_Node000001_Node000002" class="edge">
<title>Node2&#45;&gt;Node1</title>
<g id="a_edge1_Node000001_Node000002"><a xlink:title=" ">
<path fill="none" stroke="#63b8ff" d="M31.26,-207.89C38.52,-194.73 49.02,-178.85 62,-168 101.37,-135.1 154.27,-112.21 197.63,-97.49"/>
<polygon fill="none" stroke="#63b8ff" points="197.9,-97.4 202.35,-91.73 209.3,-93.65 204.85,-99.33 197.9,-97.4"/>
</a>
</g>
<text text-anchor="middle" x="97" y="-176.5" font-family="Helvetica,sans-Serif" font-size="10.00" fill="grey"> &#45;mRecvBuffer</text>
</g>
<!-- Node3 -->
<g id="Node000003" class="node">
<title>Node3</title>
<g id="a_Node000003"><a xlink:title=" ">
<polygon fill="white" stroke="transparent" points="155.5,-257 62.5,-257 62.5,-208 155.5,-208 155.5,-257"/>
<text text-anchor="start" x="68" y="-244.5" font-family="Helvetica,sans-Serif" font-size="10.00">vector&lt; char * &gt;</text>
<text text-anchor="start" x="107.5" y="-229.5" font-family="Helvetica,sans-Serif" font-size="10.00"> </text>
<text text-anchor="start" x="107.5" y="-214.5" font-family="Helvetica,sans-Serif" font-size="10.00"> </text>
<polygon fill="#bfbfbf" stroke="#bfbfbf" points="63,-239.5 63,-239.5 156,-239.5 156,-239.5 63,-239.5"/>
<polygon fill="#bfbfbf" stroke="#bfbfbf" points="63,-224.5 63,-224.5 156,-224.5 156,-224.5 63,-224.5"/>
<polygon fill="none" stroke="#bfbfbf" points="62.5,-208 62.5,-257 155.5,-257 155.5,-208 62.5,-208"/>
</a>
</g>
</g>
<!-- Node3&#45;&gt;Node1 -->
<g id="edge2_Node000001_Node000003" class="edge">
<title>Node3&#45;&gt;Node1</title>
<g id="a_edge2_Node000001_Node000003"><a xlink:title=" ">
<path fill="none" stroke="#63b8ff" d="M123.25,-207.85C131.41,-195.3 142.33,-180.02 154,-168 167.7,-153.89 183.69,-140.24 199.5,-127.97"/>
<polygon fill="none" stroke="#63b8ff" points="199.75,-127.78 202.1,-120.96 209.3,-120.51 206.94,-127.33 199.75,-127.78"/>
</a>
</g>
<text text-anchor="middle" x="189" y="-176.5" font-family="Helvetica,sans-Serif" font-size="10.00" fill="grey"> &#45;mSendBuffer</text>
</g>
<!-- Node4 -->
<g id="Node000004" class="node">
<title>Node4</title>
<g id="a_Node000004"><a xlink:title=" ">
<polygon fill="white" stroke="transparent" points="286.5,-257 173.5,-257 173.5,-208 286.5,-208 286.5,-257"/>
<text text-anchor="start" x="179" y="-244.5" font-family="Helvetica,sans-Serif" font-size="10.00">vector&lt; std::string &gt;</text>
<text text-anchor="start" x="228.5" y="-229.5" font-family="Helvetica,sans-Serif" font-size="10.00"> </text>
<text text-anchor="start" x="228.5" y="-214.5" font-family="Helvetica,sans-Serif" font-size="10.00"> </text>
<polygon fill="#bfbfbf" stroke="#bfbfbf" points="174,-239.5 174,-239.5 287,-239.5 287,-239.5 174,-239.5"/>
<polygon fill="#bfbfbf" stroke="#bfbfbf" points="174,-224.5 174,-224.5 287,-224.5 287,-224.5 174,-224.5"/>
<polygon fill="none" stroke="#bfbfbf" points="173.5,-208 173.5,-257 286.5,-257 286.5,-208 173.5,-208"/>
</a>
</g>
</g>
<!-- Node4&#45;&gt;Node1 -->
<g id="edge3_Node000001_Node000004" class="edge">
<title>Node4&#45;&gt;Node1</title>
<g id="a_edge3_Node000001_Node000004"><a xlink:title=" ">
<path fill="none" stroke="#63b8ff" d="M227.95,-207.97C227.5,-195.87 227.89,-180.97 231,-168 231.51,-165.86 232.08,-163.7 232.7,-161.55"/>
<polygon fill="none" stroke="#63b8ff" points="232.73,-161.45 230.78,-154.51 236.44,-150.04 238.39,-156.98 232.73,-161.45"/>
</a>
</g>
<text text-anchor="middle" x="266" y="-176.5" font-family="Helvetica,sans-Serif" font-size="10.00" fill="grey"> &#45;mSendString</text>
</g>
<!-- Node5 -->
<g id="Node000005" class="node">
<title>Node5</title>
<g id="a_Node000005"><a xlink:href="classunsigned.html" target="_top" xlink:title=" ">
<polygon fill="white" stroke="transparent" points="359.5,-257 304.5,-257 304.5,-208 359.5,-208 359.5,-257"/>
<text text-anchor="start" x="310" y="-244.5" font-family="Helvetica,sans-Serif" font-size="10.00">unsigned</text>
<text text-anchor="start" x="330.5" y="-229.5" font-family="Helvetica,sans-Serif" font-size="10.00"> </text>
<text text-anchor="start" x="330.5" y="-214.5" font-family="Helvetica,sans-Serif" font-size="10.00"> </text>
<polygon fill="#bfbfbf" stroke="#bfbfbf" points="305,-239.5 305,-239.5 360,-239.5 360,-239.5 305,-239.5"/>
<polygon fill="#bfbfbf" stroke="#bfbfbf" points="305,-224.5 305,-224.5 360,-224.5 360,-224.5 305,-224.5"/>
<polygon fill="none" stroke="#bfbfbf" points="304.5,-208 304.5,-257 359.5,-257 359.5,-208 304.5,-208"/>
</a>
</g>
</g>
<!-- Node5&#45;&gt;Node1 -->
<g id="edge4_Node000001_Node000005" class="edge">
<title>Node5&#45;&gt;Node1</title>
<g id="a_edge4_Node000001_Node000005"><a xlink:title=" ">
<path fill="none" stroke="#63b8ff" d="M323.49,-207.88C318.95,-195.25 313.03,-178.83 306.93,-161.89"/>
<polygon fill="none" stroke="#63b8ff" points="306.76,-161.41 300.96,-157.12 302.69,-150.12 308.49,-154.41 306.76,-161.41"/>
</a>
</g>
<text text-anchor="middle" x="367.5" y="-182" font-family="Helvetica,sans-Serif" font-size="10.00" fill="grey"> &#45;mRecvBufferLength</text>
<text text-anchor="middle" x="367.5" y="-171" font-family="Helvetica,sans-Serif" font-size="10.00" fill="grey">&#45;mSendBufferLength</text>
</g>
<!-- Node6 -->
<g id="Node000006" class="node">
<title>Node6</title>
<g id="a_Node000006"><a xlink:href="classMPI__Request.html" target="_top" xlink:title=" ">
<polygon fill="white" stroke="transparent" points="486,-257 412,-257 412,-208 486,-208 486,-257"/>
<text text-anchor="start" x="417" y="-244.5" font-family="Helvetica,sans-Serif" font-size="10.00">MPI_Request</text>
<text text-anchor="start" x="447" y="-229.5" font-family="Helvetica,sans-Serif" font-size="10.00"> </text>
<text text-anchor="start" x="447" y="-214.5" font-family="Helvetica,sans-Serif" font-size="10.00"> </text>
<polygon fill="#bfbfbf" stroke="#bfbfbf" points="412,-239.5 412,-239.5 486,-239.5 486,-239.5 412,-239.5"/>
<polygon fill="#bfbfbf" stroke="#bfbfbf" points="412,-224.5 412,-224.5 486,-224.5 486,-224.5 412,-224.5"/>
<polygon fill="none" stroke="#bfbfbf" points="412,-208 412,-257 486,-257 486,-208 412,-208"/>
</a>
</g>
</g>
<!-- Node6&#45;&gt;Node1 -->
<g id="edge5_Node000001_Node000006" class="edge">
<title>Node6&#45;&gt;Node1</title>
<g id="a_edge5_Node000001_Node000006"><a xlink:title=" ">
<path fill="none" stroke="#63b8ff" d="M443.18,-207.89C439.12,-195.04 432.67,-179.48 423,-168 403.99,-145.44 377.99,-126.66 353.14,-112.09"/>
<polygon fill="none" stroke="#63b8ff" points="353.02,-112.02 345.83,-112.54 342.59,-106.1 349.78,-105.58 353.02,-112.02"/>
</a>
</g>
<text text-anchor="middle" x="472.5" y="-176.5" font-family="Helvetica,sans-Serif" font-size="10.00" fill="grey"> &#45;mMpiRequest</text>
</g>
<!-- Node7 -->
<g id="Node000007" class="node">
<title>Node7</title>
<g id="a_Node000007"><a xlink:href="classbool.html" target="_top" xlink:title=" ">
<polygon fill="white" stroke="transparent" points="563,-257 531,-257 531,-208 563,-208 563,-257"/>
<text text-anchor="start" x="536" y="-244.5" font-family="Helvetica,sans-Serif" font-size="10.00">bool</text>
<text text-anchor="start" x="545" y="-229.5" font-family="Helvetica,sans-Serif" font-size="10.00"> </text>
<text text-anchor="start" x="545" y="-214.5" font-family="Helvetica,sans-Serif" font-size="10.00"> </text>
<polygon fill="#bfbfbf" stroke="#bfbfbf" points="531,-239.5 531,-239.5 563,-239.5 563,-239.5 531,-239.5"/>
<polygon fill="#bfbfbf" stroke="#bfbfbf" points="531,-224.5 531,-224.5 563,-224.5 563,-224.5 531,-224.5"/>
<polygon fill="none" stroke="#bfbfbf" points="531,-208 531,-257 563,-257 563,-208 531,-208"/>
</a>
</g>
</g>
<!-- Node7&#45;&gt;Node1 -->
<g id="edge6_Node000001_Node000007" class="edge">
<title>Node7&#45;&gt;Node1</title>
<g id="a_edge6_Node000001_Node000007"><a xlink:title=" ">
<path fill="none" stroke="#63b8ff" d="M539.39,-207.71C534.1,-194.48 525.85,-178.61 514,-168 469.16,-127.86 404.88,-104.41 354.43,-91.24"/>
<polygon fill="none" stroke="#63b8ff" points="354.22,-91.19 347.42,-93.61 342.58,-88.27 349.37,-85.85 354.22,-91.19"/>
</a>
</g>
<text text-anchor="middle" x="560.5" y="-176.5" font-family="Helvetica,sans-Serif" font-size="10.00" fill="grey"> &#45;mIsWriting</text>
</g>
</g>
</svg>
