<?xml version="1.0" encoding="UTF-8" standalone="no"?>
<!DOCTYPE svg PUBLIC "-//W3C//DTD SVG 1.1//EN"
 "http://www.w3.org/Graphics/SVG/1.1/DTD/svg11.dtd">
<!-- Generated by graphviz version 2.43.0 (0)
 -->
<!-- Title: FourthOrderTensor&lt; DIM1, DIM2, DIM3, DIM4 &gt; Pages: 1 -->
<svg width="212pt" height="306pt"
 viewBox="0.00 0.00 212.00 306.00" xmlns="http://www.w3.org/2000/svg" xmlns:xlink="http://www.w3.org/1999/xlink">
<g id="graph0" class="graph" transform="scale(1 1) rotate(0) translate(4 302)">
<title>FourthOrderTensor&lt; DIM1, DIM2, DIM3, DIM4 &gt;</title>
<!-- Node1 -->
<g id="Node000001" class="node">
<title>Node1</title>
<g id="a_Node000001"><a xlink:title=" ">
<polygon fill="#999999" stroke="transparent" points="204,-202 0,-202 0,0 204,0 204,-202"/>
<text text-anchor="start" x="34.5" y="-190" font-family="Helvetica,sans-Serif" font-size="10.00">FourthOrderTensor&lt;</text>
<text text-anchor="start" x="34.5" y="-179" font-family="Helvetica,sans-Serif" font-size="10.00"> DIM1, DIM2, DIM3, DIM4 &gt;</text>
<text text-anchor="start" x="100" y="-164" font-family="Helvetica,sans-Serif" font-size="10.00"> </text>
<text text-anchor="start" x="4" y="-149" font-family="Helvetica,sans-Serif" font-size="10.00">+</text>
<text text-anchor="start" x="17" y="-149" font-family="Helvetica,sans-Serif" font-size="10.00">FourthOrderTensor()</text>
<text text-anchor="start" x="4" y="-134" font-family="Helvetica,sans-Serif" font-size="10.00">+</text>
<text text-anchor="start" x="17" y="-134" font-family="Helvetica,sans-Serif" font-size="10.00">SetAsContractionOnFirstDimension()</text>
<text text-anchor="start" x="4" y="-119" font-family="Helvetica,sans-Serif" font-size="10.00">+</text>
<text text-anchor="start" x="17" y="-119" font-family="Helvetica,sans-Serif" font-size="10.00">SetAsContractionOnSecond</text>
<text text-anchor="start" x="17" y="-108" font-family="Helvetica,sans-Serif" font-size="10.00">Dimension()</text>
<text text-anchor="start" x="4" y="-93" font-family="Helvetica,sans-Serif" font-size="10.00">+</text>
<text text-anchor="start" x="17" y="-93" font-family="Helvetica,sans-Serif" font-size="10.00">SetAsContractionOnThirdDimension()</text>
<text text-anchor="start" x="4" y="-78" font-family="Helvetica,sans-Serif" font-size="10.00">+</text>
<text text-anchor="start" x="17" y="-78" font-family="Helvetica,sans-Serif" font-size="10.00">SetAsContractionOnFourth</text>
<text text-anchor="start" x="17" y="-67" font-family="Helvetica,sans-Serif" font-size="10.00">Dimension()</text>
<text text-anchor="start" x="4" y="-52" font-family="Helvetica,sans-Serif" font-size="10.00">+</text>
<text text-anchor="start" x="17" y="-52" font-family="Helvetica,sans-Serif" font-size="10.00">operator()()</text>
<text text-anchor="start" x="4" y="-37" font-family="Helvetica,sans-Serif" font-size="10.00">+</text>
<text text-anchor="start" x="17" y="-37" font-family="Helvetica,sans-Serif" font-size="10.00">Zero()</text>
<text text-anchor="start" x="4" y="-22" font-family="Helvetica,sans-Serif" font-size="10.00">+</text>
<text text-anchor="start" x="17" y="-22" font-family="Helvetica,sans-Serif" font-size="10.00">rGetData()</text>
<text text-anchor="start" x="6.5" y="-7" font-family="Helvetica,sans-Serif" font-size="10.00">&#45;</text>
<text text-anchor="start" x="17" y="-7" font-family="Helvetica,sans-Serif" font-size="10.00">GetVectorIndex()</text>
<polygon fill="#666666" stroke="#666666" points="0,-174 0,-174 204,-174 204,-174 0,-174"/>
<polygon fill="#666666" stroke="#666666" points="0,-159 0,-159 204,-159 204,-159 0,-159"/>
<polygon fill="none" stroke="#666666" points="0,0 0,-202 204,-202 204,0 0,0"/>
</a>
</g>
</g>
<!-- Node2 -->
<g id="Node000002" class="node">
<title>Node2</title>
<g id="a_Node000002"><a xlink:title=" ">
<polygon fill="white" stroke="transparent" points="150.5,-298 53.5,-298 53.5,-249 150.5,-249 150.5,-298"/>
<text text-anchor="start" x="59" y="-285.5" font-family="Helvetica,sans-Serif" font-size="10.00">vector&lt; double &gt;</text>
<text text-anchor="start" x="100.5" y="-270.5" font-family="Helvetica,sans-Serif" font-size="10.00"> </text>
<text text-anchor="start" x="100.5" y="-255.5" font-family="Helvetica,sans-Serif" font-size="10.00"> </text>
<polygon fill="#bfbfbf" stroke="#bfbfbf" points="54,-280.5 54,-280.5 151,-280.5 151,-280.5 54,-280.5"/>
<polygon fill="#bfbfbf" stroke="#bfbfbf" points="54,-265.5 54,-265.5 151,-265.5 151,-265.5 54,-265.5"/>
<polygon fill="none" stroke="#bfbfbf" points="53.5,-249 53.5,-298 150.5,-298 150.5,-249 53.5,-249"/>
</a>
</g>
</g>
<!-- Node2&#45;&gt;Node1 -->
<g id="edge1_Node000001_Node000002" class="edge">
<title>Node2&#45;&gt;Node1</title>
<g id="a_edge1_Node000001_Node000002"><a xlink:title=" ">
<path fill="none" stroke="#63b8ff" d="M102,-248.79C102,-239.13 102,-227.2 102,-214.35"/>
<polygon fill="none" stroke="#63b8ff" points="102,-214.34 98,-208.34 102,-202.34 106,-208.34 102,-214.34"/>
</a>
</g>
<text text-anchor="middle" x="122" y="-223" font-family="Helvetica,sans-Serif" font-size="10.00" fill="grey"> &#45;mData</text>
</g>
</g>
</svg>
