<?xml version="1.0" encoding="UTF-8" standalone="no"?>
<!DOCTYPE svg PUBLIC "-//W3C//DTD SVG 1.1//EN"
 "http://www.w3.org/Graphics/SVG/1.1/DTD/svg11.dtd">
<!-- Generated by graphviz version 2.43.0 (0)
 -->
<!-- Title: UniformSourceParabolicPde&lt; DIM &gt; Pages: 1 -->
<svg width="372pt" height="912pt"
 viewBox="0.00 0.00 372.00 912.00" xmlns="http://www.w3.org/2000/svg" xmlns:xlink="http://www.w3.org/1999/xlink">
<g id="graph0" class="graph" transform="scale(1 1) rotate(0) translate(4 908)">
<title>UniformSourceParabolicPde&lt; DIM &gt;</title>
<!-- Node1 -->
<g id="Node000001" class="node">
<title>Node1</title>
<g id="a_Node000001"><a xlink:title=" ">
<polygon fill="#999999" stroke="transparent" points="294,-180 102,-180 102,0 294,0 294,-180"/>
<text text-anchor="start" x="130" y="-168" font-family="Helvetica,sans-Serif" font-size="10.00">UniformSourceParabolicPde</text>
<text text-anchor="start" x="176.5" y="-157" font-family="Helvetica,sans-Serif" font-size="10.00">&lt; DIM &gt;</text>
<text text-anchor="start" x="196" y="-142" font-family="Helvetica,sans-Serif" font-size="10.00"> </text>
<text text-anchor="start" x="106" y="-127" font-family="Helvetica,sans-Serif" font-size="10.00">+</text>
<text text-anchor="start" x="119" y="-127" font-family="Helvetica,sans-Serif" font-size="10.00">UniformSourceParabolicPde()</text>
<text text-anchor="start" x="106" y="-112" font-family="Helvetica,sans-Serif" font-size="10.00">+</text>
<text text-anchor="start" x="119" y="-112" font-family="Helvetica,sans-Serif" font-size="10.00">GetConstantCoefficient()</text>
<text text-anchor="start" x="106" y="-97" font-family="Helvetica,sans-Serif" font-size="10.00">+</text>
<text text-anchor="start" x="119" y="-97" font-family="Helvetica,sans-Serif" font-size="10.00">GetLinearCoefficient()</text>
<text text-anchor="start" x="106" y="-82" font-family="Helvetica,sans-Serif" font-size="10.00">+</text>
<text text-anchor="start" x="119" y="-82" font-family="Helvetica,sans-Serif" font-size="10.00">GetDiffusionCoefficient()</text>
<text text-anchor="start" x="106" y="-67" font-family="Helvetica,sans-Serif" font-size="10.00">+</text>
<text text-anchor="start" x="119" y="-67" font-family="Helvetica,sans-Serif" font-size="10.00">GetDuDtCoefficient()</text>
<text text-anchor="start" x="106" y="-52" font-family="Helvetica,sans-Serif" font-size="10.00">+</text>
<text text-anchor="start" x="119" y="-52" font-family="Helvetica,sans-Serif" font-size="10.00">ComputeSourceTerm()</text>
<text text-anchor="start" x="106" y="-37" font-family="Helvetica,sans-Serif" font-size="10.00">+</text>
<text text-anchor="start" x="119" y="-37" font-family="Helvetica,sans-Serif" font-size="10.00">ComputeDiffusionTerm()</text>
<text text-anchor="start" x="106" y="-22" font-family="Helvetica,sans-Serif" font-size="10.00">+</text>
<text text-anchor="start" x="119" y="-22" font-family="Helvetica,sans-Serif" font-size="10.00">ComputeDuDtCoefficientFunction()</text>
<text text-anchor="start" x="108.5" y="-7" font-family="Helvetica,sans-Serif" font-size="10.00">&#45;</text>
<text text-anchor="start" x="119" y="-7" font-family="Helvetica,sans-Serif" font-size="10.00">serialize()</text>
<polygon fill="#666666" stroke="#666666" points="102,-152 102,-152 294,-152 294,-152 102,-152"/>
<polygon fill="#666666" stroke="#666666" points="102,-137 102,-137 294,-137 294,-137 102,-137"/>
<polygon fill="none" stroke="#666666" points="102,0 102,-180 294,-180 294,0 102,0"/>
</a>
</g>
</g>
<!-- Node2 -->
<g id="Node000002" class="node">
<title>Node2</title>
<g id="a_Node000002"><a xlink:href="classAbstractLinearParabolicPde.html" target="_top" xlink:title=" ">
<polygon fill="white" stroke="transparent" points="192,-421 0,-421 0,-260 192,-260 192,-421"/>
<text text-anchor="start" x="29.5" y="-408.5" font-family="Helvetica,sans-Serif" font-size="10.00">AbstractLinearParabolicPde</text>
<text text-anchor="start" x="62" y="-397.5" font-family="Helvetica,sans-Serif" font-size="10.00">&lt; DIM, DIM &gt;</text>
<text text-anchor="start" x="94" y="-382.5" font-family="Helvetica,sans-Serif" font-size="10.00"> </text>
<text text-anchor="start" x="4" y="-367.5" font-family="Helvetica,sans-Serif" font-size="10.00">+</text>
<text text-anchor="start" x="17" y="-367.5" font-family="Helvetica,sans-Serif" font-size="10.00">AbstractLinearParabolicPde()</text>
<text text-anchor="start" x="4" y="-352.5" font-family="Helvetica,sans-Serif" font-size="10.00">+</text>
<text text-anchor="start" x="17" y="-352.5" font-family="Helvetica,sans-Serif" font-size="10.00">~AbstractLinearParabolic</text>
<text text-anchor="start" x="17" y="-341.5" font-family="Helvetica,sans-Serif" font-size="10.00">Pde()</text>
<text text-anchor="start" x="4" y="-326.5" font-family="Helvetica,sans-Serif" font-size="10.00">+</text>
<text text-anchor="start" x="17" y="-326.5" font-family="Helvetica,sans-Serif" font-size="10.00">ComputeDuDtCoefficientFunction()</text>
<text text-anchor="start" x="4" y="-311.5" font-family="Helvetica,sans-Serif" font-size="10.00">+</text>
<text text-anchor="start" x="17" y="-311.5" font-family="Helvetica,sans-Serif" font-size="10.00">ComputeSourceTerm()</text>
<text text-anchor="start" x="4" y="-296.5" font-family="Helvetica,sans-Serif" font-size="10.00">+</text>
<text text-anchor="start" x="17" y="-296.5" font-family="Helvetica,sans-Serif" font-size="10.00">ComputeSourceTermAtNode()</text>
<text text-anchor="start" x="4" y="-281.5" font-family="Helvetica,sans-Serif" font-size="10.00">+</text>
<text text-anchor="start" x="17" y="-281.5" font-family="Helvetica,sans-Serif" font-size="10.00">ComputeDiffusionTerm()</text>
<text text-anchor="start" x="6.5" y="-266.5" font-family="Helvetica,sans-Serif" font-size="10.00">&#45;</text>
<text text-anchor="start" x="17" y="-266.5" font-family="Helvetica,sans-Serif" font-size="10.00">serialize()</text>
<polygon fill="#666666" stroke="#666666" points="0,-392.5 0,-392.5 192,-392.5 192,-392.5 0,-392.5"/>
<polygon fill="#666666" stroke="#666666" points="0,-377.5 0,-377.5 192,-377.5 192,-377.5 0,-377.5"/>
<polygon fill="none" stroke="#666666" points="0,-260 0,-421 192,-421 192,-260 0,-260"/>
</a>
</g>
</g>
<!-- Node2&#45;&gt;Node1 -->
<g id="edge1_Node000001_Node000002" class="edge">
<title>Node2&#45;&gt;Node1</title>
<g id="a_edge1_Node000001_Node000002"><a xlink:title=" ">
<path fill="none" stroke="#63b8ff" d="M132.53,-250.5C141.92,-227.62 152.03,-203 161.42,-180.12"/>
<polygon fill="none" stroke="#63b8ff" points="129.25,-249.27 128.69,-259.85 135.73,-251.93 129.25,-249.27"/>
</a>
</g>
</g>
<!-- Node3 -->
<g id="Node000003" class="node">
<title>Node3</title>
<g id="a_Node000003"><a xlink:href="classAbstractLinearPde.html" target="_top" xlink:title=" ">
<polygon fill="white" stroke="transparent" points="170.5,-756 13.5,-756 13.5,-666 170.5,-666 170.5,-756"/>
<text text-anchor="start" x="19" y="-744" font-family="Helvetica,sans-Serif" font-size="10.00">AbstractLinearPde&lt;</text>
<text text-anchor="start" x="19" y="-733" font-family="Helvetica,sans-Serif" font-size="10.00"> ELEMENT_DIM, SPACE_DIM &gt;</text>
<text text-anchor="start" x="90.5" y="-718" font-family="Helvetica,sans-Serif" font-size="10.00"> </text>
<text text-anchor="start" x="25.5" y="-703" font-family="Helvetica,sans-Serif" font-size="10.00">+</text>
<text text-anchor="start" x="46" y="-703" font-family="Helvetica,sans-Serif" font-size="10.00">AbstractLinearPde()</text>
<text text-anchor="start" x="25.5" y="-688" font-family="Helvetica,sans-Serif" font-size="10.00">+</text>
<text text-anchor="start" x="46" y="-688" font-family="Helvetica,sans-Serif" font-size="10.00">~AbstractLinearPde()</text>
<text text-anchor="start" x="28" y="-673" font-family="Helvetica,sans-Serif" font-size="10.00">&#45;</text>
<text text-anchor="start" x="46" y="-673" font-family="Helvetica,sans-Serif" font-size="10.00">serialize()</text>
<polygon fill="#666666" stroke="#666666" points="14,-728 14,-728 171,-728 171,-728 14,-728"/>
<polygon fill="#666666" stroke="#666666" points="14,-713 14,-713 171,-713 171,-713 14,-713"/>
<polygon fill="none" stroke="#666666" points="13.5,-666 13.5,-756 170.5,-756 170.5,-666 13.5,-666"/>
</a>
</g>
</g>
<!-- Node3&#45;&gt;Node2 -->
<g id="edge2_Node000002_Node000003" class="edge">
<title>Node3&#45;&gt;Node2</title>
<g id="a_edge2_Node000002_Node000003"><a xlink:title=" ">
<path fill="none" stroke="#63b8ff" d="M92.59,-655.59C93.26,-593.68 94.37,-492.02 95.14,-421.19"/>
<polygon fill="none" stroke="#63b8ff" points="89.09,-655.88 92.48,-665.92 96.09,-655.95 89.09,-655.88"/>
</a>
</g>
</g>
<!-- Node5 -->
<g id="Node000005" class="node">
<title>Node5</title>
<g id="a_Node000005"><a xlink:href="classAbstractLinearParabolicPde.html" target="_top" xlink:title=" ">
<polygon fill="white" stroke="transparent" points="300,-629 108,-629 108,-468 300,-468 300,-629"/>
<text text-anchor="start" x="126.5" y="-616.5" font-family="Helvetica,sans-Serif" font-size="10.00">AbstractLinearParabolicPde</text>
<text text-anchor="start" x="126.5" y="-605.5" font-family="Helvetica,sans-Serif" font-size="10.00">&lt; ELEMENT_DIM, SPACE_DIM &gt;</text>
<text text-anchor="start" x="202" y="-590.5" font-family="Helvetica,sans-Serif" font-size="10.00"> </text>
<text text-anchor="start" x="112" y="-575.5" font-family="Helvetica,sans-Serif" font-size="10.00">+</text>
<text text-anchor="start" x="125" y="-575.5" font-family="Helvetica,sans-Serif" font-size="10.00">AbstractLinearParabolicPde()</text>
<text text-anchor="start" x="112" y="-560.5" font-family="Helvetica,sans-Serif" font-size="10.00">+</text>
<text text-anchor="start" x="125" y="-560.5" font-family="Helvetica,sans-Serif" font-size="10.00">~AbstractLinearParabolic</text>
<text text-anchor="start" x="125" y="-549.5" font-family="Helvetica,sans-Serif" font-size="10.00">Pde()</text>
<text text-anchor="start" x="112" y="-534.5" font-family="Helvetica,sans-Serif" font-size="10.00">+</text>
<text text-anchor="start" x="125" y="-534.5" font-family="Helvetica,sans-Serif" font-size="10.00">ComputeDuDtCoefficientFunction()</text>
<text text-anchor="start" x="112" y="-519.5" font-family="Helvetica,sans-Serif" font-size="10.00">+</text>
<text text-anchor="start" x="125" y="-519.5" font-family="Helvetica,sans-Serif" font-size="10.00">ComputeSourceTerm()</text>
<text text-anchor="start" x="112" y="-504.5" font-family="Helvetica,sans-Serif" font-size="10.00">+</text>
<text text-anchor="start" x="125" y="-504.5" font-family="Helvetica,sans-Serif" font-size="10.00">ComputeSourceTermAtNode()</text>
<text text-anchor="start" x="112" y="-489.5" font-family="Helvetica,sans-Serif" font-size="10.00">+</text>
<text text-anchor="start" x="125" y="-489.5" font-family="Helvetica,sans-Serif" font-size="10.00">ComputeDiffusionTerm()</text>
<text text-anchor="start" x="114.5" y="-474.5" font-family="Helvetica,sans-Serif" font-size="10.00">&#45;</text>
<text text-anchor="start" x="125" y="-474.5" font-family="Helvetica,sans-Serif" font-size="10.00">serialize()</text>
<polygon fill="#666666" stroke="#666666" points="108,-600.5 108,-600.5 300,-600.5 300,-600.5 108,-600.5"/>
<polygon fill="#666666" stroke="#666666" points="108,-585.5 108,-585.5 300,-585.5 300,-585.5 108,-585.5"/>
<polygon fill="none" stroke="#666666" points="108,-468 108,-629 300,-629 300,-468 108,-468"/>
</a>
</g>
</g>
<!-- Node3&#45;&gt;Node5 -->
<g id="edge5_Node000005_Node000003" class="edge">
<title>Node3&#45;&gt;Node5</title>
<g id="a_edge5_Node000005_Node000003"><a xlink:title=" ">
<path fill="none" stroke="#63b8ff" d="M128.63,-657.51C135,-648.38 141.75,-638.71 148.49,-629.05"/>
<polygon fill="none" stroke="#63b8ff" points="125.75,-655.51 122.9,-665.72 131.49,-659.52 125.75,-655.51"/>
</a>
</g>
</g>
<!-- Node4 -->
<g id="Node000004" class="node">
<title>Node4</title>
<g id="a_Node000004"><a xlink:href="classAbstractLinearPde.html" target="_top" xlink:title=" ">
<polygon fill="white" stroke="transparent" points="170.5,-904 13.5,-904 13.5,-814 170.5,-814 170.5,-904"/>
<text text-anchor="start" x="19" y="-892" font-family="Helvetica,sans-Serif" font-size="10.00">AbstractLinearPde&lt;</text>
<text text-anchor="start" x="19" y="-881" font-family="Helvetica,sans-Serif" font-size="10.00"> ELEMENT_DIM, SPACE_DIM &gt;</text>
<text text-anchor="start" x="90.5" y="-866" font-family="Helvetica,sans-Serif" font-size="10.00"> </text>
<text text-anchor="start" x="25.5" y="-851" font-family="Helvetica,sans-Serif" font-size="10.00">+</text>
<text text-anchor="start" x="46" y="-851" font-family="Helvetica,sans-Serif" font-size="10.00">AbstractLinearPde()</text>
<text text-anchor="start" x="25.5" y="-836" font-family="Helvetica,sans-Serif" font-size="10.00">+</text>
<text text-anchor="start" x="46" y="-836" font-family="Helvetica,sans-Serif" font-size="10.00">~AbstractLinearPde()</text>
<text text-anchor="start" x="28" y="-821" font-family="Helvetica,sans-Serif" font-size="10.00">&#45;</text>
<text text-anchor="start" x="46" y="-821" font-family="Helvetica,sans-Serif" font-size="10.00">serialize()</text>
<polygon fill="#666666" stroke="#666666" points="14,-876 14,-876 171,-876 171,-876 14,-876"/>
<polygon fill="#666666" stroke="#666666" points="14,-861 14,-861 171,-861 171,-861 14,-861"/>
<polygon fill="none" stroke="#666666" points="13.5,-814 13.5,-904 170.5,-904 170.5,-814 13.5,-814"/>
</a>
</g>
</g>
<!-- Node4&#45;&gt;Node3 -->
<g id="edge3_Node000003_Node000004" class="edge">
<title>Node4&#45;&gt;Node3</title>
<g id="a_edge3_Node000003_Node000004"><a xlink:title=" ">
<path fill="none" stroke="orange" d="M92,-803.69C92,-787.99 92,-771.05 92,-756.05"/>
<polygon fill="orange" stroke="orange" points="88.5,-803.8 92,-813.8 95.5,-803.8 88.5,-803.8"/>
</a>
</g>
<text text-anchor="start" x="92" y="-788" font-family="Helvetica,sans-Serif" font-size="10.00" fill="grey"> &lt; ELEMENT_DIM, SPACE</text>
<text text-anchor="middle" x="153" y="-777" font-family="Helvetica,sans-Serif" font-size="10.00" fill="grey">_DIM &gt;</text>
</g>
<!-- Node5&#45;&gt;Node2 -->
<g id="edge4_Node000002_Node000005" class="edge">
<title>Node5&#45;&gt;Node2</title>
<g id="a_edge4_Node000002_Node000005"><a xlink:title=" ">
<path fill="none" stroke="orange" d="M157.51,-458.83C150.97,-446.34 144.27,-433.58 137.82,-421.27"/>
<polygon fill="orange" stroke="orange" points="154.5,-460.62 162.24,-467.86 160.7,-457.37 154.5,-460.62"/>
</a>
</g>
<text text-anchor="middle" x="185.5" y="-442" font-family="Helvetica,sans-Serif" font-size="10.00" fill="grey"> &lt; DIM, DIM &gt;</text>
</g>
<!-- Node6 -->
<g id="Node000006" class="node">
<title>Node6</title>
<g id="a_Node000006"><a xlink:href="classdouble.html" target="_top" xlink:title=" ">
<polygon fill="white" stroke="transparent" points="254,-365 210,-365 210,-316 254,-316 254,-365"/>
<text text-anchor="start" x="215" y="-352.5" font-family="Helvetica,sans-Serif" font-size="10.00">double</text>
<text text-anchor="start" x="230" y="-337.5" font-family="Helvetica,sans-Serif" font-size="10.00"> </text>
<text text-anchor="start" x="230" y="-322.5" font-family="Helvetica,sans-Serif" font-size="10.00"> </text>
<polygon fill="#bfbfbf" stroke="#bfbfbf" points="210,-347.5 210,-347.5 254,-347.5 254,-347.5 210,-347.5"/>
<polygon fill="#bfbfbf" stroke="#bfbfbf" points="210,-332.5 210,-332.5 254,-332.5 254,-332.5 210,-332.5"/>
<polygon fill="none" stroke="#bfbfbf" points="210,-316 210,-365 254,-365 254,-316 210,-316"/>
</a>
</g>
</g>
<!-- Node6&#45;&gt;Node1 -->
<g id="edge6_Node000001_Node000006" class="edge">
<title>Node6&#45;&gt;Node1</title>
<g id="a_edge6_Node000001_Node000006"><a xlink:title=" ">
<path fill="none" stroke="#63b8ff" d="M228.74,-315.67C224.83,-287.13 218.04,-237.45 211.83,-192.06"/>
<polygon fill="none" stroke="#63b8ff" points="211.81,-191.9 207.03,-186.5 210.18,-180.01 214.96,-185.41 211.81,-191.9"/>
</a>
</g>
<text text-anchor="middle" x="291" y="-234" font-family="Helvetica,sans-Serif" font-size="10.00" fill="grey"> &#45;mConstantSourceCoefficient</text>
<text text-anchor="middle" x="291" y="-223" font-family="Helvetica,sans-Serif" font-size="10.00" fill="grey">&#45;mDiffusionCoefficient</text>
<text text-anchor="middle" x="291" y="-212" font-family="Helvetica,sans-Serif" font-size="10.00" fill="grey">&#45;mDuDtCoefficient</text>
<text text-anchor="middle" x="291" y="-201" font-family="Helvetica,sans-Serif" font-size="10.00" fill="grey">&#45;mLinearSourceCoefficient</text>
</g>
</g>
</svg>
