<?xml version="1.0" encoding="UTF-8" standalone="no"?>
<!DOCTYPE svg PUBLIC "-//W3C//DTD SVG 1.1//EN"
 "http://www.w3.org/Graphics/SVG/1.1/DTD/svg11.dtd">
<!-- Generated by graphviz version 2.43.0 (0)
 -->
<!-- Title: AbstractTetrahedralMeshWriter&lt; ELEMENT_DIM, SPACE_DIM &gt; Pages: 1 -->
<svg width="1692pt" height="1003pt"
 viewBox="0.00 0.00 1691.50 1003.00" xmlns="http://www.w3.org/2000/svg" xmlns:xlink="http://www.w3.org/1999/xlink">
<g id="graph0" class="graph" transform="scale(1 1) rotate(0) translate(4 999)">
<title>AbstractTetrahedralMeshWriter&lt; ELEMENT_DIM, SPACE_DIM &gt;</title>
<!-- Node1 -->
<g id="Node000001" class="node">
<title>Node1</title>
<g id="a_Node000001"><a xlink:title=" ">
<polygon fill="#999999" stroke="transparent" points="1103.5,-292 922.5,-292 922.5,0 1103.5,0 1103.5,-292"/>
<text text-anchor="start" x="936" y="-280" font-family="Helvetica,sans-Serif" font-size="10.00">AbstractTetrahedralMeshWriter</text>
<text text-anchor="start" x="936" y="-269" font-family="Helvetica,sans-Serif" font-size="10.00">&lt; ELEMENT_DIM, SPACE_DIM &gt;</text>
<text text-anchor="start" x="1011.5" y="-254" font-family="Helvetica,sans-Serif" font-size="10.00"> </text>
<text text-anchor="start" x="927" y="-239" font-family="Helvetica,sans-Serif" font-size="10.00">+</text>
<text text-anchor="start" x="940" y="-239" font-family="Helvetica,sans-Serif" font-size="10.00">AbstractTetrahedralMeshWriter()</text>
<text text-anchor="start" x="927" y="-224" font-family="Helvetica,sans-Serif" font-size="10.00">+</text>
<text text-anchor="start" x="940" y="-224" font-family="Helvetica,sans-Serif" font-size="10.00">~AbstractTetrahedralMesh</text>
<text text-anchor="start" x="940" y="-213" font-family="Helvetica,sans-Serif" font-size="10.00">Writer()</text>
<text text-anchor="start" x="927" y="-198" font-family="Helvetica,sans-Serif" font-size="10.00">+</text>
<text text-anchor="start" x="940" y="-198" font-family="Helvetica,sans-Serif" font-size="10.00">WriteFilesUsingMesh()</text>
<text text-anchor="start" x="927" y="-183" font-family="Helvetica,sans-Serif" font-size="10.00">+</text>
<text text-anchor="start" x="940" y="-183" font-family="Helvetica,sans-Serif" font-size="10.00">WriteFilesUsingMeshReader</text>
<text text-anchor="start" x="940" y="-172" font-family="Helvetica,sans-Serif" font-size="10.00">AndMesh()</text>
<text text-anchor="start" x="927" y="-157" font-family="Helvetica,sans-Serif" font-size="10.00">+</text>
<text text-anchor="start" x="940" y="-157" font-family="Helvetica,sans-Serif" font-size="10.00">GetNextNode()</text>
<text text-anchor="start" x="927" y="-142" font-family="Helvetica,sans-Serif" font-size="10.00">+</text>
<text text-anchor="start" x="940" y="-142" font-family="Helvetica,sans-Serif" font-size="10.00">GetNextElement()</text>
<text text-anchor="start" x="927" y="-127" font-family="Helvetica,sans-Serif" font-size="10.00">+</text>
<text text-anchor="start" x="940" y="-127" font-family="Helvetica,sans-Serif" font-size="10.00">GetNextBoundaryElement()</text>
<text text-anchor="start" x="927" y="-112" font-family="Helvetica,sans-Serif" font-size="10.00">+</text>
<text text-anchor="start" x="940" y="-112" font-family="Helvetica,sans-Serif" font-size="10.00">GetNextCableElement()</text>
<text text-anchor="start" x="929.5" y="-97" font-family="Helvetica,sans-Serif" font-size="10.00">&#45;</text>
<text text-anchor="start" x="940" y="-97" font-family="Helvetica,sans-Serif" font-size="10.00">PostElement()</text>
<text text-anchor="start" x="929.5" y="-82" font-family="Helvetica,sans-Serif" font-size="10.00">&#45;</text>
<text text-anchor="start" x="940" y="-82" font-family="Helvetica,sans-Serif" font-size="10.00">UnpackElement()</text>
<text text-anchor="start" x="929.5" y="-67" font-family="Helvetica,sans-Serif" font-size="10.00">&#45;</text>
<text text-anchor="start" x="940" y="-67" font-family="Helvetica,sans-Serif" font-size="10.00">WriteFilesUsingParallelMesh()</text>
<text text-anchor="start" x="929.5" y="-52" font-family="Helvetica,sans-Serif" font-size="10.00">&#45;</text>
<text text-anchor="start" x="940" y="-52" font-family="Helvetica,sans-Serif" font-size="10.00">WriteNclFile()</text>
<text text-anchor="start" x="929.5" y="-37" font-family="Helvetica,sans-Serif" font-size="10.00">&#45;</text>
<text text-anchor="start" x="940" y="-37" font-family="Helvetica,sans-Serif" font-size="10.00">CreateFilesWithHeaders()</text>
<text text-anchor="start" x="929.5" y="-22" font-family="Helvetica,sans-Serif" font-size="10.00">&#45;</text>
<text text-anchor="start" x="940" y="-22" font-family="Helvetica,sans-Serif" font-size="10.00">AppendLocalDataToFiles()</text>
<text text-anchor="start" x="929.5" y="-7" font-family="Helvetica,sans-Serif" font-size="10.00">&#45;</text>
<text text-anchor="start" x="940" y="-7" font-family="Helvetica,sans-Serif" font-size="10.00">WriteFilesFooter()</text>
<polygon fill="#666666" stroke="#666666" points="923,-264 923,-264 1104,-264 1104,-264 923,-264"/>
<polygon fill="#666666" stroke="#666666" points="923,-249 923,-249 1104,-249 1104,-249 923,-249"/>
<polygon fill="none" stroke="#666666" points="922.5,0 922.5,-292 1103.5,-292 1103.5,0 922.5,0"/>
</a>
</g>
</g>
<!-- Node2 -->
<g id="Node000002" class="node">
<title>Node2</title>
<g id="a_Node000002"><a xlink:href="classAbstractMeshWriter.html" target="_top" xlink:title=" ">
<polygon fill="white" stroke="transparent" points="398,-579 232,-579 232,-339 398,-339 398,-579"/>
<text text-anchor="start" x="237.5" y="-567" font-family="Helvetica,sans-Serif" font-size="10.00">AbstractMeshWriter</text>
<text text-anchor="start" x="237.5" y="-556" font-family="Helvetica,sans-Serif" font-size="10.00">&lt; ELEMENT_DIM, SPACE_DIM &gt;</text>
<text text-anchor="start" x="313" y="-541" font-family="Helvetica,sans-Serif" font-size="10.00"> </text>
<text text-anchor="start" x="236" y="-526" font-family="Helvetica,sans-Serif" font-size="10.00">+</text>
<text text-anchor="start" x="249" y="-526" font-family="Helvetica,sans-Serif" font-size="10.00">AbstractMeshWriter()</text>
<text text-anchor="start" x="236" y="-511" font-family="Helvetica,sans-Serif" font-size="10.00">+</text>
<text text-anchor="start" x="249" y="-511" font-family="Helvetica,sans-Serif" font-size="10.00">~AbstractMeshWriter()</text>
<text text-anchor="start" x="236" y="-496" font-family="Helvetica,sans-Serif" font-size="10.00">+</text>
<text text-anchor="start" x="249" y="-496" font-family="Helvetica,sans-Serif" font-size="10.00">GetOutputDirectory()</text>
<text text-anchor="start" x="236" y="-481" font-family="Helvetica,sans-Serif" font-size="10.00">+</text>
<text text-anchor="start" x="249" y="-481" font-family="Helvetica,sans-Serif" font-size="10.00">GetNumNodes()</text>
<text text-anchor="start" x="236" y="-466" font-family="Helvetica,sans-Serif" font-size="10.00">+</text>
<text text-anchor="start" x="249" y="-466" font-family="Helvetica,sans-Serif" font-size="10.00">GetNumElements()</text>
<text text-anchor="start" x="236" y="-451" font-family="Helvetica,sans-Serif" font-size="10.00">+</text>
<text text-anchor="start" x="249" y="-451" font-family="Helvetica,sans-Serif" font-size="10.00">GetNumBoundaryFaces()</text>
<text text-anchor="start" x="236" y="-436" font-family="Helvetica,sans-Serif" font-size="10.00">+</text>
<text text-anchor="start" x="249" y="-436" font-family="Helvetica,sans-Serif" font-size="10.00">GetNumCableElements()</text>
<text text-anchor="start" x="236" y="-421" font-family="Helvetica,sans-Serif" font-size="10.00">+</text>
<text text-anchor="start" x="249" y="-421" font-family="Helvetica,sans-Serif" font-size="10.00">GetNextNode()</text>
<text text-anchor="start" x="236" y="-406" font-family="Helvetica,sans-Serif" font-size="10.00">+</text>
<text text-anchor="start" x="249" y="-406" font-family="Helvetica,sans-Serif" font-size="10.00">GetNextElement()</text>
<text text-anchor="start" x="236" y="-391" font-family="Helvetica,sans-Serif" font-size="10.00">+</text>
<text text-anchor="start" x="249" y="-391" font-family="Helvetica,sans-Serif" font-size="10.00">GetNextBoundaryElement()</text>
<text text-anchor="start" x="236" y="-376" font-family="Helvetica,sans-Serif" font-size="10.00">+</text>
<text text-anchor="start" x="249" y="-376" font-family="Helvetica,sans-Serif" font-size="10.00">GetNextCableElement()</text>
<text text-anchor="start" x="236" y="-361" font-family="Helvetica,sans-Serif" font-size="10.00">+</text>
<text text-anchor="start" x="249" y="-361" font-family="Helvetica,sans-Serif" font-size="10.00">WriteFiles()</text>
<text text-anchor="start" x="236" y="-346" font-family="Helvetica,sans-Serif" font-size="10.00">+</text>
<text text-anchor="start" x="249" y="-346" font-family="Helvetica,sans-Serif" font-size="10.00">WriteFilesUsingMeshReader()</text>
<polygon fill="#666666" stroke="#666666" points="232,-551 232,-551 398,-551 398,-551 232,-551"/>
<polygon fill="#666666" stroke="#666666" points="232,-536 232,-536 398,-536 398,-536 232,-536"/>
<polygon fill="none" stroke="#666666" points="232,-339 232,-579 398,-579 398,-339 232,-339"/>
</a>
</g>
</g>
<!-- Node2&#45;&gt;Node1 -->
<g id="edge1_Node000001_Node000002" class="edge">
<title>Node2&#45;&gt;Node1</title>
<g id="a_edge1_Node000001_Node000002"><a xlink:title=" ">
<path fill="none" stroke="#63b8ff" d="M406.87,-397.76C452.92,-369.04 510.2,-335.48 564,-310 684.3,-253.04 830.24,-203.43 922.39,-174.34"/>
<polygon fill="none" stroke="#63b8ff" points="404.73,-394.97 398.11,-403.25 408.45,-400.9 404.73,-394.97"/>
</a>
</g>
</g>
<!-- Node3 -->
<g id="Node000003" class="node">
<title>Node3</title>
<g id="a_Node000003"><a xlink:href="classOutputFileHandler.html" target="_top" xlink:title=" ">
<polygon fill="white" stroke="transparent" points="178,-899 0,-899 0,-659 178,-659 178,-899"/>
<text text-anchor="start" x="44.5" y="-887" font-family="Helvetica,sans-Serif" font-size="10.00">OutputFileHandler</text>
<text text-anchor="start" x="87" y="-872" font-family="Helvetica,sans-Serif" font-size="10.00"> </text>
<text text-anchor="start" x="4" y="-857" font-family="Helvetica,sans-Serif" font-size="10.00">+</text>
<text text-anchor="start" x="17" y="-857" font-family="Helvetica,sans-Serif" font-size="10.00">OutputFileHandler()</text>
<text text-anchor="start" x="4" y="-842" font-family="Helvetica,sans-Serif" font-size="10.00">+</text>
<text text-anchor="start" x="17" y="-842" font-family="Helvetica,sans-Serif" font-size="10.00">OutputFileHandler()</text>
<text text-anchor="start" x="4" y="-827" font-family="Helvetica,sans-Serif" font-size="10.00">+</text>
<text text-anchor="start" x="17" y="-827" font-family="Helvetica,sans-Serif" font-size="10.00">GetOutputDirectoryFullPath()</text>
<text text-anchor="start" x="4" y="-812" font-family="Helvetica,sans-Serif" font-size="10.00">+</text>
<text text-anchor="start" x="17" y="-812" font-family="Helvetica,sans-Serif" font-size="10.00">GetRelativePath()</text>
<text text-anchor="start" x="4" y="-797" font-family="Helvetica,sans-Serif" font-size="10.00">+</text>
<text text-anchor="start" x="17" y="-797" font-family="Helvetica,sans-Serif" font-size="10.00">SetArchiveDirectory()</text>
<text text-anchor="start" x="4" y="-782" font-family="Helvetica,sans-Serif" font-size="10.00">+</text>
<text text-anchor="start" x="17" y="-782" font-family="Helvetica,sans-Serif" font-size="10.00">OpenOutputFile()</text>
<text text-anchor="start" x="4" y="-767" font-family="Helvetica,sans-Serif" font-size="10.00">+</text>
<text text-anchor="start" x="17" y="-767" font-family="Helvetica,sans-Serif" font-size="10.00">OpenOutputFile()</text>
<text text-anchor="start" x="4" y="-752" font-family="Helvetica,sans-Serif" font-size="10.00">+</text>
<text text-anchor="start" x="17" y="-752" font-family="Helvetica,sans-Serif" font-size="10.00">CopyFileTo()</text>
<text text-anchor="start" x="4" y="-737" font-family="Helvetica,sans-Serif" font-size="10.00">+</text>
<text text-anchor="start" x="17" y="-737" font-family="Helvetica,sans-Serif" font-size="10.00">FindFile()</text>
<text text-anchor="start" x="4" y="-722" font-family="Helvetica,sans-Serif" font-size="10.00">+</text>
<text text-anchor="start" x="17" y="-722" font-family="Helvetica,sans-Serif" font-size="10.00">GetChasteTestOutputDirectory()</text>
<text text-anchor="start" x="6.5" y="-707" font-family="Helvetica,sans-Serif" font-size="10.00">&#45;</text>
<text text-anchor="start" x="17" y="-707" font-family="Helvetica,sans-Serif" font-size="10.00">CommonConstructor()</text>
<text text-anchor="start" x="6.5" y="-692" font-family="Helvetica,sans-Serif" font-size="10.00">&#45;</text>
<text text-anchor="start" x="17" y="-692" font-family="Helvetica,sans-Serif" font-size="10.00">MakeFoldersAndReturnFull</text>
<text text-anchor="start" x="17" y="-681" font-family="Helvetica,sans-Serif" font-size="10.00">Path()</text>
<text text-anchor="start" x="6.5" y="-666" font-family="Helvetica,sans-Serif" font-size="10.00">&#45;</text>
<text text-anchor="start" x="17" y="-666" font-family="Helvetica,sans-Serif" font-size="10.00">AddTrailingSlash()</text>
<polygon fill="#666666" stroke="#666666" points="0,-882 0,-882 178,-882 178,-882 0,-882"/>
<polygon fill="#666666" stroke="#666666" points="0,-867 0,-867 178,-867 178,-867 0,-867"/>
<polygon fill="none" stroke="#666666" points="0,-659 0,-899 178,-899 178,-659 0,-659"/>
</a>
</g>
</g>
<!-- Node3&#45;&gt;Node2 -->
<g id="edge2_Node000002_Node000003" class="edge">
<title>Node3&#45;&gt;Node2</title>
<g id="a_edge2_Node000002_Node000003"><a xlink:title=" ">
<path fill="none" stroke="#63b8ff" d="M72.81,-658.62C74.48,-637.09 79.48,-615.6 90,-597 118.14,-547.23 172.46,-513.4 220.67,-491.81"/>
<polygon fill="none" stroke="#63b8ff" points="220.8,-491.76 224.71,-485.7 231.81,-486.99 227.89,-493.04 220.8,-491.76"/>
</a>
</g>
<text text-anchor="middle" x="148" y="-616.5" font-family="Helvetica,sans-Serif" font-size="10.00" fill="grey"> #mpOutputFileHandler</text>
</g>
<!-- Node4 -->
<g id="Node000004" class="node">
<title>Node4</title>
<g id="a_Node000004"><a xlink:title=" ">
<polygon fill="white" stroke="transparent" points="51,-995 13,-995 13,-946 51,-946 51,-995"/>
<text text-anchor="start" x="18" y="-982.5" font-family="Helvetica,sans-Serif" font-size="10.00">string</text>
<text text-anchor="start" x="30" y="-967.5" font-family="Helvetica,sans-Serif" font-size="10.00"> </text>
<text text-anchor="start" x="30" y="-952.5" font-family="Helvetica,sans-Serif" font-size="10.00"> </text>
<polygon fill="#bfbfbf" stroke="#bfbfbf" points="13,-977.5 13,-977.5 51,-977.5 51,-977.5 13,-977.5"/>
<polygon fill="#bfbfbf" stroke="#bfbfbf" points="13,-962.5 13,-962.5 51,-962.5 51,-962.5 13,-962.5"/>
<polygon fill="none" stroke="#bfbfbf" points="13,-946 13,-995 51,-995 51,-946 13,-946"/>
</a>
</g>
</g>
<!-- Node4&#45;&gt;Node3 -->
<g id="edge3_Node000003_Node000004" class="edge">
<title>Node4&#45;&gt;Node3</title>
<g id="a_edge3_Node000003_Node000004"><a xlink:title=" ">
<path fill="none" stroke="#63b8ff" d="M30.61,-945.77C30.56,-936.69 31.08,-926.29 33,-917 33.42,-914.97 33.87,-912.93 34.34,-910.88"/>
<polygon fill="none" stroke="#63b8ff" points="34.38,-910.74 31.99,-903.94 37.35,-899.12 39.74,-905.92 34.38,-910.74"/>
</a>
</g>
<text text-anchor="middle" x="77" y="-920" font-family="Helvetica,sans-Serif" font-size="10.00" fill="grey"> +SIG_FILE_NAME</text>
</g>
<!-- Node5 -->
<g id="Node000005" class="node">
<title>Node5</title>
<g id="a_Node000005"><a xlink:title=" ">
<polygon fill="white" stroke="transparent" points="200,-995 162,-995 162,-946 200,-946 200,-995"/>
<text text-anchor="start" x="167" y="-982.5" font-family="Helvetica,sans-Serif" font-size="10.00">string</text>
<text text-anchor="start" x="179" y="-967.5" font-family="Helvetica,sans-Serif" font-size="10.00"> </text>
<text text-anchor="start" x="179" y="-952.5" font-family="Helvetica,sans-Serif" font-size="10.00"> </text>
<polygon fill="#bfbfbf" stroke="#bfbfbf" points="162,-977.5 162,-977.5 200,-977.5 200,-977.5 162,-977.5"/>
<polygon fill="#bfbfbf" stroke="#bfbfbf" points="162,-962.5 162,-962.5 200,-962.5 200,-962.5 162,-962.5"/>
<polygon fill="none" stroke="#bfbfbf" points="162,-946 162,-995 200,-995 200,-946 162,-946"/>
</a>
</g>
</g>
<!-- Node5&#45;&gt;Node2 -->
<g id="edge5_Node000002_Node000005" class="edge">
<title>Node5&#45;&gt;Node2</title>
<g id="a_edge5_Node000002_Node000005"><a xlink:title=" ">
<path fill="none" stroke="#63b8ff" d="M197.77,-945.82C201.02,-940.21 204.03,-934.08 206,-928 243.03,-813.87 199.71,-775.36 229,-659 234.72,-636.29 242.74,-612.85 251.6,-590.4"/>
<polygon fill="none" stroke="#63b8ff" points="251.67,-590.23 250.21,-583.17 256.16,-579.11 257.63,-586.17 251.67,-590.23"/>
</a>
</g>
<text text-anchor="middle" x="266.5" y="-776.5" font-family="Helvetica,sans-Serif" font-size="10.00" fill="grey"> #mBaseName</text>
</g>
<!-- Node5&#45;&gt;Node3 -->
<g id="edge4_Node000003_Node000005" class="edge">
<title>Node5&#45;&gt;Node3</title>
<g id="a_edge4_Node000003_Node000005"><a xlink:title=" ">
<path fill="none" stroke="#63b8ff" d="M161.69,-950.85C155.45,-944.08 148.88,-936.1 144,-928 140.55,-922.28 137.26,-916.3 134.13,-910.17"/>
<polygon fill="none" stroke="#63b8ff" points="133.94,-909.78 127.71,-906.15 128.67,-899 134.9,-902.63 133.94,-909.78"/>
</a>
</g>
<text text-anchor="middle" x="175" y="-920" font-family="Helvetica,sans-Serif" font-size="10.00" fill="grey"> &#45;mDirectory</text>
</g>
<!-- Node6 -->
<g id="Node000006" class="node">
<title>Node6</title>
<g id="a_Node000006"><a xlink:title=" ">
<polygon fill="white" stroke="transparent" points="442.5,-814.5 313.5,-814.5 313.5,-743.5 442.5,-743.5 442.5,-814.5"/>
<text text-anchor="start" x="319" y="-802" font-family="Helvetica,sans-Serif" font-size="10.00">AbstractMeshReader</text>
<text text-anchor="start" x="319" y="-791" font-family="Helvetica,sans-Serif" font-size="10.00">&lt; ELEMENT_DIM, SPACE</text>
<text text-anchor="start" x="356" y="-780" font-family="Helvetica,sans-Serif" font-size="10.00">_DIM &gt; *</text>
<text text-anchor="start" x="376.5" y="-765" font-family="Helvetica,sans-Serif" font-size="10.00"> </text>
<text text-anchor="start" x="376.5" y="-750" font-family="Helvetica,sans-Serif" font-size="10.00"> </text>
<polygon fill="#bfbfbf" stroke="#bfbfbf" points="314,-775 314,-775 443,-775 443,-775 314,-775"/>
<polygon fill="#bfbfbf" stroke="#bfbfbf" points="314,-760 314,-760 443,-760 443,-760 314,-760"/>
<polygon fill="none" stroke="#bfbfbf" points="313.5,-743.5 313.5,-814.5 442.5,-814.5 442.5,-743.5 313.5,-743.5"/>
</a>
</g>
</g>
<!-- Node6&#45;&gt;Node2 -->
<g id="edge6_Node000002_Node000006" class="edge">
<title>Node6&#45;&gt;Node2</title>
<g id="a_edge6_Node000002_Node000006"><a xlink:title=" ">
<path fill="none" stroke="#63b8ff" d="M357.39,-743.37C342.64,-716.48 324.03,-677.73 316,-641 312.52,-625.07 310.4,-608.15 309.25,-591.31"/>
<polygon fill="none" stroke="#63b8ff" points="309.24,-591.06 304.91,-585.29 308.57,-579.08 312.9,-584.85 309.24,-591.06"/>
</a>
</g>
<text text-anchor="middle" x="360" y="-616.5" font-family="Helvetica,sans-Serif" font-size="10.00" fill="grey"> #mpMeshReader</text>
</g>
<!-- Node7 -->
<g id="Node000007" class="node">
<title>Node7</title>
<g id="a_Node000007"><a xlink:href="classunsigned.html" target="_top" xlink:title=" ">
<polygon fill="white" stroke="transparent" points="591.5,-803.5 536.5,-803.5 536.5,-754.5 591.5,-754.5 591.5,-803.5"/>
<text text-anchor="start" x="542" y="-791" font-family="Helvetica,sans-Serif" font-size="10.00">unsigned</text>
<text text-anchor="start" x="562.5" y="-776" font-family="Helvetica,sans-Serif" font-size="10.00"> </text>
<text text-anchor="start" x="562.5" y="-761" font-family="Helvetica,sans-Serif" font-size="10.00"> </text>
<polygon fill="#bfbfbf" stroke="#bfbfbf" points="537,-786 537,-786 592,-786 592,-786 537,-786"/>
<polygon fill="#bfbfbf" stroke="#bfbfbf" points="537,-771 537,-771 592,-771 592,-771 537,-771"/>
<polygon fill="none" stroke="#bfbfbf" points="536.5,-754.5 536.5,-803.5 591.5,-803.5 591.5,-754.5 536.5,-754.5"/>
</a>
</g>
</g>
<!-- Node7&#45;&gt;Node1 -->
<g id="edge11_Node000001_Node000007" class="edge">
<title>Node7&#45;&gt;Node1</title>
<g id="a_edge11_Node000001_Node000007"><a xlink:title=" ">
<path fill="none" stroke="#63b8ff" d="M563.82,-754.42C563.35,-668.21 563.49,-373.37 587,-339 660.49,-231.54 809.24,-183.36 910.02,-162.36"/>
<polygon fill="none" stroke="#63b8ff" points="910.3,-162.31 915.39,-157.2 922.07,-159.94 916.97,-165.04 910.3,-162.31"/>
</a>
</g>
<text text-anchor="start" x="587" y="-495" font-family="Helvetica,sans-Serif" font-size="10.00" fill="grey"> #mBoundaryElementCounter</text>
<text text-anchor="middle" x="675" y="-484" font-family="Helvetica,sans-Serif" font-size="10.00" fill="grey">ForParallelMesh</text>
<text text-anchor="start" x="587" y="-473" font-family="Helvetica,sans-Serif" font-size="10.00" fill="grey">#mCableElementCounterForParallel</text>
<text text-anchor="middle" x="675" y="-462" font-family="Helvetica,sans-Serif" font-size="10.00" fill="grey">Mesh</text>
<text text-anchor="middle" x="675" y="-451" font-family="Helvetica,sans-Serif" font-size="10.00" fill="grey">#mElementCounterForParallelMesh</text>
<text text-anchor="middle" x="675" y="-440" font-family="Helvetica,sans-Serif" font-size="10.00" fill="grey">#mNodeCounterForParallelMesh</text>
<text text-anchor="middle" x="675" y="-429" font-family="Helvetica,sans-Serif" font-size="10.00" fill="grey">#mNodesPerBoundaryElement</text>
<text text-anchor="middle" x="675" y="-418" font-family="Helvetica,sans-Serif" font-size="10.00" fill="grey">#mNodesPerElement</text>
</g>
<!-- Node7&#45;&gt;Node2 -->
<g id="edge7_Node000002_Node000007" class="edge">
<title>Node7&#45;&gt;Node2</title>
<g id="a_edge7_Node000002_Node000007"><a xlink:title=" ">
<path fill="none" stroke="#63b8ff" d="M543.43,-754.06C521.57,-729.19 485.47,-689.69 451,-659 441.04,-650.13 435.64,-651.16 427,-641 412.71,-624.19 415.13,-616.05 404,-597 402.55,-594.52 401.08,-592.02 399.58,-589.51"/>
<polygon fill="none" stroke="#63b8ff" points="399.52,-589.42 393,-586.34 393.34,-579.13 399.86,-582.21 399.52,-589.42"/>
</a>
</g>
<text text-anchor="middle" x="495.5" y="-633" font-family="Helvetica,sans-Serif" font-size="10.00" fill="grey"> #mNumBoundaryElements</text>
<text text-anchor="middle" x="495.5" y="-622" font-family="Helvetica,sans-Serif" font-size="10.00" fill="grey">#mNumCableElements</text>
<text text-anchor="middle" x="495.5" y="-611" font-family="Helvetica,sans-Serif" font-size="10.00" fill="grey">#mNumElements</text>
<text text-anchor="middle" x="495.5" y="-600" font-family="Helvetica,sans-Serif" font-size="10.00" fill="grey">#mNumNodes</text>
</g>
<!-- Node8 -->
<g id="Node000008" class="node">
<title>Node8</title>
<g id="a_Node000008"><a xlink:href="classNodeMap.html" target="_top" xlink:title=" ">
<polygon fill="white" stroke="transparent" points="877.5,-543.5 772.5,-543.5 772.5,-374.5 877.5,-374.5 877.5,-543.5"/>
<text text-anchor="start" x="802" y="-531" font-family="Helvetica,sans-Serif" font-size="10.00">NodeMap</text>
<text text-anchor="start" x="823.5" y="-516" font-family="Helvetica,sans-Serif" font-size="10.00"> </text>
<text text-anchor="start" x="777" y="-501" font-family="Helvetica,sans-Serif" font-size="10.00">+</text>
<text text-anchor="start" x="790" y="-501" font-family="Helvetica,sans-Serif" font-size="10.00">NodeMap()</text>
<text text-anchor="start" x="777" y="-486" font-family="Helvetica,sans-Serif" font-size="10.00">+</text>
<text text-anchor="start" x="790" y="-486" font-family="Helvetica,sans-Serif" font-size="10.00">Resize()</text>
<text text-anchor="start" x="777" y="-471" font-family="Helvetica,sans-Serif" font-size="10.00">+</text>
<text text-anchor="start" x="790" y="-471" font-family="Helvetica,sans-Serif" font-size="10.00">ResetToIdentity()</text>
<text text-anchor="start" x="777" y="-456" font-family="Helvetica,sans-Serif" font-size="10.00">+</text>
<text text-anchor="start" x="790" y="-456" font-family="Helvetica,sans-Serif" font-size="10.00">SetNewIndex()</text>
<text text-anchor="start" x="777" y="-441" font-family="Helvetica,sans-Serif" font-size="10.00">+</text>
<text text-anchor="start" x="790" y="-441" font-family="Helvetica,sans-Serif" font-size="10.00">SetDeleted()</text>
<text text-anchor="start" x="777" y="-426" font-family="Helvetica,sans-Serif" font-size="10.00">+</text>
<text text-anchor="start" x="790" y="-426" font-family="Helvetica,sans-Serif" font-size="10.00">IsDeleted()</text>
<text text-anchor="start" x="777" y="-411" font-family="Helvetica,sans-Serif" font-size="10.00">+</text>
<text text-anchor="start" x="790" y="-411" font-family="Helvetica,sans-Serif" font-size="10.00">GetNewIndex()</text>
<text text-anchor="start" x="777" y="-396" font-family="Helvetica,sans-Serif" font-size="10.00">+</text>
<text text-anchor="start" x="790" y="-396" font-family="Helvetica,sans-Serif" font-size="10.00">IsIdentityMap()</text>
<text text-anchor="start" x="777" y="-381" font-family="Helvetica,sans-Serif" font-size="10.00">+</text>
<text text-anchor="start" x="790" y="-381" font-family="Helvetica,sans-Serif" font-size="10.00">GetSize()</text>
<polygon fill="#666666" stroke="#666666" points="773,-526 773,-526 878,-526 878,-526 773,-526"/>
<polygon fill="#666666" stroke="#666666" points="773,-511 773,-511 878,-511 878,-511 773,-511"/>
<polygon fill="none" stroke="#666666" points="772.5,-374.5 772.5,-543.5 877.5,-543.5 877.5,-374.5 772.5,-374.5"/>
</a>
</g>
</g>
<!-- Node8&#45;&gt;Node1 -->
<g id="edge8_Node000001_Node000008" class="edge">
<title>Node8&#45;&gt;Node1</title>
<g id="a_edge8_Node000001_Node000008"><a xlink:title=" ">
<path fill="none" stroke="#63b8ff" d="M816.31,-374.21C817.1,-352.48 820.78,-329.67 830,-310 848.17,-271.26 880.3,-237.8 912.63,-211.45"/>
<polygon fill="none" stroke="#63b8ff" points="912.8,-211.32 915.01,-204.46 922.19,-203.86 919.98,-210.72 912.8,-211.32"/>
</a>
</g>
<text text-anchor="middle" x="865" y="-313" font-family="Helvetica,sans-Serif" font-size="10.00" fill="grey"> &#45;mpNodeMap</text>
</g>
<!-- Node9 -->
<g id="Node000009" class="node">
<title>Node9</title>
<g id="a_Node000009"><a xlink:title=" ">
<polygon fill="white" stroke="transparent" points="829,-803.5 721,-803.5 721,-754.5 829,-754.5 829,-803.5"/>
<text text-anchor="start" x="726" y="-791" font-family="Helvetica,sans-Serif" font-size="10.00">vector&lt; unsigned &gt;</text>
<text text-anchor="start" x="773" y="-776" font-family="Helvetica,sans-Serif" font-size="10.00"> </text>
<text text-anchor="start" x="773" y="-761" font-family="Helvetica,sans-Serif" font-size="10.00"> </text>
<polygon fill="#bfbfbf" stroke="#bfbfbf" points="721,-786 721,-786 829,-786 829,-786 721,-786"/>
<polygon fill="#bfbfbf" stroke="#bfbfbf" points="721,-771 721,-771 829,-771 829,-771 721,-771"/>
<polygon fill="none" stroke="#bfbfbf" points="721,-754.5 721,-803.5 829,-803.5 829,-754.5 721,-754.5"/>
</a>
</g>
</g>
<!-- Node9&#45;&gt;Node8 -->
<g id="edge9_Node000008_Node000009" class="edge">
<title>Node9&#45;&gt;Node8</title>
<g id="a_edge9_Node000008_Node000009"><a xlink:title=" ">
<path fill="none" stroke="#63b8ff" d="M772.62,-754.34C769.67,-719.56 766.18,-652.7 776,-597 778.43,-583.2 782.11,-568.95 786.38,-555.09"/>
<polygon fill="none" stroke="#63b8ff" points="786.42,-554.98 784.45,-548.05 790.09,-543.56 792.06,-550.5 786.42,-554.98"/>
</a>
</g>
<text text-anchor="middle" x="795" y="-616.5" font-family="Helvetica,sans-Serif" font-size="10.00" fill="grey"> &#45;mMap</text>
</g>
<!-- Node10 -->
<g id="Node000010" class="node">
<title>Node10</title>
<g id="a_Node000010"><a xlink:href="classbool.html" target="_top" xlink:title=" ">
<polygon fill="white" stroke="transparent" points="904,-803.5 872,-803.5 872,-754.5 904,-754.5 904,-803.5"/>
<text text-anchor="start" x="877" y="-791" font-family="Helvetica,sans-Serif" font-size="10.00">bool</text>
<text text-anchor="start" x="886" y="-776" font-family="Helvetica,sans-Serif" font-size="10.00"> </text>
<text text-anchor="start" x="886" y="-761" font-family="Helvetica,sans-Serif" font-size="10.00"> </text>
<polygon fill="#bfbfbf" stroke="#bfbfbf" points="872,-786 872,-786 904,-786 904,-786 872,-786"/>
<polygon fill="#bfbfbf" stroke="#bfbfbf" points="872,-771 872,-771 904,-771 904,-771 872,-771"/>
<polygon fill="none" stroke="#bfbfbf" points="872,-754.5 872,-803.5 904,-803.5 904,-754.5 872,-754.5"/>
</a>
</g>
</g>
<!-- Node10&#45;&gt;Node1 -->
<g id="edge16_Node000001_Node000010" class="edge">
<title>Node10&#45;&gt;Node1</title>
<g id="a_edge16_Node000001_Node000010"><a xlink:title=" ">
<path fill="none" stroke="#63b8ff" d="M890.16,-754.25C892.63,-726.93 896.75,-680.74 900,-641 910.98,-506.84 888.76,-469.18 923,-339 926.09,-327.26 929.87,-315.37 934.12,-303.54"/>
<polygon fill="none" stroke="#63b8ff" points="934.14,-303.48 932.49,-296.47 938.33,-292.24 939.99,-299.26 934.14,-303.48"/>
</a>
</g>
<text text-anchor="middle" x="969.5" y="-467.5" font-family="Helvetica,sans-Serif" font-size="10.00" fill="grey"> #mFilesAreBinary</text>
<text text-anchor="middle" x="969.5" y="-456.5" font-family="Helvetica,sans-Serif" font-size="10.00" fill="grey">#mIndexFromZero</text>
<text text-anchor="middle" x="969.5" y="-445.5" font-family="Helvetica,sans-Serif" font-size="10.00" fill="grey">#mWriteMetaFile</text>
</g>
<!-- Node10&#45;&gt;Node8 -->
<g id="edge10_Node000008_Node000010" class="edge">
<title>Node10&#45;&gt;Node8</title>
<g id="a_edge10_Node000008_Node000010"><a xlink:title=" ">
<path fill="none" stroke="#63b8ff" d="M876.8,-754.38C864.66,-727.57 845.84,-682.19 837,-641 831.13,-613.64 827.89,-583.47 826.16,-555.73"/>
<polygon fill="none" stroke="#63b8ff" points="826.15,-555.58 821.83,-549.81 825.49,-543.6 829.82,-549.37 826.15,-555.58"/>
</a>
</g>
<text text-anchor="middle" x="868.5" y="-616.5" font-family="Helvetica,sans-Serif" font-size="10.00" fill="grey"> &#45;mIsIdentity</text>
</g>
<!-- Node11 -->
<g id="Node000011" class="node">
<title>Node11</title>
<g id="a_Node000011"><a xlink:title=" ">
<polygon fill="white" stroke="transparent" points="1198.5,-489 1025.5,-489 1025.5,-429 1198.5,-429 1198.5,-489"/>
<text text-anchor="start" x="1031" y="-477" font-family="Helvetica,sans-Serif" font-size="10.00">AbstractTetrahedralMesh</text>
<text text-anchor="start" x="1031" y="-466" font-family="Helvetica,sans-Serif" font-size="10.00">&lt; ELEMENT_DIM, SPACE_DIM &gt; *</text>
<text text-anchor="start" x="1110.5" y="-451" font-family="Helvetica,sans-Serif" font-size="10.00"> </text>
<text text-anchor="start" x="1110.5" y="-436" font-family="Helvetica,sans-Serif" font-size="10.00"> </text>
<polygon fill="#bfbfbf" stroke="#bfbfbf" points="1026,-461 1026,-461 1199,-461 1199,-461 1026,-461"/>
<polygon fill="#bfbfbf" stroke="#bfbfbf" points="1026,-446 1026,-446 1199,-446 1199,-446 1026,-446"/>
<polygon fill="none" stroke="#bfbfbf" points="1025.5,-429 1025.5,-489 1198.5,-489 1198.5,-429 1025.5,-429"/>
</a>
</g>
</g>
<!-- Node11&#45;&gt;Node1 -->
<g id="edge12_Node000001_Node000011" class="edge">
<title>Node11&#45;&gt;Node1</title>
<g id="a_edge12_Node000001_Node000011"><a xlink:title=" ">
<path fill="none" stroke="#63b8ff" d="M1102.69,-428.74C1093.33,-399.34 1078.15,-351.65 1062.91,-303.79"/>
<polygon fill="none" stroke="#63b8ff" points="1062.89,-303.72 1057.26,-299.22 1059.25,-292.29 1064.88,-296.79 1062.89,-303.72"/>
</a>
</g>
<text text-anchor="middle" x="1093" y="-313" font-family="Helvetica,sans-Serif" font-size="10.00" fill="grey"> #mpMesh</text>
</g>
<!-- Node12 -->
<g id="Node000012" class="node">
<title>Node12</title>
<g id="a_Node000012"><a xlink:title=" ">
<polygon fill="white" stroke="transparent" points="1389.5,-489 1216.5,-489 1216.5,-429 1389.5,-429 1389.5,-489"/>
<text text-anchor="start" x="1222" y="-477" font-family="Helvetica,sans-Serif" font-size="10.00">DistributedTetrahedralMesh</text>
<text text-anchor="start" x="1222" y="-466" font-family="Helvetica,sans-Serif" font-size="10.00">&lt; ELEMENT_DIM, SPACE_DIM &gt; *</text>
<text text-anchor="start" x="1301.5" y="-451" font-family="Helvetica,sans-Serif" font-size="10.00"> </text>
<text text-anchor="start" x="1301.5" y="-436" font-family="Helvetica,sans-Serif" font-size="10.00"> </text>
<polygon fill="#bfbfbf" stroke="#bfbfbf" points="1217,-461 1217,-461 1390,-461 1390,-461 1217,-461"/>
<polygon fill="#bfbfbf" stroke="#bfbfbf" points="1217,-446 1217,-446 1390,-446 1390,-446 1217,-446"/>
<polygon fill="none" stroke="#bfbfbf" points="1216.5,-429 1216.5,-489 1389.5,-489 1389.5,-429 1216.5,-429"/>
</a>
</g>
</g>
<!-- Node12&#45;&gt;Node1 -->
<g id="edge13_Node000001_Node000012" class="edge">
<title>Node12&#45;&gt;Node1</title>
<g id="a_edge13_Node000001_Node000012"><a xlink:title=" ">
<path fill="none" stroke="#63b8ff" d="M1281.28,-428.84C1262.6,-404.25 1234.54,-368.46 1208,-339 1178.06,-305.77 1143.76,-271.01 1112.37,-240.35"/>
<polygon fill="none" stroke="#63b8ff" points="1112.2,-240.18 1105.11,-238.86 1103.6,-231.81 1110.69,-233.13 1112.2,-240.18"/>
</a>
</g>
<text text-anchor="middle" x="1241" y="-313" font-family="Helvetica,sans-Serif" font-size="10.00" fill="grey"> #mpDistributedMesh</text>
</g>
<!-- Node13 -->
<g id="Node000013" class="node">
<title>Node13</title>
<g id="a_Node000013"><a xlink:title=" ">
<polygon fill="white" stroke="transparent" points="1536.5,-494.5 1407.5,-494.5 1407.5,-423.5 1536.5,-423.5 1536.5,-494.5"/>
<text text-anchor="start" x="1413" y="-482" font-family="Helvetica,sans-Serif" font-size="10.00">MixedDimensionMesh</text>
<text text-anchor="start" x="1413" y="-471" font-family="Helvetica,sans-Serif" font-size="10.00">&lt; ELEMENT_DIM, SPACE</text>
<text text-anchor="start" x="1450" y="-460" font-family="Helvetica,sans-Serif" font-size="10.00">_DIM &gt; *</text>
<text text-anchor="start" x="1470.5" y="-445" font-family="Helvetica,sans-Serif" font-size="10.00"> </text>
<text text-anchor="start" x="1470.5" y="-430" font-family="Helvetica,sans-Serif" font-size="10.00"> </text>
<polygon fill="#bfbfbf" stroke="#bfbfbf" points="1408,-455 1408,-455 1537,-455 1537,-455 1408,-455"/>
<polygon fill="#bfbfbf" stroke="#bfbfbf" points="1408,-440 1408,-440 1537,-440 1537,-440 1408,-440"/>
<polygon fill="none" stroke="#bfbfbf" points="1407.5,-423.5 1407.5,-494.5 1536.5,-494.5 1536.5,-423.5 1407.5,-423.5"/>
</a>
</g>
</g>
<!-- Node13&#45;&gt;Node1 -->
<g id="edge14_Node000001_Node000013" class="edge">
<title>Node13&#45;&gt;Node1</title>
<g id="a_edge14_Node000001_Node000013"><a xlink:title=" ">
<path fill="none" stroke="#63b8ff" d="M1457.22,-423.4C1444.77,-397.51 1424.84,-362.64 1399,-339 1316.51,-263.52 1198.86,-210.75 1115.16,-179.89"/>
<polygon fill="none" stroke="#63b8ff" points="1115.12,-179.88 1108.12,-181.59 1103.85,-175.78 1110.85,-174.07 1115.12,-179.88"/>
</a>
</g>
<text text-anchor="middle" x="1413.5" y="-313" font-family="Helvetica,sans-Serif" font-size="10.00" fill="grey"> #mpMixedMesh</text>
</g>
<!-- Node14 -->
<g id="Node000014" class="node">
<title>Node14</title>
<g id="a_Node000014"><a xlink:title=" ">
<polygon fill="white" stroke="transparent" points="1683.5,-494.5 1554.5,-494.5 1554.5,-423.5 1683.5,-423.5 1683.5,-494.5"/>
<text text-anchor="start" x="1560" y="-482" font-family="Helvetica,sans-Serif" font-size="10.00">MeshWriterIterators</text>
<text text-anchor="start" x="1560" y="-471" font-family="Helvetica,sans-Serif" font-size="10.00">&lt; ELEMENT_DIM, SPACE</text>
<text text-anchor="start" x="1597" y="-460" font-family="Helvetica,sans-Serif" font-size="10.00">_DIM &gt; *</text>
<text text-anchor="start" x="1617.5" y="-445" font-family="Helvetica,sans-Serif" font-size="10.00"> </text>
<text text-anchor="start" x="1617.5" y="-430" font-family="Helvetica,sans-Serif" font-size="10.00"> </text>
<polygon fill="#bfbfbf" stroke="#bfbfbf" points="1555,-455 1555,-455 1684,-455 1684,-455 1555,-455"/>
<polygon fill="#bfbfbf" stroke="#bfbfbf" points="1555,-440 1555,-440 1684,-440 1684,-440 1555,-440"/>
<polygon fill="none" stroke="#bfbfbf" points="1554.5,-423.5 1554.5,-494.5 1683.5,-494.5 1683.5,-423.5 1554.5,-423.5"/>
</a>
</g>
</g>
<!-- Node14&#45;&gt;Node1 -->
<g id="edge15_Node000001_Node000014" class="edge">
<title>Node14&#45;&gt;Node1</title>
<g id="a_edge15_Node000001_Node000014"><a xlink:title=" ">
<path fill="none" stroke="#63b8ff" d="M1605.35,-423.34C1593.33,-396.9 1573.45,-361.34 1546,-339 1418.73,-235.41 1230.95,-185.29 1115.6,-162.95"/>
<polygon fill="none" stroke="#63b8ff" points="1115.42,-162.92 1108.78,-165.73 1103.63,-160.68 1110.27,-157.87 1115.42,-162.92"/>
</a>
</g>
<text text-anchor="middle" x="1545.5" y="-313" font-family="Helvetica,sans-Serif" font-size="10.00" fill="grey"> #mpIters</text>
</g>
</g>
</svg>
