<?xml version="1.0" encoding="UTF-8" standalone="no"?>
<!DOCTYPE svg PUBLIC "-//W3C//DTD SVG 1.1//EN"
 "http://www.w3.org/Graphics/SVG/1.1/DTD/svg11.dtd">
<!-- Generated by graphviz version 2.43.0 (0)
 -->
<!-- Title: ColumnDataWriter Pages: 1 -->
<svg width="1613pt" height="764pt"
 viewBox="0.00 0.00 1612.50 764.00" xmlns="http://www.w3.org/2000/svg" xmlns:xlink="http://www.w3.org/1999/xlink">
<g id="graph0" class="graph" transform="scale(1 1) rotate(0) translate(4 760)">
<title>ColumnDataWriter</title>
<!-- Node1 -->
<g id="Node000001" class="node">
<title>Node1</title>
<g id="a_Node000001"><a xlink:title=" ">
<polygon fill="#999999" stroke="transparent" points="934,-274 721,-274 721,0 934,0 934,-274"/>
<text text-anchor="start" x="782.5" y="-262" font-family="Helvetica,sans-Serif" font-size="10.00">ColumnDataWriter</text>
<text text-anchor="start" x="826" y="-247" font-family="Helvetica,sans-Serif" font-size="10.00"> </text>
<text text-anchor="start" x="725.5" y="-232" font-family="Helvetica,sans-Serif" font-size="10.00">+</text>
<text text-anchor="start" x="738.5" y="-232" font-family="Helvetica,sans-Serif" font-size="10.00">ColumnDataWriter()</text>
<text text-anchor="start" x="725.5" y="-217" font-family="Helvetica,sans-Serif" font-size="10.00">+</text>
<text text-anchor="start" x="738.5" y="-217" font-family="Helvetica,sans-Serif" font-size="10.00">~ColumnDataWriter()</text>
<text text-anchor="start" x="725.5" y="-202" font-family="Helvetica,sans-Serif" font-size="10.00">+</text>
<text text-anchor="start" x="738.5" y="-202" font-family="Helvetica,sans-Serif" font-size="10.00">DefineUnlimitedDimension()</text>
<text text-anchor="start" x="725.5" y="-187" font-family="Helvetica,sans-Serif" font-size="10.00">+</text>
<text text-anchor="start" x="738.5" y="-187" font-family="Helvetica,sans-Serif" font-size="10.00">DefineFixedDimension()</text>
<text text-anchor="start" x="725.5" y="-172" font-family="Helvetica,sans-Serif" font-size="10.00">+</text>
<text text-anchor="start" x="738.5" y="-172" font-family="Helvetica,sans-Serif" font-size="10.00">DefineVariable()</text>
<text text-anchor="start" x="725.5" y="-157" font-family="Helvetica,sans-Serif" font-size="10.00">+</text>
<text text-anchor="start" x="738.5" y="-157" font-family="Helvetica,sans-Serif" font-size="10.00">SetCommentForInfoFile()</text>
<text text-anchor="start" x="725.5" y="-142" font-family="Helvetica,sans-Serif" font-size="10.00">+</text>
<text text-anchor="start" x="738.5" y="-142" font-family="Helvetica,sans-Serif" font-size="10.00">EndDefineMode()</text>
<text text-anchor="start" x="725.5" y="-127" font-family="Helvetica,sans-Serif" font-size="10.00">+</text>
<text text-anchor="start" x="738.5" y="-127" font-family="Helvetica,sans-Serif" font-size="10.00">AdvanceAlongUnlimitedDimension()</text>
<text text-anchor="start" x="725.5" y="-112" font-family="Helvetica,sans-Serif" font-size="10.00">+</text>
<text text-anchor="start" x="738.5" y="-112" font-family="Helvetica,sans-Serif" font-size="10.00">PutVariable()</text>
<text text-anchor="start" x="725.5" y="-97" font-family="Helvetica,sans-Serif" font-size="10.00">+</text>
<text text-anchor="start" x="738.5" y="-97" font-family="Helvetica,sans-Serif" font-size="10.00">Close()</text>
<text text-anchor="start" x="725.5" y="-82" font-family="Helvetica,sans-Serif" font-size="10.00">+</text>
<text text-anchor="start" x="738.5" y="-82" font-family="Helvetica,sans-Serif" font-size="10.00">GetOutputDirectory()</text>
<text text-anchor="start" x="725.5" y="-67" font-family="Helvetica,sans-Serif" font-size="10.00">#</text>
<text text-anchor="start" x="738.5" y="-67" font-family="Helvetica,sans-Serif" font-size="10.00">CreateFixedDimensionFile()</text>
<text text-anchor="start" x="725.5" y="-52" font-family="Helvetica,sans-Serif" font-size="10.00">#</text>
<text text-anchor="start" x="738.5" y="-52" font-family="Helvetica,sans-Serif" font-size="10.00">CreateInfoFile()</text>
<text text-anchor="start" x="725.5" y="-37" font-family="Helvetica,sans-Serif" font-size="10.00">#</text>
<text text-anchor="start" x="738.5" y="-37" font-family="Helvetica,sans-Serif" font-size="10.00">CheckVariableName()</text>
<text text-anchor="start" x="725.5" y="-22" font-family="Helvetica,sans-Serif" font-size="10.00">#</text>
<text text-anchor="start" x="738.5" y="-22" font-family="Helvetica,sans-Serif" font-size="10.00">CheckUnitsName()</text>
<text text-anchor="start" x="725.5" y="-7" font-family="Helvetica,sans-Serif" font-size="10.00">#</text>
<text text-anchor="start" x="738.5" y="-7" font-family="Helvetica,sans-Serif" font-size="10.00">DoAdvanceAlongUnlimitedDimension()</text>
<polygon fill="#666666" stroke="#666666" points="721.5,-257 721.5,-257 934.5,-257 934.5,-257 721.5,-257"/>
<polygon fill="#666666" stroke="#666666" points="721.5,-242 721.5,-242 934.5,-242 934.5,-242 721.5,-242"/>
<polygon fill="none" stroke="#666666" points="721,0 721,-274 934,-274 934,0 721,0"/>
</a>
</g>
</g>
<!-- Node2 -->
<g id="Node000002" class="node">
<title>Node2</title>
<g id="a_Node000002"><a xlink:href="classAbstractDataWriter.html" target="_top" xlink:title=" ">
<polygon fill="white" stroke="transparent" points="199,-606 0,-606 0,-452 199,-452 199,-606"/>
<text text-anchor="start" x="53" y="-594" font-family="Helvetica,sans-Serif" font-size="10.00">AbstractDataWriter</text>
<text text-anchor="start" x="98" y="-579" font-family="Helvetica,sans-Serif" font-size="10.00"> </text>
<text text-anchor="start" x="4.5" y="-564" font-family="Helvetica,sans-Serif" font-size="10.00">+</text>
<text text-anchor="start" x="17.5" y="-564" font-family="Helvetica,sans-Serif" font-size="10.00">DefineFixedDimension()</text>
<text text-anchor="start" x="4.5" y="-549" font-family="Helvetica,sans-Serif" font-size="10.00">+</text>
<text text-anchor="start" x="17.5" y="-549" font-family="Helvetica,sans-Serif" font-size="10.00">DefineUnlimitedDimension()</text>
<text text-anchor="start" x="4.5" y="-534" font-family="Helvetica,sans-Serif" font-size="10.00">+</text>
<text text-anchor="start" x="17.5" y="-534" font-family="Helvetica,sans-Serif" font-size="10.00">DefineVariable()</text>
<text text-anchor="start" x="4.5" y="-519" font-family="Helvetica,sans-Serif" font-size="10.00">+</text>
<text text-anchor="start" x="17.5" y="-519" font-family="Helvetica,sans-Serif" font-size="10.00">EndDefineMode()</text>
<text text-anchor="start" x="4.5" y="-504" font-family="Helvetica,sans-Serif" font-size="10.00">+</text>
<text text-anchor="start" x="17.5" y="-504" font-family="Helvetica,sans-Serif" font-size="10.00">AdvanceAlongUnlimitedDimension()</text>
<text text-anchor="start" x="4.5" y="-489" font-family="Helvetica,sans-Serif" font-size="10.00">+</text>
<text text-anchor="start" x="17.5" y="-489" font-family="Helvetica,sans-Serif" font-size="10.00">PutVariable()</text>
<text text-anchor="start" x="4.5" y="-474" font-family="Helvetica,sans-Serif" font-size="10.00">+</text>
<text text-anchor="start" x="17.5" y="-474" font-family="Helvetica,sans-Serif" font-size="10.00">Close()</text>
<text text-anchor="start" x="4.5" y="-459" font-family="Helvetica,sans-Serif" font-size="10.00">+</text>
<text text-anchor="start" x="17.5" y="-459" font-family="Helvetica,sans-Serif" font-size="10.00">~AbstractDataWriter()</text>
<polygon fill="#666666" stroke="#666666" points="0.5,-589 0.5,-589 199.5,-589 199.5,-589 0.5,-589"/>
<polygon fill="#666666" stroke="#666666" points="0.5,-574 0.5,-574 199.5,-574 199.5,-574 0.5,-574"/>
<polygon fill="none" stroke="#666666" points="0,-452 0,-606 199,-606 199,-452 0,-452"/>
</a>
</g>
</g>
<!-- Node2&#45;&gt;Node1 -->
<g id="edge1_Node000001_Node000002" class="edge">
<title>Node2&#45;&gt;Node1</title>
<g id="a_edge1_Node000001_Node000002"><a xlink:title=" ">
<path fill="none" stroke="#63b8ff" d="M143.81,-443.05C174.41,-392.25 219.61,-330.32 275.5,-292 411.51,-198.74 602.8,-161.69 720.77,-147.15"/>
<polygon fill="none" stroke="#63b8ff" points="140.74,-441.36 138.65,-451.75 146.76,-444.94 140.74,-441.36"/>
</a>
</g>
</g>
<!-- Node3 -->
<g id="Node000003" class="node">
<title>Node3</title>
<g id="a_Node000003"><a xlink:href="classOutputFileHandler.html" target="_top" xlink:title=" ">
<polygon fill="white" stroke="transparent" points="395.5,-649 217.5,-649 217.5,-409 395.5,-409 395.5,-649"/>
<text text-anchor="start" x="262" y="-637" font-family="Helvetica,sans-Serif" font-size="10.00">OutputFileHandler</text>
<text text-anchor="start" x="304.5" y="-622" font-family="Helvetica,sans-Serif" font-size="10.00"> </text>
<text text-anchor="start" x="221.5" y="-607" font-family="Helvetica,sans-Serif" font-size="10.00">+</text>
<text text-anchor="start" x="234.5" y="-607" font-family="Helvetica,sans-Serif" font-size="10.00">OutputFileHandler()</text>
<text text-anchor="start" x="221.5" y="-592" font-family="Helvetica,sans-Serif" font-size="10.00">+</text>
<text text-anchor="start" x="234.5" y="-592" font-family="Helvetica,sans-Serif" font-size="10.00">OutputFileHandler()</text>
<text text-anchor="start" x="221.5" y="-577" font-family="Helvetica,sans-Serif" font-size="10.00">+</text>
<text text-anchor="start" x="234.5" y="-577" font-family="Helvetica,sans-Serif" font-size="10.00">GetOutputDirectoryFullPath()</text>
<text text-anchor="start" x="221.5" y="-562" font-family="Helvetica,sans-Serif" font-size="10.00">+</text>
<text text-anchor="start" x="234.5" y="-562" font-family="Helvetica,sans-Serif" font-size="10.00">GetRelativePath()</text>
<text text-anchor="start" x="221.5" y="-547" font-family="Helvetica,sans-Serif" font-size="10.00">+</text>
<text text-anchor="start" x="234.5" y="-547" font-family="Helvetica,sans-Serif" font-size="10.00">SetArchiveDirectory()</text>
<text text-anchor="start" x="221.5" y="-532" font-family="Helvetica,sans-Serif" font-size="10.00">+</text>
<text text-anchor="start" x="234.5" y="-532" font-family="Helvetica,sans-Serif" font-size="10.00">OpenOutputFile()</text>
<text text-anchor="start" x="221.5" y="-517" font-family="Helvetica,sans-Serif" font-size="10.00">+</text>
<text text-anchor="start" x="234.5" y="-517" font-family="Helvetica,sans-Serif" font-size="10.00">OpenOutputFile()</text>
<text text-anchor="start" x="221.5" y="-502" font-family="Helvetica,sans-Serif" font-size="10.00">+</text>
<text text-anchor="start" x="234.5" y="-502" font-family="Helvetica,sans-Serif" font-size="10.00">CopyFileTo()</text>
<text text-anchor="start" x="221.5" y="-487" font-family="Helvetica,sans-Serif" font-size="10.00">+</text>
<text text-anchor="start" x="234.5" y="-487" font-family="Helvetica,sans-Serif" font-size="10.00">FindFile()</text>
<text text-anchor="start" x="221.5" y="-472" font-family="Helvetica,sans-Serif" font-size="10.00">+</text>
<text text-anchor="start" x="234.5" y="-472" font-family="Helvetica,sans-Serif" font-size="10.00">GetChasteTestOutputDirectory()</text>
<text text-anchor="start" x="224" y="-457" font-family="Helvetica,sans-Serif" font-size="10.00">&#45;</text>
<text text-anchor="start" x="234.5" y="-457" font-family="Helvetica,sans-Serif" font-size="10.00">CommonConstructor()</text>
<text text-anchor="start" x="224" y="-442" font-family="Helvetica,sans-Serif" font-size="10.00">&#45;</text>
<text text-anchor="start" x="234.5" y="-442" font-family="Helvetica,sans-Serif" font-size="10.00">MakeFoldersAndReturnFull</text>
<text text-anchor="start" x="234.5" y="-431" font-family="Helvetica,sans-Serif" font-size="10.00">Path()</text>
<text text-anchor="start" x="224" y="-416" font-family="Helvetica,sans-Serif" font-size="10.00">&#45;</text>
<text text-anchor="start" x="234.5" y="-416" font-family="Helvetica,sans-Serif" font-size="10.00">AddTrailingSlash()</text>
<polygon fill="#666666" stroke="#666666" points="217.5,-632 217.5,-632 395.5,-632 395.5,-632 217.5,-632"/>
<polygon fill="#666666" stroke="#666666" points="217.5,-617 217.5,-617 395.5,-617 395.5,-617 217.5,-617"/>
<polygon fill="none" stroke="#666666" points="217.5,-409 217.5,-649 395.5,-649 395.5,-409 217.5,-409"/>
</a>
</g>
</g>
<!-- Node3&#45;&gt;Node1 -->
<g id="edge2_Node000001_Node000003" class="edge">
<title>Node3&#45;&gt;Node1</title>
<g id="a_edge2_Node000001_Node000003"><a xlink:title=" ">
<path fill="none" stroke="#63b8ff" d="M279.79,-408.72C277.36,-368.17 282.85,-324.86 307.5,-292 355.74,-227.69 571.02,-180.65 709.01,-156.46"/>
<polygon fill="none" stroke="#63b8ff" points="709.05,-156.45 714.28,-151.48 720.88,-154.4 715.65,-159.37 709.05,-156.45"/>
</a>
</g>
<text text-anchor="middle" x="362.5" y="-339" font-family="Helvetica,sans-Serif" font-size="10.00" fill="grey"> #mOutputFileHandler</text>
</g>
<!-- Node4 -->
<g id="Node000004" class="node">
<title>Node4</title>
<g id="a_Node000004"><a xlink:title=" ">
<polygon fill="white" stroke="transparent" points="262.5,-756 224.5,-756 224.5,-707 262.5,-707 262.5,-756"/>
<text text-anchor="start" x="229.5" y="-743.5" font-family="Helvetica,sans-Serif" font-size="10.00">string</text>
<text text-anchor="start" x="241.5" y="-728.5" font-family="Helvetica,sans-Serif" font-size="10.00"> </text>
<text text-anchor="start" x="241.5" y="-713.5" font-family="Helvetica,sans-Serif" font-size="10.00"> </text>
<polygon fill="#bfbfbf" stroke="#bfbfbf" points="224.5,-738.5 224.5,-738.5 262.5,-738.5 262.5,-738.5 224.5,-738.5"/>
<polygon fill="#bfbfbf" stroke="#bfbfbf" points="224.5,-723.5 224.5,-723.5 262.5,-723.5 262.5,-723.5 224.5,-723.5"/>
<polygon fill="none" stroke="#bfbfbf" points="224.5,-707 224.5,-756 262.5,-756 262.5,-707 224.5,-707"/>
</a>
</g>
</g>
<!-- Node4&#45;&gt;Node3 -->
<g id="edge3_Node000003_Node000004" class="edge">
<title>Node4&#45;&gt;Node3</title>
<g id="a_edge3_Node000003_Node000004"><a xlink:title=" ">
<path fill="none" stroke="#63b8ff" d="M241.6,-706.71C241.21,-694.67 241.61,-679.91 244.5,-667 244.95,-664.99 245.43,-662.97 245.94,-660.94"/>
<polygon fill="none" stroke="#63b8ff" points="245.96,-660.88 243.71,-654.03 249.17,-649.32 251.42,-656.17 245.96,-660.88"/>
</a>
</g>
<text text-anchor="middle" x="288.5" y="-675.5" font-family="Helvetica,sans-Serif" font-size="10.00" fill="grey"> +SIG_FILE_NAME</text>
</g>
<!-- Node5 -->
<g id="Node000005" class="node">
<title>Node5</title>
<g id="a_Node000005"><a xlink:title=" ">
<polygon fill="white" stroke="transparent" points="450.5,-756 412.5,-756 412.5,-707 450.5,-707 450.5,-756"/>
<text text-anchor="start" x="417.5" y="-743.5" font-family="Helvetica,sans-Serif" font-size="10.00">string</text>
<text text-anchor="start" x="429.5" y="-728.5" font-family="Helvetica,sans-Serif" font-size="10.00"> </text>
<text text-anchor="start" x="429.5" y="-713.5" font-family="Helvetica,sans-Serif" font-size="10.00"> </text>
<polygon fill="#bfbfbf" stroke="#bfbfbf" points="412.5,-738.5 412.5,-738.5 450.5,-738.5 450.5,-738.5 412.5,-738.5"/>
<polygon fill="#bfbfbf" stroke="#bfbfbf" points="412.5,-723.5 412.5,-723.5 450.5,-723.5 450.5,-723.5 412.5,-723.5"/>
<polygon fill="none" stroke="#bfbfbf" points="412.5,-707 412.5,-756 450.5,-756 450.5,-707 412.5,-707"/>
</a>
</g>
</g>
<!-- Node5&#45;&gt;Node1 -->
<g id="edge5_Node000001_Node000005" class="edge">
<title>Node5&#45;&gt;Node1</title>
<g id="a_edge5_Node000001_Node000005"><a xlink:title=" ">
<path fill="none" stroke="#63b8ff" d="M426.18,-706.9C414.99,-651.74 393.69,-511.31 440.5,-409 491.71,-297.08 615.86,-223.25 709.84,-181.32"/>
<polygon fill="none" stroke="#63b8ff" points="709.86,-181.31 713.75,-175.23 720.85,-176.49 716.96,-182.56 709.86,-181.31"/>
</a>
</g>
<text text-anchor="middle" x="514.5" y="-565" font-family="Helvetica,sans-Serif" font-size="10.00" fill="grey"> #mBaseName</text>
<text text-anchor="middle" x="514.5" y="-554" font-family="Helvetica,sans-Serif" font-size="10.00" fill="grey">#mCommentForInfoFile</text>
<text text-anchor="middle" x="514.5" y="-543" font-family="Helvetica,sans-Serif" font-size="10.00" fill="grey">#mDirectory</text>
<text text-anchor="middle" x="514.5" y="-532" font-family="Helvetica,sans-Serif" font-size="10.00" fill="grey">#mFileExtension</text>
<text text-anchor="middle" x="514.5" y="-521" font-family="Helvetica,sans-Serif" font-size="10.00" fill="grey">#mFixedDimensionName</text>
<text text-anchor="middle" x="514.5" y="-510" font-family="Helvetica,sans-Serif" font-size="10.00" fill="grey">#mFixedDimensionUnits</text>
<text text-anchor="middle" x="514.5" y="-499" font-family="Helvetica,sans-Serif" font-size="10.00" fill="grey">#mUnlimitedDimensionName</text>
<text text-anchor="middle" x="514.5" y="-488" font-family="Helvetica,sans-Serif" font-size="10.00" fill="grey">#mUnlimitedDimensionUnits</text>
</g>
<!-- Node5&#45;&gt;Node3 -->
<g id="edge4_Node000003_Node000005" class="edge">
<title>Node5&#45;&gt;Node3</title>
<g id="a_edge4_Node000003_Node000005"><a xlink:title=" ">
<path fill="none" stroke="#63b8ff" d="M412.23,-724.64C394.99,-718.45 370.24,-707.05 355.5,-689 348.31,-680.2 342.18,-670.35 336.94,-659.98"/>
<polygon fill="none" stroke="#63b8ff" points="336.89,-659.88 330.72,-656.14 331.8,-649.01 337.97,-652.75 336.89,-659.88"/>
</a>
</g>
<text text-anchor="middle" x="386.5" y="-675.5" font-family="Helvetica,sans-Serif" font-size="10.00" fill="grey"> &#45;mDirectory</text>
</g>
<!-- Node9 -->
<g id="Node000009" class="node">
<title>Node9</title>
<g id="a_Node000009"><a xlink:href="structDataWriterVariable.html" target="_top" xlink:title=" ">
<polygon fill="white" stroke="transparent" points="701.5,-553.5 597.5,-553.5 597.5,-504.5 701.5,-504.5 701.5,-553.5"/>
<text text-anchor="start" x="602.5" y="-541" font-family="Helvetica,sans-Serif" font-size="10.00">DataWriterVariable</text>
<text text-anchor="start" x="647.5" y="-526" font-family="Helvetica,sans-Serif" font-size="10.00"> </text>
<text text-anchor="start" x="647.5" y="-511" font-family="Helvetica,sans-Serif" font-size="10.00"> </text>
<polygon fill="#666666" stroke="#666666" points="597.5,-536 597.5,-536 701.5,-536 701.5,-536 597.5,-536"/>
<polygon fill="#666666" stroke="#666666" points="597.5,-521 597.5,-521 701.5,-521 701.5,-521 597.5,-521"/>
<polygon fill="none" stroke="#666666" points="597.5,-504.5 597.5,-553.5 701.5,-553.5 701.5,-504.5 597.5,-504.5"/>
</a>
</g>
</g>
<!-- Node5&#45;&gt;Node9 -->
<g id="edge10_Node000009_Node000005" class="edge">
<title>Node5&#45;&gt;Node9</title>
<g id="a_edge10_Node000009_Node000005"><a xlink:title=" ">
<path fill="none" stroke="#63b8ff" d="M444.14,-706.93C452.81,-693.1 465.61,-676.51 481.5,-667 521,-643.36 546.02,-675.73 583.5,-649 611.81,-628.81 629.39,-592.48 639.21,-565.26"/>
<polygon fill="none" stroke="#63b8ff" points="639.23,-565.22 637.36,-558.26 643.08,-553.86 644.94,-560.82 639.23,-565.22"/>
</a>
</g>
<text text-anchor="middle" x="527" y="-681" font-family="Helvetica,sans-Serif" font-size="10.00" fill="grey"> +mVariableName</text>
<text text-anchor="middle" x="527" y="-670" font-family="Helvetica,sans-Serif" font-size="10.00" fill="grey">+mVariableUnits</text>
</g>
<!-- Node6 -->
<g id="Node000006" class="node">
<title>Node6</title>
<g id="a_Node000006"><a xlink:href="classbool.html" target="_top" xlink:title=" ">
<polygon fill="white" stroke="transparent" points="687.5,-756 655.5,-756 655.5,-707 687.5,-707 687.5,-756"/>
<text text-anchor="start" x="660.5" y="-743.5" font-family="Helvetica,sans-Serif" font-size="10.00">bool</text>
<text text-anchor="start" x="669.5" y="-728.5" font-family="Helvetica,sans-Serif" font-size="10.00"> </text>
<text text-anchor="start" x="669.5" y="-713.5" font-family="Helvetica,sans-Serif" font-size="10.00"> </text>
<polygon fill="#bfbfbf" stroke="#bfbfbf" points="655.5,-738.5 655.5,-738.5 687.5,-738.5 687.5,-738.5 655.5,-738.5"/>
<polygon fill="#bfbfbf" stroke="#bfbfbf" points="655.5,-723.5 655.5,-723.5 687.5,-723.5 687.5,-723.5 655.5,-723.5"/>
<polygon fill="none" stroke="#bfbfbf" points="655.5,-707 655.5,-756 687.5,-756 687.5,-707 655.5,-707"/>
</a>
</g>
</g>
<!-- Node6&#45;&gt;Node1 -->
<g id="edge6_Node000001_Node000006" class="edge">
<title>Node6&#45;&gt;Node1</title>
<g id="a_edge6_Node000001_Node000006"><a xlink:title=" ">
<path fill="none" stroke="#63b8ff" d="M687.53,-727.09C706.32,-722.18 736.77,-711.14 751.5,-689 786.08,-637.02 765.94,-470.84 774.5,-409 780.04,-369 787.67,-325.98 795.42,-286.26"/>
<polygon fill="none" stroke="#63b8ff" points="795.45,-286.1 792.68,-279.44 797.77,-274.33 800.53,-280.99 795.45,-286.1"/>
</a>
</g>
<text text-anchor="middle" x="855.5" y="-554" font-family="Helvetica,sans-Serif" font-size="10.00" fill="grey"> #mHasPutVariable</text>
<text text-anchor="middle" x="855.5" y="-543" font-family="Helvetica,sans-Serif" font-size="10.00" fill="grey">#mIsFixedDimensionSet</text>
<text text-anchor="middle" x="855.5" y="-532" font-family="Helvetica,sans-Serif" font-size="10.00" fill="grey">#mIsInDefineMode</text>
<text text-anchor="middle" x="855.5" y="-521" font-family="Helvetica,sans-Serif" font-size="10.00" fill="grey">#mIsUnlimitedDimensionSet</text>
<text text-anchor="start" x="774.5" y="-510" font-family="Helvetica,sans-Serif" font-size="10.00" fill="grey">#mNeedAdvanceAlongUnlimited</text>
<text text-anchor="middle" x="855.5" y="-499" font-family="Helvetica,sans-Serif" font-size="10.00" fill="grey">Dimension</text>
</g>
<!-- Node6&#45;&gt;Node9 -->
<g id="edge11_Node000009_Node000006" class="edge">
<title>Node6&#45;&gt;Node9</title>
<g id="a_edge11_Node000009_Node000006"><a xlink:title=" ">
<path fill="none" stroke="#63b8ff" d="M655.43,-728.53C633.87,-724.92 596.33,-715.05 579.5,-689 574.19,-680.79 577.21,-676.51 579.5,-667 588.51,-629.57 609.56,-590.86 626.25,-564.17"/>
<polygon fill="none" stroke="#63b8ff" points="626.38,-563.97 626.24,-556.76 632.85,-553.86 632.98,-561.07 626.38,-563.97"/>
</a>
</g>
<text text-anchor="middle" x="665.5" y="-681" font-family="Helvetica,sans-Serif" font-size="10.00" fill="grey"> +mVariesWithFixedDimension</text>
<text text-anchor="middle" x="665.5" y="-670" font-family="Helvetica,sans-Serif" font-size="10.00" fill="grey">+mVariesWithUnlimitedDimension</text>
</g>
<!-- Node7 -->
<g id="Node000007" class="node">
<title>Node7</title>
<g id="a_Node000007"><a xlink:title=" ">
<polygon fill="white" stroke="transparent" points="977.5,-553.5 945.5,-553.5 945.5,-504.5 977.5,-504.5 977.5,-553.5"/>
<text text-anchor="start" x="950.5" y="-541" font-family="Helvetica,sans-Serif" font-size="10.00">long</text>
<text text-anchor="start" x="959.5" y="-526" font-family="Helvetica,sans-Serif" font-size="10.00"> </text>
<text text-anchor="start" x="959.5" y="-511" font-family="Helvetica,sans-Serif" font-size="10.00"> </text>
<polygon fill="#bfbfbf" stroke="#bfbfbf" points="945.5,-536 945.5,-536 977.5,-536 977.5,-536 945.5,-536"/>
<polygon fill="#bfbfbf" stroke="#bfbfbf" points="945.5,-521 945.5,-521 977.5,-521 977.5,-521 945.5,-521"/>
<polygon fill="none" stroke="#bfbfbf" points="945.5,-504.5 945.5,-553.5 977.5,-553.5 977.5,-504.5 945.5,-504.5"/>
</a>
</g>
</g>
<!-- Node7&#45;&gt;Node1 -->
<g id="edge7_Node000001_Node000007" class="edge">
<title>Node7&#45;&gt;Node1</title>
<g id="a_edge7_Node000001_Node000007"><a xlink:title=" ">
<path fill="none" stroke="#63b8ff" d="M961.45,-504.23C960.17,-478.02 954.34,-436 931.5,-409 918.65,-393.8 903.33,-406.21 890.5,-391 865.68,-361.57 850.4,-323.77 841.06,-286.41"/>
<polygon fill="none" stroke="#63b8ff" points="840.96,-286 835.7,-281.07 838.23,-274.31 843.49,-279.24 840.96,-286"/>
</a>
</g>
<text text-anchor="middle" x="969.5" y="-344.5" font-family="Helvetica,sans-Serif" font-size="10.00" fill="grey"> #mFixedDimensionSize</text>
<text text-anchor="middle" x="969.5" y="-333.5" font-family="Helvetica,sans-Serif" font-size="10.00" fill="grey">#mUnlimitedDimensionPosition</text>
</g>
<!-- Node8 -->
<g id="Node000008" class="node">
<title>Node8</title>
<g id="a_Node000008"><a xlink:title=" ">
<polygon fill="white" stroke="transparent" points="1145.5,-553.5 995.5,-553.5 995.5,-504.5 1145.5,-504.5 1145.5,-553.5"/>
<text text-anchor="start" x="1000.5" y="-541" font-family="Helvetica,sans-Serif" font-size="10.00">shared_ptr&lt; std::ofstream &gt;</text>
<text text-anchor="start" x="1068.5" y="-526" font-family="Helvetica,sans-Serif" font-size="10.00"> </text>
<text text-anchor="start" x="1068.5" y="-511" font-family="Helvetica,sans-Serif" font-size="10.00"> </text>
<polygon fill="#bfbfbf" stroke="#bfbfbf" points="995.5,-536 995.5,-536 1145.5,-536 1145.5,-536 995.5,-536"/>
<polygon fill="#bfbfbf" stroke="#bfbfbf" points="995.5,-521 995.5,-521 1145.5,-521 1145.5,-521 995.5,-521"/>
<polygon fill="none" stroke="#bfbfbf" points="995.5,-504.5 995.5,-553.5 1145.5,-553.5 1145.5,-504.5 995.5,-504.5"/>
</a>
</g>
</g>
<!-- Node8&#45;&gt;Node1 -->
<g id="edge8_Node000001_Node000008" class="edge">
<title>Node8&#45;&gt;Node1</title>
<g id="a_edge8_Node000001_Node000008"><a xlink:title=" ">
<path fill="none" stroke="#63b8ff" d="M1074.47,-504.28C1080.72,-459.4 1088.38,-360.44 1048.5,-292 1024.35,-250.56 984.08,-217.6 944.47,-192.98"/>
<polygon fill="none" stroke="#63b8ff" points="944.43,-192.95 937.22,-193.27 934.16,-186.74 941.36,-186.43 944.43,-192.95"/>
</a>
</g>
<text text-anchor="middle" x="1138.5" y="-344.5" font-family="Helvetica,sans-Serif" font-size="10.00" fill="grey"> #mpCurrentAncillaryFile</text>
<text text-anchor="middle" x="1138.5" y="-333.5" font-family="Helvetica,sans-Serif" font-size="10.00" fill="grey">#mpCurrentOutputFile</text>
</g>
<!-- Node9&#45;&gt;Node1 -->
<g id="edge9_Node000001_Node000009" class="edge">
<title>Node9&#45;&gt;Node1</title>
<g id="a_edge9_Node000001_Node000009"><a xlink:title=" ">
<path fill="none" stroke="#63b8ff" d="M632.09,-504.17C602.09,-459.95 547.49,-363.23 586.5,-292 613.22,-243.22 662.7,-207.64 709.91,-183.05"/>
<polygon fill="none" stroke="#63b8ff" points="710.18,-182.91 713.73,-176.64 720.89,-177.5 717.34,-183.78 710.18,-182.91"/>
</a>
</g>
<text text-anchor="middle" x="669" y="-344.5" font-family="Helvetica,sans-Serif" font-size="10.00" fill="grey"> #mpFixedDimensionVariable</text>
<text text-anchor="middle" x="669" y="-333.5" font-family="Helvetica,sans-Serif" font-size="10.00" fill="grey">#mpUnlimitedDimensionVariable</text>
</g>
<!-- Node10 -->
<g id="Node000010" class="node">
<title>Node10</title>
<g id="a_Node000010"><a xlink:title=" ">
<polygon fill="white" stroke="transparent" points="1321,-553.5 1164,-553.5 1164,-504.5 1321,-504.5 1321,-553.5"/>
<text text-anchor="start" x="1169.5" y="-541" font-family="Helvetica,sans-Serif" font-size="10.00">vector&lt; DataWriterVariable &gt;</text>
<text text-anchor="start" x="1241" y="-526" font-family="Helvetica,sans-Serif" font-size="10.00"> </text>
<text text-anchor="start" x="1241" y="-511" font-family="Helvetica,sans-Serif" font-size="10.00"> </text>
<polygon fill="#bfbfbf" stroke="#bfbfbf" points="1164.5,-536 1164.5,-536 1321.5,-536 1321.5,-536 1164.5,-536"/>
<polygon fill="#bfbfbf" stroke="#bfbfbf" points="1164.5,-521 1164.5,-521 1321.5,-521 1321.5,-521 1164.5,-521"/>
<polygon fill="none" stroke="#bfbfbf" points="1164,-504.5 1164,-553.5 1321,-553.5 1321,-504.5 1164,-504.5"/>
</a>
</g>
</g>
<!-- Node10&#45;&gt;Node1 -->
<g id="edge12_Node000001_Node000010" class="edge">
<title>Node10&#45;&gt;Node1</title>
<g id="a_edge12_Node000001_Node000010"><a xlink:title=" ">
<path fill="none" stroke="#63b8ff" d="M1245.71,-504.27C1250.58,-458.06 1254.58,-355.04 1204.5,-292 1141.6,-212.82 1031.31,-174.05 946.22,-155.25"/>
<polygon fill="none" stroke="#63b8ff" points="946.12,-155.22 939.42,-157.89 934.38,-152.72 941.09,-150.06 946.12,-155.22"/>
</a>
</g>
<text text-anchor="middle" x="1276" y="-339" font-family="Helvetica,sans-Serif" font-size="10.00" fill="grey"> #mVariables</text>
</g>
<!-- Node11 -->
<g id="Node000011" class="node">
<title>Node11</title>
<g id="a_Node000011"><a xlink:href="classunsigned.html" target="_top" xlink:title=" ">
<polygon fill="white" stroke="transparent" points="1394,-553.5 1339,-553.5 1339,-504.5 1394,-504.5 1394,-553.5"/>
<text text-anchor="start" x="1344.5" y="-541" font-family="Helvetica,sans-Serif" font-size="10.00">unsigned</text>
<text text-anchor="start" x="1365" y="-526" font-family="Helvetica,sans-Serif" font-size="10.00"> </text>
<text text-anchor="start" x="1365" y="-511" font-family="Helvetica,sans-Serif" font-size="10.00"> </text>
<polygon fill="#bfbfbf" stroke="#bfbfbf" points="1339.5,-536 1339.5,-536 1394.5,-536 1394.5,-536 1339.5,-536"/>
<polygon fill="#bfbfbf" stroke="#bfbfbf" points="1339.5,-521 1339.5,-521 1394.5,-521 1394.5,-521 1339.5,-521"/>
<polygon fill="none" stroke="#bfbfbf" points="1339,-504.5 1339,-553.5 1394,-553.5 1394,-504.5 1339,-504.5"/>
</a>
</g>
</g>
<!-- Node11&#45;&gt;Node1 -->
<g id="edge13_Node000001_Node000011" class="edge">
<title>Node11&#45;&gt;Node1</title>
<g id="a_edge13_Node000001_Node000011"><a xlink:title=" ">
<path fill="none" stroke="#63b8ff" d="M1364.16,-504.31C1358.43,-450.85 1342.03,-323.1 1313.5,-292 1219.34,-189.38 1057.32,-154.73 946.44,-143.26"/>
<polygon fill="none" stroke="#63b8ff" points="946.13,-143.24 939.77,-146.63 934.19,-142.07 940.55,-138.67 946.13,-143.24"/>
</a>
</g>
<text text-anchor="middle" x="1383" y="-344.5" font-family="Helvetica,sans-Serif" font-size="10.00" fill="grey"> #mFieldWidth</text>
<text text-anchor="middle" x="1383" y="-333.5" font-family="Helvetica,sans-Serif" font-size="10.00" fill="grey">#mPrecision</text>
</g>
<!-- Node12 -->
<g id="Node000012" class="node">
<title>Node12</title>
<g id="a_Node000012"><a xlink:title=" ">
<polygon fill="white" stroke="transparent" points="1457,-553.5 1434,-553.5 1434,-504.5 1457,-504.5 1457,-553.5"/>
<text text-anchor="start" x="1439.5" y="-541" font-family="Helvetica,sans-Serif" font-size="10.00">int</text>
<text text-anchor="start" x="1444" y="-526" font-family="Helvetica,sans-Serif" font-size="10.00"> </text>
<text text-anchor="start" x="1444" y="-511" font-family="Helvetica,sans-Serif" font-size="10.00"> </text>
<polygon fill="#bfbfbf" stroke="#bfbfbf" points="1434.5,-536 1434.5,-536 1457.5,-536 1457.5,-536 1434.5,-536"/>
<polygon fill="#bfbfbf" stroke="#bfbfbf" points="1434.5,-521 1434.5,-521 1457.5,-521 1457.5,-521 1434.5,-521"/>
<polygon fill="none" stroke="#bfbfbf" points="1434,-504.5 1434,-553.5 1457,-553.5 1457,-504.5 1434,-504.5"/>
</a>
</g>
</g>
<!-- Node12&#45;&gt;Node1 -->
<g id="edge14_Node000001_Node000012" class="edge">
<title>Node12&#45;&gt;Node1</title>
<g id="a_edge14_Node000001_Node000012"><a xlink:title=" ">
<path fill="none" stroke="#63b8ff" d="M1451.29,-504.23C1461.13,-457.51 1475.39,-352.93 1423.5,-292 1362.3,-220.14 1101.78,-174.12 946.15,-152.5"/>
<polygon fill="none" stroke="#63b8ff" points="946.1,-152.49 939.61,-155.64 934.21,-150.86 940.7,-147.72 946.1,-152.49"/>
</a>
</g>
<text text-anchor="start" x="1459.5" y="-383" font-family="Helvetica,sans-Serif" font-size="10.00" fill="grey"> #FIXED_DIMENSION_VAR</text>
<text text-anchor="middle" x="1532" y="-372" font-family="Helvetica,sans-Serif" font-size="10.00" fill="grey">_ID</text>
<text text-anchor="middle" x="1532" y="-361" font-family="Helvetica,sans-Serif" font-size="10.00" fill="grey">#SPACING</text>
<text text-anchor="start" x="1459.5" y="-350" font-family="Helvetica,sans-Serif" font-size="10.00" fill="grey">#UNLIMITED_DIMENSION</text>
<text text-anchor="middle" x="1532" y="-339" font-family="Helvetica,sans-Serif" font-size="10.00" fill="grey">_VAR_ID</text>
<text text-anchor="middle" x="1532" y="-328" font-family="Helvetica,sans-Serif" font-size="10.00" fill="grey">#mAncillaryRowStartPosition</text>
<text text-anchor="middle" x="1532" y="-317" font-family="Helvetica,sans-Serif" font-size="10.00" fill="grey">#mAncillaryRowWidth</text>
<text text-anchor="middle" x="1532" y="-306" font-family="Helvetica,sans-Serif" font-size="10.00" fill="grey">#mRowStartPosition</text>
<text text-anchor="middle" x="1532" y="-295" font-family="Helvetica,sans-Serif" font-size="10.00" fill="grey">#mRowWidth</text>
</g>
</g>
</svg>
