<?xml version="1.0" encoding="UTF-8" standalone="no"?>
<!DOCTYPE svg PUBLIC "-//W3C//DTD SVG 1.1//EN"
 "http://www.w3.org/Graphics/SVG/1.1/DTD/svg11.dtd">
<!-- Generated by graphviz version 2.43.0 (0)
 -->
<!-- Title: AbstractGeneralizedRushLarsenCardiacCell Pages: 1 -->
<svg width="1061pt" height="1872pt"
 viewBox="0.00 0.00 1061.40 1872.00" xmlns="http://www.w3.org/2000/svg" xmlns:xlink="http://www.w3.org/1999/xlink">
<g id="graph0" class="graph" transform="scale(1 1) rotate(0) translate(4 1868)">
<title>AbstractGeneralizedRushLarsenCardiacCell</title>
<!-- Node1 -->
<g id="Node000001" class="node">
<title>Node1</title>
<g id="a_Node000001"><a xlink:title=" ">
<polygon fill="#999999" stroke="transparent" points="955.9,-232 768.9,-232 768.9,0 955.9,0 955.9,-232"/>
<text text-anchor="start" x="784.9" y="-220" font-family="Helvetica,sans-Serif" font-size="10.00">AbstractGeneralizedRushLarsen</text>
<text text-anchor="start" x="834.9" y="-209" font-family="Helvetica,sans-Serif" font-size="10.00">CardiacCell</text>
<text text-anchor="start" x="860.9" y="-194" font-family="Helvetica,sans-Serif" font-size="10.00"> </text>
<text text-anchor="start" x="773.4" y="-179" font-family="Helvetica,sans-Serif" font-size="10.00">+</text>
<text text-anchor="start" x="786.4" y="-179" font-family="Helvetica,sans-Serif" font-size="10.00">AbstractGeneralizedRushLarsen</text>
<text text-anchor="start" x="786.4" y="-168" font-family="Helvetica,sans-Serif" font-size="10.00">CardiacCell()</text>
<text text-anchor="start" x="773.4" y="-153" font-family="Helvetica,sans-Serif" font-size="10.00">+</text>
<text text-anchor="start" x="786.4" y="-153" font-family="Helvetica,sans-Serif" font-size="10.00">~AbstractGeneralizedRush</text>
<text text-anchor="start" x="786.4" y="-142" font-family="Helvetica,sans-Serif" font-size="10.00">LarsenCardiacCell()</text>
<text text-anchor="start" x="773.4" y="-127" font-family="Helvetica,sans-Serif" font-size="10.00">+</text>
<text text-anchor="start" x="786.4" y="-127" font-family="Helvetica,sans-Serif" font-size="10.00">Compute()</text>
<text text-anchor="start" x="773.4" y="-112" font-family="Helvetica,sans-Serif" font-size="10.00">+</text>
<text text-anchor="start" x="786.4" y="-112" font-family="Helvetica,sans-Serif" font-size="10.00">ComputeExceptVoltage()</text>
<text text-anchor="start" x="773.4" y="-97" font-family="Helvetica,sans-Serif" font-size="10.00">+</text>
<text text-anchor="start" x="786.4" y="-97" font-family="Helvetica,sans-Serif" font-size="10.00">SolveAndUpdateState()</text>
<text text-anchor="start" x="773.4" y="-82" font-family="Helvetica,sans-Serif" font-size="10.00">+</text>
<text text-anchor="start" x="786.4" y="-82" font-family="Helvetica,sans-Serif" font-size="10.00">HasAnalyticJacobian()</text>
<text text-anchor="start" x="773.4" y="-67" font-family="Helvetica,sans-Serif" font-size="10.00">+</text>
<text text-anchor="start" x="786.4" y="-67" font-family="Helvetica,sans-Serif" font-size="10.00">ForceUseOfNumericalJacobian()</text>
<text text-anchor="start" x="773.4" y="-52" font-family="Helvetica,sans-Serif" font-size="10.00">#</text>
<text text-anchor="start" x="786.4" y="-52" font-family="Helvetica,sans-Serif" font-size="10.00">ComputeOneStepExceptVoltage()</text>
<text text-anchor="start" x="773.4" y="-37" font-family="Helvetica,sans-Serif" font-size="10.00">#</text>
<text text-anchor="start" x="786.4" y="-37" font-family="Helvetica,sans-Serif" font-size="10.00">UpdateTransmembranePotential()</text>
<text text-anchor="start" x="775.9" y="-22" font-family="Helvetica,sans-Serif" font-size="10.00">&#45;</text>
<text text-anchor="start" x="786.4" y="-22" font-family="Helvetica,sans-Serif" font-size="10.00">serialize()</text>
<text text-anchor="start" x="775.9" y="-7" font-family="Helvetica,sans-Serif" font-size="10.00">&#45;</text>
<text text-anchor="start" x="786.4" y="-7" font-family="Helvetica,sans-Serif" font-size="10.00">EvaluateYDerivatives()</text>
<polygon fill="#666666" stroke="#666666" points="769.4,-204 769.4,-204 956.4,-204 956.4,-204 769.4,-204"/>
<polygon fill="#666666" stroke="#666666" points="769.4,-189 769.4,-189 956.4,-189 956.4,-189 769.4,-189"/>
<polygon fill="none" stroke="#666666" points="768.9,0 768.9,-232 955.9,-232 955.9,0 768.9,0"/>
</a>
</g>
</g>
<!-- Node2 -->
<g id="Node000002" class="node">
<title>Node2</title>
<g id="a_Node000002"><a xlink:href="classAbstractCardiacCell.html" target="_top" xlink:title=" ">
<polygon fill="white" stroke="transparent" points="776.9,-498 609.9,-498 609.9,-269 776.9,-269 776.9,-498"/>
<text text-anchor="start" x="645.4" y="-485.5" font-family="Helvetica,sans-Serif" font-size="10.00">AbstractCardiacCell</text>
<text text-anchor="start" x="691.9" y="-470.5" font-family="Helvetica,sans-Serif" font-size="10.00"> </text>
<text text-anchor="start" x="614.4" y="-455.5" font-family="Helvetica,sans-Serif" font-size="10.00">+</text>
<text text-anchor="start" x="627.4" y="-455.5" font-family="Helvetica,sans-Serif" font-size="10.00">AbstractCardiacCell()</text>
<text text-anchor="start" x="614.4" y="-440.5" font-family="Helvetica,sans-Serif" font-size="10.00">+</text>
<text text-anchor="start" x="627.4" y="-440.5" font-family="Helvetica,sans-Serif" font-size="10.00">~AbstractCardiacCell()</text>
<text text-anchor="start" x="614.4" y="-425.5" font-family="Helvetica,sans-Serif" font-size="10.00">+</text>
<text text-anchor="start" x="627.4" y="-425.5" font-family="Helvetica,sans-Serif" font-size="10.00">Init()</text>
<text text-anchor="start" x="614.4" y="-410.5" font-family="Helvetica,sans-Serif" font-size="10.00">+</text>
<text text-anchor="start" x="627.4" y="-410.5" font-family="Helvetica,sans-Serif" font-size="10.00">SetTimestep()</text>
<text text-anchor="start" x="614.4" y="-395.5" font-family="Helvetica,sans-Serif" font-size="10.00">+</text>
<text text-anchor="start" x="627.4" y="-395.5" font-family="Helvetica,sans-Serif" font-size="10.00">SolveAndUpdateState()</text>
<text text-anchor="start" x="614.4" y="-380.5" font-family="Helvetica,sans-Serif" font-size="10.00">+</text>
<text text-anchor="start" x="627.4" y="-380.5" font-family="Helvetica,sans-Serif" font-size="10.00">Compute()</text>
<text text-anchor="start" x="614.4" y="-365.5" font-family="Helvetica,sans-Serif" font-size="10.00">+</text>
<text text-anchor="start" x="627.4" y="-365.5" font-family="Helvetica,sans-Serif" font-size="10.00">ComputeExceptVoltage()</text>
<text text-anchor="start" x="614.4" y="-350.5" font-family="Helvetica,sans-Serif" font-size="10.00">+</text>
<text text-anchor="start" x="627.4" y="-350.5" font-family="Helvetica,sans-Serif" font-size="10.00">SetVoltage()</text>
<text text-anchor="start" x="614.4" y="-335.5" font-family="Helvetica,sans-Serif" font-size="10.00">+</text>
<text text-anchor="start" x="627.4" y="-335.5" font-family="Helvetica,sans-Serif" font-size="10.00">GetVoltage()</text>
<text text-anchor="start" x="614.4" y="-320.5" font-family="Helvetica,sans-Serif" font-size="10.00">+</text>
<text text-anchor="start" x="627.4" y="-320.5" font-family="Helvetica,sans-Serif" font-size="10.00">GetNumberOfStateVariables()</text>
<text text-anchor="start" x="627.4" y="-305.5" font-family="Helvetica,sans-Serif" font-size="10.00">and 16 more...</text>
<text text-anchor="start" x="616.9" y="-290.5" font-family="Helvetica,sans-Serif" font-size="10.00">&#45;</text>
<text text-anchor="start" x="627.4" y="-290.5" font-family="Helvetica,sans-Serif" font-size="10.00">serialize()</text>
<text text-anchor="start" x="616.9" y="-275.5" font-family="Helvetica,sans-Serif" font-size="10.00">&#45;</text>
<text text-anchor="start" x="627.4" y="-275.5" font-family="Helvetica,sans-Serif" font-size="10.00">CheckForArchiveFix()</text>
<polygon fill="#666666" stroke="#666666" points="610.4,-480.5 610.4,-480.5 777.4,-480.5 777.4,-480.5 610.4,-480.5"/>
<polygon fill="#666666" stroke="#666666" points="610.4,-465.5 610.4,-465.5 777.4,-465.5 777.4,-465.5 610.4,-465.5"/>
<polygon fill="none" stroke="#666666" points="609.9,-269 609.9,-498 776.9,-498 776.9,-269 609.9,-269"/>
</a>
</g>
</g>
<!-- Node2&#45;&gt;Node1 -->
<g id="edge1_Node000001_Node000002" class="edge">
<title>Node2&#45;&gt;Node1</title>
<g id="a_edge1_Node000001_Node000002"><a xlink:title=" ">
<path fill="none" stroke="#63b8ff" d="M771.25,-260.21C777.18,-250.88 783.16,-241.48 789.07,-232.2"/>
<polygon fill="none" stroke="#63b8ff" points="768.23,-258.43 765.81,-268.75 774.13,-262.19 768.23,-258.43"/>
</a>
</g>
</g>
<!-- Node3 -->
<g id="Node000003" class="node">
<title>Node3</title>
<g id="a_Node000003"><a xlink:href="classAbstractCardiacCellInterface.html" target="_top" xlink:title=" ">
<polygon fill="white" stroke="transparent" points="370.9,-759 193.9,-759 193.9,-545 370.9,-545 370.9,-759"/>
<text text-anchor="start" x="212.9" y="-747" font-family="Helvetica,sans-Serif" font-size="10.00">AbstractCardiacCellInterface</text>
<text text-anchor="start" x="280.9" y="-732" font-family="Helvetica,sans-Serif" font-size="10.00"> </text>
<text text-anchor="start" x="198.4" y="-717" font-family="Helvetica,sans-Serif" font-size="10.00">+</text>
<text text-anchor="start" x="211.4" y="-717" font-family="Helvetica,sans-Serif" font-size="10.00">AbstractCardiacCellInterface()</text>
<text text-anchor="start" x="198.4" y="-702" font-family="Helvetica,sans-Serif" font-size="10.00">+</text>
<text text-anchor="start" x="211.4" y="-702" font-family="Helvetica,sans-Serif" font-size="10.00">~AbstractCardiacCellInterface()</text>
<text text-anchor="start" x="198.4" y="-687" font-family="Helvetica,sans-Serif" font-size="10.00">+</text>
<text text-anchor="start" x="211.4" y="-687" font-family="Helvetica,sans-Serif" font-size="10.00">SetTimestep()</text>
<text text-anchor="start" x="198.4" y="-672" font-family="Helvetica,sans-Serif" font-size="10.00">+</text>
<text text-anchor="start" x="211.4" y="-672" font-family="Helvetica,sans-Serif" font-size="10.00">GetNumberOfStateVariables()</text>
<text text-anchor="start" x="198.4" y="-657" font-family="Helvetica,sans-Serif" font-size="10.00">+</text>
<text text-anchor="start" x="211.4" y="-657" font-family="Helvetica,sans-Serif" font-size="10.00">GetNumberOfParameters()</text>
<text text-anchor="start" x="198.4" y="-642" font-family="Helvetica,sans-Serif" font-size="10.00">+</text>
<text text-anchor="start" x="211.4" y="-642" font-family="Helvetica,sans-Serif" font-size="10.00">GetStdVecStateVariables()</text>
<text text-anchor="start" x="198.4" y="-627" font-family="Helvetica,sans-Serif" font-size="10.00">+</text>
<text text-anchor="start" x="211.4" y="-627" font-family="Helvetica,sans-Serif" font-size="10.00">rGetStateVariableNames()</text>
<text text-anchor="start" x="198.4" y="-612" font-family="Helvetica,sans-Serif" font-size="10.00">+</text>
<text text-anchor="start" x="211.4" y="-612" font-family="Helvetica,sans-Serif" font-size="10.00">SetStateVariables()</text>
<text text-anchor="start" x="198.4" y="-597" font-family="Helvetica,sans-Serif" font-size="10.00">+</text>
<text text-anchor="start" x="211.4" y="-597" font-family="Helvetica,sans-Serif" font-size="10.00">SetStateVariable()</text>
<text text-anchor="start" x="198.4" y="-582" font-family="Helvetica,sans-Serif" font-size="10.00">+</text>
<text text-anchor="start" x="211.4" y="-582" font-family="Helvetica,sans-Serif" font-size="10.00">SetStateVariable()</text>
<text text-anchor="start" x="211.4" y="-567" font-family="Helvetica,sans-Serif" font-size="10.00">and 28 more...</text>
<text text-anchor="start" x="200.9" y="-552" font-family="Helvetica,sans-Serif" font-size="10.00">&#45;</text>
<text text-anchor="start" x="211.4" y="-552" font-family="Helvetica,sans-Serif" font-size="10.00">serialize()</text>
<polygon fill="#666666" stroke="#666666" points="194.4,-742 194.4,-742 371.4,-742 371.4,-742 194.4,-742"/>
<polygon fill="#666666" stroke="#666666" points="194.4,-727 194.4,-727 371.4,-727 371.4,-727 194.4,-727"/>
<polygon fill="none" stroke="#666666" points="193.9,-545 193.9,-759 370.9,-759 370.9,-545 193.9,-545"/>
</a>
</g>
</g>
<!-- Node3&#45;&gt;Node2 -->
<g id="edge2_Node000002_Node000003" class="edge">
<title>Node3&#45;&gt;Node2</title>
<g id="a_edge2_Node000002_Node000003"><a xlink:title=" ">
<path fill="none" stroke="#63b8ff" d="M379.5,-588.04C449.52,-542.64 543.08,-481.97 609.79,-438.71"/>
<polygon fill="none" stroke="#63b8ff" points="377.56,-585.12 371.08,-593.5 381.37,-591 377.56,-585.12"/>
</a>
</g>
</g>
<!-- Node4 -->
<g id="Node000004" class="node">
<title>Node4</title>
<g id="a_Node000004"><a xlink:href="classunsigned.html" target="_top" xlink:title=" ">
<polygon fill="white" stroke="transparent" points="154.9,-1858.5 99.9,-1858.5 99.9,-1809.5 154.9,-1809.5 154.9,-1858.5"/>
<text text-anchor="start" x="105.4" y="-1846" font-family="Helvetica,sans-Serif" font-size="10.00">unsigned</text>
<text text-anchor="start" x="125.9" y="-1831" font-family="Helvetica,sans-Serif" font-size="10.00"> </text>
<text text-anchor="start" x="125.9" y="-1816" font-family="Helvetica,sans-Serif" font-size="10.00"> </text>
<polygon fill="#bfbfbf" stroke="#bfbfbf" points="100.4,-1841 100.4,-1841 155.4,-1841 155.4,-1841 100.4,-1841"/>
<polygon fill="#bfbfbf" stroke="#bfbfbf" points="100.4,-1826 100.4,-1826 155.4,-1826 155.4,-1826 100.4,-1826"/>
<polygon fill="none" stroke="#bfbfbf" points="99.9,-1809.5 99.9,-1858.5 154.9,-1858.5 154.9,-1809.5 99.9,-1809.5"/>
</a>
</g>
</g>
<!-- Node4&#45;&gt;Node3 -->
<g id="edge3_Node000003_Node000004" class="edge">
<title>Node4&#45;&gt;Node3</title>
<g id="a_edge3_Node000003_Node000004"><a xlink:title=" ">
<path fill="none" stroke="#63b8ff" d="M99.88,-1810.21C63.35,-1777.22 3.4,-1712.37 3.4,-1642 3.4,-1642 3.4,-1642 3.4,-980.5 3.4,-917.1 -10.21,-893.95 21.4,-839 57.83,-775.68 125.54,-728.38 182.86,-697.33"/>
<polygon fill="none" stroke="#63b8ff" points="183.2,-697.15 186.63,-690.81 193.81,-691.53 190.38,-697.88 183.2,-697.15"/>
</a>
</g>
<text text-anchor="middle" x="45.9" y="-1322" font-family="Helvetica,sans-Serif" font-size="10.00" fill="grey"> #mVoltageIndex</text>
</g>
<!-- Node11 -->
<g id="Node000011" class="node">
<title>Node11</title>
<g id="a_Node000011"><a xlink:href="classAbstractUntemplatedParameterisedSystem.html" target="_top" xlink:title=" ">
<polygon fill="white" stroke="transparent" points="763.9,-1757 558.9,-1757 558.9,-1525 763.9,-1525 763.9,-1757"/>
<text text-anchor="start" x="574.4" y="-1745" font-family="Helvetica,sans-Serif" font-size="10.00">AbstractUntemplatedParameterised</text>
<text text-anchor="start" x="643.4" y="-1734" font-family="Helvetica,sans-Serif" font-size="10.00">System</text>
<text text-anchor="start" x="659.9" y="-1719" font-family="Helvetica,sans-Serif" font-size="10.00"> </text>
<text text-anchor="start" x="563.4" y="-1704" font-family="Helvetica,sans-Serif" font-size="10.00">+</text>
<text text-anchor="start" x="576.4" y="-1704" font-family="Helvetica,sans-Serif" font-size="10.00">AbstractUntemplatedParameterised</text>
<text text-anchor="start" x="576.4" y="-1693" font-family="Helvetica,sans-Serif" font-size="10.00">System()</text>
<text text-anchor="start" x="563.4" y="-1678" font-family="Helvetica,sans-Serif" font-size="10.00">+</text>
<text text-anchor="start" x="576.4" y="-1678" font-family="Helvetica,sans-Serif" font-size="10.00">~AbstractUntemplatedParameterised</text>
<text text-anchor="start" x="576.4" y="-1667" font-family="Helvetica,sans-Serif" font-size="10.00">System()</text>
<text text-anchor="start" x="563.4" y="-1652" font-family="Helvetica,sans-Serif" font-size="10.00">+</text>
<text text-anchor="start" x="576.4" y="-1652" font-family="Helvetica,sans-Serif" font-size="10.00">GetSystemInformation()</text>
<text text-anchor="start" x="563.4" y="-1637" font-family="Helvetica,sans-Serif" font-size="10.00">+</text>
<text text-anchor="start" x="576.4" y="-1637" font-family="Helvetica,sans-Serif" font-size="10.00">GetSystemName()</text>
<text text-anchor="start" x="563.4" y="-1622" font-family="Helvetica,sans-Serif" font-size="10.00">+</text>
<text text-anchor="start" x="576.4" y="-1622" font-family="Helvetica,sans-Serif" font-size="10.00">GetNumberOfAttributes()</text>
<text text-anchor="start" x="563.4" y="-1607" font-family="Helvetica,sans-Serif" font-size="10.00">+</text>
<text text-anchor="start" x="576.4" y="-1607" font-family="Helvetica,sans-Serif" font-size="10.00">HasAttribute()</text>
<text text-anchor="start" x="563.4" y="-1592" font-family="Helvetica,sans-Serif" font-size="10.00">+</text>
<text text-anchor="start" x="576.4" y="-1592" font-family="Helvetica,sans-Serif" font-size="10.00">GetAttribute()</text>
<text text-anchor="start" x="563.4" y="-1577" font-family="Helvetica,sans-Serif" font-size="10.00">+</text>
<text text-anchor="start" x="576.4" y="-1577" font-family="Helvetica,sans-Serif" font-size="10.00">GetNumberOfStateVariables()</text>
<text text-anchor="start" x="563.4" y="-1562" font-family="Helvetica,sans-Serif" font-size="10.00">+</text>
<text text-anchor="start" x="576.4" y="-1562" font-family="Helvetica,sans-Serif" font-size="10.00">rGetStateVariableNames()</text>
<text text-anchor="start" x="563.4" y="-1547" font-family="Helvetica,sans-Serif" font-size="10.00">+</text>
<text text-anchor="start" x="576.4" y="-1547" font-family="Helvetica,sans-Serif" font-size="10.00">rGetStateVariableUnits()</text>
<text text-anchor="start" x="576.4" y="-1532" font-family="Helvetica,sans-Serif" font-size="10.00">and 20 more...</text>
<polygon fill="#666666" stroke="#666666" points="559.4,-1729 559.4,-1729 764.4,-1729 764.4,-1729 559.4,-1729"/>
<polygon fill="#666666" stroke="#666666" points="559.4,-1714 559.4,-1714 764.4,-1714 764.4,-1714 559.4,-1714"/>
<polygon fill="none" stroke="#666666" points="558.9,-1525 558.9,-1757 763.9,-1757 763.9,-1525 558.9,-1525"/>
</a>
</g>
</g>
<!-- Node4&#45;&gt;Node11 -->
<g id="edge11_Node000011_Node000004" class="edge">
<title>Node4&#45;&gt;Node11</title>
<g id="a_edge11_Node000011_Node000004"><a xlink:title=" ">
<path fill="none" stroke="#63b8ff" d="M154.99,-1823.13C226.49,-1797.56 421.02,-1727.98 547.11,-1682.88"/>
<polygon fill="none" stroke="#63b8ff" points="547.41,-1682.77 551.71,-1676.99 558.71,-1678.73 554.41,-1684.52 547.41,-1682.77"/>
</a>
</g>
<text text-anchor="middle" x="356.4" y="-1778" font-family="Helvetica,sans-Serif" font-size="10.00" fill="grey"> #mNumberOfStateVariables</text>
</g>
<!-- Node5 -->
<g id="Node000005" class="node">
<title>Node5</title>
<g id="a_Node000005"><a xlink:title=" ">
<polygon fill="white" stroke="transparent" points="179.9,-1011.5 30.9,-1011.5 30.9,-951.5 179.9,-951.5 179.9,-1011.5"/>
<text text-anchor="start" x="36.4" y="-999.5" font-family="Helvetica,sans-Serif" font-size="10.00">shared_ptr&lt; AbstractIvpOde</text>
<text text-anchor="start" x="84.4" y="-988.5" font-family="Helvetica,sans-Serif" font-size="10.00">Solver &gt;</text>
<text text-anchor="start" x="103.9" y="-973.5" font-family="Helvetica,sans-Serif" font-size="10.00"> </text>
<text text-anchor="start" x="103.9" y="-958.5" font-family="Helvetica,sans-Serif" font-size="10.00"> </text>
<polygon fill="#bfbfbf" stroke="#bfbfbf" points="31.4,-983.5 31.4,-983.5 180.4,-983.5 180.4,-983.5 31.4,-983.5"/>
<polygon fill="#bfbfbf" stroke="#bfbfbf" points="31.4,-968.5 31.4,-968.5 180.4,-968.5 180.4,-968.5 31.4,-968.5"/>
<polygon fill="none" stroke="#bfbfbf" points="30.9,-951.5 30.9,-1011.5 179.9,-1011.5 179.9,-951.5 30.9,-951.5"/>
</a>
</g>
</g>
<!-- Node5&#45;&gt;Node3 -->
<g id="edge4_Node000003_Node000005" class="edge">
<title>Node5&#45;&gt;Node3</title>
<g id="a_edge4_Node000003_Node000005"><a xlink:title=" ">
<path fill="none" stroke="#63b8ff" d="M100.67,-951.48C95.4,-910.05 91.19,-832.78 121.4,-777 136.09,-749.89 159.51,-726.84 184,-708.23"/>
<polygon fill="none" stroke="#63b8ff" points="184.11,-708.15 186.58,-701.38 193.79,-701.06 191.31,-707.83 184.11,-708.15"/>
</a>
</g>
<text text-anchor="middle" x="160.4" y="-796.5" font-family="Helvetica,sans-Serif" font-size="10.00" fill="grey"> #mpOdeSolver</text>
</g>
<!-- Node6 -->
<g id="Node000006" class="node">
<title>Node6</title>
<g id="a_Node000006"><a xlink:title=" ">
<polygon fill="white" stroke="transparent" points="354.9,-1011.5 197.9,-1011.5 197.9,-951.5 354.9,-951.5 354.9,-1011.5"/>
<text text-anchor="start" x="203.4" y="-999.5" font-family="Helvetica,sans-Serif" font-size="10.00">shared_ptr&lt; AbstractStimulus</text>
<text text-anchor="start" x="250.4" y="-988.5" font-family="Helvetica,sans-Serif" font-size="10.00">Function &gt;</text>
<text text-anchor="start" x="274.9" y="-973.5" font-family="Helvetica,sans-Serif" font-size="10.00"> </text>
<text text-anchor="start" x="274.9" y="-958.5" font-family="Helvetica,sans-Serif" font-size="10.00"> </text>
<polygon fill="#bfbfbf" stroke="#bfbfbf" points="198.4,-983.5 198.4,-983.5 355.4,-983.5 355.4,-983.5 198.4,-983.5"/>
<polygon fill="#bfbfbf" stroke="#bfbfbf" points="198.4,-968.5 198.4,-968.5 355.4,-968.5 355.4,-968.5 198.4,-968.5"/>
<polygon fill="none" stroke="#bfbfbf" points="197.9,-951.5 197.9,-1011.5 354.9,-1011.5 354.9,-951.5 197.9,-951.5"/>
</a>
</g>
</g>
<!-- Node6&#45;&gt;Node3 -->
<g id="edge5_Node000003_Node000006" class="edge">
<title>Node6&#45;&gt;Node3</title>
<g id="a_edge5_Node000003_Node000006"><a xlink:title=" ">
<path fill="none" stroke="#63b8ff" d="M255.01,-951.5C228.77,-912.3 189.81,-840.06 207.4,-777 208,-774.87 208.64,-772.73 209.33,-770.6"/>
<polygon fill="none" stroke="#63b8ff" points="209.35,-770.54 207.61,-763.54 213.39,-759.24 215.14,-766.24 209.35,-770.54"/>
</a>
</g>
<text text-anchor="middle" x="271.9" y="-796.5" font-family="Helvetica,sans-Serif" font-size="10.00" fill="grey"> #mpIntracellularStimulus</text>
</g>
<!-- Node7 -->
<g id="Node000007" class="node">
<title>Node7</title>
<g id="a_Node000007"><a xlink:href="classbool.html" target="_top" xlink:title=" ">
<polygon fill="white" stroke="transparent" points="684.4,-1006 652.4,-1006 652.4,-957 684.4,-957 684.4,-1006"/>
<text text-anchor="start" x="657.4" y="-993.5" font-family="Helvetica,sans-Serif" font-size="10.00">bool</text>
<text text-anchor="start" x="666.4" y="-978.5" font-family="Helvetica,sans-Serif" font-size="10.00"> </text>
<text text-anchor="start" x="666.4" y="-963.5" font-family="Helvetica,sans-Serif" font-size="10.00"> </text>
<polygon fill="#bfbfbf" stroke="#bfbfbf" points="652.4,-988.5 652.4,-988.5 684.4,-988.5 684.4,-988.5 652.4,-988.5"/>
<polygon fill="#bfbfbf" stroke="#bfbfbf" points="652.4,-973.5 652.4,-973.5 684.4,-973.5 684.4,-973.5 652.4,-973.5"/>
<polygon fill="none" stroke="#bfbfbf" points="652.4,-957 652.4,-1006 684.4,-1006 684.4,-957 652.4,-957"/>
</a>
</g>
</g>
<!-- Node7&#45;&gt;Node1 -->
<g id="edge20_Node000001_Node000007" class="edge">
<title>Node7&#45;&gt;Node1</title>
<g id="a_edge20_Node000001_Node000007"><a xlink:title=" ">
<path fill="none" stroke="#63b8ff" d="M666.53,-956.75C665.44,-925.22 668.67,-869.95 700.4,-839 729.61,-810.52 755.22,-841.64 790.4,-821 821.67,-802.66 830.35,-792.82 843.4,-759 861.35,-712.5 863.5,-417.78 863.16,-244.25"/>
<polygon fill="none" stroke="#63b8ff" points="863.16,-244.23 859.14,-238.24 863.13,-232.23 867.14,-238.22 863.16,-244.23"/>
</a>
</g>
<text text-anchor="middle" x="920.9" y="-519" font-family="Helvetica,sans-Serif" font-size="10.00" fill="grey"> #mHasAnalyticJacobian</text>
</g>
<!-- Node7&#45;&gt;Node3 -->
<g id="edge6_Node000003_Node000007" class="edge">
<title>Node7&#45;&gt;Node3</title>
<g id="a_edge6_Node000003_Node000007"><a xlink:title=" ">
<path fill="none" stroke="#63b8ff" d="M652.4,-958.93C629.27,-928.94 583.92,-874.32 535.4,-839 520.3,-828 513.21,-830.97 497.4,-821 471.22,-804.48 467.67,-796.22 443.4,-777 423.35,-761.11 401.74,-744.28 381.06,-728.3"/>
<polygon fill="none" stroke="#63b8ff" points="380.82,-728.12 373.63,-727.62 371.32,-720.79 378.51,-721.28 380.82,-728.12"/>
</a>
</g>
<text text-anchor="start" x="497.4" y="-813" font-family="Helvetica,sans-Serif" font-size="10.00" fill="grey"> #mHasDefaultStimulusFrom</text>
<text text-anchor="middle" x="574.9" y="-802" font-family="Helvetica,sans-Serif" font-size="10.00" fill="grey">CellML</text>
<text text-anchor="middle" x="574.9" y="-791" font-family="Helvetica,sans-Serif" font-size="10.00" fill="grey">#mIsUsedInTissue</text>
<text text-anchor="middle" x="574.9" y="-780" font-family="Helvetica,sans-Serif" font-size="10.00" fill="grey">#mSetVoltageDerivativeToZero</text>
</g>
<!-- Node9 -->
<g id="Node000009" class="node">
<title>Node9</title>
<g id="a_Node000009"><a xlink:href="classAbstractOdeSystem.html" target="_top" xlink:title=" ">
<polygon fill="white" stroke="transparent" points="834.4,-736.5 686.4,-736.5 686.4,-567.5 834.4,-567.5 834.4,-736.5"/>
<text text-anchor="start" x="711.9" y="-724" font-family="Helvetica,sans-Serif" font-size="10.00">AbstractOdeSystem</text>
<text text-anchor="start" x="758.4" y="-709" font-family="Helvetica,sans-Serif" font-size="10.00"> </text>
<text text-anchor="start" x="690.4" y="-694" font-family="Helvetica,sans-Serif" font-size="10.00">+</text>
<text text-anchor="start" x="703.4" y="-694" font-family="Helvetica,sans-Serif" font-size="10.00">AbstractOdeSystem()</text>
<text text-anchor="start" x="690.4" y="-679" font-family="Helvetica,sans-Serif" font-size="10.00">+</text>
<text text-anchor="start" x="703.4" y="-679" font-family="Helvetica,sans-Serif" font-size="10.00">~AbstractOdeSystem()</text>
<text text-anchor="start" x="690.4" y="-664" font-family="Helvetica,sans-Serif" font-size="10.00">+</text>
<text text-anchor="start" x="703.4" y="-664" font-family="Helvetica,sans-Serif" font-size="10.00">EvaluateYDerivatives()</text>
<text text-anchor="start" x="690.4" y="-649" font-family="Helvetica,sans-Serif" font-size="10.00">+</text>
<text text-anchor="start" x="703.4" y="-649" font-family="Helvetica,sans-Serif" font-size="10.00">CalculateStoppingEvent()</text>
<text text-anchor="start" x="690.4" y="-634" font-family="Helvetica,sans-Serif" font-size="10.00">+</text>
<text text-anchor="start" x="703.4" y="-634" font-family="Helvetica,sans-Serif" font-size="10.00">CalculateRootFunction()</text>
<text text-anchor="start" x="690.4" y="-619" font-family="Helvetica,sans-Serif" font-size="10.00">+</text>
<text text-anchor="start" x="703.4" y="-619" font-family="Helvetica,sans-Serif" font-size="10.00">GetUseAnalyticJacobian()</text>
<text text-anchor="start" x="690.4" y="-604" font-family="Helvetica,sans-Serif" font-size="10.00">+</text>
<text text-anchor="start" x="703.4" y="-604" font-family="Helvetica,sans-Serif" font-size="10.00">rGetConstStateVariables()</text>
<text text-anchor="start" x="692.9" y="-589" font-family="Helvetica,sans-Serif" font-size="10.00">&#45;</text>
<text text-anchor="start" x="703.4" y="-589" font-family="Helvetica,sans-Serif" font-size="10.00">save()</text>
<text text-anchor="start" x="692.9" y="-574" font-family="Helvetica,sans-Serif" font-size="10.00">&#45;</text>
<text text-anchor="start" x="703.4" y="-574" font-family="Helvetica,sans-Serif" font-size="10.00">load()</text>
<polygon fill="#666666" stroke="#666666" points="686.4,-719 686.4,-719 834.4,-719 834.4,-719 686.4,-719"/>
<polygon fill="#666666" stroke="#666666" points="686.4,-704 686.4,-704 834.4,-704 834.4,-704 686.4,-704"/>
<polygon fill="none" stroke="#666666" points="686.4,-567.5 686.4,-736.5 834.4,-736.5 834.4,-567.5 686.4,-567.5"/>
</a>
</g>
</g>
<!-- Node7&#45;&gt;Node9 -->
<g id="edge17_Node000009_Node000007" class="edge">
<title>Node7&#45;&gt;Node9</title>
<g id="a_edge17_Node000009_Node000007"><a xlink:title=" ">
<path fill="none" stroke="#63b8ff" d="M663.06,-956.82C655.39,-918.04 644.36,-839.07 665.4,-777 669.05,-766.23 674.06,-755.66 679.87,-745.52"/>
<polygon fill="none" stroke="#63b8ff" points="679.97,-745.36 679.67,-738.16 686.21,-735.11 686.5,-742.31 679.97,-745.36"/>
</a>
</g>
<text text-anchor="middle" x="725.9" y="-796.5" font-family="Helvetica,sans-Serif" font-size="10.00" fill="grey"> #mUseAnalyticJacobian</text>
</g>
<!-- Node8 -->
<g id="Node000008" class="node">
<title>Node8</title>
<g id="a_Node000008"><a xlink:href="classdouble.html" target="_top" xlink:title=" ">
<polygon fill="white" stroke="transparent" points="526.4,-1006 482.4,-1006 482.4,-957 526.4,-957 526.4,-1006"/>
<text text-anchor="start" x="487.4" y="-993.5" font-family="Helvetica,sans-Serif" font-size="10.00">double</text>
<text text-anchor="start" x="502.4" y="-978.5" font-family="Helvetica,sans-Serif" font-size="10.00"> </text>
<text text-anchor="start" x="502.4" y="-963.5" font-family="Helvetica,sans-Serif" font-size="10.00"> </text>
<polygon fill="#bfbfbf" stroke="#bfbfbf" points="482.4,-988.5 482.4,-988.5 526.4,-988.5 526.4,-988.5 482.4,-988.5"/>
<polygon fill="#bfbfbf" stroke="#bfbfbf" points="482.4,-973.5 482.4,-973.5 526.4,-973.5 526.4,-973.5 482.4,-973.5"/>
<polygon fill="none" stroke="#bfbfbf" points="482.4,-957 482.4,-1006 526.4,-1006 526.4,-957 482.4,-957"/>
</a>
</g>
</g>
<!-- Node8&#45;&gt;Node2 -->
<g id="edge18_Node000002_Node000008" class="edge">
<title>Node8&#45;&gt;Node2</title>
<g id="a_edge18_Node000002_Node000008"><a xlink:title=" ">
<path fill="none" stroke="#63b8ff" d="M526.76,-958.62C554.47,-929.92 600.58,-876.65 621.4,-821 664.54,-705.71 621.19,-665.88 644.4,-545 646.61,-533.52 649.32,-521.7 652.34,-509.92"/>
<polygon fill="none" stroke="#63b8ff" points="652.38,-509.77 650.05,-502.95 655.45,-498.17 657.78,-504.99 652.38,-509.77"/>
</a>
</g>
<text text-anchor="middle" x="660.9" y="-649.5" font-family="Helvetica,sans-Serif" font-size="10.00" fill="grey"> #mDt</text>
</g>
<!-- Node8&#45;&gt;Node3 -->
<g id="edge7_Node000003_Node000008" class="edge">
<title>Node8&#45;&gt;Node3</title>
<g id="a_edge7_Node000003_Node000008"><a xlink:title=" ">
<path fill="none" stroke="#63b8ff" d="M482.19,-960.34C451.57,-931.67 396.02,-876.42 359.4,-821 355.67,-815.34 346.01,-795.12 334.74,-770.56"/>
<polygon fill="none" stroke="#63b8ff" points="334.64,-770.32 328.51,-766.53 329.65,-759.41 335.78,-763.2 334.64,-770.32"/>
</a>
</g>
<text text-anchor="middle" x="401.4" y="-796.5" font-family="Helvetica,sans-Serif" font-size="10.00" fill="grey"> #mFixedVoltage</text>
</g>
<!-- Node9&#45;&gt;Node2 -->
<g id="edge8_Node000002_Node000009" class="edge">
<title>Node9&#45;&gt;Node2</title>
<g id="a_edge8_Node000002_Node000009"><a xlink:title=" ">
<path fill="none" stroke="#63b8ff" d="M736.89,-557.49C732.07,-538.3 726.94,-517.89 721.96,-498.08"/>
<polygon fill="none" stroke="#63b8ff" points="733.55,-558.56 739.39,-567.41 740.34,-556.86 733.55,-558.56"/>
</a>
</g>
</g>
<!-- Node10 -->
<g id="Node000010" class="node">
<title>Node10</title>
<g id="a_Node000010"><a xlink:href="classAbstractParameterisedSystem.html" target="_top" xlink:title=" ">
<polygon fill="white" stroke="transparent" points="885.9,-1124 708.9,-1124 708.9,-839 885.9,-839 885.9,-1124"/>
<text text-anchor="start" x="723.9" y="-1111.5" font-family="Helvetica,sans-Serif" font-size="10.00">AbstractParameterisedSystem</text>
<text text-anchor="start" x="732.9" y="-1100.5" font-family="Helvetica,sans-Serif" font-size="10.00">&lt; std::vector&lt; double &gt; &gt;</text>
<text text-anchor="start" x="795.9" y="-1085.5" font-family="Helvetica,sans-Serif" font-size="10.00"> </text>
<text text-anchor="start" x="713.4" y="-1070.5" font-family="Helvetica,sans-Serif" font-size="10.00">+</text>
<text text-anchor="start" x="726.4" y="-1070.5" font-family="Helvetica,sans-Serif" font-size="10.00">AbstractParameterisedSystem()</text>
<text text-anchor="start" x="713.4" y="-1055.5" font-family="Helvetica,sans-Serif" font-size="10.00">+</text>
<text text-anchor="start" x="726.4" y="-1055.5" font-family="Helvetica,sans-Serif" font-size="10.00">rGetStateVariables()</text>
<text text-anchor="start" x="713.4" y="-1040.5" font-family="Helvetica,sans-Serif" font-size="10.00">+</text>
<text text-anchor="start" x="726.4" y="-1040.5" font-family="Helvetica,sans-Serif" font-size="10.00">GetStateVariables()</text>
<text text-anchor="start" x="713.4" y="-1025.5" font-family="Helvetica,sans-Serif" font-size="10.00">+</text>
<text text-anchor="start" x="726.4" y="-1025.5" font-family="Helvetica,sans-Serif" font-size="10.00">SetStateVariables()</text>
<text text-anchor="start" x="713.4" y="-1010.5" font-family="Helvetica,sans-Serif" font-size="10.00">+</text>
<text text-anchor="start" x="726.4" y="-1010.5" font-family="Helvetica,sans-Serif" font-size="10.00">GetStateVariable()</text>
<text text-anchor="start" x="713.4" y="-995.5" font-family="Helvetica,sans-Serif" font-size="10.00">+</text>
<text text-anchor="start" x="726.4" y="-995.5" font-family="Helvetica,sans-Serif" font-size="10.00">GetStateVariable()</text>
<text text-anchor="start" x="713.4" y="-980.5" font-family="Helvetica,sans-Serif" font-size="10.00">+</text>
<text text-anchor="start" x="726.4" y="-980.5" font-family="Helvetica,sans-Serif" font-size="10.00">SetStateVariable()</text>
<text text-anchor="start" x="713.4" y="-965.5" font-family="Helvetica,sans-Serif" font-size="10.00">+</text>
<text text-anchor="start" x="726.4" y="-965.5" font-family="Helvetica,sans-Serif" font-size="10.00">SetStateVariable()</text>
<text text-anchor="start" x="713.4" y="-950.5" font-family="Helvetica,sans-Serif" font-size="10.00">+</text>
<text text-anchor="start" x="726.4" y="-950.5" font-family="Helvetica,sans-Serif" font-size="10.00">VerifyStateVariables()</text>
<text text-anchor="start" x="713.4" y="-935.5" font-family="Helvetica,sans-Serif" font-size="10.00">+</text>
<text text-anchor="start" x="726.4" y="-935.5" font-family="Helvetica,sans-Serif" font-size="10.00">SetDefaultInitialConditions()</text>
<text text-anchor="start" x="726.4" y="-920.5" font-family="Helvetica,sans-Serif" font-size="10.00">and 13 more...</text>
<text text-anchor="start" x="713.4" y="-905.5" font-family="Helvetica,sans-Serif" font-size="10.00">#</text>
<text text-anchor="start" x="726.4" y="-905.5" font-family="Helvetica,sans-Serif" font-size="10.00">DumpState()</text>
<text text-anchor="start" x="713.4" y="-890.5" font-family="Helvetica,sans-Serif" font-size="10.00">#</text>
<text text-anchor="start" x="726.4" y="-890.5" font-family="Helvetica,sans-Serif" font-size="10.00">DumpState()</text>
<text text-anchor="start" x="713.4" y="-875.5" font-family="Helvetica,sans-Serif" font-size="10.00">#</text>
<text text-anchor="start" x="726.4" y="-875.5" font-family="Helvetica,sans-Serif" font-size="10.00">DumpState()</text>
<text text-anchor="start" x="713.4" y="-860.5" font-family="Helvetica,sans-Serif" font-size="10.00">#</text>
<text text-anchor="start" x="726.4" y="-860.5" font-family="Helvetica,sans-Serif" font-size="10.00">CheckParametersOnLoad()</text>
<text text-anchor="start" x="715.9" y="-845.5" font-family="Helvetica,sans-Serif" font-size="10.00">&#45;</text>
<text text-anchor="start" x="726.4" y="-845.5" font-family="Helvetica,sans-Serif" font-size="10.00">GetStateMessage()</text>
<polygon fill="#666666" stroke="#666666" points="709.4,-1095.5 709.4,-1095.5 886.4,-1095.5 886.4,-1095.5 709.4,-1095.5"/>
<polygon fill="#666666" stroke="#666666" points="709.4,-1080.5 709.4,-1080.5 886.4,-1080.5 886.4,-1080.5 709.4,-1080.5"/>
<polygon fill="none" stroke="#666666" points="708.9,-839 708.9,-1124 885.9,-1124 885.9,-839 708.9,-839"/>
</a>
</g>
</g>
<!-- Node10&#45;&gt;Node9 -->
<g id="edge9_Node000009_Node000010" class="edge">
<title>Node10&#45;&gt;Node9</title>
<g id="a_edge9_Node000009_Node000010"><a xlink:title=" ">
<path fill="none" stroke="#63b8ff" d="M795.57,-828.69C794.36,-811.22 792.68,-793.69 790.4,-777 788.6,-763.83 786,-750.03 783.07,-736.6"/>
<polygon fill="none" stroke="#63b8ff" points="792.1,-829.21 796.24,-838.96 799.09,-828.76 792.1,-829.21"/>
</a>
</g>
</g>
<!-- Node11&#45;&gt;Node10 -->
<g id="edge10_Node000010_Node000011" class="edge">
<title>Node11&#45;&gt;Node10</title>
<g id="a_edge10_Node000010_Node000011"><a xlink:title=" ">
<path fill="none" stroke="#63b8ff" d="M650.92,-1514.51C646.9,-1420.96 649.43,-1291.06 681.4,-1182 688.05,-1159.32 697.8,-1136.49 708.86,-1114.8"/>
<polygon fill="none" stroke="#63b8ff" points="647.43,-1514.76 651.39,-1524.59 654.42,-1514.44 647.43,-1514.76"/>
</a>
</g>
</g>
<!-- Node14 -->
<g id="Node000014" class="node">
<title>Node14</title>
<g id="a_Node000014"><a xlink:href="classAbstractParameterisedSystem.html" target="_top" xlink:title=" ">
<polygon fill="white" stroke="transparent" points="981.9,-1467 804.9,-1467 804.9,-1182 981.9,-1182 981.9,-1467"/>
<text text-anchor="start" x="819.9" y="-1454.5" font-family="Helvetica,sans-Serif" font-size="10.00">AbstractParameterisedSystem</text>
<text text-anchor="start" x="862.4" y="-1443.5" font-family="Helvetica,sans-Serif" font-size="10.00">&lt; VECTOR &gt;</text>
<text text-anchor="start" x="891.9" y="-1428.5" font-family="Helvetica,sans-Serif" font-size="10.00"> </text>
<text text-anchor="start" x="809.4" y="-1413.5" font-family="Helvetica,sans-Serif" font-size="10.00">+</text>
<text text-anchor="start" x="822.4" y="-1413.5" font-family="Helvetica,sans-Serif" font-size="10.00">AbstractParameterisedSystem()</text>
<text text-anchor="start" x="809.4" y="-1398.5" font-family="Helvetica,sans-Serif" font-size="10.00">+</text>
<text text-anchor="start" x="822.4" y="-1398.5" font-family="Helvetica,sans-Serif" font-size="10.00">rGetStateVariables()</text>
<text text-anchor="start" x="809.4" y="-1383.5" font-family="Helvetica,sans-Serif" font-size="10.00">+</text>
<text text-anchor="start" x="822.4" y="-1383.5" font-family="Helvetica,sans-Serif" font-size="10.00">GetStateVariables()</text>
<text text-anchor="start" x="809.4" y="-1368.5" font-family="Helvetica,sans-Serif" font-size="10.00">+</text>
<text text-anchor="start" x="822.4" y="-1368.5" font-family="Helvetica,sans-Serif" font-size="10.00">SetStateVariables()</text>
<text text-anchor="start" x="809.4" y="-1353.5" font-family="Helvetica,sans-Serif" font-size="10.00">+</text>
<text text-anchor="start" x="822.4" y="-1353.5" font-family="Helvetica,sans-Serif" font-size="10.00">GetStateVariable()</text>
<text text-anchor="start" x="809.4" y="-1338.5" font-family="Helvetica,sans-Serif" font-size="10.00">+</text>
<text text-anchor="start" x="822.4" y="-1338.5" font-family="Helvetica,sans-Serif" font-size="10.00">GetStateVariable()</text>
<text text-anchor="start" x="809.4" y="-1323.5" font-family="Helvetica,sans-Serif" font-size="10.00">+</text>
<text text-anchor="start" x="822.4" y="-1323.5" font-family="Helvetica,sans-Serif" font-size="10.00">SetStateVariable()</text>
<text text-anchor="start" x="809.4" y="-1308.5" font-family="Helvetica,sans-Serif" font-size="10.00">+</text>
<text text-anchor="start" x="822.4" y="-1308.5" font-family="Helvetica,sans-Serif" font-size="10.00">SetStateVariable()</text>
<text text-anchor="start" x="809.4" y="-1293.5" font-family="Helvetica,sans-Serif" font-size="10.00">+</text>
<text text-anchor="start" x="822.4" y="-1293.5" font-family="Helvetica,sans-Serif" font-size="10.00">VerifyStateVariables()</text>
<text text-anchor="start" x="809.4" y="-1278.5" font-family="Helvetica,sans-Serif" font-size="10.00">+</text>
<text text-anchor="start" x="822.4" y="-1278.5" font-family="Helvetica,sans-Serif" font-size="10.00">SetDefaultInitialConditions()</text>
<text text-anchor="start" x="822.4" y="-1263.5" font-family="Helvetica,sans-Serif" font-size="10.00">and 13 more...</text>
<text text-anchor="start" x="809.4" y="-1248.5" font-family="Helvetica,sans-Serif" font-size="10.00">#</text>
<text text-anchor="start" x="822.4" y="-1248.5" font-family="Helvetica,sans-Serif" font-size="10.00">DumpState()</text>
<text text-anchor="start" x="809.4" y="-1233.5" font-family="Helvetica,sans-Serif" font-size="10.00">#</text>
<text text-anchor="start" x="822.4" y="-1233.5" font-family="Helvetica,sans-Serif" font-size="10.00">DumpState()</text>
<text text-anchor="start" x="809.4" y="-1218.5" font-family="Helvetica,sans-Serif" font-size="10.00">#</text>
<text text-anchor="start" x="822.4" y="-1218.5" font-family="Helvetica,sans-Serif" font-size="10.00">DumpState()</text>
<text text-anchor="start" x="809.4" y="-1203.5" font-family="Helvetica,sans-Serif" font-size="10.00">#</text>
<text text-anchor="start" x="822.4" y="-1203.5" font-family="Helvetica,sans-Serif" font-size="10.00">CheckParametersOnLoad()</text>
<text text-anchor="start" x="811.9" y="-1188.5" font-family="Helvetica,sans-Serif" font-size="10.00">&#45;</text>
<text text-anchor="start" x="822.4" y="-1188.5" font-family="Helvetica,sans-Serif" font-size="10.00">GetStateMessage()</text>
<polygon fill="#666666" stroke="#666666" points="805.4,-1438.5 805.4,-1438.5 982.4,-1438.5 982.4,-1438.5 805.4,-1438.5"/>
<polygon fill="#666666" stroke="#666666" points="805.4,-1423.5 805.4,-1423.5 982.4,-1423.5 982.4,-1423.5 805.4,-1423.5"/>
<polygon fill="none" stroke="#666666" points="804.9,-1182 804.9,-1467 981.9,-1467 981.9,-1182 804.9,-1182"/>
</a>
</g>
</g>
<!-- Node11&#45;&gt;Node14 -->
<g id="edge15_Node000014_Node000011" class="edge">
<title>Node11&#45;&gt;Node14</title>
<g id="a_edge15_Node000014_Node000011"><a xlink:title=" ">
<path fill="none" stroke="#63b8ff" d="M759.05,-1516.77C771.78,-1500.16 784.51,-1483.25 796.4,-1467 799.13,-1463.27 801.88,-1459.48 804.65,-1455.64"/>
<polygon fill="none" stroke="#63b8ff" points="756.13,-1514.84 752.81,-1524.9 761.68,-1519.1 756.13,-1514.84"/>
</a>
</g>
</g>
<!-- Node12 -->
<g id="Node000012" class="node">
<title>Node12</title>
<g id="a_Node000012"><a xlink:title=" ">
<polygon fill="white" stroke="transparent" points="746.4,-1864 576.4,-1864 576.4,-1804 746.4,-1804 746.4,-1864"/>
<text text-anchor="start" x="581.4" y="-1852" font-family="Helvetica,sans-Serif" font-size="10.00">shared_ptr&lt; AbstractOdeSystem</text>
<text text-anchor="start" x="626.9" y="-1841" font-family="Helvetica,sans-Serif" font-size="10.00">Information &gt;</text>
<text text-anchor="start" x="659.4" y="-1826" font-family="Helvetica,sans-Serif" font-size="10.00"> </text>
<text text-anchor="start" x="659.4" y="-1811" font-family="Helvetica,sans-Serif" font-size="10.00"> </text>
<polygon fill="#bfbfbf" stroke="#bfbfbf" points="576.4,-1836 576.4,-1836 746.4,-1836 746.4,-1836 576.4,-1836"/>
<polygon fill="#bfbfbf" stroke="#bfbfbf" points="576.4,-1821 576.4,-1821 746.4,-1821 746.4,-1821 576.4,-1821"/>
<polygon fill="none" stroke="#bfbfbf" points="576.4,-1804 576.4,-1864 746.4,-1864 746.4,-1804 576.4,-1804"/>
</a>
</g>
</g>
<!-- Node12&#45;&gt;Node11 -->
<g id="edge12_Node000011_Node000012" class="edge">
<title>Node12&#45;&gt;Node11</title>
<g id="a_edge12_Node000011_Node000012"><a xlink:title=" ">
<path fill="none" stroke="#63b8ff" d="M661.4,-1803.99C661.4,-1794.11 661.4,-1782.33 661.4,-1769.71"/>
<polygon fill="none" stroke="#63b8ff" points="661.4,-1769.38 657.4,-1763.38 661.4,-1757.38 665.4,-1763.38 661.4,-1769.38"/>
</a>
</g>
<text text-anchor="middle" x="702.9" y="-1778" font-family="Helvetica,sans-Serif" font-size="10.00" fill="grey"> #mpSystemInfo</text>
</g>
<!-- Node13 -->
<g id="Node000013" class="node">
<title>Node13</title>
<g id="a_Node000013"><a xlink:title=" ">
<polygon fill="white" stroke="transparent" points="786.9,-1349 689.9,-1349 689.9,-1300 786.9,-1300 786.9,-1349"/>
<text text-anchor="start" x="695.4" y="-1336.5" font-family="Helvetica,sans-Serif" font-size="10.00">vector&lt; double &gt;</text>
<text text-anchor="start" x="736.9" y="-1321.5" font-family="Helvetica,sans-Serif" font-size="10.00"> </text>
<text text-anchor="start" x="736.9" y="-1306.5" font-family="Helvetica,sans-Serif" font-size="10.00"> </text>
<polygon fill="#bfbfbf" stroke="#bfbfbf" points="690.4,-1331.5 690.4,-1331.5 787.4,-1331.5 787.4,-1331.5 690.4,-1331.5"/>
<polygon fill="#bfbfbf" stroke="#bfbfbf" points="690.4,-1316.5 690.4,-1316.5 787.4,-1316.5 787.4,-1316.5 690.4,-1316.5"/>
<polygon fill="none" stroke="#bfbfbf" points="689.9,-1300 689.9,-1349 786.9,-1349 786.9,-1300 689.9,-1300"/>
</a>
</g>
</g>
<!-- Node13&#45;&gt;Node1 -->
<g id="edge19_Node000001_Node000013" class="edge">
<title>Node13&#45;&gt;Node1</title>
<g id="a_edge19_Node000001_Node000013"><a xlink:title=" ">
<path fill="none" stroke="#63b8ff" d="M740.71,-1299.94C745.24,-1267.58 758.46,-1210.17 796.4,-1182 830.1,-1156.98 955,-1193.95 984.4,-1164 1041.08,-1106.26 998.4,-1063.41 998.4,-982.5 998.4,-982.5 998.4,-982.5 998.4,-382.5 998.4,-333.8 980.05,-285.06 956.84,-242.87"/>
<polygon fill="none" stroke="#63b8ff" points="956.76,-242.73 950.32,-239.48 950.84,-232.29 957.28,-235.54 956.76,-242.73"/>
</a>
</g>
<text text-anchor="middle" x="1025.9" y="-660.5" font-family="Helvetica,sans-Serif" font-size="10.00" fill="grey"> #mEvalF</text>
<text text-anchor="middle" x="1025.9" y="-649.5" font-family="Helvetica,sans-Serif" font-size="10.00" fill="grey">#mPartialF</text>
<text text-anchor="middle" x="1025.9" y="-638.5" font-family="Helvetica,sans-Serif" font-size="10.00" fill="grey">#mYInit</text>
</g>
<!-- Node13&#45;&gt;Node10 -->
<g id="edge13_Node000010_Node000013" class="edge">
<title>Node13&#45;&gt;Node10</title>
<g id="a_edge13_Node000010_Node000013"><a xlink:title=" ">
<path fill="none" stroke="#63b8ff" d="M735.97,-1299.77C732.97,-1264.88 729.41,-1197.83 739.4,-1142 739.77,-1139.96 740.16,-1137.9 740.57,-1135.85"/>
<polygon fill="none" stroke="#63b8ff" points="740.6,-1135.72 737.97,-1129.01 743.16,-1124 745.79,-1130.72 740.6,-1135.72"/>
</a>
</g>
<text text-anchor="middle" x="783.9" y="-1156" font-family="Helvetica,sans-Serif" font-size="10.00" fill="grey"> #mParameters</text>
<text text-anchor="middle" x="783.9" y="-1145" font-family="Helvetica,sans-Serif" font-size="10.00" fill="grey">#mStateVariables</text>
</g>
<!-- Node14&#45;&gt;Node10 -->
<g id="edge14_Node000010_Node000014" class="edge">
<title>Node14&#45;&gt;Node10</title>
<g id="a_edge14_Node000010_Node000014"><a xlink:title=" ">
<path fill="none" stroke="orange" d="M850.75,-1172C846.28,-1156.12 841.75,-1140.02 837.31,-1124.26"/>
<polygon fill="orange" stroke="orange" points="847.44,-1173.17 853.52,-1181.85 854.18,-1171.27 847.44,-1173.17"/>
</a>
</g>
<text text-anchor="middle" x="913.9" y="-1150.5" font-family="Helvetica,sans-Serif" font-size="10.00" fill="grey"> &lt; std::vector&lt; double &gt; &gt;</text>
</g>
<!-- Node15 -->
<g id="Node000015" class="node">
<title>Node15</title>
<g id="a_Node000015"><a xlink:title=" ">
<polygon fill="white" stroke="transparent" points="918.4,-1665.5 868.4,-1665.5 868.4,-1616.5 918.4,-1616.5 918.4,-1665.5"/>
<text text-anchor="start" x="873.4" y="-1653" font-family="Helvetica,sans-Serif" font-size="10.00">VECTOR</text>
<text text-anchor="start" x="891.4" y="-1638" font-family="Helvetica,sans-Serif" font-size="10.00"> </text>
<text text-anchor="start" x="891.4" y="-1623" font-family="Helvetica,sans-Serif" font-size="10.00"> </text>
<polygon fill="#bfbfbf" stroke="#bfbfbf" points="868.4,-1648 868.4,-1648 918.4,-1648 918.4,-1648 868.4,-1648"/>
<polygon fill="#bfbfbf" stroke="#bfbfbf" points="868.4,-1633 868.4,-1633 918.4,-1633 918.4,-1633 868.4,-1633"/>
<polygon fill="none" stroke="#bfbfbf" points="868.4,-1616.5 868.4,-1665.5 918.4,-1665.5 918.4,-1616.5 868.4,-1616.5"/>
</a>
</g>
</g>
<!-- Node15&#45;&gt;Node14 -->
<g id="edge16_Node000014_Node000015" class="edge">
<title>Node15&#45;&gt;Node14</title>
<g id="a_edge16_Node000014_Node000015"><a xlink:title=" ">
<path fill="none" stroke="#63b8ff" d="M893.4,-1616.36C893.4,-1586.55 893.4,-1532.7 893.4,-1479.38"/>
<polygon fill="none" stroke="#63b8ff" points="893.4,-1479.3 889.4,-1473.3 893.4,-1467.3 897.4,-1473.3 893.4,-1479.3"/>
</a>
</g>
<text text-anchor="middle" x="937.9" y="-1499" font-family="Helvetica,sans-Serif" font-size="10.00" fill="grey"> #mParameters</text>
<text text-anchor="middle" x="937.9" y="-1488" font-family="Helvetica,sans-Serif" font-size="10.00" fill="grey">#mStateVariables</text>
</g>
</g>
</svg>
