<?xml version="1.0" encoding="UTF-8" standalone="no"?>
<!DOCTYPE svg PUBLIC "-//W3C//DTD SVG 1.1//EN"
 "http://www.w3.org/Graphics/SVG/1.1/DTD/svg11.dtd">
<!-- Generated by graphviz version 2.43.0 (0)
 -->
<!-- Title: OdeSolution Pages: 1 -->
<svg width="634pt" height="325pt"
 viewBox="0.00 0.00 633.50 325.00" xmlns="http://www.w3.org/2000/svg" xmlns:xlink="http://www.w3.org/1999/xlink">
<g id="graph0" class="graph" transform="scale(1 1) rotate(0) translate(4 321)">
<title>OdeSolution</title>
<!-- Node1 -->
<g id="Node000001" class="node">
<title>Node1</title>
<g id="a_Node000001"><a xlink:title=" ">
<polygon fill="#999999" stroke="transparent" points="355.5,-199 197.5,-199 197.5,0 355.5,0 355.5,-199"/>
<text text-anchor="start" x="246.5" y="-186.5" font-family="Helvetica,sans-Serif" font-size="10.00">OdeSolution</text>
<text text-anchor="start" x="274.5" y="-171.5" font-family="Helvetica,sans-Serif" font-size="10.00"> </text>
<text text-anchor="start" x="201.5" y="-156.5" font-family="Helvetica,sans-Serif" font-size="10.00">+</text>
<text text-anchor="start" x="214.5" y="-156.5" font-family="Helvetica,sans-Serif" font-size="10.00">OdeSolution()</text>
<text text-anchor="start" x="201.5" y="-141.5" font-family="Helvetica,sans-Serif" font-size="10.00">+</text>
<text text-anchor="start" x="214.5" y="-141.5" font-family="Helvetica,sans-Serif" font-size="10.00">GetNumberOfTimeSteps()</text>
<text text-anchor="start" x="201.5" y="-126.5" font-family="Helvetica,sans-Serif" font-size="10.00">+</text>
<text text-anchor="start" x="214.5" y="-126.5" font-family="Helvetica,sans-Serif" font-size="10.00">SetNumberOfTimeSteps()</text>
<text text-anchor="start" x="201.5" y="-111.5" font-family="Helvetica,sans-Serif" font-size="10.00">+</text>
<text text-anchor="start" x="214.5" y="-111.5" font-family="Helvetica,sans-Serif" font-size="10.00">SetOdeSystemInformation()</text>
<text text-anchor="start" x="201.5" y="-96.5" font-family="Helvetica,sans-Serif" font-size="10.00">+</text>
<text text-anchor="start" x="214.5" y="-96.5" font-family="Helvetica,sans-Serif" font-size="10.00">GetVariableAtIndex()</text>
<text text-anchor="start" x="201.5" y="-81.5" font-family="Helvetica,sans-Serif" font-size="10.00">+</text>
<text text-anchor="start" x="214.5" y="-81.5" font-family="Helvetica,sans-Serif" font-size="10.00">GetAnyVariable()</text>
<text text-anchor="start" x="201.5" y="-66.5" font-family="Helvetica,sans-Serif" font-size="10.00">+</text>
<text text-anchor="start" x="214.5" y="-66.5" font-family="Helvetica,sans-Serif" font-size="10.00">rGetTimes()</text>
<text text-anchor="start" x="201.5" y="-51.5" font-family="Helvetica,sans-Serif" font-size="10.00">+</text>
<text text-anchor="start" x="214.5" y="-51.5" font-family="Helvetica,sans-Serif" font-size="10.00">rGetTimes()</text>
<text text-anchor="start" x="201.5" y="-36.5" font-family="Helvetica,sans-Serif" font-size="10.00">+</text>
<text text-anchor="start" x="214.5" y="-36.5" font-family="Helvetica,sans-Serif" font-size="10.00">rGetSolutions()</text>
<text text-anchor="start" x="201.5" y="-21.5" font-family="Helvetica,sans-Serif" font-size="10.00">+</text>
<text text-anchor="start" x="214.5" y="-21.5" font-family="Helvetica,sans-Serif" font-size="10.00">rGetSolutions()</text>
<text text-anchor="start" x="214.5" y="-6.5" font-family="Helvetica,sans-Serif" font-size="10.00">and 7 more...</text>
<polygon fill="#666666" stroke="#666666" points="197.5,-181.5 197.5,-181.5 355.5,-181.5 355.5,-181.5 197.5,-181.5"/>
<polygon fill="#666666" stroke="#666666" points="197.5,-166.5 197.5,-166.5 355.5,-166.5 355.5,-166.5 197.5,-166.5"/>
<polygon fill="none" stroke="#666666" points="197.5,0 197.5,-199 355.5,-199 355.5,0 197.5,0"/>
</a>
</g>
</g>
<!-- Node2 -->
<g id="Node000002" class="node">
<title>Node2</title>
<g id="a_Node000002"><a xlink:href="classunsigned.html" target="_top" xlink:title=" ">
<polygon fill="white" stroke="transparent" points="55,-311.5 0,-311.5 0,-262.5 55,-262.5 55,-311.5"/>
<text text-anchor="start" x="5.5" y="-299" font-family="Helvetica,sans-Serif" font-size="10.00">unsigned</text>
<text text-anchor="start" x="26" y="-284" font-family="Helvetica,sans-Serif" font-size="10.00"> </text>
<text text-anchor="start" x="26" y="-269" font-family="Helvetica,sans-Serif" font-size="10.00"> </text>
<polygon fill="#bfbfbf" stroke="#bfbfbf" points="0.5,-294 0.5,-294 55.5,-294 55.5,-294 0.5,-294"/>
<polygon fill="#bfbfbf" stroke="#bfbfbf" points="0.5,-279 0.5,-279 55.5,-279 55.5,-279 0.5,-279"/>
<polygon fill="none" stroke="#bfbfbf" points="0,-262.5 0,-311.5 55,-311.5 55,-262.5 0,-262.5"/>
</a>
</g>
</g>
<!-- Node2&#45;&gt;Node1 -->
<g id="edge1_Node000001_Node000002" class="edge">
<title>Node2&#45;&gt;Node1</title>
<g id="a_edge1_Node000001_Node000002"><a xlink:title=" ">
<path fill="none" stroke="#63b8ff" d="M36.11,-262.42C42.29,-247.97 51.78,-229.85 64.5,-217 98.73,-182.41 145.41,-155.27 186.25,-135.91"/>
<polygon fill="none" stroke="#63b8ff" points="186.44,-135.83 190.2,-129.68 197.33,-130.79 193.56,-136.94 186.44,-135.83"/>
</a>
</g>
<text text-anchor="middle" x="124" y="-225.5" font-family="Helvetica,sans-Serif" font-size="10.00" fill="grey"> &#45;mNumberOfTimeSteps</text>
</g>
<!-- Node3 -->
<g id="Node000003" class="node">
<title>Node3</title>
<g id="a_Node000003"><a xlink:title=" ">
<polygon fill="white" stroke="transparent" points="212,-311.5 115,-311.5 115,-262.5 212,-262.5 212,-311.5"/>
<text text-anchor="start" x="120.5" y="-299" font-family="Helvetica,sans-Serif" font-size="10.00">vector&lt; double &gt;</text>
<text text-anchor="start" x="162" y="-284" font-family="Helvetica,sans-Serif" font-size="10.00"> </text>
<text text-anchor="start" x="162" y="-269" font-family="Helvetica,sans-Serif" font-size="10.00"> </text>
<polygon fill="#bfbfbf" stroke="#bfbfbf" points="115.5,-294 115.5,-294 212.5,-294 212.5,-294 115.5,-294"/>
<polygon fill="#bfbfbf" stroke="#bfbfbf" points="115.5,-279 115.5,-279 212.5,-279 212.5,-279 115.5,-279"/>
<polygon fill="none" stroke="#bfbfbf" points="115,-262.5 115,-311.5 212,-311.5 212,-262.5 115,-262.5"/>
</a>
</g>
</g>
<!-- Node3&#45;&gt;Node1 -->
<g id="edge2_Node000001_Node000003" class="edge">
<title>Node3&#45;&gt;Node1</title>
<g id="a_edge2_Node000001_Node000003"><a xlink:title=" ">
<path fill="none" stroke="#63b8ff" d="M175.08,-262.36C181.86,-248.88 190.79,-231.78 199.5,-217 200.95,-214.53 202.44,-212.04 203.95,-209.54"/>
<polygon fill="none" stroke="#63b8ff" points="204.01,-209.45 203.72,-202.24 210.26,-199.21 210.55,-206.41 204.01,-209.45"/>
</a>
</g>
<text text-anchor="middle" x="236" y="-231" font-family="Helvetica,sans-Serif" font-size="10.00" fill="grey"> &#45;mParameters</text>
<text text-anchor="middle" x="236" y="-220" font-family="Helvetica,sans-Serif" font-size="10.00" fill="grey">&#45;mTimes</text>
</g>
<!-- Node4 -->
<g id="Node000004" class="node">
<title>Node4</title>
<g id="a_Node000004"><a xlink:title=" ">
<polygon fill="white" stroke="transparent" points="334.5,-317 230.5,-317 230.5,-257 334.5,-257 334.5,-317"/>
<text text-anchor="start" x="235.5" y="-305" font-family="Helvetica,sans-Serif" font-size="10.00">vector&lt; std::vector</text>
<text text-anchor="start" x="249" y="-294" font-family="Helvetica,sans-Serif" font-size="10.00">&lt; double &gt; &gt;</text>
<text text-anchor="start" x="280.5" y="-279" font-family="Helvetica,sans-Serif" font-size="10.00"> </text>
<text text-anchor="start" x="280.5" y="-264" font-family="Helvetica,sans-Serif" font-size="10.00"> </text>
<polygon fill="#bfbfbf" stroke="#bfbfbf" points="230.5,-289 230.5,-289 334.5,-289 334.5,-289 230.5,-289"/>
<polygon fill="#bfbfbf" stroke="#bfbfbf" points="230.5,-274 230.5,-274 334.5,-274 334.5,-274 230.5,-274"/>
<polygon fill="none" stroke="#bfbfbf" points="230.5,-257 230.5,-317 334.5,-317 334.5,-257 230.5,-257"/>
</a>
</g>
</g>
<!-- Node4&#45;&gt;Node1 -->
<g id="edge3_Node000001_Node000004" class="edge">
<title>Node4&#45;&gt;Node1</title>
<g id="a_edge3_Node000001_Node000004"><a xlink:title=" ">
<path fill="none" stroke="#63b8ff" d="M278.96,-256.95C278.36,-251.02 277.83,-244.82 277.5,-239 276.99,-230.07 276.61,-220.81 276.33,-211.51"/>
<polygon fill="none" stroke="#63b8ff" points="276.33,-211.27 272.18,-205.37 276.02,-199.27 280.17,-205.17 276.33,-211.27"/>
</a>
</g>
<text text-anchor="middle" x="330.5" y="-231" font-family="Helvetica,sans-Serif" font-size="10.00" fill="grey"> &#45;mDerivedQuantities</text>
<text text-anchor="middle" x="330.5" y="-220" font-family="Helvetica,sans-Serif" font-size="10.00" fill="grey">&#45;mSolutions</text>
</g>
<!-- Node5 -->
<g id="Node000005" class="node">
<title>Node5</title>
<g id="a_Node000005"><a xlink:title=" ">
<polygon fill="white" stroke="transparent" points="424.5,-311.5 386.5,-311.5 386.5,-262.5 424.5,-262.5 424.5,-311.5"/>
<text text-anchor="start" x="391.5" y="-299" font-family="Helvetica,sans-Serif" font-size="10.00">string</text>
<text text-anchor="start" x="403.5" y="-284" font-family="Helvetica,sans-Serif" font-size="10.00"> </text>
<text text-anchor="start" x="403.5" y="-269" font-family="Helvetica,sans-Serif" font-size="10.00"> </text>
<polygon fill="#bfbfbf" stroke="#bfbfbf" points="386.5,-294 386.5,-294 424.5,-294 424.5,-294 386.5,-294"/>
<polygon fill="#bfbfbf" stroke="#bfbfbf" points="386.5,-279 386.5,-279 424.5,-279 424.5,-279 386.5,-279"/>
<polygon fill="none" stroke="#bfbfbf" points="386.5,-262.5 386.5,-311.5 424.5,-311.5 424.5,-262.5 386.5,-262.5"/>
</a>
</g>
</g>
<!-- Node5&#45;&gt;Node1 -->
<g id="edge4_Node000001_Node000005" class="edge">
<title>Node5&#45;&gt;Node1</title>
<g id="a_edge4_Node000001_Node000005"><a xlink:title=" ">
<path fill="none" stroke="#63b8ff" d="M400.64,-262.26C397.16,-248.44 391.64,-231.03 383.5,-217 377.61,-206.85 370.7,-196.83 363.28,-187.2"/>
<polygon fill="none" stroke="#63b8ff" points="363.19,-187.08 356.32,-184.89 355.71,-177.7 362.57,-179.9 363.19,-187.08"/>
</a>
</g>
<text text-anchor="middle" x="431" y="-225.5" font-family="Helvetica,sans-Serif" font-size="10.00" fill="grey"> &#45;mSolverName</text>
</g>
<!-- Node6 -->
<g id="Node000006" class="node">
<title>Node6</title>
<g id="a_Node000006"><a xlink:title=" ">
<polygon fill="white" stroke="transparent" points="586,-317 443,-317 443,-257 586,-257 586,-317"/>
<text text-anchor="start" x="448.5" y="-305" font-family="Helvetica,sans-Serif" font-size="10.00">shared_ptr&lt; const Abstract</text>
<text text-anchor="start" x="452.5" y="-294" font-family="Helvetica,sans-Serif" font-size="10.00">OdeSystemInformation &gt;</text>
<text text-anchor="start" x="513" y="-279" font-family="Helvetica,sans-Serif" font-size="10.00"> </text>
<text text-anchor="start" x="513" y="-264" font-family="Helvetica,sans-Serif" font-size="10.00"> </text>
<polygon fill="#bfbfbf" stroke="#bfbfbf" points="443.5,-289 443.5,-289 586.5,-289 586.5,-289 443.5,-289"/>
<polygon fill="#bfbfbf" stroke="#bfbfbf" points="443.5,-274 443.5,-274 586.5,-274 586.5,-274 443.5,-274"/>
<polygon fill="none" stroke="#bfbfbf" points="443,-257 443,-317 586,-317 586,-257 443,-257"/>
</a>
</g>
</g>
<!-- Node6&#45;&gt;Node1 -->
<g id="edge5_Node000001_Node000006" class="edge">
<title>Node6&#45;&gt;Node1</title>
<g id="a_edge5_Node000001_Node000006"><a xlink:title=" ">
<path fill="none" stroke="#63b8ff" d="M501.39,-256.91C494.43,-243.66 484.94,-228.42 473.5,-217 442.91,-186.48 402.76,-160.86 366.69,-141.5"/>
<polygon fill="none" stroke="#63b8ff" points="366.27,-141.27 359.1,-142.02 355.65,-135.69 362.82,-134.94 366.27,-141.27"/>
</a>
</g>
<text text-anchor="middle" x="557.5" y="-225.5" font-family="Helvetica,sans-Serif" font-size="10.00" fill="grey"> &#45;mpOdeSystemInformation</text>
</g>
</g>
</svg>
