<?xml version="1.0" encoding="UTF-8" standalone="no"?>
<!DOCTYPE svg PUBLIC "-//W3C//DTD SVG 1.1//EN"
 "http://www.w3.org/Graphics/SVG/1.1/DTD/svg11.dtd">
<!-- Generated by graphviz version 2.43.0 (0)
 -->
<!-- Title: AbstractCardiacMechanicsSolver&lt; ELASTICITY_SOLVER, DIM &gt; Pages: 1 -->
<svg width="1965pt" height="778pt"
 viewBox="0.00 0.00 1964.50 778.00" xmlns="http://www.w3.org/2000/svg" xmlns:xlink="http://www.w3.org/1999/xlink">
<g id="graph0" class="graph" transform="scale(1 1) rotate(0) translate(4 774)">
<title>AbstractCardiacMechanicsSolver&lt; ELASTICITY_SOLVER, DIM &gt;</title>
<!-- Node1 -->
<g id="Node000001" class="node">
<title>Node1</title>
<g id="a_Node000001"><a xlink:title=" ">
<polygon fill="#999999" stroke="transparent" points="978.5,-362 788.5,-362 788.5,0 978.5,0 978.5,-362"/>
<text text-anchor="start" x="811.5" y="-350" font-family="Helvetica,sans-Serif" font-size="10.00">AbstractCardiacMechanics</text>
<text text-anchor="start" x="811.5" y="-339" font-family="Helvetica,sans-Serif" font-size="10.00">Solver&lt; ELASTICITY_SOLVER,</text>
<text text-anchor="start" x="866.5" y="-328" font-family="Helvetica,sans-Serif" font-size="10.00"> DIM &gt;</text>
<text text-anchor="start" x="881.5" y="-313" font-family="Helvetica,sans-Serif" font-size="10.00"> </text>
<text text-anchor="start" x="792.5" y="-298" font-family="Helvetica,sans-Serif" font-size="10.00">+</text>
<text text-anchor="start" x="805.5" y="-298" font-family="Helvetica,sans-Serif" font-size="10.00">AbstractCardiacMechanics</text>
<text text-anchor="start" x="805.5" y="-287" font-family="Helvetica,sans-Serif" font-size="10.00">Solver()</text>
<text text-anchor="start" x="792.5" y="-272" font-family="Helvetica,sans-Serif" font-size="10.00">+</text>
<text text-anchor="start" x="805.5" y="-272" font-family="Helvetica,sans-Serif" font-size="10.00">~AbstractCardiacMechanics</text>
<text text-anchor="start" x="805.5" y="-261" font-family="Helvetica,sans-Serif" font-size="10.00">Solver()</text>
<text text-anchor="start" x="792.5" y="-246" font-family="Helvetica,sans-Serif" font-size="10.00">+</text>
<text text-anchor="start" x="805.5" y="-246" font-family="Helvetica,sans-Serif" font-size="10.00">SetFineCoarseMeshPair()</text>
<text text-anchor="start" x="792.5" y="-231" font-family="Helvetica,sans-Serif" font-size="10.00">+</text>
<text text-anchor="start" x="805.5" y="-231" font-family="Helvetica,sans-Serif" font-size="10.00">GetTotalNumQuadPoints()</text>
<text text-anchor="start" x="792.5" y="-216" font-family="Helvetica,sans-Serif" font-size="10.00">+</text>
<text text-anchor="start" x="805.5" y="-216" font-family="Helvetica,sans-Serif" font-size="10.00">GetQuadratureRule()</text>
<text text-anchor="start" x="792.5" y="-201" font-family="Helvetica,sans-Serif" font-size="10.00">+</text>
<text text-anchor="start" x="805.5" y="-201" font-family="Helvetica,sans-Serif" font-size="10.00">rGetQuadPointToDataAtQuad</text>
<text text-anchor="start" x="805.5" y="-190" font-family="Helvetica,sans-Serif" font-size="10.00">PointMap()</text>
<text text-anchor="start" x="792.5" y="-175" font-family="Helvetica,sans-Serif" font-size="10.00">+</text>
<text text-anchor="start" x="805.5" y="-175" font-family="Helvetica,sans-Serif" font-size="10.00">SetConstantFibreSheetDirections()</text>
<text text-anchor="start" x="792.5" y="-160" font-family="Helvetica,sans-Serif" font-size="10.00">+</text>
<text text-anchor="start" x="805.5" y="-160" font-family="Helvetica,sans-Serif" font-size="10.00">SetVariableFibreSheetDirections()</text>
<text text-anchor="start" x="792.5" y="-145" font-family="Helvetica,sans-Serif" font-size="10.00">+</text>
<text text-anchor="start" x="805.5" y="-145" font-family="Helvetica,sans-Serif" font-size="10.00">SetCalciumAndVoltage()</text>
<text text-anchor="start" x="792.5" y="-130" font-family="Helvetica,sans-Serif" font-size="10.00">+</text>
<text text-anchor="start" x="805.5" y="-130" font-family="Helvetica,sans-Serif" font-size="10.00">Solve()</text>
<text text-anchor="start" x="792.5" y="-115" font-family="Helvetica,sans-Serif" font-size="10.00">+</text>
<text text-anchor="start" x="805.5" y="-115" font-family="Helvetica,sans-Serif" font-size="10.00">ComputeDeformationGradient</text>
<text text-anchor="start" x="805.5" y="-104" font-family="Helvetica,sans-Serif" font-size="10.00">AndStretchInEachElement()</text>
<text text-anchor="start" x="792.5" y="-89" font-family="Helvetica,sans-Serif" font-size="10.00">#</text>
<text text-anchor="start" x="805.5" y="-89" font-family="Helvetica,sans-Serif" font-size="10.00">IsImplicitSolver()</text>
<text text-anchor="start" x="792.5" y="-74" font-family="Helvetica,sans-Serif" font-size="10.00">#</text>
<text text-anchor="start" x="805.5" y="-74" font-family="Helvetica,sans-Serif" font-size="10.00">AddActiveStressAndStress</text>
<text text-anchor="start" x="805.5" y="-63" font-family="Helvetica,sans-Serif" font-size="10.00">Derivative()</text>
<text text-anchor="start" x="792.5" y="-48" font-family="Helvetica,sans-Serif" font-size="10.00">#</text>
<text text-anchor="start" x="805.5" y="-48" font-family="Helvetica,sans-Serif" font-size="10.00">SetupChangeOfBasisMatrix()</text>
<text text-anchor="start" x="792.5" y="-33" font-family="Helvetica,sans-Serif" font-size="10.00">#</text>
<text text-anchor="start" x="805.5" y="-33" font-family="Helvetica,sans-Serif" font-size="10.00">Initialise()</text>
<text text-anchor="start" x="792.5" y="-18" font-family="Helvetica,sans-Serif" font-size="10.00">#</text>
<text text-anchor="start" x="805.5" y="-18" font-family="Helvetica,sans-Serif" font-size="10.00">GetActiveTensionAndTension</text>
<text text-anchor="start" x="805.5" y="-7" font-family="Helvetica,sans-Serif" font-size="10.00">Derivs()</text>
<polygon fill="#666666" stroke="#666666" points="788.5,-323 788.5,-323 978.5,-323 978.5,-323 788.5,-323"/>
<polygon fill="#666666" stroke="#666666" points="788.5,-308 788.5,-308 978.5,-308 978.5,-308 788.5,-308"/>
<polygon fill="none" stroke="#666666" points="788.5,0 788.5,-362 978.5,-362 978.5,0 788.5,0"/>
</a>
</g>
</g>
<!-- Node2 -->
<g id="Node000002" class="node">
<title>Node2</title>
<g id="a_Node000002"><a xlink:href="classELASTICITY__SOLVER.html" target="_top" xlink:title=" ">
<polygon fill="white" stroke="transparent" points="109,-577 0,-577 0,-528 109,-528 109,-577"/>
<text text-anchor="start" x="5.5" y="-564.5" font-family="Helvetica,sans-Serif" font-size="10.00">ELASTICITY_SOLVER</text>
<text text-anchor="start" x="53" y="-549.5" font-family="Helvetica,sans-Serif" font-size="10.00"> </text>
<text text-anchor="start" x="53" y="-534.5" font-family="Helvetica,sans-Serif" font-size="10.00"> </text>
<polygon fill="#bfbfbf" stroke="#bfbfbf" points="0.5,-559.5 0.5,-559.5 109.5,-559.5 109.5,-559.5 0.5,-559.5"/>
<polygon fill="#bfbfbf" stroke="#bfbfbf" points="0.5,-544.5 0.5,-544.5 109.5,-544.5 109.5,-544.5 0.5,-544.5"/>
<polygon fill="none" stroke="#bfbfbf" points="0,-528 0,-577 109,-577 109,-528 0,-528"/>
</a>
</g>
</g>
<!-- Node2&#45;&gt;Node1 -->
<g id="edge1_Node000001_Node000002" class="edge">
<title>Node2&#45;&gt;Node1</title>
<g id="a_edge1_Node000001_Node000002"><a xlink:title=" ">
<path fill="none" stroke="#63b8ff" d="M64.54,-517.82C74.23,-490.78 91.48,-453.7 118.5,-431 317.69,-263.69 631.97,-208.03 788.44,-190.12"/>
<polygon fill="none" stroke="#63b8ff" points="61.1,-517.05 61.19,-527.65 67.73,-519.31 61.1,-517.05"/>
</a>
</g>
</g>
<!-- Node3 -->
<g id="Node000003" class="node">
<title>Node3</title>
<g id="a_Node000003"><a xlink:href="classAbstractCardiacMechanicsSolverInterface.html" target="_top" xlink:title=" ">
<polygon fill="white" stroke="transparent" points="317.5,-674 127.5,-674 127.5,-431 317.5,-431 317.5,-674"/>
<text text-anchor="start" x="157.5" y="-661.5" font-family="Helvetica,sans-Serif" font-size="10.00">AbstractCardiacMechanics</text>
<text text-anchor="start" x="164" y="-650.5" font-family="Helvetica,sans-Serif" font-size="10.00">SolverInterface&lt; DIM &gt;</text>
<text text-anchor="start" x="220.5" y="-635.5" font-family="Helvetica,sans-Serif" font-size="10.00"> </text>
<text text-anchor="start" x="131.5" y="-620.5" font-family="Helvetica,sans-Serif" font-size="10.00">+</text>
<text text-anchor="start" x="144.5" y="-620.5" font-family="Helvetica,sans-Serif" font-size="10.00">AbstractCardiacMechanics</text>
<text text-anchor="start" x="144.5" y="-609.5" font-family="Helvetica,sans-Serif" font-size="10.00">SolverInterface()</text>
<text text-anchor="start" x="131.5" y="-594.5" font-family="Helvetica,sans-Serif" font-size="10.00">+</text>
<text text-anchor="start" x="144.5" y="-594.5" font-family="Helvetica,sans-Serif" font-size="10.00">~AbstractCardiacMechanics</text>
<text text-anchor="start" x="144.5" y="-583.5" font-family="Helvetica,sans-Serif" font-size="10.00">SolverInterface()</text>
<text text-anchor="start" x="131.5" y="-568.5" font-family="Helvetica,sans-Serif" font-size="10.00">+</text>
<text text-anchor="start" x="144.5" y="-568.5" font-family="Helvetica,sans-Serif" font-size="10.00">GetTotalNumQuadPoints()</text>
<text text-anchor="start" x="131.5" y="-553.5" font-family="Helvetica,sans-Serif" font-size="10.00">+</text>
<text text-anchor="start" x="144.5" y="-553.5" font-family="Helvetica,sans-Serif" font-size="10.00">GetQuadratureRule()</text>
<text text-anchor="start" x="131.5" y="-538.5" font-family="Helvetica,sans-Serif" font-size="10.00">+</text>
<text text-anchor="start" x="144.5" y="-538.5" font-family="Helvetica,sans-Serif" font-size="10.00">Initialise()</text>
<text text-anchor="start" x="131.5" y="-523.5" font-family="Helvetica,sans-Serif" font-size="10.00">+</text>
<text text-anchor="start" x="144.5" y="-523.5" font-family="Helvetica,sans-Serif" font-size="10.00">SetFineCoarseMeshPair()</text>
<text text-anchor="start" x="131.5" y="-508.5" font-family="Helvetica,sans-Serif" font-size="10.00">+</text>
<text text-anchor="start" x="144.5" y="-508.5" font-family="Helvetica,sans-Serif" font-size="10.00">SetConstantFibreSheetDirections()</text>
<text text-anchor="start" x="131.5" y="-493.5" font-family="Helvetica,sans-Serif" font-size="10.00">+</text>
<text text-anchor="start" x="144.5" y="-493.5" font-family="Helvetica,sans-Serif" font-size="10.00">SetVariableFibreSheetDirections()</text>
<text text-anchor="start" x="131.5" y="-478.5" font-family="Helvetica,sans-Serif" font-size="10.00">+</text>
<text text-anchor="start" x="144.5" y="-478.5" font-family="Helvetica,sans-Serif" font-size="10.00">SetCalciumAndVoltage()</text>
<text text-anchor="start" x="131.5" y="-463.5" font-family="Helvetica,sans-Serif" font-size="10.00">+</text>
<text text-anchor="start" x="144.5" y="-463.5" font-family="Helvetica,sans-Serif" font-size="10.00">Solve()</text>
<text text-anchor="start" x="131.5" y="-448.5" font-family="Helvetica,sans-Serif" font-size="10.00">+</text>
<text text-anchor="start" x="144.5" y="-448.5" font-family="Helvetica,sans-Serif" font-size="10.00">ComputeDeformationGradient</text>
<text text-anchor="start" x="144.5" y="-437.5" font-family="Helvetica,sans-Serif" font-size="10.00">AndStretchInEachElement()</text>
<polygon fill="#666666" stroke="#666666" points="127.5,-645.5 127.5,-645.5 317.5,-645.5 317.5,-645.5 127.5,-645.5"/>
<polygon fill="#666666" stroke="#666666" points="127.5,-630.5 127.5,-630.5 317.5,-630.5 317.5,-630.5 127.5,-630.5"/>
<polygon fill="none" stroke="#666666" points="127.5,-431 127.5,-674 317.5,-674 317.5,-431 127.5,-431"/>
</a>
</g>
</g>
<!-- Node3&#45;&gt;Node1 -->
<g id="edge2_Node000001_Node000003" class="edge">
<title>Node3&#45;&gt;Node1</title>
<g id="a_edge2_Node000001_Node000003"><a xlink:title=" ">
<path fill="none" stroke="#63b8ff" d="M305.06,-423C318.91,-407.15 334.14,-392.25 350.5,-380 484.64,-279.57 675.24,-225.27 788.44,-200.08"/>
<polygon fill="none" stroke="#63b8ff" points="302.2,-420.96 298.38,-430.84 307.53,-425.5 302.2,-420.96"/>
</a>
</g>
</g>
<!-- Node4 -->
<g id="Node000004" class="node">
<title>Node4</title>
<g id="a_Node000004"><a xlink:href="classunsigned.html" target="_top" xlink:title=" ">
<polygon fill="white" stroke="transparent" points="391,-577 336,-577 336,-528 391,-528 391,-577"/>
<text text-anchor="start" x="341.5" y="-564.5" font-family="Helvetica,sans-Serif" font-size="10.00">unsigned</text>
<text text-anchor="start" x="362" y="-549.5" font-family="Helvetica,sans-Serif" font-size="10.00"> </text>
<text text-anchor="start" x="362" y="-534.5" font-family="Helvetica,sans-Serif" font-size="10.00"> </text>
<polygon fill="#bfbfbf" stroke="#bfbfbf" points="336.5,-559.5 336.5,-559.5 391.5,-559.5 391.5,-559.5 336.5,-559.5"/>
<polygon fill="#bfbfbf" stroke="#bfbfbf" points="336.5,-544.5 336.5,-544.5 391.5,-544.5 391.5,-544.5 336.5,-544.5"/>
<polygon fill="none" stroke="#bfbfbf" points="336,-528 336,-577 391,-577 391,-528 336,-528"/>
</a>
</g>
</g>
<!-- Node4&#45;&gt;Node1 -->
<g id="edge3_Node000001_Node000004" class="edge">
<title>Node4&#45;&gt;Node1</title>
<g id="a_edge3_Node000001_Node000004"><a xlink:title=" ">
<path fill="none" stroke="#63b8ff" d="M356.83,-527.86C348.28,-492.21 338.04,-424.16 369.5,-380 462.71,-249.17 654.91,-204.78 776.05,-189.73"/>
<polygon fill="none" stroke="#63b8ff" points="776.36,-189.69 781.85,-185.01 788.28,-188.28 782.79,-192.96 776.36,-189.69"/>
</a>
</g>
<text text-anchor="middle" x="451" y="-399.5" font-family="Helvetica,sans-Serif" font-size="10.00" fill="grey"> #NUM_VERTICES_PER_ELEMENT</text>
<text text-anchor="middle" x="451" y="-388.5" font-family="Helvetica,sans-Serif" font-size="10.00" fill="grey">#mTotalQuadPoints</text>
</g>
<!-- Node5 -->
<g id="Node000005" class="node">
<title>Node5</title>
<g id="a_Node000005"><a xlink:title=" ">
<polygon fill="white" stroke="transparent" points="615.5,-582.5 433.5,-582.5 433.5,-522.5 615.5,-522.5 615.5,-582.5"/>
<text text-anchor="start" x="438.5" y="-570.5" font-family="Helvetica,sans-Serif" font-size="10.00">map&lt; unsigned, DataAtQuadrature</text>
<text text-anchor="start" x="503.5" y="-559.5" font-family="Helvetica,sans-Serif" font-size="10.00">Point_ &gt;</text>
<text text-anchor="start" x="522.5" y="-544.5" font-family="Helvetica,sans-Serif" font-size="10.00"> </text>
<text text-anchor="start" x="522.5" y="-529.5" font-family="Helvetica,sans-Serif" font-size="10.00"> </text>
<polygon fill="#bfbfbf" stroke="#bfbfbf" points="433.5,-554.5 433.5,-554.5 615.5,-554.5 615.5,-554.5 433.5,-554.5"/>
<polygon fill="#bfbfbf" stroke="#bfbfbf" points="433.5,-539.5 433.5,-539.5 615.5,-539.5 615.5,-539.5 433.5,-539.5"/>
<polygon fill="none" stroke="#bfbfbf" points="433.5,-522.5 433.5,-582.5 615.5,-582.5 615.5,-522.5 433.5,-522.5"/>
</a>
</g>
</g>
<!-- Node5&#45;&gt;Node1 -->
<g id="edge4_Node000001_Node000005" class="edge">
<title>Node5&#45;&gt;Node1</title>
<g id="a_edge4_Node000001_Node000005"><a xlink:title=" ">
<path fill="none" stroke="#63b8ff" d="M521.95,-522.41C520.24,-485.97 522.37,-423.07 551.5,-380 605.05,-300.81 701.79,-248.45 777.08,-217.57"/>
<polygon fill="none" stroke="#63b8ff" points="777.36,-217.46 781.44,-211.51 788.5,-212.99 784.42,-218.94 777.36,-217.46"/>
</a>
</g>
<text text-anchor="middle" x="645" y="-394" font-family="Helvetica,sans-Serif" font-size="10.00" fill="grey"> #mQuadPointToDataAtQuadPointMap</text>
</g>
<!-- Node6 -->
<g id="Node000006" class="node">
<title>Node6</title>
<g id="a_Node000006"><a xlink:title=" ">
<polygon fill="white" stroke="transparent" points="758,-577 711,-577 711,-528 758,-528 758,-577"/>
<text text-anchor="start" x="716.5" y="-564.5" font-family="Helvetica,sans-Serif" font-size="10.00">iterator</text>
<text text-anchor="start" x="733" y="-549.5" font-family="Helvetica,sans-Serif" font-size="10.00"> </text>
<text text-anchor="start" x="733" y="-534.5" font-family="Helvetica,sans-Serif" font-size="10.00"> </text>
<polygon fill="#bfbfbf" stroke="#bfbfbf" points="711.5,-559.5 711.5,-559.5 758.5,-559.5 758.5,-559.5 711.5,-559.5"/>
<polygon fill="#bfbfbf" stroke="#bfbfbf" points="711.5,-544.5 711.5,-544.5 758.5,-544.5 758.5,-544.5 711.5,-544.5"/>
<polygon fill="none" stroke="#bfbfbf" points="711,-528 711,-577 758,-577 758,-528 711,-528"/>
</a>
</g>
</g>
<!-- Node6&#45;&gt;Node1 -->
<g id="edge5_Node000001_Node000006" class="edge">
<title>Node6&#45;&gt;Node1</title>
<g id="a_edge5_Node000001_Node000006"><a xlink:title=" ">
<path fill="none" stroke="#63b8ff" d="M733.29,-527.97C732.34,-494.18 733.47,-430.43 751.5,-380 759.35,-358.04 770.16,-336.13 782.24,-315.32"/>
<polygon fill="none" stroke="#63b8ff" points="782.33,-315.18 781.96,-307.98 788.47,-304.88 788.83,-312.08 782.33,-315.18"/>
</a>
</g>
<text text-anchor="middle" x="791" y="-394" font-family="Helvetica,sans-Serif" font-size="10.00" fill="grey"> #mMapIterator</text>
</g>
<!-- Node7 -->
<g id="Node000007" class="node">
<title>Node7</title>
<g id="a_Node000007"><a xlink:title=" ">
<polygon fill="white" stroke="transparent" points="891,-582.5 782,-582.5 782,-522.5 891,-522.5 891,-582.5"/>
<text text-anchor="start" x="787.5" y="-570.5" font-family="Helvetica,sans-Serif" font-size="10.00">FineCoarseMeshPair</text>
<text text-anchor="start" x="811.5" y="-559.5" font-family="Helvetica,sans-Serif" font-size="10.00">&lt; DIM &gt; *</text>
<text text-anchor="start" x="835" y="-544.5" font-family="Helvetica,sans-Serif" font-size="10.00"> </text>
<text text-anchor="start" x="835" y="-529.5" font-family="Helvetica,sans-Serif" font-size="10.00"> </text>
<polygon fill="#bfbfbf" stroke="#bfbfbf" points="782.5,-554.5 782.5,-554.5 891.5,-554.5 891.5,-554.5 782.5,-554.5"/>
<polygon fill="#bfbfbf" stroke="#bfbfbf" points="782.5,-539.5 782.5,-539.5 891.5,-539.5 891.5,-539.5 782.5,-539.5"/>
<polygon fill="none" stroke="#bfbfbf" points="782,-522.5 782,-582.5 891,-582.5 891,-522.5 782,-522.5"/>
</a>
</g>
</g>
<!-- Node7&#45;&gt;Node1 -->
<g id="edge6_Node000001_Node000007" class="edge">
<title>Node7&#45;&gt;Node1</title>
<g id="a_edge6_Node000001_Node000007"><a xlink:title=" ">
<path fill="none" stroke="#63b8ff" d="M834.7,-522.25C833.05,-488.01 831.66,-429.68 837.5,-380 837.73,-378.07 837.96,-376.14 838.21,-374.2"/>
<polygon fill="none" stroke="#63b8ff" points="838.23,-374.07 835.09,-367.58 839.87,-362.19 843.01,-368.68 838.23,-374.07"/>
</a>
</g>
<text text-anchor="middle" x="873.5" y="-394" font-family="Helvetica,sans-Serif" font-size="10.00" fill="grey"> #mpMeshPair</text>
</g>
<!-- Node8 -->
<g id="Node000008" class="node">
<title>Node8</title>
<g id="a_Node000008"><a xlink:href="classdouble.html" target="_top" xlink:title=" ">
<polygon fill="white" stroke="transparent" points="953.5,-577 909.5,-577 909.5,-528 953.5,-528 953.5,-577"/>
<text text-anchor="start" x="914.5" y="-564.5" font-family="Helvetica,sans-Serif" font-size="10.00">double</text>
<text text-anchor="start" x="929.5" y="-549.5" font-family="Helvetica,sans-Serif" font-size="10.00"> </text>
<text text-anchor="start" x="929.5" y="-534.5" font-family="Helvetica,sans-Serif" font-size="10.00"> </text>
<polygon fill="#bfbfbf" stroke="#bfbfbf" points="909.5,-559.5 909.5,-559.5 953.5,-559.5 953.5,-559.5 909.5,-559.5"/>
<polygon fill="#bfbfbf" stroke="#bfbfbf" points="909.5,-544.5 909.5,-544.5 953.5,-544.5 953.5,-544.5 909.5,-544.5"/>
<polygon fill="none" stroke="#bfbfbf" points="909.5,-528 909.5,-577 953.5,-577 953.5,-528 909.5,-528"/>
</a>
</g>
</g>
<!-- Node8&#45;&gt;Node1 -->
<g id="edge7_Node000001_Node000008" class="edge">
<title>Node8&#45;&gt;Node1</title>
<g id="a_edge7_Node000001_Node000008"><a xlink:title=" ">
<path fill="none" stroke="#63b8ff" d="M928.5,-527.92C924.28,-494.85 916.36,-432.84 909.5,-380 909.25,-378.08 909,-376.15 908.75,-374.22"/>
<polygon fill="none" stroke="#63b8ff" points="908.74,-374.11 903.99,-368.68 907.19,-362.21 911.93,-367.65 908.74,-374.11"/>
</a>
</g>
<text text-anchor="middle" x="955.5" y="-405" font-family="Helvetica,sans-Serif" font-size="10.00" fill="grey"> #mCurrentTime</text>
<text text-anchor="middle" x="955.5" y="-394" font-family="Helvetica,sans-Serif" font-size="10.00" fill="grey">#mNextTime</text>
<text text-anchor="middle" x="955.5" y="-383" font-family="Helvetica,sans-Serif" font-size="10.00" fill="grey">#mOdeTimestep</text>
</g>
<!-- Node9 -->
<g id="Node000009" class="node">
<title>Node9</title>
<g id="a_Node000009"><a xlink:title=" ">
<polygon fill="white" stroke="transparent" points="1101.5,-582.5 975.5,-582.5 975.5,-522.5 1101.5,-522.5 1101.5,-582.5"/>
<text text-anchor="start" x="980.5" y="-570.5" font-family="Helvetica,sans-Serif" font-size="10.00">c_matrix&lt; double, DIM,</text>
<text text-anchor="start" x="1021.5" y="-559.5" font-family="Helvetica,sans-Serif" font-size="10.00"> DIM &gt;</text>
<text text-anchor="start" x="1036.5" y="-544.5" font-family="Helvetica,sans-Serif" font-size="10.00"> </text>
<text text-anchor="start" x="1036.5" y="-529.5" font-family="Helvetica,sans-Serif" font-size="10.00"> </text>
<polygon fill="#bfbfbf" stroke="#bfbfbf" points="975.5,-554.5 975.5,-554.5 1101.5,-554.5 1101.5,-554.5 975.5,-554.5"/>
<polygon fill="#bfbfbf" stroke="#bfbfbf" points="975.5,-539.5 975.5,-539.5 1101.5,-539.5 1101.5,-539.5 975.5,-539.5"/>
<polygon fill="none" stroke="#bfbfbf" points="975.5,-522.5 975.5,-582.5 1101.5,-582.5 1101.5,-522.5 975.5,-522.5"/>
</a>
</g>
</g>
<!-- Node9&#45;&gt;Node1 -->
<g id="edge8_Node000001_Node000009" class="edge">
<title>Node9&#45;&gt;Node1</title>
<g id="a_edge8_Node000001_Node000009"><a xlink:title=" ">
<path fill="none" stroke="#63b8ff" d="M1035.16,-522.45C1030.5,-487.65 1020.41,-428.04 1001.5,-380 996.38,-366.98 990.45,-353.83 984.04,-340.81"/>
<polygon fill="none" stroke="#63b8ff" points="983.95,-340.64 977.68,-337.08 978.55,-329.92 984.82,-333.48 983.95,-340.64"/>
</a>
</g>
<text text-anchor="middle" x="1094.5" y="-394" font-family="Helvetica,sans-Serif" font-size="10.00" fill="grey"> #mConstantFibreSheetDirections</text>
</g>
<!-- Node10 -->
<g id="Node000010" class="node">
<title>Node10</title>
<g id="a_Node000010"><a xlink:title=" ">
<polygon fill="white" stroke="transparent" points="1065,-770 1012,-770 1012,-721 1065,-721 1065,-770"/>
<text text-anchor="start" x="1017.5" y="-757.5" font-family="Helvetica,sans-Serif" font-size="10.00">c_matrix</text>
<text text-anchor="start" x="1037" y="-742.5" font-family="Helvetica,sans-Serif" font-size="10.00"> </text>
<text text-anchor="start" x="1037" y="-727.5" font-family="Helvetica,sans-Serif" font-size="10.00"> </text>
<polygon fill="#bfbfbf" stroke="#bfbfbf" points="1012.5,-752.5 1012.5,-752.5 1065.5,-752.5 1065.5,-752.5 1012.5,-752.5"/>
<polygon fill="#bfbfbf" stroke="#bfbfbf" points="1012.5,-737.5 1012.5,-737.5 1065.5,-737.5 1065.5,-737.5 1012.5,-737.5"/>
<polygon fill="none" stroke="#bfbfbf" points="1012,-721 1012,-770 1065,-770 1065,-721 1012,-721"/>
</a>
</g>
</g>
<!-- Node10&#45;&gt;Node9 -->
<g id="edge9_Node000009_Node000010" class="edge">
<title>Node10&#45;&gt;Node9</title>
<g id="a_edge9_Node000009_Node000010"><a xlink:title=" ">
<path fill="none" stroke="orange" d="M1038.5,-710.57C1038.5,-674.19 1038.5,-617.02 1038.5,-582.61"/>
<polygon fill="orange" stroke="orange" points="1035,-710.7 1038.5,-720.7 1042,-710.7 1035,-710.7"/>
</a>
</g>
<text text-anchor="middle" x="1093.5" y="-695" font-family="Helvetica,sans-Serif" font-size="10.00" fill="grey"> &lt; double, DIM, DIM &gt;</text>
</g>
<!-- Node11 -->
<g id="Node000011" class="node">
<title>Node11</title>
<g id="a_Node000011"><a xlink:title=" ">
<polygon fill="white" stroke="transparent" points="1299,-582.5 1156,-582.5 1156,-522.5 1299,-522.5 1299,-582.5"/>
<text text-anchor="start" x="1161.5" y="-570.5" font-family="Helvetica,sans-Serif" font-size="10.00">vector&lt; c_matrix&lt; double,</text>
<text text-anchor="start" x="1188.5" y="-559.5" font-family="Helvetica,sans-Serif" font-size="10.00"> DIM, DIM &gt; &gt; *</text>
<text text-anchor="start" x="1226" y="-544.5" font-family="Helvetica,sans-Serif" font-size="10.00"> </text>
<text text-anchor="start" x="1226" y="-529.5" font-family="Helvetica,sans-Serif" font-size="10.00"> </text>
<polygon fill="#bfbfbf" stroke="#bfbfbf" points="1156.5,-554.5 1156.5,-554.5 1299.5,-554.5 1299.5,-554.5 1156.5,-554.5"/>
<polygon fill="#bfbfbf" stroke="#bfbfbf" points="1156.5,-539.5 1156.5,-539.5 1299.5,-539.5 1299.5,-539.5 1156.5,-539.5"/>
<polygon fill="none" stroke="#bfbfbf" points="1156,-522.5 1156,-582.5 1299,-582.5 1299,-522.5 1156,-522.5"/>
</a>
</g>
</g>
<!-- Node11&#45;&gt;Node1 -->
<g id="edge10_Node000001_Node000011" class="edge">
<title>Node11&#45;&gt;Node1</title>
<g id="a_edge10_Node000001_Node000011"><a xlink:title=" ">
<path fill="none" stroke="#63b8ff" d="M1225.92,-522.45C1222.63,-486.04 1212.54,-423.18 1181.5,-380 1133.09,-312.65 1054.11,-261.69 989.62,-228.35"/>
<polygon fill="none" stroke="#63b8ff" points="989.28,-228.18 982.12,-229.02 978.58,-222.74 985.74,-221.89 989.28,-228.18"/>
</a>
</g>
<text text-anchor="middle" x="1282" y="-394" font-family="Helvetica,sans-Serif" font-size="10.00" fill="grey"> #mpVariableFibreSheetDirections</text>
</g>
<!-- Node12 -->
<g id="Node000012" class="node">
<title>Node12</title>
<g id="a_Node000012"><a xlink:href="classbool.html" target="_top" xlink:title=" ">
<polygon fill="white" stroke="transparent" points="1435.5,-577 1403.5,-577 1403.5,-528 1435.5,-528 1435.5,-577"/>
<text text-anchor="start" x="1408.5" y="-564.5" font-family="Helvetica,sans-Serif" font-size="10.00">bool</text>
<text text-anchor="start" x="1417.5" y="-549.5" font-family="Helvetica,sans-Serif" font-size="10.00"> </text>
<text text-anchor="start" x="1417.5" y="-534.5" font-family="Helvetica,sans-Serif" font-size="10.00"> </text>
<polygon fill="#bfbfbf" stroke="#bfbfbf" points="1403.5,-559.5 1403.5,-559.5 1435.5,-559.5 1435.5,-559.5 1403.5,-559.5"/>
<polygon fill="#bfbfbf" stroke="#bfbfbf" points="1403.5,-544.5 1403.5,-544.5 1435.5,-544.5 1435.5,-544.5 1403.5,-544.5"/>
<polygon fill="none" stroke="#bfbfbf" points="1403.5,-528 1403.5,-577 1435.5,-577 1435.5,-528 1403.5,-528"/>
</a>
</g>
</g>
<!-- Node12&#45;&gt;Node1 -->
<g id="edge11_Node000001_Node000012" class="edge">
<title>Node12&#45;&gt;Node1</title>
<g id="a_edge11_Node000001_Node000012"><a xlink:title=" ">
<path fill="none" stroke="#63b8ff" d="M1419.05,-527.9C1417.13,-491.69 1408.35,-422.17 1370.5,-380 1271.24,-269.41 1101.25,-219.4 990.64,-197.65"/>
<polygon fill="none" stroke="#63b8ff" points="990.58,-197.63 983.94,-200.44 978.8,-195.38 985.44,-192.58 990.58,-197.63"/>
</a>
</g>
<text text-anchor="start" x="1391.5" y="-399.5" font-family="Helvetica,sans-Serif" font-size="10.00" fill="grey"> #mFibreSheetDirectionsDefined</text>
<text text-anchor="middle" x="1471.5" y="-388.5" font-family="Helvetica,sans-Serif" font-size="10.00" fill="grey">ByQuadraturePoint</text>
</g>
<!-- Node13 -->
<g id="Node000013" class="node">
<title>Node13</title>
<g id="a_Node000013"><a xlink:title=" ">
<polygon fill="white" stroke="transparent" points="1669,-577 1536,-577 1536,-528 1669,-528 1669,-577"/>
<text text-anchor="start" x="1541.5" y="-564.5" font-family="Helvetica,sans-Serif" font-size="10.00">c_vector&lt; double, DIM &gt;</text>
<text text-anchor="start" x="1601" y="-549.5" font-family="Helvetica,sans-Serif" font-size="10.00"> </text>
<text text-anchor="start" x="1601" y="-534.5" font-family="Helvetica,sans-Serif" font-size="10.00"> </text>
<polygon fill="#bfbfbf" stroke="#bfbfbf" points="1536.5,-559.5 1536.5,-559.5 1669.5,-559.5 1669.5,-559.5 1536.5,-559.5"/>
<polygon fill="#bfbfbf" stroke="#bfbfbf" points="1536.5,-544.5 1536.5,-544.5 1669.5,-544.5 1669.5,-544.5 1536.5,-544.5"/>
<polygon fill="none" stroke="#bfbfbf" points="1536,-528 1536,-577 1669,-577 1669,-528 1536,-528"/>
</a>
</g>
</g>
<!-- Node13&#45;&gt;Node1 -->
<g id="edge12_Node000001_Node000013" class="edge">
<title>Node13&#45;&gt;Node1</title>
<g id="a_edge12_Node000001_Node000013"><a xlink:title=" ">
<path fill="none" stroke="#63b8ff" d="M1602.87,-527.76C1602.12,-491.02 1595.17,-420.44 1555.5,-380 1403.99,-225.57 1138.6,-190.16 990.72,-182.92"/>
<polygon fill="none" stroke="#63b8ff" points="990.53,-182.91 984.35,-186.64 978.54,-182.37 984.71,-178.65 990.53,-182.91"/>
</a>
</g>
<text text-anchor="middle" x="1678" y="-405" font-family="Helvetica,sans-Serif" font-size="10.00" fill="grey"> #mCurrentElementFibreDirection</text>
<text text-anchor="middle" x="1678" y="-394" font-family="Helvetica,sans-Serif" font-size="10.00" fill="grey">#mCurrentElementSheetDirection</text>
<text text-anchor="middle" x="1678" y="-383" font-family="Helvetica,sans-Serif" font-size="10.00" fill="grey">#mCurrentElementSheetNormalDirection</text>
</g>
<!-- Node14 -->
<g id="Node000014" class="node">
<title>Node14</title>
<g id="a_Node000014"><a xlink:title=" ">
<polygon fill="white" stroke="transparent" points="1628.5,-770 1576.5,-770 1576.5,-721 1628.5,-721 1628.5,-770"/>
<text text-anchor="start" x="1581.5" y="-757.5" font-family="Helvetica,sans-Serif" font-size="10.00">c_vector</text>
<text text-anchor="start" x="1600.5" y="-742.5" font-family="Helvetica,sans-Serif" font-size="10.00"> </text>
<text text-anchor="start" x="1600.5" y="-727.5" font-family="Helvetica,sans-Serif" font-size="10.00"> </text>
<polygon fill="#bfbfbf" stroke="#bfbfbf" points="1576.5,-752.5 1576.5,-752.5 1628.5,-752.5 1628.5,-752.5 1576.5,-752.5"/>
<polygon fill="#bfbfbf" stroke="#bfbfbf" points="1576.5,-737.5 1576.5,-737.5 1628.5,-737.5 1628.5,-737.5 1576.5,-737.5"/>
<polygon fill="none" stroke="#bfbfbf" points="1576.5,-721 1576.5,-770 1628.5,-770 1628.5,-721 1576.5,-721"/>
</a>
</g>
</g>
<!-- Node14&#45;&gt;Node13 -->
<g id="edge13_Node000013_Node000014" class="edge">
<title>Node14&#45;&gt;Node13</title>
<g id="a_edge13_Node000013_Node000014"><a xlink:title=" ">
<path fill="none" stroke="orange" d="M1602.5,-710.51C1602.5,-672.07 1602.5,-610.48 1602.5,-577"/>
<polygon fill="orange" stroke="orange" points="1599,-710.7 1602.5,-720.7 1606,-710.7 1599,-710.7"/>
</a>
</g>
<text text-anchor="middle" x="1645" y="-695" font-family="Helvetica,sans-Serif" font-size="10.00" fill="grey"> &lt; double, DIM &gt;</text>
</g>
<!-- Node15 -->
<g id="Node000015" class="node">
<title>Node15</title>
<g id="a_Node000015"><a xlink:title=" ">
<polygon fill="white" stroke="transparent" points="1920.5,-582.5 1736.5,-582.5 1736.5,-522.5 1920.5,-522.5 1920.5,-582.5"/>
<text text-anchor="start" x="1741.5" y="-570.5" font-family="Helvetica,sans-Serif" font-size="10.00">ElectroMechanicsProblemDefinition</text>
<text text-anchor="start" x="1802" y="-559.5" font-family="Helvetica,sans-Serif" font-size="10.00">&lt; DIM &gt; &amp;</text>
<text text-anchor="start" x="1826.5" y="-544.5" font-family="Helvetica,sans-Serif" font-size="10.00"> </text>
<text text-anchor="start" x="1826.5" y="-529.5" font-family="Helvetica,sans-Serif" font-size="10.00"> </text>
<polygon fill="#bfbfbf" stroke="#bfbfbf" points="1736.5,-554.5 1736.5,-554.5 1920.5,-554.5 1920.5,-554.5 1736.5,-554.5"/>
<polygon fill="#bfbfbf" stroke="#bfbfbf" points="1736.5,-539.5 1736.5,-539.5 1920.5,-539.5 1920.5,-539.5 1736.5,-539.5"/>
<polygon fill="none" stroke="#bfbfbf" points="1736.5,-522.5 1736.5,-582.5 1920.5,-582.5 1920.5,-522.5 1736.5,-522.5"/>
</a>
</g>
</g>
<!-- Node15&#45;&gt;Node1 -->
<g id="edge14_Node000001_Node000015" class="edge">
<title>Node15&#45;&gt;Node1</title>
<g id="a_edge14_Node000001_Node000015"><a xlink:title=" ">
<path fill="none" stroke="#63b8ff" d="M1829.51,-522.39C1829.15,-484.14 1822.46,-417.43 1783.5,-380 1670.61,-271.54 1204.36,-213.2 990.99,-191.73"/>
<polygon fill="none" stroke="#63b8ff" points="990.79,-191.71 984.42,-195.1 978.85,-190.52 985.22,-187.13 990.79,-191.71"/>
</a>
</g>
<text text-anchor="start" x="1805.5" y="-399.5" font-family="Helvetica,sans-Serif" font-size="10.00" fill="grey"> #mrElectroMechanicsProblem</text>
<text text-anchor="middle" x="1881" y="-388.5" font-family="Helvetica,sans-Serif" font-size="10.00" fill="grey">Definition</text>
</g>
</g>
</svg>
