<?xml version="1.0" encoding="UTF-8" standalone="no"?>
<!DOCTYPE svg PUBLIC "-//W3C//DTD SVG 1.1//EN"
 "http://www.w3.org/Graphics/SVG/1.1/DTD/svg11.dtd">
<!-- Generated by graphviz version 2.43.0 (0)
 -->
<!-- Title: ParabolicGrowingDomainPdeModifier&lt; DIM &gt; Pages: 1 -->
<svg width="318pt" height="1508pt"
 viewBox="0.00 0.00 317.50 1508.00" xmlns="http://www.w3.org/2000/svg" xmlns:xlink="http://www.w3.org/1999/xlink">
<g id="graph0" class="graph" transform="scale(1 1) rotate(0) translate(4 1504)">
<title>ParabolicGrowingDomainPdeModifier&lt; DIM &gt;</title>
<!-- Node1 -->
<g id="Node000001" class="node">
<title>Node1</title>
<g id="a_Node000001"><a xlink:title=" ">
<polygon fill="#999999" stroke="transparent" points="177.5,-209 6.5,-209 6.5,0 177.5,0 177.5,-209"/>
<text text-anchor="start" x="21.5" y="-196.5" font-family="Helvetica,sans-Serif" font-size="10.00">ParabolicGrowingDomainPde</text>
<text text-anchor="start" x="51.5" y="-185.5" font-family="Helvetica,sans-Serif" font-size="10.00">Modifier&lt; DIM &gt;</text>
<text text-anchor="start" x="90.5" y="-170.5" font-family="Helvetica,sans-Serif" font-size="10.00"> </text>
<text text-anchor="start" x="11" y="-155.5" font-family="Helvetica,sans-Serif" font-size="10.00">+</text>
<text text-anchor="start" x="24" y="-155.5" font-family="Helvetica,sans-Serif" font-size="10.00">ParabolicGrowingDomainPde</text>
<text text-anchor="start" x="24" y="-144.5" font-family="Helvetica,sans-Serif" font-size="10.00">Modifier()</text>
<text text-anchor="start" x="11" y="-129.5" font-family="Helvetica,sans-Serif" font-size="10.00">+</text>
<text text-anchor="start" x="24" y="-129.5" font-family="Helvetica,sans-Serif" font-size="10.00">~ParabolicGrowingDomainPde</text>
<text text-anchor="start" x="24" y="-118.5" font-family="Helvetica,sans-Serif" font-size="10.00">Modifier()</text>
<text text-anchor="start" x="11" y="-103.5" font-family="Helvetica,sans-Serif" font-size="10.00">+</text>
<text text-anchor="start" x="24" y="-103.5" font-family="Helvetica,sans-Serif" font-size="10.00">UpdateAtEndOfTimeStep()</text>
<text text-anchor="start" x="11" y="-88.5" font-family="Helvetica,sans-Serif" font-size="10.00">+</text>
<text text-anchor="start" x="24" y="-88.5" font-family="Helvetica,sans-Serif" font-size="10.00">SetupSolve()</text>
<text text-anchor="start" x="11" y="-73.5" font-family="Helvetica,sans-Serif" font-size="10.00">+</text>
<text text-anchor="start" x="24" y="-73.5" font-family="Helvetica,sans-Serif" font-size="10.00">ConstructBoundaryConditions</text>
<text text-anchor="start" x="24" y="-62.5" font-family="Helvetica,sans-Serif" font-size="10.00">Container()</text>
<text text-anchor="start" x="11" y="-47.5" font-family="Helvetica,sans-Serif" font-size="10.00">+</text>
<text text-anchor="start" x="24" y="-47.5" font-family="Helvetica,sans-Serif" font-size="10.00">UpdateSolutionVector()</text>
<text text-anchor="start" x="11" y="-32.5" font-family="Helvetica,sans-Serif" font-size="10.00">+</text>
<text text-anchor="start" x="24" y="-32.5" font-family="Helvetica,sans-Serif" font-size="10.00">OutputSimulationModifier</text>
<text text-anchor="start" x="24" y="-21.5" font-family="Helvetica,sans-Serif" font-size="10.00">Parameters()</text>
<text text-anchor="start" x="13.5" y="-6.5" font-family="Helvetica,sans-Serif" font-size="10.00">&#45;</text>
<text text-anchor="start" x="24" y="-6.5" font-family="Helvetica,sans-Serif" font-size="10.00">serialize()</text>
<polygon fill="#666666" stroke="#666666" points="7,-180.5 7,-180.5 178,-180.5 178,-180.5 7,-180.5"/>
<polygon fill="#666666" stroke="#666666" points="7,-165.5 7,-165.5 178,-165.5 178,-165.5 7,-165.5"/>
<polygon fill="none" stroke="#666666" points="6.5,0 6.5,-209 177.5,-209 177.5,0 6.5,0"/>
</a>
</g>
</g>
<!-- Node2 -->
<g id="Node000002" class="node">
<title>Node2</title>
<g id="a_Node000002"><a xlink:href="classAbstractGrowingDomainPdeModifier.html" target="_top" xlink:title=" ">
<polygon fill="white" stroke="transparent" points="175.5,-414 8.5,-414 8.5,-246 175.5,-246 175.5,-414"/>
<text text-anchor="start" x="23.5" y="-402" font-family="Helvetica,sans-Serif" font-size="10.00">AbstractGrowingDomainPde</text>
<text text-anchor="start" x="51.5" y="-391" font-family="Helvetica,sans-Serif" font-size="10.00">Modifier&lt; DIM &gt;</text>
<text text-anchor="start" x="90.5" y="-376" font-family="Helvetica,sans-Serif" font-size="10.00"> </text>
<text text-anchor="start" x="13" y="-361" font-family="Helvetica,sans-Serif" font-size="10.00">+</text>
<text text-anchor="start" x="26" y="-361" font-family="Helvetica,sans-Serif" font-size="10.00">AbstractGrowingDomainPde</text>
<text text-anchor="start" x="26" y="-350" font-family="Helvetica,sans-Serif" font-size="10.00">Modifier()</text>
<text text-anchor="start" x="13" y="-335" font-family="Helvetica,sans-Serif" font-size="10.00">+</text>
<text text-anchor="start" x="26" y="-335" font-family="Helvetica,sans-Serif" font-size="10.00">~AbstractGrowingDomainPde</text>
<text text-anchor="start" x="26" y="-324" font-family="Helvetica,sans-Serif" font-size="10.00">Modifier()</text>
<text text-anchor="start" x="13" y="-309" font-family="Helvetica,sans-Serif" font-size="10.00">+</text>
<text text-anchor="start" x="26" y="-309" font-family="Helvetica,sans-Serif" font-size="10.00">GenerateFeMesh()</text>
<text text-anchor="start" x="13" y="-294" font-family="Helvetica,sans-Serif" font-size="10.00">+</text>
<text text-anchor="start" x="26" y="-294" font-family="Helvetica,sans-Serif" font-size="10.00">UpdateCellData()</text>
<text text-anchor="start" x="13" y="-279" font-family="Helvetica,sans-Serif" font-size="10.00">+</text>
<text text-anchor="start" x="26" y="-279" font-family="Helvetica,sans-Serif" font-size="10.00">OutputSimulationModifier</text>
<text text-anchor="start" x="26" y="-268" font-family="Helvetica,sans-Serif" font-size="10.00">Parameters()</text>
<text text-anchor="start" x="15.5" y="-253" font-family="Helvetica,sans-Serif" font-size="10.00">&#45;</text>
<text text-anchor="start" x="26" y="-253" font-family="Helvetica,sans-Serif" font-size="10.00">serialize()</text>
<polygon fill="#666666" stroke="#666666" points="9,-386 9,-386 176,-386 176,-386 9,-386"/>
<polygon fill="#666666" stroke="#666666" points="9,-371 9,-371 176,-371 176,-371 9,-371"/>
<polygon fill="none" stroke="#666666" points="8.5,-246 8.5,-414 175.5,-414 175.5,-246 8.5,-246"/>
</a>
</g>
</g>
<!-- Node2&#45;&gt;Node1 -->
<g id="edge1_Node000001_Node000002" class="edge">
<title>Node2&#45;&gt;Node1</title>
<g id="a_edge1_Node000001_Node000002"><a xlink:title=" ">
<path fill="none" stroke="#63b8ff" d="M92,-235.63C92,-226.91 92,-218.04 92,-209.24"/>
<polygon fill="none" stroke="#63b8ff" points="88.5,-235.78 92,-245.78 95.5,-235.78 88.5,-235.78"/>
</a>
</g>
</g>
<!-- Node3 -->
<g id="Node000003" class="node">
<title>Node3</title>
<g id="a_Node000003"><a xlink:href="classAbstractPdeModifier.html" target="_top" xlink:title=" ">
<polygon fill="white" stroke="transparent" points="182,-852 2,-852 2,-451 182,-451 182,-852"/>
<text text-anchor="start" x="42.5" y="-839.5" font-family="Helvetica,sans-Serif" font-size="10.00">AbstractPdeModifier</text>
<text text-anchor="start" x="70.5" y="-828.5" font-family="Helvetica,sans-Serif" font-size="10.00">&lt; DIM &gt;</text>
<text text-anchor="start" x="6" y="-813.5" font-family="Helvetica,sans-Serif" font-size="10.00">#</text>
<text text-anchor="start" x="19" y="-813.5" font-family="Helvetica,sans-Serif" font-size="10.00">mpPde</text>
<text text-anchor="start" x="6" y="-798.5" font-family="Helvetica,sans-Serif" font-size="10.00">#</text>
<text text-anchor="start" x="19" y="-798.5" font-family="Helvetica,sans-Serif" font-size="10.00">mpBoundaryCondition</text>
<text text-anchor="start" x="6" y="-783.5" font-family="Helvetica,sans-Serif" font-size="10.00">#</text>
<text text-anchor="start" x="19" y="-783.5" font-family="Helvetica,sans-Serif" font-size="10.00">mIsNeumannBoundaryCondition</text>
<text text-anchor="start" x="6" y="-768.5" font-family="Helvetica,sans-Serif" font-size="10.00">#</text>
<text text-anchor="start" x="19" y="-768.5" font-family="Helvetica,sans-Serif" font-size="10.00">mDependentVariableName</text>
<text text-anchor="start" x="6" y="-753.5" font-family="Helvetica,sans-Serif" font-size="10.00">#</text>
<text text-anchor="start" x="19" y="-753.5" font-family="Helvetica,sans-Serif" font-size="10.00">mSolution</text>
<text text-anchor="start" x="6" y="-738.5" font-family="Helvetica,sans-Serif" font-size="10.00">#</text>
<text text-anchor="start" x="19" y="-738.5" font-family="Helvetica,sans-Serif" font-size="10.00">mpFeMesh</text>
<text text-anchor="start" x="6" y="-723.5" font-family="Helvetica,sans-Serif" font-size="10.00">#</text>
<text text-anchor="start" x="19" y="-723.5" font-family="Helvetica,sans-Serif" font-size="10.00">mOutputDirectory</text>
<text text-anchor="start" x="6" y="-708.5" font-family="Helvetica,sans-Serif" font-size="10.00">#</text>
<text text-anchor="start" x="19" y="-708.5" font-family="Helvetica,sans-Serif" font-size="10.00">mOutputGradient</text>
<text text-anchor="start" x="6" y="-693.5" font-family="Helvetica,sans-Serif" font-size="10.00">#</text>
<text text-anchor="start" x="19" y="-693.5" font-family="Helvetica,sans-Serif" font-size="10.00">mOutputSolutionAtPdeNodes</text>
<text text-anchor="start" x="6" y="-678.5" font-family="Helvetica,sans-Serif" font-size="10.00">#</text>
<text text-anchor="start" x="19" y="-678.5" font-family="Helvetica,sans-Serif" font-size="10.00">mpVizPdeSolutionResultsFile</text>
<text text-anchor="start" x="6" y="-663.5" font-family="Helvetica,sans-Serif" font-size="10.00">#</text>
<text text-anchor="start" x="19" y="-663.5" font-family="Helvetica,sans-Serif" font-size="10.00">mDeleteFeMesh</text>
<text text-anchor="start" x="6" y="-648.5" font-family="Helvetica,sans-Serif" font-size="10.00">#</text>
<text text-anchor="start" x="19" y="-648.5" font-family="Helvetica,sans-Serif" font-size="10.00">mIsDirichletBoundaryNode</text>
<text text-anchor="start" x="6" y="-633.5" font-family="Helvetica,sans-Serif" font-size="10.00">+</text>
<text text-anchor="start" x="19" y="-633.5" font-family="Helvetica,sans-Serif" font-size="10.00">AbstractPdeModifier()</text>
<text text-anchor="start" x="6" y="-618.5" font-family="Helvetica,sans-Serif" font-size="10.00">+</text>
<text text-anchor="start" x="19" y="-618.5" font-family="Helvetica,sans-Serif" font-size="10.00">~AbstractPdeModifier()</text>
<text text-anchor="start" x="6" y="-603.5" font-family="Helvetica,sans-Serif" font-size="10.00">+</text>
<text text-anchor="start" x="19" y="-603.5" font-family="Helvetica,sans-Serif" font-size="10.00">GetPde()</text>
<text text-anchor="start" x="6" y="-588.5" font-family="Helvetica,sans-Serif" font-size="10.00">+</text>
<text text-anchor="start" x="19" y="-588.5" font-family="Helvetica,sans-Serif" font-size="10.00">GetBoundaryCondition()</text>
<text text-anchor="start" x="6" y="-573.5" font-family="Helvetica,sans-Serif" font-size="10.00">+</text>
<text text-anchor="start" x="19" y="-573.5" font-family="Helvetica,sans-Serif" font-size="10.00">IsNeumannBoundaryCondition()</text>
<text text-anchor="start" x="6" y="-558.5" font-family="Helvetica,sans-Serif" font-size="10.00">+</text>
<text text-anchor="start" x="19" y="-558.5" font-family="Helvetica,sans-Serif" font-size="10.00">SetDependentVariableName()</text>
<text text-anchor="start" x="6" y="-543.5" font-family="Helvetica,sans-Serif" font-size="10.00">+</text>
<text text-anchor="start" x="19" y="-543.5" font-family="Helvetica,sans-Serif" font-size="10.00">rGetDependentVariableName()</text>
<text text-anchor="start" x="6" y="-528.5" font-family="Helvetica,sans-Serif" font-size="10.00">+</text>
<text text-anchor="start" x="19" y="-528.5" font-family="Helvetica,sans-Serif" font-size="10.00">HasAveragedSourcePde()</text>
<text text-anchor="start" x="6" y="-513.5" font-family="Helvetica,sans-Serif" font-size="10.00">+</text>
<text text-anchor="start" x="19" y="-513.5" font-family="Helvetica,sans-Serif" font-size="10.00">SetUpSourceTermsForAveraged</text>
<text text-anchor="start" x="19" y="-502.5" font-family="Helvetica,sans-Serif" font-size="10.00">SourcePde()</text>
<text text-anchor="start" x="6" y="-487.5" font-family="Helvetica,sans-Serif" font-size="10.00">+</text>
<text text-anchor="start" x="19" y="-487.5" font-family="Helvetica,sans-Serif" font-size="10.00">GetSolution()</text>
<text text-anchor="start" x="19" y="-472.5" font-family="Helvetica,sans-Serif" font-size="10.00">and 10 more...</text>
<text text-anchor="start" x="8.5" y="-457.5" font-family="Helvetica,sans-Serif" font-size="10.00">&#45;</text>
<text text-anchor="start" x="19" y="-457.5" font-family="Helvetica,sans-Serif" font-size="10.00">serialize()</text>
<polygon fill="#666666" stroke="#666666" points="2,-823.5 2,-823.5 182,-823.5 182,-823.5 2,-823.5"/>
<polygon fill="#666666" stroke="#666666" points="2,-643.5 2,-643.5 17,-643.5 17,-643.5 2,-643.5"/>
<polygon fill="#666666" stroke="#666666" points="17,-643.5 17,-643.5 182,-643.5 182,-643.5 17,-643.5"/>
<polygon fill="none" stroke="#666666" points="2,-451 2,-852 182,-852 182,-451 2,-451"/>
</a>
</g>
</g>
<!-- Node3&#45;&gt;Node2 -->
<g id="edge2_Node000002_Node000003" class="edge">
<title>Node3&#45;&gt;Node2</title>
<g id="a_edge2_Node000002_Node000003"><a xlink:title=" ">
<path fill="none" stroke="#63b8ff" d="M92,-440.81C92,-431.61 92,-422.66 92,-414.1"/>
<polygon fill="none" stroke="#63b8ff" points="88.5,-440.88 92,-450.88 95.5,-440.88 88.5,-440.88"/>
</a>
</g>
</g>
<!-- Node4 -->
<g id="Node000004" class="node">
<title>Node4</title>
<g id="a_Node000004"><a xlink:href="classAbstractCellBasedSimulationModifier.html" target="_top" xlink:title=" ">
<polygon fill="white" stroke="transparent" points="184,-1113 0,-1113 0,-889 184,-889 184,-1113"/>
<text text-anchor="start" x="21" y="-1101" font-family="Helvetica,sans-Serif" font-size="10.00">AbstractCellBasedSimulation</text>
<text text-anchor="start" x="38" y="-1090" font-family="Helvetica,sans-Serif" font-size="10.00">Modifier&lt; DIM, DIM &gt;</text>
<text text-anchor="start" x="90" y="-1075" font-family="Helvetica,sans-Serif" font-size="10.00"> </text>
<text text-anchor="start" x="4" y="-1060" font-family="Helvetica,sans-Serif" font-size="10.00">+</text>
<text text-anchor="start" x="17" y="-1060" font-family="Helvetica,sans-Serif" font-size="10.00">AbstractCellBasedSimulation</text>
<text text-anchor="start" x="17" y="-1049" font-family="Helvetica,sans-Serif" font-size="10.00">Modifier()</text>
<text text-anchor="start" x="4" y="-1034" font-family="Helvetica,sans-Serif" font-size="10.00">+</text>
<text text-anchor="start" x="17" y="-1034" font-family="Helvetica,sans-Serif" font-size="10.00">~AbstractCellBasedSimulation</text>
<text text-anchor="start" x="17" y="-1023" font-family="Helvetica,sans-Serif" font-size="10.00">Modifier()</text>
<text text-anchor="start" x="4" y="-1008" font-family="Helvetica,sans-Serif" font-size="10.00">+</text>
<text text-anchor="start" x="17" y="-1008" font-family="Helvetica,sans-Serif" font-size="10.00">UpdateAtEndOfTimeStep()</text>
<text text-anchor="start" x="4" y="-993" font-family="Helvetica,sans-Serif" font-size="10.00">+</text>
<text text-anchor="start" x="17" y="-993" font-family="Helvetica,sans-Serif" font-size="10.00">UpdateAtEndOfOutputTimeStep()</text>
<text text-anchor="start" x="4" y="-978" font-family="Helvetica,sans-Serif" font-size="10.00">+</text>
<text text-anchor="start" x="17" y="-978" font-family="Helvetica,sans-Serif" font-size="10.00">SetupSolve()</text>
<text text-anchor="start" x="4" y="-963" font-family="Helvetica,sans-Serif" font-size="10.00">+</text>
<text text-anchor="start" x="17" y="-963" font-family="Helvetica,sans-Serif" font-size="10.00">UpdateAtEndOfSolve()</text>
<text text-anchor="start" x="4" y="-948" font-family="Helvetica,sans-Serif" font-size="10.00">+</text>
<text text-anchor="start" x="17" y="-948" font-family="Helvetica,sans-Serif" font-size="10.00">OutputSimulationModifier</text>
<text text-anchor="start" x="17" y="-937" font-family="Helvetica,sans-Serif" font-size="10.00">Info()</text>
<text text-anchor="start" x="4" y="-922" font-family="Helvetica,sans-Serif" font-size="10.00">+</text>
<text text-anchor="start" x="17" y="-922" font-family="Helvetica,sans-Serif" font-size="10.00">OutputSimulationModifier</text>
<text text-anchor="start" x="17" y="-911" font-family="Helvetica,sans-Serif" font-size="10.00">Parameters()</text>
<text text-anchor="start" x="6.5" y="-896" font-family="Helvetica,sans-Serif" font-size="10.00">&#45;</text>
<text text-anchor="start" x="17" y="-896" font-family="Helvetica,sans-Serif" font-size="10.00">serialize()</text>
<polygon fill="#666666" stroke="#666666" points="0,-1085 0,-1085 184,-1085 184,-1085 0,-1085"/>
<polygon fill="#666666" stroke="#666666" points="0,-1070 0,-1070 184,-1070 184,-1070 0,-1070"/>
<polygon fill="none" stroke="#666666" points="0,-889 0,-1113 184,-1113 184,-889 0,-889"/>
</a>
</g>
</g>
<!-- Node4&#45;&gt;Node3 -->
<g id="edge3_Node000003_Node000004" class="edge">
<title>Node4&#45;&gt;Node3</title>
<g id="a_edge3_Node000003_Node000004"><a xlink:title=" ">
<path fill="none" stroke="#63b8ff" d="M92,-878.55C92,-869.9 92,-861.05 92,-852.11"/>
<polygon fill="none" stroke="#63b8ff" points="88.5,-878.61 92,-888.61 95.5,-878.61 88.5,-878.61"/>
</a>
</g>
</g>
<!-- Node5 -->
<g id="Node000005" class="node">
<title>Node5</title>
<g id="a_Node000005"><a xlink:href="classIdentifiable.html" target="_top" xlink:title=" ">
<polygon fill="white" stroke="transparent" points="176,-1500 0,-1500 0,-1421 176,-1421 176,-1500"/>
<text text-anchor="start" x="60.5" y="-1487.5" font-family="Helvetica,sans-Serif" font-size="10.00">Identifiable</text>
<text text-anchor="start" x="86" y="-1472.5" font-family="Helvetica,sans-Serif" font-size="10.00"> </text>
<text text-anchor="start" x="4" y="-1457.5" font-family="Helvetica,sans-Serif" font-size="10.00">+</text>
<text text-anchor="start" x="17" y="-1457.5" font-family="Helvetica,sans-Serif" font-size="10.00">~Identifiable()</text>
<text text-anchor="start" x="4" y="-1442.5" font-family="Helvetica,sans-Serif" font-size="10.00">+</text>
<text text-anchor="start" x="17" y="-1442.5" font-family="Helvetica,sans-Serif" font-size="10.00">GetIdentifier()</text>
<text text-anchor="start" x="6.5" y="-1427.5" font-family="Helvetica,sans-Serif" font-size="10.00">&#45;</text>
<text text-anchor="start" x="17" y="-1427.5" font-family="Helvetica,sans-Serif" font-size="10.00">TidyTemplatedExportIdentifier()</text>
<polygon fill="#666666" stroke="#666666" points="0,-1482.5 0,-1482.5 176,-1482.5 176,-1482.5 0,-1482.5"/>
<polygon fill="#666666" stroke="#666666" points="0,-1467.5 0,-1467.5 176,-1467.5 176,-1467.5 0,-1467.5"/>
<polygon fill="none" stroke="#666666" points="0,-1421 0,-1500 176,-1500 176,-1421 0,-1421"/>
</a>
</g>
</g>
<!-- Node5&#45;&gt;Node4 -->
<g id="edge4_Node000004_Node000005" class="edge">
<title>Node5&#45;&gt;Node4</title>
<g id="a_edge4_Node000004_Node000005"><a xlink:title=" ">
<path fill="none" stroke="#63b8ff" d="M88.43,-1410.53C89.04,-1340.02 90.2,-1207.96 91.03,-1113.05"/>
<polygon fill="none" stroke="#63b8ff" points="84.93,-1410.86 88.34,-1420.89 91.92,-1410.92 84.93,-1410.86"/>
</a>
</g>
</g>
<!-- Node6 -->
<g id="Node000006" class="node">
<title>Node6</title>
<g id="a_Node000006"><a xlink:href="classAbstractCellBasedSimulationModifier.html" target="_top" xlink:title=" ">
<polygon fill="white" stroke="transparent" points="309.5,-1384 104.5,-1384 104.5,-1160 309.5,-1160 309.5,-1384"/>
<text text-anchor="start" x="110" y="-1372" font-family="Helvetica,sans-Serif" font-size="10.00">AbstractCellBasedSimulation</text>
<text text-anchor="start" x="110" y="-1361" font-family="Helvetica,sans-Serif" font-size="10.00">Modifier&lt; ELEMENT_DIM, SPACE_DIM &gt;</text>
<text text-anchor="start" x="205.5" y="-1346" font-family="Helvetica,sans-Serif" font-size="10.00"> </text>
<text text-anchor="start" x="114" y="-1331" font-family="Helvetica,sans-Serif" font-size="10.00">+</text>
<text text-anchor="start" x="132" y="-1331" font-family="Helvetica,sans-Serif" font-size="10.00">AbstractCellBasedSimulation</text>
<text text-anchor="start" x="132" y="-1320" font-family="Helvetica,sans-Serif" font-size="10.00">Modifier()</text>
<text text-anchor="start" x="114" y="-1305" font-family="Helvetica,sans-Serif" font-size="10.00">+</text>
<text text-anchor="start" x="132" y="-1305" font-family="Helvetica,sans-Serif" font-size="10.00">~AbstractCellBasedSimulation</text>
<text text-anchor="start" x="132" y="-1294" font-family="Helvetica,sans-Serif" font-size="10.00">Modifier()</text>
<text text-anchor="start" x="114" y="-1279" font-family="Helvetica,sans-Serif" font-size="10.00">+</text>
<text text-anchor="start" x="132" y="-1279" font-family="Helvetica,sans-Serif" font-size="10.00">UpdateAtEndOfTimeStep()</text>
<text text-anchor="start" x="114" y="-1264" font-family="Helvetica,sans-Serif" font-size="10.00">+</text>
<text text-anchor="start" x="132" y="-1264" font-family="Helvetica,sans-Serif" font-size="10.00">UpdateAtEndOfOutputTimeStep()</text>
<text text-anchor="start" x="114" y="-1249" font-family="Helvetica,sans-Serif" font-size="10.00">+</text>
<text text-anchor="start" x="132" y="-1249" font-family="Helvetica,sans-Serif" font-size="10.00">SetupSolve()</text>
<text text-anchor="start" x="114" y="-1234" font-family="Helvetica,sans-Serif" font-size="10.00">+</text>
<text text-anchor="start" x="132" y="-1234" font-family="Helvetica,sans-Serif" font-size="10.00">UpdateAtEndOfSolve()</text>
<text text-anchor="start" x="114" y="-1219" font-family="Helvetica,sans-Serif" font-size="10.00">+</text>
<text text-anchor="start" x="132" y="-1219" font-family="Helvetica,sans-Serif" font-size="10.00">OutputSimulationModifier</text>
<text text-anchor="start" x="132" y="-1208" font-family="Helvetica,sans-Serif" font-size="10.00">Info()</text>
<text text-anchor="start" x="114" y="-1193" font-family="Helvetica,sans-Serif" font-size="10.00">+</text>
<text text-anchor="start" x="132" y="-1193" font-family="Helvetica,sans-Serif" font-size="10.00">OutputSimulationModifier</text>
<text text-anchor="start" x="132" y="-1182" font-family="Helvetica,sans-Serif" font-size="10.00">Parameters()</text>
<text text-anchor="start" x="116.5" y="-1167" font-family="Helvetica,sans-Serif" font-size="10.00">&#45;</text>
<text text-anchor="start" x="132" y="-1167" font-family="Helvetica,sans-Serif" font-size="10.00">serialize()</text>
<polygon fill="#666666" stroke="#666666" points="105,-1356 105,-1356 310,-1356 310,-1356 105,-1356"/>
<polygon fill="#666666" stroke="#666666" points="105,-1341 105,-1341 310,-1341 310,-1341 105,-1341"/>
<polygon fill="none" stroke="#666666" points="104.5,-1160 104.5,-1384 309.5,-1384 309.5,-1160 104.5,-1160"/>
</a>
</g>
</g>
<!-- Node5&#45;&gt;Node6 -->
<g id="edge6_Node000006_Node000005" class="edge">
<title>Node5&#45;&gt;Node6</title>
<g id="a_edge6_Node000006_Node000005"><a xlink:title=" ">
<path fill="none" stroke="#63b8ff" d="M118.09,-1412.34C123.69,-1403.56 129.76,-1394.06 136,-1384.28"/>
<polygon fill="none" stroke="#63b8ff" points="115.09,-1410.54 112.66,-1420.86 120.99,-1414.31 115.09,-1410.54"/>
</a>
</g>
</g>
<!-- Node6&#45;&gt;Node4 -->
<g id="edge5_Node000004_Node000006" class="edge">
<title>Node6&#45;&gt;Node4</title>
<g id="a_edge5_Node000004_Node000006"><a xlink:title=" ">
<path fill="none" stroke="orange" d="M155.38,-1150.27C150.12,-1137.95 144.79,-1125.48 139.57,-1113.27"/>
<polygon fill="orange" stroke="orange" points="152.25,-1151.83 159.39,-1159.65 158.68,-1149.07 152.25,-1151.83"/>
</a>
</g>
<text text-anchor="middle" x="184.5" y="-1134" font-family="Helvetica,sans-Serif" font-size="10.00" fill="grey"> &lt; DIM, DIM &gt;</text>
</g>
</g>
</svg>
