<?xml version="1.0" encoding="UTF-8" standalone="no"?>
<!DOCTYPE svg PUBLIC "-//W3C//DTD SVG 1.1//EN"
 "http://www.w3.org/Graphics/SVG/1.1/DTD/svg11.dtd">
<!-- Generated by graphviz version 2.43.0 (0)
 -->
<!-- Title: GaussianQuadratureRule&lt; ELEMENT_DIM &gt; Pages: 1 -->
<svg width="327pt" height="265pt"
 viewBox="0.00 0.00 327.00 265.00" xmlns="http://www.w3.org/2000/svg" xmlns:xlink="http://www.w3.org/1999/xlink">
<g id="graph0" class="graph" transform="scale(1 1) rotate(0) translate(4 261)">
<title>GaussianQuadratureRule&lt; ELEMENT_DIM &gt;</title>
<!-- Node1 -->
<g id="Node000001" class="node">
<title>Node1</title>
<g id="a_Node000001"><a xlink:title=" ">
<polygon fill="#999999" stroke="transparent" points="222,-150 71,-150 71,0 222,0 222,-150"/>
<text text-anchor="start" x="86" y="-138" font-family="Helvetica,sans-Serif" font-size="10.00">GaussianQuadratureRule</text>
<text text-anchor="start" x="100" y="-127" font-family="Helvetica,sans-Serif" font-size="10.00">&lt; ELEMENT_DIM &gt;</text>
<text text-anchor="start" x="145" y="-112" font-family="Helvetica,sans-Serif" font-size="10.00"> </text>
<text text-anchor="start" x="75.5" y="-97" font-family="Helvetica,sans-Serif" font-size="10.00">+</text>
<text text-anchor="start" x="88.5" y="-97" font-family="Helvetica,sans-Serif" font-size="10.00">GaussianQuadratureRule()</text>
<text text-anchor="start" x="75.5" y="-82" font-family="Helvetica,sans-Serif" font-size="10.00">+</text>
<text text-anchor="start" x="88.5" y="-82" font-family="Helvetica,sans-Serif" font-size="10.00">rGetQuadPoint()</text>
<text text-anchor="start" x="75.5" y="-67" font-family="Helvetica,sans-Serif" font-size="10.00">+</text>
<text text-anchor="start" x="88.5" y="-67" font-family="Helvetica,sans-Serif" font-size="10.00">GetWeight()</text>
<text text-anchor="start" x="75.5" y="-52" font-family="Helvetica,sans-Serif" font-size="10.00">+</text>
<text text-anchor="start" x="88.5" y="-52" font-family="Helvetica,sans-Serif" font-size="10.00">GetNumQuadPoints()</text>
<text text-anchor="start" x="75.5" y="-37" font-family="Helvetica,sans-Serif" font-size="10.00">+</text>
<text text-anchor="start" x="88.5" y="-37" font-family="Helvetica,sans-Serif" font-size="10.00">GaussianQuadratureRule()</text>
<text text-anchor="start" x="75.5" y="-22" font-family="Helvetica,sans-Serif" font-size="10.00">+</text>
<text text-anchor="start" x="88.5" y="-22" font-family="Helvetica,sans-Serif" font-size="10.00">GaussianQuadratureRule()</text>
<text text-anchor="start" x="75.5" y="-7" font-family="Helvetica,sans-Serif" font-size="10.00">+</text>
<text text-anchor="start" x="88.5" y="-7" font-family="Helvetica,sans-Serif" font-size="10.00">GaussianQuadratureRule()</text>
<polygon fill="#666666" stroke="#666666" points="71.5,-122 71.5,-122 222.5,-122 222.5,-122 71.5,-122"/>
<polygon fill="#666666" stroke="#666666" points="71.5,-107 71.5,-107 222.5,-107 222.5,-107 71.5,-107"/>
<polygon fill="none" stroke="#666666" points="71,0 71,-150 222,-150 222,0 71,0"/>
</a>
</g>
</g>
<!-- Node2 -->
<g id="Node000002" class="node">
<title>Node2</title>
<g id="a_Node000002"><a xlink:href="classunsigned.html" target="_top" xlink:title=" ">
<polygon fill="white" stroke="transparent" points="55,-251.5 0,-251.5 0,-202.5 55,-202.5 55,-251.5"/>
<text text-anchor="start" x="5.5" y="-239" font-family="Helvetica,sans-Serif" font-size="10.00">unsigned</text>
<text text-anchor="start" x="26" y="-224" font-family="Helvetica,sans-Serif" font-size="10.00"> </text>
<text text-anchor="start" x="26" y="-209" font-family="Helvetica,sans-Serif" font-size="10.00"> </text>
<polygon fill="#bfbfbf" stroke="#bfbfbf" points="0.5,-234 0.5,-234 55.5,-234 55.5,-234 0.5,-234"/>
<polygon fill="#bfbfbf" stroke="#bfbfbf" points="0.5,-219 0.5,-219 55.5,-219 55.5,-219 0.5,-219"/>
<polygon fill="none" stroke="#bfbfbf" points="0,-202.5 0,-251.5 55,-251.5 55,-202.5 0,-202.5"/>
</a>
</g>
</g>
<!-- Node2&#45;&gt;Node1 -->
<g id="edge1_Node000001_Node000002" class="edge">
<title>Node2&#45;&gt;Node1</title>
<g id="a_edge1_Node000001_Node000002"><a xlink:title=" ">
<path fill="none" stroke="#63b8ff" d="M32.29,-202.49C35.25,-191.44 39.79,-178.43 46.5,-168 51.24,-160.64 56.71,-153.47 62.59,-146.61"/>
<polygon fill="none" stroke="#63b8ff" points="62.82,-146.35 63.86,-139.22 70.85,-137.44 69.81,-144.57 62.82,-146.35"/>
</a>
</g>
<text text-anchor="middle" x="94.5" y="-171" font-family="Helvetica,sans-Serif" font-size="10.00" fill="grey"> &#45;mNumQuadPoints</text>
</g>
<!-- Node3 -->
<g id="Node000003" class="node">
<title>Node3</title>
<g id="a_Node000003"><a xlink:title=" ">
<polygon fill="white" stroke="transparent" points="204,-257 89,-257 89,-197 204,-197 204,-257"/>
<text text-anchor="start" x="94.5" y="-245" font-family="Helvetica,sans-Serif" font-size="10.00">vector&lt; ChastePoint</text>
<text text-anchor="start" x="94.5" y="-234" font-family="Helvetica,sans-Serif" font-size="10.00">&lt; ELEMENT_DIM &gt; &gt;</text>
<text text-anchor="start" x="145" y="-219" font-family="Helvetica,sans-Serif" font-size="10.00"> </text>
<text text-anchor="start" x="145" y="-204" font-family="Helvetica,sans-Serif" font-size="10.00"> </text>
<polygon fill="#bfbfbf" stroke="#bfbfbf" points="89.5,-229 89.5,-229 204.5,-229 204.5,-229 89.5,-229"/>
<polygon fill="#bfbfbf" stroke="#bfbfbf" points="89.5,-214 89.5,-214 204.5,-214 204.5,-214 89.5,-214"/>
<polygon fill="none" stroke="#bfbfbf" points="89,-197 89,-257 204,-257 204,-197 89,-197"/>
</a>
</g>
</g>
<!-- Node3&#45;&gt;Node1 -->
<g id="edge2_Node000001_Node000003" class="edge">
<title>Node3&#45;&gt;Node1</title>
<g id="a_edge2_Node000001_Node000003"><a xlink:title=" ">
<path fill="none" stroke="#63b8ff" d="M146.5,-196.72C146.5,-186.51 146.5,-174.48 146.5,-162.03"/>
<polygon fill="none" stroke="#63b8ff" points="146.5,-162.01 142.5,-156.01 146.5,-150.01 150.5,-156.01 146.5,-162.01"/>
</a>
</g>
<text text-anchor="middle" x="170" y="-171" font-family="Helvetica,sans-Serif" font-size="10.00" fill="grey"> &#45;mPoints</text>
</g>
<!-- Node4 -->
<g id="Node000004" class="node">
<title>Node4</title>
<g id="a_Node000004"><a xlink:title=" ">
<polygon fill="white" stroke="transparent" points="319,-251.5 222,-251.5 222,-202.5 319,-202.5 319,-251.5"/>
<text text-anchor="start" x="227.5" y="-239" font-family="Helvetica,sans-Serif" font-size="10.00">vector&lt; double &gt;</text>
<text text-anchor="start" x="269" y="-224" font-family="Helvetica,sans-Serif" font-size="10.00"> </text>
<text text-anchor="start" x="269" y="-209" font-family="Helvetica,sans-Serif" font-size="10.00"> </text>
<polygon fill="#bfbfbf" stroke="#bfbfbf" points="222.5,-234 222.5,-234 319.5,-234 319.5,-234 222.5,-234"/>
<polygon fill="#bfbfbf" stroke="#bfbfbf" points="222.5,-219 222.5,-219 319.5,-219 319.5,-219 222.5,-219"/>
<polygon fill="none" stroke="#bfbfbf" points="222,-202.5 222,-251.5 319,-251.5 319,-202.5 222,-202.5"/>
</a>
</g>
</g>
<!-- Node4&#45;&gt;Node1 -->
<g id="edge3_Node000001_Node000004" class="edge">
<title>Node4&#45;&gt;Node1</title>
<g id="a_edge3_Node000001_Node000004"><a xlink:title=" ">
<path fill="none" stroke="#63b8ff" d="M250.85,-202.23C241.03,-190.35 228.5,-175.19 215.55,-159.53"/>
<polygon fill="none" stroke="#63b8ff" points="215.54,-159.52 208.64,-157.44 207.9,-150.27 214.8,-152.34 215.54,-159.52"/>
</a>
</g>
<text text-anchor="middle" x="257.5" y="-171" font-family="Helvetica,sans-Serif" font-size="10.00" fill="grey"> &#45;mWeights</text>
</g>
</g>
</svg>
