<?xml version="1.0" encoding="UTF-8" standalone="no"?>
<!DOCTYPE svg PUBLIC "-//W3C//DTD SVG 1.1//EN"
 "http://www.w3.org/Graphics/SVG/1.1/DTD/svg11.dtd">
<!-- Generated by graphviz version 2.43.0 (0)
 -->
<!-- Title: AbstractMesh&lt; ELEMENT_DIM, SPACE_DIM &gt;::NodeIterator Pages: 1 -->
<svg width="1087pt" height="958pt"
 viewBox="0.00 0.00 1086.70 958.00" xmlns="http://www.w3.org/2000/svg" xmlns:xlink="http://www.w3.org/1999/xlink">
<g id="graph0" class="graph" transform="scale(1 1) rotate(0) translate(4 954)">
<title>AbstractMesh&lt; ELEMENT_DIM, SPACE_DIM &gt;::NodeIterator</title>
<!-- Node1 -->
<g id="Node000001" class="node">
<title>Node1</title>
<g id="a_Node000001"><a xlink:title=" ">
<polygon fill="#999999" stroke="transparent" points="624.7,-150 448.7,-150 448.7,0 624.7,0 624.7,-150"/>
<text text-anchor="start" x="453.7" y="-138" font-family="Helvetica,sans-Serif" font-size="10.00">AbstractMesh&lt; ELEMENT</text>
<text text-anchor="start" x="453.7" y="-127" font-family="Helvetica,sans-Serif" font-size="10.00">_DIM, SPACE_DIM &gt;::NodeIterator</text>
<text text-anchor="start" x="534.7" y="-112" font-family="Helvetica,sans-Serif" font-size="10.00"> </text>
<text text-anchor="start" x="471.2" y="-97" font-family="Helvetica,sans-Serif" font-size="10.00">+</text>
<text text-anchor="start" x="502.7" y="-97" font-family="Helvetica,sans-Serif" font-size="10.00">operator*()</text>
<text text-anchor="start" x="471.2" y="-82" font-family="Helvetica,sans-Serif" font-size="10.00">+</text>
<text text-anchor="start" x="502.7" y="-82" font-family="Helvetica,sans-Serif" font-size="10.00">operator&#45;&gt;()</text>
<text text-anchor="start" x="471.2" y="-67" font-family="Helvetica,sans-Serif" font-size="10.00">+</text>
<text text-anchor="start" x="502.7" y="-67" font-family="Helvetica,sans-Serif" font-size="10.00">operator!=()</text>
<text text-anchor="start" x="471.2" y="-52" font-family="Helvetica,sans-Serif" font-size="10.00">+</text>
<text text-anchor="start" x="502.7" y="-52" font-family="Helvetica,sans-Serif" font-size="10.00">operator++()</text>
<text text-anchor="start" x="471.2" y="-37" font-family="Helvetica,sans-Serif" font-size="10.00">+</text>
<text text-anchor="start" x="502.7" y="-37" font-family="Helvetica,sans-Serif" font-size="10.00">NodeIterator()</text>
<text text-anchor="start" x="473.7" y="-22" font-family="Helvetica,sans-Serif" font-size="10.00">&#45;</text>
<text text-anchor="start" x="502.7" y="-22" font-family="Helvetica,sans-Serif" font-size="10.00">IsAtEnd()</text>
<text text-anchor="start" x="473.7" y="-7" font-family="Helvetica,sans-Serif" font-size="10.00">&#45;</text>
<text text-anchor="start" x="502.7" y="-7" font-family="Helvetica,sans-Serif" font-size="10.00">IsAllowedNode()</text>
<polygon fill="#666666" stroke="#666666" points="448.7,-122 448.7,-122 624.7,-122 624.7,-122 448.7,-122"/>
<polygon fill="#666666" stroke="#666666" points="448.7,-107 448.7,-107 624.7,-107 624.7,-107 448.7,-107"/>
<polygon fill="none" stroke="#666666" points="448.7,0 448.7,-150 624.7,-150 624.7,0 448.7,0"/>
</a>
</g>
</g>
<!-- Node2 -->
<g id="Node000002" class="node">
<title>Node2</title>
<g id="a_Node000002"><a xlink:href="classAbstractMesh.html" target="_top" xlink:title=" ">
<polygon fill="white" stroke="transparent" points="610.2,-467 463.2,-467 463.2,-197 610.2,-197 610.2,-467"/>
<text text-anchor="start" x="475.2" y="-455" font-family="Helvetica,sans-Serif" font-size="10.00">AbstractMesh&lt; ELEMENT</text>
<text text-anchor="start" x="488.2" y="-444" font-family="Helvetica,sans-Serif" font-size="10.00">_DIM, SPACE_DIM &gt;</text>
<text text-anchor="start" x="535.2" y="-429" font-family="Helvetica,sans-Serif" font-size="10.00"> </text>
<text text-anchor="start" x="467.7" y="-414" font-family="Helvetica,sans-Serif" font-size="10.00">+</text>
<text text-anchor="start" x="480.7" y="-414" font-family="Helvetica,sans-Serif" font-size="10.00">GetNodeIteratorBegin()</text>
<text text-anchor="start" x="467.7" y="-399" font-family="Helvetica,sans-Serif" font-size="10.00">+</text>
<text text-anchor="start" x="480.7" y="-399" font-family="Helvetica,sans-Serif" font-size="10.00">GetNodeIteratorEnd()</text>
<text text-anchor="start" x="467.7" y="-384" font-family="Helvetica,sans-Serif" font-size="10.00">+</text>
<text text-anchor="start" x="480.7" y="-384" font-family="Helvetica,sans-Serif" font-size="10.00">AbstractMesh()</text>
<text text-anchor="start" x="467.7" y="-369" font-family="Helvetica,sans-Serif" font-size="10.00">+</text>
<text text-anchor="start" x="480.7" y="-369" font-family="Helvetica,sans-Serif" font-size="10.00">~AbstractMesh()</text>
<text text-anchor="start" x="467.7" y="-354" font-family="Helvetica,sans-Serif" font-size="10.00">+</text>
<text text-anchor="start" x="480.7" y="-354" font-family="Helvetica,sans-Serif" font-size="10.00">GetNumNodes()</text>
<text text-anchor="start" x="467.7" y="-339" font-family="Helvetica,sans-Serif" font-size="10.00">+</text>
<text text-anchor="start" x="480.7" y="-339" font-family="Helvetica,sans-Serif" font-size="10.00">GetNumBoundaryNodes()</text>
<text text-anchor="start" x="467.7" y="-324" font-family="Helvetica,sans-Serif" font-size="10.00">+</text>
<text text-anchor="start" x="480.7" y="-324" font-family="Helvetica,sans-Serif" font-size="10.00">GetNumAllNodes()</text>
<text text-anchor="start" x="467.7" y="-309" font-family="Helvetica,sans-Serif" font-size="10.00">+</text>
<text text-anchor="start" x="480.7" y="-309" font-family="Helvetica,sans-Serif" font-size="10.00">GetNumNodeAttributes()</text>
<text text-anchor="start" x="467.7" y="-294" font-family="Helvetica,sans-Serif" font-size="10.00">+</text>
<text text-anchor="start" x="480.7" y="-294" font-family="Helvetica,sans-Serif" font-size="10.00">GetNode()</text>
<text text-anchor="start" x="467.7" y="-279" font-family="Helvetica,sans-Serif" font-size="10.00">+</text>
<text text-anchor="start" x="480.7" y="-279" font-family="Helvetica,sans-Serif" font-size="10.00">GetNodeOrHaloNode()</text>
<text text-anchor="start" x="480.7" y="-264" font-family="Helvetica,sans-Serif" font-size="10.00">and 28 more...</text>
<text text-anchor="start" x="467.7" y="-249" font-family="Helvetica,sans-Serif" font-size="10.00">#</text>
<text text-anchor="start" x="480.7" y="-249" font-family="Helvetica,sans-Serif" font-size="10.00">SetElementOwnerships()</text>
<text text-anchor="start" x="467.7" y="-234" font-family="Helvetica,sans-Serif" font-size="10.00">#</text>
<text text-anchor="start" x="480.7" y="-234" font-family="Helvetica,sans-Serif" font-size="10.00">CalculateBoundingBox()</text>
<text text-anchor="start" x="470.2" y="-219" font-family="Helvetica,sans-Serif" font-size="10.00">&#45;</text>
<text text-anchor="start" x="480.7" y="-219" font-family="Helvetica,sans-Serif" font-size="10.00">SolveNodeMapping()</text>
<text text-anchor="start" x="470.2" y="-204" font-family="Helvetica,sans-Serif" font-size="10.00">&#45;</text>
<text text-anchor="start" x="480.7" y="-204" font-family="Helvetica,sans-Serif" font-size="10.00">serialize()</text>
<polygon fill="#666666" stroke="#666666" points="463.7,-439 463.7,-439 610.7,-439 610.7,-439 463.7,-439"/>
<polygon fill="#666666" stroke="#666666" points="463.7,-424 463.7,-424 610.7,-424 610.7,-424 463.7,-424"/>
<polygon fill="none" stroke="#666666" points="463.2,-197 463.2,-467 610.2,-467 610.2,-197 463.2,-197"/>
</a>
</g>
</g>
<!-- Node2&#45;&gt;Node1 -->
<g id="edge1_Node000001_Node000002" class="edge">
<title>Node2&#45;&gt;Node1</title>
<g id="a_edge1_Node000001_Node000002"><a xlink:title=" ">
<path fill="none" stroke="#63b8ff" d="M536.7,-196.78C536.7,-185.1 536.7,-173.49 536.7,-162.35"/>
<polygon fill="none" stroke="#63b8ff" points="536.7,-162 532.7,-156 536.7,-150 540.7,-156 536.7,-162"/>
</a>
</g>
<text text-anchor="middle" x="560.2" y="-171" font-family="Helvetica,sans-Serif" font-size="10.00" fill="grey"> &#45;mrMesh</text>
</g>
<!-- Node3 -->
<g id="Node000003" class="node">
<title>Node3</title>
<g id="a_Node000003"><a xlink:title=" ">
<polygon fill="white" stroke="transparent" points="1078.7,-697.5 972.7,-697.5 972.7,-648.5 1078.7,-648.5 1078.7,-697.5"/>
<text text-anchor="start" x="977.7" y="-685" font-family="Helvetica,sans-Serif" font-size="10.00">boost::noncopyable</text>
<text text-anchor="start" x="1023.7" y="-670" font-family="Helvetica,sans-Serif" font-size="10.00"> </text>
<text text-anchor="start" x="1023.7" y="-655" font-family="Helvetica,sans-Serif" font-size="10.00"> </text>
<polygon fill="#bfbfbf" stroke="#bfbfbf" points="972.7,-680 972.7,-680 1078.7,-680 1078.7,-680 972.7,-680"/>
<polygon fill="#bfbfbf" stroke="#bfbfbf" points="972.7,-665 972.7,-665 1078.7,-665 1078.7,-665 972.7,-665"/>
<polygon fill="none" stroke="#bfbfbf" points="972.7,-648.5 972.7,-697.5 1078.7,-697.5 1078.7,-648.5 972.7,-648.5"/>
</a>
</g>
</g>
<!-- Node3&#45;&gt;Node2 -->
<g id="edge2_Node000002_Node000003" class="edge">
<title>Node3&#45;&gt;Node2</title>
<g id="a_edge2_Node000002_Node000003"><a xlink:title=" ">
<path fill="none" stroke="#8b1a1a" d="M1028.98,-638.02C1031.02,-595.04 1027.08,-522.17 982.7,-485 951.74,-459.07 654.48,-487.52 619.7,-467 616.52,-465.12 613.44,-463.07 610.47,-460.87"/>
<polygon fill="none" stroke="#8b1a1a" points="1025.47,-638.07 1028.35,-648.26 1032.46,-638.5 1025.47,-638.07"/>
</a>
</g>
</g>
<!-- Node4 -->
<g id="Node000004" class="node">
<title>Node4</title>
<g id="a_Node000004"><a xlink:title=" ">
<polygon fill="white" stroke="transparent" points="215.7,-703 95.7,-703 95.7,-643 215.7,-643 215.7,-703"/>
<text text-anchor="start" x="100.7" y="-691" font-family="Helvetica,sans-Serif" font-size="10.00">vector&lt; Node&lt; SPACE</text>
<text text-anchor="start" x="127.7" y="-680" font-family="Helvetica,sans-Serif" font-size="10.00">_DIM &gt; * &gt;</text>
<text text-anchor="start" x="153.7" y="-665" font-family="Helvetica,sans-Serif" font-size="10.00"> </text>
<text text-anchor="start" x="153.7" y="-650" font-family="Helvetica,sans-Serif" font-size="10.00"> </text>
<polygon fill="#bfbfbf" stroke="#bfbfbf" points="95.7,-675 95.7,-675 215.7,-675 215.7,-675 95.7,-675"/>
<polygon fill="#bfbfbf" stroke="#bfbfbf" points="95.7,-660 95.7,-660 215.7,-660 215.7,-660 95.7,-660"/>
<polygon fill="none" stroke="#bfbfbf" points="95.7,-643 95.7,-703 215.7,-703 215.7,-643 95.7,-643"/>
</a>
</g>
</g>
<!-- Node4&#45;&gt;Node2 -->
<g id="edge3_Node000002_Node000004" class="edge">
<title>Node4&#45;&gt;Node2</title>
<g id="a_edge3_Node000002_Node000004"><a xlink:title=" ">
<path fill="none" stroke="#63b8ff" d="M146.6,-642.8C136.19,-603.31 124.45,-532.36 156.7,-485 222.46,-388.42 360.53,-353.2 450.88,-340.36"/>
<polygon fill="none" stroke="#63b8ff" points="451.14,-340.33 456.55,-335.56 463.03,-338.73 457.61,-343.49 451.14,-340.33"/>
</a>
</g>
<text text-anchor="middle" x="206.2" y="-499" font-family="Helvetica,sans-Serif" font-size="10.00" fill="grey"> #mBoundaryNodes</text>
<text text-anchor="middle" x="206.2" y="-488" font-family="Helvetica,sans-Serif" font-size="10.00" fill="grey">#mNodes</text>
</g>
<!-- Node5 -->
<g id="Node000005" class="node">
<title>Node5</title>
<g id="a_Node000005"><a xlink:href="classDistributedVectorFactory.html" target="_top" xlink:title=" ">
<polygon fill="white" stroke="transparent" points="619.7,-821 453.7,-821 453.7,-525 619.7,-525 619.7,-821"/>
<text text-anchor="start" x="476.2" y="-809" font-family="Helvetica,sans-Serif" font-size="10.00">DistributedVectorFactory</text>
<text text-anchor="start" x="534.7" y="-794" font-family="Helvetica,sans-Serif" font-size="10.00"> </text>
<text text-anchor="start" x="457.7" y="-779" font-family="Helvetica,sans-Serif" font-size="10.00">+</text>
<text text-anchor="start" x="470.7" y="-779" font-family="Helvetica,sans-Serif" font-size="10.00">DistributedVectorFactory()</text>
<text text-anchor="start" x="457.7" y="-764" font-family="Helvetica,sans-Serif" font-size="10.00">+</text>
<text text-anchor="start" x="470.7" y="-764" font-family="Helvetica,sans-Serif" font-size="10.00">DistributedVectorFactory()</text>
<text text-anchor="start" x="457.7" y="-749" font-family="Helvetica,sans-Serif" font-size="10.00">+</text>
<text text-anchor="start" x="470.7" y="-749" font-family="Helvetica,sans-Serif" font-size="10.00">DistributedVectorFactory()</text>
<text text-anchor="start" x="457.7" y="-734" font-family="Helvetica,sans-Serif" font-size="10.00">+</text>
<text text-anchor="start" x="470.7" y="-734" font-family="Helvetica,sans-Serif" font-size="10.00">DistributedVectorFactory()</text>
<text text-anchor="start" x="457.7" y="-719" font-family="Helvetica,sans-Serif" font-size="10.00">+</text>
<text text-anchor="start" x="470.7" y="-719" font-family="Helvetica,sans-Serif" font-size="10.00">~DistributedVectorFactory()</text>
<text text-anchor="start" x="457.7" y="-704" font-family="Helvetica,sans-Serif" font-size="10.00">+</text>
<text text-anchor="start" x="470.7" y="-704" font-family="Helvetica,sans-Serif" font-size="10.00">CreateVec()</text>
<text text-anchor="start" x="457.7" y="-689" font-family="Helvetica,sans-Serif" font-size="10.00">+</text>
<text text-anchor="start" x="470.7" y="-689" font-family="Helvetica,sans-Serif" font-size="10.00">CreateVec()</text>
<text text-anchor="start" x="457.7" y="-674" font-family="Helvetica,sans-Serif" font-size="10.00">+</text>
<text text-anchor="start" x="470.7" y="-674" font-family="Helvetica,sans-Serif" font-size="10.00">CreateDistributedVector()</text>
<text text-anchor="start" x="457.7" y="-659" font-family="Helvetica,sans-Serif" font-size="10.00">+</text>
<text text-anchor="start" x="470.7" y="-659" font-family="Helvetica,sans-Serif" font-size="10.00">IsGlobalIndexLocal()</text>
<text text-anchor="start" x="457.7" y="-644" font-family="Helvetica,sans-Serif" font-size="10.00">+</text>
<text text-anchor="start" x="470.7" y="-644" font-family="Helvetica,sans-Serif" font-size="10.00">GetLocalOwnership()</text>
<text text-anchor="start" x="470.7" y="-629" font-family="Helvetica,sans-Serif" font-size="10.00">and 8 more...</text>
<text text-anchor="start" x="457.7" y="-614" font-family="Helvetica,sans-Serif" font-size="10.00">+</text>
<text text-anchor="start" x="470.7" y="-614" font-family="Helvetica,sans-Serif" font-size="10.00">SetCheckNumberOfProcesses</text>
<text text-anchor="start" x="470.7" y="-603" font-family="Helvetica,sans-Serif" font-size="10.00">OnLoad()</text>
<text text-anchor="start" x="457.7" y="-588" font-family="Helvetica,sans-Serif" font-size="10.00">+</text>
<text text-anchor="start" x="470.7" y="-588" font-family="Helvetica,sans-Serif" font-size="10.00">CheckNumberOfProcessesOn</text>
<text text-anchor="start" x="470.7" y="-577" font-family="Helvetica,sans-Serif" font-size="10.00">Load()</text>
<text text-anchor="start" x="460.2" y="-562" font-family="Helvetica,sans-Serif" font-size="10.00">&#45;</text>
<text text-anchor="start" x="470.7" y="-562" font-family="Helvetica,sans-Serif" font-size="10.00">CheckForPetsc()</text>
<text text-anchor="start" x="460.2" y="-547" font-family="Helvetica,sans-Serif" font-size="10.00">&#45;</text>
<text text-anchor="start" x="470.7" y="-547" font-family="Helvetica,sans-Serif" font-size="10.00">CalculateOwnership()</text>
<text text-anchor="start" x="460.2" y="-532" font-family="Helvetica,sans-Serif" font-size="10.00">&#45;</text>
<text text-anchor="start" x="470.7" y="-532" font-family="Helvetica,sans-Serif" font-size="10.00">serialize()</text>
<polygon fill="#666666" stroke="#666666" points="453.7,-804 453.7,-804 619.7,-804 619.7,-804 453.7,-804"/>
<polygon fill="#666666" stroke="#666666" points="453.7,-789 453.7,-789 619.7,-789 619.7,-789 453.7,-789"/>
<polygon fill="none" stroke="#666666" points="453.7,-525 453.7,-821 619.7,-821 619.7,-525 453.7,-525"/>
</a>
</g>
</g>
<!-- Node5&#45;&gt;Node2 -->
<g id="edge4_Node000002_Node000005" class="edge">
<title>Node5&#45;&gt;Node2</title>
<g id="a_edge4_Node000002_Node000005"><a xlink:title=" ">
<path fill="none" stroke="#63b8ff" d="M536.7,-524.79C536.7,-509.63 536.7,-494.23 536.7,-479.09"/>
<polygon fill="none" stroke="#63b8ff" points="536.7,-479.01 532.7,-473.01 536.7,-467.01 540.7,-473.01 536.7,-479.01"/>
</a>
</g>
<text text-anchor="middle" x="610.7" y="-493.5" font-family="Helvetica,sans-Serif" font-size="10.00" fill="grey"> #mpDistributedVectorFactory</text>
</g>
<!-- Node5&#45;&gt;Node5 -->
<g id="edge8_Node000005_Node000005" class="edge">
<title>Node5&#45;&gt;Node5</title>
<g id="a_edge8_Node000005_Node000005"><a xlink:title=" ">
<path fill="none" stroke="#63b8ff" d="M619.91,-701.92C630.62,-696.91 637.7,-687.27 637.7,-673 637.7,-663.86 634.8,-656.62 629.89,-651.28"/>
<polygon fill="none" stroke="#63b8ff" points="629.64,-651.1 622.44,-650.83 619.91,-644.08 627.12,-644.34 629.64,-651.1"/>
</a>
</g>
<text text-anchor="middle" x="686.2" y="-670.5" font-family="Helvetica,sans-Serif" font-size="10.00" fill="grey"> &#45;mpOriginalFactory</text>
</g>
<!-- Node6 -->
<g id="Node000006" class="node">
<title>Node6</title>
<g id="a_Node000006"><a xlink:href="classunsigned.html" target="_top" xlink:title=" ">
<polygon fill="white" stroke="transparent" points="564.2,-950 509.2,-950 509.2,-901 564.2,-901 564.2,-950"/>
<text text-anchor="start" x="514.7" y="-937.5" font-family="Helvetica,sans-Serif" font-size="10.00">unsigned</text>
<text text-anchor="start" x="535.2" y="-922.5" font-family="Helvetica,sans-Serif" font-size="10.00"> </text>
<text text-anchor="start" x="535.2" y="-907.5" font-family="Helvetica,sans-Serif" font-size="10.00"> </text>
<polygon fill="#bfbfbf" stroke="#bfbfbf" points="509.7,-932.5 509.7,-932.5 564.7,-932.5 564.7,-932.5 509.7,-932.5"/>
<polygon fill="#bfbfbf" stroke="#bfbfbf" points="509.7,-917.5 509.7,-917.5 564.7,-917.5 564.7,-917.5 509.7,-917.5"/>
<polygon fill="none" stroke="#bfbfbf" points="509.2,-901 509.2,-950 564.2,-950 564.2,-901 509.2,-901"/>
</a>
</g>
</g>
<!-- Node6&#45;&gt;Node5 -->
<g id="edge5_Node000005_Node000006" class="edge">
<title>Node6&#45;&gt;Node5</title>
<g id="a_edge5_Node000005_Node000006"><a xlink:title=" ">
<path fill="none" stroke="#63b8ff" d="M536.7,-900.93C536.7,-884.14 536.7,-859.93 536.7,-833.52"/>
<polygon fill="none" stroke="#63b8ff" points="536.7,-833.25 532.7,-827.25 536.7,-821.25 540.7,-827.25 536.7,-833.25"/>
</a>
</g>
<text text-anchor="middle" x="574.2" y="-875" font-family="Helvetica,sans-Serif" font-size="10.00" fill="grey"> &#45;mHi</text>
<text text-anchor="middle" x="574.2" y="-864" font-family="Helvetica,sans-Serif" font-size="10.00" fill="grey">&#45;mLo</text>
<text text-anchor="middle" x="574.2" y="-853" font-family="Helvetica,sans-Serif" font-size="10.00" fill="grey">&#45;mNumProcs</text>
<text text-anchor="middle" x="574.2" y="-842" font-family="Helvetica,sans-Serif" font-size="10.00" fill="grey">&#45;mProblemSize</text>
</g>
<!-- Node7 -->
<g id="Node000007" class="node">
<title>Node7</title>
<g id="a_Node000007"><a xlink:href="classbool.html" target="_top" xlink:title=" ">
<polygon fill="white" stroke="transparent" points="276.7,-950 244.7,-950 244.7,-901 276.7,-901 276.7,-950"/>
<text text-anchor="start" x="249.7" y="-937.5" font-family="Helvetica,sans-Serif" font-size="10.00">bool</text>
<text text-anchor="start" x="258.7" y="-922.5" font-family="Helvetica,sans-Serif" font-size="10.00"> </text>
<text text-anchor="start" x="258.7" y="-907.5" font-family="Helvetica,sans-Serif" font-size="10.00"> </text>
<polygon fill="#bfbfbf" stroke="#bfbfbf" points="244.7,-932.5 244.7,-932.5 276.7,-932.5 276.7,-932.5 244.7,-932.5"/>
<polygon fill="#bfbfbf" stroke="#bfbfbf" points="244.7,-917.5 244.7,-917.5 276.7,-917.5 276.7,-917.5 244.7,-917.5"/>
<polygon fill="none" stroke="#bfbfbf" points="244.7,-901 244.7,-950 276.7,-950 276.7,-901 244.7,-901"/>
</a>
</g>
</g>
<!-- Node7&#45;&gt;Node1 -->
<g id="edge13_Node000001_Node000007" class="edge">
<title>Node7&#45;&gt;Node1</title>
<g id="a_edge13_Node000001_Node000007"><a xlink:title=" ">
<path fill="none" stroke="#63b8ff" d="M244.53,-919.98C209.41,-909.26 126.15,-878.76 86.7,-821 1.48,-696.21 -30.15,-621.49 34.7,-485 117.89,-309.93 316.74,-185.15 437.72,-122.34"/>
<polygon fill="none" stroke="#63b8ff" points="437.78,-122.3 441.29,-116 448.45,-116.82 444.94,-123.12 437.78,-122.3"/>
</a>
</g>
<text text-anchor="middle" x="88.2" y="-493.5" font-family="Helvetica,sans-Serif" font-size="10.00" fill="grey"> &#45;mSkipDeletedNodes</text>
</g>
<!-- Node7&#45;&gt;Node2 -->
<g id="edge11_Node000002_Node000007" class="edge">
<title>Node7&#45;&gt;Node2</title>
<g id="a_edge11_Node000002_Node000007"><a xlink:title=" ">
<path fill="none" stroke="#63b8ff" d="M254.32,-900.63C238.36,-835.72 202.6,-652.36 269.7,-525 308.43,-451.5 389.4,-399.52 452.07,-368.35"/>
<polygon fill="none" stroke="#63b8ff" points="452.36,-368.21 456,-361.99 463.15,-362.96 459.5,-369.18 452.36,-368.21"/>
</a>
</g>
<text text-anchor="middle" x="357.2" y="-670.5" font-family="Helvetica,sans-Serif" font-size="10.00" fill="grey"> #mMeshChangesDuringSimulation</text>
</g>
<!-- Node7&#45;&gt;Node5 -->
<g id="edge6_Node000005_Node000007" class="edge">
<title>Node7&#45;&gt;Node5</title>
<g id="a_edge6_Node000005_Node000007"><a xlink:title=" ">
<path fill="none" stroke="#63b8ff" d="M276.99,-910.97C299.83,-892.55 343.23,-859.55 384.7,-839 407.75,-827.58 419.25,-836.6 439.7,-821 441.18,-819.87 442.65,-818.71 444.1,-817.52"/>
<polygon fill="none" stroke="#63b8ff" points="444.43,-817.23 446.29,-810.27 453.44,-809.31 451.57,-816.28 444.43,-817.23"/>
</a>
</g>
<text text-anchor="middle" x="458.7" y="-869.5" font-family="Helvetica,sans-Serif" font-size="10.00" fill="grey"> &#45;mPetscStatusKnown</text>
<text text-anchor="start" x="384.7" y="-858.5" font-family="Helvetica,sans-Serif" font-size="10.00" fill="grey">&#45;msCheckNumberOfProcesses</text>
<text text-anchor="middle" x="458.7" y="-847.5" font-family="Helvetica,sans-Serif" font-size="10.00" fill="grey">OnLoad</text>
</g>
<!-- Node8 -->
<g id="Node000008" class="node">
<title>Node8</title>
<g id="a_Node000008"><a xlink:title=" ">
<polygon fill="white" stroke="transparent" points="768.7,-950 660.7,-950 660.7,-901 768.7,-901 768.7,-950"/>
<text text-anchor="start" x="665.7" y="-937.5" font-family="Helvetica,sans-Serif" font-size="10.00">vector&lt; unsigned &gt;</text>
<text text-anchor="start" x="712.7" y="-922.5" font-family="Helvetica,sans-Serif" font-size="10.00"> </text>
<text text-anchor="start" x="712.7" y="-907.5" font-family="Helvetica,sans-Serif" font-size="10.00"> </text>
<polygon fill="#bfbfbf" stroke="#bfbfbf" points="660.7,-932.5 660.7,-932.5 768.7,-932.5 768.7,-932.5 660.7,-932.5"/>
<polygon fill="#bfbfbf" stroke="#bfbfbf" points="660.7,-917.5 660.7,-917.5 768.7,-917.5 768.7,-917.5 660.7,-917.5"/>
<polygon fill="none" stroke="#bfbfbf" points="660.7,-901 660.7,-950 768.7,-950 768.7,-901 660.7,-901"/>
</a>
</g>
</g>
<!-- Node8&#45;&gt;Node2 -->
<g id="edge9_Node000002_Node000008" class="edge">
<title>Node8&#45;&gt;Node2</title>
<g id="a_edge9_Node000002_Node000008"><a xlink:title=" ">
<path fill="none" stroke="#63b8ff" d="M745.04,-900.64C749.79,-895.37 754.01,-889.43 756.7,-883 764.24,-864.96 757.11,-858.55 756.7,-839 753.81,-699.35 809.64,-648.13 743.7,-525 729.43,-498.36 716.02,-497.93 688.7,-485 662.96,-472.82 648.36,-483.19 620.43,-466.31"/>
<polygon fill="none" stroke="#63b8ff" points="620.32,-466.23 613.11,-466.16 610.41,-459.47 617.62,-459.55 620.32,-466.23"/>
</a>
</g>
<text text-anchor="middle" x="829.2" y="-670.5" font-family="Helvetica,sans-Serif" font-size="10.00" fill="grey"> #mNodePermutation</text>
</g>
<!-- Node8&#45;&gt;Node5 -->
<g id="edge7_Node000005_Node000008" class="edge">
<title>Node8&#45;&gt;Node5</title>
<g id="a_edge7_Node000005_Node000008"><a xlink:title=" ">
<path fill="none" stroke="#63b8ff" d="M696.88,-900.88C692.53,-895.06 687.92,-888.82 683.7,-883 665.17,-857.44 645.59,-829.94 626.96,-803.56"/>
<polygon fill="none" stroke="#63b8ff" points="626.79,-803.32 620.07,-800.72 619.88,-793.51 626.6,-796.11 626.79,-803.32"/>
</a>
</g>
<text text-anchor="middle" x="720.2" y="-858.5" font-family="Helvetica,sans-Serif" font-size="10.00" fill="grey"> &#45;mGlobalLows</text>
</g>
<!-- Node9 -->
<g id="Node000009" class="node">
<title>Node9</title>
<g id="a_Node000009"><a xlink:title=" ">
<polygon fill="white" stroke="transparent" points="933.7,-697.5 895.7,-697.5 895.7,-648.5 933.7,-648.5 933.7,-697.5"/>
<text text-anchor="start" x="900.7" y="-685" font-family="Helvetica,sans-Serif" font-size="10.00">string</text>
<text text-anchor="start" x="912.7" y="-670" font-family="Helvetica,sans-Serif" font-size="10.00"> </text>
<text text-anchor="start" x="912.7" y="-655" font-family="Helvetica,sans-Serif" font-size="10.00"> </text>
<polygon fill="#bfbfbf" stroke="#bfbfbf" points="895.7,-680 895.7,-680 933.7,-680 933.7,-680 895.7,-680"/>
<polygon fill="#bfbfbf" stroke="#bfbfbf" points="895.7,-665 895.7,-665 933.7,-665 933.7,-665 895.7,-665"/>
<polygon fill="none" stroke="#bfbfbf" points="895.7,-648.5 895.7,-697.5 933.7,-697.5 933.7,-648.5 895.7,-648.5"/>
</a>
</g>
</g>
<!-- Node9&#45;&gt;Node2 -->
<g id="edge10_Node000002_Node000009" class="edge">
<title>Node9&#45;&gt;Node2</title>
<g id="a_edge10_Node000002_Node000009"><a xlink:title=" ">
<path fill="none" stroke="#63b8ff" d="M915.74,-648.49C915.86,-616.8 911.45,-560.3 881.7,-525 851.65,-489.34 829.88,-496.53 784.7,-485 751.82,-476.61 666.21,-485.07 621.09,-466"/>
<polygon fill="none" stroke="#63b8ff" points="620.93,-465.92 613.76,-466.69 610.29,-460.36 617.46,-459.59 620.93,-465.92"/>
</a>
</g>
<text text-anchor="middle" x="919.7" y="-493.5" font-family="Helvetica,sans-Serif" font-size="10.00" fill="grey"> #mMeshFileBaseName</text>
</g>
<!-- Node10 -->
<g id="Node000010" class="node">
<title>Node10</title>
<g id="a_Node000010"><a xlink:title=" ">
<polygon fill="white" stroke="transparent" points="675.2,-356.5 628.2,-356.5 628.2,-307.5 675.2,-307.5 675.2,-356.5"/>
<text text-anchor="start" x="633.7" y="-344" font-family="Helvetica,sans-Serif" font-size="10.00">iterator</text>
<text text-anchor="start" x="650.2" y="-329" font-family="Helvetica,sans-Serif" font-size="10.00"> </text>
<text text-anchor="start" x="650.2" y="-314" font-family="Helvetica,sans-Serif" font-size="10.00"> </text>
<polygon fill="#bfbfbf" stroke="#bfbfbf" points="628.7,-339 628.7,-339 675.7,-339 675.7,-339 628.7,-339"/>
<polygon fill="#bfbfbf" stroke="#bfbfbf" points="628.7,-324 628.7,-324 675.7,-324 675.7,-324 628.7,-324"/>
<polygon fill="none" stroke="#bfbfbf" points="628.2,-307.5 628.2,-356.5 675.2,-356.5 675.2,-307.5 628.2,-307.5"/>
</a>
</g>
</g>
<!-- Node10&#45;&gt;Node1 -->
<g id="edge12_Node000001_Node000010" class="edge">
<title>Node10&#45;&gt;Node1</title>
<g id="a_edge12_Node000001_Node000010"><a xlink:title=" ">
<path fill="none" stroke="#63b8ff" d="M648.74,-307.4C644.69,-279.96 636.01,-233.73 619.7,-197 614.26,-184.75 607.56,-172.43 600.33,-160.59"/>
<polygon fill="none" stroke="#63b8ff" points="600.26,-160.47 593.68,-157.52 593.87,-150.31 600.45,-153.26 600.26,-160.47"/>
</a>
</g>
<text text-anchor="middle" x="638.2" y="-171" font-family="Helvetica,sans-Serif" font-size="10.00" fill="grey"> &#45;mNodeIter</text>
</g>
</g>
</svg>
