<?xml version="1.0" encoding="UTF-8" standalone="no"?>
<!DOCTYPE svg PUBLIC "-//W3C//DTD SVG 1.1//EN"
 "http://www.w3.org/Graphics/SVG/1.1/DTD/svg11.dtd">
<!-- Generated by graphviz version 2.43.0 (0)
 -->
<!-- Title: Hdf5DataWriter Pages: 1 -->
<svg width="1856pt" height="1164pt"
 viewBox="0.00 0.00 1856.00 1164.00" xmlns="http://www.w3.org/2000/svg" xmlns:xlink="http://www.w3.org/1999/xlink">
<g id="graph0" class="graph" transform="scale(1 1) rotate(0) translate(4 1160)">
<title>Hdf5DataWriter</title>
<!-- Node1 -->
<g id="Node000001" class="node">
<title>Node1</title>
<g id="a_Node000001"><a xlink:title=" ">
<polygon fill="#999999" stroke="transparent" points="1379.5,-304 1180.5,-304 1180.5,0 1379.5,0 1379.5,-304"/>
<text text-anchor="start" x="1242" y="-292" font-family="Helvetica,sans-Serif" font-size="10.00">Hdf5DataWriter</text>
<text text-anchor="start" x="1278.5" y="-277" font-family="Helvetica,sans-Serif" font-size="10.00"> </text>
<text text-anchor="start" x="1185" y="-262" font-family="Helvetica,sans-Serif" font-size="10.00">+</text>
<text text-anchor="start" x="1198" y="-262" font-family="Helvetica,sans-Serif" font-size="10.00">Hdf5DataWriter()</text>
<text text-anchor="start" x="1185" y="-247" font-family="Helvetica,sans-Serif" font-size="10.00">+</text>
<text text-anchor="start" x="1198" y="-247" font-family="Helvetica,sans-Serif" font-size="10.00">~Hdf5DataWriter()</text>
<text text-anchor="start" x="1185" y="-232" font-family="Helvetica,sans-Serif" font-size="10.00">+</text>
<text text-anchor="start" x="1198" y="-232" font-family="Helvetica,sans-Serif" font-size="10.00">DefineFixedDimension()</text>
<text text-anchor="start" x="1185" y="-217" font-family="Helvetica,sans-Serif" font-size="10.00">+</text>
<text text-anchor="start" x="1198" y="-217" font-family="Helvetica,sans-Serif" font-size="10.00">DefineFixedDimension()</text>
<text text-anchor="start" x="1185" y="-202" font-family="Helvetica,sans-Serif" font-size="10.00">+</text>
<text text-anchor="start" x="1198" y="-202" font-family="Helvetica,sans-Serif" font-size="10.00">DefineUnlimitedDimension()</text>
<text text-anchor="start" x="1185" y="-187" font-family="Helvetica,sans-Serif" font-size="10.00">+</text>
<text text-anchor="start" x="1198" y="-187" font-family="Helvetica,sans-Serif" font-size="10.00">AdvanceAlongUnlimitedDimension()</text>
<text text-anchor="start" x="1185" y="-172" font-family="Helvetica,sans-Serif" font-size="10.00">+</text>
<text text-anchor="start" x="1198" y="-172" font-family="Helvetica,sans-Serif" font-size="10.00">DefineVariable()</text>
<text text-anchor="start" x="1185" y="-157" font-family="Helvetica,sans-Serif" font-size="10.00">+</text>
<text text-anchor="start" x="1198" y="-157" font-family="Helvetica,sans-Serif" font-size="10.00">IsInDefineMode()</text>
<text text-anchor="start" x="1185" y="-142" font-family="Helvetica,sans-Serif" font-size="10.00">+</text>
<text text-anchor="start" x="1198" y="-142" font-family="Helvetica,sans-Serif" font-size="10.00">EndDefineMode()</text>
<text text-anchor="start" x="1185" y="-127" font-family="Helvetica,sans-Serif" font-size="10.00">+</text>
<text text-anchor="start" x="1198" y="-127" font-family="Helvetica,sans-Serif" font-size="10.00">PossiblyExtend()</text>
<text text-anchor="start" x="1198" y="-112" font-family="Helvetica,sans-Serif" font-size="10.00">and 12 more...</text>
<text text-anchor="start" x="1187.5" y="-97" font-family="Helvetica,sans-Serif" font-size="10.00">&#45;</text>
<text text-anchor="start" x="1198" y="-97" font-family="Helvetica,sans-Serif" font-size="10.00">CheckVariableName()</text>
<text text-anchor="start" x="1187.5" y="-82" font-family="Helvetica,sans-Serif" font-size="10.00">&#45;</text>
<text text-anchor="start" x="1198" y="-82" font-family="Helvetica,sans-Serif" font-size="10.00">CheckUnitsName()</text>
<text text-anchor="start" x="1187.5" y="-67" font-family="Helvetica,sans-Serif" font-size="10.00">&#45;</text>
<text text-anchor="start" x="1198" y="-67" font-family="Helvetica,sans-Serif" font-size="10.00">ComputeIncompleteOffset()</text>
<text text-anchor="start" x="1187.5" y="-52" font-family="Helvetica,sans-Serif" font-size="10.00">&#45;</text>
<text text-anchor="start" x="1198" y="-52" font-family="Helvetica,sans-Serif" font-size="10.00">OpenFile()</text>
<text text-anchor="start" x="1187.5" y="-37" font-family="Helvetica,sans-Serif" font-size="10.00">&#45;</text>
<text text-anchor="start" x="1198" y="-37" font-family="Helvetica,sans-Serif" font-size="10.00">CalculateNumberOfChunks()</text>
<text text-anchor="start" x="1187.5" y="-22" font-family="Helvetica,sans-Serif" font-size="10.00">&#45;</text>
<text text-anchor="start" x="1198" y="-22" font-family="Helvetica,sans-Serif" font-size="10.00">CalculateChunkDims()</text>
<text text-anchor="start" x="1187.5" y="-7" font-family="Helvetica,sans-Serif" font-size="10.00">&#45;</text>
<text text-anchor="start" x="1198" y="-7" font-family="Helvetica,sans-Serif" font-size="10.00">SetChunkSize()</text>
<polygon fill="#666666" stroke="#666666" points="1181,-287 1181,-287 1380,-287 1380,-287 1181,-287"/>
<polygon fill="#666666" stroke="#666666" points="1181,-272 1181,-272 1380,-272 1380,-272 1181,-272"/>
<polygon fill="none" stroke="#666666" points="1180.5,0 1180.5,-304 1379.5,-304 1379.5,0 1180.5,0"/>
</a>
</g>
</g>
<!-- Node2 -->
<g id="Node000002" class="node">
<title>Node2</title>
<g id="a_Node000002"><a xlink:href="classAbstractHdf5Access.html" target="_top" xlink:title=" ">
<polygon fill="white" stroke="transparent" points="616.5,-602 427.5,-602 427.5,-418 616.5,-418 616.5,-602"/>
<text text-anchor="start" x="473.5" y="-590" font-family="Helvetica,sans-Serif" font-size="10.00">AbstractHdf5Access</text>
<text text-anchor="start" x="520.5" y="-575" font-family="Helvetica,sans-Serif" font-size="10.00"> </text>
<text text-anchor="start" x="432" y="-560" font-family="Helvetica,sans-Serif" font-size="10.00">+</text>
<text text-anchor="start" x="445" y="-560" font-family="Helvetica,sans-Serif" font-size="10.00">AbstractHdf5Access()</text>
<text text-anchor="start" x="432" y="-545" font-family="Helvetica,sans-Serif" font-size="10.00">+</text>
<text text-anchor="start" x="445" y="-545" font-family="Helvetica,sans-Serif" font-size="10.00">AbstractHdf5Access()</text>
<text text-anchor="start" x="432" y="-530" font-family="Helvetica,sans-Serif" font-size="10.00">+</text>
<text text-anchor="start" x="445" y="-530" font-family="Helvetica,sans-Serif" font-size="10.00">~AbstractHdf5Access()</text>
<text text-anchor="start" x="432" y="-515" font-family="Helvetica,sans-Serif" font-size="10.00">+</text>
<text text-anchor="start" x="445" y="-515" font-family="Helvetica,sans-Serif" font-size="10.00">IsDataComplete()</text>
<text text-anchor="start" x="432" y="-500" font-family="Helvetica,sans-Serif" font-size="10.00">+</text>
<text text-anchor="start" x="445" y="-500" font-family="Helvetica,sans-Serif" font-size="10.00">GetIncompleteNodeMap()</text>
<text text-anchor="start" x="432" y="-485" font-family="Helvetica,sans-Serif" font-size="10.00">+</text>
<text text-anchor="start" x="445" y="-485" font-family="Helvetica,sans-Serif" font-size="10.00">GetUnlimitedDimensionName()</text>
<text text-anchor="start" x="432" y="-470" font-family="Helvetica,sans-Serif" font-size="10.00">+</text>
<text text-anchor="start" x="445" y="-470" font-family="Helvetica,sans-Serif" font-size="10.00">GetUnlimitedDimensionUnit()</text>
<text text-anchor="start" x="432" y="-455" font-family="Helvetica,sans-Serif" font-size="10.00">#</text>
<text text-anchor="start" x="445" y="-455" font-family="Helvetica,sans-Serif" font-size="10.00">DoesDatasetExist()</text>
<text text-anchor="start" x="432" y="-440" font-family="Helvetica,sans-Serif" font-size="10.00">#</text>
<text text-anchor="start" x="445" y="-440" font-family="Helvetica,sans-Serif" font-size="10.00">SetUnlimitedDatasetId()</text>
<text text-anchor="start" x="432" y="-425" font-family="Helvetica,sans-Serif" font-size="10.00">#</text>
<text text-anchor="start" x="445" y="-425" font-family="Helvetica,sans-Serif" font-size="10.00">SetMainDatasetRawChunkCache()</text>
<polygon fill="#666666" stroke="#666666" points="428,-585 428,-585 617,-585 617,-585 428,-585"/>
<polygon fill="#666666" stroke="#666666" points="428,-570 428,-570 617,-570 617,-570 428,-570"/>
<polygon fill="none" stroke="#666666" points="427.5,-418 427.5,-602 616.5,-602 616.5,-418 427.5,-418"/>
</a>
</g>
</g>
<!-- Node2&#45;&gt;Node1 -->
<g id="edge1_Node000001_Node000002" class="edge">
<title>Node2&#45;&gt;Node1</title>
<g id="a_edge1_Node000001_Node000002"><a xlink:title=" ">
<path fill="none" stroke="#63b8ff" d="M601.46,-410.03C631.34,-378.13 667.48,-345.08 706,-322 857.48,-231.22 1060.9,-186.48 1180.47,-166.67"/>
<polygon fill="none" stroke="#63b8ff" points="598.61,-407.96 594.39,-417.68 603.75,-412.71 598.61,-407.96"/>
</a>
</g>
</g>
<!-- Node3 -->
<g id="Node000003" class="node">
<title>Node3</title>
<g id="a_Node000003"><a xlink:title=" ">
<polygon fill="white" stroke="transparent" points="293,-1156 255,-1156 255,-1107 293,-1107 293,-1156"/>
<text text-anchor="start" x="260" y="-1143.5" font-family="Helvetica,sans-Serif" font-size="10.00">string</text>
<text text-anchor="start" x="272" y="-1128.5" font-family="Helvetica,sans-Serif" font-size="10.00"> </text>
<text text-anchor="start" x="272" y="-1113.5" font-family="Helvetica,sans-Serif" font-size="10.00"> </text>
<polygon fill="#bfbfbf" stroke="#bfbfbf" points="255,-1138.5 255,-1138.5 293,-1138.5 293,-1138.5 255,-1138.5"/>
<polygon fill="#bfbfbf" stroke="#bfbfbf" points="255,-1123.5 255,-1123.5 293,-1123.5 293,-1123.5 255,-1123.5"/>
<polygon fill="none" stroke="#bfbfbf" points="255,-1107 255,-1156 293,-1156 293,-1107 255,-1107"/>
</a>
</g>
</g>
<!-- Node3&#45;&gt;Node2 -->
<g id="edge2_Node000002_Node000003" class="edge">
<title>Node3&#45;&gt;Node2</title>
<g id="a_edge2_Node000002_Node000003"><a xlink:title=" ">
<path fill="none" stroke="#63b8ff" d="M293.21,-1122.71C307.1,-1115.99 324.95,-1104.84 334,-1089 369.14,-1027.48 334.79,-838.28 357,-771 375.66,-714.48 409.29,-657.95 441.35,-612.1"/>
<polygon fill="none" stroke="#63b8ff" points="441.44,-611.98 441.64,-604.77 448.38,-602.19 448.17,-609.4 441.44,-611.98"/>
</a>
</g>
<text text-anchor="middle" x="431" y="-929.5" font-family="Helvetica,sans-Serif" font-size="10.00" fill="grey"> #mBaseName</text>
<text text-anchor="middle" x="431" y="-918.5" font-family="Helvetica,sans-Serif" font-size="10.00" fill="grey">#mDatasetName</text>
<text text-anchor="middle" x="431" y="-907.5" font-family="Helvetica,sans-Serif" font-size="10.00" fill="grey">#mUnlimitedDimensionName</text>
<text text-anchor="middle" x="431" y="-896.5" font-family="Helvetica,sans-Serif" font-size="10.00" fill="grey">#mUnlimitedDimensionUnit</text>
</g>
<!-- Node4 -->
<g id="Node000004" class="node">
<title>Node4</title>
<g id="a_Node000004"><a xlink:href="classFileFinder.html" target="_top" xlink:title=" ">
<polygon fill="white" stroke="transparent" points="312,-1060 126,-1060 126,-771 312,-771 312,-1060"/>
<text text-anchor="start" x="195" y="-1047.5" font-family="Helvetica,sans-Serif" font-size="10.00">FileFinder</text>
<text text-anchor="start" x="217" y="-1032.5" font-family="Helvetica,sans-Serif" font-size="10.00"> </text>
<text text-anchor="start" x="130" y="-1017.5" font-family="Helvetica,sans-Serif" font-size="10.00">+</text>
<text text-anchor="start" x="143" y="-1017.5" font-family="Helvetica,sans-Serif" font-size="10.00">FileFinder()</text>
<text text-anchor="start" x="130" y="-1002.5" font-family="Helvetica,sans-Serif" font-size="10.00">+</text>
<text text-anchor="start" x="143" y="-1002.5" font-family="Helvetica,sans-Serif" font-size="10.00">FileFinder()</text>
<text text-anchor="start" x="130" y="-987.5" font-family="Helvetica,sans-Serif" font-size="10.00">+</text>
<text text-anchor="start" x="143" y="-987.5" font-family="Helvetica,sans-Serif" font-size="10.00">FileFinder()</text>
<text text-anchor="start" x="130" y="-972.5" font-family="Helvetica,sans-Serif" font-size="10.00">+</text>
<text text-anchor="start" x="143" y="-972.5" font-family="Helvetica,sans-Serif" font-size="10.00">FileFinder()</text>
<text text-anchor="start" x="130" y="-957.5" font-family="Helvetica,sans-Serif" font-size="10.00">+</text>
<text text-anchor="start" x="143" y="-957.5" font-family="Helvetica,sans-Serif" font-size="10.00">~FileFinder()</text>
<text text-anchor="start" x="130" y="-942.5" font-family="Helvetica,sans-Serif" font-size="10.00">+</text>
<text text-anchor="start" x="143" y="-942.5" font-family="Helvetica,sans-Serif" font-size="10.00">SetPath()</text>
<text text-anchor="start" x="130" y="-927.5" font-family="Helvetica,sans-Serif" font-size="10.00">+</text>
<text text-anchor="start" x="143" y="-927.5" font-family="Helvetica,sans-Serif" font-size="10.00">SetPath()</text>
<text text-anchor="start" x="130" y="-912.5" font-family="Helvetica,sans-Serif" font-size="10.00">+</text>
<text text-anchor="start" x="143" y="-912.5" font-family="Helvetica,sans-Serif" font-size="10.00">IsPathSet()</text>
<text text-anchor="start" x="130" y="-897.5" font-family="Helvetica,sans-Serif" font-size="10.00">+</text>
<text text-anchor="start" x="143" y="-897.5" font-family="Helvetica,sans-Serif" font-size="10.00">Exists()</text>
<text text-anchor="start" x="130" y="-882.5" font-family="Helvetica,sans-Serif" font-size="10.00">+</text>
<text text-anchor="start" x="143" y="-882.5" font-family="Helvetica,sans-Serif" font-size="10.00">IsFile()</text>
<text text-anchor="start" x="143" y="-867.5" font-family="Helvetica,sans-Serif" font-size="10.00">and 14 more...</text>
<text text-anchor="start" x="130" y="-852.5" font-family="Helvetica,sans-Serif" font-size="10.00">+</text>
<text text-anchor="start" x="143" y="-852.5" font-family="Helvetica,sans-Serif" font-size="10.00">IsAbsolutePath()</text>
<text text-anchor="start" x="130" y="-837.5" font-family="Helvetica,sans-Serif" font-size="10.00">+</text>
<text text-anchor="start" x="143" y="-837.5" font-family="Helvetica,sans-Serif" font-size="10.00">ReplaceSpacesWithUnderscores()</text>
<text text-anchor="start" x="130" y="-822.5" font-family="Helvetica,sans-Serif" font-size="10.00">+</text>
<text text-anchor="start" x="143" y="-822.5" font-family="Helvetica,sans-Serif" font-size="10.00">ReplaceUnderscoresWithSpaces()</text>
<text text-anchor="start" x="130" y="-807.5" font-family="Helvetica,sans-Serif" font-size="10.00">+</text>
<text text-anchor="start" x="143" y="-807.5" font-family="Helvetica,sans-Serif" font-size="10.00">FakePath()</text>
<text text-anchor="start" x="130" y="-792.5" font-family="Helvetica,sans-Serif" font-size="10.00">+</text>
<text text-anchor="start" x="143" y="-792.5" font-family="Helvetica,sans-Serif" font-size="10.00">StopFaking()</text>
<text text-anchor="start" x="132.5" y="-777.5" font-family="Helvetica,sans-Serif" font-size="10.00">&#45;</text>
<text text-anchor="start" x="143" y="-777.5" font-family="Helvetica,sans-Serif" font-size="10.00">PrivateRemove()</text>
<polygon fill="#666666" stroke="#666666" points="126,-1042.5 126,-1042.5 312,-1042.5 312,-1042.5 126,-1042.5"/>
<polygon fill="#666666" stroke="#666666" points="126,-1027.5 126,-1027.5 312,-1027.5 312,-1027.5 126,-1027.5"/>
<polygon fill="none" stroke="#666666" points="126,-771 126,-1060 312,-1060 312,-771 126,-771"/>
</a>
</g>
</g>
<!-- Node3&#45;&gt;Node4 -->
<g id="edge4_Node000004_Node000003" class="edge">
<title>Node3&#45;&gt;Node4</title>
<g id="a_edge4_Node000004_Node000003"><a xlink:title=" ">
<path fill="none" stroke="#63b8ff" d="M254.86,-1125.56C237.36,-1119.91 212.51,-1108.78 201,-1089 197.82,-1083.53 195.28,-1077.79 193.3,-1071.87"/>
<polygon fill="none" stroke="#63b8ff" points="193.3,-1071.86 187.87,-1067.12 190.16,-1060.28 195.59,-1065.03 193.3,-1071.86"/>
</a>
</g>
<text text-anchor="middle" x="229" y="-1081" font-family="Helvetica,sans-Serif" font-size="10.00" fill="grey"> &#45;mAbsPath</text>
</g>
<!-- Node4&#45;&gt;Node2 -->
<g id="edge3_Node000002_Node000004" class="edge">
<title>Node4&#45;&gt;Node2</title>
<g id="a_edge3_Node000002_Node000004"><a xlink:title=" ">
<path fill="none" stroke="#63b8ff" d="M228.91,-770.93C236.17,-737.7 247.99,-703.93 267,-676 303.5,-622.37 363.81,-582.18 416.61,-554.9"/>
<polygon fill="none" stroke="#63b8ff" points="416.7,-554.85 420.25,-548.58 427.41,-549.44 423.86,-555.72 416.7,-554.85"/>
</a>
</g>
<text text-anchor="middle" x="300.5" y="-712" font-family="Helvetica,sans-Serif" font-size="10.00" fill="grey"> #mDirectory</text>
</g>
<!-- Node5 -->
<g id="Node000005" class="node">
<title>Node5</title>
<g id="a_Node000005"><a xlink:href="classbool.html" target="_top" xlink:title=" ">
<polygon fill="white" stroke="transparent" points="804,-1156 772,-1156 772,-1107 804,-1107 804,-1156"/>
<text text-anchor="start" x="777" y="-1143.5" font-family="Helvetica,sans-Serif" font-size="10.00">bool</text>
<text text-anchor="start" x="786" y="-1128.5" font-family="Helvetica,sans-Serif" font-size="10.00"> </text>
<text text-anchor="start" x="786" y="-1113.5" font-family="Helvetica,sans-Serif" font-size="10.00"> </text>
<polygon fill="#bfbfbf" stroke="#bfbfbf" points="772,-1138.5 772,-1138.5 804,-1138.5 804,-1138.5 772,-1138.5"/>
<polygon fill="#bfbfbf" stroke="#bfbfbf" points="772,-1123.5 772,-1123.5 804,-1123.5 804,-1123.5 772,-1123.5"/>
<polygon fill="none" stroke="#bfbfbf" points="772,-1107 772,-1156 804,-1156 804,-1107 772,-1107"/>
</a>
</g>
</g>
<!-- Node5&#45;&gt;Node1 -->
<g id="edge18_Node000001_Node000005" class="edge">
<title>Node5&#45;&gt;Node1</title>
<g id="a_edge18_Node000001_Node000005"><a xlink:title=" ">
<path fill="none" stroke="#63b8ff" d="M804.11,-1130.58C880.44,-1130.63 1204.91,-1126.84 1274,-1060 1386.08,-951.58 1369.76,-516.11 1346,-362 1343.67,-346.87 1340.44,-331.33 1336.65,-315.88"/>
<polygon fill="none" stroke="#63b8ff" points="1336.61,-315.73 1331.25,-310.9 1333.65,-304.1 1339.01,-308.92 1336.61,-315.73"/>
</a>
</g>
<text text-anchor="middle" x="1447.5" y="-745" font-family="Helvetica,sans-Serif" font-size="10.00" fill="grey"> &#45;mCleanDirectory</text>
<text text-anchor="middle" x="1447.5" y="-734" font-family="Helvetica,sans-Serif" font-size="10.00" fill="grey">&#45;mIsFixedDimensionSet</text>
<text text-anchor="middle" x="1447.5" y="-723" font-family="Helvetica,sans-Serif" font-size="10.00" fill="grey">&#45;mIsInDefineMode</text>
<text text-anchor="middle" x="1447.5" y="-712" font-family="Helvetica,sans-Serif" font-size="10.00" fill="grey">&#45;mNeedExtend</text>
<text text-anchor="middle" x="1447.5" y="-701" font-family="Helvetica,sans-Serif" font-size="10.00" fill="grey">&#45;mUseCache</text>
<text text-anchor="middle" x="1447.5" y="-690" font-family="Helvetica,sans-Serif" font-size="10.00" fill="grey">&#45;mUseExistingFile</text>
<text text-anchor="middle" x="1447.5" y="-679" font-family="Helvetica,sans-Serif" font-size="10.00" fill="grey">&#45;mUseOptimalChunkSizeAlgorithm</text>
</g>
<!-- Node5&#45;&gt;Node2 -->
<g id="edge9_Node000002_Node000005" class="edge">
<title>Node5&#45;&gt;Node2</title>
<g id="a_edge9_Node000002_Node000005"><a xlink:title=" ">
<path fill="none" stroke="#63b8ff" d="M771.89,-1130.14C733.8,-1128.33 638.15,-1117.93 595,-1060 543.93,-991.44 587.05,-760.15 572,-676 568.35,-655.58 563.01,-634.13 557.17,-613.7"/>
<polygon fill="none" stroke="#63b8ff" points="557.15,-613.66 551.63,-609.02 553.78,-602.14 559.3,-606.77 557.15,-613.66"/>
</a>
</g>
<text text-anchor="middle" x="666.5" y="-918.5" font-family="Helvetica,sans-Serif" font-size="10.00" fill="grey"> #mIsDataComplete</text>
<text text-anchor="middle" x="666.5" y="-907.5" font-family="Helvetica,sans-Serif" font-size="10.00" fill="grey">#mIsUnlimitedDimensionSet</text>
</g>
<!-- Node5&#45;&gt;Node4 -->
<g id="edge5_Node000004_Node000005" class="edge">
<title>Node5&#45;&gt;Node4</title>
<g id="a_edge5_Node000004_Node000005"><a xlink:title=" ">
<path fill="none" stroke="#63b8ff" d="M771.8,-1129.66C699.2,-1125.67 403.91,-1106.78 326,-1060 324.65,-1059.19 323.31,-1058.36 321.99,-1057.5"/>
<polygon fill="none" stroke="#63b8ff" points="321.86,-1057.41 314.66,-1057.23 312.05,-1050.5 319.26,-1050.69 321.86,-1057.41"/>
</a>
</g>
<text text-anchor="middle" x="436" y="-1081" font-family="Helvetica,sans-Serif" font-size="10.00" fill="grey"> &#45;msFaking</text>
</g>
<!-- Node12 -->
<g id="Node000012" class="node">
<title>Node12</title>
<g id="a_Node000012"><a xlink:href="classDistributedVectorFactory.html" target="_top" xlink:title=" ">
<polygon fill="white" stroke="transparent" points="1049,-658 883,-658 883,-362 1049,-362 1049,-658"/>
<text text-anchor="start" x="905.5" y="-646" font-family="Helvetica,sans-Serif" font-size="10.00">DistributedVectorFactory</text>
<text text-anchor="start" x="964" y="-631" font-family="Helvetica,sans-Serif" font-size="10.00"> </text>
<text text-anchor="start" x="887" y="-616" font-family="Helvetica,sans-Serif" font-size="10.00">+</text>
<text text-anchor="start" x="900" y="-616" font-family="Helvetica,sans-Serif" font-size="10.00">DistributedVectorFactory()</text>
<text text-anchor="start" x="887" y="-601" font-family="Helvetica,sans-Serif" font-size="10.00">+</text>
<text text-anchor="start" x="900" y="-601" font-family="Helvetica,sans-Serif" font-size="10.00">DistributedVectorFactory()</text>
<text text-anchor="start" x="887" y="-586" font-family="Helvetica,sans-Serif" font-size="10.00">+</text>
<text text-anchor="start" x="900" y="-586" font-family="Helvetica,sans-Serif" font-size="10.00">DistributedVectorFactory()</text>
<text text-anchor="start" x="887" y="-571" font-family="Helvetica,sans-Serif" font-size="10.00">+</text>
<text text-anchor="start" x="900" y="-571" font-family="Helvetica,sans-Serif" font-size="10.00">DistributedVectorFactory()</text>
<text text-anchor="start" x="887" y="-556" font-family="Helvetica,sans-Serif" font-size="10.00">+</text>
<text text-anchor="start" x="900" y="-556" font-family="Helvetica,sans-Serif" font-size="10.00">~DistributedVectorFactory()</text>
<text text-anchor="start" x="887" y="-541" font-family="Helvetica,sans-Serif" font-size="10.00">+</text>
<text text-anchor="start" x="900" y="-541" font-family="Helvetica,sans-Serif" font-size="10.00">CreateVec()</text>
<text text-anchor="start" x="887" y="-526" font-family="Helvetica,sans-Serif" font-size="10.00">+</text>
<text text-anchor="start" x="900" y="-526" font-family="Helvetica,sans-Serif" font-size="10.00">CreateVec()</text>
<text text-anchor="start" x="887" y="-511" font-family="Helvetica,sans-Serif" font-size="10.00">+</text>
<text text-anchor="start" x="900" y="-511" font-family="Helvetica,sans-Serif" font-size="10.00">CreateDistributedVector()</text>
<text text-anchor="start" x="887" y="-496" font-family="Helvetica,sans-Serif" font-size="10.00">+</text>
<text text-anchor="start" x="900" y="-496" font-family="Helvetica,sans-Serif" font-size="10.00">IsGlobalIndexLocal()</text>
<text text-anchor="start" x="887" y="-481" font-family="Helvetica,sans-Serif" font-size="10.00">+</text>
<text text-anchor="start" x="900" y="-481" font-family="Helvetica,sans-Serif" font-size="10.00">GetLocalOwnership()</text>
<text text-anchor="start" x="900" y="-466" font-family="Helvetica,sans-Serif" font-size="10.00">and 8 more...</text>
<text text-anchor="start" x="887" y="-451" font-family="Helvetica,sans-Serif" font-size="10.00">+</text>
<text text-anchor="start" x="900" y="-451" font-family="Helvetica,sans-Serif" font-size="10.00">SetCheckNumberOfProcesses</text>
<text text-anchor="start" x="900" y="-440" font-family="Helvetica,sans-Serif" font-size="10.00">OnLoad()</text>
<text text-anchor="start" x="887" y="-425" font-family="Helvetica,sans-Serif" font-size="10.00">+</text>
<text text-anchor="start" x="900" y="-425" font-family="Helvetica,sans-Serif" font-size="10.00">CheckNumberOfProcessesOn</text>
<text text-anchor="start" x="900" y="-414" font-family="Helvetica,sans-Serif" font-size="10.00">Load()</text>
<text text-anchor="start" x="889.5" y="-399" font-family="Helvetica,sans-Serif" font-size="10.00">&#45;</text>
<text text-anchor="start" x="900" y="-399" font-family="Helvetica,sans-Serif" font-size="10.00">CheckForPetsc()</text>
<text text-anchor="start" x="889.5" y="-384" font-family="Helvetica,sans-Serif" font-size="10.00">&#45;</text>
<text text-anchor="start" x="900" y="-384" font-family="Helvetica,sans-Serif" font-size="10.00">CalculateOwnership()</text>
<text text-anchor="start" x="889.5" y="-369" font-family="Helvetica,sans-Serif" font-size="10.00">&#45;</text>
<text text-anchor="start" x="900" y="-369" font-family="Helvetica,sans-Serif" font-size="10.00">serialize()</text>
<polygon fill="#666666" stroke="#666666" points="883,-641 883,-641 1049,-641 1049,-641 883,-641"/>
<polygon fill="#666666" stroke="#666666" points="883,-626 883,-626 1049,-626 1049,-626 883,-626"/>
<polygon fill="none" stroke="#666666" points="883,-362 883,-658 1049,-658 1049,-362 883,-362"/>
</a>
</g>
</g>
<!-- Node5&#45;&gt;Node12 -->
<g id="edge15_Node000012_Node000005" class="edge">
<title>Node5&#45;&gt;Node12</title>
<g id="a_edge15_Node000012_Node000005"><a xlink:title=" ">
<path fill="none" stroke="#63b8ff" d="M804.28,-1109.09C845.14,-1053.86 951.33,-900.56 988,-753 994.56,-726.61 996.42,-698.16 995.53,-670.37"/>
<polygon fill="none" stroke="#63b8ff" points="995.52,-670.08 991.25,-664.27 994.97,-658.09 999.24,-663.9 995.52,-670.08"/>
</a>
</g>
<text text-anchor="middle" x="1058" y="-924" font-family="Helvetica,sans-Serif" font-size="10.00" fill="grey"> &#45;mPetscStatusKnown</text>
<text text-anchor="start" x="984" y="-913" font-family="Helvetica,sans-Serif" font-size="10.00" fill="grey">&#45;msCheckNumberOfProcesses</text>
<text text-anchor="middle" x="1058" y="-902" font-family="Helvetica,sans-Serif" font-size="10.00" fill="grey">OnLoad</text>
</g>
<!-- Node6 -->
<g id="Node000006" class="node">
<title>Node6</title>
<g id="a_Node000006"><a xlink:title=" ">
<polygon fill="white" stroke="transparent" points="38,-1156 0,-1156 0,-1107 38,-1107 38,-1156"/>
<text text-anchor="start" x="5" y="-1143.5" font-family="Helvetica,sans-Serif" font-size="10.00">Value</text>
<text text-anchor="start" x="17" y="-1128.5" font-family="Helvetica,sans-Serif" font-size="10.00"> </text>
<text text-anchor="start" x="17" y="-1113.5" font-family="Helvetica,sans-Serif" font-size="10.00"> </text>
<polygon fill="#bfbfbf" stroke="#bfbfbf" points="0,-1138.5 0,-1138.5 38,-1138.5 38,-1138.5 0,-1138.5"/>
<polygon fill="#bfbfbf" stroke="#bfbfbf" points="0,-1123.5 0,-1123.5 38,-1123.5 38,-1123.5 0,-1123.5"/>
<polygon fill="none" stroke="#bfbfbf" points="0,-1107 0,-1156 38,-1156 38,-1107 0,-1107"/>
</a>
</g>
</g>
<!-- Node6&#45;&gt;Node4 -->
<g id="edge6_Node000004_Node000006" class="edge">
<title>Node6&#45;&gt;Node4</title>
<g id="a_edge6_Node000004_Node000006"><a xlink:title=" ">
<path fill="none" stroke="#63b8ff" d="M28.51,-1107C33.75,-1096.74 41.2,-1085.4 51,-1078 74.92,-1059.94 91.42,-1077.15 116,-1060 116.11,-1059.93 116.21,-1059.85 116.32,-1059.78"/>
<polygon fill="none" stroke="#63b8ff" points="116.4,-1059.71 118.77,-1052.9 125.97,-1052.47 123.6,-1059.28 116.4,-1059.71"/>
</a>
</g>
<text text-anchor="middle" x="86" y="-1081" font-family="Helvetica,sans-Serif" font-size="10.00" fill="grey"> &#45;msFakeWhat</text>
</g>
<!-- Node7 -->
<g id="Node000007" class="node">
<title>Node7</title>
<g id="a_Node000007"><a xlink:title=" ">
<polygon fill="white" stroke="transparent" points="131,-1156 93,-1156 93,-1107 131,-1107 131,-1156"/>
<text text-anchor="start" x="98" y="-1143.5" font-family="Helvetica,sans-Serif" font-size="10.00">string</text>
<text text-anchor="start" x="110" y="-1128.5" font-family="Helvetica,sans-Serif" font-size="10.00"> </text>
<text text-anchor="start" x="110" y="-1113.5" font-family="Helvetica,sans-Serif" font-size="10.00"> </text>
<polygon fill="#bfbfbf" stroke="#bfbfbf" points="93,-1138.5 93,-1138.5 131,-1138.5 131,-1138.5 93,-1138.5"/>
<polygon fill="#bfbfbf" stroke="#bfbfbf" points="93,-1123.5 93,-1123.5 131,-1123.5 131,-1123.5 93,-1123.5"/>
<polygon fill="none" stroke="#bfbfbf" points="93,-1107 93,-1156 131,-1156 131,-1107 93,-1107"/>
</a>
</g>
</g>
<!-- Node7&#45;&gt;Node4 -->
<g id="edge7_Node000004_Node000007" class="edge">
<title>Node7&#45;&gt;Node4</title>
<g id="a_edge7_Node000004_Node000007"><a xlink:title=" ">
<path fill="none" stroke="#63b8ff" d="M118.02,-1106.85C120.66,-1097.68 124.06,-1087.2 128,-1078 128.99,-1075.69 130,-1073.37 131.04,-1071.04"/>
<polygon fill="none" stroke="#63b8ff" points="131.05,-1071.02 129.9,-1063.9 136.04,-1060.11 137.18,-1067.23 131.05,-1071.02"/>
</a>
</g>
<text text-anchor="middle" x="160.5" y="-1081" font-family="Helvetica,sans-Serif" font-size="10.00" fill="grey"> &#45;msFakePath</text>
</g>
<!-- Node8 -->
<g id="Node000008" class="node">
<title>Node8</title>
<g id="a_Node000008"><a xlink:href="classunsigned.html" target="_top" xlink:title=" ">
<polygon fill="white" stroke="transparent" points="802.5,-940 747.5,-940 747.5,-891 802.5,-891 802.5,-940"/>
<text text-anchor="start" x="753" y="-927.5" font-family="Helvetica,sans-Serif" font-size="10.00">unsigned</text>
<text text-anchor="start" x="773.5" y="-912.5" font-family="Helvetica,sans-Serif" font-size="10.00"> </text>
<text text-anchor="start" x="773.5" y="-897.5" font-family="Helvetica,sans-Serif" font-size="10.00"> </text>
<polygon fill="#bfbfbf" stroke="#bfbfbf" points="748,-922.5 748,-922.5 803,-922.5 803,-922.5 748,-922.5"/>
<polygon fill="#bfbfbf" stroke="#bfbfbf" points="748,-907.5 748,-907.5 803,-907.5 803,-907.5 748,-907.5"/>
<polygon fill="none" stroke="#bfbfbf" points="747.5,-891 747.5,-940 802.5,-940 802.5,-891 747.5,-891"/>
</a>
</g>
</g>
<!-- Node8&#45;&gt;Node1 -->
<g id="edge19_Node000001_Node000008" class="edge">
<title>Node8&#45;&gt;Node1</title>
<g id="a_edge19_Node000001_Node000008"><a xlink:title=" ">
<path fill="none" stroke="#63b8ff" d="M768.84,-890.86C760.88,-859.54 747.09,-802.47 739,-753 710.94,-581.44 630.25,-505.07 729,-362 827.7,-219.01 1037.92,-173.76 1168.27,-159.49"/>
<polygon fill="none" stroke="#63b8ff" points="1168.31,-159.49 1173.86,-154.89 1180.24,-158.25 1174.69,-162.85 1168.31,-159.49"/>
</a>
</g>
<text text-anchor="middle" x="801.5" y="-540.5" font-family="Helvetica,sans-Serif" font-size="10.00" fill="grey"> &#45;mDataFixedDimensionSize</text>
<text text-anchor="middle" x="801.5" y="-529.5" font-family="Helvetica,sans-Serif" font-size="10.00" fill="grey">&#45;mEstimatedUnlimitedLength</text>
<text text-anchor="middle" x="801.5" y="-518.5" font-family="Helvetica,sans-Serif" font-size="10.00" fill="grey">&#45;mFileFixedDimensionSize</text>
<text text-anchor="middle" x="801.5" y="-507.5" font-family="Helvetica,sans-Serif" font-size="10.00" fill="grey">&#45;mHi</text>
<text text-anchor="middle" x="801.5" y="-496.5" font-family="Helvetica,sans-Serif" font-size="10.00" fill="grey">&#45;mLo</text>
<text text-anchor="middle" x="801.5" y="-485.5" font-family="Helvetica,sans-Serif" font-size="10.00" fill="grey">&#45;mNumberOwned</text>
<text text-anchor="middle" x="801.5" y="-474.5" font-family="Helvetica,sans-Serif" font-size="10.00" fill="grey">&#45;mOffset</text>
</g>
<!-- Node8&#45;&gt;Node2 -->
<g id="edge8_Node000002_Node000008" class="edge">
<title>Node8&#45;&gt;Node2</title>
<g id="a_edge8_Node000002_Node000008"><a xlink:title=" ">
<path fill="none" stroke="#63b8ff" d="M775.33,-890.89C774.4,-858.66 767.58,-801.45 733,-771 694.83,-737.39 658.26,-786.5 620,-753 593.13,-729.47 609.53,-709.45 597,-676 589.28,-655.39 580.18,-633.73 571.03,-613.13"/>
<polygon fill="none" stroke="#63b8ff" points="571.01,-613.09 564.91,-609.25 566.1,-602.14 572.21,-605.98 571.01,-613.09"/>
</a>
</g>
<text text-anchor="middle" x="663" y="-712" font-family="Helvetica,sans-Serif" font-size="10.00" fill="grey"> #DATASET_DIMS</text>
</g>
<!-- Node8&#45;&gt;Node12 -->
<g id="edge14_Node000012_Node000008" class="edge">
<title>Node8&#45;&gt;Node12</title>
<g id="a_edge14_Node000012_Node000008"><a xlink:title=" ">
<path fill="none" stroke="#63b8ff" d="M768.75,-890.6C755.28,-836.67 726.84,-707.74 754,-676 787.63,-636.69 825.48,-685.98 869,-658 870.34,-657.14 871.66,-656.25 872.97,-655.34"/>
<polygon fill="none" stroke="#63b8ff" points="873.19,-655.18 875.54,-648.36 882.73,-647.91 880.38,-654.73 873.19,-655.18"/>
</a>
</g>
<text text-anchor="middle" x="791.5" y="-728.5" font-family="Helvetica,sans-Serif" font-size="10.00" fill="grey"> &#45;mHi</text>
<text text-anchor="middle" x="791.5" y="-717.5" font-family="Helvetica,sans-Serif" font-size="10.00" fill="grey">&#45;mLo</text>
<text text-anchor="middle" x="791.5" y="-706.5" font-family="Helvetica,sans-Serif" font-size="10.00" fill="grey">&#45;mNumProcs</text>
<text text-anchor="middle" x="791.5" y="-695.5" font-family="Helvetica,sans-Serif" font-size="10.00" fill="grey">&#45;mProblemSize</text>
</g>
<!-- Node9 -->
<g id="Node000009" class="node">
<title>Node9</title>
<g id="a_Node000009"><a xlink:title=" ">
<polygon fill="white" stroke="transparent" points="1265,-940 1157,-940 1157,-891 1265,-891 1265,-940"/>
<text text-anchor="start" x="1162" y="-927.5" font-family="Helvetica,sans-Serif" font-size="10.00">vector&lt; unsigned &gt;</text>
<text text-anchor="start" x="1209" y="-912.5" font-family="Helvetica,sans-Serif" font-size="10.00"> </text>
<text text-anchor="start" x="1209" y="-897.5" font-family="Helvetica,sans-Serif" font-size="10.00"> </text>
<polygon fill="#bfbfbf" stroke="#bfbfbf" points="1157,-922.5 1157,-922.5 1265,-922.5 1265,-922.5 1157,-922.5"/>
<polygon fill="#bfbfbf" stroke="#bfbfbf" points="1157,-907.5 1157,-907.5 1265,-907.5 1265,-907.5 1157,-907.5"/>
<polygon fill="none" stroke="#bfbfbf" points="1157,-891 1157,-940 1265,-940 1265,-891 1157,-891"/>
</a>
</g>
</g>
<!-- Node9&#45;&gt;Node1 -->
<g id="edge20_Node000001_Node000009" class="edge">
<title>Node9&#45;&gt;Node1</title>
<g id="a_edge20_Node000001_Node000009"><a xlink:title=" ">
<path fill="none" stroke="#63b8ff" d="M1208.62,-890.87C1201.42,-814.04 1182.21,-564.55 1214,-362 1216.37,-346.87 1219.63,-331.34 1223.44,-315.89"/>
<polygon fill="none" stroke="#63b8ff" points="1223.48,-315.74 1221.09,-308.93 1226.45,-304.11 1228.84,-310.92 1223.48,-315.74"/>
</a>
</g>
<text text-anchor="middle" x="1280" y="-507.5" font-family="Helvetica,sans-Serif" font-size="10.00" fill="grey"> &#45;mIncompletePermIndices</text>
</g>
<!-- Node9&#45;&gt;Node2 -->
<g id="edge10_Node000002_Node000009" class="edge">
<title>Node9&#45;&gt;Node2</title>
<g id="a_edge10_Node000002_Node000009"><a xlink:title=" ">
<path fill="none" stroke="#63b8ff" d="M1207.27,-890.96C1200.69,-858.01 1183.63,-799.01 1143,-771 1101.15,-742.15 961.72,-773 915,-753 867.84,-732.81 875.56,-697.55 829,-676 775.66,-651.32 751.75,-681.76 698,-658 670.96,-646.05 644.79,-628.66 621.27,-609.99"/>
<polygon fill="none" stroke="#63b8ff" points="621.02,-609.78 613.84,-609.1 611.71,-602.21 618.88,-602.89 621.02,-609.78"/>
</a>
</g>
<text text-anchor="middle" x="983" y="-712" font-family="Helvetica,sans-Serif" font-size="10.00" fill="grey"> #mIncompleteNodeIndices</text>
</g>
<!-- Node9&#45;&gt;Node12 -->
<g id="edge16_Node000012_Node000009" class="edge">
<title>Node9&#45;&gt;Node12</title>
<g id="a_edge16_Node000012_Node000009"><a xlink:title=" ">
<path fill="none" stroke="#63b8ff" d="M1204.54,-890.97C1195.17,-860.37 1175.31,-806.64 1143,-771 1132.56,-759.48 1124.02,-763.96 1113,-753 1088.11,-728.24 1065.66,-698.46 1046.23,-668.38"/>
<polygon fill="none" stroke="#63b8ff" points="1046.19,-668.31 1039.6,-665.39 1039.76,-658.18 1046.35,-661.11 1046.19,-668.31"/>
</a>
</g>
<text text-anchor="middle" x="1149.5" y="-712" font-family="Helvetica,sans-Serif" font-size="10.00" fill="grey"> &#45;mGlobalLows</text>
</g>
<!-- Node10 -->
<g id="Node000010" class="node">
<title>Node10</title>
<g id="a_Node000010"><a xlink:title=" ">
<polygon fill="white" stroke="transparent" points="549.5,-940 514.5,-940 514.5,-891 549.5,-891 549.5,-940"/>
<text text-anchor="start" x="520" y="-927.5" font-family="Helvetica,sans-Serif" font-size="10.00">hid_t</text>
<text text-anchor="start" x="530.5" y="-912.5" font-family="Helvetica,sans-Serif" font-size="10.00"> </text>
<text text-anchor="start" x="530.5" y="-897.5" font-family="Helvetica,sans-Serif" font-size="10.00"> </text>
<polygon fill="#bfbfbf" stroke="#bfbfbf" points="515,-922.5 515,-922.5 550,-922.5 550,-922.5 515,-922.5"/>
<polygon fill="#bfbfbf" stroke="#bfbfbf" points="515,-907.5 515,-907.5 550,-907.5 550,-907.5 515,-907.5"/>
<polygon fill="none" stroke="#bfbfbf" points="514.5,-891 514.5,-940 549.5,-940 549.5,-891 514.5,-891"/>
</a>
</g>
</g>
<!-- Node10&#45;&gt;Node2 -->
<g id="edge11_Node000002_Node000010" class="edge">
<title>Node10&#45;&gt;Node2</title>
<g id="a_edge11_Node000002_Node000010"><a xlink:title=" ">
<path fill="none" stroke="#63b8ff" d="M532.98,-890.82C533,-859.81 528.52,-805.38 500,-771 487.03,-755.37 469.18,-769.95 458,-753 439.16,-724.43 451.7,-709.64 458,-676 461.87,-655.33 468.24,-633.92 475.51,-613.63"/>
<polygon fill="none" stroke="#63b8ff" points="475.59,-613.42 473.92,-606.41 479.75,-602.17 481.42,-609.18 475.59,-613.42"/>
</a>
</g>
<text text-anchor="middle" x="515" y="-723" font-family="Helvetica,sans-Serif" font-size="10.00" fill="grey"> #mFileId</text>
<text text-anchor="middle" x="515" y="-712" font-family="Helvetica,sans-Serif" font-size="10.00" fill="grey">#mUnlimitedDatasetId</text>
<text text-anchor="middle" x="515" y="-701" font-family="Helvetica,sans-Serif" font-size="10.00" fill="grey">#mVariablesDatasetId</text>
</g>
<!-- Node11 -->
<g id="Node000011" class="node">
<title>Node11</title>
<g id="a_Node000011"><a xlink:href="classhsize__t.html" target="_top" xlink:title=" ">
<polygon fill="white" stroke="transparent" points="107.5,-940 62.5,-940 62.5,-891 107.5,-891 107.5,-940"/>
<text text-anchor="start" x="68" y="-927.5" font-family="Helvetica,sans-Serif" font-size="10.00">hsize_t</text>
<text text-anchor="start" x="83.5" y="-912.5" font-family="Helvetica,sans-Serif" font-size="10.00"> </text>
<text text-anchor="start" x="83.5" y="-897.5" font-family="Helvetica,sans-Serif" font-size="10.00"> </text>
<polygon fill="#bfbfbf" stroke="#bfbfbf" points="63,-922.5 63,-922.5 108,-922.5 108,-922.5 63,-922.5"/>
<polygon fill="#bfbfbf" stroke="#bfbfbf" points="63,-907.5 63,-907.5 108,-907.5 108,-907.5 63,-907.5"/>
<polygon fill="none" stroke="#bfbfbf" points="62.5,-891 62.5,-940 107.5,-940 107.5,-891 62.5,-891"/>
</a>
</g>
</g>
<!-- Node11&#45;&gt;Node1 -->
<g id="edge24_Node000001_Node000011" class="edge">
<title>Node11&#45;&gt;Node1</title>
<g id="a_edge24_Node000001_Node000011"><a xlink:title=" ">
<path fill="none" stroke="#63b8ff" d="M83.96,-890.66C82.84,-846.77 84.04,-750.85 111,-676 167.64,-518.74 180.13,-456.51 318,-362 455.99,-267.41 945.53,-195.26 1168.23,-166.55"/>
<polygon fill="none" stroke="#63b8ff" points="1168.35,-166.54 1173.79,-161.81 1180.25,-165.01 1174.81,-169.74 1168.35,-166.54"/>
</a>
</g>
<text text-anchor="middle" x="368" y="-529.5" font-family="Helvetica,sans-Serif" font-size="10.00" fill="grey"> &#45;mAlignment</text>
<text text-anchor="middle" x="368" y="-518.5" font-family="Helvetica,sans-Serif" font-size="10.00" fill="grey">&#45;mChunkSize</text>
<text text-anchor="middle" x="368" y="-507.5" font-family="Helvetica,sans-Serif" font-size="10.00" fill="grey">&#45;mChunkTargetSize</text>
<text text-anchor="middle" x="368" y="-496.5" font-family="Helvetica,sans-Serif" font-size="10.00" fill="grey">&#45;mFixedChunkSize</text>
<text text-anchor="middle" x="368" y="-485.5" font-family="Helvetica,sans-Serif" font-size="10.00" fill="grey">&#45;mNumberOfChunks</text>
</g>
<!-- Node11&#45;&gt;Node2 -->
<g id="edge12_Node000002_Node000011" class="edge">
<title>Node11&#45;&gt;Node2</title>
<g id="a_edge12_Node000002_Node000011"><a xlink:title=" ">
<path fill="none" stroke="#63b8ff" d="M88.11,-890.94C95.66,-837.12 116.52,-707.38 146,-676 161.6,-659.39 172.93,-666.66 194,-658 268.86,-627.22 352.07,-589.89 415.95,-560.56"/>
<polygon fill="none" stroke="#63b8ff" points="416.33,-560.38 420.11,-554.24 427.24,-555.36 423.46,-561.5 416.33,-560.38"/>
</a>
</g>
<text text-anchor="middle" x="188.5" y="-712" font-family="Helvetica,sans-Serif" font-size="10.00" fill="grey"> #mDatasetDims</text>
</g>
<!-- Node12&#45;&gt;Node1 -->
<g id="edge13_Node000001_Node000012" class="edge">
<title>Node12&#45;&gt;Node1</title>
<g id="a_edge13_Node000001_Node000012"><a xlink:title=" ">
<path fill="none" stroke="#63b8ff" d="M1049.15,-384.59C1064.98,-363.13 1081.95,-341.49 1099,-322 1121.07,-296.79 1146.47,-271.27 1171.13,-247.96"/>
<polygon fill="none" stroke="#63b8ff" points="1171.43,-247.68 1173.07,-240.66 1180.18,-239.48 1178.54,-246.5 1171.43,-247.68"/>
</a>
</g>
<text text-anchor="middle" x="1142.5" y="-330.5" font-family="Helvetica,sans-Serif" font-size="10.00" fill="grey"> &#45;mrVectorFactory</text>
</g>
<!-- Node12&#45;&gt;Node12 -->
<g id="edge17_Node000012_Node000012" class="edge">
<title>Node12&#45;&gt;Node12</title>
<g id="a_edge17_Node000012_Node000012"><a xlink:title=" ">
<path fill="none" stroke="#63b8ff" d="M1049.21,-538.92C1059.92,-533.91 1067,-524.27 1067,-510 1067,-500.86 1064.1,-493.62 1059.19,-488.28"/>
<polygon fill="none" stroke="#63b8ff" points="1058.94,-488.1 1051.74,-487.83 1049.21,-481.08 1056.41,-481.34 1058.94,-488.1"/>
</a>
</g>
<text text-anchor="middle" x="1115.5" y="-507.5" font-family="Helvetica,sans-Serif" font-size="10.00" fill="grey"> &#45;mpOriginalFactory</text>
</g>
<!-- Node13 -->
<g id="Node000013" class="node">
<title>Node13</title>
<g id="a_Node000013"><a xlink:title=" ">
<polygon fill="white" stroke="transparent" points="1545.5,-534.5 1388.5,-534.5 1388.5,-485.5 1545.5,-485.5 1545.5,-534.5"/>
<text text-anchor="start" x="1394" y="-522" font-family="Helvetica,sans-Serif" font-size="10.00">vector&lt; DataWriterVariable &gt;</text>
<text text-anchor="start" x="1465.5" y="-507" font-family="Helvetica,sans-Serif" font-size="10.00"> </text>
<text text-anchor="start" x="1465.5" y="-492" font-family="Helvetica,sans-Serif" font-size="10.00"> </text>
<polygon fill="#bfbfbf" stroke="#bfbfbf" points="1389,-517 1389,-517 1546,-517 1546,-517 1389,-517"/>
<polygon fill="#bfbfbf" stroke="#bfbfbf" points="1389,-502 1389,-502 1546,-502 1546,-502 1389,-502"/>
<polygon fill="none" stroke="#bfbfbf" points="1388.5,-485.5 1388.5,-534.5 1545.5,-534.5 1545.5,-485.5 1388.5,-485.5"/>
</a>
</g>
</g>
<!-- Node13&#45;&gt;Node1 -->
<g id="edge21_Node000001_Node000013" class="edge">
<title>Node13&#45;&gt;Node1</title>
<g id="a_edge21_Node000001_Node000013"><a xlink:title=" ">
<path fill="none" stroke="#63b8ff" d="M1455.6,-485.21C1438.4,-449.51 1404.57,-380.07 1374,-322 1372.81,-319.74 1371.61,-317.46 1370.39,-315.17"/>
<polygon fill="none" stroke="#63b8ff" points="1370.28,-314.97 1363.93,-311.55 1364.64,-304.37 1370.99,-307.79 1370.28,-314.97"/>
</a>
</g>
<text text-anchor="middle" x="1415" y="-330.5" font-family="Helvetica,sans-Serif" font-size="10.00" fill="grey"> &#45;mVariables</text>
</g>
<!-- Node14 -->
<g id="Node000014" class="node">
<title>Node14</title>
<g id="a_Node000014"><a xlink:title=" ">
<polygon fill="white" stroke="transparent" points="1596,-534.5 1564,-534.5 1564,-485.5 1596,-485.5 1596,-534.5"/>
<text text-anchor="start" x="1569" y="-522" font-family="Helvetica,sans-Serif" font-size="10.00">long</text>
<text text-anchor="start" x="1578" y="-507" font-family="Helvetica,sans-Serif" font-size="10.00"> </text>
<text text-anchor="start" x="1578" y="-492" font-family="Helvetica,sans-Serif" font-size="10.00"> </text>
<polygon fill="#bfbfbf" stroke="#bfbfbf" points="1564,-517 1564,-517 1596,-517 1596,-517 1564,-517"/>
<polygon fill="#bfbfbf" stroke="#bfbfbf" points="1564,-502 1564,-502 1596,-502 1596,-502 1564,-502"/>
<polygon fill="none" stroke="#bfbfbf" points="1564,-485.5 1564,-534.5 1596,-534.5 1596,-485.5 1564,-485.5"/>
</a>
</g>
</g>
<!-- Node14&#45;&gt;Node1 -->
<g id="edge22_Node000001_Node000014" class="edge">
<title>Node14&#45;&gt;Node1</title>
<g id="a_edge22_Node000001_Node000014"><a xlink:title=" ">
<path fill="none" stroke="#63b8ff" d="M1581.98,-485.24C1583.34,-454.03 1581.32,-398.87 1555,-362 1545.29,-348.4 1535.94,-353.21 1522,-344 1476.84,-314.17 1429.6,-278.1 1388.96,-245.38"/>
<polygon fill="none" stroke="#63b8ff" points="1388.92,-245.35 1381.74,-244.68 1379.59,-237.8 1386.77,-238.46 1388.92,-245.35"/>
</a>
</g>
<text text-anchor="middle" x="1579.5" y="-336" font-family="Helvetica,sans-Serif" font-size="10.00" fill="grey"> &#45;mCacheFirstTimeStep</text>
<text text-anchor="middle" x="1579.5" y="-325" font-family="Helvetica,sans-Serif" font-size="10.00" fill="grey">&#45;mCurrentTimeStep</text>
</g>
<!-- Node15 -->
<g id="Node000015" class="node">
<title>Node15</title>
<g id="a_Node000015"><a xlink:href="classMat.html" target="_top" xlink:title=" ">
<polygon fill="white" stroke="transparent" points="1673.5,-534.5 1644.5,-534.5 1644.5,-485.5 1673.5,-485.5 1673.5,-534.5"/>
<text text-anchor="start" x="1650" y="-522" font-family="Helvetica,sans-Serif" font-size="10.00">Mat</text>
<text text-anchor="start" x="1657.5" y="-507" font-family="Helvetica,sans-Serif" font-size="10.00"> </text>
<text text-anchor="start" x="1657.5" y="-492" font-family="Helvetica,sans-Serif" font-size="10.00"> </text>
<polygon fill="#bfbfbf" stroke="#bfbfbf" points="1645,-517 1645,-517 1674,-517 1674,-517 1645,-517"/>
<polygon fill="#bfbfbf" stroke="#bfbfbf" points="1645,-502 1645,-502 1674,-502 1674,-502 1645,-502"/>
<polygon fill="none" stroke="#bfbfbf" points="1644.5,-485.5 1644.5,-534.5 1673.5,-534.5 1673.5,-485.5 1644.5,-485.5"/>
</a>
</g>
</g>
<!-- Node15&#45;&gt;Node1 -->
<g id="edge23_Node000001_Node000015" class="edge">
<title>Node15&#45;&gt;Node1</title>
<g id="a_edge23_Node000001_Node000015"><a xlink:title=" ">
<path fill="none" stroke="#63b8ff" d="M1662.96,-485.47C1668.04,-447.31 1672.38,-371.25 1637,-322 1579.18,-241.49 1472.83,-198.02 1391.2,-175.43"/>
<polygon fill="none" stroke="#63b8ff" points="1391.19,-175.43 1384.35,-177.73 1379.6,-172.31 1386.43,-170.01 1391.19,-175.43"/>
</a>
</g>
<text text-anchor="middle" x="1705" y="-336" font-family="Helvetica,sans-Serif" font-size="10.00" fill="grey"> &#45;mDoublePermutation</text>
<text text-anchor="middle" x="1705" y="-325" font-family="Helvetica,sans-Serif" font-size="10.00" fill="grey">&#45;mSinglePermutation</text>
</g>
<!-- Node16 -->
<g id="Node000016" class="node">
<title>Node16</title>
<g id="a_Node000016"><a xlink:title=" ">
<polygon fill="white" stroke="transparent" points="1842.5,-534.5 1745.5,-534.5 1745.5,-485.5 1842.5,-485.5 1842.5,-534.5"/>
<text text-anchor="start" x="1751" y="-522" font-family="Helvetica,sans-Serif" font-size="10.00">vector&lt; double &gt;</text>
<text text-anchor="start" x="1792.5" y="-507" font-family="Helvetica,sans-Serif" font-size="10.00"> </text>
<text text-anchor="start" x="1792.5" y="-492" font-family="Helvetica,sans-Serif" font-size="10.00"> </text>
<polygon fill="#bfbfbf" stroke="#bfbfbf" points="1746,-517 1746,-517 1843,-517 1843,-517 1746,-517"/>
<polygon fill="#bfbfbf" stroke="#bfbfbf" points="1746,-502 1746,-502 1843,-502 1843,-502 1746,-502"/>
<polygon fill="none" stroke="#bfbfbf" points="1745.5,-485.5 1745.5,-534.5 1842.5,-534.5 1842.5,-485.5 1745.5,-485.5"/>
</a>
</g>
</g>
<!-- Node16&#45;&gt;Node1 -->
<g id="edge25_Node000001_Node000016" class="edge">
<title>Node16&#45;&gt;Node1</title>
<g id="a_edge25_Node000001_Node000016"><a xlink:title=" ">
<path fill="none" stroke="#63b8ff" d="M1797.46,-485.23C1801.7,-446.39 1804.12,-368.95 1765,-322 1672.75,-211.29 1503.69,-173.01 1391.56,-159.83"/>
<polygon fill="none" stroke="#63b8ff" points="1391.46,-159.82 1385.05,-163.13 1379.53,-158.49 1385.94,-155.18 1391.46,-159.82"/>
</a>
</g>
<text text-anchor="middle" x="1813" y="-330.5" font-family="Helvetica,sans-Serif" font-size="10.00" fill="grey"> &#45;mDataCache</text>
</g>
</g>
</svg>
