<?xml version="1.0" encoding="UTF-8" standalone="no"?>
<!DOCTYPE svg PUBLIC "-//W3C//DTD SVG 1.1//EN"
 "http://www.w3.org/Graphics/SVG/1.1/DTD/svg11.dtd">
<!-- Generated by graphviz version 2.43.0 (0)
 -->
<!-- Title: Exception Pages: 1 -->
<svg width="214pt" height="284pt"
 viewBox="0.00 0.00 214.00 284.00" xmlns="http://www.w3.org/2000/svg" xmlns:xlink="http://www.w3.org/1999/xlink">
<g id="graph0" class="graph" transform="scale(1 1) rotate(0) translate(4 280)">
<title>Exception</title>
<!-- Node1 -->
<g id="Node000001" class="node">
<title>Node1</title>
<g id="a_Node000001"><a xlink:title=" ">
<polygon fill="#999999" stroke="transparent" points="177.5,-169 6.5,-169 6.5,0 177.5,0 177.5,-169"/>
<text text-anchor="start" x="68" y="-156.5" font-family="Helvetica,sans-Serif" font-size="10.00">Exception</text>
<text text-anchor="start" x="90.5" y="-141.5" font-family="Helvetica,sans-Serif" font-size="10.00"> </text>
<text text-anchor="start" x="11" y="-126.5" font-family="Helvetica,sans-Serif" font-size="10.00">+</text>
<text text-anchor="start" x="24" y="-126.5" font-family="Helvetica,sans-Serif" font-size="10.00">Exception()</text>
<text text-anchor="start" x="11" y="-111.5" font-family="Helvetica,sans-Serif" font-size="10.00">+</text>
<text text-anchor="start" x="24" y="-111.5" font-family="Helvetica,sans-Serif" font-size="10.00">~Exception()</text>
<text text-anchor="start" x="11" y="-96.5" font-family="Helvetica,sans-Serif" font-size="10.00">+</text>
<text text-anchor="start" x="24" y="-96.5" font-family="Helvetica,sans-Serif" font-size="10.00">GetMessage()</text>
<text text-anchor="start" x="11" y="-81.5" font-family="Helvetica,sans-Serif" font-size="10.00">+</text>
<text text-anchor="start" x="24" y="-81.5" font-family="Helvetica,sans-Serif" font-size="10.00">GetShortMessage()</text>
<text text-anchor="start" x="11" y="-66.5" font-family="Helvetica,sans-Serif" font-size="10.00">+</text>
<text text-anchor="start" x="24" y="-66.5" font-family="Helvetica,sans-Serif" font-size="10.00">CheckShortMessage()</text>
<text text-anchor="start" x="11" y="-51.5" font-family="Helvetica,sans-Serif" font-size="10.00">+</text>
<text text-anchor="start" x="24" y="-51.5" font-family="Helvetica,sans-Serif" font-size="10.00">CheckShortMessageContains()</text>
<text text-anchor="start" x="11" y="-36.5" font-family="Helvetica,sans-Serif" font-size="10.00">+</text>
<text text-anchor="start" x="24" y="-36.5" font-family="Helvetica,sans-Serif" font-size="10.00">what()</text>
<text text-anchor="start" x="11" y="-21.5" font-family="Helvetica,sans-Serif" font-size="10.00">+</text>
<text text-anchor="start" x="24" y="-21.5" font-family="Helvetica,sans-Serif" font-size="10.00">Terminate()</text>
<text text-anchor="start" x="11" y="-6.5" font-family="Helvetica,sans-Serif" font-size="10.00">#</text>
<text text-anchor="start" x="24" y="-6.5" font-family="Helvetica,sans-Serif" font-size="10.00">SetMessage()</text>
<polygon fill="#666666" stroke="#666666" points="7,-151.5 7,-151.5 178,-151.5 178,-151.5 7,-151.5"/>
<polygon fill="#666666" stroke="#666666" points="7,-136.5 7,-136.5 178,-136.5 178,-136.5 7,-136.5"/>
<polygon fill="none" stroke="#666666" points="6.5,0 6.5,-169 177.5,-169 177.5,0 6.5,0"/>
</a>
</g>
</g>
<!-- Node2 -->
<g id="Node000002" class="node">
<title>Node2</title>
<g id="a_Node000002"><a xlink:title=" ">
<polygon fill="white" stroke="transparent" points="98,-276 0,-276 0,-227 98,-227 98,-276"/>
<text text-anchor="start" x="5" y="-263.5" font-family="Helvetica,sans-Serif" font-size="10.00">std::runtime_error</text>
<text text-anchor="start" x="47" y="-248.5" font-family="Helvetica,sans-Serif" font-size="10.00"> </text>
<text text-anchor="start" x="47" y="-233.5" font-family="Helvetica,sans-Serif" font-size="10.00"> </text>
<polygon fill="#bfbfbf" stroke="#bfbfbf" points="0,-258.5 0,-258.5 98,-258.5 98,-258.5 0,-258.5"/>
<polygon fill="#bfbfbf" stroke="#bfbfbf" points="0,-243.5 0,-243.5 98,-243.5 98,-243.5 0,-243.5"/>
<polygon fill="none" stroke="#bfbfbf" points="0,-227 0,-276 98,-276 98,-227 0,-227"/>
</a>
</g>
</g>
<!-- Node2&#45;&gt;Node1 -->
<g id="edge1_Node000001_Node000002" class="edge">
<title>Node2&#45;&gt;Node1</title>
<g id="a_edge1_Node000001_Node000002"><a xlink:title=" ">
<path fill="none" stroke="#63b8ff" d="M57.78,-216.8C61.42,-202.85 65.81,-185.99 70.22,-169.07"/>
<polygon fill="none" stroke="#63b8ff" points="54.3,-216.3 55.16,-226.86 61.07,-218.07 54.3,-216.3"/>
</a>
</g>
</g>
<!-- Node3 -->
<g id="Node000003" class="node">
<title>Node3</title>
<g id="a_Node000003"><a xlink:title=" ">
<polygon fill="white" stroke="transparent" points="154,-276 116,-276 116,-227 154,-227 154,-276"/>
<text text-anchor="start" x="121" y="-263.5" font-family="Helvetica,sans-Serif" font-size="10.00">string</text>
<text text-anchor="start" x="133" y="-248.5" font-family="Helvetica,sans-Serif" font-size="10.00"> </text>
<text text-anchor="start" x="133" y="-233.5" font-family="Helvetica,sans-Serif" font-size="10.00"> </text>
<polygon fill="#bfbfbf" stroke="#bfbfbf" points="116,-258.5 116,-258.5 154,-258.5 154,-258.5 116,-258.5"/>
<polygon fill="#bfbfbf" stroke="#bfbfbf" points="116,-243.5 116,-243.5 154,-243.5 154,-243.5 116,-243.5"/>
<polygon fill="none" stroke="#bfbfbf" points="116,-227 116,-276 154,-276 154,-227 116,-227"/>
</a>
</g>
</g>
<!-- Node3&#45;&gt;Node1 -->
<g id="edge2_Node000001_Node000003" class="edge">
<title>Node3&#45;&gt;Node1</title>
<g id="a_edge2_Node000001_Node000003"><a xlink:title=" ">
<path fill="none" stroke="#63b8ff" d="M128.84,-226.86C125.57,-214.33 121.33,-198.03 116.88,-180.97"/>
<polygon fill="none" stroke="#63b8ff" points="116.81,-180.69 111.42,-175.89 113.78,-169.07 119.16,-173.87 116.81,-180.69"/>
</a>
</g>
<text text-anchor="middle" x="164.5" y="-201" font-family="Helvetica,sans-Serif" font-size="10.00" fill="grey"> &#45;mMessage</text>
<text text-anchor="middle" x="164.5" y="-190" font-family="Helvetica,sans-Serif" font-size="10.00" fill="grey">&#45;mShortMessage</text>
</g>
</g>
</svg>
