<?xml version="1.0" encoding="UTF-8" standalone="no"?>
<!DOCTYPE svg PUBLIC "-//W3C//DTD SVG 1.1//EN"
 "http://www.w3.org/Graphics/SVG/1.1/DTD/svg11.dtd">
<!-- Generated by graphviz version 2.43.0 (0)
 -->
<!-- Title: Hdf5ToCmguiConverter&lt; ELEMENT_DIM, SPACE_DIM &gt; Pages: 1 -->
<svg width="1133pt" height="724pt"
 viewBox="0.00 0.00 1132.50 724.00" xmlns="http://www.w3.org/2000/svg" xmlns:xlink="http://www.w3.org/1999/xlink">
<g id="graph0" class="graph" transform="scale(1 1) rotate(0) translate(4 720)">
<title>Hdf5ToCmguiConverter&lt; ELEMENT_DIM, SPACE_DIM &gt;</title>
<!-- Node1 -->
<g id="Node000001" class="node">
<title>Node1</title>
<g id="a_Node000001"><a xlink:title=" ">
<polygon fill="#999999" stroke="transparent" points="728.5,-90 563.5,-90 563.5,0 728.5,0 728.5,-90"/>
<text text-anchor="start" x="569" y="-78" font-family="Helvetica,sans-Serif" font-size="10.00">Hdf5ToCmguiConverter</text>
<text text-anchor="start" x="569" y="-67" font-family="Helvetica,sans-Serif" font-size="10.00">&lt; ELEMENT_DIM, SPACE_DIM &gt;</text>
<text text-anchor="start" x="644.5" y="-52" font-family="Helvetica,sans-Serif" font-size="10.00"> </text>
<text text-anchor="start" x="573.5" y="-37" font-family="Helvetica,sans-Serif" font-size="10.00">+</text>
<text text-anchor="start" x="592" y="-37" font-family="Helvetica,sans-Serif" font-size="10.00">Hdf5ToCmguiConverter()</text>
<text text-anchor="start" x="576" y="-22" font-family="Helvetica,sans-Serif" font-size="10.00">&#45;</text>
<text text-anchor="start" x="592" y="-22" font-family="Helvetica,sans-Serif" font-size="10.00">Write()</text>
<text text-anchor="start" x="576" y="-7" font-family="Helvetica,sans-Serif" font-size="10.00">&#45;</text>
<text text-anchor="start" x="592" y="-7" font-family="Helvetica,sans-Serif" font-size="10.00">WriteCmguiScript()</text>
<polygon fill="#666666" stroke="#666666" points="564,-62 564,-62 729,-62 729,-62 564,-62"/>
<polygon fill="#666666" stroke="#666666" points="564,-47 564,-47 729,-47 729,-47 564,-47"/>
<polygon fill="none" stroke="#666666" points="563.5,0 563.5,-90 728.5,-90 728.5,0 563.5,0"/>
</a>
</g>
</g>
<!-- Node2 -->
<g id="Node000002" class="node">
<title>Node2</title>
<g id="a_Node000002"><a xlink:href="classAbstractHdf5Converter.html" target="_top" xlink:title=" ">
<polygon fill="white" stroke="transparent" points="728.5,-262 563.5,-262 563.5,-127 728.5,-127 728.5,-262"/>
<text text-anchor="start" x="569" y="-249.5" font-family="Helvetica,sans-Serif" font-size="10.00">AbstractHdf5Converter</text>
<text text-anchor="start" x="569" y="-238.5" font-family="Helvetica,sans-Serif" font-size="10.00">&lt; ELEMENT_DIM, SPACE_DIM &gt;</text>
<text text-anchor="start" x="644.5" y="-223.5" font-family="Helvetica,sans-Serif" font-size="10.00"> </text>
<text text-anchor="start" x="572" y="-208.5" font-family="Helvetica,sans-Serif" font-size="10.00">+</text>
<text text-anchor="start" x="589" y="-208.5" font-family="Helvetica,sans-Serif" font-size="10.00">AbstractHdf5Converter()</text>
<text text-anchor="start" x="572" y="-193.5" font-family="Helvetica,sans-Serif" font-size="10.00">+</text>
<text text-anchor="start" x="589" y="-193.5" font-family="Helvetica,sans-Serif" font-size="10.00">WriteInfoFile()</text>
<text text-anchor="start" x="572" y="-178.5" font-family="Helvetica,sans-Serif" font-size="10.00">+</text>
<text text-anchor="start" x="589" y="-178.5" font-family="Helvetica,sans-Serif" font-size="10.00">~AbstractHdf5Converter()</text>
<text text-anchor="start" x="572" y="-163.5" font-family="Helvetica,sans-Serif" font-size="10.00">+</text>
<text text-anchor="start" x="589" y="-163.5" font-family="Helvetica,sans-Serif" font-size="10.00">GetSubdirectory()</text>
<text text-anchor="start" x="572" y="-148.5" font-family="Helvetica,sans-Serif" font-size="10.00">#</text>
<text text-anchor="start" x="589" y="-148.5" font-family="Helvetica,sans-Serif" font-size="10.00">MoveOntoNextDataset()</text>
<text text-anchor="start" x="574.5" y="-133.5" font-family="Helvetica,sans-Serif" font-size="10.00">&#45;</text>
<text text-anchor="start" x="589" y="-133.5" font-family="Helvetica,sans-Serif" font-size="10.00">GenerateListOfDatasets()</text>
<polygon fill="#666666" stroke="#666666" points="564,-233.5 564,-233.5 729,-233.5 729,-233.5 564,-233.5"/>
<polygon fill="#666666" stroke="#666666" points="564,-218.5 564,-218.5 729,-218.5 729,-218.5 564,-218.5"/>
<polygon fill="none" stroke="#666666" points="563.5,-127 563.5,-262 728.5,-262 728.5,-127 563.5,-127"/>
</a>
</g>
</g>
<!-- Node2&#45;&gt;Node1 -->
<g id="edge1_Node000001_Node000002" class="edge">
<title>Node2&#45;&gt;Node1</title>
<g id="a_edge1_Node000001_Node000002"><a xlink:title=" ">
<path fill="none" stroke="#63b8ff" d="M646,-116.5C646,-107.5 646,-98.56 646,-90.23"/>
<polygon fill="none" stroke="#63b8ff" points="642.5,-116.66 646,-126.66 649.5,-116.66 642.5,-116.66"/>
</a>
</g>
</g>
<!-- Node3 -->
<g id="Node000003" class="node">
<title>Node3</title>
<g id="a_Node000003"><a xlink:href="classFileFinder.html" target="_top" xlink:title=" ">
<polygon fill="white" stroke="transparent" points="545,-620 359,-620 359,-331 545,-331 545,-620"/>
<text text-anchor="start" x="428" y="-607.5" font-family="Helvetica,sans-Serif" font-size="10.00">FileFinder</text>
<text text-anchor="start" x="450" y="-592.5" font-family="Helvetica,sans-Serif" font-size="10.00"> </text>
<text text-anchor="start" x="363" y="-577.5" font-family="Helvetica,sans-Serif" font-size="10.00">+</text>
<text text-anchor="start" x="376" y="-577.5" font-family="Helvetica,sans-Serif" font-size="10.00">FileFinder()</text>
<text text-anchor="start" x="363" y="-562.5" font-family="Helvetica,sans-Serif" font-size="10.00">+</text>
<text text-anchor="start" x="376" y="-562.5" font-family="Helvetica,sans-Serif" font-size="10.00">FileFinder()</text>
<text text-anchor="start" x="363" y="-547.5" font-family="Helvetica,sans-Serif" font-size="10.00">+</text>
<text text-anchor="start" x="376" y="-547.5" font-family="Helvetica,sans-Serif" font-size="10.00">FileFinder()</text>
<text text-anchor="start" x="363" y="-532.5" font-family="Helvetica,sans-Serif" font-size="10.00">+</text>
<text text-anchor="start" x="376" y="-532.5" font-family="Helvetica,sans-Serif" font-size="10.00">FileFinder()</text>
<text text-anchor="start" x="363" y="-517.5" font-family="Helvetica,sans-Serif" font-size="10.00">+</text>
<text text-anchor="start" x="376" y="-517.5" font-family="Helvetica,sans-Serif" font-size="10.00">~FileFinder()</text>
<text text-anchor="start" x="363" y="-502.5" font-family="Helvetica,sans-Serif" font-size="10.00">+</text>
<text text-anchor="start" x="376" y="-502.5" font-family="Helvetica,sans-Serif" font-size="10.00">SetPath()</text>
<text text-anchor="start" x="363" y="-487.5" font-family="Helvetica,sans-Serif" font-size="10.00">+</text>
<text text-anchor="start" x="376" y="-487.5" font-family="Helvetica,sans-Serif" font-size="10.00">SetPath()</text>
<text text-anchor="start" x="363" y="-472.5" font-family="Helvetica,sans-Serif" font-size="10.00">+</text>
<text text-anchor="start" x="376" y="-472.5" font-family="Helvetica,sans-Serif" font-size="10.00">IsPathSet()</text>
<text text-anchor="start" x="363" y="-457.5" font-family="Helvetica,sans-Serif" font-size="10.00">+</text>
<text text-anchor="start" x="376" y="-457.5" font-family="Helvetica,sans-Serif" font-size="10.00">Exists()</text>
<text text-anchor="start" x="363" y="-442.5" font-family="Helvetica,sans-Serif" font-size="10.00">+</text>
<text text-anchor="start" x="376" y="-442.5" font-family="Helvetica,sans-Serif" font-size="10.00">IsFile()</text>
<text text-anchor="start" x="376" y="-427.5" font-family="Helvetica,sans-Serif" font-size="10.00">and 14 more...</text>
<text text-anchor="start" x="363" y="-412.5" font-family="Helvetica,sans-Serif" font-size="10.00">+</text>
<text text-anchor="start" x="376" y="-412.5" font-family="Helvetica,sans-Serif" font-size="10.00">IsAbsolutePath()</text>
<text text-anchor="start" x="363" y="-397.5" font-family="Helvetica,sans-Serif" font-size="10.00">+</text>
<text text-anchor="start" x="376" y="-397.5" font-family="Helvetica,sans-Serif" font-size="10.00">ReplaceSpacesWithUnderscores()</text>
<text text-anchor="start" x="363" y="-382.5" font-family="Helvetica,sans-Serif" font-size="10.00">+</text>
<text text-anchor="start" x="376" y="-382.5" font-family="Helvetica,sans-Serif" font-size="10.00">ReplaceUnderscoresWithSpaces()</text>
<text text-anchor="start" x="363" y="-367.5" font-family="Helvetica,sans-Serif" font-size="10.00">+</text>
<text text-anchor="start" x="376" y="-367.5" font-family="Helvetica,sans-Serif" font-size="10.00">FakePath()</text>
<text text-anchor="start" x="363" y="-352.5" font-family="Helvetica,sans-Serif" font-size="10.00">+</text>
<text text-anchor="start" x="376" y="-352.5" font-family="Helvetica,sans-Serif" font-size="10.00">StopFaking()</text>
<text text-anchor="start" x="365.5" y="-337.5" font-family="Helvetica,sans-Serif" font-size="10.00">&#45;</text>
<text text-anchor="start" x="376" y="-337.5" font-family="Helvetica,sans-Serif" font-size="10.00">PrivateRemove()</text>
<polygon fill="#666666" stroke="#666666" points="359,-602.5 359,-602.5 545,-602.5 545,-602.5 359,-602.5"/>
<polygon fill="#666666" stroke="#666666" points="359,-587.5 359,-587.5 545,-587.5 545,-587.5 359,-587.5"/>
<polygon fill="none" stroke="#666666" points="359,-331 359,-620 545,-620 545,-331 359,-331"/>
</a>
</g>
</g>
<!-- Node3&#45;&gt;Node2 -->
<g id="edge2_Node000002_Node000003" class="edge">
<title>Node3&#45;&gt;Node2</title>
<g id="a_edge2_Node000002_Node000003"><a xlink:title=" ">
<path fill="none" stroke="#63b8ff" d="M537.72,-330.99C549.18,-313.54 561.1,-296.17 573,-280 575.05,-277.22 577.16,-274.42 579.33,-271.61"/>
<polygon fill="none" stroke="#63b8ff" points="579.42,-271.49 579.99,-264.3 586.85,-262.06 586.28,-269.25 579.42,-271.49"/>
</a>
</g>
<text text-anchor="middle" x="607.5" y="-294" font-family="Helvetica,sans-Serif" font-size="10.00" fill="grey"> #mrH5Folder</text>
</g>
<!-- Node4 -->
<g id="Node000004" class="node">
<title>Node4</title>
<g id="a_Node000004"><a xlink:title=" ">
<polygon fill="white" stroke="transparent" points="239,-716 201,-716 201,-667 239,-667 239,-716"/>
<text text-anchor="start" x="206" y="-703.5" font-family="Helvetica,sans-Serif" font-size="10.00">string</text>
<text text-anchor="start" x="218" y="-688.5" font-family="Helvetica,sans-Serif" font-size="10.00"> </text>
<text text-anchor="start" x="218" y="-673.5" font-family="Helvetica,sans-Serif" font-size="10.00"> </text>
<polygon fill="#bfbfbf" stroke="#bfbfbf" points="201,-698.5 201,-698.5 239,-698.5 239,-698.5 201,-698.5"/>
<polygon fill="#bfbfbf" stroke="#bfbfbf" points="201,-683.5 201,-683.5 239,-683.5 239,-683.5 201,-683.5"/>
<polygon fill="none" stroke="#bfbfbf" points="201,-667 201,-716 239,-716 239,-667 201,-667"/>
</a>
</g>
</g>
<!-- Node4&#45;&gt;Node2 -->
<g id="edge9_Node000002_Node000004" class="edge">
<title>Node4&#45;&gt;Node2</title>
<g id="a_edge9_Node000002_Node000004"><a xlink:title=" ">
<path fill="none" stroke="#63b8ff" d="M217.2,-666.99C209.23,-595.78 189.43,-384.05 229,-331 303.49,-231.13 453.18,-203.57 551.47,-196.69"/>
<polygon fill="none" stroke="#63b8ff" points="551.52,-196.69 557.25,-192.32 563.49,-195.93 557.76,-200.3 551.52,-196.69"/>
</a>
</g>
<text text-anchor="middle" x="289.5" y="-478.5" font-family="Helvetica,sans-Serif" font-size="10.00" fill="grey"> #mFileBaseName</text>
<text text-anchor="middle" x="289.5" y="-467.5" font-family="Helvetica,sans-Serif" font-size="10.00" fill="grey">#mRelativeSubdirectory</text>
</g>
<!-- Node4&#45;&gt;Node3 -->
<g id="edge3_Node000003_Node000004" class="edge">
<title>Node4&#45;&gt;Node3</title>
<g id="a_edge3_Node000003_Node000004"><a xlink:title=" ">
<path fill="none" stroke="#63b8ff" d="M239.03,-681C269.5,-665.59 327.61,-635.31 345,-620 346.6,-618.59 348.2,-617.15 349.78,-615.68"/>
<polygon fill="none" stroke="#63b8ff" points="350.11,-615.37 351.66,-608.32 358.75,-607.04 357.21,-614.08 350.11,-615.37"/>
</a>
</g>
<text text-anchor="middle" x="345" y="-641" font-family="Helvetica,sans-Serif" font-size="10.00" fill="grey"> &#45;mAbsPath</text>
</g>
<!-- Node12 -->
<g id="Node000012" class="node">
<title>Node12</title>
<g id="a_Node000012"><a xlink:href="classOutputFileHandler.html" target="_top" xlink:title=" ">
<polygon fill="white" stroke="transparent" points="178,-595.5 0,-595.5 0,-355.5 178,-355.5 178,-595.5"/>
<text text-anchor="start" x="44.5" y="-583.5" font-family="Helvetica,sans-Serif" font-size="10.00">OutputFileHandler</text>
<text text-anchor="start" x="87" y="-568.5" font-family="Helvetica,sans-Serif" font-size="10.00"> </text>
<text text-anchor="start" x="4" y="-553.5" font-family="Helvetica,sans-Serif" font-size="10.00">+</text>
<text text-anchor="start" x="17" y="-553.5" font-family="Helvetica,sans-Serif" font-size="10.00">OutputFileHandler()</text>
<text text-anchor="start" x="4" y="-538.5" font-family="Helvetica,sans-Serif" font-size="10.00">+</text>
<text text-anchor="start" x="17" y="-538.5" font-family="Helvetica,sans-Serif" font-size="10.00">OutputFileHandler()</text>
<text text-anchor="start" x="4" y="-523.5" font-family="Helvetica,sans-Serif" font-size="10.00">+</text>
<text text-anchor="start" x="17" y="-523.5" font-family="Helvetica,sans-Serif" font-size="10.00">GetOutputDirectoryFullPath()</text>
<text text-anchor="start" x="4" y="-508.5" font-family="Helvetica,sans-Serif" font-size="10.00">+</text>
<text text-anchor="start" x="17" y="-508.5" font-family="Helvetica,sans-Serif" font-size="10.00">GetRelativePath()</text>
<text text-anchor="start" x="4" y="-493.5" font-family="Helvetica,sans-Serif" font-size="10.00">+</text>
<text text-anchor="start" x="17" y="-493.5" font-family="Helvetica,sans-Serif" font-size="10.00">SetArchiveDirectory()</text>
<text text-anchor="start" x="4" y="-478.5" font-family="Helvetica,sans-Serif" font-size="10.00">+</text>
<text text-anchor="start" x="17" y="-478.5" font-family="Helvetica,sans-Serif" font-size="10.00">OpenOutputFile()</text>
<text text-anchor="start" x="4" y="-463.5" font-family="Helvetica,sans-Serif" font-size="10.00">+</text>
<text text-anchor="start" x="17" y="-463.5" font-family="Helvetica,sans-Serif" font-size="10.00">OpenOutputFile()</text>
<text text-anchor="start" x="4" y="-448.5" font-family="Helvetica,sans-Serif" font-size="10.00">+</text>
<text text-anchor="start" x="17" y="-448.5" font-family="Helvetica,sans-Serif" font-size="10.00">CopyFileTo()</text>
<text text-anchor="start" x="4" y="-433.5" font-family="Helvetica,sans-Serif" font-size="10.00">+</text>
<text text-anchor="start" x="17" y="-433.5" font-family="Helvetica,sans-Serif" font-size="10.00">FindFile()</text>
<text text-anchor="start" x="4" y="-418.5" font-family="Helvetica,sans-Serif" font-size="10.00">+</text>
<text text-anchor="start" x="17" y="-418.5" font-family="Helvetica,sans-Serif" font-size="10.00">GetChasteTestOutputDirectory()</text>
<text text-anchor="start" x="6.5" y="-403.5" font-family="Helvetica,sans-Serif" font-size="10.00">&#45;</text>
<text text-anchor="start" x="17" y="-403.5" font-family="Helvetica,sans-Serif" font-size="10.00">CommonConstructor()</text>
<text text-anchor="start" x="6.5" y="-388.5" font-family="Helvetica,sans-Serif" font-size="10.00">&#45;</text>
<text text-anchor="start" x="17" y="-388.5" font-family="Helvetica,sans-Serif" font-size="10.00">MakeFoldersAndReturnFull</text>
<text text-anchor="start" x="17" y="-377.5" font-family="Helvetica,sans-Serif" font-size="10.00">Path()</text>
<text text-anchor="start" x="6.5" y="-362.5" font-family="Helvetica,sans-Serif" font-size="10.00">&#45;</text>
<text text-anchor="start" x="17" y="-362.5" font-family="Helvetica,sans-Serif" font-size="10.00">AddTrailingSlash()</text>
<polygon fill="#666666" stroke="#666666" points="0,-578.5 0,-578.5 178,-578.5 178,-578.5 0,-578.5"/>
<polygon fill="#666666" stroke="#666666" points="0,-563.5 0,-563.5 178,-563.5 178,-563.5 0,-563.5"/>
<polygon fill="none" stroke="#666666" points="0,-355.5 0,-595.5 178,-595.5 178,-355.5 0,-355.5"/>
</a>
</g>
</g>
<!-- Node4&#45;&gt;Node12 -->
<g id="edge14_Node000012_Node000004" class="edge">
<title>Node4&#45;&gt;Node12</title>
<g id="a_edge14_Node000012_Node000004"><a xlink:title=" ">
<path fill="none" stroke="#63b8ff" d="M200.77,-684.61C183.56,-678.4 158.83,-666.97 144,-649 133.7,-636.51 125.31,-622.07 118.5,-606.96"/>
<polygon fill="none" stroke="#63b8ff" points="118.48,-606.91 112.45,-602.94 113.8,-595.86 119.82,-599.83 118.48,-606.91"/>
</a>
</g>
<text text-anchor="middle" x="175" y="-641" font-family="Helvetica,sans-Serif" font-size="10.00" fill="grey"> &#45;mDirectory</text>
</g>
<!-- Node5 -->
<g id="Node000005" class="node">
<title>Node5</title>
<g id="a_Node000005"><a xlink:href="classbool.html" target="_top" xlink:title=" ">
<polygon fill="white" stroke="transparent" points="468,-716 436,-716 436,-667 468,-667 468,-716"/>
<text text-anchor="start" x="441" y="-703.5" font-family="Helvetica,sans-Serif" font-size="10.00">bool</text>
<text text-anchor="start" x="450" y="-688.5" font-family="Helvetica,sans-Serif" font-size="10.00"> </text>
<text text-anchor="start" x="450" y="-673.5" font-family="Helvetica,sans-Serif" font-size="10.00"> </text>
<polygon fill="#bfbfbf" stroke="#bfbfbf" points="436,-698.5 436,-698.5 468,-698.5 468,-698.5 436,-698.5"/>
<polygon fill="#bfbfbf" stroke="#bfbfbf" points="436,-683.5 436,-683.5 468,-683.5 468,-683.5 436,-683.5"/>
<polygon fill="none" stroke="#bfbfbf" points="436,-667 436,-716 468,-716 468,-667 436,-667"/>
</a>
</g>
</g>
<!-- Node5&#45;&gt;Node3 -->
<g id="edge4_Node000003_Node000005" class="edge">
<title>Node5&#45;&gt;Node3</title>
<g id="a_edge4_Node000003_Node000005"><a xlink:title=" ">
<path fill="none" stroke="#63b8ff" d="M452,-666.78C452,-657.28 452,-645.49 452,-632.47"/>
<polygon fill="none" stroke="#63b8ff" points="452,-632.19 448,-626.19 452,-620.19 456,-626.19 452,-632.19"/>
</a>
</g>
<text text-anchor="middle" x="479" y="-641" font-family="Helvetica,sans-Serif" font-size="10.00" fill="grey"> &#45;msFaking</text>
</g>
<!-- Node6 -->
<g id="Node000006" class="node">
<title>Node6</title>
<g id="a_Node000006"><a xlink:title=" ">
<polygon fill="white" stroke="transparent" points="548,-716 510,-716 510,-667 548,-667 548,-716"/>
<text text-anchor="start" x="515" y="-703.5" font-family="Helvetica,sans-Serif" font-size="10.00">Value</text>
<text text-anchor="start" x="527" y="-688.5" font-family="Helvetica,sans-Serif" font-size="10.00"> </text>
<text text-anchor="start" x="527" y="-673.5" font-family="Helvetica,sans-Serif" font-size="10.00"> </text>
<polygon fill="#bfbfbf" stroke="#bfbfbf" points="510,-698.5 510,-698.5 548,-698.5 548,-698.5 510,-698.5"/>
<polygon fill="#bfbfbf" stroke="#bfbfbf" points="510,-683.5 510,-683.5 548,-683.5 548,-683.5 510,-683.5"/>
<polygon fill="none" stroke="#bfbfbf" points="510,-667 510,-716 548,-716 548,-667 510,-667"/>
</a>
</g>
</g>
<!-- Node6&#45;&gt;Node3 -->
<g id="edge5_Node000003_Node000006" class="edge">
<title>Node6&#45;&gt;Node3</title>
<g id="a_edge5_Node000003_Node000006"><a xlink:title=" ">
<path fill="none" stroke="#63b8ff" d="M520.47,-666.78C516.98,-657.09 512.63,-645.01 507.83,-631.67"/>
<polygon fill="none" stroke="#63b8ff" points="507.77,-631.48 501.97,-627.19 503.7,-620.19 509.5,-624.48 507.77,-631.48"/>
</a>
</g>
<text text-anchor="middle" x="547" y="-641" font-family="Helvetica,sans-Serif" font-size="10.00" fill="grey"> &#45;msFakeWhat</text>
</g>
<!-- Node7 -->
<g id="Node000007" class="node">
<title>Node7</title>
<g id="a_Node000007"><a xlink:title=" ">
<polygon fill="white" stroke="transparent" points="383,-716 345,-716 345,-667 383,-667 383,-716"/>
<text text-anchor="start" x="350" y="-703.5" font-family="Helvetica,sans-Serif" font-size="10.00">string</text>
<text text-anchor="start" x="362" y="-688.5" font-family="Helvetica,sans-Serif" font-size="10.00"> </text>
<text text-anchor="start" x="362" y="-673.5" font-family="Helvetica,sans-Serif" font-size="10.00"> </text>
<polygon fill="#bfbfbf" stroke="#bfbfbf" points="345,-698.5 345,-698.5 383,-698.5 383,-698.5 345,-698.5"/>
<polygon fill="#bfbfbf" stroke="#bfbfbf" points="345,-683.5 345,-683.5 383,-683.5 383,-683.5 345,-683.5"/>
<polygon fill="none" stroke="#bfbfbf" points="345,-667 345,-716 383,-716 383,-667 345,-667"/>
</a>
</g>
</g>
<!-- Node7&#45;&gt;Node3 -->
<g id="edge6_Node000003_Node000007" class="edge">
<title>Node7&#45;&gt;Node3</title>
<g id="a_edge6_Node000003_Node000007"><a xlink:title=" ">
<path fill="none" stroke="#63b8ff" d="M372.23,-666.87C375.47,-657.8 379.3,-647.38 383,-638 383.82,-635.91 384.66,-633.81 385.5,-631.69"/>
<polygon fill="none" stroke="#63b8ff" points="385.6,-631.43 384.13,-624.37 390.08,-620.3 391.55,-627.35 385.6,-631.43"/>
</a>
</g>
<text text-anchor="middle" x="415.5" y="-641" font-family="Helvetica,sans-Serif" font-size="10.00" fill="grey"> &#45;msFakePath</text>
</g>
<!-- Node8 -->
<g id="Node000008" class="node">
<title>Node8</title>
<g id="a_Node000008"><a xlink:title=" ">
<polygon fill="white" stroke="transparent" points="729,-500 563,-500 563,-451 729,-451 729,-500"/>
<text text-anchor="start" x="568" y="-487.5" font-family="Helvetica,sans-Serif" font-size="10.00">shared_ptr&lt; Hdf5DataReader &gt;</text>
<text text-anchor="start" x="644" y="-472.5" font-family="Helvetica,sans-Serif" font-size="10.00"> </text>
<text text-anchor="start" x="644" y="-457.5" font-family="Helvetica,sans-Serif" font-size="10.00"> </text>
<polygon fill="#bfbfbf" stroke="#bfbfbf" points="563,-482.5 563,-482.5 729,-482.5 729,-482.5 563,-482.5"/>
<polygon fill="#bfbfbf" stroke="#bfbfbf" points="563,-467.5 563,-467.5 729,-467.5 729,-467.5 563,-467.5"/>
<polygon fill="none" stroke="#bfbfbf" points="563,-451 563,-500 729,-500 729,-451 563,-451"/>
</a>
</g>
</g>
<!-- Node8&#45;&gt;Node2 -->
<g id="edge7_Node000002_Node000008" class="edge">
<title>Node8&#45;&gt;Node2</title>
<g id="a_edge7_Node000002_Node000008"><a xlink:title=" ">
<path fill="none" stroke="#63b8ff" d="M646,-450.71C646,-412.06 646,-333.95 646,-274.26"/>
<polygon fill="none" stroke="#63b8ff" points="646,-274.21 642,-268.21 646,-262.21 650,-268.21 646,-274.21"/>
</a>
</g>
<text text-anchor="middle" x="677" y="-294" font-family="Helvetica,sans-Serif" font-size="10.00" fill="grey"> #mpReader</text>
</g>
<!-- Node9 -->
<g id="Node000009" class="node">
<title>Node9</title>
<g id="a_Node000009"><a xlink:href="classunsigned.html" target="_top" xlink:title=" ">
<polygon fill="white" stroke="transparent" points="802.5,-500 747.5,-500 747.5,-451 802.5,-451 802.5,-500"/>
<text text-anchor="start" x="753" y="-487.5" font-family="Helvetica,sans-Serif" font-size="10.00">unsigned</text>
<text text-anchor="start" x="773.5" y="-472.5" font-family="Helvetica,sans-Serif" font-size="10.00"> </text>
<text text-anchor="start" x="773.5" y="-457.5" font-family="Helvetica,sans-Serif" font-size="10.00"> </text>
<polygon fill="#bfbfbf" stroke="#bfbfbf" points="748,-482.5 748,-482.5 803,-482.5 803,-482.5 748,-482.5"/>
<polygon fill="#bfbfbf" stroke="#bfbfbf" points="748,-467.5 748,-467.5 803,-467.5 803,-467.5 748,-467.5"/>
<polygon fill="none" stroke="#bfbfbf" points="747.5,-451 747.5,-500 802.5,-500 802.5,-451 747.5,-451"/>
</a>
</g>
</g>
<!-- Node9&#45;&gt;Node2 -->
<g id="edge8_Node000002_Node000009" class="edge">
<title>Node9&#45;&gt;Node2</title>
<g id="a_edge8_Node000002_Node000009"><a xlink:title=" ">
<path fill="none" stroke="#63b8ff" d="M770.57,-450.9C764.79,-422.06 753.53,-372.02 738,-331 728.99,-307.21 725.67,-301.46 712,-280 710.38,-277.46 708.7,-274.9 706.98,-272.34"/>
<polygon fill="none" stroke="#63b8ff" points="706.97,-272.33 700.27,-269.67 700.14,-262.46 706.84,-265.12 706.97,-272.33"/>
</a>
</g>
<text text-anchor="middle" x="784.5" y="-305" font-family="Helvetica,sans-Serif" font-size="10.00" fill="grey"> #mNumVariables</text>
<text text-anchor="middle" x="784.5" y="-294" font-family="Helvetica,sans-Serif" font-size="10.00" fill="grey">#mOpenDatasetIndex</text>
<text text-anchor="middle" x="784.5" y="-283" font-family="Helvetica,sans-Serif" font-size="10.00" fill="grey">#mPrecision</text>
</g>
<!-- Node10 -->
<g id="Node000010" class="node">
<title>Node10</title>
<g id="a_Node000010"><a xlink:title=" ">
<polygon fill="white" stroke="transparent" points="933.5,-500 820.5,-500 820.5,-451 933.5,-451 933.5,-500"/>
<text text-anchor="start" x="826" y="-487.5" font-family="Helvetica,sans-Serif" font-size="10.00">vector&lt; std::string &gt;</text>
<text text-anchor="start" x="875.5" y="-472.5" font-family="Helvetica,sans-Serif" font-size="10.00"> </text>
<text text-anchor="start" x="875.5" y="-457.5" font-family="Helvetica,sans-Serif" font-size="10.00"> </text>
<polygon fill="#bfbfbf" stroke="#bfbfbf" points="821,-482.5 821,-482.5 934,-482.5 934,-482.5 821,-482.5"/>
<polygon fill="#bfbfbf" stroke="#bfbfbf" points="821,-467.5 821,-467.5 934,-467.5 934,-467.5 821,-467.5"/>
<polygon fill="none" stroke="#bfbfbf" points="820.5,-451 820.5,-500 933.5,-500 933.5,-451 820.5,-451"/>
</a>
</g>
</g>
<!-- Node10&#45;&gt;Node2 -->
<g id="edge10_Node000002_Node000010" class="edge">
<title>Node10&#45;&gt;Node2</title>
<g id="a_edge10_Node000002_Node000010"><a xlink:title=" ">
<path fill="none" stroke="#63b8ff" d="M879.59,-450.68C882.58,-410.88 882.77,-330.27 843,-280 817.58,-247.86 777.58,-227.74 740.25,-215.24"/>
<polygon fill="none" stroke="#63b8ff" points="740.2,-215.23 733.27,-217.23 728.76,-211.6 735.69,-209.6 740.2,-215.23"/>
</a>
</g>
<text text-anchor="middle" x="908" y="-294" font-family="Helvetica,sans-Serif" font-size="10.00" fill="grey"> #mDatasetNames</text>
</g>
<!-- Node11 -->
<g id="Node000011" class="node">
<title>Node11</title>
<g id="a_Node000011"><a xlink:title=" ">
<polygon fill="white" stroke="transparent" points="1124.5,-505.5 951.5,-505.5 951.5,-445.5 1124.5,-445.5 1124.5,-505.5"/>
<text text-anchor="start" x="957" y="-493.5" font-family="Helvetica,sans-Serif" font-size="10.00">AbstractTetrahedralMesh</text>
<text text-anchor="start" x="957" y="-482.5" font-family="Helvetica,sans-Serif" font-size="10.00">&lt; ELEMENT_DIM, SPACE_DIM &gt; *</text>
<text text-anchor="start" x="1036.5" y="-467.5" font-family="Helvetica,sans-Serif" font-size="10.00"> </text>
<text text-anchor="start" x="1036.5" y="-452.5" font-family="Helvetica,sans-Serif" font-size="10.00"> </text>
<polygon fill="#bfbfbf" stroke="#bfbfbf" points="952,-477.5 952,-477.5 1125,-477.5 1125,-477.5 952,-477.5"/>
<polygon fill="#bfbfbf" stroke="#bfbfbf" points="952,-462.5 952,-462.5 1125,-462.5 1125,-462.5 952,-462.5"/>
<polygon fill="none" stroke="#bfbfbf" points="951.5,-445.5 951.5,-505.5 1124.5,-505.5 1124.5,-445.5 951.5,-445.5"/>
</a>
</g>
</g>
<!-- Node11&#45;&gt;Node2 -->
<g id="edge11_Node000002_Node000011" class="edge">
<title>Node11&#45;&gt;Node2</title>
<g id="a_edge11_Node000002_Node000011"><a xlink:title=" ">
<path fill="none" stroke="#63b8ff" d="M1034.35,-445.46C1027.44,-402.84 1008.41,-323.71 959,-280 898.95,-226.87 808.82,-206.71 740.67,-199.27"/>
<polygon fill="none" stroke="#63b8ff" points="740.59,-199.26 734.22,-202.64 728.65,-198.06 735.02,-194.68 740.59,-199.26"/>
</a>
</g>
<text text-anchor="middle" x="1011" y="-294" font-family="Helvetica,sans-Serif" font-size="10.00" fill="grey"> #mpMesh</text>
</g>
<!-- Node12&#45;&gt;Node2 -->
<g id="edge12_Node000002_Node000012" class="edge">
<title>Node12&#45;&gt;Node2</title>
<g id="a_edge12_Node000002_Node000012"><a xlink:title=" ">
<path fill="none" stroke="#63b8ff" d="M64.69,-355.36C65.41,-327.94 72.06,-300.76 90,-280 148.5,-212.29 408.23,-198.22 551.06,-195.69"/>
<polygon fill="none" stroke="#63b8ff" points="551.25,-195.69 557.18,-191.59 563.25,-195.5 557.31,-199.59 551.25,-195.69"/>
</a>
</g>
<text text-anchor="middle" x="148" y="-294" font-family="Helvetica,sans-Serif" font-size="10.00" fill="grey"> #mpOutputFileHandler</text>
</g>
<!-- Node13 -->
<g id="Node000013" class="node">
<title>Node13</title>
<g id="a_Node000013"><a xlink:title=" ">
<polygon fill="white" stroke="transparent" points="51,-716 13,-716 13,-667 51,-667 51,-716"/>
<text text-anchor="start" x="18" y="-703.5" font-family="Helvetica,sans-Serif" font-size="10.00">string</text>
<text text-anchor="start" x="30" y="-688.5" font-family="Helvetica,sans-Serif" font-size="10.00"> </text>
<text text-anchor="start" x="30" y="-673.5" font-family="Helvetica,sans-Serif" font-size="10.00"> </text>
<polygon fill="#bfbfbf" stroke="#bfbfbf" points="13,-698.5 13,-698.5 51,-698.5 51,-698.5 13,-698.5"/>
<polygon fill="#bfbfbf" stroke="#bfbfbf" points="13,-683.5 13,-683.5 51,-683.5 51,-683.5 13,-683.5"/>
<polygon fill="none" stroke="#bfbfbf" points="13,-667 13,-716 51,-716 51,-667 13,-667"/>
</a>
</g>
</g>
<!-- Node13&#45;&gt;Node12 -->
<g id="edge13_Node000012_Node000013" class="edge">
<title>Node13&#45;&gt;Node12</title>
<g id="a_edge13_Node000012_Node000013"><a xlink:title=" ">
<path fill="none" stroke="#63b8ff" d="M30.88,-666.83C30.86,-657.75 31.34,-647.33 33,-638 34.8,-627.92 37.13,-617.62 39.82,-607.34"/>
<polygon fill="none" stroke="#63b8ff" points="39.82,-607.34 37.55,-600.5 42.99,-595.77 45.26,-602.61 39.82,-607.34"/>
</a>
</g>
<text text-anchor="middle" x="77" y="-641" font-family="Helvetica,sans-Serif" font-size="10.00" fill="grey"> +SIG_FILE_NAME</text>
</g>
</g>
</svg>
