<?xml version="1.0" encoding="UTF-8" standalone="no"?>
<!DOCTYPE svg PUBLIC "-//W3C//DTD SVG 1.1//EN"
 "http://www.w3.org/Graphics/SVG/1.1/DTD/svg11.dtd">
<!-- Generated by graphviz version 2.43.0 (0)
 -->
<!-- Title: AbstractBackwardEulerCardiacCell&lt; 0u &gt; Pages: 1 -->
<svg width="901pt" height="1832pt"
 viewBox="0.00 0.00 900.50 1832.00" xmlns="http://www.w3.org/2000/svg" xmlns:xlink="http://www.w3.org/1999/xlink">
<g id="graph0" class="graph" transform="scale(1 1) rotate(0) translate(4 1828)">
<title>AbstractBackwardEulerCardiacCell&lt; 0u &gt;</title>
<!-- Node1 -->
<g id="Node000001" class="node">
<title>Node1</title>
<g id="a_Node000001"><a xlink:title=" ">
<polygon fill="#999999" stroke="transparent" points="740,-202 553,-202 553,0 740,0 740,-202"/>
<text text-anchor="start" x="571.5" y="-190" font-family="Helvetica,sans-Serif" font-size="10.00">AbstractBackwardEulerCardiac</text>
<text text-anchor="start" x="620" y="-179" font-family="Helvetica,sans-Serif" font-size="10.00">Cell&lt; 0u &gt;</text>
<text text-anchor="start" x="645" y="-164" font-family="Helvetica,sans-Serif" font-size="10.00"> </text>
<text text-anchor="start" x="557.5" y="-149" font-family="Helvetica,sans-Serif" font-size="10.00">+</text>
<text text-anchor="start" x="570.5" y="-149" font-family="Helvetica,sans-Serif" font-size="10.00">AbstractBackwardEulerCardiac</text>
<text text-anchor="start" x="570.5" y="-138" font-family="Helvetica,sans-Serif" font-size="10.00">Cell()</text>
<text text-anchor="start" x="557.5" y="-123" font-family="Helvetica,sans-Serif" font-size="10.00">+</text>
<text text-anchor="start" x="570.5" y="-123" font-family="Helvetica,sans-Serif" font-size="10.00">~AbstractBackwardEulerCardiac</text>
<text text-anchor="start" x="570.5" y="-112" font-family="Helvetica,sans-Serif" font-size="10.00">Cell()</text>
<text text-anchor="start" x="557.5" y="-97" font-family="Helvetica,sans-Serif" font-size="10.00">+</text>
<text text-anchor="start" x="570.5" y="-97" font-family="Helvetica,sans-Serif" font-size="10.00">Compute()</text>
<text text-anchor="start" x="557.5" y="-82" font-family="Helvetica,sans-Serif" font-size="10.00">+</text>
<text text-anchor="start" x="570.5" y="-82" font-family="Helvetica,sans-Serif" font-size="10.00">ComputeExceptVoltage()</text>
<text text-anchor="start" x="557.5" y="-67" font-family="Helvetica,sans-Serif" font-size="10.00">+</text>
<text text-anchor="start" x="570.5" y="-67" font-family="Helvetica,sans-Serif" font-size="10.00">SolveAndUpdateState()</text>
<text text-anchor="start" x="557.5" y="-52" font-family="Helvetica,sans-Serif" font-size="10.00">#</text>
<text text-anchor="start" x="570.5" y="-52" font-family="Helvetica,sans-Serif" font-size="10.00">ComputeOneStepExceptVoltage()</text>
<text text-anchor="start" x="557.5" y="-37" font-family="Helvetica,sans-Serif" font-size="10.00">#</text>
<text text-anchor="start" x="570.5" y="-37" font-family="Helvetica,sans-Serif" font-size="10.00">UpdateTransmembranePotential()</text>
<text text-anchor="start" x="560" y="-22" font-family="Helvetica,sans-Serif" font-size="10.00">&#45;</text>
<text text-anchor="start" x="570.5" y="-22" font-family="Helvetica,sans-Serif" font-size="10.00">serialize()</text>
<text text-anchor="start" x="560" y="-7" font-family="Helvetica,sans-Serif" font-size="10.00">&#45;</text>
<text text-anchor="start" x="570.5" y="-7" font-family="Helvetica,sans-Serif" font-size="10.00">EvaluateYDerivatives()</text>
<polygon fill="#666666" stroke="#666666" points="553.5,-174 553.5,-174 740.5,-174 740.5,-174 553.5,-174"/>
<polygon fill="#666666" stroke="#666666" points="553.5,-159 553.5,-159 740.5,-159 740.5,-159 553.5,-159"/>
<polygon fill="none" stroke="#666666" points="553,0 553,-202 740,-202 740,0 553,0"/>
</a>
</g>
</g>
<!-- Node2 -->
<g id="Node000002" class="node">
<title>Node2</title>
<g id="a_Node000002"><a xlink:href="classAbstractCardiacCell.html" target="_top" xlink:title=" ">
<polygon fill="white" stroke="transparent" points="730,-468 563,-468 563,-239 730,-239 730,-468"/>
<text text-anchor="start" x="598.5" y="-455.5" font-family="Helvetica,sans-Serif" font-size="10.00">AbstractCardiacCell</text>
<text text-anchor="start" x="645" y="-440.5" font-family="Helvetica,sans-Serif" font-size="10.00"> </text>
<text text-anchor="start" x="567.5" y="-425.5" font-family="Helvetica,sans-Serif" font-size="10.00">+</text>
<text text-anchor="start" x="580.5" y="-425.5" font-family="Helvetica,sans-Serif" font-size="10.00">AbstractCardiacCell()</text>
<text text-anchor="start" x="567.5" y="-410.5" font-family="Helvetica,sans-Serif" font-size="10.00">+</text>
<text text-anchor="start" x="580.5" y="-410.5" font-family="Helvetica,sans-Serif" font-size="10.00">~AbstractCardiacCell()</text>
<text text-anchor="start" x="567.5" y="-395.5" font-family="Helvetica,sans-Serif" font-size="10.00">+</text>
<text text-anchor="start" x="580.5" y="-395.5" font-family="Helvetica,sans-Serif" font-size="10.00">Init()</text>
<text text-anchor="start" x="567.5" y="-380.5" font-family="Helvetica,sans-Serif" font-size="10.00">+</text>
<text text-anchor="start" x="580.5" y="-380.5" font-family="Helvetica,sans-Serif" font-size="10.00">SetTimestep()</text>
<text text-anchor="start" x="567.5" y="-365.5" font-family="Helvetica,sans-Serif" font-size="10.00">+</text>
<text text-anchor="start" x="580.5" y="-365.5" font-family="Helvetica,sans-Serif" font-size="10.00">SolveAndUpdateState()</text>
<text text-anchor="start" x="567.5" y="-350.5" font-family="Helvetica,sans-Serif" font-size="10.00">+</text>
<text text-anchor="start" x="580.5" y="-350.5" font-family="Helvetica,sans-Serif" font-size="10.00">Compute()</text>
<text text-anchor="start" x="567.5" y="-335.5" font-family="Helvetica,sans-Serif" font-size="10.00">+</text>
<text text-anchor="start" x="580.5" y="-335.5" font-family="Helvetica,sans-Serif" font-size="10.00">ComputeExceptVoltage()</text>
<text text-anchor="start" x="567.5" y="-320.5" font-family="Helvetica,sans-Serif" font-size="10.00">+</text>
<text text-anchor="start" x="580.5" y="-320.5" font-family="Helvetica,sans-Serif" font-size="10.00">SetVoltage()</text>
<text text-anchor="start" x="567.5" y="-305.5" font-family="Helvetica,sans-Serif" font-size="10.00">+</text>
<text text-anchor="start" x="580.5" y="-305.5" font-family="Helvetica,sans-Serif" font-size="10.00">GetVoltage()</text>
<text text-anchor="start" x="567.5" y="-290.5" font-family="Helvetica,sans-Serif" font-size="10.00">+</text>
<text text-anchor="start" x="580.5" y="-290.5" font-family="Helvetica,sans-Serif" font-size="10.00">GetNumberOfStateVariables()</text>
<text text-anchor="start" x="580.5" y="-275.5" font-family="Helvetica,sans-Serif" font-size="10.00">and 16 more...</text>
<text text-anchor="start" x="570" y="-260.5" font-family="Helvetica,sans-Serif" font-size="10.00">&#45;</text>
<text text-anchor="start" x="580.5" y="-260.5" font-family="Helvetica,sans-Serif" font-size="10.00">serialize()</text>
<text text-anchor="start" x="570" y="-245.5" font-family="Helvetica,sans-Serif" font-size="10.00">&#45;</text>
<text text-anchor="start" x="580.5" y="-245.5" font-family="Helvetica,sans-Serif" font-size="10.00">CheckForArchiveFix()</text>
<polygon fill="#666666" stroke="#666666" points="563.5,-450.5 563.5,-450.5 730.5,-450.5 730.5,-450.5 563.5,-450.5"/>
<polygon fill="#666666" stroke="#666666" points="563.5,-435.5 563.5,-435.5 730.5,-435.5 730.5,-435.5 563.5,-435.5"/>
<polygon fill="none" stroke="#666666" points="563,-239 563,-468 730,-468 730,-239 563,-239"/>
</a>
</g>
</g>
<!-- Node2&#45;&gt;Node1 -->
<g id="edge1_Node000001_Node000002" class="edge">
<title>Node2&#45;&gt;Node1</title>
<g id="a_edge1_Node000001_Node000002"><a xlink:title=" ">
<path fill="none" stroke="#63b8ff" d="M646.5,-228.86C646.5,-219.89 646.5,-210.91 646.5,-202.11"/>
<polygon fill="none" stroke="#63b8ff" points="643,-228.98 646.5,-238.98 650,-228.98 643,-228.98"/>
</a>
</g>
</g>
<!-- Node3 -->
<g id="Node000003" class="node">
<title>Node3</title>
<g id="a_Node000003"><a xlink:href="classAbstractCardiacCellInterface.html" target="_top" xlink:title=" ">
<polygon fill="white" stroke="transparent" points="735,-719 558,-719 558,-505 735,-505 735,-719"/>
<text text-anchor="start" x="577" y="-707" font-family="Helvetica,sans-Serif" font-size="10.00">AbstractCardiacCellInterface</text>
<text text-anchor="start" x="645" y="-692" font-family="Helvetica,sans-Serif" font-size="10.00"> </text>
<text text-anchor="start" x="562.5" y="-677" font-family="Helvetica,sans-Serif" font-size="10.00">+</text>
<text text-anchor="start" x="575.5" y="-677" font-family="Helvetica,sans-Serif" font-size="10.00">AbstractCardiacCellInterface()</text>
<text text-anchor="start" x="562.5" y="-662" font-family="Helvetica,sans-Serif" font-size="10.00">+</text>
<text text-anchor="start" x="575.5" y="-662" font-family="Helvetica,sans-Serif" font-size="10.00">~AbstractCardiacCellInterface()</text>
<text text-anchor="start" x="562.5" y="-647" font-family="Helvetica,sans-Serif" font-size="10.00">+</text>
<text text-anchor="start" x="575.5" y="-647" font-family="Helvetica,sans-Serif" font-size="10.00">SetTimestep()</text>
<text text-anchor="start" x="562.5" y="-632" font-family="Helvetica,sans-Serif" font-size="10.00">+</text>
<text text-anchor="start" x="575.5" y="-632" font-family="Helvetica,sans-Serif" font-size="10.00">GetNumberOfStateVariables()</text>
<text text-anchor="start" x="562.5" y="-617" font-family="Helvetica,sans-Serif" font-size="10.00">+</text>
<text text-anchor="start" x="575.5" y="-617" font-family="Helvetica,sans-Serif" font-size="10.00">GetNumberOfParameters()</text>
<text text-anchor="start" x="562.5" y="-602" font-family="Helvetica,sans-Serif" font-size="10.00">+</text>
<text text-anchor="start" x="575.5" y="-602" font-family="Helvetica,sans-Serif" font-size="10.00">GetStdVecStateVariables()</text>
<text text-anchor="start" x="562.5" y="-587" font-family="Helvetica,sans-Serif" font-size="10.00">+</text>
<text text-anchor="start" x="575.5" y="-587" font-family="Helvetica,sans-Serif" font-size="10.00">rGetStateVariableNames()</text>
<text text-anchor="start" x="562.5" y="-572" font-family="Helvetica,sans-Serif" font-size="10.00">+</text>
<text text-anchor="start" x="575.5" y="-572" font-family="Helvetica,sans-Serif" font-size="10.00">SetStateVariables()</text>
<text text-anchor="start" x="562.5" y="-557" font-family="Helvetica,sans-Serif" font-size="10.00">+</text>
<text text-anchor="start" x="575.5" y="-557" font-family="Helvetica,sans-Serif" font-size="10.00">SetStateVariable()</text>
<text text-anchor="start" x="562.5" y="-542" font-family="Helvetica,sans-Serif" font-size="10.00">+</text>
<text text-anchor="start" x="575.5" y="-542" font-family="Helvetica,sans-Serif" font-size="10.00">SetStateVariable()</text>
<text text-anchor="start" x="575.5" y="-527" font-family="Helvetica,sans-Serif" font-size="10.00">and 28 more...</text>
<text text-anchor="start" x="565" y="-512" font-family="Helvetica,sans-Serif" font-size="10.00">&#45;</text>
<text text-anchor="start" x="575.5" y="-512" font-family="Helvetica,sans-Serif" font-size="10.00">serialize()</text>
<polygon fill="#666666" stroke="#666666" points="558.5,-702 558.5,-702 735.5,-702 735.5,-702 558.5,-702"/>
<polygon fill="#666666" stroke="#666666" points="558.5,-687 558.5,-687 735.5,-687 735.5,-687 558.5,-687"/>
<polygon fill="none" stroke="#666666" points="558,-505 558,-719 735,-719 735,-505 558,-505"/>
</a>
</g>
</g>
<!-- Node3&#45;&gt;Node2 -->
<g id="edge2_Node000002_Node000003" class="edge">
<title>Node3&#45;&gt;Node2</title>
<g id="a_edge2_Node000002_Node000003"><a xlink:title=" ">
<path fill="none" stroke="#63b8ff" d="M646.5,-494.82C646.5,-485.92 646.5,-476.95 646.5,-468.07"/>
<polygon fill="none" stroke="#63b8ff" points="643,-494.82 646.5,-504.82 650,-494.82 643,-494.82"/>
</a>
</g>
</g>
<!-- Node4 -->
<g id="Node000004" class="node">
<title>Node4</title>
<g id="a_Node000004"><a xlink:href="classunsigned.html" target="_top" xlink:title=" ">
<polygon fill="white" stroke="transparent" points="521,-1818.5 466,-1818.5 466,-1769.5 521,-1769.5 521,-1818.5"/>
<text text-anchor="start" x="471.5" y="-1806" font-family="Helvetica,sans-Serif" font-size="10.00">unsigned</text>
<text text-anchor="start" x="492" y="-1791" font-family="Helvetica,sans-Serif" font-size="10.00"> </text>
<text text-anchor="start" x="492" y="-1776" font-family="Helvetica,sans-Serif" font-size="10.00"> </text>
<polygon fill="#bfbfbf" stroke="#bfbfbf" points="466.5,-1801 466.5,-1801 521.5,-1801 521.5,-1801 466.5,-1801"/>
<polygon fill="#bfbfbf" stroke="#bfbfbf" points="466.5,-1786 466.5,-1786 521.5,-1786 521.5,-1786 466.5,-1786"/>
<polygon fill="none" stroke="#bfbfbf" points="466,-1769.5 466,-1818.5 521,-1818.5 521,-1769.5 466,-1769.5"/>
</a>
</g>
</g>
<!-- Node4&#45;&gt;Node3 -->
<g id="edge3_Node000003_Node000004" class="edge">
<title>Node4&#45;&gt;Node3</title>
<g id="a_edge3_Node000003_Node000004"><a xlink:title=" ">
<path fill="none" stroke="#63b8ff" d="M521.34,-1780.65C537.22,-1772.54 556.67,-1760.72 570.5,-1746 620.05,-1693.26 646.5,-1674.37 646.5,-1602 646.5,-1602 646.5,-1602 646.5,-940.5 646.5,-871.2 646.5,-793.66 646.5,-731.43"/>
<polygon fill="none" stroke="#63b8ff" points="646.5,-731.2 642.5,-725.2 646.5,-719.2 650.5,-725.2 646.5,-731.2"/>
</a>
</g>
<text text-anchor="middle" x="689" y="-1282" font-family="Helvetica,sans-Serif" font-size="10.00" fill="grey"> #mVoltageIndex</text>
</g>
<!-- Node11 -->
<g id="Node000011" class="node">
<title>Node11</title>
<g id="a_Node000011"><a xlink:href="classAbstractUntemplatedParameterisedSystem.html" target="_top" xlink:title=" ">
<polygon fill="white" stroke="transparent" points="338,-1717 133,-1717 133,-1485 338,-1485 338,-1717"/>
<text text-anchor="start" x="148.5" y="-1705" font-family="Helvetica,sans-Serif" font-size="10.00">AbstractUntemplatedParameterised</text>
<text text-anchor="start" x="217.5" y="-1694" font-family="Helvetica,sans-Serif" font-size="10.00">System</text>
<text text-anchor="start" x="234" y="-1679" font-family="Helvetica,sans-Serif" font-size="10.00"> </text>
<text text-anchor="start" x="137.5" y="-1664" font-family="Helvetica,sans-Serif" font-size="10.00">+</text>
<text text-anchor="start" x="150.5" y="-1664" font-family="Helvetica,sans-Serif" font-size="10.00">AbstractUntemplatedParameterised</text>
<text text-anchor="start" x="150.5" y="-1653" font-family="Helvetica,sans-Serif" font-size="10.00">System()</text>
<text text-anchor="start" x="137.5" y="-1638" font-family="Helvetica,sans-Serif" font-size="10.00">+</text>
<text text-anchor="start" x="150.5" y="-1638" font-family="Helvetica,sans-Serif" font-size="10.00">~AbstractUntemplatedParameterised</text>
<text text-anchor="start" x="150.5" y="-1627" font-family="Helvetica,sans-Serif" font-size="10.00">System()</text>
<text text-anchor="start" x="137.5" y="-1612" font-family="Helvetica,sans-Serif" font-size="10.00">+</text>
<text text-anchor="start" x="150.5" y="-1612" font-family="Helvetica,sans-Serif" font-size="10.00">GetSystemInformation()</text>
<text text-anchor="start" x="137.5" y="-1597" font-family="Helvetica,sans-Serif" font-size="10.00">+</text>
<text text-anchor="start" x="150.5" y="-1597" font-family="Helvetica,sans-Serif" font-size="10.00">GetSystemName()</text>
<text text-anchor="start" x="137.5" y="-1582" font-family="Helvetica,sans-Serif" font-size="10.00">+</text>
<text text-anchor="start" x="150.5" y="-1582" font-family="Helvetica,sans-Serif" font-size="10.00">GetNumberOfAttributes()</text>
<text text-anchor="start" x="137.5" y="-1567" font-family="Helvetica,sans-Serif" font-size="10.00">+</text>
<text text-anchor="start" x="150.5" y="-1567" font-family="Helvetica,sans-Serif" font-size="10.00">HasAttribute()</text>
<text text-anchor="start" x="137.5" y="-1552" font-family="Helvetica,sans-Serif" font-size="10.00">+</text>
<text text-anchor="start" x="150.5" y="-1552" font-family="Helvetica,sans-Serif" font-size="10.00">GetAttribute()</text>
<text text-anchor="start" x="137.5" y="-1537" font-family="Helvetica,sans-Serif" font-size="10.00">+</text>
<text text-anchor="start" x="150.5" y="-1537" font-family="Helvetica,sans-Serif" font-size="10.00">GetNumberOfStateVariables()</text>
<text text-anchor="start" x="137.5" y="-1522" font-family="Helvetica,sans-Serif" font-size="10.00">+</text>
<text text-anchor="start" x="150.5" y="-1522" font-family="Helvetica,sans-Serif" font-size="10.00">rGetStateVariableNames()</text>
<text text-anchor="start" x="137.5" y="-1507" font-family="Helvetica,sans-Serif" font-size="10.00">+</text>
<text text-anchor="start" x="150.5" y="-1507" font-family="Helvetica,sans-Serif" font-size="10.00">rGetStateVariableUnits()</text>
<text text-anchor="start" x="150.5" y="-1492" font-family="Helvetica,sans-Serif" font-size="10.00">and 20 more...</text>
<polygon fill="#666666" stroke="#666666" points="133.5,-1689 133.5,-1689 338.5,-1689 338.5,-1689 133.5,-1689"/>
<polygon fill="#666666" stroke="#666666" points="133.5,-1674 133.5,-1674 338.5,-1674 338.5,-1674 133.5,-1674"/>
<polygon fill="none" stroke="#666666" points="133,-1485 133,-1717 338,-1717 338,-1485 133,-1485"/>
</a>
</g>
</g>
<!-- Node4&#45;&gt;Node11 -->
<g id="edge11_Node000011_Node000004" class="edge">
<title>Node4&#45;&gt;Node11</title>
<g id="a_edge11_Node000011_Node000004"><a xlink:title=" ">
<path fill="none" stroke="#63b8ff" d="M465.89,-1772.56C437.49,-1751.53 391.38,-1717.4 347.84,-1685.17"/>
<polygon fill="none" stroke="#63b8ff" points="347.66,-1685.03 340.46,-1684.68 338.01,-1677.89 345.22,-1678.25 347.66,-1685.03"/>
</a>
</g>
<text text-anchor="middle" x="495.5" y="-1738" font-family="Helvetica,sans-Serif" font-size="10.00" fill="grey"> #mNumberOfStateVariables</text>
</g>
<!-- Node5 -->
<g id="Node000005" class="node">
<title>Node5</title>
<g id="a_Node000005"><a xlink:title=" ">
<polygon fill="white" stroke="transparent" points="823,-971.5 674,-971.5 674,-911.5 823,-911.5 823,-971.5"/>
<text text-anchor="start" x="679.5" y="-959.5" font-family="Helvetica,sans-Serif" font-size="10.00">shared_ptr&lt; AbstractIvpOde</text>
<text text-anchor="start" x="727.5" y="-948.5" font-family="Helvetica,sans-Serif" font-size="10.00">Solver &gt;</text>
<text text-anchor="start" x="747" y="-933.5" font-family="Helvetica,sans-Serif" font-size="10.00"> </text>
<text text-anchor="start" x="747" y="-918.5" font-family="Helvetica,sans-Serif" font-size="10.00"> </text>
<polygon fill="#bfbfbf" stroke="#bfbfbf" points="674.5,-943.5 674.5,-943.5 823.5,-943.5 823.5,-943.5 674.5,-943.5"/>
<polygon fill="#bfbfbf" stroke="#bfbfbf" points="674.5,-928.5 674.5,-928.5 823.5,-928.5 823.5,-928.5 674.5,-928.5"/>
<polygon fill="none" stroke="#bfbfbf" points="674,-911.5 674,-971.5 823,-971.5 823,-911.5 674,-911.5"/>
</a>
</g>
</g>
<!-- Node5&#45;&gt;Node3 -->
<g id="edge4_Node000003_Node000005" class="edge">
<title>Node5&#45;&gt;Node3</title>
<g id="a_edge4_Node000003_Node000005"><a xlink:title=" ">
<path fill="none" stroke="#63b8ff" d="M734,-911.49C718.79,-880.03 695.11,-828 680.5,-781 675.56,-765.11 671.16,-748.14 667.29,-731.33"/>
<polygon fill="none" stroke="#63b8ff" points="667.18,-730.84 661.97,-725.86 664.57,-719.13 669.78,-724.12 667.18,-730.84"/>
</a>
</g>
<text text-anchor="middle" x="719.5" y="-756.5" font-family="Helvetica,sans-Serif" font-size="10.00" fill="grey"> #mpOdeSolver</text>
</g>
<!-- Node6 -->
<g id="Node000006" class="node">
<title>Node6</title>
<g id="a_Node000006"><a xlink:title=" ">
<polygon fill="white" stroke="transparent" points="581,-971.5 424,-971.5 424,-911.5 581,-911.5 581,-971.5"/>
<text text-anchor="start" x="429.5" y="-959.5" font-family="Helvetica,sans-Serif" font-size="10.00">shared_ptr&lt; AbstractStimulus</text>
<text text-anchor="start" x="476.5" y="-948.5" font-family="Helvetica,sans-Serif" font-size="10.00">Function &gt;</text>
<text text-anchor="start" x="501" y="-933.5" font-family="Helvetica,sans-Serif" font-size="10.00"> </text>
<text text-anchor="start" x="501" y="-918.5" font-family="Helvetica,sans-Serif" font-size="10.00"> </text>
<polygon fill="#bfbfbf" stroke="#bfbfbf" points="424.5,-943.5 424.5,-943.5 581.5,-943.5 581.5,-943.5 424.5,-943.5"/>
<polygon fill="#bfbfbf" stroke="#bfbfbf" points="424.5,-928.5 424.5,-928.5 581.5,-928.5 581.5,-928.5 424.5,-928.5"/>
<polygon fill="none" stroke="#bfbfbf" points="424,-911.5 424,-971.5 581,-971.5 581,-911.5 424,-911.5"/>
</a>
</g>
</g>
<!-- Node6&#45;&gt;Node3 -->
<g id="edge5_Node000003_Node000006" class="edge">
<title>Node6&#45;&gt;Node3</title>
<g id="a_edge5_Node000003_Node000006"><a xlink:title=" ">
<path fill="none" stroke="#63b8ff" d="M495.41,-911.25C487.02,-870.21 477.25,-794.15 503.5,-737 513.82,-714.55 530.41,-694.59 548.7,-677.59"/>
<polygon fill="none" stroke="#63b8ff" points="548.84,-677.47 550.66,-670.49 557.8,-669.49 555.98,-676.46 548.84,-677.47"/>
</a>
</g>
<text text-anchor="middle" x="568" y="-756.5" font-family="Helvetica,sans-Serif" font-size="10.00" fill="grey"> #mpIntracellularStimulus</text>
</g>
<!-- Node7 -->
<g id="Node000007" class="node">
<title>Node7</title>
<g id="a_Node000007"><a xlink:href="classbool.html" target="_top" xlink:title=" ">
<polygon fill="white" stroke="transparent" points="313.5,-966 281.5,-966 281.5,-917 313.5,-917 313.5,-966"/>
<text text-anchor="start" x="286.5" y="-953.5" font-family="Helvetica,sans-Serif" font-size="10.00">bool</text>
<text text-anchor="start" x="295.5" y="-938.5" font-family="Helvetica,sans-Serif" font-size="10.00"> </text>
<text text-anchor="start" x="295.5" y="-923.5" font-family="Helvetica,sans-Serif" font-size="10.00"> </text>
<polygon fill="#bfbfbf" stroke="#bfbfbf" points="281.5,-948.5 281.5,-948.5 313.5,-948.5 313.5,-948.5 281.5,-948.5"/>
<polygon fill="#bfbfbf" stroke="#bfbfbf" points="281.5,-933.5 281.5,-933.5 313.5,-933.5 313.5,-933.5 281.5,-933.5"/>
<polygon fill="none" stroke="#bfbfbf" points="281.5,-917 281.5,-966 313.5,-966 313.5,-917 281.5,-917"/>
</a>
</g>
</g>
<!-- Node7&#45;&gt;Node3 -->
<g id="edge6_Node000003_Node000007" class="edge">
<title>Node7&#45;&gt;Node3</title>
<g id="a_edge6_Node000003_Node000007"><a xlink:title=" ">
<path fill="none" stroke="#63b8ff" d="M294.66,-916.78C291.05,-875.44 289.76,-789.58 332.5,-737 384.83,-672.62 475.3,-641.52 545.73,-626.59"/>
<polygon fill="none" stroke="#63b8ff" points="545.98,-626.54 551.07,-621.42 557.74,-624.15 552.65,-629.26 545.98,-626.54"/>
</a>
</g>
<text text-anchor="start" x="332.5" y="-773" font-family="Helvetica,sans-Serif" font-size="10.00" fill="grey"> #mHasDefaultStimulusFrom</text>
<text text-anchor="middle" x="410" y="-762" font-family="Helvetica,sans-Serif" font-size="10.00" fill="grey">CellML</text>
<text text-anchor="middle" x="410" y="-751" font-family="Helvetica,sans-Serif" font-size="10.00" fill="grey">#mIsUsedInTissue</text>
<text text-anchor="middle" x="410" y="-740" font-family="Helvetica,sans-Serif" font-size="10.00" fill="grey">#mSetVoltageDerivativeToZero</text>
</g>
<!-- Node9 -->
<g id="Node000009" class="node">
<title>Node9</title>
<g id="a_Node000009"><a xlink:href="classAbstractOdeSystem.html" target="_top" xlink:title=" ">
<polygon fill="white" stroke="transparent" points="254.5,-696.5 106.5,-696.5 106.5,-527.5 254.5,-527.5 254.5,-696.5"/>
<text text-anchor="start" x="132" y="-684" font-family="Helvetica,sans-Serif" font-size="10.00">AbstractOdeSystem</text>
<text text-anchor="start" x="178.5" y="-669" font-family="Helvetica,sans-Serif" font-size="10.00"> </text>
<text text-anchor="start" x="110.5" y="-654" font-family="Helvetica,sans-Serif" font-size="10.00">+</text>
<text text-anchor="start" x="123.5" y="-654" font-family="Helvetica,sans-Serif" font-size="10.00">AbstractOdeSystem()</text>
<text text-anchor="start" x="110.5" y="-639" font-family="Helvetica,sans-Serif" font-size="10.00">+</text>
<text text-anchor="start" x="123.5" y="-639" font-family="Helvetica,sans-Serif" font-size="10.00">~AbstractOdeSystem()</text>
<text text-anchor="start" x="110.5" y="-624" font-family="Helvetica,sans-Serif" font-size="10.00">+</text>
<text text-anchor="start" x="123.5" y="-624" font-family="Helvetica,sans-Serif" font-size="10.00">EvaluateYDerivatives()</text>
<text text-anchor="start" x="110.5" y="-609" font-family="Helvetica,sans-Serif" font-size="10.00">+</text>
<text text-anchor="start" x="123.5" y="-609" font-family="Helvetica,sans-Serif" font-size="10.00">CalculateStoppingEvent()</text>
<text text-anchor="start" x="110.5" y="-594" font-family="Helvetica,sans-Serif" font-size="10.00">+</text>
<text text-anchor="start" x="123.5" y="-594" font-family="Helvetica,sans-Serif" font-size="10.00">CalculateRootFunction()</text>
<text text-anchor="start" x="110.5" y="-579" font-family="Helvetica,sans-Serif" font-size="10.00">+</text>
<text text-anchor="start" x="123.5" y="-579" font-family="Helvetica,sans-Serif" font-size="10.00">GetUseAnalyticJacobian()</text>
<text text-anchor="start" x="110.5" y="-564" font-family="Helvetica,sans-Serif" font-size="10.00">+</text>
<text text-anchor="start" x="123.5" y="-564" font-family="Helvetica,sans-Serif" font-size="10.00">rGetConstStateVariables()</text>
<text text-anchor="start" x="113" y="-549" font-family="Helvetica,sans-Serif" font-size="10.00">&#45;</text>
<text text-anchor="start" x="123.5" y="-549" font-family="Helvetica,sans-Serif" font-size="10.00">save()</text>
<text text-anchor="start" x="113" y="-534" font-family="Helvetica,sans-Serif" font-size="10.00">&#45;</text>
<text text-anchor="start" x="123.5" y="-534" font-family="Helvetica,sans-Serif" font-size="10.00">load()</text>
<polygon fill="#666666" stroke="#666666" points="106.5,-679 106.5,-679 254.5,-679 254.5,-679 106.5,-679"/>
<polygon fill="#666666" stroke="#666666" points="106.5,-664 106.5,-664 254.5,-664 254.5,-664 106.5,-664"/>
<polygon fill="none" stroke="#666666" points="106.5,-527.5 106.5,-696.5 254.5,-696.5 254.5,-527.5 106.5,-527.5"/>
</a>
</g>
</g>
<!-- Node7&#45;&gt;Node9 -->
<g id="edge17_Node000009_Node000007" class="edge">
<title>Node7&#45;&gt;Node9</title>
<g id="a_edge17_Node000009_Node000007"><a xlink:title=" ">
<path fill="none" stroke="#63b8ff" d="M297.93,-916.79C297.14,-885.31 290.83,-830.08 258.5,-799 233.17,-774.64 203.42,-808.47 181.5,-781 165.4,-760.83 160.31,-734.53 160.54,-708.75"/>
<polygon fill="none" stroke="#63b8ff" points="160.55,-708.56 156.8,-702.4 161.03,-696.57 164.79,-702.72 160.55,-708.56"/>
</a>
</g>
<text text-anchor="middle" x="242" y="-756.5" font-family="Helvetica,sans-Serif" font-size="10.00" fill="grey"> #mUseAnalyticJacobian</text>
</g>
<!-- Node8 -->
<g id="Node000008" class="node">
<title>Node8</title>
<g id="a_Node000008"><a xlink:href="classdouble.html" target="_top" xlink:title=" ">
<polygon fill="white" stroke="transparent" points="892.5,-966 848.5,-966 848.5,-917 892.5,-917 892.5,-966"/>
<text text-anchor="start" x="853.5" y="-953.5" font-family="Helvetica,sans-Serif" font-size="10.00">double</text>
<text text-anchor="start" x="868.5" y="-938.5" font-family="Helvetica,sans-Serif" font-size="10.00"> </text>
<text text-anchor="start" x="868.5" y="-923.5" font-family="Helvetica,sans-Serif" font-size="10.00"> </text>
<polygon fill="#bfbfbf" stroke="#bfbfbf" points="848.5,-948.5 848.5,-948.5 892.5,-948.5 892.5,-948.5 848.5,-948.5"/>
<polygon fill="#bfbfbf" stroke="#bfbfbf" points="848.5,-933.5 848.5,-933.5 892.5,-933.5 892.5,-933.5 848.5,-933.5"/>
<polygon fill="none" stroke="#bfbfbf" points="848.5,-917 848.5,-966 892.5,-966 892.5,-917 848.5,-917"/>
</a>
</g>
</g>
<!-- Node8&#45;&gt;Node2 -->
<g id="edge18_Node000002_Node000008" class="edge">
<title>Node8&#45;&gt;Node2</title>
<g id="a_edge18_Node000002_Node000008"><a xlink:title=" ">
<path fill="none" stroke="#63b8ff" d="M873.36,-916.82C877.24,-878.37 881.95,-800.28 865.5,-737 840.77,-641.87 785.71,-545.9 737,-473.88"/>
<polygon fill="none" stroke="#63b8ff" points="736.93,-473.79 730.25,-471.09 730.17,-463.88 736.85,-466.58 736.93,-473.79"/>
</a>
</g>
<text text-anchor="middle" x="876" y="-609.5" font-family="Helvetica,sans-Serif" font-size="10.00" fill="grey"> #mDt</text>
</g>
<!-- Node8&#45;&gt;Node3 -->
<g id="edge7_Node000003_Node000008" class="edge">
<title>Node8&#45;&gt;Node3</title>
<g id="a_edge7_Node000003_Node000008"><a xlink:title=" ">
<path fill="none" stroke="#63b8ff" d="M870.58,-916.78C869.4,-885.79 862.74,-831.66 832.5,-799 816.17,-781.36 799.66,-796.74 781.5,-781 764.83,-766.55 771.11,-755.11 758.5,-737 753.6,-729.96 748.34,-722.9 742.86,-715.9"/>
<polygon fill="none" stroke="#63b8ff" points="742.78,-715.79 735.9,-713.6 735.28,-706.42 742.15,-708.61 742.78,-715.79"/>
</a>
</g>
<text text-anchor="middle" x="823.5" y="-756.5" font-family="Helvetica,sans-Serif" font-size="10.00" fill="grey"> #mFixedVoltage</text>
</g>
<!-- Node9&#45;&gt;Node2 -->
<g id="edge8_Node000002_Node000009" class="edge">
<title>Node9&#45;&gt;Node2</title>
<g id="a_edge8_Node000002_Node000009"><a xlink:title=" ">
<path fill="none" stroke="#63b8ff" d="M263.39,-565.38C347.85,-518.89 478.14,-447.17 562.87,-400.53"/>
<polygon fill="none" stroke="#63b8ff" points="261.67,-562.33 254.6,-570.22 265.04,-568.46 261.67,-562.33"/>
</a>
</g>
</g>
<!-- Node10 -->
<g id="Node000010" class="node">
<title>Node10</title>
<g id="a_Node000010"><a xlink:href="classAbstractParameterisedSystem.html" target="_top" xlink:title=" ">
<polygon fill="white" stroke="transparent" points="250,-1084 73,-1084 73,-799 250,-799 250,-1084"/>
<text text-anchor="start" x="88" y="-1071.5" font-family="Helvetica,sans-Serif" font-size="10.00">AbstractParameterisedSystem</text>
<text text-anchor="start" x="97" y="-1060.5" font-family="Helvetica,sans-Serif" font-size="10.00">&lt; std::vector&lt; double &gt; &gt;</text>
<text text-anchor="start" x="160" y="-1045.5" font-family="Helvetica,sans-Serif" font-size="10.00"> </text>
<text text-anchor="start" x="77.5" y="-1030.5" font-family="Helvetica,sans-Serif" font-size="10.00">+</text>
<text text-anchor="start" x="90.5" y="-1030.5" font-family="Helvetica,sans-Serif" font-size="10.00">AbstractParameterisedSystem()</text>
<text text-anchor="start" x="77.5" y="-1015.5" font-family="Helvetica,sans-Serif" font-size="10.00">+</text>
<text text-anchor="start" x="90.5" y="-1015.5" font-family="Helvetica,sans-Serif" font-size="10.00">rGetStateVariables()</text>
<text text-anchor="start" x="77.5" y="-1000.5" font-family="Helvetica,sans-Serif" font-size="10.00">+</text>
<text text-anchor="start" x="90.5" y="-1000.5" font-family="Helvetica,sans-Serif" font-size="10.00">GetStateVariables()</text>
<text text-anchor="start" x="77.5" y="-985.5" font-family="Helvetica,sans-Serif" font-size="10.00">+</text>
<text text-anchor="start" x="90.5" y="-985.5" font-family="Helvetica,sans-Serif" font-size="10.00">SetStateVariables()</text>
<text text-anchor="start" x="77.5" y="-970.5" font-family="Helvetica,sans-Serif" font-size="10.00">+</text>
<text text-anchor="start" x="90.5" y="-970.5" font-family="Helvetica,sans-Serif" font-size="10.00">GetStateVariable()</text>
<text text-anchor="start" x="77.5" y="-955.5" font-family="Helvetica,sans-Serif" font-size="10.00">+</text>
<text text-anchor="start" x="90.5" y="-955.5" font-family="Helvetica,sans-Serif" font-size="10.00">GetStateVariable()</text>
<text text-anchor="start" x="77.5" y="-940.5" font-family="Helvetica,sans-Serif" font-size="10.00">+</text>
<text text-anchor="start" x="90.5" y="-940.5" font-family="Helvetica,sans-Serif" font-size="10.00">SetStateVariable()</text>
<text text-anchor="start" x="77.5" y="-925.5" font-family="Helvetica,sans-Serif" font-size="10.00">+</text>
<text text-anchor="start" x="90.5" y="-925.5" font-family="Helvetica,sans-Serif" font-size="10.00">SetStateVariable()</text>
<text text-anchor="start" x="77.5" y="-910.5" font-family="Helvetica,sans-Serif" font-size="10.00">+</text>
<text text-anchor="start" x="90.5" y="-910.5" font-family="Helvetica,sans-Serif" font-size="10.00">VerifyStateVariables()</text>
<text text-anchor="start" x="77.5" y="-895.5" font-family="Helvetica,sans-Serif" font-size="10.00">+</text>
<text text-anchor="start" x="90.5" y="-895.5" font-family="Helvetica,sans-Serif" font-size="10.00">SetDefaultInitialConditions()</text>
<text text-anchor="start" x="90.5" y="-880.5" font-family="Helvetica,sans-Serif" font-size="10.00">and 13 more...</text>
<text text-anchor="start" x="77.5" y="-865.5" font-family="Helvetica,sans-Serif" font-size="10.00">#</text>
<text text-anchor="start" x="90.5" y="-865.5" font-family="Helvetica,sans-Serif" font-size="10.00">DumpState()</text>
<text text-anchor="start" x="77.5" y="-850.5" font-family="Helvetica,sans-Serif" font-size="10.00">#</text>
<text text-anchor="start" x="90.5" y="-850.5" font-family="Helvetica,sans-Serif" font-size="10.00">DumpState()</text>
<text text-anchor="start" x="77.5" y="-835.5" font-family="Helvetica,sans-Serif" font-size="10.00">#</text>
<text text-anchor="start" x="90.5" y="-835.5" font-family="Helvetica,sans-Serif" font-size="10.00">DumpState()</text>
<text text-anchor="start" x="77.5" y="-820.5" font-family="Helvetica,sans-Serif" font-size="10.00">#</text>
<text text-anchor="start" x="90.5" y="-820.5" font-family="Helvetica,sans-Serif" font-size="10.00">CheckParametersOnLoad()</text>
<text text-anchor="start" x="80" y="-805.5" font-family="Helvetica,sans-Serif" font-size="10.00">&#45;</text>
<text text-anchor="start" x="90.5" y="-805.5" font-family="Helvetica,sans-Serif" font-size="10.00">GetStateMessage()</text>
<polygon fill="#666666" stroke="#666666" points="73.5,-1055.5 73.5,-1055.5 250.5,-1055.5 250.5,-1055.5 73.5,-1055.5"/>
<polygon fill="#666666" stroke="#666666" points="73.5,-1040.5 73.5,-1040.5 250.5,-1040.5 250.5,-1040.5 73.5,-1040.5"/>
<polygon fill="none" stroke="#666666" points="73,-799 73,-1084 250,-1084 250,-799 73,-799"/>
</a>
</g>
</g>
<!-- Node10&#45;&gt;Node9 -->
<g id="edge9_Node000009_Node000010" class="edge">
<title>Node10&#45;&gt;Node9</title>
<g id="a_edge9_Node000009_Node000010"><a xlink:title=" ">
<path fill="none" stroke="#63b8ff" d="M158.97,-788.65C159.43,-771.22 160.23,-753.71 161.5,-737 162.5,-723.86 164.09,-710.01 165.93,-696.51"/>
<polygon fill="none" stroke="#63b8ff" points="155.46,-788.82 158.73,-798.9 162.46,-788.98 155.46,-788.82"/>
</a>
</g>
</g>
<!-- Node11&#45;&gt;Node10 -->
<g id="edge10_Node000010_Node000011" class="edge">
<title>Node11&#45;&gt;Node10</title>
<g id="a_edge10_Node000010_Node000011"><a xlink:title=" ">
<path fill="none" stroke="#63b8ff" d="M243.35,-1474.54C246.99,-1373.07 246.06,-1227.03 221.5,-1102 220.36,-1096.19 219.03,-1090.32 217.55,-1084.43"/>
<polygon fill="none" stroke="#63b8ff" points="239.84,-1474.71 242.96,-1484.83 246.84,-1474.97 239.84,-1474.71"/>
</a>
</g>
</g>
<!-- Node14 -->
<g id="Node000014" class="node">
<title>Node14</title>
<g id="a_Node000014"><a xlink:href="classAbstractParameterisedSystem.html" target="_top" xlink:title=" ">
<polygon fill="white" stroke="transparent" points="177,-1427 0,-1427 0,-1142 177,-1142 177,-1427"/>
<text text-anchor="start" x="15" y="-1414.5" font-family="Helvetica,sans-Serif" font-size="10.00">AbstractParameterisedSystem</text>
<text text-anchor="start" x="57.5" y="-1403.5" font-family="Helvetica,sans-Serif" font-size="10.00">&lt; VECTOR &gt;</text>
<text text-anchor="start" x="87" y="-1388.5" font-family="Helvetica,sans-Serif" font-size="10.00"> </text>
<text text-anchor="start" x="4.5" y="-1373.5" font-family="Helvetica,sans-Serif" font-size="10.00">+</text>
<text text-anchor="start" x="17.5" y="-1373.5" font-family="Helvetica,sans-Serif" font-size="10.00">AbstractParameterisedSystem()</text>
<text text-anchor="start" x="4.5" y="-1358.5" font-family="Helvetica,sans-Serif" font-size="10.00">+</text>
<text text-anchor="start" x="17.5" y="-1358.5" font-family="Helvetica,sans-Serif" font-size="10.00">rGetStateVariables()</text>
<text text-anchor="start" x="4.5" y="-1343.5" font-family="Helvetica,sans-Serif" font-size="10.00">+</text>
<text text-anchor="start" x="17.5" y="-1343.5" font-family="Helvetica,sans-Serif" font-size="10.00">GetStateVariables()</text>
<text text-anchor="start" x="4.5" y="-1328.5" font-family="Helvetica,sans-Serif" font-size="10.00">+</text>
<text text-anchor="start" x="17.5" y="-1328.5" font-family="Helvetica,sans-Serif" font-size="10.00">SetStateVariables()</text>
<text text-anchor="start" x="4.5" y="-1313.5" font-family="Helvetica,sans-Serif" font-size="10.00">+</text>
<text text-anchor="start" x="17.5" y="-1313.5" font-family="Helvetica,sans-Serif" font-size="10.00">GetStateVariable()</text>
<text text-anchor="start" x="4.5" y="-1298.5" font-family="Helvetica,sans-Serif" font-size="10.00">+</text>
<text text-anchor="start" x="17.5" y="-1298.5" font-family="Helvetica,sans-Serif" font-size="10.00">GetStateVariable()</text>
<text text-anchor="start" x="4.5" y="-1283.5" font-family="Helvetica,sans-Serif" font-size="10.00">+</text>
<text text-anchor="start" x="17.5" y="-1283.5" font-family="Helvetica,sans-Serif" font-size="10.00">SetStateVariable()</text>
<text text-anchor="start" x="4.5" y="-1268.5" font-family="Helvetica,sans-Serif" font-size="10.00">+</text>
<text text-anchor="start" x="17.5" y="-1268.5" font-family="Helvetica,sans-Serif" font-size="10.00">SetStateVariable()</text>
<text text-anchor="start" x="4.5" y="-1253.5" font-family="Helvetica,sans-Serif" font-size="10.00">+</text>
<text text-anchor="start" x="17.5" y="-1253.5" font-family="Helvetica,sans-Serif" font-size="10.00">VerifyStateVariables()</text>
<text text-anchor="start" x="4.5" y="-1238.5" font-family="Helvetica,sans-Serif" font-size="10.00">+</text>
<text text-anchor="start" x="17.5" y="-1238.5" font-family="Helvetica,sans-Serif" font-size="10.00">SetDefaultInitialConditions()</text>
<text text-anchor="start" x="17.5" y="-1223.5" font-family="Helvetica,sans-Serif" font-size="10.00">and 13 more...</text>
<text text-anchor="start" x="4.5" y="-1208.5" font-family="Helvetica,sans-Serif" font-size="10.00">#</text>
<text text-anchor="start" x="17.5" y="-1208.5" font-family="Helvetica,sans-Serif" font-size="10.00">DumpState()</text>
<text text-anchor="start" x="4.5" y="-1193.5" font-family="Helvetica,sans-Serif" font-size="10.00">#</text>
<text text-anchor="start" x="17.5" y="-1193.5" font-family="Helvetica,sans-Serif" font-size="10.00">DumpState()</text>
<text text-anchor="start" x="4.5" y="-1178.5" font-family="Helvetica,sans-Serif" font-size="10.00">#</text>
<text text-anchor="start" x="17.5" y="-1178.5" font-family="Helvetica,sans-Serif" font-size="10.00">DumpState()</text>
<text text-anchor="start" x="4.5" y="-1163.5" font-family="Helvetica,sans-Serif" font-size="10.00">#</text>
<text text-anchor="start" x="17.5" y="-1163.5" font-family="Helvetica,sans-Serif" font-size="10.00">CheckParametersOnLoad()</text>
<text text-anchor="start" x="7" y="-1148.5" font-family="Helvetica,sans-Serif" font-size="10.00">&#45;</text>
<text text-anchor="start" x="17.5" y="-1148.5" font-family="Helvetica,sans-Serif" font-size="10.00">GetStateMessage()</text>
<polygon fill="#666666" stroke="#666666" points="0.5,-1398.5 0.5,-1398.5 177.5,-1398.5 177.5,-1398.5 0.5,-1398.5"/>
<polygon fill="#666666" stroke="#666666" points="0.5,-1383.5 0.5,-1383.5 177.5,-1383.5 177.5,-1383.5 0.5,-1383.5"/>
<polygon fill="none" stroke="#666666" points="0,-1142 0,-1427 177,-1427 177,-1142 0,-1142"/>
</a>
</g>
</g>
<!-- Node11&#45;&gt;Node14 -->
<g id="edge15_Node000014_Node000011" class="edge">
<title>Node11&#45;&gt;Node14</title>
<g id="a_edge15_Node000014_Node000011"><a xlink:title=" ">
<path fill="none" stroke="#63b8ff" d="M194.41,-1475.23C190.29,-1464.9 185.97,-1454.71 181.5,-1445 178.82,-1439.18 175.99,-1433.29 173.05,-1427.39"/>
<polygon fill="none" stroke="#63b8ff" points="191.23,-1476.7 198.13,-1484.74 197.75,-1474.15 191.23,-1476.7"/>
</a>
</g>
</g>
<!-- Node12 -->
<g id="Node000012" class="node">
<title>Node12</title>
<g id="a_Node000012"><a xlink:title=" ">
<polygon fill="white" stroke="transparent" points="320.5,-1824 150.5,-1824 150.5,-1764 320.5,-1764 320.5,-1824"/>
<text text-anchor="start" x="155.5" y="-1812" font-family="Helvetica,sans-Serif" font-size="10.00">shared_ptr&lt; AbstractOdeSystem</text>
<text text-anchor="start" x="201" y="-1801" font-family="Helvetica,sans-Serif" font-size="10.00">Information &gt;</text>
<text text-anchor="start" x="233.5" y="-1786" font-family="Helvetica,sans-Serif" font-size="10.00"> </text>
<text text-anchor="start" x="233.5" y="-1771" font-family="Helvetica,sans-Serif" font-size="10.00"> </text>
<polygon fill="#bfbfbf" stroke="#bfbfbf" points="150.5,-1796 150.5,-1796 320.5,-1796 320.5,-1796 150.5,-1796"/>
<polygon fill="#bfbfbf" stroke="#bfbfbf" points="150.5,-1781 150.5,-1781 320.5,-1781 320.5,-1781 150.5,-1781"/>
<polygon fill="none" stroke="#bfbfbf" points="150.5,-1764 150.5,-1824 320.5,-1824 320.5,-1764 150.5,-1764"/>
</a>
</g>
</g>
<!-- Node12&#45;&gt;Node11 -->
<g id="edge12_Node000011_Node000012" class="edge">
<title>Node12&#45;&gt;Node11</title>
<g id="a_edge12_Node000011_Node000012"><a xlink:title=" ">
<path fill="none" stroke="#63b8ff" d="M235.5,-1763.99C235.5,-1754.11 235.5,-1742.33 235.5,-1729.71"/>
<polygon fill="none" stroke="#63b8ff" points="235.5,-1729.38 231.5,-1723.38 235.5,-1717.38 239.5,-1723.38 235.5,-1729.38"/>
</a>
</g>
<text text-anchor="middle" x="277" y="-1738" font-family="Helvetica,sans-Serif" font-size="10.00" fill="grey"> #mpSystemInfo</text>
</g>
<!-- Node13 -->
<g id="Node000013" class="node">
<title>Node13</title>
<g id="a_Node000013"><a xlink:title=" ">
<polygon fill="white" stroke="transparent" points="361,-1309 264,-1309 264,-1260 361,-1260 361,-1309"/>
<text text-anchor="start" x="269.5" y="-1296.5" font-family="Helvetica,sans-Serif" font-size="10.00">vector&lt; double &gt;</text>
<text text-anchor="start" x="311" y="-1281.5" font-family="Helvetica,sans-Serif" font-size="10.00"> </text>
<text text-anchor="start" x="311" y="-1266.5" font-family="Helvetica,sans-Serif" font-size="10.00"> </text>
<polygon fill="#bfbfbf" stroke="#bfbfbf" points="264.5,-1291.5 264.5,-1291.5 361.5,-1291.5 361.5,-1291.5 264.5,-1291.5"/>
<polygon fill="#bfbfbf" stroke="#bfbfbf" points="264.5,-1276.5 264.5,-1276.5 361.5,-1276.5 361.5,-1276.5 264.5,-1276.5"/>
<polygon fill="none" stroke="#bfbfbf" points="264,-1260 264,-1309 361,-1309 361,-1260 264,-1260"/>
</a>
</g>
</g>
<!-- Node13&#45;&gt;Node10 -->
<g id="edge13_Node000010_Node000013" class="edge">
<title>Node13&#45;&gt;Node10</title>
<g id="a_edge13_Node000010_Node000013"><a xlink:title=" ">
<path fill="none" stroke="#63b8ff" d="M305.69,-1259.8C295.27,-1224.67 274,-1156.99 249.5,-1102 248.47,-1099.69 247.42,-1097.36 246.35,-1095.03"/>
<polygon fill="none" stroke="#63b8ff" points="246.3,-1094.92 240.13,-1091.19 241.2,-1084.06 247.37,-1087.79 246.3,-1094.92"/>
</a>
</g>
<text text-anchor="middle" x="303" y="-1116" font-family="Helvetica,sans-Serif" font-size="10.00" fill="grey"> #mParameters</text>
<text text-anchor="middle" x="303" y="-1105" font-family="Helvetica,sans-Serif" font-size="10.00" fill="grey">#mStateVariables</text>
</g>
<!-- Node14&#45;&gt;Node10 -->
<g id="edge14_Node000010_Node000014" class="edge">
<title>Node14&#45;&gt;Node10</title>
<g id="a_edge14_Node000010_Node000014"><a xlink:title=" ">
<path fill="none" stroke="orange" d="M83.66,-1131.58C84.83,-1121.52 86.41,-1111.58 88.5,-1102 89.8,-1096.05 91.34,-1090.05 93.07,-1084.06"/>
<polygon fill="orange" stroke="orange" points="80.17,-1131.37 82.63,-1141.67 87.13,-1132.08 80.17,-1131.37"/>
</a>
</g>
<text text-anchor="middle" x="155" y="-1110.5" font-family="Helvetica,sans-Serif" font-size="10.00" fill="grey"> &lt; std::vector&lt; double &gt; &gt;</text>
</g>
<!-- Node15 -->
<g id="Node000015" class="node">
<title>Node15</title>
<g id="a_Node000015"><a xlink:title=" ">
<polygon fill="white" stroke="transparent" points="113.5,-1625.5 63.5,-1625.5 63.5,-1576.5 113.5,-1576.5 113.5,-1625.5"/>
<text text-anchor="start" x="68.5" y="-1613" font-family="Helvetica,sans-Serif" font-size="10.00">VECTOR</text>
<text text-anchor="start" x="86.5" y="-1598" font-family="Helvetica,sans-Serif" font-size="10.00"> </text>
<text text-anchor="start" x="86.5" y="-1583" font-family="Helvetica,sans-Serif" font-size="10.00"> </text>
<polygon fill="#bfbfbf" stroke="#bfbfbf" points="63.5,-1608 63.5,-1608 113.5,-1608 113.5,-1608 63.5,-1608"/>
<polygon fill="#bfbfbf" stroke="#bfbfbf" points="63.5,-1593 63.5,-1593 113.5,-1593 113.5,-1593 63.5,-1593"/>
<polygon fill="none" stroke="#bfbfbf" points="63.5,-1576.5 63.5,-1625.5 113.5,-1625.5 113.5,-1576.5 63.5,-1576.5"/>
</a>
</g>
</g>
<!-- Node15&#45;&gt;Node14 -->
<g id="edge16_Node000014_Node000015" class="edge">
<title>Node15&#45;&gt;Node14</title>
<g id="a_edge16_Node000014_Node000015"><a xlink:title=" ">
<path fill="none" stroke="#63b8ff" d="M88.5,-1576.36C88.5,-1546.55 88.5,-1492.7 88.5,-1439.38"/>
<polygon fill="none" stroke="#63b8ff" points="88.5,-1439.3 84.5,-1433.3 88.5,-1427.3 92.5,-1433.3 88.5,-1439.3"/>
</a>
</g>
<text text-anchor="middle" x="133" y="-1459" font-family="Helvetica,sans-Serif" font-size="10.00" fill="grey"> #mParameters</text>
<text text-anchor="middle" x="133" y="-1448" font-family="Helvetica,sans-Serif" font-size="10.00" fill="grey">#mStateVariables</text>
</g>
</g>
</svg>
