<?xml version="1.0" encoding="UTF-8" standalone="no"?>
<!DOCTYPE svg PUBLIC "-//W3C//DTD SVG 1.1//EN"
 "http://www.w3.org/Graphics/SVG/1.1/DTD/svg11.dtd">
<!-- Generated by graphviz version 2.43.0 (0)
 -->
<!-- Title: AbstractLookupTableCollection::EventHandler Pages: 1 -->
<svg width="522pt" height="1049pt"
 viewBox="0.00 0.00 522.09 1049.00" xmlns="http://www.w3.org/2000/svg" xmlns:xlink="http://www.w3.org/1999/xlink">
<g id="graph0" class="graph" transform="scale(1 1) rotate(0) translate(4 1045)">
<title>AbstractLookupTableCollection::EventHandler</title>
<!-- Node1 -->
<g id="Node000001" class="node">
<title>Node1</title>
<g id="a_Node000001"><a xlink:title=" ">
<polygon fill="#999999" stroke="transparent" points="432.09,-60 272.09,-60 272.09,0 432.09,0 432.09,-60"/>
<text text-anchor="start" x="277.09" y="-48" font-family="Helvetica,sans-Serif" font-size="10.00">AbstractLookupTableCollection</text>
<text text-anchor="start" x="315.59" y="-37" font-family="Helvetica,sans-Serif" font-size="10.00">::EventHandler</text>
<text text-anchor="start" x="350.09" y="-22" font-family="Helvetica,sans-Serif" font-size="10.00"> </text>
<text text-anchor="start" x="350.09" y="-7" font-family="Helvetica,sans-Serif" font-size="10.00"> </text>
<polygon fill="#666666" stroke="#666666" points="272.09,-32 272.09,-32 432.09,-32 432.09,-32 272.09,-32"/>
<polygon fill="#666666" stroke="#666666" points="272.09,-17 272.09,-17 432.09,-17 432.09,-17 272.09,-17"/>
<polygon fill="none" stroke="#666666" points="272.09,0 272.09,-60 432.09,-60 432.09,0 272.09,0"/>
</a>
</g>
</g>
<!-- Node2 -->
<g id="Node000002" class="node">
<title>Node2</title>
<g id="a_Node000002"><a xlink:href="classGenericEventHandler.html" target="_top" xlink:title=" ">
<polygon fill="white" stroke="transparent" points="364.09,-497 180.09,-497 180.09,-107 364.09,-107 364.09,-497"/>
<text text-anchor="start" x="220.09" y="-485" font-family="Helvetica,sans-Serif" font-size="10.00">GenericEventHandler</text>
<text text-anchor="start" x="221.59" y="-474" font-family="Helvetica,sans-Serif" font-size="10.00">&lt; 1, EventHandler &gt;</text>
<text text-anchor="start" x="270.09" y="-459" font-family="Helvetica,sans-Serif" font-size="10.00"> </text>
<text text-anchor="start" x="184.09" y="-444" font-family="Helvetica,sans-Serif" font-size="10.00">+</text>
<text text-anchor="start" x="197.09" y="-444" font-family="Helvetica,sans-Serif" font-size="10.00">Instance()</text>
<text text-anchor="start" x="184.09" y="-429" font-family="Helvetica,sans-Serif" font-size="10.00">+</text>
<text text-anchor="start" x="197.09" y="-429" font-family="Helvetica,sans-Serif" font-size="10.00">Reset()</text>
<text text-anchor="start" x="184.09" y="-414" font-family="Helvetica,sans-Serif" font-size="10.00">+</text>
<text text-anchor="start" x="197.09" y="-414" font-family="Helvetica,sans-Serif" font-size="10.00">BeginEvent()</text>
<text text-anchor="start" x="184.09" y="-399" font-family="Helvetica,sans-Serif" font-size="10.00">+</text>
<text text-anchor="start" x="197.09" y="-399" font-family="Helvetica,sans-Serif" font-size="10.00">EndEvent()</text>
<text text-anchor="start" x="184.09" y="-384" font-family="Helvetica,sans-Serif" font-size="10.00">+</text>
<text text-anchor="start" x="197.09" y="-384" font-family="Helvetica,sans-Serif" font-size="10.00">GetElapsedTime()</text>
<text text-anchor="start" x="184.09" y="-369" font-family="Helvetica,sans-Serif" font-size="10.00">+</text>
<text text-anchor="start" x="197.09" y="-369" font-family="Helvetica,sans-Serif" font-size="10.00">Report()</text>
<text text-anchor="start" x="184.09" y="-354" font-family="Helvetica,sans-Serif" font-size="10.00">+</text>
<text text-anchor="start" x="197.09" y="-354" font-family="Helvetica,sans-Serif" font-size="10.00">Headings()</text>
<text text-anchor="start" x="184.09" y="-339" font-family="Helvetica,sans-Serif" font-size="10.00">+</text>
<text text-anchor="start" x="197.09" y="-339" font-family="Helvetica,sans-Serif" font-size="10.00">Enable()</text>
<text text-anchor="start" x="184.09" y="-324" font-family="Helvetica,sans-Serif" font-size="10.00">+</text>
<text text-anchor="start" x="197.09" y="-324" font-family="Helvetica,sans-Serif" font-size="10.00">Disable()</text>
<text text-anchor="start" x="184.09" y="-309" font-family="Helvetica,sans-Serif" font-size="10.00">+</text>
<text text-anchor="start" x="197.09" y="-309" font-family="Helvetica,sans-Serif" font-size="10.00">IsEnabled()</text>
<text text-anchor="start" x="184.09" y="-294" font-family="Helvetica,sans-Serif" font-size="10.00">#</text>
<text text-anchor="start" x="197.09" y="-294" font-family="Helvetica,sans-Serif" font-size="10.00">GenericEventHandler()</text>
<text text-anchor="start" x="186.59" y="-279" font-family="Helvetica,sans-Serif" font-size="10.00">&#45;</text>
<text text-anchor="start" x="197.09" y="-279" font-family="Helvetica,sans-Serif" font-size="10.00">ConvertWallTimeToMilliseconds()</text>
<text text-anchor="start" x="186.59" y="-264" font-family="Helvetica,sans-Serif" font-size="10.00">&#45;</text>
<text text-anchor="start" x="197.09" y="-264" font-family="Helvetica,sans-Serif" font-size="10.00">ConvertWallTimeToSeconds()</text>
<text text-anchor="start" x="186.59" y="-249" font-family="Helvetica,sans-Serif" font-size="10.00">&#45;</text>
<text text-anchor="start" x="197.09" y="-249" font-family="Helvetica,sans-Serif" font-size="10.00">ResetImpl()</text>
<text text-anchor="start" x="186.59" y="-234" font-family="Helvetica,sans-Serif" font-size="10.00">&#45;</text>
<text text-anchor="start" x="197.09" y="-234" font-family="Helvetica,sans-Serif" font-size="10.00">BeginEventImpl()</text>
<text text-anchor="start" x="186.59" y="-219" font-family="Helvetica,sans-Serif" font-size="10.00">&#45;</text>
<text text-anchor="start" x="197.09" y="-219" font-family="Helvetica,sans-Serif" font-size="10.00">EndEventImpl()</text>
<text text-anchor="start" x="186.59" y="-204" font-family="Helvetica,sans-Serif" font-size="10.00">&#45;</text>
<text text-anchor="start" x="197.09" y="-204" font-family="Helvetica,sans-Serif" font-size="10.00">GetElapsedTimeImpl()</text>
<text text-anchor="start" x="186.59" y="-189" font-family="Helvetica,sans-Serif" font-size="10.00">&#45;</text>
<text text-anchor="start" x="197.09" y="-189" font-family="Helvetica,sans-Serif" font-size="10.00">ReportImpl()</text>
<text text-anchor="start" x="186.59" y="-174" font-family="Helvetica,sans-Serif" font-size="10.00">&#45;</text>
<text text-anchor="start" x="197.09" y="-174" font-family="Helvetica,sans-Serif" font-size="10.00">HeadingsImpl()</text>
<text text-anchor="start" x="186.59" y="-159" font-family="Helvetica,sans-Serif" font-size="10.00">&#45;</text>
<text text-anchor="start" x="197.09" y="-159" font-family="Helvetica,sans-Serif" font-size="10.00">EnableImpl()</text>
<text text-anchor="start" x="186.59" y="-144" font-family="Helvetica,sans-Serif" font-size="10.00">&#45;</text>
<text text-anchor="start" x="197.09" y="-144" font-family="Helvetica,sans-Serif" font-size="10.00">DisableImpl()</text>
<text text-anchor="start" x="186.59" y="-129" font-family="Helvetica,sans-Serif" font-size="10.00">&#45;</text>
<text text-anchor="start" x="197.09" y="-129" font-family="Helvetica,sans-Serif" font-size="10.00">IsEnabledImpl()</text>
<text text-anchor="start" x="186.59" y="-114" font-family="Helvetica,sans-Serif" font-size="10.00">&#45;</text>
<text text-anchor="start" x="197.09" y="-114" font-family="Helvetica,sans-Serif" font-size="10.00">MilliSleep()</text>
<polygon fill="#666666" stroke="#666666" points="180.09,-469 180.09,-469 364.09,-469 364.09,-469 180.09,-469"/>
<polygon fill="#666666" stroke="#666666" points="180.09,-454 180.09,-454 364.09,-454 364.09,-454 180.09,-454"/>
<polygon fill="none" stroke="#666666" points="180.09,-107 180.09,-497 364.09,-497 364.09,-107 180.09,-107"/>
</a>
</g>
</g>
<!-- Node2&#45;&gt;Node1 -->
<g id="edge1_Node000001_Node000002" class="edge">
<title>Node2&#45;&gt;Node1</title>
<g id="a_edge1_Node000001_Node000002"><a xlink:title=" ">
<path fill="none" stroke="#63b8ff" d="M332.5,-97.12C336.61,-83.24 340.33,-70.69 343.39,-60.35"/>
<polygon fill="none" stroke="#63b8ff" points="329.08,-96.35 329.59,-106.93 335.79,-98.33 329.08,-96.35"/>
</a>
</g>
</g>
<!-- Node3 -->
<g id="Node000003" class="node">
<title>Node3</title>
<g id="a_Node000003"><a xlink:title=" ">
<polygon fill="white" stroke="transparent" points="129.59,-1041 32.59,-1041 32.59,-992 129.59,-992 129.59,-1041"/>
<text text-anchor="start" x="38.09" y="-1028.5" font-family="Helvetica,sans-Serif" font-size="10.00">vector&lt; double &gt;</text>
<text text-anchor="start" x="79.59" y="-1013.5" font-family="Helvetica,sans-Serif" font-size="10.00"> </text>
<text text-anchor="start" x="79.59" y="-998.5" font-family="Helvetica,sans-Serif" font-size="10.00"> </text>
<polygon fill="#bfbfbf" stroke="#bfbfbf" points="33.09,-1023.5 33.09,-1023.5 130.09,-1023.5 130.09,-1023.5 33.09,-1023.5"/>
<polygon fill="#bfbfbf" stroke="#bfbfbf" points="33.09,-1008.5 33.09,-1008.5 130.09,-1008.5 130.09,-1008.5 33.09,-1008.5"/>
<polygon fill="none" stroke="#bfbfbf" points="32.59,-992 32.59,-1041 129.59,-1041 129.59,-992 32.59,-992"/>
</a>
</g>
</g>
<!-- Node3&#45;&gt;Node2 -->
<g id="edge2_Node000002_Node000003" class="edge">
<title>Node3&#45;&gt;Node2</title>
<g id="a_edge2_Node000002_Node000003"><a xlink:title=" ">
<path fill="none" stroke="#63b8ff" d="M65.37,-991.68C55.99,-976.01 44.99,-954.65 40.09,-934 0.06,-765.35 -24.72,-704.76 40.09,-544 66.76,-477.83 121.27,-419.66 170.74,-377.06"/>
<polygon fill="none" stroke="#63b8ff" points="170.76,-377.05 172.75,-370.12 179.92,-369.29 177.92,-376.22 170.76,-377.05"/>
</a>
</g>
<text text-anchor="middle" x="71.59" y="-736.5" font-family="Helvetica,sans-Serif" font-size="10.00" fill="grey"> &#45;mWallTime</text>
</g>
<!-- Node6 -->
<g id="Node000006" class="node">
<title>Node6</title>
<g id="a_Node000006"><a xlink:href="classGenericEventHandler.html" target="_top" xlink:title=" ">
<polygon fill="white" stroke="transparent" points="296.09,-934 112.09,-934 112.09,-544 296.09,-544 296.09,-934"/>
<text text-anchor="start" x="129.09" y="-922" font-family="Helvetica,sans-Serif" font-size="10.00">GenericEventHandler</text>
<text text-anchor="start" x="129.09" y="-911" font-family="Helvetica,sans-Serif" font-size="10.00">&lt; NUM_EVENTS, CONCRETE &gt;</text>
<text text-anchor="start" x="202.09" y="-896" font-family="Helvetica,sans-Serif" font-size="10.00"> </text>
<text text-anchor="start" x="116.09" y="-881" font-family="Helvetica,sans-Serif" font-size="10.00">+</text>
<text text-anchor="start" x="129.09" y="-881" font-family="Helvetica,sans-Serif" font-size="10.00">Instance()</text>
<text text-anchor="start" x="116.09" y="-866" font-family="Helvetica,sans-Serif" font-size="10.00">+</text>
<text text-anchor="start" x="129.09" y="-866" font-family="Helvetica,sans-Serif" font-size="10.00">Reset()</text>
<text text-anchor="start" x="116.09" y="-851" font-family="Helvetica,sans-Serif" font-size="10.00">+</text>
<text text-anchor="start" x="129.09" y="-851" font-family="Helvetica,sans-Serif" font-size="10.00">BeginEvent()</text>
<text text-anchor="start" x="116.09" y="-836" font-family="Helvetica,sans-Serif" font-size="10.00">+</text>
<text text-anchor="start" x="129.09" y="-836" font-family="Helvetica,sans-Serif" font-size="10.00">EndEvent()</text>
<text text-anchor="start" x="116.09" y="-821" font-family="Helvetica,sans-Serif" font-size="10.00">+</text>
<text text-anchor="start" x="129.09" y="-821" font-family="Helvetica,sans-Serif" font-size="10.00">GetElapsedTime()</text>
<text text-anchor="start" x="116.09" y="-806" font-family="Helvetica,sans-Serif" font-size="10.00">+</text>
<text text-anchor="start" x="129.09" y="-806" font-family="Helvetica,sans-Serif" font-size="10.00">Report()</text>
<text text-anchor="start" x="116.09" y="-791" font-family="Helvetica,sans-Serif" font-size="10.00">+</text>
<text text-anchor="start" x="129.09" y="-791" font-family="Helvetica,sans-Serif" font-size="10.00">Headings()</text>
<text text-anchor="start" x="116.09" y="-776" font-family="Helvetica,sans-Serif" font-size="10.00">+</text>
<text text-anchor="start" x="129.09" y="-776" font-family="Helvetica,sans-Serif" font-size="10.00">Enable()</text>
<text text-anchor="start" x="116.09" y="-761" font-family="Helvetica,sans-Serif" font-size="10.00">+</text>
<text text-anchor="start" x="129.09" y="-761" font-family="Helvetica,sans-Serif" font-size="10.00">Disable()</text>
<text text-anchor="start" x="116.09" y="-746" font-family="Helvetica,sans-Serif" font-size="10.00">+</text>
<text text-anchor="start" x="129.09" y="-746" font-family="Helvetica,sans-Serif" font-size="10.00">IsEnabled()</text>
<text text-anchor="start" x="116.09" y="-731" font-family="Helvetica,sans-Serif" font-size="10.00">#</text>
<text text-anchor="start" x="129.09" y="-731" font-family="Helvetica,sans-Serif" font-size="10.00">GenericEventHandler()</text>
<text text-anchor="start" x="118.59" y="-716" font-family="Helvetica,sans-Serif" font-size="10.00">&#45;</text>
<text text-anchor="start" x="129.09" y="-716" font-family="Helvetica,sans-Serif" font-size="10.00">ConvertWallTimeToMilliseconds()</text>
<text text-anchor="start" x="118.59" y="-701" font-family="Helvetica,sans-Serif" font-size="10.00">&#45;</text>
<text text-anchor="start" x="129.09" y="-701" font-family="Helvetica,sans-Serif" font-size="10.00">ConvertWallTimeToSeconds()</text>
<text text-anchor="start" x="118.59" y="-686" font-family="Helvetica,sans-Serif" font-size="10.00">&#45;</text>
<text text-anchor="start" x="129.09" y="-686" font-family="Helvetica,sans-Serif" font-size="10.00">ResetImpl()</text>
<text text-anchor="start" x="118.59" y="-671" font-family="Helvetica,sans-Serif" font-size="10.00">&#45;</text>
<text text-anchor="start" x="129.09" y="-671" font-family="Helvetica,sans-Serif" font-size="10.00">BeginEventImpl()</text>
<text text-anchor="start" x="118.59" y="-656" font-family="Helvetica,sans-Serif" font-size="10.00">&#45;</text>
<text text-anchor="start" x="129.09" y="-656" font-family="Helvetica,sans-Serif" font-size="10.00">EndEventImpl()</text>
<text text-anchor="start" x="118.59" y="-641" font-family="Helvetica,sans-Serif" font-size="10.00">&#45;</text>
<text text-anchor="start" x="129.09" y="-641" font-family="Helvetica,sans-Serif" font-size="10.00">GetElapsedTimeImpl()</text>
<text text-anchor="start" x="118.59" y="-626" font-family="Helvetica,sans-Serif" font-size="10.00">&#45;</text>
<text text-anchor="start" x="129.09" y="-626" font-family="Helvetica,sans-Serif" font-size="10.00">ReportImpl()</text>
<text text-anchor="start" x="118.59" y="-611" font-family="Helvetica,sans-Serif" font-size="10.00">&#45;</text>
<text text-anchor="start" x="129.09" y="-611" font-family="Helvetica,sans-Serif" font-size="10.00">HeadingsImpl()</text>
<text text-anchor="start" x="118.59" y="-596" font-family="Helvetica,sans-Serif" font-size="10.00">&#45;</text>
<text text-anchor="start" x="129.09" y="-596" font-family="Helvetica,sans-Serif" font-size="10.00">EnableImpl()</text>
<text text-anchor="start" x="118.59" y="-581" font-family="Helvetica,sans-Serif" font-size="10.00">&#45;</text>
<text text-anchor="start" x="129.09" y="-581" font-family="Helvetica,sans-Serif" font-size="10.00">DisableImpl()</text>
<text text-anchor="start" x="118.59" y="-566" font-family="Helvetica,sans-Serif" font-size="10.00">&#45;</text>
<text text-anchor="start" x="129.09" y="-566" font-family="Helvetica,sans-Serif" font-size="10.00">IsEnabledImpl()</text>
<text text-anchor="start" x="118.59" y="-551" font-family="Helvetica,sans-Serif" font-size="10.00">&#45;</text>
<text text-anchor="start" x="129.09" y="-551" font-family="Helvetica,sans-Serif" font-size="10.00">MilliSleep()</text>
<polygon fill="#666666" stroke="#666666" points="112.09,-906 112.09,-906 296.09,-906 296.09,-906 112.09,-906"/>
<polygon fill="#666666" stroke="#666666" points="112.09,-891 112.09,-891 296.09,-891 296.09,-891 112.09,-891"/>
<polygon fill="none" stroke="#666666" points="112.09,-544 112.09,-934 296.09,-934 296.09,-544 112.09,-544"/>
</a>
</g>
</g>
<!-- Node3&#45;&gt;Node6 -->
<g id="edge6_Node000006_Node000003" class="edge">
<title>Node3&#45;&gt;Node6</title>
<g id="a_edge6_Node000006_Node000003"><a xlink:title=" ">
<path fill="none" stroke="#63b8ff" d="M91.79,-991.53C97.21,-979.39 104.35,-963.39 112.42,-945.32"/>
<polygon fill="none" stroke="#63b8ff" points="112.52,-945.1 111.31,-938 117.41,-934.15 118.61,-941.26 112.52,-945.1"/>
</a>
</g>
<text text-anchor="middle" x="139.59" y="-960.5" font-family="Helvetica,sans-Serif" font-size="10.00" fill="grey"> &#45;mWallTime</text>
</g>
<!-- Node4 -->
<g id="Node000004" class="node">
<title>Node4</title>
<g id="a_Node000004"><a xlink:title=" ">
<polygon fill="white" stroke="transparent" points="448.59,-1041 363.59,-1041 363.59,-992 448.59,-992 448.59,-1041"/>
<text text-anchor="start" x="369.09" y="-1028.5" font-family="Helvetica,sans-Serif" font-size="10.00">vector&lt; bool &gt;</text>
<text text-anchor="start" x="404.59" y="-1013.5" font-family="Helvetica,sans-Serif" font-size="10.00"> </text>
<text text-anchor="start" x="404.59" y="-998.5" font-family="Helvetica,sans-Serif" font-size="10.00"> </text>
<polygon fill="#bfbfbf" stroke="#bfbfbf" points="364.09,-1023.5 364.09,-1023.5 449.09,-1023.5 449.09,-1023.5 364.09,-1023.5"/>
<polygon fill="#bfbfbf" stroke="#bfbfbf" points="364.09,-1008.5 364.09,-1008.5 449.09,-1008.5 449.09,-1008.5 364.09,-1008.5"/>
<polygon fill="none" stroke="#bfbfbf" points="363.59,-992 363.59,-1041 448.59,-1041 448.59,-992 363.59,-992"/>
</a>
</g>
</g>
<!-- Node4&#45;&gt;Node2 -->
<g id="edge3_Node000002_Node000004" class="edge">
<title>Node4&#45;&gt;Node2</title>
<g id="a_edge3_Node000002_Node000004"><a xlink:title=" ">
<path fill="none" stroke="#63b8ff" d="M415.59,-991.7C417.45,-985.99 419.13,-979.85 420.09,-974 421.67,-964.35 420.12,-961.78 420.09,-952 419.42,-770.66 484.33,-712.41 417.09,-544 406.48,-517.43 389.63,-520.35 373.09,-497 372.44,-496.08 371.79,-495.17 371.15,-494.24"/>
<polygon fill="none" stroke="#63b8ff" points="371.05,-494.1 364.37,-491.39 364.3,-484.18 370.98,-486.89 371.05,-494.1"/>
</a>
</g>
<text text-anchor="middle" x="480.59" y="-736.5" font-family="Helvetica,sans-Serif" font-size="10.00" fill="grey"> &#45;mHasBegun</text>
</g>
<!-- Node4&#45;&gt;Node6 -->
<g id="edge7_Node000006_Node000004" class="edge">
<title>Node4&#45;&gt;Node6</title>
<g id="a_edge7_Node000006_Node000004"><a xlink:title=" ">
<path fill="none" stroke="#63b8ff" d="M372.26,-991.72C352.51,-976.71 328.04,-956.04 310.09,-934 307.87,-931.28 305.68,-928.51 303.51,-925.69"/>
<polygon fill="none" stroke="#63b8ff" points="303.41,-925.55 296.62,-923.14 296.24,-915.94 303.03,-918.35 303.41,-925.55"/>
</a>
</g>
<text text-anchor="middle" x="382.59" y="-960.5" font-family="Helvetica,sans-Serif" font-size="10.00" fill="grey"> &#45;mHasBegun</text>
</g>
<!-- Node5 -->
<g id="Node000005" class="node">
<title>Node5</title>
<g id="a_Node000005"><a xlink:href="classbool.html" target="_top" xlink:title=" ">
<polygon fill="white" stroke="transparent" points="296.09,-1041 264.09,-1041 264.09,-992 296.09,-992 296.09,-1041"/>
<text text-anchor="start" x="269.09" y="-1028.5" font-family="Helvetica,sans-Serif" font-size="10.00">bool</text>
<text text-anchor="start" x="278.09" y="-1013.5" font-family="Helvetica,sans-Serif" font-size="10.00"> </text>
<text text-anchor="start" x="278.09" y="-998.5" font-family="Helvetica,sans-Serif" font-size="10.00"> </text>
<polygon fill="#bfbfbf" stroke="#bfbfbf" points="264.09,-1023.5 264.09,-1023.5 296.09,-1023.5 296.09,-1023.5 264.09,-1023.5"/>
<polygon fill="#bfbfbf" stroke="#bfbfbf" points="264.09,-1008.5 264.09,-1008.5 296.09,-1008.5 296.09,-1008.5 264.09,-1008.5"/>
<polygon fill="none" stroke="#bfbfbf" points="264.09,-992 264.09,-1041 296.09,-1041 296.09,-992 264.09,-992"/>
</a>
</g>
</g>
<!-- Node5&#45;&gt;Node2 -->
<g id="edge4_Node000002_Node000005" class="edge">
<title>Node5&#45;&gt;Node2</title>
<g id="a_edge4_Node000002_Node000005"><a xlink:title=" ">
<path fill="none" stroke="#63b8ff" d="M296.48,-1002.78C304.65,-995.38 313.7,-985.29 318.09,-974 391.99,-783.86 339.84,-717.84 318.09,-515 317.88,-513.06 317.66,-511.12 317.43,-509.17"/>
<polygon fill="none" stroke="#63b8ff" points="317.41,-509.01 312.7,-503.56 315.92,-497.11 320.63,-502.56 317.41,-509.01"/>
</a>
</g>
<text text-anchor="middle" x="385.09" y="-742" font-family="Helvetica,sans-Serif" font-size="10.00" fill="grey"> &#45;mEnabled</text>
<text text-anchor="middle" x="385.09" y="-731" font-family="Helvetica,sans-Serif" font-size="10.00" fill="grey">&#45;mInUse</text>
</g>
<!-- Node5&#45;&gt;Node6 -->
<g id="edge8_Node000006_Node000005" class="edge">
<title>Node5&#45;&gt;Node6</title>
<g id="a_edge8_Node000006_Node000005"><a xlink:title=" ">
<path fill="none" stroke="#63b8ff" d="M268.93,-991.63C266.49,-985.92 264.05,-979.8 262.09,-974 258.99,-964.84 255.98,-955.43 253.06,-945.88"/>
<polygon fill="none" stroke="#63b8ff" points="253,-945.67 247.45,-941.07 249.56,-934.18 255.11,-938.78 253,-945.67"/>
</a>
</g>
<text text-anchor="middle" x="290.09" y="-966" font-family="Helvetica,sans-Serif" font-size="10.00" fill="grey"> &#45;mEnabled</text>
<text text-anchor="middle" x="290.09" y="-955" font-family="Helvetica,sans-Serif" font-size="10.00" fill="grey">&#45;mInUse</text>
</g>
<!-- Node6&#45;&gt;Node2 -->
<g id="edge5_Node000002_Node000006" class="edge">
<title>Node6&#45;&gt;Node2</title>
<g id="a_edge5_Node000002_Node000006"><a xlink:title=" ">
<path fill="none" stroke="orange" d="M211.42,-533.75C212.23,-527.42 213.12,-521.16 214.09,-515 215.02,-509.06 216.06,-503.05 217.19,-497"/>
<polygon fill="orange" stroke="orange" points="207.94,-533.4 210.21,-543.75 214.89,-534.24 207.94,-533.4"/>
</a>
</g>
<text text-anchor="middle" x="266.09" y="-518" font-family="Helvetica,sans-Serif" font-size="10.00" fill="grey"> &lt; 1, EventHandler &gt;</text>
</g>
<!-- Node7 -->
<g id="Node000007" class="node">
<title>Node7</title>
<g id="a_Node000007"><a xlink:title=" ">
<polygon fill="white" stroke="transparent" points="481.59,-326.5 382.59,-326.5 382.59,-277.5 481.59,-277.5 481.59,-326.5"/>
<text text-anchor="start" x="388.09" y="-314" font-family="Helvetica,sans-Serif" font-size="10.00">static const char *</text>
<text text-anchor="start" x="430.59" y="-299" font-family="Helvetica,sans-Serif" font-size="10.00"> </text>
<text text-anchor="start" x="430.59" y="-284" font-family="Helvetica,sans-Serif" font-size="10.00"> </text>
<polygon fill="#bfbfbf" stroke="#bfbfbf" points="383.09,-309 383.09,-309 482.09,-309 482.09,-309 383.09,-309"/>
<polygon fill="#bfbfbf" stroke="#bfbfbf" points="383.09,-294 383.09,-294 482.09,-294 482.09,-294 383.09,-294"/>
<polygon fill="none" stroke="#bfbfbf" points="382.59,-277.5 382.59,-326.5 481.59,-326.5 481.59,-277.5 382.59,-277.5"/>
</a>
</g>
</g>
<!-- Node7&#45;&gt;Node1 -->
<g id="edge9_Node000001_Node000007" class="edge">
<title>Node7&#45;&gt;Node1</title>
<g id="a_edge9_Node000001_Node000007"><a xlink:title=" ">
<path fill="none" stroke="#63b8ff" d="M424.99,-277.04C411.31,-230.87 381.15,-129.1 364.23,-71.97"/>
<polygon fill="none" stroke="#63b8ff" points="364.13,-71.66 358.59,-67.04 360.73,-60.15 366.26,-64.77 364.13,-71.66"/>
</a>
</g>
<text text-anchor="middle" x="402.59" y="-81" font-family="Helvetica,sans-Serif" font-size="10.00" fill="grey"> +EventName</text>
</g>
</g>
</svg>
