<?xml version="1.0" encoding="UTF-8" standalone="no"?>
<!DOCTYPE svg PUBLIC "-//W3C//DTD SVG 1.1//EN"
 "http://www.w3.org/Graphics/SVG/1.1/DTD/svg11.dtd">
<!-- Generated by graphviz version 2.43.0 (0)
 -->
<!-- Title: StreeterFibreGenerator&lt; SPACE_DIM &gt; Pages: 1 -->
<svg width="714pt" height="804pt"
 viewBox="0.00 0.00 714.42 804.00" xmlns="http://www.w3.org/2000/svg" xmlns:xlink="http://www.w3.org/1999/xlink">
<g id="graph0" class="graph" transform="scale(1 1) rotate(0) translate(4 800)">
<title>StreeterFibreGenerator&lt; SPACE_DIM &gt;</title>
<!-- Node1 -->
<g id="Node000001" class="node">
<title>Node1</title>
<g id="a_Node000001"><a xlink:title=" ">
<polygon fill="#999999" stroke="transparent" points="442.92,-221 283.92,-221 283.92,0 442.92,0 442.92,-221"/>
<text text-anchor="start" x="307.92" y="-208.5" font-family="Helvetica,sans-Serif" font-size="10.00">StreeterFibreGenerator</text>
<text text-anchor="start" x="324.42" y="-197.5" font-family="Helvetica,sans-Serif" font-size="10.00">&lt; SPACE_DIM &gt;</text>
<text text-anchor="start" x="361.92" y="-182.5" font-family="Helvetica,sans-Serif" font-size="10.00"> </text>
<text text-anchor="start" x="288.42" y="-167.5" font-family="Helvetica,sans-Serif" font-size="10.00">+</text>
<text text-anchor="start" x="301.42" y="-167.5" font-family="Helvetica,sans-Serif" font-size="10.00">StreeterFibreGenerator()</text>
<text text-anchor="start" x="288.42" y="-152.5" font-family="Helvetica,sans-Serif" font-size="10.00">+</text>
<text text-anchor="start" x="301.42" y="-152.5" font-family="Helvetica,sans-Serif" font-size="10.00">~StreeterFibreGenerator()</text>
<text text-anchor="start" x="288.42" y="-137.5" font-family="Helvetica,sans-Serif" font-size="10.00">+</text>
<text text-anchor="start" x="301.42" y="-137.5" font-family="Helvetica,sans-Serif" font-size="10.00">SetSurfaceFiles()</text>
<text text-anchor="start" x="288.42" y="-122.5" font-family="Helvetica,sans-Serif" font-size="10.00">+</text>
<text text-anchor="start" x="301.42" y="-122.5" font-family="Helvetica,sans-Serif" font-size="10.00">SetApexToBase()</text>
<text text-anchor="start" x="288.42" y="-107.5" font-family="Helvetica,sans-Serif" font-size="10.00">+</text>
<text text-anchor="start" x="301.42" y="-107.5" font-family="Helvetica,sans-Serif" font-size="10.00">SetApexToBase()</text>
<text text-anchor="start" x="288.42" y="-92.5" font-family="Helvetica,sans-Serif" font-size="10.00">+</text>
<text text-anchor="start" x="301.42" y="-92.5" font-family="Helvetica,sans-Serif" font-size="10.00">SetLogInfo()</text>
<text text-anchor="start" x="288.42" y="-77.5" font-family="Helvetica,sans-Serif" font-size="10.00">#</text>
<text text-anchor="start" x="301.42" y="-77.5" font-family="Helvetica,sans-Serif" font-size="10.00">Visit()</text>
<text text-anchor="start" x="288.42" y="-62.5" font-family="Helvetica,sans-Serif" font-size="10.00">#</text>
<text text-anchor="start" x="301.42" y="-62.5" font-family="Helvetica,sans-Serif" font-size="10.00">WriteHeaderOnMaster()</text>
<text text-anchor="start" x="288.42" y="-47.5" font-family="Helvetica,sans-Serif" font-size="10.00">#</text>
<text text-anchor="start" x="301.42" y="-47.5" font-family="Helvetica,sans-Serif" font-size="10.00">PreWriteCalculations()</text>
<text text-anchor="start" x="290.92" y="-32.5" font-family="Helvetica,sans-Serif" font-size="10.00">&#45;</text>
<text text-anchor="start" x="301.42" y="-32.5" font-family="Helvetica,sans-Serif" font-size="10.00">GetAveragedThicknessLocal</text>
<text text-anchor="start" x="301.42" y="-21.5" font-family="Helvetica,sans-Serif" font-size="10.00">Node()</text>
<text text-anchor="start" x="290.92" y="-6.5" font-family="Helvetica,sans-Serif" font-size="10.00">&#45;</text>
<text text-anchor="start" x="301.42" y="-6.5" font-family="Helvetica,sans-Serif" font-size="10.00">GetFibreMaxAngle()</text>
<polygon fill="#666666" stroke="#666666" points="284.42,-192.5 284.42,-192.5 443.42,-192.5 443.42,-192.5 284.42,-192.5"/>
<polygon fill="#666666" stroke="#666666" points="284.42,-177.5 284.42,-177.5 443.42,-177.5 443.42,-177.5 284.42,-177.5"/>
<polygon fill="none" stroke="#666666" points="283.92,0 283.92,-221 442.92,-221 442.92,0 283.92,0"/>
</a>
</g>
</g>
<!-- Node2 -->
<g id="Node000002" class="node">
<title>Node2</title>
<g id="a_Node000002"><a xlink:href="classAbstractPerElementWriter.html" target="_top" xlink:title=" ">
<polygon fill="white" stroke="transparent" points="273.42,-455 109.42,-455 109.42,-279 273.42,-279 273.42,-455"/>
<text text-anchor="start" x="124.42" y="-443" font-family="Helvetica,sans-Serif" font-size="10.00">AbstractPerElementWriter</text>
<text text-anchor="start" x="124.42" y="-432" font-family="Helvetica,sans-Serif" font-size="10.00">&lt; SPACE_DIM, SPACE_DIM,</text>
<text text-anchor="start" x="124.42" y="-421" font-family="Helvetica,sans-Serif" font-size="10.00"> SPACE_DIM *SPACE_DIM &gt;</text>
<text text-anchor="start" x="189.42" y="-406" font-family="Helvetica,sans-Serif" font-size="10.00"> </text>
<text text-anchor="start" x="113.42" y="-391" font-family="Helvetica,sans-Serif" font-size="10.00">+</text>
<text text-anchor="start" x="126.42" y="-391" font-family="Helvetica,sans-Serif" font-size="10.00">AbstractPerElementWriter()</text>
<text text-anchor="start" x="113.42" y="-376" font-family="Helvetica,sans-Serif" font-size="10.00">+</text>
<text text-anchor="start" x="126.42" y="-376" font-family="Helvetica,sans-Serif" font-size="10.00">WriteData()</text>
<text text-anchor="start" x="113.42" y="-361" font-family="Helvetica,sans-Serif" font-size="10.00">+</text>
<text text-anchor="start" x="126.42" y="-361" font-family="Helvetica,sans-Serif" font-size="10.00">SetWriteFileAsBinary()</text>
<text text-anchor="start" x="113.42" y="-346" font-family="Helvetica,sans-Serif" font-size="10.00">+</text>
<text text-anchor="start" x="126.42" y="-346" font-family="Helvetica,sans-Serif" font-size="10.00">~AbstractPerElementWriter()</text>
<text text-anchor="start" x="113.42" y="-331" font-family="Helvetica,sans-Serif" font-size="10.00">#</text>
<text text-anchor="start" x="126.42" y="-331" font-family="Helvetica,sans-Serif" font-size="10.00">Visit()</text>
<text text-anchor="start" x="113.42" y="-316" font-family="Helvetica,sans-Serif" font-size="10.00">#</text>
<text text-anchor="start" x="126.42" y="-316" font-family="Helvetica,sans-Serif" font-size="10.00">WriteElementOnMaster()</text>
<text text-anchor="start" x="113.42" y="-301" font-family="Helvetica,sans-Serif" font-size="10.00">#</text>
<text text-anchor="start" x="126.42" y="-301" font-family="Helvetica,sans-Serif" font-size="10.00">WriteHeaderOnMaster()</text>
<text text-anchor="start" x="113.42" y="-286" font-family="Helvetica,sans-Serif" font-size="10.00">#</text>
<text text-anchor="start" x="126.42" y="-286" font-family="Helvetica,sans-Serif" font-size="10.00">PreWriteCalculations()</text>
<polygon fill="#666666" stroke="#666666" points="109.42,-416 109.42,-416 273.42,-416 273.42,-416 109.42,-416"/>
<polygon fill="#666666" stroke="#666666" points="109.42,-401 109.42,-401 273.42,-401 273.42,-401 109.42,-401"/>
<polygon fill="none" stroke="#666666" points="109.42,-279 109.42,-455 273.42,-455 273.42,-279 109.42,-279"/>
</a>
</g>
</g>
<!-- Node2&#45;&gt;Node1 -->
<g id="edge1_Node000001_Node000002" class="edge">
<title>Node2&#45;&gt;Node1</title>
<g id="a_edge1_Node000001_Node000002"><a xlink:title=" ">
<path fill="none" stroke="#63b8ff" d="M256.02,-270.43C266.89,-254.34 278.26,-237.52 289.35,-221.11"/>
<polygon fill="none" stroke="#63b8ff" points="253.08,-268.53 250.38,-278.77 258.88,-272.45 253.08,-268.53"/>
</a>
</g>
</g>
<!-- Node3 -->
<g id="Node000003" class="node">
<title>Node3</title>
<g id="a_Node000003"><a xlink:href="classbool.html" target="_top" xlink:title=" ">
<polygon fill="white" stroke="transparent" points="61.42,-790.5 29.42,-790.5 29.42,-741.5 61.42,-741.5 61.42,-790.5"/>
<text text-anchor="start" x="34.42" y="-778" font-family="Helvetica,sans-Serif" font-size="10.00">bool</text>
<text text-anchor="start" x="43.42" y="-763" font-family="Helvetica,sans-Serif" font-size="10.00"> </text>
<text text-anchor="start" x="43.42" y="-748" font-family="Helvetica,sans-Serif" font-size="10.00"> </text>
<polygon fill="#bfbfbf" stroke="#bfbfbf" points="29.42,-773 29.42,-773 61.42,-773 61.42,-773 29.42,-773"/>
<polygon fill="#bfbfbf" stroke="#bfbfbf" points="29.42,-758 29.42,-758 61.42,-758 61.42,-758 29.42,-758"/>
<polygon fill="none" stroke="#bfbfbf" points="29.42,-741.5 29.42,-790.5 61.42,-790.5 61.42,-741.5 29.42,-741.5"/>
</a>
</g>
</g>
<!-- Node3&#45;&gt;Node1 -->
<g id="edge13_Node000001_Node000003" class="edge">
<title>Node3&#45;&gt;Node1</title>
<g id="a_edge13_Node000001_Node000003"><a xlink:title=" ">
<path fill="none" stroke="#63b8ff" d="M36.74,-741.27C19.64,-691.18 -14.9,-571.21 7.42,-473 28.62,-379.76 36.99,-350.55 100.42,-279 148.23,-225.08 217.44,-181.94 272.86,-152.95"/>
<polygon fill="none" stroke="#63b8ff" points="273.08,-152.84 276.59,-146.54 283.75,-147.35 280.25,-153.65 273.08,-152.84"/>
</a>
</g>
<text text-anchor="middle" x="33.92" y="-481.5" font-family="Helvetica,sans-Serif" font-size="10.00" fill="grey"> &#45;mLogInfo</text>
</g>
<!-- Node3&#45;&gt;Node2 -->
<g id="edge2_Node000002_Node000003" class="edge">
<title>Node3&#45;&gt;Node2</title>
<g id="a_edge2_Node000002_Node000003"><a xlink:title=" ">
<path fill="none" stroke="#63b8ff" d="M40.92,-741.25C33.31,-695.13 21.72,-591.14 54.42,-513 65.02,-487.68 82.19,-464.13 100.85,-443.69"/>
<polygon fill="none" stroke="#63b8ff" points="100.98,-443.56 102.19,-436.45 109.21,-434.83 108.01,-441.94 100.98,-443.56"/>
</a>
</g>
<text text-anchor="middle" x="91.42" y="-598.5" font-family="Helvetica,sans-Serif" font-size="10.00" fill="grey"> &#45;mFileIsBinary</text>
</g>
<!-- Node6 -->
<g id="Node000006" class="node">
<title>Node6</title>
<g id="a_Node000006"><a xlink:href="classAbstractPerElementWriter.html" target="_top" xlink:title=" ">
<polygon fill="white" stroke="transparent" points="301.42,-689 137.42,-689 137.42,-513 301.42,-513 301.42,-689"/>
<text text-anchor="start" x="145.92" y="-677" font-family="Helvetica,sans-Serif" font-size="10.00">AbstractPerElementWriter</text>
<text text-anchor="start" x="145.92" y="-666" font-family="Helvetica,sans-Serif" font-size="10.00">&lt; ELEMENT_DIM, SPACE_DIM,</text>
<text text-anchor="start" x="185.92" y="-655" font-family="Helvetica,sans-Serif" font-size="10.00"> DATA_SIZE &gt;</text>
<text text-anchor="start" x="217.42" y="-640" font-family="Helvetica,sans-Serif" font-size="10.00"> </text>
<text text-anchor="start" x="141.42" y="-625" font-family="Helvetica,sans-Serif" font-size="10.00">+</text>
<text text-anchor="start" x="154.42" y="-625" font-family="Helvetica,sans-Serif" font-size="10.00">AbstractPerElementWriter()</text>
<text text-anchor="start" x="141.42" y="-610" font-family="Helvetica,sans-Serif" font-size="10.00">+</text>
<text text-anchor="start" x="154.42" y="-610" font-family="Helvetica,sans-Serif" font-size="10.00">WriteData()</text>
<text text-anchor="start" x="141.42" y="-595" font-family="Helvetica,sans-Serif" font-size="10.00">+</text>
<text text-anchor="start" x="154.42" y="-595" font-family="Helvetica,sans-Serif" font-size="10.00">SetWriteFileAsBinary()</text>
<text text-anchor="start" x="141.42" y="-580" font-family="Helvetica,sans-Serif" font-size="10.00">+</text>
<text text-anchor="start" x="154.42" y="-580" font-family="Helvetica,sans-Serif" font-size="10.00">~AbstractPerElementWriter()</text>
<text text-anchor="start" x="141.42" y="-565" font-family="Helvetica,sans-Serif" font-size="10.00">#</text>
<text text-anchor="start" x="154.42" y="-565" font-family="Helvetica,sans-Serif" font-size="10.00">Visit()</text>
<text text-anchor="start" x="141.42" y="-550" font-family="Helvetica,sans-Serif" font-size="10.00">#</text>
<text text-anchor="start" x="154.42" y="-550" font-family="Helvetica,sans-Serif" font-size="10.00">WriteElementOnMaster()</text>
<text text-anchor="start" x="141.42" y="-535" font-family="Helvetica,sans-Serif" font-size="10.00">#</text>
<text text-anchor="start" x="154.42" y="-535" font-family="Helvetica,sans-Serif" font-size="10.00">WriteHeaderOnMaster()</text>
<text text-anchor="start" x="141.42" y="-520" font-family="Helvetica,sans-Serif" font-size="10.00">#</text>
<text text-anchor="start" x="154.42" y="-520" font-family="Helvetica,sans-Serif" font-size="10.00">PreWriteCalculations()</text>
<polygon fill="#666666" stroke="#666666" points="137.42,-650 137.42,-650 301.42,-650 301.42,-650 137.42,-650"/>
<polygon fill="#666666" stroke="#666666" points="137.42,-635 137.42,-635 301.42,-635 301.42,-635 137.42,-635"/>
<polygon fill="none" stroke="#666666" points="137.42,-513 137.42,-689 301.42,-689 301.42,-513 137.42,-513"/>
</a>
</g>
</g>
<!-- Node3&#45;&gt;Node6 -->
<g id="edge6_Node000006_Node000003" class="edge">
<title>Node3&#45;&gt;Node6</title>
<g id="a_edge6_Node000006_Node000003"><a xlink:title=" ">
<path fill="none" stroke="#63b8ff" d="M61.48,-749.96C77.28,-735.16 102.73,-711.31 128.64,-687.05"/>
<polygon fill="none" stroke="#63b8ff" points="128.67,-687.02 130.31,-680 137.42,-678.82 135.78,-685.84 128.67,-687.02"/>
</a>
</g>
<text text-anchor="middle" x="144.42" y="-710" font-family="Helvetica,sans-Serif" font-size="10.00" fill="grey"> &#45;mFileIsBinary</text>
</g>
<!-- Node4 -->
<g id="Node000004" class="node">
<title>Node4</title>
<g id="a_Node000004"><a xlink:title=" ">
<polygon fill="white" stroke="transparent" points="530.92,-796 357.92,-796 357.92,-736 530.92,-736 530.92,-796"/>
<text text-anchor="start" x="363.42" y="-784" font-family="Helvetica,sans-Serif" font-size="10.00">AbstractTetrahedralMesh</text>
<text text-anchor="start" x="363.42" y="-773" font-family="Helvetica,sans-Serif" font-size="10.00">&lt; ELEMENT_DIM, SPACE_DIM &gt; *</text>
<text text-anchor="start" x="442.92" y="-758" font-family="Helvetica,sans-Serif" font-size="10.00"> </text>
<text text-anchor="start" x="442.92" y="-743" font-family="Helvetica,sans-Serif" font-size="10.00"> </text>
<polygon fill="#bfbfbf" stroke="#bfbfbf" points="358.42,-768 358.42,-768 531.42,-768 531.42,-768 358.42,-768"/>
<polygon fill="#bfbfbf" stroke="#bfbfbf" points="358.42,-753 358.42,-753 531.42,-753 531.42,-753 358.42,-753"/>
<polygon fill="none" stroke="#bfbfbf" points="357.92,-736 357.92,-796 530.92,-796 530.92,-736 357.92,-736"/>
</a>
</g>
</g>
<!-- Node4&#45;&gt;Node2 -->
<g id="edge3_Node000002_Node000004" class="edge">
<title>Node4&#45;&gt;Node2</title>
<g id="a_edge3_Node000002_Node000004"><a xlink:title=" ">
<path fill="none" stroke="#63b8ff" d="M450.88,-735.93C460.3,-685.66 472.02,-581.33 425.42,-513 402.35,-479.17 380.6,-487.82 342.42,-473 319.51,-464.11 309.04,-467.8 284.17,-455.29"/>
<polygon fill="none" stroke="#63b8ff" points="283.95,-455.17 276.76,-455.78 273.43,-449.38 280.62,-448.77 283.95,-455.17"/>
</a>
</g>
<text text-anchor="middle" x="486.42" y="-598.5" font-family="Helvetica,sans-Serif" font-size="10.00" fill="grey"> #mpMesh</text>
</g>
<!-- Node4&#45;&gt;Node6 -->
<g id="edge7_Node000006_Node000004" class="edge">
<title>Node4&#45;&gt;Node6</title>
<g id="a_edge7_Node000006_Node000004"><a xlink:title=" ">
<path fill="none" stroke="#63b8ff" d="M389.52,-735.93C366,-722.66 338.66,-706.1 315.42,-689 313.98,-687.94 312.53,-686.86 311.09,-685.76"/>
<polygon fill="none" stroke="#63b8ff" points="310.99,-685.69 303.8,-685.16 301.52,-678.32 308.71,-678.84 310.99,-685.69"/>
</a>
</g>
<text text-anchor="middle" x="384.42" y="-710" font-family="Helvetica,sans-Serif" font-size="10.00" fill="grey"> #mpMesh</text>
</g>
<!-- Node5 -->
<g id="Node000005" class="node">
<title>Node5</title>
<g id="a_Node000005"><a xlink:title=" ">
<polygon fill="white" stroke="transparent" points="313.42,-790.5 163.42,-790.5 163.42,-741.5 313.42,-741.5 313.42,-790.5"/>
<text text-anchor="start" x="168.42" y="-778" font-family="Helvetica,sans-Serif" font-size="10.00">shared_ptr&lt; std::ofstream &gt;</text>
<text text-anchor="start" x="236.42" y="-763" font-family="Helvetica,sans-Serif" font-size="10.00"> </text>
<text text-anchor="start" x="236.42" y="-748" font-family="Helvetica,sans-Serif" font-size="10.00"> </text>
<polygon fill="#bfbfbf" stroke="#bfbfbf" points="163.42,-773 163.42,-773 313.42,-773 313.42,-773 163.42,-773"/>
<polygon fill="#bfbfbf" stroke="#bfbfbf" points="163.42,-758 163.42,-758 313.42,-758 313.42,-758 163.42,-758"/>
<polygon fill="none" stroke="#bfbfbf" points="163.42,-741.5 163.42,-790.5 313.42,-790.5 313.42,-741.5 163.42,-741.5"/>
</a>
</g>
</g>
<!-- Node5&#45;&gt;Node2 -->
<g id="edge4_Node000002_Node000005" class="edge">
<title>Node5&#45;&gt;Node2</title>
<g id="a_edge4_Node000002_Node000005"><a xlink:title=" ">
<path fill="none" stroke="#63b8ff" d="M293.65,-741.47C302.7,-735.17 310.91,-727.41 316.42,-718 343.96,-671 353.21,-518.6 323.42,-473 314.16,-458.81 302.95,-463.74 284.07,-454.81"/>
<polygon fill="none" stroke="#63b8ff" points="283.86,-454.7 276.66,-455.17 273.46,-448.71 280.66,-448.24 283.86,-454.7"/>
</a>
</g>
<text text-anchor="middle" x="381.92" y="-598.5" font-family="Helvetica,sans-Serif" font-size="10.00" fill="grey"> #mpMasterFile</text>
</g>
<!-- Node5&#45;&gt;Node6 -->
<g id="edge8_Node000006_Node000005" class="edge">
<title>Node5&#45;&gt;Node6</title>
<g id="a_edge8_Node000006_Node000005"><a xlink:title=" ">
<path fill="none" stroke="#63b8ff" d="M235.66,-741.3C234.37,-730.22 232.74,-716.21 231.01,-701.36"/>
<polygon fill="none" stroke="#63b8ff" points="230.99,-701.24 226.32,-695.74 229.6,-689.32 234.27,-694.82 230.99,-701.24"/>
</a>
</g>
<text text-anchor="middle" x="272.92" y="-710" font-family="Helvetica,sans-Serif" font-size="10.00" fill="grey"> #mpMasterFile</text>
</g>
<!-- Node6&#45;&gt;Node2 -->
<g id="edge5_Node000002_Node000006" class="edge">
<title>Node6&#45;&gt;Node2</title>
<g id="a_edge5_Node000002_Node000006"><a xlink:title=" ">
<path fill="none" stroke="orange" d="M163.84,-503.37C162.95,-500.58 162.14,-497.79 161.42,-495 158.12,-482.17 157.89,-468.57 159.5,-455.22"/>
<polygon fill="orange" stroke="orange" points="160.55,-504.55 167.16,-512.83 167.16,-502.24 160.55,-504.55"/>
</a>
</g>
<text text-anchor="start" x="161.42" y="-487" font-family="Helvetica,sans-Serif" font-size="10.00" fill="grey"> &lt; SPACE_DIM, SPACE</text>
<text text-anchor="middle" x="242.42" y="-476" font-family="Helvetica,sans-Serif" font-size="10.00" fill="grey">_DIM, SPACE_DIM *SPACE_DIM &gt;</text>
</g>
<!-- Node7 -->
<g id="Node000007" class="node">
<title>Node7</title>
<g id="a_Node000007"><a xlink:title=" ">
<polygon fill="white" stroke="transparent" points="434.92,-397 291.92,-397 291.92,-337 434.92,-337 434.92,-397"/>
<text text-anchor="start" x="297.42" y="-385" font-family="Helvetica,sans-Serif" font-size="10.00">HeartGeometryInformation</text>
<text text-anchor="start" x="320.42" y="-374" font-family="Helvetica,sans-Serif" font-size="10.00">&lt; SPACE_DIM &gt; *</text>
<text text-anchor="start" x="361.92" y="-359" font-family="Helvetica,sans-Serif" font-size="10.00"> </text>
<text text-anchor="start" x="361.92" y="-344" font-family="Helvetica,sans-Serif" font-size="10.00"> </text>
<polygon fill="#bfbfbf" stroke="#bfbfbf" points="292.42,-369 292.42,-369 435.42,-369 435.42,-369 292.42,-369"/>
<polygon fill="#bfbfbf" stroke="#bfbfbf" points="292.42,-354 292.42,-354 435.42,-354 435.42,-354 292.42,-354"/>
<polygon fill="none" stroke="#bfbfbf" points="291.92,-337 291.92,-397 434.92,-397 434.92,-337 291.92,-337"/>
</a>
</g>
</g>
<!-- Node7&#45;&gt;Node1 -->
<g id="edge9_Node000001_Node000007" class="edge">
<title>Node7&#45;&gt;Node1</title>
<g id="a_edge9_Node000001_Node000007"><a xlink:title=" ">
<path fill="none" stroke="#63b8ff" d="M363.42,-336.81C363.42,-311.18 363.42,-272.1 363.42,-233.64"/>
<polygon fill="none" stroke="#63b8ff" points="363.42,-233.19 359.42,-227.19 363.42,-221.19 367.42,-227.19 363.42,-233.19"/>
</a>
</g>
<text text-anchor="middle" x="408.92" y="-247.5" font-family="Helvetica,sans-Serif" font-size="10.00" fill="grey"> &#45;mpGeometryInfo</text>
</g>
<!-- Node8 -->
<g id="Node000008" class="node">
<title>Node8</title>
<g id="a_Node000008"><a xlink:title=" ">
<polygon fill="white" stroke="transparent" points="585.92,-397 452.92,-397 452.92,-337 585.92,-337 585.92,-397"/>
<text text-anchor="start" x="458.42" y="-385" font-family="Helvetica,sans-Serif" font-size="10.00">c_vector&lt; double, SPACE</text>
<text text-anchor="start" x="501.42" y="-374" font-family="Helvetica,sans-Serif" font-size="10.00">_DIM &gt;</text>
<text text-anchor="start" x="517.92" y="-359" font-family="Helvetica,sans-Serif" font-size="10.00"> </text>
<text text-anchor="start" x="517.92" y="-344" font-family="Helvetica,sans-Serif" font-size="10.00"> </text>
<polygon fill="#bfbfbf" stroke="#bfbfbf" points="453.42,-369 453.42,-369 586.42,-369 586.42,-369 453.42,-369"/>
<polygon fill="#bfbfbf" stroke="#bfbfbf" points="453.42,-354 453.42,-354 586.42,-354 586.42,-354 453.42,-354"/>
<polygon fill="none" stroke="#bfbfbf" points="452.92,-337 452.92,-397 585.92,-397 585.92,-337 452.92,-337"/>
</a>
</g>
</g>
<!-- Node8&#45;&gt;Node1 -->
<g id="edge10_Node000001_Node000008" class="edge">
<title>Node8&#45;&gt;Node1</title>
<g id="a_edge10_Node000001_Node000008"><a xlink:title=" ">
<path fill="none" stroke="#63b8ff" d="M507.38,-336.93C496.04,-310.64 477.92,-271.23 458.42,-239 455.66,-234.43 452.77,-229.81 449.78,-225.2"/>
<polygon fill="none" stroke="#63b8ff" points="449.73,-225.11 443.08,-222.3 443.12,-215.09 449.76,-217.9 449.73,-225.11"/>
</a>
</g>
<text text-anchor="middle" x="507.42" y="-247.5" font-family="Helvetica,sans-Serif" font-size="10.00" fill="grey"> &#45;mApexToBase</text>
</g>
<!-- Node9 -->
<g id="Node000009" class="node">
<title>Node9</title>
<g id="a_Node000009"><a xlink:title=" ">
<polygon fill="white" stroke="transparent" points="576.42,-625.5 524.42,-625.5 524.42,-576.5 576.42,-576.5 576.42,-625.5"/>
<text text-anchor="start" x="529.42" y="-613" font-family="Helvetica,sans-Serif" font-size="10.00">c_vector</text>
<text text-anchor="start" x="548.42" y="-598" font-family="Helvetica,sans-Serif" font-size="10.00"> </text>
<text text-anchor="start" x="548.42" y="-583" font-family="Helvetica,sans-Serif" font-size="10.00"> </text>
<polygon fill="#bfbfbf" stroke="#bfbfbf" points="524.42,-608 524.42,-608 576.42,-608 576.42,-608 524.42,-608"/>
<polygon fill="#bfbfbf" stroke="#bfbfbf" points="524.42,-593 524.42,-593 576.42,-593 576.42,-593 524.42,-593"/>
<polygon fill="none" stroke="#bfbfbf" points="524.42,-576.5 524.42,-625.5 576.42,-625.5 576.42,-576.5 524.42,-576.5"/>
</a>
</g>
</g>
<!-- Node9&#45;&gt;Node8 -->
<g id="edge11_Node000008_Node000009" class="edge">
<title>Node9&#45;&gt;Node8</title>
<g id="a_edge11_Node000008_Node000009"><a xlink:title=" ">
<path fill="none" stroke="orange" d="M545.95,-566.5C539.86,-520.92 529.06,-440.12 523.3,-397"/>
<polygon fill="orange" stroke="orange" points="542.49,-567.03 547.28,-576.48 549.43,-566.1 542.49,-567.03"/>
</a>
</g>
<text text-anchor="middle" x="595.92" y="-481.5" font-family="Helvetica,sans-Serif" font-size="10.00" fill="grey"> &lt; double, SPACE_DIM &gt;</text>
</g>
<!-- Node10 -->
<g id="Node000010" class="node">
<title>Node10</title>
<g id="a_Node000010"><a xlink:title=" ">
<polygon fill="white" stroke="transparent" points="700.92,-391.5 603.92,-391.5 603.92,-342.5 700.92,-342.5 700.92,-391.5"/>
<text text-anchor="start" x="609.42" y="-379" font-family="Helvetica,sans-Serif" font-size="10.00">vector&lt; double &gt;</text>
<text text-anchor="start" x="650.92" y="-364" font-family="Helvetica,sans-Serif" font-size="10.00"> </text>
<text text-anchor="start" x="650.92" y="-349" font-family="Helvetica,sans-Serif" font-size="10.00"> </text>
<polygon fill="#bfbfbf" stroke="#bfbfbf" points="604.42,-374 604.42,-374 701.42,-374 701.42,-374 604.42,-374"/>
<polygon fill="#bfbfbf" stroke="#bfbfbf" points="604.42,-359 604.42,-359 701.42,-359 701.42,-359 604.42,-359"/>
<polygon fill="none" stroke="#bfbfbf" points="603.92,-342.5 603.92,-391.5 700.92,-391.5 700.92,-342.5 603.92,-342.5"/>
</a>
</g>
</g>
<!-- Node10&#45;&gt;Node1 -->
<g id="edge12_Node000001_Node000010" class="edge">
<title>Node10&#45;&gt;Node1</title>
<g id="a_edge12_Node000001_Node000010"><a xlink:title=" ">
<path fill="none" stroke="#63b8ff" d="M639.28,-342.24C628.64,-324.02 612.64,-298.73 595.42,-279 555.19,-232.89 499.96,-192.38 453.48,-162.74"/>
<polygon fill="none" stroke="#63b8ff" points="453.25,-162.6 446.04,-162.79 443.09,-156.21 450.3,-156.02 453.25,-162.6"/>
</a>
</g>
<text text-anchor="middle" x="639.92" y="-253" font-family="Helvetica,sans-Serif" font-size="10.00" fill="grey"> &#45;mAveragedWallThickness</text>
<text text-anchor="middle" x="639.92" y="-242" font-family="Helvetica,sans-Serif" font-size="10.00" fill="grey">&#45;mWallThickness</text>
</g>
</g>
</svg>
