<?xml version="1.0" encoding="UTF-8" standalone="no"?>
<!DOCTYPE svg PUBLIC "-//W3C//DTD SVG 1.1//EN"
 "http://www.w3.org/Graphics/SVG/1.1/DTD/svg11.dtd">
<!-- Generated by graphviz version 2.43.0 (0)
 -->
<!-- Title: MultiStimulus Pages: 1 -->
<svg width="376pt" height="258pt"
 viewBox="0.00 0.00 376.00 258.00" xmlns="http://www.w3.org/2000/svg" xmlns:xlink="http://www.w3.org/1999/xlink">
<g id="graph0" class="graph" transform="scale(1 1) rotate(0) translate(4 254)">
<title>MultiStimulus</title>
<!-- Node1 -->
<g id="Node000001" class="node">
<title>Node1</title>
<g id="a_Node000001"><a xlink:title=" ">
<polygon fill="#999999" stroke="transparent" points="229.5,-109 124.5,-109 124.5,0 229.5,0 229.5,-109"/>
<text text-anchor="start" x="143.5" y="-96.5" font-family="Helvetica,sans-Serif" font-size="10.00">MultiStimulus</text>
<text text-anchor="start" x="175.5" y="-81.5" font-family="Helvetica,sans-Serif" font-size="10.00"> </text>
<text text-anchor="start" x="129" y="-66.5" font-family="Helvetica,sans-Serif" font-size="10.00">+</text>
<text text-anchor="start" x="142" y="-66.5" font-family="Helvetica,sans-Serif" font-size="10.00">~MultiStimulus()</text>
<text text-anchor="start" x="129" y="-51.5" font-family="Helvetica,sans-Serif" font-size="10.00">+</text>
<text text-anchor="start" x="142" y="-51.5" font-family="Helvetica,sans-Serif" font-size="10.00">AddStimulus()</text>
<text text-anchor="start" x="129" y="-36.5" font-family="Helvetica,sans-Serif" font-size="10.00">+</text>
<text text-anchor="start" x="142" y="-36.5" font-family="Helvetica,sans-Serif" font-size="10.00">GetStimulus()</text>
<text text-anchor="start" x="129" y="-21.5" font-family="Helvetica,sans-Serif" font-size="10.00">+</text>
<text text-anchor="start" x="142" y="-21.5" font-family="Helvetica,sans-Serif" font-size="10.00">Clear()</text>
<text text-anchor="start" x="131.5" y="-6.5" font-family="Helvetica,sans-Serif" font-size="10.00">&#45;</text>
<text text-anchor="start" x="142" y="-6.5" font-family="Helvetica,sans-Serif" font-size="10.00">serialize()</text>
<polygon fill="#666666" stroke="#666666" points="125,-91.5 125,-91.5 230,-91.5 230,-91.5 125,-91.5"/>
<polygon fill="#666666" stroke="#666666" points="125,-76.5 125,-76.5 230,-76.5 230,-76.5 125,-76.5"/>
<polygon fill="none" stroke="#666666" points="124.5,0 124.5,-109 229.5,-109 229.5,0 124.5,0"/>
</a>
</g>
</g>
<!-- Node2 -->
<g id="Node000002" class="node">
<title>Node2</title>
<g id="a_Node000002"><a xlink:href="classAbstractStimulusFunction.html" target="_top" xlink:title=" ">
<polygon fill="white" stroke="transparent" points="162,-250 0,-250 0,-156 162,-156 162,-250"/>
<text text-anchor="start" x="18.5" y="-238" font-family="Helvetica,sans-Serif" font-size="10.00">AbstractStimulusFunction</text>
<text text-anchor="start" x="79" y="-223" font-family="Helvetica,sans-Serif" font-size="10.00"> </text>
<text text-anchor="start" x="4" y="-208" font-family="Helvetica,sans-Serif" font-size="10.00">+</text>
<text text-anchor="start" x="17" y="-208" font-family="Helvetica,sans-Serif" font-size="10.00">GetStimulus()</text>
<text text-anchor="start" x="4" y="-193" font-family="Helvetica,sans-Serif" font-size="10.00">+</text>
<text text-anchor="start" x="17" y="-193" font-family="Helvetica,sans-Serif" font-size="10.00">~AbstractStimulusFunction()</text>
<text text-anchor="start" x="4" y="-178" font-family="Helvetica,sans-Serif" font-size="10.00">+</text>
<text text-anchor="start" x="17" y="-178" font-family="Helvetica,sans-Serif" font-size="10.00">Clear()</text>
<text text-anchor="start" x="6.5" y="-163" font-family="Helvetica,sans-Serif" font-size="10.00">&#45;</text>
<text text-anchor="start" x="17" y="-163" font-family="Helvetica,sans-Serif" font-size="10.00">serialize()</text>
<polygon fill="#666666" stroke="#666666" points="0,-233 0,-233 162,-233 162,-233 0,-233"/>
<polygon fill="#666666" stroke="#666666" points="0,-218 0,-218 162,-218 162,-218 0,-218"/>
<polygon fill="none" stroke="#666666" points="0,-156 0,-250 162,-250 162,-156 0,-156"/>
</a>
</g>
</g>
<!-- Node2&#45;&gt;Node1 -->
<g id="edge1_Node000001_Node000002" class="edge">
<title>Node2&#45;&gt;Node1</title>
<g id="a_edge1_Node000001_Node000002"><a xlink:title=" ">
<path fill="none" stroke="#63b8ff" d="M116.92,-147.19C125.06,-134.77 133.69,-121.59 141.8,-109.22"/>
<polygon fill="none" stroke="#63b8ff" points="113.93,-145.36 111.38,-155.65 119.78,-149.2 113.93,-145.36"/>
</a>
</g>
</g>
<!-- Node3 -->
<g id="Node000003" class="node">
<title>Node3</title>
<g id="a_Node000003"><a xlink:title=" ">
<polygon fill="white" stroke="transparent" points="368,-233 180,-233 180,-173 368,-173 368,-233"/>
<text text-anchor="start" x="185" y="-221" font-family="Helvetica,sans-Serif" font-size="10.00">vector&lt; boost::shared</text>
<text text-anchor="start" x="185" y="-210" font-family="Helvetica,sans-Serif" font-size="10.00">_ptr&lt; AbstractStimulusFunction &gt; &gt;</text>
<text text-anchor="start" x="272" y="-195" font-family="Helvetica,sans-Serif" font-size="10.00"> </text>
<text text-anchor="start" x="272" y="-180" font-family="Helvetica,sans-Serif" font-size="10.00"> </text>
<polygon fill="#bfbfbf" stroke="#bfbfbf" points="180,-205 180,-205 368,-205 368,-205 180,-205"/>
<polygon fill="#bfbfbf" stroke="#bfbfbf" points="180,-190 180,-190 368,-190 368,-190 180,-190"/>
<polygon fill="none" stroke="#bfbfbf" points="180,-173 180,-233 368,-233 368,-173 180,-173"/>
</a>
</g>
</g>
<!-- Node3&#45;&gt;Node1 -->
<g id="edge2_Node000001_Node000003" class="edge">
<title>Node3&#45;&gt;Node1</title>
<g id="a_edge2_Node000001_Node000003"><a xlink:title=" ">
<path fill="none" stroke="#63b8ff" d="M254.6,-172.71C244.43,-157.35 231.56,-137.9 219.23,-119.28"/>
<polygon fill="none" stroke="#63b8ff" points="219.08,-119.05 212.43,-116.26 212.46,-109.05 219.1,-111.84 219.08,-119.05"/>
</a>
</g>
<text text-anchor="middle" x="260" y="-130" font-family="Helvetica,sans-Serif" font-size="10.00" fill="grey"> #mStimuli</text>
</g>
</g>
</svg>
