<?xml version="1.0" encoding="UTF-8" standalone="no"?>
<!DOCTYPE svg PUBLIC "-//W3C//DTD SVG 1.1//EN"
 "http://www.w3.org/Graphics/SVG/1.1/DTD/svg11.dtd">
<!-- Generated by graphviz version 2.43.0 (0)
 -->
<!-- Title: CellData Pages: 1 -->
<svg width="394pt" height="504pt"
 viewBox="0.00 0.00 393.50 504.00" xmlns="http://www.w3.org/2000/svg" xmlns:xlink="http://www.w3.org/1999/xlink">
<g id="graph0" class="graph" transform="scale(1 1) rotate(0) translate(4 500)">
<title>CellData</title>
<!-- Node1 -->
<g id="Node000001" class="node">
<title>Node1</title>
<g id="a_Node000001"><a xlink:title=" ">
<polygon fill="#999999" stroke="transparent" points="282.5,-139 185.5,-139 185.5,0 282.5,0 282.5,-139"/>
<text text-anchor="start" x="213" y="-126.5" font-family="Helvetica,sans-Serif" font-size="10.00">CellData</text>
<text text-anchor="start" x="232.5" y="-111.5" font-family="Helvetica,sans-Serif" font-size="10.00"> </text>
<text text-anchor="start" x="190" y="-96.5" font-family="Helvetica,sans-Serif" font-size="10.00">+</text>
<text text-anchor="start" x="203" y="-96.5" font-family="Helvetica,sans-Serif" font-size="10.00">~CellData()</text>
<text text-anchor="start" x="190" y="-81.5" font-family="Helvetica,sans-Serif" font-size="10.00">+</text>
<text text-anchor="start" x="203" y="-81.5" font-family="Helvetica,sans-Serif" font-size="10.00">SetItem()</text>
<text text-anchor="start" x="190" y="-66.5" font-family="Helvetica,sans-Serif" font-size="10.00">+</text>
<text text-anchor="start" x="203" y="-66.5" font-family="Helvetica,sans-Serif" font-size="10.00">GetItem()</text>
<text text-anchor="start" x="190" y="-51.5" font-family="Helvetica,sans-Serif" font-size="10.00">+</text>
<text text-anchor="start" x="203" y="-51.5" font-family="Helvetica,sans-Serif" font-size="10.00">GetNumItems()</text>
<text text-anchor="start" x="190" y="-36.5" font-family="Helvetica,sans-Serif" font-size="10.00">+</text>
<text text-anchor="start" x="203" y="-36.5" font-family="Helvetica,sans-Serif" font-size="10.00">GetKeys()</text>
<text text-anchor="start" x="190" y="-21.5" font-family="Helvetica,sans-Serif" font-size="10.00">+</text>
<text text-anchor="start" x="203" y="-21.5" font-family="Helvetica,sans-Serif" font-size="10.00">HasItem()</text>
<text text-anchor="start" x="192.5" y="-6.5" font-family="Helvetica,sans-Serif" font-size="10.00">&#45;</text>
<text text-anchor="start" x="203" y="-6.5" font-family="Helvetica,sans-Serif" font-size="10.00">serialize()</text>
<polygon fill="#666666" stroke="#666666" points="186,-121.5 186,-121.5 283,-121.5 283,-121.5 186,-121.5"/>
<polygon fill="#666666" stroke="#666666" points="186,-106.5 186,-106.5 283,-106.5 283,-106.5 186,-106.5"/>
<polygon fill="none" stroke="#666666" points="185.5,0 185.5,-139 282.5,-139 282.5,0 185.5,0"/>
</a>
</g>
</g>
<!-- Node2 -->
<g id="Node000002" class="node">
<title>Node2</title>
<g id="a_Node000002"><a xlink:href="classAbstractCellProperty.html" target="_top" xlink:title=" ">
<polygon fill="white" stroke="transparent" points="224,-370 86,-370 86,-186 224,-186 224,-370"/>
<text text-anchor="start" x="104.5" y="-358" font-family="Helvetica,sans-Serif" font-size="10.00">AbstractCellProperty</text>
<text text-anchor="start" x="153" y="-343" font-family="Helvetica,sans-Serif" font-size="10.00"> </text>
<text text-anchor="start" x="90" y="-328" font-family="Helvetica,sans-Serif" font-size="10.00">+</text>
<text text-anchor="start" x="103" y="-328" font-family="Helvetica,sans-Serif" font-size="10.00">AbstractCellProperty()</text>
<text text-anchor="start" x="90" y="-313" font-family="Helvetica,sans-Serif" font-size="10.00">+</text>
<text text-anchor="start" x="103" y="-313" font-family="Helvetica,sans-Serif" font-size="10.00">~AbstractCellProperty()</text>
<text text-anchor="start" x="90" y="-298" font-family="Helvetica,sans-Serif" font-size="10.00">+</text>
<text text-anchor="start" x="103" y="-298" font-family="Helvetica,sans-Serif" font-size="10.00">IsType()</text>
<text text-anchor="start" x="90" y="-283" font-family="Helvetica,sans-Serif" font-size="10.00">+</text>
<text text-anchor="start" x="103" y="-283" font-family="Helvetica,sans-Serif" font-size="10.00">IsSubType()</text>
<text text-anchor="start" x="90" y="-268" font-family="Helvetica,sans-Serif" font-size="10.00">+</text>
<text text-anchor="start" x="103" y="-268" font-family="Helvetica,sans-Serif" font-size="10.00">IsSame()</text>
<text text-anchor="start" x="90" y="-253" font-family="Helvetica,sans-Serif" font-size="10.00">+</text>
<text text-anchor="start" x="103" y="-253" font-family="Helvetica,sans-Serif" font-size="10.00">IsSame()</text>
<text text-anchor="start" x="90" y="-238" font-family="Helvetica,sans-Serif" font-size="10.00">+</text>
<text text-anchor="start" x="103" y="-238" font-family="Helvetica,sans-Serif" font-size="10.00">IncrementCellCount()</text>
<text text-anchor="start" x="90" y="-223" font-family="Helvetica,sans-Serif" font-size="10.00">+</text>
<text text-anchor="start" x="103" y="-223" font-family="Helvetica,sans-Serif" font-size="10.00">DecrementCellCount()</text>
<text text-anchor="start" x="90" y="-208" font-family="Helvetica,sans-Serif" font-size="10.00">+</text>
<text text-anchor="start" x="103" y="-208" font-family="Helvetica,sans-Serif" font-size="10.00">GetCellCount()</text>
<text text-anchor="start" x="92.5" y="-193" font-family="Helvetica,sans-Serif" font-size="10.00">&#45;</text>
<text text-anchor="start" x="103" y="-193" font-family="Helvetica,sans-Serif" font-size="10.00">serialize()</text>
<polygon fill="#666666" stroke="#666666" points="86,-353 86,-353 224,-353 224,-353 86,-353"/>
<polygon fill="#666666" stroke="#666666" points="86,-338 86,-338 224,-338 224,-338 86,-338"/>
<polygon fill="none" stroke="#666666" points="86,-186 86,-370 224,-370 224,-186 86,-186"/>
</a>
</g>
</g>
<!-- Node2&#45;&gt;Node1 -->
<g id="edge1_Node000001_Node000002" class="edge">
<title>Node2&#45;&gt;Node1</title>
<g id="a_edge1_Node000001_Node000002"><a xlink:title=" ">
<path fill="none" stroke="#63b8ff" d="M193.55,-176.24C198.35,-163.69 203.17,-151.08 207.73,-139.17"/>
<polygon fill="none" stroke="#63b8ff" points="190.18,-175.23 189.88,-185.82 196.72,-177.74 190.18,-175.23"/>
</a>
</g>
</g>
<!-- Node3 -->
<g id="Node000003" class="node">
<title>Node3</title>
<g id="a_Node000003"><a xlink:href="classIdentifiable.html" target="_top" xlink:title=" ">
<polygon fill="white" stroke="transparent" points="176,-496 0,-496 0,-417 176,-417 176,-496"/>
<text text-anchor="start" x="60.5" y="-483.5" font-family="Helvetica,sans-Serif" font-size="10.00">Identifiable</text>
<text text-anchor="start" x="86" y="-468.5" font-family="Helvetica,sans-Serif" font-size="10.00"> </text>
<text text-anchor="start" x="4" y="-453.5" font-family="Helvetica,sans-Serif" font-size="10.00">+</text>
<text text-anchor="start" x="17" y="-453.5" font-family="Helvetica,sans-Serif" font-size="10.00">~Identifiable()</text>
<text text-anchor="start" x="4" y="-438.5" font-family="Helvetica,sans-Serif" font-size="10.00">+</text>
<text text-anchor="start" x="17" y="-438.5" font-family="Helvetica,sans-Serif" font-size="10.00">GetIdentifier()</text>
<text text-anchor="start" x="6.5" y="-423.5" font-family="Helvetica,sans-Serif" font-size="10.00">&#45;</text>
<text text-anchor="start" x="17" y="-423.5" font-family="Helvetica,sans-Serif" font-size="10.00">TidyTemplatedExportIdentifier()</text>
<polygon fill="#666666" stroke="#666666" points="0,-478.5 0,-478.5 176,-478.5 176,-478.5 0,-478.5"/>
<polygon fill="#666666" stroke="#666666" points="0,-463.5 0,-463.5 176,-463.5 176,-463.5 0,-463.5"/>
<polygon fill="none" stroke="#666666" points="0,-417 0,-496 176,-496 176,-417 0,-417"/>
</a>
</g>
</g>
<!-- Node3&#45;&gt;Node2 -->
<g id="edge2_Node000002_Node000003" class="edge">
<title>Node3&#45;&gt;Node2</title>
<g id="a_edge2_Node000002_Node000003"><a xlink:title=" ">
<path fill="none" stroke="#63b8ff" d="M106.29,-407.32C110.69,-395.72 115.54,-382.94 120.43,-370.08"/>
<polygon fill="none" stroke="#63b8ff" points="102.98,-406.18 102.7,-416.77 109.52,-408.66 102.98,-406.18"/>
</a>
</g>
</g>
<!-- Node4 -->
<g id="Node000004" class="node">
<title>Node4</title>
<g id="a_Node000004"><a xlink:href="classunsigned.html" target="_top" xlink:title=" ">
<polygon fill="white" stroke="transparent" points="249.5,-481 194.5,-481 194.5,-432 249.5,-432 249.5,-481"/>
<text text-anchor="start" x="200" y="-468.5" font-family="Helvetica,sans-Serif" font-size="10.00">unsigned</text>
<text text-anchor="start" x="220.5" y="-453.5" font-family="Helvetica,sans-Serif" font-size="10.00"> </text>
<text text-anchor="start" x="220.5" y="-438.5" font-family="Helvetica,sans-Serif" font-size="10.00"> </text>
<polygon fill="#bfbfbf" stroke="#bfbfbf" points="195,-463.5 195,-463.5 250,-463.5 250,-463.5 195,-463.5"/>
<polygon fill="#bfbfbf" stroke="#bfbfbf" points="195,-448.5 195,-448.5 250,-448.5 250,-448.5 195,-448.5"/>
<polygon fill="none" stroke="#bfbfbf" points="194.5,-432 194.5,-481 249.5,-481 249.5,-432 194.5,-432"/>
</a>
</g>
</g>
<!-- Node4&#45;&gt;Node2 -->
<g id="edge3_Node000002_Node000004" class="edge">
<title>Node4&#45;&gt;Node2</title>
<g id="a_edge3_Node000002_Node000004"><a xlink:title=" ">
<path fill="none" stroke="#63b8ff" d="M212.96,-431.7C207.85,-418.23 201.07,-400.36 193.95,-381.61"/>
<polygon fill="none" stroke="#63b8ff" points="193.87,-381.39 188,-377.2 189.61,-370.17 195.48,-374.36 193.87,-381.39"/>
</a>
</g>
<text text-anchor="middle" x="233" y="-391" font-family="Helvetica,sans-Serif" font-size="10.00" fill="grey"> &#45;mCellCount</text>
</g>
<!-- Node5 -->
<g id="Node000005" class="node">
<title>Node5</title>
<g id="a_Node000005"><a xlink:title=" ">
<polygon fill="white" stroke="transparent" points="385.5,-302.5 242.5,-302.5 242.5,-253.5 385.5,-253.5 385.5,-302.5"/>
<text text-anchor="start" x="248" y="-290" font-family="Helvetica,sans-Serif" font-size="10.00">map&lt; std::string, double &gt;</text>
<text text-anchor="start" x="312.5" y="-275" font-family="Helvetica,sans-Serif" font-size="10.00"> </text>
<text text-anchor="start" x="312.5" y="-260" font-family="Helvetica,sans-Serif" font-size="10.00"> </text>
<polygon fill="#bfbfbf" stroke="#bfbfbf" points="243,-285 243,-285 386,-285 386,-285 243,-285"/>
<polygon fill="#bfbfbf" stroke="#bfbfbf" points="243,-270 243,-270 386,-270 386,-270 243,-270"/>
<polygon fill="none" stroke="#bfbfbf" points="242.5,-253.5 242.5,-302.5 385.5,-302.5 385.5,-253.5 242.5,-253.5"/>
</a>
</g>
</g>
<!-- Node5&#45;&gt;Node1 -->
<g id="edge4_Node000001_Node000005" class="edge">
<title>Node5&#45;&gt;Node1</title>
<g id="a_edge4_Node000001_Node000005"><a xlink:title=" ">
<path fill="none" stroke="#63b8ff" d="M304.82,-253.31C295.12,-228.25 279.26,-187.33 265.01,-150.55"/>
<polygon fill="none" stroke="#63b8ff" points="264.99,-150.48 259.09,-146.33 260.65,-139.29 266.55,-143.44 264.99,-150.48"/>
</a>
</g>
<text text-anchor="middle" x="301.5" y="-160" font-family="Helvetica,sans-Serif" font-size="10.00" fill="grey"> &#45;mCellData</text>
</g>
</g>
</svg>
