<?xml version="1.0" encoding="UTF-8" standalone="no"?>
<!DOCTYPE svg PUBLIC "-//W3C//DTD SVG 1.1//EN"
 "http://www.w3.org/Graphics/SVG/1.1/DTD/svg11.dtd">
<!-- Generated by graphviz version 2.43.0 (0)
 -->
<!-- Title: BoundaryConditionsContainer&lt; ELEMENT_DIM, SPACE_DIM, PROBLEM_DIM &gt; Pages: 1 -->
<svg width="1408pt" height="651pt"
 viewBox="0.00 0.00 1408.00 651.00" xmlns="http://www.w3.org/2000/svg" xmlns:xlink="http://www.w3.org/1999/xlink">
<g id="graph0" class="graph" transform="scale(1 1) rotate(0) translate(4 647)">
<title>BoundaryConditionsContainer&lt; ELEMENT_DIM, SPACE_DIM, PROBLEM_DIM &gt;</title>
<!-- Node1 -->
<g id="Node000001" class="node">
<title>Node1</title>
<g id="a_Node000001"><a xlink:title=" ">
<polygon fill="#999999" stroke="transparent" points="1066.5,-284 849.5,-284 849.5,0 1066.5,0 1066.5,-284"/>
<text text-anchor="start" x="885" y="-272" font-family="Helvetica,sans-Serif" font-size="10.00">BoundaryConditionsContainer</text>
<text text-anchor="start" x="885" y="-261" font-family="Helvetica,sans-Serif" font-size="10.00">&lt; ELEMENT_DIM, SPACE_DIM,</text>
<text text-anchor="start" x="915" y="-250" font-family="Helvetica,sans-Serif" font-size="10.00"> PROBLEM_DIM &gt;</text>
<text text-anchor="start" x="956.5" y="-235" font-family="Helvetica,sans-Serif" font-size="10.00"> </text>
<text text-anchor="start" x="854" y="-220" font-family="Helvetica,sans-Serif" font-size="10.00">+</text>
<text text-anchor="start" x="867" y="-220" font-family="Helvetica,sans-Serif" font-size="10.00">BoundaryConditionsContainer()</text>
<text text-anchor="start" x="854" y="-205" font-family="Helvetica,sans-Serif" font-size="10.00">+</text>
<text text-anchor="start" x="867" y="-205" font-family="Helvetica,sans-Serif" font-size="10.00">~BoundaryConditionsContainer()</text>
<text text-anchor="start" x="854" y="-190" font-family="Helvetica,sans-Serif" font-size="10.00">+</text>
<text text-anchor="start" x="867" y="-190" font-family="Helvetica,sans-Serif" font-size="10.00">AddDirichletBoundaryCondition()</text>
<text text-anchor="start" x="854" y="-175" font-family="Helvetica,sans-Serif" font-size="10.00">+</text>
<text text-anchor="start" x="867" y="-175" font-family="Helvetica,sans-Serif" font-size="10.00">AddNeumannBoundaryCondition()</text>
<text text-anchor="start" x="854" y="-160" font-family="Helvetica,sans-Serif" font-size="10.00">+</text>
<text text-anchor="start" x="867" y="-160" font-family="Helvetica,sans-Serif" font-size="10.00">AddPeriodicBoundaryCondition()</text>
<text text-anchor="start" x="854" y="-145" font-family="Helvetica,sans-Serif" font-size="10.00">+</text>
<text text-anchor="start" x="867" y="-145" font-family="Helvetica,sans-Serif" font-size="10.00">DefineZeroDirichletOnMesh</text>
<text text-anchor="start" x="867" y="-134" font-family="Helvetica,sans-Serif" font-size="10.00">Boundary()</text>
<text text-anchor="start" x="854" y="-119" font-family="Helvetica,sans-Serif" font-size="10.00">+</text>
<text text-anchor="start" x="867" y="-119" font-family="Helvetica,sans-Serif" font-size="10.00">DefineConstantDirichletOn</text>
<text text-anchor="start" x="867" y="-108" font-family="Helvetica,sans-Serif" font-size="10.00">MeshBoundary()</text>
<text text-anchor="start" x="854" y="-93" font-family="Helvetica,sans-Serif" font-size="10.00">+</text>
<text text-anchor="start" x="867" y="-93" font-family="Helvetica,sans-Serif" font-size="10.00">DefineZeroNeumannOnMeshBoundary()</text>
<text text-anchor="start" x="854" y="-78" font-family="Helvetica,sans-Serif" font-size="10.00">+</text>
<text text-anchor="start" x="867" y="-78" font-family="Helvetica,sans-Serif" font-size="10.00">ApplyDirichletToLinearProblem()</text>
<text text-anchor="start" x="854" y="-63" font-family="Helvetica,sans-Serif" font-size="10.00">+</text>
<text text-anchor="start" x="867" y="-63" font-family="Helvetica,sans-Serif" font-size="10.00">ApplyPeriodicBcsToLinear</text>
<text text-anchor="start" x="867" y="-52" font-family="Helvetica,sans-Serif" font-size="10.00">Problem()</text>
<text text-anchor="start" x="867" y="-37" font-family="Helvetica,sans-Serif" font-size="10.00">and 10 more...</text>
<text text-anchor="start" x="856.5" y="-22" font-family="Helvetica,sans-Serif" font-size="10.00">&#45;</text>
<text text-anchor="start" x="867" y="-22" font-family="Helvetica,sans-Serif" font-size="10.00">save()</text>
<text text-anchor="start" x="856.5" y="-7" font-family="Helvetica,sans-Serif" font-size="10.00">&#45;</text>
<text text-anchor="start" x="867" y="-7" font-family="Helvetica,sans-Serif" font-size="10.00">load()</text>
<polygon fill="#666666" stroke="#666666" points="850,-245 850,-245 1067,-245 1067,-245 850,-245"/>
<polygon fill="#666666" stroke="#666666" points="850,-230 850,-230 1067,-230 1067,-230 850,-230"/>
<polygon fill="none" stroke="#666666" points="849.5,0 849.5,-284 1066.5,-284 1066.5,0 849.5,0"/>
</a>
</g>
</g>
<!-- Node2 -->
<g id="Node000002" class="node">
<title>Node2</title>
<g id="a_Node000002"><a xlink:href="classAbstractBoundaryConditionsContainer.html" target="_top" xlink:title=" ">
<polygon fill="white" stroke="transparent" points="389.5,-514 188.5,-514 188.5,-331 389.5,-331 389.5,-514"/>
<text text-anchor="start" x="215.5" y="-501.5" font-family="Helvetica,sans-Serif" font-size="10.00">AbstractBoundaryConditions</text>
<text text-anchor="start" x="215.5" y="-490.5" font-family="Helvetica,sans-Serif" font-size="10.00">Container&lt; ELEMENT_DIM,</text>
<text text-anchor="start" x="215.5" y="-479.5" font-family="Helvetica,sans-Serif" font-size="10.00"> SPACE_DIM, PROBLEM_DIM &gt;</text>
<text text-anchor="start" x="287.5" y="-464.5" font-family="Helvetica,sans-Serif" font-size="10.00"> </text>
<text text-anchor="start" x="193" y="-449.5" font-family="Helvetica,sans-Serif" font-size="10.00">+</text>
<text text-anchor="start" x="206" y="-449.5" font-family="Helvetica,sans-Serif" font-size="10.00">AbstractBoundaryConditions</text>
<text text-anchor="start" x="206" y="-438.5" font-family="Helvetica,sans-Serif" font-size="10.00">Container()</text>
<text text-anchor="start" x="193" y="-423.5" font-family="Helvetica,sans-Serif" font-size="10.00">+</text>
<text text-anchor="start" x="206" y="-423.5" font-family="Helvetica,sans-Serif" font-size="10.00">~AbstractBoundaryConditions</text>
<text text-anchor="start" x="206" y="-412.5" font-family="Helvetica,sans-Serif" font-size="10.00">Container()</text>
<text text-anchor="start" x="193" y="-397.5" font-family="Helvetica,sans-Serif" font-size="10.00">+</text>
<text text-anchor="start" x="206" y="-397.5" font-family="Helvetica,sans-Serif" font-size="10.00">HasDirichletBoundaryConditions()</text>
<text text-anchor="start" x="193" y="-382.5" font-family="Helvetica,sans-Serif" font-size="10.00">+</text>
<text text-anchor="start" x="206" y="-382.5" font-family="Helvetica,sans-Serif" font-size="10.00">GetDirichletBCValue()</text>
<text text-anchor="start" x="193" y="-367.5" font-family="Helvetica,sans-Serif" font-size="10.00">+</text>
<text text-anchor="start" x="206" y="-367.5" font-family="Helvetica,sans-Serif" font-size="10.00">HasDirichletBoundaryCondition()</text>
<text text-anchor="start" x="193" y="-352.5" font-family="Helvetica,sans-Serif" font-size="10.00">+</text>
<text text-anchor="start" x="206" y="-352.5" font-family="Helvetica,sans-Serif" font-size="10.00">ResetDirichletCommunication()</text>
<text text-anchor="start" x="193" y="-337.5" font-family="Helvetica,sans-Serif" font-size="10.00">#</text>
<text text-anchor="start" x="206" y="-337.5" font-family="Helvetica,sans-Serif" font-size="10.00">DeleteDirichletBoundaryConditions()</text>
<polygon fill="#666666" stroke="#666666" points="189,-474.5 189,-474.5 390,-474.5 390,-474.5 189,-474.5"/>
<polygon fill="#666666" stroke="#666666" points="189,-459.5 189,-459.5 390,-459.5 390,-459.5 189,-459.5"/>
<polygon fill="none" stroke="#666666" points="188.5,-331 188.5,-514 389.5,-514 389.5,-331 188.5,-331"/>
</a>
</g>
</g>
<!-- Node2&#45;&gt;Node1 -->
<g id="edge1_Node000001_Node000002" class="edge">
<title>Node2&#45;&gt;Node1</title>
<g id="a_edge1_Node000001_Node000002"><a xlink:title=" ">
<path fill="none" stroke="#63b8ff" d="M398.69,-370.84C446.48,-349.13 503.29,-323.8 555,-302 653.93,-260.29 767.84,-215.65 849.26,-184.33"/>
<polygon fill="none" stroke="#63b8ff" points="397.22,-367.67 389.57,-375 400.12,-374.04 397.22,-367.67"/>
</a>
</g>
</g>
<!-- Node3 -->
<g id="Node000003" class="node">
<title>Node3</title>
<g id="a_Node000003"><a xlink:title=" ">
<polygon fill="white" stroke="transparent" points="106,-643 0,-643 0,-594 106,-594 106,-643"/>
<text text-anchor="start" x="5" y="-630.5" font-family="Helvetica,sans-Serif" font-size="10.00">boost::noncopyable</text>
<text text-anchor="start" x="51" y="-615.5" font-family="Helvetica,sans-Serif" font-size="10.00"> </text>
<text text-anchor="start" x="51" y="-600.5" font-family="Helvetica,sans-Serif" font-size="10.00"> </text>
<polygon fill="#bfbfbf" stroke="#bfbfbf" points="0,-625.5 0,-625.5 106,-625.5 106,-625.5 0,-625.5"/>
<polygon fill="#bfbfbf" stroke="#bfbfbf" points="0,-610.5 0,-610.5 106,-610.5 106,-610.5 0,-610.5"/>
<polygon fill="none" stroke="#bfbfbf" points="0,-594 0,-643 106,-643 106,-594 0,-594"/>
</a>
</g>
</g>
<!-- Node3&#45;&gt;Node2 -->
<g id="edge2_Node000002_Node000003" class="edge">
<title>Node3&#45;&gt;Node2</title>
<g id="a_edge2_Node000002_Node000003"><a xlink:title=" ">
<path fill="none" stroke="#8b1a1a" d="M89.8,-587.25C116.28,-565.48 153.34,-535.02 188.33,-506.26"/>
<polygon fill="none" stroke="#8b1a1a" points="87.44,-584.66 81.94,-593.71 91.89,-590.07 87.44,-584.66"/>
</a>
</g>
</g>
<!-- Node4 -->
<g id="Node000004" class="node">
<title>Node4</title>
<g id="a_Node000004"><a xlink:title=" ">
<polygon fill="white" stroke="transparent" points="228,-643 124,-643 124,-594 228,-594 228,-643"/>
<text text-anchor="start" x="129" y="-630.5" font-family="Helvetica,sans-Serif" font-size="10.00">DirichletMapType *</text>
<text text-anchor="start" x="174" y="-615.5" font-family="Helvetica,sans-Serif" font-size="10.00"> </text>
<text text-anchor="start" x="174" y="-600.5" font-family="Helvetica,sans-Serif" font-size="10.00"> </text>
<polygon fill="#bfbfbf" stroke="#bfbfbf" points="124,-625.5 124,-625.5 228,-625.5 228,-625.5 124,-625.5"/>
<polygon fill="#bfbfbf" stroke="#bfbfbf" points="124,-610.5 124,-610.5 228,-610.5 228,-610.5 124,-610.5"/>
<polygon fill="none" stroke="#bfbfbf" points="124,-594 124,-643 228,-643 228,-594 124,-594"/>
</a>
</g>
</g>
<!-- Node4&#45;&gt;Node2 -->
<g id="edge3_Node000002_Node000004" class="edge">
<title>Node4&#45;&gt;Node2</title>
<g id="a_edge3_Node000002_Node000004"><a xlink:title=" ">
<path fill="none" stroke="#63b8ff" d="M178.08,-593.95C180.37,-576.17 185.16,-551.56 195,-532 196.23,-529.56 197.53,-527.13 198.88,-524.71"/>
<polygon fill="none" stroke="#63b8ff" points="199.01,-524.5 198.66,-517.29 205.18,-514.2 205.52,-521.41 199.01,-524.5"/>
</a>
</g>
<text text-anchor="middle" x="240" y="-551.5" font-family="Helvetica,sans-Serif" font-size="10.00" fill="grey"> #mpDirichletMap</text>
</g>
<!-- Node5 -->
<g id="Node000005" class="node">
<title>Node5</title>
<g id="a_Node000005"><a xlink:title=" ">
<polygon fill="white" stroke="transparent" points="328,-643 250,-643 250,-594 328,-594 328,-643"/>
<text text-anchor="start" x="255" y="-630.5" font-family="Helvetica,sans-Serif" font-size="10.00">const_iterator</text>
<text text-anchor="start" x="287" y="-615.5" font-family="Helvetica,sans-Serif" font-size="10.00"> </text>
<text text-anchor="start" x="287" y="-600.5" font-family="Helvetica,sans-Serif" font-size="10.00"> </text>
<polygon fill="#bfbfbf" stroke="#bfbfbf" points="250,-625.5 250,-625.5 328,-625.5 328,-625.5 250,-625.5"/>
<polygon fill="#bfbfbf" stroke="#bfbfbf" points="250,-610.5 250,-610.5 328,-610.5 328,-610.5 250,-610.5"/>
<polygon fill="none" stroke="#bfbfbf" points="250,-594 250,-643 328,-643 328,-594 250,-594"/>
</a>
</g>
</g>
<!-- Node5&#45;&gt;Node2 -->
<g id="edge4_Node000002_Node000005" class="edge">
<title>Node5&#45;&gt;Node2</title>
<g id="a_edge4_Node000002_Node000005"><a xlink:title=" ">
<path fill="none" stroke="#63b8ff" d="M289,-593.71C289,-576.42 289,-551.7 289,-526.44"/>
<polygon fill="none" stroke="#63b8ff" points="289,-526.43 285,-520.43 289,-514.43 293,-520.43 289,-526.43"/>
</a>
</g>
<text text-anchor="middle" x="332" y="-551.5" font-family="Helvetica,sans-Serif" font-size="10.00" fill="grey"> #mDirichIterator</text>
</g>
<!-- Node6 -->
<g id="Node000006" class="node">
<title>Node6</title>
<g id="a_Node000006"><a xlink:href="classbool.html" target="_top" xlink:title=" ">
<polygon fill="white" stroke="transparent" points="499,-643 467,-643 467,-594 499,-594 499,-643"/>
<text text-anchor="start" x="472" y="-630.5" font-family="Helvetica,sans-Serif" font-size="10.00">bool</text>
<text text-anchor="start" x="481" y="-615.5" font-family="Helvetica,sans-Serif" font-size="10.00"> </text>
<text text-anchor="start" x="481" y="-600.5" font-family="Helvetica,sans-Serif" font-size="10.00"> </text>
<polygon fill="#bfbfbf" stroke="#bfbfbf" points="467,-625.5 467,-625.5 499,-625.5 499,-625.5 467,-625.5"/>
<polygon fill="#bfbfbf" stroke="#bfbfbf" points="467,-610.5 467,-610.5 499,-610.5 499,-610.5 467,-610.5"/>
<polygon fill="none" stroke="#bfbfbf" points="467,-594 467,-643 499,-643 499,-594 467,-594"/>
</a>
</g>
</g>
<!-- Node6&#45;&gt;Node1 -->
<g id="edge9_Node000001_Node000006" class="edge">
<title>Node6&#45;&gt;Node1</title>
<g id="a_edge9_Node000001_Node000006"><a xlink:title=" ">
<path fill="none" stroke="#63b8ff" d="M499.26,-612.99C516.26,-607.34 542.22,-595.91 555,-576 614.09,-483.97 516.02,-421.11 578,-331 637.98,-243.8 750.47,-195.24 837.56,-169.43"/>
<polygon fill="none" stroke="#63b8ff" points="837.6,-169.42 842.25,-163.91 849.12,-166.09 844.47,-171.6 837.6,-169.42"/>
</a>
</g>
<text text-anchor="start" x="578" y="-431" font-family="Helvetica,sans-Serif" font-size="10.00" fill="grey"> &#45;mAnyNonZeroNeumannConditions</text>
<text text-anchor="middle" x="666.5" y="-420" font-family="Helvetica,sans-Serif" font-size="10.00" fill="grey">ForUnknown</text>
<text text-anchor="middle" x="666.5" y="-409" font-family="Helvetica,sans-Serif" font-size="10.00" fill="grey">&#45;mLoadedFromArchive</text>
</g>
<!-- Node6&#45;&gt;Node2 -->
<g id="edge5_Node000002_Node000006" class="edge">
<title>Node6&#45;&gt;Node2</title>
<g id="a_edge5_Node000002_Node000006"><a xlink:title=" ">
<path fill="none" stroke="#63b8ff" d="M466.97,-612.93C448.61,-607 418.54,-595.1 399,-576 383.22,-560.58 388.07,-550.47 376,-532 374.23,-529.3 372.42,-526.58 370.56,-523.86"/>
<polygon fill="none" stroke="#63b8ff" points="370.54,-523.83 363.82,-521.22 363.65,-514.01 370.37,-516.63 370.54,-523.83"/>
</a>
</g>
<text text-anchor="start" x="399" y="-568" font-family="Helvetica,sans-Serif" font-size="10.00" fill="grey"> #mCheckedAndCommunicated</text>
<text text-anchor="middle" x="477" y="-557" font-family="Helvetica,sans-Serif" font-size="10.00" fill="grey">IfDirichletBcs</text>
<text text-anchor="middle" x="477" y="-546" font-family="Helvetica,sans-Serif" font-size="10.00" fill="grey">#mDeleteConditions</text>
<text text-anchor="middle" x="477" y="-535" font-family="Helvetica,sans-Serif" font-size="10.00" fill="grey">#mHasDirichletBCs</text>
</g>
<!-- Node7 -->
<g id="Node000007" class="node">
<title>Node7</title>
<g id="a_Node000007"><a xlink:title=" ">
<polygon fill="white" stroke="transparent" points="963.5,-463.5 764.5,-463.5 764.5,-381.5 963.5,-381.5 963.5,-463.5"/>
<text text-anchor="start" x="770" y="-451.5" font-family="Helvetica,sans-Serif" font-size="10.00">map&lt; const BoundaryElement</text>
<text text-anchor="start" x="770" y="-440.5" font-family="Helvetica,sans-Serif" font-size="10.00">&lt; ELEMENT_DIM&#45;1, SPACE_DIM</text>
<text text-anchor="start" x="770" y="-429.5" font-family="Helvetica,sans-Serif" font-size="10.00"> &gt; *, const AbstractBoundaryCondition</text>
<text text-anchor="start" x="811.5" y="-418.5" font-family="Helvetica,sans-Serif" font-size="10.00">&lt; SPACE_DIM &gt; * &gt; *</text>
<text text-anchor="start" x="862.5" y="-403.5" font-family="Helvetica,sans-Serif" font-size="10.00"> </text>
<text text-anchor="start" x="862.5" y="-388.5" font-family="Helvetica,sans-Serif" font-size="10.00"> </text>
<polygon fill="#bfbfbf" stroke="#bfbfbf" points="765,-413.5 765,-413.5 964,-413.5 964,-413.5 765,-413.5"/>
<polygon fill="#bfbfbf" stroke="#bfbfbf" points="765,-398.5 765,-398.5 964,-398.5 964,-398.5 765,-398.5"/>
<polygon fill="none" stroke="#bfbfbf" points="764.5,-381.5 764.5,-463.5 963.5,-463.5 963.5,-381.5 764.5,-381.5"/>
</a>
</g>
</g>
<!-- Node7&#45;&gt;Node1 -->
<g id="edge6_Node000001_Node000007" class="edge">
<title>Node7&#45;&gt;Node1</title>
<g id="a_edge6_Node000001_Node000007"><a xlink:title=" ">
<path fill="none" stroke="#63b8ff" d="M877.57,-381.3C885.38,-358.16 895.74,-327.45 906.43,-295.8"/>
<polygon fill="none" stroke="#63b8ff" points="906.54,-295.47 904.67,-288.51 910.37,-284.1 912.25,-291.07 906.54,-295.47"/>
</a>
</g>
<text text-anchor="middle" x="947.5" y="-305" font-family="Helvetica,sans-Serif" font-size="10.00" fill="grey"> &#45;mpNeumannMap</text>
</g>
<!-- Node8 -->
<g id="Node000008" class="node">
<title>Node8</title>
<g id="a_Node000008"><a xlink:title=" ">
<polygon fill="white" stroke="transparent" points="1122,-458 982,-458 982,-387 1122,-387 1122,-458"/>
<text text-anchor="start" x="987" y="-445.5" font-family="Helvetica,sans-Serif" font-size="10.00">map&lt; const Node&lt; SPACE</text>
<text text-anchor="start" x="987" y="-434.5" font-family="Helvetica,sans-Serif" font-size="10.00">_DIM &gt; *, const Node&lt;</text>
<text text-anchor="start" x="1003" y="-423.5" font-family="Helvetica,sans-Serif" font-size="10.00"> SPACE_DIM &gt; * &gt; *</text>
<text text-anchor="start" x="1050" y="-408.5" font-family="Helvetica,sans-Serif" font-size="10.00"> </text>
<text text-anchor="start" x="1050" y="-393.5" font-family="Helvetica,sans-Serif" font-size="10.00"> </text>
<polygon fill="#bfbfbf" stroke="#bfbfbf" points="982,-418.5 982,-418.5 1122,-418.5 1122,-418.5 982,-418.5"/>
<polygon fill="#bfbfbf" stroke="#bfbfbf" points="982,-403.5 982,-403.5 1122,-403.5 1122,-403.5 982,-403.5"/>
<polygon fill="none" stroke="#bfbfbf" points="982,-387 982,-458 1122,-458 1122,-387 982,-387"/>
</a>
</g>
</g>
<!-- Node8&#45;&gt;Node1 -->
<g id="edge7_Node000001_Node000008" class="edge">
<title>Node8&#45;&gt;Node1</title>
<g id="a_edge7_Node000001_Node000008"><a xlink:title=" ">
<path fill="none" stroke="#63b8ff" d="M1040.28,-386.79C1032.3,-363.14 1021.12,-330.02 1009.57,-295.79"/>
<polygon fill="none" stroke="#63b8ff" points="1009.48,-295.53 1003.77,-291.12 1005.64,-284.16 1011.35,-288.56 1009.48,-295.53"/>
</a>
</g>
<text text-anchor="middle" x="1060.5" y="-305" font-family="Helvetica,sans-Serif" font-size="10.00" fill="grey"> &#45;mpPeriodicBcMap</text>
</g>
<!-- Node9 -->
<g id="Node000009" class="node">
<title>Node9</title>
<g id="a_Node000009"><a xlink:title=" ">
<polygon fill="white" stroke="transparent" points="1218,-447 1140,-447 1140,-398 1218,-398 1218,-447"/>
<text text-anchor="start" x="1145" y="-434.5" font-family="Helvetica,sans-Serif" font-size="10.00">const_iterator</text>
<text text-anchor="start" x="1177" y="-419.5" font-family="Helvetica,sans-Serif" font-size="10.00"> </text>
<text text-anchor="start" x="1177" y="-404.5" font-family="Helvetica,sans-Serif" font-size="10.00"> </text>
<polygon fill="#bfbfbf" stroke="#bfbfbf" points="1140,-429.5 1140,-429.5 1218,-429.5 1218,-429.5 1140,-429.5"/>
<polygon fill="#bfbfbf" stroke="#bfbfbf" points="1140,-414.5 1140,-414.5 1218,-414.5 1218,-414.5 1140,-414.5"/>
<polygon fill="none" stroke="#bfbfbf" points="1140,-398 1140,-447 1218,-447 1218,-398 1140,-398"/>
</a>
</g>
</g>
<!-- Node9&#45;&gt;Node1 -->
<g id="edge8_Node000001_Node000009" class="edge">
<title>Node9&#45;&gt;Node1</title>
<g id="a_edge8_Node000001_Node000009"><a xlink:title=" ">
<path fill="none" stroke="#63b8ff" d="M1167.15,-397.73C1157.78,-379.29 1144.12,-353.2 1131,-331 1115.29,-304.42 1095.33,-278.4 1074.6,-254.59"/>
<polygon fill="none" stroke="#63b8ff" points="1074.58,-254.56 1067.6,-252.72 1066.62,-245.58 1073.6,-247.42 1074.58,-254.56"/>
</a>
</g>
<text text-anchor="middle" x="1181.5" y="-305" font-family="Helvetica,sans-Serif" font-size="10.00" fill="grey"> &#45;mLastNeumannCondition</text>
</g>
<!-- Node10 -->
<g id="Node000010" class="node">
<title>Node10</title>
<g id="a_Node000010"><a xlink:title=" ">
<polygon fill="white" stroke="transparent" points="1393.5,-452.5 1262.5,-452.5 1262.5,-392.5 1393.5,-392.5 1393.5,-452.5"/>
<text text-anchor="start" x="1268" y="-440.5" font-family="Helvetica,sans-Serif" font-size="10.00">ConstBoundaryCondition</text>
<text text-anchor="start" x="1285" y="-429.5" font-family="Helvetica,sans-Serif" font-size="10.00">&lt; SPACE_DIM &gt; *</text>
<text text-anchor="start" x="1326.5" y="-414.5" font-family="Helvetica,sans-Serif" font-size="10.00"> </text>
<text text-anchor="start" x="1326.5" y="-399.5" font-family="Helvetica,sans-Serif" font-size="10.00"> </text>
<polygon fill="#bfbfbf" stroke="#bfbfbf" points="1263,-424.5 1263,-424.5 1394,-424.5 1394,-424.5 1263,-424.5"/>
<polygon fill="#bfbfbf" stroke="#bfbfbf" points="1263,-409.5 1263,-409.5 1394,-409.5 1394,-409.5 1263,-409.5"/>
<polygon fill="none" stroke="#bfbfbf" points="1262.5,-392.5 1262.5,-452.5 1393.5,-452.5 1393.5,-392.5 1262.5,-392.5"/>
</a>
</g>
</g>
<!-- Node10&#45;&gt;Node1 -->
<g id="edge10_Node000001_Node000010" class="edge">
<title>Node10&#45;&gt;Node1</title>
<g id="a_edge10_Node000001_Node000010"><a xlink:title=" ">
<path fill="none" stroke="#63b8ff" d="M1314.47,-392.27C1301.22,-366.09 1278.96,-327.93 1251,-302 1200.88,-255.51 1134.62,-218.07 1077.8,-191.23"/>
<polygon fill="none" stroke="#63b8ff" points="1077.45,-191.06 1070.32,-192.16 1066.57,-186 1073.7,-184.9 1077.45,-191.06"/>
</a>
</g>
<text text-anchor="middle" x="1330.5" y="-305" font-family="Helvetica,sans-Serif" font-size="10.00" fill="grey"> &#45;mpZeroBoundaryCondition</text>
</g>
</g>
</svg>
