<?xml version="1.0" encoding="UTF-8" standalone="no"?>
<!DOCTYPE svg PUBLIC "-//W3C//DTD SVG 1.1//EN"
 "http://www.w3.org/Graphics/SVG/1.1/DTD/svg11.dtd">
<!-- Generated by graphviz version 2.43.0 (0)
 -->
<!-- Title: AbstractBoundaryConditionsContainer&lt; ELEMENT_DIM, SPACE_DIM, PROBLEM_DIM &gt; Pages: 1 -->
<svg width="551pt" height="320pt"
 viewBox="0.00 0.00 551.00 320.00" xmlns="http://www.w3.org/2000/svg" xmlns:xlink="http://www.w3.org/1999/xlink">
<g id="graph0" class="graph" transform="scale(1 1) rotate(0) translate(4 316)">
<title>AbstractBoundaryConditionsContainer&lt; ELEMENT_DIM, SPACE_DIM, PROBLEM_DIM &gt;</title>
<!-- Node1 -->
<g id="Node000001" class="node">
<title>Node1</title>
<g id="a_Node000001"><a xlink:title=" ">
<polygon fill="#999999" stroke="transparent" points="332.5,-183 131.5,-183 131.5,0 332.5,0 332.5,-183"/>
<text text-anchor="start" x="158.5" y="-170.5" font-family="Helvetica,sans-Serif" font-size="10.00">AbstractBoundaryConditions</text>
<text text-anchor="start" x="158.5" y="-159.5" font-family="Helvetica,sans-Serif" font-size="10.00">Container&lt; ELEMENT_DIM,</text>
<text text-anchor="start" x="158.5" y="-148.5" font-family="Helvetica,sans-Serif" font-size="10.00"> SPACE_DIM, PROBLEM_DIM &gt;</text>
<text text-anchor="start" x="230.5" y="-133.5" font-family="Helvetica,sans-Serif" font-size="10.00"> </text>
<text text-anchor="start" x="136" y="-118.5" font-family="Helvetica,sans-Serif" font-size="10.00">+</text>
<text text-anchor="start" x="149" y="-118.5" font-family="Helvetica,sans-Serif" font-size="10.00">AbstractBoundaryConditions</text>
<text text-anchor="start" x="149" y="-107.5" font-family="Helvetica,sans-Serif" font-size="10.00">Container()</text>
<text text-anchor="start" x="136" y="-92.5" font-family="Helvetica,sans-Serif" font-size="10.00">+</text>
<text text-anchor="start" x="149" y="-92.5" font-family="Helvetica,sans-Serif" font-size="10.00">~AbstractBoundaryConditions</text>
<text text-anchor="start" x="149" y="-81.5" font-family="Helvetica,sans-Serif" font-size="10.00">Container()</text>
<text text-anchor="start" x="136" y="-66.5" font-family="Helvetica,sans-Serif" font-size="10.00">+</text>
<text text-anchor="start" x="149" y="-66.5" font-family="Helvetica,sans-Serif" font-size="10.00">HasDirichletBoundaryConditions()</text>
<text text-anchor="start" x="136" y="-51.5" font-family="Helvetica,sans-Serif" font-size="10.00">+</text>
<text text-anchor="start" x="149" y="-51.5" font-family="Helvetica,sans-Serif" font-size="10.00">GetDirichletBCValue()</text>
<text text-anchor="start" x="136" y="-36.5" font-family="Helvetica,sans-Serif" font-size="10.00">+</text>
<text text-anchor="start" x="149" y="-36.5" font-family="Helvetica,sans-Serif" font-size="10.00">HasDirichletBoundaryCondition()</text>
<text text-anchor="start" x="136" y="-21.5" font-family="Helvetica,sans-Serif" font-size="10.00">+</text>
<text text-anchor="start" x="149" y="-21.5" font-family="Helvetica,sans-Serif" font-size="10.00">ResetDirichletCommunication()</text>
<text text-anchor="start" x="136" y="-6.5" font-family="Helvetica,sans-Serif" font-size="10.00">#</text>
<text text-anchor="start" x="149" y="-6.5" font-family="Helvetica,sans-Serif" font-size="10.00">DeleteDirichletBoundaryConditions()</text>
<polygon fill="#666666" stroke="#666666" points="132,-143.5 132,-143.5 333,-143.5 333,-143.5 132,-143.5"/>
<polygon fill="#666666" stroke="#666666" points="132,-128.5 132,-128.5 333,-128.5 333,-128.5 132,-128.5"/>
<polygon fill="none" stroke="#666666" points="131.5,0 131.5,-183 332.5,-183 332.5,0 131.5,0"/>
</a>
</g>
</g>
<!-- Node2 -->
<g id="Node000002" class="node">
<title>Node2</title>
<g id="a_Node000002"><a xlink:title=" ">
<polygon fill="white" stroke="transparent" points="106,-312 0,-312 0,-263 106,-263 106,-312"/>
<text text-anchor="start" x="5" y="-299.5" font-family="Helvetica,sans-Serif" font-size="10.00">boost::noncopyable</text>
<text text-anchor="start" x="51" y="-284.5" font-family="Helvetica,sans-Serif" font-size="10.00"> </text>
<text text-anchor="start" x="51" y="-269.5" font-family="Helvetica,sans-Serif" font-size="10.00"> </text>
<polygon fill="#bfbfbf" stroke="#bfbfbf" points="0,-294.5 0,-294.5 106,-294.5 106,-294.5 0,-294.5"/>
<polygon fill="#bfbfbf" stroke="#bfbfbf" points="0,-279.5 0,-279.5 106,-279.5 106,-279.5 0,-279.5"/>
<polygon fill="none" stroke="#bfbfbf" points="0,-263 0,-312 106,-312 106,-263 0,-263"/>
</a>
</g>
</g>
<!-- Node2&#45;&gt;Node1 -->
<g id="edge1_Node000001_Node000002" class="edge">
<title>Node2&#45;&gt;Node1</title>
<g id="a_edge1_Node000001_Node000002"><a xlink:title=" ">
<path fill="none" stroke="#8b1a1a" d="M81.81,-255.28C99.91,-235.66 124.27,-209.26 148.1,-183.43"/>
<polygon fill="none" stroke="#8b1a1a" points="79.16,-252.99 74.95,-262.71 84.3,-257.74 79.16,-252.99"/>
</a>
</g>
</g>
<!-- Node3 -->
<g id="Node000003" class="node">
<title>Node3</title>
<g id="a_Node000003"><a xlink:title=" ">
<polygon fill="white" stroke="transparent" points="228,-312 124,-312 124,-263 228,-263 228,-312"/>
<text text-anchor="start" x="129" y="-299.5" font-family="Helvetica,sans-Serif" font-size="10.00">DirichletMapType *</text>
<text text-anchor="start" x="174" y="-284.5" font-family="Helvetica,sans-Serif" font-size="10.00"> </text>
<text text-anchor="start" x="174" y="-269.5" font-family="Helvetica,sans-Serif" font-size="10.00"> </text>
<polygon fill="#bfbfbf" stroke="#bfbfbf" points="124,-294.5 124,-294.5 228,-294.5 228,-294.5 124,-294.5"/>
<polygon fill="#bfbfbf" stroke="#bfbfbf" points="124,-279.5 124,-279.5 228,-279.5 228,-279.5 124,-279.5"/>
<polygon fill="none" stroke="#bfbfbf" points="124,-263 124,-312 228,-312 228,-263 124,-263"/>
</a>
</g>
</g>
<!-- Node3&#45;&gt;Node1 -->
<g id="edge2_Node000001_Node000003" class="edge">
<title>Node3&#45;&gt;Node1</title>
<g id="a_edge2_Node000001_Node000003"><a xlink:title=" ">
<path fill="none" stroke="#63b8ff" d="M173.43,-262.92C172.22,-245.54 171.98,-221.47 177,-201 177.52,-198.86 178.1,-196.72 178.71,-194.57"/>
<polygon fill="none" stroke="#63b8ff" points="178.73,-194.53 176.75,-187.6 182.4,-183.11 184.37,-190.04 178.73,-194.53"/>
</a>
</g>
<text text-anchor="middle" x="222" y="-220.5" font-family="Helvetica,sans-Serif" font-size="10.00" fill="grey"> #mpDirichletMap</text>
</g>
<!-- Node4 -->
<g id="Node000004" class="node">
<title>Node4</title>
<g id="a_Node000004"><a xlink:title=" ">
<polygon fill="white" stroke="transparent" points="328,-312 250,-312 250,-263 328,-263 328,-312"/>
<text text-anchor="start" x="255" y="-299.5" font-family="Helvetica,sans-Serif" font-size="10.00">const_iterator</text>
<text text-anchor="start" x="287" y="-284.5" font-family="Helvetica,sans-Serif" font-size="10.00"> </text>
<text text-anchor="start" x="287" y="-269.5" font-family="Helvetica,sans-Serif" font-size="10.00"> </text>
<polygon fill="#bfbfbf" stroke="#bfbfbf" points="250,-294.5 250,-294.5 328,-294.5 328,-294.5 250,-294.5"/>
<polygon fill="#bfbfbf" stroke="#bfbfbf" points="250,-279.5 250,-279.5 328,-279.5 328,-279.5 250,-279.5"/>
<polygon fill="none" stroke="#bfbfbf" points="250,-263 250,-312 328,-312 328,-263 250,-263"/>
</a>
</g>
</g>
<!-- Node4&#45;&gt;Node1 -->
<g id="edge3_Node000001_Node000004" class="edge">
<title>Node4&#45;&gt;Node1</title>
<g id="a_edge3_Node000001_Node000004"><a xlink:title=" ">
<path fill="none" stroke="#63b8ff" d="M283.31,-262.81C279.08,-245.59 273.01,-221.76 267,-201 266.42,-199.01 265.83,-196.99 265.24,-194.97"/>
<polygon fill="none" stroke="#63b8ff" points="265.17,-194.74 259.61,-190.15 261.72,-183.25 267.27,-187.85 265.17,-194.74"/>
</a>
</g>
<text text-anchor="middle" x="321" y="-220.5" font-family="Helvetica,sans-Serif" font-size="10.00" fill="grey"> #mDirichIterator</text>
</g>
<!-- Node5 -->
<g id="Node000005" class="node">
<title>Node5</title>
<g id="a_Node000005"><a xlink:href="classbool.html" target="_top" xlink:title=" ">
<polygon fill="white" stroke="transparent" points="414,-312 382,-312 382,-263 414,-263 414,-312"/>
<text text-anchor="start" x="387" y="-299.5" font-family="Helvetica,sans-Serif" font-size="10.00">bool</text>
<text text-anchor="start" x="396" y="-284.5" font-family="Helvetica,sans-Serif" font-size="10.00"> </text>
<text text-anchor="start" x="396" y="-269.5" font-family="Helvetica,sans-Serif" font-size="10.00"> </text>
<polygon fill="#bfbfbf" stroke="#bfbfbf" points="382,-294.5 382,-294.5 414,-294.5 414,-294.5 382,-294.5"/>
<polygon fill="#bfbfbf" stroke="#bfbfbf" points="382,-279.5 382,-279.5 414,-279.5 414,-279.5 382,-279.5"/>
<polygon fill="none" stroke="#bfbfbf" points="382,-263 382,-312 414,-312 414,-263 382,-263"/>
</a>
</g>
</g>
<!-- Node5&#45;&gt;Node1 -->
<g id="edge4_Node000001_Node000005" class="edge">
<title>Node5&#45;&gt;Node1</title>
<g id="a_edge4_Node000001_Node000005"><a xlink:title=" ">
<path fill="none" stroke="#63b8ff" d="M393.42,-262.71C389.08,-244.56 381.21,-219.6 368,-201 360.29,-190.14 351.2,-179.81 341.44,-170.14"/>
<polygon fill="none" stroke="#63b8ff" points="341.39,-170.09 334.29,-168.85 332.71,-161.81 339.81,-163.05 341.39,-170.09"/>
</a>
</g>
<text text-anchor="start" x="387" y="-237" font-family="Helvetica,sans-Serif" font-size="10.00" fill="grey"> #mCheckedAndCommunicated</text>
<text text-anchor="middle" x="465" y="-226" font-family="Helvetica,sans-Serif" font-size="10.00" fill="grey">IfDirichletBcs</text>
<text text-anchor="middle" x="465" y="-215" font-family="Helvetica,sans-Serif" font-size="10.00" fill="grey">#mDeleteConditions</text>
<text text-anchor="middle" x="465" y="-204" font-family="Helvetica,sans-Serif" font-size="10.00" fill="grey">#mHasDirichletBCs</text>
</g>
</g>
</svg>
