<?xml version="1.0" encoding="UTF-8" standalone="no"?>
<!DOCTYPE svg PUBLIC "-//W3C//DTD SVG 1.1//EN"
 "http://www.w3.org/Graphics/SVG/1.1/DTD/svg11.dtd">
<!-- Generated by graphviz version 2.43.0 (0)
 -->
<!-- Title: ToroidalHoneycombMeshGenerator Pages: 1 -->
<svg width="661pt" height="418pt"
 viewBox="0.00 0.00 661.00 418.00" xmlns="http://www.w3.org/2000/svg" xmlns:xlink="http://www.w3.org/1999/xlink">
<g id="graph0" class="graph" transform="scale(1 1) rotate(0) translate(4 414)">
<title>ToroidalHoneycombMeshGenerator</title>
<!-- Node1 -->
<g id="Node000001" class="node">
<title>Node1</title>
<g id="a_Node000001"><a xlink:title=" ">
<polygon fill="#999999" stroke="transparent" points="437.5,-79 236.5,-79 236.5,0 437.5,0 437.5,-79"/>
<text text-anchor="start" x="251.5" y="-66.5" font-family="Helvetica,sans-Serif" font-size="10.00">ToroidalHoneycombMeshGenerator</text>
<text text-anchor="start" x="335.5" y="-51.5" font-family="Helvetica,sans-Serif" font-size="10.00"> </text>
<text text-anchor="start" x="241" y="-36.5" font-family="Helvetica,sans-Serif" font-size="10.00">+</text>
<text text-anchor="start" x="254" y="-36.5" font-family="Helvetica,sans-Serif" font-size="10.00">ToroidalHoneycombMeshGenerator()</text>
<text text-anchor="start" x="241" y="-21.5" font-family="Helvetica,sans-Serif" font-size="10.00">+</text>
<text text-anchor="start" x="254" y="-21.5" font-family="Helvetica,sans-Serif" font-size="10.00">GetMesh()</text>
<text text-anchor="start" x="241" y="-6.5" font-family="Helvetica,sans-Serif" font-size="10.00">+</text>
<text text-anchor="start" x="254" y="-6.5" font-family="Helvetica,sans-Serif" font-size="10.00">GetToroidalMesh()</text>
<polygon fill="#666666" stroke="#666666" points="237,-61.5 237,-61.5 438,-61.5 438,-61.5 237,-61.5"/>
<polygon fill="#666666" stroke="#666666" points="237,-46.5 237,-46.5 438,-46.5 438,-46.5 237,-46.5"/>
<polygon fill="none" stroke="#666666" points="236.5,0 236.5,-79 437.5,-79 437.5,0 236.5,0"/>
</a>
</g>
</g>
<!-- Node2 -->
<g id="Node000002" class="node">
<title>Node2</title>
<g id="a_Node000002"><a xlink:href="classHoneycombMeshGenerator.html" target="_top" xlink:title=" ">
<polygon fill="white" stroke="transparent" points="422.5,-270 251.5,-270 251.5,-116 422.5,-116 422.5,-270"/>
<text text-anchor="start" x="270.5" y="-258" font-family="Helvetica,sans-Serif" font-size="10.00">HoneycombMeshGenerator</text>
<text text-anchor="start" x="335.5" y="-243" font-family="Helvetica,sans-Serif" font-size="10.00"> </text>
<text text-anchor="start" x="256" y="-228" font-family="Helvetica,sans-Serif" font-size="10.00">+</text>
<text text-anchor="start" x="269" y="-228" font-family="Helvetica,sans-Serif" font-size="10.00">HoneycombMeshGenerator()</text>
<text text-anchor="start" x="256" y="-213" font-family="Helvetica,sans-Serif" font-size="10.00">+</text>
<text text-anchor="start" x="269" y="-213" font-family="Helvetica,sans-Serif" font-size="10.00">HoneycombMeshGenerator()</text>
<text text-anchor="start" x="256" y="-198" font-family="Helvetica,sans-Serif" font-size="10.00">+</text>
<text text-anchor="start" x="269" y="-198" font-family="Helvetica,sans-Serif" font-size="10.00">~HoneycombMeshGenerator()</text>
<text text-anchor="start" x="256" y="-183" font-family="Helvetica,sans-Serif" font-size="10.00">+</text>
<text text-anchor="start" x="269" y="-183" font-family="Helvetica,sans-Serif" font-size="10.00">GetMesh()</text>
<text text-anchor="start" x="256" y="-168" font-family="Helvetica,sans-Serif" font-size="10.00">+</text>
<text text-anchor="start" x="269" y="-168" font-family="Helvetica,sans-Serif" font-size="10.00">GetCellLocationIndices()</text>
<text text-anchor="start" x="256" y="-153" font-family="Helvetica,sans-Serif" font-size="10.00">+</text>
<text text-anchor="start" x="269" y="-153" font-family="Helvetica,sans-Serif" font-size="10.00">GetCircularMesh()</text>
<text text-anchor="start" x="256" y="-138" font-family="Helvetica,sans-Serif" font-size="10.00">+</text>
<text text-anchor="start" x="269" y="-138" font-family="Helvetica,sans-Serif" font-size="10.00">GetDomainDepth()</text>
<text text-anchor="start" x="256" y="-123" font-family="Helvetica,sans-Serif" font-size="10.00">+</text>
<text text-anchor="start" x="269" y="-123" font-family="Helvetica,sans-Serif" font-size="10.00">GetDomainWidth()</text>
<polygon fill="#666666" stroke="#666666" points="252,-253 252,-253 423,-253 423,-253 252,-253"/>
<polygon fill="#666666" stroke="#666666" points="252,-238 252,-238 423,-238 423,-238 252,-238"/>
<polygon fill="none" stroke="#666666" points="251.5,-116 251.5,-270 422.5,-270 422.5,-116 251.5,-116"/>
</a>
</g>
</g>
<!-- Node2&#45;&gt;Node1 -->
<g id="edge1_Node000001_Node000002" class="edge">
<title>Node2&#45;&gt;Node1</title>
<g id="a_edge1_Node000001_Node000002"><a xlink:title=" ">
<path fill="none" stroke="#63b8ff" d="M337,-105.74C337,-96.51 337,-87.49 337,-79.25"/>
<polygon fill="none" stroke="#63b8ff" points="333.5,-105.81 337,-115.81 340.5,-105.81 333.5,-105.81"/>
</a>
</g>
</g>
<!-- Node3 -->
<g id="Node000003" class="node">
<title>Node3</title>
<g id="a_Node000003"><a xlink:title=" ">
<polygon fill="white" stroke="transparent" points="140,-410 0,-410 0,-350 140,-350 140,-410"/>
<text text-anchor="start" x="5" y="-398" font-family="Helvetica,sans-Serif" font-size="10.00">shared_ptr&lt; MutableMesh</text>
<text text-anchor="start" x="44" y="-387" font-family="Helvetica,sans-Serif" font-size="10.00">&lt; 2, 2 &gt; &gt;</text>
<text text-anchor="start" x="68" y="-372" font-family="Helvetica,sans-Serif" font-size="10.00"> </text>
<text text-anchor="start" x="68" y="-357" font-family="Helvetica,sans-Serif" font-size="10.00"> </text>
<polygon fill="#bfbfbf" stroke="#bfbfbf" points="0,-382 0,-382 140,-382 140,-382 0,-382"/>
<polygon fill="#bfbfbf" stroke="#bfbfbf" points="0,-367 0,-367 140,-367 140,-367 0,-367"/>
<polygon fill="none" stroke="#bfbfbf" points="0,-350 0,-410 140,-410 140,-350 0,-350"/>
</a>
</g>
</g>
<!-- Node3&#45;&gt;Node2 -->
<g id="edge2_Node000002_Node000003" class="edge">
<title>Node3&#45;&gt;Node2</title>
<g id="a_edge2_Node000002_Node000003"><a xlink:title=" ">
<path fill="none" stroke="#63b8ff" d="M91,-349.71C105.89,-330.44 127.19,-305.62 150,-288 177.28,-266.93 210.01,-248.57 240.42,-233.8"/>
<polygon fill="none" stroke="#63b8ff" points="240.66,-233.69 244.36,-227.5 251.5,-228.53 247.8,-234.72 240.66,-233.69"/>
</a>
</g>
<text text-anchor="middle" x="177" y="-307.5" font-family="Helvetica,sans-Serif" font-size="10.00" fill="grey"> #mpMesh</text>
</g>
<!-- Node4 -->
<g id="Node000004" class="node">
<title>Node4</title>
<g id="a_Node000004"><a xlink:title=" ">
<polygon fill="white" stroke="transparent" points="250,-404.5 158,-404.5 158,-355.5 250,-355.5 250,-404.5"/>
<text text-anchor="start" x="163" y="-392" font-family="Helvetica,sans-Serif" font-size="10.00">set&lt; unsigned &gt;</text>
<text text-anchor="start" x="202" y="-377" font-family="Helvetica,sans-Serif" font-size="10.00"> </text>
<text text-anchor="start" x="202" y="-362" font-family="Helvetica,sans-Serif" font-size="10.00"> </text>
<polygon fill="#bfbfbf" stroke="#bfbfbf" points="158,-387 158,-387 250,-387 250,-387 158,-387"/>
<polygon fill="#bfbfbf" stroke="#bfbfbf" points="158,-372 158,-372 250,-372 250,-372 158,-372"/>
<polygon fill="none" stroke="#bfbfbf" points="158,-355.5 158,-404.5 250,-404.5 250,-355.5 158,-355.5"/>
</a>
</g>
</g>
<!-- Node4&#45;&gt;Node2 -->
<g id="edge3_Node000002_Node000004" class="edge">
<title>Node4&#45;&gt;Node2</title>
<g id="a_edge3_Node000002_Node000004"><a xlink:title=" ">
<path fill="none" stroke="#63b8ff" d="M204.67,-355.38C206.17,-336.03 210.56,-308.58 223,-288 228.6,-278.73 235.46,-269.96 243,-261.78"/>
<polygon fill="none" stroke="#63b8ff" points="243.05,-261.72 244.38,-254.64 251.43,-253.13 250.1,-260.22 243.05,-261.72"/>
</a>
</g>
<text text-anchor="middle" x="278" y="-307.5" font-family="Helvetica,sans-Serif" font-size="10.00" fill="grey"> #mGhostNodeIndices</text>
</g>
<!-- Node5 -->
<g id="Node000005" class="node">
<title>Node5</title>
<g id="a_Node000005"><a xlink:title=" ">
<polygon fill="white" stroke="transparent" points="356,-404.5 318,-404.5 318,-355.5 356,-355.5 356,-404.5"/>
<text text-anchor="start" x="323" y="-392" font-family="Helvetica,sans-Serif" font-size="10.00">string</text>
<text text-anchor="start" x="335" y="-377" font-family="Helvetica,sans-Serif" font-size="10.00"> </text>
<text text-anchor="start" x="335" y="-362" font-family="Helvetica,sans-Serif" font-size="10.00"> </text>
<polygon fill="#bfbfbf" stroke="#bfbfbf" points="318,-387 318,-387 356,-387 356,-387 318,-387"/>
<polygon fill="#bfbfbf" stroke="#bfbfbf" points="318,-372 318,-372 356,-372 356,-372 318,-372"/>
<polygon fill="none" stroke="#bfbfbf" points="318,-355.5 318,-404.5 356,-404.5 356,-355.5 318,-355.5"/>
</a>
</g>
</g>
<!-- Node5&#45;&gt;Node2 -->
<g id="edge4_Node000002_Node000005" class="edge">
<title>Node5&#45;&gt;Node2</title>
<g id="a_edge4_Node000002_Node000005"><a xlink:title=" ">
<path fill="none" stroke="#63b8ff" d="M337,-355.19C337,-336.49 337,-309.2 337,-282.38"/>
<polygon fill="none" stroke="#63b8ff" points="337,-282.12 333,-276.12 337,-270.12 341,-276.12 337,-282.12"/>
</a>
</g>
<text text-anchor="middle" x="383.5" y="-307.5" font-family="Helvetica,sans-Serif" font-size="10.00" fill="grey"> #mMeshFilename</text>
</g>
<!-- Node6 -->
<g id="Node000006" class="node">
<title>Node6</title>
<g id="a_Node000006"><a xlink:href="classdouble.html" target="_top" xlink:title=" ">
<polygon fill="white" stroke="transparent" points="475,-404.5 431,-404.5 431,-355.5 475,-355.5 475,-404.5"/>
<text text-anchor="start" x="436" y="-392" font-family="Helvetica,sans-Serif" font-size="10.00">double</text>
<text text-anchor="start" x="451" y="-377" font-family="Helvetica,sans-Serif" font-size="10.00"> </text>
<text text-anchor="start" x="451" y="-362" font-family="Helvetica,sans-Serif" font-size="10.00"> </text>
<polygon fill="#bfbfbf" stroke="#bfbfbf" points="431,-387 431,-387 475,-387 475,-387 431,-387"/>
<polygon fill="#bfbfbf" stroke="#bfbfbf" points="431,-372 431,-372 475,-372 475,-372 431,-372"/>
<polygon fill="none" stroke="#bfbfbf" points="431,-355.5 431,-404.5 475,-404.5 475,-355.5 431,-355.5"/>
</a>
</g>
</g>
<!-- Node6&#45;&gt;Node2 -->
<g id="edge5_Node000002_Node000006" class="edge">
<title>Node6&#45;&gt;Node2</title>
<g id="a_edge5_Node000002_Node000006"><a xlink:title=" ">
<path fill="none" stroke="#63b8ff" d="M450.84,-355.28C448.28,-336.12 442.77,-308.98 431,-288 429.49,-285.31 427.89,-282.65 426.2,-280.02"/>
<polygon fill="none" stroke="#63b8ff" points="426.12,-279.9 419.41,-277.24 419.3,-270.03 426,-272.69 426.12,-279.9"/>
</a>
</g>
<text text-anchor="middle" x="489" y="-324" font-family="Helvetica,sans-Serif" font-size="10.00" fill="grey"> #mBottom</text>
<text text-anchor="middle" x="489" y="-313" font-family="Helvetica,sans-Serif" font-size="10.00" fill="grey">#mDomainDepth</text>
<text text-anchor="middle" x="489" y="-302" font-family="Helvetica,sans-Serif" font-size="10.00" fill="grey">#mDomainWidth</text>
<text text-anchor="middle" x="489" y="-291" font-family="Helvetica,sans-Serif" font-size="10.00" fill="grey">#mTop</text>
</g>
<!-- Node7 -->
<g id="Node000007" class="node">
<title>Node7</title>
<g id="a_Node000007"><a xlink:href="classunsigned.html" target="_top" xlink:title=" ">
<polygon fill="white" stroke="transparent" points="589.5,-404.5 534.5,-404.5 534.5,-355.5 589.5,-355.5 589.5,-404.5"/>
<text text-anchor="start" x="540" y="-392" font-family="Helvetica,sans-Serif" font-size="10.00">unsigned</text>
<text text-anchor="start" x="560.5" y="-377" font-family="Helvetica,sans-Serif" font-size="10.00"> </text>
<text text-anchor="start" x="560.5" y="-362" font-family="Helvetica,sans-Serif" font-size="10.00"> </text>
<polygon fill="#bfbfbf" stroke="#bfbfbf" points="535,-387 535,-387 590,-387 590,-387 535,-387"/>
<polygon fill="#bfbfbf" stroke="#bfbfbf" points="535,-372 535,-372 590,-372 590,-372 535,-372"/>
<polygon fill="none" stroke="#bfbfbf" points="534.5,-355.5 534.5,-404.5 589.5,-404.5 589.5,-355.5 534.5,-355.5"/>
</a>
</g>
</g>
<!-- Node7&#45;&gt;Node2 -->
<g id="edge6_Node000002_Node000007" class="edge">
<title>Node7&#45;&gt;Node2</title>
<g id="a_edge6_Node000002_Node000007"><a xlink:title=" ">
<path fill="none" stroke="#63b8ff" d="M560.57,-355.18C558.22,-335.18 552.06,-306.91 536,-288 509.56,-256.85 470.48,-235.32 433.94,-220.81"/>
<polygon fill="none" stroke="#63b8ff" points="433.91,-220.8 426.88,-222.41 422.7,-216.53 429.73,-214.93 433.91,-220.8"/>
</a>
</g>
<text text-anchor="middle" x="604.5" y="-313" font-family="Helvetica,sans-Serif" font-size="10.00" fill="grey"> #mNumCellLength</text>
<text text-anchor="middle" x="604.5" y="-302" font-family="Helvetica,sans-Serif" font-size="10.00" fill="grey">#mNumCellWidth</text>
</g>
</g>
</svg>
