<?xml version="1.0" encoding="UTF-8" standalone="no"?>
<!DOCTYPE svg PUBLIC "-//W3C//DTD SVG 1.1//EN"
 "http://www.w3.org/Graphics/SVG/1.1/DTD/svg11.dtd">
<!-- Generated by graphviz version 2.43.0 (0)
 -->
<!-- Title: EdgeRemapInfo Pages: 1 -->
<svg width="386pt" height="273pt"
 viewBox="0.00 0.00 385.50 273.00" xmlns="http://www.w3.org/2000/svg" xmlns:xlink="http://www.w3.org/1999/xlink">
<g id="graph0" class="graph" transform="scale(1 1) rotate(0) translate(4 269)">
<title>EdgeRemapInfo</title>
<!-- Node1 -->
<g id="Node000001" class="node">
<title>Node1</title>
<g id="a_Node000001"><a xlink:title=" ">
<polygon fill="#999999" stroke="transparent" points="212,-169 88,-169 88,0 212,0 212,-169"/>
<text text-anchor="start" x="111" y="-156.5" font-family="Helvetica,sans-Serif" font-size="10.00">EdgeRemapInfo</text>
<text text-anchor="start" x="148" y="-141.5" font-family="Helvetica,sans-Serif" font-size="10.00"> </text>
<text text-anchor="start" x="92" y="-126.5" font-family="Helvetica,sans-Serif" font-size="10.00">+</text>
<text text-anchor="start" x="105" y="-126.5" font-family="Helvetica,sans-Serif" font-size="10.00">EdgeRemapInfo()</text>
<text text-anchor="start" x="92" y="-111.5" font-family="Helvetica,sans-Serif" font-size="10.00">+</text>
<text text-anchor="start" x="105" y="-111.5" font-family="Helvetica,sans-Serif" font-size="10.00">~EdgeRemapInfo()</text>
<text text-anchor="start" x="92" y="-96.5" font-family="Helvetica,sans-Serif" font-size="10.00">+</text>
<text text-anchor="start" x="105" y="-96.5" font-family="Helvetica,sans-Serif" font-size="10.00">EdgeRemapInfo()</text>
<text text-anchor="start" x="92" y="-81.5" font-family="Helvetica,sans-Serif" font-size="10.00">+</text>
<text text-anchor="start" x="105" y="-81.5" font-family="Helvetica,sans-Serif" font-size="10.00">GetEdgesMapping()</text>
<text text-anchor="start" x="92" y="-66.5" font-family="Helvetica,sans-Serif" font-size="10.00">+</text>
<text text-anchor="start" x="105" y="-66.5" font-family="Helvetica,sans-Serif" font-size="10.00">GetEdgesStatus()</text>
<text text-anchor="start" x="92" y="-51.5" font-family="Helvetica,sans-Serif" font-size="10.00">+</text>
<text text-anchor="start" x="105" y="-51.5" font-family="Helvetica,sans-Serif" font-size="10.00">GetSplitProportions()</text>
<text text-anchor="start" x="92" y="-36.5" font-family="Helvetica,sans-Serif" font-size="10.00">+</text>
<text text-anchor="start" x="105" y="-36.5" font-family="Helvetica,sans-Serif" font-size="10.00">SetSplitProportions()</text>
<text text-anchor="start" x="92" y="-21.5" font-family="Helvetica,sans-Serif" font-size="10.00">+</text>
<text text-anchor="start" x="105" y="-21.5" font-family="Helvetica,sans-Serif" font-size="10.00">GetUnused()</text>
<text text-anchor="start" x="94.5" y="-6.5" font-family="Helvetica,sans-Serif" font-size="10.00">&#45;</text>
<text text-anchor="start" x="105" y="-6.5" font-family="Helvetica,sans-Serif" font-size="10.00">serialize()</text>
<polygon fill="#666666" stroke="#666666" points="88,-151.5 88,-151.5 212,-151.5 212,-151.5 88,-151.5"/>
<polygon fill="#666666" stroke="#666666" points="88,-136.5 88,-136.5 212,-136.5 212,-136.5 88,-136.5"/>
<polygon fill="none" stroke="#666666" points="88,0 88,-169 212,-169 212,0 88,0"/>
</a>
</g>
</g>
<!-- Node2 -->
<g id="Node000002" class="node">
<title>Node2</title>
<g id="a_Node000002"><a xlink:href="classbool.html" target="_top" xlink:title=" ">
<polygon fill="white" stroke="transparent" points="32,-265 0,-265 0,-216 32,-216 32,-265"/>
<text text-anchor="start" x="5" y="-252.5" font-family="Helvetica,sans-Serif" font-size="10.00">bool</text>
<text text-anchor="start" x="14" y="-237.5" font-family="Helvetica,sans-Serif" font-size="10.00"> </text>
<text text-anchor="start" x="14" y="-222.5" font-family="Helvetica,sans-Serif" font-size="10.00"> </text>
<polygon fill="#bfbfbf" stroke="#bfbfbf" points="0,-247.5 0,-247.5 32,-247.5 32,-247.5 0,-247.5"/>
<polygon fill="#bfbfbf" stroke="#bfbfbf" points="0,-232.5 0,-232.5 32,-232.5 32,-232.5 0,-232.5"/>
<polygon fill="none" stroke="#bfbfbf" points="0,-216 0,-265 32,-265 32,-216 0,-216"/>
</a>
</g>
</g>
<!-- Node2&#45;&gt;Node1 -->
<g id="edge1_Node000001_Node000002" class="edge">
<title>Node2&#45;&gt;Node1</title>
<g id="a_edge1_Node000001_Node000002"><a xlink:title=" ">
<path fill="none" stroke="#63b8ff" d="M22.85,-215.86C26.24,-206.39 30.93,-195.69 37,-187 48.74,-170.19 63.77,-154.23 79.01,-140.16"/>
<polygon fill="none" stroke="#63b8ff" points="79.06,-140.11 80.85,-133.13 87.98,-132.09 86.19,-139.08 79.06,-140.11"/>
</a>
</g>
<text text-anchor="middle" x="64" y="-190" font-family="Helvetica,sans-Serif" font-size="10.00" fill="grey"> &#45;mUnused</text>
</g>
<!-- Node3 -->
<g id="Node000003" class="node">
<title>Node3</title>
<g id="a_Node000003"><a xlink:title=" ">
<polygon fill="white" stroke="transparent" points="135.5,-265 50.5,-265 50.5,-216 135.5,-216 135.5,-265"/>
<text text-anchor="start" x="56" y="-252.5" font-family="Helvetica,sans-Serif" font-size="10.00">vector&lt; long &gt;</text>
<text text-anchor="start" x="91.5" y="-237.5" font-family="Helvetica,sans-Serif" font-size="10.00"> </text>
<text text-anchor="start" x="91.5" y="-222.5" font-family="Helvetica,sans-Serif" font-size="10.00"> </text>
<polygon fill="#bfbfbf" stroke="#bfbfbf" points="51,-247.5 51,-247.5 136,-247.5 136,-247.5 51,-247.5"/>
<polygon fill="#bfbfbf" stroke="#bfbfbf" points="51,-232.5 51,-232.5 136,-232.5 136,-232.5 51,-232.5"/>
<polygon fill="none" stroke="#bfbfbf" points="50.5,-216 50.5,-265 135.5,-265 135.5,-216 50.5,-216"/>
</a>
</g>
</g>
<!-- Node3&#45;&gt;Node1 -->
<g id="edge2_Node000001_Node000003" class="edge">
<title>Node3&#45;&gt;Node1</title>
<g id="a_edge2_Node000001_Node000003"><a xlink:title=" ">
<path fill="none" stroke="#63b8ff" d="M93.35,-215.88C93.98,-206.72 95.3,-196.23 98,-187 98.62,-184.88 99.28,-182.76 99.98,-180.63"/>
<polygon fill="none" stroke="#63b8ff" points="100.02,-180.53 98.29,-173.53 104.09,-169.24 105.82,-176.24 100.02,-180.53"/>
</a>
</g>
<text text-anchor="middle" x="142" y="-190" font-family="Helvetica,sans-Serif" font-size="10.00" fill="grey"> &#45;mEdgesMapping</text>
</g>
<!-- Node4 -->
<g id="Node000004" class="node">
<title>Node4</title>
<g id="a_Node000004"><a xlink:title=" ">
<polygon fill="white" stroke="transparent" points="262,-265 154,-265 154,-216 262,-216 262,-265"/>
<text text-anchor="start" x="159" y="-252.5" font-family="Helvetica,sans-Serif" font-size="10.00">vector&lt; unsigned &gt;</text>
<text text-anchor="start" x="206" y="-237.5" font-family="Helvetica,sans-Serif" font-size="10.00"> </text>
<text text-anchor="start" x="206" y="-222.5" font-family="Helvetica,sans-Serif" font-size="10.00"> </text>
<polygon fill="#bfbfbf" stroke="#bfbfbf" points="154,-247.5 154,-247.5 262,-247.5 262,-247.5 154,-247.5"/>
<polygon fill="#bfbfbf" stroke="#bfbfbf" points="154,-232.5 154,-232.5 262,-232.5 262,-232.5 154,-232.5"/>
<polygon fill="none" stroke="#bfbfbf" points="154,-216 154,-265 262,-265 262,-216 154,-216"/>
</a>
</g>
</g>
<!-- Node4&#45;&gt;Node1 -->
<g id="edge3_Node000001_Node000004" class="edge">
<title>Node4&#45;&gt;Node1</title>
<g id="a_edge3_Node000001_Node000004"><a xlink:title=" ">
<path fill="none" stroke="#63b8ff" d="M199.06,-215.77C195.33,-205.86 190.72,-193.62 185.84,-180.66"/>
<polygon fill="none" stroke="#63b8ff" points="185.73,-180.36 179.87,-176.15 181.5,-169.13 187.35,-173.33 185.73,-180.36"/>
</a>
</g>
<text text-anchor="middle" x="226" y="-190" font-family="Helvetica,sans-Serif" font-size="10.00" fill="grey"> &#45;mEdgeStatus</text>
</g>
<!-- Node5 -->
<g id="Node000005" class="node">
<title>Node5</title>
<g id="a_Node000005"><a xlink:title=" ">
<polygon fill="white" stroke="transparent" points="377.5,-265 280.5,-265 280.5,-216 377.5,-216 377.5,-265"/>
<text text-anchor="start" x="286" y="-252.5" font-family="Helvetica,sans-Serif" font-size="10.00">vector&lt; double &gt;</text>
<text text-anchor="start" x="327.5" y="-237.5" font-family="Helvetica,sans-Serif" font-size="10.00"> </text>
<text text-anchor="start" x="327.5" y="-222.5" font-family="Helvetica,sans-Serif" font-size="10.00"> </text>
<polygon fill="#bfbfbf" stroke="#bfbfbf" points="281,-247.5 281,-247.5 378,-247.5 378,-247.5 281,-247.5"/>
<polygon fill="#bfbfbf" stroke="#bfbfbf" points="281,-232.5 281,-232.5 378,-232.5 378,-232.5 281,-232.5"/>
<polygon fill="none" stroke="#bfbfbf" points="280.5,-216 280.5,-265 377.5,-265 377.5,-216 280.5,-216"/>
</a>
</g>
</g>
<!-- Node5&#45;&gt;Node1 -->
<g id="edge4_Node000001_Node000005" class="edge">
<title>Node5&#45;&gt;Node1</title>
<g id="a_edge4_Node000001_Node000005"><a xlink:title=" ">
<path fill="none" stroke="#63b8ff" d="M301.42,-215.77C280.1,-197.43 249.58,-171.17 221.52,-147.03"/>
<polygon fill="none" stroke="#63b8ff" points="221.21,-146.77 214.06,-145.89 212.12,-138.94 219.27,-139.82 221.21,-146.77"/>
</a>
</g>
<text text-anchor="middle" x="323" y="-190" font-family="Helvetica,sans-Serif" font-size="10.00" fill="grey"> &#45;mSplitProportions</text>
</g>
</g>
</svg>
