<?xml version="1.0" encoding="UTF-8" standalone="no"?>
<!DOCTYPE svg PUBLIC "-//W3C//DTD SVG 1.1//EN"
 "http://www.w3.org/Graphics/SVG/1.1/DTD/svg11.dtd">
<!-- Generated by graphviz version 2.43.0 (0)
 -->
<!-- Title: MechanicsEventHandler Pages: 1 -->
<svg width="534pt" height="1038pt"
 viewBox="0.00 0.00 534.15 1038.00" xmlns="http://www.w3.org/2000/svg" xmlns:xlink="http://www.w3.org/1999/xlink">
<g id="graph0" class="graph" transform="scale(1 1) rotate(0) translate(4 1034)">
<title>MechanicsEventHandler</title>
<!-- Node1 -->
<g id="Node000001" class="node">
<title>Node1</title>
<g id="a_Node000001"><a xlink:title=" ">
<polygon fill="#999999" stroke="transparent" points="388.15,-49 260.15,-49 260.15,0 388.15,0 388.15,-49"/>
<text text-anchor="start" x="265.15" y="-36.5" font-family="Helvetica,sans-Serif" font-size="10.00">MechanicsEventHandler</text>
<text text-anchor="start" x="322.15" y="-21.5" font-family="Helvetica,sans-Serif" font-size="10.00"> </text>
<text text-anchor="start" x="322.15" y="-6.5" font-family="Helvetica,sans-Serif" font-size="10.00"> </text>
<polygon fill="#666666" stroke="#666666" points="260.15,-31.5 260.15,-31.5 388.15,-31.5 388.15,-31.5 260.15,-31.5"/>
<polygon fill="#666666" stroke="#666666" points="260.15,-16.5 260.15,-16.5 388.15,-16.5 388.15,-16.5 260.15,-16.5"/>
<polygon fill="none" stroke="#666666" points="260.15,0 260.15,-49 388.15,-49 388.15,0 260.15,0"/>
</a>
</g>
</g>
<!-- Node2 -->
<g id="Node000002" class="node">
<title>Node2</title>
<g id="a_Node000002"><a xlink:href="classGenericEventHandler.html" target="_top" xlink:title=" ">
<polygon fill="white" stroke="transparent" points="336.15,-486 152.15,-486 152.15,-96 336.15,-96 336.15,-486"/>
<text text-anchor="start" x="167.65" y="-474" font-family="Helvetica,sans-Serif" font-size="10.00">GenericEventHandler</text>
<text text-anchor="start" x="167.65" y="-463" font-family="Helvetica,sans-Serif" font-size="10.00">&lt; 7, MechanicsEventHandler &gt;</text>
<text text-anchor="start" x="242.15" y="-448" font-family="Helvetica,sans-Serif" font-size="10.00"> </text>
<text text-anchor="start" x="156.15" y="-433" font-family="Helvetica,sans-Serif" font-size="10.00">+</text>
<text text-anchor="start" x="169.15" y="-433" font-family="Helvetica,sans-Serif" font-size="10.00">Instance()</text>
<text text-anchor="start" x="156.15" y="-418" font-family="Helvetica,sans-Serif" font-size="10.00">+</text>
<text text-anchor="start" x="169.15" y="-418" font-family="Helvetica,sans-Serif" font-size="10.00">Reset()</text>
<text text-anchor="start" x="156.15" y="-403" font-family="Helvetica,sans-Serif" font-size="10.00">+</text>
<text text-anchor="start" x="169.15" y="-403" font-family="Helvetica,sans-Serif" font-size="10.00">BeginEvent()</text>
<text text-anchor="start" x="156.15" y="-388" font-family="Helvetica,sans-Serif" font-size="10.00">+</text>
<text text-anchor="start" x="169.15" y="-388" font-family="Helvetica,sans-Serif" font-size="10.00">EndEvent()</text>
<text text-anchor="start" x="156.15" y="-373" font-family="Helvetica,sans-Serif" font-size="10.00">+</text>
<text text-anchor="start" x="169.15" y="-373" font-family="Helvetica,sans-Serif" font-size="10.00">GetElapsedTime()</text>
<text text-anchor="start" x="156.15" y="-358" font-family="Helvetica,sans-Serif" font-size="10.00">+</text>
<text text-anchor="start" x="169.15" y="-358" font-family="Helvetica,sans-Serif" font-size="10.00">Report()</text>
<text text-anchor="start" x="156.15" y="-343" font-family="Helvetica,sans-Serif" font-size="10.00">+</text>
<text text-anchor="start" x="169.15" y="-343" font-family="Helvetica,sans-Serif" font-size="10.00">Headings()</text>
<text text-anchor="start" x="156.15" y="-328" font-family="Helvetica,sans-Serif" font-size="10.00">+</text>
<text text-anchor="start" x="169.15" y="-328" font-family="Helvetica,sans-Serif" font-size="10.00">Enable()</text>
<text text-anchor="start" x="156.15" y="-313" font-family="Helvetica,sans-Serif" font-size="10.00">+</text>
<text text-anchor="start" x="169.15" y="-313" font-family="Helvetica,sans-Serif" font-size="10.00">Disable()</text>
<text text-anchor="start" x="156.15" y="-298" font-family="Helvetica,sans-Serif" font-size="10.00">+</text>
<text text-anchor="start" x="169.15" y="-298" font-family="Helvetica,sans-Serif" font-size="10.00">IsEnabled()</text>
<text text-anchor="start" x="156.15" y="-283" font-family="Helvetica,sans-Serif" font-size="10.00">#</text>
<text text-anchor="start" x="169.15" y="-283" font-family="Helvetica,sans-Serif" font-size="10.00">GenericEventHandler()</text>
<text text-anchor="start" x="158.65" y="-268" font-family="Helvetica,sans-Serif" font-size="10.00">&#45;</text>
<text text-anchor="start" x="169.15" y="-268" font-family="Helvetica,sans-Serif" font-size="10.00">ConvertWallTimeToMilliseconds()</text>
<text text-anchor="start" x="158.65" y="-253" font-family="Helvetica,sans-Serif" font-size="10.00">&#45;</text>
<text text-anchor="start" x="169.15" y="-253" font-family="Helvetica,sans-Serif" font-size="10.00">ConvertWallTimeToSeconds()</text>
<text text-anchor="start" x="158.65" y="-238" font-family="Helvetica,sans-Serif" font-size="10.00">&#45;</text>
<text text-anchor="start" x="169.15" y="-238" font-family="Helvetica,sans-Serif" font-size="10.00">ResetImpl()</text>
<text text-anchor="start" x="158.65" y="-223" font-family="Helvetica,sans-Serif" font-size="10.00">&#45;</text>
<text text-anchor="start" x="169.15" y="-223" font-family="Helvetica,sans-Serif" font-size="10.00">BeginEventImpl()</text>
<text text-anchor="start" x="158.65" y="-208" font-family="Helvetica,sans-Serif" font-size="10.00">&#45;</text>
<text text-anchor="start" x="169.15" y="-208" font-family="Helvetica,sans-Serif" font-size="10.00">EndEventImpl()</text>
<text text-anchor="start" x="158.65" y="-193" font-family="Helvetica,sans-Serif" font-size="10.00">&#45;</text>
<text text-anchor="start" x="169.15" y="-193" font-family="Helvetica,sans-Serif" font-size="10.00">GetElapsedTimeImpl()</text>
<text text-anchor="start" x="158.65" y="-178" font-family="Helvetica,sans-Serif" font-size="10.00">&#45;</text>
<text text-anchor="start" x="169.15" y="-178" font-family="Helvetica,sans-Serif" font-size="10.00">ReportImpl()</text>
<text text-anchor="start" x="158.65" y="-163" font-family="Helvetica,sans-Serif" font-size="10.00">&#45;</text>
<text text-anchor="start" x="169.15" y="-163" font-family="Helvetica,sans-Serif" font-size="10.00">HeadingsImpl()</text>
<text text-anchor="start" x="158.65" y="-148" font-family="Helvetica,sans-Serif" font-size="10.00">&#45;</text>
<text text-anchor="start" x="169.15" y="-148" font-family="Helvetica,sans-Serif" font-size="10.00">EnableImpl()</text>
<text text-anchor="start" x="158.65" y="-133" font-family="Helvetica,sans-Serif" font-size="10.00">&#45;</text>
<text text-anchor="start" x="169.15" y="-133" font-family="Helvetica,sans-Serif" font-size="10.00">DisableImpl()</text>
<text text-anchor="start" x="158.65" y="-118" font-family="Helvetica,sans-Serif" font-size="10.00">&#45;</text>
<text text-anchor="start" x="169.15" y="-118" font-family="Helvetica,sans-Serif" font-size="10.00">IsEnabledImpl()</text>
<text text-anchor="start" x="158.65" y="-103" font-family="Helvetica,sans-Serif" font-size="10.00">&#45;</text>
<text text-anchor="start" x="169.15" y="-103" font-family="Helvetica,sans-Serif" font-size="10.00">MilliSleep()</text>
<polygon fill="#666666" stroke="#666666" points="152.15,-458 152.15,-458 336.15,-458 336.15,-458 152.15,-458"/>
<polygon fill="#666666" stroke="#666666" points="152.15,-443 152.15,-443 336.15,-443 336.15,-443 152.15,-443"/>
<polygon fill="none" stroke="#666666" points="152.15,-96 152.15,-486 336.15,-486 336.15,-96 152.15,-96"/>
</a>
</g>
</g>
<!-- Node2&#45;&gt;Node1 -->
<g id="edge1_Node000001_Node000002" class="edge">
<title>Node2&#45;&gt;Node1</title>
<g id="a_edge1_Node000001_Node000002"><a xlink:title=" ">
<path fill="none" stroke="#63b8ff" d="M305.93,-85.72C310.18,-71.66 313.96,-59.17 316.96,-49.26"/>
<polygon fill="none" stroke="#63b8ff" points="302.46,-85.1 302.92,-95.69 309.16,-87.13 302.46,-85.1"/>
</a>
</g>
</g>
<!-- Node3 -->
<g id="Node000003" class="node">
<title>Node3</title>
<g id="a_Node000003"><a xlink:title=" ">
<polygon fill="white" stroke="transparent" points="127.65,-1030 30.65,-1030 30.65,-981 127.65,-981 127.65,-1030"/>
<text text-anchor="start" x="36.15" y="-1017.5" font-family="Helvetica,sans-Serif" font-size="10.00">vector&lt; double &gt;</text>
<text text-anchor="start" x="77.65" y="-1002.5" font-family="Helvetica,sans-Serif" font-size="10.00"> </text>
<text text-anchor="start" x="77.65" y="-987.5" font-family="Helvetica,sans-Serif" font-size="10.00"> </text>
<polygon fill="#bfbfbf" stroke="#bfbfbf" points="31.15,-1012.5 31.15,-1012.5 128.15,-1012.5 128.15,-1012.5 31.15,-1012.5"/>
<polygon fill="#bfbfbf" stroke="#bfbfbf" points="31.15,-997.5 31.15,-997.5 128.15,-997.5 128.15,-997.5 31.15,-997.5"/>
<polygon fill="none" stroke="#bfbfbf" points="30.65,-981 30.65,-1030 127.65,-1030 127.65,-981 30.65,-981"/>
</a>
</g>
</g>
<!-- Node3&#45;&gt;Node2 -->
<g id="edge2_Node000002_Node000003" class="edge">
<title>Node3&#45;&gt;Node2</title>
<g id="a_edge2_Node000002_Node000003"><a xlink:title=" ">
<path fill="none" stroke="#63b8ff" d="M63.43,-980.68C54.05,-965.01 43.05,-943.65 38.15,-923 -1.88,-754.35 -21.88,-695.61 38.15,-533 59.68,-474.67 102.32,-420.89 143.25,-379"/>
<polygon fill="none" stroke="#63b8ff" points="143.49,-378.76 144.88,-371.69 151.95,-370.25 150.56,-377.32 143.49,-378.76"/>
</a>
</g>
<text text-anchor="middle" x="69.65" y="-725.5" font-family="Helvetica,sans-Serif" font-size="10.00" fill="grey"> &#45;mWallTime</text>
</g>
<!-- Node6 -->
<g id="Node000006" class="node">
<title>Node6</title>
<g id="a_Node000006"><a xlink:href="classGenericEventHandler.html" target="_top" xlink:title=" ">
<polygon fill="white" stroke="transparent" points="294.15,-923 110.15,-923 110.15,-533 294.15,-533 294.15,-923"/>
<text text-anchor="start" x="127.15" y="-911" font-family="Helvetica,sans-Serif" font-size="10.00">GenericEventHandler</text>
<text text-anchor="start" x="127.15" y="-900" font-family="Helvetica,sans-Serif" font-size="10.00">&lt; NUM_EVENTS, CONCRETE &gt;</text>
<text text-anchor="start" x="200.15" y="-885" font-family="Helvetica,sans-Serif" font-size="10.00"> </text>
<text text-anchor="start" x="114.15" y="-870" font-family="Helvetica,sans-Serif" font-size="10.00">+</text>
<text text-anchor="start" x="127.15" y="-870" font-family="Helvetica,sans-Serif" font-size="10.00">Instance()</text>
<text text-anchor="start" x="114.15" y="-855" font-family="Helvetica,sans-Serif" font-size="10.00">+</text>
<text text-anchor="start" x="127.15" y="-855" font-family="Helvetica,sans-Serif" font-size="10.00">Reset()</text>
<text text-anchor="start" x="114.15" y="-840" font-family="Helvetica,sans-Serif" font-size="10.00">+</text>
<text text-anchor="start" x="127.15" y="-840" font-family="Helvetica,sans-Serif" font-size="10.00">BeginEvent()</text>
<text text-anchor="start" x="114.15" y="-825" font-family="Helvetica,sans-Serif" font-size="10.00">+</text>
<text text-anchor="start" x="127.15" y="-825" font-family="Helvetica,sans-Serif" font-size="10.00">EndEvent()</text>
<text text-anchor="start" x="114.15" y="-810" font-family="Helvetica,sans-Serif" font-size="10.00">+</text>
<text text-anchor="start" x="127.15" y="-810" font-family="Helvetica,sans-Serif" font-size="10.00">GetElapsedTime()</text>
<text text-anchor="start" x="114.15" y="-795" font-family="Helvetica,sans-Serif" font-size="10.00">+</text>
<text text-anchor="start" x="127.15" y="-795" font-family="Helvetica,sans-Serif" font-size="10.00">Report()</text>
<text text-anchor="start" x="114.15" y="-780" font-family="Helvetica,sans-Serif" font-size="10.00">+</text>
<text text-anchor="start" x="127.15" y="-780" font-family="Helvetica,sans-Serif" font-size="10.00">Headings()</text>
<text text-anchor="start" x="114.15" y="-765" font-family="Helvetica,sans-Serif" font-size="10.00">+</text>
<text text-anchor="start" x="127.15" y="-765" font-family="Helvetica,sans-Serif" font-size="10.00">Enable()</text>
<text text-anchor="start" x="114.15" y="-750" font-family="Helvetica,sans-Serif" font-size="10.00">+</text>
<text text-anchor="start" x="127.15" y="-750" font-family="Helvetica,sans-Serif" font-size="10.00">Disable()</text>
<text text-anchor="start" x="114.15" y="-735" font-family="Helvetica,sans-Serif" font-size="10.00">+</text>
<text text-anchor="start" x="127.15" y="-735" font-family="Helvetica,sans-Serif" font-size="10.00">IsEnabled()</text>
<text text-anchor="start" x="114.15" y="-720" font-family="Helvetica,sans-Serif" font-size="10.00">#</text>
<text text-anchor="start" x="127.15" y="-720" font-family="Helvetica,sans-Serif" font-size="10.00">GenericEventHandler()</text>
<text text-anchor="start" x="116.65" y="-705" font-family="Helvetica,sans-Serif" font-size="10.00">&#45;</text>
<text text-anchor="start" x="127.15" y="-705" font-family="Helvetica,sans-Serif" font-size="10.00">ConvertWallTimeToMilliseconds()</text>
<text text-anchor="start" x="116.65" y="-690" font-family="Helvetica,sans-Serif" font-size="10.00">&#45;</text>
<text text-anchor="start" x="127.15" y="-690" font-family="Helvetica,sans-Serif" font-size="10.00">ConvertWallTimeToSeconds()</text>
<text text-anchor="start" x="116.65" y="-675" font-family="Helvetica,sans-Serif" font-size="10.00">&#45;</text>
<text text-anchor="start" x="127.15" y="-675" font-family="Helvetica,sans-Serif" font-size="10.00">ResetImpl()</text>
<text text-anchor="start" x="116.65" y="-660" font-family="Helvetica,sans-Serif" font-size="10.00">&#45;</text>
<text text-anchor="start" x="127.15" y="-660" font-family="Helvetica,sans-Serif" font-size="10.00">BeginEventImpl()</text>
<text text-anchor="start" x="116.65" y="-645" font-family="Helvetica,sans-Serif" font-size="10.00">&#45;</text>
<text text-anchor="start" x="127.15" y="-645" font-family="Helvetica,sans-Serif" font-size="10.00">EndEventImpl()</text>
<text text-anchor="start" x="116.65" y="-630" font-family="Helvetica,sans-Serif" font-size="10.00">&#45;</text>
<text text-anchor="start" x="127.15" y="-630" font-family="Helvetica,sans-Serif" font-size="10.00">GetElapsedTimeImpl()</text>
<text text-anchor="start" x="116.65" y="-615" font-family="Helvetica,sans-Serif" font-size="10.00">&#45;</text>
<text text-anchor="start" x="127.15" y="-615" font-family="Helvetica,sans-Serif" font-size="10.00">ReportImpl()</text>
<text text-anchor="start" x="116.65" y="-600" font-family="Helvetica,sans-Serif" font-size="10.00">&#45;</text>
<text text-anchor="start" x="127.15" y="-600" font-family="Helvetica,sans-Serif" font-size="10.00">HeadingsImpl()</text>
<text text-anchor="start" x="116.65" y="-585" font-family="Helvetica,sans-Serif" font-size="10.00">&#45;</text>
<text text-anchor="start" x="127.15" y="-585" font-family="Helvetica,sans-Serif" font-size="10.00">EnableImpl()</text>
<text text-anchor="start" x="116.65" y="-570" font-family="Helvetica,sans-Serif" font-size="10.00">&#45;</text>
<text text-anchor="start" x="127.15" y="-570" font-family="Helvetica,sans-Serif" font-size="10.00">DisableImpl()</text>
<text text-anchor="start" x="116.65" y="-555" font-family="Helvetica,sans-Serif" font-size="10.00">&#45;</text>
<text text-anchor="start" x="127.15" y="-555" font-family="Helvetica,sans-Serif" font-size="10.00">IsEnabledImpl()</text>
<text text-anchor="start" x="116.65" y="-540" font-family="Helvetica,sans-Serif" font-size="10.00">&#45;</text>
<text text-anchor="start" x="127.15" y="-540" font-family="Helvetica,sans-Serif" font-size="10.00">MilliSleep()</text>
<polygon fill="#666666" stroke="#666666" points="110.15,-895 110.15,-895 294.15,-895 294.15,-895 110.15,-895"/>
<polygon fill="#666666" stroke="#666666" points="110.15,-880 110.15,-880 294.15,-880 294.15,-880 110.15,-880"/>
<polygon fill="none" stroke="#666666" points="110.15,-533 110.15,-923 294.15,-923 294.15,-533 110.15,-533"/>
</a>
</g>
</g>
<!-- Node3&#45;&gt;Node6 -->
<g id="edge6_Node000006_Node000003" class="edge">
<title>Node3&#45;&gt;Node6</title>
<g id="a_edge6_Node000006_Node000003"><a xlink:title=" ">
<path fill="none" stroke="#63b8ff" d="M89.85,-980.53C95.27,-968.39 102.41,-952.39 110.48,-934.32"/>
<polygon fill="none" stroke="#63b8ff" points="110.57,-934.1 109.37,-927 115.47,-923.15 116.67,-930.26 110.57,-934.1"/>
</a>
</g>
<text text-anchor="middle" x="137.65" y="-949.5" font-family="Helvetica,sans-Serif" font-size="10.00" fill="grey"> &#45;mWallTime</text>
</g>
<!-- Node4 -->
<g id="Node000004" class="node">
<title>Node4</title>
<g id="a_Node000004"><a xlink:title=" ">
<polygon fill="white" stroke="transparent" points="446.65,-1030 361.65,-1030 361.65,-981 446.65,-981 446.65,-1030"/>
<text text-anchor="start" x="367.15" y="-1017.5" font-family="Helvetica,sans-Serif" font-size="10.00">vector&lt; bool &gt;</text>
<text text-anchor="start" x="402.65" y="-1002.5" font-family="Helvetica,sans-Serif" font-size="10.00"> </text>
<text text-anchor="start" x="402.65" y="-987.5" font-family="Helvetica,sans-Serif" font-size="10.00"> </text>
<polygon fill="#bfbfbf" stroke="#bfbfbf" points="362.15,-1012.5 362.15,-1012.5 447.15,-1012.5 447.15,-1012.5 362.15,-1012.5"/>
<polygon fill="#bfbfbf" stroke="#bfbfbf" points="362.15,-997.5 362.15,-997.5 447.15,-997.5 447.15,-997.5 362.15,-997.5"/>
<polygon fill="none" stroke="#bfbfbf" points="361.65,-981 361.65,-1030 446.65,-1030 446.65,-981 361.65,-981"/>
</a>
</g>
</g>
<!-- Node4&#45;&gt;Node2 -->
<g id="edge3_Node000002_Node000004" class="edge">
<title>Node4&#45;&gt;Node2</title>
<g id="a_edge3_Node000002_Node000004"><a xlink:title=" ">
<path fill="none" stroke="#63b8ff" d="M412.7,-980.75C437.28,-908.22 501.19,-685.23 418.15,-533 399.67,-499.12 371.15,-514.51 345.15,-486 344.96,-485.8 344.78,-485.6 344.6,-485.39"/>
<polygon fill="none" stroke="#63b8ff" points="344.35,-485.11 337.4,-483.19 336.5,-476.03 343.45,-477.95 344.35,-485.11"/>
</a>
</g>
<text text-anchor="middle" x="492.65" y="-725.5" font-family="Helvetica,sans-Serif" font-size="10.00" fill="grey"> &#45;mHasBegun</text>
</g>
<!-- Node4&#45;&gt;Node6 -->
<g id="edge7_Node000006_Node000004" class="edge">
<title>Node4&#45;&gt;Node6</title>
<g id="a_edge7_Node000006_Node000004"><a xlink:title=" ">
<path fill="none" stroke="#63b8ff" d="M370.31,-980.72C350.57,-965.71 326.09,-945.04 308.15,-923 305.93,-920.28 303.74,-917.51 301.57,-914.69"/>
<polygon fill="none" stroke="#63b8ff" points="301.47,-914.55 294.68,-912.14 294.29,-904.94 301.09,-907.35 301.47,-914.55"/>
</a>
</g>
<text text-anchor="middle" x="380.65" y="-949.5" font-family="Helvetica,sans-Serif" font-size="10.00" fill="grey"> &#45;mHasBegun</text>
</g>
<!-- Node5 -->
<g id="Node000005" class="node">
<title>Node5</title>
<g id="a_Node000005"><a xlink:href="classbool.html" target="_top" xlink:title=" ">
<polygon fill="white" stroke="transparent" points="294.15,-1030 262.15,-1030 262.15,-981 294.15,-981 294.15,-1030"/>
<text text-anchor="start" x="267.15" y="-1017.5" font-family="Helvetica,sans-Serif" font-size="10.00">bool</text>
<text text-anchor="start" x="276.15" y="-1002.5" font-family="Helvetica,sans-Serif" font-size="10.00"> </text>
<text text-anchor="start" x="276.15" y="-987.5" font-family="Helvetica,sans-Serif" font-size="10.00"> </text>
<polygon fill="#bfbfbf" stroke="#bfbfbf" points="262.15,-1012.5 262.15,-1012.5 294.15,-1012.5 294.15,-1012.5 262.15,-1012.5"/>
<polygon fill="#bfbfbf" stroke="#bfbfbf" points="262.15,-997.5 262.15,-997.5 294.15,-997.5 294.15,-997.5 262.15,-997.5"/>
<polygon fill="none" stroke="#bfbfbf" points="262.15,-981 262.15,-1030 294.15,-1030 294.15,-981 262.15,-981"/>
</a>
</g>
</g>
<!-- Node5&#45;&gt;Node2 -->
<g id="edge4_Node000002_Node000005" class="edge">
<title>Node5&#45;&gt;Node2</title>
<g id="a_edge4_Node000002_Node000005"><a xlink:title=" ">
<path fill="none" stroke="#63b8ff" d="M294.54,-991.78C302.71,-984.38 311.76,-974.29 316.15,-963 390.05,-772.86 349.39,-705.27 316.15,-504 315.81,-501.96 315.45,-499.91 315.08,-497.85"/>
<polygon fill="none" stroke="#63b8ff" points="315.07,-497.8 310,-492.68 312.79,-486.02 317.86,-491.15 315.07,-497.8"/>
</a>
</g>
<text text-anchor="middle" x="386.15" y="-731" font-family="Helvetica,sans-Serif" font-size="10.00" fill="grey"> &#45;mEnabled</text>
<text text-anchor="middle" x="386.15" y="-720" font-family="Helvetica,sans-Serif" font-size="10.00" fill="grey">&#45;mInUse</text>
</g>
<!-- Node5&#45;&gt;Node6 -->
<g id="edge8_Node000006_Node000005" class="edge">
<title>Node5&#45;&gt;Node6</title>
<g id="a_edge8_Node000006_Node000005"><a xlink:title=" ">
<path fill="none" stroke="#63b8ff" d="M266.99,-980.63C264.55,-974.92 262.11,-968.8 260.15,-963 257.05,-953.84 254.04,-944.43 251.12,-934.88"/>
<polygon fill="none" stroke="#63b8ff" points="251.06,-934.67 245.51,-930.07 247.61,-923.18 253.17,-927.78 251.06,-934.67"/>
</a>
</g>
<text text-anchor="middle" x="288.15" y="-955" font-family="Helvetica,sans-Serif" font-size="10.00" fill="grey"> &#45;mEnabled</text>
<text text-anchor="middle" x="288.15" y="-944" font-family="Helvetica,sans-Serif" font-size="10.00" fill="grey">&#45;mInUse</text>
</g>
<!-- Node6&#45;&gt;Node2 -->
<g id="edge5_Node000002_Node000006" class="edge">
<title>Node6&#45;&gt;Node2</title>
<g id="a_edge5_Node000002_Node000006"><a xlink:title=" ">
<path fill="none" stroke="orange" d="M157.49,-522.92C158.09,-516.54 158.96,-510.22 160.15,-504 161.28,-498.07 162.57,-492.09 164.01,-486.1"/>
<polygon fill="orange" stroke="orange" points="153.99,-522.78 156.79,-533 160.98,-523.26 153.99,-522.78"/>
</a>
</g>
<text text-anchor="middle" x="238.15" y="-507" font-family="Helvetica,sans-Serif" font-size="10.00" fill="grey"> &lt; 7, MechanicsEventHandler &gt;</text>
</g>
<!-- Node7 -->
<g id="Node000007" class="node">
<title>Node7</title>
<g id="a_Node000007"><a xlink:title=" ">
<polygon fill="white" stroke="transparent" points="453.65,-315.5 354.65,-315.5 354.65,-266.5 453.65,-266.5 453.65,-315.5"/>
<text text-anchor="start" x="360.15" y="-303" font-family="Helvetica,sans-Serif" font-size="10.00">static const char *</text>
<text text-anchor="start" x="402.65" y="-288" font-family="Helvetica,sans-Serif" font-size="10.00"> </text>
<text text-anchor="start" x="402.65" y="-273" font-family="Helvetica,sans-Serif" font-size="10.00"> </text>
<polygon fill="#bfbfbf" stroke="#bfbfbf" points="355.15,-298 355.15,-298 454.15,-298 454.15,-298 355.15,-298"/>
<polygon fill="#bfbfbf" stroke="#bfbfbf" points="355.15,-283 355.15,-283 454.15,-283 454.15,-283 355.15,-283"/>
<polygon fill="none" stroke="#bfbfbf" points="354.65,-266.5 354.65,-315.5 453.65,-315.5 453.65,-266.5 354.65,-266.5"/>
</a>
</g>
</g>
<!-- Node7&#45;&gt;Node1 -->
<g id="edge9_Node000001_Node000007" class="edge">
<title>Node7&#45;&gt;Node1</title>
<g id="a_edge9_Node000001_Node000007"><a xlink:title=" ">
<path fill="none" stroke="#63b8ff" d="M396.91,-266.06C382.75,-219.24 351.33,-115.38 334.79,-60.71"/>
<polygon fill="none" stroke="#63b8ff" points="334.79,-60.68 329.22,-56.1 331.31,-49.19 336.88,-53.78 334.79,-60.68"/>
</a>
</g>
<text text-anchor="middle" x="374.65" y="-70" font-family="Helvetica,sans-Serif" font-size="10.00" fill="grey"> +EventName</text>
</g>
</g>
</svg>
