<?xml version="1.0" encoding="UTF-8" standalone="no"?>
<!DOCTYPE svg PUBLIC "-//W3C//DTD SVG 1.1//EN"
 "http://www.w3.org/Graphics/SVG/1.1/DTD/svg11.dtd">
<!-- Generated by graphviz version 2.43.0 (0)
 -->
<!-- Title: SingleTraceOutputModifier Pages: 1 -->
<svg width="412pt" height="425pt"
 viewBox="0.00 0.00 411.50 425.00" xmlns="http://www.w3.org/2000/svg" xmlns:xlink="http://www.w3.org/1999/xlink">
<g id="graph0" class="graph" transform="scale(1 1) rotate(0) translate(4 421)">
<title>SingleTraceOutputModifier</title>
<!-- Node1 -->
<g id="Node000001" class="node">
<title>Node1</title>
<g id="a_Node000001"><a xlink:title=" ">
<polygon fill="#999999" stroke="transparent" points="290,-124 127,-124 127,0 290,0 290,-124"/>
<text text-anchor="start" x="144.5" y="-112" font-family="Helvetica,sans-Serif" font-size="10.00">SingleTraceOutputModifier</text>
<text text-anchor="start" x="207" y="-97" font-family="Helvetica,sans-Serif" font-size="10.00"> </text>
<text text-anchor="start" x="131.5" y="-82" font-family="Helvetica,sans-Serif" font-size="10.00">+</text>
<text text-anchor="start" x="144.5" y="-82" font-family="Helvetica,sans-Serif" font-size="10.00">SingleTraceOutputModifier()</text>
<text text-anchor="start" x="131.5" y="-67" font-family="Helvetica,sans-Serif" font-size="10.00">+</text>
<text text-anchor="start" x="144.5" y="-67" font-family="Helvetica,sans-Serif" font-size="10.00">InitialiseAtStart()</text>
<text text-anchor="start" x="131.5" y="-52" font-family="Helvetica,sans-Serif" font-size="10.00">+</text>
<text text-anchor="start" x="144.5" y="-52" font-family="Helvetica,sans-Serif" font-size="10.00">FinaliseAtEnd()</text>
<text text-anchor="start" x="131.5" y="-37" font-family="Helvetica,sans-Serif" font-size="10.00">+</text>
<text text-anchor="start" x="144.5" y="-37" font-family="Helvetica,sans-Serif" font-size="10.00">ProcessSolutionAtTimeStep()</text>
<text text-anchor="start" x="134" y="-22" font-family="Helvetica,sans-Serif" font-size="10.00">&#45;</text>
<text text-anchor="start" x="144.5" y="-22" font-family="Helvetica,sans-Serif" font-size="10.00">serialize()</text>
<text text-anchor="start" x="134" y="-7" font-family="Helvetica,sans-Serif" font-size="10.00">&#45;</text>
<text text-anchor="start" x="144.5" y="-7" font-family="Helvetica,sans-Serif" font-size="10.00">SingleTraceOutputModifier()</text>
<polygon fill="#666666" stroke="#666666" points="127.5,-107 127.5,-107 290.5,-107 290.5,-107 127.5,-107"/>
<polygon fill="#666666" stroke="#666666" points="127.5,-92 127.5,-92 290.5,-92 290.5,-92 127.5,-92"/>
<polygon fill="none" stroke="#666666" points="127,0 127,-124 290,-124 290,0 127,0"/>
</a>
</g>
</g>
<!-- Node2 -->
<g id="Node000002" class="node">
<title>Node2</title>
<g id="a_Node000002"><a xlink:href="classAbstractOutputModifier.html" target="_top" xlink:title=" ">
<polygon fill="white" stroke="transparent" points="163,-321 0,-321 0,-182 163,-182 163,-321"/>
<text text-anchor="start" x="25" y="-308.5" font-family="Helvetica,sans-Serif" font-size="10.00">AbstractOutputModifier</text>
<text text-anchor="start" x="80" y="-293.5" font-family="Helvetica,sans-Serif" font-size="10.00"> </text>
<text text-anchor="start" x="4.5" y="-278.5" font-family="Helvetica,sans-Serif" font-size="10.00">+</text>
<text text-anchor="start" x="17.5" y="-278.5" font-family="Helvetica,sans-Serif" font-size="10.00">AbstractOutputModifier()</text>
<text text-anchor="start" x="4.5" y="-263.5" font-family="Helvetica,sans-Serif" font-size="10.00">+</text>
<text text-anchor="start" x="17.5" y="-263.5" font-family="Helvetica,sans-Serif" font-size="10.00">~AbstractOutputModifier()</text>
<text text-anchor="start" x="4.5" y="-248.5" font-family="Helvetica,sans-Serif" font-size="10.00">+</text>
<text text-anchor="start" x="17.5" y="-248.5" font-family="Helvetica,sans-Serif" font-size="10.00">InitialiseAtStart()</text>
<text text-anchor="start" x="4.5" y="-233.5" font-family="Helvetica,sans-Serif" font-size="10.00">+</text>
<text text-anchor="start" x="17.5" y="-233.5" font-family="Helvetica,sans-Serif" font-size="10.00">FinaliseAtEnd()</text>
<text text-anchor="start" x="4.5" y="-218.5" font-family="Helvetica,sans-Serif" font-size="10.00">+</text>
<text text-anchor="start" x="17.5" y="-218.5" font-family="Helvetica,sans-Serif" font-size="10.00">ProcessSolutionAtTimeStep()</text>
<text text-anchor="start" x="4.5" y="-203.5" font-family="Helvetica,sans-Serif" font-size="10.00">#</text>
<text text-anchor="start" x="17.5" y="-203.5" font-family="Helvetica,sans-Serif" font-size="10.00">AbstractOutputModifier()</text>
<text text-anchor="start" x="7" y="-188.5" font-family="Helvetica,sans-Serif" font-size="10.00">&#45;</text>
<text text-anchor="start" x="17.5" y="-188.5" font-family="Helvetica,sans-Serif" font-size="10.00">serialize()</text>
<polygon fill="#666666" stroke="#666666" points="0.5,-303.5 0.5,-303.5 163.5,-303.5 163.5,-303.5 0.5,-303.5"/>
<polygon fill="#666666" stroke="#666666" points="0.5,-288.5 0.5,-288.5 163.5,-288.5 163.5,-288.5 0.5,-288.5"/>
<polygon fill="none" stroke="#666666" points="0,-182 0,-321 163,-321 163,-182 0,-182"/>
</a>
</g>
</g>
<!-- Node2&#45;&gt;Node1 -->
<g id="edge1_Node000001_Node000002" class="edge">
<title>Node2&#45;&gt;Node1</title>
<g id="a_edge1_Node000001_Node000002"><a xlink:title=" ">
<path fill="none" stroke="#63b8ff" d="M133.8,-173.28C144.86,-156.96 156.38,-139.95 166.98,-124.31"/>
<polygon fill="none" stroke="#63b8ff" points="130.78,-171.5 128.07,-181.75 136.57,-175.43 130.78,-171.5"/>
</a>
</g>
</g>
<!-- Node3 -->
<g id="Node000003" class="node">
<title>Node3</title>
<g id="a_Node000003"><a xlink:title=" ">
<polygon fill="white" stroke="transparent" points="55.5,-417 17.5,-417 17.5,-368 55.5,-368 55.5,-417"/>
<text text-anchor="start" x="22.5" y="-404.5" font-family="Helvetica,sans-Serif" font-size="10.00">string</text>
<text text-anchor="start" x="34.5" y="-389.5" font-family="Helvetica,sans-Serif" font-size="10.00"> </text>
<text text-anchor="start" x="34.5" y="-374.5" font-family="Helvetica,sans-Serif" font-size="10.00"> </text>
<polygon fill="#bfbfbf" stroke="#bfbfbf" points="17.5,-399.5 17.5,-399.5 55.5,-399.5 55.5,-399.5 17.5,-399.5"/>
<polygon fill="#bfbfbf" stroke="#bfbfbf" points="17.5,-384.5 17.5,-384.5 55.5,-384.5 55.5,-384.5 17.5,-384.5"/>
<polygon fill="none" stroke="#bfbfbf" points="17.5,-368 17.5,-417 55.5,-417 55.5,-368 17.5,-368"/>
</a>
</g>
</g>
<!-- Node3&#45;&gt;Node2 -->
<g id="edge2_Node000002_Node000003" class="edge">
<title>Node3&#45;&gt;Node2</title>
<g id="a_edge2_Node000002_Node000003"><a xlink:title=" ">
<path fill="none" stroke="#63b8ff" d="M34.71,-367.94C34.59,-358.79 35.18,-348.29 37.5,-339 38.01,-336.98 38.56,-334.95 39.17,-332.92"/>
<polygon fill="none" stroke="#63b8ff" points="39.26,-332.67 37.4,-325.7 43.12,-321.31 44.98,-328.28 39.26,-332.67"/>
</a>
</g>
<text text-anchor="middle" x="71" y="-342" font-family="Helvetica,sans-Serif" font-size="10.00" fill="grey"> #mFilename</text>
</g>
<!-- Node4 -->
<g id="Node000004" class="node">
<title>Node4</title>
<g id="a_Node000004"><a xlink:href="classdouble.html" target="_top" xlink:title=" ">
<polygon fill="white" stroke="transparent" points="148.5,-417 104.5,-417 104.5,-368 148.5,-368 148.5,-417"/>
<text text-anchor="start" x="109.5" y="-404.5" font-family="Helvetica,sans-Serif" font-size="10.00">double</text>
<text text-anchor="start" x="124.5" y="-389.5" font-family="Helvetica,sans-Serif" font-size="10.00"> </text>
<text text-anchor="start" x="124.5" y="-374.5" font-family="Helvetica,sans-Serif" font-size="10.00"> </text>
<polygon fill="#bfbfbf" stroke="#bfbfbf" points="104.5,-399.5 104.5,-399.5 148.5,-399.5 148.5,-399.5 104.5,-399.5"/>
<polygon fill="#bfbfbf" stroke="#bfbfbf" points="104.5,-384.5 104.5,-384.5 148.5,-384.5 148.5,-384.5 104.5,-384.5"/>
<polygon fill="none" stroke="#bfbfbf" points="104.5,-368 104.5,-417 148.5,-417 148.5,-368 104.5,-368"/>
</a>
</g>
</g>
<!-- Node4&#45;&gt;Node2 -->
<g id="edge3_Node000002_Node000004" class="edge">
<title>Node4&#45;&gt;Node2</title>
<g id="a_edge3_Node000002_Node000004"><a xlink:title=" ">
<path fill="none" stroke="#63b8ff" d="M118.87,-367.92C115.64,-357.96 111.68,-345.72 107.55,-332.97"/>
<polygon fill="none" stroke="#63b8ff" points="107.43,-332.59 101.77,-328.11 103.73,-321.17 109.39,-325.65 107.43,-332.59"/>
</a>
</g>
<text text-anchor="middle" x="149" y="-342" font-family="Helvetica,sans-Serif" font-size="10.00" fill="grey"> #mFlushTime</text>
</g>
<!-- Node5 -->
<g id="Node000005" class="node">
<title>Node5</title>
<g id="a_Node000005"><a xlink:href="classunsigned.html" target="_top" xlink:title=" ">
<polygon fill="white" stroke="transparent" points="236,-276 181,-276 181,-227 236,-227 236,-276"/>
<text text-anchor="start" x="186.5" y="-263.5" font-family="Helvetica,sans-Serif" font-size="10.00">unsigned</text>
<text text-anchor="start" x="207" y="-248.5" font-family="Helvetica,sans-Serif" font-size="10.00"> </text>
<text text-anchor="start" x="207" y="-233.5" font-family="Helvetica,sans-Serif" font-size="10.00"> </text>
<polygon fill="#bfbfbf" stroke="#bfbfbf" points="181.5,-258.5 181.5,-258.5 236.5,-258.5 236.5,-258.5 181.5,-258.5"/>
<polygon fill="#bfbfbf" stroke="#bfbfbf" points="181.5,-243.5 181.5,-243.5 236.5,-243.5 236.5,-243.5 181.5,-243.5"/>
<polygon fill="none" stroke="#bfbfbf" points="181,-227 181,-276 236,-276 236,-227 181,-227"/>
</a>
</g>
</g>
<!-- Node5&#45;&gt;Node1 -->
<g id="edge4_Node000001_Node000005" class="edge">
<title>Node5&#45;&gt;Node1</title>
<g id="a_edge4_Node000001_Node000005"><a xlink:title=" ">
<path fill="none" stroke="#63b8ff" d="M208.5,-226.75C208.5,-204.03 208.5,-168.57 208.5,-136.45"/>
<polygon fill="none" stroke="#63b8ff" points="208.5,-136.34 204.5,-130.34 208.5,-124.34 212.5,-130.34 208.5,-136.34"/>
</a>
</g>
<text text-anchor="middle" x="246.5" y="-156" font-family="Helvetica,sans-Serif" font-size="10.00" fill="grey"> &#45;mGlobalIndex</text>
<text text-anchor="middle" x="246.5" y="-145" font-family="Helvetica,sans-Serif" font-size="10.00" fill="grey">&#45;mLocalIndex</text>
</g>
<!-- Node6 -->
<g id="Node000006" class="node">
<title>Node6</title>
<g id="a_Node000006"><a xlink:title=" ">
<polygon fill="white" stroke="transparent" points="403.5,-276 253.5,-276 253.5,-227 403.5,-227 403.5,-276"/>
<text text-anchor="start" x="258.5" y="-263.5" font-family="Helvetica,sans-Serif" font-size="10.00">shared_ptr&lt; std::ofstream &gt;</text>
<text text-anchor="start" x="326.5" y="-248.5" font-family="Helvetica,sans-Serif" font-size="10.00"> </text>
<text text-anchor="start" x="326.5" y="-233.5" font-family="Helvetica,sans-Serif" font-size="10.00"> </text>
<polygon fill="#bfbfbf" stroke="#bfbfbf" points="253.5,-258.5 253.5,-258.5 403.5,-258.5 403.5,-258.5 253.5,-258.5"/>
<polygon fill="#bfbfbf" stroke="#bfbfbf" points="253.5,-243.5 253.5,-243.5 403.5,-243.5 403.5,-243.5 253.5,-243.5"/>
<polygon fill="none" stroke="#bfbfbf" points="253.5,-227 253.5,-276 403.5,-276 403.5,-227 253.5,-227"/>
</a>
</g>
</g>
<!-- Node6&#45;&gt;Node1 -->
<g id="edge5_Node000001_Node000006" class="edge">
<title>Node6&#45;&gt;Node1</title>
<g id="a_edge5_Node000001_Node000006"><a xlink:title=" ">
<path fill="none" stroke="#63b8ff" d="M322.96,-226.7C316.89,-203.74 305.68,-168.66 288.5,-142 286.73,-139.25 284.84,-136.52 282.87,-133.82"/>
<polygon fill="none" stroke="#63b8ff" points="282.75,-133.67 275.91,-131.39 275.38,-124.2 282.22,-126.48 282.75,-133.67"/>
</a>
</g>
<text text-anchor="middle" x="333.5" y="-150.5" font-family="Helvetica,sans-Serif" font-size="10.00" fill="grey"> &#45;mFileStream</text>
</g>
</g>
</svg>
