<?xml version="1.0" encoding="UTF-8" standalone="no"?>
<!DOCTYPE svg PUBLIC "-//W3C//DTD SVG 1.1//EN"
 "http://www.w3.org/Graphics/SVG/1.1/DTD/svg11.dtd">
<!-- Generated by graphviz version 2.43.0 (0)
 -->
<!-- Title: HoneycombMeshGenerator Pages: 1 -->
<svg width="661pt" height="302pt"
 viewBox="0.00 0.00 661.00 302.00" xmlns="http://www.w3.org/2000/svg" xmlns:xlink="http://www.w3.org/1999/xlink">
<g id="graph0" class="graph" transform="scale(1 1) rotate(0) translate(4 298)">
<title>HoneycombMeshGenerator</title>
<!-- Node1 -->
<g id="Node000001" class="node">
<title>Node1</title>
<g id="a_Node000001"><a xlink:title=" ">
<polygon fill="#999999" stroke="transparent" points="422.5,-154 251.5,-154 251.5,0 422.5,0 422.5,-154"/>
<text text-anchor="start" x="270.5" y="-142" font-family="Helvetica,sans-Serif" font-size="10.00">HoneycombMeshGenerator</text>
<text text-anchor="start" x="335.5" y="-127" font-family="Helvetica,sans-Serif" font-size="10.00"> </text>
<text text-anchor="start" x="256" y="-112" font-family="Helvetica,sans-Serif" font-size="10.00">+</text>
<text text-anchor="start" x="269" y="-112" font-family="Helvetica,sans-Serif" font-size="10.00">HoneycombMeshGenerator()</text>
<text text-anchor="start" x="256" y="-97" font-family="Helvetica,sans-Serif" font-size="10.00">+</text>
<text text-anchor="start" x="269" y="-97" font-family="Helvetica,sans-Serif" font-size="10.00">HoneycombMeshGenerator()</text>
<text text-anchor="start" x="256" y="-82" font-family="Helvetica,sans-Serif" font-size="10.00">+</text>
<text text-anchor="start" x="269" y="-82" font-family="Helvetica,sans-Serif" font-size="10.00">~HoneycombMeshGenerator()</text>
<text text-anchor="start" x="256" y="-67" font-family="Helvetica,sans-Serif" font-size="10.00">+</text>
<text text-anchor="start" x="269" y="-67" font-family="Helvetica,sans-Serif" font-size="10.00">GetMesh()</text>
<text text-anchor="start" x="256" y="-52" font-family="Helvetica,sans-Serif" font-size="10.00">+</text>
<text text-anchor="start" x="269" y="-52" font-family="Helvetica,sans-Serif" font-size="10.00">GetCellLocationIndices()</text>
<text text-anchor="start" x="256" y="-37" font-family="Helvetica,sans-Serif" font-size="10.00">+</text>
<text text-anchor="start" x="269" y="-37" font-family="Helvetica,sans-Serif" font-size="10.00">GetCircularMesh()</text>
<text text-anchor="start" x="256" y="-22" font-family="Helvetica,sans-Serif" font-size="10.00">+</text>
<text text-anchor="start" x="269" y="-22" font-family="Helvetica,sans-Serif" font-size="10.00">GetDomainDepth()</text>
<text text-anchor="start" x="256" y="-7" font-family="Helvetica,sans-Serif" font-size="10.00">+</text>
<text text-anchor="start" x="269" y="-7" font-family="Helvetica,sans-Serif" font-size="10.00">GetDomainWidth()</text>
<polygon fill="#666666" stroke="#666666" points="252,-137 252,-137 423,-137 423,-137 252,-137"/>
<polygon fill="#666666" stroke="#666666" points="252,-122 252,-122 423,-122 423,-122 252,-122"/>
<polygon fill="none" stroke="#666666" points="251.5,0 251.5,-154 422.5,-154 422.5,0 251.5,0"/>
</a>
</g>
</g>
<!-- Node2 -->
<g id="Node000002" class="node">
<title>Node2</title>
<g id="a_Node000002"><a xlink:title=" ">
<polygon fill="white" stroke="transparent" points="140,-294 0,-294 0,-234 140,-234 140,-294"/>
<text text-anchor="start" x="5" y="-282" font-family="Helvetica,sans-Serif" font-size="10.00">shared_ptr&lt; MutableMesh</text>
<text text-anchor="start" x="44" y="-271" font-family="Helvetica,sans-Serif" font-size="10.00">&lt; 2, 2 &gt; &gt;</text>
<text text-anchor="start" x="68" y="-256" font-family="Helvetica,sans-Serif" font-size="10.00"> </text>
<text text-anchor="start" x="68" y="-241" font-family="Helvetica,sans-Serif" font-size="10.00"> </text>
<polygon fill="#bfbfbf" stroke="#bfbfbf" points="0,-266 0,-266 140,-266 140,-266 0,-266"/>
<polygon fill="#bfbfbf" stroke="#bfbfbf" points="0,-251 0,-251 140,-251 140,-251 0,-251"/>
<polygon fill="none" stroke="#bfbfbf" points="0,-234 0,-294 140,-294 140,-234 0,-234"/>
</a>
</g>
</g>
<!-- Node2&#45;&gt;Node1 -->
<g id="edge1_Node000001_Node000002" class="edge">
<title>Node2&#45;&gt;Node1</title>
<g id="a_edge1_Node000001_Node000002"><a xlink:title=" ">
<path fill="none" stroke="#63b8ff" d="M91,-233.71C105.89,-214.44 127.19,-189.62 150,-172 177.28,-150.93 210.01,-132.57 240.42,-117.8"/>
<polygon fill="none" stroke="#63b8ff" points="240.66,-117.69 244.36,-111.5 251.5,-112.53 247.8,-118.72 240.66,-117.69"/>
</a>
</g>
<text text-anchor="middle" x="177" y="-191.5" font-family="Helvetica,sans-Serif" font-size="10.00" fill="grey"> #mpMesh</text>
</g>
<!-- Node3 -->
<g id="Node000003" class="node">
<title>Node3</title>
<g id="a_Node000003"><a xlink:title=" ">
<polygon fill="white" stroke="transparent" points="250,-288.5 158,-288.5 158,-239.5 250,-239.5 250,-288.5"/>
<text text-anchor="start" x="163" y="-276" font-family="Helvetica,sans-Serif" font-size="10.00">set&lt; unsigned &gt;</text>
<text text-anchor="start" x="202" y="-261" font-family="Helvetica,sans-Serif" font-size="10.00"> </text>
<text text-anchor="start" x="202" y="-246" font-family="Helvetica,sans-Serif" font-size="10.00"> </text>
<polygon fill="#bfbfbf" stroke="#bfbfbf" points="158,-271 158,-271 250,-271 250,-271 158,-271"/>
<polygon fill="#bfbfbf" stroke="#bfbfbf" points="158,-256 158,-256 250,-256 250,-256 158,-256"/>
<polygon fill="none" stroke="#bfbfbf" points="158,-239.5 158,-288.5 250,-288.5 250,-239.5 158,-239.5"/>
</a>
</g>
</g>
<!-- Node3&#45;&gt;Node1 -->
<g id="edge2_Node000001_Node000003" class="edge">
<title>Node3&#45;&gt;Node1</title>
<g id="a_edge2_Node000001_Node000003"><a xlink:title=" ">
<path fill="none" stroke="#63b8ff" d="M204.67,-239.38C206.17,-220.03 210.56,-192.58 223,-172 228.6,-162.73 235.46,-153.96 243,-145.78"/>
<polygon fill="none" stroke="#63b8ff" points="243.05,-145.72 244.38,-138.64 251.43,-137.13 250.1,-144.22 243.05,-145.72"/>
</a>
</g>
<text text-anchor="middle" x="278" y="-191.5" font-family="Helvetica,sans-Serif" font-size="10.00" fill="grey"> #mGhostNodeIndices</text>
</g>
<!-- Node4 -->
<g id="Node000004" class="node">
<title>Node4</title>
<g id="a_Node000004"><a xlink:title=" ">
<polygon fill="white" stroke="transparent" points="356,-288.5 318,-288.5 318,-239.5 356,-239.5 356,-288.5"/>
<text text-anchor="start" x="323" y="-276" font-family="Helvetica,sans-Serif" font-size="10.00">string</text>
<text text-anchor="start" x="335" y="-261" font-family="Helvetica,sans-Serif" font-size="10.00"> </text>
<text text-anchor="start" x="335" y="-246" font-family="Helvetica,sans-Serif" font-size="10.00"> </text>
<polygon fill="#bfbfbf" stroke="#bfbfbf" points="318,-271 318,-271 356,-271 356,-271 318,-271"/>
<polygon fill="#bfbfbf" stroke="#bfbfbf" points="318,-256 318,-256 356,-256 356,-256 318,-256"/>
<polygon fill="none" stroke="#bfbfbf" points="318,-239.5 318,-288.5 356,-288.5 356,-239.5 318,-239.5"/>
</a>
</g>
</g>
<!-- Node4&#45;&gt;Node1 -->
<g id="edge3_Node000001_Node000004" class="edge">
<title>Node4&#45;&gt;Node1</title>
<g id="a_edge3_Node000001_Node000004"><a xlink:title=" ">
<path fill="none" stroke="#63b8ff" d="M337,-239.19C337,-220.49 337,-193.2 337,-166.38"/>
<polygon fill="none" stroke="#63b8ff" points="337,-166.12 333,-160.12 337,-154.12 341,-160.12 337,-166.12"/>
</a>
</g>
<text text-anchor="middle" x="383.5" y="-191.5" font-family="Helvetica,sans-Serif" font-size="10.00" fill="grey"> #mMeshFilename</text>
</g>
<!-- Node5 -->
<g id="Node000005" class="node">
<title>Node5</title>
<g id="a_Node000005"><a xlink:href="classdouble.html" target="_top" xlink:title=" ">
<polygon fill="white" stroke="transparent" points="475,-288.5 431,-288.5 431,-239.5 475,-239.5 475,-288.5"/>
<text text-anchor="start" x="436" y="-276" font-family="Helvetica,sans-Serif" font-size="10.00">double</text>
<text text-anchor="start" x="451" y="-261" font-family="Helvetica,sans-Serif" font-size="10.00"> </text>
<text text-anchor="start" x="451" y="-246" font-family="Helvetica,sans-Serif" font-size="10.00"> </text>
<polygon fill="#bfbfbf" stroke="#bfbfbf" points="431,-271 431,-271 475,-271 475,-271 431,-271"/>
<polygon fill="#bfbfbf" stroke="#bfbfbf" points="431,-256 431,-256 475,-256 475,-256 431,-256"/>
<polygon fill="none" stroke="#bfbfbf" points="431,-239.5 431,-288.5 475,-288.5 475,-239.5 431,-239.5"/>
</a>
</g>
</g>
<!-- Node5&#45;&gt;Node1 -->
<g id="edge4_Node000001_Node000005" class="edge">
<title>Node5&#45;&gt;Node1</title>
<g id="a_edge4_Node000001_Node000005"><a xlink:title=" ">
<path fill="none" stroke="#63b8ff" d="M450.84,-239.28C448.28,-220.12 442.77,-192.98 431,-172 429.49,-169.31 427.89,-166.65 426.2,-164.02"/>
<polygon fill="none" stroke="#63b8ff" points="426.12,-163.9 419.41,-161.24 419.3,-154.03 426,-156.69 426.12,-163.9"/>
</a>
</g>
<text text-anchor="middle" x="489" y="-208" font-family="Helvetica,sans-Serif" font-size="10.00" fill="grey"> #mBottom</text>
<text text-anchor="middle" x="489" y="-197" font-family="Helvetica,sans-Serif" font-size="10.00" fill="grey">#mDomainDepth</text>
<text text-anchor="middle" x="489" y="-186" font-family="Helvetica,sans-Serif" font-size="10.00" fill="grey">#mDomainWidth</text>
<text text-anchor="middle" x="489" y="-175" font-family="Helvetica,sans-Serif" font-size="10.00" fill="grey">#mTop</text>
</g>
<!-- Node6 -->
<g id="Node000006" class="node">
<title>Node6</title>
<g id="a_Node000006"><a xlink:href="classunsigned.html" target="_top" xlink:title=" ">
<polygon fill="white" stroke="transparent" points="589.5,-288.5 534.5,-288.5 534.5,-239.5 589.5,-239.5 589.5,-288.5"/>
<text text-anchor="start" x="540" y="-276" font-family="Helvetica,sans-Serif" font-size="10.00">unsigned</text>
<text text-anchor="start" x="560.5" y="-261" font-family="Helvetica,sans-Serif" font-size="10.00"> </text>
<text text-anchor="start" x="560.5" y="-246" font-family="Helvetica,sans-Serif" font-size="10.00"> </text>
<polygon fill="#bfbfbf" stroke="#bfbfbf" points="535,-271 535,-271 590,-271 590,-271 535,-271"/>
<polygon fill="#bfbfbf" stroke="#bfbfbf" points="535,-256 535,-256 590,-256 590,-256 535,-256"/>
<polygon fill="none" stroke="#bfbfbf" points="534.5,-239.5 534.5,-288.5 589.5,-288.5 589.5,-239.5 534.5,-239.5"/>
</a>
</g>
</g>
<!-- Node6&#45;&gt;Node1 -->
<g id="edge5_Node000001_Node000006" class="edge">
<title>Node6&#45;&gt;Node1</title>
<g id="a_edge5_Node000001_Node000006"><a xlink:title=" ">
<path fill="none" stroke="#63b8ff" d="M560.57,-239.18C558.22,-219.18 552.06,-190.91 536,-172 509.56,-140.85 470.48,-119.32 433.94,-104.81"/>
<polygon fill="none" stroke="#63b8ff" points="433.91,-104.8 426.88,-106.41 422.7,-100.53 429.73,-98.93 433.91,-104.8"/>
</a>
</g>
<text text-anchor="middle" x="604.5" y="-197" font-family="Helvetica,sans-Serif" font-size="10.00" fill="grey"> #mNumCellLength</text>
<text text-anchor="middle" x="604.5" y="-186" font-family="Helvetica,sans-Serif" font-size="10.00" fill="grey">#mNumCellWidth</text>
</g>
</g>
</svg>
