<?xml version="1.0" encoding="UTF-8" standalone="no"?>
<!DOCTYPE svg PUBLIC "-//W3C//DTD SVG 1.1//EN"
 "http://www.w3.org/Graphics/SVG/1.1/DTD/svg11.dtd">
<!-- Generated by graphviz version 2.43.0 (0)
 -->
<!-- Title: CellwiseSourceEllipticPde&lt; DIM &gt; Pages: 1 -->
<svg width="290pt" height="1114pt"
 viewBox="0.00 0.00 290.00 1114.00" xmlns="http://www.w3.org/2000/svg" xmlns:xlink="http://www.w3.org/1999/xlink">
<g id="graph0" class="graph" transform="scale(1 1) rotate(0) translate(4 1110)">
<title>CellwiseSourceEllipticPde&lt; DIM &gt;</title>
<!-- Node1 -->
<g id="Node000001" class="node">
<title>Node1</title>
<g id="a_Node000001"><a xlink:title=" ">
<polygon fill="#999999" stroke="transparent" points="180,-329 0,-329 0,0 180,0 180,-329"/>
<text text-anchor="start" x="27" y="-316.5" font-family="Helvetica,sans-Serif" font-size="10.00">CellwiseSourceEllipticPde</text>
<text text-anchor="start" x="68.5" y="-305.5" font-family="Helvetica,sans-Serif" font-size="10.00">&lt; DIM &gt;</text>
<text text-anchor="start" x="4" y="-290.5" font-family="Helvetica,sans-Serif" font-size="10.00">#</text>
<text text-anchor="start" x="17" y="-290.5" font-family="Helvetica,sans-Serif" font-size="10.00">mrCellPopulation</text>
<text text-anchor="start" x="4" y="-275.5" font-family="Helvetica,sans-Serif" font-size="10.00">#</text>
<text text-anchor="start" x="17" y="-275.5" font-family="Helvetica,sans-Serif" font-size="10.00">mConstantSourceCoefficient</text>
<text text-anchor="start" x="4" y="-260.5" font-family="Helvetica,sans-Serif" font-size="10.00">#</text>
<text text-anchor="start" x="17" y="-260.5" font-family="Helvetica,sans-Serif" font-size="10.00">mLinearSourceCoefficient</text>
<text text-anchor="start" x="4" y="-245.5" font-family="Helvetica,sans-Serif" font-size="10.00">#</text>
<text text-anchor="start" x="17" y="-245.5" font-family="Helvetica,sans-Serif" font-size="10.00">mDiffusionCoefficient</text>
<text text-anchor="start" x="4" y="-230.5" font-family="Helvetica,sans-Serif" font-size="10.00">#</text>
<text text-anchor="start" x="17" y="-230.5" font-family="Helvetica,sans-Serif" font-size="10.00">mScaleByCellVolume</text>
<text text-anchor="start" x="4" y="-215.5" font-family="Helvetica,sans-Serif" font-size="10.00">+</text>
<text text-anchor="start" x="17" y="-215.5" font-family="Helvetica,sans-Serif" font-size="10.00">CellwiseSourceEllipticPde()</text>
<text text-anchor="start" x="4" y="-200.5" font-family="Helvetica,sans-Serif" font-size="10.00">+</text>
<text text-anchor="start" x="17" y="-200.5" font-family="Helvetica,sans-Serif" font-size="10.00">rGetCellPopulation()</text>
<text text-anchor="start" x="4" y="-185.5" font-family="Helvetica,sans-Serif" font-size="10.00">+</text>
<text text-anchor="start" x="17" y="-185.5" font-family="Helvetica,sans-Serif" font-size="10.00">GetConstantCoefficient()</text>
<text text-anchor="start" x="4" y="-170.5" font-family="Helvetica,sans-Serif" font-size="10.00">+</text>
<text text-anchor="start" x="17" y="-170.5" font-family="Helvetica,sans-Serif" font-size="10.00">GetLinearCoefficient()</text>
<text text-anchor="start" x="4" y="-155.5" font-family="Helvetica,sans-Serif" font-size="10.00">+</text>
<text text-anchor="start" x="17" y="-155.5" font-family="Helvetica,sans-Serif" font-size="10.00">GetDiffusionCoefficient()</text>
<text text-anchor="start" x="4" y="-140.5" font-family="Helvetica,sans-Serif" font-size="10.00">+</text>
<text text-anchor="start" x="17" y="-140.5" font-family="Helvetica,sans-Serif" font-size="10.00">GetScaleByCellVolume()</text>
<text text-anchor="start" x="4" y="-125.5" font-family="Helvetica,sans-Serif" font-size="10.00">+</text>
<text text-anchor="start" x="17" y="-125.5" font-family="Helvetica,sans-Serif" font-size="10.00">ComputeConstantInUSource</text>
<text text-anchor="start" x="17" y="-114.5" font-family="Helvetica,sans-Serif" font-size="10.00">Term()</text>
<text text-anchor="start" x="4" y="-99.5" font-family="Helvetica,sans-Serif" font-size="10.00">+</text>
<text text-anchor="start" x="17" y="-99.5" font-family="Helvetica,sans-Serif" font-size="10.00">ComputeLinearInUCoeffInSource</text>
<text text-anchor="start" x="17" y="-88.5" font-family="Helvetica,sans-Serif" font-size="10.00">Term()</text>
<text text-anchor="start" x="4" y="-73.5" font-family="Helvetica,sans-Serif" font-size="10.00">+</text>
<text text-anchor="start" x="17" y="-73.5" font-family="Helvetica,sans-Serif" font-size="10.00">ComputeLinearInUCoeffInSource</text>
<text text-anchor="start" x="17" y="-62.5" font-family="Helvetica,sans-Serif" font-size="10.00">TermAtNode()</text>
<text text-anchor="start" x="4" y="-47.5" font-family="Helvetica,sans-Serif" font-size="10.00">+</text>
<text text-anchor="start" x="17" y="-47.5" font-family="Helvetica,sans-Serif" font-size="10.00">ComputeConstantInUSource</text>
<text text-anchor="start" x="17" y="-36.5" font-family="Helvetica,sans-Serif" font-size="10.00">TermAtNode()</text>
<text text-anchor="start" x="4" y="-21.5" font-family="Helvetica,sans-Serif" font-size="10.00">+</text>
<text text-anchor="start" x="17" y="-21.5" font-family="Helvetica,sans-Serif" font-size="10.00">ComputeDiffusionTerm()</text>
<text text-anchor="start" x="6.5" y="-6.5" font-family="Helvetica,sans-Serif" font-size="10.00">&#45;</text>
<text text-anchor="start" x="17" y="-6.5" font-family="Helvetica,sans-Serif" font-size="10.00">serialize()</text>
<polygon fill="#666666" stroke="#666666" points="0,-300.5 0,-300.5 180,-300.5 180,-300.5 0,-300.5"/>
<polygon fill="#666666" stroke="#666666" points="0,-225.5 0,-225.5 15,-225.5 15,-225.5 0,-225.5"/>
<polygon fill="#666666" stroke="#666666" points="15,-225.5 15,-225.5 180,-225.5 180,-225.5 15,-225.5"/>
<polygon fill="none" stroke="#666666" points="0,0 0,-329 180,-329 180,0 0,0"/>
</a>
</g>
</g>
<!-- Node2 -->
<g id="Node000002" class="node">
<title>Node2</title>
<g id="a_Node000002"><a xlink:href="classAbstractLinearEllipticPde.html" target="_top" xlink:title=" ">
<polygon fill="white" stroke="transparent" points="180,-575 0,-575 0,-366 180,-366 180,-575"/>
<text text-anchor="start" x="29" y="-562.5" font-family="Helvetica,sans-Serif" font-size="10.00">AbstractLinearEllipticPde</text>
<text text-anchor="start" x="56" y="-551.5" font-family="Helvetica,sans-Serif" font-size="10.00">&lt; DIM, DIM &gt;</text>
<text text-anchor="start" x="88" y="-536.5" font-family="Helvetica,sans-Serif" font-size="10.00"> </text>
<text text-anchor="start" x="4" y="-521.5" font-family="Helvetica,sans-Serif" font-size="10.00">+</text>
<text text-anchor="start" x="17" y="-521.5" font-family="Helvetica,sans-Serif" font-size="10.00">AbstractLinearEllipticPde()</text>
<text text-anchor="start" x="4" y="-506.5" font-family="Helvetica,sans-Serif" font-size="10.00">+</text>
<text text-anchor="start" x="17" y="-506.5" font-family="Helvetica,sans-Serif" font-size="10.00">~AbstractLinearEllipticPde()</text>
<text text-anchor="start" x="4" y="-491.5" font-family="Helvetica,sans-Serif" font-size="10.00">+</text>
<text text-anchor="start" x="17" y="-491.5" font-family="Helvetica,sans-Serif" font-size="10.00">ComputeConstantInUSource</text>
<text text-anchor="start" x="17" y="-480.5" font-family="Helvetica,sans-Serif" font-size="10.00">Term()</text>
<text text-anchor="start" x="4" y="-465.5" font-family="Helvetica,sans-Serif" font-size="10.00">+</text>
<text text-anchor="start" x="17" y="-465.5" font-family="Helvetica,sans-Serif" font-size="10.00">ComputeLinearInUCoeffInSource</text>
<text text-anchor="start" x="17" y="-454.5" font-family="Helvetica,sans-Serif" font-size="10.00">Term()</text>
<text text-anchor="start" x="4" y="-439.5" font-family="Helvetica,sans-Serif" font-size="10.00">+</text>
<text text-anchor="start" x="17" y="-439.5" font-family="Helvetica,sans-Serif" font-size="10.00">ComputeDiffusionTerm()</text>
<text text-anchor="start" x="4" y="-424.5" font-family="Helvetica,sans-Serif" font-size="10.00">+</text>
<text text-anchor="start" x="17" y="-424.5" font-family="Helvetica,sans-Serif" font-size="10.00">ComputeConstantInUSource</text>
<text text-anchor="start" x="17" y="-413.5" font-family="Helvetica,sans-Serif" font-size="10.00">TermAtNode()</text>
<text text-anchor="start" x="4" y="-398.5" font-family="Helvetica,sans-Serif" font-size="10.00">+</text>
<text text-anchor="start" x="17" y="-398.5" font-family="Helvetica,sans-Serif" font-size="10.00">ComputeLinearInUCoeffInSource</text>
<text text-anchor="start" x="17" y="-387.5" font-family="Helvetica,sans-Serif" font-size="10.00">TermAtNode()</text>
<text text-anchor="start" x="6.5" y="-372.5" font-family="Helvetica,sans-Serif" font-size="10.00">&#45;</text>
<text text-anchor="start" x="17" y="-372.5" font-family="Helvetica,sans-Serif" font-size="10.00">serialize()</text>
<polygon fill="#666666" stroke="#666666" points="0,-546.5 0,-546.5 180,-546.5 180,-546.5 0,-546.5"/>
<polygon fill="#666666" stroke="#666666" points="0,-531.5 0,-531.5 180,-531.5 180,-531.5 0,-531.5"/>
<polygon fill="none" stroke="#666666" points="0,-366 0,-575 180,-575 180,-366 0,-366"/>
</a>
</g>
</g>
<!-- Node2&#45;&gt;Node1 -->
<g id="edge1_Node000001_Node000002" class="edge">
<title>Node2&#45;&gt;Node1</title>
<g id="a_edge1_Node000001_Node000002"><a xlink:title=" ">
<path fill="none" stroke="#63b8ff" d="M90,-355.62C90,-346.93 90,-338.07 90,-329.15"/>
<polygon fill="none" stroke="#63b8ff" points="86.5,-355.73 90,-365.73 93.5,-355.73 86.5,-355.73"/>
</a>
</g>
</g>
<!-- Node3 -->
<g id="Node000003" class="node">
<title>Node3</title>
<g id="a_Node000003"><a xlink:href="classAbstractLinearPde.html" target="_top" xlink:title=" ">
<polygon fill="white" stroke="transparent" points="164.5,-958 7.5,-958 7.5,-868 164.5,-868 164.5,-958"/>
<text text-anchor="start" x="13" y="-946" font-family="Helvetica,sans-Serif" font-size="10.00">AbstractLinearPde&lt;</text>
<text text-anchor="start" x="13" y="-935" font-family="Helvetica,sans-Serif" font-size="10.00"> ELEMENT_DIM, SPACE_DIM &gt;</text>
<text text-anchor="start" x="84.5" y="-920" font-family="Helvetica,sans-Serif" font-size="10.00"> </text>
<text text-anchor="start" x="19.5" y="-905" font-family="Helvetica,sans-Serif" font-size="10.00">+</text>
<text text-anchor="start" x="40" y="-905" font-family="Helvetica,sans-Serif" font-size="10.00">AbstractLinearPde()</text>
<text text-anchor="start" x="19.5" y="-890" font-family="Helvetica,sans-Serif" font-size="10.00">+</text>
<text text-anchor="start" x="40" y="-890" font-family="Helvetica,sans-Serif" font-size="10.00">~AbstractLinearPde()</text>
<text text-anchor="start" x="22" y="-875" font-family="Helvetica,sans-Serif" font-size="10.00">&#45;</text>
<text text-anchor="start" x="40" y="-875" font-family="Helvetica,sans-Serif" font-size="10.00">serialize()</text>
<polygon fill="#666666" stroke="#666666" points="8,-930 8,-930 165,-930 165,-930 8,-930"/>
<polygon fill="#666666" stroke="#666666" points="8,-915 8,-915 165,-915 165,-915 8,-915"/>
<polygon fill="none" stroke="#666666" points="7.5,-868 7.5,-958 164.5,-958 164.5,-868 7.5,-868"/>
</a>
</g>
</g>
<!-- Node3&#45;&gt;Node2 -->
<g id="edge2_Node000002_Node000003" class="edge">
<title>Node3&#45;&gt;Node2</title>
<g id="a_edge2_Node000002_Node000003"><a xlink:title=" ">
<path fill="none" stroke="#63b8ff" d="M86.5,-857.36C87.13,-787.13 88.25,-663.74 89.06,-575.39"/>
<polygon fill="none" stroke="#63b8ff" points="82.99,-857.71 86.4,-867.75 89.99,-857.78 82.99,-857.71"/>
</a>
</g>
</g>
<!-- Node5 -->
<g id="Node000005" class="node">
<title>Node5</title>
<g id="a_Node000005"><a xlink:href="classAbstractLinearEllipticPde.html" target="_top" xlink:title=" ">
<polygon fill="white" stroke="transparent" points="282,-831 102,-831 102,-622 282,-622 282,-831"/>
<text text-anchor="start" x="114.5" y="-818.5" font-family="Helvetica,sans-Serif" font-size="10.00">AbstractLinearEllipticPde</text>
<text text-anchor="start" x="114.5" y="-807.5" font-family="Helvetica,sans-Serif" font-size="10.00">&lt; ELEMENT_DIM, SPACE_DIM &gt;</text>
<text text-anchor="start" x="190" y="-792.5" font-family="Helvetica,sans-Serif" font-size="10.00"> </text>
<text text-anchor="start" x="106" y="-777.5" font-family="Helvetica,sans-Serif" font-size="10.00">+</text>
<text text-anchor="start" x="119" y="-777.5" font-family="Helvetica,sans-Serif" font-size="10.00">AbstractLinearEllipticPde()</text>
<text text-anchor="start" x="106" y="-762.5" font-family="Helvetica,sans-Serif" font-size="10.00">+</text>
<text text-anchor="start" x="119" y="-762.5" font-family="Helvetica,sans-Serif" font-size="10.00">~AbstractLinearEllipticPde()</text>
<text text-anchor="start" x="106" y="-747.5" font-family="Helvetica,sans-Serif" font-size="10.00">+</text>
<text text-anchor="start" x="119" y="-747.5" font-family="Helvetica,sans-Serif" font-size="10.00">ComputeConstantInUSource</text>
<text text-anchor="start" x="119" y="-736.5" font-family="Helvetica,sans-Serif" font-size="10.00">Term()</text>
<text text-anchor="start" x="106" y="-721.5" font-family="Helvetica,sans-Serif" font-size="10.00">+</text>
<text text-anchor="start" x="119" y="-721.5" font-family="Helvetica,sans-Serif" font-size="10.00">ComputeLinearInUCoeffInSource</text>
<text text-anchor="start" x="119" y="-710.5" font-family="Helvetica,sans-Serif" font-size="10.00">Term()</text>
<text text-anchor="start" x="106" y="-695.5" font-family="Helvetica,sans-Serif" font-size="10.00">+</text>
<text text-anchor="start" x="119" y="-695.5" font-family="Helvetica,sans-Serif" font-size="10.00">ComputeDiffusionTerm()</text>
<text text-anchor="start" x="106" y="-680.5" font-family="Helvetica,sans-Serif" font-size="10.00">+</text>
<text text-anchor="start" x="119" y="-680.5" font-family="Helvetica,sans-Serif" font-size="10.00">ComputeConstantInUSource</text>
<text text-anchor="start" x="119" y="-669.5" font-family="Helvetica,sans-Serif" font-size="10.00">TermAtNode()</text>
<text text-anchor="start" x="106" y="-654.5" font-family="Helvetica,sans-Serif" font-size="10.00">+</text>
<text text-anchor="start" x="119" y="-654.5" font-family="Helvetica,sans-Serif" font-size="10.00">ComputeLinearInUCoeffInSource</text>
<text text-anchor="start" x="119" y="-643.5" font-family="Helvetica,sans-Serif" font-size="10.00">TermAtNode()</text>
<text text-anchor="start" x="108.5" y="-628.5" font-family="Helvetica,sans-Serif" font-size="10.00">&#45;</text>
<text text-anchor="start" x="119" y="-628.5" font-family="Helvetica,sans-Serif" font-size="10.00">serialize()</text>
<polygon fill="#666666" stroke="#666666" points="102,-802.5 102,-802.5 282,-802.5 282,-802.5 102,-802.5"/>
<polygon fill="#666666" stroke="#666666" points="102,-787.5 102,-787.5 282,-787.5 282,-787.5 102,-787.5"/>
<polygon fill="none" stroke="#666666" points="102,-622 102,-831 282,-831 282,-622 102,-622"/>
</a>
</g>
</g>
<!-- Node3&#45;&gt;Node5 -->
<g id="edge5_Node000005_Node000003" class="edge">
<title>Node3&#45;&gt;Node5</title>
<g id="a_edge5_Node000005_Node000003"><a xlink:title=" ">
<path fill="none" stroke="#63b8ff" d="M116.5,-858.91C121.54,-850.15 126.9,-840.81 132.36,-831.31"/>
<polygon fill="none" stroke="#63b8ff" points="113.34,-857.39 111.39,-867.81 119.41,-860.88 113.34,-857.39"/>
</a>
</g>
</g>
<!-- Node4 -->
<g id="Node000004" class="node">
<title>Node4</title>
<g id="a_Node000004"><a xlink:href="classAbstractLinearPde.html" target="_top" xlink:title=" ">
<polygon fill="white" stroke="transparent" points="164.5,-1106 7.5,-1106 7.5,-1016 164.5,-1016 164.5,-1106"/>
<text text-anchor="start" x="13" y="-1094" font-family="Helvetica,sans-Serif" font-size="10.00">AbstractLinearPde&lt;</text>
<text text-anchor="start" x="13" y="-1083" font-family="Helvetica,sans-Serif" font-size="10.00"> ELEMENT_DIM, SPACE_DIM &gt;</text>
<text text-anchor="start" x="84.5" y="-1068" font-family="Helvetica,sans-Serif" font-size="10.00"> </text>
<text text-anchor="start" x="19.5" y="-1053" font-family="Helvetica,sans-Serif" font-size="10.00">+</text>
<text text-anchor="start" x="40" y="-1053" font-family="Helvetica,sans-Serif" font-size="10.00">AbstractLinearPde()</text>
<text text-anchor="start" x="19.5" y="-1038" font-family="Helvetica,sans-Serif" font-size="10.00">+</text>
<text text-anchor="start" x="40" y="-1038" font-family="Helvetica,sans-Serif" font-size="10.00">~AbstractLinearPde()</text>
<text text-anchor="start" x="22" y="-1023" font-family="Helvetica,sans-Serif" font-size="10.00">&#45;</text>
<text text-anchor="start" x="40" y="-1023" font-family="Helvetica,sans-Serif" font-size="10.00">serialize()</text>
<polygon fill="#666666" stroke="#666666" points="8,-1078 8,-1078 165,-1078 165,-1078 8,-1078"/>
<polygon fill="#666666" stroke="#666666" points="8,-1063 8,-1063 165,-1063 165,-1063 8,-1063"/>
<polygon fill="none" stroke="#666666" points="7.5,-1016 7.5,-1106 164.5,-1106 164.5,-1016 7.5,-1016"/>
</a>
</g>
</g>
<!-- Node4&#45;&gt;Node3 -->
<g id="edge3_Node000003_Node000004" class="edge">
<title>Node4&#45;&gt;Node3</title>
<g id="a_edge3_Node000003_Node000004"><a xlink:title=" ">
<path fill="none" stroke="orange" d="M86,-1005.69C86,-989.99 86,-973.05 86,-958.05"/>
<polygon fill="orange" stroke="orange" points="82.5,-1005.8 86,-1015.8 89.5,-1005.8 82.5,-1005.8"/>
</a>
</g>
<text text-anchor="start" x="86" y="-990" font-family="Helvetica,sans-Serif" font-size="10.00" fill="grey"> &lt; ELEMENT_DIM, SPACE</text>
<text text-anchor="middle" x="147" y="-979" font-family="Helvetica,sans-Serif" font-size="10.00" fill="grey">_DIM &gt;</text>
</g>
<!-- Node5&#45;&gt;Node2 -->
<g id="edge4_Node000002_Node000005" class="edge">
<title>Node5&#45;&gt;Node2</title>
<g id="a_edge4_Node000002_Node000005"><a xlink:title=" ">
<path fill="none" stroke="orange" d="M146.59,-612.41C141.62,-600.04 136.58,-587.5 131.67,-575.26"/>
<polygon fill="orange" stroke="orange" points="143.39,-613.85 150.37,-621.82 149.89,-611.24 143.39,-613.85"/>
</a>
</g>
<text text-anchor="middle" x="176.5" y="-596" font-family="Helvetica,sans-Serif" font-size="10.00" fill="grey"> &lt; DIM, DIM &gt;</text>
</g>
</g>
</svg>
