<?xml version="1.0" encoding="UTF-8" standalone="no"?>
<!DOCTYPE svg PUBLIC "-//W3C//DTD SVG 1.1//EN"
 "http://www.w3.org/Graphics/SVG/1.1/DTD/svg11.dtd">
<!-- Generated by graphviz version 2.43.0 (0)
 -->
<!-- Title: AbstractNumericalMethod&lt; ELEMENT_DIM, SPACE_DIM &gt; Pages: 1 -->
<svg width="882pt" height="932pt"
 viewBox="0.00 0.00 882.00 932.00" xmlns="http://www.w3.org/2000/svg" xmlns:xlink="http://www.w3.org/1999/xlink">
<g id="graph0" class="graph" transform="scale(1 1) rotate(0) translate(4 928)">
<title>AbstractNumericalMethod&lt; ELEMENT_DIM, SPACE_DIM &gt;</title>
<!-- Node1 -->
<g id="Node000001" class="node">
<title>Node1</title>
<g id="a_Node000001"><a xlink:title=" ">
<polygon fill="#999999" stroke="transparent" points="539,-808 334,-808 334,-433 539,-433 539,-808"/>
<text text-anchor="start" x="359.5" y="-795.5" font-family="Helvetica,sans-Serif" font-size="10.00">AbstractNumericalMethod</text>
<text text-anchor="start" x="359.5" y="-784.5" font-family="Helvetica,sans-Serif" font-size="10.00">&lt; ELEMENT_DIM, SPACE_DIM &gt;</text>
<text text-anchor="start" x="338.5" y="-769.5" font-family="Helvetica,sans-Serif" font-size="10.00">#</text>
<text text-anchor="start" x="351.5" y="-769.5" font-family="Helvetica,sans-Serif" font-size="10.00">mpCellPopulation</text>
<text text-anchor="start" x="338.5" y="-754.5" font-family="Helvetica,sans-Serif" font-size="10.00">#</text>
<text text-anchor="start" x="351.5" y="-754.5" font-family="Helvetica,sans-Serif" font-size="10.00">mpForceCollection</text>
<text text-anchor="start" x="338.5" y="-739.5" font-family="Helvetica,sans-Serif" font-size="10.00">#</text>
<text text-anchor="start" x="351.5" y="-739.5" font-family="Helvetica,sans-Serif" font-size="10.00">mpBoundaryConditions</text>
<text text-anchor="start" x="338.5" y="-724.5" font-family="Helvetica,sans-Serif" font-size="10.00">#</text>
<text text-anchor="start" x="351.5" y="-724.5" font-family="Helvetica,sans-Serif" font-size="10.00">mUseAdaptiveTimestep</text>
<text text-anchor="start" x="338.5" y="-709.5" font-family="Helvetica,sans-Serif" font-size="10.00">#</text>
<text text-anchor="start" x="351.5" y="-709.5" font-family="Helvetica,sans-Serif" font-size="10.00">mGhostNodeForcesEnabled</text>
<text text-anchor="start" x="338.5" y="-694.5" font-family="Helvetica,sans-Serif" font-size="10.00">+</text>
<text text-anchor="start" x="351.5" y="-694.5" font-family="Helvetica,sans-Serif" font-size="10.00">AbstractNumericalMethod()</text>
<text text-anchor="start" x="338.5" y="-679.5" font-family="Helvetica,sans-Serif" font-size="10.00">+</text>
<text text-anchor="start" x="351.5" y="-679.5" font-family="Helvetica,sans-Serif" font-size="10.00">~AbstractNumericalMethod()</text>
<text text-anchor="start" x="338.5" y="-664.5" font-family="Helvetica,sans-Serif" font-size="10.00">+</text>
<text text-anchor="start" x="351.5" y="-664.5" font-family="Helvetica,sans-Serif" font-size="10.00">SetCellPopulation()</text>
<text text-anchor="start" x="338.5" y="-649.5" font-family="Helvetica,sans-Serif" font-size="10.00">+</text>
<text text-anchor="start" x="351.5" y="-649.5" font-family="Helvetica,sans-Serif" font-size="10.00">SetForceCollection()</text>
<text text-anchor="start" x="338.5" y="-634.5" font-family="Helvetica,sans-Serif" font-size="10.00">+</text>
<text text-anchor="start" x="351.5" y="-634.5" font-family="Helvetica,sans-Serif" font-size="10.00">SetBoundaryConditions()</text>
<text text-anchor="start" x="338.5" y="-619.5" font-family="Helvetica,sans-Serif" font-size="10.00">+</text>
<text text-anchor="start" x="351.5" y="-619.5" font-family="Helvetica,sans-Serif" font-size="10.00">SetUseAdaptiveTimestep()</text>
<text text-anchor="start" x="338.5" y="-604.5" font-family="Helvetica,sans-Serif" font-size="10.00">+</text>
<text text-anchor="start" x="351.5" y="-604.5" font-family="Helvetica,sans-Serif" font-size="10.00">HasAdaptiveTimestep()</text>
<text text-anchor="start" x="338.5" y="-589.5" font-family="Helvetica,sans-Serif" font-size="10.00">+</text>
<text text-anchor="start" x="351.5" y="-589.5" font-family="Helvetica,sans-Serif" font-size="10.00">DelegatesToPopulation()</text>
<text text-anchor="start" x="338.5" y="-574.5" font-family="Helvetica,sans-Serif" font-size="10.00">+</text>
<text text-anchor="start" x="351.5" y="-574.5" font-family="Helvetica,sans-Serif" font-size="10.00">UpdateAllNodePositions()</text>
<text text-anchor="start" x="338.5" y="-559.5" font-family="Helvetica,sans-Serif" font-size="10.00">+</text>
<text text-anchor="start" x="351.5" y="-559.5" font-family="Helvetica,sans-Serif" font-size="10.00">OutputNumericalMethodInfo()</text>
<text text-anchor="start" x="338.5" y="-544.5" font-family="Helvetica,sans-Serif" font-size="10.00">+</text>
<text text-anchor="start" x="351.5" y="-544.5" font-family="Helvetica,sans-Serif" font-size="10.00">OutputNumericalMethodParameters()</text>
<text text-anchor="start" x="338.5" y="-529.5" font-family="Helvetica,sans-Serif" font-size="10.00">#</text>
<text text-anchor="start" x="351.5" y="-529.5" font-family="Helvetica,sans-Serif" font-size="10.00">SaveCurrentNodeLocations()</text>
<text text-anchor="start" x="338.5" y="-514.5" font-family="Helvetica,sans-Serif" font-size="10.00">#</text>
<text text-anchor="start" x="351.5" y="-514.5" font-family="Helvetica,sans-Serif" font-size="10.00">ImposeBoundaryConditions()</text>
<text text-anchor="start" x="338.5" y="-499.5" font-family="Helvetica,sans-Serif" font-size="10.00">#</text>
<text text-anchor="start" x="351.5" y="-499.5" font-family="Helvetica,sans-Serif" font-size="10.00">ComputeForcesIncludingDamping()</text>
<text text-anchor="start" x="338.5" y="-484.5" font-family="Helvetica,sans-Serif" font-size="10.00">#</text>
<text text-anchor="start" x="351.5" y="-484.5" font-family="Helvetica,sans-Serif" font-size="10.00">SaveCurrentLocations()</text>
<text text-anchor="start" x="338.5" y="-469.5" font-family="Helvetica,sans-Serif" font-size="10.00">#</text>
<text text-anchor="start" x="351.5" y="-469.5" font-family="Helvetica,sans-Serif" font-size="10.00">SafeNodePositionUpdate()</text>
<text text-anchor="start" x="338.5" y="-454.5" font-family="Helvetica,sans-Serif" font-size="10.00">#</text>
<text text-anchor="start" x="351.5" y="-454.5" font-family="Helvetica,sans-Serif" font-size="10.00">DetectStepSizeExceptions()</text>
<text text-anchor="start" x="341" y="-439.5" font-family="Helvetica,sans-Serif" font-size="10.00">&#45;</text>
<text text-anchor="start" x="351.5" y="-439.5" font-family="Helvetica,sans-Serif" font-size="10.00">serialize()</text>
<polygon fill="#666666" stroke="#666666" points="334.5,-779.5 334.5,-779.5 539.5,-779.5 539.5,-779.5 334.5,-779.5"/>
<polygon fill="#666666" stroke="#666666" points="334.5,-704.5 334.5,-704.5 349.5,-704.5 349.5,-704.5 334.5,-704.5"/>
<polygon fill="#666666" stroke="#666666" points="349.5,-704.5 349.5,-704.5 539.5,-704.5 539.5,-704.5 349.5,-704.5"/>
<polygon fill="none" stroke="#666666" points="334,-433 334,-808 539,-808 539,-433 334,-433"/>
</a>
</g>
</g>
<!-- Node3 -->
<g id="Node000003" class="node">
<title>Node3</title>
<g id="a_Node000003"><a xlink:href="classForwardEulerNumericalMethod.html" target="_top" xlink:title=" ">
<polygon fill="white" stroke="transparent" points="205,-247.5 0,-247.5 0,-127.5 205,-127.5 205,-247.5"/>
<text text-anchor="start" x="25.5" y="-235.5" font-family="Helvetica,sans-Serif" font-size="10.00">ForwardEulerNumericalMethod</text>
<text text-anchor="start" x="25.5" y="-224.5" font-family="Helvetica,sans-Serif" font-size="10.00">&lt; ELEMENT_DIM, SPACE_DIM &gt;</text>
<text text-anchor="start" x="101" y="-209.5" font-family="Helvetica,sans-Serif" font-size="10.00"> </text>
<text text-anchor="start" x="4.5" y="-194.5" font-family="Helvetica,sans-Serif" font-size="10.00">+</text>
<text text-anchor="start" x="17.5" y="-194.5" font-family="Helvetica,sans-Serif" font-size="10.00">ForwardEulerNumericalMethod()</text>
<text text-anchor="start" x="4.5" y="-179.5" font-family="Helvetica,sans-Serif" font-size="10.00">+</text>
<text text-anchor="start" x="17.5" y="-179.5" font-family="Helvetica,sans-Serif" font-size="10.00">~ForwardEulerNumericalMethod()</text>
<text text-anchor="start" x="4.5" y="-164.5" font-family="Helvetica,sans-Serif" font-size="10.00">+</text>
<text text-anchor="start" x="17.5" y="-164.5" font-family="Helvetica,sans-Serif" font-size="10.00">UpdateAllNodePositions()</text>
<text text-anchor="start" x="4.5" y="-149.5" font-family="Helvetica,sans-Serif" font-size="10.00">+</text>
<text text-anchor="start" x="17.5" y="-149.5" font-family="Helvetica,sans-Serif" font-size="10.00">OutputNumericalMethodParameters()</text>
<text text-anchor="start" x="7" y="-134.5" font-family="Helvetica,sans-Serif" font-size="10.00">&#45;</text>
<text text-anchor="start" x="17.5" y="-134.5" font-family="Helvetica,sans-Serif" font-size="10.00">serialize()</text>
<polygon fill="#666666" stroke="#666666" points="0.5,-219.5 0.5,-219.5 205.5,-219.5 205.5,-219.5 0.5,-219.5"/>
<polygon fill="#666666" stroke="#666666" points="0.5,-204.5 0.5,-204.5 205.5,-204.5 205.5,-204.5 0.5,-204.5"/>
<polygon fill="none" stroke="#666666" points="0,-127.5 0,-247.5 205,-247.5 205,-127.5 0,-127.5"/>
</a>
</g>
</g>
<!-- Node1&#45;&gt;Node3 -->
<g id="edge2_Node000001_Node000003" class="edge">
<title>Node1&#45;&gt;Node3</title>
<g id="a_edge2_Node000001_Node000003"><a xlink:title=" ">
<path fill="none" stroke="#63b8ff" d="M326.88,-508.93C289.06,-468.35 247.65,-421.05 213.5,-375 183.42,-334.45 154.42,-285.25 133.61,-247.57"/>
<polygon fill="none" stroke="#63b8ff" points="324.51,-511.51 333.9,-516.42 329.62,-506.73 324.51,-511.51"/>
</a>
</g>
</g>
<!-- Node4 -->
<g id="Node000004" class="node">
<title>Node4</title>
<g id="a_Node000004"><a xlink:href="classNoNumericalMethod.html" target="_top" xlink:title=" ">
<polygon fill="white" stroke="transparent" points="428,-262.5 223,-262.5 223,-112.5 428,-112.5 428,-262.5"/>
<text text-anchor="start" x="252.5" y="-250.5" font-family="Helvetica,sans-Serif" font-size="10.00">NoNumericalMethod&lt;</text>
<text text-anchor="start" x="252.5" y="-239.5" font-family="Helvetica,sans-Serif" font-size="10.00"> ELEMENT_DIM, SPACE_DIM &gt;</text>
<text text-anchor="start" x="324" y="-224.5" font-family="Helvetica,sans-Serif" font-size="10.00"> </text>
<text text-anchor="start" x="227.5" y="-209.5" font-family="Helvetica,sans-Serif" font-size="10.00">+</text>
<text text-anchor="start" x="240.5" y="-209.5" font-family="Helvetica,sans-Serif" font-size="10.00">NoNumericalMethod()</text>
<text text-anchor="start" x="227.5" y="-194.5" font-family="Helvetica,sans-Serif" font-size="10.00">+</text>
<text text-anchor="start" x="240.5" y="-194.5" font-family="Helvetica,sans-Serif" font-size="10.00">~NoNumericalMethod()</text>
<text text-anchor="start" x="227.5" y="-179.5" font-family="Helvetica,sans-Serif" font-size="10.00">+</text>
<text text-anchor="start" x="240.5" y="-179.5" font-family="Helvetica,sans-Serif" font-size="10.00">DelegatesToPopulation()</text>
<text text-anchor="start" x="227.5" y="-164.5" font-family="Helvetica,sans-Serif" font-size="10.00">+</text>
<text text-anchor="start" x="240.5" y="-164.5" font-family="Helvetica,sans-Serif" font-size="10.00">SetUseAdaptiveTimestep()</text>
<text text-anchor="start" x="227.5" y="-149.5" font-family="Helvetica,sans-Serif" font-size="10.00">+</text>
<text text-anchor="start" x="240.5" y="-149.5" font-family="Helvetica,sans-Serif" font-size="10.00">UpdateAllNodePositions()</text>
<text text-anchor="start" x="227.5" y="-134.5" font-family="Helvetica,sans-Serif" font-size="10.00">+</text>
<text text-anchor="start" x="240.5" y="-134.5" font-family="Helvetica,sans-Serif" font-size="10.00">OutputNumericalMethodParameters()</text>
<text text-anchor="start" x="230" y="-119.5" font-family="Helvetica,sans-Serif" font-size="10.00">&#45;</text>
<text text-anchor="start" x="240.5" y="-119.5" font-family="Helvetica,sans-Serif" font-size="10.00">serialize()</text>
<polygon fill="#666666" stroke="#666666" points="223.5,-234.5 223.5,-234.5 428.5,-234.5 428.5,-234.5 223.5,-234.5"/>
<polygon fill="#666666" stroke="#666666" points="223.5,-219.5 223.5,-219.5 428.5,-219.5 428.5,-219.5 223.5,-219.5"/>
<polygon fill="none" stroke="#666666" points="223,-112.5 223,-262.5 428,-262.5 428,-112.5 223,-112.5"/>
</a>
</g>
</g>
<!-- Node1&#45;&gt;Node4 -->
<g id="edge3_Node000001_Node000004" class="edge">
<title>Node1&#45;&gt;Node4</title>
<g id="a_edge3_Node000001_Node000004"><a xlink:title=" ">
<path fill="none" stroke="#63b8ff" d="M385.92,-423.09C371.23,-366.05 356.07,-307.21 344.62,-262.73"/>
<polygon fill="none" stroke="#63b8ff" points="382.58,-424.15 388.46,-432.96 389.35,-422.41 382.58,-424.15"/>
</a>
</g>
</g>
<!-- Node5 -->
<g id="Node000005" class="node">
<title>Node5</title>
<g id="a_Node000005"><a xlink:href="classRK4NumericalMethod.html" target="_top" xlink:title=" ">
<polygon fill="white" stroke="transparent" points="651,-247.5 446,-247.5 446,-127.5 651,-127.5 651,-247.5"/>
<text text-anchor="start" x="471.5" y="-235.5" font-family="Helvetica,sans-Serif" font-size="10.00">RK4NumericalMethod</text>
<text text-anchor="start" x="471.5" y="-224.5" font-family="Helvetica,sans-Serif" font-size="10.00">&lt; ELEMENT_DIM, SPACE_DIM &gt;</text>
<text text-anchor="start" x="547" y="-209.5" font-family="Helvetica,sans-Serif" font-size="10.00"> </text>
<text text-anchor="start" x="450.5" y="-194.5" font-family="Helvetica,sans-Serif" font-size="10.00">+</text>
<text text-anchor="start" x="463.5" y="-194.5" font-family="Helvetica,sans-Serif" font-size="10.00">RK4NumericalMethod()</text>
<text text-anchor="start" x="450.5" y="-179.5" font-family="Helvetica,sans-Serif" font-size="10.00">+</text>
<text text-anchor="start" x="463.5" y="-179.5" font-family="Helvetica,sans-Serif" font-size="10.00">~RK4NumericalMethod()</text>
<text text-anchor="start" x="450.5" y="-164.5" font-family="Helvetica,sans-Serif" font-size="10.00">+</text>
<text text-anchor="start" x="463.5" y="-164.5" font-family="Helvetica,sans-Serif" font-size="10.00">UpdateAllNodePositions()</text>
<text text-anchor="start" x="450.5" y="-149.5" font-family="Helvetica,sans-Serif" font-size="10.00">+</text>
<text text-anchor="start" x="463.5" y="-149.5" font-family="Helvetica,sans-Serif" font-size="10.00">OutputNumericalMethodParameters()</text>
<text text-anchor="start" x="453" y="-134.5" font-family="Helvetica,sans-Serif" font-size="10.00">&#45;</text>
<text text-anchor="start" x="463.5" y="-134.5" font-family="Helvetica,sans-Serif" font-size="10.00">serialize()</text>
<polygon fill="#666666" stroke="#666666" points="446.5,-219.5 446.5,-219.5 651.5,-219.5 651.5,-219.5 446.5,-219.5"/>
<polygon fill="#666666" stroke="#666666" points="446.5,-204.5 446.5,-204.5 651.5,-204.5 651.5,-204.5 446.5,-204.5"/>
<polygon fill="none" stroke="#666666" points="446,-127.5 446,-247.5 651,-247.5 651,-127.5 446,-127.5"/>
</a>
</g>
</g>
<!-- Node1&#45;&gt;Node5 -->
<g id="edge4_Node000001_Node000005" class="edge">
<title>Node1&#45;&gt;Node5</title>
<g id="a_edge4_Node000001_Node000005"><a xlink:title=" ">
<path fill="none" stroke="#63b8ff" d="M487.52,-423.18C504.07,-359.48 521.21,-293.53 533.08,-247.83"/>
<polygon fill="none" stroke="#63b8ff" points="484.1,-422.4 484.97,-432.96 490.88,-424.17 484.1,-422.4"/>
</a>
</g>
</g>
<!-- Node6 -->
<g id="Node000006" class="node">
<title>Node6</title>
<g id="a_Node000006"><a xlink:href="classAbstractNumericalMethod.html" target="_top" xlink:title=" ">
<polygon fill="white" stroke="transparent" points="874,-375 669,-375 669,0 874,0 874,-375"/>
<text text-anchor="start" x="687" y="-362.5" font-family="Helvetica,sans-Serif" font-size="10.00">AbstractNumericalMethod</text>
<text text-anchor="start" x="687" y="-351.5" font-family="Helvetica,sans-Serif" font-size="10.00">&lt; ELEMENT_DIM, ELEMENT_DIM &gt;</text>
<text text-anchor="start" x="673.5" y="-336.5" font-family="Helvetica,sans-Serif" font-size="10.00">#</text>
<text text-anchor="start" x="686.5" y="-336.5" font-family="Helvetica,sans-Serif" font-size="10.00">mpCellPopulation</text>
<text text-anchor="start" x="673.5" y="-321.5" font-family="Helvetica,sans-Serif" font-size="10.00">#</text>
<text text-anchor="start" x="686.5" y="-321.5" font-family="Helvetica,sans-Serif" font-size="10.00">mpForceCollection</text>
<text text-anchor="start" x="673.5" y="-306.5" font-family="Helvetica,sans-Serif" font-size="10.00">#</text>
<text text-anchor="start" x="686.5" y="-306.5" font-family="Helvetica,sans-Serif" font-size="10.00">mpBoundaryConditions</text>
<text text-anchor="start" x="673.5" y="-291.5" font-family="Helvetica,sans-Serif" font-size="10.00">#</text>
<text text-anchor="start" x="686.5" y="-291.5" font-family="Helvetica,sans-Serif" font-size="10.00">mUseAdaptiveTimestep</text>
<text text-anchor="start" x="673.5" y="-276.5" font-family="Helvetica,sans-Serif" font-size="10.00">#</text>
<text text-anchor="start" x="686.5" y="-276.5" font-family="Helvetica,sans-Serif" font-size="10.00">mGhostNodeForcesEnabled</text>
<text text-anchor="start" x="673.5" y="-261.5" font-family="Helvetica,sans-Serif" font-size="10.00">+</text>
<text text-anchor="start" x="686.5" y="-261.5" font-family="Helvetica,sans-Serif" font-size="10.00">AbstractNumericalMethod()</text>
<text text-anchor="start" x="673.5" y="-246.5" font-family="Helvetica,sans-Serif" font-size="10.00">+</text>
<text text-anchor="start" x="686.5" y="-246.5" font-family="Helvetica,sans-Serif" font-size="10.00">~AbstractNumericalMethod()</text>
<text text-anchor="start" x="673.5" y="-231.5" font-family="Helvetica,sans-Serif" font-size="10.00">+</text>
<text text-anchor="start" x="686.5" y="-231.5" font-family="Helvetica,sans-Serif" font-size="10.00">SetCellPopulation()</text>
<text text-anchor="start" x="673.5" y="-216.5" font-family="Helvetica,sans-Serif" font-size="10.00">+</text>
<text text-anchor="start" x="686.5" y="-216.5" font-family="Helvetica,sans-Serif" font-size="10.00">SetForceCollection()</text>
<text text-anchor="start" x="673.5" y="-201.5" font-family="Helvetica,sans-Serif" font-size="10.00">+</text>
<text text-anchor="start" x="686.5" y="-201.5" font-family="Helvetica,sans-Serif" font-size="10.00">SetBoundaryConditions()</text>
<text text-anchor="start" x="673.5" y="-186.5" font-family="Helvetica,sans-Serif" font-size="10.00">+</text>
<text text-anchor="start" x="686.5" y="-186.5" font-family="Helvetica,sans-Serif" font-size="10.00">SetUseAdaptiveTimestep()</text>
<text text-anchor="start" x="673.5" y="-171.5" font-family="Helvetica,sans-Serif" font-size="10.00">+</text>
<text text-anchor="start" x="686.5" y="-171.5" font-family="Helvetica,sans-Serif" font-size="10.00">HasAdaptiveTimestep()</text>
<text text-anchor="start" x="673.5" y="-156.5" font-family="Helvetica,sans-Serif" font-size="10.00">+</text>
<text text-anchor="start" x="686.5" y="-156.5" font-family="Helvetica,sans-Serif" font-size="10.00">DelegatesToPopulation()</text>
<text text-anchor="start" x="673.5" y="-141.5" font-family="Helvetica,sans-Serif" font-size="10.00">+</text>
<text text-anchor="start" x="686.5" y="-141.5" font-family="Helvetica,sans-Serif" font-size="10.00">UpdateAllNodePositions()</text>
<text text-anchor="start" x="673.5" y="-126.5" font-family="Helvetica,sans-Serif" font-size="10.00">+</text>
<text text-anchor="start" x="686.5" y="-126.5" font-family="Helvetica,sans-Serif" font-size="10.00">OutputNumericalMethodInfo()</text>
<text text-anchor="start" x="673.5" y="-111.5" font-family="Helvetica,sans-Serif" font-size="10.00">+</text>
<text text-anchor="start" x="686.5" y="-111.5" font-family="Helvetica,sans-Serif" font-size="10.00">OutputNumericalMethodParameters()</text>
<text text-anchor="start" x="673.5" y="-96.5" font-family="Helvetica,sans-Serif" font-size="10.00">#</text>
<text text-anchor="start" x="686.5" y="-96.5" font-family="Helvetica,sans-Serif" font-size="10.00">SaveCurrentNodeLocations()</text>
<text text-anchor="start" x="673.5" y="-81.5" font-family="Helvetica,sans-Serif" font-size="10.00">#</text>
<text text-anchor="start" x="686.5" y="-81.5" font-family="Helvetica,sans-Serif" font-size="10.00">ImposeBoundaryConditions()</text>
<text text-anchor="start" x="673.5" y="-66.5" font-family="Helvetica,sans-Serif" font-size="10.00">#</text>
<text text-anchor="start" x="686.5" y="-66.5" font-family="Helvetica,sans-Serif" font-size="10.00">ComputeForcesIncludingDamping()</text>
<text text-anchor="start" x="673.5" y="-51.5" font-family="Helvetica,sans-Serif" font-size="10.00">#</text>
<text text-anchor="start" x="686.5" y="-51.5" font-family="Helvetica,sans-Serif" font-size="10.00">SaveCurrentLocations()</text>
<text text-anchor="start" x="673.5" y="-36.5" font-family="Helvetica,sans-Serif" font-size="10.00">#</text>
<text text-anchor="start" x="686.5" y="-36.5" font-family="Helvetica,sans-Serif" font-size="10.00">SafeNodePositionUpdate()</text>
<text text-anchor="start" x="673.5" y="-21.5" font-family="Helvetica,sans-Serif" font-size="10.00">#</text>
<text text-anchor="start" x="686.5" y="-21.5" font-family="Helvetica,sans-Serif" font-size="10.00">DetectStepSizeExceptions()</text>
<text text-anchor="start" x="676" y="-6.5" font-family="Helvetica,sans-Serif" font-size="10.00">&#45;</text>
<text text-anchor="start" x="686.5" y="-6.5" font-family="Helvetica,sans-Serif" font-size="10.00">serialize()</text>
<polygon fill="#666666" stroke="#666666" points="669.5,-346.5 669.5,-346.5 874.5,-346.5 874.5,-346.5 669.5,-346.5"/>
<polygon fill="#666666" stroke="#666666" points="669.5,-271.5 669.5,-271.5 684.5,-271.5 684.5,-271.5 669.5,-271.5"/>
<polygon fill="#666666" stroke="#666666" points="684.5,-271.5 684.5,-271.5 874.5,-271.5 874.5,-271.5 684.5,-271.5"/>
<polygon fill="none" stroke="#666666" points="669,0 669,-375 874,-375 874,0 669,0"/>
</a>
</g>
</g>
<!-- Node1&#45;&gt;Node6 -->
<g id="edge5_Node000001_Node000006" class="edge">
<title>Node1&#45;&gt;Node6</title>
<g id="a_edge5_Node000001_Node000006"><a xlink:title=" ">
<path fill="none" stroke="orange" d="M546.11,-509.56C584.24,-468.86 626.06,-421.32 660.5,-375 663.31,-371.22 666.11,-367.36 668.89,-363.45"/>
<polygon fill="orange" stroke="orange" points="543.33,-507.4 539.03,-517.08 548.43,-512.2 543.33,-507.4"/>
</a>
</g>
<text text-anchor="start" x="643.5" y="-407" font-family="Helvetica,sans-Serif" font-size="10.00" fill="grey"> &lt; ELEMENT_DIM, ELEMENT</text>
<text text-anchor="middle" x="712" y="-396" font-family="Helvetica,sans-Serif" font-size="10.00" fill="grey">_DIM &gt;</text>
</g>
<!-- Node2 -->
<g id="Node000002" class="node">
<title>Node2</title>
<g id="a_Node000002"><a xlink:href="classIdentifiable.html" target="_top" xlink:title=" ">
<polygon fill="white" stroke="transparent" points="524.5,-924 348.5,-924 348.5,-845 524.5,-845 524.5,-924"/>
<text text-anchor="start" x="409" y="-911.5" font-family="Helvetica,sans-Serif" font-size="10.00">Identifiable</text>
<text text-anchor="start" x="434.5" y="-896.5" font-family="Helvetica,sans-Serif" font-size="10.00"> </text>
<text text-anchor="start" x="352.5" y="-881.5" font-family="Helvetica,sans-Serif" font-size="10.00">+</text>
<text text-anchor="start" x="365.5" y="-881.5" font-family="Helvetica,sans-Serif" font-size="10.00">~Identifiable()</text>
<text text-anchor="start" x="352.5" y="-866.5" font-family="Helvetica,sans-Serif" font-size="10.00">+</text>
<text text-anchor="start" x="365.5" y="-866.5" font-family="Helvetica,sans-Serif" font-size="10.00">GetIdentifier()</text>
<text text-anchor="start" x="355" y="-851.5" font-family="Helvetica,sans-Serif" font-size="10.00">&#45;</text>
<text text-anchor="start" x="365.5" y="-851.5" font-family="Helvetica,sans-Serif" font-size="10.00">TidyTemplatedExportIdentifier()</text>
<polygon fill="#666666" stroke="#666666" points="348.5,-906.5 348.5,-906.5 524.5,-906.5 524.5,-906.5 348.5,-906.5"/>
<polygon fill="#666666" stroke="#666666" points="348.5,-891.5 348.5,-891.5 524.5,-891.5 524.5,-891.5 348.5,-891.5"/>
<polygon fill="none" stroke="#666666" points="348.5,-845 348.5,-924 524.5,-924 524.5,-845 348.5,-845"/>
</a>
</g>
</g>
<!-- Node2&#45;&gt;Node1 -->
<g id="edge1_Node000001_Node000002" class="edge">
<title>Node2&#45;&gt;Node1</title>
<g id="a_edge1_Node000001_Node000002"><a xlink:title=" ">
<path fill="none" stroke="#63b8ff" d="M436.5,-834.77C436.5,-826.5 436.5,-817.49 436.5,-808"/>
<polygon fill="none" stroke="#63b8ff" points="433,-834.84 436.5,-844.84 440,-834.84 433,-834.84"/>
</a>
</g>
</g>
</g>
</svg>
