<?xml version="1.0" encoding="UTF-8" standalone="no"?>
<!DOCTYPE svg PUBLIC "-//W3C//DTD SVG 1.1//EN"
 "http://www.w3.org/Graphics/SVG/1.1/DTD/svg11.dtd">
<!-- Generated by graphviz version 2.43.0 (0)
 -->
<!-- Title: HeartConfig Pages: 1 -->
<svg width="1352pt" height="848pt"
 viewBox="0.00 0.00 1351.50 848.00" xmlns="http://www.w3.org/2000/svg" xmlns:xlink="http://www.w3.org/1999/xlink">
<g id="graph0" class="graph" transform="scale(1 1) rotate(0) translate(4 844)">
<title>HeartConfig</title>
<!-- Node1 -->
<g id="Node000001" class="node">
<title>Node1</title>
<g id="a_Node000001"><a xlink:title=" ">
<polygon fill="#999999" stroke="transparent" points="797,-375 600,-375 600,0 797,0 797,-375"/>
<text text-anchor="start" x="670" y="-362.5" font-family="Helvetica,sans-Serif" font-size="10.00">HeartConfig</text>
<text text-anchor="start" x="697" y="-347.5" font-family="Helvetica,sans-Serif" font-size="10.00"> </text>
<text text-anchor="start" x="604.5" y="-332.5" font-family="Helvetica,sans-Serif" font-size="10.00">+</text>
<text text-anchor="start" x="617.5" y="-332.5" font-family="Helvetica,sans-Serif" font-size="10.00">SetUseFixedSchemaLocation()</text>
<text text-anchor="start" x="604.5" y="-317.5" font-family="Helvetica,sans-Serif" font-size="10.00">+</text>
<text text-anchor="start" x="617.5" y="-317.5" font-family="Helvetica,sans-Serif" font-size="10.00">SetFixedSchemaLocations()</text>
<text text-anchor="start" x="604.5" y="-302.5" font-family="Helvetica,sans-Serif" font-size="10.00">+</text>
<text text-anchor="start" x="617.5" y="-302.5" font-family="Helvetica,sans-Serif" font-size="10.00">SetParametersFile()</text>
<text text-anchor="start" x="604.5" y="-287.5" font-family="Helvetica,sans-Serif" font-size="10.00">+</text>
<text text-anchor="start" x="617.5" y="-287.5" font-family="Helvetica,sans-Serif" font-size="10.00">Write()</text>
<text text-anchor="start" x="604.5" y="-272.5" font-family="Helvetica,sans-Serif" font-size="10.00">+</text>
<text text-anchor="start" x="617.5" y="-272.5" font-family="Helvetica,sans-Serif" font-size="10.00">CopySchema()</text>
<text text-anchor="start" x="604.5" y="-257.5" font-family="Helvetica,sans-Serif" font-size="10.00">+</text>
<text text-anchor="start" x="617.5" y="-257.5" font-family="Helvetica,sans-Serif" font-size="10.00">ReadFile()</text>
<text text-anchor="start" x="604.5" y="-242.5" font-family="Helvetica,sans-Serif" font-size="10.00">+</text>
<text text-anchor="start" x="617.5" y="-242.5" font-family="Helvetica,sans-Serif" font-size="10.00">~HeartConfig()</text>
<text text-anchor="start" x="604.5" y="-227.5" font-family="Helvetica,sans-Serif" font-size="10.00">+</text>
<text text-anchor="start" x="617.5" y="-227.5" font-family="Helvetica,sans-Serif" font-size="10.00">GetVersionFromNamespace()</text>
<text text-anchor="start" x="604.5" y="-212.5" font-family="Helvetica,sans-Serif" font-size="10.00">+</text>
<text text-anchor="start" x="617.5" y="-212.5" font-family="Helvetica,sans-Serif" font-size="10.00">GetParametersFilePath()</text>
<text text-anchor="start" x="604.5" y="-197.5" font-family="Helvetica,sans-Serif" font-size="10.00">+</text>
<text text-anchor="start" x="617.5" y="-197.5" font-family="Helvetica,sans-Serif" font-size="10.00">IsSimulationDefined()</text>
<text text-anchor="start" x="617.5" y="-182.5" font-family="Helvetica,sans-Serif" font-size="10.00">and 155 more...</text>
<text text-anchor="start" x="604.5" y="-167.5" font-family="Helvetica,sans-Serif" font-size="10.00">+</text>
<text text-anchor="start" x="617.5" y="-167.5" font-family="Helvetica,sans-Serif" font-size="10.00">Instance()</text>
<text text-anchor="start" x="604.5" y="-152.5" font-family="Helvetica,sans-Serif" font-size="10.00">+</text>
<text text-anchor="start" x="617.5" y="-152.5" font-family="Helvetica,sans-Serif" font-size="10.00">Reset()</text>
<text text-anchor="start" x="607" y="-137.5" font-family="Helvetica,sans-Serif" font-size="10.00">&#45;</text>
<text text-anchor="start" x="617.5" y="-137.5" font-family="Helvetica,sans-Serif" font-size="10.00">CheckTimeSteps()</text>
<text text-anchor="start" x="607" y="-122.5" font-family="Helvetica,sans-Serif" font-size="10.00">&#45;</text>
<text text-anchor="start" x="617.5" y="-122.5" font-family="Helvetica,sans-Serif" font-size="10.00">save()</text>
<text text-anchor="start" x="607" y="-107.5" font-family="Helvetica,sans-Serif" font-size="10.00">&#45;</text>
<text text-anchor="start" x="617.5" y="-107.5" font-family="Helvetica,sans-Serif" font-size="10.00">load()</text>
<text text-anchor="start" x="607" y="-92.5" font-family="Helvetica,sans-Serif" font-size="10.00">&#45;</text>
<text text-anchor="start" x="617.5" y="-92.5" font-family="Helvetica,sans-Serif" font-size="10.00">LoadFromCheckpoint()</text>
<text text-anchor="start" x="607" y="-77.5" font-family="Helvetica,sans-Serif" font-size="10.00">&#45;</text>
<text text-anchor="start" x="617.5" y="-77.5" font-family="Helvetica,sans-Serif" font-size="10.00">UpdateParametersFromResume</text>
<text text-anchor="start" x="617.5" y="-66.5" font-family="Helvetica,sans-Serif" font-size="10.00">Simulation()</text>
<text text-anchor="start" x="607" y="-51.5" font-family="Helvetica,sans-Serif" font-size="10.00">&#45;</text>
<text text-anchor="start" x="617.5" y="-51.5" font-family="Helvetica,sans-Serif" font-size="10.00">SetDefaultSchemaLocations()</text>
<text text-anchor="start" x="607" y="-36.5" font-family="Helvetica,sans-Serif" font-size="10.00">&#45;</text>
<text text-anchor="start" x="617.5" y="-36.5" font-family="Helvetica,sans-Serif" font-size="10.00">HeartConfig()</text>
<text text-anchor="start" x="607" y="-21.5" font-family="Helvetica,sans-Serif" font-size="10.00">&#45;</text>
<text text-anchor="start" x="617.5" y="-21.5" font-family="Helvetica,sans-Serif" font-size="10.00">CheckSimulationIsDefined()</text>
<text text-anchor="start" x="607" y="-6.5" font-family="Helvetica,sans-Serif" font-size="10.00">&#45;</text>
<text text-anchor="start" x="617.5" y="-6.5" font-family="Helvetica,sans-Serif" font-size="10.00">CheckResumeSimulationIsDefined()</text>
<polygon fill="#666666" stroke="#666666" points="600.5,-357.5 600.5,-357.5 797.5,-357.5 797.5,-357.5 600.5,-357.5"/>
<polygon fill="#666666" stroke="#666666" points="600.5,-342.5 600.5,-342.5 797.5,-342.5 797.5,-342.5 600.5,-342.5"/>
<polygon fill="none" stroke="#666666" points="600,0 600,-375 797,-375 797,0 600,0"/>
</a>
</g>
</g>
<!-- Node2 -->
<g id="Node000002" class="node">
<title>Node2</title>
<g id="a_Node000002"><a xlink:title=" ">
<polygon fill="white" stroke="transparent" points="113,-629.5 0,-629.5 0,-569.5 113,-569.5 113,-629.5"/>
<text text-anchor="start" x="5.5" y="-617.5" font-family="Helvetica,sans-Serif" font-size="10.00">map&lt; std::string, std</text>
<text text-anchor="start" x="34" y="-606.5" font-family="Helvetica,sans-Serif" font-size="10.00">::string &gt;</text>
<text text-anchor="start" x="55" y="-591.5" font-family="Helvetica,sans-Serif" font-size="10.00"> </text>
<text text-anchor="start" x="55" y="-576.5" font-family="Helvetica,sans-Serif" font-size="10.00"> </text>
<polygon fill="#bfbfbf" stroke="#bfbfbf" points="0.5,-601.5 0.5,-601.5 113.5,-601.5 113.5,-601.5 0.5,-601.5"/>
<polygon fill="#bfbfbf" stroke="#bfbfbf" points="0.5,-586.5 0.5,-586.5 113.5,-586.5 113.5,-586.5 0.5,-586.5"/>
<polygon fill="none" stroke="#bfbfbf" points="0,-569.5 0,-629.5 113,-629.5 113,-569.5 0,-569.5"/>
</a>
</g>
</g>
<!-- Node2&#45;&gt;Node1 -->
<g id="edge1_Node000001_Node000002" class="edge">
<title>Node2&#45;&gt;Node1</title>
<g id="a_edge1_Node000001_Node000002"><a xlink:title=" ">
<path fill="none" stroke="#63b8ff" d="M59.83,-569.49C66.37,-525.5 84.89,-441.88 134.5,-393 258.94,-270.41 462.4,-220.67 587.93,-200.95"/>
<polygon fill="none" stroke="#63b8ff" points="587.97,-200.94 593.3,-196.08 599.83,-199.13 594.5,-203.99 587.97,-200.94"/>
</a>
</g>
<text text-anchor="middle" x="186" y="-412.5" font-family="Helvetica,sans-Serif" font-size="10.00" fill="grey"> &#45;mSchemaLocations</text>
</g>
<!-- Node3 -->
<g id="Node000003" class="node">
<title>Node3</title>
<g id="a_Node000003"><a xlink:title=" ">
<polygon fill="white" stroke="transparent" points="254,-629.5 131,-629.5 131,-569.5 254,-569.5 254,-629.5"/>
<text text-anchor="start" x="136.5" y="-617.5" font-family="Helvetica,sans-Serif" font-size="10.00">shared_ptr&lt; cp::chaste</text>
<text text-anchor="start" x="143" y="-606.5" font-family="Helvetica,sans-Serif" font-size="10.00">_parameters_type &gt;</text>
<text text-anchor="start" x="191" y="-591.5" font-family="Helvetica,sans-Serif" font-size="10.00"> </text>
<text text-anchor="start" x="191" y="-576.5" font-family="Helvetica,sans-Serif" font-size="10.00"> </text>
<polygon fill="#bfbfbf" stroke="#bfbfbf" points="131.5,-601.5 131.5,-601.5 254.5,-601.5 254.5,-601.5 131.5,-601.5"/>
<polygon fill="#bfbfbf" stroke="#bfbfbf" points="131.5,-586.5 131.5,-586.5 254.5,-586.5 254.5,-586.5 131.5,-586.5"/>
<polygon fill="none" stroke="#bfbfbf" points="131,-569.5 131,-629.5 254,-629.5 254,-569.5 131,-569.5"/>
</a>
</g>
</g>
<!-- Node3&#45;&gt;Node1 -->
<g id="edge2_Node000001_Node000003" class="edge">
<title>Node3&#45;&gt;Node1</title>
<g id="a_edge2_Node000001_Node000003"><a xlink:title=" ">
<path fill="none" stroke="#63b8ff" d="M196.72,-569.37C204.4,-525.96 224.44,-443.97 271.5,-393 356.74,-300.68 492.45,-245.7 587.95,-216.38"/>
<polygon fill="none" stroke="#63b8ff" points="588.19,-216.3 592.78,-210.74 599.68,-212.84 595.09,-218.4 588.19,-216.3"/>
</a>
</g>
<text text-anchor="middle" x="311" y="-412.5" font-family="Helvetica,sans-Serif" font-size="10.00" fill="grey"> &#45;mpParameters</text>
</g>
<!-- Node4 -->
<g id="Node000004" class="node">
<title>Node4</title>
<g id="a_Node000004"><a xlink:title=" ">
<polygon fill="white" stroke="transparent" points="415,-624 272,-624 272,-575 415,-575 415,-624"/>
<text text-anchor="start" x="277.5" y="-611.5" font-family="Helvetica,sans-Serif" font-size="10.00">shared_ptr&lt; HeartConfig &gt;</text>
<text text-anchor="start" x="342" y="-596.5" font-family="Helvetica,sans-Serif" font-size="10.00"> </text>
<text text-anchor="start" x="342" y="-581.5" font-family="Helvetica,sans-Serif" font-size="10.00"> </text>
<polygon fill="#bfbfbf" stroke="#bfbfbf" points="272.5,-606.5 272.5,-606.5 415.5,-606.5 415.5,-606.5 272.5,-606.5"/>
<polygon fill="#bfbfbf" stroke="#bfbfbf" points="272.5,-591.5 272.5,-591.5 415.5,-591.5 415.5,-591.5 272.5,-591.5"/>
<polygon fill="none" stroke="#bfbfbf" points="272,-575 272,-624 415,-624 415,-575 272,-575"/>
</a>
</g>
</g>
<!-- Node4&#45;&gt;Node1 -->
<g id="edge3_Node000001_Node000004" class="edge">
<title>Node4&#45;&gt;Node1</title>
<g id="a_edge3_Node000001_Node000004"><a xlink:title=" ">
<path fill="none" stroke="#63b8ff" d="M340.9,-574.73C337.67,-534.01 336.52,-449.81 373.5,-393 424.09,-315.28 515.67,-261.64 588.75,-228.86"/>
<polygon fill="none" stroke="#63b8ff" points="588.86,-228.81 592.74,-222.73 599.85,-223.98 595.97,-230.06 588.86,-228.81"/>
</a>
</g>
<text text-anchor="middle" x="405.5" y="-412.5" font-family="Helvetica,sans-Serif" font-size="10.00" fill="grey"> &#45;mpInstance</text>
</g>
<!-- Node5 -->
<g id="Node000005" class="node">
<title>Node5</title>
<g id="a_Node000005"><a xlink:href="classFileFinder.html" target="_top" xlink:title=" ">
<polygon fill="white" stroke="transparent" points="827.5,-744 641.5,-744 641.5,-455 827.5,-455 827.5,-744"/>
<text text-anchor="start" x="710.5" y="-731.5" font-family="Helvetica,sans-Serif" font-size="10.00">FileFinder</text>
<text text-anchor="start" x="732.5" y="-716.5" font-family="Helvetica,sans-Serif" font-size="10.00"> </text>
<text text-anchor="start" x="645.5" y="-701.5" font-family="Helvetica,sans-Serif" font-size="10.00">+</text>
<text text-anchor="start" x="658.5" y="-701.5" font-family="Helvetica,sans-Serif" font-size="10.00">FileFinder()</text>
<text text-anchor="start" x="645.5" y="-686.5" font-family="Helvetica,sans-Serif" font-size="10.00">+</text>
<text text-anchor="start" x="658.5" y="-686.5" font-family="Helvetica,sans-Serif" font-size="10.00">FileFinder()</text>
<text text-anchor="start" x="645.5" y="-671.5" font-family="Helvetica,sans-Serif" font-size="10.00">+</text>
<text text-anchor="start" x="658.5" y="-671.5" font-family="Helvetica,sans-Serif" font-size="10.00">FileFinder()</text>
<text text-anchor="start" x="645.5" y="-656.5" font-family="Helvetica,sans-Serif" font-size="10.00">+</text>
<text text-anchor="start" x="658.5" y="-656.5" font-family="Helvetica,sans-Serif" font-size="10.00">FileFinder()</text>
<text text-anchor="start" x="645.5" y="-641.5" font-family="Helvetica,sans-Serif" font-size="10.00">+</text>
<text text-anchor="start" x="658.5" y="-641.5" font-family="Helvetica,sans-Serif" font-size="10.00">~FileFinder()</text>
<text text-anchor="start" x="645.5" y="-626.5" font-family="Helvetica,sans-Serif" font-size="10.00">+</text>
<text text-anchor="start" x="658.5" y="-626.5" font-family="Helvetica,sans-Serif" font-size="10.00">SetPath()</text>
<text text-anchor="start" x="645.5" y="-611.5" font-family="Helvetica,sans-Serif" font-size="10.00">+</text>
<text text-anchor="start" x="658.5" y="-611.5" font-family="Helvetica,sans-Serif" font-size="10.00">SetPath()</text>
<text text-anchor="start" x="645.5" y="-596.5" font-family="Helvetica,sans-Serif" font-size="10.00">+</text>
<text text-anchor="start" x="658.5" y="-596.5" font-family="Helvetica,sans-Serif" font-size="10.00">IsPathSet()</text>
<text text-anchor="start" x="645.5" y="-581.5" font-family="Helvetica,sans-Serif" font-size="10.00">+</text>
<text text-anchor="start" x="658.5" y="-581.5" font-family="Helvetica,sans-Serif" font-size="10.00">Exists()</text>
<text text-anchor="start" x="645.5" y="-566.5" font-family="Helvetica,sans-Serif" font-size="10.00">+</text>
<text text-anchor="start" x="658.5" y="-566.5" font-family="Helvetica,sans-Serif" font-size="10.00">IsFile()</text>
<text text-anchor="start" x="658.5" y="-551.5" font-family="Helvetica,sans-Serif" font-size="10.00">and 14 more...</text>
<text text-anchor="start" x="645.5" y="-536.5" font-family="Helvetica,sans-Serif" font-size="10.00">+</text>
<text text-anchor="start" x="658.5" y="-536.5" font-family="Helvetica,sans-Serif" font-size="10.00">IsAbsolutePath()</text>
<text text-anchor="start" x="645.5" y="-521.5" font-family="Helvetica,sans-Serif" font-size="10.00">+</text>
<text text-anchor="start" x="658.5" y="-521.5" font-family="Helvetica,sans-Serif" font-size="10.00">ReplaceSpacesWithUnderscores()</text>
<text text-anchor="start" x="645.5" y="-506.5" font-family="Helvetica,sans-Serif" font-size="10.00">+</text>
<text text-anchor="start" x="658.5" y="-506.5" font-family="Helvetica,sans-Serif" font-size="10.00">ReplaceUnderscoresWithSpaces()</text>
<text text-anchor="start" x="645.5" y="-491.5" font-family="Helvetica,sans-Serif" font-size="10.00">+</text>
<text text-anchor="start" x="658.5" y="-491.5" font-family="Helvetica,sans-Serif" font-size="10.00">FakePath()</text>
<text text-anchor="start" x="645.5" y="-476.5" font-family="Helvetica,sans-Serif" font-size="10.00">+</text>
<text text-anchor="start" x="658.5" y="-476.5" font-family="Helvetica,sans-Serif" font-size="10.00">StopFaking()</text>
<text text-anchor="start" x="648" y="-461.5" font-family="Helvetica,sans-Serif" font-size="10.00">&#45;</text>
<text text-anchor="start" x="658.5" y="-461.5" font-family="Helvetica,sans-Serif" font-size="10.00">PrivateRemove()</text>
<polygon fill="#666666" stroke="#666666" points="641.5,-726.5 641.5,-726.5 827.5,-726.5 827.5,-726.5 641.5,-726.5"/>
<polygon fill="#666666" stroke="#666666" points="641.5,-711.5 641.5,-711.5 827.5,-711.5 827.5,-711.5 641.5,-711.5"/>
<polygon fill="none" stroke="#666666" points="641.5,-455 641.5,-744 827.5,-744 827.5,-455 641.5,-455"/>
</a>
</g>
</g>
<!-- Node5&#45;&gt;Node1 -->
<g id="edge4_Node000001_Node000005" class="edge">
<title>Node5&#45;&gt;Node1</title>
<g id="a_edge4_Node000001_Node000005"><a xlink:title=" ">
<path fill="none" stroke="#63b8ff" d="M701.76,-454.78C700.9,-448.79 700.14,-442.85 699.5,-437 697.75,-420.95 696.49,-404.29 695.61,-387.53"/>
<polygon fill="none" stroke="#63b8ff" points="695.6,-387.3 691.32,-381.49 695.04,-375.31 699.32,-381.12 695.6,-387.3"/>
</a>
</g>
<text text-anchor="middle" x="755" y="-412.5" font-family="Helvetica,sans-Serif" font-size="10.00" fill="grey"> &#45;mParametersFilePath</text>
</g>
<!-- Node6 -->
<g id="Node000006" class="node">
<title>Node6</title>
<g id="a_Node000006"><a xlink:title=" ">
<polygon fill="white" stroke="transparent" points="841.5,-840 803.5,-840 803.5,-791 841.5,-791 841.5,-840"/>
<text text-anchor="start" x="808.5" y="-827.5" font-family="Helvetica,sans-Serif" font-size="10.00">string</text>
<text text-anchor="start" x="820.5" y="-812.5" font-family="Helvetica,sans-Serif" font-size="10.00"> </text>
<text text-anchor="start" x="820.5" y="-797.5" font-family="Helvetica,sans-Serif" font-size="10.00"> </text>
<polygon fill="#bfbfbf" stroke="#bfbfbf" points="803.5,-822.5 803.5,-822.5 841.5,-822.5 841.5,-822.5 803.5,-822.5"/>
<polygon fill="#bfbfbf" stroke="#bfbfbf" points="803.5,-807.5 803.5,-807.5 841.5,-807.5 841.5,-807.5 803.5,-807.5"/>
<polygon fill="none" stroke="#bfbfbf" points="803.5,-791 803.5,-840 841.5,-840 841.5,-791 803.5,-791"/>
</a>
</g>
</g>
<!-- Node6&#45;&gt;Node5 -->
<g id="edge5_Node000005_Node000006" class="edge">
<title>Node6&#45;&gt;Node5</title>
<g id="a_edge5_Node000005_Node000006"><a xlink:title=" ">
<path fill="none" stroke="#63b8ff" d="M812.75,-790.78C808.76,-781.09 803.79,-769.01 798.31,-755.67"/>
<polygon fill="none" stroke="#63b8ff" points="798.15,-755.29 792.17,-751.26 793.59,-744.19 799.57,-748.22 798.15,-755.29"/>
</a>
</g>
<text text-anchor="middle" x="830.5" y="-765" font-family="Helvetica,sans-Serif" font-size="10.00" fill="grey"> &#45;mAbsPath</text>
</g>
<!-- Node7 -->
<g id="Node000007" class="node">
<title>Node7</title>
<g id="a_Node000007"><a xlink:href="classbool.html" target="_top" xlink:title=" ">
<polygon fill="white" stroke="transparent" points="496.5,-840 464.5,-840 464.5,-791 496.5,-791 496.5,-840"/>
<text text-anchor="start" x="469.5" y="-827.5" font-family="Helvetica,sans-Serif" font-size="10.00">bool</text>
<text text-anchor="start" x="478.5" y="-812.5" font-family="Helvetica,sans-Serif" font-size="10.00"> </text>
<text text-anchor="start" x="478.5" y="-797.5" font-family="Helvetica,sans-Serif" font-size="10.00"> </text>
<polygon fill="#bfbfbf" stroke="#bfbfbf" points="464.5,-822.5 464.5,-822.5 496.5,-822.5 496.5,-822.5 464.5,-822.5"/>
<polygon fill="#bfbfbf" stroke="#bfbfbf" points="464.5,-807.5 464.5,-807.5 496.5,-807.5 496.5,-807.5 464.5,-807.5"/>
<polygon fill="none" stroke="#bfbfbf" points="464.5,-791 464.5,-840 496.5,-840 496.5,-791 464.5,-791"/>
</a>
</g>
</g>
<!-- Node7&#45;&gt;Node1 -->
<g id="edge9_Node000001_Node000007" class="edge">
<title>Node7&#45;&gt;Node1</title>
<g id="a_edge9_Node000001_Node000007"><a xlink:title=" ">
<path fill="none" stroke="#63b8ff" d="M472.73,-790.77C454.73,-731.69 415.04,-574.14 460.5,-455 487.04,-385.43 541.03,-322.5 590.88,-275.29"/>
<polygon fill="none" stroke="#63b8ff" points="591.03,-275.15 592.69,-268.13 599.81,-266.96 598.15,-273.98 591.03,-275.15"/>
</a>
</g>
<text text-anchor="middle" x="546.5" y="-635.5" font-family="Helvetica,sans-Serif" font-size="10.00" fill="grey"> &#45;mUseFixedNumberIterations</text>
<text text-anchor="middle" x="546.5" y="-624.5" font-family="Helvetica,sans-Serif" font-size="10.00" fill="grey">&#45;mUseFixedSchemaLocation</text>
<text text-anchor="middle" x="546.5" y="-613.5" font-family="Helvetica,sans-Serif" font-size="10.00" fill="grey">&#45;mUseMassLumping</text>
<text text-anchor="middle" x="546.5" y="-602.5" font-family="Helvetica,sans-Serif" font-size="10.00" fill="grey">&#45;mUseMassLumpingForPrecond</text>
<text text-anchor="start" x="460.5" y="-591.5" font-family="Helvetica,sans-Serif" font-size="10.00" fill="grey">&#45;mUseReactionDiffusionOperator</text>
<text text-anchor="middle" x="546.5" y="-580.5" font-family="Helvetica,sans-Serif" font-size="10.00" fill="grey">Splitting</text>
<text text-anchor="start" x="460.5" y="-569.5" font-family="Helvetica,sans-Serif" font-size="10.00" fill="grey">&#45;mUserAskedForCellularTransmural</text>
<text text-anchor="middle" x="546.5" y="-558.5" font-family="Helvetica,sans-Serif" font-size="10.00" fill="grey">Heterogeneities</text>
</g>
<!-- Node7&#45;&gt;Node5 -->
<g id="edge6_Node000005_Node000007" class="edge">
<title>Node7&#45;&gt;Node5</title>
<g id="a_edge6_Node000005_Node000007"><a xlink:title=" ">
<path fill="none" stroke="#63b8ff" d="M496.64,-807.92C530.14,-794.08 605.92,-761.76 627.5,-744 629.11,-742.68 630.71,-741.32 632.29,-739.94"/>
<polygon fill="none" stroke="#63b8ff" points="632.38,-739.86 634.12,-732.86 641.25,-731.77 639.51,-738.77 632.38,-739.86"/>
</a>
</g>
<text text-anchor="middle" x="621.5" y="-765" font-family="Helvetica,sans-Serif" font-size="10.00" fill="grey"> &#45;msFaking</text>
</g>
<!-- Node8 -->
<g id="Node000008" class="node">
<title>Node8</title>
<g id="a_Node000008"><a xlink:title=" ">
<polygon fill="white" stroke="transparent" points="660.5,-840 622.5,-840 622.5,-791 660.5,-791 660.5,-840"/>
<text text-anchor="start" x="627.5" y="-827.5" font-family="Helvetica,sans-Serif" font-size="10.00">Value</text>
<text text-anchor="start" x="639.5" y="-812.5" font-family="Helvetica,sans-Serif" font-size="10.00"> </text>
<text text-anchor="start" x="639.5" y="-797.5" font-family="Helvetica,sans-Serif" font-size="10.00"> </text>
<polygon fill="#bfbfbf" stroke="#bfbfbf" points="622.5,-822.5 622.5,-822.5 660.5,-822.5 660.5,-822.5 622.5,-822.5"/>
<polygon fill="#bfbfbf" stroke="#bfbfbf" points="622.5,-807.5 622.5,-807.5 660.5,-807.5 660.5,-807.5 622.5,-807.5"/>
<polygon fill="none" stroke="#bfbfbf" points="622.5,-791 622.5,-840 660.5,-840 660.5,-791 622.5,-791"/>
</a>
</g>
</g>
<!-- Node8&#45;&gt;Node5 -->
<g id="edge7_Node000005_Node000008" class="edge">
<title>Node8&#45;&gt;Node5</title>
<g id="a_edge7_Node000005_Node000008"><a xlink:title=" ">
<path fill="none" stroke="#63b8ff" d="M649.6,-790.82C652.83,-781.74 656.68,-771.33 660.5,-762 661.4,-759.81 662.31,-757.6 663.23,-755.38"/>
<polygon fill="none" stroke="#63b8ff" points="663.28,-755.27 661.91,-748.19 667.93,-744.2 669.29,-751.28 663.28,-755.27"/>
</a>
</g>
<text text-anchor="middle" x="695.5" y="-765" font-family="Helvetica,sans-Serif" font-size="10.00" fill="grey"> &#45;msFakeWhat</text>
</g>
<!-- Node9 -->
<g id="Node000009" class="node">
<title>Node9</title>
<g id="a_Node000009"><a xlink:title=" ">
<polygon fill="white" stroke="transparent" points="753.5,-840 715.5,-840 715.5,-791 753.5,-791 753.5,-840"/>
<text text-anchor="start" x="720.5" y="-827.5" font-family="Helvetica,sans-Serif" font-size="10.00">string</text>
<text text-anchor="start" x="732.5" y="-812.5" font-family="Helvetica,sans-Serif" font-size="10.00"> </text>
<text text-anchor="start" x="732.5" y="-797.5" font-family="Helvetica,sans-Serif" font-size="10.00"> </text>
<polygon fill="#bfbfbf" stroke="#bfbfbf" points="715.5,-822.5 715.5,-822.5 753.5,-822.5 753.5,-822.5 715.5,-822.5"/>
<polygon fill="#bfbfbf" stroke="#bfbfbf" points="715.5,-807.5 715.5,-807.5 753.5,-807.5 753.5,-807.5 715.5,-807.5"/>
<polygon fill="none" stroke="#bfbfbf" points="715.5,-791 715.5,-840 753.5,-840 753.5,-791 715.5,-791"/>
</a>
</g>
</g>
<!-- Node9&#45;&gt;Node5 -->
<g id="edge8_Node000005_Node000009" class="edge">
<title>Node9&#45;&gt;Node5</title>
<g id="a_edge8_Node000005_Node000009"><a xlink:title=" ">
<path fill="none" stroke="#63b8ff" d="M734.5,-790.78C734.5,-781.28 734.5,-769.49 734.5,-756.47"/>
<polygon fill="none" stroke="#63b8ff" points="734.5,-756.19 730.5,-750.19 734.5,-744.19 738.5,-750.19 734.5,-756.19"/>
</a>
</g>
<text text-anchor="middle" x="767" y="-765" font-family="Helvetica,sans-Serif" font-size="10.00" fill="grey"> &#45;msFakePath</text>
</g>
<!-- Node10 -->
<g id="Node000010" class="node">
<title>Node10</title>
<g id="a_Node000010"><a xlink:href="classdouble.html" target="_top" xlink:title=" ">
<polygon fill="white" stroke="transparent" points="889.5,-624 845.5,-624 845.5,-575 889.5,-575 889.5,-624"/>
<text text-anchor="start" x="850.5" y="-611.5" font-family="Helvetica,sans-Serif" font-size="10.00">double</text>
<text text-anchor="start" x="865.5" y="-596.5" font-family="Helvetica,sans-Serif" font-size="10.00"> </text>
<text text-anchor="start" x="865.5" y="-581.5" font-family="Helvetica,sans-Serif" font-size="10.00"> </text>
<polygon fill="#bfbfbf" stroke="#bfbfbf" points="845.5,-606.5 845.5,-606.5 889.5,-606.5 889.5,-606.5 845.5,-606.5"/>
<polygon fill="#bfbfbf" stroke="#bfbfbf" points="845.5,-591.5 845.5,-591.5 889.5,-591.5 889.5,-591.5 845.5,-591.5"/>
<polygon fill="none" stroke="#bfbfbf" points="845.5,-575 845.5,-624 889.5,-624 889.5,-575 845.5,-575"/>
</a>
</g>
</g>
<!-- Node10&#45;&gt;Node1 -->
<g id="edge10_Node000001_Node000010" class="edge">
<title>Node10&#45;&gt;Node1</title>
<g id="a_edge10_Node000001_Node000010"><a xlink:title=" ">
<path fill="none" stroke="#63b8ff" d="M863.76,-574.79C858.91,-546.05 849.51,-496.33 836.5,-455 827.46,-426.26 815.46,-396.91 802.3,-368.69"/>
<polygon fill="none" stroke="#63b8ff" points="802.14,-368.35 795.96,-364.65 797,-357.51 803.18,-361.22 802.14,-368.35"/>
</a>
</g>
<text text-anchor="middle" x="868.5" y="-423.5" font-family="Helvetica,sans-Serif" font-size="10.00" fill="grey"> &#45;mEndoFraction</text>
<text text-anchor="middle" x="868.5" y="-412.5" font-family="Helvetica,sans-Serif" font-size="10.00" fill="grey">&#45;mEpiFraction</text>
<text text-anchor="middle" x="868.5" y="-401.5" font-family="Helvetica,sans-Serif" font-size="10.00" fill="grey">&#45;mMidFraction</text>
</g>
<!-- Node11 -->
<g id="Node000011" class="node">
<title>Node11</title>
<g id="a_Node000011"><a xlink:href="classunsigned.html" target="_top" xlink:title=" ">
<polygon fill="white" stroke="transparent" points="963,-624 908,-624 908,-575 963,-575 963,-624"/>
<text text-anchor="start" x="913.5" y="-611.5" font-family="Helvetica,sans-Serif" font-size="10.00">unsigned</text>
<text text-anchor="start" x="934" y="-596.5" font-family="Helvetica,sans-Serif" font-size="10.00"> </text>
<text text-anchor="start" x="934" y="-581.5" font-family="Helvetica,sans-Serif" font-size="10.00"> </text>
<polygon fill="#bfbfbf" stroke="#bfbfbf" points="908.5,-606.5 908.5,-606.5 963.5,-606.5 963.5,-606.5 908.5,-606.5"/>
<polygon fill="#bfbfbf" stroke="#bfbfbf" points="908.5,-591.5 908.5,-591.5 963.5,-591.5 963.5,-591.5 908.5,-591.5"/>
<polygon fill="none" stroke="#bfbfbf" points="908,-575 908,-624 963,-624 963,-575 908,-575"/>
</a>
</g>
</g>
<!-- Node11&#45;&gt;Node1 -->
<g id="edge11_Node000001_Node000011" class="edge">
<title>Node11&#45;&gt;Node1</title>
<g id="a_edge11_Node000001_Node000011"><a xlink:title=" ">
<path fill="none" stroke="#63b8ff" d="M937.88,-574.87C940.83,-535.08 942.29,-453.16 912.5,-393 888.01,-343.55 846.41,-299.6 806.37,-265.24"/>
<polygon fill="none" stroke="#63b8ff" points="806.22,-265.12 799.06,-264.31 797.05,-257.39 804.21,-258.19 806.22,-265.12"/>
</a>
</g>
<text text-anchor="middle" x="1009" y="-429" font-family="Helvetica,sans-Serif" font-size="10.00" fill="grey"> &#45;mEvaluateNumItsEveryNSolves</text>
<text text-anchor="middle" x="1009" y="-418" font-family="Helvetica,sans-Serif" font-size="10.00" fill="grey">&#45;mIndexEndo</text>
<text text-anchor="middle" x="1009" y="-407" font-family="Helvetica,sans-Serif" font-size="10.00" fill="grey">&#45;mIndexEpi</text>
<text text-anchor="middle" x="1009" y="-396" font-family="Helvetica,sans-Serif" font-size="10.00" fill="grey">&#45;mIndexMid</text>
</g>
<!-- Node12 -->
<g id="Node000012" class="node">
<title>Node12</title>
<g id="a_Node000012"><a xlink:title=" ">
<polygon fill="white" stroke="transparent" points="1190.5,-624 1052.5,-624 1052.5,-575 1190.5,-575 1190.5,-624"/>
<text text-anchor="start" x="1057.5" y="-611.5" font-family="Helvetica,sans-Serif" font-size="10.00">map&lt; unsigned, double &gt;</text>
<text text-anchor="start" x="1119.5" y="-596.5" font-family="Helvetica,sans-Serif" font-size="10.00"> </text>
<text text-anchor="start" x="1119.5" y="-581.5" font-family="Helvetica,sans-Serif" font-size="10.00"> </text>
<polygon fill="#bfbfbf" stroke="#bfbfbf" points="1052.5,-606.5 1052.5,-606.5 1190.5,-606.5 1190.5,-606.5 1052.5,-606.5"/>
<polygon fill="#bfbfbf" stroke="#bfbfbf" points="1052.5,-591.5 1052.5,-591.5 1190.5,-591.5 1190.5,-591.5 1052.5,-591.5"/>
<polygon fill="none" stroke="#bfbfbf" points="1052.5,-575 1052.5,-624 1190.5,-624 1190.5,-575 1052.5,-575"/>
</a>
</g>
</g>
<!-- Node12&#45;&gt;Node1 -->
<g id="edge12_Node000001_Node000012" class="edge">
<title>Node12&#45;&gt;Node1</title>
<g id="a_edge12_Node000001_Node000012"><a xlink:title=" ">
<path fill="none" stroke="#63b8ff" d="M1124.99,-574.75C1129.7,-533.69 1133.49,-448.5 1094.5,-393 1027.11,-297.06 900.77,-243.05 808.87,-214.95"/>
<polygon fill="none" stroke="#63b8ff" points="808.77,-214.92 801.87,-217.03 797.27,-211.48 804.16,-209.37 808.77,-214.92"/>
</a>
</g>
<text text-anchor="middle" x="1168" y="-412.5" font-family="Helvetica,sans-Serif" font-size="10.00" fill="grey"> &#45;mBathConductivities</text>
</g>
<!-- Node13 -->
<g id="Node000013" class="node">
<title>Node13</title>
<g id="a_Node000013"><a xlink:title=" ">
<polygon fill="white" stroke="transparent" points="1300.5,-624 1208.5,-624 1208.5,-575 1300.5,-575 1300.5,-624"/>
<text text-anchor="start" x="1213.5" y="-611.5" font-family="Helvetica,sans-Serif" font-size="10.00">set&lt; unsigned &gt;</text>
<text text-anchor="start" x="1252.5" y="-596.5" font-family="Helvetica,sans-Serif" font-size="10.00"> </text>
<text text-anchor="start" x="1252.5" y="-581.5" font-family="Helvetica,sans-Serif" font-size="10.00"> </text>
<polygon fill="#bfbfbf" stroke="#bfbfbf" points="1208.5,-606.5 1208.5,-606.5 1300.5,-606.5 1300.5,-606.5 1208.5,-606.5"/>
<polygon fill="#bfbfbf" stroke="#bfbfbf" points="1208.5,-591.5 1208.5,-591.5 1300.5,-591.5 1300.5,-591.5 1208.5,-591.5"/>
<polygon fill="none" stroke="#bfbfbf" points="1208.5,-575 1208.5,-624 1300.5,-624 1300.5,-575 1208.5,-575"/>
</a>
</g>
</g>
<!-- Node13&#45;&gt;Node1 -->
<g id="edge13_Node000001_Node000013" class="edge">
<title>Node13&#45;&gt;Node1</title>
<g id="a_edge13_Node000001_Node000013"><a xlink:title=" ">
<path fill="none" stroke="#63b8ff" d="M1258.37,-574.94C1263.81,-533.43 1268.78,-446.55 1226.5,-393 1124.88,-264.3 931.49,-216.49 809.09,-198.8"/>
<polygon fill="none" stroke="#63b8ff" points="808.99,-198.79 802.49,-201.92 797.1,-197.14 803.59,-194 808.99,-198.79"/>
</a>
</g>
<text text-anchor="middle" x="1296.5" y="-418" font-family="Helvetica,sans-Serif" font-size="10.00" fill="grey"> &#45;mBathIdentifiers</text>
<text text-anchor="middle" x="1296.5" y="-407" font-family="Helvetica,sans-Serif" font-size="10.00" fill="grey">&#45;mTissueIdentifiers</text>
</g>
</g>
</svg>
