<?xml version="1.0" encoding="UTF-8" standalone="no"?>
<!DOCTYPE svg PUBLIC "-//W3C//DTD SVG 1.1//EN"
 "http://www.w3.org/Graphics/SVG/1.1/DTD/svg11.dtd">
<!-- Generated by graphviz version 2.43.0 (0)
 -->
<!-- Title: MutableElement&lt; 1, SPACE_DIM &gt; Pages: 1 -->
<svg width="650pt" height="891pt"
 viewBox="0.00 0.00 650.00 891.00" xmlns="http://www.w3.org/2000/svg" xmlns:xlink="http://www.w3.org/1999/xlink">
<g id="graph0" class="graph" transform="scale(1 1) rotate(0) translate(4 887)">
<title>MutableElement&lt; 1, SPACE_DIM &gt;</title>
<!-- Node1 -->
<g id="Node000001" class="node">
<title>Node1</title>
<g id="a_Node000001"><a xlink:title=" ">
<polygon fill="#999999" stroke="transparent" points="481,-210 358,-210 358,0 481,0 481,-210"/>
<text text-anchor="start" x="369.5" y="-198" font-family="Helvetica,sans-Serif" font-size="10.00">MutableElement&lt; 1,</text>
<text text-anchor="start" x="385" y="-187" font-family="Helvetica,sans-Serif" font-size="10.00"> SPACE_DIM &gt;</text>
<text text-anchor="start" x="418" y="-172" font-family="Helvetica,sans-Serif" font-size="10.00"> </text>
<text text-anchor="start" x="362.5" y="-157" font-family="Helvetica,sans-Serif" font-size="10.00">+</text>
<text text-anchor="start" x="375.5" y="-157" font-family="Helvetica,sans-Serif" font-size="10.00">MutableElement()</text>
<text text-anchor="start" x="362.5" y="-142" font-family="Helvetica,sans-Serif" font-size="10.00">+</text>
<text text-anchor="start" x="375.5" y="-142" font-family="Helvetica,sans-Serif" font-size="10.00">MutableElement()</text>
<text text-anchor="start" x="362.5" y="-127" font-family="Helvetica,sans-Serif" font-size="10.00">+</text>
<text text-anchor="start" x="375.5" y="-127" font-family="Helvetica,sans-Serif" font-size="10.00">~MutableElement()</text>
<text text-anchor="start" x="362.5" y="-112" font-family="Helvetica,sans-Serif" font-size="10.00">+</text>
<text text-anchor="start" x="375.5" y="-112" font-family="Helvetica,sans-Serif" font-size="10.00">UpdateNode()</text>
<text text-anchor="start" x="362.5" y="-97" font-family="Helvetica,sans-Serif" font-size="10.00">+</text>
<text text-anchor="start" x="375.5" y="-97" font-family="Helvetica,sans-Serif" font-size="10.00">RegisterWithNodes()</text>
<text text-anchor="start" x="362.5" y="-82" font-family="Helvetica,sans-Serif" font-size="10.00">+</text>
<text text-anchor="start" x="375.5" y="-82" font-family="Helvetica,sans-Serif" font-size="10.00">MarkAsDeleted()</text>
<text text-anchor="start" x="362.5" y="-67" font-family="Helvetica,sans-Serif" font-size="10.00">+</text>
<text text-anchor="start" x="375.5" y="-67" font-family="Helvetica,sans-Serif" font-size="10.00">ResetIndex()</text>
<text text-anchor="start" x="362.5" y="-52" font-family="Helvetica,sans-Serif" font-size="10.00">+</text>
<text text-anchor="start" x="375.5" y="-52" font-family="Helvetica,sans-Serif" font-size="10.00">DeleteNode()</text>
<text text-anchor="start" x="362.5" y="-37" font-family="Helvetica,sans-Serif" font-size="10.00">+</text>
<text text-anchor="start" x="375.5" y="-37" font-family="Helvetica,sans-Serif" font-size="10.00">AddNode()</text>
<text text-anchor="start" x="362.5" y="-22" font-family="Helvetica,sans-Serif" font-size="10.00">+</text>
<text text-anchor="start" x="375.5" y="-22" font-family="Helvetica,sans-Serif" font-size="10.00">GetEdge()</text>
<text text-anchor="start" x="375.5" y="-7" font-family="Helvetica,sans-Serif" font-size="10.00">and 12 more...</text>
<polygon fill="#666666" stroke="#666666" points="358.5,-182 358.5,-182 481.5,-182 481.5,-182 358.5,-182"/>
<polygon fill="#666666" stroke="#666666" points="358.5,-167 358.5,-167 481.5,-167 481.5,-167 358.5,-167"/>
<polygon fill="none" stroke="#666666" points="358,0 358,-210 481,-210 481,0 358,0"/>
</a>
</g>
</g>
<!-- Node2 -->
<g id="Node000002" class="node">
<title>Node2</title>
<g id="a_Node000002"><a xlink:href="classAbstractElement.html" target="_top" xlink:title=" ">
<polygon fill="white" stroke="transparent" points="341.5,-482 177.5,-482 177.5,-257 341.5,-257 341.5,-482"/>
<text text-anchor="start" x="208.5" y="-469.5" font-family="Helvetica,sans-Serif" font-size="10.00">AbstractElement&lt; 1,</text>
<text text-anchor="start" x="224.5" y="-458.5" font-family="Helvetica,sans-Serif" font-size="10.00"> SPACE_DIM &gt;</text>
<text text-anchor="start" x="257.5" y="-443.5" font-family="Helvetica,sans-Serif" font-size="10.00"> </text>
<text text-anchor="start" x="181.5" y="-428.5" font-family="Helvetica,sans-Serif" font-size="10.00">+</text>
<text text-anchor="start" x="194.5" y="-428.5" font-family="Helvetica,sans-Serif" font-size="10.00">AbstractElement()</text>
<text text-anchor="start" x="181.5" y="-413.5" font-family="Helvetica,sans-Serif" font-size="10.00">+</text>
<text text-anchor="start" x="194.5" y="-413.5" font-family="Helvetica,sans-Serif" font-size="10.00">AbstractElement()</text>
<text text-anchor="start" x="181.5" y="-398.5" font-family="Helvetica,sans-Serif" font-size="10.00">+</text>
<text text-anchor="start" x="194.5" y="-398.5" font-family="Helvetica,sans-Serif" font-size="10.00">~AbstractElement()</text>
<text text-anchor="start" x="181.5" y="-383.5" font-family="Helvetica,sans-Serif" font-size="10.00">+</text>
<text text-anchor="start" x="194.5" y="-383.5" font-family="Helvetica,sans-Serif" font-size="10.00">UpdateNode()</text>
<text text-anchor="start" x="181.5" y="-368.5" font-family="Helvetica,sans-Serif" font-size="10.00">+</text>
<text text-anchor="start" x="194.5" y="-368.5" font-family="Helvetica,sans-Serif" font-size="10.00">ReplaceNode()</text>
<text text-anchor="start" x="181.5" y="-353.5" font-family="Helvetica,sans-Serif" font-size="10.00">+</text>
<text text-anchor="start" x="194.5" y="-353.5" font-family="Helvetica,sans-Serif" font-size="10.00">MarkAsDeleted()</text>
<text text-anchor="start" x="181.5" y="-338.5" font-family="Helvetica,sans-Serif" font-size="10.00">+</text>
<text text-anchor="start" x="194.5" y="-338.5" font-family="Helvetica,sans-Serif" font-size="10.00">RegisterWithNodes()</text>
<text text-anchor="start" x="181.5" y="-323.5" font-family="Helvetica,sans-Serif" font-size="10.00">+</text>
<text text-anchor="start" x="194.5" y="-323.5" font-family="Helvetica,sans-Serif" font-size="10.00">GetNodeLocation()</text>
<text text-anchor="start" x="181.5" y="-308.5" font-family="Helvetica,sans-Serif" font-size="10.00">+</text>
<text text-anchor="start" x="194.5" y="-308.5" font-family="Helvetica,sans-Serif" font-size="10.00">GetNodeLocation()</text>
<text text-anchor="start" x="181.5" y="-293.5" font-family="Helvetica,sans-Serif" font-size="10.00">+</text>
<text text-anchor="start" x="194.5" y="-293.5" font-family="Helvetica,sans-Serif" font-size="10.00">GetNodeGlobalIndex()</text>
<text text-anchor="start" x="194.5" y="-278.5" font-family="Helvetica,sans-Serif" font-size="10.00">and 14 more...</text>
<text text-anchor="start" x="181.5" y="-263.5" font-family="Helvetica,sans-Serif" font-size="10.00">#</text>
<text text-anchor="start" x="194.5" y="-263.5" font-family="Helvetica,sans-Serif" font-size="10.00">ConstructElementAttributes()</text>
<polygon fill="#666666" stroke="#666666" points="177.5,-453.5 177.5,-453.5 341.5,-453.5 341.5,-453.5 177.5,-453.5"/>
<polygon fill="#666666" stroke="#666666" points="177.5,-438.5 177.5,-438.5 341.5,-438.5 341.5,-438.5 177.5,-438.5"/>
<polygon fill="none" stroke="#666666" points="177.5,-257 177.5,-482 341.5,-482 341.5,-257 177.5,-257"/>
</a>
</g>
</g>
<!-- Node2&#45;&gt;Node1 -->
<g id="edge1_Node000001_Node000002" class="edge">
<title>Node2&#45;&gt;Node1</title>
<g id="a_edge1_Node000001_Node000002"><a xlink:title=" ">
<path fill="none" stroke="#63b8ff" d="M333.02,-247.89C341.31,-234.28 349.69,-220.53 357.81,-207.21"/>
<polygon fill="none" stroke="#63b8ff" points="329.8,-246.44 327.59,-256.8 335.78,-250.08 329.8,-246.44"/>
</a>
</g>
</g>
<!-- Node3 -->
<g id="Node000003" class="node">
<title>Node3</title>
<g id="a_Node000003"><a xlink:title=" ">
<polygon fill="white" stroke="transparent" points="203.5,-877.5 83.5,-877.5 83.5,-817.5 203.5,-817.5 203.5,-877.5"/>
<text text-anchor="start" x="88.5" y="-865.5" font-family="Helvetica,sans-Serif" font-size="10.00">vector&lt; Node&lt; SPACE</text>
<text text-anchor="start" x="115.5" y="-854.5" font-family="Helvetica,sans-Serif" font-size="10.00">_DIM &gt; * &gt;</text>
<text text-anchor="start" x="141.5" y="-839.5" font-family="Helvetica,sans-Serif" font-size="10.00"> </text>
<text text-anchor="start" x="141.5" y="-824.5" font-family="Helvetica,sans-Serif" font-size="10.00"> </text>
<polygon fill="#bfbfbf" stroke="#bfbfbf" points="83.5,-849.5 83.5,-849.5 203.5,-849.5 203.5,-849.5 83.5,-849.5"/>
<polygon fill="#bfbfbf" stroke="#bfbfbf" points="83.5,-834.5 83.5,-834.5 203.5,-834.5 203.5,-834.5 83.5,-834.5"/>
<polygon fill="none" stroke="#bfbfbf" points="83.5,-817.5 83.5,-877.5 203.5,-877.5 203.5,-817.5 83.5,-817.5"/>
</a>
</g>
</g>
<!-- Node3&#45;&gt;Node2 -->
<g id="edge2_Node000002_Node000003" class="edge">
<title>Node3&#45;&gt;Node2</title>
<g id="a_edge2_Node000002_Node000003"><a xlink:title=" ">
<path fill="none" stroke="#63b8ff" d="M132.74,-817.28C113.35,-759.86 77.99,-629.17 116.5,-529 127.94,-499.25 147.83,-471.59 169.21,-447.99"/>
<polygon fill="none" stroke="#63b8ff" points="169.28,-447.92 170.44,-440.8 177.46,-439.14 176.29,-446.26 169.28,-447.92"/>
</a>
</g>
<text text-anchor="middle" x="142.5" y="-639" font-family="Helvetica,sans-Serif" font-size="10.00" fill="grey"> #mNodes</text>
</g>
<!-- Node7 -->
<g id="Node000007" class="node">
<title>Node7</title>
<g id="a_Node000007"><a xlink:href="classAbstractElement.html" target="_top" xlink:title=" ">
<polygon fill="white" stroke="transparent" points="341.5,-754 177.5,-754 177.5,-529 341.5,-529 341.5,-754"/>
<text text-anchor="start" x="190" y="-741.5" font-family="Helvetica,sans-Serif" font-size="10.00">AbstractElement&lt; ELEMENT</text>
<text text-anchor="start" x="210.5" y="-730.5" font-family="Helvetica,sans-Serif" font-size="10.00">_DIM, SPACE_DIM &gt;</text>
<text text-anchor="start" x="257.5" y="-715.5" font-family="Helvetica,sans-Serif" font-size="10.00"> </text>
<text text-anchor="start" x="181.5" y="-700.5" font-family="Helvetica,sans-Serif" font-size="10.00">+</text>
<text text-anchor="start" x="194.5" y="-700.5" font-family="Helvetica,sans-Serif" font-size="10.00">AbstractElement()</text>
<text text-anchor="start" x="181.5" y="-685.5" font-family="Helvetica,sans-Serif" font-size="10.00">+</text>
<text text-anchor="start" x="194.5" y="-685.5" font-family="Helvetica,sans-Serif" font-size="10.00">AbstractElement()</text>
<text text-anchor="start" x="181.5" y="-670.5" font-family="Helvetica,sans-Serif" font-size="10.00">+</text>
<text text-anchor="start" x="194.5" y="-670.5" font-family="Helvetica,sans-Serif" font-size="10.00">~AbstractElement()</text>
<text text-anchor="start" x="181.5" y="-655.5" font-family="Helvetica,sans-Serif" font-size="10.00">+</text>
<text text-anchor="start" x="194.5" y="-655.5" font-family="Helvetica,sans-Serif" font-size="10.00">UpdateNode()</text>
<text text-anchor="start" x="181.5" y="-640.5" font-family="Helvetica,sans-Serif" font-size="10.00">+</text>
<text text-anchor="start" x="194.5" y="-640.5" font-family="Helvetica,sans-Serif" font-size="10.00">ReplaceNode()</text>
<text text-anchor="start" x="181.5" y="-625.5" font-family="Helvetica,sans-Serif" font-size="10.00">+</text>
<text text-anchor="start" x="194.5" y="-625.5" font-family="Helvetica,sans-Serif" font-size="10.00">MarkAsDeleted()</text>
<text text-anchor="start" x="181.5" y="-610.5" font-family="Helvetica,sans-Serif" font-size="10.00">+</text>
<text text-anchor="start" x="194.5" y="-610.5" font-family="Helvetica,sans-Serif" font-size="10.00">RegisterWithNodes()</text>
<text text-anchor="start" x="181.5" y="-595.5" font-family="Helvetica,sans-Serif" font-size="10.00">+</text>
<text text-anchor="start" x="194.5" y="-595.5" font-family="Helvetica,sans-Serif" font-size="10.00">GetNodeLocation()</text>
<text text-anchor="start" x="181.5" y="-580.5" font-family="Helvetica,sans-Serif" font-size="10.00">+</text>
<text text-anchor="start" x="194.5" y="-580.5" font-family="Helvetica,sans-Serif" font-size="10.00">GetNodeLocation()</text>
<text text-anchor="start" x="181.5" y="-565.5" font-family="Helvetica,sans-Serif" font-size="10.00">+</text>
<text text-anchor="start" x="194.5" y="-565.5" font-family="Helvetica,sans-Serif" font-size="10.00">GetNodeGlobalIndex()</text>
<text text-anchor="start" x="194.5" y="-550.5" font-family="Helvetica,sans-Serif" font-size="10.00">and 14 more...</text>
<text text-anchor="start" x="181.5" y="-535.5" font-family="Helvetica,sans-Serif" font-size="10.00">#</text>
<text text-anchor="start" x="194.5" y="-535.5" font-family="Helvetica,sans-Serif" font-size="10.00">ConstructElementAttributes()</text>
<polygon fill="#666666" stroke="#666666" points="177.5,-725.5 177.5,-725.5 341.5,-725.5 341.5,-725.5 177.5,-725.5"/>
<polygon fill="#666666" stroke="#666666" points="177.5,-710.5 177.5,-710.5 341.5,-710.5 341.5,-710.5 177.5,-710.5"/>
<polygon fill="none" stroke="#666666" points="177.5,-529 177.5,-754 341.5,-754 341.5,-529 177.5,-529"/>
</a>
</g>
</g>
<!-- Node3&#45;&gt;Node7 -->
<g id="edge7_Node000007_Node000003" class="edge">
<title>Node3&#45;&gt;Node7</title>
<g id="a_edge7_Node000007_Node000003"><a xlink:title=" ">
<path fill="none" stroke="#63b8ff" d="M158.82,-817.35C166.17,-803.54 175.16,-786.85 183.5,-772 184.82,-769.65 186.16,-767.27 187.52,-764.88"/>
<polygon fill="none" stroke="#63b8ff" points="187.6,-764.74 187.09,-757.54 193.53,-754.3 194.04,-761.5 187.6,-764.74"/>
</a>
</g>
<text text-anchor="middle" x="209.5" y="-780.5" font-family="Helvetica,sans-Serif" font-size="10.00" fill="grey"> #mNodes</text>
</g>
<!-- Node4 -->
<g id="Node000004" class="node">
<title>Node4</title>
<g id="a_Node000004"><a xlink:href="classunsigned.html" target="_top" xlink:title=" ">
<polygon fill="white" stroke="transparent" points="55,-872 0,-872 0,-823 55,-823 55,-872"/>
<text text-anchor="start" x="5.5" y="-859.5" font-family="Helvetica,sans-Serif" font-size="10.00">unsigned</text>
<text text-anchor="start" x="26" y="-844.5" font-family="Helvetica,sans-Serif" font-size="10.00"> </text>
<text text-anchor="start" x="26" y="-829.5" font-family="Helvetica,sans-Serif" font-size="10.00"> </text>
<polygon fill="#bfbfbf" stroke="#bfbfbf" points="0.5,-854.5 0.5,-854.5 55.5,-854.5 55.5,-854.5 0.5,-854.5"/>
<polygon fill="#bfbfbf" stroke="#bfbfbf" points="0.5,-839.5 0.5,-839.5 55.5,-839.5 55.5,-839.5 0.5,-839.5"/>
<polygon fill="none" stroke="#bfbfbf" points="0,-823 0,-872 55,-872 55,-823 0,-823"/>
</a>
</g>
</g>
<!-- Node4&#45;&gt;Node2 -->
<g id="edge3_Node000002_Node000004" class="edge">
<title>Node4&#45;&gt;Node2</title>
<g id="a_edge3_Node000002_Node000004"><a xlink:title=" ">
<path fill="none" stroke="#63b8ff" d="M22.52,-822.77C12.21,-767.38 -6.4,-626.89 46.5,-529 73.08,-479.82 122.27,-441.66 166.7,-415.13"/>
<polygon fill="none" stroke="#63b8ff" points="166.91,-415.01 170.08,-408.53 177.28,-408.97 174.1,-415.44 166.91,-415.01"/>
</a>
</g>
<text text-anchor="middle" x="71" y="-639" font-family="Helvetica,sans-Serif" font-size="10.00" fill="grey"> #mIndex</text>
</g>
<!-- Node4&#45;&gt;Node7 -->
<g id="edge8_Node000007_Node000004" class="edge">
<title>Node4&#45;&gt;Node7</title>
<g id="a_edge8_Node000007_Node000004"><a xlink:title=" ">
<path fill="none" stroke="#63b8ff" d="M52.56,-822.82C70.27,-806.97 95.09,-786.45 119.5,-772 137.68,-761.24 146.35,-766.35 163.5,-754 164.96,-752.95 166.41,-751.87 167.85,-750.77"/>
<polygon fill="none" stroke="#63b8ff" points="167.9,-750.73 170.05,-743.85 177.23,-743.18 175.08,-750.07 167.9,-750.73"/>
</a>
</g>
<text text-anchor="middle" x="144" y="-780.5" font-family="Helvetica,sans-Serif" font-size="10.00" fill="grey"> #mIndex</text>
</g>
<!-- Node5 -->
<g id="Node000005" class="node">
<title>Node5</title>
<g id="a_Node000005"><a xlink:href="classbool.html" target="_top" xlink:title=" ">
<polygon fill="white" stroke="transparent" points="471.5,-872 439.5,-872 439.5,-823 471.5,-823 471.5,-872"/>
<text text-anchor="start" x="444.5" y="-859.5" font-family="Helvetica,sans-Serif" font-size="10.00">bool</text>
<text text-anchor="start" x="453.5" y="-844.5" font-family="Helvetica,sans-Serif" font-size="10.00"> </text>
<text text-anchor="start" x="453.5" y="-829.5" font-family="Helvetica,sans-Serif" font-size="10.00"> </text>
<polygon fill="#bfbfbf" stroke="#bfbfbf" points="439.5,-854.5 439.5,-854.5 471.5,-854.5 471.5,-854.5 439.5,-854.5"/>
<polygon fill="#bfbfbf" stroke="#bfbfbf" points="439.5,-839.5 439.5,-839.5 471.5,-839.5 471.5,-839.5 439.5,-839.5"/>
<polygon fill="none" stroke="#bfbfbf" points="439.5,-823 439.5,-872 471.5,-872 471.5,-823 439.5,-823"/>
</a>
</g>
</g>
<!-- Node5&#45;&gt;Node2 -->
<g id="edge4_Node000002_Node000005" class="edge">
<title>Node5&#45;&gt;Node2</title>
<g id="a_edge4_Node000002_Node000005"><a xlink:title=" ">
<path fill="none" stroke="#63b8ff" d="M468.94,-822.61C498.97,-765.67 563.89,-619.93 497.5,-529 459.19,-476.52 412.43,-515.94 351.9,-481.92"/>
<polygon fill="none" stroke="#63b8ff" points="351.84,-481.88 344.63,-482.09 341.66,-475.52 348.87,-475.31 351.84,-481.88"/>
</a>
</g>
<text text-anchor="middle" x="560.5" y="-644.5" font-family="Helvetica,sans-Serif" font-size="10.00" fill="grey"> #mIsDeleted</text>
<text text-anchor="middle" x="560.5" y="-633.5" font-family="Helvetica,sans-Serif" font-size="10.00" fill="grey">#mOwnership</text>
</g>
<!-- Node5&#45;&gt;Node7 -->
<g id="edge9_Node000007_Node000005" class="edge">
<title>Node5&#45;&gt;Node7</title>
<g id="a_edge9_Node000007_Node000005"><a xlink:title=" ">
<path fill="none" stroke="#63b8ff" d="M439.3,-831.7C413,-807.65 363.18,-761.96 355.5,-754 353.63,-752.06 351.74,-750.09 349.86,-748.09"/>
<polygon fill="none" stroke="#63b8ff" points="349.75,-747.98 342.73,-746.33 341.56,-739.21 348.58,-740.87 349.75,-747.98"/>
</a>
</g>
<text text-anchor="middle" x="433.5" y="-786" font-family="Helvetica,sans-Serif" font-size="10.00" fill="grey"> #mIsDeleted</text>
<text text-anchor="middle" x="433.5" y="-775" font-family="Helvetica,sans-Serif" font-size="10.00" fill="grey">#mOwnership</text>
</g>
<!-- Node6 -->
<g id="Node000006" class="node">
<title>Node6</title>
<g id="a_Node000006"><a xlink:title=" ">
<polygon fill="white" stroke="transparent" points="409,-883 288,-883 288,-812 409,-812 409,-883"/>
<text text-anchor="start" x="293.5" y="-870.5" font-family="Helvetica,sans-Serif" font-size="10.00">ElementAttributes&lt;</text>
<text text-anchor="start" x="293.5" y="-859.5" font-family="Helvetica,sans-Serif" font-size="10.00"> ELEMENT_DIM, SPACE</text>
<text text-anchor="start" x="326.5" y="-848.5" font-family="Helvetica,sans-Serif" font-size="10.00">_DIM &gt; *</text>
<text text-anchor="start" x="347" y="-833.5" font-family="Helvetica,sans-Serif" font-size="10.00"> </text>
<text text-anchor="start" x="347" y="-818.5" font-family="Helvetica,sans-Serif" font-size="10.00"> </text>
<polygon fill="#bfbfbf" stroke="#bfbfbf" points="288.5,-843.5 288.5,-843.5 409.5,-843.5 409.5,-843.5 288.5,-843.5"/>
<polygon fill="#bfbfbf" stroke="#bfbfbf" points="288.5,-828.5 288.5,-828.5 409.5,-828.5 409.5,-828.5 288.5,-828.5"/>
<polygon fill="none" stroke="#bfbfbf" points="288,-812 288,-883 409,-883 409,-812 288,-812"/>
</a>
</g>
</g>
<!-- Node6&#45;&gt;Node2 -->
<g id="edge5_Node000002_Node000006" class="edge">
<title>Node6&#45;&gt;Node2</title>
<g id="a_edge5_Node000002_Node000006"><a xlink:title=" ">
<path fill="none" stroke="#63b8ff" d="M359.88,-811.77C361.38,-805.9 362.68,-799.82 363.5,-794 364.86,-784.32 363.61,-781.78 363.5,-772 362.17,-651.09 397.25,-614.2 357.5,-500 354.76,-492.13 351.35,-484.35 347.45,-476.74"/>
<polygon fill="none" stroke="#63b8ff" points="347.39,-476.64 341.01,-473.29 341.64,-466.11 348.03,-469.46 347.39,-476.64"/>
</a>
</g>
<text text-anchor="middle" x="435.5" y="-639" font-family="Helvetica,sans-Serif" font-size="10.00" fill="grey"> #mpElementAttributes</text>
</g>
<!-- Node6&#45;&gt;Node7 -->
<g id="edge10_Node000007_Node000006" class="edge">
<title>Node6&#45;&gt;Node7</title>
<g id="a_edge10_Node000007_Node000006"><a xlink:title=" ">
<path fill="none" stroke="#63b8ff" d="M287.82,-828.08C271.96,-820.2 256.73,-809.2 247.5,-794 242.29,-785.42 238.9,-776.05 236.89,-766.31"/>
<polygon fill="none" stroke="#63b8ff" points="236.86,-766.14 232.03,-760.79 235.1,-754.27 239.94,-759.61 236.86,-766.14"/>
</a>
</g>
<text text-anchor="middle" x="305.5" y="-780.5" font-family="Helvetica,sans-Serif" font-size="10.00" fill="grey"> #mpElementAttributes</text>
</g>
<!-- Node7&#45;&gt;Node2 -->
<g id="edge6_Node000002_Node000007" class="edge">
<title>Node7&#45;&gt;Node2</title>
<g id="a_edge6_Node000002_Node000007"><a xlink:title=" ">
<path fill="none" stroke="orange" d="M259.5,-518.59C259.5,-506.46 259.5,-494.2 259.5,-482.18"/>
<polygon fill="orange" stroke="orange" points="256,-518.73 259.5,-528.73 263,-518.73 256,-518.73"/>
</a>
</g>
<text text-anchor="middle" x="306.5" y="-503" font-family="Helvetica,sans-Serif" font-size="10.00" fill="grey"> &lt; 1, SPACE_DIM &gt;</text>
</g>
<!-- Node8 -->
<g id="Node000008" class="node">
<title>Node8</title>
<g id="a_Node000008"><a xlink:title=" ">
<polygon fill="white" stroke="transparent" points="479,-399.5 360,-399.5 360,-339.5 479,-339.5 479,-399.5"/>
<text text-anchor="start" x="365.5" y="-387.5" font-family="Helvetica,sans-Serif" font-size="10.00">vector&lt; Edge&lt; SPACE</text>
<text text-anchor="start" x="392" y="-376.5" font-family="Helvetica,sans-Serif" font-size="10.00">_DIM &gt; * &gt;</text>
<text text-anchor="start" x="418" y="-361.5" font-family="Helvetica,sans-Serif" font-size="10.00"> </text>
<text text-anchor="start" x="418" y="-346.5" font-family="Helvetica,sans-Serif" font-size="10.00"> </text>
<polygon fill="#bfbfbf" stroke="#bfbfbf" points="360.5,-371.5 360.5,-371.5 479.5,-371.5 479.5,-371.5 360.5,-371.5"/>
<polygon fill="#bfbfbf" stroke="#bfbfbf" points="360.5,-356.5 360.5,-356.5 479.5,-356.5 479.5,-356.5 360.5,-356.5"/>
<polygon fill="none" stroke="#bfbfbf" points="360,-339.5 360,-399.5 479,-399.5 479,-339.5 360,-339.5"/>
</a>
</g>
</g>
<!-- Node8&#45;&gt;Node1 -->
<g id="edge11_Node000001_Node000008" class="edge">
<title>Node8&#45;&gt;Node1</title>
<g id="a_edge11_Node000001_Node000008"><a xlink:title=" ">
<path fill="none" stroke="#63b8ff" d="M419.5,-339.4C419.5,-310.85 419.5,-265.42 419.5,-222.2"/>
<polygon fill="none" stroke="#63b8ff" points="419.5,-222.08 415.5,-216.08 419.5,-210.08 423.5,-216.08 419.5,-222.08"/>
</a>
</g>
<text text-anchor="middle" x="445" y="-231" font-family="Helvetica,sans-Serif" font-size="10.00" fill="grey"> #mEdges</text>
</g>
<!-- Node9 -->
<g id="Node000009" class="node">
<title>Node9</title>
<g id="a_Node000009"><a xlink:href="classEdgeHelper_3_01SPACE__DIM_01_4.html" target="_top" xlink:title=" ">
<polygon fill="white" stroke="transparent" points="642,-394 497,-394 497,-345 642,-345 642,-394"/>
<text text-anchor="start" x="502.5" y="-381.5" font-family="Helvetica,sans-Serif" font-size="10.00">EdgeHelper&lt; SPACE_DIM &gt;</text>
<text text-anchor="start" x="568" y="-366.5" font-family="Helvetica,sans-Serif" font-size="10.00"> </text>
<text text-anchor="start" x="568" y="-351.5" font-family="Helvetica,sans-Serif" font-size="10.00"> </text>
<polygon fill="#bfbfbf" stroke="#bfbfbf" points="497.5,-376.5 497.5,-376.5 642.5,-376.5 642.5,-376.5 497.5,-376.5"/>
<polygon fill="#bfbfbf" stroke="#bfbfbf" points="497.5,-361.5 497.5,-361.5 642.5,-361.5 642.5,-361.5 497.5,-361.5"/>
<polygon fill="none" stroke="#bfbfbf" points="497,-345 497,-394 642,-394 642,-345 497,-345"/>
</a>
</g>
</g>
<!-- Node9&#45;&gt;Node1 -->
<g id="edge12_Node000001_Node000009" class="edge">
<title>Node9&#45;&gt;Node1</title>
<g id="a_edge12_Node000001_Node000009"><a xlink:title=" ">
<path fill="none" stroke="#63b8ff" d="M555.92,-344.74C539.77,-316.47 511.62,-267.22 485.08,-220.77"/>
<polygon fill="none" stroke="#63b8ff" points="485.05,-220.71 478.6,-217.48 479.09,-210.29 485.54,-213.51 485.05,-220.71"/>
</a>
</g>
<text text-anchor="middle" x="533.5" y="-231" font-family="Helvetica,sans-Serif" font-size="10.00" fill="grey"> #mEdgeHelper</text>
</g>
</g>
</svg>
