<?xml version="1.0" encoding="UTF-8" standalone="no"?>
<!DOCTYPE svg PUBLIC "-//W3C//DTD SVG 1.1//EN"
 "http://www.w3.org/Graphics/SVG/1.1/DTD/svg11.dtd">
<!-- Generated by graphviz version 2.43.0 (0)
 -->
<!-- Title: ArchiveLocationInfo Pages: 1 -->
<svg width="172pt" height="295pt"
 viewBox="0.00 0.00 171.50 295.00" xmlns="http://www.w3.org/2000/svg" xmlns:xlink="http://www.w3.org/1999/xlink">
<g id="graph0" class="graph" transform="scale(1 1) rotate(0) translate(4 291)">
<title>ArchiveLocationInfo</title>
<!-- Node1 -->
<g id="Node000001" class="node">
<title>Node1</title>
<g id="a_Node000001"><a xlink:title=" ">
<polygon fill="#999999" stroke="transparent" points="157,-180 0,-180 0,0 157,0 157,-180"/>
<text text-anchor="start" x="30.5" y="-168" font-family="Helvetica,sans-Serif" font-size="10.00">ArchiveLocationInfo</text>
<text text-anchor="start" x="77" y="-153" font-family="Helvetica,sans-Serif" font-size="10.00"> </text>
<text text-anchor="start" x="4.5" y="-138" font-family="Helvetica,sans-Serif" font-size="10.00">+</text>
<text text-anchor="start" x="17.5" y="-138" font-family="Helvetica,sans-Serif" font-size="10.00">SetMeshPathname()</text>
<text text-anchor="start" x="4.5" y="-123" font-family="Helvetica,sans-Serif" font-size="10.00">+</text>
<text text-anchor="start" x="17.5" y="-123" font-family="Helvetica,sans-Serif" font-size="10.00">SetMeshPathname()</text>
<text text-anchor="start" x="4.5" y="-108" font-family="Helvetica,sans-Serif" font-size="10.00">+</text>
<text text-anchor="start" x="17.5" y="-108" font-family="Helvetica,sans-Serif" font-size="10.00">SetMeshFilename()</text>
<text text-anchor="start" x="4.5" y="-93" font-family="Helvetica,sans-Serif" font-size="10.00">+</text>
<text text-anchor="start" x="17.5" y="-93" font-family="Helvetica,sans-Serif" font-size="10.00">GetMeshFilename()</text>
<text text-anchor="start" x="4.5" y="-78" font-family="Helvetica,sans-Serif" font-size="10.00">+</text>
<text text-anchor="start" x="17.5" y="-78" font-family="Helvetica,sans-Serif" font-size="10.00">GetArchiveDirectory()</text>
<text text-anchor="start" x="4.5" y="-63" font-family="Helvetica,sans-Serif" font-size="10.00">+</text>
<text text-anchor="start" x="17.5" y="-63" font-family="Helvetica,sans-Serif" font-size="10.00">GetProcessUniqueFilePath()</text>
<text text-anchor="start" x="4.5" y="-48" font-family="Helvetica,sans-Serif" font-size="10.00">+</text>
<text text-anchor="start" x="17.5" y="-48" font-family="Helvetica,sans-Serif" font-size="10.00">SetArchiveDirectory()</text>
<text text-anchor="start" x="4.5" y="-33" font-family="Helvetica,sans-Serif" font-size="10.00">+</text>
<text text-anchor="start" x="17.5" y="-33" font-family="Helvetica,sans-Serif" font-size="10.00">GetArchiveRelativePath()</text>
<text text-anchor="start" x="4.5" y="-18" font-family="Helvetica,sans-Serif" font-size="10.00">+</text>
<text text-anchor="start" x="17.5" y="-18" font-family="Helvetica,sans-Serif" font-size="10.00">GetIsDirRelativeToChaste</text>
<text text-anchor="start" x="17.5" y="-7" font-family="Helvetica,sans-Serif" font-size="10.00">TestOutput()</text>
<polygon fill="#666666" stroke="#666666" points="0.5,-163 0.5,-163 157.5,-163 157.5,-163 0.5,-163"/>
<polygon fill="#666666" stroke="#666666" points="0.5,-148 0.5,-148 157.5,-148 157.5,-148 0.5,-148"/>
<polygon fill="none" stroke="#666666" points="0,0 0,-180 157,-180 157,0 0,0"/>
</a>
</g>
</g>
<!-- Node2 -->
<g id="Node000002" class="node">
<title>Node2</title>
<g id="a_Node000002"><a xlink:title=" ">
<polygon fill="white" stroke="transparent" points="97.5,-287 59.5,-287 59.5,-238 97.5,-238 97.5,-287"/>
<text text-anchor="start" x="64.5" y="-274.5" font-family="Helvetica,sans-Serif" font-size="10.00">string</text>
<text text-anchor="start" x="76.5" y="-259.5" font-family="Helvetica,sans-Serif" font-size="10.00"> </text>
<text text-anchor="start" x="76.5" y="-244.5" font-family="Helvetica,sans-Serif" font-size="10.00"> </text>
<polygon fill="#bfbfbf" stroke="#bfbfbf" points="59.5,-269.5 59.5,-269.5 97.5,-269.5 97.5,-269.5 59.5,-269.5"/>
<polygon fill="#bfbfbf" stroke="#bfbfbf" points="59.5,-254.5 59.5,-254.5 97.5,-254.5 97.5,-254.5 59.5,-254.5"/>
<polygon fill="none" stroke="#bfbfbf" points="59.5,-238 59.5,-287 97.5,-287 97.5,-238 59.5,-238"/>
</a>
</g>
</g>
<!-- Node2&#45;&gt;Node1 -->
<g id="edge1_Node000001_Node000002" class="edge">
<title>Node2&#45;&gt;Node1</title>
<g id="a_edge1_Node000001_Node000002"><a xlink:title=" ">
<path fill="none" stroke="#63b8ff" d="M78.5,-237.79C78.5,-225.5 78.5,-209.54 78.5,-192.7"/>
<polygon fill="none" stroke="#63b8ff" points="78.5,-192.31 74.5,-186.31 78.5,-180.31 82.5,-186.31 78.5,-192.31"/>
</a>
</g>
<text text-anchor="middle" x="121" y="-212" font-family="Helvetica,sans-Serif" font-size="10.00" fill="grey"> &#45;mDirAbsPath</text>
<text text-anchor="middle" x="121" y="-201" font-family="Helvetica,sans-Serif" font-size="10.00" fill="grey">&#45;mMeshFilename</text>
</g>
</g>
</svg>
