<?xml version="1.0" encoding="UTF-8" standalone="no"?>
<!DOCTYPE svg PUBLIC "-//W3C//DTD SVG 1.1//EN"
 "http://www.w3.org/Graphics/SVG/1.1/DTD/svg11.dtd">
<!-- Generated by graphviz version 2.43.0 (0)
 -->
<!-- Title: AbstractFeSurfaceIntegralAssembler&lt; ELEMENT_DIM, SPACE_DIM, PROBLEM_DIM &gt; Pages: 1 -->
<svg width="1394pt" height="1073pt"
 viewBox="0.00 0.00 1394.00 1073.00" xmlns="http://www.w3.org/2000/svg" xmlns:xlink="http://www.w3.org/1999/xlink">
<g id="graph0" class="graph" transform="scale(1 1) rotate(0) translate(4 1069)">
<title>AbstractFeSurfaceIntegralAssembler&lt; ELEMENT_DIM, SPACE_DIM, PROBLEM_DIM &gt;</title>
<!-- Node1 -->
<g id="Node000001" class="node">
<title>Node1</title>
<g id="a_Node000001"><a xlink:title=" ">
<polygon fill="#999999" stroke="transparent" points="997,-168 795,-168 795,0 997,0 997,-168"/>
<text text-anchor="start" x="822" y="-156" font-family="Helvetica,sans-Serif" font-size="10.00">AbstractFeSurfaceIntegral</text>
<text text-anchor="start" x="822" y="-145" font-family="Helvetica,sans-Serif" font-size="10.00">Assembler&lt; ELEMENT_DIM,</text>
<text text-anchor="start" x="822" y="-134" font-family="Helvetica,sans-Serif" font-size="10.00"> SPACE_DIM, PROBLEM_DIM &gt;</text>
<text text-anchor="start" x="894" y="-119" font-family="Helvetica,sans-Serif" font-size="10.00"> </text>
<text text-anchor="start" x="799" y="-104" font-family="Helvetica,sans-Serif" font-size="10.00">+</text>
<text text-anchor="start" x="812" y="-104" font-family="Helvetica,sans-Serif" font-size="10.00">AbstractFeSurfaceIntegral</text>
<text text-anchor="start" x="812" y="-93" font-family="Helvetica,sans-Serif" font-size="10.00">Assembler()</text>
<text text-anchor="start" x="799" y="-78" font-family="Helvetica,sans-Serif" font-size="10.00">+</text>
<text text-anchor="start" x="812" y="-78" font-family="Helvetica,sans-Serif" font-size="10.00">~AbstractFeSurfaceIntegral</text>
<text text-anchor="start" x="812" y="-67" font-family="Helvetica,sans-Serif" font-size="10.00">Assembler()</text>
<text text-anchor="start" x="799" y="-52" font-family="Helvetica,sans-Serif" font-size="10.00">+</text>
<text text-anchor="start" x="812" y="-52" font-family="Helvetica,sans-Serif" font-size="10.00">ResetBoundaryConditionsContainer()</text>
<text text-anchor="start" x="799" y="-37" font-family="Helvetica,sans-Serif" font-size="10.00">#</text>
<text text-anchor="start" x="812" y="-37" font-family="Helvetica,sans-Serif" font-size="10.00">ComputeVectorSurfaceTerm()</text>
<text text-anchor="start" x="799" y="-22" font-family="Helvetica,sans-Serif" font-size="10.00">#</text>
<text text-anchor="start" x="812" y="-22" font-family="Helvetica,sans-Serif" font-size="10.00">AssembleOnSurfaceElement()</text>
<text text-anchor="start" x="799" y="-7" font-family="Helvetica,sans-Serif" font-size="10.00">#</text>
<text text-anchor="start" x="812" y="-7" font-family="Helvetica,sans-Serif" font-size="10.00">DoAssemble()</text>
<polygon fill="#666666" stroke="#666666" points="795,-129 795,-129 997,-129 997,-129 795,-129"/>
<polygon fill="#666666" stroke="#666666" points="795,-114 795,-114 997,-114 997,-114 795,-114"/>
<polygon fill="none" stroke="#666666" points="795,0 795,-168 997,-168 997,0 795,0"/>
</a>
</g>
</g>
<!-- Node2 -->
<g id="Node000002" class="node">
<title>Node2</title>
<g id="a_Node000002"><a xlink:href="classAbstractFeAssemblerCommon.html" target="_top" xlink:title=" ">
<polygon fill="white" stroke="transparent" points="700,-409 512,-409 512,-215 700,-215 700,-409"/>
<text text-anchor="start" x="532" y="-397" font-family="Helvetica,sans-Serif" font-size="10.00">AbstractFeAssemblerCommon</text>
<text text-anchor="start" x="532" y="-386" font-family="Helvetica,sans-Serif" font-size="10.00">&lt; ELEMENT_DIM, SPACE_DIM,</text>
<text text-anchor="start" x="532" y="-375" font-family="Helvetica,sans-Serif" font-size="10.00"> PROBLEM_DIM, true, false,</text>
<text text-anchor="start" x="577" y="-364" font-family="Helvetica,sans-Serif" font-size="10.00"> NORMAL &gt;</text>
<text text-anchor="start" x="604" y="-349" font-family="Helvetica,sans-Serif" font-size="10.00"> </text>
<text text-anchor="start" x="516" y="-334" font-family="Helvetica,sans-Serif" font-size="10.00">+</text>
<text text-anchor="start" x="529" y="-334" font-family="Helvetica,sans-Serif" font-size="10.00">AbstractFeAssemblerCommon()</text>
<text text-anchor="start" x="516" y="-319" font-family="Helvetica,sans-Serif" font-size="10.00">+</text>
<text text-anchor="start" x="529" y="-319" font-family="Helvetica,sans-Serif" font-size="10.00">SetCurrentSolution()</text>
<text text-anchor="start" x="516" y="-304" font-family="Helvetica,sans-Serif" font-size="10.00">+</text>
<text text-anchor="start" x="529" y="-304" font-family="Helvetica,sans-Serif" font-size="10.00">~AbstractFeAssemblerCommon()</text>
<text text-anchor="start" x="516" y="-289" font-family="Helvetica,sans-Serif" font-size="10.00">#</text>
<text text-anchor="start" x="529" y="-289" font-family="Helvetica,sans-Serif" font-size="10.00">GetCurrentSolutionOrGuess</text>
<text text-anchor="start" x="529" y="-278" font-family="Helvetica,sans-Serif" font-size="10.00">Value()</text>
<text text-anchor="start" x="516" y="-263" font-family="Helvetica,sans-Serif" font-size="10.00">#</text>
<text text-anchor="start" x="529" y="-263" font-family="Helvetica,sans-Serif" font-size="10.00">ResetInterpolatedQuantities()</text>
<text text-anchor="start" x="516" y="-248" font-family="Helvetica,sans-Serif" font-size="10.00">#</text>
<text text-anchor="start" x="529" y="-248" font-family="Helvetica,sans-Serif" font-size="10.00">IncrementInterpolatedQuantities()</text>
<text text-anchor="start" x="516" y="-233" font-family="Helvetica,sans-Serif" font-size="10.00">#</text>
<text text-anchor="start" x="529" y="-233" font-family="Helvetica,sans-Serif" font-size="10.00">IncrementInterpolatedGradient</text>
<text text-anchor="start" x="529" y="-222" font-family="Helvetica,sans-Serif" font-size="10.00">Quantities()</text>
<polygon fill="#666666" stroke="#666666" points="512,-359 512,-359 700,-359 700,-359 512,-359"/>
<polygon fill="#666666" stroke="#666666" points="512,-344 512,-344 700,-344 700,-344 512,-344"/>
<polygon fill="none" stroke="#666666" points="512,-215 512,-409 700,-409 700,-215 512,-215"/>
</a>
</g>
</g>
<!-- Node2&#45;&gt;Node1 -->
<g id="edge1_Node000001_Node000002" class="edge">
<title>Node2&#45;&gt;Node1</title>
<g id="a_edge1_Node000001_Node000002"><a xlink:title=" ">
<path fill="none" stroke="#63b8ff" d="M707.89,-215.9C708.26,-215.6 708.63,-215.3 709,-215 735.93,-193.28 766.29,-171.22 794.6,-151.59"/>
<polygon fill="none" stroke="#63b8ff" points="705.6,-213.25 700.11,-222.31 710.05,-218.65 705.6,-213.25"/>
</a>
</g>
</g>
<!-- Node3 -->
<g id="Node000003" class="node">
<title>Node3</title>
<g id="a_Node000003"><a xlink:href="classAbstractFeAssemblerInterface.html" target="_top" xlink:title=" ">
<polygon fill="white" stroke="transparent" points="539,-921 355,-921 355,-745 539,-745 539,-921"/>
<text text-anchor="start" x="366" y="-909" font-family="Helvetica,sans-Serif" font-size="10.00">AbstractFeAssemblerInterface</text>
<text text-anchor="start" x="366" y="-898" font-family="Helvetica,sans-Serif" font-size="10.00">&lt; CAN_ASSEMBLE_VECTOR, CAN</text>
<text text-anchor="start" x="391" y="-887" font-family="Helvetica,sans-Serif" font-size="10.00">_ASSEMBLE_MATRIX &gt;</text>
<text text-anchor="start" x="445" y="-872" font-family="Helvetica,sans-Serif" font-size="10.00"> </text>
<text text-anchor="start" x="359" y="-857" font-family="Helvetica,sans-Serif" font-size="10.00">+</text>
<text text-anchor="start" x="372" y="-857" font-family="Helvetica,sans-Serif" font-size="10.00">AbstractFeAssemblerInterface()</text>
<text text-anchor="start" x="359" y="-842" font-family="Helvetica,sans-Serif" font-size="10.00">+</text>
<text text-anchor="start" x="372" y="-842" font-family="Helvetica,sans-Serif" font-size="10.00">SetMatrixToAssemble()</text>
<text text-anchor="start" x="359" y="-827" font-family="Helvetica,sans-Serif" font-size="10.00">+</text>
<text text-anchor="start" x="372" y="-827" font-family="Helvetica,sans-Serif" font-size="10.00">SetVectorToAssemble()</text>
<text text-anchor="start" x="359" y="-812" font-family="Helvetica,sans-Serif" font-size="10.00">+</text>
<text text-anchor="start" x="372" y="-812" font-family="Helvetica,sans-Serif" font-size="10.00">Assemble()</text>
<text text-anchor="start" x="359" y="-797" font-family="Helvetica,sans-Serif" font-size="10.00">+</text>
<text text-anchor="start" x="372" y="-797" font-family="Helvetica,sans-Serif" font-size="10.00">AssembleMatrix()</text>
<text text-anchor="start" x="359" y="-782" font-family="Helvetica,sans-Serif" font-size="10.00">+</text>
<text text-anchor="start" x="372" y="-782" font-family="Helvetica,sans-Serif" font-size="10.00">AssembleVector()</text>
<text text-anchor="start" x="359" y="-767" font-family="Helvetica,sans-Serif" font-size="10.00">+</text>
<text text-anchor="start" x="372" y="-767" font-family="Helvetica,sans-Serif" font-size="10.00">~AbstractFeAssemblerInterface()</text>
<text text-anchor="start" x="359" y="-752" font-family="Helvetica,sans-Serif" font-size="10.00">#</text>
<text text-anchor="start" x="372" y="-752" font-family="Helvetica,sans-Serif" font-size="10.00">DoAssemble()</text>
<polygon fill="#666666" stroke="#666666" points="355,-882 355,-882 539,-882 539,-882 355,-882"/>
<polygon fill="#666666" stroke="#666666" points="355,-867 355,-867 539,-867 539,-867 355,-867"/>
<polygon fill="none" stroke="#666666" points="355,-745 355,-921 539,-921 539,-745 355,-745"/>
</a>
</g>
</g>
<!-- Node3&#45;&gt;Node2 -->
<g id="edge2_Node000002_Node000003" class="edge">
<title>Node3&#45;&gt;Node2</title>
<g id="a_edge2_Node000002_Node000003"><a xlink:title=" ">
<path fill="none" stroke="#63b8ff" d="M451.9,-734.73C458.04,-662.08 471.86,-561.37 503,-478 511.74,-454.59 524.04,-430.93 537.1,-409.11"/>
<polygon fill="none" stroke="#63b8ff" points="448.4,-734.54 451.08,-744.79 455.38,-735.1 448.4,-734.54"/>
</a>
</g>
</g>
<!-- Node13 -->
<g id="Node000013" class="node">
<title>Node13</title>
<g id="a_Node000013"><a xlink:href="classAbstractFeAssemblerCommon.html" target="_top" xlink:title=" ">
<polygon fill="white" stroke="transparent" points="700,-683 512,-683 512,-478 700,-478 700,-683"/>
<text text-anchor="start" x="518.5" y="-670.5" font-family="Helvetica,sans-Serif" font-size="10.00">AbstractFeAssemblerCommon</text>
<text text-anchor="start" x="518.5" y="-659.5" font-family="Helvetica,sans-Serif" font-size="10.00">&lt; ELEMENT_DIM, SPACE_DIM,</text>
<text text-anchor="start" x="518.5" y="-648.5" font-family="Helvetica,sans-Serif" font-size="10.00"> PROBLEM_DIM, CAN_ASSEMBLE</text>
<text text-anchor="start" x="518.5" y="-637.5" font-family="Helvetica,sans-Serif" font-size="10.00">_VECTOR, CAN_ASSEMBLE_MATRIX,</text>
<text text-anchor="start" x="542" y="-626.5" font-family="Helvetica,sans-Serif" font-size="10.00"> INTERPOLATION_LEVEL &gt;</text>
<text text-anchor="start" x="604" y="-611.5" font-family="Helvetica,sans-Serif" font-size="10.00"> </text>
<text text-anchor="start" x="516" y="-596.5" font-family="Helvetica,sans-Serif" font-size="10.00">+</text>
<text text-anchor="start" x="529" y="-596.5" font-family="Helvetica,sans-Serif" font-size="10.00">AbstractFeAssemblerCommon()</text>
<text text-anchor="start" x="516" y="-581.5" font-family="Helvetica,sans-Serif" font-size="10.00">+</text>
<text text-anchor="start" x="529" y="-581.5" font-family="Helvetica,sans-Serif" font-size="10.00">SetCurrentSolution()</text>
<text text-anchor="start" x="516" y="-566.5" font-family="Helvetica,sans-Serif" font-size="10.00">+</text>
<text text-anchor="start" x="529" y="-566.5" font-family="Helvetica,sans-Serif" font-size="10.00">~AbstractFeAssemblerCommon()</text>
<text text-anchor="start" x="516" y="-551.5" font-family="Helvetica,sans-Serif" font-size="10.00">#</text>
<text text-anchor="start" x="529" y="-551.5" font-family="Helvetica,sans-Serif" font-size="10.00">GetCurrentSolutionOrGuess</text>
<text text-anchor="start" x="529" y="-540.5" font-family="Helvetica,sans-Serif" font-size="10.00">Value()</text>
<text text-anchor="start" x="516" y="-525.5" font-family="Helvetica,sans-Serif" font-size="10.00">#</text>
<text text-anchor="start" x="529" y="-525.5" font-family="Helvetica,sans-Serif" font-size="10.00">ResetInterpolatedQuantities()</text>
<text text-anchor="start" x="516" y="-510.5" font-family="Helvetica,sans-Serif" font-size="10.00">#</text>
<text text-anchor="start" x="529" y="-510.5" font-family="Helvetica,sans-Serif" font-size="10.00">IncrementInterpolatedQuantities()</text>
<text text-anchor="start" x="516" y="-495.5" font-family="Helvetica,sans-Serif" font-size="10.00">#</text>
<text text-anchor="start" x="529" y="-495.5" font-family="Helvetica,sans-Serif" font-size="10.00">IncrementInterpolatedGradient</text>
<text text-anchor="start" x="529" y="-484.5" font-family="Helvetica,sans-Serif" font-size="10.00">Quantities()</text>
<polygon fill="#666666" stroke="#666666" points="512,-621.5 512,-621.5 700,-621.5 700,-621.5 512,-621.5"/>
<polygon fill="#666666" stroke="#666666" points="512,-606.5 512,-606.5 700,-606.5 700,-606.5 512,-606.5"/>
<polygon fill="none" stroke="#666666" points="512,-478 512,-683 700,-683 700,-478 512,-478"/>
</a>
</g>
</g>
<!-- Node3&#45;&gt;Node13 -->
<g id="edge14_Node000013_Node000003" class="edge">
<title>Node3&#45;&gt;Node13</title>
<g id="a_edge14_Node000013_Node000003"><a xlink:title=" ">
<path fill="none" stroke="#63b8ff" d="M507.77,-736.26C518.82,-718.85 530.38,-700.63 541.54,-683.06"/>
<polygon fill="none" stroke="#63b8ff" points="504.79,-734.42 502.39,-744.74 510.7,-738.17 504.79,-734.42"/>
</a>
</g>
</g>
<!-- Node4 -->
<g id="Node000004" class="node">
<title>Node4</title>
<g id="a_Node000004"><a xlink:title=" ">
<polygon fill="white" stroke="transparent" points="106,-1059.5 0,-1059.5 0,-1010.5 106,-1010.5 106,-1059.5"/>
<text text-anchor="start" x="5" y="-1047" font-family="Helvetica,sans-Serif" font-size="10.00">boost::noncopyable</text>
<text text-anchor="start" x="51" y="-1032" font-family="Helvetica,sans-Serif" font-size="10.00"> </text>
<text text-anchor="start" x="51" y="-1017" font-family="Helvetica,sans-Serif" font-size="10.00"> </text>
<polygon fill="#bfbfbf" stroke="#bfbfbf" points="0,-1042 0,-1042 106,-1042 106,-1042 0,-1042"/>
<polygon fill="#bfbfbf" stroke="#bfbfbf" points="0,-1027 0,-1027 106,-1027 106,-1027 0,-1027"/>
<polygon fill="none" stroke="#bfbfbf" points="0,-1010.5 0,-1059.5 106,-1059.5 106,-1010.5 0,-1010.5"/>
</a>
</g>
</g>
<!-- Node4&#45;&gt;Node3 -->
<g id="edge3_Node000003_Node000004" class="edge">
<title>Node4&#45;&gt;Node3</title>
<g id="a_edge3_Node000003_Node000004"><a xlink:title=" ">
<path fill="none" stroke="#8b1a1a" d="M53.19,-1000.28C55.05,-981.2 60.52,-958.19 75,-943 147.56,-866.89 270.12,-843.08 354.62,-836.08"/>
<polygon fill="none" stroke="#8b1a1a" points="49.68,-1000.18 52.49,-1010.4 56.67,-1000.67 49.68,-1000.18"/>
</a>
</g>
</g>
<!-- Node5 -->
<g id="Node000005" class="node">
<title>Node5</title>
<g id="a_Node000005"><a xlink:href="classVec.html" target="_top" xlink:title=" ">
<polygon fill="white" stroke="transparent" points="193,-1059.5 165,-1059.5 165,-1010.5 193,-1010.5 193,-1059.5"/>
<text text-anchor="start" x="170" y="-1047" font-family="Helvetica,sans-Serif" font-size="10.00">Vec</text>
<text text-anchor="start" x="177" y="-1032" font-family="Helvetica,sans-Serif" font-size="10.00"> </text>
<text text-anchor="start" x="177" y="-1017" font-family="Helvetica,sans-Serif" font-size="10.00"> </text>
<polygon fill="#bfbfbf" stroke="#bfbfbf" points="165,-1042 165,-1042 193,-1042 193,-1042 165,-1042"/>
<polygon fill="#bfbfbf" stroke="#bfbfbf" points="165,-1027 165,-1027 193,-1027 193,-1027 165,-1027"/>
<polygon fill="none" stroke="#bfbfbf" points="165,-1010.5 165,-1059.5 193,-1059.5 193,-1010.5 165,-1010.5"/>
</a>
</g>
</g>
<!-- Node5&#45;&gt;Node3 -->
<g id="edge4_Node000003_Node000005" class="edge">
<title>Node5&#45;&gt;Node3</title>
<g id="a_edge4_Node000003_Node000005"><a xlink:title=" ">
<path fill="none" stroke="#63b8ff" d="M164.69,-1027.69C139.97,-1016.64 91.45,-994.27 87,-987 76.79,-970.32 75.35,-958.7 87,-943 117.74,-901.57 247.66,-869.76 342.62,-851.48"/>
<polygon fill="none" stroke="#63b8ff" points="342.82,-851.44 347.97,-846.4 354.61,-849.21 349.46,-854.26 342.82,-851.44"/>
</a>
</g>
<text text-anchor="middle" x="142.5" y="-962.5" font-family="Helvetica,sans-Serif" font-size="10.00" fill="grey"> #mVectorToAssemble</text>
</g>
<!-- Node9 -->
<g id="Node000009" class="node">
<title>Node9</title>
<g id="a_Node000009"><a xlink:href="classReplicatableVector.html" target="_top" xlink:title=" ">
<polygon fill="white" stroke="transparent" points="828,-925 694,-925 694,-741 828,-741 828,-925"/>
<text text-anchor="start" x="715" y="-913" font-family="Helvetica,sans-Serif" font-size="10.00">ReplicatableVector</text>
<text text-anchor="start" x="759" y="-898" font-family="Helvetica,sans-Serif" font-size="10.00"> </text>
<text text-anchor="start" x="698" y="-883" font-family="Helvetica,sans-Serif" font-size="10.00">+</text>
<text text-anchor="start" x="711" y="-883" font-family="Helvetica,sans-Serif" font-size="10.00">ReplicatableVector()</text>
<text text-anchor="start" x="698" y="-868" font-family="Helvetica,sans-Serif" font-size="10.00">+</text>
<text text-anchor="start" x="711" y="-868" font-family="Helvetica,sans-Serif" font-size="10.00">ReplicatableVector()</text>
<text text-anchor="start" x="698" y="-853" font-family="Helvetica,sans-Serif" font-size="10.00">+</text>
<text text-anchor="start" x="711" y="-853" font-family="Helvetica,sans-Serif" font-size="10.00">ReplicatableVector()</text>
<text text-anchor="start" x="698" y="-838" font-family="Helvetica,sans-Serif" font-size="10.00">+</text>
<text text-anchor="start" x="711" y="-838" font-family="Helvetica,sans-Serif" font-size="10.00">~ReplicatableVector()</text>
<text text-anchor="start" x="698" y="-823" font-family="Helvetica,sans-Serif" font-size="10.00">+</text>
<text text-anchor="start" x="711" y="-823" font-family="Helvetica,sans-Serif" font-size="10.00">GetSize()</text>
<text text-anchor="start" x="698" y="-808" font-family="Helvetica,sans-Serif" font-size="10.00">+</text>
<text text-anchor="start" x="711" y="-808" font-family="Helvetica,sans-Serif" font-size="10.00">Resize()</text>
<text text-anchor="start" x="698" y="-793" font-family="Helvetica,sans-Serif" font-size="10.00">+</text>
<text text-anchor="start" x="711" y="-793" font-family="Helvetica,sans-Serif" font-size="10.00">operator[]()</text>
<text text-anchor="start" x="698" y="-778" font-family="Helvetica,sans-Serif" font-size="10.00">+</text>
<text text-anchor="start" x="711" y="-778" font-family="Helvetica,sans-Serif" font-size="10.00">Replicate()</text>
<text text-anchor="start" x="698" y="-763" font-family="Helvetica,sans-Serif" font-size="10.00">+</text>
<text text-anchor="start" x="711" y="-763" font-family="Helvetica,sans-Serif" font-size="10.00">ReplicatePetscVector()</text>
<text text-anchor="start" x="700.5" y="-748" font-family="Helvetica,sans-Serif" font-size="10.00">&#45;</text>
<text text-anchor="start" x="711" y="-748" font-family="Helvetica,sans-Serif" font-size="10.00">RemovePetscContext()</text>
<polygon fill="#666666" stroke="#666666" points="694,-908 694,-908 828,-908 828,-908 694,-908"/>
<polygon fill="#666666" stroke="#666666" points="694,-893 694,-893 828,-893 828,-893 694,-893"/>
<polygon fill="none" stroke="#666666" points="694,-741 694,-925 828,-925 828,-741 694,-741"/>
</a>
</g>
</g>
<!-- Node5&#45;&gt;Node9 -->
<g id="edge12_Node000009_Node000005" class="edge">
<title>Node5&#45;&gt;Node9</title>
<g id="a_edge12_Node000009_Node000005"><a xlink:title=" ">
<path fill="none" stroke="#63b8ff" d="M188.67,-1010.31C198.92,-988.63 217.32,-957.74 244,-943 303.23,-910.27 482.13,-940.52 548,-925 594.51,-914.04 643.73,-893.65 683.13,-874.94"/>
<polygon fill="none" stroke="#63b8ff" points="683.16,-874.93 686.83,-868.72 693.97,-869.72 690.3,-875.93 683.16,-874.93"/>
</a>
</g>
<text text-anchor="middle" x="278.5" y="-962.5" font-family="Helvetica,sans-Serif" font-size="10.00" fill="grey"> &#45;mReplicated</text>
</g>
<!-- Node6 -->
<g id="Node000006" class="node">
<title>Node6</title>
<g id="a_Node000006"><a xlink:href="classMat.html" target="_top" xlink:title=" ">
<polygon fill="white" stroke="transparent" points="326.5,-1059.5 297.5,-1059.5 297.5,-1010.5 326.5,-1010.5 326.5,-1059.5"/>
<text text-anchor="start" x="303" y="-1047" font-family="Helvetica,sans-Serif" font-size="10.00">Mat</text>
<text text-anchor="start" x="310.5" y="-1032" font-family="Helvetica,sans-Serif" font-size="10.00"> </text>
<text text-anchor="start" x="310.5" y="-1017" font-family="Helvetica,sans-Serif" font-size="10.00"> </text>
<polygon fill="#bfbfbf" stroke="#bfbfbf" points="298,-1042 298,-1042 327,-1042 327,-1042 298,-1042"/>
<polygon fill="#bfbfbf" stroke="#bfbfbf" points="298,-1027 298,-1027 327,-1027 327,-1027 298,-1027"/>
<polygon fill="none" stroke="#bfbfbf" points="297.5,-1010.5 297.5,-1059.5 326.5,-1059.5 326.5,-1010.5 297.5,-1010.5"/>
</a>
</g>
</g>
<!-- Node6&#45;&gt;Node3 -->
<g id="edge5_Node000003_Node000006" class="edge">
<title>Node6&#45;&gt;Node3</title>
<g id="a_edge5_Node000003_Node000006"><a xlink:title=" ">
<path fill="none" stroke="#63b8ff" d="M313.05,-1010.2C314.79,-990.99 319.32,-963.83 331,-943 335.61,-934.78 341.05,-926.82 347.02,-919.19"/>
<polygon fill="none" stroke="#63b8ff" points="347.2,-918.96 347.93,-911.79 354.84,-909.71 354.1,-916.88 347.2,-918.96"/>
</a>
</g>
<text text-anchor="middle" x="387" y="-962.5" font-family="Helvetica,sans-Serif" font-size="10.00" fill="grey"> #mMatrixToAssemble</text>
</g>
<!-- Node7 -->
<g id="Node000007" class="node">
<title>Node7</title>
<g id="a_Node000007"><a xlink:href="classbool.html" target="_top" xlink:title=" ">
<polygon fill="white" stroke="transparent" points="463,-1059.5 431,-1059.5 431,-1010.5 463,-1010.5 463,-1059.5"/>
<text text-anchor="start" x="436" y="-1047" font-family="Helvetica,sans-Serif" font-size="10.00">bool</text>
<text text-anchor="start" x="445" y="-1032" font-family="Helvetica,sans-Serif" font-size="10.00"> </text>
<text text-anchor="start" x="445" y="-1017" font-family="Helvetica,sans-Serif" font-size="10.00"> </text>
<polygon fill="#bfbfbf" stroke="#bfbfbf" points="431,-1042 431,-1042 463,-1042 463,-1042 431,-1042"/>
<polygon fill="#bfbfbf" stroke="#bfbfbf" points="431,-1027 431,-1027 463,-1027 463,-1027 431,-1027"/>
<polygon fill="none" stroke="#bfbfbf" points="431,-1010.5 431,-1059.5 463,-1059.5 463,-1010.5 431,-1010.5"/>
</a>
</g>
</g>
<!-- Node7&#45;&gt;Node3 -->
<g id="edge6_Node000003_Node000007" class="edge">
<title>Node7&#45;&gt;Node3</title>
<g id="a_edge6_Node000003_Node000007"><a xlink:title=" ">
<path fill="none" stroke="#63b8ff" d="M447,-1010.27C447,-990.9 447,-962.12 447,-933.4"/>
<polygon fill="none" stroke="#63b8ff" points="447,-933.13 443,-927.13 447,-921.13 451,-927.13 447,-933.13"/>
</a>
</g>
<text text-anchor="middle" x="523.5" y="-979" font-family="Helvetica,sans-Serif" font-size="10.00" fill="grey"> #mAssembleMatrix</text>
<text text-anchor="middle" x="523.5" y="-968" font-family="Helvetica,sans-Serif" font-size="10.00" fill="grey">#mAssembleVector</text>
<text text-anchor="middle" x="523.5" y="-957" font-family="Helvetica,sans-Serif" font-size="10.00" fill="grey">#mZeroMatrixBeforeAssembly</text>
<text text-anchor="middle" x="523.5" y="-946" font-family="Helvetica,sans-Serif" font-size="10.00" fill="grey">#mZeroVectorBeforeAssembly</text>
</g>
<!-- Node8 -->
<g id="Node000008" class="node">
<title>Node8</title>
<g id="a_Node000008"><a xlink:href="classPetscInt.html" target="_top" xlink:title=" ">
<polygon fill="white" stroke="transparent" points="648,-1059.5 598,-1059.5 598,-1010.5 648,-1010.5 648,-1059.5"/>
<text text-anchor="start" x="603" y="-1047" font-family="Helvetica,sans-Serif" font-size="10.00">PetscInt</text>
<text text-anchor="start" x="621" y="-1032" font-family="Helvetica,sans-Serif" font-size="10.00"> </text>
<text text-anchor="start" x="621" y="-1017" font-family="Helvetica,sans-Serif" font-size="10.00"> </text>
<polygon fill="#bfbfbf" stroke="#bfbfbf" points="598,-1042 598,-1042 648,-1042 648,-1042 598,-1042"/>
<polygon fill="#bfbfbf" stroke="#bfbfbf" points="598,-1027 598,-1027 648,-1027 648,-1027 598,-1027"/>
<polygon fill="none" stroke="#bfbfbf" points="598,-1010.5 598,-1059.5 648,-1059.5 648,-1010.5 598,-1010.5"/>
</a>
</g>
</g>
<!-- Node8&#45;&gt;Node3 -->
<g id="edge7_Node000003_Node000008" class="edge">
<title>Node8&#45;&gt;Node3</title>
<g id="a_edge7_Node000003_Node000008"><a xlink:title=" ">
<path fill="none" stroke="#63b8ff" d="M621.85,-1010.49C619.89,-990.95 614.69,-963.18 601,-943 587.33,-922.85 568.62,-905.21 548.94,-890.32"/>
<polygon fill="none" stroke="#63b8ff" points="548.91,-890.31 541.71,-890.01 539.22,-883.24 546.42,-883.54 548.91,-890.31"/>
</a>
</g>
<text text-anchor="middle" x="675.5" y="-968" font-family="Helvetica,sans-Serif" font-size="10.00" fill="grey"> #mOwnershipRangeHi</text>
<text text-anchor="middle" x="675.5" y="-957" font-family="Helvetica,sans-Serif" font-size="10.00" fill="grey">#mOwnershipRangeLo</text>
</g>
<!-- Node9&#45;&gt;Node2 -->
<g id="edge8_Node000002_Node000009" class="edge">
<title>Node9&#45;&gt;Node2</title>
<g id="a_edge8_Node000002_Node000009"><a xlink:title=" ">
<path fill="none" stroke="#63b8ff" d="M780.72,-740.84C794.41,-653.45 801,-521.28 742,-427 734.59,-415.16 725.98,-417.37 710.22,-408.81"/>
<polygon fill="none" stroke="#63b8ff" points="710.19,-408.8 702.98,-408.95 700.07,-402.35 707.28,-402.2 710.19,-408.8"/>
</a>
</g>
<text text-anchor="start" x="791" y="-583.5" font-family="Helvetica,sans-Serif" font-size="10.00" fill="grey"> #mCurrentSolutionOrGuess</text>
<text text-anchor="middle" x="860.5" y="-572.5" font-family="Helvetica,sans-Serif" font-size="10.00" fill="grey">Replicated</text>
</g>
<!-- Node9&#45;&gt;Node13 -->
<g id="edge15_Node000013_Node000009" class="edge">
<title>Node9&#45;&gt;Node13</title>
<g id="a_edge15_Node000013_Node000009"><a xlink:title=" ">
<path fill="none" stroke="#63b8ff" d="M693.92,-802.41C661.8,-784.43 626.4,-758.09 608,-723 603.46,-714.34 600.28,-704.95 598.15,-695.26"/>
<polygon fill="none" stroke="#63b8ff" points="598.13,-695.16 593.15,-689.94 596.06,-683.34 601.03,-688.56 598.13,-695.16"/>
</a>
</g>
<text text-anchor="start" x="608" y="-715" font-family="Helvetica,sans-Serif" font-size="10.00" fill="grey"> #mCurrentSolutionOrGuess</text>
<text text-anchor="middle" x="677.5" y="-704" font-family="Helvetica,sans-Serif" font-size="10.00" fill="grey">Replicated</text>
</g>
<!-- Node10 -->
<g id="Node000010" class="node">
<title>Node10</title>
<g id="a_Node000010"><a xlink:href="classdouble.html" target="_top" xlink:title=" ">
<polygon fill="white" stroke="transparent" points="782,-1059.5 738,-1059.5 738,-1010.5 782,-1010.5 782,-1059.5"/>
<text text-anchor="start" x="743" y="-1047" font-family="Helvetica,sans-Serif" font-size="10.00">double</text>
<text text-anchor="start" x="758" y="-1032" font-family="Helvetica,sans-Serif" font-size="10.00"> </text>
<text text-anchor="start" x="758" y="-1017" font-family="Helvetica,sans-Serif" font-size="10.00"> </text>
<polygon fill="#bfbfbf" stroke="#bfbfbf" points="738,-1042 738,-1042 782,-1042 782,-1042 738,-1042"/>
<polygon fill="#bfbfbf" stroke="#bfbfbf" points="738,-1027 738,-1027 782,-1027 782,-1027 738,-1027"/>
<polygon fill="none" stroke="#bfbfbf" points="738,-1010.5 738,-1059.5 782,-1059.5 782,-1010.5 738,-1010.5"/>
</a>
</g>
</g>
<!-- Node10&#45;&gt;Node9 -->
<g id="edge9_Node000009_Node000010" class="edge">
<title>Node10&#45;&gt;Node9</title>
<g id="a_edge9_Node000009_Node000010"><a xlink:title=" ">
<path fill="none" stroke="#63b8ff" d="M760.12,-1010.27C760.21,-991.79 760.35,-964.76 760.48,-937.39"/>
<polygon fill="none" stroke="#63b8ff" points="760.48,-937.25 756.51,-931.23 760.54,-925.25 764.51,-931.27 760.48,-937.25"/>
</a>
</g>
<text text-anchor="middle" x="784" y="-962.5" font-family="Helvetica,sans-Serif" font-size="10.00" fill="grey"> &#45;mpData</text>
</g>
<!-- Node11 -->
<g id="Node000011" class="node">
<title>Node11</title>
<g id="a_Node000011"><a xlink:href="classunsigned.html" target="_top" xlink:title=" ">
<polygon fill="white" stroke="transparent" points="973.5,-1059.5 918.5,-1059.5 918.5,-1010.5 973.5,-1010.5 973.5,-1059.5"/>
<text text-anchor="start" x="924" y="-1047" font-family="Helvetica,sans-Serif" font-size="10.00">unsigned</text>
<text text-anchor="start" x="944.5" y="-1032" font-family="Helvetica,sans-Serif" font-size="10.00"> </text>
<text text-anchor="start" x="944.5" y="-1017" font-family="Helvetica,sans-Serif" font-size="10.00"> </text>
<polygon fill="#bfbfbf" stroke="#bfbfbf" points="919,-1042 919,-1042 974,-1042 974,-1042 919,-1042"/>
<polygon fill="#bfbfbf" stroke="#bfbfbf" points="919,-1027 919,-1027 974,-1027 974,-1027 919,-1027"/>
<polygon fill="none" stroke="#bfbfbf" points="918.5,-1010.5 918.5,-1059.5 973.5,-1059.5 973.5,-1010.5 918.5,-1010.5"/>
</a>
</g>
</g>
<!-- Node11&#45;&gt;Node9 -->
<g id="edge10_Node000009_Node000011" class="edge">
<title>Node11&#45;&gt;Node9</title>
<g id="a_edge10_Node000009_Node000011"><a xlink:title=" ">
<path fill="none" stroke="#63b8ff" d="M918.41,-1010.69C910.49,-1003.45 902.08,-995.2 895,-987 879.53,-969.09 879.89,-961.4 865,-943 856.13,-932.04 846.39,-920.86 836.53,-910.04"/>
<polygon fill="none" stroke="#63b8ff" points="836.37,-909.87 829.37,-908.18 828.24,-901.05 835.25,-902.75 836.37,-909.87"/>
</a>
</g>
<text text-anchor="middle" x="913.5" y="-962.5" font-family="Helvetica,sans-Serif" font-size="10.00" fill="grey"> &#45;mSize</text>
</g>
<!-- Node16 -->
<g id="Node000016" class="node">
<title>Node16</title>
<g id="a_Node000016"><a xlink:href="classGaussianQuadratureRule.html" target="_top" xlink:title=" ">
<polygon fill="white" stroke="transparent" points="1203.5,-655.5 1052.5,-655.5 1052.5,-505.5 1203.5,-505.5 1203.5,-655.5"/>
<text text-anchor="start" x="1067.5" y="-643.5" font-family="Helvetica,sans-Serif" font-size="10.00">GaussianQuadratureRule</text>
<text text-anchor="start" x="1077" y="-632.5" font-family="Helvetica,sans-Serif" font-size="10.00">&lt; ELEMENT_DIM&#45;1 &gt;</text>
<text text-anchor="start" x="1126.5" y="-617.5" font-family="Helvetica,sans-Serif" font-size="10.00"> </text>
<text text-anchor="start" x="1057" y="-602.5" font-family="Helvetica,sans-Serif" font-size="10.00">+</text>
<text text-anchor="start" x="1070" y="-602.5" font-family="Helvetica,sans-Serif" font-size="10.00">GaussianQuadratureRule()</text>
<text text-anchor="start" x="1057" y="-587.5" font-family="Helvetica,sans-Serif" font-size="10.00">+</text>
<text text-anchor="start" x="1070" y="-587.5" font-family="Helvetica,sans-Serif" font-size="10.00">GaussianQuadratureRule()</text>
<text text-anchor="start" x="1057" y="-572.5" font-family="Helvetica,sans-Serif" font-size="10.00">+</text>
<text text-anchor="start" x="1070" y="-572.5" font-family="Helvetica,sans-Serif" font-size="10.00">GaussianQuadratureRule()</text>
<text text-anchor="start" x="1057" y="-557.5" font-family="Helvetica,sans-Serif" font-size="10.00">+</text>
<text text-anchor="start" x="1070" y="-557.5" font-family="Helvetica,sans-Serif" font-size="10.00">GaussianQuadratureRule()</text>
<text text-anchor="start" x="1057" y="-542.5" font-family="Helvetica,sans-Serif" font-size="10.00">+</text>
<text text-anchor="start" x="1070" y="-542.5" font-family="Helvetica,sans-Serif" font-size="10.00">rGetQuadPoint()</text>
<text text-anchor="start" x="1057" y="-527.5" font-family="Helvetica,sans-Serif" font-size="10.00">+</text>
<text text-anchor="start" x="1070" y="-527.5" font-family="Helvetica,sans-Serif" font-size="10.00">GetWeight()</text>
<text text-anchor="start" x="1057" y="-512.5" font-family="Helvetica,sans-Serif" font-size="10.00">+</text>
<text text-anchor="start" x="1070" y="-512.5" font-family="Helvetica,sans-Serif" font-size="10.00">GetNumQuadPoints()</text>
<polygon fill="#666666" stroke="#666666" points="1053,-627.5 1053,-627.5 1204,-627.5 1204,-627.5 1053,-627.5"/>
<polygon fill="#666666" stroke="#666666" points="1053,-612.5 1053,-612.5 1204,-612.5 1204,-612.5 1053,-612.5"/>
<polygon fill="none" stroke="#666666" points="1052.5,-505.5 1052.5,-655.5 1203.5,-655.5 1203.5,-505.5 1052.5,-505.5"/>
</a>
</g>
</g>
<!-- Node11&#45;&gt;Node16 -->
<g id="edge19_Node000016_Node000011" class="edge">
<title>Node11&#45;&gt;Node16</title>
<g id="a_edge19_Node000016_Node000011"><a xlink:title=" ">
<path fill="none" stroke="#63b8ff" d="M944.5,-1010.29C941.01,-949.35 934.21,-788.68 956,-741 974.72,-700.04 1009.36,-664.7 1042.67,-637.78"/>
<polygon fill="none" stroke="#63b8ff" points="1043.06,-637.48 1045.3,-630.62 1052.48,-630.05 1050.24,-636.91 1043.06,-637.48"/>
</a>
</g>
<text text-anchor="middle" x="1004" y="-830.5" font-family="Helvetica,sans-Serif" font-size="10.00" fill="grey"> &#45;mNumQuadPoints</text>
</g>
<!-- Node19 -->
<g id="Node000019" class="node">
<title>Node19</title>
<g id="a_Node000019"><a xlink:href="classGaussianQuadratureRule.html" target="_top" xlink:title=" ">
<polygon fill="white" stroke="transparent" points="1211.5,-908 1060.5,-908 1060.5,-758 1211.5,-758 1211.5,-908"/>
<text text-anchor="start" x="1075.5" y="-896" font-family="Helvetica,sans-Serif" font-size="10.00">GaussianQuadratureRule</text>
<text text-anchor="start" x="1089.5" y="-885" font-family="Helvetica,sans-Serif" font-size="10.00">&lt; ELEMENT_DIM &gt;</text>
<text text-anchor="start" x="1134.5" y="-870" font-family="Helvetica,sans-Serif" font-size="10.00"> </text>
<text text-anchor="start" x="1065" y="-855" font-family="Helvetica,sans-Serif" font-size="10.00">+</text>
<text text-anchor="start" x="1078" y="-855" font-family="Helvetica,sans-Serif" font-size="10.00">GaussianQuadratureRule()</text>
<text text-anchor="start" x="1065" y="-840" font-family="Helvetica,sans-Serif" font-size="10.00">+</text>
<text text-anchor="start" x="1078" y="-840" font-family="Helvetica,sans-Serif" font-size="10.00">rGetQuadPoint()</text>
<text text-anchor="start" x="1065" y="-825" font-family="Helvetica,sans-Serif" font-size="10.00">+</text>
<text text-anchor="start" x="1078" y="-825" font-family="Helvetica,sans-Serif" font-size="10.00">GetWeight()</text>
<text text-anchor="start" x="1065" y="-810" font-family="Helvetica,sans-Serif" font-size="10.00">+</text>
<text text-anchor="start" x="1078" y="-810" font-family="Helvetica,sans-Serif" font-size="10.00">GetNumQuadPoints()</text>
<text text-anchor="start" x="1065" y="-795" font-family="Helvetica,sans-Serif" font-size="10.00">+</text>
<text text-anchor="start" x="1078" y="-795" font-family="Helvetica,sans-Serif" font-size="10.00">GaussianQuadratureRule()</text>
<text text-anchor="start" x="1065" y="-780" font-family="Helvetica,sans-Serif" font-size="10.00">+</text>
<text text-anchor="start" x="1078" y="-780" font-family="Helvetica,sans-Serif" font-size="10.00">GaussianQuadratureRule()</text>
<text text-anchor="start" x="1065" y="-765" font-family="Helvetica,sans-Serif" font-size="10.00">+</text>
<text text-anchor="start" x="1078" y="-765" font-family="Helvetica,sans-Serif" font-size="10.00">GaussianQuadratureRule()</text>
<polygon fill="#666666" stroke="#666666" points="1061,-880 1061,-880 1212,-880 1212,-880 1061,-880"/>
<polygon fill="#666666" stroke="#666666" points="1061,-865 1061,-865 1212,-865 1212,-865 1061,-865"/>
<polygon fill="none" stroke="#666666" points="1060.5,-758 1060.5,-908 1211.5,-908 1211.5,-758 1060.5,-758"/>
</a>
</g>
</g>
<!-- Node11&#45;&gt;Node19 -->
<g id="edge23_Node000019_Node000011" class="edge">
<title>Node11&#45;&gt;Node19</title>
<g id="a_edge23_Node000019_Node000011"><a xlink:title=" ">
<path fill="none" stroke="#63b8ff" d="M968.54,-1010.27C990.47,-987.19 1025.08,-950.76 1057.15,-917"/>
<polygon fill="none" stroke="#63b8ff" points="1057.41,-916.72 1058.65,-909.62 1065.68,-908.02 1064.45,-915.13 1057.41,-916.72"/>
</a>
</g>
<text text-anchor="middle" x="1077" y="-962.5" font-family="Helvetica,sans-Serif" font-size="10.00" fill="grey"> &#45;mNumQuadPoints</text>
</g>
<!-- Node12 -->
<g id="Node000012" class="node">
<title>Node12</title>
<g id="a_Node000012"><a xlink:title=" ">
<polygon fill="white" stroke="transparent" points="862,-1059.5 800,-1059.5 800,-1010.5 862,-1010.5 862,-1059.5"/>
<text text-anchor="start" x="805" y="-1047" font-family="Helvetica,sans-Serif" font-size="10.00">VecScatter</text>
<text text-anchor="start" x="829" y="-1032" font-family="Helvetica,sans-Serif" font-size="10.00"> </text>
<text text-anchor="start" x="829" y="-1017" font-family="Helvetica,sans-Serif" font-size="10.00"> </text>
<polygon fill="#bfbfbf" stroke="#bfbfbf" points="800,-1042 800,-1042 862,-1042 862,-1042 800,-1042"/>
<polygon fill="#bfbfbf" stroke="#bfbfbf" points="800,-1027 800,-1027 862,-1027 862,-1027 800,-1027"/>
<polygon fill="none" stroke="#bfbfbf" points="800,-1010.5 800,-1059.5 862,-1059.5 862,-1010.5 800,-1010.5"/>
</a>
</g>
</g>
<!-- Node12&#45;&gt;Node9 -->
<g id="edge11_Node000009_Node000012" class="edge">
<title>Node12&#45;&gt;Node9</title>
<g id="a_edge11_Node000009_Node000012"><a xlink:title=" ">
<path fill="none" stroke="#63b8ff" d="M826.51,-1010.49C822.69,-991.92 816.6,-965.48 809,-943 808.29,-940.89 807.55,-938.76 806.79,-936.62"/>
<polygon fill="none" stroke="#63b8ff" points="806.69,-936.38 800.86,-932.14 802.53,-925.12 808.37,-929.36 806.69,-936.38"/>
</a>
</g>
<text text-anchor="middle" x="841" y="-962.5" font-family="Helvetica,sans-Serif" font-size="10.00" fill="grey"> &#45;mToAll</text>
</g>
<!-- Node13&#45;&gt;Node2 -->
<g id="edge13_Node000002_Node000013" class="edge">
<title>Node13&#45;&gt;Node2</title>
<g id="a_edge13_Node000002_Node000013"><a xlink:title=" ">
<path fill="none" stroke="orange" d="M606,-467.89C606,-448.45 606,-428.38 606,-409.4"/>
<polygon fill="orange" stroke="orange" points="602.5,-467.99 606,-477.99 609.5,-467.99 602.5,-467.99"/>
</a>
</g>
<text text-anchor="start" x="606" y="-452" font-family="Helvetica,sans-Serif" font-size="10.00" fill="grey"> &lt; ELEMENT_DIM, SPACE</text>
<text text-anchor="start" x="606" y="-441" font-family="Helvetica,sans-Serif" font-size="10.00" fill="grey">_DIM, PROBLEM_DIM, true,</text>
<text text-anchor="middle" x="672" y="-430" font-family="Helvetica,sans-Serif" font-size="10.00" fill="grey"> false, NORMAL &gt;</text>
</g>
<!-- Node14 -->
<g id="Node000014" class="node">
<title>Node14</title>
<g id="a_Node000014"><a xlink:title=" ">
<polygon fill="white" stroke="transparent" points="891.5,-342 718.5,-342 718.5,-282 891.5,-282 891.5,-342"/>
<text text-anchor="start" x="724" y="-330" font-family="Helvetica,sans-Serif" font-size="10.00">AbstractTetrahedralMesh</text>
<text text-anchor="start" x="724" y="-319" font-family="Helvetica,sans-Serif" font-size="10.00">&lt; ELEMENT_DIM, SPACE_DIM &gt; *</text>
<text text-anchor="start" x="803.5" y="-304" font-family="Helvetica,sans-Serif" font-size="10.00"> </text>
<text text-anchor="start" x="803.5" y="-289" font-family="Helvetica,sans-Serif" font-size="10.00"> </text>
<polygon fill="#bfbfbf" stroke="#bfbfbf" points="719,-314 719,-314 892,-314 892,-314 719,-314"/>
<polygon fill="#bfbfbf" stroke="#bfbfbf" points="719,-299 719,-299 892,-299 892,-299 719,-299"/>
<polygon fill="none" stroke="#bfbfbf" points="718.5,-282 718.5,-342 891.5,-342 891.5,-282 718.5,-282"/>
</a>
</g>
</g>
<!-- Node14&#45;&gt;Node1 -->
<g id="edge16_Node000001_Node000014" class="edge">
<title>Node14&#45;&gt;Node1</title>
<g id="a_edge16_Node000001_Node000014"><a xlink:title=" ">
<path fill="none" stroke="#63b8ff" d="M816.71,-281.92C827.15,-255.99 843.03,-216.55 857.84,-179.77"/>
<polygon fill="none" stroke="#63b8ff" points="857.92,-179.58 856.45,-172.52 862.4,-168.45 863.87,-175.51 857.92,-179.58"/>
</a>
</g>
<text text-anchor="middle" x="881" y="-189" font-family="Helvetica,sans-Serif" font-size="10.00" fill="grey"> #mpMesh</text>
</g>
<!-- Node15 -->
<g id="Node000015" class="node">
<title>Node15</title>
<g id="a_Node000015"><a xlink:title=" ">
<polygon fill="white" stroke="transparent" points="1066.5,-347.5 909.5,-347.5 909.5,-276.5 1066.5,-276.5 1066.5,-347.5"/>
<text text-anchor="start" x="915" y="-335" font-family="Helvetica,sans-Serif" font-size="10.00">BoundaryConditionsContainer</text>
<text text-anchor="start" x="915" y="-324" font-family="Helvetica,sans-Serif" font-size="10.00">&lt; ELEMENT_DIM, SPACE_DIM,</text>
<text text-anchor="start" x="941" y="-313" font-family="Helvetica,sans-Serif" font-size="10.00"> PROBLEM_DIM &gt; *</text>
<text text-anchor="start" x="986.5" y="-298" font-family="Helvetica,sans-Serif" font-size="10.00"> </text>
<text text-anchor="start" x="986.5" y="-283" font-family="Helvetica,sans-Serif" font-size="10.00"> </text>
<polygon fill="#bfbfbf" stroke="#bfbfbf" points="910,-308 910,-308 1067,-308 1067,-308 910,-308"/>
<polygon fill="#bfbfbf" stroke="#bfbfbf" points="910,-293 910,-293 1067,-293 1067,-293 910,-293"/>
<polygon fill="none" stroke="#bfbfbf" points="909.5,-276.5 909.5,-347.5 1066.5,-347.5 1066.5,-276.5 909.5,-276.5"/>
</a>
</g>
</g>
<!-- Node15&#45;&gt;Node1 -->
<g id="edge17_Node000001_Node000015" class="edge">
<title>Node15&#45;&gt;Node1</title>
<g id="a_edge17_Node000001_Node000015"><a xlink:title=" ">
<path fill="none" stroke="#63b8ff" d="M973.83,-276.18C963.32,-250.37 948.47,-213.89 934.55,-179.71"/>
<polygon fill="none" stroke="#63b8ff" points="934.4,-179.34 928.44,-175.29 929.88,-168.22 935.84,-172.27 934.4,-179.34"/>
</a>
</g>
<text text-anchor="middle" x="1002" y="-189" font-family="Helvetica,sans-Serif" font-size="10.00" fill="grey"> #mpBoundaryConditions</text>
</g>
<!-- Node16&#45;&gt;Node1 -->
<g id="edge18_Node000001_Node000016" class="edge">
<title>Node16&#45;&gt;Node1</title>
<g id="a_edge18_Node000001_Node000016"><a xlink:title=" ">
<path fill="none" stroke="#63b8ff" d="M1136.41,-505.36C1142.04,-419.9 1138.37,-279.25 1069,-186 1052.98,-164.46 1030.89,-146.73 1007.86,-132.47"/>
<polygon fill="none" stroke="#63b8ff" points="1007.54,-132.28 1000.34,-132.66 997.22,-126.16 1004.42,-125.78 1007.54,-132.28"/>
</a>
</g>
<text text-anchor="middle" x="1193" y="-309.5" font-family="Helvetica,sans-Serif" font-size="10.00" fill="grey"> #mpSurfaceQuadRule</text>
</g>
<!-- Node17 -->
<g id="Node000017" class="node">
<title>Node17</title>
<g id="a_Node000017"><a xlink:title=" ">
<polygon fill="white" stroke="transparent" points="1208.5,-1065 1093.5,-1065 1093.5,-1005 1208.5,-1005 1208.5,-1065"/>
<text text-anchor="start" x="1099" y="-1053" font-family="Helvetica,sans-Serif" font-size="10.00">vector&lt; ChastePoint</text>
<text text-anchor="start" x="1099" y="-1042" font-family="Helvetica,sans-Serif" font-size="10.00">&lt; ELEMENT_DIM &gt; &gt;</text>
<text text-anchor="start" x="1149.5" y="-1027" font-family="Helvetica,sans-Serif" font-size="10.00"> </text>
<text text-anchor="start" x="1149.5" y="-1012" font-family="Helvetica,sans-Serif" font-size="10.00"> </text>
<polygon fill="#bfbfbf" stroke="#bfbfbf" points="1094,-1037 1094,-1037 1209,-1037 1209,-1037 1094,-1037"/>
<polygon fill="#bfbfbf" stroke="#bfbfbf" points="1094,-1022 1094,-1022 1209,-1022 1209,-1022 1094,-1022"/>
<polygon fill="none" stroke="#bfbfbf" points="1093.5,-1005 1093.5,-1065 1208.5,-1065 1208.5,-1005 1093.5,-1005"/>
</a>
</g>
</g>
<!-- Node17&#45;&gt;Node16 -->
<g id="edge20_Node000016_Node000017" class="edge">
<title>Node17&#45;&gt;Node16</title>
<g id="a_edge20_Node000016_Node000017"><a xlink:title=" ">
<path fill="none" stroke="#63b8ff" d="M1183.93,-1004.83C1189.08,-999.26 1194.01,-993.22 1198,-987 1213.87,-962.26 1214.88,-953.75 1221,-925 1241.76,-827.46 1269.39,-794.23 1234,-701 1228.51,-686.54 1220.38,-672.7 1211.02,-659.91"/>
<polygon fill="none" stroke="#63b8ff" points="1210.97,-659.85 1204.14,-657.53 1203.65,-650.34 1210.48,-652.65 1210.97,-659.85"/>
</a>
</g>
<text text-anchor="middle" x="1273.5" y="-830.5" font-family="Helvetica,sans-Serif" font-size="10.00" fill="grey"> &#45;mPoints</text>
</g>
<!-- Node17&#45;&gt;Node19 -->
<g id="edge24_Node000019_Node000017" class="edge">
<title>Node17&#45;&gt;Node19</title>
<g id="a_edge24_Node000019_Node000017"><a xlink:title=" ">
<path fill="none" stroke="#63b8ff" d="M1148.82,-1004.92C1147.14,-982.54 1144.73,-950.39 1142.45,-920.01"/>
<polygon fill="none" stroke="#63b8ff" points="1142.45,-919.99 1138.01,-914.31 1141.55,-908.03 1145.99,-913.71 1142.45,-919.99"/>
</a>
</g>
<text text-anchor="middle" x="1170.5" y="-962.5" font-family="Helvetica,sans-Serif" font-size="10.00" fill="grey"> &#45;mPoints</text>
</g>
<!-- Node18 -->
<g id="Node000018" class="node">
<title>Node18</title>
<g id="a_Node000018"><a xlink:title=" ">
<polygon fill="white" stroke="transparent" points="1364.5,-1059.5 1267.5,-1059.5 1267.5,-1010.5 1364.5,-1010.5 1364.5,-1059.5"/>
<text text-anchor="start" x="1273" y="-1047" font-family="Helvetica,sans-Serif" font-size="10.00">vector&lt; double &gt;</text>
<text text-anchor="start" x="1314.5" y="-1032" font-family="Helvetica,sans-Serif" font-size="10.00"> </text>
<text text-anchor="start" x="1314.5" y="-1017" font-family="Helvetica,sans-Serif" font-size="10.00"> </text>
<polygon fill="#bfbfbf" stroke="#bfbfbf" points="1268,-1042 1268,-1042 1365,-1042 1365,-1042 1268,-1042"/>
<polygon fill="#bfbfbf" stroke="#bfbfbf" points="1268,-1027 1268,-1027 1365,-1027 1365,-1027 1268,-1027"/>
<polygon fill="none" stroke="#bfbfbf" points="1267.5,-1010.5 1267.5,-1059.5 1364.5,-1059.5 1364.5,-1010.5 1267.5,-1010.5"/>
</a>
</g>
</g>
<!-- Node18&#45;&gt;Node16 -->
<g id="edge21_Node000016_Node000018" class="edge">
<title>Node18&#45;&gt;Node16</title>
<g id="a_edge21_Node000016_Node000018"><a xlink:title=" ">
<path fill="none" stroke="#63b8ff" d="M1325.69,-1010.48C1328.27,-1003.09 1330.7,-994.82 1332,-987 1335.19,-967.71 1333.49,-962.5 1332,-943 1325.09,-852.43 1343.68,-821.18 1301,-741 1280.12,-701.78 1245.76,-667.09 1213.14,-640.17"/>
<polygon fill="none" stroke="#63b8ff" points="1212.88,-639.96 1205.7,-639.31 1203.54,-632.43 1210.72,-633.08 1212.88,-639.96"/>
</a>
</g>
<text text-anchor="middle" x="1358" y="-830.5" font-family="Helvetica,sans-Serif" font-size="10.00" fill="grey"> &#45;mWeights</text>
</g>
<!-- Node18&#45;&gt;Node19 -->
<g id="edge25_Node000019_Node000018" class="edge">
<title>Node18&#45;&gt;Node19</title>
<g id="a_edge25_Node000019_Node000018"><a xlink:title=" ">
<path fill="none" stroke="#63b8ff" d="M1294.64,-1010.27C1273.87,-987.19 1241.09,-950.76 1210.7,-917"/>
<polygon fill="none" stroke="#63b8ff" points="1210.65,-916.94 1203.66,-915.16 1202.62,-908.02 1209.61,-909.81 1210.65,-916.94"/>
</a>
</g>
<text text-anchor="middle" x="1300" y="-962.5" font-family="Helvetica,sans-Serif" font-size="10.00" fill="grey"> &#45;mWeights</text>
</g>
<!-- Node19&#45;&gt;Node16 -->
<g id="edge22_Node000016_Node000019" class="edge">
<title>Node19&#45;&gt;Node16</title>
<g id="a_edge22_Node000016_Node000019"><a xlink:title=" ">
<path fill="none" stroke="orange" d="M1129.2,-747.71C1128.71,-739.37 1128.29,-731.02 1128,-723 1127.2,-701.15 1126.96,-677.39 1126.98,-655.69"/>
<polygon fill="orange" stroke="orange" points="1125.72,-748.1 1129.83,-757.87 1132.7,-747.67 1125.72,-748.1"/>
</a>
</g>
<text text-anchor="middle" x="1181" y="-709.5" font-family="Helvetica,sans-Serif" font-size="10.00" fill="grey"> &lt; ELEMENT_DIM&#45;1 &gt;</text>
</g>
</g>
</svg>
