<?xml version="1.0" encoding="UTF-8" standalone="no"?>
<!DOCTYPE svg PUBLIC "-//W3C//DTD SVG 1.1//EN"
 "http://www.w3.org/Graphics/SVG/1.1/DTD/svg11.dtd">
<!-- Generated by graphviz version 2.43.0 (0)
 -->
<!-- Title: FileComparison Pages: 1 -->
<svg width="661pt" height="451pt"
 viewBox="0.00 0.00 660.50 451.00" xmlns="http://www.w3.org/2000/svg" xmlns:xlink="http://www.w3.org/1999/xlink">
<g id="graph0" class="graph" transform="scale(1 1) rotate(0) translate(4 447)">
<title>FileComparison</title>
<!-- Node1 -->
<g id="Node000001" class="node">
<title>Node1</title>
<g id="a_Node000001"><a xlink:title=" ">
<polygon fill="#999999" stroke="transparent" points="489,-154 317,-154 317,0 489,0 489,-154"/>
<text text-anchor="start" x="365" y="-142" font-family="Helvetica,sans-Serif" font-size="10.00">FileComparison</text>
<text text-anchor="start" x="401" y="-127" font-family="Helvetica,sans-Serif" font-size="10.00"> </text>
<text text-anchor="start" x="321" y="-112" font-family="Helvetica,sans-Serif" font-size="10.00">+</text>
<text text-anchor="start" x="334" y="-112" font-family="Helvetica,sans-Serif" font-size="10.00">FileComparison()</text>
<text text-anchor="start" x="321" y="-97" font-family="Helvetica,sans-Serif" font-size="10.00">+</text>
<text text-anchor="start" x="334" y="-97" font-family="Helvetica,sans-Serif" font-size="10.00">FileComparison()</text>
<text text-anchor="start" x="321" y="-82" font-family="Helvetica,sans-Serif" font-size="10.00">+</text>
<text text-anchor="start" x="334" y="-82" font-family="Helvetica,sans-Serif" font-size="10.00">SetupCommentLines()</text>
<text text-anchor="start" x="321" y="-67" font-family="Helvetica,sans-Serif" font-size="10.00">+</text>
<text text-anchor="start" x="334" y="-67" font-family="Helvetica,sans-Serif" font-size="10.00">SetIgnoreCommentLines()</text>
<text text-anchor="start" x="321" y="-52" font-family="Helvetica,sans-Serif" font-size="10.00">+</text>
<text text-anchor="start" x="334" y="-52" font-family="Helvetica,sans-Serif" font-size="10.00">IgnoreBlankLines()</text>
<text text-anchor="start" x="321" y="-37" font-family="Helvetica,sans-Serif" font-size="10.00">+</text>
<text text-anchor="start" x="334" y="-37" font-family="Helvetica,sans-Serif" font-size="10.00">SetIgnoreLinesBeginningWith()</text>
<text text-anchor="start" x="321" y="-22" font-family="Helvetica,sans-Serif" font-size="10.00">+</text>
<text text-anchor="start" x="334" y="-22" font-family="Helvetica,sans-Serif" font-size="10.00">IgnoreLinesContaining()</text>
<text text-anchor="start" x="321" y="-7" font-family="Helvetica,sans-Serif" font-size="10.00">+</text>
<text text-anchor="start" x="334" y="-7" font-family="Helvetica,sans-Serif" font-size="10.00">CompareFiles()</text>
<polygon fill="#666666" stroke="#666666" points="317,-137 317,-137 489,-137 489,-137 317,-137"/>
<polygon fill="#666666" stroke="#666666" points="317,-122 317,-122 489,-122 489,-122 317,-122"/>
<polygon fill="none" stroke="#666666" points="317,0 317,-154 489,-154 489,0 317,0"/>
</a>
</g>
</g>
<!-- Node2 -->
<g id="Node000002" class="node">
<title>Node2</title>
<g id="a_Node000002"><a xlink:href="classAbstractFileComparison.html" target="_top" xlink:title=" ">
<polygon fill="white" stroke="transparent" points="267,-336 113,-336 113,-212 267,-212 267,-336"/>
<text text-anchor="start" x="131.5" y="-324" font-family="Helvetica,sans-Serif" font-size="10.00">AbstractFileComparison</text>
<text text-anchor="start" x="188" y="-309" font-family="Helvetica,sans-Serif" font-size="10.00"> </text>
<text text-anchor="start" x="117" y="-294" font-family="Helvetica,sans-Serif" font-size="10.00">+</text>
<text text-anchor="start" x="130" y="-294" font-family="Helvetica,sans-Serif" font-size="10.00">AbstractFileComparison()</text>
<text text-anchor="start" x="117" y="-279" font-family="Helvetica,sans-Serif" font-size="10.00">+</text>
<text text-anchor="start" x="130" y="-279" font-family="Helvetica,sans-Serif" font-size="10.00">AbstractFileComparison()</text>
<text text-anchor="start" x="117" y="-264" font-family="Helvetica,sans-Serif" font-size="10.00">+</text>
<text text-anchor="start" x="130" y="-264" font-family="Helvetica,sans-Serif" font-size="10.00">~AbstractFileComparison()</text>
<text text-anchor="start" x="117" y="-249" font-family="Helvetica,sans-Serif" font-size="10.00">#</text>
<text text-anchor="start" x="130" y="-249" font-family="Helvetica,sans-Serif" font-size="10.00">ResetFiles()</text>
<text text-anchor="start" x="117" y="-234" font-family="Helvetica,sans-Serif" font-size="10.00">#</text>
<text text-anchor="start" x="130" y="-234" font-family="Helvetica,sans-Serif" font-size="10.00">SkipHeaderLines()</text>
<text text-anchor="start" x="119.5" y="-219" font-family="Helvetica,sans-Serif" font-size="10.00">&#45;</text>
<text text-anchor="start" x="130" y="-219" font-family="Helvetica,sans-Serif" font-size="10.00">Setup()</text>
<polygon fill="#666666" stroke="#666666" points="113,-319 113,-319 267,-319 267,-319 113,-319"/>
<polygon fill="#666666" stroke="#666666" points="113,-304 113,-304 267,-304 267,-304 113,-304"/>
<polygon fill="none" stroke="#666666" points="113,-212 113,-336 267,-336 267,-212 113,-212"/>
</a>
</g>
</g>
<!-- Node2&#45;&gt;Node1 -->
<g id="edge1_Node000001_Node000002" class="edge">
<title>Node2&#45;&gt;Node1</title>
<g id="a_edge1_Node000001_Node000002"><a xlink:title=" ">
<path fill="none" stroke="#63b8ff" d="M264.41,-204.88C282.35,-188.46 301.62,-170.81 319.93,-154.05"/>
<polygon fill="none" stroke="#63b8ff" points="261.82,-202.5 256.81,-211.84 266.55,-207.66 261.82,-202.5"/>
</a>
</g>
</g>
<!-- Node3 -->
<g id="Node000003" class="node">
<title>Node3</title>
<g id="a_Node000003"><a xlink:title=" ">
<polygon fill="white" stroke="transparent" points="38,-443 0,-443 0,-394 38,-394 38,-443"/>
<text text-anchor="start" x="5" y="-430.5" font-family="Helvetica,sans-Serif" font-size="10.00">string</text>
<text text-anchor="start" x="17" y="-415.5" font-family="Helvetica,sans-Serif" font-size="10.00"> </text>
<text text-anchor="start" x="17" y="-400.5" font-family="Helvetica,sans-Serif" font-size="10.00"> </text>
<polygon fill="#bfbfbf" stroke="#bfbfbf" points="0,-425.5 0,-425.5 38,-425.5 38,-425.5 0,-425.5"/>
<polygon fill="#bfbfbf" stroke="#bfbfbf" points="0,-410.5 0,-410.5 38,-410.5 38,-410.5 0,-410.5"/>
<polygon fill="none" stroke="#bfbfbf" points="0,-394 0,-443 38,-443 38,-394 0,-394"/>
</a>
</g>
</g>
<!-- Node3&#45;&gt;Node2 -->
<g id="edge2_Node000002_Node000003" class="edge">
<title>Node3&#45;&gt;Node2</title>
<g id="a_edge2_Node000002_Node000003"><a xlink:title=" ">
<path fill="none" stroke="#63b8ff" d="M26.66,-393.71C31.73,-380.81 39.4,-365.25 50,-354 64.86,-338.23 83.57,-324.76 102.45,-313.65"/>
<polygon fill="none" stroke="#63b8ff" points="102.48,-313.63 105.73,-307.19 112.92,-307.72 109.67,-314.15 102.48,-313.63"/>
</a>
</g>
<text text-anchor="middle" x="86.5" y="-368" font-family="Helvetica,sans-Serif" font-size="10.00" fill="grey"> #mFilename1</text>
<text text-anchor="middle" x="86.5" y="-357" font-family="Helvetica,sans-Serif" font-size="10.00" fill="grey">#mFilename2</text>
</g>
<!-- Node4 -->
<g id="Node000004" class="node">
<title>Node4</title>
<g id="a_Node000004"><a xlink:title=" ">
<polygon fill="white" stroke="transparent" points="144,-443 84,-443 84,-394 144,-394 144,-443"/>
<text text-anchor="start" x="89" y="-430.5" font-family="Helvetica,sans-Serif" font-size="10.00">ifstream *</text>
<text text-anchor="start" x="112" y="-415.5" font-family="Helvetica,sans-Serif" font-size="10.00"> </text>
<text text-anchor="start" x="112" y="-400.5" font-family="Helvetica,sans-Serif" font-size="10.00"> </text>
<polygon fill="#bfbfbf" stroke="#bfbfbf" points="84,-425.5 84,-425.5 144,-425.5 144,-425.5 84,-425.5"/>
<polygon fill="#bfbfbf" stroke="#bfbfbf" points="84,-410.5 84,-410.5 144,-410.5 144,-410.5 84,-410.5"/>
<polygon fill="none" stroke="#bfbfbf" points="84,-394 84,-443 144,-443 144,-394 84,-394"/>
</a>
</g>
</g>
<!-- Node4&#45;&gt;Node2 -->
<g id="edge3_Node000002_Node000004" class="edge">
<title>Node4&#45;&gt;Node2</title>
<g id="a_edge3_Node000002_Node000004"><a xlink:title=" ">
<path fill="none" stroke="#63b8ff" d="M120.03,-393.93C123.6,-381.69 128.66,-366.67 135,-354 136.21,-351.57 137.5,-349.13 138.83,-346.69"/>
<polygon fill="none" stroke="#63b8ff" points="138.98,-346.43 138.53,-339.24 145,-336.05 145.45,-343.24 138.98,-346.43"/>
</a>
</g>
<text text-anchor="middle" x="160.5" y="-368" font-family="Helvetica,sans-Serif" font-size="10.00" fill="grey"> #mpFile1</text>
<text text-anchor="middle" x="160.5" y="-357" font-family="Helvetica,sans-Serif" font-size="10.00" fill="grey">#mpFile2</text>
</g>
<!-- Node5 -->
<g id="Node000005" class="node">
<title>Node5</title>
<g id="a_Node000005"><a xlink:href="classunsigned.html" target="_top" xlink:title=" ">
<polygon fill="white" stroke="transparent" points="217.5,-443 162.5,-443 162.5,-394 217.5,-394 217.5,-443"/>
<text text-anchor="start" x="168" y="-430.5" font-family="Helvetica,sans-Serif" font-size="10.00">unsigned</text>
<text text-anchor="start" x="188.5" y="-415.5" font-family="Helvetica,sans-Serif" font-size="10.00"> </text>
<text text-anchor="start" x="188.5" y="-400.5" font-family="Helvetica,sans-Serif" font-size="10.00"> </text>
<polygon fill="#bfbfbf" stroke="#bfbfbf" points="163,-425.5 163,-425.5 218,-425.5 218,-425.5 163,-425.5"/>
<polygon fill="#bfbfbf" stroke="#bfbfbf" points="163,-410.5 163,-410.5 218,-410.5 218,-410.5 163,-410.5"/>
<polygon fill="none" stroke="#bfbfbf" points="162.5,-394 162.5,-443 217.5,-443 217.5,-394 162.5,-394"/>
</a>
</g>
</g>
<!-- Node5&#45;&gt;Node2 -->
<g id="edge4_Node000002_Node000005" class="edge">
<title>Node5&#45;&gt;Node2</title>
<g id="a_edge4_Node000002_Node000005"><a xlink:title=" ">
<path fill="none" stroke="#63b8ff" d="M190,-393.97C190,-381.25 190,-364.77 190,-348.15"/>
<polygon fill="none" stroke="#63b8ff" points="190,-348.08 186,-342.08 190,-336.08 194,-342.08 190,-348.08"/>
</a>
</g>
<text text-anchor="middle" x="222.5" y="-362.5" font-family="Helvetica,sans-Serif" font-size="10.00" fill="grey"> #mLineNum</text>
</g>
<!-- Node6 -->
<g id="Node000006" class="node">
<title>Node6</title>
<g id="a_Node000006"><a xlink:href="classbool.html" target="_top" xlink:title=" ">
<polygon fill="white" stroke="transparent" points="356,-443 324,-443 324,-394 356,-394 356,-443"/>
<text text-anchor="start" x="329" y="-430.5" font-family="Helvetica,sans-Serif" font-size="10.00">bool</text>
<text text-anchor="start" x="338" y="-415.5" font-family="Helvetica,sans-Serif" font-size="10.00"> </text>
<text text-anchor="start" x="338" y="-400.5" font-family="Helvetica,sans-Serif" font-size="10.00"> </text>
<polygon fill="#bfbfbf" stroke="#bfbfbf" points="324,-425.5 324,-425.5 356,-425.5 356,-425.5 324,-425.5"/>
<polygon fill="#bfbfbf" stroke="#bfbfbf" points="324,-410.5 324,-410.5 356,-410.5 356,-410.5 324,-410.5"/>
<polygon fill="none" stroke="#bfbfbf" points="324,-394 324,-443 356,-443 356,-394 324,-394"/>
</a>
</g>
</g>
<!-- Node6&#45;&gt;Node1 -->
<g id="edge6_Node000001_Node000006" class="edge">
<title>Node6&#45;&gt;Node1</title>
<g id="a_edge6_Node000001_Node000006"><a xlink:title=" ">
<path fill="none" stroke="#63b8ff" d="M356.34,-408.59C367.7,-401.42 382.01,-390.2 389,-376 406.53,-340.4 408.09,-240.67 406.52,-166.32"/>
<polygon fill="none" stroke="#63b8ff" points="406.51,-166.15 402.37,-160.25 406.23,-154.15 410.37,-160.06 406.51,-166.15"/>
</a>
</g>
<text text-anchor="middle" x="466" y="-277" font-family="Helvetica,sans-Serif" font-size="10.00" fill="grey"> &#45;mIgnoreBlankLines</text>
<text text-anchor="middle" x="466" y="-266" font-family="Helvetica,sans-Serif" font-size="10.00" fill="grey">&#45;mIgnoreCommentLines</text>
</g>
<!-- Node6&#45;&gt;Node2 -->
<g id="edge5_Node000002_Node000006" class="edge">
<title>Node6&#45;&gt;Node2</title>
<g id="a_edge5_Node000002_Node000006"><a xlink:title=" ">
<path fill="none" stroke="#63b8ff" d="M323.92,-408.11C311.14,-400.29 293.12,-388.46 279,-376 268.32,-366.58 257.68,-355.92 247.67,-345.14"/>
<polygon fill="none" stroke="#63b8ff" points="247.5,-344.96 240.51,-343.22 239.42,-336.09 246.42,-337.83 247.5,-344.96"/>
</a>
</g>
<text text-anchor="middle" x="334" y="-368" font-family="Helvetica,sans-Serif" font-size="10.00" fill="grey"> #mCalledCollectively</text>
<text text-anchor="middle" x="334" y="-357" font-family="Helvetica,sans-Serif" font-size="10.00" fill="grey">#mSuppressOutput</text>
</g>
<!-- Node7 -->
<g id="Node000007" class="node">
<title>Node7</title>
<g id="a_Node000007"><a xlink:title=" ">
<polygon fill="white" stroke="transparent" points="652.5,-298.5 539.5,-298.5 539.5,-249.5 652.5,-249.5 652.5,-298.5"/>
<text text-anchor="start" x="545" y="-286" font-family="Helvetica,sans-Serif" font-size="10.00">vector&lt; std::string &gt;</text>
<text text-anchor="start" x="594.5" y="-271" font-family="Helvetica,sans-Serif" font-size="10.00"> </text>
<text text-anchor="start" x="594.5" y="-256" font-family="Helvetica,sans-Serif" font-size="10.00"> </text>
<polygon fill="#bfbfbf" stroke="#bfbfbf" points="540,-281 540,-281 653,-281 653,-281 540,-281"/>
<polygon fill="#bfbfbf" stroke="#bfbfbf" points="540,-266 540,-266 653,-266 653,-266 540,-266"/>
<polygon fill="none" stroke="#bfbfbf" points="539.5,-249.5 539.5,-298.5 652.5,-298.5 652.5,-249.5 539.5,-249.5"/>
</a>
</g>
</g>
<!-- Node7&#45;&gt;Node1 -->
<g id="edge7_Node000001_Node000007" class="edge">
<title>Node7&#45;&gt;Node1</title>
<g id="a_edge7_Node000001_Node000007"><a xlink:title=" ">
<path fill="none" stroke="#63b8ff" d="M572.72,-249.48C551.37,-227.9 518.41,-194.61 487.2,-163.07"/>
<polygon fill="none" stroke="#63b8ff" points="486.9,-162.77 479.83,-161.32 478.46,-154.24 485.52,-155.69 486.9,-162.77"/>
</a>
</g>
<text text-anchor="middle" x="574" y="-186" font-family="Helvetica,sans-Serif" font-size="10.00" fill="grey"> &#45;mCommentLineStarts</text>
<text text-anchor="middle" x="574" y="-175" font-family="Helvetica,sans-Serif" font-size="10.00" fill="grey">&#45;mIgnorableContent</text>
</g>
</g>
</svg>
