<?xml version="1.0" encoding="UTF-8" standalone="no"?>
<!DOCTYPE svg PUBLIC "-//W3C//DTD SVG 1.1//EN"
 "http://www.w3.org/Graphics/SVG/1.1/DTD/svg11.dtd">
<!-- Generated by graphviz version 2.43.0 (0)
 -->
<!-- Title: Hdf5ToTxtConverter&lt; ELEMENT_DIM, SPACE_DIM &gt; Pages: 1 -->
<svg width="1133pt" height="694pt"
 viewBox="0.00 0.00 1132.50 694.00" xmlns="http://www.w3.org/2000/svg" xmlns:xlink="http://www.w3.org/1999/xlink">
<g id="graph0" class="graph" transform="scale(1 1) rotate(0) translate(4 690)">
<title>Hdf5ToTxtConverter&lt; ELEMENT_DIM, SPACE_DIM &gt;</title>
<!-- Node1 -->
<g id="Node000001" class="node">
<title>Node1</title>
<g id="a_Node000001"><a xlink:title=" ">
<polygon fill="#999999" stroke="transparent" points="728.5,-60 563.5,-60 563.5,0 728.5,0 728.5,-60"/>
<text text-anchor="start" x="569" y="-48" font-family="Helvetica,sans-Serif" font-size="10.00">Hdf5ToTxtConverter</text>
<text text-anchor="start" x="569" y="-37" font-family="Helvetica,sans-Serif" font-size="10.00">&lt; ELEMENT_DIM, SPACE_DIM &gt;</text>
<text text-anchor="start" x="644.5" y="-22" font-family="Helvetica,sans-Serif" font-size="10.00"> </text>
<text text-anchor="start" x="577.5" y="-7" font-family="Helvetica,sans-Serif" font-size="10.00">+</text>
<text text-anchor="start" x="600" y="-7" font-family="Helvetica,sans-Serif" font-size="10.00">Hdf5ToTxtConverter()</text>
<polygon fill="#666666" stroke="#666666" points="564,-32 564,-32 729,-32 729,-32 564,-32"/>
<polygon fill="#666666" stroke="#666666" points="564,-17 564,-17 729,-17 729,-17 564,-17"/>
<polygon fill="none" stroke="#666666" points="563.5,0 563.5,-60 728.5,-60 728.5,0 563.5,0"/>
</a>
</g>
</g>
<!-- Node2 -->
<g id="Node000002" class="node">
<title>Node2</title>
<g id="a_Node000002"><a xlink:href="classAbstractHdf5Converter.html" target="_top" xlink:title=" ">
<polygon fill="white" stroke="transparent" points="728.5,-232 563.5,-232 563.5,-97 728.5,-97 728.5,-232"/>
<text text-anchor="start" x="569" y="-219.5" font-family="Helvetica,sans-Serif" font-size="10.00">AbstractHdf5Converter</text>
<text text-anchor="start" x="569" y="-208.5" font-family="Helvetica,sans-Serif" font-size="10.00">&lt; ELEMENT_DIM, SPACE_DIM &gt;</text>
<text text-anchor="start" x="644.5" y="-193.5" font-family="Helvetica,sans-Serif" font-size="10.00"> </text>
<text text-anchor="start" x="572" y="-178.5" font-family="Helvetica,sans-Serif" font-size="10.00">+</text>
<text text-anchor="start" x="589" y="-178.5" font-family="Helvetica,sans-Serif" font-size="10.00">AbstractHdf5Converter()</text>
<text text-anchor="start" x="572" y="-163.5" font-family="Helvetica,sans-Serif" font-size="10.00">+</text>
<text text-anchor="start" x="589" y="-163.5" font-family="Helvetica,sans-Serif" font-size="10.00">WriteInfoFile()</text>
<text text-anchor="start" x="572" y="-148.5" font-family="Helvetica,sans-Serif" font-size="10.00">+</text>
<text text-anchor="start" x="589" y="-148.5" font-family="Helvetica,sans-Serif" font-size="10.00">~AbstractHdf5Converter()</text>
<text text-anchor="start" x="572" y="-133.5" font-family="Helvetica,sans-Serif" font-size="10.00">+</text>
<text text-anchor="start" x="589" y="-133.5" font-family="Helvetica,sans-Serif" font-size="10.00">GetSubdirectory()</text>
<text text-anchor="start" x="572" y="-118.5" font-family="Helvetica,sans-Serif" font-size="10.00">#</text>
<text text-anchor="start" x="589" y="-118.5" font-family="Helvetica,sans-Serif" font-size="10.00">MoveOntoNextDataset()</text>
<text text-anchor="start" x="574.5" y="-103.5" font-family="Helvetica,sans-Serif" font-size="10.00">&#45;</text>
<text text-anchor="start" x="589" y="-103.5" font-family="Helvetica,sans-Serif" font-size="10.00">GenerateListOfDatasets()</text>
<polygon fill="#666666" stroke="#666666" points="564,-203.5 564,-203.5 729,-203.5 729,-203.5 564,-203.5"/>
<polygon fill="#666666" stroke="#666666" points="564,-188.5 564,-188.5 729,-188.5 729,-188.5 564,-188.5"/>
<polygon fill="none" stroke="#666666" points="563.5,-97 563.5,-232 728.5,-232 728.5,-97 563.5,-97"/>
</a>
</g>
</g>
<!-- Node2&#45;&gt;Node1 -->
<g id="edge1_Node000001_Node000002" class="edge">
<title>Node2&#45;&gt;Node1</title>
<g id="a_edge1_Node000001_Node000002"><a xlink:title=" ">
<path fill="none" stroke="#63b8ff" d="M646,-86.63C646,-77.28 646,-68.21 646,-60.21"/>
<polygon fill="none" stroke="#63b8ff" points="642.5,-86.86 646,-96.86 649.5,-86.86 642.5,-86.86"/>
</a>
</g>
</g>
<!-- Node3 -->
<g id="Node000003" class="node">
<title>Node3</title>
<g id="a_Node000003"><a xlink:href="classFileFinder.html" target="_top" xlink:title=" ">
<polygon fill="white" stroke="transparent" points="545,-590 359,-590 359,-301 545,-301 545,-590"/>
<text text-anchor="start" x="428" y="-577.5" font-family="Helvetica,sans-Serif" font-size="10.00">FileFinder</text>
<text text-anchor="start" x="450" y="-562.5" font-family="Helvetica,sans-Serif" font-size="10.00"> </text>
<text text-anchor="start" x="363" y="-547.5" font-family="Helvetica,sans-Serif" font-size="10.00">+</text>
<text text-anchor="start" x="376" y="-547.5" font-family="Helvetica,sans-Serif" font-size="10.00">FileFinder()</text>
<text text-anchor="start" x="363" y="-532.5" font-family="Helvetica,sans-Serif" font-size="10.00">+</text>
<text text-anchor="start" x="376" y="-532.5" font-family="Helvetica,sans-Serif" font-size="10.00">FileFinder()</text>
<text text-anchor="start" x="363" y="-517.5" font-family="Helvetica,sans-Serif" font-size="10.00">+</text>
<text text-anchor="start" x="376" y="-517.5" font-family="Helvetica,sans-Serif" font-size="10.00">FileFinder()</text>
<text text-anchor="start" x="363" y="-502.5" font-family="Helvetica,sans-Serif" font-size="10.00">+</text>
<text text-anchor="start" x="376" y="-502.5" font-family="Helvetica,sans-Serif" font-size="10.00">FileFinder()</text>
<text text-anchor="start" x="363" y="-487.5" font-family="Helvetica,sans-Serif" font-size="10.00">+</text>
<text text-anchor="start" x="376" y="-487.5" font-family="Helvetica,sans-Serif" font-size="10.00">~FileFinder()</text>
<text text-anchor="start" x="363" y="-472.5" font-family="Helvetica,sans-Serif" font-size="10.00">+</text>
<text text-anchor="start" x="376" y="-472.5" font-family="Helvetica,sans-Serif" font-size="10.00">SetPath()</text>
<text text-anchor="start" x="363" y="-457.5" font-family="Helvetica,sans-Serif" font-size="10.00">+</text>
<text text-anchor="start" x="376" y="-457.5" font-family="Helvetica,sans-Serif" font-size="10.00">SetPath()</text>
<text text-anchor="start" x="363" y="-442.5" font-family="Helvetica,sans-Serif" font-size="10.00">+</text>
<text text-anchor="start" x="376" y="-442.5" font-family="Helvetica,sans-Serif" font-size="10.00">IsPathSet()</text>
<text text-anchor="start" x="363" y="-427.5" font-family="Helvetica,sans-Serif" font-size="10.00">+</text>
<text text-anchor="start" x="376" y="-427.5" font-family="Helvetica,sans-Serif" font-size="10.00">Exists()</text>
<text text-anchor="start" x="363" y="-412.5" font-family="Helvetica,sans-Serif" font-size="10.00">+</text>
<text text-anchor="start" x="376" y="-412.5" font-family="Helvetica,sans-Serif" font-size="10.00">IsFile()</text>
<text text-anchor="start" x="376" y="-397.5" font-family="Helvetica,sans-Serif" font-size="10.00">and 14 more...</text>
<text text-anchor="start" x="363" y="-382.5" font-family="Helvetica,sans-Serif" font-size="10.00">+</text>
<text text-anchor="start" x="376" y="-382.5" font-family="Helvetica,sans-Serif" font-size="10.00">IsAbsolutePath()</text>
<text text-anchor="start" x="363" y="-367.5" font-family="Helvetica,sans-Serif" font-size="10.00">+</text>
<text text-anchor="start" x="376" y="-367.5" font-family="Helvetica,sans-Serif" font-size="10.00">ReplaceSpacesWithUnderscores()</text>
<text text-anchor="start" x="363" y="-352.5" font-family="Helvetica,sans-Serif" font-size="10.00">+</text>
<text text-anchor="start" x="376" y="-352.5" font-family="Helvetica,sans-Serif" font-size="10.00">ReplaceUnderscoresWithSpaces()</text>
<text text-anchor="start" x="363" y="-337.5" font-family="Helvetica,sans-Serif" font-size="10.00">+</text>
<text text-anchor="start" x="376" y="-337.5" font-family="Helvetica,sans-Serif" font-size="10.00">FakePath()</text>
<text text-anchor="start" x="363" y="-322.5" font-family="Helvetica,sans-Serif" font-size="10.00">+</text>
<text text-anchor="start" x="376" y="-322.5" font-family="Helvetica,sans-Serif" font-size="10.00">StopFaking()</text>
<text text-anchor="start" x="365.5" y="-307.5" font-family="Helvetica,sans-Serif" font-size="10.00">&#45;</text>
<text text-anchor="start" x="376" y="-307.5" font-family="Helvetica,sans-Serif" font-size="10.00">PrivateRemove()</text>
<polygon fill="#666666" stroke="#666666" points="359,-572.5 359,-572.5 545,-572.5 545,-572.5 359,-572.5"/>
<polygon fill="#666666" stroke="#666666" points="359,-557.5 359,-557.5 545,-557.5 545,-557.5 359,-557.5"/>
<polygon fill="none" stroke="#666666" points="359,-301 359,-590 545,-590 545,-301 359,-301"/>
</a>
</g>
</g>
<!-- Node3&#45;&gt;Node2 -->
<g id="edge2_Node000002_Node000003" class="edge">
<title>Node3&#45;&gt;Node2</title>
<g id="a_edge2_Node000002_Node000003"><a xlink:title=" ">
<path fill="none" stroke="#63b8ff" d="M537.72,-300.99C549.18,-283.54 561.1,-266.17 573,-250 575.05,-247.22 577.16,-244.42 579.33,-241.61"/>
<polygon fill="none" stroke="#63b8ff" points="579.42,-241.49 579.99,-234.3 586.85,-232.06 586.28,-239.25 579.42,-241.49"/>
</a>
</g>
<text text-anchor="middle" x="607.5" y="-264" font-family="Helvetica,sans-Serif" font-size="10.00" fill="grey"> #mrH5Folder</text>
</g>
<!-- Node4 -->
<g id="Node000004" class="node">
<title>Node4</title>
<g id="a_Node000004"><a xlink:title=" ">
<polygon fill="white" stroke="transparent" points="239,-686 201,-686 201,-637 239,-637 239,-686"/>
<text text-anchor="start" x="206" y="-673.5" font-family="Helvetica,sans-Serif" font-size="10.00">string</text>
<text text-anchor="start" x="218" y="-658.5" font-family="Helvetica,sans-Serif" font-size="10.00"> </text>
<text text-anchor="start" x="218" y="-643.5" font-family="Helvetica,sans-Serif" font-size="10.00"> </text>
<polygon fill="#bfbfbf" stroke="#bfbfbf" points="201,-668.5 201,-668.5 239,-668.5 239,-668.5 201,-668.5"/>
<polygon fill="#bfbfbf" stroke="#bfbfbf" points="201,-653.5 201,-653.5 239,-653.5 239,-653.5 201,-653.5"/>
<polygon fill="none" stroke="#bfbfbf" points="201,-637 201,-686 239,-686 239,-637 201,-637"/>
</a>
</g>
</g>
<!-- Node4&#45;&gt;Node2 -->
<g id="edge9_Node000002_Node000004" class="edge">
<title>Node4&#45;&gt;Node2</title>
<g id="a_edge9_Node000002_Node000004"><a xlink:title=" ">
<path fill="none" stroke="#63b8ff" d="M217.2,-636.99C209.23,-565.78 189.43,-354.05 229,-301 303.49,-201.13 453.18,-173.57 551.47,-166.69"/>
<polygon fill="none" stroke="#63b8ff" points="551.52,-166.69 557.25,-162.32 563.49,-165.93 557.76,-170.3 551.52,-166.69"/>
</a>
</g>
<text text-anchor="middle" x="289.5" y="-448.5" font-family="Helvetica,sans-Serif" font-size="10.00" fill="grey"> #mFileBaseName</text>
<text text-anchor="middle" x="289.5" y="-437.5" font-family="Helvetica,sans-Serif" font-size="10.00" fill="grey">#mRelativeSubdirectory</text>
</g>
<!-- Node4&#45;&gt;Node3 -->
<g id="edge3_Node000003_Node000004" class="edge">
<title>Node4&#45;&gt;Node3</title>
<g id="a_edge3_Node000003_Node000004"><a xlink:title=" ">
<path fill="none" stroke="#63b8ff" d="M239.03,-651C269.5,-635.59 327.61,-605.31 345,-590 346.6,-588.59 348.2,-587.15 349.78,-585.68"/>
<polygon fill="none" stroke="#63b8ff" points="350.11,-585.37 351.66,-578.32 358.75,-577.04 357.21,-584.08 350.11,-585.37"/>
</a>
</g>
<text text-anchor="middle" x="345" y="-611" font-family="Helvetica,sans-Serif" font-size="10.00" fill="grey"> &#45;mAbsPath</text>
</g>
<!-- Node12 -->
<g id="Node000012" class="node">
<title>Node12</title>
<g id="a_Node000012"><a xlink:href="classOutputFileHandler.html" target="_top" xlink:title=" ">
<polygon fill="white" stroke="transparent" points="178,-565.5 0,-565.5 0,-325.5 178,-325.5 178,-565.5"/>
<text text-anchor="start" x="44.5" y="-553.5" font-family="Helvetica,sans-Serif" font-size="10.00">OutputFileHandler</text>
<text text-anchor="start" x="87" y="-538.5" font-family="Helvetica,sans-Serif" font-size="10.00"> </text>
<text text-anchor="start" x="4" y="-523.5" font-family="Helvetica,sans-Serif" font-size="10.00">+</text>
<text text-anchor="start" x="17" y="-523.5" font-family="Helvetica,sans-Serif" font-size="10.00">OutputFileHandler()</text>
<text text-anchor="start" x="4" y="-508.5" font-family="Helvetica,sans-Serif" font-size="10.00">+</text>
<text text-anchor="start" x="17" y="-508.5" font-family="Helvetica,sans-Serif" font-size="10.00">OutputFileHandler()</text>
<text text-anchor="start" x="4" y="-493.5" font-family="Helvetica,sans-Serif" font-size="10.00">+</text>
<text text-anchor="start" x="17" y="-493.5" font-family="Helvetica,sans-Serif" font-size="10.00">GetOutputDirectoryFullPath()</text>
<text text-anchor="start" x="4" y="-478.5" font-family="Helvetica,sans-Serif" font-size="10.00">+</text>
<text text-anchor="start" x="17" y="-478.5" font-family="Helvetica,sans-Serif" font-size="10.00">GetRelativePath()</text>
<text text-anchor="start" x="4" y="-463.5" font-family="Helvetica,sans-Serif" font-size="10.00">+</text>
<text text-anchor="start" x="17" y="-463.5" font-family="Helvetica,sans-Serif" font-size="10.00">SetArchiveDirectory()</text>
<text text-anchor="start" x="4" y="-448.5" font-family="Helvetica,sans-Serif" font-size="10.00">+</text>
<text text-anchor="start" x="17" y="-448.5" font-family="Helvetica,sans-Serif" font-size="10.00">OpenOutputFile()</text>
<text text-anchor="start" x="4" y="-433.5" font-family="Helvetica,sans-Serif" font-size="10.00">+</text>
<text text-anchor="start" x="17" y="-433.5" font-family="Helvetica,sans-Serif" font-size="10.00">OpenOutputFile()</text>
<text text-anchor="start" x="4" y="-418.5" font-family="Helvetica,sans-Serif" font-size="10.00">+</text>
<text text-anchor="start" x="17" y="-418.5" font-family="Helvetica,sans-Serif" font-size="10.00">CopyFileTo()</text>
<text text-anchor="start" x="4" y="-403.5" font-family="Helvetica,sans-Serif" font-size="10.00">+</text>
<text text-anchor="start" x="17" y="-403.5" font-family="Helvetica,sans-Serif" font-size="10.00">FindFile()</text>
<text text-anchor="start" x="4" y="-388.5" font-family="Helvetica,sans-Serif" font-size="10.00">+</text>
<text text-anchor="start" x="17" y="-388.5" font-family="Helvetica,sans-Serif" font-size="10.00">GetChasteTestOutputDirectory()</text>
<text text-anchor="start" x="6.5" y="-373.5" font-family="Helvetica,sans-Serif" font-size="10.00">&#45;</text>
<text text-anchor="start" x="17" y="-373.5" font-family="Helvetica,sans-Serif" font-size="10.00">CommonConstructor()</text>
<text text-anchor="start" x="6.5" y="-358.5" font-family="Helvetica,sans-Serif" font-size="10.00">&#45;</text>
<text text-anchor="start" x="17" y="-358.5" font-family="Helvetica,sans-Serif" font-size="10.00">MakeFoldersAndReturnFull</text>
<text text-anchor="start" x="17" y="-347.5" font-family="Helvetica,sans-Serif" font-size="10.00">Path()</text>
<text text-anchor="start" x="6.5" y="-332.5" font-family="Helvetica,sans-Serif" font-size="10.00">&#45;</text>
<text text-anchor="start" x="17" y="-332.5" font-family="Helvetica,sans-Serif" font-size="10.00">AddTrailingSlash()</text>
<polygon fill="#666666" stroke="#666666" points="0,-548.5 0,-548.5 178,-548.5 178,-548.5 0,-548.5"/>
<polygon fill="#666666" stroke="#666666" points="0,-533.5 0,-533.5 178,-533.5 178,-533.5 0,-533.5"/>
<polygon fill="none" stroke="#666666" points="0,-325.5 0,-565.5 178,-565.5 178,-325.5 0,-325.5"/>
</a>
</g>
</g>
<!-- Node4&#45;&gt;Node12 -->
<g id="edge14_Node000012_Node000004" class="edge">
<title>Node4&#45;&gt;Node12</title>
<g id="a_edge14_Node000012_Node000004"><a xlink:title=" ">
<path fill="none" stroke="#63b8ff" d="M200.77,-654.61C183.56,-648.4 158.83,-636.97 144,-619 133.7,-606.51 125.31,-592.07 118.5,-576.96"/>
<polygon fill="none" stroke="#63b8ff" points="118.48,-576.91 112.45,-572.94 113.8,-565.86 119.82,-569.83 118.48,-576.91"/>
</a>
</g>
<text text-anchor="middle" x="175" y="-611" font-family="Helvetica,sans-Serif" font-size="10.00" fill="grey"> &#45;mDirectory</text>
</g>
<!-- Node5 -->
<g id="Node000005" class="node">
<title>Node5</title>
<g id="a_Node000005"><a xlink:href="classbool.html" target="_top" xlink:title=" ">
<polygon fill="white" stroke="transparent" points="468,-686 436,-686 436,-637 468,-637 468,-686"/>
<text text-anchor="start" x="441" y="-673.5" font-family="Helvetica,sans-Serif" font-size="10.00">bool</text>
<text text-anchor="start" x="450" y="-658.5" font-family="Helvetica,sans-Serif" font-size="10.00"> </text>
<text text-anchor="start" x="450" y="-643.5" font-family="Helvetica,sans-Serif" font-size="10.00"> </text>
<polygon fill="#bfbfbf" stroke="#bfbfbf" points="436,-668.5 436,-668.5 468,-668.5 468,-668.5 436,-668.5"/>
<polygon fill="#bfbfbf" stroke="#bfbfbf" points="436,-653.5 436,-653.5 468,-653.5 468,-653.5 436,-653.5"/>
<polygon fill="none" stroke="#bfbfbf" points="436,-637 436,-686 468,-686 468,-637 436,-637"/>
</a>
</g>
</g>
<!-- Node5&#45;&gt;Node3 -->
<g id="edge4_Node000003_Node000005" class="edge">
<title>Node5&#45;&gt;Node3</title>
<g id="a_edge4_Node000003_Node000005"><a xlink:title=" ">
<path fill="none" stroke="#63b8ff" d="M452,-636.78C452,-627.28 452,-615.49 452,-602.47"/>
<polygon fill="none" stroke="#63b8ff" points="452,-602.19 448,-596.19 452,-590.19 456,-596.19 452,-602.19"/>
</a>
</g>
<text text-anchor="middle" x="479" y="-611" font-family="Helvetica,sans-Serif" font-size="10.00" fill="grey"> &#45;msFaking</text>
</g>
<!-- Node6 -->
<g id="Node000006" class="node">
<title>Node6</title>
<g id="a_Node000006"><a xlink:title=" ">
<polygon fill="white" stroke="transparent" points="548,-686 510,-686 510,-637 548,-637 548,-686"/>
<text text-anchor="start" x="515" y="-673.5" font-family="Helvetica,sans-Serif" font-size="10.00">Value</text>
<text text-anchor="start" x="527" y="-658.5" font-family="Helvetica,sans-Serif" font-size="10.00"> </text>
<text text-anchor="start" x="527" y="-643.5" font-family="Helvetica,sans-Serif" font-size="10.00"> </text>
<polygon fill="#bfbfbf" stroke="#bfbfbf" points="510,-668.5 510,-668.5 548,-668.5 548,-668.5 510,-668.5"/>
<polygon fill="#bfbfbf" stroke="#bfbfbf" points="510,-653.5 510,-653.5 548,-653.5 548,-653.5 510,-653.5"/>
<polygon fill="none" stroke="#bfbfbf" points="510,-637 510,-686 548,-686 548,-637 510,-637"/>
</a>
</g>
</g>
<!-- Node6&#45;&gt;Node3 -->
<g id="edge5_Node000003_Node000006" class="edge">
<title>Node6&#45;&gt;Node3</title>
<g id="a_edge5_Node000003_Node000006"><a xlink:title=" ">
<path fill="none" stroke="#63b8ff" d="M520.47,-636.78C516.98,-627.09 512.63,-615.01 507.83,-601.67"/>
<polygon fill="none" stroke="#63b8ff" points="507.77,-601.48 501.97,-597.19 503.7,-590.19 509.5,-594.48 507.77,-601.48"/>
</a>
</g>
<text text-anchor="middle" x="547" y="-611" font-family="Helvetica,sans-Serif" font-size="10.00" fill="grey"> &#45;msFakeWhat</text>
</g>
<!-- Node7 -->
<g id="Node000007" class="node">
<title>Node7</title>
<g id="a_Node000007"><a xlink:title=" ">
<polygon fill="white" stroke="transparent" points="383,-686 345,-686 345,-637 383,-637 383,-686"/>
<text text-anchor="start" x="350" y="-673.5" font-family="Helvetica,sans-Serif" font-size="10.00">string</text>
<text text-anchor="start" x="362" y="-658.5" font-family="Helvetica,sans-Serif" font-size="10.00"> </text>
<text text-anchor="start" x="362" y="-643.5" font-family="Helvetica,sans-Serif" font-size="10.00"> </text>
<polygon fill="#bfbfbf" stroke="#bfbfbf" points="345,-668.5 345,-668.5 383,-668.5 383,-668.5 345,-668.5"/>
<polygon fill="#bfbfbf" stroke="#bfbfbf" points="345,-653.5 345,-653.5 383,-653.5 383,-653.5 345,-653.5"/>
<polygon fill="none" stroke="#bfbfbf" points="345,-637 345,-686 383,-686 383,-637 345,-637"/>
</a>
</g>
</g>
<!-- Node7&#45;&gt;Node3 -->
<g id="edge6_Node000003_Node000007" class="edge">
<title>Node7&#45;&gt;Node3</title>
<g id="a_edge6_Node000003_Node000007"><a xlink:title=" ">
<path fill="none" stroke="#63b8ff" d="M372.23,-636.87C375.47,-627.8 379.3,-617.38 383,-608 383.82,-605.91 384.66,-603.81 385.5,-601.69"/>
<polygon fill="none" stroke="#63b8ff" points="385.6,-601.43 384.13,-594.37 390.08,-590.3 391.55,-597.35 385.6,-601.43"/>
</a>
</g>
<text text-anchor="middle" x="415.5" y="-611" font-family="Helvetica,sans-Serif" font-size="10.00" fill="grey"> &#45;msFakePath</text>
</g>
<!-- Node8 -->
<g id="Node000008" class="node">
<title>Node8</title>
<g id="a_Node000008"><a xlink:title=" ">
<polygon fill="white" stroke="transparent" points="729,-470 563,-470 563,-421 729,-421 729,-470"/>
<text text-anchor="start" x="568" y="-457.5" font-family="Helvetica,sans-Serif" font-size="10.00">shared_ptr&lt; Hdf5DataReader &gt;</text>
<text text-anchor="start" x="644" y="-442.5" font-family="Helvetica,sans-Serif" font-size="10.00"> </text>
<text text-anchor="start" x="644" y="-427.5" font-family="Helvetica,sans-Serif" font-size="10.00"> </text>
<polygon fill="#bfbfbf" stroke="#bfbfbf" points="563,-452.5 563,-452.5 729,-452.5 729,-452.5 563,-452.5"/>
<polygon fill="#bfbfbf" stroke="#bfbfbf" points="563,-437.5 563,-437.5 729,-437.5 729,-437.5 563,-437.5"/>
<polygon fill="none" stroke="#bfbfbf" points="563,-421 563,-470 729,-470 729,-421 563,-421"/>
</a>
</g>
</g>
<!-- Node8&#45;&gt;Node2 -->
<g id="edge7_Node000002_Node000008" class="edge">
<title>Node8&#45;&gt;Node2</title>
<g id="a_edge7_Node000002_Node000008"><a xlink:title=" ">
<path fill="none" stroke="#63b8ff" d="M646,-420.71C646,-382.06 646,-303.95 646,-244.26"/>
<polygon fill="none" stroke="#63b8ff" points="646,-244.21 642,-238.21 646,-232.21 650,-238.21 646,-244.21"/>
</a>
</g>
<text text-anchor="middle" x="677" y="-264" font-family="Helvetica,sans-Serif" font-size="10.00" fill="grey"> #mpReader</text>
</g>
<!-- Node9 -->
<g id="Node000009" class="node">
<title>Node9</title>
<g id="a_Node000009"><a xlink:href="classunsigned.html" target="_top" xlink:title=" ">
<polygon fill="white" stroke="transparent" points="802.5,-470 747.5,-470 747.5,-421 802.5,-421 802.5,-470"/>
<text text-anchor="start" x="753" y="-457.5" font-family="Helvetica,sans-Serif" font-size="10.00">unsigned</text>
<text text-anchor="start" x="773.5" y="-442.5" font-family="Helvetica,sans-Serif" font-size="10.00"> </text>
<text text-anchor="start" x="773.5" y="-427.5" font-family="Helvetica,sans-Serif" font-size="10.00"> </text>
<polygon fill="#bfbfbf" stroke="#bfbfbf" points="748,-452.5 748,-452.5 803,-452.5 803,-452.5 748,-452.5"/>
<polygon fill="#bfbfbf" stroke="#bfbfbf" points="748,-437.5 748,-437.5 803,-437.5 803,-437.5 748,-437.5"/>
<polygon fill="none" stroke="#bfbfbf" points="747.5,-421 747.5,-470 802.5,-470 802.5,-421 747.5,-421"/>
</a>
</g>
</g>
<!-- Node9&#45;&gt;Node2 -->
<g id="edge8_Node000002_Node000009" class="edge">
<title>Node9&#45;&gt;Node2</title>
<g id="a_edge8_Node000002_Node000009"><a xlink:title=" ">
<path fill="none" stroke="#63b8ff" d="M770.57,-420.9C764.79,-392.06 753.53,-342.02 738,-301 728.99,-277.21 725.67,-271.46 712,-250 710.38,-247.46 708.7,-244.9 706.98,-242.34"/>
<polygon fill="none" stroke="#63b8ff" points="706.97,-242.33 700.27,-239.67 700.14,-232.46 706.84,-235.12 706.97,-242.33"/>
</a>
</g>
<text text-anchor="middle" x="784.5" y="-275" font-family="Helvetica,sans-Serif" font-size="10.00" fill="grey"> #mNumVariables</text>
<text text-anchor="middle" x="784.5" y="-264" font-family="Helvetica,sans-Serif" font-size="10.00" fill="grey">#mOpenDatasetIndex</text>
<text text-anchor="middle" x="784.5" y="-253" font-family="Helvetica,sans-Serif" font-size="10.00" fill="grey">#mPrecision</text>
</g>
<!-- Node10 -->
<g id="Node000010" class="node">
<title>Node10</title>
<g id="a_Node000010"><a xlink:title=" ">
<polygon fill="white" stroke="transparent" points="933.5,-470 820.5,-470 820.5,-421 933.5,-421 933.5,-470"/>
<text text-anchor="start" x="826" y="-457.5" font-family="Helvetica,sans-Serif" font-size="10.00">vector&lt; std::string &gt;</text>
<text text-anchor="start" x="875.5" y="-442.5" font-family="Helvetica,sans-Serif" font-size="10.00"> </text>
<text text-anchor="start" x="875.5" y="-427.5" font-family="Helvetica,sans-Serif" font-size="10.00"> </text>
<polygon fill="#bfbfbf" stroke="#bfbfbf" points="821,-452.5 821,-452.5 934,-452.5 934,-452.5 821,-452.5"/>
<polygon fill="#bfbfbf" stroke="#bfbfbf" points="821,-437.5 821,-437.5 934,-437.5 934,-437.5 821,-437.5"/>
<polygon fill="none" stroke="#bfbfbf" points="820.5,-421 820.5,-470 933.5,-470 933.5,-421 820.5,-421"/>
</a>
</g>
</g>
<!-- Node10&#45;&gt;Node2 -->
<g id="edge10_Node000002_Node000010" class="edge">
<title>Node10&#45;&gt;Node2</title>
<g id="a_edge10_Node000002_Node000010"><a xlink:title=" ">
<path fill="none" stroke="#63b8ff" d="M879.59,-420.68C882.58,-380.88 882.77,-300.27 843,-250 817.58,-217.86 777.58,-197.74 740.25,-185.24"/>
<polygon fill="none" stroke="#63b8ff" points="740.2,-185.23 733.27,-187.23 728.76,-181.6 735.69,-179.6 740.2,-185.23"/>
</a>
</g>
<text text-anchor="middle" x="908" y="-264" font-family="Helvetica,sans-Serif" font-size="10.00" fill="grey"> #mDatasetNames</text>
</g>
<!-- Node11 -->
<g id="Node000011" class="node">
<title>Node11</title>
<g id="a_Node000011"><a xlink:title=" ">
<polygon fill="white" stroke="transparent" points="1124.5,-475.5 951.5,-475.5 951.5,-415.5 1124.5,-415.5 1124.5,-475.5"/>
<text text-anchor="start" x="957" y="-463.5" font-family="Helvetica,sans-Serif" font-size="10.00">AbstractTetrahedralMesh</text>
<text text-anchor="start" x="957" y="-452.5" font-family="Helvetica,sans-Serif" font-size="10.00">&lt; ELEMENT_DIM, SPACE_DIM &gt; *</text>
<text text-anchor="start" x="1036.5" y="-437.5" font-family="Helvetica,sans-Serif" font-size="10.00"> </text>
<text text-anchor="start" x="1036.5" y="-422.5" font-family="Helvetica,sans-Serif" font-size="10.00"> </text>
<polygon fill="#bfbfbf" stroke="#bfbfbf" points="952,-447.5 952,-447.5 1125,-447.5 1125,-447.5 952,-447.5"/>
<polygon fill="#bfbfbf" stroke="#bfbfbf" points="952,-432.5 952,-432.5 1125,-432.5 1125,-432.5 952,-432.5"/>
<polygon fill="none" stroke="#bfbfbf" points="951.5,-415.5 951.5,-475.5 1124.5,-475.5 1124.5,-415.5 951.5,-415.5"/>
</a>
</g>
</g>
<!-- Node11&#45;&gt;Node2 -->
<g id="edge11_Node000002_Node000011" class="edge">
<title>Node11&#45;&gt;Node2</title>
<g id="a_edge11_Node000002_Node000011"><a xlink:title=" ">
<path fill="none" stroke="#63b8ff" d="M1034.35,-415.46C1027.44,-372.84 1008.41,-293.71 959,-250 898.95,-196.87 808.82,-176.71 740.67,-169.27"/>
<polygon fill="none" stroke="#63b8ff" points="740.59,-169.26 734.22,-172.64 728.65,-168.06 735.02,-164.68 740.59,-169.26"/>
</a>
</g>
<text text-anchor="middle" x="1011" y="-264" font-family="Helvetica,sans-Serif" font-size="10.00" fill="grey"> #mpMesh</text>
</g>
<!-- Node12&#45;&gt;Node2 -->
<g id="edge12_Node000002_Node000012" class="edge">
<title>Node12&#45;&gt;Node2</title>
<g id="a_edge12_Node000002_Node000012"><a xlink:title=" ">
<path fill="none" stroke="#63b8ff" d="M64.69,-325.36C65.41,-297.94 72.06,-270.76 90,-250 148.5,-182.29 408.23,-168.22 551.06,-165.69"/>
<polygon fill="none" stroke="#63b8ff" points="551.25,-165.69 557.18,-161.59 563.25,-165.5 557.31,-169.59 551.25,-165.69"/>
</a>
</g>
<text text-anchor="middle" x="148" y="-264" font-family="Helvetica,sans-Serif" font-size="10.00" fill="grey"> #mpOutputFileHandler</text>
</g>
<!-- Node13 -->
<g id="Node000013" class="node">
<title>Node13</title>
<g id="a_Node000013"><a xlink:title=" ">
<polygon fill="white" stroke="transparent" points="51,-686 13,-686 13,-637 51,-637 51,-686"/>
<text text-anchor="start" x="18" y="-673.5" font-family="Helvetica,sans-Serif" font-size="10.00">string</text>
<text text-anchor="start" x="30" y="-658.5" font-family="Helvetica,sans-Serif" font-size="10.00"> </text>
<text text-anchor="start" x="30" y="-643.5" font-family="Helvetica,sans-Serif" font-size="10.00"> </text>
<polygon fill="#bfbfbf" stroke="#bfbfbf" points="13,-668.5 13,-668.5 51,-668.5 51,-668.5 13,-668.5"/>
<polygon fill="#bfbfbf" stroke="#bfbfbf" points="13,-653.5 13,-653.5 51,-653.5 51,-653.5 13,-653.5"/>
<polygon fill="none" stroke="#bfbfbf" points="13,-637 13,-686 51,-686 51,-637 13,-637"/>
</a>
</g>
</g>
<!-- Node13&#45;&gt;Node12 -->
<g id="edge13_Node000012_Node000013" class="edge">
<title>Node13&#45;&gt;Node12</title>
<g id="a_edge13_Node000012_Node000013"><a xlink:title=" ">
<path fill="none" stroke="#63b8ff" d="M30.88,-636.83C30.86,-627.75 31.34,-617.33 33,-608 34.8,-597.92 37.13,-587.62 39.82,-577.34"/>
<polygon fill="none" stroke="#63b8ff" points="39.82,-577.34 37.55,-570.5 42.99,-565.77 45.26,-572.61 39.82,-577.34"/>
</a>
</g>
<text text-anchor="middle" x="77" y="-611" font-family="Helvetica,sans-Serif" font-size="10.00" fill="grey"> +SIG_FILE_NAME</text>
</g>
</g>
</svg>
