<?xml version="1.0" encoding="UTF-8" standalone="no"?>
<!DOCTYPE svg PUBLIC "-//W3C//DTD SVG 1.1//EN"
 "http://www.w3.org/Graphics/SVG/1.1/DTD/svg11.dtd">
<!-- Generated by graphviz version 2.43.0 (0)
 -->
<!-- Title: NodeMap Pages: 1 -->
<svg width="199pt" height="273pt"
 viewBox="0.00 0.00 199.00 273.00" xmlns="http://www.w3.org/2000/svg" xmlns:xlink="http://www.w3.org/1999/xlink">
<g id="graph0" class="graph" transform="scale(1 1) rotate(0) translate(4 269)">
<title>NodeMap</title>
<!-- Node1 -->
<g id="Node000001" class="node">
<title>Node1</title>
<g id="a_Node000001"><a xlink:title=" ">
<polygon fill="#999999" stroke="transparent" points="150.5,-169 45.5,-169 45.5,0 150.5,0 150.5,-169"/>
<text text-anchor="start" x="75" y="-156.5" font-family="Helvetica,sans-Serif" font-size="10.00">NodeMap</text>
<text text-anchor="start" x="96.5" y="-141.5" font-family="Helvetica,sans-Serif" font-size="10.00"> </text>
<text text-anchor="start" x="50" y="-126.5" font-family="Helvetica,sans-Serif" font-size="10.00">+</text>
<text text-anchor="start" x="63" y="-126.5" font-family="Helvetica,sans-Serif" font-size="10.00">NodeMap()</text>
<text text-anchor="start" x="50" y="-111.5" font-family="Helvetica,sans-Serif" font-size="10.00">+</text>
<text text-anchor="start" x="63" y="-111.5" font-family="Helvetica,sans-Serif" font-size="10.00">Resize()</text>
<text text-anchor="start" x="50" y="-96.5" font-family="Helvetica,sans-Serif" font-size="10.00">+</text>
<text text-anchor="start" x="63" y="-96.5" font-family="Helvetica,sans-Serif" font-size="10.00">ResetToIdentity()</text>
<text text-anchor="start" x="50" y="-81.5" font-family="Helvetica,sans-Serif" font-size="10.00">+</text>
<text text-anchor="start" x="63" y="-81.5" font-family="Helvetica,sans-Serif" font-size="10.00">SetNewIndex()</text>
<text text-anchor="start" x="50" y="-66.5" font-family="Helvetica,sans-Serif" font-size="10.00">+</text>
<text text-anchor="start" x="63" y="-66.5" font-family="Helvetica,sans-Serif" font-size="10.00">SetDeleted()</text>
<text text-anchor="start" x="50" y="-51.5" font-family="Helvetica,sans-Serif" font-size="10.00">+</text>
<text text-anchor="start" x="63" y="-51.5" font-family="Helvetica,sans-Serif" font-size="10.00">IsDeleted()</text>
<text text-anchor="start" x="50" y="-36.5" font-family="Helvetica,sans-Serif" font-size="10.00">+</text>
<text text-anchor="start" x="63" y="-36.5" font-family="Helvetica,sans-Serif" font-size="10.00">GetNewIndex()</text>
<text text-anchor="start" x="50" y="-21.5" font-family="Helvetica,sans-Serif" font-size="10.00">+</text>
<text text-anchor="start" x="63" y="-21.5" font-family="Helvetica,sans-Serif" font-size="10.00">IsIdentityMap()</text>
<text text-anchor="start" x="50" y="-6.5" font-family="Helvetica,sans-Serif" font-size="10.00">+</text>
<text text-anchor="start" x="63" y="-6.5" font-family="Helvetica,sans-Serif" font-size="10.00">GetSize()</text>
<polygon fill="#666666" stroke="#666666" points="46,-151.5 46,-151.5 151,-151.5 151,-151.5 46,-151.5"/>
<polygon fill="#666666" stroke="#666666" points="46,-136.5 46,-136.5 151,-136.5 151,-136.5 46,-136.5"/>
<polygon fill="none" stroke="#666666" points="45.5,0 45.5,-169 150.5,-169 150.5,0 45.5,0"/>
</a>
</g>
</g>
<!-- Node2 -->
<g id="Node000002" class="node">
<title>Node2</title>
<g id="a_Node000002"><a xlink:title=" ">
<polygon fill="white" stroke="transparent" points="108,-265 0,-265 0,-216 108,-216 108,-265"/>
<text text-anchor="start" x="5" y="-252.5" font-family="Helvetica,sans-Serif" font-size="10.00">vector&lt; unsigned &gt;</text>
<text text-anchor="start" x="52" y="-237.5" font-family="Helvetica,sans-Serif" font-size="10.00"> </text>
<text text-anchor="start" x="52" y="-222.5" font-family="Helvetica,sans-Serif" font-size="10.00"> </text>
<polygon fill="#bfbfbf" stroke="#bfbfbf" points="0,-247.5 0,-247.5 108,-247.5 108,-247.5 0,-247.5"/>
<polygon fill="#bfbfbf" stroke="#bfbfbf" points="0,-232.5 0,-232.5 108,-232.5 108,-232.5 0,-232.5"/>
<polygon fill="none" stroke="#bfbfbf" points="0,-216 0,-265 108,-265 108,-216 0,-216"/>
</a>
</g>
</g>
<!-- Node2&#45;&gt;Node1 -->
<g id="edge1_Node000001_Node000002" class="edge">
<title>Node2&#45;&gt;Node1</title>
<g id="a_edge1_Node000001_Node000002"><a xlink:title=" ">
<path fill="none" stroke="#63b8ff" d="M60.78,-215.77C63.58,-205.96 67.04,-193.87 70.7,-181.06"/>
<polygon fill="none" stroke="#63b8ff" points="70.81,-180.66 68.61,-173.8 74.11,-169.13 76.3,-175.99 70.81,-180.66"/>
</a>
</g>
<text text-anchor="middle" x="88" y="-190" font-family="Helvetica,sans-Serif" font-size="10.00" fill="grey"> &#45;mMap</text>
</g>
<!-- Node3 -->
<g id="Node000003" class="node">
<title>Node3</title>
<g id="a_Node000003"><a xlink:href="classbool.html" target="_top" xlink:title=" ">
<polygon fill="white" stroke="transparent" points="158,-265 126,-265 126,-216 158,-216 158,-265"/>
<text text-anchor="start" x="131" y="-252.5" font-family="Helvetica,sans-Serif" font-size="10.00">bool</text>
<text text-anchor="start" x="140" y="-237.5" font-family="Helvetica,sans-Serif" font-size="10.00"> </text>
<text text-anchor="start" x="140" y="-222.5" font-family="Helvetica,sans-Serif" font-size="10.00"> </text>
<polygon fill="#bfbfbf" stroke="#bfbfbf" points="126,-247.5 126,-247.5 158,-247.5 158,-247.5 126,-247.5"/>
<polygon fill="#bfbfbf" stroke="#bfbfbf" points="126,-232.5 126,-232.5 158,-232.5 158,-232.5 126,-232.5"/>
<polygon fill="none" stroke="#bfbfbf" points="126,-216 126,-265 158,-265 158,-216 126,-216"/>
</a>
</g>
</g>
<!-- Node3&#45;&gt;Node1 -->
<g id="edge2_Node000001_Node000003" class="edge">
<title>Node3&#45;&gt;Node1</title>
<g id="a_edge2_Node000001_Node000003"><a xlink:title=" ">
<path fill="none" stroke="#63b8ff" d="M135.22,-215.77C132.42,-205.96 128.96,-193.87 125.3,-181.06"/>
<polygon fill="none" stroke="#63b8ff" points="125.19,-180.66 119.7,-175.99 121.89,-169.13 127.39,-173.8 125.19,-180.66"/>
</a>
</g>
<text text-anchor="middle" x="159.5" y="-190" font-family="Helvetica,sans-Serif" font-size="10.00" fill="grey"> &#45;mIsIdentity</text>
</g>
</g>
</svg>
