<?xml version="1.0" encoding="UTF-8" standalone="no"?>
<!DOCTYPE svg PUBLIC "-//W3C//DTD SVG 1.1//EN"
 "http://www.w3.org/Graphics/SVG/1.1/DTD/svg11.dtd">
<!-- Generated by graphviz version 2.43.0 (0)
 -->
<!-- Title: Mirams2010WntOdeSystem Pages: 1 -->
<svg width="600pt" height="1516pt"
 viewBox="0.00 0.00 599.50 1516.00" xmlns="http://www.w3.org/2000/svg" xmlns:xlink="http://www.w3.org/1999/xlink">
<g id="graph0" class="graph" transform="scale(1 1) rotate(0) translate(4 1512)">
<title>Mirams2010WntOdeSystem</title>
<!-- Node1 -->
<g id="Node000001" class="node">
<title>Node1</title>
<g id="a_Node000001"><a xlink:title=" ">
<polygon fill="#999999" stroke="transparent" points="497.5,-154 323.5,-154 323.5,0 497.5,0 497.5,-154"/>
<text text-anchor="start" x="342" y="-142" font-family="Helvetica,sans-Serif" font-size="10.00">Mirams2010WntOdeSystem</text>
<text text-anchor="start" x="408.5" y="-127" font-family="Helvetica,sans-Serif" font-size="10.00"> </text>
<text text-anchor="start" x="327.5" y="-112" font-family="Helvetica,sans-Serif" font-size="10.00">+</text>
<text text-anchor="start" x="340.5" y="-112" font-family="Helvetica,sans-Serif" font-size="10.00">Mirams2010WntOdeSystem()</text>
<text text-anchor="start" x="327.5" y="-97" font-family="Helvetica,sans-Serif" font-size="10.00">+</text>
<text text-anchor="start" x="340.5" y="-97" font-family="Helvetica,sans-Serif" font-size="10.00">~Mirams2010WntOdeSystem()</text>
<text text-anchor="start" x="327.5" y="-82" font-family="Helvetica,sans-Serif" font-size="10.00">+</text>
<text text-anchor="start" x="340.5" y="-82" font-family="Helvetica,sans-Serif" font-size="10.00">Init()</text>
<text text-anchor="start" x="327.5" y="-67" font-family="Helvetica,sans-Serif" font-size="10.00">+</text>
<text text-anchor="start" x="340.5" y="-67" font-family="Helvetica,sans-Serif" font-size="10.00">SetMutationState()</text>
<text text-anchor="start" x="327.5" y="-52" font-family="Helvetica,sans-Serif" font-size="10.00">+</text>
<text text-anchor="start" x="340.5" y="-52" font-family="Helvetica,sans-Serif" font-size="10.00">GetMutationState()</text>
<text text-anchor="start" x="327.5" y="-37" font-family="Helvetica,sans-Serif" font-size="10.00">+</text>
<text text-anchor="start" x="340.5" y="-37" font-family="Helvetica,sans-Serif" font-size="10.00">EvaluateYDerivatives()</text>
<text text-anchor="start" x="327.5" y="-22" font-family="Helvetica,sans-Serif" font-size="10.00">+</text>
<text text-anchor="start" x="340.5" y="-22" font-family="Helvetica,sans-Serif" font-size="10.00">GetWntLevel()</text>
<text text-anchor="start" x="330" y="-7" font-family="Helvetica,sans-Serif" font-size="10.00">&#45;</text>
<text text-anchor="start" x="340.5" y="-7" font-family="Helvetica,sans-Serif" font-size="10.00">serialize()</text>
<polygon fill="#666666" stroke="#666666" points="323.5,-137 323.5,-137 497.5,-137 497.5,-137 323.5,-137"/>
<polygon fill="#666666" stroke="#666666" points="323.5,-122 323.5,-122 497.5,-122 497.5,-122 323.5,-122"/>
<polygon fill="none" stroke="#666666" points="323.5,0 323.5,-154 497.5,-154 497.5,0 323.5,0"/>
</a>
</g>
</g>
<!-- Node2 -->
<g id="Node000002" class="node">
<title>Node2</title>
<g id="a_Node000002"><a xlink:href="classAbstractOdeSystem.html" target="_top" xlink:title=" ">
<polygon fill="white" stroke="transparent" points="370.5,-436 222.5,-436 222.5,-267 370.5,-267 370.5,-436"/>
<text text-anchor="start" x="248" y="-423.5" font-family="Helvetica,sans-Serif" font-size="10.00">AbstractOdeSystem</text>
<text text-anchor="start" x="294.5" y="-408.5" font-family="Helvetica,sans-Serif" font-size="10.00"> </text>
<text text-anchor="start" x="226.5" y="-393.5" font-family="Helvetica,sans-Serif" font-size="10.00">+</text>
<text text-anchor="start" x="239.5" y="-393.5" font-family="Helvetica,sans-Serif" font-size="10.00">AbstractOdeSystem()</text>
<text text-anchor="start" x="226.5" y="-378.5" font-family="Helvetica,sans-Serif" font-size="10.00">+</text>
<text text-anchor="start" x="239.5" y="-378.5" font-family="Helvetica,sans-Serif" font-size="10.00">~AbstractOdeSystem()</text>
<text text-anchor="start" x="226.5" y="-363.5" font-family="Helvetica,sans-Serif" font-size="10.00">+</text>
<text text-anchor="start" x="239.5" y="-363.5" font-family="Helvetica,sans-Serif" font-size="10.00">EvaluateYDerivatives()</text>
<text text-anchor="start" x="226.5" y="-348.5" font-family="Helvetica,sans-Serif" font-size="10.00">+</text>
<text text-anchor="start" x="239.5" y="-348.5" font-family="Helvetica,sans-Serif" font-size="10.00">CalculateStoppingEvent()</text>
<text text-anchor="start" x="226.5" y="-333.5" font-family="Helvetica,sans-Serif" font-size="10.00">+</text>
<text text-anchor="start" x="239.5" y="-333.5" font-family="Helvetica,sans-Serif" font-size="10.00">CalculateRootFunction()</text>
<text text-anchor="start" x="226.5" y="-318.5" font-family="Helvetica,sans-Serif" font-size="10.00">+</text>
<text text-anchor="start" x="239.5" y="-318.5" font-family="Helvetica,sans-Serif" font-size="10.00">GetUseAnalyticJacobian()</text>
<text text-anchor="start" x="226.5" y="-303.5" font-family="Helvetica,sans-Serif" font-size="10.00">+</text>
<text text-anchor="start" x="239.5" y="-303.5" font-family="Helvetica,sans-Serif" font-size="10.00">rGetConstStateVariables()</text>
<text text-anchor="start" x="229" y="-288.5" font-family="Helvetica,sans-Serif" font-size="10.00">&#45;</text>
<text text-anchor="start" x="239.5" y="-288.5" font-family="Helvetica,sans-Serif" font-size="10.00">save()</text>
<text text-anchor="start" x="229" y="-273.5" font-family="Helvetica,sans-Serif" font-size="10.00">&#45;</text>
<text text-anchor="start" x="239.5" y="-273.5" font-family="Helvetica,sans-Serif" font-size="10.00">load()</text>
<polygon fill="#666666" stroke="#666666" points="222.5,-418.5 222.5,-418.5 370.5,-418.5 370.5,-418.5 222.5,-418.5"/>
<polygon fill="#666666" stroke="#666666" points="222.5,-403.5 222.5,-403.5 370.5,-403.5 370.5,-403.5 222.5,-403.5"/>
<polygon fill="none" stroke="#666666" points="222.5,-267 222.5,-436 370.5,-436 370.5,-267 222.5,-267"/>
</a>
</g>
</g>
<!-- Node2&#45;&gt;Node1 -->
<g id="edge1_Node000001_Node000002" class="edge">
<title>Node2&#45;&gt;Node1</title>
<g id="a_edge1_Node000001_Node000002"><a xlink:title=" ">
<path fill="none" stroke="#63b8ff" d="M335.41,-257.49C349.52,-223.78 365.27,-186.12 378.69,-154.04"/>
<polygon fill="none" stroke="#63b8ff" points="332.11,-256.31 331.48,-266.89 338.57,-259.01 332.11,-256.31"/>
</a>
</g>
</g>
<!-- Node3 -->
<g id="Node000003" class="node">
<title>Node3</title>
<g id="a_Node000003"><a xlink:href="classAbstractParameterisedSystem.html" target="_top" xlink:title=" ">
<polygon fill="white" stroke="transparent" points="324,-768 147,-768 147,-483 324,-483 324,-768"/>
<text text-anchor="start" x="162" y="-755.5" font-family="Helvetica,sans-Serif" font-size="10.00">AbstractParameterisedSystem</text>
<text text-anchor="start" x="171" y="-744.5" font-family="Helvetica,sans-Serif" font-size="10.00">&lt; std::vector&lt; double &gt; &gt;</text>
<text text-anchor="start" x="234" y="-729.5" font-family="Helvetica,sans-Serif" font-size="10.00"> </text>
<text text-anchor="start" x="151.5" y="-714.5" font-family="Helvetica,sans-Serif" font-size="10.00">+</text>
<text text-anchor="start" x="164.5" y="-714.5" font-family="Helvetica,sans-Serif" font-size="10.00">AbstractParameterisedSystem()</text>
<text text-anchor="start" x="151.5" y="-699.5" font-family="Helvetica,sans-Serif" font-size="10.00">+</text>
<text text-anchor="start" x="164.5" y="-699.5" font-family="Helvetica,sans-Serif" font-size="10.00">rGetStateVariables()</text>
<text text-anchor="start" x="151.5" y="-684.5" font-family="Helvetica,sans-Serif" font-size="10.00">+</text>
<text text-anchor="start" x="164.5" y="-684.5" font-family="Helvetica,sans-Serif" font-size="10.00">GetStateVariables()</text>
<text text-anchor="start" x="151.5" y="-669.5" font-family="Helvetica,sans-Serif" font-size="10.00">+</text>
<text text-anchor="start" x="164.5" y="-669.5" font-family="Helvetica,sans-Serif" font-size="10.00">SetStateVariables()</text>
<text text-anchor="start" x="151.5" y="-654.5" font-family="Helvetica,sans-Serif" font-size="10.00">+</text>
<text text-anchor="start" x="164.5" y="-654.5" font-family="Helvetica,sans-Serif" font-size="10.00">GetStateVariable()</text>
<text text-anchor="start" x="151.5" y="-639.5" font-family="Helvetica,sans-Serif" font-size="10.00">+</text>
<text text-anchor="start" x="164.5" y="-639.5" font-family="Helvetica,sans-Serif" font-size="10.00">GetStateVariable()</text>
<text text-anchor="start" x="151.5" y="-624.5" font-family="Helvetica,sans-Serif" font-size="10.00">+</text>
<text text-anchor="start" x="164.5" y="-624.5" font-family="Helvetica,sans-Serif" font-size="10.00">SetStateVariable()</text>
<text text-anchor="start" x="151.5" y="-609.5" font-family="Helvetica,sans-Serif" font-size="10.00">+</text>
<text text-anchor="start" x="164.5" y="-609.5" font-family="Helvetica,sans-Serif" font-size="10.00">SetStateVariable()</text>
<text text-anchor="start" x="151.5" y="-594.5" font-family="Helvetica,sans-Serif" font-size="10.00">+</text>
<text text-anchor="start" x="164.5" y="-594.5" font-family="Helvetica,sans-Serif" font-size="10.00">VerifyStateVariables()</text>
<text text-anchor="start" x="151.5" y="-579.5" font-family="Helvetica,sans-Serif" font-size="10.00">+</text>
<text text-anchor="start" x="164.5" y="-579.5" font-family="Helvetica,sans-Serif" font-size="10.00">SetDefaultInitialConditions()</text>
<text text-anchor="start" x="164.5" y="-564.5" font-family="Helvetica,sans-Serif" font-size="10.00">and 13 more...</text>
<text text-anchor="start" x="151.5" y="-549.5" font-family="Helvetica,sans-Serif" font-size="10.00">#</text>
<text text-anchor="start" x="164.5" y="-549.5" font-family="Helvetica,sans-Serif" font-size="10.00">DumpState()</text>
<text text-anchor="start" x="151.5" y="-534.5" font-family="Helvetica,sans-Serif" font-size="10.00">#</text>
<text text-anchor="start" x="164.5" y="-534.5" font-family="Helvetica,sans-Serif" font-size="10.00">DumpState()</text>
<text text-anchor="start" x="151.5" y="-519.5" font-family="Helvetica,sans-Serif" font-size="10.00">#</text>
<text text-anchor="start" x="164.5" y="-519.5" font-family="Helvetica,sans-Serif" font-size="10.00">DumpState()</text>
<text text-anchor="start" x="151.5" y="-504.5" font-family="Helvetica,sans-Serif" font-size="10.00">#</text>
<text text-anchor="start" x="164.5" y="-504.5" font-family="Helvetica,sans-Serif" font-size="10.00">CheckParametersOnLoad()</text>
<text text-anchor="start" x="154" y="-489.5" font-family="Helvetica,sans-Serif" font-size="10.00">&#45;</text>
<text text-anchor="start" x="164.5" y="-489.5" font-family="Helvetica,sans-Serif" font-size="10.00">GetStateMessage()</text>
<polygon fill="#666666" stroke="#666666" points="147.5,-739.5 147.5,-739.5 324.5,-739.5 324.5,-739.5 147.5,-739.5"/>
<polygon fill="#666666" stroke="#666666" points="147.5,-724.5 147.5,-724.5 324.5,-724.5 324.5,-724.5 147.5,-724.5"/>
<polygon fill="none" stroke="#666666" points="147,-483 147,-768 324,-768 324,-483 147,-483"/>
</a>
</g>
</g>
<!-- Node3&#45;&gt;Node2 -->
<g id="edge2_Node000002_Node000003" class="edge">
<title>Node3&#45;&gt;Node2</title>
<g id="a_edge2_Node000002_Node000003"><a xlink:title=" ">
<path fill="none" stroke="#63b8ff" d="M269.52,-472.82C272.34,-460.25 275.11,-447.87 277.75,-436.1"/>
<polygon fill="none" stroke="#63b8ff" points="266.02,-472.4 267.25,-482.92 272.85,-473.93 266.02,-472.4"/>
</a>
</g>
</g>
<!-- Node4 -->
<g id="Node000004" class="node">
<title>Node4</title>
<g id="a_Node000004"><a xlink:href="classAbstractUntemplatedParameterisedSystem.html" target="_top" xlink:title=" ">
<polygon fill="white" stroke="transparent" points="338,-1401 133,-1401 133,-1169 338,-1169 338,-1401"/>
<text text-anchor="start" x="148.5" y="-1389" font-family="Helvetica,sans-Serif" font-size="10.00">AbstractUntemplatedParameterised</text>
<text text-anchor="start" x="217.5" y="-1378" font-family="Helvetica,sans-Serif" font-size="10.00">System</text>
<text text-anchor="start" x="234" y="-1363" font-family="Helvetica,sans-Serif" font-size="10.00"> </text>
<text text-anchor="start" x="137.5" y="-1348" font-family="Helvetica,sans-Serif" font-size="10.00">+</text>
<text text-anchor="start" x="150.5" y="-1348" font-family="Helvetica,sans-Serif" font-size="10.00">AbstractUntemplatedParameterised</text>
<text text-anchor="start" x="150.5" y="-1337" font-family="Helvetica,sans-Serif" font-size="10.00">System()</text>
<text text-anchor="start" x="137.5" y="-1322" font-family="Helvetica,sans-Serif" font-size="10.00">+</text>
<text text-anchor="start" x="150.5" y="-1322" font-family="Helvetica,sans-Serif" font-size="10.00">~AbstractUntemplatedParameterised</text>
<text text-anchor="start" x="150.5" y="-1311" font-family="Helvetica,sans-Serif" font-size="10.00">System()</text>
<text text-anchor="start" x="137.5" y="-1296" font-family="Helvetica,sans-Serif" font-size="10.00">+</text>
<text text-anchor="start" x="150.5" y="-1296" font-family="Helvetica,sans-Serif" font-size="10.00">GetSystemInformation()</text>
<text text-anchor="start" x="137.5" y="-1281" font-family="Helvetica,sans-Serif" font-size="10.00">+</text>
<text text-anchor="start" x="150.5" y="-1281" font-family="Helvetica,sans-Serif" font-size="10.00">GetSystemName()</text>
<text text-anchor="start" x="137.5" y="-1266" font-family="Helvetica,sans-Serif" font-size="10.00">+</text>
<text text-anchor="start" x="150.5" y="-1266" font-family="Helvetica,sans-Serif" font-size="10.00">GetNumberOfAttributes()</text>
<text text-anchor="start" x="137.5" y="-1251" font-family="Helvetica,sans-Serif" font-size="10.00">+</text>
<text text-anchor="start" x="150.5" y="-1251" font-family="Helvetica,sans-Serif" font-size="10.00">HasAttribute()</text>
<text text-anchor="start" x="137.5" y="-1236" font-family="Helvetica,sans-Serif" font-size="10.00">+</text>
<text text-anchor="start" x="150.5" y="-1236" font-family="Helvetica,sans-Serif" font-size="10.00">GetAttribute()</text>
<text text-anchor="start" x="137.5" y="-1221" font-family="Helvetica,sans-Serif" font-size="10.00">+</text>
<text text-anchor="start" x="150.5" y="-1221" font-family="Helvetica,sans-Serif" font-size="10.00">GetNumberOfStateVariables()</text>
<text text-anchor="start" x="137.5" y="-1206" font-family="Helvetica,sans-Serif" font-size="10.00">+</text>
<text text-anchor="start" x="150.5" y="-1206" font-family="Helvetica,sans-Serif" font-size="10.00">rGetStateVariableNames()</text>
<text text-anchor="start" x="137.5" y="-1191" font-family="Helvetica,sans-Serif" font-size="10.00">+</text>
<text text-anchor="start" x="150.5" y="-1191" font-family="Helvetica,sans-Serif" font-size="10.00">rGetStateVariableUnits()</text>
<text text-anchor="start" x="150.5" y="-1176" font-family="Helvetica,sans-Serif" font-size="10.00">and 20 more...</text>
<polygon fill="#666666" stroke="#666666" points="133.5,-1373 133.5,-1373 338.5,-1373 338.5,-1373 133.5,-1373"/>
<polygon fill="#666666" stroke="#666666" points="133.5,-1358 133.5,-1358 338.5,-1358 338.5,-1358 133.5,-1358"/>
<polygon fill="none" stroke="#666666" points="133,-1169 133,-1401 338,-1401 338,-1169 133,-1169"/>
</a>
</g>
</g>
<!-- Node4&#45;&gt;Node3 -->
<g id="edge3_Node000003_Node000004" class="edge">
<title>Node4&#45;&gt;Node3</title>
<g id="a_edge3_Node000003_Node000004"><a xlink:title=" ">
<path fill="none" stroke="#63b8ff" d="M235.5,-1158.43C235.5,-1046.91 235.5,-884.09 235.5,-768"/>
<polygon fill="none" stroke="#63b8ff" points="232,-1158.72 235.5,-1168.72 239,-1158.72 232,-1158.72"/>
</a>
</g>
</g>
<!-- Node8 -->
<g id="Node000008" class="node">
<title>Node8</title>
<g id="a_Node000008"><a xlink:href="classAbstractParameterisedSystem.html" target="_top" xlink:title=" ">
<polygon fill="white" stroke="transparent" points="177,-1111 0,-1111 0,-826 177,-826 177,-1111"/>
<text text-anchor="start" x="15" y="-1098.5" font-family="Helvetica,sans-Serif" font-size="10.00">AbstractParameterisedSystem</text>
<text text-anchor="start" x="57.5" y="-1087.5" font-family="Helvetica,sans-Serif" font-size="10.00">&lt; VECTOR &gt;</text>
<text text-anchor="start" x="87" y="-1072.5" font-family="Helvetica,sans-Serif" font-size="10.00"> </text>
<text text-anchor="start" x="4.5" y="-1057.5" font-family="Helvetica,sans-Serif" font-size="10.00">+</text>
<text text-anchor="start" x="17.5" y="-1057.5" font-family="Helvetica,sans-Serif" font-size="10.00">AbstractParameterisedSystem()</text>
<text text-anchor="start" x="4.5" y="-1042.5" font-family="Helvetica,sans-Serif" font-size="10.00">+</text>
<text text-anchor="start" x="17.5" y="-1042.5" font-family="Helvetica,sans-Serif" font-size="10.00">rGetStateVariables()</text>
<text text-anchor="start" x="4.5" y="-1027.5" font-family="Helvetica,sans-Serif" font-size="10.00">+</text>
<text text-anchor="start" x="17.5" y="-1027.5" font-family="Helvetica,sans-Serif" font-size="10.00">GetStateVariables()</text>
<text text-anchor="start" x="4.5" y="-1012.5" font-family="Helvetica,sans-Serif" font-size="10.00">+</text>
<text text-anchor="start" x="17.5" y="-1012.5" font-family="Helvetica,sans-Serif" font-size="10.00">SetStateVariables()</text>
<text text-anchor="start" x="4.5" y="-997.5" font-family="Helvetica,sans-Serif" font-size="10.00">+</text>
<text text-anchor="start" x="17.5" y="-997.5" font-family="Helvetica,sans-Serif" font-size="10.00">GetStateVariable()</text>
<text text-anchor="start" x="4.5" y="-982.5" font-family="Helvetica,sans-Serif" font-size="10.00">+</text>
<text text-anchor="start" x="17.5" y="-982.5" font-family="Helvetica,sans-Serif" font-size="10.00">GetStateVariable()</text>
<text text-anchor="start" x="4.5" y="-967.5" font-family="Helvetica,sans-Serif" font-size="10.00">+</text>
<text text-anchor="start" x="17.5" y="-967.5" font-family="Helvetica,sans-Serif" font-size="10.00">SetStateVariable()</text>
<text text-anchor="start" x="4.5" y="-952.5" font-family="Helvetica,sans-Serif" font-size="10.00">+</text>
<text text-anchor="start" x="17.5" y="-952.5" font-family="Helvetica,sans-Serif" font-size="10.00">SetStateVariable()</text>
<text text-anchor="start" x="4.5" y="-937.5" font-family="Helvetica,sans-Serif" font-size="10.00">+</text>
<text text-anchor="start" x="17.5" y="-937.5" font-family="Helvetica,sans-Serif" font-size="10.00">VerifyStateVariables()</text>
<text text-anchor="start" x="4.5" y="-922.5" font-family="Helvetica,sans-Serif" font-size="10.00">+</text>
<text text-anchor="start" x="17.5" y="-922.5" font-family="Helvetica,sans-Serif" font-size="10.00">SetDefaultInitialConditions()</text>
<text text-anchor="start" x="17.5" y="-907.5" font-family="Helvetica,sans-Serif" font-size="10.00">and 13 more...</text>
<text text-anchor="start" x="4.5" y="-892.5" font-family="Helvetica,sans-Serif" font-size="10.00">#</text>
<text text-anchor="start" x="17.5" y="-892.5" font-family="Helvetica,sans-Serif" font-size="10.00">DumpState()</text>
<text text-anchor="start" x="4.5" y="-877.5" font-family="Helvetica,sans-Serif" font-size="10.00">#</text>
<text text-anchor="start" x="17.5" y="-877.5" font-family="Helvetica,sans-Serif" font-size="10.00">DumpState()</text>
<text text-anchor="start" x="4.5" y="-862.5" font-family="Helvetica,sans-Serif" font-size="10.00">#</text>
<text text-anchor="start" x="17.5" y="-862.5" font-family="Helvetica,sans-Serif" font-size="10.00">DumpState()</text>
<text text-anchor="start" x="4.5" y="-847.5" font-family="Helvetica,sans-Serif" font-size="10.00">#</text>
<text text-anchor="start" x="17.5" y="-847.5" font-family="Helvetica,sans-Serif" font-size="10.00">CheckParametersOnLoad()</text>
<text text-anchor="start" x="7" y="-832.5" font-family="Helvetica,sans-Serif" font-size="10.00">&#45;</text>
<text text-anchor="start" x="17.5" y="-832.5" font-family="Helvetica,sans-Serif" font-size="10.00">GetStateMessage()</text>
<polygon fill="#666666" stroke="#666666" points="0.5,-1082.5 0.5,-1082.5 177.5,-1082.5 177.5,-1082.5 0.5,-1082.5"/>
<polygon fill="#666666" stroke="#666666" points="0.5,-1067.5 0.5,-1067.5 177.5,-1067.5 177.5,-1067.5 0.5,-1067.5"/>
<polygon fill="none" stroke="#666666" points="0,-826 0,-1111 177,-1111 177,-826 0,-826"/>
</a>
</g>
</g>
<!-- Node4&#45;&gt;Node8 -->
<g id="edge8_Node000008_Node000004" class="edge">
<title>Node4&#45;&gt;Node8</title>
<g id="a_edge8_Node000008_Node000004"><a xlink:title=" ">
<path fill="none" stroke="#63b8ff" d="M194.41,-1159.23C190.29,-1148.9 185.97,-1138.71 181.5,-1129 178.82,-1123.18 175.99,-1117.29 173.05,-1111.39"/>
<polygon fill="none" stroke="#63b8ff" points="191.23,-1160.7 198.13,-1168.74 197.75,-1158.15 191.23,-1160.7"/>
</a>
</g>
</g>
<!-- Node5 -->
<g id="Node000005" class="node">
<title>Node5</title>
<g id="a_Node000005"><a xlink:href="classunsigned.html" target="_top" xlink:title=" ">
<polygon fill="white" stroke="transparent" points="180,-1502.5 125,-1502.5 125,-1453.5 180,-1453.5 180,-1502.5"/>
<text text-anchor="start" x="130.5" y="-1490" font-family="Helvetica,sans-Serif" font-size="10.00">unsigned</text>
<text text-anchor="start" x="151" y="-1475" font-family="Helvetica,sans-Serif" font-size="10.00"> </text>
<text text-anchor="start" x="151" y="-1460" font-family="Helvetica,sans-Serif" font-size="10.00"> </text>
<polygon fill="#bfbfbf" stroke="#bfbfbf" points="125.5,-1485 125.5,-1485 180.5,-1485 180.5,-1485 125.5,-1485"/>
<polygon fill="#bfbfbf" stroke="#bfbfbf" points="125.5,-1470 125.5,-1470 180.5,-1470 180.5,-1470 125.5,-1470"/>
<polygon fill="none" stroke="#bfbfbf" points="125,-1453.5 125,-1502.5 180,-1502.5 180,-1453.5 125,-1453.5"/>
</a>
</g>
</g>
<!-- Node5&#45;&gt;Node4 -->
<g id="edge4_Node000004_Node000005" class="edge">
<title>Node5&#45;&gt;Node4</title>
<g id="a_edge4_Node000004_Node000005"><a xlink:title=" ">
<path fill="none" stroke="#63b8ff" d="M147.75,-1453.44C146.49,-1442.73 146.25,-1430.02 149.5,-1419 150.13,-1416.87 150.8,-1414.74 151.52,-1412.61"/>
<polygon fill="none" stroke="#63b8ff" points="151.55,-1412.53 149.9,-1405.51 155.75,-1401.29 157.4,-1408.31 151.55,-1412.53"/>
</a>
</g>
<text text-anchor="middle" x="220.5" y="-1422" font-family="Helvetica,sans-Serif" font-size="10.00" fill="grey"> #mNumberOfStateVariables</text>
</g>
<!-- Node6 -->
<g id="Node000006" class="node">
<title>Node6</title>
<g id="a_Node000006"><a xlink:title=" ">
<polygon fill="white" stroke="transparent" points="402.5,-1508 232.5,-1508 232.5,-1448 402.5,-1448 402.5,-1508"/>
<text text-anchor="start" x="237.5" y="-1496" font-family="Helvetica,sans-Serif" font-size="10.00">shared_ptr&lt; AbstractOdeSystem</text>
<text text-anchor="start" x="283" y="-1485" font-family="Helvetica,sans-Serif" font-size="10.00">Information &gt;</text>
<text text-anchor="start" x="315.5" y="-1470" font-family="Helvetica,sans-Serif" font-size="10.00"> </text>
<text text-anchor="start" x="315.5" y="-1455" font-family="Helvetica,sans-Serif" font-size="10.00"> </text>
<polygon fill="#bfbfbf" stroke="#bfbfbf" points="232.5,-1480 232.5,-1480 402.5,-1480 402.5,-1480 232.5,-1480"/>
<polygon fill="#bfbfbf" stroke="#bfbfbf" points="232.5,-1465 232.5,-1465 402.5,-1465 402.5,-1465 232.5,-1465"/>
<polygon fill="none" stroke="#bfbfbf" points="232.5,-1448 232.5,-1508 402.5,-1508 402.5,-1448 232.5,-1448"/>
</a>
</g>
</g>
<!-- Node6&#45;&gt;Node4 -->
<g id="edge5_Node000004_Node000006" class="edge">
<title>Node6&#45;&gt;Node4</title>
<g id="a_edge5_Node000004_Node000006"><a xlink:title=" ">
<path fill="none" stroke="#63b8ff" d="M306.88,-1447.95C303.37,-1438.65 299.38,-1428.35 295.5,-1419 294.59,-1416.81 293.67,-1414.6 292.73,-1412.37"/>
<polygon fill="none" stroke="#63b8ff" points="292.66,-1412.2 286.63,-1408.24 287.97,-1401.15 294,-1405.11 292.66,-1412.2"/>
</a>
</g>
<text text-anchor="middle" x="341" y="-1422" font-family="Helvetica,sans-Serif" font-size="10.00" fill="grey"> #mpSystemInfo</text>
</g>
<!-- Node7 -->
<g id="Node000007" class="node">
<title>Node7</title>
<g id="a_Node000007"><a xlink:title=" ">
<polygon fill="white" stroke="transparent" points="361,-993 264,-993 264,-944 361,-944 361,-993"/>
<text text-anchor="start" x="269.5" y="-980.5" font-family="Helvetica,sans-Serif" font-size="10.00">vector&lt; double &gt;</text>
<text text-anchor="start" x="311" y="-965.5" font-family="Helvetica,sans-Serif" font-size="10.00"> </text>
<text text-anchor="start" x="311" y="-950.5" font-family="Helvetica,sans-Serif" font-size="10.00"> </text>
<polygon fill="#bfbfbf" stroke="#bfbfbf" points="264.5,-975.5 264.5,-975.5 361.5,-975.5 361.5,-975.5 264.5,-975.5"/>
<polygon fill="#bfbfbf" stroke="#bfbfbf" points="264.5,-960.5 264.5,-960.5 361.5,-960.5 361.5,-960.5 264.5,-960.5"/>
<polygon fill="none" stroke="#bfbfbf" points="264,-944 264,-993 361,-993 361,-944 264,-944"/>
</a>
</g>
</g>
<!-- Node7&#45;&gt;Node3 -->
<g id="edge6_Node000003_Node000007" class="edge">
<title>Node7&#45;&gt;Node3</title>
<g id="a_edge6_Node000003_Node000007"><a xlink:title=" ">
<path fill="none" stroke="#63b8ff" d="M307.15,-943.79C299.39,-909.45 284.4,-843.05 270.12,-779.83"/>
<polygon fill="none" stroke="#63b8ff" points="270.11,-779.77 264.89,-774.8 267.47,-768.07 272.69,-773.04 270.11,-779.77"/>
</a>
</g>
<text text-anchor="middle" x="321" y="-800" font-family="Helvetica,sans-Serif" font-size="10.00" fill="grey"> #mParameters</text>
<text text-anchor="middle" x="321" y="-789" font-family="Helvetica,sans-Serif" font-size="10.00" fill="grey">#mStateVariables</text>
</g>
<!-- Node8&#45;&gt;Node3 -->
<g id="edge7_Node000003_Node000008" class="edge">
<title>Node8&#45;&gt;Node3</title>
<g id="a_edge7_Node000003_Node000008"><a xlink:title=" ">
<path fill="none" stroke="orange" d="M79.97,-815.93C81.98,-805.63 84.76,-795.56 88.5,-786 101.03,-753.9 123.39,-724.38 146.94,-699.68"/>
<polygon fill="orange" stroke="orange" points="76.5,-815.41 78.26,-825.85 83.4,-816.59 76.5,-815.41"/>
</a>
</g>
<text text-anchor="middle" x="155" y="-794.5" font-family="Helvetica,sans-Serif" font-size="10.00" fill="grey"> &lt; std::vector&lt; double &gt; &gt;</text>
</g>
<!-- Node9 -->
<g id="Node000009" class="node">
<title>Node9</title>
<g id="a_Node000009"><a xlink:title=" ">
<polygon fill="white" stroke="transparent" points="113.5,-1309.5 63.5,-1309.5 63.5,-1260.5 113.5,-1260.5 113.5,-1309.5"/>
<text text-anchor="start" x="68.5" y="-1297" font-family="Helvetica,sans-Serif" font-size="10.00">VECTOR</text>
<text text-anchor="start" x="86.5" y="-1282" font-family="Helvetica,sans-Serif" font-size="10.00"> </text>
<text text-anchor="start" x="86.5" y="-1267" font-family="Helvetica,sans-Serif" font-size="10.00"> </text>
<polygon fill="#bfbfbf" stroke="#bfbfbf" points="63.5,-1292 63.5,-1292 113.5,-1292 113.5,-1292 63.5,-1292"/>
<polygon fill="#bfbfbf" stroke="#bfbfbf" points="63.5,-1277 63.5,-1277 113.5,-1277 113.5,-1277 63.5,-1277"/>
<polygon fill="none" stroke="#bfbfbf" points="63.5,-1260.5 63.5,-1309.5 113.5,-1309.5 113.5,-1260.5 63.5,-1260.5"/>
</a>
</g>
</g>
<!-- Node9&#45;&gt;Node8 -->
<g id="edge9_Node000008_Node000009" class="edge">
<title>Node9&#45;&gt;Node8</title>
<g id="a_edge9_Node000008_Node000009"><a xlink:title=" ">
<path fill="none" stroke="#63b8ff" d="M88.5,-1260.36C88.5,-1230.55 88.5,-1176.7 88.5,-1123.38"/>
<polygon fill="none" stroke="#63b8ff" points="88.5,-1123.3 84.5,-1117.3 88.5,-1111.3 92.5,-1117.3 88.5,-1123.3"/>
</a>
</g>
<text text-anchor="middle" x="133" y="-1143" font-family="Helvetica,sans-Serif" font-size="10.00" fill="grey"> #mParameters</text>
<text text-anchor="middle" x="133" y="-1132" font-family="Helvetica,sans-Serif" font-size="10.00" fill="grey">#mStateVariables</text>
</g>
<!-- Node10 -->
<g id="Node000010" class="node">
<title>Node10</title>
<g id="a_Node000010"><a xlink:href="classbool.html" target="_top" xlink:title=" ">
<polygon fill="white" stroke="transparent" points="373.5,-650 341.5,-650 341.5,-601 373.5,-601 373.5,-650"/>
<text text-anchor="start" x="346.5" y="-637.5" font-family="Helvetica,sans-Serif" font-size="10.00">bool</text>
<text text-anchor="start" x="355.5" y="-622.5" font-family="Helvetica,sans-Serif" font-size="10.00"> </text>
<text text-anchor="start" x="355.5" y="-607.5" font-family="Helvetica,sans-Serif" font-size="10.00"> </text>
<polygon fill="#bfbfbf" stroke="#bfbfbf" points="341.5,-632.5 341.5,-632.5 373.5,-632.5 373.5,-632.5 341.5,-632.5"/>
<polygon fill="#bfbfbf" stroke="#bfbfbf" points="341.5,-617.5 341.5,-617.5 373.5,-617.5 373.5,-617.5 341.5,-617.5"/>
<polygon fill="none" stroke="#bfbfbf" points="341.5,-601 341.5,-650 373.5,-650 373.5,-601 341.5,-601"/>
</a>
</g>
</g>
<!-- Node10&#45;&gt;Node2 -->
<g id="edge10_Node000002_Node000010" class="edge">
<title>Node10&#45;&gt;Node2</title>
<g id="a_edge10_Node000002_Node000010"><a xlink:title=" ">
<path fill="none" stroke="#63b8ff" d="M354.02,-600.83C349.71,-572.62 341.78,-524.12 332.5,-483 329.92,-471.57 326.98,-459.63 323.91,-447.83"/>
<polygon fill="none" stroke="#63b8ff" points="323.88,-447.7 318.48,-442.92 320.82,-436.1 326.22,-440.88 323.88,-447.7"/>
</a>
</g>
<text text-anchor="middle" x="388" y="-457" font-family="Helvetica,sans-Serif" font-size="10.00" fill="grey"> #mUseAnalyticJacobian</text>
</g>
<!-- Node11 -->
<g id="Node000011" class="node">
<title>Node11</title>
<g id="a_Node000011"><a xlink:href="classdouble.html" target="_top" xlink:title=" ">
<polygon fill="white" stroke="transparent" points="432.5,-376 388.5,-376 388.5,-327 432.5,-327 432.5,-376"/>
<text text-anchor="start" x="393.5" y="-363.5" font-family="Helvetica,sans-Serif" font-size="10.00">double</text>
<text text-anchor="start" x="408.5" y="-348.5" font-family="Helvetica,sans-Serif" font-size="10.00"> </text>
<text text-anchor="start" x="408.5" y="-333.5" font-family="Helvetica,sans-Serif" font-size="10.00"> </text>
<polygon fill="#bfbfbf" stroke="#bfbfbf" points="388.5,-358.5 388.5,-358.5 432.5,-358.5 432.5,-358.5 388.5,-358.5"/>
<polygon fill="#bfbfbf" stroke="#bfbfbf" points="388.5,-343.5 388.5,-343.5 432.5,-343.5 432.5,-343.5 388.5,-343.5"/>
<polygon fill="none" stroke="#bfbfbf" points="388.5,-327 388.5,-376 432.5,-376 432.5,-327 388.5,-327"/>
</a>
</g>
</g>
<!-- Node11&#45;&gt;Node1 -->
<g id="edge11_Node000001_Node000011" class="edge">
<title>Node11&#45;&gt;Node1</title>
<g id="a_edge11_Node000001_Node000011"><a xlink:title=" ">
<path fill="none" stroke="#63b8ff" d="M410.5,-326.79C410.5,-291.33 410.5,-222.61 410.5,-166.36"/>
<polygon fill="none" stroke="#63b8ff" points="410.5,-166.2 406.5,-160.2 410.5,-154.2 414.5,-160.2 410.5,-166.2"/>
</a>
</g>
<text text-anchor="middle" x="440.5" y="-241" font-family="Helvetica,sans-Serif" font-size="10.00" fill="grey"> &#45;mA</text>
<text text-anchor="middle" x="440.5" y="-230" font-family="Helvetica,sans-Serif" font-size="10.00" fill="grey">&#45;mB</text>
<text text-anchor="middle" x="440.5" y="-219" font-family="Helvetica,sans-Serif" font-size="10.00" fill="grey">&#45;mC</text>
<text text-anchor="middle" x="440.5" y="-208" font-family="Helvetica,sans-Serif" font-size="10.00" fill="grey">&#45;mD</text>
<text text-anchor="middle" x="440.5" y="-197" font-family="Helvetica,sans-Serif" font-size="10.00" fill="grey">&#45;mE</text>
<text text-anchor="middle" x="440.5" y="-186" font-family="Helvetica,sans-Serif" font-size="10.00" fill="grey">&#45;mF</text>
<text text-anchor="middle" x="440.5" y="-175" font-family="Helvetica,sans-Serif" font-size="10.00" fill="grey">&#45;mWntLevel</text>
</g>
<!-- Node12 -->
<g id="Node000012" class="node">
<title>Node12</title>
<g id="a_Node000012"><a xlink:title=" ">
<polygon fill="white" stroke="transparent" points="584,-381.5 451,-381.5 451,-321.5 584,-321.5 584,-381.5"/>
<text text-anchor="start" x="456.5" y="-369.5" font-family="Helvetica,sans-Serif" font-size="10.00">shared_ptr&lt; AbstractCell</text>
<text text-anchor="start" x="477.5" y="-358.5" font-family="Helvetica,sans-Serif" font-size="10.00">MutationState &gt;</text>
<text text-anchor="start" x="516" y="-343.5" font-family="Helvetica,sans-Serif" font-size="10.00"> </text>
<text text-anchor="start" x="516" y="-328.5" font-family="Helvetica,sans-Serif" font-size="10.00"> </text>
<polygon fill="#bfbfbf" stroke="#bfbfbf" points="451.5,-353.5 451.5,-353.5 584.5,-353.5 584.5,-353.5 451.5,-353.5"/>
<polygon fill="#bfbfbf" stroke="#bfbfbf" points="451.5,-338.5 451.5,-338.5 584.5,-338.5 584.5,-338.5 451.5,-338.5"/>
<polygon fill="none" stroke="#bfbfbf" points="451,-321.5 451,-381.5 584,-381.5 584,-321.5 451,-321.5"/>
</a>
</g>
</g>
<!-- Node12&#45;&gt;Node1 -->
<g id="edge12_Node000001_Node000012" class="edge">
<title>Node12&#45;&gt;Node1</title>
<g id="a_edge12_Node000001_Node000012"><a xlink:title=" ">
<path fill="none" stroke="#63b8ff" d="M513.78,-321.33C508.42,-285.11 496.65,-221.98 474.5,-172 473.47,-169.67 472.38,-167.34 471.24,-165.01"/>
<polygon fill="none" stroke="#63b8ff" points="471.13,-164.8 464.8,-161.33 465.58,-154.16 471.9,-157.63 471.13,-164.8"/>
</a>
</g>
<text text-anchor="middle" x="545.5" y="-208" font-family="Helvetica,sans-Serif" font-size="10.00" fill="grey"> &#45;mpMutationState</text>
</g>
</g>
</svg>
