<?xml version="1.0" encoding="UTF-8" standalone="no"?>
<!DOCTYPE svg PUBLIC "-//W3C//DTD SVG 1.1//EN"
 "http://www.w3.org/Graphics/SVG/1.1/DTD/svg11.dtd">
<!-- Generated by graphviz version 2.43.0 (0)
 -->
<!-- Title: NodeAttributes&lt; SPACE_DIM &gt; Pages: 1 -->
<svg width="650pt" height="447pt"
 viewBox="0.00 0.00 649.50 447.00" xmlns="http://www.w3.org/2000/svg" xmlns:xlink="http://www.w3.org/1999/xlink">
<g id="graph0" class="graph" transform="scale(1 1) rotate(0) translate(4 443)">
<title>NodeAttributes&lt; SPACE_DIM &gt;</title>
<!-- Node1 -->
<g id="Node000001" class="node">
<title>Node1</title>
<g id="a_Node000001"><a xlink:title=" ">
<polygon fill="#999999" stroke="transparent" points="395,-225 224,-225 224,0 395,0 395,-225"/>
<text text-anchor="start" x="252" y="-212.5" font-family="Helvetica,sans-Serif" font-size="10.00">NodeAttributes&lt; SPACE</text>
<text text-anchor="start" x="291.5" y="-201.5" font-family="Helvetica,sans-Serif" font-size="10.00">_DIM &gt;</text>
<text text-anchor="start" x="308" y="-186.5" font-family="Helvetica,sans-Serif" font-size="10.00"> </text>
<text text-anchor="start" x="228.5" y="-171.5" font-family="Helvetica,sans-Serif" font-size="10.00">+</text>
<text text-anchor="start" x="241.5" y="-171.5" font-family="Helvetica,sans-Serif" font-size="10.00">NodeAttributes()</text>
<text text-anchor="start" x="228.5" y="-156.5" font-family="Helvetica,sans-Serif" font-size="10.00">+</text>
<text text-anchor="start" x="241.5" y="-156.5" font-family="Helvetica,sans-Serif" font-size="10.00">rGetAttributes()</text>
<text text-anchor="start" x="228.5" y="-141.5" font-family="Helvetica,sans-Serif" font-size="10.00">+</text>
<text text-anchor="start" x="241.5" y="-141.5" font-family="Helvetica,sans-Serif" font-size="10.00">AddAttribute()</text>
<text text-anchor="start" x="228.5" y="-126.5" font-family="Helvetica,sans-Serif" font-size="10.00">+</text>
<text text-anchor="start" x="241.5" y="-126.5" font-family="Helvetica,sans-Serif" font-size="10.00">GetRegion()</text>
<text text-anchor="start" x="228.5" y="-111.5" font-family="Helvetica,sans-Serif" font-size="10.00">+</text>
<text text-anchor="start" x="241.5" y="-111.5" font-family="Helvetica,sans-Serif" font-size="10.00">SetRegion()</text>
<text text-anchor="start" x="228.5" y="-96.5" font-family="Helvetica,sans-Serif" font-size="10.00">+</text>
<text text-anchor="start" x="241.5" y="-96.5" font-family="Helvetica,sans-Serif" font-size="10.00">rGetAppliedForce()</text>
<text text-anchor="start" x="228.5" y="-81.5" font-family="Helvetica,sans-Serif" font-size="10.00">+</text>
<text text-anchor="start" x="241.5" y="-81.5" font-family="Helvetica,sans-Serif" font-size="10.00">AddAppliedForceContribution()</text>
<text text-anchor="start" x="228.5" y="-66.5" font-family="Helvetica,sans-Serif" font-size="10.00">+</text>
<text text-anchor="start" x="241.5" y="-66.5" font-family="Helvetica,sans-Serif" font-size="10.00">ClearAppliedForce()</text>
<text text-anchor="start" x="228.5" y="-51.5" font-family="Helvetica,sans-Serif" font-size="10.00">+</text>
<text text-anchor="start" x="241.5" y="-51.5" font-family="Helvetica,sans-Serif" font-size="10.00">AddNeighbour()</text>
<text text-anchor="start" x="228.5" y="-36.5" font-family="Helvetica,sans-Serif" font-size="10.00">+</text>
<text text-anchor="start" x="241.5" y="-36.5" font-family="Helvetica,sans-Serif" font-size="10.00">ClearNeighbours()</text>
<text text-anchor="start" x="241.5" y="-21.5" font-family="Helvetica,sans-Serif" font-size="10.00">and 9 more...</text>
<text text-anchor="start" x="231" y="-6.5" font-family="Helvetica,sans-Serif" font-size="10.00">&#45;</text>
<text text-anchor="start" x="241.5" y="-6.5" font-family="Helvetica,sans-Serif" font-size="10.00">serialize()</text>
<polygon fill="#666666" stroke="#666666" points="224.5,-196.5 224.5,-196.5 395.5,-196.5 395.5,-196.5 224.5,-196.5"/>
<polygon fill="#666666" stroke="#666666" points="224.5,-181.5 224.5,-181.5 395.5,-181.5 395.5,-181.5 224.5,-181.5"/>
<polygon fill="none" stroke="#666666" points="224,0 224,-225 395,-225 395,0 224,0"/>
</a>
</g>
</g>
<!-- Node2 -->
<g id="Node000002" class="node">
<title>Node2</title>
<g id="a_Node000002"><a xlink:title=" ">
<polygon fill="white" stroke="transparent" points="97,-337.5 0,-337.5 0,-288.5 97,-288.5 97,-337.5"/>
<text text-anchor="start" x="5.5" y="-325" font-family="Helvetica,sans-Serif" font-size="10.00">vector&lt; double &gt;</text>
<text text-anchor="start" x="47" y="-310" font-family="Helvetica,sans-Serif" font-size="10.00"> </text>
<text text-anchor="start" x="47" y="-295" font-family="Helvetica,sans-Serif" font-size="10.00"> </text>
<polygon fill="#bfbfbf" stroke="#bfbfbf" points="0.5,-320 0.5,-320 97.5,-320 97.5,-320 0.5,-320"/>
<polygon fill="#bfbfbf" stroke="#bfbfbf" points="0.5,-305 0.5,-305 97.5,-305 97.5,-305 0.5,-305"/>
<polygon fill="none" stroke="#bfbfbf" points="0,-288.5 0,-337.5 97,-337.5 97,-288.5 0,-288.5"/>
</a>
</g>
</g>
<!-- Node2&#45;&gt;Node1 -->
<g id="edge1_Node000001_Node000002" class="edge">
<title>Node2&#45;&gt;Node1</title>
<g id="a_edge1_Node000001_Node000002"><a xlink:title=" ">
<path fill="none" stroke="#63b8ff" d="M68.34,-288.32C80.62,-274.35 97.13,-256.78 113.5,-243 144.33,-217.05 180.56,-191.84 213.43,-170.67"/>
<polygon fill="none" stroke="#63b8ff" points="213.86,-170.4 216.76,-163.8 223.97,-163.94 221.07,-170.54 213.86,-170.4"/>
</a>
</g>
<text text-anchor="middle" x="146" y="-251.5" font-family="Helvetica,sans-Serif" font-size="10.00" fill="grey"> &#45;mAttributes</text>
</g>
<!-- Node3 -->
<g id="Node000003" class="node">
<title>Node3</title>
<g id="a_Node000003"><a xlink:href="classunsigned.html" target="_top" xlink:title=" ">
<polygon fill="white" stroke="transparent" points="170,-337.5 115,-337.5 115,-288.5 170,-288.5 170,-337.5"/>
<text text-anchor="start" x="120.5" y="-325" font-family="Helvetica,sans-Serif" font-size="10.00">unsigned</text>
<text text-anchor="start" x="141" y="-310" font-family="Helvetica,sans-Serif" font-size="10.00"> </text>
<text text-anchor="start" x="141" y="-295" font-family="Helvetica,sans-Serif" font-size="10.00"> </text>
<polygon fill="#bfbfbf" stroke="#bfbfbf" points="115.5,-320 115.5,-320 170.5,-320 170.5,-320 115.5,-320"/>
<polygon fill="#bfbfbf" stroke="#bfbfbf" points="115.5,-305 115.5,-305 170.5,-305 170.5,-305 115.5,-305"/>
<polygon fill="none" stroke="#bfbfbf" points="115,-288.5 115,-337.5 170,-337.5 170,-288.5 115,-288.5"/>
</a>
</g>
</g>
<!-- Node3&#45;&gt;Node1 -->
<g id="edge2_Node000001_Node000003" class="edge">
<title>Node3&#45;&gt;Node1</title>
<g id="a_edge2_Node000001_Node000003"><a xlink:title=" ">
<path fill="none" stroke="#63b8ff" d="M162.31,-288.45C176.1,-272.06 195.6,-248.89 215.9,-224.75"/>
<polygon fill="none" stroke="#63b8ff" points="215.99,-224.65 216.79,-217.48 223.71,-215.47 222.91,-222.63 215.99,-224.65"/>
</a>
</g>
<text text-anchor="middle" x="222" y="-251.5" font-family="Helvetica,sans-Serif" font-size="10.00" fill="grey"> &#45;mRegion</text>
</g>
<!-- Node4 -->
<g id="Node000004" class="node">
<title>Node4</title>
<g id="a_Node000004"><a xlink:title=" ">
<polygon fill="white" stroke="transparent" points="321,-343 188,-343 188,-283 321,-283 321,-343"/>
<text text-anchor="start" x="193.5" y="-331" font-family="Helvetica,sans-Serif" font-size="10.00">c_vector&lt; double, SPACE</text>
<text text-anchor="start" x="236.5" y="-320" font-family="Helvetica,sans-Serif" font-size="10.00">_DIM &gt;</text>
<text text-anchor="start" x="253" y="-305" font-family="Helvetica,sans-Serif" font-size="10.00"> </text>
<text text-anchor="start" x="253" y="-290" font-family="Helvetica,sans-Serif" font-size="10.00"> </text>
<polygon fill="#bfbfbf" stroke="#bfbfbf" points="188.5,-315 188.5,-315 321.5,-315 321.5,-315 188.5,-315"/>
<polygon fill="#bfbfbf" stroke="#bfbfbf" points="188.5,-300 188.5,-300 321.5,-300 321.5,-300 188.5,-300"/>
<polygon fill="none" stroke="#bfbfbf" points="188,-283 188,-343 321,-343 321,-283 188,-283"/>
</a>
</g>
</g>
<!-- Node4&#45;&gt;Node1 -->
<g id="edge3_Node000001_Node000004" class="edge">
<title>Node4&#45;&gt;Node1</title>
<g id="a_edge3_Node000001_Node000004"><a xlink:title=" ">
<path fill="none" stroke="#63b8ff" d="M255.26,-282.85C256.04,-270.45 257.56,-255.9 260.5,-243 260.96,-240.99 261.44,-238.96 261.95,-236.93"/>
<polygon fill="none" stroke="#63b8ff" points="261.98,-236.82 259.66,-229.99 265.07,-225.22 267.39,-232.05 261.98,-236.82"/>
</a>
</g>
<text text-anchor="middle" x="300.5" y="-251.5" font-family="Helvetica,sans-Serif" font-size="10.00" fill="grey"> &#45;mAppliedForce</text>
</g>
<!-- Node5 -->
<g id="Node000005" class="node">
<title>Node5</title>
<g id="a_Node000005"><a xlink:title=" ">
<polygon fill="white" stroke="transparent" points="280.5,-439 228.5,-439 228.5,-390 280.5,-390 280.5,-439"/>
<text text-anchor="start" x="233.5" y="-426.5" font-family="Helvetica,sans-Serif" font-size="10.00">c_vector</text>
<text text-anchor="start" x="252.5" y="-411.5" font-family="Helvetica,sans-Serif" font-size="10.00"> </text>
<text text-anchor="start" x="252.5" y="-396.5" font-family="Helvetica,sans-Serif" font-size="10.00"> </text>
<polygon fill="#bfbfbf" stroke="#bfbfbf" points="228.5,-421.5 228.5,-421.5 280.5,-421.5 280.5,-421.5 228.5,-421.5"/>
<polygon fill="#bfbfbf" stroke="#bfbfbf" points="228.5,-406.5 228.5,-406.5 280.5,-406.5 280.5,-406.5 228.5,-406.5"/>
<polygon fill="none" stroke="#bfbfbf" points="228.5,-390 228.5,-439 280.5,-439 280.5,-390 228.5,-390"/>
</a>
</g>
</g>
<!-- Node5&#45;&gt;Node4 -->
<g id="edge4_Node000004_Node000005" class="edge">
<title>Node5&#45;&gt;Node4</title>
<g id="a_edge4_Node000004_Node000005"><a xlink:title=" ">
<path fill="none" stroke="orange" d="M254.5,-379.87C254.5,-367.94 254.5,-354.62 254.5,-343.1"/>
<polygon fill="orange" stroke="orange" points="251,-379.92 254.5,-389.92 258,-379.92 251,-379.92"/>
</a>
</g>
<text text-anchor="middle" x="315" y="-364" font-family="Helvetica,sans-Serif" font-size="10.00" fill="grey"> &lt; double, SPACE_DIM &gt;</text>
</g>
<!-- Node6 -->
<g id="Node000006" class="node">
<title>Node6</title>
<g id="a_Node000006"><a xlink:href="classdouble.html" target="_top" xlink:title=" ">
<polygon fill="white" stroke="transparent" points="383.5,-337.5 339.5,-337.5 339.5,-288.5 383.5,-288.5 383.5,-337.5"/>
<text text-anchor="start" x="344.5" y="-325" font-family="Helvetica,sans-Serif" font-size="10.00">double</text>
<text text-anchor="start" x="359.5" y="-310" font-family="Helvetica,sans-Serif" font-size="10.00"> </text>
<text text-anchor="start" x="359.5" y="-295" font-family="Helvetica,sans-Serif" font-size="10.00"> </text>
<polygon fill="#bfbfbf" stroke="#bfbfbf" points="339.5,-320 339.5,-320 383.5,-320 383.5,-320 339.5,-320"/>
<polygon fill="#bfbfbf" stroke="#bfbfbf" points="339.5,-305 339.5,-305 383.5,-305 383.5,-305 339.5,-305"/>
<polygon fill="none" stroke="#bfbfbf" points="339.5,-288.5 339.5,-337.5 383.5,-337.5 383.5,-288.5 339.5,-288.5"/>
</a>
</g>
</g>
<!-- Node6&#45;&gt;Node1 -->
<g id="edge5_Node000001_Node000006" class="edge">
<title>Node6&#45;&gt;Node1</title>
<g id="a_edge5_Node000001_Node000006"><a xlink:title=" ">
<path fill="none" stroke="#63b8ff" d="M355.33,-288.45C351.75,-274.8 346.95,-256.45 341.79,-236.75"/>
<polygon fill="none" stroke="#63b8ff" points="341.76,-236.64 336.37,-231.85 338.72,-225.03 344.11,-229.82 341.76,-236.64"/>
</a>
</g>
<text text-anchor="middle" x="373.5" y="-251.5" font-family="Helvetica,sans-Serif" font-size="10.00" fill="grey"> &#45;mRadius</text>
</g>
<!-- Node7 -->
<g id="Node000007" class="node">
<title>Node7</title>
<g id="a_Node000007"><a xlink:title=" ">
<polygon fill="white" stroke="transparent" points="509.5,-337.5 401.5,-337.5 401.5,-288.5 509.5,-288.5 509.5,-337.5"/>
<text text-anchor="start" x="406.5" y="-325" font-family="Helvetica,sans-Serif" font-size="10.00">vector&lt; unsigned &gt;</text>
<text text-anchor="start" x="453.5" y="-310" font-family="Helvetica,sans-Serif" font-size="10.00"> </text>
<text text-anchor="start" x="453.5" y="-295" font-family="Helvetica,sans-Serif" font-size="10.00"> </text>
<polygon fill="#bfbfbf" stroke="#bfbfbf" points="401.5,-320 401.5,-320 509.5,-320 509.5,-320 401.5,-320"/>
<polygon fill="#bfbfbf" stroke="#bfbfbf" points="401.5,-305 401.5,-305 509.5,-305 509.5,-305 401.5,-305"/>
<polygon fill="none" stroke="#bfbfbf" points="401.5,-288.5 401.5,-337.5 509.5,-337.5 509.5,-288.5 401.5,-288.5"/>
</a>
</g>
</g>
<!-- Node7&#45;&gt;Node1 -->
<g id="edge6_Node000001_Node000007" class="edge">
<title>Node7&#45;&gt;Node1</title>
<g id="a_edge6_Node000001_Node000007"><a xlink:title=" ">
<path fill="none" stroke="#63b8ff" d="M438.18,-288.45C427.81,-274.35 413.75,-255.24 398.73,-234.82"/>
<polygon fill="none" stroke="#63b8ff" points="398.64,-234.69 391.86,-232.23 391.53,-225.03 398.31,-227.49 398.64,-234.69"/>
</a>
</g>
<text text-anchor="middle" x="470.5" y="-251.5" font-family="Helvetica,sans-Serif" font-size="10.00" fill="grey"> &#45;mNeighbourIndices</text>
</g>
<!-- Node8 -->
<g id="Node000008" class="node">
<title>Node8</title>
<g id="a_Node000008"><a xlink:href="classbool.html" target="_top" xlink:title=" ">
<polygon fill="white" stroke="transparent" points="585.5,-337.5 553.5,-337.5 553.5,-288.5 585.5,-288.5 585.5,-337.5"/>
<text text-anchor="start" x="558.5" y="-325" font-family="Helvetica,sans-Serif" font-size="10.00">bool</text>
<text text-anchor="start" x="567.5" y="-310" font-family="Helvetica,sans-Serif" font-size="10.00"> </text>
<text text-anchor="start" x="567.5" y="-295" font-family="Helvetica,sans-Serif" font-size="10.00"> </text>
<polygon fill="#bfbfbf" stroke="#bfbfbf" points="553.5,-320 553.5,-320 585.5,-320 585.5,-320 553.5,-320"/>
<polygon fill="#bfbfbf" stroke="#bfbfbf" points="553.5,-305 553.5,-305 585.5,-305 585.5,-305 553.5,-305"/>
<polygon fill="none" stroke="#bfbfbf" points="553.5,-288.5 553.5,-337.5 585.5,-337.5 585.5,-288.5 553.5,-288.5"/>
</a>
</g>
</g>
<!-- Node8&#45;&gt;Node1 -->
<g id="edge7_Node000001_Node000008" class="edge">
<title>Node8&#45;&gt;Node1</title>
<g id="a_edge7_Node000001_Node000008"><a xlink:title=" ">
<path fill="none" stroke="#63b8ff" d="M557.99,-288.32C550.22,-274.01 538.94,-256.08 525.5,-243 490.83,-209.28 445.8,-180.52 405.82,-158.73"/>
<polygon fill="none" stroke="#63b8ff" points="405.82,-158.73 398.64,-159.42 395.24,-153.06 402.42,-152.37 405.82,-158.73"/>
</a>
</g>
<text text-anchor="middle" x="592" y="-257" font-family="Helvetica,sans-Serif" font-size="10.00" fill="grey"> &#45;mIsParticle</text>
<text text-anchor="middle" x="592" y="-246" font-family="Helvetica,sans-Serif" font-size="10.00" fill="grey">&#45;mNeighboursSetUp</text>
</g>
</g>
</svg>
