<?xml version="1.0" encoding="UTF-8" standalone="no"?>
<!DOCTYPE svg PUBLIC "-//W3C//DTD SVG 1.1//EN"
 "http://www.w3.org/Graphics/SVG/1.1/DTD/svg11.dtd">
<!-- Generated by graphviz version 2.43.0 (0)
 -->
<!-- Title: CellBasedEventHandler Pages: 1 -->
<svg width="534pt" height="1038pt"
 viewBox="0.00 0.00 534.07 1038.00" xmlns="http://www.w3.org/2000/svg" xmlns:xlink="http://www.w3.org/1999/xlink">
<g id="graph0" class="graph" transform="scale(1 1) rotate(0) translate(4 1034)">
<title>CellBasedEventHandler</title>
<!-- Node1 -->
<g id="Node000001" class="node">
<title>Node1</title>
<g id="a_Node000001"><a xlink:title=" ">
<polygon fill="#999999" stroke="transparent" points="385.57,-49 260.57,-49 260.57,0 385.57,0 385.57,-49"/>
<text text-anchor="start" x="266.07" y="-36.5" font-family="Helvetica,sans-Serif" font-size="10.00">CellBasedEventHandler</text>
<text text-anchor="start" x="321.57" y="-21.5" font-family="Helvetica,sans-Serif" font-size="10.00"> </text>
<text text-anchor="start" x="321.57" y="-6.5" font-family="Helvetica,sans-Serif" font-size="10.00"> </text>
<polygon fill="#666666" stroke="#666666" points="261.07,-31.5 261.07,-31.5 386.07,-31.5 386.07,-31.5 261.07,-31.5"/>
<polygon fill="#666666" stroke="#666666" points="261.07,-16.5 261.07,-16.5 386.07,-16.5 386.07,-16.5 261.07,-16.5"/>
<polygon fill="none" stroke="#666666" points="260.57,0 260.57,-49 385.57,-49 385.57,0 260.57,0"/>
</a>
</g>
</g>
<!-- Node2 -->
<g id="Node000002" class="node">
<title>Node2</title>
<g id="a_Node000002"><a xlink:href="classGenericEventHandler.html" target="_top" xlink:title=" ">
<polygon fill="white" stroke="transparent" points="335.07,-486 151.07,-486 151.07,-96 335.07,-96 335.07,-486"/>
<text text-anchor="start" x="165.07" y="-474" font-family="Helvetica,sans-Serif" font-size="10.00">GenericEventHandler</text>
<text text-anchor="start" x="165.07" y="-463" font-family="Helvetica,sans-Serif" font-size="10.00">&lt; 11, CellBasedEventHandler &gt;</text>
<text text-anchor="start" x="241.07" y="-448" font-family="Helvetica,sans-Serif" font-size="10.00"> </text>
<text text-anchor="start" x="155.07" y="-433" font-family="Helvetica,sans-Serif" font-size="10.00">+</text>
<text text-anchor="start" x="168.07" y="-433" font-family="Helvetica,sans-Serif" font-size="10.00">Instance()</text>
<text text-anchor="start" x="155.07" y="-418" font-family="Helvetica,sans-Serif" font-size="10.00">+</text>
<text text-anchor="start" x="168.07" y="-418" font-family="Helvetica,sans-Serif" font-size="10.00">Reset()</text>
<text text-anchor="start" x="155.07" y="-403" font-family="Helvetica,sans-Serif" font-size="10.00">+</text>
<text text-anchor="start" x="168.07" y="-403" font-family="Helvetica,sans-Serif" font-size="10.00">BeginEvent()</text>
<text text-anchor="start" x="155.07" y="-388" font-family="Helvetica,sans-Serif" font-size="10.00">+</text>
<text text-anchor="start" x="168.07" y="-388" font-family="Helvetica,sans-Serif" font-size="10.00">EndEvent()</text>
<text text-anchor="start" x="155.07" y="-373" font-family="Helvetica,sans-Serif" font-size="10.00">+</text>
<text text-anchor="start" x="168.07" y="-373" font-family="Helvetica,sans-Serif" font-size="10.00">GetElapsedTime()</text>
<text text-anchor="start" x="155.07" y="-358" font-family="Helvetica,sans-Serif" font-size="10.00">+</text>
<text text-anchor="start" x="168.07" y="-358" font-family="Helvetica,sans-Serif" font-size="10.00">Report()</text>
<text text-anchor="start" x="155.07" y="-343" font-family="Helvetica,sans-Serif" font-size="10.00">+</text>
<text text-anchor="start" x="168.07" y="-343" font-family="Helvetica,sans-Serif" font-size="10.00">Headings()</text>
<text text-anchor="start" x="155.07" y="-328" font-family="Helvetica,sans-Serif" font-size="10.00">+</text>
<text text-anchor="start" x="168.07" y="-328" font-family="Helvetica,sans-Serif" font-size="10.00">Enable()</text>
<text text-anchor="start" x="155.07" y="-313" font-family="Helvetica,sans-Serif" font-size="10.00">+</text>
<text text-anchor="start" x="168.07" y="-313" font-family="Helvetica,sans-Serif" font-size="10.00">Disable()</text>
<text text-anchor="start" x="155.07" y="-298" font-family="Helvetica,sans-Serif" font-size="10.00">+</text>
<text text-anchor="start" x="168.07" y="-298" font-family="Helvetica,sans-Serif" font-size="10.00">IsEnabled()</text>
<text text-anchor="start" x="155.07" y="-283" font-family="Helvetica,sans-Serif" font-size="10.00">#</text>
<text text-anchor="start" x="168.07" y="-283" font-family="Helvetica,sans-Serif" font-size="10.00">GenericEventHandler()</text>
<text text-anchor="start" x="157.57" y="-268" font-family="Helvetica,sans-Serif" font-size="10.00">&#45;</text>
<text text-anchor="start" x="168.07" y="-268" font-family="Helvetica,sans-Serif" font-size="10.00">ConvertWallTimeToMilliseconds()</text>
<text text-anchor="start" x="157.57" y="-253" font-family="Helvetica,sans-Serif" font-size="10.00">&#45;</text>
<text text-anchor="start" x="168.07" y="-253" font-family="Helvetica,sans-Serif" font-size="10.00">ConvertWallTimeToSeconds()</text>
<text text-anchor="start" x="157.57" y="-238" font-family="Helvetica,sans-Serif" font-size="10.00">&#45;</text>
<text text-anchor="start" x="168.07" y="-238" font-family="Helvetica,sans-Serif" font-size="10.00">ResetImpl()</text>
<text text-anchor="start" x="157.57" y="-223" font-family="Helvetica,sans-Serif" font-size="10.00">&#45;</text>
<text text-anchor="start" x="168.07" y="-223" font-family="Helvetica,sans-Serif" font-size="10.00">BeginEventImpl()</text>
<text text-anchor="start" x="157.57" y="-208" font-family="Helvetica,sans-Serif" font-size="10.00">&#45;</text>
<text text-anchor="start" x="168.07" y="-208" font-family="Helvetica,sans-Serif" font-size="10.00">EndEventImpl()</text>
<text text-anchor="start" x="157.57" y="-193" font-family="Helvetica,sans-Serif" font-size="10.00">&#45;</text>
<text text-anchor="start" x="168.07" y="-193" font-family="Helvetica,sans-Serif" font-size="10.00">GetElapsedTimeImpl()</text>
<text text-anchor="start" x="157.57" y="-178" font-family="Helvetica,sans-Serif" font-size="10.00">&#45;</text>
<text text-anchor="start" x="168.07" y="-178" font-family="Helvetica,sans-Serif" font-size="10.00">ReportImpl()</text>
<text text-anchor="start" x="157.57" y="-163" font-family="Helvetica,sans-Serif" font-size="10.00">&#45;</text>
<text text-anchor="start" x="168.07" y="-163" font-family="Helvetica,sans-Serif" font-size="10.00">HeadingsImpl()</text>
<text text-anchor="start" x="157.57" y="-148" font-family="Helvetica,sans-Serif" font-size="10.00">&#45;</text>
<text text-anchor="start" x="168.07" y="-148" font-family="Helvetica,sans-Serif" font-size="10.00">EnableImpl()</text>
<text text-anchor="start" x="157.57" y="-133" font-family="Helvetica,sans-Serif" font-size="10.00">&#45;</text>
<text text-anchor="start" x="168.07" y="-133" font-family="Helvetica,sans-Serif" font-size="10.00">DisableImpl()</text>
<text text-anchor="start" x="157.57" y="-118" font-family="Helvetica,sans-Serif" font-size="10.00">&#45;</text>
<text text-anchor="start" x="168.07" y="-118" font-family="Helvetica,sans-Serif" font-size="10.00">IsEnabledImpl()</text>
<text text-anchor="start" x="157.57" y="-103" font-family="Helvetica,sans-Serif" font-size="10.00">&#45;</text>
<text text-anchor="start" x="168.07" y="-103" font-family="Helvetica,sans-Serif" font-size="10.00">MilliSleep()</text>
<polygon fill="#666666" stroke="#666666" points="151.07,-458 151.07,-458 335.07,-458 335.07,-458 151.07,-458"/>
<polygon fill="#666666" stroke="#666666" points="151.07,-443 151.07,-443 335.07,-443 335.07,-443 151.07,-443"/>
<polygon fill="none" stroke="#666666" points="151.07,-96 151.07,-486 335.07,-486 335.07,-96 151.07,-96"/>
</a>
</g>
</g>
<!-- Node2&#45;&gt;Node1 -->
<g id="edge1_Node000001_Node000002" class="edge">
<title>Node2&#45;&gt;Node1</title>
<g id="a_edge1_Node000001_Node000002"><a xlink:title=" ">
<path fill="none" stroke="#63b8ff" d="M304.85,-85.72C309.1,-71.66 312.88,-59.17 315.88,-49.26"/>
<polygon fill="none" stroke="#63b8ff" points="301.38,-85.1 301.84,-95.69 308.08,-87.13 301.38,-85.1"/>
</a>
</g>
</g>
<!-- Node3 -->
<g id="Node000003" class="node">
<title>Node3</title>
<g id="a_Node000003"><a xlink:title=" ">
<polygon fill="white" stroke="transparent" points="127.57,-1030 30.57,-1030 30.57,-981 127.57,-981 127.57,-1030"/>
<text text-anchor="start" x="36.07" y="-1017.5" font-family="Helvetica,sans-Serif" font-size="10.00">vector&lt; double &gt;</text>
<text text-anchor="start" x="77.57" y="-1002.5" font-family="Helvetica,sans-Serif" font-size="10.00"> </text>
<text text-anchor="start" x="77.57" y="-987.5" font-family="Helvetica,sans-Serif" font-size="10.00"> </text>
<polygon fill="#bfbfbf" stroke="#bfbfbf" points="31.07,-1012.5 31.07,-1012.5 128.07,-1012.5 128.07,-1012.5 31.07,-1012.5"/>
<polygon fill="#bfbfbf" stroke="#bfbfbf" points="31.07,-997.5 31.07,-997.5 128.07,-997.5 128.07,-997.5 31.07,-997.5"/>
<polygon fill="none" stroke="#bfbfbf" points="30.57,-981 30.57,-1030 127.57,-1030 127.57,-981 30.57,-981"/>
</a>
</g>
</g>
<!-- Node3&#45;&gt;Node2 -->
<g id="edge2_Node000002_Node000003" class="edge">
<title>Node3&#45;&gt;Node2</title>
<g id="a_edge2_Node000002_Node000003"><a xlink:title=" ">
<path fill="none" stroke="#63b8ff" d="M63.35,-980.68C53.97,-965.01 42.97,-943.65 38.07,-923 -1.96,-754.35 -21.76,-695.68 38.07,-533 59.44,-474.88 101.74,-421.22 142.4,-379.35"/>
<polygon fill="none" stroke="#63b8ff" points="142.61,-379.14 143.98,-372.06 151.04,-370.6 149.67,-377.68 142.61,-379.14"/>
</a>
</g>
<text text-anchor="middle" x="69.57" y="-725.5" font-family="Helvetica,sans-Serif" font-size="10.00" fill="grey"> &#45;mWallTime</text>
</g>
<!-- Node6 -->
<g id="Node000006" class="node">
<title>Node6</title>
<g id="a_Node000006"><a xlink:href="classGenericEventHandler.html" target="_top" xlink:title=" ">
<polygon fill="white" stroke="transparent" points="294.07,-923 110.07,-923 110.07,-533 294.07,-533 294.07,-923"/>
<text text-anchor="start" x="127.07" y="-911" font-family="Helvetica,sans-Serif" font-size="10.00">GenericEventHandler</text>
<text text-anchor="start" x="127.07" y="-900" font-family="Helvetica,sans-Serif" font-size="10.00">&lt; NUM_EVENTS, CONCRETE &gt;</text>
<text text-anchor="start" x="200.07" y="-885" font-family="Helvetica,sans-Serif" font-size="10.00"> </text>
<text text-anchor="start" x="114.07" y="-870" font-family="Helvetica,sans-Serif" font-size="10.00">+</text>
<text text-anchor="start" x="127.07" y="-870" font-family="Helvetica,sans-Serif" font-size="10.00">Instance()</text>
<text text-anchor="start" x="114.07" y="-855" font-family="Helvetica,sans-Serif" font-size="10.00">+</text>
<text text-anchor="start" x="127.07" y="-855" font-family="Helvetica,sans-Serif" font-size="10.00">Reset()</text>
<text text-anchor="start" x="114.07" y="-840" font-family="Helvetica,sans-Serif" font-size="10.00">+</text>
<text text-anchor="start" x="127.07" y="-840" font-family="Helvetica,sans-Serif" font-size="10.00">BeginEvent()</text>
<text text-anchor="start" x="114.07" y="-825" font-family="Helvetica,sans-Serif" font-size="10.00">+</text>
<text text-anchor="start" x="127.07" y="-825" font-family="Helvetica,sans-Serif" font-size="10.00">EndEvent()</text>
<text text-anchor="start" x="114.07" y="-810" font-family="Helvetica,sans-Serif" font-size="10.00">+</text>
<text text-anchor="start" x="127.07" y="-810" font-family="Helvetica,sans-Serif" font-size="10.00">GetElapsedTime()</text>
<text text-anchor="start" x="114.07" y="-795" font-family="Helvetica,sans-Serif" font-size="10.00">+</text>
<text text-anchor="start" x="127.07" y="-795" font-family="Helvetica,sans-Serif" font-size="10.00">Report()</text>
<text text-anchor="start" x="114.07" y="-780" font-family="Helvetica,sans-Serif" font-size="10.00">+</text>
<text text-anchor="start" x="127.07" y="-780" font-family="Helvetica,sans-Serif" font-size="10.00">Headings()</text>
<text text-anchor="start" x="114.07" y="-765" font-family="Helvetica,sans-Serif" font-size="10.00">+</text>
<text text-anchor="start" x="127.07" y="-765" font-family="Helvetica,sans-Serif" font-size="10.00">Enable()</text>
<text text-anchor="start" x="114.07" y="-750" font-family="Helvetica,sans-Serif" font-size="10.00">+</text>
<text text-anchor="start" x="127.07" y="-750" font-family="Helvetica,sans-Serif" font-size="10.00">Disable()</text>
<text text-anchor="start" x="114.07" y="-735" font-family="Helvetica,sans-Serif" font-size="10.00">+</text>
<text text-anchor="start" x="127.07" y="-735" font-family="Helvetica,sans-Serif" font-size="10.00">IsEnabled()</text>
<text text-anchor="start" x="114.07" y="-720" font-family="Helvetica,sans-Serif" font-size="10.00">#</text>
<text text-anchor="start" x="127.07" y="-720" font-family="Helvetica,sans-Serif" font-size="10.00">GenericEventHandler()</text>
<text text-anchor="start" x="116.57" y="-705" font-family="Helvetica,sans-Serif" font-size="10.00">&#45;</text>
<text text-anchor="start" x="127.07" y="-705" font-family="Helvetica,sans-Serif" font-size="10.00">ConvertWallTimeToMilliseconds()</text>
<text text-anchor="start" x="116.57" y="-690" font-family="Helvetica,sans-Serif" font-size="10.00">&#45;</text>
<text text-anchor="start" x="127.07" y="-690" font-family="Helvetica,sans-Serif" font-size="10.00">ConvertWallTimeToSeconds()</text>
<text text-anchor="start" x="116.57" y="-675" font-family="Helvetica,sans-Serif" font-size="10.00">&#45;</text>
<text text-anchor="start" x="127.07" y="-675" font-family="Helvetica,sans-Serif" font-size="10.00">ResetImpl()</text>
<text text-anchor="start" x="116.57" y="-660" font-family="Helvetica,sans-Serif" font-size="10.00">&#45;</text>
<text text-anchor="start" x="127.07" y="-660" font-family="Helvetica,sans-Serif" font-size="10.00">BeginEventImpl()</text>
<text text-anchor="start" x="116.57" y="-645" font-family="Helvetica,sans-Serif" font-size="10.00">&#45;</text>
<text text-anchor="start" x="127.07" y="-645" font-family="Helvetica,sans-Serif" font-size="10.00">EndEventImpl()</text>
<text text-anchor="start" x="116.57" y="-630" font-family="Helvetica,sans-Serif" font-size="10.00">&#45;</text>
<text text-anchor="start" x="127.07" y="-630" font-family="Helvetica,sans-Serif" font-size="10.00">GetElapsedTimeImpl()</text>
<text text-anchor="start" x="116.57" y="-615" font-family="Helvetica,sans-Serif" font-size="10.00">&#45;</text>
<text text-anchor="start" x="127.07" y="-615" font-family="Helvetica,sans-Serif" font-size="10.00">ReportImpl()</text>
<text text-anchor="start" x="116.57" y="-600" font-family="Helvetica,sans-Serif" font-size="10.00">&#45;</text>
<text text-anchor="start" x="127.07" y="-600" font-family="Helvetica,sans-Serif" font-size="10.00">HeadingsImpl()</text>
<text text-anchor="start" x="116.57" y="-585" font-family="Helvetica,sans-Serif" font-size="10.00">&#45;</text>
<text text-anchor="start" x="127.07" y="-585" font-family="Helvetica,sans-Serif" font-size="10.00">EnableImpl()</text>
<text text-anchor="start" x="116.57" y="-570" font-family="Helvetica,sans-Serif" font-size="10.00">&#45;</text>
<text text-anchor="start" x="127.07" y="-570" font-family="Helvetica,sans-Serif" font-size="10.00">DisableImpl()</text>
<text text-anchor="start" x="116.57" y="-555" font-family="Helvetica,sans-Serif" font-size="10.00">&#45;</text>
<text text-anchor="start" x="127.07" y="-555" font-family="Helvetica,sans-Serif" font-size="10.00">IsEnabledImpl()</text>
<text text-anchor="start" x="116.57" y="-540" font-family="Helvetica,sans-Serif" font-size="10.00">&#45;</text>
<text text-anchor="start" x="127.07" y="-540" font-family="Helvetica,sans-Serif" font-size="10.00">MilliSleep()</text>
<polygon fill="#666666" stroke="#666666" points="110.07,-895 110.07,-895 294.07,-895 294.07,-895 110.07,-895"/>
<polygon fill="#666666" stroke="#666666" points="110.07,-880 110.07,-880 294.07,-880 294.07,-880 110.07,-880"/>
<polygon fill="none" stroke="#666666" points="110.07,-533 110.07,-923 294.07,-923 294.07,-533 110.07,-533"/>
</a>
</g>
</g>
<!-- Node3&#45;&gt;Node6 -->
<g id="edge6_Node000006_Node000003" class="edge">
<title>Node3&#45;&gt;Node6</title>
<g id="a_edge6_Node000006_Node000003"><a xlink:title=" ">
<path fill="none" stroke="#63b8ff" d="M89.77,-980.53C95.19,-968.39 102.33,-952.39 110.4,-934.32"/>
<polygon fill="none" stroke="#63b8ff" points="110.5,-934.1 109.29,-927 115.39,-923.15 116.59,-930.26 110.5,-934.1"/>
</a>
</g>
<text text-anchor="middle" x="137.57" y="-949.5" font-family="Helvetica,sans-Serif" font-size="10.00" fill="grey"> &#45;mWallTime</text>
</g>
<!-- Node4 -->
<g id="Node000004" class="node">
<title>Node4</title>
<g id="a_Node000004"><a xlink:title=" ">
<polygon fill="white" stroke="transparent" points="446.57,-1030 361.57,-1030 361.57,-981 446.57,-981 446.57,-1030"/>
<text text-anchor="start" x="367.07" y="-1017.5" font-family="Helvetica,sans-Serif" font-size="10.00">vector&lt; bool &gt;</text>
<text text-anchor="start" x="402.57" y="-1002.5" font-family="Helvetica,sans-Serif" font-size="10.00"> </text>
<text text-anchor="start" x="402.57" y="-987.5" font-family="Helvetica,sans-Serif" font-size="10.00"> </text>
<polygon fill="#bfbfbf" stroke="#bfbfbf" points="362.07,-1012.5 362.07,-1012.5 447.07,-1012.5 447.07,-1012.5 362.07,-1012.5"/>
<polygon fill="#bfbfbf" stroke="#bfbfbf" points="362.07,-997.5 362.07,-997.5 447.07,-997.5 447.07,-997.5 362.07,-997.5"/>
<polygon fill="none" stroke="#bfbfbf" points="361.57,-981 361.57,-1030 446.57,-1030 446.57,-981 361.57,-981"/>
</a>
</g>
</g>
<!-- Node4&#45;&gt;Node2 -->
<g id="edge3_Node000002_Node000004" class="edge">
<title>Node4&#45;&gt;Node2</title>
<g id="a_edge3_Node000002_Node000004"><a xlink:title=" ">
<path fill="none" stroke="#63b8ff" d="M412.58,-980.99C437.21,-908.65 501.68,-685.16 418.07,-533 399.3,-498.85 370.41,-514.71 344.07,-486 343.88,-485.8 343.7,-485.6 343.51,-485.4"/>
<polygon fill="none" stroke="#63b8ff" points="343.27,-485.11 336.31,-483.21 335.39,-476.06 342.35,-477.96 343.27,-485.11"/>
</a>
</g>
<text text-anchor="middle" x="492.57" y="-725.5" font-family="Helvetica,sans-Serif" font-size="10.00" fill="grey"> &#45;mHasBegun</text>
</g>
<!-- Node4&#45;&gt;Node6 -->
<g id="edge7_Node000006_Node000004" class="edge">
<title>Node4&#45;&gt;Node6</title>
<g id="a_edge7_Node000006_Node000004"><a xlink:title=" ">
<path fill="none" stroke="#63b8ff" d="M370.24,-980.72C350.49,-965.71 326.02,-945.04 308.07,-923 305.85,-920.28 303.66,-917.51 301.49,-914.69"/>
<polygon fill="none" stroke="#63b8ff" points="301.39,-914.55 294.6,-912.14 294.21,-904.94 301.01,-907.35 301.39,-914.55"/>
</a>
</g>
<text text-anchor="middle" x="380.57" y="-949.5" font-family="Helvetica,sans-Serif" font-size="10.00" fill="grey"> &#45;mHasBegun</text>
</g>
<!-- Node5 -->
<g id="Node000005" class="node">
<title>Node5</title>
<g id="a_Node000005"><a xlink:href="classbool.html" target="_top" xlink:title=" ">
<polygon fill="white" stroke="transparent" points="294.07,-1030 262.07,-1030 262.07,-981 294.07,-981 294.07,-1030"/>
<text text-anchor="start" x="267.07" y="-1017.5" font-family="Helvetica,sans-Serif" font-size="10.00">bool</text>
<text text-anchor="start" x="276.07" y="-1002.5" font-family="Helvetica,sans-Serif" font-size="10.00"> </text>
<text text-anchor="start" x="276.07" y="-987.5" font-family="Helvetica,sans-Serif" font-size="10.00"> </text>
<polygon fill="#bfbfbf" stroke="#bfbfbf" points="262.07,-1012.5 262.07,-1012.5 294.07,-1012.5 294.07,-1012.5 262.07,-1012.5"/>
<polygon fill="#bfbfbf" stroke="#bfbfbf" points="262.07,-997.5 262.07,-997.5 294.07,-997.5 294.07,-997.5 262.07,-997.5"/>
<polygon fill="none" stroke="#bfbfbf" points="262.07,-981 262.07,-1030 294.07,-1030 294.07,-981 262.07,-981"/>
</a>
</g>
</g>
<!-- Node5&#45;&gt;Node2 -->
<g id="edge4_Node000002_Node000005" class="edge">
<title>Node5&#45;&gt;Node2</title>
<g id="a_edge4_Node000002_Node000005"><a xlink:title=" ">
<path fill="none" stroke="#63b8ff" d="M294.46,-991.78C302.63,-984.38 311.68,-974.29 316.07,-963 389.97,-772.86 349.74,-705.2 316.07,-504 315.72,-501.95 315.36,-499.9 314.99,-497.84"/>
<polygon fill="none" stroke="#63b8ff" points="314.98,-497.78 309.89,-492.67 312.66,-486.01 317.74,-491.12 314.98,-497.78"/>
</a>
</g>
<text text-anchor="middle" x="386.07" y="-731" font-family="Helvetica,sans-Serif" font-size="10.00" fill="grey"> &#45;mEnabled</text>
<text text-anchor="middle" x="386.07" y="-720" font-family="Helvetica,sans-Serif" font-size="10.00" fill="grey">&#45;mInUse</text>
</g>
<!-- Node5&#45;&gt;Node6 -->
<g id="edge8_Node000006_Node000005" class="edge">
<title>Node5&#45;&gt;Node6</title>
<g id="a_edge8_Node000006_Node000005"><a xlink:title=" ">
<path fill="none" stroke="#63b8ff" d="M266.91,-980.63C264.47,-974.92 262.03,-968.8 260.07,-963 256.97,-953.84 253.96,-944.43 251.04,-934.88"/>
<polygon fill="none" stroke="#63b8ff" points="250.98,-934.67 245.43,-930.07 247.54,-923.18 253.09,-927.78 250.98,-934.67"/>
</a>
</g>
<text text-anchor="middle" x="288.07" y="-955" font-family="Helvetica,sans-Serif" font-size="10.00" fill="grey"> &#45;mEnabled</text>
<text text-anchor="middle" x="288.07" y="-944" font-family="Helvetica,sans-Serif" font-size="10.00" fill="grey">&#45;mInUse</text>
</g>
<!-- Node6&#45;&gt;Node2 -->
<g id="edge5_Node000002_Node000006" class="edge">
<title>Node6&#45;&gt;Node2</title>
<g id="a_edge5_Node000002_Node000006"><a xlink:title=" ">
<path fill="none" stroke="orange" d="M154.39,-522.76C154.98,-516.43 155.86,-510.17 157.07,-504 158.23,-498.06 159.55,-492.07 161.02,-486.06"/>
<polygon fill="orange" stroke="orange" points="150.9,-522.52 153.69,-532.74 157.88,-523 150.9,-522.52"/>
</a>
</g>
<text text-anchor="middle" x="236.57" y="-507" font-family="Helvetica,sans-Serif" font-size="10.00" fill="grey"> &lt; 11, CellBasedEventHandler &gt;</text>
</g>
<!-- Node7 -->
<g id="Node000007" class="node">
<title>Node7</title>
<g id="a_Node000007"><a xlink:title=" ">
<polygon fill="white" stroke="transparent" points="452.57,-315.5 353.57,-315.5 353.57,-266.5 452.57,-266.5 452.57,-315.5"/>
<text text-anchor="start" x="359.07" y="-303" font-family="Helvetica,sans-Serif" font-size="10.00">static const char *</text>
<text text-anchor="start" x="401.57" y="-288" font-family="Helvetica,sans-Serif" font-size="10.00"> </text>
<text text-anchor="start" x="401.57" y="-273" font-family="Helvetica,sans-Serif" font-size="10.00"> </text>
<polygon fill="#bfbfbf" stroke="#bfbfbf" points="354.07,-298 354.07,-298 453.07,-298 453.07,-298 354.07,-298"/>
<polygon fill="#bfbfbf" stroke="#bfbfbf" points="354.07,-283 354.07,-283 453.07,-283 453.07,-283 354.07,-283"/>
<polygon fill="none" stroke="#bfbfbf" points="353.57,-266.5 353.57,-315.5 452.57,-315.5 452.57,-266.5 353.57,-266.5"/>
</a>
</g>
</g>
<!-- Node7&#45;&gt;Node1 -->
<g id="edge9_Node000001_Node000007" class="edge">
<title>Node7&#45;&gt;Node1</title>
<g id="a_edge9_Node000001_Node000007"><a xlink:title=" ">
<path fill="none" stroke="#63b8ff" d="M395.83,-266.06C381.67,-219.24 350.25,-115.38 333.72,-60.71"/>
<polygon fill="none" stroke="#63b8ff" points="333.71,-60.68 328.14,-56.1 330.23,-49.19 335.8,-53.78 333.71,-60.68"/>
</a>
</g>
<text text-anchor="middle" x="373.57" y="-70" font-family="Helvetica,sans-Serif" font-size="10.00" fill="grey"> +EventName</text>
</g>
</g>
</svg>
