<?xml version="1.0" encoding="UTF-8" standalone="no"?>
<!DOCTYPE svg PUBLIC "-//W3C//DTD SVG 1.1//EN"
 "http://www.w3.org/Graphics/SVG/1.1/DTD/svg11.dtd">
<!-- Generated by graphviz version 2.43.0 (0)
 -->
<!-- Title: AbstractIncompressibleMaterialLaw&lt; DIM &gt; Pages: 1 -->
<svg width="939pt" height="1075pt"
 viewBox="0.00 0.00 939.00 1075.00" xmlns="http://www.w3.org/2000/svg" xmlns:xlink="http://www.w3.org/1999/xlink">
<g id="graph0" class="graph" transform="scale(1 1) rotate(0) translate(4 1071)">
<title>AbstractIncompressibleMaterialLaw&lt; DIM &gt;</title>
<!-- Node1 -->
<g id="Node000001" class="node">
<title>Node1</title>
<g id="a_Node000001"><a xlink:title=" ">
<polygon fill="#999999" stroke="transparent" points="548,-798 363,-798 363,-686 548,-686 548,-798"/>
<text text-anchor="start" x="378" y="-786" font-family="Helvetica,sans-Serif" font-size="10.00">AbstractIncompressibleMaterial</text>
<text text-anchor="start" x="425" y="-775" font-family="Helvetica,sans-Serif" font-size="10.00">Law&lt; DIM &gt;</text>
<text text-anchor="start" x="454" y="-760" font-family="Helvetica,sans-Serif" font-size="10.00"> </text>
<text text-anchor="start" x="367.5" y="-745" font-family="Helvetica,sans-Serif" font-size="10.00">+</text>
<text text-anchor="start" x="380.5" y="-745" font-family="Helvetica,sans-Serif" font-size="10.00">AbstractIncompressibleMaterial</text>
<text text-anchor="start" x="380.5" y="-734" font-family="Helvetica,sans-Serif" font-size="10.00">Law()</text>
<text text-anchor="start" x="367.5" y="-719" font-family="Helvetica,sans-Serif" font-size="10.00">+</text>
<text text-anchor="start" x="380.5" y="-719" font-family="Helvetica,sans-Serif" font-size="10.00">~AbstractIncompressibleMaterial</text>
<text text-anchor="start" x="380.5" y="-708" font-family="Helvetica,sans-Serif" font-size="10.00">Law()</text>
<text text-anchor="start" x="367.5" y="-693" font-family="Helvetica,sans-Serif" font-size="10.00">+</text>
<text text-anchor="start" x="380.5" y="-693" font-family="Helvetica,sans-Serif" font-size="10.00">GetZeroStrainPressure()</text>
<polygon fill="#666666" stroke="#666666" points="363.5,-770 363.5,-770 548.5,-770 548.5,-770 363.5,-770"/>
<polygon fill="#666666" stroke="#666666" points="363.5,-755 363.5,-755 548.5,-755 548.5,-755 363.5,-755"/>
<polygon fill="none" stroke="#666666" points="363,-686 363,-798 548,-798 548,-686 363,-686"/>
</a>
</g>
</g>
<!-- Node3 -->
<g id="Node000003" class="node">
<title>Node3</title>
<g id="a_Node000003"><a xlink:href="classAbstractIsotropicIncompressibleMaterialLaw.html" target="_top" xlink:title=" ">
<polygon fill="white" stroke="transparent" points="203,-399 0,-399 0,-208 203,-208 203,-399"/>
<text text-anchor="start" x="23.5" y="-386.5" font-family="Helvetica,sans-Serif" font-size="10.00">AbstractIsotropicIncompressible</text>
<text text-anchor="start" x="57.5" y="-375.5" font-family="Helvetica,sans-Serif" font-size="10.00">MaterialLaw&lt; 3 &gt;</text>
<text text-anchor="start" x="100" y="-360.5" font-family="Helvetica,sans-Serif" font-size="10.00"> </text>
<text text-anchor="start" x="4.5" y="-345.5" font-family="Helvetica,sans-Serif" font-size="10.00">+</text>
<text text-anchor="start" x="17.5" y="-345.5" font-family="Helvetica,sans-Serif" font-size="10.00">ComputeStressAndStressDerivative()</text>
<text text-anchor="start" x="4.5" y="-330.5" font-family="Helvetica,sans-Serif" font-size="10.00">+</text>
<text text-anchor="start" x="17.5" y="-330.5" font-family="Helvetica,sans-Serif" font-size="10.00">~AbstractIsotropicIncompressible</text>
<text text-anchor="start" x="17.5" y="-319.5" font-family="Helvetica,sans-Serif" font-size="10.00">MaterialLaw()</text>
<text text-anchor="start" x="4.5" y="-304.5" font-family="Helvetica,sans-Serif" font-size="10.00">+</text>
<text text-anchor="start" x="17.5" y="-304.5" font-family="Helvetica,sans-Serif" font-size="10.00">GetZeroStrainPressure()</text>
<text text-anchor="start" x="4.5" y="-289.5" font-family="Helvetica,sans-Serif" font-size="10.00">+</text>
<text text-anchor="start" x="17.5" y="-289.5" font-family="Helvetica,sans-Serif" font-size="10.00">GetZeroStrainPressure()</text>
<text text-anchor="start" x="4.5" y="-274.5" font-family="Helvetica,sans-Serif" font-size="10.00">#</text>
<text text-anchor="start" x="17.5" y="-274.5" font-family="Helvetica,sans-Serif" font-size="10.00">Get_dW_dI1()</text>
<text text-anchor="start" x="4.5" y="-259.5" font-family="Helvetica,sans-Serif" font-size="10.00">#</text>
<text text-anchor="start" x="17.5" y="-259.5" font-family="Helvetica,sans-Serif" font-size="10.00">Get_dW_dI2()</text>
<text text-anchor="start" x="4.5" y="-244.5" font-family="Helvetica,sans-Serif" font-size="10.00">#</text>
<text text-anchor="start" x="17.5" y="-244.5" font-family="Helvetica,sans-Serif" font-size="10.00">Get_d2W_dI1()</text>
<text text-anchor="start" x="4.5" y="-229.5" font-family="Helvetica,sans-Serif" font-size="10.00">#</text>
<text text-anchor="start" x="17.5" y="-229.5" font-family="Helvetica,sans-Serif" font-size="10.00">Get_d2W_dI2()</text>
<text text-anchor="start" x="4.5" y="-214.5" font-family="Helvetica,sans-Serif" font-size="10.00">#</text>
<text text-anchor="start" x="17.5" y="-214.5" font-family="Helvetica,sans-Serif" font-size="10.00">Get_d2W_dI1I2()</text>
<polygon fill="#666666" stroke="#666666" points="0.5,-370.5 0.5,-370.5 203.5,-370.5 203.5,-370.5 0.5,-370.5"/>
<polygon fill="#666666" stroke="#666666" points="0.5,-355.5 0.5,-355.5 203.5,-355.5 203.5,-355.5 0.5,-355.5"/>
<polygon fill="none" stroke="#666666" points="0,-208 0,-399 203,-399 203,-208 0,-208"/>
</a>
</g>
</g>
<!-- Node1&#45;&gt;Node3 -->
<g id="edge2_Node000001_Node000003" class="edge">
<title>Node1&#45;&gt;Node3</title>
<g id="a_edge2_Node000001_Node000003"><a xlink:title=" ">
<path fill="none" stroke="#63b8ff" d="M352.95,-720.07C303.29,-705.11 246.37,-680.11 208.5,-639 147.88,-573.19 121.6,-472.91 110.21,-399.31"/>
<polygon fill="none" stroke="#63b8ff" points="352.2,-723.5 362.78,-722.93 354.16,-716.77 352.2,-723.5"/>
</a>
</g>
</g>
<!-- Node5 -->
<g id="Node000005" class="node">
<title>Node5</title>
<g id="a_Node000005"><a xlink:href="classAbstractIsotropicIncompressibleMaterialLaw.html" target="_top" xlink:title=" ">
<polygon fill="white" stroke="transparent" points="421,-639 218,-639 218,-448 421,-448 421,-639"/>
<text text-anchor="start" x="241.5" y="-626.5" font-family="Helvetica,sans-Serif" font-size="10.00">AbstractIsotropicIncompressible</text>
<text text-anchor="start" x="268.5" y="-615.5" font-family="Helvetica,sans-Serif" font-size="10.00">MaterialLaw&lt; DIM &gt;</text>
<text text-anchor="start" x="318" y="-600.5" font-family="Helvetica,sans-Serif" font-size="10.00"> </text>
<text text-anchor="start" x="222.5" y="-585.5" font-family="Helvetica,sans-Serif" font-size="10.00">+</text>
<text text-anchor="start" x="235.5" y="-585.5" font-family="Helvetica,sans-Serif" font-size="10.00">ComputeStressAndStressDerivative()</text>
<text text-anchor="start" x="222.5" y="-570.5" font-family="Helvetica,sans-Serif" font-size="10.00">+</text>
<text text-anchor="start" x="235.5" y="-570.5" font-family="Helvetica,sans-Serif" font-size="10.00">~AbstractIsotropicIncompressible</text>
<text text-anchor="start" x="235.5" y="-559.5" font-family="Helvetica,sans-Serif" font-size="10.00">MaterialLaw()</text>
<text text-anchor="start" x="222.5" y="-544.5" font-family="Helvetica,sans-Serif" font-size="10.00">+</text>
<text text-anchor="start" x="235.5" y="-544.5" font-family="Helvetica,sans-Serif" font-size="10.00">GetZeroStrainPressure()</text>
<text text-anchor="start" x="222.5" y="-529.5" font-family="Helvetica,sans-Serif" font-size="10.00">+</text>
<text text-anchor="start" x="235.5" y="-529.5" font-family="Helvetica,sans-Serif" font-size="10.00">GetZeroStrainPressure()</text>
<text text-anchor="start" x="222.5" y="-514.5" font-family="Helvetica,sans-Serif" font-size="10.00">#</text>
<text text-anchor="start" x="235.5" y="-514.5" font-family="Helvetica,sans-Serif" font-size="10.00">Get_dW_dI1()</text>
<text text-anchor="start" x="222.5" y="-499.5" font-family="Helvetica,sans-Serif" font-size="10.00">#</text>
<text text-anchor="start" x="235.5" y="-499.5" font-family="Helvetica,sans-Serif" font-size="10.00">Get_dW_dI2()</text>
<text text-anchor="start" x="222.5" y="-484.5" font-family="Helvetica,sans-Serif" font-size="10.00">#</text>
<text text-anchor="start" x="235.5" y="-484.5" font-family="Helvetica,sans-Serif" font-size="10.00">Get_d2W_dI1()</text>
<text text-anchor="start" x="222.5" y="-469.5" font-family="Helvetica,sans-Serif" font-size="10.00">#</text>
<text text-anchor="start" x="235.5" y="-469.5" font-family="Helvetica,sans-Serif" font-size="10.00">Get_d2W_dI2()</text>
<text text-anchor="start" x="222.5" y="-454.5" font-family="Helvetica,sans-Serif" font-size="10.00">#</text>
<text text-anchor="start" x="235.5" y="-454.5" font-family="Helvetica,sans-Serif" font-size="10.00">Get_d2W_dI1I2()</text>
<polygon fill="#666666" stroke="#666666" points="218.5,-610.5 218.5,-610.5 421.5,-610.5 421.5,-610.5 218.5,-610.5"/>
<polygon fill="#666666" stroke="#666666" points="218.5,-595.5 218.5,-595.5 421.5,-595.5 421.5,-595.5 218.5,-595.5"/>
<polygon fill="none" stroke="#666666" points="218,-448 218,-639 421,-639 421,-448 218,-448"/>
</a>
</g>
</g>
<!-- Node1&#45;&gt;Node5 -->
<g id="edge4_Node000001_Node000005" class="edge">
<title>Node1&#45;&gt;Node5</title>
<g id="a_edge4_Node000001_Node000005"><a xlink:title=" ">
<path fill="none" stroke="#63b8ff" d="M411.49,-677.41C403.02,-665.18 393.99,-652.12 385.01,-639.15"/>
<polygon fill="none" stroke="#63b8ff" points="408.69,-679.51 417.25,-685.74 414.44,-675.53 408.69,-679.51"/>
</a>
</g>
</g>
<!-- Node8 -->
<g id="Node000008" class="node">
<title>Node8</title>
<g id="a_Node000008"><a xlink:href="classPoleZeroMaterialLaw.html" target="_top" xlink:title=" ">
<polygon fill="white" stroke="transparent" points="655,-633.5 452,-633.5 452,-453.5 655,-453.5 655,-633.5"/>
<text text-anchor="start" x="502" y="-621.5" font-family="Helvetica,sans-Serif" font-size="10.00">PoleZeroMaterialLaw</text>
<text text-anchor="start" x="532.5" y="-610.5" font-family="Helvetica,sans-Serif" font-size="10.00">&lt; DIM &gt;</text>
<text text-anchor="start" x="459" y="-595.5" font-family="Helvetica,sans-Serif" font-size="10.00">&#45;</text>
<text text-anchor="start" x="469.5" y="-595.5" font-family="Helvetica,sans-Serif" font-size="10.00">mK</text>
<text text-anchor="start" x="459" y="-580.5" font-family="Helvetica,sans-Serif" font-size="10.00">&#45;</text>
<text text-anchor="start" x="469.5" y="-580.5" font-family="Helvetica,sans-Serif" font-size="10.00">mA</text>
<text text-anchor="start" x="459" y="-565.5" font-family="Helvetica,sans-Serif" font-size="10.00">&#45;</text>
<text text-anchor="start" x="469.5" y="-565.5" font-family="Helvetica,sans-Serif" font-size="10.00">mB</text>
<text text-anchor="start" x="459" y="-550.5" font-family="Helvetica,sans-Serif" font-size="10.00">&#45;</text>
<text text-anchor="start" x="469.5" y="-550.5" font-family="Helvetica,sans-Serif" font-size="10.00">mIdentity</text>
<text text-anchor="start" x="456.5" y="-535.5" font-family="Helvetica,sans-Serif" font-size="10.00">+</text>
<text text-anchor="start" x="469.5" y="-535.5" font-family="Helvetica,sans-Serif" font-size="10.00">PoleZeroMaterialLaw()</text>
<text text-anchor="start" x="456.5" y="-520.5" font-family="Helvetica,sans-Serif" font-size="10.00">+</text>
<text text-anchor="start" x="469.5" y="-520.5" font-family="Helvetica,sans-Serif" font-size="10.00">ComputeStressAndStressDerivative()</text>
<text text-anchor="start" x="456.5" y="-505.5" font-family="Helvetica,sans-Serif" font-size="10.00">+</text>
<text text-anchor="start" x="469.5" y="-505.5" font-family="Helvetica,sans-Serif" font-size="10.00">GetZeroStrainPressure()</text>
<text text-anchor="start" x="456.5" y="-490.5" font-family="Helvetica,sans-Serif" font-size="10.00">+</text>
<text text-anchor="start" x="469.5" y="-490.5" font-family="Helvetica,sans-Serif" font-size="10.00">ScaleMaterialParameters()</text>
<text text-anchor="start" x="456.5" y="-475.5" font-family="Helvetica,sans-Serif" font-size="10.00">#</text>
<text text-anchor="start" x="469.5" y="-475.5" font-family="Helvetica,sans-Serif" font-size="10.00">PoleZeroMaterialLaw()</text>
<text text-anchor="start" x="456.5" y="-460.5" font-family="Helvetica,sans-Serif" font-size="10.00">#</text>
<text text-anchor="start" x="469.5" y="-460.5" font-family="Helvetica,sans-Serif" font-size="10.00">SetParameters()</text>
<polygon fill="#666666" stroke="#666666" points="452.5,-605.5 452.5,-605.5 655.5,-605.5 655.5,-605.5 452.5,-605.5"/>
<polygon fill="#666666" stroke="#666666" points="452.5,-545.5 452.5,-545.5 467.5,-545.5 467.5,-545.5 452.5,-545.5"/>
<polygon fill="#666666" stroke="#666666" points="467.5,-545.5 467.5,-545.5 655.5,-545.5 655.5,-545.5 467.5,-545.5"/>
<polygon fill="none" stroke="#666666" points="452,-453.5 452,-633.5 655,-633.5 655,-453.5 452,-453.5"/>
</a>
</g>
</g>
<!-- Node1&#45;&gt;Node8 -->
<g id="edge8_Node000001_Node000008" class="edge">
<title>Node1&#45;&gt;Node8</title>
<g id="a_edge8_Node000001_Node000008"><a xlink:title=" ">
<path fill="none" stroke="#63b8ff" d="M487.71,-676.42C494.55,-662.7 501.89,-647.99 509.09,-633.55"/>
<polygon fill="none" stroke="#63b8ff" points="484.39,-675.23 483.06,-685.74 490.65,-678.35 484.39,-675.23"/>
</a>
</g>
</g>
<!-- Node10 -->
<g id="Node000010" class="node">
<title>Node10</title>
<g id="a_Node000010"><a xlink:href="classAbstractIncompressibleMaterialLaw.html" target="_top" xlink:title=" ">
<polygon fill="white" stroke="transparent" points="909,-599.5 724,-599.5 724,-487.5 909,-487.5 909,-599.5"/>
<text text-anchor="start" x="739" y="-587.5" font-family="Helvetica,sans-Serif" font-size="10.00">AbstractIncompressibleMaterial</text>
<text text-anchor="start" x="792.5" y="-576.5" font-family="Helvetica,sans-Serif" font-size="10.00">Law&lt; 2 &gt;</text>
<text text-anchor="start" x="815" y="-561.5" font-family="Helvetica,sans-Serif" font-size="10.00"> </text>
<text text-anchor="start" x="728.5" y="-546.5" font-family="Helvetica,sans-Serif" font-size="10.00">+</text>
<text text-anchor="start" x="741.5" y="-546.5" font-family="Helvetica,sans-Serif" font-size="10.00">AbstractIncompressibleMaterial</text>
<text text-anchor="start" x="741.5" y="-535.5" font-family="Helvetica,sans-Serif" font-size="10.00">Law()</text>
<text text-anchor="start" x="728.5" y="-520.5" font-family="Helvetica,sans-Serif" font-size="10.00">+</text>
<text text-anchor="start" x="741.5" y="-520.5" font-family="Helvetica,sans-Serif" font-size="10.00">~AbstractIncompressibleMaterial</text>
<text text-anchor="start" x="741.5" y="-509.5" font-family="Helvetica,sans-Serif" font-size="10.00">Law()</text>
<text text-anchor="start" x="728.5" y="-494.5" font-family="Helvetica,sans-Serif" font-size="10.00">+</text>
<text text-anchor="start" x="741.5" y="-494.5" font-family="Helvetica,sans-Serif" font-size="10.00">GetZeroStrainPressure()</text>
<polygon fill="#666666" stroke="#666666" points="724.5,-571.5 724.5,-571.5 909.5,-571.5 909.5,-571.5 724.5,-571.5"/>
<polygon fill="#666666" stroke="#666666" points="724.5,-556.5 724.5,-556.5 909.5,-556.5 909.5,-556.5 724.5,-556.5"/>
<polygon fill="none" stroke="#666666" points="724,-487.5 724,-599.5 909,-599.5 909,-487.5 724,-487.5"/>
</a>
</g>
</g>
<!-- Node1&#45;&gt;Node10 -->
<g id="edge10_Node000001_Node000010" class="edge">
<title>Node1&#45;&gt;Node10</title>
<g id="a_edge10_Node000001_Node000010"><a xlink:title=" ">
<path fill="none" stroke="orange" d="M557.18,-693.58C591.34,-677.01 629.4,-657.83 663.5,-639 685.5,-626.85 708.79,-613 730.39,-599.71"/>
<polygon fill="orange" stroke="orange" points="555.61,-690.46 548.13,-697.96 558.65,-696.76 555.61,-690.46"/>
</a>
</g>
<text text-anchor="middle" x="639.5" y="-660" font-family="Helvetica,sans-Serif" font-size="10.00" fill="grey"> &lt; 2 &gt;</text>
</g>
<!-- Node2 -->
<g id="Node000002" class="node">
<title>Node2</title>
<g id="a_Node000002"><a xlink:href="classAbstractMaterialLaw.html" target="_top" xlink:title=" ">
<polygon fill="white" stroke="transparent" points="557,-1067 354,-1067 354,-835 557,-835 557,-1067"/>
<text text-anchor="start" x="405.5" y="-1055" font-family="Helvetica,sans-Serif" font-size="10.00">AbstractMaterialLaw</text>
<text text-anchor="start" x="434.5" y="-1044" font-family="Helvetica,sans-Serif" font-size="10.00">&lt; DIM &gt;</text>
<text text-anchor="start" x="358.5" y="-1029" font-family="Helvetica,sans-Serif" font-size="10.00">#</text>
<text text-anchor="start" x="371.5" y="-1029" font-family="Helvetica,sans-Serif" font-size="10.00">mpChangeOfBasisMatrix</text>
<text text-anchor="start" x="358.5" y="-1014" font-family="Helvetica,sans-Serif" font-size="10.00">+</text>
<text text-anchor="start" x="371.5" y="-1014" font-family="Helvetica,sans-Serif" font-size="10.00">AbstractMaterialLaw()</text>
<text text-anchor="start" x="358.5" y="-999" font-family="Helvetica,sans-Serif" font-size="10.00">+</text>
<text text-anchor="start" x="371.5" y="-999" font-family="Helvetica,sans-Serif" font-size="10.00">~AbstractMaterialLaw()</text>
<text text-anchor="start" x="358.5" y="-984" font-family="Helvetica,sans-Serif" font-size="10.00">+</text>
<text text-anchor="start" x="371.5" y="-984" font-family="Helvetica,sans-Serif" font-size="10.00">ComputeStressAndStressDerivative()</text>
<text text-anchor="start" x="358.5" y="-969" font-family="Helvetica,sans-Serif" font-size="10.00">+</text>
<text text-anchor="start" x="371.5" y="-969" font-family="Helvetica,sans-Serif" font-size="10.00">ComputeCauchyStress()</text>
<text text-anchor="start" x="358.5" y="-954" font-family="Helvetica,sans-Serif" font-size="10.00">+</text>
<text text-anchor="start" x="371.5" y="-954" font-family="Helvetica,sans-Serif" font-size="10.00">Compute1stPiolaKirchoffStress()</text>
<text text-anchor="start" x="358.5" y="-939" font-family="Helvetica,sans-Serif" font-size="10.00">+</text>
<text text-anchor="start" x="371.5" y="-939" font-family="Helvetica,sans-Serif" font-size="10.00">Compute2ndPiolaKirchoffStress()</text>
<text text-anchor="start" x="358.5" y="-924" font-family="Helvetica,sans-Serif" font-size="10.00">+</text>
<text text-anchor="start" x="371.5" y="-924" font-family="Helvetica,sans-Serif" font-size="10.00">ScaleMaterialParameters()</text>
<text text-anchor="start" x="358.5" y="-909" font-family="Helvetica,sans-Serif" font-size="10.00">+</text>
<text text-anchor="start" x="371.5" y="-909" font-family="Helvetica,sans-Serif" font-size="10.00">SetChangeOfBasisMatrix()</text>
<text text-anchor="start" x="358.5" y="-894" font-family="Helvetica,sans-Serif" font-size="10.00">+</text>
<text text-anchor="start" x="371.5" y="-894" font-family="Helvetica,sans-Serif" font-size="10.00">ResetToNoChangeOfBasisMatrix()</text>
<text text-anchor="start" x="358.5" y="-879" font-family="Helvetica,sans-Serif" font-size="10.00">#</text>
<text text-anchor="start" x="371.5" y="-879" font-family="Helvetica,sans-Serif" font-size="10.00">ComputeTransformedDeformation</text>
<text text-anchor="start" x="371.5" y="-868" font-family="Helvetica,sans-Serif" font-size="10.00">Tensor()</text>
<text text-anchor="start" x="358.5" y="-853" font-family="Helvetica,sans-Serif" font-size="10.00">#</text>
<text text-anchor="start" x="371.5" y="-853" font-family="Helvetica,sans-Serif" font-size="10.00">TransformStressAndStress</text>
<text text-anchor="start" x="371.5" y="-842" font-family="Helvetica,sans-Serif" font-size="10.00">Derivative()</text>
<polygon fill="#666666" stroke="#666666" points="354.5,-1039 354.5,-1039 557.5,-1039 557.5,-1039 354.5,-1039"/>
<polygon fill="#666666" stroke="#666666" points="354.5,-1024 354.5,-1024 369.5,-1024 369.5,-1024 354.5,-1024"/>
<polygon fill="#666666" stroke="#666666" points="369.5,-1024 369.5,-1024 557.5,-1024 557.5,-1024 369.5,-1024"/>
<polygon fill="none" stroke="#666666" points="354,-835 354,-1067 557,-1067 557,-835 354,-835"/>
</a>
</g>
</g>
<!-- Node2&#45;&gt;Node1 -->
<g id="edge1_Node000001_Node000002" class="edge">
<title>Node2&#45;&gt;Node1</title>
<g id="a_edge1_Node000001_Node000002"><a xlink:title=" ">
<path fill="none" stroke="#63b8ff" d="M455.5,-824.9C455.5,-815.67 455.5,-806.68 455.5,-798.25"/>
<polygon fill="none" stroke="#63b8ff" points="452,-825 455.5,-835 459,-825 452,-825"/>
</a>
</g>
</g>
<!-- Node4 -->
<g id="Node000004" class="node">
<title>Node4</title>
<g id="a_Node000004"><a xlink:href="classPolynomialMaterialLaw3d.html" target="_top" xlink:title=" ">
<polygon fill="white" stroke="transparent" points="179.5,-169 23.5,-169 23.5,0 179.5,0 179.5,-169"/>
<text text-anchor="start" x="38" y="-156.5" font-family="Helvetica,sans-Serif" font-size="10.00">PolynomialMaterialLaw3d</text>
<text text-anchor="start" x="30" y="-141.5" font-family="Helvetica,sans-Serif" font-size="10.00">&#45;</text>
<text text-anchor="start" x="40.5" y="-141.5" font-family="Helvetica,sans-Serif" font-size="10.00">mN</text>
<text text-anchor="start" x="30" y="-126.5" font-family="Helvetica,sans-Serif" font-size="10.00">&#45;</text>
<text text-anchor="start" x="40.5" y="-126.5" font-family="Helvetica,sans-Serif" font-size="10.00">mAlpha</text>
<text text-anchor="start" x="27.5" y="-111.5" font-family="Helvetica,sans-Serif" font-size="10.00">+</text>
<text text-anchor="start" x="40.5" y="-111.5" font-family="Helvetica,sans-Serif" font-size="10.00">Get_dW_dI1()</text>
<text text-anchor="start" x="27.5" y="-96.5" font-family="Helvetica,sans-Serif" font-size="10.00">+</text>
<text text-anchor="start" x="40.5" y="-96.5" font-family="Helvetica,sans-Serif" font-size="10.00">Get_dW_dI2()</text>
<text text-anchor="start" x="27.5" y="-81.5" font-family="Helvetica,sans-Serif" font-size="10.00">+</text>
<text text-anchor="start" x="40.5" y="-81.5" font-family="Helvetica,sans-Serif" font-size="10.00">Get_d2W_dI1()</text>
<text text-anchor="start" x="27.5" y="-66.5" font-family="Helvetica,sans-Serif" font-size="10.00">+</text>
<text text-anchor="start" x="40.5" y="-66.5" font-family="Helvetica,sans-Serif" font-size="10.00">Get_d2W_dI2()</text>
<text text-anchor="start" x="27.5" y="-51.5" font-family="Helvetica,sans-Serif" font-size="10.00">+</text>
<text text-anchor="start" x="40.5" y="-51.5" font-family="Helvetica,sans-Serif" font-size="10.00">Get_d2W_dI1I2()</text>
<text text-anchor="start" x="27.5" y="-36.5" font-family="Helvetica,sans-Serif" font-size="10.00">+</text>
<text text-anchor="start" x="40.5" y="-36.5" font-family="Helvetica,sans-Serif" font-size="10.00">GetAlpha()</text>
<text text-anchor="start" x="27.5" y="-21.5" font-family="Helvetica,sans-Serif" font-size="10.00">+</text>
<text text-anchor="start" x="40.5" y="-21.5" font-family="Helvetica,sans-Serif" font-size="10.00">PolynomialMaterialLaw3d()</text>
<text text-anchor="start" x="27.5" y="-6.5" font-family="Helvetica,sans-Serif" font-size="10.00">+</text>
<text text-anchor="start" x="40.5" y="-6.5" font-family="Helvetica,sans-Serif" font-size="10.00">GetZeroedAlpha()</text>
<polygon fill="#666666" stroke="#666666" points="23.5,-151.5 23.5,-151.5 179.5,-151.5 179.5,-151.5 23.5,-151.5"/>
<polygon fill="#666666" stroke="#666666" points="23.5,-121.5 23.5,-121.5 38.5,-121.5 38.5,-121.5 23.5,-121.5"/>
<polygon fill="#666666" stroke="#666666" points="38.5,-121.5 38.5,-121.5 179.5,-121.5 179.5,-121.5 38.5,-121.5"/>
<polygon fill="none" stroke="#666666" points="23.5,0 23.5,-169 179.5,-169 179.5,0 23.5,0"/>
</a>
</g>
</g>
<!-- Node3&#45;&gt;Node4 -->
<g id="edge3_Node000003_Node000004" class="edge">
<title>Node3&#45;&gt;Node4</title>
<g id="a_edge3_Node000003_Node000004"><a xlink:title=" ">
<path fill="none" stroke="#63b8ff" d="M101.5,-197.93C101.5,-188.28 101.5,-178.6 101.5,-169.18"/>
<polygon fill="none" stroke="#63b8ff" points="98,-197.95 101.5,-207.95 105,-197.95 98,-197.95"/>
</a>
</g>
</g>
<!-- Node5&#45;&gt;Node3 -->
<g id="edge7_Node000005_Node000003" class="edge">
<title>Node5&#45;&gt;Node3</title>
<g id="a_edge7_Node000005_Node000003"><a xlink:title=" ">
<path fill="none" stroke="orange" d="M225.83,-440.24C213.39,-426.65 200.67,-412.77 188.34,-399.31"/>
<polygon fill="orange" stroke="orange" points="223.38,-442.74 232.71,-447.75 228.54,-438.01 223.38,-442.74"/>
</a>
</g>
<text text-anchor="middle" x="226.5" y="-422" font-family="Helvetica,sans-Serif" font-size="10.00" fill="grey"> &lt; 3 &gt;</text>
</g>
<!-- Node6 -->
<g id="Node000006" class="node">
<title>Node6</title>
<g id="a_Node000006"><a xlink:href="classExponentialMaterialLaw.html" target="_top" xlink:title=" ">
<polygon fill="white" stroke="transparent" points="368,-393.5 221,-393.5 221,-213.5 368,-213.5 368,-393.5"/>
<text text-anchor="start" x="236" y="-381.5" font-family="Helvetica,sans-Serif" font-size="10.00">ExponentialMaterialLaw</text>
<text text-anchor="start" x="273.5" y="-370.5" font-family="Helvetica,sans-Serif" font-size="10.00">&lt; DIM &gt;</text>
<text text-anchor="start" x="228" y="-355.5" font-family="Helvetica,sans-Serif" font-size="10.00">&#45;</text>
<text text-anchor="start" x="238.5" y="-355.5" font-family="Helvetica,sans-Serif" font-size="10.00">mA</text>
<text text-anchor="start" x="228" y="-340.5" font-family="Helvetica,sans-Serif" font-size="10.00">&#45;</text>
<text text-anchor="start" x="238.5" y="-340.5" font-family="Helvetica,sans-Serif" font-size="10.00">mB</text>
<text text-anchor="start" x="225.5" y="-325.5" font-family="Helvetica,sans-Serif" font-size="10.00">+</text>
<text text-anchor="start" x="238.5" y="-325.5" font-family="Helvetica,sans-Serif" font-size="10.00">Get_dW_dI1()</text>
<text text-anchor="start" x="225.5" y="-310.5" font-family="Helvetica,sans-Serif" font-size="10.00">+</text>
<text text-anchor="start" x="238.5" y="-310.5" font-family="Helvetica,sans-Serif" font-size="10.00">Get_dW_dI2()</text>
<text text-anchor="start" x="225.5" y="-295.5" font-family="Helvetica,sans-Serif" font-size="10.00">+</text>
<text text-anchor="start" x="238.5" y="-295.5" font-family="Helvetica,sans-Serif" font-size="10.00">Get_d2W_dI1()</text>
<text text-anchor="start" x="225.5" y="-280.5" font-family="Helvetica,sans-Serif" font-size="10.00">+</text>
<text text-anchor="start" x="238.5" y="-280.5" font-family="Helvetica,sans-Serif" font-size="10.00">Get_d2W_dI2()</text>
<text text-anchor="start" x="225.5" y="-265.5" font-family="Helvetica,sans-Serif" font-size="10.00">+</text>
<text text-anchor="start" x="238.5" y="-265.5" font-family="Helvetica,sans-Serif" font-size="10.00">Get_d2W_dI1I2()</text>
<text text-anchor="start" x="225.5" y="-250.5" font-family="Helvetica,sans-Serif" font-size="10.00">+</text>
<text text-anchor="start" x="238.5" y="-250.5" font-family="Helvetica,sans-Serif" font-size="10.00">GetA()</text>
<text text-anchor="start" x="225.5" y="-235.5" font-family="Helvetica,sans-Serif" font-size="10.00">+</text>
<text text-anchor="start" x="238.5" y="-235.5" font-family="Helvetica,sans-Serif" font-size="10.00">GetB()</text>
<text text-anchor="start" x="225.5" y="-220.5" font-family="Helvetica,sans-Serif" font-size="10.00">+</text>
<text text-anchor="start" x="238.5" y="-220.5" font-family="Helvetica,sans-Serif" font-size="10.00">ExponentialMaterialLaw()</text>
<polygon fill="#666666" stroke="#666666" points="221.5,-365.5 221.5,-365.5 368.5,-365.5 368.5,-365.5 221.5,-365.5"/>
<polygon fill="#666666" stroke="#666666" points="221.5,-335.5 221.5,-335.5 236.5,-335.5 236.5,-335.5 221.5,-335.5"/>
<polygon fill="#666666" stroke="#666666" points="236.5,-335.5 236.5,-335.5 368.5,-335.5 368.5,-335.5 236.5,-335.5"/>
<polygon fill="none" stroke="#666666" points="221,-213.5 221,-393.5 368,-393.5 368,-213.5 221,-213.5"/>
</a>
</g>
</g>
<!-- Node5&#45;&gt;Node6 -->
<g id="edge5_Node000005_Node000006" class="edge">
<title>Node5&#45;&gt;Node6</title>
<g id="a_edge5_Node000005_Node000006"><a xlink:title=" ">
<path fill="none" stroke="#63b8ff" d="M308.48,-437.62C306.94,-422.9 305.36,-407.89 303.85,-393.51"/>
<polygon fill="none" stroke="#63b8ff" points="305.02,-438.17 309.55,-447.75 311.98,-437.44 305.02,-438.17"/>
</a>
</g>
</g>
<!-- Node7 -->
<g id="Node000007" class="node">
<title>Node7</title>
<g id="a_Node000007"><a xlink:href="classMooneyRivlinMaterialLaw.html" target="_top" xlink:title=" ">
<polygon fill="white" stroke="transparent" points="542.5,-401 386.5,-401 386.5,-206 542.5,-206 542.5,-401"/>
<text text-anchor="start" x="401" y="-388.5" font-family="Helvetica,sans-Serif" font-size="10.00">MooneyRivlinMaterialLaw</text>
<text text-anchor="start" x="443" y="-377.5" font-family="Helvetica,sans-Serif" font-size="10.00">&lt; DIM &gt;</text>
<text text-anchor="start" x="393" y="-362.5" font-family="Helvetica,sans-Serif" font-size="10.00">&#45;</text>
<text text-anchor="start" x="403.5" y="-362.5" font-family="Helvetica,sans-Serif" font-size="10.00">mC1</text>
<text text-anchor="start" x="393" y="-347.5" font-family="Helvetica,sans-Serif" font-size="10.00">&#45;</text>
<text text-anchor="start" x="403.5" y="-347.5" font-family="Helvetica,sans-Serif" font-size="10.00">mC2</text>
<text text-anchor="start" x="390.5" y="-332.5" font-family="Helvetica,sans-Serif" font-size="10.00">+</text>
<text text-anchor="start" x="403.5" y="-332.5" font-family="Helvetica,sans-Serif" font-size="10.00">Get_dW_dI1()</text>
<text text-anchor="start" x="390.5" y="-317.5" font-family="Helvetica,sans-Serif" font-size="10.00">+</text>
<text text-anchor="start" x="403.5" y="-317.5" font-family="Helvetica,sans-Serif" font-size="10.00">Get_dW_dI2()</text>
<text text-anchor="start" x="390.5" y="-302.5" font-family="Helvetica,sans-Serif" font-size="10.00">+</text>
<text text-anchor="start" x="403.5" y="-302.5" font-family="Helvetica,sans-Serif" font-size="10.00">Get_d2W_dI1()</text>
<text text-anchor="start" x="390.5" y="-287.5" font-family="Helvetica,sans-Serif" font-size="10.00">+</text>
<text text-anchor="start" x="403.5" y="-287.5" font-family="Helvetica,sans-Serif" font-size="10.00">Get_d2W_dI2()</text>
<text text-anchor="start" x="390.5" y="-272.5" font-family="Helvetica,sans-Serif" font-size="10.00">+</text>
<text text-anchor="start" x="403.5" y="-272.5" font-family="Helvetica,sans-Serif" font-size="10.00">Get_d2W_dI1I2()</text>
<text text-anchor="start" x="390.5" y="-257.5" font-family="Helvetica,sans-Serif" font-size="10.00">+</text>
<text text-anchor="start" x="403.5" y="-257.5" font-family="Helvetica,sans-Serif" font-size="10.00">GetC1()</text>
<text text-anchor="start" x="390.5" y="-242.5" font-family="Helvetica,sans-Serif" font-size="10.00">+</text>
<text text-anchor="start" x="403.5" y="-242.5" font-family="Helvetica,sans-Serif" font-size="10.00">GetC2()</text>
<text text-anchor="start" x="390.5" y="-227.5" font-family="Helvetica,sans-Serif" font-size="10.00">+</text>
<text text-anchor="start" x="403.5" y="-227.5" font-family="Helvetica,sans-Serif" font-size="10.00">MooneyRivlinMaterialLaw()</text>
<text text-anchor="start" x="390.5" y="-212.5" font-family="Helvetica,sans-Serif" font-size="10.00">+</text>
<text text-anchor="start" x="403.5" y="-212.5" font-family="Helvetica,sans-Serif" font-size="10.00">ScaleMaterialParameters()</text>
<polygon fill="#666666" stroke="#666666" points="386.5,-372.5 386.5,-372.5 542.5,-372.5 542.5,-372.5 386.5,-372.5"/>
<polygon fill="#666666" stroke="#666666" points="386.5,-342.5 386.5,-342.5 401.5,-342.5 401.5,-342.5 386.5,-342.5"/>
<polygon fill="#666666" stroke="#666666" points="401.5,-342.5 401.5,-342.5 542.5,-342.5 542.5,-342.5 401.5,-342.5"/>
<polygon fill="none" stroke="#666666" points="386.5,-206 386.5,-401 542.5,-401 542.5,-206 386.5,-206"/>
</a>
</g>
</g>
<!-- Node5&#45;&gt;Node7 -->
<g id="edge6_Node000005_Node000007" class="edge">
<title>Node5&#45;&gt;Node7</title>
<g id="a_edge6_Node000005_Node000007"><a xlink:title=" ">
<path fill="none" stroke="#63b8ff" d="M382.5,-439.1C390.15,-426.53 397.96,-413.72 405.55,-401.26"/>
<polygon fill="none" stroke="#63b8ff" points="379.44,-437.39 377.22,-447.75 385.42,-441.03 379.44,-437.39"/>
</a>
</g>
</g>
<!-- Node9 -->
<g id="Node000009" class="node">
<title>Node9</title>
<g id="a_Node000009"><a xlink:href="classNashHunterPoleZeroLaw.html" target="_top" xlink:title=" ">
<polygon fill="white" stroke="transparent" points="710.5,-348.5 560.5,-348.5 560.5,-258.5 710.5,-258.5 710.5,-348.5"/>
<text text-anchor="start" x="575" y="-336.5" font-family="Helvetica,sans-Serif" font-size="10.00">NashHunterPoleZeroLaw</text>
<text text-anchor="start" x="614" y="-325.5" font-family="Helvetica,sans-Serif" font-size="10.00">&lt; DIM &gt;</text>
<text text-anchor="start" x="633.5" y="-310.5" font-family="Helvetica,sans-Serif" font-size="10.00"> </text>
<text text-anchor="start" x="564.5" y="-295.5" font-family="Helvetica,sans-Serif" font-size="10.00">+</text>
<text text-anchor="start" x="577.5" y="-295.5" font-family="Helvetica,sans-Serif" font-size="10.00">NashHunterPoleZeroLaw()</text>
<text text-anchor="start" x="564.5" y="-280.5" font-family="Helvetica,sans-Serif" font-size="10.00">+</text>
<text text-anchor="start" x="577.5" y="-280.5" font-family="Helvetica,sans-Serif" font-size="10.00">NashHunterPoleZeroLaw()</text>
<text text-anchor="start" x="564.5" y="-265.5" font-family="Helvetica,sans-Serif" font-size="10.00">+</text>
<text text-anchor="start" x="577.5" y="-265.5" font-family="Helvetica,sans-Serif" font-size="10.00">NashHunterPoleZeroLaw()</text>
<polygon fill="#666666" stroke="#666666" points="560.5,-320.5 560.5,-320.5 710.5,-320.5 710.5,-320.5 560.5,-320.5"/>
<polygon fill="#666666" stroke="#666666" points="560.5,-305.5 560.5,-305.5 710.5,-305.5 710.5,-305.5 560.5,-305.5"/>
<polygon fill="none" stroke="#666666" points="560.5,-258.5 560.5,-348.5 710.5,-348.5 710.5,-258.5 560.5,-258.5"/>
</a>
</g>
</g>
<!-- Node8&#45;&gt;Node9 -->
<g id="edge9_Node000008_Node000009" class="edge">
<title>Node8&#45;&gt;Node9</title>
<g id="a_edge9_Node000008_Node000009"><a xlink:title=" ">
<path fill="none" stroke="#63b8ff" d="M587.61,-443.48C599,-410.43 611.12,-375.26 620.32,-348.56"/>
<polygon fill="none" stroke="#63b8ff" points="584.22,-442.61 584.27,-453.2 590.83,-444.89 584.22,-442.61"/>
</a>
</g>
</g>
<!-- Node11 -->
<g id="Node000011" class="node">
<title>Node11</title>
<g id="a_Node000011"><a xlink:href="classSchmidCostaExponentialLaw2d.html" target="_top" xlink:title=" ">
<polygon fill="white" stroke="transparent" points="931,-373 728,-373 728,-234 931,-234 931,-373"/>
<text text-anchor="start" x="753" y="-360.5" font-family="Helvetica,sans-Serif" font-size="10.00">SchmidCostaExponentialLaw2d</text>
<text text-anchor="start" x="735" y="-345.5" font-family="Helvetica,sans-Serif" font-size="10.00">&#45;</text>
<text text-anchor="start" x="745.5" y="-345.5" font-family="Helvetica,sans-Serif" font-size="10.00">mA</text>
<text text-anchor="start" x="735" y="-330.5" font-family="Helvetica,sans-Serif" font-size="10.00">&#45;</text>
<text text-anchor="start" x="745.5" y="-330.5" font-family="Helvetica,sans-Serif" font-size="10.00">mB</text>
<text text-anchor="start" x="735" y="-315.5" font-family="Helvetica,sans-Serif" font-size="10.00">&#45;</text>
<text text-anchor="start" x="745.5" y="-315.5" font-family="Helvetica,sans-Serif" font-size="10.00">mIdentity</text>
<text text-anchor="start" x="732.5" y="-300.5" font-family="Helvetica,sans-Serif" font-size="10.00">+</text>
<text text-anchor="start" x="745.5" y="-300.5" font-family="Helvetica,sans-Serif" font-size="10.00">SchmidCostaExponentialLaw2d()</text>
<text text-anchor="start" x="732.5" y="-285.5" font-family="Helvetica,sans-Serif" font-size="10.00">+</text>
<text text-anchor="start" x="745.5" y="-285.5" font-family="Helvetica,sans-Serif" font-size="10.00">ComputeStressAndStressDerivative()</text>
<text text-anchor="start" x="732.5" y="-270.5" font-family="Helvetica,sans-Serif" font-size="10.00">+</text>
<text text-anchor="start" x="745.5" y="-270.5" font-family="Helvetica,sans-Serif" font-size="10.00">GetA()</text>
<text text-anchor="start" x="732.5" y="-255.5" font-family="Helvetica,sans-Serif" font-size="10.00">+</text>
<text text-anchor="start" x="745.5" y="-255.5" font-family="Helvetica,sans-Serif" font-size="10.00">GetB()</text>
<text text-anchor="start" x="732.5" y="-240.5" font-family="Helvetica,sans-Serif" font-size="10.00">+</text>
<text text-anchor="start" x="745.5" y="-240.5" font-family="Helvetica,sans-Serif" font-size="10.00">GetZeroStrainPressure()</text>
<polygon fill="#666666" stroke="#666666" points="728.5,-355.5 728.5,-355.5 931.5,-355.5 931.5,-355.5 728.5,-355.5"/>
<polygon fill="#666666" stroke="#666666" points="728.5,-310.5 728.5,-310.5 743.5,-310.5 743.5,-310.5 728.5,-310.5"/>
<polygon fill="#666666" stroke="#666666" points="743.5,-310.5 743.5,-310.5 931.5,-310.5 931.5,-310.5 743.5,-310.5"/>
<polygon fill="none" stroke="#666666" points="728,-234 728,-373 931,-373 931,-234 728,-234"/>
</a>
</g>
</g>
<!-- Node10&#45;&gt;Node11 -->
<g id="edge11_Node000010_Node000011" class="edge">
<title>Node10&#45;&gt;Node11</title>
<g id="a_edge11_Node000010_Node000011"><a xlink:title=" ">
<path fill="none" stroke="#63b8ff" d="M820.07,-477.06C821.84,-444.73 823.97,-405.75 825.76,-373.02"/>
<polygon fill="none" stroke="#63b8ff" points="816.57,-477.12 819.52,-487.3 823.56,-477.51 816.57,-477.12"/>
</a>
</g>
</g>
</g>
</svg>
