<?xml version="1.0" encoding="UTF-8" standalone="no"?>
<!DOCTYPE svg PUBLIC "-//W3C//DTD SVG 1.1//EN"
 "http://www.w3.org/Graphics/SVG/1.1/DTD/svg11.dtd">
<!-- Generated by graphviz version 2.43.0 (0)
 -->
<!-- Title: FibreReader&lt; DIM &gt; Pages: 1 -->
<svg width="463pt" height="310pt"
 viewBox="0.00 0.00 462.50 310.00" xmlns="http://www.w3.org/2000/svg" xmlns:xlink="http://www.w3.org/1999/xlink">
<g id="graph0" class="graph" transform="scale(1 1) rotate(0) translate(4 306)">
<title>FibreReader&lt; DIM &gt;</title>
<!-- Node1 -->
<g id="Node000001" class="node">
<title>Node1</title>
<g id="a_Node000001"><a xlink:title=" ">
<polygon fill="#999999" stroke="transparent" points="277,-184 93,-184 93,0 277,0 277,-184"/>
<text text-anchor="start" x="134.5" y="-172" font-family="Helvetica,sans-Serif" font-size="10.00">FibreReader&lt; DIM &gt;</text>
<text text-anchor="start" x="183" y="-157" font-family="Helvetica,sans-Serif" font-size="10.00"> </text>
<text text-anchor="start" x="97" y="-142" font-family="Helvetica,sans-Serif" font-size="10.00">+</text>
<text text-anchor="start" x="110" y="-142" font-family="Helvetica,sans-Serif" font-size="10.00">FibreReader()</text>
<text text-anchor="start" x="97" y="-127" font-family="Helvetica,sans-Serif" font-size="10.00">+</text>
<text text-anchor="start" x="110" y="-127" font-family="Helvetica,sans-Serif" font-size="10.00">~FibreReader()</text>
<text text-anchor="start" x="97" y="-112" font-family="Helvetica,sans-Serif" font-size="10.00">+</text>
<text text-anchor="start" x="110" y="-112" font-family="Helvetica,sans-Serif" font-size="10.00">GetFibreSheetAndNormalMatrix()</text>
<text text-anchor="start" x="97" y="-97" font-family="Helvetica,sans-Serif" font-size="10.00">+</text>
<text text-anchor="start" x="110" y="-97" font-family="Helvetica,sans-Serif" font-size="10.00">GetFibreVector()</text>
<text text-anchor="start" x="97" y="-82" font-family="Helvetica,sans-Serif" font-size="10.00">+</text>
<text text-anchor="start" x="110" y="-82" font-family="Helvetica,sans-Serif" font-size="10.00">GetNumLinesOfData()</text>
<text text-anchor="start" x="97" y="-67" font-family="Helvetica,sans-Serif" font-size="10.00">+</text>
<text text-anchor="start" x="110" y="-67" font-family="Helvetica,sans-Serif" font-size="10.00">GetAllAxi()</text>
<text text-anchor="start" x="97" y="-52" font-family="Helvetica,sans-Serif" font-size="10.00">+</text>
<text text-anchor="start" x="110" y="-52" font-family="Helvetica,sans-Serif" font-size="10.00">GetAllOrtho()</text>
<text text-anchor="start" x="97" y="-37" font-family="Helvetica,sans-Serif" font-size="10.00">+</text>
<text text-anchor="start" x="110" y="-37" font-family="Helvetica,sans-Serif" font-size="10.00">IsBinary()</text>
<text text-anchor="start" x="99.5" y="-22" font-family="Helvetica,sans-Serif" font-size="10.00">&#45;</text>
<text text-anchor="start" x="110" y="-22" font-family="Helvetica,sans-Serif" font-size="10.00">GetTokensAtNextLine()</text>
<text text-anchor="start" x="99.5" y="-7" font-family="Helvetica,sans-Serif" font-size="10.00">&#45;</text>
<text text-anchor="start" x="110" y="-7" font-family="Helvetica,sans-Serif" font-size="10.00">ReadNumLinesOfDataFromFile()</text>
<polygon fill="#666666" stroke="#666666" points="93,-167 93,-167 277,-167 277,-167 93,-167"/>
<polygon fill="#666666" stroke="#666666" points="93,-152 93,-152 277,-152 277,-152 93,-152"/>
<polygon fill="none" stroke="#666666" points="93,0 93,-184 277,-184 277,0 93,0"/>
</a>
</g>
</g>
<!-- Node2 -->
<g id="Node000002" class="node">
<title>Node2</title>
<g id="a_Node000002"><a xlink:title=" ">
<polygon fill="white" stroke="transparent" points="52,-302 0,-302 0,-253 52,-253 52,-302"/>
<text text-anchor="start" x="5" y="-289.5" font-family="Helvetica,sans-Serif" font-size="10.00">ifstream</text>
<text text-anchor="start" x="24" y="-274.5" font-family="Helvetica,sans-Serif" font-size="10.00"> </text>
<text text-anchor="start" x="24" y="-259.5" font-family="Helvetica,sans-Serif" font-size="10.00"> </text>
<polygon fill="#bfbfbf" stroke="#bfbfbf" points="0,-284.5 0,-284.5 52,-284.5 52,-284.5 0,-284.5"/>
<polygon fill="#bfbfbf" stroke="#bfbfbf" points="0,-269.5 0,-269.5 52,-269.5 52,-269.5 0,-269.5"/>
<polygon fill="none" stroke="#bfbfbf" points="0,-253 0,-302 52,-302 52,-253 0,-253"/>
</a>
</g>
</g>
<!-- Node2&#45;&gt;Node1 -->
<g id="edge1_Node000001_Node000002" class="edge">
<title>Node2&#45;&gt;Node1</title>
<g id="a_edge1_Node000001_Node000002"><a xlink:title=" ">
<path fill="none" stroke="#63b8ff" d="M31.51,-252.83C35.89,-237.38 43.11,-217.31 54,-202 62.66,-189.82 73,-178.21 84.02,-167.41"/>
<polygon fill="none" stroke="#63b8ff" points="84.27,-167.18 85.88,-160.15 92.99,-158.93 91.38,-165.96 84.27,-167.18"/>
</a>
</g>
<text text-anchor="middle" x="83" y="-216" font-family="Helvetica,sans-Serif" font-size="10.00" fill="grey"> &#45;mDataFile</text>
</g>
<!-- Node3 -->
<g id="Node000003" class="node">
<title>Node3</title>
<g id="a_Node000003"><a xlink:title=" ">
<polygon fill="white" stroke="transparent" points="126,-302 88,-302 88,-253 126,-253 126,-302"/>
<text text-anchor="start" x="93" y="-289.5" font-family="Helvetica,sans-Serif" font-size="10.00">string</text>
<text text-anchor="start" x="105" y="-274.5" font-family="Helvetica,sans-Serif" font-size="10.00"> </text>
<text text-anchor="start" x="105" y="-259.5" font-family="Helvetica,sans-Serif" font-size="10.00"> </text>
<polygon fill="#bfbfbf" stroke="#bfbfbf" points="88,-284.5 88,-284.5 126,-284.5 126,-284.5 88,-284.5"/>
<polygon fill="#bfbfbf" stroke="#bfbfbf" points="88,-269.5 88,-269.5 126,-269.5 126,-269.5 88,-269.5"/>
<polygon fill="none" stroke="#bfbfbf" points="88,-253 88,-302 126,-302 126,-253 88,-253"/>
</a>
</g>
</g>
<!-- Node3&#45;&gt;Node1 -->
<g id="edge2_Node000001_Node000003" class="edge">
<title>Node3&#45;&gt;Node1</title>
<g id="a_edge2_Node000001_Node000003"><a xlink:title=" ">
<path fill="none" stroke="#63b8ff" d="M111.46,-252.88C114.66,-238 119.53,-218.53 126,-202 126.87,-199.78 127.77,-197.55 128.7,-195.32"/>
<polygon fill="none" stroke="#63b8ff" points="128.8,-195.1 127.53,-188.01 133.6,-184.11 134.86,-191.21 128.8,-195.1"/>
</a>
</g>
<text text-anchor="middle" x="153.5" y="-216" font-family="Helvetica,sans-Serif" font-size="10.00" fill="grey"> &#45;mFilePath</text>
</g>
<!-- Node4 -->
<g id="Node000004" class="node">
<title>Node4</title>
<g id="a_Node000004"><a xlink:href="classunsigned.html" target="_top" xlink:title=" ">
<polygon fill="white" stroke="transparent" points="212.5,-302 157.5,-302 157.5,-253 212.5,-253 212.5,-302"/>
<text text-anchor="start" x="163" y="-289.5" font-family="Helvetica,sans-Serif" font-size="10.00">unsigned</text>
<text text-anchor="start" x="183.5" y="-274.5" font-family="Helvetica,sans-Serif" font-size="10.00"> </text>
<text text-anchor="start" x="183.5" y="-259.5" font-family="Helvetica,sans-Serif" font-size="10.00"> </text>
<polygon fill="#bfbfbf" stroke="#bfbfbf" points="158,-284.5 158,-284.5 213,-284.5 213,-284.5 158,-284.5"/>
<polygon fill="#bfbfbf" stroke="#bfbfbf" points="158,-269.5 158,-269.5 213,-269.5 213,-269.5 158,-269.5"/>
<polygon fill="none" stroke="#bfbfbf" points="157.5,-253 157.5,-302 212.5,-302 212.5,-253 157.5,-253"/>
</a>
</g>
</g>
<!-- Node4&#45;&gt;Node1 -->
<g id="edge3_Node000001_Node000004" class="edge">
<title>Node4&#45;&gt;Node1</title>
<g id="a_edge3_Node000001_Node000004"><a xlink:title=" ">
<path fill="none" stroke="#63b8ff" d="M185,-252.89C185,-238.01 185,-217.66 185,-196.46"/>
<polygon fill="none" stroke="#63b8ff" points="185,-196.27 181,-190.27 185,-184.27 189,-190.27 185,-196.27"/>
</a>
</g>
<text text-anchor="middle" x="235.5" y="-227" font-family="Helvetica,sans-Serif" font-size="10.00" fill="grey"> &#45;mNextIndex</text>
<text text-anchor="middle" x="235.5" y="-216" font-family="Helvetica,sans-Serif" font-size="10.00" fill="grey">&#45;mNumItemsPerLine</text>
<text text-anchor="middle" x="235.5" y="-205" font-family="Helvetica,sans-Serif" font-size="10.00" fill="grey">&#45;mNumLinesOfData</text>
</g>
<!-- Node5 -->
<g id="Node000005" class="node">
<title>Node5</title>
<g id="a_Node000005"><a xlink:href="classbool.html" target="_top" xlink:title=" ">
<polygon fill="white" stroke="transparent" points="325,-302 293,-302 293,-253 325,-253 325,-302"/>
<text text-anchor="start" x="298" y="-289.5" font-family="Helvetica,sans-Serif" font-size="10.00">bool</text>
<text text-anchor="start" x="307" y="-274.5" font-family="Helvetica,sans-Serif" font-size="10.00"> </text>
<text text-anchor="start" x="307" y="-259.5" font-family="Helvetica,sans-Serif" font-size="10.00"> </text>
<polygon fill="#bfbfbf" stroke="#bfbfbf" points="293,-284.5 293,-284.5 325,-284.5 325,-284.5 293,-284.5"/>
<polygon fill="#bfbfbf" stroke="#bfbfbf" points="293,-269.5 293,-269.5 325,-269.5 325,-269.5 293,-269.5"/>
<polygon fill="none" stroke="#bfbfbf" points="293,-253 293,-302 325,-302 325,-253 293,-253"/>
</a>
</g>
</g>
<!-- Node5&#45;&gt;Node1 -->
<g id="edge4_Node000001_Node000005" class="edge">
<title>Node5&#45;&gt;Node1</title>
<g id="a_edge4_Node000001_Node000005"><a xlink:title=" ">
<path fill="none" stroke="#63b8ff" d="M304.96,-252.89C301.67,-237.66 296.04,-217.8 287,-202 285.48,-199.34 283.88,-196.7 282.22,-194.07"/>
<polygon fill="none" stroke="#63b8ff" points="282.17,-194.01 275.51,-191.25 275.49,-184.04 282.16,-186.8 282.17,-194.01"/>
</a>
</g>
<text text-anchor="middle" x="336" y="-216" font-family="Helvetica,sans-Serif" font-size="10.00" fill="grey"> &#45;mFileIsBinary</text>
</g>
<!-- Node6 -->
<g id="Node000006" class="node">
<title>Node6</title>
<g id="a_Node000006"><a xlink:title=" ">
<polygon fill="white" stroke="transparent" points="454.5,-302 357.5,-302 357.5,-253 454.5,-253 454.5,-302"/>
<text text-anchor="start" x="363" y="-289.5" font-family="Helvetica,sans-Serif" font-size="10.00">vector&lt; double &gt;</text>
<text text-anchor="start" x="404.5" y="-274.5" font-family="Helvetica,sans-Serif" font-size="10.00"> </text>
<text text-anchor="start" x="404.5" y="-259.5" font-family="Helvetica,sans-Serif" font-size="10.00"> </text>
<polygon fill="#bfbfbf" stroke="#bfbfbf" points="358,-284.5 358,-284.5 455,-284.5 455,-284.5 358,-284.5"/>
<polygon fill="#bfbfbf" stroke="#bfbfbf" points="358,-269.5 358,-269.5 455,-269.5 455,-269.5 358,-269.5"/>
<polygon fill="none" stroke="#bfbfbf" points="357.5,-253 357.5,-302 454.5,-302 454.5,-253 357.5,-253"/>
</a>
</g>
</g>
<!-- Node6&#45;&gt;Node1 -->
<g id="edge5_Node000001_Node000006" class="edge">
<title>Node6&#45;&gt;Node1</title>
<g id="a_edge5_Node000001_Node000006"><a xlink:title=" ">
<path fill="none" stroke="#63b8ff" d="M401.18,-252.84C396.97,-237.01 389.53,-216.49 377,-202 352.9,-174.12 319.83,-151.81 287.92,-134.82"/>
<polygon fill="none" stroke="#63b8ff" points="287.82,-134.77 280.65,-135.57 277.15,-129.26 284.32,-128.46 287.82,-134.77"/>
</a>
</g>
<text text-anchor="middle" x="420" y="-216" font-family="Helvetica,sans-Serif" font-size="10.00" fill="grey"> &#45;mTokens</text>
</g>
</g>
</svg>
