<?xml version="1.0" encoding="UTF-8" standalone="no"?>
<!DOCTYPE svg PUBLIC "-//W3C//DTD SVG 1.1//EN"
 "http://www.w3.org/Graphics/SVG/1.1/DTD/svg11.dtd">
<!-- Generated by graphviz version 2.43.0 (0)
 -->
<!-- Title: VertexMesh&lt; ELEMENT_DIM, SPACE_DIM &gt;::VertexElementIterator Pages: 1 -->
<svg width="1337pt" height="1383pt"
 viewBox="0.00 0.00 1337.00 1383.00" xmlns="http://www.w3.org/2000/svg" xmlns:xlink="http://www.w3.org/1999/xlink">
<g id="graph0" class="graph" transform="scale(1 1) rotate(0) translate(4 1379)">
<title>VertexMesh&lt; ELEMENT_DIM, SPACE_DIM &gt;::VertexElementIterator</title>
<!-- Node1 -->
<g id="Node000001" class="node">
<title>Node1</title>
<g id="a_Node000001"><a xlink:title=" ">
<polygon fill="#999999" stroke="transparent" points="616,-161 430,-161 430,0 616,0 616,-161"/>
<text text-anchor="start" x="435" y="-148.5" font-family="Helvetica,sans-Serif" font-size="10.00">VertexMesh&lt; ELEMENT</text>
<text text-anchor="start" x="435" y="-137.5" font-family="Helvetica,sans-Serif" font-size="10.00">_DIM, SPACE_DIM &gt;::VertexElement</text>
<text text-anchor="start" x="504.5" y="-126.5" font-family="Helvetica,sans-Serif" font-size="10.00">Iterator</text>
<text text-anchor="start" x="521" y="-111.5" font-family="Helvetica,sans-Serif" font-size="10.00"> </text>
<text text-anchor="start" x="446" y="-96.5" font-family="Helvetica,sans-Serif" font-size="10.00">+</text>
<text text-anchor="start" x="471" y="-96.5" font-family="Helvetica,sans-Serif" font-size="10.00">operator*()</text>
<text text-anchor="start" x="446" y="-81.5" font-family="Helvetica,sans-Serif" font-size="10.00">+</text>
<text text-anchor="start" x="471" y="-81.5" font-family="Helvetica,sans-Serif" font-size="10.00">operator&#45;&gt;()</text>
<text text-anchor="start" x="446" y="-66.5" font-family="Helvetica,sans-Serif" font-size="10.00">+</text>
<text text-anchor="start" x="471" y="-66.5" font-family="Helvetica,sans-Serif" font-size="10.00">operator!=()</text>
<text text-anchor="start" x="446" y="-51.5" font-family="Helvetica,sans-Serif" font-size="10.00">+</text>
<text text-anchor="start" x="471" y="-51.5" font-family="Helvetica,sans-Serif" font-size="10.00">operator++()</text>
<text text-anchor="start" x="446" y="-36.5" font-family="Helvetica,sans-Serif" font-size="10.00">+</text>
<text text-anchor="start" x="471" y="-36.5" font-family="Helvetica,sans-Serif" font-size="10.00">VertexElementIterator()</text>
<text text-anchor="start" x="448.5" y="-21.5" font-family="Helvetica,sans-Serif" font-size="10.00">&#45;</text>
<text text-anchor="start" x="471" y="-21.5" font-family="Helvetica,sans-Serif" font-size="10.00">IsAtEnd()</text>
<text text-anchor="start" x="448.5" y="-6.5" font-family="Helvetica,sans-Serif" font-size="10.00">&#45;</text>
<text text-anchor="start" x="471" y="-6.5" font-family="Helvetica,sans-Serif" font-size="10.00">IsAllowedElement()</text>
<polygon fill="#666666" stroke="#666666" points="430,-121.5 430,-121.5 616,-121.5 616,-121.5 430,-121.5"/>
<polygon fill="#666666" stroke="#666666" points="430,-106.5 430,-106.5 616,-106.5 616,-106.5 430,-106.5"/>
<polygon fill="none" stroke="#666666" points="430,0 430,-161 616,-161 616,0 430,0"/>
</a>
</g>
</g>
<!-- Node2 -->
<g id="Node000002" class="node">
<title>Node2</title>
<g id="a_Node000002"><a xlink:href="classVertexMesh.html" target="_top" xlink:title=" ">
<polygon fill="white" stroke="transparent" points="615.5,-575 430.5,-575 430.5,-208 615.5,-208 615.5,-575"/>
<text text-anchor="start" x="466" y="-562.5" font-family="Helvetica,sans-Serif" font-size="10.00">VertexMesh&lt; ELEMENT</text>
<text text-anchor="start" x="474.5" y="-551.5" font-family="Helvetica,sans-Serif" font-size="10.00">_DIM, SPACE_DIM &gt;</text>
<text text-anchor="start" x="521.5" y="-536.5" font-family="Helvetica,sans-Serif" font-size="10.00"> </text>
<text text-anchor="start" x="435" y="-521.5" font-family="Helvetica,sans-Serif" font-size="10.00">+</text>
<text text-anchor="start" x="448" y="-521.5" font-family="Helvetica,sans-Serif" font-size="10.00">GetElementIteratorBegin()</text>
<text text-anchor="start" x="435" y="-506.5" font-family="Helvetica,sans-Serif" font-size="10.00">+</text>
<text text-anchor="start" x="448" y="-506.5" font-family="Helvetica,sans-Serif" font-size="10.00">GetElementIteratorEnd()</text>
<text text-anchor="start" x="435" y="-491.5" font-family="Helvetica,sans-Serif" font-size="10.00">+</text>
<text text-anchor="start" x="448" y="-491.5" font-family="Helvetica,sans-Serif" font-size="10.00">VertexMesh()</text>
<text text-anchor="start" x="435" y="-476.5" font-family="Helvetica,sans-Serif" font-size="10.00">+</text>
<text text-anchor="start" x="448" y="-476.5" font-family="Helvetica,sans-Serif" font-size="10.00">VertexMesh()</text>
<text text-anchor="start" x="435" y="-461.5" font-family="Helvetica,sans-Serif" font-size="10.00">+</text>
<text text-anchor="start" x="448" y="-461.5" font-family="Helvetica,sans-Serif" font-size="10.00">VertexMesh()</text>
<text text-anchor="start" x="435" y="-446.5" font-family="Helvetica,sans-Serif" font-size="10.00">+</text>
<text text-anchor="start" x="448" y="-446.5" font-family="Helvetica,sans-Serif" font-size="10.00">VertexMesh()</text>
<text text-anchor="start" x="435" y="-431.5" font-family="Helvetica,sans-Serif" font-size="10.00">+</text>
<text text-anchor="start" x="448" y="-431.5" font-family="Helvetica,sans-Serif" font-size="10.00">VertexMesh()</text>
<text text-anchor="start" x="435" y="-416.5" font-family="Helvetica,sans-Serif" font-size="10.00">+</text>
<text text-anchor="start" x="448" y="-416.5" font-family="Helvetica,sans-Serif" font-size="10.00">~VertexMesh()</text>
<text text-anchor="start" x="435" y="-401.5" font-family="Helvetica,sans-Serif" font-size="10.00">+</text>
<text text-anchor="start" x="448" y="-401.5" font-family="Helvetica,sans-Serif" font-size="10.00">GetNumEdges()</text>
<text text-anchor="start" x="435" y="-386.5" font-family="Helvetica,sans-Serif" font-size="10.00">+</text>
<text text-anchor="start" x="448" y="-386.5" font-family="Helvetica,sans-Serif" font-size="10.00">GetEdge()</text>
<text text-anchor="start" x="448" y="-371.5" font-family="Helvetica,sans-Serif" font-size="10.00">and 30 more...</text>
<text text-anchor="start" x="435" y="-356.5" font-family="Helvetica,sans-Serif" font-size="10.00">#</text>
<text text-anchor="start" x="448" y="-356.5" font-family="Helvetica,sans-Serif" font-size="10.00">SolveNodeMapping()</text>
<text text-anchor="start" x="435" y="-341.5" font-family="Helvetica,sans-Serif" font-size="10.00">#</text>
<text text-anchor="start" x="448" y="-341.5" font-family="Helvetica,sans-Serif" font-size="10.00">SolveElementMapping()</text>
<text text-anchor="start" x="435" y="-326.5" font-family="Helvetica,sans-Serif" font-size="10.00">#</text>
<text text-anchor="start" x="448" y="-326.5" font-family="Helvetica,sans-Serif" font-size="10.00">SolveBoundaryElementMapping()</text>
<text text-anchor="start" x="435" y="-311.5" font-family="Helvetica,sans-Serif" font-size="10.00">#</text>
<text text-anchor="start" x="448" y="-311.5" font-family="Helvetica,sans-Serif" font-size="10.00">GenerateEdgesFromElements()</text>
<text text-anchor="start" x="435" y="-296.5" font-family="Helvetica,sans-Serif" font-size="10.00">#</text>
<text text-anchor="start" x="448" y="-296.5" font-family="Helvetica,sans-Serif" font-size="10.00">GenerateVerticesFromElement</text>
<text text-anchor="start" x="448" y="-285.5" font-family="Helvetica,sans-Serif" font-size="10.00">Circumcentres()</text>
<text text-anchor="start" x="435" y="-270.5" font-family="Helvetica,sans-Serif" font-size="10.00">#</text>
<text text-anchor="start" x="448" y="-270.5" font-family="Helvetica,sans-Serif" font-size="10.00">ElementIncludesPoint()</text>
<text text-anchor="start" x="435" y="-255.5" font-family="Helvetica,sans-Serif" font-size="10.00">#</text>
<text text-anchor="start" x="448" y="-255.5" font-family="Helvetica,sans-Serif" font-size="10.00">GetLocalIndexForElementEdge</text>
<text text-anchor="start" x="448" y="-244.5" font-family="Helvetica,sans-Serif" font-size="10.00">ClosestToPoint()</text>
<text text-anchor="start" x="435" y="-229.5" font-family="Helvetica,sans-Serif" font-size="10.00">#</text>
<text text-anchor="start" x="448" y="-229.5" font-family="Helvetica,sans-Serif" font-size="10.00">save()</text>
<text text-anchor="start" x="435" y="-214.5" font-family="Helvetica,sans-Serif" font-size="10.00">#</text>
<text text-anchor="start" x="448" y="-214.5" font-family="Helvetica,sans-Serif" font-size="10.00">load()</text>
<polygon fill="#666666" stroke="#666666" points="431,-546.5 431,-546.5 616,-546.5 616,-546.5 431,-546.5"/>
<polygon fill="#666666" stroke="#666666" points="431,-531.5 431,-531.5 616,-531.5 616,-531.5 431,-531.5"/>
<polygon fill="none" stroke="#666666" points="430.5,-208 430.5,-575 615.5,-575 615.5,-208 430.5,-208"/>
</a>
</g>
</g>
<!-- Node2&#45;&gt;Node1 -->
<g id="edge1_Node000001_Node000002" class="edge">
<title>Node2&#45;&gt;Node1</title>
<g id="a_edge1_Node000001_Node000002"><a xlink:title=" ">
<path fill="none" stroke="#63b8ff" d="M523,-207.63C523,-195.89 523,-184.37 523,-173.37"/>
<polygon fill="none" stroke="#63b8ff" points="523,-173.18 519,-167.18 523,-161.18 527,-167.18 523,-173.18"/>
</a>
</g>
<text text-anchor="middle" x="546.5" y="-182" font-family="Helvetica,sans-Serif" font-size="10.00" fill="grey"> &#45;mrMesh</text>
</g>
<!-- Node3 -->
<g id="Node000003" class="node">
<title>Node3</title>
<g id="a_Node000003"><a xlink:href="classAbstractMesh.html" target="_top" xlink:title=" ">
<polygon fill="white" stroke="transparent" points="1094.5,-892 947.5,-892 947.5,-622 1094.5,-622 1094.5,-892"/>
<text text-anchor="start" x="959.5" y="-880" font-family="Helvetica,sans-Serif" font-size="10.00">AbstractMesh&lt; ELEMENT</text>
<text text-anchor="start" x="972.5" y="-869" font-family="Helvetica,sans-Serif" font-size="10.00">_DIM, SPACE_DIM &gt;</text>
<text text-anchor="start" x="1019.5" y="-854" font-family="Helvetica,sans-Serif" font-size="10.00"> </text>
<text text-anchor="start" x="952" y="-839" font-family="Helvetica,sans-Serif" font-size="10.00">+</text>
<text text-anchor="start" x="965" y="-839" font-family="Helvetica,sans-Serif" font-size="10.00">GetNodeIteratorBegin()</text>
<text text-anchor="start" x="952" y="-824" font-family="Helvetica,sans-Serif" font-size="10.00">+</text>
<text text-anchor="start" x="965" y="-824" font-family="Helvetica,sans-Serif" font-size="10.00">GetNodeIteratorEnd()</text>
<text text-anchor="start" x="952" y="-809" font-family="Helvetica,sans-Serif" font-size="10.00">+</text>
<text text-anchor="start" x="965" y="-809" font-family="Helvetica,sans-Serif" font-size="10.00">AbstractMesh()</text>
<text text-anchor="start" x="952" y="-794" font-family="Helvetica,sans-Serif" font-size="10.00">+</text>
<text text-anchor="start" x="965" y="-794" font-family="Helvetica,sans-Serif" font-size="10.00">~AbstractMesh()</text>
<text text-anchor="start" x="952" y="-779" font-family="Helvetica,sans-Serif" font-size="10.00">+</text>
<text text-anchor="start" x="965" y="-779" font-family="Helvetica,sans-Serif" font-size="10.00">GetNumNodes()</text>
<text text-anchor="start" x="952" y="-764" font-family="Helvetica,sans-Serif" font-size="10.00">+</text>
<text text-anchor="start" x="965" y="-764" font-family="Helvetica,sans-Serif" font-size="10.00">GetNumBoundaryNodes()</text>
<text text-anchor="start" x="952" y="-749" font-family="Helvetica,sans-Serif" font-size="10.00">+</text>
<text text-anchor="start" x="965" y="-749" font-family="Helvetica,sans-Serif" font-size="10.00">GetNumAllNodes()</text>
<text text-anchor="start" x="952" y="-734" font-family="Helvetica,sans-Serif" font-size="10.00">+</text>
<text text-anchor="start" x="965" y="-734" font-family="Helvetica,sans-Serif" font-size="10.00">GetNumNodeAttributes()</text>
<text text-anchor="start" x="952" y="-719" font-family="Helvetica,sans-Serif" font-size="10.00">+</text>
<text text-anchor="start" x="965" y="-719" font-family="Helvetica,sans-Serif" font-size="10.00">GetNode()</text>
<text text-anchor="start" x="952" y="-704" font-family="Helvetica,sans-Serif" font-size="10.00">+</text>
<text text-anchor="start" x="965" y="-704" font-family="Helvetica,sans-Serif" font-size="10.00">GetNodeOrHaloNode()</text>
<text text-anchor="start" x="965" y="-689" font-family="Helvetica,sans-Serif" font-size="10.00">and 28 more...</text>
<text text-anchor="start" x="952" y="-674" font-family="Helvetica,sans-Serif" font-size="10.00">#</text>
<text text-anchor="start" x="965" y="-674" font-family="Helvetica,sans-Serif" font-size="10.00">SetElementOwnerships()</text>
<text text-anchor="start" x="952" y="-659" font-family="Helvetica,sans-Serif" font-size="10.00">#</text>
<text text-anchor="start" x="965" y="-659" font-family="Helvetica,sans-Serif" font-size="10.00">CalculateBoundingBox()</text>
<text text-anchor="start" x="954.5" y="-644" font-family="Helvetica,sans-Serif" font-size="10.00">&#45;</text>
<text text-anchor="start" x="965" y="-644" font-family="Helvetica,sans-Serif" font-size="10.00">SolveNodeMapping()</text>
<text text-anchor="start" x="954.5" y="-629" font-family="Helvetica,sans-Serif" font-size="10.00">&#45;</text>
<text text-anchor="start" x="965" y="-629" font-family="Helvetica,sans-Serif" font-size="10.00">serialize()</text>
<polygon fill="#666666" stroke="#666666" points="948,-864 948,-864 1095,-864 1095,-864 948,-864"/>
<polygon fill="#666666" stroke="#666666" points="948,-849 948,-849 1095,-849 1095,-849 948,-849"/>
<polygon fill="none" stroke="#666666" points="947.5,-622 947.5,-892 1094.5,-892 1094.5,-622 947.5,-622"/>
</a>
</g>
</g>
<!-- Node3&#45;&gt;Node2 -->
<g id="edge2_Node000002_Node000003" class="edge">
<title>Node3&#45;&gt;Node2</title>
<g id="a_edge2_Node000002_Node000003"><a xlink:title=" ">
<path fill="none" stroke="#63b8ff" d="M940.05,-622.97C939.7,-622.65 939.35,-622.32 939,-622 917.77,-602.51 908.8,-600.6 881,-593 825.99,-577.96 673.15,-605.57 625,-575 621.78,-572.96 618.66,-570.78 615.62,-568.47"/>
<polygon fill="none" stroke="#63b8ff" points="937.67,-625.55 947.25,-630.08 942.59,-620.56 937.67,-625.55"/>
</a>
</g>
</g>
<!-- Node4 -->
<g id="Node000004" class="node">
<title>Node4</title>
<g id="a_Node000004"><a xlink:title=" ">
<polygon fill="white" stroke="transparent" points="1329,-1122.5 1223,-1122.5 1223,-1073.5 1329,-1073.5 1329,-1122.5"/>
<text text-anchor="start" x="1228" y="-1110" font-family="Helvetica,sans-Serif" font-size="10.00">boost::noncopyable</text>
<text text-anchor="start" x="1274" y="-1095" font-family="Helvetica,sans-Serif" font-size="10.00"> </text>
<text text-anchor="start" x="1274" y="-1080" font-family="Helvetica,sans-Serif" font-size="10.00"> </text>
<polygon fill="#bfbfbf" stroke="#bfbfbf" points="1223,-1105 1223,-1105 1329,-1105 1329,-1105 1223,-1105"/>
<polygon fill="#bfbfbf" stroke="#bfbfbf" points="1223,-1090 1223,-1090 1329,-1090 1329,-1090 1223,-1090"/>
<polygon fill="none" stroke="#bfbfbf" points="1223,-1073.5 1223,-1122.5 1329,-1122.5 1329,-1073.5 1223,-1073.5"/>
</a>
</g>
</g>
<!-- Node4&#45;&gt;Node3 -->
<g id="edge3_Node000003_Node000004" class="edge">
<title>Node4&#45;&gt;Node3</title>
<g id="a_edge3_Node000003_Node000004"><a xlink:title=" ">
<path fill="none" stroke="#8b1a1a" d="M1277.85,-1063.12C1278.39,-1023.33 1274.09,-956.83 1244,-910 1208.48,-854.71 1144.95,-814.38 1094.76,-789.21"/>
<polygon fill="none" stroke="#8b1a1a" points="1274.34,-1063.27 1277.59,-1073.35 1281.34,-1063.44 1274.34,-1063.27"/>
</a>
</g>
</g>
<!-- Node5 -->
<g id="Node000005" class="node">
<title>Node5</title>
<g id="a_Node000005"><a xlink:title=" ">
<polygon fill="white" stroke="transparent" points="457,-1128 337,-1128 337,-1068 457,-1068 457,-1128"/>
<text text-anchor="start" x="342" y="-1116" font-family="Helvetica,sans-Serif" font-size="10.00">vector&lt; Node&lt; SPACE</text>
<text text-anchor="start" x="369" y="-1105" font-family="Helvetica,sans-Serif" font-size="10.00">_DIM &gt; * &gt;</text>
<text text-anchor="start" x="395" y="-1090" font-family="Helvetica,sans-Serif" font-size="10.00"> </text>
<text text-anchor="start" x="395" y="-1075" font-family="Helvetica,sans-Serif" font-size="10.00"> </text>
<polygon fill="#bfbfbf" stroke="#bfbfbf" points="337,-1100 337,-1100 457,-1100 457,-1100 337,-1100"/>
<polygon fill="#bfbfbf" stroke="#bfbfbf" points="337,-1085 337,-1085 457,-1085 457,-1085 337,-1085"/>
<polygon fill="none" stroke="#bfbfbf" points="337,-1068 337,-1128 457,-1128 457,-1068 337,-1068"/>
</a>
</g>
</g>
<!-- Node5&#45;&gt;Node3 -->
<g id="edge4_Node000003_Node000005" class="edge">
<title>Node5&#45;&gt;Node3</title>
<g id="a_edge4_Node000003_Node000005"><a xlink:title=" ">
<path fill="none" stroke="#63b8ff" d="M386.22,-1067.73C373.14,-1026.49 357.48,-951.66 398,-910 437.92,-868.95 845.17,-917.2 936.02,-891.16"/>
<polygon fill="none" stroke="#63b8ff" points="936.1,-891.13 940.17,-885.18 947.23,-886.65 943.16,-892.6 936.1,-891.13"/>
</a>
</g>
<text text-anchor="middle" x="447.5" y="-924" font-family="Helvetica,sans-Serif" font-size="10.00" fill="grey"> #mBoundaryNodes</text>
<text text-anchor="middle" x="447.5" y="-913" font-family="Helvetica,sans-Serif" font-size="10.00" fill="grey">#mNodes</text>
</g>
<!-- Node6 -->
<g id="Node000006" class="node">
<title>Node6</title>
<g id="a_Node000006"><a xlink:href="classDistributedVectorFactory.html" target="_top" xlink:title=" ">
<polygon fill="white" stroke="transparent" points="870,-1246 704,-1246 704,-950 870,-950 870,-1246"/>
<text text-anchor="start" x="726.5" y="-1234" font-family="Helvetica,sans-Serif" font-size="10.00">DistributedVectorFactory</text>
<text text-anchor="start" x="785" y="-1219" font-family="Helvetica,sans-Serif" font-size="10.00"> </text>
<text text-anchor="start" x="708" y="-1204" font-family="Helvetica,sans-Serif" font-size="10.00">+</text>
<text text-anchor="start" x="721" y="-1204" font-family="Helvetica,sans-Serif" font-size="10.00">DistributedVectorFactory()</text>
<text text-anchor="start" x="708" y="-1189" font-family="Helvetica,sans-Serif" font-size="10.00">+</text>
<text text-anchor="start" x="721" y="-1189" font-family="Helvetica,sans-Serif" font-size="10.00">DistributedVectorFactory()</text>
<text text-anchor="start" x="708" y="-1174" font-family="Helvetica,sans-Serif" font-size="10.00">+</text>
<text text-anchor="start" x="721" y="-1174" font-family="Helvetica,sans-Serif" font-size="10.00">DistributedVectorFactory()</text>
<text text-anchor="start" x="708" y="-1159" font-family="Helvetica,sans-Serif" font-size="10.00">+</text>
<text text-anchor="start" x="721" y="-1159" font-family="Helvetica,sans-Serif" font-size="10.00">DistributedVectorFactory()</text>
<text text-anchor="start" x="708" y="-1144" font-family="Helvetica,sans-Serif" font-size="10.00">+</text>
<text text-anchor="start" x="721" y="-1144" font-family="Helvetica,sans-Serif" font-size="10.00">~DistributedVectorFactory()</text>
<text text-anchor="start" x="708" y="-1129" font-family="Helvetica,sans-Serif" font-size="10.00">+</text>
<text text-anchor="start" x="721" y="-1129" font-family="Helvetica,sans-Serif" font-size="10.00">CreateVec()</text>
<text text-anchor="start" x="708" y="-1114" font-family="Helvetica,sans-Serif" font-size="10.00">+</text>
<text text-anchor="start" x="721" y="-1114" font-family="Helvetica,sans-Serif" font-size="10.00">CreateVec()</text>
<text text-anchor="start" x="708" y="-1099" font-family="Helvetica,sans-Serif" font-size="10.00">+</text>
<text text-anchor="start" x="721" y="-1099" font-family="Helvetica,sans-Serif" font-size="10.00">CreateDistributedVector()</text>
<text text-anchor="start" x="708" y="-1084" font-family="Helvetica,sans-Serif" font-size="10.00">+</text>
<text text-anchor="start" x="721" y="-1084" font-family="Helvetica,sans-Serif" font-size="10.00">IsGlobalIndexLocal()</text>
<text text-anchor="start" x="708" y="-1069" font-family="Helvetica,sans-Serif" font-size="10.00">+</text>
<text text-anchor="start" x="721" y="-1069" font-family="Helvetica,sans-Serif" font-size="10.00">GetLocalOwnership()</text>
<text text-anchor="start" x="721" y="-1054" font-family="Helvetica,sans-Serif" font-size="10.00">and 8 more...</text>
<text text-anchor="start" x="708" y="-1039" font-family="Helvetica,sans-Serif" font-size="10.00">+</text>
<text text-anchor="start" x="721" y="-1039" font-family="Helvetica,sans-Serif" font-size="10.00">SetCheckNumberOfProcesses</text>
<text text-anchor="start" x="721" y="-1028" font-family="Helvetica,sans-Serif" font-size="10.00">OnLoad()</text>
<text text-anchor="start" x="708" y="-1013" font-family="Helvetica,sans-Serif" font-size="10.00">+</text>
<text text-anchor="start" x="721" y="-1013" font-family="Helvetica,sans-Serif" font-size="10.00">CheckNumberOfProcessesOn</text>
<text text-anchor="start" x="721" y="-1002" font-family="Helvetica,sans-Serif" font-size="10.00">Load()</text>
<text text-anchor="start" x="710.5" y="-987" font-family="Helvetica,sans-Serif" font-size="10.00">&#45;</text>
<text text-anchor="start" x="721" y="-987" font-family="Helvetica,sans-Serif" font-size="10.00">CheckForPetsc()</text>
<text text-anchor="start" x="710.5" y="-972" font-family="Helvetica,sans-Serif" font-size="10.00">&#45;</text>
<text text-anchor="start" x="721" y="-972" font-family="Helvetica,sans-Serif" font-size="10.00">CalculateOwnership()</text>
<text text-anchor="start" x="710.5" y="-957" font-family="Helvetica,sans-Serif" font-size="10.00">&#45;</text>
<text text-anchor="start" x="721" y="-957" font-family="Helvetica,sans-Serif" font-size="10.00">serialize()</text>
<polygon fill="#666666" stroke="#666666" points="704,-1229 704,-1229 870,-1229 870,-1229 704,-1229"/>
<polygon fill="#666666" stroke="#666666" points="704,-1214 704,-1214 870,-1214 870,-1214 704,-1214"/>
<polygon fill="none" stroke="#666666" points="704,-950 704,-1246 870,-1246 870,-950 704,-950"/>
</a>
</g>
</g>
<!-- Node6&#45;&gt;Node3 -->
<g id="edge5_Node000003_Node000006" class="edge">
<title>Node6&#45;&gt;Node3</title>
<g id="a_edge5_Node000003_Node000006"><a xlink:title=" ">
<path fill="none" stroke="#63b8ff" d="M826.79,-949.78C835.5,-934.87 846.1,-921.14 859,-910 884,-888.41 905.06,-908.6 937.09,-891.88"/>
<polygon fill="none" stroke="#63b8ff" points="937.24,-891.79 940.2,-885.21 947.4,-885.42 944.44,-891.99 937.24,-891.79"/>
</a>
</g>
<text text-anchor="middle" x="933" y="-918.5" font-family="Helvetica,sans-Serif" font-size="10.00" fill="grey"> #mpDistributedVectorFactory</text>
</g>
<!-- Node6&#45;&gt;Node6 -->
<g id="edge9_Node000006_Node000006" class="edge">
<title>Node6&#45;&gt;Node6</title>
<g id="a_edge9_Node000006_Node000006"><a xlink:title=" ">
<path fill="none" stroke="#63b8ff" d="M870.21,-1126.92C880.92,-1121.91 888,-1112.27 888,-1098 888,-1088.86 885.1,-1081.62 880.19,-1076.28"/>
<polygon fill="none" stroke="#63b8ff" points="879.94,-1076.1 872.74,-1075.83 870.21,-1069.08 877.41,-1069.34 879.94,-1076.1"/>
</a>
</g>
<text text-anchor="middle" x="936.5" y="-1095.5" font-family="Helvetica,sans-Serif" font-size="10.00" fill="grey"> &#45;mpOriginalFactory</text>
</g>
<!-- Node7 -->
<g id="Node000007" class="node">
<title>Node7</title>
<g id="a_Node000007"><a xlink:href="classunsigned.html" target="_top" xlink:title=" ">
<polygon fill="white" stroke="transparent" points="814.5,-1375 759.5,-1375 759.5,-1326 814.5,-1326 814.5,-1375"/>
<text text-anchor="start" x="765" y="-1362.5" font-family="Helvetica,sans-Serif" font-size="10.00">unsigned</text>
<text text-anchor="start" x="785.5" y="-1347.5" font-family="Helvetica,sans-Serif" font-size="10.00"> </text>
<text text-anchor="start" x="785.5" y="-1332.5" font-family="Helvetica,sans-Serif" font-size="10.00"> </text>
<polygon fill="#bfbfbf" stroke="#bfbfbf" points="760,-1357.5 760,-1357.5 815,-1357.5 815,-1357.5 760,-1357.5"/>
<polygon fill="#bfbfbf" stroke="#bfbfbf" points="760,-1342.5 760,-1342.5 815,-1342.5 815,-1342.5 760,-1342.5"/>
<polygon fill="none" stroke="#bfbfbf" points="759.5,-1326 759.5,-1375 814.5,-1375 814.5,-1326 759.5,-1326"/>
</a>
</g>
</g>
<!-- Node7&#45;&gt;Node6 -->
<g id="edge6_Node000006_Node000007" class="edge">
<title>Node7&#45;&gt;Node6</title>
<g id="a_edge6_Node000006_Node000007"><a xlink:title=" ">
<path fill="none" stroke="#63b8ff" d="M787,-1325.93C787,-1309.14 787,-1284.93 787,-1258.52"/>
<polygon fill="none" stroke="#63b8ff" points="787,-1258.25 783,-1252.25 787,-1246.25 791,-1252.25 787,-1258.25"/>
</a>
</g>
<text text-anchor="middle" x="824.5" y="-1300" font-family="Helvetica,sans-Serif" font-size="10.00" fill="grey"> &#45;mHi</text>
<text text-anchor="middle" x="824.5" y="-1289" font-family="Helvetica,sans-Serif" font-size="10.00" fill="grey">&#45;mLo</text>
<text text-anchor="middle" x="824.5" y="-1278" font-family="Helvetica,sans-Serif" font-size="10.00" fill="grey">&#45;mNumProcs</text>
<text text-anchor="middle" x="824.5" y="-1267" font-family="Helvetica,sans-Serif" font-size="10.00" fill="grey">&#45;mProblemSize</text>
</g>
<!-- Node8 -->
<g id="Node000008" class="node">
<title>Node8</title>
<g id="a_Node000008"><a xlink:href="classbool.html" target="_top" xlink:title=" ">
<polygon fill="white" stroke="transparent" points="527,-1375 495,-1375 495,-1326 527,-1326 527,-1375"/>
<text text-anchor="start" x="500" y="-1362.5" font-family="Helvetica,sans-Serif" font-size="10.00">bool</text>
<text text-anchor="start" x="509" y="-1347.5" font-family="Helvetica,sans-Serif" font-size="10.00"> </text>
<text text-anchor="start" x="509" y="-1332.5" font-family="Helvetica,sans-Serif" font-size="10.00"> </text>
<polygon fill="#bfbfbf" stroke="#bfbfbf" points="495,-1357.5 495,-1357.5 527,-1357.5 527,-1357.5 495,-1357.5"/>
<polygon fill="#bfbfbf" stroke="#bfbfbf" points="495,-1342.5 495,-1342.5 527,-1342.5 527,-1342.5 495,-1342.5"/>
<polygon fill="none" stroke="#bfbfbf" points="495,-1326 495,-1375 527,-1375 527,-1326 495,-1326"/>
</a>
</g>
</g>
<!-- Node8&#45;&gt;Node1 -->
<g id="edge19_Node000001_Node000008" class="edge">
<title>Node8&#45;&gt;Node1</title>
<g id="a_edge19_Node000001_Node000008"><a xlink:title=" ">
<path fill="none" stroke="#63b8ff" d="M494.86,-1349.27C408,-1347.12 0,-1325.01 0,-1099 0,-1099 0,-1099 0,-390.5 0,-198.36 264.9,-123.2 417.64,-95.83"/>
<polygon fill="none" stroke="#63b8ff" points="417.98,-95.77 423.2,-90.8 429.8,-93.71 424.58,-98.68 417.98,-95.77"/>
</a>
</g>
<text text-anchor="middle" x="61" y="-754.5" font-family="Helvetica,sans-Serif" font-size="10.00" fill="grey"> &#45;mSkipDeletedElements</text>
</g>
<!-- Node8&#45;&gt;Node3 -->
<g id="edge12_Node000003_Node000008" class="edge">
<title>Node8&#45;&gt;Node3</title>
<g id="a_edge12_Node000003_Node000008"><a xlink:title=" ">
<path fill="none" stroke="#63b8ff" d="M507.73,-1325.79C497.63,-1248.48 470.5,-1005.55 520,-950 549.5,-916.9 861.23,-917.54 936.43,-891.08"/>
<polygon fill="none" stroke="#63b8ff" points="936.43,-891.08 940.18,-884.92 947.31,-886 943.56,-892.17 936.43,-891.08"/>
</a>
</g>
<text text-anchor="middle" x="607.5" y="-1095.5" font-family="Helvetica,sans-Serif" font-size="10.00" fill="grey"> #mMeshChangesDuringSimulation</text>
</g>
<!-- Node8&#45;&gt;Node6 -->
<g id="edge7_Node000006_Node000008" class="edge">
<title>Node8&#45;&gt;Node6</title>
<g id="a_edge7_Node000006_Node000008"><a xlink:title=" ">
<path fill="none" stroke="#63b8ff" d="M527.29,-1335.97C550.13,-1317.55 593.53,-1284.55 635,-1264 658.05,-1252.58 669.55,-1261.6 690,-1246 691.48,-1244.87 692.95,-1243.71 694.4,-1242.52"/>
<polygon fill="none" stroke="#63b8ff" points="694.73,-1242.23 696.59,-1235.27 703.74,-1234.31 701.87,-1241.28 694.73,-1242.23"/>
</a>
</g>
<text text-anchor="middle" x="709" y="-1294.5" font-family="Helvetica,sans-Serif" font-size="10.00" fill="grey"> &#45;mPetscStatusKnown</text>
<text text-anchor="start" x="635" y="-1283.5" font-family="Helvetica,sans-Serif" font-size="10.00" fill="grey">&#45;msCheckNumberOfProcesses</text>
<text text-anchor="middle" x="709" y="-1272.5" font-family="Helvetica,sans-Serif" font-size="10.00" fill="grey">OnLoad</text>
</g>
<!-- Node9 -->
<g id="Node000009" class="node">
<title>Node9</title>
<g id="a_Node000009"><a xlink:title=" ">
<polygon fill="white" stroke="transparent" points="1019,-1375 911,-1375 911,-1326 1019,-1326 1019,-1375"/>
<text text-anchor="start" x="916" y="-1362.5" font-family="Helvetica,sans-Serif" font-size="10.00">vector&lt; unsigned &gt;</text>
<text text-anchor="start" x="963" y="-1347.5" font-family="Helvetica,sans-Serif" font-size="10.00"> </text>
<text text-anchor="start" x="963" y="-1332.5" font-family="Helvetica,sans-Serif" font-size="10.00"> </text>
<polygon fill="#bfbfbf" stroke="#bfbfbf" points="911,-1357.5 911,-1357.5 1019,-1357.5 1019,-1357.5 911,-1357.5"/>
<polygon fill="#bfbfbf" stroke="#bfbfbf" points="911,-1342.5 911,-1342.5 1019,-1342.5 1019,-1342.5 911,-1342.5"/>
<polygon fill="none" stroke="#bfbfbf" points="911,-1326 911,-1375 1019,-1375 1019,-1326 911,-1326"/>
</a>
</g>
</g>
<!-- Node9&#45;&gt;Node3 -->
<g id="edge10_Node000003_Node000009" class="edge">
<title>Node9&#45;&gt;Node3</title>
<g id="a_edge10_Node000003_Node000009"><a xlink:title=" ">
<path fill="none" stroke="#63b8ff" d="M995.21,-1325.58C999.97,-1320.32 1004.23,-1314.4 1007,-1308 1022.62,-1271.91 1023.94,-1054.69 1022.89,-904.29"/>
<polygon fill="none" stroke="#63b8ff" points="1022.89,-904.22 1018.84,-898.25 1022.8,-892.22 1026.84,-898.19 1022.89,-904.22"/>
</a>
</g>
<text text-anchor="middle" x="1076.5" y="-1095.5" font-family="Helvetica,sans-Serif" font-size="10.00" fill="grey"> #mNodePermutation</text>
</g>
<!-- Node9&#45;&gt;Node6 -->
<g id="edge8_Node000006_Node000009" class="edge">
<title>Node9&#45;&gt;Node6</title>
<g id="a_edge8_Node000006_Node000009"><a xlink:title=" ">
<path fill="none" stroke="#63b8ff" d="M947.18,-1325.88C942.83,-1320.06 938.22,-1313.82 934,-1308 915.47,-1282.44 895.89,-1254.94 877.26,-1228.56"/>
<polygon fill="none" stroke="#63b8ff" points="877.09,-1228.32 870.36,-1225.72 870.18,-1218.51 876.9,-1221.11 877.09,-1228.32"/>
</a>
</g>
<text text-anchor="middle" x="970.5" y="-1283.5" font-family="Helvetica,sans-Serif" font-size="10.00" fill="grey"> &#45;mGlobalLows</text>
</g>
<!-- Node10 -->
<g id="Node000010" class="node">
<title>Node10</title>
<g id="a_Node000010"><a xlink:title=" ">
<polygon fill="white" stroke="transparent" points="1184,-1122.5 1146,-1122.5 1146,-1073.5 1184,-1073.5 1184,-1122.5"/>
<text text-anchor="start" x="1151" y="-1110" font-family="Helvetica,sans-Serif" font-size="10.00">string</text>
<text text-anchor="start" x="1163" y="-1095" font-family="Helvetica,sans-Serif" font-size="10.00"> </text>
<text text-anchor="start" x="1163" y="-1080" font-family="Helvetica,sans-Serif" font-size="10.00"> </text>
<polygon fill="#bfbfbf" stroke="#bfbfbf" points="1146,-1105 1146,-1105 1184,-1105 1184,-1105 1146,-1105"/>
<polygon fill="#bfbfbf" stroke="#bfbfbf" points="1146,-1090 1146,-1090 1184,-1090 1184,-1090 1146,-1090"/>
<polygon fill="none" stroke="#bfbfbf" points="1146,-1073.5 1146,-1122.5 1184,-1122.5 1184,-1073.5 1146,-1073.5"/>
</a>
</g>
</g>
<!-- Node10&#45;&gt;Node3 -->
<g id="edge11_Node000003_Node000010" class="edge">
<title>Node10&#45;&gt;Node3</title>
<g id="a_edge11_Node000003_Node000010"><a xlink:title=" ">
<path fill="none" stroke="#63b8ff" d="M1161.96,-1073.44C1157.64,-1043.86 1148.37,-991.9 1132,-950 1123.24,-927.58 1112.14,-904.66 1100.36,-882.82"/>
<polygon fill="none" stroke="#63b8ff" points="1100.3,-882.71 1093.91,-879.38 1094.53,-872.19 1100.92,-875.53 1100.3,-882.71"/>
</a>
</g>
<text text-anchor="middle" x="1181" y="-918.5" font-family="Helvetica,sans-Serif" font-size="10.00" fill="grey"> #mMeshFileBaseName</text>
</g>
<!-- Node11 -->
<g id="Node000011" class="node">
<title>Node11</title>
<g id="a_Node000011"><a xlink:title=" ">
<polygon fill="white" stroke="transparent" points="269.5,-792.5 140.5,-792.5 140.5,-721.5 269.5,-721.5 269.5,-792.5"/>
<text text-anchor="start" x="146" y="-780" font-family="Helvetica,sans-Serif" font-size="10.00">vector&lt; VertexElement</text>
<text text-anchor="start" x="146" y="-769" font-family="Helvetica,sans-Serif" font-size="10.00">&lt; ELEMENT_DIM, SPACE</text>
<text text-anchor="start" x="177.5" y="-758" font-family="Helvetica,sans-Serif" font-size="10.00">_DIM &gt; * &gt;</text>
<text text-anchor="start" x="203.5" y="-743" font-family="Helvetica,sans-Serif" font-size="10.00"> </text>
<text text-anchor="start" x="203.5" y="-728" font-family="Helvetica,sans-Serif" font-size="10.00"> </text>
<polygon fill="#bfbfbf" stroke="#bfbfbf" points="141,-753 141,-753 270,-753 270,-753 141,-753"/>
<polygon fill="#bfbfbf" stroke="#bfbfbf" points="141,-738 141,-738 270,-738 270,-738 141,-738"/>
<polygon fill="none" stroke="#bfbfbf" points="140.5,-721.5 140.5,-792.5 269.5,-792.5 269.5,-721.5 140.5,-721.5"/>
</a>
</g>
</g>
<!-- Node11&#45;&gt;Node2 -->
<g id="edge13_Node000002_Node000011" class="edge">
<title>Node11&#45;&gt;Node2</title>
<g id="a_edge13_Node000002_Node000011"><a xlink:title=" ">
<path fill="none" stroke="#63b8ff" d="M220.07,-721.42C233.22,-693.22 253.93,-653.12 278,-622 319.54,-568.3 374,-515.96 421.03,-474.85"/>
<polygon fill="none" stroke="#63b8ff" points="421.26,-474.64 423.17,-467.69 430.33,-466.78 428.42,-473.73 421.26,-474.64"/>
</a>
</g>
<text text-anchor="middle" x="334.5" y="-596" font-family="Helvetica,sans-Serif" font-size="10.00" fill="grey"> #mElements</text>
</g>
<!-- Node12 -->
<g id="Node000012" class="node">
<title>Node12</title>
<g id="a_Node000012"><a xlink:title=" ">
<polygon fill="white" stroke="transparent" points="432.5,-792.5 287.5,-792.5 287.5,-721.5 432.5,-721.5 432.5,-792.5"/>
<text text-anchor="start" x="293" y="-780" font-family="Helvetica,sans-Serif" font-size="10.00">vector&lt; VertexElement</text>
<text text-anchor="start" x="293" y="-769" font-family="Helvetica,sans-Serif" font-size="10.00">&lt; ELEMENT_DIM &#45; 1, SPACE</text>
<text text-anchor="start" x="332.5" y="-758" font-family="Helvetica,sans-Serif" font-size="10.00">_DIM &gt; * &gt;</text>
<text text-anchor="start" x="358.5" y="-743" font-family="Helvetica,sans-Serif" font-size="10.00"> </text>
<text text-anchor="start" x="358.5" y="-728" font-family="Helvetica,sans-Serif" font-size="10.00"> </text>
<polygon fill="#bfbfbf" stroke="#bfbfbf" points="288,-753 288,-753 433,-753 433,-753 288,-753"/>
<polygon fill="#bfbfbf" stroke="#bfbfbf" points="288,-738 288,-738 433,-738 433,-738 288,-738"/>
<polygon fill="none" stroke="#bfbfbf" points="287.5,-721.5 287.5,-792.5 432.5,-792.5 432.5,-721.5 287.5,-721.5"/>
</a>
</g>
</g>
<!-- Node12&#45;&gt;Node2 -->
<g id="edge14_Node000002_Node000012" class="edge">
<title>Node12&#45;&gt;Node2</title>
<g id="a_edge14_Node000002_Node000012"><a xlink:title=" ">
<path fill="none" stroke="#63b8ff" d="M375.48,-721.48C389.91,-689.3 412.66,-638.56 436.01,-586.48"/>
<polygon fill="none" stroke="#63b8ff" points="436.09,-586.31 434.9,-579.19 441,-575.36 442.2,-582.47 436.09,-586.31"/>
</a>
</g>
<text text-anchor="middle" x="456.5" y="-596" font-family="Helvetica,sans-Serif" font-size="10.00" fill="grey"> #mFaces</text>
</g>
<!-- Node13 -->
<g id="Node000013" class="node">
<title>Node13</title>
<g id="a_Node000013"><a xlink:href="classEdgeHelper_3_01SPACE__DIM_01_4.html" target="_top" xlink:title=" ">
<polygon fill="white" stroke="transparent" points="595.5,-781.5 450.5,-781.5 450.5,-732.5 595.5,-732.5 595.5,-781.5"/>
<text text-anchor="start" x="456" y="-769" font-family="Helvetica,sans-Serif" font-size="10.00">EdgeHelper&lt; SPACE_DIM &gt;</text>
<text text-anchor="start" x="521.5" y="-754" font-family="Helvetica,sans-Serif" font-size="10.00"> </text>
<text text-anchor="start" x="521.5" y="-739" font-family="Helvetica,sans-Serif" font-size="10.00"> </text>
<polygon fill="#bfbfbf" stroke="#bfbfbf" points="451,-764 451,-764 596,-764 596,-764 451,-764"/>
<polygon fill="#bfbfbf" stroke="#bfbfbf" points="451,-749 451,-749 596,-749 596,-749 451,-749"/>
<polygon fill="none" stroke="#bfbfbf" points="450.5,-732.5 450.5,-781.5 595.5,-781.5 595.5,-732.5 450.5,-732.5"/>
</a>
</g>
</g>
<!-- Node13&#45;&gt;Node2 -->
<g id="edge15_Node000002_Node000013" class="edge">
<title>Node13&#45;&gt;Node2</title>
<g id="a_edge15_Node000002_Node000013"><a xlink:title=" ">
<path fill="none" stroke="#63b8ff" d="M523,-732.43C523,-701.82 523,-645.37 523,-587.15"/>
<polygon fill="none" stroke="#63b8ff" points="523,-587.1 519,-581.1 523,-575.1 527,-581.1 523,-587.1"/>
</a>
</g>
<text text-anchor="middle" x="562" y="-596" font-family="Helvetica,sans-Serif" font-size="10.00" fill="grey"> #mEdgeHelper</text>
</g>
<!-- Node14 -->
<g id="Node000014" class="node">
<title>Node14</title>
<g id="a_Node000014"><a xlink:title=" ">
<polygon fill="white" stroke="transparent" points="762.5,-781.5 613.5,-781.5 613.5,-732.5 762.5,-732.5 762.5,-781.5"/>
<text text-anchor="start" x="619" y="-769" font-family="Helvetica,sans-Serif" font-size="10.00">map&lt; unsigned, unsigned &gt;</text>
<text text-anchor="start" x="686.5" y="-754" font-family="Helvetica,sans-Serif" font-size="10.00"> </text>
<text text-anchor="start" x="686.5" y="-739" font-family="Helvetica,sans-Serif" font-size="10.00"> </text>
<polygon fill="#bfbfbf" stroke="#bfbfbf" points="614,-764 614,-764 763,-764 763,-764 614,-764"/>
<polygon fill="#bfbfbf" stroke="#bfbfbf" points="614,-749 614,-749 763,-749 763,-749 614,-749"/>
<polygon fill="none" stroke="#bfbfbf" points="613.5,-732.5 613.5,-781.5 762.5,-781.5 762.5,-732.5 613.5,-732.5"/>
</a>
</g>
</g>
<!-- Node14&#45;&gt;Node2 -->
<g id="edge16_Node000002_Node000014" class="edge">
<title>Node14&#45;&gt;Node2</title>
<g id="a_edge16_Node000002_Node000014"><a xlink:title=" ">
<path fill="none" stroke="#63b8ff" d="M677.3,-732.43C663.32,-701.62 637.46,-644.66 610.86,-586.05"/>
<polygon fill="none" stroke="#63b8ff" points="610.85,-586.03 604.72,-582.22 605.89,-575.1 612.01,-578.91 610.85,-586.03"/>
</a>
</g>
<text text-anchor="middle" x="688.5" y="-596" font-family="Helvetica,sans-Serif" font-size="10.00" fill="grey"> #mVoronoiElementIndexMap</text>
</g>
<!-- Node15 -->
<g id="Node000015" class="node">
<title>Node15</title>
<g id="a_Node000015"><a xlink:title=" ">
<polygon fill="white" stroke="transparent" points="929.5,-787 780.5,-787 780.5,-727 929.5,-727 929.5,-787"/>
<text text-anchor="start" x="786" y="-775" font-family="Helvetica,sans-Serif" font-size="10.00">TetrahedralMesh&lt; ELEMENT</text>
<text text-anchor="start" x="802.5" y="-764" font-family="Helvetica,sans-Serif" font-size="10.00">_DIM, SPACE_DIM &gt; *</text>
<text text-anchor="start" x="853.5" y="-749" font-family="Helvetica,sans-Serif" font-size="10.00"> </text>
<text text-anchor="start" x="853.5" y="-734" font-family="Helvetica,sans-Serif" font-size="10.00"> </text>
<polygon fill="#bfbfbf" stroke="#bfbfbf" points="781,-759 781,-759 930,-759 930,-759 781,-759"/>
<polygon fill="#bfbfbf" stroke="#bfbfbf" points="781,-744 781,-744 930,-744 930,-744 781,-744"/>
<polygon fill="none" stroke="#bfbfbf" points="780.5,-727 780.5,-787 929.5,-787 929.5,-727 780.5,-727"/>
</a>
</g>
</g>
<!-- Node15&#45;&gt;Node2 -->
<g id="edge17_Node000002_Node000015" class="edge">
<title>Node15&#45;&gt;Node2</title>
<g id="a_edge17_Node000002_Node000015"><a xlink:title=" ">
<path fill="none" stroke="#63b8ff" d="M847.9,-726.93C837.08,-689.3 812.6,-624.81 766,-593 716.78,-559.4 681.53,-604.64 626.01,-574.5"/>
<polygon fill="none" stroke="#63b8ff" points="626.01,-574.5 618.81,-574.77 615.79,-568.22 622.99,-567.95 626.01,-574.5"/>
</a>
</g>
<text text-anchor="middle" x="827" y="-596" font-family="Helvetica,sans-Serif" font-size="10.00" fill="grey"> #mpDelaunayMesh</text>
</g>
<!-- Node16 -->
<g id="Node000016" class="node">
<title>Node16</title>
<g id="a_Node000016"><a xlink:title=" ">
<polygon fill="white" stroke="transparent" points="680.5,-416 633.5,-416 633.5,-367 680.5,-367 680.5,-416"/>
<text text-anchor="start" x="639" y="-403.5" font-family="Helvetica,sans-Serif" font-size="10.00">iterator</text>
<text text-anchor="start" x="655.5" y="-388.5" font-family="Helvetica,sans-Serif" font-size="10.00"> </text>
<text text-anchor="start" x="655.5" y="-373.5" font-family="Helvetica,sans-Serif" font-size="10.00"> </text>
<polygon fill="#bfbfbf" stroke="#bfbfbf" points="634,-398.5 634,-398.5 681,-398.5 681,-398.5 634,-398.5"/>
<polygon fill="#bfbfbf" stroke="#bfbfbf" points="634,-383.5 634,-383.5 681,-383.5 681,-383.5 634,-383.5"/>
<polygon fill="none" stroke="#bfbfbf" points="633.5,-367 633.5,-416 680.5,-416 680.5,-367 633.5,-367"/>
</a>
</g>
</g>
<!-- Node16&#45;&gt;Node1 -->
<g id="edge18_Node000001_Node000016" class="edge">
<title>Node16&#45;&gt;Node1</title>
<g id="a_edge18_Node000001_Node000016"><a xlink:title=" ">
<path fill="none" stroke="#63b8ff" d="M656.4,-366.94C654.69,-331.09 648.23,-261.35 624,-208 618.34,-195.53 611.17,-183.23 603.28,-171.48"/>
<polygon fill="none" stroke="#63b8ff" points="603.04,-171.14 596.33,-168.51 596.18,-161.3 602.89,-163.93 603.04,-171.14"/>
</a>
</g>
<text text-anchor="middle" x="650" y="-182" font-family="Helvetica,sans-Serif" font-size="10.00" fill="grey"> &#45;mElementIter</text>
</g>
</g>
</svg>
