<?xml version="1.0" encoding="UTF-8" standalone="no"?>
<!DOCTYPE svg PUBLIC "-//W3C//DTD SVG 1.1//EN"
 "http://www.w3.org/Graphics/SVG/1.1/DTD/svg11.dtd">
<!-- Generated by graphviz version 2.43.0 (0)
 -->
<!-- Title: UniformSourceEllipticPde&lt; DIM &gt; Pages: 1 -->
<svg width="358pt" height="1004pt"
 viewBox="0.00 0.00 358.00 1004.00" xmlns="http://www.w3.org/2000/svg" xmlns:xlink="http://www.w3.org/1999/xlink">
<g id="graph0" class="graph" transform="scale(1 1) rotate(0) translate(4 1000)">
<title>UniformSourceEllipticPde&lt; DIM &gt;</title>
<!-- Node1 -->
<g id="Node000001" class="node">
<title>Node1</title>
<g id="a_Node000001"><a xlink:title=" ">
<polygon fill="#999999" stroke="transparent" points="277,-187 97,-187 97,0 277,0 277,-187"/>
<text text-anchor="start" x="125" y="-174.5" font-family="Helvetica,sans-Serif" font-size="10.00">UniformSourceEllipticPde</text>
<text text-anchor="start" x="165.5" y="-163.5" font-family="Helvetica,sans-Serif" font-size="10.00">&lt; DIM &gt;</text>
<text text-anchor="start" x="185" y="-148.5" font-family="Helvetica,sans-Serif" font-size="10.00"> </text>
<text text-anchor="start" x="101" y="-133.5" font-family="Helvetica,sans-Serif" font-size="10.00">+</text>
<text text-anchor="start" x="114" y="-133.5" font-family="Helvetica,sans-Serif" font-size="10.00">UniformSourceEllipticPde()</text>
<text text-anchor="start" x="101" y="-118.5" font-family="Helvetica,sans-Serif" font-size="10.00">+</text>
<text text-anchor="start" x="114" y="-118.5" font-family="Helvetica,sans-Serif" font-size="10.00">GetConstantCoefficient()</text>
<text text-anchor="start" x="101" y="-103.5" font-family="Helvetica,sans-Serif" font-size="10.00">+</text>
<text text-anchor="start" x="114" y="-103.5" font-family="Helvetica,sans-Serif" font-size="10.00">GetLinearCoefficient()</text>
<text text-anchor="start" x="101" y="-88.5" font-family="Helvetica,sans-Serif" font-size="10.00">+</text>
<text text-anchor="start" x="114" y="-88.5" font-family="Helvetica,sans-Serif" font-size="10.00">GetDiffusionCoefficient()</text>
<text text-anchor="start" x="101" y="-73.5" font-family="Helvetica,sans-Serif" font-size="10.00">+</text>
<text text-anchor="start" x="114" y="-73.5" font-family="Helvetica,sans-Serif" font-size="10.00">ComputeConstantInUSource</text>
<text text-anchor="start" x="114" y="-62.5" font-family="Helvetica,sans-Serif" font-size="10.00">Term()</text>
<text text-anchor="start" x="101" y="-47.5" font-family="Helvetica,sans-Serif" font-size="10.00">+</text>
<text text-anchor="start" x="114" y="-47.5" font-family="Helvetica,sans-Serif" font-size="10.00">ComputeLinearInUCoeffInSource</text>
<text text-anchor="start" x="114" y="-36.5" font-family="Helvetica,sans-Serif" font-size="10.00">Term()</text>
<text text-anchor="start" x="101" y="-21.5" font-family="Helvetica,sans-Serif" font-size="10.00">+</text>
<text text-anchor="start" x="114" y="-21.5" font-family="Helvetica,sans-Serif" font-size="10.00">ComputeDiffusionTerm()</text>
<text text-anchor="start" x="103.5" y="-6.5" font-family="Helvetica,sans-Serif" font-size="10.00">&#45;</text>
<text text-anchor="start" x="114" y="-6.5" font-family="Helvetica,sans-Serif" font-size="10.00">serialize()</text>
<polygon fill="#666666" stroke="#666666" points="97,-158.5 97,-158.5 277,-158.5 277,-158.5 97,-158.5"/>
<polygon fill="#666666" stroke="#666666" points="97,-143.5 97,-143.5 277,-143.5 277,-143.5 97,-143.5"/>
<polygon fill="none" stroke="#666666" points="97,0 97,-187 277,-187 277,0 97,0"/>
</a>
</g>
</g>
<!-- Node2 -->
<g id="Node000002" class="node">
<title>Node2</title>
<g id="a_Node000002"><a xlink:href="classAbstractLinearEllipticPde.html" target="_top" xlink:title=" ">
<polygon fill="white" stroke="transparent" points="180,-465 0,-465 0,-256 180,-256 180,-465"/>
<text text-anchor="start" x="29" y="-452.5" font-family="Helvetica,sans-Serif" font-size="10.00">AbstractLinearEllipticPde</text>
<text text-anchor="start" x="56" y="-441.5" font-family="Helvetica,sans-Serif" font-size="10.00">&lt; DIM, DIM &gt;</text>
<text text-anchor="start" x="88" y="-426.5" font-family="Helvetica,sans-Serif" font-size="10.00"> </text>
<text text-anchor="start" x="4" y="-411.5" font-family="Helvetica,sans-Serif" font-size="10.00">+</text>
<text text-anchor="start" x="17" y="-411.5" font-family="Helvetica,sans-Serif" font-size="10.00">AbstractLinearEllipticPde()</text>
<text text-anchor="start" x="4" y="-396.5" font-family="Helvetica,sans-Serif" font-size="10.00">+</text>
<text text-anchor="start" x="17" y="-396.5" font-family="Helvetica,sans-Serif" font-size="10.00">~AbstractLinearEllipticPde()</text>
<text text-anchor="start" x="4" y="-381.5" font-family="Helvetica,sans-Serif" font-size="10.00">+</text>
<text text-anchor="start" x="17" y="-381.5" font-family="Helvetica,sans-Serif" font-size="10.00">ComputeConstantInUSource</text>
<text text-anchor="start" x="17" y="-370.5" font-family="Helvetica,sans-Serif" font-size="10.00">Term()</text>
<text text-anchor="start" x="4" y="-355.5" font-family="Helvetica,sans-Serif" font-size="10.00">+</text>
<text text-anchor="start" x="17" y="-355.5" font-family="Helvetica,sans-Serif" font-size="10.00">ComputeLinearInUCoeffInSource</text>
<text text-anchor="start" x="17" y="-344.5" font-family="Helvetica,sans-Serif" font-size="10.00">Term()</text>
<text text-anchor="start" x="4" y="-329.5" font-family="Helvetica,sans-Serif" font-size="10.00">+</text>
<text text-anchor="start" x="17" y="-329.5" font-family="Helvetica,sans-Serif" font-size="10.00">ComputeDiffusionTerm()</text>
<text text-anchor="start" x="4" y="-314.5" font-family="Helvetica,sans-Serif" font-size="10.00">+</text>
<text text-anchor="start" x="17" y="-314.5" font-family="Helvetica,sans-Serif" font-size="10.00">ComputeConstantInUSource</text>
<text text-anchor="start" x="17" y="-303.5" font-family="Helvetica,sans-Serif" font-size="10.00">TermAtNode()</text>
<text text-anchor="start" x="4" y="-288.5" font-family="Helvetica,sans-Serif" font-size="10.00">+</text>
<text text-anchor="start" x="17" y="-288.5" font-family="Helvetica,sans-Serif" font-size="10.00">ComputeLinearInUCoeffInSource</text>
<text text-anchor="start" x="17" y="-277.5" font-family="Helvetica,sans-Serif" font-size="10.00">TermAtNode()</text>
<text text-anchor="start" x="6.5" y="-262.5" font-family="Helvetica,sans-Serif" font-size="10.00">&#45;</text>
<text text-anchor="start" x="17" y="-262.5" font-family="Helvetica,sans-Serif" font-size="10.00">serialize()</text>
<polygon fill="#666666" stroke="#666666" points="0,-436.5 0,-436.5 180,-436.5 180,-436.5 0,-436.5"/>
<polygon fill="#666666" stroke="#666666" points="0,-421.5 0,-421.5 180,-421.5 180,-421.5 0,-421.5"/>
<polygon fill="none" stroke="#666666" points="0,-256 0,-465 180,-465 180,-256 0,-256"/>
</a>
</g>
</g>
<!-- Node2&#45;&gt;Node1 -->
<g id="edge1_Node000001_Node000002" class="edge">
<title>Node2&#45;&gt;Node1</title>
<g id="a_edge1_Node000001_Node000002"><a xlink:title=" ">
<path fill="none" stroke="#63b8ff" d="M131.44,-246.29C138.65,-226.59 146.07,-206.31 153.05,-187.24"/>
<polygon fill="none" stroke="#63b8ff" points="128.07,-245.31 127.92,-255.91 134.64,-247.72 128.07,-245.31"/>
</a>
</g>
</g>
<!-- Node3 -->
<g id="Node000003" class="node">
<title>Node3</title>
<g id="a_Node000003"><a xlink:href="classAbstractLinearPde.html" target="_top" xlink:title=" ">
<polygon fill="white" stroke="transparent" points="164.5,-848 7.5,-848 7.5,-758 164.5,-758 164.5,-848"/>
<text text-anchor="start" x="13" y="-836" font-family="Helvetica,sans-Serif" font-size="10.00">AbstractLinearPde&lt;</text>
<text text-anchor="start" x="13" y="-825" font-family="Helvetica,sans-Serif" font-size="10.00"> ELEMENT_DIM, SPACE_DIM &gt;</text>
<text text-anchor="start" x="84.5" y="-810" font-family="Helvetica,sans-Serif" font-size="10.00"> </text>
<text text-anchor="start" x="19.5" y="-795" font-family="Helvetica,sans-Serif" font-size="10.00">+</text>
<text text-anchor="start" x="40" y="-795" font-family="Helvetica,sans-Serif" font-size="10.00">AbstractLinearPde()</text>
<text text-anchor="start" x="19.5" y="-780" font-family="Helvetica,sans-Serif" font-size="10.00">+</text>
<text text-anchor="start" x="40" y="-780" font-family="Helvetica,sans-Serif" font-size="10.00">~AbstractLinearPde()</text>
<text text-anchor="start" x="22" y="-765" font-family="Helvetica,sans-Serif" font-size="10.00">&#45;</text>
<text text-anchor="start" x="40" y="-765" font-family="Helvetica,sans-Serif" font-size="10.00">serialize()</text>
<polygon fill="#666666" stroke="#666666" points="8,-820 8,-820 165,-820 165,-820 8,-820"/>
<polygon fill="#666666" stroke="#666666" points="8,-805 8,-805 165,-805 165,-805 8,-805"/>
<polygon fill="none" stroke="#666666" points="7.5,-758 7.5,-848 164.5,-848 164.5,-758 7.5,-758"/>
</a>
</g>
</g>
<!-- Node3&#45;&gt;Node2 -->
<g id="edge2_Node000002_Node000003" class="edge">
<title>Node3&#45;&gt;Node2</title>
<g id="a_edge2_Node000002_Node000003"><a xlink:title=" ">
<path fill="none" stroke="#63b8ff" d="M86.5,-747.36C87.13,-677.13 88.25,-553.74 89.06,-465.39"/>
<polygon fill="none" stroke="#63b8ff" points="82.99,-747.71 86.4,-757.75 89.99,-747.78 82.99,-747.71"/>
</a>
</g>
</g>
<!-- Node5 -->
<g id="Node000005" class="node">
<title>Node5</title>
<g id="a_Node000005"><a xlink:href="classAbstractLinearEllipticPde.html" target="_top" xlink:title=" ">
<polygon fill="white" stroke="transparent" points="282,-721 102,-721 102,-512 282,-512 282,-721"/>
<text text-anchor="start" x="114.5" y="-708.5" font-family="Helvetica,sans-Serif" font-size="10.00">AbstractLinearEllipticPde</text>
<text text-anchor="start" x="114.5" y="-697.5" font-family="Helvetica,sans-Serif" font-size="10.00">&lt; ELEMENT_DIM, SPACE_DIM &gt;</text>
<text text-anchor="start" x="190" y="-682.5" font-family="Helvetica,sans-Serif" font-size="10.00"> </text>
<text text-anchor="start" x="106" y="-667.5" font-family="Helvetica,sans-Serif" font-size="10.00">+</text>
<text text-anchor="start" x="119" y="-667.5" font-family="Helvetica,sans-Serif" font-size="10.00">AbstractLinearEllipticPde()</text>
<text text-anchor="start" x="106" y="-652.5" font-family="Helvetica,sans-Serif" font-size="10.00">+</text>
<text text-anchor="start" x="119" y="-652.5" font-family="Helvetica,sans-Serif" font-size="10.00">~AbstractLinearEllipticPde()</text>
<text text-anchor="start" x="106" y="-637.5" font-family="Helvetica,sans-Serif" font-size="10.00">+</text>
<text text-anchor="start" x="119" y="-637.5" font-family="Helvetica,sans-Serif" font-size="10.00">ComputeConstantInUSource</text>
<text text-anchor="start" x="119" y="-626.5" font-family="Helvetica,sans-Serif" font-size="10.00">Term()</text>
<text text-anchor="start" x="106" y="-611.5" font-family="Helvetica,sans-Serif" font-size="10.00">+</text>
<text text-anchor="start" x="119" y="-611.5" font-family="Helvetica,sans-Serif" font-size="10.00">ComputeLinearInUCoeffInSource</text>
<text text-anchor="start" x="119" y="-600.5" font-family="Helvetica,sans-Serif" font-size="10.00">Term()</text>
<text text-anchor="start" x="106" y="-585.5" font-family="Helvetica,sans-Serif" font-size="10.00">+</text>
<text text-anchor="start" x="119" y="-585.5" font-family="Helvetica,sans-Serif" font-size="10.00">ComputeDiffusionTerm()</text>
<text text-anchor="start" x="106" y="-570.5" font-family="Helvetica,sans-Serif" font-size="10.00">+</text>
<text text-anchor="start" x="119" y="-570.5" font-family="Helvetica,sans-Serif" font-size="10.00">ComputeConstantInUSource</text>
<text text-anchor="start" x="119" y="-559.5" font-family="Helvetica,sans-Serif" font-size="10.00">TermAtNode()</text>
<text text-anchor="start" x="106" y="-544.5" font-family="Helvetica,sans-Serif" font-size="10.00">+</text>
<text text-anchor="start" x="119" y="-544.5" font-family="Helvetica,sans-Serif" font-size="10.00">ComputeLinearInUCoeffInSource</text>
<text text-anchor="start" x="119" y="-533.5" font-family="Helvetica,sans-Serif" font-size="10.00">TermAtNode()</text>
<text text-anchor="start" x="108.5" y="-518.5" font-family="Helvetica,sans-Serif" font-size="10.00">&#45;</text>
<text text-anchor="start" x="119" y="-518.5" font-family="Helvetica,sans-Serif" font-size="10.00">serialize()</text>
<polygon fill="#666666" stroke="#666666" points="102,-692.5 102,-692.5 282,-692.5 282,-692.5 102,-692.5"/>
<polygon fill="#666666" stroke="#666666" points="102,-677.5 102,-677.5 282,-677.5 282,-677.5 102,-677.5"/>
<polygon fill="none" stroke="#666666" points="102,-512 102,-721 282,-721 282,-512 102,-512"/>
</a>
</g>
</g>
<!-- Node3&#45;&gt;Node5 -->
<g id="edge5_Node000005_Node000003" class="edge">
<title>Node3&#45;&gt;Node5</title>
<g id="a_edge5_Node000005_Node000003"><a xlink:title=" ">
<path fill="none" stroke="#63b8ff" d="M116.5,-748.91C121.54,-740.15 126.9,-730.81 132.36,-721.31"/>
<polygon fill="none" stroke="#63b8ff" points="113.34,-747.39 111.39,-757.81 119.41,-750.88 113.34,-747.39"/>
</a>
</g>
</g>
<!-- Node4 -->
<g id="Node000004" class="node">
<title>Node4</title>
<g id="a_Node000004"><a xlink:href="classAbstractLinearPde.html" target="_top" xlink:title=" ">
<polygon fill="white" stroke="transparent" points="164.5,-996 7.5,-996 7.5,-906 164.5,-906 164.5,-996"/>
<text text-anchor="start" x="13" y="-984" font-family="Helvetica,sans-Serif" font-size="10.00">AbstractLinearPde&lt;</text>
<text text-anchor="start" x="13" y="-973" font-family="Helvetica,sans-Serif" font-size="10.00"> ELEMENT_DIM, SPACE_DIM &gt;</text>
<text text-anchor="start" x="84.5" y="-958" font-family="Helvetica,sans-Serif" font-size="10.00"> </text>
<text text-anchor="start" x="19.5" y="-943" font-family="Helvetica,sans-Serif" font-size="10.00">+</text>
<text text-anchor="start" x="40" y="-943" font-family="Helvetica,sans-Serif" font-size="10.00">AbstractLinearPde()</text>
<text text-anchor="start" x="19.5" y="-928" font-family="Helvetica,sans-Serif" font-size="10.00">+</text>
<text text-anchor="start" x="40" y="-928" font-family="Helvetica,sans-Serif" font-size="10.00">~AbstractLinearPde()</text>
<text text-anchor="start" x="22" y="-913" font-family="Helvetica,sans-Serif" font-size="10.00">&#45;</text>
<text text-anchor="start" x="40" y="-913" font-family="Helvetica,sans-Serif" font-size="10.00">serialize()</text>
<polygon fill="#666666" stroke="#666666" points="8,-968 8,-968 165,-968 165,-968 8,-968"/>
<polygon fill="#666666" stroke="#666666" points="8,-953 8,-953 165,-953 165,-953 8,-953"/>
<polygon fill="none" stroke="#666666" points="7.5,-906 7.5,-996 164.5,-996 164.5,-906 7.5,-906"/>
</a>
</g>
</g>
<!-- Node4&#45;&gt;Node3 -->
<g id="edge3_Node000003_Node000004" class="edge">
<title>Node4&#45;&gt;Node3</title>
<g id="a_edge3_Node000003_Node000004"><a xlink:title=" ">
<path fill="none" stroke="orange" d="M86,-895.69C86,-879.99 86,-863.05 86,-848.05"/>
<polygon fill="orange" stroke="orange" points="82.5,-895.8 86,-905.8 89.5,-895.8 82.5,-895.8"/>
</a>
</g>
<text text-anchor="start" x="86" y="-880" font-family="Helvetica,sans-Serif" font-size="10.00" fill="grey"> &lt; ELEMENT_DIM, SPACE</text>
<text text-anchor="middle" x="147" y="-869" font-family="Helvetica,sans-Serif" font-size="10.00" fill="grey">_DIM &gt;</text>
</g>
<!-- Node5&#45;&gt;Node2 -->
<g id="edge4_Node000002_Node000005" class="edge">
<title>Node5&#45;&gt;Node2</title>
<g id="a_edge4_Node000002_Node000005"><a xlink:title=" ">
<path fill="none" stroke="orange" d="M146.59,-502.41C141.62,-490.04 136.58,-477.5 131.67,-465.26"/>
<polygon fill="orange" stroke="orange" points="143.39,-503.85 150.37,-511.82 149.89,-501.24 143.39,-503.85"/>
</a>
</g>
<text text-anchor="middle" x="176.5" y="-486" font-family="Helvetica,sans-Serif" font-size="10.00" fill="grey"> &lt; DIM, DIM &gt;</text>
</g>
<!-- Node6 -->
<g id="Node000006" class="node">
<title>Node6</title>
<g id="a_Node000006"><a xlink:href="classdouble.html" target="_top" xlink:title=" ">
<polygon fill="white" stroke="transparent" points="242,-385 198,-385 198,-336 242,-336 242,-385"/>
<text text-anchor="start" x="203" y="-372.5" font-family="Helvetica,sans-Serif" font-size="10.00">double</text>
<text text-anchor="start" x="218" y="-357.5" font-family="Helvetica,sans-Serif" font-size="10.00"> </text>
<text text-anchor="start" x="218" y="-342.5" font-family="Helvetica,sans-Serif" font-size="10.00"> </text>
<polygon fill="#bfbfbf" stroke="#bfbfbf" points="198,-367.5 198,-367.5 242,-367.5 242,-367.5 198,-367.5"/>
<polygon fill="#bfbfbf" stroke="#bfbfbf" points="198,-352.5 198,-352.5 242,-352.5 242,-352.5 198,-352.5"/>
<polygon fill="none" stroke="#bfbfbf" points="198,-336 198,-385 242,-385 242,-336 198,-336"/>
</a>
</g>
</g>
<!-- Node6&#45;&gt;Node1 -->
<g id="edge6_Node000001_Node000006" class="edge">
<title>Node6&#45;&gt;Node1</title>
<g id="a_edge6_Node000001_Node000006"><a xlink:title=" ">
<path fill="none" stroke="#63b8ff" d="M217.07,-335.98C213.25,-305.26 206.3,-249.45 200.04,-199.22"/>
<polygon fill="none" stroke="#63b8ff" points="200.03,-199.17 195.32,-193.71 198.55,-187.26 203.26,-192.72 200.03,-199.17"/>
</a>
</g>
<text text-anchor="middle" x="277" y="-230" font-family="Helvetica,sans-Serif" font-size="10.00" fill="grey"> &#45;mConstantSourceCoefficient</text>
<text text-anchor="middle" x="277" y="-219" font-family="Helvetica,sans-Serif" font-size="10.00" fill="grey">&#45;mDiffusionCoefficient</text>
<text text-anchor="middle" x="277" y="-208" font-family="Helvetica,sans-Serif" font-size="10.00" fill="grey">&#45;mLinearSourceCoefficient</text>
</g>
</g>
</svg>
