<?xml version="1.0" encoding="UTF-8" standalone="no"?>
<!DOCTYPE svg PUBLIC "-//W3C//DTD SVG 1.1//EN"
 "http://www.w3.org/Graphics/SVG/1.1/DTD/svg11.dtd">
<!-- Generated by graphviz version 2.43.0 (0)
 -->
<!-- Title: UniformSourceEllipticPde&lt; DIM &gt; Pages: 1 -->
<svg width="290pt" height="1002pt"
 viewBox="0.00 0.00 290.00 1002.00" xmlns="http://www.w3.org/2000/svg" xmlns:xlink="http://www.w3.org/1999/xlink">
<g id="graph0" class="graph" transform="scale(1 1) rotate(0) translate(4 998)">
<title>UniformSourceEllipticPde&lt; DIM &gt;</title>
<!-- Node1 -->
<g id="Node000001" class="node">
<title>Node1</title>
<g id="a_Node000001"><a xlink:title=" ">
<polygon fill="#999999" stroke="transparent" points="180,-217 0,-217 0,0 180,0 180,-217"/>
<text text-anchor="start" x="28" y="-204.5" font-family="Helvetica,sans-Serif" font-size="10.00">UniformSourceEllipticPde</text>
<text text-anchor="start" x="68.5" y="-193.5" font-family="Helvetica,sans-Serif" font-size="10.00">&lt; DIM &gt;</text>
<text text-anchor="start" x="6.5" y="-178.5" font-family="Helvetica,sans-Serif" font-size="10.00">&#45;</text>
<text text-anchor="start" x="17" y="-178.5" font-family="Helvetica,sans-Serif" font-size="10.00">mConstantSourceCoefficient</text>
<text text-anchor="start" x="6.5" y="-163.5" font-family="Helvetica,sans-Serif" font-size="10.00">&#45;</text>
<text text-anchor="start" x="17" y="-163.5" font-family="Helvetica,sans-Serif" font-size="10.00">mLinearSourceCoefficient</text>
<text text-anchor="start" x="6.5" y="-148.5" font-family="Helvetica,sans-Serif" font-size="10.00">&#45;</text>
<text text-anchor="start" x="17" y="-148.5" font-family="Helvetica,sans-Serif" font-size="10.00">mDiffusionCoefficient</text>
<text text-anchor="start" x="4" y="-133.5" font-family="Helvetica,sans-Serif" font-size="10.00">+</text>
<text text-anchor="start" x="17" y="-133.5" font-family="Helvetica,sans-Serif" font-size="10.00">UniformSourceEllipticPde()</text>
<text text-anchor="start" x="4" y="-118.5" font-family="Helvetica,sans-Serif" font-size="10.00">+</text>
<text text-anchor="start" x="17" y="-118.5" font-family="Helvetica,sans-Serif" font-size="10.00">GetConstantCoefficient()</text>
<text text-anchor="start" x="4" y="-103.5" font-family="Helvetica,sans-Serif" font-size="10.00">+</text>
<text text-anchor="start" x="17" y="-103.5" font-family="Helvetica,sans-Serif" font-size="10.00">GetLinearCoefficient()</text>
<text text-anchor="start" x="4" y="-88.5" font-family="Helvetica,sans-Serif" font-size="10.00">+</text>
<text text-anchor="start" x="17" y="-88.5" font-family="Helvetica,sans-Serif" font-size="10.00">GetDiffusionCoefficient()</text>
<text text-anchor="start" x="4" y="-73.5" font-family="Helvetica,sans-Serif" font-size="10.00">+</text>
<text text-anchor="start" x="17" y="-73.5" font-family="Helvetica,sans-Serif" font-size="10.00">ComputeConstantInUSource</text>
<text text-anchor="start" x="17" y="-62.5" font-family="Helvetica,sans-Serif" font-size="10.00">Term()</text>
<text text-anchor="start" x="4" y="-47.5" font-family="Helvetica,sans-Serif" font-size="10.00">+</text>
<text text-anchor="start" x="17" y="-47.5" font-family="Helvetica,sans-Serif" font-size="10.00">ComputeLinearInUCoeffInSource</text>
<text text-anchor="start" x="17" y="-36.5" font-family="Helvetica,sans-Serif" font-size="10.00">Term()</text>
<text text-anchor="start" x="4" y="-21.5" font-family="Helvetica,sans-Serif" font-size="10.00">+</text>
<text text-anchor="start" x="17" y="-21.5" font-family="Helvetica,sans-Serif" font-size="10.00">ComputeDiffusionTerm()</text>
<text text-anchor="start" x="6.5" y="-6.5" font-family="Helvetica,sans-Serif" font-size="10.00">&#45;</text>
<text text-anchor="start" x="17" y="-6.5" font-family="Helvetica,sans-Serif" font-size="10.00">serialize()</text>
<polygon fill="#666666" stroke="#666666" points="0,-188.5 0,-188.5 180,-188.5 180,-188.5 0,-188.5"/>
<polygon fill="#666666" stroke="#666666" points="0,-143.5 0,-143.5 15,-143.5 15,-143.5 0,-143.5"/>
<polygon fill="#666666" stroke="#666666" points="15,-143.5 15,-143.5 180,-143.5 180,-143.5 15,-143.5"/>
<polygon fill="none" stroke="#666666" points="0,0 0,-217 180,-217 180,0 0,0"/>
</a>
</g>
</g>
<!-- Node2 -->
<g id="Node000002" class="node">
<title>Node2</title>
<g id="a_Node000002"><a xlink:href="classAbstractLinearEllipticPde.html" target="_top" xlink:title=" ">
<polygon fill="white" stroke="transparent" points="180,-463 0,-463 0,-254 180,-254 180,-463"/>
<text text-anchor="start" x="29" y="-450.5" font-family="Helvetica,sans-Serif" font-size="10.00">AbstractLinearEllipticPde</text>
<text text-anchor="start" x="56" y="-439.5" font-family="Helvetica,sans-Serif" font-size="10.00">&lt; DIM, DIM &gt;</text>
<text text-anchor="start" x="88" y="-424.5" font-family="Helvetica,sans-Serif" font-size="10.00"> </text>
<text text-anchor="start" x="4" y="-409.5" font-family="Helvetica,sans-Serif" font-size="10.00">+</text>
<text text-anchor="start" x="17" y="-409.5" font-family="Helvetica,sans-Serif" font-size="10.00">AbstractLinearEllipticPde()</text>
<text text-anchor="start" x="4" y="-394.5" font-family="Helvetica,sans-Serif" font-size="10.00">+</text>
<text text-anchor="start" x="17" y="-394.5" font-family="Helvetica,sans-Serif" font-size="10.00">~AbstractLinearEllipticPde()</text>
<text text-anchor="start" x="4" y="-379.5" font-family="Helvetica,sans-Serif" font-size="10.00">+</text>
<text text-anchor="start" x="17" y="-379.5" font-family="Helvetica,sans-Serif" font-size="10.00">ComputeConstantInUSource</text>
<text text-anchor="start" x="17" y="-368.5" font-family="Helvetica,sans-Serif" font-size="10.00">Term()</text>
<text text-anchor="start" x="4" y="-353.5" font-family="Helvetica,sans-Serif" font-size="10.00">+</text>
<text text-anchor="start" x="17" y="-353.5" font-family="Helvetica,sans-Serif" font-size="10.00">ComputeLinearInUCoeffInSource</text>
<text text-anchor="start" x="17" y="-342.5" font-family="Helvetica,sans-Serif" font-size="10.00">Term()</text>
<text text-anchor="start" x="4" y="-327.5" font-family="Helvetica,sans-Serif" font-size="10.00">+</text>
<text text-anchor="start" x="17" y="-327.5" font-family="Helvetica,sans-Serif" font-size="10.00">ComputeDiffusionTerm()</text>
<text text-anchor="start" x="4" y="-312.5" font-family="Helvetica,sans-Serif" font-size="10.00">+</text>
<text text-anchor="start" x="17" y="-312.5" font-family="Helvetica,sans-Serif" font-size="10.00">ComputeConstantInUSource</text>
<text text-anchor="start" x="17" y="-301.5" font-family="Helvetica,sans-Serif" font-size="10.00">TermAtNode()</text>
<text text-anchor="start" x="4" y="-286.5" font-family="Helvetica,sans-Serif" font-size="10.00">+</text>
<text text-anchor="start" x="17" y="-286.5" font-family="Helvetica,sans-Serif" font-size="10.00">ComputeLinearInUCoeffInSource</text>
<text text-anchor="start" x="17" y="-275.5" font-family="Helvetica,sans-Serif" font-size="10.00">TermAtNode()</text>
<text text-anchor="start" x="6.5" y="-260.5" font-family="Helvetica,sans-Serif" font-size="10.00">&#45;</text>
<text text-anchor="start" x="17" y="-260.5" font-family="Helvetica,sans-Serif" font-size="10.00">serialize()</text>
<polygon fill="#666666" stroke="#666666" points="0,-434.5 0,-434.5 180,-434.5 180,-434.5 0,-434.5"/>
<polygon fill="#666666" stroke="#666666" points="0,-419.5 0,-419.5 180,-419.5 180,-419.5 0,-419.5"/>
<polygon fill="none" stroke="#666666" points="0,-254 0,-463 180,-463 180,-254 0,-254"/>
</a>
</g>
</g>
<!-- Node2&#45;&gt;Node1 -->
<g id="edge1_Node000001_Node000002" class="edge">
<title>Node2&#45;&gt;Node1</title>
<g id="a_edge1_Node000001_Node000002"><a xlink:title=" ">
<path fill="none" stroke="#63b8ff" d="M90,-243.52C90,-234.76 90,-225.93 90,-217.21"/>
<polygon fill="none" stroke="#63b8ff" points="86.5,-243.76 90,-253.76 93.5,-243.76 86.5,-243.76"/>
</a>
</g>
</g>
<!-- Node3 -->
<g id="Node000003" class="node">
<title>Node3</title>
<g id="a_Node000003"><a xlink:href="classAbstractLinearPde.html" target="_top" xlink:title=" ">
<polygon fill="white" stroke="transparent" points="164.5,-846 7.5,-846 7.5,-756 164.5,-756 164.5,-846"/>
<text text-anchor="start" x="13" y="-834" font-family="Helvetica,sans-Serif" font-size="10.00">AbstractLinearPde&lt;</text>
<text text-anchor="start" x="13" y="-823" font-family="Helvetica,sans-Serif" font-size="10.00"> ELEMENT_DIM, SPACE_DIM &gt;</text>
<text text-anchor="start" x="84.5" y="-808" font-family="Helvetica,sans-Serif" font-size="10.00"> </text>
<text text-anchor="start" x="19.5" y="-793" font-family="Helvetica,sans-Serif" font-size="10.00">+</text>
<text text-anchor="start" x="40" y="-793" font-family="Helvetica,sans-Serif" font-size="10.00">AbstractLinearPde()</text>
<text text-anchor="start" x="19.5" y="-778" font-family="Helvetica,sans-Serif" font-size="10.00">+</text>
<text text-anchor="start" x="40" y="-778" font-family="Helvetica,sans-Serif" font-size="10.00">~AbstractLinearPde()</text>
<text text-anchor="start" x="22" y="-763" font-family="Helvetica,sans-Serif" font-size="10.00">&#45;</text>
<text text-anchor="start" x="40" y="-763" font-family="Helvetica,sans-Serif" font-size="10.00">serialize()</text>
<polygon fill="#666666" stroke="#666666" points="8,-818 8,-818 165,-818 165,-818 8,-818"/>
<polygon fill="#666666" stroke="#666666" points="8,-803 8,-803 165,-803 165,-803 8,-803"/>
<polygon fill="none" stroke="#666666" points="7.5,-756 7.5,-846 164.5,-846 164.5,-756 7.5,-756"/>
</a>
</g>
</g>
<!-- Node3&#45;&gt;Node2 -->
<g id="edge2_Node000002_Node000003" class="edge">
<title>Node3&#45;&gt;Node2</title>
<g id="a_edge2_Node000002_Node000003"><a xlink:title=" ">
<path fill="none" stroke="#63b8ff" d="M86.5,-745.36C87.13,-675.13 88.25,-551.74 89.06,-463.39"/>
<polygon fill="none" stroke="#63b8ff" points="82.99,-745.71 86.4,-755.75 89.99,-745.78 82.99,-745.71"/>
</a>
</g>
</g>
<!-- Node5 -->
<g id="Node000005" class="node">
<title>Node5</title>
<g id="a_Node000005"><a xlink:href="classAbstractLinearEllipticPde.html" target="_top" xlink:title=" ">
<polygon fill="white" stroke="transparent" points="282,-719 102,-719 102,-510 282,-510 282,-719"/>
<text text-anchor="start" x="114.5" y="-706.5" font-family="Helvetica,sans-Serif" font-size="10.00">AbstractLinearEllipticPde</text>
<text text-anchor="start" x="114.5" y="-695.5" font-family="Helvetica,sans-Serif" font-size="10.00">&lt; ELEMENT_DIM, SPACE_DIM &gt;</text>
<text text-anchor="start" x="190" y="-680.5" font-family="Helvetica,sans-Serif" font-size="10.00"> </text>
<text text-anchor="start" x="106" y="-665.5" font-family="Helvetica,sans-Serif" font-size="10.00">+</text>
<text text-anchor="start" x="119" y="-665.5" font-family="Helvetica,sans-Serif" font-size="10.00">AbstractLinearEllipticPde()</text>
<text text-anchor="start" x="106" y="-650.5" font-family="Helvetica,sans-Serif" font-size="10.00">+</text>
<text text-anchor="start" x="119" y="-650.5" font-family="Helvetica,sans-Serif" font-size="10.00">~AbstractLinearEllipticPde()</text>
<text text-anchor="start" x="106" y="-635.5" font-family="Helvetica,sans-Serif" font-size="10.00">+</text>
<text text-anchor="start" x="119" y="-635.5" font-family="Helvetica,sans-Serif" font-size="10.00">ComputeConstantInUSource</text>
<text text-anchor="start" x="119" y="-624.5" font-family="Helvetica,sans-Serif" font-size="10.00">Term()</text>
<text text-anchor="start" x="106" y="-609.5" font-family="Helvetica,sans-Serif" font-size="10.00">+</text>
<text text-anchor="start" x="119" y="-609.5" font-family="Helvetica,sans-Serif" font-size="10.00">ComputeLinearInUCoeffInSource</text>
<text text-anchor="start" x="119" y="-598.5" font-family="Helvetica,sans-Serif" font-size="10.00">Term()</text>
<text text-anchor="start" x="106" y="-583.5" font-family="Helvetica,sans-Serif" font-size="10.00">+</text>
<text text-anchor="start" x="119" y="-583.5" font-family="Helvetica,sans-Serif" font-size="10.00">ComputeDiffusionTerm()</text>
<text text-anchor="start" x="106" y="-568.5" font-family="Helvetica,sans-Serif" font-size="10.00">+</text>
<text text-anchor="start" x="119" y="-568.5" font-family="Helvetica,sans-Serif" font-size="10.00">ComputeConstantInUSource</text>
<text text-anchor="start" x="119" y="-557.5" font-family="Helvetica,sans-Serif" font-size="10.00">TermAtNode()</text>
<text text-anchor="start" x="106" y="-542.5" font-family="Helvetica,sans-Serif" font-size="10.00">+</text>
<text text-anchor="start" x="119" y="-542.5" font-family="Helvetica,sans-Serif" font-size="10.00">ComputeLinearInUCoeffInSource</text>
<text text-anchor="start" x="119" y="-531.5" font-family="Helvetica,sans-Serif" font-size="10.00">TermAtNode()</text>
<text text-anchor="start" x="108.5" y="-516.5" font-family="Helvetica,sans-Serif" font-size="10.00">&#45;</text>
<text text-anchor="start" x="119" y="-516.5" font-family="Helvetica,sans-Serif" font-size="10.00">serialize()</text>
<polygon fill="#666666" stroke="#666666" points="102,-690.5 102,-690.5 282,-690.5 282,-690.5 102,-690.5"/>
<polygon fill="#666666" stroke="#666666" points="102,-675.5 102,-675.5 282,-675.5 282,-675.5 102,-675.5"/>
<polygon fill="none" stroke="#666666" points="102,-510 102,-719 282,-719 282,-510 102,-510"/>
</a>
</g>
</g>
<!-- Node3&#45;&gt;Node5 -->
<g id="edge5_Node000005_Node000003" class="edge">
<title>Node3&#45;&gt;Node5</title>
<g id="a_edge5_Node000005_Node000003"><a xlink:title=" ">
<path fill="none" stroke="#63b8ff" d="M116.5,-746.91C121.54,-738.15 126.9,-728.81 132.36,-719.31"/>
<polygon fill="none" stroke="#63b8ff" points="113.34,-745.39 111.39,-755.81 119.41,-748.88 113.34,-745.39"/>
</a>
</g>
</g>
<!-- Node4 -->
<g id="Node000004" class="node">
<title>Node4</title>
<g id="a_Node000004"><a xlink:href="classAbstractLinearPde.html" target="_top" xlink:title=" ">
<polygon fill="white" stroke="transparent" points="164.5,-994 7.5,-994 7.5,-904 164.5,-904 164.5,-994"/>
<text text-anchor="start" x="13" y="-982" font-family="Helvetica,sans-Serif" font-size="10.00">AbstractLinearPde&lt;</text>
<text text-anchor="start" x="13" y="-971" font-family="Helvetica,sans-Serif" font-size="10.00"> ELEMENT_DIM, SPACE_DIM &gt;</text>
<text text-anchor="start" x="84.5" y="-956" font-family="Helvetica,sans-Serif" font-size="10.00"> </text>
<text text-anchor="start" x="19.5" y="-941" font-family="Helvetica,sans-Serif" font-size="10.00">+</text>
<text text-anchor="start" x="40" y="-941" font-family="Helvetica,sans-Serif" font-size="10.00">AbstractLinearPde()</text>
<text text-anchor="start" x="19.5" y="-926" font-family="Helvetica,sans-Serif" font-size="10.00">+</text>
<text text-anchor="start" x="40" y="-926" font-family="Helvetica,sans-Serif" font-size="10.00">~AbstractLinearPde()</text>
<text text-anchor="start" x="22" y="-911" font-family="Helvetica,sans-Serif" font-size="10.00">&#45;</text>
<text text-anchor="start" x="40" y="-911" font-family="Helvetica,sans-Serif" font-size="10.00">serialize()</text>
<polygon fill="#666666" stroke="#666666" points="8,-966 8,-966 165,-966 165,-966 8,-966"/>
<polygon fill="#666666" stroke="#666666" points="8,-951 8,-951 165,-951 165,-951 8,-951"/>
<polygon fill="none" stroke="#666666" points="7.5,-904 7.5,-994 164.5,-994 164.5,-904 7.5,-904"/>
</a>
</g>
</g>
<!-- Node4&#45;&gt;Node3 -->
<g id="edge3_Node000003_Node000004" class="edge">
<title>Node4&#45;&gt;Node3</title>
<g id="a_edge3_Node000003_Node000004"><a xlink:title=" ">
<path fill="none" stroke="orange" d="M86,-893.69C86,-877.99 86,-861.05 86,-846.05"/>
<polygon fill="orange" stroke="orange" points="82.5,-893.8 86,-903.8 89.5,-893.8 82.5,-893.8"/>
</a>
</g>
<text text-anchor="start" x="86" y="-878" font-family="Helvetica,sans-Serif" font-size="10.00" fill="grey"> &lt; ELEMENT_DIM, SPACE</text>
<text text-anchor="middle" x="147" y="-867" font-family="Helvetica,sans-Serif" font-size="10.00" fill="grey">_DIM &gt;</text>
</g>
<!-- Node5&#45;&gt;Node2 -->
<g id="edge4_Node000002_Node000005" class="edge">
<title>Node5&#45;&gt;Node2</title>
<g id="a_edge4_Node000002_Node000005"><a xlink:title=" ">
<path fill="none" stroke="orange" d="M146.59,-500.41C141.62,-488.04 136.58,-475.5 131.67,-463.26"/>
<polygon fill="orange" stroke="orange" points="143.39,-501.85 150.37,-509.82 149.89,-499.24 143.39,-501.85"/>
</a>
</g>
<text text-anchor="middle" x="176.5" y="-484" font-family="Helvetica,sans-Serif" font-size="10.00" fill="grey"> &lt; DIM, DIM &gt;</text>
</g>
</g>
</svg>
