<?xml version="1.0" encoding="UTF-8" standalone="no"?>
<!DOCTYPE svg PUBLIC "-//W3C//DTD SVG 1.1//EN"
 "http://www.w3.org/Graphics/SVG/1.1/DTD/svg11.dtd">
<!-- Generated by graphviz version 2.43.0 (0)
 -->
<!-- Title: SteadyStateRunner Pages: 1 -->
<svg width="508pt" height="396pt"
 viewBox="0.00 0.00 507.50 396.00" xmlns="http://www.w3.org/2000/svg" xmlns:xlink="http://www.w3.org/1999/xlink">
<g id="graph0" class="graph" transform="scale(1 1) rotate(0) translate(4 392)">
<title>SteadyStateRunner</title>
<!-- Node1 -->
<g id="Node000001" class="node">
<title>Node1</title>
<g id="a_Node000001"><a xlink:title=" ">
<polygon fill="#999999" stroke="transparent" points="438.5,-64 242.5,-64 242.5,0 438.5,0 438.5,-64"/>
<text text-anchor="start" x="293.5" y="-52" font-family="Helvetica,sans-Serif" font-size="10.00">SteadyStateRunner</text>
<text text-anchor="start" x="338.5" y="-37" font-family="Helvetica,sans-Serif" font-size="10.00"> </text>
<text text-anchor="start" x="246.5" y="-22" font-family="Helvetica,sans-Serif" font-size="10.00">+</text>
<text text-anchor="start" x="259.5" y="-22" font-family="Helvetica,sans-Serif" font-size="10.00">SteadyStateRunner()</text>
<text text-anchor="start" x="246.5" y="-7" font-family="Helvetica,sans-Serif" font-size="10.00">#</text>
<text text-anchor="start" x="259.5" y="-7" font-family="Helvetica,sans-Serif" font-size="10.00">RunToSteadyStateImplementation()</text>
<polygon fill="#666666" stroke="#666666" points="242.5,-47 242.5,-47 438.5,-47 438.5,-47 242.5,-47"/>
<polygon fill="#666666" stroke="#666666" points="242.5,-32 242.5,-32 438.5,-32 438.5,-32 242.5,-32"/>
<polygon fill="none" stroke="#666666" points="242.5,0 242.5,-64 438.5,-64 438.5,0 242.5,0"/>
</a>
</g>
</g>
<!-- Node2 -->
<g id="Node000002" class="node">
<title>Node2</title>
<g id="a_Node000002"><a xlink:href="classAbstractSteadyStateRunner.html" target="_top" xlink:title=" ">
<polygon fill="white" stroke="transparent" points="344.5,-270 148.5,-270 148.5,-101 344.5,-101 344.5,-270"/>
<text text-anchor="start" x="179" y="-257.5" font-family="Helvetica,sans-Serif" font-size="10.00">AbstractSteadyStateRunner</text>
<text text-anchor="start" x="244.5" y="-242.5" font-family="Helvetica,sans-Serif" font-size="10.00"> </text>
<text text-anchor="start" x="152.5" y="-227.5" font-family="Helvetica,sans-Serif" font-size="10.00">+</text>
<text text-anchor="start" x="165.5" y="-227.5" font-family="Helvetica,sans-Serif" font-size="10.00">AbstractSteadyStateRunner()</text>
<text text-anchor="start" x="152.5" y="-212.5" font-family="Helvetica,sans-Serif" font-size="10.00">+</text>
<text text-anchor="start" x="165.5" y="-212.5" font-family="Helvetica,sans-Serif" font-size="10.00">~AbstractSteadyStateRunner()</text>
<text text-anchor="start" x="152.5" y="-197.5" font-family="Helvetica,sans-Serif" font-size="10.00">+</text>
<text text-anchor="start" x="165.5" y="-197.5" font-family="Helvetica,sans-Serif" font-size="10.00">RunToSteadyState()</text>
<text text-anchor="start" x="152.5" y="-182.5" font-family="Helvetica,sans-Serif" font-size="10.00">+</text>
<text text-anchor="start" x="165.5" y="-182.5" font-family="Helvetica,sans-Serif" font-size="10.00">SuppressOutput()</text>
<text text-anchor="start" x="152.5" y="-167.5" font-family="Helvetica,sans-Serif" font-size="10.00">+</text>
<text text-anchor="start" x="165.5" y="-167.5" font-family="Helvetica,sans-Serif" font-size="10.00">SuppressWarnings()</text>
<text text-anchor="start" x="152.5" y="-152.5" font-family="Helvetica,sans-Serif" font-size="10.00">+</text>
<text text-anchor="start" x="165.5" y="-152.5" font-family="Helvetica,sans-Serif" font-size="10.00">GetNumEvaluations()</text>
<text text-anchor="start" x="152.5" y="-137.5" font-family="Helvetica,sans-Serif" font-size="10.00">+</text>
<text text-anchor="start" x="165.5" y="-137.5" font-family="Helvetica,sans-Serif" font-size="10.00">SetMaxNumPaces()</text>
<text text-anchor="start" x="152.5" y="-122.5" font-family="Helvetica,sans-Serif" font-size="10.00">#</text>
<text text-anchor="start" x="165.5" y="-122.5" font-family="Helvetica,sans-Serif" font-size="10.00">RunToSteadyStateImplementation()</text>
<text text-anchor="start" x="155" y="-107.5" font-family="Helvetica,sans-Serif" font-size="10.00">&#45;</text>
<text text-anchor="start" x="165.5" y="-107.5" font-family="Helvetica,sans-Serif" font-size="10.00">AbstractSteadyStateRunner()</text>
<polygon fill="#666666" stroke="#666666" points="148.5,-252.5 148.5,-252.5 344.5,-252.5 344.5,-252.5 148.5,-252.5"/>
<polygon fill="#666666" stroke="#666666" points="148.5,-237.5 148.5,-237.5 344.5,-237.5 344.5,-237.5 148.5,-237.5"/>
<polygon fill="none" stroke="#666666" points="148.5,-101 148.5,-270 344.5,-270 344.5,-101 148.5,-101"/>
</a>
</g>
</g>
<!-- Node2&#45;&gt;Node1 -->
<g id="edge1_Node000001_Node000002" class="edge">
<title>Node2&#45;&gt;Node1</title>
<g id="a_edge1_Node000001_Node000002"><a xlink:title=" ">
<path fill="none" stroke="#63b8ff" d="M303.89,-92C310.02,-82.12 315.91,-72.64 321.1,-64.27"/>
<polygon fill="none" stroke="#63b8ff" points="300.75,-90.43 298.45,-100.77 306.7,-94.12 300.75,-90.43"/>
</a>
</g>
</g>
<!-- Node3 -->
<g id="Node000003" class="node">
<title>Node3</title>
<g id="a_Node000003"><a xlink:title=" ">
<polygon fill="white" stroke="transparent" points="145,-388 0,-388 0,-328 145,-328 145,-388"/>
<text text-anchor="start" x="5.5" y="-376" font-family="Helvetica,sans-Serif" font-size="10.00">shared_ptr&lt; AbstractCvode</text>
<text text-anchor="start" x="57.5" y="-365" font-family="Helvetica,sans-Serif" font-size="10.00">Cell &gt;</text>
<text text-anchor="start" x="71" y="-350" font-family="Helvetica,sans-Serif" font-size="10.00"> </text>
<text text-anchor="start" x="71" y="-335" font-family="Helvetica,sans-Serif" font-size="10.00"> </text>
<polygon fill="#bfbfbf" stroke="#bfbfbf" points="0.5,-360 0.5,-360 145.5,-360 145.5,-360 0.5,-360"/>
<polygon fill="#bfbfbf" stroke="#bfbfbf" points="0.5,-345 0.5,-345 145.5,-345 145.5,-345 0.5,-345"/>
<polygon fill="none" stroke="#bfbfbf" points="0,-328 0,-388 145,-388 145,-328 0,-328"/>
</a>
</g>
</g>
<!-- Node3&#45;&gt;Node2 -->
<g id="edge2_Node000002_Node000003" class="edge">
<title>Node3&#45;&gt;Node2</title>
<g id="a_edge2_Node000002_Node000003"><a xlink:title=" ">
<path fill="none" stroke="#63b8ff" d="M93.32,-327.72C102.87,-315.02 114.68,-300.27 126.5,-288 130.71,-283.63 135.09,-279.25 139.59,-274.9"/>
<polygon fill="none" stroke="#63b8ff" points="139.65,-274.84 141.25,-267.8 148.36,-266.57 146.76,-273.61 139.65,-274.84"/>
</a>
</g>
<text text-anchor="middle" x="155.5" y="-296.5" font-family="Helvetica,sans-Serif" font-size="10.00" fill="grey"> #mpModel</text>
</g>
<!-- Node4 -->
<g id="Node000004" class="node">
<title>Node4</title>
<g id="a_Node000004"><a xlink:href="classunsigned.html" target="_top" xlink:title=" ">
<polygon fill="white" stroke="transparent" points="218,-382.5 163,-382.5 163,-333.5 218,-333.5 218,-382.5"/>
<text text-anchor="start" x="168.5" y="-370" font-family="Helvetica,sans-Serif" font-size="10.00">unsigned</text>
<text text-anchor="start" x="189" y="-355" font-family="Helvetica,sans-Serif" font-size="10.00"> </text>
<text text-anchor="start" x="189" y="-340" font-family="Helvetica,sans-Serif" font-size="10.00"> </text>
<polygon fill="#bfbfbf" stroke="#bfbfbf" points="163.5,-365 163.5,-365 218.5,-365 218.5,-365 163.5,-365"/>
<polygon fill="#bfbfbf" stroke="#bfbfbf" points="163.5,-350 163.5,-350 218.5,-350 218.5,-350 163.5,-350"/>
<polygon fill="none" stroke="#bfbfbf" points="163,-333.5 163,-382.5 218,-382.5 218,-333.5 163,-333.5"/>
</a>
</g>
</g>
<!-- Node4&#45;&gt;Node2 -->
<g id="edge3_Node000002_Node000004" class="edge">
<title>Node4&#45;&gt;Node2</title>
<g id="a_edge3_Node000002_Node000004"><a xlink:title=" ">
<path fill="none" stroke="#63b8ff" d="M188.08,-333.31C187.38,-319.82 187.65,-302.72 191.5,-288 192.06,-285.87 192.66,-283.74 193.32,-281.62"/>
<polygon fill="none" stroke="#63b8ff" points="193.33,-281.59 191.51,-274.62 197.25,-270.25 199.07,-277.23 193.33,-281.59"/>
</a>
</g>
<text text-anchor="middle" x="241" y="-302" font-family="Helvetica,sans-Serif" font-size="10.00" fill="grey"> #mMaxNumPaces</text>
<text text-anchor="middle" x="241" y="-291" font-family="Helvetica,sans-Serif" font-size="10.00" fill="grey">#mNumEvaluations</text>
</g>
<!-- Node5 -->
<g id="Node000005" class="node">
<title>Node5</title>
<g id="a_Node000005"><a xlink:href="classbool.html" target="_top" xlink:title=" ">
<polygon fill="white" stroke="transparent" points="389.5,-382.5 357.5,-382.5 357.5,-333.5 389.5,-333.5 389.5,-382.5"/>
<text text-anchor="start" x="362.5" y="-370" font-family="Helvetica,sans-Serif" font-size="10.00">bool</text>
<text text-anchor="start" x="371.5" y="-355" font-family="Helvetica,sans-Serif" font-size="10.00"> </text>
<text text-anchor="start" x="371.5" y="-340" font-family="Helvetica,sans-Serif" font-size="10.00"> </text>
<polygon fill="#bfbfbf" stroke="#bfbfbf" points="357.5,-365 357.5,-365 389.5,-365 389.5,-365 357.5,-365"/>
<polygon fill="#bfbfbf" stroke="#bfbfbf" points="357.5,-350 357.5,-350 389.5,-350 389.5,-350 357.5,-350"/>
<polygon fill="none" stroke="#bfbfbf" points="357.5,-333.5 357.5,-382.5 389.5,-382.5 389.5,-333.5 357.5,-333.5"/>
</a>
</g>
</g>
<!-- Node5&#45;&gt;Node1 -->
<g id="edge5_Node000001_Node000005" class="edge">
<title>Node5&#45;&gt;Node1</title>
<g id="a_edge5_Node000001_Node000005"><a xlink:title=" ">
<path fill="none" stroke="#63b8ff" d="M389.76,-346.42C401.02,-338.06 415.08,-325.27 421.5,-310 425.29,-300.99 423,-297.66 421.5,-288 409.54,-210.87 378.39,-125.13 358.39,-75.32"/>
<polygon fill="none" stroke="#63b8ff" points="358.33,-75.17 352.36,-71.12 353.81,-64.05 359.77,-68.1 358.33,-75.17"/>
</a>
</g>
<text text-anchor="middle" x="458.5" y="-183" font-family="Helvetica,sans-Serif" font-size="10.00" fill="grey"> &#45;mTwoPaceScan</text>
</g>
<!-- Node5&#45;&gt;Node2 -->
<g id="edge4_Node000002_Node000005" class="edge">
<title>Node5&#45;&gt;Node2</title>
<g id="a_edge4_Node000002_Node000005"><a xlink:title=" ">
<path fill="none" stroke="#63b8ff" d="M357.49,-347.12C344.46,-338.51 326.23,-325.06 313.5,-310 305.88,-300.99 298.75,-290.97 292.2,-280.65"/>
<polygon fill="none" stroke="#63b8ff" points="292.1,-280.49 285.55,-277.46 285.83,-270.26 292.38,-273.29 292.1,-280.49"/>
</a>
</g>
<text text-anchor="middle" x="367.5" y="-302" font-family="Helvetica,sans-Serif" font-size="10.00" fill="grey"> #mSuppressOutput</text>
<text text-anchor="middle" x="367.5" y="-291" font-family="Helvetica,sans-Serif" font-size="10.00" fill="grey">#mSuppressWarnings</text>
</g>
</g>
</svg>
