<?xml version="1.0" encoding="UTF-8" standalone="no"?>
<!DOCTYPE svg PUBLIC "-//W3C//DTD SVG 1.1//EN"
 "http://www.w3.org/Graphics/SVG/1.1/DTD/svg11.dtd">
<!-- Generated by graphviz version 2.43.0 (0)
 -->
<!-- Title: CmguiMeshWriter Pages: 1 -->
<svg width="192pt" height="258pt"
 viewBox="0.00 0.00 192.00 258.00" xmlns="http://www.w3.org/2000/svg" xmlns:xlink="http://www.w3.org/1999/xlink">
<g id="graph0" class="graph" transform="scale(1 1) rotate(0) translate(4 254)">
<title>CmguiMeshWriter</title>
<!-- Node1 -->
<g id="Node000001" class="node">
<title>Node1</title>
<g id="a_Node000001"><a xlink:title=" ">
<polygon fill="#999999" stroke="transparent" points="141,-250 43,-250 43,-201 141,-201 141,-250"/>
<text text-anchor="start" x="48" y="-237.5" font-family="Helvetica,sans-Serif" font-size="10.00">CmguiMeshWriter</text>
<text text-anchor="start" x="90" y="-222.5" font-family="Helvetica,sans-Serif" font-size="10.00"> </text>
<text text-anchor="start" x="90" y="-207.5" font-family="Helvetica,sans-Serif" font-size="10.00"> </text>
<polygon fill="#666666" stroke="#666666" points="43,-232.5 43,-232.5 141,-232.5 141,-232.5 43,-232.5"/>
<polygon fill="#666666" stroke="#666666" points="43,-217.5 43,-217.5 141,-217.5 141,-217.5 43,-217.5"/>
<polygon fill="none" stroke="#666666" points="43,-201 43,-250 141,-250 141,-201 43,-201"/>
</a>
</g>
</g>
<!-- Node2 -->
<g id="Node000002" class="node">
<title>Node2</title>
<g id="a_Node000002"><a xlink:href="classCmguiDeformedSolutionsWriter.html" target="_top" xlink:title=" ">
<polygon fill="white" stroke="transparent" points="184,-165 0,-165 0,0 184,0 184,-165"/>
<text text-anchor="start" x="14" y="-152.5" font-family="Helvetica,sans-Serif" font-size="10.00">CmguiDeformedSolutionsWriter</text>
<text text-anchor="start" x="70.5" y="-141.5" font-family="Helvetica,sans-Serif" font-size="10.00">&lt; DIM &gt;</text>
<text text-anchor="start" x="6.5" y="-126.5" font-family="Helvetica,sans-Serif" font-size="10.00">&#45;</text>
<text text-anchor="start" x="17" y="-126.5" font-family="Helvetica,sans-Serif" font-size="10.00">mpQuadraticMesh</text>
<text text-anchor="start" x="6.5" y="-111.5" font-family="Helvetica,sans-Serif" font-size="10.00">&#45;</text>
<text text-anchor="start" x="17" y="-111.5" font-family="Helvetica,sans-Serif" font-size="10.00">mFinalCounter</text>
<text text-anchor="start" x="6.5" y="-96.5" font-family="Helvetica,sans-Serif" font-size="10.00">&#45;</text>
<text text-anchor="start" x="17" y="-96.5" font-family="Helvetica,sans-Serif" font-size="10.00">mNumNodesToUse</text>
<text text-anchor="start" x="4" y="-81.5" font-family="Helvetica,sans-Serif" font-size="10.00">+</text>
<text text-anchor="start" x="17" y="-81.5" font-family="Helvetica,sans-Serif" font-size="10.00">CmguiDeformedSolutionsWriter()</text>
<text text-anchor="start" x="4" y="-66.5" font-family="Helvetica,sans-Serif" font-size="10.00">+</text>
<text text-anchor="start" x="17" y="-66.5" font-family="Helvetica,sans-Serif" font-size="10.00">WriteInitialMesh()</text>
<text text-anchor="start" x="4" y="-51.5" font-family="Helvetica,sans-Serif" font-size="10.00">+</text>
<text text-anchor="start" x="17" y="-51.5" font-family="Helvetica,sans-Serif" font-size="10.00">WriteDeformationPositions()</text>
<text text-anchor="start" x="4" y="-36.5" font-family="Helvetica,sans-Serif" font-size="10.00">+</text>
<text text-anchor="start" x="17" y="-36.5" font-family="Helvetica,sans-Serif" font-size="10.00">WriteCmguiScript()</text>
<text text-anchor="start" x="4" y="-21.5" font-family="Helvetica,sans-Serif" font-size="10.00">+</text>
<text text-anchor="start" x="17" y="-21.5" font-family="Helvetica,sans-Serif" font-size="10.00">ConvertOutput()</text>
<text text-anchor="start" x="6.5" y="-6.5" font-family="Helvetica,sans-Serif" font-size="10.00">&#45;</text>
<text text-anchor="start" x="17" y="-6.5" font-family="Helvetica,sans-Serif" font-size="10.00">GetNumNodes()</text>
<polygon fill="#666666" stroke="#666666" points="0,-136.5 0,-136.5 184,-136.5 184,-136.5 0,-136.5"/>
<polygon fill="#666666" stroke="#666666" points="0,-91.5 0,-91.5 15,-91.5 15,-91.5 0,-91.5"/>
<polygon fill="#666666" stroke="#666666" points="15,-91.5 15,-91.5 184,-91.5 184,-91.5 15,-91.5"/>
<polygon fill="none" stroke="#666666" points="0,0 0,-165 184,-165 184,0 0,0"/>
</a>
</g>
</g>
<!-- Node1&#45;&gt;Node2 -->
<g id="edge1_Node000001_Node000002" class="edge">
<title>Node1&#45;&gt;Node2</title>
<g id="a_edge1_Node000001_Node000002"><a xlink:title=" ">
<path fill="none" stroke="#63b8ff" d="M92,-190.7C92,-182.79 92,-174.03 92,-165.02"/>
<polygon fill="none" stroke="#63b8ff" points="88.5,-190.9 92,-200.9 95.5,-190.9 88.5,-190.9"/>
</a>
</g>
</g>
</g>
</svg>
