<?xml version="1.0" encoding="UTF-8" standalone="no"?>
<!DOCTYPE svg PUBLIC "-//W3C//DTD SVG 1.1//EN"
 "http://www.w3.org/Graphics/SVG/1.1/DTD/svg11.dtd">
<!-- Generated by graphviz version 2.43.0 (0)
 -->
<!-- Title: TetrahedralMesh&lt; ELEMENT_DIM, SPACE_DIM &gt; Pages: 1 -->
<svg width="1888pt" height="1503pt"
 viewBox="0.00 0.00 1887.72 1503.00" xmlns="http://www.w3.org/2000/svg" xmlns:xlink="http://www.w3.org/1999/xlink">
<g id="graph0" class="graph" transform="scale(1 1) rotate(0) translate(4 1499)">
<title>TetrahedralMesh&lt; ELEMENT_DIM, SPACE_DIM &gt;</title>
<!-- Node1 -->
<g id="Node000001" class="node">
<title>Node1</title>
<g id="a_Node000001"><a xlink:title=" ">
<polygon fill="#999999" stroke="transparent" points="1511.22,-341 1326.22,-341 1326.22,0 1511.22,0 1511.22,-341"/>
<text text-anchor="start" x="1349.72" y="-328.5" font-family="Helvetica,sans-Serif" font-size="10.00">TetrahedralMesh&lt; ELEMENT</text>
<text text-anchor="start" x="1370.22" y="-317.5" font-family="Helvetica,sans-Serif" font-size="10.00">_DIM, SPACE_DIM &gt;</text>
<text text-anchor="start" x="1417.22" y="-302.5" font-family="Helvetica,sans-Serif" font-size="10.00"> </text>
<text text-anchor="start" x="1330.72" y="-287.5" font-family="Helvetica,sans-Serif" font-size="10.00">+</text>
<text text-anchor="start" x="1343.72" y="-287.5" font-family="Helvetica,sans-Serif" font-size="10.00">TetrahedralMesh()</text>
<text text-anchor="start" x="1330.72" y="-272.5" font-family="Helvetica,sans-Serif" font-size="10.00">+</text>
<text text-anchor="start" x="1343.72" y="-272.5" font-family="Helvetica,sans-Serif" font-size="10.00">ConstructFromMeshReader()</text>
<text text-anchor="start" x="1330.72" y="-257.5" font-family="Helvetica,sans-Serif" font-size="10.00">+</text>
<text text-anchor="start" x="1343.72" y="-257.5" font-family="Helvetica,sans-Serif" font-size="10.00">ReadNodesPerProcessorFile()</text>
<text text-anchor="start" x="1330.72" y="-242.5" font-family="Helvetica,sans-Serif" font-size="10.00">+</text>
<text text-anchor="start" x="1343.72" y="-242.5" font-family="Helvetica,sans-Serif" font-size="10.00">CheckIsConforming()</text>
<text text-anchor="start" x="1330.72" y="-227.5" font-family="Helvetica,sans-Serif" font-size="10.00">+</text>
<text text-anchor="start" x="1343.72" y="-227.5" font-family="Helvetica,sans-Serif" font-size="10.00">GetVolume()</text>
<text text-anchor="start" x="1330.72" y="-212.5" font-family="Helvetica,sans-Serif" font-size="10.00">+</text>
<text text-anchor="start" x="1343.72" y="-212.5" font-family="Helvetica,sans-Serif" font-size="10.00">GetSurfaceArea()</text>
<text text-anchor="start" x="1330.72" y="-197.5" font-family="Helvetica,sans-Serif" font-size="10.00">+</text>
<text text-anchor="start" x="1343.72" y="-197.5" font-family="Helvetica,sans-Serif" font-size="10.00">RefreshMesh()</text>
<text text-anchor="start" x="1330.72" y="-182.5" font-family="Helvetica,sans-Serif" font-size="10.00">+</text>
<text text-anchor="start" x="1343.72" y="-182.5" font-family="Helvetica,sans-Serif" font-size="10.00">PermuteNodes()</text>
<text text-anchor="start" x="1330.72" y="-167.5" font-family="Helvetica,sans-Serif" font-size="10.00">+</text>
<text text-anchor="start" x="1343.72" y="-167.5" font-family="Helvetica,sans-Serif" font-size="10.00">PermuteNodes()</text>
<text text-anchor="start" x="1330.72" y="-152.5" font-family="Helvetica,sans-Serif" font-size="10.00">+</text>
<text text-anchor="start" x="1343.72" y="-152.5" font-family="Helvetica,sans-Serif" font-size="10.00">GetContainingElementIndex</text>
<text text-anchor="start" x="1343.72" y="-141.5" font-family="Helvetica,sans-Serif" font-size="10.00">WithInitialGuess()</text>
<text text-anchor="start" x="1343.72" y="-126.5" font-family="Helvetica,sans-Serif" font-size="10.00">and 11 more...</text>
<text text-anchor="start" x="1330.72" y="-111.5" font-family="Helvetica,sans-Serif" font-size="10.00">#</text>
<text text-anchor="start" x="1343.72" y="-111.5" font-family="Helvetica,sans-Serif" font-size="10.00">SolveNodeMapping()</text>
<text text-anchor="start" x="1330.72" y="-96.5" font-family="Helvetica,sans-Serif" font-size="10.00">#</text>
<text text-anchor="start" x="1343.72" y="-96.5" font-family="Helvetica,sans-Serif" font-size="10.00">SolveElementMapping()</text>
<text text-anchor="start" x="1330.72" y="-81.5" font-family="Helvetica,sans-Serif" font-size="10.00">#</text>
<text text-anchor="start" x="1343.72" y="-81.5" font-family="Helvetica,sans-Serif" font-size="10.00">SolveBoundaryElementMapping()</text>
<text text-anchor="start" x="1330.72" y="-66.5" font-family="Helvetica,sans-Serif" font-size="10.00">#</text>
<text text-anchor="start" x="1343.72" y="-66.5" font-family="Helvetica,sans-Serif" font-size="10.00">ExportToMesher()</text>
<text text-anchor="start" x="1330.72" y="-51.5" font-family="Helvetica,sans-Serif" font-size="10.00">#</text>
<text text-anchor="start" x="1343.72" y="-51.5" font-family="Helvetica,sans-Serif" font-size="10.00">ImportFromMesher()</text>
<text text-anchor="start" x="1330.72" y="-36.5" font-family="Helvetica,sans-Serif" font-size="10.00">#</text>
<text text-anchor="start" x="1343.72" y="-36.5" font-family="Helvetica,sans-Serif" font-size="10.00">InitialiseTriangulateIo()</text>
<text text-anchor="start" x="1330.72" y="-21.5" font-family="Helvetica,sans-Serif" font-size="10.00">#</text>
<text text-anchor="start" x="1343.72" y="-21.5" font-family="Helvetica,sans-Serif" font-size="10.00">FreeTriangulateIo()</text>
<text text-anchor="start" x="1333.22" y="-6.5" font-family="Helvetica,sans-Serif" font-size="10.00">&#45;</text>
<text text-anchor="start" x="1343.72" y="-6.5" font-family="Helvetica,sans-Serif" font-size="10.00">serialize()</text>
<polygon fill="#666666" stroke="#666666" points="1326.72,-312.5 1326.72,-312.5 1511.72,-312.5 1511.72,-312.5 1326.72,-312.5"/>
<polygon fill="#666666" stroke="#666666" points="1326.72,-297.5 1326.72,-297.5 1511.72,-297.5 1511.72,-297.5 1326.72,-297.5"/>
<polygon fill="none" stroke="#666666" points="1326.22,0 1326.22,-341 1511.22,-341 1511.22,0 1326.22,0"/>
</a>
</g>
</g>
<!-- Node2 -->
<g id="Node000002" class="node">
<title>Node2</title>
<g id="a_Node000002"><a xlink:href="classAbstractTetrahedralMesh.html" target="_top" xlink:title=" ">
<polygon fill="white" stroke="transparent" points="1153.22,-695 966.22,-695 966.22,-410 1153.22,-410 1153.22,-695"/>
<text text-anchor="start" x="982.72" y="-682.5" font-family="Helvetica,sans-Serif" font-size="10.00">AbstractTetrahedralMesh</text>
<text text-anchor="start" x="982.72" y="-671.5" font-family="Helvetica,sans-Serif" font-size="10.00">&lt; ELEMENT_DIM, SPACE_DIM &gt;</text>
<text text-anchor="start" x="1058.22" y="-656.5" font-family="Helvetica,sans-Serif" font-size="10.00"> </text>
<text text-anchor="start" x="970.72" y="-641.5" font-family="Helvetica,sans-Serif" font-size="10.00">+</text>
<text text-anchor="start" x="983.72" y="-641.5" font-family="Helvetica,sans-Serif" font-size="10.00">GetElementIteratorBegin()</text>
<text text-anchor="start" x="970.72" y="-626.5" font-family="Helvetica,sans-Serif" font-size="10.00">+</text>
<text text-anchor="start" x="983.72" y="-626.5" font-family="Helvetica,sans-Serif" font-size="10.00">GetElementIteratorEnd()</text>
<text text-anchor="start" x="970.72" y="-611.5" font-family="Helvetica,sans-Serif" font-size="10.00">+</text>
<text text-anchor="start" x="983.72" y="-611.5" font-family="Helvetica,sans-Serif" font-size="10.00">AbstractTetrahedralMesh()</text>
<text text-anchor="start" x="970.72" y="-596.5" font-family="Helvetica,sans-Serif" font-size="10.00">+</text>
<text text-anchor="start" x="983.72" y="-596.5" font-family="Helvetica,sans-Serif" font-size="10.00">~AbstractTetrahedralMesh()</text>
<text text-anchor="start" x="970.72" y="-581.5" font-family="Helvetica,sans-Serif" font-size="10.00">+</text>
<text text-anchor="start" x="983.72" y="-581.5" font-family="Helvetica,sans-Serif" font-size="10.00">GetNumElements()</text>
<text text-anchor="start" x="970.72" y="-566.5" font-family="Helvetica,sans-Serif" font-size="10.00">+</text>
<text text-anchor="start" x="983.72" y="-566.5" font-family="Helvetica,sans-Serif" font-size="10.00">GetNumLocalElements()</text>
<text text-anchor="start" x="970.72" y="-551.5" font-family="Helvetica,sans-Serif" font-size="10.00">+</text>
<text text-anchor="start" x="983.72" y="-551.5" font-family="Helvetica,sans-Serif" font-size="10.00">GetNumBoundaryElements()</text>
<text text-anchor="start" x="970.72" y="-536.5" font-family="Helvetica,sans-Serif" font-size="10.00">+</text>
<text text-anchor="start" x="983.72" y="-536.5" font-family="Helvetica,sans-Serif" font-size="10.00">GetNumLocalBoundaryElements()</text>
<text text-anchor="start" x="970.72" y="-521.5" font-family="Helvetica,sans-Serif" font-size="10.00">+</text>
<text text-anchor="start" x="983.72" y="-521.5" font-family="Helvetica,sans-Serif" font-size="10.00">GetNumAllElements()</text>
<text text-anchor="start" x="970.72" y="-506.5" font-family="Helvetica,sans-Serif" font-size="10.00">+</text>
<text text-anchor="start" x="983.72" y="-506.5" font-family="Helvetica,sans-Serif" font-size="10.00">GetNumAllBoundaryElements()</text>
<text text-anchor="start" x="983.72" y="-491.5" font-family="Helvetica,sans-Serif" font-size="10.00">and 25 more...</text>
<text text-anchor="start" x="970.72" y="-476.5" font-family="Helvetica,sans-Serif" font-size="10.00">#</text>
<text text-anchor="start" x="983.72" y="-476.5" font-family="Helvetica,sans-Serif" font-size="10.00">SetElementOwnerships()</text>
<text text-anchor="start" x="973.22" y="-461.5" font-family="Helvetica,sans-Serif" font-size="10.00">&#45;</text>
<text text-anchor="start" x="983.72" y="-461.5" font-family="Helvetica,sans-Serif" font-size="10.00">SolveElementMapping()</text>
<text text-anchor="start" x="973.22" y="-446.5" font-family="Helvetica,sans-Serif" font-size="10.00">&#45;</text>
<text text-anchor="start" x="983.72" y="-446.5" font-family="Helvetica,sans-Serif" font-size="10.00">SolveBoundaryElementMapping()</text>
<text text-anchor="start" x="973.22" y="-431.5" font-family="Helvetica,sans-Serif" font-size="10.00">&#45;</text>
<text text-anchor="start" x="983.72" y="-431.5" font-family="Helvetica,sans-Serif" font-size="10.00">save()</text>
<text text-anchor="start" x="973.22" y="-416.5" font-family="Helvetica,sans-Serif" font-size="10.00">&#45;</text>
<text text-anchor="start" x="983.72" y="-416.5" font-family="Helvetica,sans-Serif" font-size="10.00">load()</text>
<polygon fill="#666666" stroke="#666666" points="966.72,-666.5 966.72,-666.5 1153.72,-666.5 1153.72,-666.5 966.72,-666.5"/>
<polygon fill="#666666" stroke="#666666" points="966.72,-651.5 966.72,-651.5 1153.72,-651.5 1153.72,-651.5 966.72,-651.5"/>
<polygon fill="none" stroke="#666666" points="966.22,-410 966.22,-695 1153.22,-695 1153.22,-410 966.22,-410"/>
</a>
</g>
</g>
<!-- Node2&#45;&gt;Node1 -->
<g id="edge1_Node000001_Node000002" class="edge">
<title>Node2&#45;&gt;Node1</title>
<g id="a_edge1_Node000001_Node000002"><a xlink:title=" ">
<path fill="none" stroke="#63b8ff" d="M1159.88,-412.1C1160.5,-411.39 1161.11,-410.7 1161.72,-410 1212.41,-352.64 1275.31,-294.08 1326.2,-249.35"/>
<polygon fill="none" stroke="#63b8ff" points="1157.18,-409.87 1153.32,-419.74 1162.49,-414.43 1157.18,-409.87"/>
</a>
</g>
</g>
<!-- Node3 -->
<g id="Node000003" class="node">
<title>Node3</title>
<g id="a_Node000003"><a xlink:href="classAbstractMesh.html" target="_top" xlink:title=" ">
<polygon fill="white" stroke="transparent" points="608.22,-1012 461.22,-1012 461.22,-742 608.22,-742 608.22,-1012"/>
<text text-anchor="start" x="473.22" y="-1000" font-family="Helvetica,sans-Serif" font-size="10.00">AbstractMesh&lt; ELEMENT</text>
<text text-anchor="start" x="486.22" y="-989" font-family="Helvetica,sans-Serif" font-size="10.00">_DIM, SPACE_DIM &gt;</text>
<text text-anchor="start" x="533.22" y="-974" font-family="Helvetica,sans-Serif" font-size="10.00"> </text>
<text text-anchor="start" x="465.72" y="-959" font-family="Helvetica,sans-Serif" font-size="10.00">+</text>
<text text-anchor="start" x="478.72" y="-959" font-family="Helvetica,sans-Serif" font-size="10.00">GetNodeIteratorBegin()</text>
<text text-anchor="start" x="465.72" y="-944" font-family="Helvetica,sans-Serif" font-size="10.00">+</text>
<text text-anchor="start" x="478.72" y="-944" font-family="Helvetica,sans-Serif" font-size="10.00">GetNodeIteratorEnd()</text>
<text text-anchor="start" x="465.72" y="-929" font-family="Helvetica,sans-Serif" font-size="10.00">+</text>
<text text-anchor="start" x="478.72" y="-929" font-family="Helvetica,sans-Serif" font-size="10.00">AbstractMesh()</text>
<text text-anchor="start" x="465.72" y="-914" font-family="Helvetica,sans-Serif" font-size="10.00">+</text>
<text text-anchor="start" x="478.72" y="-914" font-family="Helvetica,sans-Serif" font-size="10.00">~AbstractMesh()</text>
<text text-anchor="start" x="465.72" y="-899" font-family="Helvetica,sans-Serif" font-size="10.00">+</text>
<text text-anchor="start" x="478.72" y="-899" font-family="Helvetica,sans-Serif" font-size="10.00">GetNumNodes()</text>
<text text-anchor="start" x="465.72" y="-884" font-family="Helvetica,sans-Serif" font-size="10.00">+</text>
<text text-anchor="start" x="478.72" y="-884" font-family="Helvetica,sans-Serif" font-size="10.00">GetNumBoundaryNodes()</text>
<text text-anchor="start" x="465.72" y="-869" font-family="Helvetica,sans-Serif" font-size="10.00">+</text>
<text text-anchor="start" x="478.72" y="-869" font-family="Helvetica,sans-Serif" font-size="10.00">GetNumAllNodes()</text>
<text text-anchor="start" x="465.72" y="-854" font-family="Helvetica,sans-Serif" font-size="10.00">+</text>
<text text-anchor="start" x="478.72" y="-854" font-family="Helvetica,sans-Serif" font-size="10.00">GetNumNodeAttributes()</text>
<text text-anchor="start" x="465.72" y="-839" font-family="Helvetica,sans-Serif" font-size="10.00">+</text>
<text text-anchor="start" x="478.72" y="-839" font-family="Helvetica,sans-Serif" font-size="10.00">GetNode()</text>
<text text-anchor="start" x="465.72" y="-824" font-family="Helvetica,sans-Serif" font-size="10.00">+</text>
<text text-anchor="start" x="478.72" y="-824" font-family="Helvetica,sans-Serif" font-size="10.00">GetNodeOrHaloNode()</text>
<text text-anchor="start" x="478.72" y="-809" font-family="Helvetica,sans-Serif" font-size="10.00">and 28 more...</text>
<text text-anchor="start" x="465.72" y="-794" font-family="Helvetica,sans-Serif" font-size="10.00">#</text>
<text text-anchor="start" x="478.72" y="-794" font-family="Helvetica,sans-Serif" font-size="10.00">SetElementOwnerships()</text>
<text text-anchor="start" x="465.72" y="-779" font-family="Helvetica,sans-Serif" font-size="10.00">#</text>
<text text-anchor="start" x="478.72" y="-779" font-family="Helvetica,sans-Serif" font-size="10.00">CalculateBoundingBox()</text>
<text text-anchor="start" x="468.22" y="-764" font-family="Helvetica,sans-Serif" font-size="10.00">&#45;</text>
<text text-anchor="start" x="478.72" y="-764" font-family="Helvetica,sans-Serif" font-size="10.00">SolveNodeMapping()</text>
<text text-anchor="start" x="468.22" y="-749" font-family="Helvetica,sans-Serif" font-size="10.00">&#45;</text>
<text text-anchor="start" x="478.72" y="-749" font-family="Helvetica,sans-Serif" font-size="10.00">serialize()</text>
<polygon fill="#666666" stroke="#666666" points="461.72,-984 461.72,-984 608.72,-984 608.72,-984 461.72,-984"/>
<polygon fill="#666666" stroke="#666666" points="461.72,-969 461.72,-969 608.72,-969 608.72,-969 461.72,-969"/>
<polygon fill="none" stroke="#666666" points="461.22,-742 461.22,-1012 608.22,-1012 608.22,-742 461.22,-742"/>
</a>
</g>
</g>
<!-- Node3&#45;&gt;Node2 -->
<g id="edge2_Node000002_Node000003" class="edge">
<title>Node3&#45;&gt;Node2</title>
<g id="a_edge2_Node000002_Node000003"><a xlink:title=" ">
<path fill="none" stroke="#63b8ff" d="M616.96,-825.49C711.56,-767.37 866.58,-672.14 965.84,-611.17"/>
<polygon fill="none" stroke="#63b8ff" points="614.97,-822.6 608.28,-830.82 618.63,-828.57 614.97,-822.6"/>
</a>
</g>
</g>
<!-- Node4 -->
<g id="Node000004" class="node">
<title>Node4</title>
<g id="a_Node000004"><a xlink:title=" ">
<polygon fill="white" stroke="transparent" points="269.72,-1242.5 163.72,-1242.5 163.72,-1193.5 269.72,-1193.5 269.72,-1242.5"/>
<text text-anchor="start" x="168.72" y="-1230" font-family="Helvetica,sans-Serif" font-size="10.00">boost::noncopyable</text>
<text text-anchor="start" x="214.72" y="-1215" font-family="Helvetica,sans-Serif" font-size="10.00"> </text>
<text text-anchor="start" x="214.72" y="-1200" font-family="Helvetica,sans-Serif" font-size="10.00"> </text>
<polygon fill="#bfbfbf" stroke="#bfbfbf" points="163.72,-1225 163.72,-1225 269.72,-1225 269.72,-1225 163.72,-1225"/>
<polygon fill="#bfbfbf" stroke="#bfbfbf" points="163.72,-1210 163.72,-1210 269.72,-1210 269.72,-1210 163.72,-1210"/>
<polygon fill="none" stroke="#bfbfbf" points="163.72,-1193.5 163.72,-1242.5 269.72,-1242.5 269.72,-1193.5 163.72,-1193.5"/>
</a>
</g>
</g>
<!-- Node4&#45;&gt;Node3 -->
<g id="edge3_Node000003_Node000004" class="edge">
<title>Node4&#45;&gt;Node3</title>
<g id="a_edge3_Node000003_Node000004"><a xlink:title=" ">
<path fill="none" stroke="#8b1a1a" d="M225.28,-1183.7C234.6,-1152.07 251.87,-1104.37 278.72,-1070 328.66,-1006.08 404.9,-952.62 461.21,-918.48"/>
<polygon fill="none" stroke="#8b1a1a" points="221.9,-1182.79 222.53,-1193.37 228.63,-1184.71 221.9,-1182.79"/>
</a>
</g>
</g>
<!-- Node5 -->
<g id="Node000005" class="node">
<title>Node5</title>
<g id="a_Node000005"><a xlink:title=" ">
<polygon fill="white" stroke="transparent" points="980.72,-1248 860.72,-1248 860.72,-1188 980.72,-1188 980.72,-1248"/>
<text text-anchor="start" x="865.72" y="-1236" font-family="Helvetica,sans-Serif" font-size="10.00">vector&lt; Node&lt; SPACE</text>
<text text-anchor="start" x="892.72" y="-1225" font-family="Helvetica,sans-Serif" font-size="10.00">_DIM &gt; * &gt;</text>
<text text-anchor="start" x="918.72" y="-1210" font-family="Helvetica,sans-Serif" font-size="10.00"> </text>
<text text-anchor="start" x="918.72" y="-1195" font-family="Helvetica,sans-Serif" font-size="10.00"> </text>
<polygon fill="#bfbfbf" stroke="#bfbfbf" points="860.72,-1220 860.72,-1220 980.72,-1220 980.72,-1220 860.72,-1220"/>
<polygon fill="#bfbfbf" stroke="#bfbfbf" points="860.72,-1205 860.72,-1205 980.72,-1205 980.72,-1205 860.72,-1205"/>
<polygon fill="none" stroke="#bfbfbf" points="860.72,-1188 860.72,-1248 980.72,-1248 980.72,-1188 860.72,-1188"/>
</a>
</g>
</g>
<!-- Node5&#45;&gt;Node3 -->
<g id="edge4_Node000003_Node000005" class="edge">
<title>Node5&#45;&gt;Node3</title>
<g id="a_edge4_Node000003_Node000005"><a xlink:title=" ">
<path fill="none" stroke="#63b8ff" d="M911.51,-1187.93C900.26,-1156.06 878.71,-1104.83 846.72,-1070 782.75,-1000.33 687.81,-946.81 619.47,-914.19"/>
<polygon fill="none" stroke="#63b8ff" points="619.17,-914.05 612.04,-915.11 608.32,-908.93 615.45,-907.87 619.17,-914.05"/>
</a>
</g>
<text text-anchor="middle" x="876.22" y="-1044" font-family="Helvetica,sans-Serif" font-size="10.00" fill="grey"> #mBoundaryNodes</text>
<text text-anchor="middle" x="876.22" y="-1033" font-family="Helvetica,sans-Serif" font-size="10.00" fill="grey">#mNodes</text>
</g>
<!-- Node6 -->
<g id="Node000006" class="node">
<title>Node6</title>
<g id="a_Node000006"><a xlink:href="classDistributedVectorFactory.html" target="_top" xlink:title=" ">
<polygon fill="white" stroke="transparent" points="453.72,-1366 287.72,-1366 287.72,-1070 453.72,-1070 453.72,-1366"/>
<text text-anchor="start" x="310.22" y="-1354" font-family="Helvetica,sans-Serif" font-size="10.00">DistributedVectorFactory</text>
<text text-anchor="start" x="368.72" y="-1339" font-family="Helvetica,sans-Serif" font-size="10.00"> </text>
<text text-anchor="start" x="291.72" y="-1324" font-family="Helvetica,sans-Serif" font-size="10.00">+</text>
<text text-anchor="start" x="304.72" y="-1324" font-family="Helvetica,sans-Serif" font-size="10.00">DistributedVectorFactory()</text>
<text text-anchor="start" x="291.72" y="-1309" font-family="Helvetica,sans-Serif" font-size="10.00">+</text>
<text text-anchor="start" x="304.72" y="-1309" font-family="Helvetica,sans-Serif" font-size="10.00">DistributedVectorFactory()</text>
<text text-anchor="start" x="291.72" y="-1294" font-family="Helvetica,sans-Serif" font-size="10.00">+</text>
<text text-anchor="start" x="304.72" y="-1294" font-family="Helvetica,sans-Serif" font-size="10.00">DistributedVectorFactory()</text>
<text text-anchor="start" x="291.72" y="-1279" font-family="Helvetica,sans-Serif" font-size="10.00">+</text>
<text text-anchor="start" x="304.72" y="-1279" font-family="Helvetica,sans-Serif" font-size="10.00">DistributedVectorFactory()</text>
<text text-anchor="start" x="291.72" y="-1264" font-family="Helvetica,sans-Serif" font-size="10.00">+</text>
<text text-anchor="start" x="304.72" y="-1264" font-family="Helvetica,sans-Serif" font-size="10.00">~DistributedVectorFactory()</text>
<text text-anchor="start" x="291.72" y="-1249" font-family="Helvetica,sans-Serif" font-size="10.00">+</text>
<text text-anchor="start" x="304.72" y="-1249" font-family="Helvetica,sans-Serif" font-size="10.00">CreateVec()</text>
<text text-anchor="start" x="291.72" y="-1234" font-family="Helvetica,sans-Serif" font-size="10.00">+</text>
<text text-anchor="start" x="304.72" y="-1234" font-family="Helvetica,sans-Serif" font-size="10.00">CreateVec()</text>
<text text-anchor="start" x="291.72" y="-1219" font-family="Helvetica,sans-Serif" font-size="10.00">+</text>
<text text-anchor="start" x="304.72" y="-1219" font-family="Helvetica,sans-Serif" font-size="10.00">CreateDistributedVector()</text>
<text text-anchor="start" x="291.72" y="-1204" font-family="Helvetica,sans-Serif" font-size="10.00">+</text>
<text text-anchor="start" x="304.72" y="-1204" font-family="Helvetica,sans-Serif" font-size="10.00">IsGlobalIndexLocal()</text>
<text text-anchor="start" x="291.72" y="-1189" font-family="Helvetica,sans-Serif" font-size="10.00">+</text>
<text text-anchor="start" x="304.72" y="-1189" font-family="Helvetica,sans-Serif" font-size="10.00">GetLocalOwnership()</text>
<text text-anchor="start" x="304.72" y="-1174" font-family="Helvetica,sans-Serif" font-size="10.00">and 8 more...</text>
<text text-anchor="start" x="291.72" y="-1159" font-family="Helvetica,sans-Serif" font-size="10.00">+</text>
<text text-anchor="start" x="304.72" y="-1159" font-family="Helvetica,sans-Serif" font-size="10.00">SetCheckNumberOfProcesses</text>
<text text-anchor="start" x="304.72" y="-1148" font-family="Helvetica,sans-Serif" font-size="10.00">OnLoad()</text>
<text text-anchor="start" x="291.72" y="-1133" font-family="Helvetica,sans-Serif" font-size="10.00">+</text>
<text text-anchor="start" x="304.72" y="-1133" font-family="Helvetica,sans-Serif" font-size="10.00">CheckNumberOfProcessesOn</text>
<text text-anchor="start" x="304.72" y="-1122" font-family="Helvetica,sans-Serif" font-size="10.00">Load()</text>
<text text-anchor="start" x="294.22" y="-1107" font-family="Helvetica,sans-Serif" font-size="10.00">&#45;</text>
<text text-anchor="start" x="304.72" y="-1107" font-family="Helvetica,sans-Serif" font-size="10.00">CheckForPetsc()</text>
<text text-anchor="start" x="294.22" y="-1092" font-family="Helvetica,sans-Serif" font-size="10.00">&#45;</text>
<text text-anchor="start" x="304.72" y="-1092" font-family="Helvetica,sans-Serif" font-size="10.00">CalculateOwnership()</text>
<text text-anchor="start" x="294.22" y="-1077" font-family="Helvetica,sans-Serif" font-size="10.00">&#45;</text>
<text text-anchor="start" x="304.72" y="-1077" font-family="Helvetica,sans-Serif" font-size="10.00">serialize()</text>
<polygon fill="#666666" stroke="#666666" points="287.72,-1349 287.72,-1349 453.72,-1349 453.72,-1349 287.72,-1349"/>
<polygon fill="#666666" stroke="#666666" points="287.72,-1334 287.72,-1334 453.72,-1334 453.72,-1334 287.72,-1334"/>
<polygon fill="none" stroke="#666666" points="287.72,-1070 287.72,-1366 453.72,-1366 453.72,-1070 287.72,-1070"/>
</a>
</g>
</g>
<!-- Node6&#45;&gt;Node3 -->
<g id="edge5_Node000003_Node000006" class="edge">
<title>Node6&#45;&gt;Node3</title>
<g id="a_edge5_Node000003_Node000006"><a xlink:title=" ">
<path fill="none" stroke="#63b8ff" d="M361.98,-1069.61C364.45,-1055.9 368.23,-1042.48 373.72,-1030 390.37,-992.22 421.39,-959.39 451.78,-934.01"/>
<polygon fill="none" stroke="#63b8ff" points="451.87,-933.94 454,-927.05 461.18,-926.37 459.04,-933.26 451.87,-933.94"/>
</a>
</g>
<text text-anchor="middle" x="447.72" y="-1038.5" font-family="Helvetica,sans-Serif" font-size="10.00" fill="grey"> #mpDistributedVectorFactory</text>
</g>
<!-- Node6&#45;&gt;Node6 -->
<g id="edge9_Node000006_Node000006" class="edge">
<title>Node6&#45;&gt;Node6</title>
<g id="a_edge9_Node000006_Node000006"><a xlink:title=" ">
<path fill="none" stroke="#63b8ff" d="M453.93,-1246.92C464.65,-1241.91 471.72,-1232.27 471.72,-1218 471.72,-1208.86 468.82,-1201.62 463.92,-1196.28"/>
<polygon fill="none" stroke="#63b8ff" points="463.67,-1196.1 456.46,-1195.83 453.93,-1189.08 461.14,-1189.34 463.67,-1196.1"/>
</a>
</g>
<text text-anchor="middle" x="520.22" y="-1215.5" font-family="Helvetica,sans-Serif" font-size="10.00" fill="grey"> &#45;mpOriginalFactory</text>
</g>
<!-- Node7 -->
<g id="Node000007" class="node">
<title>Node7</title>
<g id="a_Node000007"><a xlink:href="classunsigned.html" target="_top" xlink:title=" ">
<polygon fill="white" stroke="transparent" points="398.22,-1495 343.22,-1495 343.22,-1446 398.22,-1446 398.22,-1495"/>
<text text-anchor="start" x="348.72" y="-1482.5" font-family="Helvetica,sans-Serif" font-size="10.00">unsigned</text>
<text text-anchor="start" x="369.22" y="-1467.5" font-family="Helvetica,sans-Serif" font-size="10.00"> </text>
<text text-anchor="start" x="369.22" y="-1452.5" font-family="Helvetica,sans-Serif" font-size="10.00"> </text>
<polygon fill="#bfbfbf" stroke="#bfbfbf" points="343.72,-1477.5 343.72,-1477.5 398.72,-1477.5 398.72,-1477.5 343.72,-1477.5"/>
<polygon fill="#bfbfbf" stroke="#bfbfbf" points="343.72,-1462.5 343.72,-1462.5 398.72,-1462.5 398.72,-1462.5 343.72,-1462.5"/>
<polygon fill="none" stroke="#bfbfbf" points="343.22,-1446 343.22,-1495 398.22,-1495 398.22,-1446 343.22,-1446"/>
</a>
</g>
</g>
<!-- Node7&#45;&gt;Node6 -->
<g id="edge6_Node000006_Node000007" class="edge">
<title>Node7&#45;&gt;Node6</title>
<g id="a_edge6_Node000006_Node000007"><a xlink:title=" ">
<path fill="none" stroke="#63b8ff" d="M370.72,-1445.93C370.72,-1429.14 370.72,-1404.93 370.72,-1378.52"/>
<polygon fill="none" stroke="#63b8ff" points="370.72,-1378.25 366.72,-1372.25 370.72,-1366.25 374.72,-1372.25 370.72,-1378.25"/>
</a>
</g>
<text text-anchor="middle" x="408.22" y="-1420" font-family="Helvetica,sans-Serif" font-size="10.00" fill="grey"> &#45;mHi</text>
<text text-anchor="middle" x="408.22" y="-1409" font-family="Helvetica,sans-Serif" font-size="10.00" fill="grey">&#45;mLo</text>
<text text-anchor="middle" x="408.22" y="-1398" font-family="Helvetica,sans-Serif" font-size="10.00" fill="grey">&#45;mNumProcs</text>
<text text-anchor="middle" x="408.22" y="-1387" font-family="Helvetica,sans-Serif" font-size="10.00" fill="grey">&#45;mProblemSize</text>
</g>
<!-- Node8 -->
<g id="Node000008" class="node">
<title>Node8</title>
<g id="a_Node000008"><a xlink:href="classbool.html" target="_top" xlink:title=" ">
<polygon fill="white" stroke="transparent" points="683.72,-1495 651.72,-1495 651.72,-1446 683.72,-1446 683.72,-1495"/>
<text text-anchor="start" x="656.72" y="-1482.5" font-family="Helvetica,sans-Serif" font-size="10.00">bool</text>
<text text-anchor="start" x="665.72" y="-1467.5" font-family="Helvetica,sans-Serif" font-size="10.00"> </text>
<text text-anchor="start" x="665.72" y="-1452.5" font-family="Helvetica,sans-Serif" font-size="10.00"> </text>
<polygon fill="#bfbfbf" stroke="#bfbfbf" points="651.72,-1477.5 651.72,-1477.5 683.72,-1477.5 683.72,-1477.5 651.72,-1477.5"/>
<polygon fill="#bfbfbf" stroke="#bfbfbf" points="651.72,-1462.5 651.72,-1462.5 683.72,-1462.5 683.72,-1462.5 651.72,-1462.5"/>
<polygon fill="none" stroke="#bfbfbf" points="651.72,-1446 651.72,-1495 683.72,-1495 683.72,-1446 651.72,-1446"/>
</a>
</g>
</g>
<!-- Node8&#45;&gt;Node2 -->
<g id="edge13_Node000002_Node000008" class="edge">
<title>Node8&#45;&gt;Node2</title>
<g id="a_edge13_Node000002_Node000008"><a xlink:title=" ">
<path fill="none" stroke="#63b8ff" d="M683.9,-1470.06C737.8,-1470.94 912.29,-1465.71 989.72,-1366 1032.33,-1311.14 1019.79,-811.01 1027.72,-742 1029.03,-730.68 1030.55,-719.01 1032.22,-707.28"/>
<polygon fill="none" stroke="#63b8ff" points="1032.28,-706.92 1029.19,-700.41 1034.01,-695.05 1037.1,-701.57 1032.28,-706.92"/>
</a>
</g>
<text text-anchor="middle" x="1065.72" y="-1038.5" font-family="Helvetica,sans-Serif" font-size="10.00" fill="grey"> #mMeshIsLinear</text>
</g>
<!-- Node8&#45;&gt;Node3 -->
<g id="edge12_Node000003_Node000008" class="edge">
<title>Node8&#45;&gt;Node3</title>
<g id="a_edge12_Node000003_Node000008"><a xlink:title=" ">
<path fill="none" stroke="#63b8ff" d="M668.89,-1445.79C672.52,-1365.91 681.78,-1107.33 653.72,-1030 645.09,-1006.2 631.19,-983.21 615.89,-962.63"/>
<polygon fill="none" stroke="#63b8ff" points="615.83,-962.56 609,-960.23 608.52,-953.04 615.35,-955.36 615.83,-962.56"/>
</a>
</g>
<text text-anchor="middle" x="761.22" y="-1215.5" font-family="Helvetica,sans-Serif" font-size="10.00" fill="grey"> #mMeshChangesDuringSimulation</text>
</g>
<!-- Node8&#45;&gt;Node6 -->
<g id="edge7_Node000006_Node000008" class="edge">
<title>Node8&#45;&gt;Node6</title>
<g id="a_edge7_Node000006_Node000008"><a xlink:title=" ">
<path fill="none" stroke="#63b8ff" d="M651.38,-1469.15C620.18,-1467.7 551.2,-1460.74 505.72,-1428 485.92,-1413.74 468.28,-1395.59 452.81,-1375.97"/>
<polygon fill="none" stroke="#63b8ff" points="452.66,-1375.77 445.85,-1373.42 445.39,-1366.23 452.21,-1368.58 452.66,-1375.77"/>
</a>
</g>
<text text-anchor="middle" x="579.72" y="-1414.5" font-family="Helvetica,sans-Serif" font-size="10.00" fill="grey"> &#45;mPetscStatusKnown</text>
<text text-anchor="start" x="505.72" y="-1403.5" font-family="Helvetica,sans-Serif" font-size="10.00" fill="grey">&#45;msCheckNumberOfProcesses</text>
<text text-anchor="middle" x="579.72" y="-1392.5" font-family="Helvetica,sans-Serif" font-size="10.00" fill="grey">OnLoad</text>
</g>
<!-- Node9 -->
<g id="Node000009" class="node">
<title>Node9</title>
<g id="a_Node000009"><a xlink:title=" ">
<polygon fill="white" stroke="transparent" points="208.72,-1495 100.72,-1495 100.72,-1446 208.72,-1446 208.72,-1495"/>
<text text-anchor="start" x="105.72" y="-1482.5" font-family="Helvetica,sans-Serif" font-size="10.00">vector&lt; unsigned &gt;</text>
<text text-anchor="start" x="152.72" y="-1467.5" font-family="Helvetica,sans-Serif" font-size="10.00"> </text>
<text text-anchor="start" x="152.72" y="-1452.5" font-family="Helvetica,sans-Serif" font-size="10.00"> </text>
<polygon fill="#bfbfbf" stroke="#bfbfbf" points="100.72,-1477.5 100.72,-1477.5 208.72,-1477.5 208.72,-1477.5 100.72,-1477.5"/>
<polygon fill="#bfbfbf" stroke="#bfbfbf" points="100.72,-1462.5 100.72,-1462.5 208.72,-1462.5 208.72,-1462.5 100.72,-1462.5"/>
<polygon fill="none" stroke="#bfbfbf" points="100.72,-1446 100.72,-1495 208.72,-1495 208.72,-1446 100.72,-1446"/>
</a>
</g>
</g>
<!-- Node9&#45;&gt;Node3 -->
<g id="edge10_Node000003_Node000009" class="edge">
<title>Node9&#45;&gt;Node3</title>
<g id="a_edge10_Node000003_Node000009"><a xlink:title=" ">
<path fill="none" stroke="#63b8ff" d="M117.96,-1445.92C92.96,-1427.54 61.95,-1399.55 47.72,-1366 -3.63,-1244.88 -26.3,-1178.75 47.72,-1070 137.89,-937.53 334.89,-896.46 448.77,-883.72"/>
<polygon fill="none" stroke="#63b8ff" points="448.95,-883.7 454.49,-879.09 460.88,-882.44 455.34,-887.05 448.95,-883.7"/>
</a>
</g>
<text text-anchor="middle" x="101.22" y="-1215.5" font-family="Helvetica,sans-Serif" font-size="10.00" fill="grey"> #mNodePermutation</text>
</g>
<!-- Node9&#45;&gt;Node6 -->
<g id="edge8_Node000006_Node000009" class="edge">
<title>Node9&#45;&gt;Node6</title>
<g id="a_edge8_Node000006_Node000009"><a xlink:title=" ">
<path fill="none" stroke="#63b8ff" d="M188.56,-1445.88C215.02,-1426.38 251.72,-1396.96 278.72,-1366 279.1,-1365.57 279.47,-1365.15 279.84,-1364.72"/>
<polygon fill="none" stroke="#63b8ff" points="279.84,-1364.71 280.61,-1357.54 287.53,-1355.5 286.76,-1362.67 279.84,-1364.71"/>
</a>
</g>
<text text-anchor="middle" x="297.22" y="-1403.5" font-family="Helvetica,sans-Serif" font-size="10.00" fill="grey"> &#45;mGlobalLows</text>
</g>
<!-- Node10 -->
<g id="Node000010" class="node">
<title>Node10</title>
<g id="a_Node000010"><a xlink:title=" ">
<polygon fill="white" stroke="transparent" points="624.72,-1242.5 586.72,-1242.5 586.72,-1193.5 624.72,-1193.5 624.72,-1242.5"/>
<text text-anchor="start" x="591.72" y="-1230" font-family="Helvetica,sans-Serif" font-size="10.00">string</text>
<text text-anchor="start" x="603.72" y="-1215" font-family="Helvetica,sans-Serif" font-size="10.00"> </text>
<text text-anchor="start" x="603.72" y="-1200" font-family="Helvetica,sans-Serif" font-size="10.00"> </text>
<polygon fill="#bfbfbf" stroke="#bfbfbf" points="586.72,-1225 586.72,-1225 624.72,-1225 624.72,-1225 586.72,-1225"/>
<polygon fill="#bfbfbf" stroke="#bfbfbf" points="586.72,-1210 586.72,-1210 624.72,-1210 624.72,-1210 586.72,-1210"/>
<polygon fill="none" stroke="#bfbfbf" points="586.72,-1193.5 586.72,-1242.5 624.72,-1242.5 624.72,-1193.5 586.72,-1193.5"/>
</a>
</g>
</g>
<!-- Node10&#45;&gt;Node3 -->
<g id="edge11_Node000003_Node000010" class="edge">
<title>Node10&#45;&gt;Node3</title>
<g id="a_edge11_Node000003_Node000010"><a xlink:title=" ">
<path fill="none" stroke="#63b8ff" d="M607.62,-1193.35C608.86,-1161.75 606.37,-1105.64 577.72,-1070 565,-1054.17 546.95,-1068.92 535.72,-1052 529.96,-1043.32 525.74,-1033.81 522.73,-1023.87"/>
<polygon fill="none" stroke="#63b8ff" points="522.68,-1023.65 517.34,-1018.81 519.76,-1012.01 525.1,-1016.86 522.68,-1023.65"/>
</a>
</g>
<text text-anchor="middle" x="594.72" y="-1038.5" font-family="Helvetica,sans-Serif" font-size="10.00" fill="grey"> #mMeshFileBaseName</text>
</g>
<!-- Node11 -->
<g id="Node000011" class="node">
<title>Node11</title>
<g id="a_Node000011"><a xlink:title=" ">
<polygon fill="white" stroke="transparent" points="1186.72,-907 1036.72,-907 1036.72,-847 1186.72,-847 1186.72,-907"/>
<text text-anchor="start" x="1041.72" y="-895" font-family="Helvetica,sans-Serif" font-size="10.00">vector&lt; Element&lt; ELEMENT</text>
<text text-anchor="start" x="1052.72" y="-884" font-family="Helvetica,sans-Serif" font-size="10.00">_DIM, SPACE_DIM &gt; * &gt;</text>
<text text-anchor="start" x="1109.72" y="-869" font-family="Helvetica,sans-Serif" font-size="10.00"> </text>
<text text-anchor="start" x="1109.72" y="-854" font-family="Helvetica,sans-Serif" font-size="10.00"> </text>
<polygon fill="#bfbfbf" stroke="#bfbfbf" points="1036.72,-879 1036.72,-879 1186.72,-879 1186.72,-879 1036.72,-879"/>
<polygon fill="#bfbfbf" stroke="#bfbfbf" points="1036.72,-864 1036.72,-864 1186.72,-864 1186.72,-864 1036.72,-864"/>
<polygon fill="none" stroke="#bfbfbf" points="1036.72,-847 1036.72,-907 1186.72,-907 1186.72,-847 1036.72,-847"/>
</a>
</g>
</g>
<!-- Node11&#45;&gt;Node2 -->
<g id="edge14_Node000002_Node000011" class="edge">
<title>Node11&#45;&gt;Node2</title>
<g id="a_edge14_Node000002_Node000011"><a xlink:title=" ">
<path fill="none" stroke="#63b8ff" d="M1107.02,-846.81C1101.84,-814.67 1093.1,-760.46 1084.53,-707.33"/>
<polygon fill="none" stroke="#63b8ff" points="1084.5,-707.15 1079.6,-701.87 1082.59,-695.31 1087.49,-700.59 1084.5,-707.15"/>
</a>
</g>
<text text-anchor="middle" x="1119.22" y="-716" font-family="Helvetica,sans-Serif" font-size="10.00" fill="grey"> #mElements</text>
</g>
<!-- Node12 -->
<g id="Node000012" class="node">
<title>Node12</title>
<g id="a_Node000012"><a xlink:title=" ">
<polygon fill="white" stroke="transparent" points="1344.72,-912.5 1204.72,-912.5 1204.72,-841.5 1344.72,-841.5 1344.72,-912.5"/>
<text text-anchor="start" x="1209.72" y="-900" font-family="Helvetica,sans-Serif" font-size="10.00">vector&lt; BoundaryElement</text>
<text text-anchor="start" x="1209.72" y="-889" font-family="Helvetica,sans-Serif" font-size="10.00">&lt; ELEMENT_DIM&#45;1, SPACE</text>
<text text-anchor="start" x="1246.72" y="-878" font-family="Helvetica,sans-Serif" font-size="10.00">_DIM &gt; * &gt;</text>
<text text-anchor="start" x="1272.72" y="-863" font-family="Helvetica,sans-Serif" font-size="10.00"> </text>
<text text-anchor="start" x="1272.72" y="-848" font-family="Helvetica,sans-Serif" font-size="10.00"> </text>
<polygon fill="#bfbfbf" stroke="#bfbfbf" points="1204.72,-873 1204.72,-873 1344.72,-873 1344.72,-873 1204.72,-873"/>
<polygon fill="#bfbfbf" stroke="#bfbfbf" points="1204.72,-858 1204.72,-858 1344.72,-858 1344.72,-858 1204.72,-858"/>
<polygon fill="none" stroke="#bfbfbf" points="1204.72,-841.5 1204.72,-912.5 1344.72,-912.5 1344.72,-841.5 1204.72,-841.5"/>
</a>
</g>
</g>
<!-- Node12&#45;&gt;Node2 -->
<g id="edge15_Node000002_Node000012" class="edge">
<title>Node12&#45;&gt;Node2</title>
<g id="a_edge15_Node000002_Node000012"><a xlink:title=" ">
<path fill="none" stroke="#63b8ff" d="M1255.46,-841.31C1239.97,-813.94 1217.32,-774.99 1195.72,-742 1181.61,-720.43 1176.82,-715.9 1161.72,-695 1161.3,-694.41 1160.87,-693.81 1160.43,-693.21"/>
<polygon fill="none" stroke="#63b8ff" points="1160.4,-693.16 1153.64,-690.64 1153.37,-683.43 1160.13,-685.95 1160.4,-693.16"/>
</a>
</g>
<text text-anchor="middle" x="1240.72" y="-716" font-family="Helvetica,sans-Serif" font-size="10.00" fill="grey"> #mBoundaryElements</text>
</g>
<!-- Node13 -->
<g id="Node000013" class="node">
<title>Node13</title>
<g id="a_Node000013"><a xlink:title=" ">
<polygon fill="white" stroke="transparent" points="1312.22,-582.5 1171.22,-582.5 1171.22,-522.5 1312.22,-522.5 1312.22,-582.5"/>
<text text-anchor="start" x="1176.72" y="-570.5" font-family="Helvetica,sans-Serif" font-size="10.00">vector&lt; c_vector&lt; double,</text>
<text text-anchor="start" x="1201.22" y="-559.5" font-family="Helvetica,sans-Serif" font-size="10.00"> SPACE_DIM &gt; &gt;</text>
<text text-anchor="start" x="1240.22" y="-544.5" font-family="Helvetica,sans-Serif" font-size="10.00"> </text>
<text text-anchor="start" x="1240.22" y="-529.5" font-family="Helvetica,sans-Serif" font-size="10.00"> </text>
<polygon fill="#bfbfbf" stroke="#bfbfbf" points="1171.72,-554.5 1171.72,-554.5 1312.72,-554.5 1312.72,-554.5 1171.72,-554.5"/>
<polygon fill="#bfbfbf" stroke="#bfbfbf" points="1171.72,-539.5 1171.72,-539.5 1312.72,-539.5 1312.72,-539.5 1171.72,-539.5"/>
<polygon fill="none" stroke="#bfbfbf" points="1171.22,-522.5 1171.22,-582.5 1312.22,-582.5 1312.22,-522.5 1171.22,-522.5"/>
</a>
</g>
</g>
<!-- Node13&#45;&gt;Node1 -->
<g id="edge16_Node000001_Node000013" class="edge">
<title>Node13&#45;&gt;Node1</title>
<g id="a_edge16_Node000001_Node000013"><a xlink:title=" ">
<path fill="none" stroke="#63b8ff" d="M1238.95,-522.47C1236.41,-483.62 1235.94,-413.3 1258.72,-359 1272.63,-325.85 1294.64,-294.27 1317.94,-266.79"/>
<polygon fill="none" stroke="#63b8ff" points="1318.01,-266.7 1318.92,-259.55 1325.88,-257.64 1324.97,-264.79 1318.01,-266.7"/>
</a>
</g>
<text text-anchor="start" x="1258.72" y="-384" font-family="Helvetica,sans-Serif" font-size="10.00" fill="grey"> #mBoundaryElementWeighted</text>
<text text-anchor="middle" x="1335.72" y="-373" font-family="Helvetica,sans-Serif" font-size="10.00" fill="grey">Directions</text>
<text text-anchor="middle" x="1335.72" y="-362" font-family="Helvetica,sans-Serif" font-size="10.00" fill="grey">#mElementWeightedDirections</text>
</g>
<!-- Node14 -->
<g id="Node000014" class="node">
<title>Node14</title>
<g id="a_Node000014"><a xlink:title=" ">
<polygon fill="white" stroke="transparent" points="1500.72,-582.5 1332.72,-582.5 1332.72,-522.5 1500.72,-522.5 1500.72,-582.5"/>
<text text-anchor="start" x="1337.72" y="-570.5" font-family="Helvetica,sans-Serif" font-size="10.00">vector&lt; c_matrix&lt; double,</text>
<text text-anchor="start" x="1337.72" y="-559.5" font-family="Helvetica,sans-Serif" font-size="10.00"> SPACE_DIM, ELEMENT_DIM &gt; &gt;</text>
<text text-anchor="start" x="1414.72" y="-544.5" font-family="Helvetica,sans-Serif" font-size="10.00"> </text>
<text text-anchor="start" x="1414.72" y="-529.5" font-family="Helvetica,sans-Serif" font-size="10.00"> </text>
<polygon fill="#bfbfbf" stroke="#bfbfbf" points="1332.72,-554.5 1332.72,-554.5 1500.72,-554.5 1500.72,-554.5 1332.72,-554.5"/>
<polygon fill="#bfbfbf" stroke="#bfbfbf" points="1332.72,-539.5 1332.72,-539.5 1500.72,-539.5 1500.72,-539.5 1332.72,-539.5"/>
<polygon fill="none" stroke="#bfbfbf" points="1332.72,-522.5 1332.72,-582.5 1500.72,-582.5 1500.72,-522.5 1332.72,-522.5"/>
</a>
</g>
</g>
<!-- Node14&#45;&gt;Node1 -->
<g id="edge17_Node000001_Node000014" class="edge">
<title>Node14&#45;&gt;Node1</title>
<g id="a_edge17_Node000001_Node000014"><a xlink:title=" ">
<path fill="none" stroke="#63b8ff" d="M1416.88,-522.31C1417.07,-485.42 1417.42,-418.81 1417.77,-353.47"/>
<polygon fill="none" stroke="#63b8ff" points="1417.77,-353.29 1413.8,-347.27 1417.83,-341.29 1421.8,-347.31 1417.77,-353.29"/>
</a>
</g>
<text text-anchor="middle" x="1472.22" y="-373" font-family="Helvetica,sans-Serif" font-size="10.00" fill="grey"> #mElementJacobians</text>
</g>
<!-- Node15 -->
<g id="Node000015" class="node">
<title>Node15</title>
<g id="a_Node000015"><a xlink:title=" ">
<polygon fill="white" stroke="transparent" points="1686.72,-582.5 1518.72,-582.5 1518.72,-522.5 1686.72,-522.5 1686.72,-582.5"/>
<text text-anchor="start" x="1523.72" y="-570.5" font-family="Helvetica,sans-Serif" font-size="10.00">vector&lt; c_matrix&lt; double,</text>
<text text-anchor="start" x="1523.72" y="-559.5" font-family="Helvetica,sans-Serif" font-size="10.00"> ELEMENT_DIM, SPACE_DIM &gt; &gt;</text>
<text text-anchor="start" x="1600.72" y="-544.5" font-family="Helvetica,sans-Serif" font-size="10.00"> </text>
<text text-anchor="start" x="1600.72" y="-529.5" font-family="Helvetica,sans-Serif" font-size="10.00"> </text>
<polygon fill="#bfbfbf" stroke="#bfbfbf" points="1518.72,-554.5 1518.72,-554.5 1686.72,-554.5 1686.72,-554.5 1518.72,-554.5"/>
<polygon fill="#bfbfbf" stroke="#bfbfbf" points="1518.72,-539.5 1518.72,-539.5 1686.72,-539.5 1686.72,-539.5 1518.72,-539.5"/>
<polygon fill="none" stroke="#bfbfbf" points="1518.72,-522.5 1518.72,-582.5 1686.72,-582.5 1686.72,-522.5 1518.72,-522.5"/>
</a>
</g>
</g>
<!-- Node15&#45;&gt;Node1 -->
<g id="edge18_Node000001_Node000015" class="edge">
<title>Node15&#45;&gt;Node1</title>
<g id="a_edge18_Node000001_Node000015"><a xlink:title=" ">
<path fill="none" stroke="#63b8ff" d="M1593.68,-522.45C1581.36,-484.17 1557.71,-415.11 1530.72,-359 1526.41,-350.04 1521.81,-340.94 1517.02,-331.83"/>
<polygon fill="none" stroke="#63b8ff" points="1516.97,-331.73 1510.61,-328.32 1511.32,-321.14 1517.67,-324.55 1516.97,-331.73"/>
</a>
</g>
<text text-anchor="middle" x="1616.22" y="-373" font-family="Helvetica,sans-Serif" font-size="10.00" fill="grey"> #mElementInverseJacobians</text>
</g>
<!-- Node16 -->
<g id="Node000016" class="node">
<title>Node16</title>
<g id="a_Node000016"><a xlink:title=" ">
<polygon fill="white" stroke="transparent" points="1810.22,-577 1713.22,-577 1713.22,-528 1810.22,-528 1810.22,-577"/>
<text text-anchor="start" x="1718.72" y="-564.5" font-family="Helvetica,sans-Serif" font-size="10.00">vector&lt; double &gt;</text>
<text text-anchor="start" x="1760.22" y="-549.5" font-family="Helvetica,sans-Serif" font-size="10.00"> </text>
<text text-anchor="start" x="1760.22" y="-534.5" font-family="Helvetica,sans-Serif" font-size="10.00"> </text>
<polygon fill="#bfbfbf" stroke="#bfbfbf" points="1713.72,-559.5 1713.72,-559.5 1810.72,-559.5 1810.72,-559.5 1713.72,-559.5"/>
<polygon fill="#bfbfbf" stroke="#bfbfbf" points="1713.72,-544.5 1713.72,-544.5 1810.72,-544.5 1810.72,-544.5 1713.72,-544.5"/>
<polygon fill="none" stroke="#bfbfbf" points="1713.22,-528 1713.22,-577 1810.22,-577 1810.22,-528 1713.22,-528"/>
</a>
</g>
</g>
<!-- Node16&#45;&gt;Node1 -->
<g id="edge19_Node000001_Node000016" class="edge">
<title>Node16&#45;&gt;Node1</title>
<g id="a_edge19_Node000001_Node000016"><a xlink:title=" ">
<path fill="none" stroke="#63b8ff" d="M1758.12,-527.92C1751.22,-489.2 1733.08,-411.27 1692.72,-359 1647.63,-300.58 1579.11,-253.7 1521.87,-221.42"/>
<polygon fill="none" stroke="#63b8ff" points="1521.81,-221.39 1514.62,-221.98 1511.32,-215.57 1518.51,-214.98 1521.81,-221.39"/>
</a>
</g>
<text text-anchor="start" x="1712.72" y="-384" font-family="Helvetica,sans-Serif" font-size="10.00" fill="grey"> #mBoundaryElementJacobian</text>
<text text-anchor="middle" x="1796.22" y="-373" font-family="Helvetica,sans-Serif" font-size="10.00" fill="grey">Determinants</text>
<text text-anchor="middle" x="1796.22" y="-362" font-family="Helvetica,sans-Serif" font-size="10.00" fill="grey">#mElementJacobianDeterminants</text>
</g>
</g>
</svg>
