<?xml version="1.0" encoding="UTF-8" standalone="no"?>
<!DOCTYPE svg PUBLIC "-//W3C//DTD SVG 1.1//EN"
 "http://www.w3.org/Graphics/SVG/1.1/DTD/svg11.dtd">
<!-- Generated by graphviz version 2.43.0 (0)
 -->
<!-- Title: AbstractLinearPde&lt; ELEMENT_DIM, SPACE_DIM &gt; Pages: 1 -->
<svg width="928pt" height="813pt"
 viewBox="0.00 0.00 927.50 813.00" xmlns="http://www.w3.org/2000/svg" xmlns:xlink="http://www.w3.org/1999/xlink">
<g id="graph0" class="graph" transform="scale(1 1) rotate(0) translate(4 809)">
<title>AbstractLinearPde&lt; ELEMENT_DIM, SPACE_DIM &gt;</title>
<!-- Node1 -->
<g id="Node000001" class="node">
<title>Node1</title>
<g id="a_Node000001"><a xlink:title=" ">
<polygon fill="#999999" stroke="transparent" points="639.5,-805 482.5,-805 482.5,-715 639.5,-715 639.5,-805"/>
<text text-anchor="start" x="488" y="-793" font-family="Helvetica,sans-Serif" font-size="10.00">AbstractLinearPde&lt;</text>
<text text-anchor="start" x="488" y="-782" font-family="Helvetica,sans-Serif" font-size="10.00"> ELEMENT_DIM, SPACE_DIM &gt;</text>
<text text-anchor="start" x="559.5" y="-767" font-family="Helvetica,sans-Serif" font-size="10.00"> </text>
<text text-anchor="start" x="494.5" y="-752" font-family="Helvetica,sans-Serif" font-size="10.00">+</text>
<text text-anchor="start" x="515" y="-752" font-family="Helvetica,sans-Serif" font-size="10.00">AbstractLinearPde()</text>
<text text-anchor="start" x="494.5" y="-737" font-family="Helvetica,sans-Serif" font-size="10.00">+</text>
<text text-anchor="start" x="515" y="-737" font-family="Helvetica,sans-Serif" font-size="10.00">~AbstractLinearPde()</text>
<text text-anchor="start" x="497" y="-722" font-family="Helvetica,sans-Serif" font-size="10.00">&#45;</text>
<text text-anchor="start" x="515" y="-722" font-family="Helvetica,sans-Serif" font-size="10.00">serialize()</text>
<polygon fill="#666666" stroke="#666666" points="483,-777 483,-777 640,-777 640,-777 483,-777"/>
<polygon fill="#666666" stroke="#666666" points="483,-762 483,-762 640,-762 640,-762 483,-762"/>
<polygon fill="none" stroke="#666666" points="482.5,-715 482.5,-805 639.5,-805 639.5,-715 482.5,-715"/>
</a>
</g>
</g>
<!-- Node1&#45;&gt;Node1 -->
<g id="edge1_Node000001_Node000001" class="edge">
<title>Node1&#45;&gt;Node1</title>
<g id="a_edge1_Node000001_Node000001"><a xlink:title=" ">
<path fill="none" stroke="orange" d="M649.7,-764.65C654.59,-763.52 657.5,-761.97 657.5,-760 657.5,-756.93 650.41,-754.88 639.76,-753.85"/>
<polygon fill="orange" stroke="orange" points="649.12,-761.19 639.76,-766.15 650.17,-768.12 649.12,-761.19"/>
</a>
</g>
<text text-anchor="start" x="657.5" y="-763" font-family="Helvetica,sans-Serif" font-size="10.00" fill="grey"> &lt; ELEMENT_DIM, SPACE</text>
<text text-anchor="middle" x="718.5" y="-752" font-family="Helvetica,sans-Serif" font-size="10.00" fill="grey">_DIM &gt;</text>
</g>
<!-- Node1&#45;&gt;Node1 -->
<g id="edge8_Node000001_Node000001" class="edge">
<title>Node1&#45;&gt;Node1</title>
<g id="a_edge8_Node000001_Node000001"><a xlink:title=" ">
<path fill="none" stroke="orange" d="M649.85,-773.14C711.26,-775.76 779.5,-771.38 779.5,-760 779.5,-747.99 703.45,-743.77 639.67,-747.36"/>
<polygon fill="orange" stroke="orange" points="649.83,-769.63 639.67,-772.64 649.48,-776.63 649.83,-769.63"/>
</a>
</g>
<text text-anchor="start" x="779.5" y="-763" font-family="Helvetica,sans-Serif" font-size="10.00" fill="grey"> &lt; ELEMENT_DIM, SPACE</text>
<text text-anchor="middle" x="840.5" y="-752" font-family="Helvetica,sans-Serif" font-size="10.00" fill="grey">_DIM &gt;</text>
</g>
<!-- Node2 -->
<g id="Node000002" class="node">
<title>Node2</title>
<g id="a_Node000002"><a xlink:href="classAbstractLinearParabolicPde.html" target="_top" xlink:title=" ">
<polygon fill="white" stroke="transparent" points="507,-657 315,-657 315,-496 507,-496 507,-657"/>
<text text-anchor="start" x="333.5" y="-644.5" font-family="Helvetica,sans-Serif" font-size="10.00">AbstractLinearParabolicPde</text>
<text text-anchor="start" x="333.5" y="-633.5" font-family="Helvetica,sans-Serif" font-size="10.00">&lt; ELEMENT_DIM, SPACE_DIM &gt;</text>
<text text-anchor="start" x="409" y="-618.5" font-family="Helvetica,sans-Serif" font-size="10.00"> </text>
<text text-anchor="start" x="319" y="-603.5" font-family="Helvetica,sans-Serif" font-size="10.00">+</text>
<text text-anchor="start" x="332" y="-603.5" font-family="Helvetica,sans-Serif" font-size="10.00">AbstractLinearParabolicPde()</text>
<text text-anchor="start" x="319" y="-588.5" font-family="Helvetica,sans-Serif" font-size="10.00">+</text>
<text text-anchor="start" x="332" y="-588.5" font-family="Helvetica,sans-Serif" font-size="10.00">~AbstractLinearParabolic</text>
<text text-anchor="start" x="332" y="-577.5" font-family="Helvetica,sans-Serif" font-size="10.00">Pde()</text>
<text text-anchor="start" x="319" y="-562.5" font-family="Helvetica,sans-Serif" font-size="10.00">+</text>
<text text-anchor="start" x="332" y="-562.5" font-family="Helvetica,sans-Serif" font-size="10.00">ComputeDuDtCoefficientFunction()</text>
<text text-anchor="start" x="319" y="-547.5" font-family="Helvetica,sans-Serif" font-size="10.00">+</text>
<text text-anchor="start" x="332" y="-547.5" font-family="Helvetica,sans-Serif" font-size="10.00">ComputeSourceTerm()</text>
<text text-anchor="start" x="319" y="-532.5" font-family="Helvetica,sans-Serif" font-size="10.00">+</text>
<text text-anchor="start" x="332" y="-532.5" font-family="Helvetica,sans-Serif" font-size="10.00">ComputeSourceTermAtNode()</text>
<text text-anchor="start" x="319" y="-517.5" font-family="Helvetica,sans-Serif" font-size="10.00">+</text>
<text text-anchor="start" x="332" y="-517.5" font-family="Helvetica,sans-Serif" font-size="10.00">ComputeDiffusionTerm()</text>
<text text-anchor="start" x="321.5" y="-502.5" font-family="Helvetica,sans-Serif" font-size="10.00">&#45;</text>
<text text-anchor="start" x="332" y="-502.5" font-family="Helvetica,sans-Serif" font-size="10.00">serialize()</text>
<polygon fill="#666666" stroke="#666666" points="315,-628.5 315,-628.5 507,-628.5 507,-628.5 315,-628.5"/>
<polygon fill="#666666" stroke="#666666" points="315,-613.5 315,-613.5 507,-613.5 507,-613.5 315,-613.5"/>
<polygon fill="none" stroke="#666666" points="315,-496 315,-657 507,-657 507,-496 315,-496"/>
</a>
</g>
</g>
<!-- Node1&#45;&gt;Node2 -->
<g id="edge2_Node000001_Node000002" class="edge">
<title>Node1&#45;&gt;Node2</title>
<g id="a_edge2_Node000001_Node000002"><a xlink:title=" ">
<path fill="none" stroke="#63b8ff" d="M517.78,-706.7C505,-691.24 490.73,-673.97 476.87,-657.2"/>
<polygon fill="none" stroke="#63b8ff" points="515.24,-709.12 524.31,-714.6 520.63,-704.66 515.24,-709.12"/>
</a>
</g>
</g>
<!-- Node8 -->
<g id="Node000008" class="node">
<title>Node8</title>
<g id="a_Node000008"><a xlink:href="classAbstractLinearPde.html" target="_top" xlink:title=" ">
<polygon fill="white" stroke="transparent" points="697,-621.5 525,-621.5 525,-531.5 697,-531.5 697,-621.5"/>
<text text-anchor="start" x="530" y="-609.5" font-family="Helvetica,sans-Serif" font-size="10.00">AbstractLinearPde&lt;</text>
<text text-anchor="start" x="530" y="-598.5" font-family="Helvetica,sans-Serif" font-size="10.00"> ELEMENT_DIM, ELEMENT_DIM &gt;</text>
<text text-anchor="start" x="609" y="-583.5" font-family="Helvetica,sans-Serif" font-size="10.00"> </text>
<text text-anchor="start" x="540.5" y="-568.5" font-family="Helvetica,sans-Serif" font-size="10.00">+</text>
<text text-anchor="start" x="565" y="-568.5" font-family="Helvetica,sans-Serif" font-size="10.00">AbstractLinearPde()</text>
<text text-anchor="start" x="540.5" y="-553.5" font-family="Helvetica,sans-Serif" font-size="10.00">+</text>
<text text-anchor="start" x="565" y="-553.5" font-family="Helvetica,sans-Serif" font-size="10.00">~AbstractLinearPde()</text>
<text text-anchor="start" x="543" y="-538.5" font-family="Helvetica,sans-Serif" font-size="10.00">&#45;</text>
<text text-anchor="start" x="565" y="-538.5" font-family="Helvetica,sans-Serif" font-size="10.00">serialize()</text>
<polygon fill="#666666" stroke="#666666" points="525,-593.5 525,-593.5 697,-593.5 697,-593.5 525,-593.5"/>
<polygon fill="#666666" stroke="#666666" points="525,-578.5 525,-578.5 697,-578.5 697,-578.5 525,-578.5"/>
<polygon fill="none" stroke="#666666" points="525,-531.5 525,-621.5 697,-621.5 697,-531.5 525,-531.5"/>
</a>
</g>
</g>
<!-- Node1&#45;&gt;Node8 -->
<g id="edge9_Node000001_Node000008" class="edge">
<title>Node1&#45;&gt;Node8</title>
<g id="a_edge9_Node000001_Node000008"><a xlink:title=" ">
<path fill="none" stroke="orange" d="M575.95,-704.71C583.25,-678.23 591.92,-646.76 598.81,-621.76"/>
<polygon fill="orange" stroke="orange" points="572.51,-704.03 573.23,-714.6 579.26,-705.89 572.51,-704.03"/>
</a>
</g>
<text text-anchor="start" x="583" y="-689" font-family="Helvetica,sans-Serif" font-size="10.00" fill="grey"> &lt; ELEMENT_DIM, ELEMENT</text>
<text text-anchor="middle" x="651.5" y="-678" font-family="Helvetica,sans-Serif" font-size="10.00" fill="grey">_DIM &gt;</text>
</g>
<!-- Node3 -->
<g id="Node000003" class="node">
<title>Node3</title>
<g id="a_Node000003"><a xlink:href="classAbstractLinearParabolicPde.html" target="_top" xlink:title=" ">
<polygon fill="white" stroke="transparent" points="402,-438 210,-438 210,-277 402,-277 402,-438"/>
<text text-anchor="start" x="239.5" y="-425.5" font-family="Helvetica,sans-Serif" font-size="10.00">AbstractLinearParabolicPde</text>
<text text-anchor="start" x="272" y="-414.5" font-family="Helvetica,sans-Serif" font-size="10.00">&lt; DIM, DIM &gt;</text>
<text text-anchor="start" x="304" y="-399.5" font-family="Helvetica,sans-Serif" font-size="10.00"> </text>
<text text-anchor="start" x="214" y="-384.5" font-family="Helvetica,sans-Serif" font-size="10.00">+</text>
<text text-anchor="start" x="227" y="-384.5" font-family="Helvetica,sans-Serif" font-size="10.00">AbstractLinearParabolicPde()</text>
<text text-anchor="start" x="214" y="-369.5" font-family="Helvetica,sans-Serif" font-size="10.00">+</text>
<text text-anchor="start" x="227" y="-369.5" font-family="Helvetica,sans-Serif" font-size="10.00">~AbstractLinearParabolic</text>
<text text-anchor="start" x="227" y="-358.5" font-family="Helvetica,sans-Serif" font-size="10.00">Pde()</text>
<text text-anchor="start" x="214" y="-343.5" font-family="Helvetica,sans-Serif" font-size="10.00">+</text>
<text text-anchor="start" x="227" y="-343.5" font-family="Helvetica,sans-Serif" font-size="10.00">ComputeDuDtCoefficientFunction()</text>
<text text-anchor="start" x="214" y="-328.5" font-family="Helvetica,sans-Serif" font-size="10.00">+</text>
<text text-anchor="start" x="227" y="-328.5" font-family="Helvetica,sans-Serif" font-size="10.00">ComputeSourceTerm()</text>
<text text-anchor="start" x="214" y="-313.5" font-family="Helvetica,sans-Serif" font-size="10.00">+</text>
<text text-anchor="start" x="227" y="-313.5" font-family="Helvetica,sans-Serif" font-size="10.00">ComputeSourceTermAtNode()</text>
<text text-anchor="start" x="214" y="-298.5" font-family="Helvetica,sans-Serif" font-size="10.00">+</text>
<text text-anchor="start" x="227" y="-298.5" font-family="Helvetica,sans-Serif" font-size="10.00">ComputeDiffusionTerm()</text>
<text text-anchor="start" x="216.5" y="-283.5" font-family="Helvetica,sans-Serif" font-size="10.00">&#45;</text>
<text text-anchor="start" x="227" y="-283.5" font-family="Helvetica,sans-Serif" font-size="10.00">serialize()</text>
<polygon fill="#666666" stroke="#666666" points="210,-409.5 210,-409.5 402,-409.5 402,-409.5 210,-409.5"/>
<polygon fill="#666666" stroke="#666666" points="210,-394.5 210,-394.5 402,-394.5 402,-394.5 210,-394.5"/>
<polygon fill="none" stroke="#666666" points="210,-277 210,-438 402,-438 402,-277 210,-277"/>
</a>
</g>
</g>
<!-- Node2&#45;&gt;Node3 -->
<g id="edge3_Node000002_Node000003" class="edge">
<title>Node2&#45;&gt;Node3</title>
<g id="a_edge3_Node000002_Node000003"><a xlink:title=" ">
<path fill="none" stroke="orange" d="M367.96,-486.55C360.19,-470.49 352.13,-453.83 344.5,-438.06"/>
<polygon fill="orange" stroke="orange" points="364.99,-488.45 372.5,-495.93 371.29,-485.4 364.99,-488.45"/>
</a>
</g>
<text text-anchor="middle" x="397.5" y="-464.5" font-family="Helvetica,sans-Serif" font-size="10.00" fill="grey"> &lt; DIM, DIM &gt;</text>
</g>
<!-- Node7 -->
<g id="Node000007" class="node">
<title>Node7</title>
<g id="a_Node000007"><a xlink:href="classAbstractLinearParabolicPde.html" target="_top" xlink:title=" ">
<polygon fill="white" stroke="transparent" points="612,-438 420,-438 420,-277 612,-277 612,-438"/>
<text text-anchor="start" x="438.5" y="-425.5" font-family="Helvetica,sans-Serif" font-size="10.00">AbstractLinearParabolicPde</text>
<text text-anchor="start" x="438.5" y="-414.5" font-family="Helvetica,sans-Serif" font-size="10.00">&lt; ELEMENT_DIM, SPACE_DIM &gt;</text>
<text text-anchor="start" x="514" y="-399.5" font-family="Helvetica,sans-Serif" font-size="10.00"> </text>
<text text-anchor="start" x="424" y="-384.5" font-family="Helvetica,sans-Serif" font-size="10.00">+</text>
<text text-anchor="start" x="437" y="-384.5" font-family="Helvetica,sans-Serif" font-size="10.00">AbstractLinearParabolicPde()</text>
<text text-anchor="start" x="424" y="-369.5" font-family="Helvetica,sans-Serif" font-size="10.00">+</text>
<text text-anchor="start" x="437" y="-369.5" font-family="Helvetica,sans-Serif" font-size="10.00">~AbstractLinearParabolic</text>
<text text-anchor="start" x="437" y="-358.5" font-family="Helvetica,sans-Serif" font-size="10.00">Pde()</text>
<text text-anchor="start" x="424" y="-343.5" font-family="Helvetica,sans-Serif" font-size="10.00">+</text>
<text text-anchor="start" x="437" y="-343.5" font-family="Helvetica,sans-Serif" font-size="10.00">ComputeDuDtCoefficientFunction()</text>
<text text-anchor="start" x="424" y="-328.5" font-family="Helvetica,sans-Serif" font-size="10.00">+</text>
<text text-anchor="start" x="437" y="-328.5" font-family="Helvetica,sans-Serif" font-size="10.00">ComputeSourceTerm()</text>
<text text-anchor="start" x="424" y="-313.5" font-family="Helvetica,sans-Serif" font-size="10.00">+</text>
<text text-anchor="start" x="437" y="-313.5" font-family="Helvetica,sans-Serif" font-size="10.00">ComputeSourceTermAtNode()</text>
<text text-anchor="start" x="424" y="-298.5" font-family="Helvetica,sans-Serif" font-size="10.00">+</text>
<text text-anchor="start" x="437" y="-298.5" font-family="Helvetica,sans-Serif" font-size="10.00">ComputeDiffusionTerm()</text>
<text text-anchor="start" x="426.5" y="-283.5" font-family="Helvetica,sans-Serif" font-size="10.00">&#45;</text>
<text text-anchor="start" x="437" y="-283.5" font-family="Helvetica,sans-Serif" font-size="10.00">serialize()</text>
<polygon fill="#666666" stroke="#666666" points="420,-409.5 420,-409.5 612,-409.5 612,-409.5 420,-409.5"/>
<polygon fill="#666666" stroke="#666666" points="420,-394.5 420,-394.5 612,-394.5 612,-394.5 420,-394.5"/>
<polygon fill="none" stroke="#666666" points="420,-277 420,-438 612,-438 612,-277 420,-277"/>
</a>
</g>
</g>
<!-- Node2&#45;&gt;Node7 -->
<g id="edge7_Node000002_Node000007" class="edge">
<title>Node2&#45;&gt;Node7</title>
<g id="a_edge7_Node000002_Node000007"><a xlink:title=" ">
<path fill="none" stroke="orange" d="M454.04,-486.55C461.81,-470.49 469.87,-453.83 477.5,-438.06"/>
<polygon fill="orange" stroke="orange" points="450.71,-485.4 449.5,-495.93 457.01,-488.45 450.71,-485.4"/>
</a>
</g>
<text text-anchor="start" x="467" y="-470" font-family="Helvetica,sans-Serif" font-size="10.00" fill="grey"> &lt; ELEMENT_DIM, SPACE</text>
<text text-anchor="middle" x="528" y="-459" font-family="Helvetica,sans-Serif" font-size="10.00" fill="grey">_DIM &gt;</text>
</g>
<!-- Node4 -->
<g id="Node000004" class="node">
<title>Node4</title>
<g id="a_Node000004"><a xlink:href="classAveragedSourceParabolicPde.html" target="_top" xlink:title=" ">
<polygon fill="white" stroke="transparent" points="192,-240 0,-240 0,0 192,0 192,-240"/>
<text text-anchor="start" x="25" y="-228" font-family="Helvetica,sans-Serif" font-size="10.00">AveragedSourceParabolicPde</text>
<text text-anchor="start" x="74.5" y="-217" font-family="Helvetica,sans-Serif" font-size="10.00">&lt; DIM &gt;</text>
<text text-anchor="start" x="4" y="-202" font-family="Helvetica,sans-Serif" font-size="10.00">#</text>
<text text-anchor="start" x="17" y="-202" font-family="Helvetica,sans-Serif" font-size="10.00">mrCellPopulation</text>
<text text-anchor="start" x="4" y="-187" font-family="Helvetica,sans-Serif" font-size="10.00">#</text>
<text text-anchor="start" x="17" y="-187" font-family="Helvetica,sans-Serif" font-size="10.00">mDuDtCoefficient</text>
<text text-anchor="start" x="4" y="-172" font-family="Helvetica,sans-Serif" font-size="10.00">#</text>
<text text-anchor="start" x="17" y="-172" font-family="Helvetica,sans-Serif" font-size="10.00">mDiffusionCoefficient</text>
<text text-anchor="start" x="4" y="-157" font-family="Helvetica,sans-Serif" font-size="10.00">#</text>
<text text-anchor="start" x="17" y="-157" font-family="Helvetica,sans-Serif" font-size="10.00">mSourceCoefficient</text>
<text text-anchor="start" x="4" y="-142" font-family="Helvetica,sans-Serif" font-size="10.00">#</text>
<text text-anchor="start" x="17" y="-142" font-family="Helvetica,sans-Serif" font-size="10.00">mCellDensityOnCoarseElements</text>
<text text-anchor="start" x="4" y="-127" font-family="Helvetica,sans-Serif" font-size="10.00">+</text>
<text text-anchor="start" x="17" y="-127" font-family="Helvetica,sans-Serif" font-size="10.00">AveragedSourceParabolicPde()</text>
<text text-anchor="start" x="4" y="-112" font-family="Helvetica,sans-Serif" font-size="10.00">+</text>
<text text-anchor="start" x="17" y="-112" font-family="Helvetica,sans-Serif" font-size="10.00">rGetCellPopulation()</text>
<text text-anchor="start" x="4" y="-97" font-family="Helvetica,sans-Serif" font-size="10.00">+</text>
<text text-anchor="start" x="17" y="-97" font-family="Helvetica,sans-Serif" font-size="10.00">SetupSourceTerms()</text>
<text text-anchor="start" x="4" y="-82" font-family="Helvetica,sans-Serif" font-size="10.00">+</text>
<text text-anchor="start" x="17" y="-82" font-family="Helvetica,sans-Serif" font-size="10.00">ComputeDuDtCoefficientFunction()</text>
<text text-anchor="start" x="4" y="-67" font-family="Helvetica,sans-Serif" font-size="10.00">+</text>
<text text-anchor="start" x="17" y="-67" font-family="Helvetica,sans-Serif" font-size="10.00">ComputeSourceTerm()</text>
<text text-anchor="start" x="4" y="-52" font-family="Helvetica,sans-Serif" font-size="10.00">+</text>
<text text-anchor="start" x="17" y="-52" font-family="Helvetica,sans-Serif" font-size="10.00">ComputeSourceTermAtNode()</text>
<text text-anchor="start" x="4" y="-37" font-family="Helvetica,sans-Serif" font-size="10.00">+</text>
<text text-anchor="start" x="17" y="-37" font-family="Helvetica,sans-Serif" font-size="10.00">ComputeDiffusionTerm()</text>
<text text-anchor="start" x="4" y="-22" font-family="Helvetica,sans-Serif" font-size="10.00">+</text>
<text text-anchor="start" x="17" y="-22" font-family="Helvetica,sans-Serif" font-size="10.00">GetUptakeRateForElement()</text>
<text text-anchor="start" x="6.5" y="-7" font-family="Helvetica,sans-Serif" font-size="10.00">&#45;</text>
<text text-anchor="start" x="17" y="-7" font-family="Helvetica,sans-Serif" font-size="10.00">serialize()</text>
<polygon fill="#666666" stroke="#666666" points="0,-212 0,-212 192,-212 192,-212 0,-212"/>
<polygon fill="#666666" stroke="#666666" points="0,-137 0,-137 15,-137 15,-137 0,-137"/>
<polygon fill="#666666" stroke="#666666" points="15,-137 15,-137 192,-137 192,-137 15,-137"/>
<polygon fill="none" stroke="#666666" points="0,0 0,-240 192,-240 192,0 0,0"/>
</a>
</g>
</g>
<!-- Node3&#45;&gt;Node4 -->
<g id="edge4_Node000003_Node000004" class="edge">
<title>Node3&#45;&gt;Node4</title>
<g id="a_edge4_Node000003_Node000004"><a xlink:title=" ">
<path fill="none" stroke="#63b8ff" d="M227.13,-269.19C218.3,-259.36 209.45,-249.47 201,-240 198.07,-236.71 195.09,-233.37 192.08,-229.99"/>
<polygon fill="none" stroke="#63b8ff" points="224.59,-271.6 233.87,-276.7 229.79,-266.92 224.59,-271.6"/>
</a>
</g>
</g>
<!-- Node5 -->
<g id="Node000005" class="node">
<title>Node5</title>
<g id="a_Node000005"><a xlink:href="classCellwiseSourceParabolicPde.html" target="_top" xlink:title=" ">
<polygon fill="white" stroke="transparent" points="402,-217.5 210,-217.5 210,-22.5 402,-22.5 402,-217.5"/>
<text text-anchor="start" x="237.5" y="-205" font-family="Helvetica,sans-Serif" font-size="10.00">CellwiseSourceParabolicPde</text>
<text text-anchor="start" x="284.5" y="-194" font-family="Helvetica,sans-Serif" font-size="10.00">&lt; DIM &gt;</text>
<text text-anchor="start" x="214" y="-179" font-family="Helvetica,sans-Serif" font-size="10.00">#</text>
<text text-anchor="start" x="227" y="-179" font-family="Helvetica,sans-Serif" font-size="10.00">mrCellPopulation</text>
<text text-anchor="start" x="214" y="-164" font-family="Helvetica,sans-Serif" font-size="10.00">#</text>
<text text-anchor="start" x="227" y="-164" font-family="Helvetica,sans-Serif" font-size="10.00">mDuDtCoefficient</text>
<text text-anchor="start" x="214" y="-149" font-family="Helvetica,sans-Serif" font-size="10.00">#</text>
<text text-anchor="start" x="227" y="-149" font-family="Helvetica,sans-Serif" font-size="10.00">mDiffusionCoefficient</text>
<text text-anchor="start" x="214" y="-134" font-family="Helvetica,sans-Serif" font-size="10.00">#</text>
<text text-anchor="start" x="227" y="-134" font-family="Helvetica,sans-Serif" font-size="10.00">mSourceCoefficient</text>
<text text-anchor="start" x="214" y="-119" font-family="Helvetica,sans-Serif" font-size="10.00">+</text>
<text text-anchor="start" x="227" y="-119" font-family="Helvetica,sans-Serif" font-size="10.00">CellwiseSourceParabolicPde()</text>
<text text-anchor="start" x="214" y="-104" font-family="Helvetica,sans-Serif" font-size="10.00">+</text>
<text text-anchor="start" x="227" y="-104" font-family="Helvetica,sans-Serif" font-size="10.00">rGetCellPopulation()</text>
<text text-anchor="start" x="214" y="-89" font-family="Helvetica,sans-Serif" font-size="10.00">+</text>
<text text-anchor="start" x="227" y="-89" font-family="Helvetica,sans-Serif" font-size="10.00">ComputeDuDtCoefficientFunction()</text>
<text text-anchor="start" x="214" y="-74" font-family="Helvetica,sans-Serif" font-size="10.00">+</text>
<text text-anchor="start" x="227" y="-74" font-family="Helvetica,sans-Serif" font-size="10.00">ComputeSourceTerm()</text>
<text text-anchor="start" x="214" y="-59" font-family="Helvetica,sans-Serif" font-size="10.00">+</text>
<text text-anchor="start" x="227" y="-59" font-family="Helvetica,sans-Serif" font-size="10.00">ComputeSourceTermAtNode()</text>
<text text-anchor="start" x="214" y="-44" font-family="Helvetica,sans-Serif" font-size="10.00">+</text>
<text text-anchor="start" x="227" y="-44" font-family="Helvetica,sans-Serif" font-size="10.00">ComputeDiffusionTerm()</text>
<text text-anchor="start" x="216.5" y="-29" font-family="Helvetica,sans-Serif" font-size="10.00">&#45;</text>
<text text-anchor="start" x="227" y="-29" font-family="Helvetica,sans-Serif" font-size="10.00">serialize()</text>
<polygon fill="#666666" stroke="#666666" points="210,-189 210,-189 402,-189 402,-189 210,-189"/>
<polygon fill="#666666" stroke="#666666" points="210,-129 210,-129 225,-129 225,-129 210,-129"/>
<polygon fill="#666666" stroke="#666666" points="225,-129 225,-129 402,-129 402,-129 225,-129"/>
<polygon fill="none" stroke="#666666" points="210,-22.5 210,-217.5 402,-217.5 402,-22.5 210,-22.5"/>
</a>
</g>
</g>
<!-- Node3&#45;&gt;Node5 -->
<g id="edge5_Node000003_Node000005" class="edge">
<title>Node3&#45;&gt;Node5</title>
<g id="a_edge5_Node000003_Node000005"><a xlink:title=" ">
<path fill="none" stroke="#63b8ff" d="M306,-266.43C306,-250.51 306,-233.88 306,-217.79"/>
<polygon fill="none" stroke="#63b8ff" points="302.5,-266.77 306,-276.77 309.5,-266.77 302.5,-266.77"/>
</a>
</g>
</g>
<!-- Node6 -->
<g id="Node000006" class="node">
<title>Node6</title>
<g id="a_Node000006"><a xlink:href="classUniformSourceParabolicPde.html" target="_top" xlink:title=" ">
<polygon fill="white" stroke="transparent" points="612,-187.5 420,-187.5 420,-52.5 612,-52.5 612,-187.5"/>
<text text-anchor="start" x="448" y="-175" font-family="Helvetica,sans-Serif" font-size="10.00">UniformSourceParabolicPde</text>
<text text-anchor="start" x="494.5" y="-164" font-family="Helvetica,sans-Serif" font-size="10.00">&lt; DIM &gt;</text>
<text text-anchor="start" x="426.5" y="-149" font-family="Helvetica,sans-Serif" font-size="10.00">&#45;</text>
<text text-anchor="start" x="437" y="-149" font-family="Helvetica,sans-Serif" font-size="10.00">mSourceCoefficient</text>
<text text-anchor="start" x="424" y="-134" font-family="Helvetica,sans-Serif" font-size="10.00">+</text>
<text text-anchor="start" x="437" y="-134" font-family="Helvetica,sans-Serif" font-size="10.00">UniformSourceParabolicPde()</text>
<text text-anchor="start" x="424" y="-119" font-family="Helvetica,sans-Serif" font-size="10.00">+</text>
<text text-anchor="start" x="437" y="-119" font-family="Helvetica,sans-Serif" font-size="10.00">GetCoefficient()</text>
<text text-anchor="start" x="424" y="-104" font-family="Helvetica,sans-Serif" font-size="10.00">+</text>
<text text-anchor="start" x="437" y="-104" font-family="Helvetica,sans-Serif" font-size="10.00">ComputeSourceTerm()</text>
<text text-anchor="start" x="424" y="-89" font-family="Helvetica,sans-Serif" font-size="10.00">+</text>
<text text-anchor="start" x="437" y="-89" font-family="Helvetica,sans-Serif" font-size="10.00">ComputeDiffusionTerm()</text>
<text text-anchor="start" x="424" y="-74" font-family="Helvetica,sans-Serif" font-size="10.00">+</text>
<text text-anchor="start" x="437" y="-74" font-family="Helvetica,sans-Serif" font-size="10.00">ComputeDuDtCoefficientFunction()</text>
<text text-anchor="start" x="426.5" y="-59" font-family="Helvetica,sans-Serif" font-size="10.00">&#45;</text>
<text text-anchor="start" x="437" y="-59" font-family="Helvetica,sans-Serif" font-size="10.00">serialize()</text>
<polygon fill="#666666" stroke="#666666" points="420,-159 420,-159 612,-159 612,-159 420,-159"/>
<polygon fill="#666666" stroke="#666666" points="420,-144 420,-144 435,-144 435,-144 420,-144"/>
<polygon fill="#666666" stroke="#666666" points="435,-144 435,-144 612,-144 612,-144 435,-144"/>
<polygon fill="none" stroke="#666666" points="420,-52.5 420,-187.5 612,-187.5 612,-52.5 420,-52.5"/>
</a>
</g>
</g>
<!-- Node3&#45;&gt;Node6 -->
<g id="edge6_Node000003_Node000006" class="edge">
<title>Node3&#45;&gt;Node6</title>
<g id="a_edge6_Node000003_Node000006"><a xlink:title=" ">
<path fill="none" stroke="#63b8ff" d="M384.87,-269.19C393.7,-259.36 402.55,-249.47 411,-240 426.13,-223.04 442.41,-204.65 457.53,-187.51"/>
<polygon fill="none" stroke="#63b8ff" points="382.21,-266.92 378.13,-276.7 387.41,-271.6 382.21,-266.92"/>
</a>
</g>
</g>
</g>
</svg>
