<?xml version="1.0" encoding="UTF-8" standalone="no"?>
<!DOCTYPE svg PUBLIC "-//W3C//DTD SVG 1.1//EN"
 "http://www.w3.org/Graphics/SVG/1.1/DTD/svg11.dtd">
<!-- Generated by graphviz version 2.43.0 (0)
 -->
<!-- Title: CellVecData Pages: 1 -->
<svg width="455pt" height="534pt"
 viewBox="0.00 0.00 455.00 534.00" xmlns="http://www.w3.org/2000/svg" xmlns:xlink="http://www.w3.org/1999/xlink">
<g id="graph0" class="graph" transform="scale(1 1) rotate(0) translate(4 530)">
<title>CellVecData</title>
<!-- Node1 -->
<g id="Node000001" class="node">
<title>Node1</title>
<g id="a_Node000001"><a xlink:title=" ">
<polygon fill="#999999" stroke="transparent" points="354.5,-169 257.5,-169 257.5,0 354.5,0 354.5,-169"/>
<text text-anchor="start" x="276.5" y="-156.5" font-family="Helvetica,sans-Serif" font-size="10.00">CellVecData</text>
<text text-anchor="start" x="304.5" y="-141.5" font-family="Helvetica,sans-Serif" font-size="10.00"> </text>
<text text-anchor="start" x="262" y="-126.5" font-family="Helvetica,sans-Serif" font-size="10.00">+</text>
<text text-anchor="start" x="275" y="-126.5" font-family="Helvetica,sans-Serif" font-size="10.00">CellVecData()</text>
<text text-anchor="start" x="262" y="-111.5" font-family="Helvetica,sans-Serif" font-size="10.00">+</text>
<text text-anchor="start" x="275" y="-111.5" font-family="Helvetica,sans-Serif" font-size="10.00">CellVecData()</text>
<text text-anchor="start" x="262" y="-96.5" font-family="Helvetica,sans-Serif" font-size="10.00">+</text>
<text text-anchor="start" x="275" y="-96.5" font-family="Helvetica,sans-Serif" font-size="10.00">CellVecData()</text>
<text text-anchor="start" x="262" y="-81.5" font-family="Helvetica,sans-Serif" font-size="10.00">+</text>
<text text-anchor="start" x="275" y="-81.5" font-family="Helvetica,sans-Serif" font-size="10.00">~CellVecData()</text>
<text text-anchor="start" x="262" y="-66.5" font-family="Helvetica,sans-Serif" font-size="10.00">+</text>
<text text-anchor="start" x="275" y="-66.5" font-family="Helvetica,sans-Serif" font-size="10.00">SetItem()</text>
<text text-anchor="start" x="262" y="-51.5" font-family="Helvetica,sans-Serif" font-size="10.00">+</text>
<text text-anchor="start" x="275" y="-51.5" font-family="Helvetica,sans-Serif" font-size="10.00">GetItem()</text>
<text text-anchor="start" x="262" y="-36.5" font-family="Helvetica,sans-Serif" font-size="10.00">+</text>
<text text-anchor="start" x="275" y="-36.5" font-family="Helvetica,sans-Serif" font-size="10.00">GetNumItems()</text>
<text text-anchor="start" x="262" y="-21.5" font-family="Helvetica,sans-Serif" font-size="10.00">+</text>
<text text-anchor="start" x="275" y="-21.5" font-family="Helvetica,sans-Serif" font-size="10.00">GetKeys()</text>
<text text-anchor="start" x="264.5" y="-6.5" font-family="Helvetica,sans-Serif" font-size="10.00">&#45;</text>
<text text-anchor="start" x="275" y="-6.5" font-family="Helvetica,sans-Serif" font-size="10.00">serialize()</text>
<polygon fill="#666666" stroke="#666666" points="258,-151.5 258,-151.5 355,-151.5 355,-151.5 258,-151.5"/>
<polygon fill="#666666" stroke="#666666" points="258,-136.5 258,-136.5 355,-136.5 355,-136.5 258,-136.5"/>
<polygon fill="none" stroke="#666666" points="257.5,0 257.5,-169 354.5,-169 354.5,0 257.5,0"/>
</a>
</g>
</g>
<!-- Node2 -->
<g id="Node000002" class="node">
<title>Node2</title>
<g id="a_Node000002"><a xlink:href="classAbstractCellProperty.html" target="_top" xlink:title=" ">
<polygon fill="white" stroke="transparent" points="224,-400 86,-400 86,-216 224,-216 224,-400"/>
<text text-anchor="start" x="104.5" y="-388" font-family="Helvetica,sans-Serif" font-size="10.00">AbstractCellProperty</text>
<text text-anchor="start" x="153" y="-373" font-family="Helvetica,sans-Serif" font-size="10.00"> </text>
<text text-anchor="start" x="90" y="-358" font-family="Helvetica,sans-Serif" font-size="10.00">+</text>
<text text-anchor="start" x="103" y="-358" font-family="Helvetica,sans-Serif" font-size="10.00">AbstractCellProperty()</text>
<text text-anchor="start" x="90" y="-343" font-family="Helvetica,sans-Serif" font-size="10.00">+</text>
<text text-anchor="start" x="103" y="-343" font-family="Helvetica,sans-Serif" font-size="10.00">~AbstractCellProperty()</text>
<text text-anchor="start" x="90" y="-328" font-family="Helvetica,sans-Serif" font-size="10.00">+</text>
<text text-anchor="start" x="103" y="-328" font-family="Helvetica,sans-Serif" font-size="10.00">IsType()</text>
<text text-anchor="start" x="90" y="-313" font-family="Helvetica,sans-Serif" font-size="10.00">+</text>
<text text-anchor="start" x="103" y="-313" font-family="Helvetica,sans-Serif" font-size="10.00">IsSubType()</text>
<text text-anchor="start" x="90" y="-298" font-family="Helvetica,sans-Serif" font-size="10.00">+</text>
<text text-anchor="start" x="103" y="-298" font-family="Helvetica,sans-Serif" font-size="10.00">IsSame()</text>
<text text-anchor="start" x="90" y="-283" font-family="Helvetica,sans-Serif" font-size="10.00">+</text>
<text text-anchor="start" x="103" y="-283" font-family="Helvetica,sans-Serif" font-size="10.00">IsSame()</text>
<text text-anchor="start" x="90" y="-268" font-family="Helvetica,sans-Serif" font-size="10.00">+</text>
<text text-anchor="start" x="103" y="-268" font-family="Helvetica,sans-Serif" font-size="10.00">IncrementCellCount()</text>
<text text-anchor="start" x="90" y="-253" font-family="Helvetica,sans-Serif" font-size="10.00">+</text>
<text text-anchor="start" x="103" y="-253" font-family="Helvetica,sans-Serif" font-size="10.00">DecrementCellCount()</text>
<text text-anchor="start" x="90" y="-238" font-family="Helvetica,sans-Serif" font-size="10.00">+</text>
<text text-anchor="start" x="103" y="-238" font-family="Helvetica,sans-Serif" font-size="10.00">GetCellCount()</text>
<text text-anchor="start" x="92.5" y="-223" font-family="Helvetica,sans-Serif" font-size="10.00">&#45;</text>
<text text-anchor="start" x="103" y="-223" font-family="Helvetica,sans-Serif" font-size="10.00">serialize()</text>
<polygon fill="#666666" stroke="#666666" points="86,-383 86,-383 224,-383 224,-383 86,-383"/>
<polygon fill="#666666" stroke="#666666" points="86,-368 86,-368 224,-368 224,-368 86,-368"/>
<polygon fill="none" stroke="#666666" points="86,-216 86,-400 224,-400 224,-216 86,-216"/>
</a>
</g>
</g>
<!-- Node2&#45;&gt;Node1 -->
<g id="edge1_Node000001_Node000002" class="edge">
<title>Node2&#45;&gt;Node1</title>
<g id="a_edge1_Node000001_Node000002"><a xlink:title=" ">
<path fill="none" stroke="#63b8ff" d="M222.76,-207.6C234.41,-190.52 246.3,-173.07 257.32,-156.91"/>
<polygon fill="none" stroke="#63b8ff" points="219.81,-205.71 217.07,-215.95 225.6,-209.66 219.81,-205.71"/>
</a>
</g>
</g>
<!-- Node3 -->
<g id="Node000003" class="node">
<title>Node3</title>
<g id="a_Node000003"><a xlink:href="classIdentifiable.html" target="_top" xlink:title=" ">
<polygon fill="white" stroke="transparent" points="176,-526 0,-526 0,-447 176,-447 176,-526"/>
<text text-anchor="start" x="60.5" y="-513.5" font-family="Helvetica,sans-Serif" font-size="10.00">Identifiable</text>
<text text-anchor="start" x="86" y="-498.5" font-family="Helvetica,sans-Serif" font-size="10.00"> </text>
<text text-anchor="start" x="4" y="-483.5" font-family="Helvetica,sans-Serif" font-size="10.00">+</text>
<text text-anchor="start" x="17" y="-483.5" font-family="Helvetica,sans-Serif" font-size="10.00">~Identifiable()</text>
<text text-anchor="start" x="4" y="-468.5" font-family="Helvetica,sans-Serif" font-size="10.00">+</text>
<text text-anchor="start" x="17" y="-468.5" font-family="Helvetica,sans-Serif" font-size="10.00">GetIdentifier()</text>
<text text-anchor="start" x="6.5" y="-453.5" font-family="Helvetica,sans-Serif" font-size="10.00">&#45;</text>
<text text-anchor="start" x="17" y="-453.5" font-family="Helvetica,sans-Serif" font-size="10.00">TidyTemplatedExportIdentifier()</text>
<polygon fill="#666666" stroke="#666666" points="0,-508.5 0,-508.5 176,-508.5 176,-508.5 0,-508.5"/>
<polygon fill="#666666" stroke="#666666" points="0,-493.5 0,-493.5 176,-493.5 176,-493.5 0,-493.5"/>
<polygon fill="none" stroke="#666666" points="0,-447 0,-526 176,-526 176,-447 0,-447"/>
</a>
</g>
</g>
<!-- Node3&#45;&gt;Node2 -->
<g id="edge2_Node000002_Node000003" class="edge">
<title>Node3&#45;&gt;Node2</title>
<g id="a_edge2_Node000002_Node000003"><a xlink:title=" ">
<path fill="none" stroke="#63b8ff" d="M106.29,-437.32C110.69,-425.72 115.54,-412.94 120.43,-400.08"/>
<polygon fill="none" stroke="#63b8ff" points="102.98,-436.18 102.7,-446.77 109.52,-438.66 102.98,-436.18"/>
</a>
</g>
</g>
<!-- Node4 -->
<g id="Node000004" class="node">
<title>Node4</title>
<g id="a_Node000004"><a xlink:href="classunsigned.html" target="_top" xlink:title=" ">
<polygon fill="white" stroke="transparent" points="249.5,-511 194.5,-511 194.5,-462 249.5,-462 249.5,-511"/>
<text text-anchor="start" x="200" y="-498.5" font-family="Helvetica,sans-Serif" font-size="10.00">unsigned</text>
<text text-anchor="start" x="220.5" y="-483.5" font-family="Helvetica,sans-Serif" font-size="10.00"> </text>
<text text-anchor="start" x="220.5" y="-468.5" font-family="Helvetica,sans-Serif" font-size="10.00"> </text>
<polygon fill="#bfbfbf" stroke="#bfbfbf" points="195,-493.5 195,-493.5 250,-493.5 250,-493.5 195,-493.5"/>
<polygon fill="#bfbfbf" stroke="#bfbfbf" points="195,-478.5 195,-478.5 250,-478.5 250,-478.5 195,-478.5"/>
<polygon fill="none" stroke="#bfbfbf" points="194.5,-462 194.5,-511 249.5,-511 249.5,-462 194.5,-462"/>
</a>
</g>
</g>
<!-- Node4&#45;&gt;Node2 -->
<g id="edge3_Node000002_Node000004" class="edge">
<title>Node4&#45;&gt;Node2</title>
<g id="a_edge3_Node000002_Node000004"><a xlink:title=" ">
<path fill="none" stroke="#63b8ff" d="M212.96,-461.7C207.85,-448.23 201.07,-430.36 193.95,-411.61"/>
<polygon fill="none" stroke="#63b8ff" points="193.87,-411.39 188,-407.2 189.61,-400.17 195.48,-404.36 193.87,-411.39"/>
</a>
</g>
<text text-anchor="middle" x="233" y="-421" font-family="Helvetica,sans-Serif" font-size="10.00" fill="grey"> &#45;mCellCount</text>
</g>
<!-- Node5 -->
<g id="Node000005" class="node">
<title>Node5</title>
<g id="a_Node000005"><a xlink:title=" ">
<polygon fill="white" stroke="transparent" points="369.5,-332.5 242.5,-332.5 242.5,-283.5 369.5,-283.5 369.5,-332.5"/>
<text text-anchor="start" x="248" y="-320" font-family="Helvetica,sans-Serif" font-size="10.00">map&lt; std::string, Vec &gt;</text>
<text text-anchor="start" x="304.5" y="-305" font-family="Helvetica,sans-Serif" font-size="10.00"> </text>
<text text-anchor="start" x="304.5" y="-290" font-family="Helvetica,sans-Serif" font-size="10.00"> </text>
<polygon fill="#bfbfbf" stroke="#bfbfbf" points="243,-315 243,-315 370,-315 370,-315 243,-315"/>
<polygon fill="#bfbfbf" stroke="#bfbfbf" points="243,-300 243,-300 370,-300 370,-300 243,-300"/>
<polygon fill="none" stroke="#bfbfbf" points="242.5,-283.5 242.5,-332.5 369.5,-332.5 369.5,-283.5 242.5,-283.5"/>
</a>
</g>
</g>
<!-- Node5&#45;&gt;Node1 -->
<g id="edge4_Node000001_Node000005" class="edge">
<title>Node5&#45;&gt;Node1</title>
<g id="a_edge4_Node000001_Node000005"><a xlink:title=" ">
<path fill="none" stroke="#63b8ff" d="M306,-283.3C306,-258.77 306,-218.87 306,-181.31"/>
<polygon fill="none" stroke="#63b8ff" points="306,-181.21 302,-175.22 306,-169.21 310,-175.21 306,-181.21"/>
</a>
</g>
<text text-anchor="middle" x="344" y="-190" font-family="Helvetica,sans-Serif" font-size="10.00" fill="grey"> &#45;mCellVecData</text>
</g>
<!-- Node6 -->
<g id="Node000006" class="node">
<title>Node6</title>
<g id="a_Node000006"><a xlink:href="classbool.html" target="_top" xlink:title=" ">
<polygon fill="white" stroke="transparent" points="421,-332.5 389,-332.5 389,-283.5 421,-283.5 421,-332.5"/>
<text text-anchor="start" x="394" y="-320" font-family="Helvetica,sans-Serif" font-size="10.00">bool</text>
<text text-anchor="start" x="403" y="-305" font-family="Helvetica,sans-Serif" font-size="10.00"> </text>
<text text-anchor="start" x="403" y="-290" font-family="Helvetica,sans-Serif" font-size="10.00"> </text>
<polygon fill="#bfbfbf" stroke="#bfbfbf" points="389,-315 389,-315 421,-315 421,-315 389,-315"/>
<polygon fill="#bfbfbf" stroke="#bfbfbf" points="389,-300 389,-300 421,-300 421,-300 389,-300"/>
<polygon fill="none" stroke="#bfbfbf" points="389,-283.5 389,-332.5 421,-332.5 421,-283.5 389,-283.5"/>
</a>
</g>
</g>
<!-- Node6&#45;&gt;Node1 -->
<g id="edge5_Node000001_Node000006" class="edge">
<title>Node6&#45;&gt;Node1</title>
<g id="a_edge5_Node000001_Node000006"><a xlink:title=" ">
<path fill="none" stroke="#63b8ff" d="M403.88,-283.04C401.97,-258.11 396.84,-218.4 383,-187 377.41,-174.32 369.95,-161.77 361.86,-150.04"/>
<polygon fill="none" stroke="#63b8ff" points="361.62,-149.71 354.87,-147.17 354.62,-139.96 361.37,-142.5 361.62,-149.71"/>
</a>
</g>
<text text-anchor="middle" x="416.5" y="-190" font-family="Helvetica,sans-Serif" font-size="10.00" fill="grey"> &#45;mFreeVecs</text>
</g>
</g>
</svg>
