<?xml version="1.0" encoding="UTF-8" standalone="no"?>
<!DOCTYPE svg PUBLIC "-//W3C//DTD SVG 1.1//EN"
 "http://www.w3.org/Graphics/SVG/1.1/DTD/svg11.dtd">
<!-- Generated by graphviz version 2.43.0 (0)
 -->
<!-- Title: CellPopulationAreaWriter&lt; ELEMENT_DIM, SPACE_DIM &gt; Pages: 1 -->
<svg width="504pt" height="1201pt"
 viewBox="0.00 0.00 504.00 1201.00" xmlns="http://www.w3.org/2000/svg" xmlns:xlink="http://www.w3.org/1999/xlink">
<g id="graph0" class="graph" transform="scale(1 1) rotate(0) translate(4 1197)">
<title>CellPopulationAreaWriter&lt; ELEMENT_DIM, SPACE_DIM &gt;</title>
<!-- Node1 -->
<g id="Node000001" class="node">
<title>Node1</title>
<g id="a_Node000001"><a xlink:title=" ">
<polygon fill="#999999" stroke="transparent" points="306.5,-150 141.5,-150 141.5,0 306.5,0 306.5,-150"/>
<text text-anchor="start" x="147" y="-138" font-family="Helvetica,sans-Serif" font-size="10.00">CellPopulationAreaWriter</text>
<text text-anchor="start" x="147" y="-127" font-family="Helvetica,sans-Serif" font-size="10.00">&lt; ELEMENT_DIM, SPACE_DIM &gt;</text>
<text text-anchor="start" x="222.5" y="-112" font-family="Helvetica,sans-Serif" font-size="10.00"> </text>
<text text-anchor="start" x="149" y="-97" font-family="Helvetica,sans-Serif" font-size="10.00">+</text>
<text text-anchor="start" x="165" y="-97" font-family="Helvetica,sans-Serif" font-size="10.00">CellPopulationAreaWriter()</text>
<text text-anchor="start" x="149" y="-82" font-family="Helvetica,sans-Serif" font-size="10.00">+</text>
<text text-anchor="start" x="165" y="-82" font-family="Helvetica,sans-Serif" font-size="10.00">Visit()</text>
<text text-anchor="start" x="149" y="-67" font-family="Helvetica,sans-Serif" font-size="10.00">+</text>
<text text-anchor="start" x="165" y="-67" font-family="Helvetica,sans-Serif" font-size="10.00">Visit()</text>
<text text-anchor="start" x="149" y="-52" font-family="Helvetica,sans-Serif" font-size="10.00">+</text>
<text text-anchor="start" x="165" y="-52" font-family="Helvetica,sans-Serif" font-size="10.00">Visit()</text>
<text text-anchor="start" x="149" y="-37" font-family="Helvetica,sans-Serif" font-size="10.00">+</text>
<text text-anchor="start" x="165" y="-37" font-family="Helvetica,sans-Serif" font-size="10.00">Visit()</text>
<text text-anchor="start" x="149" y="-22" font-family="Helvetica,sans-Serif" font-size="10.00">+</text>
<text text-anchor="start" x="165" y="-22" font-family="Helvetica,sans-Serif" font-size="10.00">Visit()</text>
<text text-anchor="start" x="151.5" y="-7" font-family="Helvetica,sans-Serif" font-size="10.00">&#45;</text>
<text text-anchor="start" x="165" y="-7" font-family="Helvetica,sans-Serif" font-size="10.00">serialize()</text>
<polygon fill="#666666" stroke="#666666" points="142,-122 142,-122 307,-122 307,-122 142,-122"/>
<polygon fill="#666666" stroke="#666666" points="142,-107 142,-107 307,-107 307,-107 142,-107"/>
<polygon fill="none" stroke="#666666" points="141.5,0 141.5,-150 306.5,-150 306.5,0 141.5,0"/>
</a>
</g>
</g>
<!-- Node2 -->
<g id="Node000002" class="node">
<title>Node2</title>
<g id="a_Node000002"><a xlink:href="classAbstractCellPopulationWriter.html" target="_top" xlink:title=" ">
<polygon fill="white" stroke="transparent" points="309,-352 139,-352 139,-187 309,-187 309,-352"/>
<text text-anchor="start" x="146.5" y="-339.5" font-family="Helvetica,sans-Serif" font-size="10.00">AbstractCellPopulationWriter</text>
<text text-anchor="start" x="146.5" y="-328.5" font-family="Helvetica,sans-Serif" font-size="10.00">&lt; ELEMENT_DIM, SPACE_DIM &gt;</text>
<text text-anchor="start" x="222" y="-313.5" font-family="Helvetica,sans-Serif" font-size="10.00"> </text>
<text text-anchor="start" x="143" y="-298.5" font-family="Helvetica,sans-Serif" font-size="10.00">+</text>
<text text-anchor="start" x="156" y="-298.5" font-family="Helvetica,sans-Serif" font-size="10.00">AbstractCellPopulationWriter()</text>
<text text-anchor="start" x="143" y="-283.5" font-family="Helvetica,sans-Serif" font-size="10.00">+</text>
<text text-anchor="start" x="156" y="-283.5" font-family="Helvetica,sans-Serif" font-size="10.00">WriteHeader()</text>
<text text-anchor="start" x="143" y="-268.5" font-family="Helvetica,sans-Serif" font-size="10.00">+</text>
<text text-anchor="start" x="156" y="-268.5" font-family="Helvetica,sans-Serif" font-size="10.00">Visit()</text>
<text text-anchor="start" x="143" y="-253.5" font-family="Helvetica,sans-Serif" font-size="10.00">+</text>
<text text-anchor="start" x="156" y="-253.5" font-family="Helvetica,sans-Serif" font-size="10.00">Visit()</text>
<text text-anchor="start" x="143" y="-238.5" font-family="Helvetica,sans-Serif" font-size="10.00">+</text>
<text text-anchor="start" x="156" y="-238.5" font-family="Helvetica,sans-Serif" font-size="10.00">Visit()</text>
<text text-anchor="start" x="143" y="-223.5" font-family="Helvetica,sans-Serif" font-size="10.00">+</text>
<text text-anchor="start" x="156" y="-223.5" font-family="Helvetica,sans-Serif" font-size="10.00">Visit()</text>
<text text-anchor="start" x="143" y="-208.5" font-family="Helvetica,sans-Serif" font-size="10.00">+</text>
<text text-anchor="start" x="156" y="-208.5" font-family="Helvetica,sans-Serif" font-size="10.00">Visit()</text>
<text text-anchor="start" x="145.5" y="-193.5" font-family="Helvetica,sans-Serif" font-size="10.00">&#45;</text>
<text text-anchor="start" x="156" y="-193.5" font-family="Helvetica,sans-Serif" font-size="10.00">serialize()</text>
<polygon fill="#666666" stroke="#666666" points="139,-323.5 139,-323.5 309,-323.5 309,-323.5 139,-323.5"/>
<polygon fill="#666666" stroke="#666666" points="139,-308.5 139,-308.5 309,-308.5 309,-308.5 139,-308.5"/>
<polygon fill="none" stroke="#666666" points="139,-187 139,-352 309,-352 309,-187 139,-187"/>
</a>
</g>
</g>
<!-- Node2&#45;&gt;Node1 -->
<g id="edge1_Node000001_Node000002" class="edge">
<title>Node2&#45;&gt;Node1</title>
<g id="a_edge1_Node000001_Node000002"><a xlink:title=" ">
<path fill="none" stroke="#63b8ff" d="M224,-176.8C224,-167.86 224,-158.87 224,-150.13"/>
<polygon fill="none" stroke="#63b8ff" points="220.5,-176.86 224,-186.86 227.5,-176.86 220.5,-176.86"/>
</a>
</g>
</g>
<!-- Node3 -->
<g id="Node000003" class="node">
<title>Node3</title>
<g id="a_Node000003"><a xlink:href="classAbstractCellBasedWriter.html" target="_top" xlink:title=" ">
<polygon fill="white" stroke="transparent" points="306.5,-584 141.5,-584 141.5,-389 306.5,-389 306.5,-584"/>
<text text-anchor="start" x="147" y="-571.5" font-family="Helvetica,sans-Serif" font-size="10.00">AbstractCellBasedWriter</text>
<text text-anchor="start" x="147" y="-560.5" font-family="Helvetica,sans-Serif" font-size="10.00">&lt; ELEMENT_DIM, SPACE_DIM &gt;</text>
<text text-anchor="start" x="222.5" y="-545.5" font-family="Helvetica,sans-Serif" font-size="10.00"> </text>
<text text-anchor="start" x="148" y="-530.5" font-family="Helvetica,sans-Serif" font-size="10.00">+</text>
<text text-anchor="start" x="163" y="-530.5" font-family="Helvetica,sans-Serif" font-size="10.00">AbstractCellBasedWriter()</text>
<text text-anchor="start" x="148" y="-515.5" font-family="Helvetica,sans-Serif" font-size="10.00">+</text>
<text text-anchor="start" x="163" y="-515.5" font-family="Helvetica,sans-Serif" font-size="10.00">~AbstractCellBasedWriter()</text>
<text text-anchor="start" x="148" y="-500.5" font-family="Helvetica,sans-Serif" font-size="10.00">+</text>
<text text-anchor="start" x="163" y="-500.5" font-family="Helvetica,sans-Serif" font-size="10.00">CloseFile()</text>
<text text-anchor="start" x="148" y="-485.5" font-family="Helvetica,sans-Serif" font-size="10.00">+</text>
<text text-anchor="start" x="163" y="-485.5" font-family="Helvetica,sans-Serif" font-size="10.00">OpenOutputFile()</text>
<text text-anchor="start" x="148" y="-470.5" font-family="Helvetica,sans-Serif" font-size="10.00">+</text>
<text text-anchor="start" x="163" y="-470.5" font-family="Helvetica,sans-Serif" font-size="10.00">OpenOutputFileForAppend()</text>
<text text-anchor="start" x="148" y="-455.5" font-family="Helvetica,sans-Serif" font-size="10.00">+</text>
<text text-anchor="start" x="163" y="-455.5" font-family="Helvetica,sans-Serif" font-size="10.00">WriteTimeStamp()</text>
<text text-anchor="start" x="148" y="-440.5" font-family="Helvetica,sans-Serif" font-size="10.00">+</text>
<text text-anchor="start" x="163" y="-440.5" font-family="Helvetica,sans-Serif" font-size="10.00">WriteNewline()</text>
<text text-anchor="start" x="148" y="-425.5" font-family="Helvetica,sans-Serif" font-size="10.00">+</text>
<text text-anchor="start" x="163" y="-425.5" font-family="Helvetica,sans-Serif" font-size="10.00">SetFileName()</text>
<text text-anchor="start" x="148" y="-410.5" font-family="Helvetica,sans-Serif" font-size="10.00">+</text>
<text text-anchor="start" x="163" y="-410.5" font-family="Helvetica,sans-Serif" font-size="10.00">GetFileName()</text>
<text text-anchor="start" x="150.5" y="-395.5" font-family="Helvetica,sans-Serif" font-size="10.00">&#45;</text>
<text text-anchor="start" x="163" y="-395.5" font-family="Helvetica,sans-Serif" font-size="10.00">serialize()</text>
<polygon fill="#666666" stroke="#666666" points="142,-555.5 142,-555.5 307,-555.5 307,-555.5 142,-555.5"/>
<polygon fill="#666666" stroke="#666666" points="142,-540.5 142,-540.5 307,-540.5 307,-540.5 142,-540.5"/>
<polygon fill="none" stroke="#666666" points="141.5,-389 141.5,-584 306.5,-584 306.5,-389 141.5,-389"/>
</a>
</g>
</g>
<!-- Node3&#45;&gt;Node2 -->
<g id="edge2_Node000002_Node000003" class="edge">
<title>Node3&#45;&gt;Node2</title>
<g id="a_edge2_Node000002_Node000003"><a xlink:title=" ">
<path fill="none" stroke="#63b8ff" d="M224,-378.41C224,-369.64 224,-360.87 224,-352.32"/>
<polygon fill="none" stroke="#63b8ff" points="220.5,-378.69 224,-388.69 227.5,-378.69 220.5,-378.69"/>
</a>
</g>
</g>
<!-- Node4 -->
<g id="Node000004" class="node">
<title>Node4</title>
<g id="a_Node000004"><a xlink:href="classIdentifiable.html" target="_top" xlink:title=" ">
<polygon fill="white" stroke="transparent" points="176,-710 0,-710 0,-631 176,-631 176,-710"/>
<text text-anchor="start" x="60.5" y="-697.5" font-family="Helvetica,sans-Serif" font-size="10.00">Identifiable</text>
<text text-anchor="start" x="86" y="-682.5" font-family="Helvetica,sans-Serif" font-size="10.00"> </text>
<text text-anchor="start" x="4" y="-667.5" font-family="Helvetica,sans-Serif" font-size="10.00">+</text>
<text text-anchor="start" x="17" y="-667.5" font-family="Helvetica,sans-Serif" font-size="10.00">~Identifiable()</text>
<text text-anchor="start" x="4" y="-652.5" font-family="Helvetica,sans-Serif" font-size="10.00">+</text>
<text text-anchor="start" x="17" y="-652.5" font-family="Helvetica,sans-Serif" font-size="10.00">GetIdentifier()</text>
<text text-anchor="start" x="6.5" y="-637.5" font-family="Helvetica,sans-Serif" font-size="10.00">&#45;</text>
<text text-anchor="start" x="17" y="-637.5" font-family="Helvetica,sans-Serif" font-size="10.00">TidyTemplatedExportIdentifier()</text>
<polygon fill="#666666" stroke="#666666" points="0,-692.5 0,-692.5 176,-692.5 176,-692.5 0,-692.5"/>
<polygon fill="#666666" stroke="#666666" points="0,-677.5 0,-677.5 176,-677.5 176,-677.5 0,-677.5"/>
<polygon fill="none" stroke="#666666" points="0,-631 0,-710 176,-710 176,-631 0,-631"/>
</a>
</g>
</g>
<!-- Node4&#45;&gt;Node3 -->
<g id="edge3_Node000003_Node000004" class="edge">
<title>Node4&#45;&gt;Node3</title>
<g id="a_edge3_Node000003_Node000004"><a xlink:title=" ">
<path fill="none" stroke="#63b8ff" d="M122.86,-622.85C131.8,-610.89 141.75,-597.57 151.82,-584.09"/>
<polygon fill="none" stroke="#63b8ff" points="120.02,-620.8 116.84,-630.9 125.63,-624.99 120.02,-620.8"/>
</a>
</g>
</g>
<!-- Node5 -->
<g id="Node000005" class="node">
<title>Node5</title>
<g id="a_Node000005"><a xlink:title=" ">
<polygon fill="white" stroke="transparent" points="253.5,-695 194.5,-695 194.5,-646 253.5,-646 253.5,-695"/>
<text text-anchor="start" x="200" y="-682.5" font-family="Helvetica,sans-Serif" font-size="10.00">std::string</text>
<text text-anchor="start" x="222.5" y="-667.5" font-family="Helvetica,sans-Serif" font-size="10.00"> </text>
<text text-anchor="start" x="222.5" y="-652.5" font-family="Helvetica,sans-Serif" font-size="10.00"> </text>
<polygon fill="#666666" stroke="#666666" points="195,-677.5 195,-677.5 254,-677.5 254,-677.5 195,-677.5"/>
<polygon fill="#666666" stroke="#666666" points="195,-662.5 195,-662.5 254,-662.5 254,-662.5 195,-662.5"/>
<polygon fill="none" stroke="#666666" points="194.5,-646 194.5,-695 253.5,-695 253.5,-646 194.5,-646"/>
</a>
</g>
</g>
<!-- Node5&#45;&gt;Node3 -->
<g id="edge4_Node000003_Node000005" class="edge">
<title>Node5&#45;&gt;Node3</title>
<g id="a_edge4_Node000003_Node000005"><a xlink:title=" ">
<path fill="none" stroke="#63b8ff" d="M224,-645.71C224,-632.44 224,-614.88 224,-596.28"/>
<polygon fill="none" stroke="#63b8ff" points="224,-596.27 220,-590.27 224,-584.27 228,-590.27 224,-596.27"/>
</a>
</g>
<text text-anchor="middle" x="258" y="-605" font-family="Helvetica,sans-Serif" font-size="10.00" fill="grey"> #mFileName</text>
</g>
<!-- Node6 -->
<g id="Node000006" class="node">
<title>Node6</title>
<g id="a_Node000006"><a xlink:title=" ">
<polygon fill="white" stroke="transparent" points="272,-817 174,-817 174,-757 272,-757 272,-817"/>
<text text-anchor="start" x="179" y="-805" font-family="Helvetica,sans-Serif" font-size="10.00">std::basic_string&lt;</text>
<text text-anchor="start" x="204.5" y="-794" font-family="Helvetica,sans-Serif" font-size="10.00"> Char &gt;</text>
<text text-anchor="start" x="221" y="-779" font-family="Helvetica,sans-Serif" font-size="10.00"> </text>
<text text-anchor="start" x="221" y="-764" font-family="Helvetica,sans-Serif" font-size="10.00"> </text>
<polygon fill="#666666" stroke="#666666" points="174,-789 174,-789 272,-789 272,-789 174,-789"/>
<polygon fill="#666666" stroke="#666666" points="174,-774 174,-774 272,-774 272,-774 174,-774"/>
<polygon fill="none" stroke="#666666" points="174,-757 174,-817 272,-817 272,-757 174,-757"/>
</a>
</g>
</g>
<!-- Node6&#45;&gt;Node5 -->
<g id="edge5_Node000005_Node000006" class="edge">
<title>Node6&#45;&gt;Node5</title>
<g id="a_edge5_Node000005_Node000006"><a xlink:title=" ">
<path fill="none" stroke="#63b8ff" d="M223.34,-746.54C223.49,-729.47 223.66,-710.05 223.79,-695.24"/>
<polygon fill="none" stroke="#63b8ff" points="219.84,-746.78 223.25,-756.81 226.84,-746.84 219.84,-746.78"/>
</a>
</g>
</g>
<!-- Node7 -->
<g id="Node000007" class="node">
<title>Node7</title>
<g id="a_Node000007"><a xlink:title=" ">
<polygon fill="white" stroke="transparent" points="383,-700.5 273,-700.5 273,-640.5 383,-640.5 383,-700.5"/>
<text text-anchor="start" x="278" y="-688.5" font-family="Helvetica,sans-Serif" font-size="10.00">std::shared_ptr&lt; std</text>
<text text-anchor="start" x="297" y="-677.5" font-family="Helvetica,sans-Serif" font-size="10.00">::ofstream &gt;</text>
<text text-anchor="start" x="326" y="-662.5" font-family="Helvetica,sans-Serif" font-size="10.00"> </text>
<text text-anchor="start" x="284" y="-647.5" font-family="Helvetica,sans-Serif" font-size="10.00">+</text>
<text text-anchor="start" x="304" y="-647.5" font-family="Helvetica,sans-Serif" font-size="10.00">operator&#45;&gt;()</text>
<polygon fill="#666666" stroke="#666666" points="273,-672.5 273,-672.5 383,-672.5 383,-672.5 273,-672.5"/>
<polygon fill="#666666" stroke="#666666" points="273,-657.5 273,-657.5 383,-657.5 383,-657.5 273,-657.5"/>
<polygon fill="none" stroke="#666666" points="273,-640.5 273,-700.5 383,-700.5 383,-640.5 273,-640.5"/>
</a>
</g>
</g>
<!-- Node7&#45;&gt;Node3 -->
<g id="edge6_Node000003_Node000007" class="edge">
<title>Node7&#45;&gt;Node3</title>
<g id="a_edge6_Node000003_Node000007"><a xlink:title=" ">
<path fill="none" stroke="#63b8ff" d="M315.04,-640.22C309.49,-628.21 302.74,-614.28 296,-602 294.69,-599.62 293.35,-597.21 291.99,-594.8"/>
<polygon fill="none" stroke="#63b8ff" points="291.86,-594.57 285.41,-591.35 285.89,-584.16 292.35,-587.37 291.86,-594.57"/>
</a>
</g>
<text text-anchor="middle" x="342" y="-605" font-family="Helvetica,sans-Serif" font-size="10.00" fill="grey"> #mpOutStream</text>
</g>
<!-- Node8 -->
<g id="Node000008" class="node">
<title>Node8</title>
<g id="a_Node000008"><a xlink:title=" ">
<polygon fill="white" stroke="transparent" points="366,-811.5 290,-811.5 290,-762.5 366,-762.5 366,-811.5"/>
<text text-anchor="start" x="295" y="-799" font-family="Helvetica,sans-Serif" font-size="10.00">std::ofstream</text>
<text text-anchor="start" x="326" y="-784" font-family="Helvetica,sans-Serif" font-size="10.00"> </text>
<text text-anchor="start" x="326" y="-769" font-family="Helvetica,sans-Serif" font-size="10.00"> </text>
<polygon fill="#666666" stroke="#666666" points="290,-794 290,-794 366,-794 366,-794 290,-794"/>
<polygon fill="#666666" stroke="#666666" points="290,-779 290,-779 366,-779 366,-779 290,-779"/>
<polygon fill="none" stroke="#666666" points="290,-762.5 290,-811.5 366,-811.5 366,-762.5 290,-762.5"/>
</a>
</g>
</g>
<!-- Node8&#45;&gt;Node7 -->
<g id="edge7_Node000007_Node000008" class="edge">
<title>Node8&#45;&gt;Node7</title>
<g id="a_edge7_Node000007_Node000008"><a xlink:title=" ">
<path fill="none" stroke="#63b8ff" d="M328,-762.28C328,-748.08 328,-729.63 328,-713.08"/>
<polygon fill="none" stroke="#63b8ff" points="328,-712.89 324,-706.89 328,-700.89 332,-706.89 328,-712.89"/>
</a>
</g>
<text text-anchor="middle" x="340.5" y="-731" font-family="Helvetica,sans-Serif" font-size="10.00" fill="grey"> +ptr</text>
</g>
<!-- Node9 -->
<g id="Node000009" class="node">
<title>Node9</title>
<g id="a_Node000009"><a xlink:title=" ">
<polygon fill="white" stroke="transparent" points="381.5,-924 274.5,-924 274.5,-864 381.5,-864 381.5,-924"/>
<text text-anchor="start" x="280" y="-912" font-family="Helvetica,sans-Serif" font-size="10.00">std::basic_ofstream</text>
<text text-anchor="start" x="305.5" y="-901" font-family="Helvetica,sans-Serif" font-size="10.00">&lt; Char &gt;</text>
<text text-anchor="start" x="326.5" y="-886" font-family="Helvetica,sans-Serif" font-size="10.00"> </text>
<text text-anchor="start" x="326.5" y="-871" font-family="Helvetica,sans-Serif" font-size="10.00"> </text>
<polygon fill="#666666" stroke="#666666" points="275,-896 275,-896 382,-896 382,-896 275,-896"/>
<polygon fill="#666666" stroke="#666666" points="275,-881 275,-881 382,-881 382,-881 275,-881"/>
<polygon fill="none" stroke="#666666" points="274.5,-864 274.5,-924 381.5,-924 381.5,-864 274.5,-864"/>
</a>
</g>
</g>
<!-- Node9&#45;&gt;Node8 -->
<g id="edge8_Node000008_Node000009" class="edge">
<title>Node9&#45;&gt;Node8</title>
<g id="a_edge8_Node000008_Node000009"><a xlink:title=" ">
<path fill="none" stroke="#63b8ff" d="M328,-853.37C328,-839.37 328,-824.07 328,-811.79"/>
<polygon fill="none" stroke="#63b8ff" points="324.5,-853.75 328,-863.75 331.5,-853.75 324.5,-853.75"/>
</a>
</g>
</g>
<!-- Node10 -->
<g id="Node000010" class="node">
<title>Node10</title>
<g id="a_Node000010"><a xlink:title=" ">
<polygon fill="white" stroke="transparent" points="379.5,-1021 276.5,-1021 276.5,-961 379.5,-961 379.5,-1021"/>
<text text-anchor="start" x="282" y="-1009" font-family="Helvetica,sans-Serif" font-size="10.00">std::basic_ostream</text>
<text text-anchor="start" x="305.5" y="-998" font-family="Helvetica,sans-Serif" font-size="10.00">&lt; Char &gt;</text>
<text text-anchor="start" x="326.5" y="-983" font-family="Helvetica,sans-Serif" font-size="10.00"> </text>
<text text-anchor="start" x="326.5" y="-968" font-family="Helvetica,sans-Serif" font-size="10.00"> </text>
<polygon fill="#666666" stroke="#666666" points="277,-993 277,-993 380,-993 380,-993 277,-993"/>
<polygon fill="#666666" stroke="#666666" points="277,-978 277,-978 380,-978 380,-978 277,-978"/>
<polygon fill="none" stroke="#666666" points="276.5,-961 276.5,-1021 379.5,-1021 379.5,-961 276.5,-961"/>
</a>
</g>
</g>
<!-- Node10&#45;&gt;Node9 -->
<g id="edge9_Node000009_Node000010" class="edge">
<title>Node10&#45;&gt;Node9</title>
<g id="a_edge9_Node000009_Node000010"><a xlink:title=" ">
<path fill="none" stroke="#63b8ff" d="M328,-950.79C328,-941.88 328,-932.57 328,-924.17"/>
<polygon fill="none" stroke="#63b8ff" points="324.5,-950.98 328,-960.98 331.5,-950.98 324.5,-950.98"/>
</a>
</g>
</g>
<!-- Node11 -->
<g id="Node000011" class="node">
<title>Node11</title>
<g id="a_Node000011"><a xlink:title=" ">
<polygon fill="white" stroke="transparent" points="389,-1107 267,-1107 267,-1058 389,-1058 389,-1107"/>
<text text-anchor="start" x="272" y="-1094.5" font-family="Helvetica,sans-Serif" font-size="10.00">std::basic_ios&lt; Char &gt;</text>
<text text-anchor="start" x="326" y="-1079.5" font-family="Helvetica,sans-Serif" font-size="10.00"> </text>
<text text-anchor="start" x="326" y="-1064.5" font-family="Helvetica,sans-Serif" font-size="10.00"> </text>
<polygon fill="#666666" stroke="#666666" points="267,-1089.5 267,-1089.5 389,-1089.5 389,-1089.5 267,-1089.5"/>
<polygon fill="#666666" stroke="#666666" points="267,-1074.5 267,-1074.5 389,-1074.5 389,-1074.5 267,-1074.5"/>
<polygon fill="none" stroke="#666666" points="267,-1058 267,-1107 389,-1107 389,-1058 267,-1058"/>
</a>
</g>
</g>
<!-- Node11&#45;&gt;Node10 -->
<g id="edge10_Node000010_Node000011" class="edge">
<title>Node11&#45;&gt;Node10</title>
<g id="a_edge10_Node000010_Node000011"><a xlink:title=" ">
<path fill="none" stroke="#63b8ff" d="M328,-1047.7C328,-1038.95 328,-1029.6 328,-1021.12"/>
<polygon fill="none" stroke="#63b8ff" points="324.5,-1047.98 328,-1057.98 331.5,-1047.98 324.5,-1047.98"/>
</a>
</g>
</g>
<!-- Node12 -->
<g id="Node000012" class="node">
<title>Node12</title>
<g id="a_Node000012"><a xlink:title=" ">
<polygon fill="white" stroke="transparent" points="365,-1193 291,-1193 291,-1144 365,-1144 365,-1193"/>
<text text-anchor="start" x="296" y="-1180.5" font-family="Helvetica,sans-Serif" font-size="10.00">std::ios_base</text>
<text text-anchor="start" x="326" y="-1165.5" font-family="Helvetica,sans-Serif" font-size="10.00"> </text>
<text text-anchor="start" x="326" y="-1150.5" font-family="Helvetica,sans-Serif" font-size="10.00"> </text>
<polygon fill="#666666" stroke="#666666" points="291,-1175.5 291,-1175.5 365,-1175.5 365,-1175.5 291,-1175.5"/>
<polygon fill="#666666" stroke="#666666" points="291,-1160.5 291,-1160.5 365,-1160.5 365,-1160.5 291,-1160.5"/>
<polygon fill="none" stroke="#666666" points="291,-1144 291,-1193 365,-1193 365,-1144 291,-1144"/>
</a>
</g>
</g>
<!-- Node12&#45;&gt;Node11 -->
<g id="edge11_Node000011_Node000012" class="edge">
<title>Node12&#45;&gt;Node11</title>
<g id="a_edge11_Node000011_Node000012"><a xlink:title=" ">
<path fill="none" stroke="#63b8ff" d="M328,-1133.57C328,-1124.69 328,-1115.32 328,-1107.12"/>
<polygon fill="none" stroke="#63b8ff" points="324.5,-1133.65 328,-1143.65 331.5,-1133.65 324.5,-1133.65"/>
</a>
</g>
</g>
<!-- Node13 -->
<g id="Node000013" class="node">
<title>Node13</title>
<g id="a_Node000013"><a xlink:title=" ">
<polygon fill="white" stroke="transparent" points="496,-811.5 384,-811.5 384,-762.5 496,-762.5 496,-811.5"/>
<text text-anchor="start" x="389" y="-799" font-family="Helvetica,sans-Serif" font-size="10.00">std::shared_ptr&lt; T &gt;</text>
<text text-anchor="start" x="438" y="-784" font-family="Helvetica,sans-Serif" font-size="10.00"> </text>
<text text-anchor="start" x="395.5" y="-769" font-family="Helvetica,sans-Serif" font-size="10.00">+</text>
<text text-anchor="start" x="416" y="-769" font-family="Helvetica,sans-Serif" font-size="10.00">operator&#45;&gt;()</text>
<polygon fill="#666666" stroke="#666666" points="384,-794 384,-794 496,-794 496,-794 384,-794"/>
<polygon fill="#666666" stroke="#666666" points="384,-779 384,-779 496,-779 496,-779 384,-779"/>
<polygon fill="none" stroke="#666666" points="384,-762.5 384,-811.5 496,-811.5 496,-762.5 384,-762.5"/>
</a>
</g>
</g>
<!-- Node13&#45;&gt;Node7 -->
<g id="edge12_Node000007_Node000013" class="edge">
<title>Node13&#45;&gt;Node7</title>
<g id="a_edge12_Node000007_Node000013"><a xlink:title=" ">
<path fill="none" stroke="orange" d="M409.53,-754.85C393.09,-738.05 372.92,-717.42 356.75,-700.89"/>
<polygon fill="orange" stroke="orange" points="407.3,-757.57 416.79,-762.28 412.3,-752.68 407.3,-757.57"/>
</a>
</g>
<text text-anchor="middle" x="436.5" y="-731" font-family="Helvetica,sans-Serif" font-size="10.00" fill="grey"> &lt; std::ofstream &gt;</text>
</g>
<!-- Node14 -->
<g id="Node000014" class="node">
<title>Node14</title>
<g id="a_Node000014"><a xlink:title=" ">
<polygon fill="white" stroke="transparent" points="448.5,-918.5 431.5,-918.5 431.5,-869.5 448.5,-869.5 448.5,-918.5"/>
<text text-anchor="start" x="437" y="-906" font-family="Helvetica,sans-Serif" font-size="10.00">T</text>
<text text-anchor="start" x="438.5" y="-891" font-family="Helvetica,sans-Serif" font-size="10.00"> </text>
<text text-anchor="start" x="438.5" y="-876" font-family="Helvetica,sans-Serif" font-size="10.00"> </text>
<polygon fill="#bfbfbf" stroke="#bfbfbf" points="432,-901 432,-901 449,-901 449,-901 432,-901"/>
<polygon fill="#bfbfbf" stroke="#bfbfbf" points="432,-886 432,-886 449,-886 449,-886 432,-886"/>
<polygon fill="none" stroke="#bfbfbf" points="431.5,-869.5 431.5,-918.5 448.5,-918.5 448.5,-869.5 431.5,-869.5"/>
</a>
</g>
</g>
<!-- Node14&#45;&gt;Node13 -->
<g id="edge13_Node000013_Node000014" class="edge">
<title>Node14&#45;&gt;Node13</title>
<g id="a_edge13_Node000013_Node000014"><a xlink:title=" ">
<path fill="none" stroke="#63b8ff" d="M440,-869.44C440,-856.02 440,-838.94 440,-823.89"/>
<polygon fill="none" stroke="#63b8ff" points="440,-823.85 436,-817.85 440,-811.85 444,-817.85 440,-823.85"/>
</a>
</g>
<text text-anchor="middle" x="452.5" y="-838" font-family="Helvetica,sans-Serif" font-size="10.00" fill="grey"> +ptr</text>
</g>
</g>
</svg>
