<?xml version="1.0" encoding="UTF-8" standalone="no"?>
<!DOCTYPE svg PUBLIC "-//W3C//DTD SVG 1.1//EN"
 "http://www.w3.org/Graphics/SVG/1.1/DTD/svg11.dtd">
<!-- Generated by graphviz version 2.43.0 (0)
 -->
<!-- Title: PottsMesh&lt; DIM &gt;::PottsElementIterator Pages: 1 -->
<svg width="366pt" height="254pt"
 viewBox="0.00 0.00 366.00 254.00" xmlns="http://www.w3.org/2000/svg" xmlns:xlink="http://www.w3.org/1999/xlink">
<g id="graph0" class="graph" transform="scale(1 1) rotate(0) translate(4 250)">
<title>PottsMesh&lt; DIM &gt;::PottsElementIterator</title>
<!-- Node1 -->
<g id="Node000001" class="node">
<title>Node1</title>
<g id="a_Node000001"><a xlink:title=" ">
<polygon fill="#999999" stroke="transparent" points="243.5,-150 68.5,-150 68.5,0 243.5,0 243.5,-150"/>
<text text-anchor="start" x="74" y="-138" font-family="Helvetica,sans-Serif" font-size="10.00">PottsMesh&lt; DIM &gt;::PottsElement</text>
<text text-anchor="start" x="138" y="-127" font-family="Helvetica,sans-Serif" font-size="10.00">Iterator</text>
<text text-anchor="start" x="154.5" y="-112" font-family="Helvetica,sans-Serif" font-size="10.00"> </text>
<text text-anchor="start" x="84" y="-97" font-family="Helvetica,sans-Serif" font-size="10.00">+</text>
<text text-anchor="start" x="108" y="-97" font-family="Helvetica,sans-Serif" font-size="10.00">operator*()</text>
<text text-anchor="start" x="84" y="-82" font-family="Helvetica,sans-Serif" font-size="10.00">+</text>
<text text-anchor="start" x="108" y="-82" font-family="Helvetica,sans-Serif" font-size="10.00">operator&#45;&gt;()</text>
<text text-anchor="start" x="84" y="-67" font-family="Helvetica,sans-Serif" font-size="10.00">+</text>
<text text-anchor="start" x="108" y="-67" font-family="Helvetica,sans-Serif" font-size="10.00">operator!=()</text>
<text text-anchor="start" x="84" y="-52" font-family="Helvetica,sans-Serif" font-size="10.00">+</text>
<text text-anchor="start" x="108" y="-52" font-family="Helvetica,sans-Serif" font-size="10.00">operator++()</text>
<text text-anchor="start" x="84" y="-37" font-family="Helvetica,sans-Serif" font-size="10.00">+</text>
<text text-anchor="start" x="108" y="-37" font-family="Helvetica,sans-Serif" font-size="10.00">PottsElementIterator()</text>
<text text-anchor="start" x="86.5" y="-22" font-family="Helvetica,sans-Serif" font-size="10.00">&#45;</text>
<text text-anchor="start" x="108" y="-22" font-family="Helvetica,sans-Serif" font-size="10.00">IsAtEnd()</text>
<text text-anchor="start" x="86.5" y="-7" font-family="Helvetica,sans-Serif" font-size="10.00">&#45;</text>
<text text-anchor="start" x="108" y="-7" font-family="Helvetica,sans-Serif" font-size="10.00">IsAllowedElement()</text>
<polygon fill="#666666" stroke="#666666" points="69,-122 69,-122 244,-122 244,-122 69,-122"/>
<polygon fill="#666666" stroke="#666666" points="69,-107 69,-107 244,-107 244,-107 69,-107"/>
<polygon fill="none" stroke="#666666" points="68.5,0 68.5,-150 243.5,-150 243.5,0 68.5,0"/>
</a>
</g>
</g>
<!-- Node2 -->
<g id="Node000002" class="node">
<title>Node2</title>
<g id="a_Node000002"><a xlink:title=" ">
<polygon fill="white" stroke="transparent" points="114,-246 0,-246 0,-197 114,-197 114,-246"/>
<text text-anchor="start" x="5" y="-233.5" font-family="Helvetica,sans-Serif" font-size="10.00">PottsMesh&lt; DIM &gt; &amp;</text>
<text text-anchor="start" x="55" y="-218.5" font-family="Helvetica,sans-Serif" font-size="10.00"> </text>
<text text-anchor="start" x="55" y="-203.5" font-family="Helvetica,sans-Serif" font-size="10.00"> </text>
<polygon fill="#bfbfbf" stroke="#bfbfbf" points="0,-228.5 0,-228.5 114,-228.5 114,-228.5 0,-228.5"/>
<polygon fill="#bfbfbf" stroke="#bfbfbf" points="0,-213.5 0,-213.5 114,-213.5 114,-213.5 0,-213.5"/>
<polygon fill="none" stroke="#bfbfbf" points="0,-197 0,-246 114,-246 114,-197 0,-197"/>
</a>
</g>
</g>
<!-- Node2&#45;&gt;Node1 -->
<g id="edge1_Node000001_Node000002" class="edge">
<title>Node2&#45;&gt;Node1</title>
<g id="a_edge1_Node000001_Node000002"><a xlink:title=" ">
<path fill="none" stroke="#63b8ff" d="M73.13,-196.96C80.27,-186.54 89.15,-173.58 98.41,-160.05"/>
<polygon fill="none" stroke="#63b8ff" points="98.43,-160.03 98.52,-152.82 105.21,-150.13 105.12,-157.34 98.43,-160.03"/>
</a>
</g>
<text text-anchor="middle" x="115.5" y="-171" font-family="Helvetica,sans-Serif" font-size="10.00" fill="grey"> &#45;mrMesh</text>
</g>
<!-- Node3 -->
<g id="Node000003" class="node">
<title>Node3</title>
<g id="a_Node000003"><a xlink:title=" ">
<polygon fill="white" stroke="transparent" points="179.5,-246 132.5,-246 132.5,-197 179.5,-197 179.5,-246"/>
<text text-anchor="start" x="138" y="-233.5" font-family="Helvetica,sans-Serif" font-size="10.00">iterator</text>
<text text-anchor="start" x="154.5" y="-218.5" font-family="Helvetica,sans-Serif" font-size="10.00"> </text>
<text text-anchor="start" x="154.5" y="-203.5" font-family="Helvetica,sans-Serif" font-size="10.00"> </text>
<polygon fill="#bfbfbf" stroke="#bfbfbf" points="133,-228.5 133,-228.5 180,-228.5 180,-228.5 133,-228.5"/>
<polygon fill="#bfbfbf" stroke="#bfbfbf" points="133,-213.5 133,-213.5 180,-213.5 180,-213.5 133,-213.5"/>
<polygon fill="none" stroke="#bfbfbf" points="132.5,-197 132.5,-246 179.5,-246 179.5,-197 132.5,-197"/>
</a>
</g>
</g>
<!-- Node3&#45;&gt;Node1 -->
<g id="edge2_Node000001_Node000003" class="edge">
<title>Node3&#45;&gt;Node1</title>
<g id="a_edge2_Node000001_Node000003"><a xlink:title=" ">
<path fill="none" stroke="#63b8ff" d="M156,-196.96C156,-187.14 156,-175.08 156,-162.41"/>
<polygon fill="none" stroke="#63b8ff" points="156,-162.13 152,-156.13 156,-150.13 160,-156.13 156,-162.13"/>
</a>
</g>
<text text-anchor="middle" x="193" y="-171" font-family="Helvetica,sans-Serif" font-size="10.00" fill="grey"> &#45;mElementIter</text>
</g>
<!-- Node4 -->
<g id="Node000004" class="node">
<title>Node4</title>
<g id="a_Node000004"><a xlink:href="classbool.html" target="_top" xlink:title=" ">
<polygon fill="white" stroke="transparent" points="269,-246 237,-246 237,-197 269,-197 269,-246"/>
<text text-anchor="start" x="242" y="-233.5" font-family="Helvetica,sans-Serif" font-size="10.00">bool</text>
<text text-anchor="start" x="251" y="-218.5" font-family="Helvetica,sans-Serif" font-size="10.00"> </text>
<text text-anchor="start" x="251" y="-203.5" font-family="Helvetica,sans-Serif" font-size="10.00"> </text>
<polygon fill="#bfbfbf" stroke="#bfbfbf" points="237,-228.5 237,-228.5 269,-228.5 269,-228.5 237,-228.5"/>
<polygon fill="#bfbfbf" stroke="#bfbfbf" points="237,-213.5 237,-213.5 269,-213.5 269,-213.5 237,-213.5"/>
<polygon fill="none" stroke="#bfbfbf" points="237,-197 237,-246 269,-246 269,-197 237,-197"/>
</a>
</g>
</g>
<!-- Node4&#45;&gt;Node1 -->
<g id="edge3_Node000001_Node000004" class="edge">
<title>Node4&#45;&gt;Node1</title>
<g id="a_edge3_Node000001_Node000004"><a xlink:title=" ">
<path fill="none" stroke="#63b8ff" d="M244.74,-196.8C241.09,-187.53 236.39,-176.98 231,-168 229.42,-165.37 227.78,-162.74 226.07,-160.11"/>
<polygon fill="none" stroke="#63b8ff" points="225.97,-159.95 219.29,-157.22 219.25,-150.01 225.92,-152.74 225.97,-159.95"/>
</a>
</g>
<text text-anchor="middle" x="297" y="-171" font-family="Helvetica,sans-Serif" font-size="10.00" fill="grey"> &#45;mSkipDeletedElements</text>
</g>
</g>
</svg>
