<?xml version="1.0" encoding="UTF-8" standalone="no"?>
<!DOCTYPE svg PUBLIC "-//W3C//DTD SVG 1.1//EN"
 "http://www.w3.org/Graphics/SVG/1.1/DTD/svg11.dtd">
<!-- Generated by graphviz version 2.43.0 (0)
 -->
<!-- Title: NonCachedTetrahedralMesh&lt; ELEMENT_DIM, SPACE_DIM &gt; Pages: 1 -->
<svg width="1888pt" height="1686pt"
 viewBox="0.00 0.00 1887.72 1686.00" xmlns="http://www.w3.org/2000/svg" xmlns:xlink="http://www.w3.org/1999/xlink">
<g id="graph0" class="graph" transform="scale(1 1) rotate(0) translate(4 1682)">
<title>NonCachedTetrahedralMesh&lt; ELEMENT_DIM, SPACE_DIM &gt;</title>
<!-- Node1 -->
<g id="Node000001" class="node">
<title>Node1</title>
<g id="a_Node000001"><a xlink:title=" ">
<polygon fill="#999999" stroke="transparent" points="1514.72,-146 1322.72,-146 1322.72,0 1514.72,0 1514.72,-146"/>
<text text-anchor="start" x="1341.22" y="-134" font-family="Helvetica,sans-Serif" font-size="10.00">NonCachedTetrahedralMesh</text>
<text text-anchor="start" x="1341.22" y="-123" font-family="Helvetica,sans-Serif" font-size="10.00">&lt; ELEMENT_DIM, SPACE_DIM &gt;</text>
<text text-anchor="start" x="1416.72" y="-108" font-family="Helvetica,sans-Serif" font-size="10.00"> </text>
<text text-anchor="start" x="1326.72" y="-93" font-family="Helvetica,sans-Serif" font-size="10.00">+</text>
<text text-anchor="start" x="1339.72" y="-93" font-family="Helvetica,sans-Serif" font-size="10.00">RefreshJacobianCachedData()</text>
<text text-anchor="start" x="1326.72" y="-78" font-family="Helvetica,sans-Serif" font-size="10.00">+</text>
<text text-anchor="start" x="1339.72" y="-78" font-family="Helvetica,sans-Serif" font-size="10.00">GetJacobianForElement()</text>
<text text-anchor="start" x="1326.72" y="-63" font-family="Helvetica,sans-Serif" font-size="10.00">+</text>
<text text-anchor="start" x="1339.72" y="-63" font-family="Helvetica,sans-Serif" font-size="10.00">GetInverseJacobianForElement()</text>
<text text-anchor="start" x="1326.72" y="-48" font-family="Helvetica,sans-Serif" font-size="10.00">+</text>
<text text-anchor="start" x="1339.72" y="-48" font-family="Helvetica,sans-Serif" font-size="10.00">GetWeightedDirectionForElement()</text>
<text text-anchor="start" x="1326.72" y="-33" font-family="Helvetica,sans-Serif" font-size="10.00">+</text>
<text text-anchor="start" x="1339.72" y="-33" font-family="Helvetica,sans-Serif" font-size="10.00">GetWeightedDirectionForBoundary</text>
<text text-anchor="start" x="1339.72" y="-22" font-family="Helvetica,sans-Serif" font-size="10.00">Element()</text>
<text text-anchor="start" x="1329.22" y="-7" font-family="Helvetica,sans-Serif" font-size="10.00">&#45;</text>
<text text-anchor="start" x="1339.72" y="-7" font-family="Helvetica,sans-Serif" font-size="10.00">serialize()</text>
<polygon fill="#666666" stroke="#666666" points="1322.72,-118 1322.72,-118 1514.72,-118 1514.72,-118 1322.72,-118"/>
<polygon fill="#666666" stroke="#666666" points="1322.72,-103 1322.72,-103 1514.72,-103 1514.72,-103 1322.72,-103"/>
<polygon fill="none" stroke="#666666" points="1322.72,0 1322.72,-146 1514.72,-146 1514.72,0 1322.72,0"/>
</a>
</g>
</g>
<!-- Node2 -->
<g id="Node000002" class="node">
<title>Node2</title>
<g id="a_Node000002"><a xlink:href="classTetrahedralMesh.html" target="_top" xlink:title=" ">
<polygon fill="white" stroke="transparent" points="1511.22,-524 1326.22,-524 1326.22,-183 1511.22,-183 1511.22,-524"/>
<text text-anchor="start" x="1349.72" y="-511.5" font-family="Helvetica,sans-Serif" font-size="10.00">TetrahedralMesh&lt; ELEMENT</text>
<text text-anchor="start" x="1370.22" y="-500.5" font-family="Helvetica,sans-Serif" font-size="10.00">_DIM, SPACE_DIM &gt;</text>
<text text-anchor="start" x="1417.22" y="-485.5" font-family="Helvetica,sans-Serif" font-size="10.00"> </text>
<text text-anchor="start" x="1330.72" y="-470.5" font-family="Helvetica,sans-Serif" font-size="10.00">+</text>
<text text-anchor="start" x="1343.72" y="-470.5" font-family="Helvetica,sans-Serif" font-size="10.00">TetrahedralMesh()</text>
<text text-anchor="start" x="1330.72" y="-455.5" font-family="Helvetica,sans-Serif" font-size="10.00">+</text>
<text text-anchor="start" x="1343.72" y="-455.5" font-family="Helvetica,sans-Serif" font-size="10.00">ConstructFromMeshReader()</text>
<text text-anchor="start" x="1330.72" y="-440.5" font-family="Helvetica,sans-Serif" font-size="10.00">+</text>
<text text-anchor="start" x="1343.72" y="-440.5" font-family="Helvetica,sans-Serif" font-size="10.00">ReadNodesPerProcessorFile()</text>
<text text-anchor="start" x="1330.72" y="-425.5" font-family="Helvetica,sans-Serif" font-size="10.00">+</text>
<text text-anchor="start" x="1343.72" y="-425.5" font-family="Helvetica,sans-Serif" font-size="10.00">CheckIsConforming()</text>
<text text-anchor="start" x="1330.72" y="-410.5" font-family="Helvetica,sans-Serif" font-size="10.00">+</text>
<text text-anchor="start" x="1343.72" y="-410.5" font-family="Helvetica,sans-Serif" font-size="10.00">GetVolume()</text>
<text text-anchor="start" x="1330.72" y="-395.5" font-family="Helvetica,sans-Serif" font-size="10.00">+</text>
<text text-anchor="start" x="1343.72" y="-395.5" font-family="Helvetica,sans-Serif" font-size="10.00">GetSurfaceArea()</text>
<text text-anchor="start" x="1330.72" y="-380.5" font-family="Helvetica,sans-Serif" font-size="10.00">+</text>
<text text-anchor="start" x="1343.72" y="-380.5" font-family="Helvetica,sans-Serif" font-size="10.00">RefreshMesh()</text>
<text text-anchor="start" x="1330.72" y="-365.5" font-family="Helvetica,sans-Serif" font-size="10.00">+</text>
<text text-anchor="start" x="1343.72" y="-365.5" font-family="Helvetica,sans-Serif" font-size="10.00">PermuteNodes()</text>
<text text-anchor="start" x="1330.72" y="-350.5" font-family="Helvetica,sans-Serif" font-size="10.00">+</text>
<text text-anchor="start" x="1343.72" y="-350.5" font-family="Helvetica,sans-Serif" font-size="10.00">PermuteNodes()</text>
<text text-anchor="start" x="1330.72" y="-335.5" font-family="Helvetica,sans-Serif" font-size="10.00">+</text>
<text text-anchor="start" x="1343.72" y="-335.5" font-family="Helvetica,sans-Serif" font-size="10.00">GetContainingElementIndex</text>
<text text-anchor="start" x="1343.72" y="-324.5" font-family="Helvetica,sans-Serif" font-size="10.00">WithInitialGuess()</text>
<text text-anchor="start" x="1343.72" y="-309.5" font-family="Helvetica,sans-Serif" font-size="10.00">and 11 more...</text>
<text text-anchor="start" x="1330.72" y="-294.5" font-family="Helvetica,sans-Serif" font-size="10.00">#</text>
<text text-anchor="start" x="1343.72" y="-294.5" font-family="Helvetica,sans-Serif" font-size="10.00">SolveNodeMapping()</text>
<text text-anchor="start" x="1330.72" y="-279.5" font-family="Helvetica,sans-Serif" font-size="10.00">#</text>
<text text-anchor="start" x="1343.72" y="-279.5" font-family="Helvetica,sans-Serif" font-size="10.00">SolveElementMapping()</text>
<text text-anchor="start" x="1330.72" y="-264.5" font-family="Helvetica,sans-Serif" font-size="10.00">#</text>
<text text-anchor="start" x="1343.72" y="-264.5" font-family="Helvetica,sans-Serif" font-size="10.00">SolveBoundaryElementMapping()</text>
<text text-anchor="start" x="1330.72" y="-249.5" font-family="Helvetica,sans-Serif" font-size="10.00">#</text>
<text text-anchor="start" x="1343.72" y="-249.5" font-family="Helvetica,sans-Serif" font-size="10.00">ExportToMesher()</text>
<text text-anchor="start" x="1330.72" y="-234.5" font-family="Helvetica,sans-Serif" font-size="10.00">#</text>
<text text-anchor="start" x="1343.72" y="-234.5" font-family="Helvetica,sans-Serif" font-size="10.00">ImportFromMesher()</text>
<text text-anchor="start" x="1330.72" y="-219.5" font-family="Helvetica,sans-Serif" font-size="10.00">#</text>
<text text-anchor="start" x="1343.72" y="-219.5" font-family="Helvetica,sans-Serif" font-size="10.00">InitialiseTriangulateIo()</text>
<text text-anchor="start" x="1330.72" y="-204.5" font-family="Helvetica,sans-Serif" font-size="10.00">#</text>
<text text-anchor="start" x="1343.72" y="-204.5" font-family="Helvetica,sans-Serif" font-size="10.00">FreeTriangulateIo()</text>
<text text-anchor="start" x="1333.22" y="-189.5" font-family="Helvetica,sans-Serif" font-size="10.00">&#45;</text>
<text text-anchor="start" x="1343.72" y="-189.5" font-family="Helvetica,sans-Serif" font-size="10.00">serialize()</text>
<polygon fill="#666666" stroke="#666666" points="1326.72,-495.5 1326.72,-495.5 1511.72,-495.5 1511.72,-495.5 1326.72,-495.5"/>
<polygon fill="#666666" stroke="#666666" points="1326.72,-480.5 1326.72,-480.5 1511.72,-480.5 1511.72,-480.5 1326.72,-480.5"/>
<polygon fill="none" stroke="#666666" points="1326.22,-183 1326.22,-524 1511.22,-524 1511.22,-183 1326.22,-183"/>
</a>
</g>
</g>
<!-- Node2&#45;&gt;Node1 -->
<g id="edge1_Node000001_Node000002" class="edge">
<title>Node2&#45;&gt;Node1</title>
<g id="a_edge1_Node000001_Node000002"><a xlink:title=" ">
<path fill="none" stroke="#63b8ff" d="M1418.72,-172.82C1418.72,-163.64 1418.72,-154.72 1418.72,-146.23"/>
<polygon fill="none" stroke="#63b8ff" points="1415.22,-172.87 1418.72,-182.87 1422.22,-172.87 1415.22,-172.87"/>
</a>
</g>
</g>
<!-- Node3 -->
<g id="Node000003" class="node">
<title>Node3</title>
<g id="a_Node000003"><a xlink:href="classAbstractTetrahedralMesh.html" target="_top" xlink:title=" ">
<polygon fill="white" stroke="transparent" points="1153.22,-878 966.22,-878 966.22,-593 1153.22,-593 1153.22,-878"/>
<text text-anchor="start" x="982.72" y="-865.5" font-family="Helvetica,sans-Serif" font-size="10.00">AbstractTetrahedralMesh</text>
<text text-anchor="start" x="982.72" y="-854.5" font-family="Helvetica,sans-Serif" font-size="10.00">&lt; ELEMENT_DIM, SPACE_DIM &gt;</text>
<text text-anchor="start" x="1058.22" y="-839.5" font-family="Helvetica,sans-Serif" font-size="10.00"> </text>
<text text-anchor="start" x="970.72" y="-824.5" font-family="Helvetica,sans-Serif" font-size="10.00">+</text>
<text text-anchor="start" x="983.72" y="-824.5" font-family="Helvetica,sans-Serif" font-size="10.00">GetElementIteratorBegin()</text>
<text text-anchor="start" x="970.72" y="-809.5" font-family="Helvetica,sans-Serif" font-size="10.00">+</text>
<text text-anchor="start" x="983.72" y="-809.5" font-family="Helvetica,sans-Serif" font-size="10.00">GetElementIteratorEnd()</text>
<text text-anchor="start" x="970.72" y="-794.5" font-family="Helvetica,sans-Serif" font-size="10.00">+</text>
<text text-anchor="start" x="983.72" y="-794.5" font-family="Helvetica,sans-Serif" font-size="10.00">AbstractTetrahedralMesh()</text>
<text text-anchor="start" x="970.72" y="-779.5" font-family="Helvetica,sans-Serif" font-size="10.00">+</text>
<text text-anchor="start" x="983.72" y="-779.5" font-family="Helvetica,sans-Serif" font-size="10.00">~AbstractTetrahedralMesh()</text>
<text text-anchor="start" x="970.72" y="-764.5" font-family="Helvetica,sans-Serif" font-size="10.00">+</text>
<text text-anchor="start" x="983.72" y="-764.5" font-family="Helvetica,sans-Serif" font-size="10.00">GetNumElements()</text>
<text text-anchor="start" x="970.72" y="-749.5" font-family="Helvetica,sans-Serif" font-size="10.00">+</text>
<text text-anchor="start" x="983.72" y="-749.5" font-family="Helvetica,sans-Serif" font-size="10.00">GetNumLocalElements()</text>
<text text-anchor="start" x="970.72" y="-734.5" font-family="Helvetica,sans-Serif" font-size="10.00">+</text>
<text text-anchor="start" x="983.72" y="-734.5" font-family="Helvetica,sans-Serif" font-size="10.00">GetNumBoundaryElements()</text>
<text text-anchor="start" x="970.72" y="-719.5" font-family="Helvetica,sans-Serif" font-size="10.00">+</text>
<text text-anchor="start" x="983.72" y="-719.5" font-family="Helvetica,sans-Serif" font-size="10.00">GetNumLocalBoundaryElements()</text>
<text text-anchor="start" x="970.72" y="-704.5" font-family="Helvetica,sans-Serif" font-size="10.00">+</text>
<text text-anchor="start" x="983.72" y="-704.5" font-family="Helvetica,sans-Serif" font-size="10.00">GetNumAllElements()</text>
<text text-anchor="start" x="970.72" y="-689.5" font-family="Helvetica,sans-Serif" font-size="10.00">+</text>
<text text-anchor="start" x="983.72" y="-689.5" font-family="Helvetica,sans-Serif" font-size="10.00">GetNumAllBoundaryElements()</text>
<text text-anchor="start" x="983.72" y="-674.5" font-family="Helvetica,sans-Serif" font-size="10.00">and 25 more...</text>
<text text-anchor="start" x="970.72" y="-659.5" font-family="Helvetica,sans-Serif" font-size="10.00">#</text>
<text text-anchor="start" x="983.72" y="-659.5" font-family="Helvetica,sans-Serif" font-size="10.00">SetElementOwnerships()</text>
<text text-anchor="start" x="973.22" y="-644.5" font-family="Helvetica,sans-Serif" font-size="10.00">&#45;</text>
<text text-anchor="start" x="983.72" y="-644.5" font-family="Helvetica,sans-Serif" font-size="10.00">SolveElementMapping()</text>
<text text-anchor="start" x="973.22" y="-629.5" font-family="Helvetica,sans-Serif" font-size="10.00">&#45;</text>
<text text-anchor="start" x="983.72" y="-629.5" font-family="Helvetica,sans-Serif" font-size="10.00">SolveBoundaryElementMapping()</text>
<text text-anchor="start" x="973.22" y="-614.5" font-family="Helvetica,sans-Serif" font-size="10.00">&#45;</text>
<text text-anchor="start" x="983.72" y="-614.5" font-family="Helvetica,sans-Serif" font-size="10.00">save()</text>
<text text-anchor="start" x="973.22" y="-599.5" font-family="Helvetica,sans-Serif" font-size="10.00">&#45;</text>
<text text-anchor="start" x="983.72" y="-599.5" font-family="Helvetica,sans-Serif" font-size="10.00">load()</text>
<polygon fill="#666666" stroke="#666666" points="966.72,-849.5 966.72,-849.5 1153.72,-849.5 1153.72,-849.5 966.72,-849.5"/>
<polygon fill="#666666" stroke="#666666" points="966.72,-834.5 966.72,-834.5 1153.72,-834.5 1153.72,-834.5 966.72,-834.5"/>
<polygon fill="none" stroke="#666666" points="966.22,-593 966.22,-878 1153.22,-878 1153.22,-593 966.22,-593"/>
</a>
</g>
</g>
<!-- Node3&#45;&gt;Node2 -->
<g id="edge2_Node000002_Node000003" class="edge">
<title>Node3&#45;&gt;Node2</title>
<g id="a_edge2_Node000002_Node000003"><a xlink:title=" ">
<path fill="none" stroke="#63b8ff" d="M1159.88,-595.1C1160.5,-594.39 1161.11,-593.7 1161.72,-593 1212.41,-535.64 1275.31,-477.08 1326.2,-432.35"/>
<polygon fill="none" stroke="#63b8ff" points="1157.18,-592.87 1153.32,-602.74 1162.49,-597.43 1157.18,-592.87"/>
</a>
</g>
</g>
<!-- Node4 -->
<g id="Node000004" class="node">
<title>Node4</title>
<g id="a_Node000004"><a xlink:href="classAbstractMesh.html" target="_top" xlink:title=" ">
<polygon fill="white" stroke="transparent" points="608.22,-1195 461.22,-1195 461.22,-925 608.22,-925 608.22,-1195"/>
<text text-anchor="start" x="473.22" y="-1183" font-family="Helvetica,sans-Serif" font-size="10.00">AbstractMesh&lt; ELEMENT</text>
<text text-anchor="start" x="486.22" y="-1172" font-family="Helvetica,sans-Serif" font-size="10.00">_DIM, SPACE_DIM &gt;</text>
<text text-anchor="start" x="533.22" y="-1157" font-family="Helvetica,sans-Serif" font-size="10.00"> </text>
<text text-anchor="start" x="465.72" y="-1142" font-family="Helvetica,sans-Serif" font-size="10.00">+</text>
<text text-anchor="start" x="478.72" y="-1142" font-family="Helvetica,sans-Serif" font-size="10.00">GetNodeIteratorBegin()</text>
<text text-anchor="start" x="465.72" y="-1127" font-family="Helvetica,sans-Serif" font-size="10.00">+</text>
<text text-anchor="start" x="478.72" y="-1127" font-family="Helvetica,sans-Serif" font-size="10.00">GetNodeIteratorEnd()</text>
<text text-anchor="start" x="465.72" y="-1112" font-family="Helvetica,sans-Serif" font-size="10.00">+</text>
<text text-anchor="start" x="478.72" y="-1112" font-family="Helvetica,sans-Serif" font-size="10.00">AbstractMesh()</text>
<text text-anchor="start" x="465.72" y="-1097" font-family="Helvetica,sans-Serif" font-size="10.00">+</text>
<text text-anchor="start" x="478.72" y="-1097" font-family="Helvetica,sans-Serif" font-size="10.00">~AbstractMesh()</text>
<text text-anchor="start" x="465.72" y="-1082" font-family="Helvetica,sans-Serif" font-size="10.00">+</text>
<text text-anchor="start" x="478.72" y="-1082" font-family="Helvetica,sans-Serif" font-size="10.00">GetNumNodes()</text>
<text text-anchor="start" x="465.72" y="-1067" font-family="Helvetica,sans-Serif" font-size="10.00">+</text>
<text text-anchor="start" x="478.72" y="-1067" font-family="Helvetica,sans-Serif" font-size="10.00">GetNumBoundaryNodes()</text>
<text text-anchor="start" x="465.72" y="-1052" font-family="Helvetica,sans-Serif" font-size="10.00">+</text>
<text text-anchor="start" x="478.72" y="-1052" font-family="Helvetica,sans-Serif" font-size="10.00">GetNumAllNodes()</text>
<text text-anchor="start" x="465.72" y="-1037" font-family="Helvetica,sans-Serif" font-size="10.00">+</text>
<text text-anchor="start" x="478.72" y="-1037" font-family="Helvetica,sans-Serif" font-size="10.00">GetNumNodeAttributes()</text>
<text text-anchor="start" x="465.72" y="-1022" font-family="Helvetica,sans-Serif" font-size="10.00">+</text>
<text text-anchor="start" x="478.72" y="-1022" font-family="Helvetica,sans-Serif" font-size="10.00">GetNode()</text>
<text text-anchor="start" x="465.72" y="-1007" font-family="Helvetica,sans-Serif" font-size="10.00">+</text>
<text text-anchor="start" x="478.72" y="-1007" font-family="Helvetica,sans-Serif" font-size="10.00">GetNodeOrHaloNode()</text>
<text text-anchor="start" x="478.72" y="-992" font-family="Helvetica,sans-Serif" font-size="10.00">and 28 more...</text>
<text text-anchor="start" x="465.72" y="-977" font-family="Helvetica,sans-Serif" font-size="10.00">#</text>
<text text-anchor="start" x="478.72" y="-977" font-family="Helvetica,sans-Serif" font-size="10.00">SetElementOwnerships()</text>
<text text-anchor="start" x="465.72" y="-962" font-family="Helvetica,sans-Serif" font-size="10.00">#</text>
<text text-anchor="start" x="478.72" y="-962" font-family="Helvetica,sans-Serif" font-size="10.00">CalculateBoundingBox()</text>
<text text-anchor="start" x="468.22" y="-947" font-family="Helvetica,sans-Serif" font-size="10.00">&#45;</text>
<text text-anchor="start" x="478.72" y="-947" font-family="Helvetica,sans-Serif" font-size="10.00">SolveNodeMapping()</text>
<text text-anchor="start" x="468.22" y="-932" font-family="Helvetica,sans-Serif" font-size="10.00">&#45;</text>
<text text-anchor="start" x="478.72" y="-932" font-family="Helvetica,sans-Serif" font-size="10.00">serialize()</text>
<polygon fill="#666666" stroke="#666666" points="461.72,-1167 461.72,-1167 608.72,-1167 608.72,-1167 461.72,-1167"/>
<polygon fill="#666666" stroke="#666666" points="461.72,-1152 461.72,-1152 608.72,-1152 608.72,-1152 461.72,-1152"/>
<polygon fill="none" stroke="#666666" points="461.22,-925 461.22,-1195 608.22,-1195 608.22,-925 461.22,-925"/>
</a>
</g>
</g>
<!-- Node4&#45;&gt;Node3 -->
<g id="edge3_Node000003_Node000004" class="edge">
<title>Node4&#45;&gt;Node3</title>
<g id="a_edge3_Node000003_Node000004"><a xlink:title=" ">
<path fill="none" stroke="#63b8ff" d="M616.96,-1008.49C711.56,-950.37 866.58,-855.14 965.84,-794.17"/>
<polygon fill="none" stroke="#63b8ff" points="614.97,-1005.6 608.28,-1013.82 618.63,-1011.57 614.97,-1005.6"/>
</a>
</g>
</g>
<!-- Node5 -->
<g id="Node000005" class="node">
<title>Node5</title>
<g id="a_Node000005"><a xlink:title=" ">
<polygon fill="white" stroke="transparent" points="269.72,-1425.5 163.72,-1425.5 163.72,-1376.5 269.72,-1376.5 269.72,-1425.5"/>
<text text-anchor="start" x="168.72" y="-1413" font-family="Helvetica,sans-Serif" font-size="10.00">boost::noncopyable</text>
<text text-anchor="start" x="214.72" y="-1398" font-family="Helvetica,sans-Serif" font-size="10.00"> </text>
<text text-anchor="start" x="214.72" y="-1383" font-family="Helvetica,sans-Serif" font-size="10.00"> </text>
<polygon fill="#bfbfbf" stroke="#bfbfbf" points="163.72,-1408 163.72,-1408 269.72,-1408 269.72,-1408 163.72,-1408"/>
<polygon fill="#bfbfbf" stroke="#bfbfbf" points="163.72,-1393 163.72,-1393 269.72,-1393 269.72,-1393 163.72,-1393"/>
<polygon fill="none" stroke="#bfbfbf" points="163.72,-1376.5 163.72,-1425.5 269.72,-1425.5 269.72,-1376.5 163.72,-1376.5"/>
</a>
</g>
</g>
<!-- Node5&#45;&gt;Node4 -->
<g id="edge4_Node000004_Node000005" class="edge">
<title>Node5&#45;&gt;Node4</title>
<g id="a_edge4_Node000004_Node000005"><a xlink:title=" ">
<path fill="none" stroke="#8b1a1a" d="M225.28,-1366.7C234.6,-1335.07 251.87,-1287.37 278.72,-1253 328.66,-1189.08 404.9,-1135.62 461.21,-1101.48"/>
<polygon fill="none" stroke="#8b1a1a" points="221.9,-1365.79 222.53,-1376.37 228.63,-1367.71 221.9,-1365.79"/>
</a>
</g>
</g>
<!-- Node6 -->
<g id="Node000006" class="node">
<title>Node6</title>
<g id="a_Node000006"><a xlink:title=" ">
<polygon fill="white" stroke="transparent" points="980.72,-1431 860.72,-1431 860.72,-1371 980.72,-1371 980.72,-1431"/>
<text text-anchor="start" x="865.72" y="-1419" font-family="Helvetica,sans-Serif" font-size="10.00">vector&lt; Node&lt; SPACE</text>
<text text-anchor="start" x="892.72" y="-1408" font-family="Helvetica,sans-Serif" font-size="10.00">_DIM &gt; * &gt;</text>
<text text-anchor="start" x="918.72" y="-1393" font-family="Helvetica,sans-Serif" font-size="10.00"> </text>
<text text-anchor="start" x="918.72" y="-1378" font-family="Helvetica,sans-Serif" font-size="10.00"> </text>
<polygon fill="#bfbfbf" stroke="#bfbfbf" points="860.72,-1403 860.72,-1403 980.72,-1403 980.72,-1403 860.72,-1403"/>
<polygon fill="#bfbfbf" stroke="#bfbfbf" points="860.72,-1388 860.72,-1388 980.72,-1388 980.72,-1388 860.72,-1388"/>
<polygon fill="none" stroke="#bfbfbf" points="860.72,-1371 860.72,-1431 980.72,-1431 980.72,-1371 860.72,-1371"/>
</a>
</g>
</g>
<!-- Node6&#45;&gt;Node4 -->
<g id="edge5_Node000004_Node000006" class="edge">
<title>Node6&#45;&gt;Node4</title>
<g id="a_edge5_Node000004_Node000006"><a xlink:title=" ">
<path fill="none" stroke="#63b8ff" d="M911.51,-1370.93C900.26,-1339.06 878.71,-1287.83 846.72,-1253 782.75,-1183.33 687.81,-1129.81 619.47,-1097.19"/>
<polygon fill="none" stroke="#63b8ff" points="619.17,-1097.05 612.04,-1098.11 608.32,-1091.93 615.45,-1090.87 619.17,-1097.05"/>
</a>
</g>
<text text-anchor="middle" x="876.22" y="-1227" font-family="Helvetica,sans-Serif" font-size="10.00" fill="grey"> #mBoundaryNodes</text>
<text text-anchor="middle" x="876.22" y="-1216" font-family="Helvetica,sans-Serif" font-size="10.00" fill="grey">#mNodes</text>
</g>
<!-- Node7 -->
<g id="Node000007" class="node">
<title>Node7</title>
<g id="a_Node000007"><a xlink:href="classDistributedVectorFactory.html" target="_top" xlink:title=" ">
<polygon fill="white" stroke="transparent" points="453.72,-1549 287.72,-1549 287.72,-1253 453.72,-1253 453.72,-1549"/>
<text text-anchor="start" x="310.22" y="-1537" font-family="Helvetica,sans-Serif" font-size="10.00">DistributedVectorFactory</text>
<text text-anchor="start" x="368.72" y="-1522" font-family="Helvetica,sans-Serif" font-size="10.00"> </text>
<text text-anchor="start" x="291.72" y="-1507" font-family="Helvetica,sans-Serif" font-size="10.00">+</text>
<text text-anchor="start" x="304.72" y="-1507" font-family="Helvetica,sans-Serif" font-size="10.00">DistributedVectorFactory()</text>
<text text-anchor="start" x="291.72" y="-1492" font-family="Helvetica,sans-Serif" font-size="10.00">+</text>
<text text-anchor="start" x="304.72" y="-1492" font-family="Helvetica,sans-Serif" font-size="10.00">DistributedVectorFactory()</text>
<text text-anchor="start" x="291.72" y="-1477" font-family="Helvetica,sans-Serif" font-size="10.00">+</text>
<text text-anchor="start" x="304.72" y="-1477" font-family="Helvetica,sans-Serif" font-size="10.00">DistributedVectorFactory()</text>
<text text-anchor="start" x="291.72" y="-1462" font-family="Helvetica,sans-Serif" font-size="10.00">+</text>
<text text-anchor="start" x="304.72" y="-1462" font-family="Helvetica,sans-Serif" font-size="10.00">DistributedVectorFactory()</text>
<text text-anchor="start" x="291.72" y="-1447" font-family="Helvetica,sans-Serif" font-size="10.00">+</text>
<text text-anchor="start" x="304.72" y="-1447" font-family="Helvetica,sans-Serif" font-size="10.00">~DistributedVectorFactory()</text>
<text text-anchor="start" x="291.72" y="-1432" font-family="Helvetica,sans-Serif" font-size="10.00">+</text>
<text text-anchor="start" x="304.72" y="-1432" font-family="Helvetica,sans-Serif" font-size="10.00">CreateVec()</text>
<text text-anchor="start" x="291.72" y="-1417" font-family="Helvetica,sans-Serif" font-size="10.00">+</text>
<text text-anchor="start" x="304.72" y="-1417" font-family="Helvetica,sans-Serif" font-size="10.00">CreateVec()</text>
<text text-anchor="start" x="291.72" y="-1402" font-family="Helvetica,sans-Serif" font-size="10.00">+</text>
<text text-anchor="start" x="304.72" y="-1402" font-family="Helvetica,sans-Serif" font-size="10.00">CreateDistributedVector()</text>
<text text-anchor="start" x="291.72" y="-1387" font-family="Helvetica,sans-Serif" font-size="10.00">+</text>
<text text-anchor="start" x="304.72" y="-1387" font-family="Helvetica,sans-Serif" font-size="10.00">IsGlobalIndexLocal()</text>
<text text-anchor="start" x="291.72" y="-1372" font-family="Helvetica,sans-Serif" font-size="10.00">+</text>
<text text-anchor="start" x="304.72" y="-1372" font-family="Helvetica,sans-Serif" font-size="10.00">GetLocalOwnership()</text>
<text text-anchor="start" x="304.72" y="-1357" font-family="Helvetica,sans-Serif" font-size="10.00">and 8 more...</text>
<text text-anchor="start" x="291.72" y="-1342" font-family="Helvetica,sans-Serif" font-size="10.00">+</text>
<text text-anchor="start" x="304.72" y="-1342" font-family="Helvetica,sans-Serif" font-size="10.00">SetCheckNumberOfProcesses</text>
<text text-anchor="start" x="304.72" y="-1331" font-family="Helvetica,sans-Serif" font-size="10.00">OnLoad()</text>
<text text-anchor="start" x="291.72" y="-1316" font-family="Helvetica,sans-Serif" font-size="10.00">+</text>
<text text-anchor="start" x="304.72" y="-1316" font-family="Helvetica,sans-Serif" font-size="10.00">CheckNumberOfProcessesOn</text>
<text text-anchor="start" x="304.72" y="-1305" font-family="Helvetica,sans-Serif" font-size="10.00">Load()</text>
<text text-anchor="start" x="294.22" y="-1290" font-family="Helvetica,sans-Serif" font-size="10.00">&#45;</text>
<text text-anchor="start" x="304.72" y="-1290" font-family="Helvetica,sans-Serif" font-size="10.00">CheckForPetsc()</text>
<text text-anchor="start" x="294.22" y="-1275" font-family="Helvetica,sans-Serif" font-size="10.00">&#45;</text>
<text text-anchor="start" x="304.72" y="-1275" font-family="Helvetica,sans-Serif" font-size="10.00">CalculateOwnership()</text>
<text text-anchor="start" x="294.22" y="-1260" font-family="Helvetica,sans-Serif" font-size="10.00">&#45;</text>
<text text-anchor="start" x="304.72" y="-1260" font-family="Helvetica,sans-Serif" font-size="10.00">serialize()</text>
<polygon fill="#666666" stroke="#666666" points="287.72,-1532 287.72,-1532 453.72,-1532 453.72,-1532 287.72,-1532"/>
<polygon fill="#666666" stroke="#666666" points="287.72,-1517 287.72,-1517 453.72,-1517 453.72,-1517 287.72,-1517"/>
<polygon fill="none" stroke="#666666" points="287.72,-1253 287.72,-1549 453.72,-1549 453.72,-1253 287.72,-1253"/>
</a>
</g>
</g>
<!-- Node7&#45;&gt;Node4 -->
<g id="edge6_Node000004_Node000007" class="edge">
<title>Node7&#45;&gt;Node4</title>
<g id="a_edge6_Node000004_Node000007"><a xlink:title=" ">
<path fill="none" stroke="#63b8ff" d="M361.98,-1252.61C364.45,-1238.9 368.23,-1225.48 373.72,-1213 390.37,-1175.22 421.39,-1142.39 451.78,-1117.01"/>
<polygon fill="none" stroke="#63b8ff" points="451.87,-1116.94 454,-1110.05 461.18,-1109.37 459.04,-1116.26 451.87,-1116.94"/>
</a>
</g>
<text text-anchor="middle" x="447.72" y="-1221.5" font-family="Helvetica,sans-Serif" font-size="10.00" fill="grey"> #mpDistributedVectorFactory</text>
</g>
<!-- Node7&#45;&gt;Node7 -->
<g id="edge10_Node000007_Node000007" class="edge">
<title>Node7&#45;&gt;Node7</title>
<g id="a_edge10_Node000007_Node000007"><a xlink:title=" ">
<path fill="none" stroke="#63b8ff" d="M453.93,-1429.92C464.65,-1424.91 471.72,-1415.27 471.72,-1401 471.72,-1391.86 468.82,-1384.62 463.92,-1379.28"/>
<polygon fill="none" stroke="#63b8ff" points="463.67,-1379.1 456.46,-1378.83 453.93,-1372.08 461.14,-1372.34 463.67,-1379.1"/>
</a>
</g>
<text text-anchor="middle" x="520.22" y="-1398.5" font-family="Helvetica,sans-Serif" font-size="10.00" fill="grey"> &#45;mpOriginalFactory</text>
</g>
<!-- Node8 -->
<g id="Node000008" class="node">
<title>Node8</title>
<g id="a_Node000008"><a xlink:href="classunsigned.html" target="_top" xlink:title=" ">
<polygon fill="white" stroke="transparent" points="398.22,-1678 343.22,-1678 343.22,-1629 398.22,-1629 398.22,-1678"/>
<text text-anchor="start" x="348.72" y="-1665.5" font-family="Helvetica,sans-Serif" font-size="10.00">unsigned</text>
<text text-anchor="start" x="369.22" y="-1650.5" font-family="Helvetica,sans-Serif" font-size="10.00"> </text>
<text text-anchor="start" x="369.22" y="-1635.5" font-family="Helvetica,sans-Serif" font-size="10.00"> </text>
<polygon fill="#bfbfbf" stroke="#bfbfbf" points="343.72,-1660.5 343.72,-1660.5 398.72,-1660.5 398.72,-1660.5 343.72,-1660.5"/>
<polygon fill="#bfbfbf" stroke="#bfbfbf" points="343.72,-1645.5 343.72,-1645.5 398.72,-1645.5 398.72,-1645.5 343.72,-1645.5"/>
<polygon fill="none" stroke="#bfbfbf" points="343.22,-1629 343.22,-1678 398.22,-1678 398.22,-1629 343.22,-1629"/>
</a>
</g>
</g>
<!-- Node8&#45;&gt;Node7 -->
<g id="edge7_Node000007_Node000008" class="edge">
<title>Node8&#45;&gt;Node7</title>
<g id="a_edge7_Node000007_Node000008"><a xlink:title=" ">
<path fill="none" stroke="#63b8ff" d="M370.72,-1628.93C370.72,-1612.14 370.72,-1587.93 370.72,-1561.52"/>
<polygon fill="none" stroke="#63b8ff" points="370.72,-1561.25 366.72,-1555.25 370.72,-1549.25 374.72,-1555.25 370.72,-1561.25"/>
</a>
</g>
<text text-anchor="middle" x="408.22" y="-1603" font-family="Helvetica,sans-Serif" font-size="10.00" fill="grey"> &#45;mHi</text>
<text text-anchor="middle" x="408.22" y="-1592" font-family="Helvetica,sans-Serif" font-size="10.00" fill="grey">&#45;mLo</text>
<text text-anchor="middle" x="408.22" y="-1581" font-family="Helvetica,sans-Serif" font-size="10.00" fill="grey">&#45;mNumProcs</text>
<text text-anchor="middle" x="408.22" y="-1570" font-family="Helvetica,sans-Serif" font-size="10.00" fill="grey">&#45;mProblemSize</text>
</g>
<!-- Node9 -->
<g id="Node000009" class="node">
<title>Node9</title>
<g id="a_Node000009"><a xlink:href="classbool.html" target="_top" xlink:title=" ">
<polygon fill="white" stroke="transparent" points="683.72,-1678 651.72,-1678 651.72,-1629 683.72,-1629 683.72,-1678"/>
<text text-anchor="start" x="656.72" y="-1665.5" font-family="Helvetica,sans-Serif" font-size="10.00">bool</text>
<text text-anchor="start" x="665.72" y="-1650.5" font-family="Helvetica,sans-Serif" font-size="10.00"> </text>
<text text-anchor="start" x="665.72" y="-1635.5" font-family="Helvetica,sans-Serif" font-size="10.00"> </text>
<polygon fill="#bfbfbf" stroke="#bfbfbf" points="651.72,-1660.5 651.72,-1660.5 683.72,-1660.5 683.72,-1660.5 651.72,-1660.5"/>
<polygon fill="#bfbfbf" stroke="#bfbfbf" points="651.72,-1645.5 651.72,-1645.5 683.72,-1645.5 683.72,-1645.5 651.72,-1645.5"/>
<polygon fill="none" stroke="#bfbfbf" points="651.72,-1629 651.72,-1678 683.72,-1678 683.72,-1629 651.72,-1629"/>
</a>
</g>
</g>
<!-- Node9&#45;&gt;Node3 -->
<g id="edge14_Node000003_Node000009" class="edge">
<title>Node9&#45;&gt;Node3</title>
<g id="a_edge14_Node000003_Node000009"><a xlink:title=" ">
<path fill="none" stroke="#63b8ff" d="M683.9,-1653.06C737.8,-1653.94 912.29,-1648.71 989.72,-1549 1032.33,-1494.14 1019.79,-994.01 1027.72,-925 1029.03,-913.68 1030.55,-902.01 1032.22,-890.28"/>
<polygon fill="none" stroke="#63b8ff" points="1032.28,-889.92 1029.19,-883.41 1034.01,-878.05 1037.1,-884.57 1032.28,-889.92"/>
</a>
</g>
<text text-anchor="middle" x="1065.72" y="-1221.5" font-family="Helvetica,sans-Serif" font-size="10.00" fill="grey"> #mMeshIsLinear</text>
</g>
<!-- Node9&#45;&gt;Node4 -->
<g id="edge13_Node000004_Node000009" class="edge">
<title>Node9&#45;&gt;Node4</title>
<g id="a_edge13_Node000004_Node000009"><a xlink:title=" ">
<path fill="none" stroke="#63b8ff" d="M668.89,-1628.79C672.52,-1548.91 681.78,-1290.33 653.72,-1213 645.09,-1189.2 631.19,-1166.21 615.89,-1145.63"/>
<polygon fill="none" stroke="#63b8ff" points="615.83,-1145.56 609,-1143.23 608.52,-1136.04 615.35,-1138.36 615.83,-1145.56"/>
</a>
</g>
<text text-anchor="middle" x="761.22" y="-1398.5" font-family="Helvetica,sans-Serif" font-size="10.00" fill="grey"> #mMeshChangesDuringSimulation</text>
</g>
<!-- Node9&#45;&gt;Node7 -->
<g id="edge8_Node000007_Node000009" class="edge">
<title>Node9&#45;&gt;Node7</title>
<g id="a_edge8_Node000007_Node000009"><a xlink:title=" ">
<path fill="none" stroke="#63b8ff" d="M651.38,-1652.15C620.18,-1650.7 551.2,-1643.74 505.72,-1611 485.92,-1596.74 468.28,-1578.59 452.81,-1558.97"/>
<polygon fill="none" stroke="#63b8ff" points="452.66,-1558.77 445.85,-1556.42 445.39,-1549.23 452.21,-1551.58 452.66,-1558.77"/>
</a>
</g>
<text text-anchor="middle" x="579.72" y="-1597.5" font-family="Helvetica,sans-Serif" font-size="10.00" fill="grey"> &#45;mPetscStatusKnown</text>
<text text-anchor="start" x="505.72" y="-1586.5" font-family="Helvetica,sans-Serif" font-size="10.00" fill="grey">&#45;msCheckNumberOfProcesses</text>
<text text-anchor="middle" x="579.72" y="-1575.5" font-family="Helvetica,sans-Serif" font-size="10.00" fill="grey">OnLoad</text>
</g>
<!-- Node10 -->
<g id="Node000010" class="node">
<title>Node10</title>
<g id="a_Node000010"><a xlink:title=" ">
<polygon fill="white" stroke="transparent" points="208.72,-1678 100.72,-1678 100.72,-1629 208.72,-1629 208.72,-1678"/>
<text text-anchor="start" x="105.72" y="-1665.5" font-family="Helvetica,sans-Serif" font-size="10.00">vector&lt; unsigned &gt;</text>
<text text-anchor="start" x="152.72" y="-1650.5" font-family="Helvetica,sans-Serif" font-size="10.00"> </text>
<text text-anchor="start" x="152.72" y="-1635.5" font-family="Helvetica,sans-Serif" font-size="10.00"> </text>
<polygon fill="#bfbfbf" stroke="#bfbfbf" points="100.72,-1660.5 100.72,-1660.5 208.72,-1660.5 208.72,-1660.5 100.72,-1660.5"/>
<polygon fill="#bfbfbf" stroke="#bfbfbf" points="100.72,-1645.5 100.72,-1645.5 208.72,-1645.5 208.72,-1645.5 100.72,-1645.5"/>
<polygon fill="none" stroke="#bfbfbf" points="100.72,-1629 100.72,-1678 208.72,-1678 208.72,-1629 100.72,-1629"/>
</a>
</g>
</g>
<!-- Node10&#45;&gt;Node4 -->
<g id="edge11_Node000004_Node000010" class="edge">
<title>Node10&#45;&gt;Node4</title>
<g id="a_edge11_Node000004_Node000010"><a xlink:title=" ">
<path fill="none" stroke="#63b8ff" d="M117.96,-1628.92C92.96,-1610.54 61.95,-1582.55 47.72,-1549 -3.63,-1427.88 -26.3,-1361.75 47.72,-1253 137.89,-1120.53 334.89,-1079.46 448.77,-1066.72"/>
<polygon fill="none" stroke="#63b8ff" points="448.95,-1066.7 454.49,-1062.09 460.88,-1065.44 455.34,-1070.05 448.95,-1066.7"/>
</a>
</g>
<text text-anchor="middle" x="101.22" y="-1398.5" font-family="Helvetica,sans-Serif" font-size="10.00" fill="grey"> #mNodePermutation</text>
</g>
<!-- Node10&#45;&gt;Node7 -->
<g id="edge9_Node000007_Node000010" class="edge">
<title>Node10&#45;&gt;Node7</title>
<g id="a_edge9_Node000007_Node000010"><a xlink:title=" ">
<path fill="none" stroke="#63b8ff" d="M188.56,-1628.88C215.02,-1609.38 251.72,-1579.96 278.72,-1549 279.1,-1548.57 279.47,-1548.15 279.84,-1547.72"/>
<polygon fill="none" stroke="#63b8ff" points="279.84,-1547.71 280.61,-1540.54 287.53,-1538.5 286.76,-1545.67 279.84,-1547.71"/>
</a>
</g>
<text text-anchor="middle" x="297.22" y="-1586.5" font-family="Helvetica,sans-Serif" font-size="10.00" fill="grey"> &#45;mGlobalLows</text>
</g>
<!-- Node11 -->
<g id="Node000011" class="node">
<title>Node11</title>
<g id="a_Node000011"><a xlink:title=" ">
<polygon fill="white" stroke="transparent" points="624.72,-1425.5 586.72,-1425.5 586.72,-1376.5 624.72,-1376.5 624.72,-1425.5"/>
<text text-anchor="start" x="591.72" y="-1413" font-family="Helvetica,sans-Serif" font-size="10.00">string</text>
<text text-anchor="start" x="603.72" y="-1398" font-family="Helvetica,sans-Serif" font-size="10.00"> </text>
<text text-anchor="start" x="603.72" y="-1383" font-family="Helvetica,sans-Serif" font-size="10.00"> </text>
<polygon fill="#bfbfbf" stroke="#bfbfbf" points="586.72,-1408 586.72,-1408 624.72,-1408 624.72,-1408 586.72,-1408"/>
<polygon fill="#bfbfbf" stroke="#bfbfbf" points="586.72,-1393 586.72,-1393 624.72,-1393 624.72,-1393 586.72,-1393"/>
<polygon fill="none" stroke="#bfbfbf" points="586.72,-1376.5 586.72,-1425.5 624.72,-1425.5 624.72,-1376.5 586.72,-1376.5"/>
</a>
</g>
</g>
<!-- Node11&#45;&gt;Node4 -->
<g id="edge12_Node000004_Node000011" class="edge">
<title>Node11&#45;&gt;Node4</title>
<g id="a_edge12_Node000004_Node000011"><a xlink:title=" ">
<path fill="none" stroke="#63b8ff" d="M607.62,-1376.35C608.86,-1344.75 606.37,-1288.64 577.72,-1253 565,-1237.17 546.95,-1251.92 535.72,-1235 529.96,-1226.32 525.74,-1216.81 522.73,-1206.87"/>
<polygon fill="none" stroke="#63b8ff" points="522.68,-1206.65 517.34,-1201.81 519.76,-1195.01 525.1,-1199.86 522.68,-1206.65"/>
</a>
</g>
<text text-anchor="middle" x="594.72" y="-1221.5" font-family="Helvetica,sans-Serif" font-size="10.00" fill="grey"> #mMeshFileBaseName</text>
</g>
<!-- Node12 -->
<g id="Node000012" class="node">
<title>Node12</title>
<g id="a_Node000012"><a xlink:title=" ">
<polygon fill="white" stroke="transparent" points="1186.72,-1090 1036.72,-1090 1036.72,-1030 1186.72,-1030 1186.72,-1090"/>
<text text-anchor="start" x="1041.72" y="-1078" font-family="Helvetica,sans-Serif" font-size="10.00">vector&lt; Element&lt; ELEMENT</text>
<text text-anchor="start" x="1052.72" y="-1067" font-family="Helvetica,sans-Serif" font-size="10.00">_DIM, SPACE_DIM &gt; * &gt;</text>
<text text-anchor="start" x="1109.72" y="-1052" font-family="Helvetica,sans-Serif" font-size="10.00"> </text>
<text text-anchor="start" x="1109.72" y="-1037" font-family="Helvetica,sans-Serif" font-size="10.00"> </text>
<polygon fill="#bfbfbf" stroke="#bfbfbf" points="1036.72,-1062 1036.72,-1062 1186.72,-1062 1186.72,-1062 1036.72,-1062"/>
<polygon fill="#bfbfbf" stroke="#bfbfbf" points="1036.72,-1047 1036.72,-1047 1186.72,-1047 1186.72,-1047 1036.72,-1047"/>
<polygon fill="none" stroke="#bfbfbf" points="1036.72,-1030 1036.72,-1090 1186.72,-1090 1186.72,-1030 1036.72,-1030"/>
</a>
</g>
</g>
<!-- Node12&#45;&gt;Node3 -->
<g id="edge15_Node000003_Node000012" class="edge">
<title>Node12&#45;&gt;Node3</title>
<g id="a_edge15_Node000003_Node000012"><a xlink:title=" ">
<path fill="none" stroke="#63b8ff" d="M1107.02,-1029.81C1101.84,-997.67 1093.1,-943.46 1084.53,-890.33"/>
<polygon fill="none" stroke="#63b8ff" points="1084.5,-890.15 1079.6,-884.87 1082.59,-878.31 1087.49,-883.59 1084.5,-890.15"/>
</a>
</g>
<text text-anchor="middle" x="1119.22" y="-899" font-family="Helvetica,sans-Serif" font-size="10.00" fill="grey"> #mElements</text>
</g>
<!-- Node13 -->
<g id="Node000013" class="node">
<title>Node13</title>
<g id="a_Node000013"><a xlink:title=" ">
<polygon fill="white" stroke="transparent" points="1344.72,-1095.5 1204.72,-1095.5 1204.72,-1024.5 1344.72,-1024.5 1344.72,-1095.5"/>
<text text-anchor="start" x="1209.72" y="-1083" font-family="Helvetica,sans-Serif" font-size="10.00">vector&lt; BoundaryElement</text>
<text text-anchor="start" x="1209.72" y="-1072" font-family="Helvetica,sans-Serif" font-size="10.00">&lt; ELEMENT_DIM&#45;1, SPACE</text>
<text text-anchor="start" x="1246.72" y="-1061" font-family="Helvetica,sans-Serif" font-size="10.00">_DIM &gt; * &gt;</text>
<text text-anchor="start" x="1272.72" y="-1046" font-family="Helvetica,sans-Serif" font-size="10.00"> </text>
<text text-anchor="start" x="1272.72" y="-1031" font-family="Helvetica,sans-Serif" font-size="10.00"> </text>
<polygon fill="#bfbfbf" stroke="#bfbfbf" points="1204.72,-1056 1204.72,-1056 1344.72,-1056 1344.72,-1056 1204.72,-1056"/>
<polygon fill="#bfbfbf" stroke="#bfbfbf" points="1204.72,-1041 1204.72,-1041 1344.72,-1041 1344.72,-1041 1204.72,-1041"/>
<polygon fill="none" stroke="#bfbfbf" points="1204.72,-1024.5 1204.72,-1095.5 1344.72,-1095.5 1344.72,-1024.5 1204.72,-1024.5"/>
</a>
</g>
</g>
<!-- Node13&#45;&gt;Node3 -->
<g id="edge16_Node000003_Node000013" class="edge">
<title>Node13&#45;&gt;Node3</title>
<g id="a_edge16_Node000003_Node000013"><a xlink:title=" ">
<path fill="none" stroke="#63b8ff" d="M1255.46,-1024.31C1239.97,-996.94 1217.32,-957.99 1195.72,-925 1181.61,-903.43 1176.82,-898.9 1161.72,-878 1161.3,-877.41 1160.87,-876.81 1160.43,-876.21"/>
<polygon fill="none" stroke="#63b8ff" points="1160.4,-876.16 1153.64,-873.64 1153.37,-866.43 1160.13,-868.95 1160.4,-876.16"/>
</a>
</g>
<text text-anchor="middle" x="1240.72" y="-899" font-family="Helvetica,sans-Serif" font-size="10.00" fill="grey"> #mBoundaryElements</text>
</g>
<!-- Node14 -->
<g id="Node000014" class="node">
<title>Node14</title>
<g id="a_Node000014"><a xlink:title=" ">
<polygon fill="white" stroke="transparent" points="1312.22,-765.5 1171.22,-765.5 1171.22,-705.5 1312.22,-705.5 1312.22,-765.5"/>
<text text-anchor="start" x="1176.72" y="-753.5" font-family="Helvetica,sans-Serif" font-size="10.00">vector&lt; c_vector&lt; double,</text>
<text text-anchor="start" x="1201.22" y="-742.5" font-family="Helvetica,sans-Serif" font-size="10.00"> SPACE_DIM &gt; &gt;</text>
<text text-anchor="start" x="1240.22" y="-727.5" font-family="Helvetica,sans-Serif" font-size="10.00"> </text>
<text text-anchor="start" x="1240.22" y="-712.5" font-family="Helvetica,sans-Serif" font-size="10.00"> </text>
<polygon fill="#bfbfbf" stroke="#bfbfbf" points="1171.72,-737.5 1171.72,-737.5 1312.72,-737.5 1312.72,-737.5 1171.72,-737.5"/>
<polygon fill="#bfbfbf" stroke="#bfbfbf" points="1171.72,-722.5 1171.72,-722.5 1312.72,-722.5 1312.72,-722.5 1171.72,-722.5"/>
<polygon fill="none" stroke="#bfbfbf" points="1171.22,-705.5 1171.22,-765.5 1312.22,-765.5 1312.22,-705.5 1171.22,-705.5"/>
</a>
</g>
</g>
<!-- Node14&#45;&gt;Node2 -->
<g id="edge17_Node000002_Node000014" class="edge">
<title>Node14&#45;&gt;Node2</title>
<g id="a_edge17_Node000002_Node000014"><a xlink:title=" ">
<path fill="none" stroke="#63b8ff" d="M1238.95,-705.47C1236.41,-666.62 1235.94,-596.3 1258.72,-542 1272.63,-508.85 1294.64,-477.27 1317.94,-449.79"/>
<polygon fill="none" stroke="#63b8ff" points="1318.01,-449.7 1318.92,-442.55 1325.88,-440.64 1324.97,-447.79 1318.01,-449.7"/>
</a>
</g>
<text text-anchor="start" x="1258.72" y="-567" font-family="Helvetica,sans-Serif" font-size="10.00" fill="grey"> #mBoundaryElementWeighted</text>
<text text-anchor="middle" x="1335.72" y="-556" font-family="Helvetica,sans-Serif" font-size="10.00" fill="grey">Directions</text>
<text text-anchor="middle" x="1335.72" y="-545" font-family="Helvetica,sans-Serif" font-size="10.00" fill="grey">#mElementWeightedDirections</text>
</g>
<!-- Node15 -->
<g id="Node000015" class="node">
<title>Node15</title>
<g id="a_Node000015"><a xlink:title=" ">
<polygon fill="white" stroke="transparent" points="1500.72,-765.5 1332.72,-765.5 1332.72,-705.5 1500.72,-705.5 1500.72,-765.5"/>
<text text-anchor="start" x="1337.72" y="-753.5" font-family="Helvetica,sans-Serif" font-size="10.00">vector&lt; c_matrix&lt; double,</text>
<text text-anchor="start" x="1337.72" y="-742.5" font-family="Helvetica,sans-Serif" font-size="10.00"> SPACE_DIM, ELEMENT_DIM &gt; &gt;</text>
<text text-anchor="start" x="1414.72" y="-727.5" font-family="Helvetica,sans-Serif" font-size="10.00"> </text>
<text text-anchor="start" x="1414.72" y="-712.5" font-family="Helvetica,sans-Serif" font-size="10.00"> </text>
<polygon fill="#bfbfbf" stroke="#bfbfbf" points="1332.72,-737.5 1332.72,-737.5 1500.72,-737.5 1500.72,-737.5 1332.72,-737.5"/>
<polygon fill="#bfbfbf" stroke="#bfbfbf" points="1332.72,-722.5 1332.72,-722.5 1500.72,-722.5 1500.72,-722.5 1332.72,-722.5"/>
<polygon fill="none" stroke="#bfbfbf" points="1332.72,-705.5 1332.72,-765.5 1500.72,-765.5 1500.72,-705.5 1332.72,-705.5"/>
</a>
</g>
</g>
<!-- Node15&#45;&gt;Node2 -->
<g id="edge18_Node000002_Node000015" class="edge">
<title>Node15&#45;&gt;Node2</title>
<g id="a_edge18_Node000002_Node000015"><a xlink:title=" ">
<path fill="none" stroke="#63b8ff" d="M1416.88,-705.31C1417.07,-668.42 1417.42,-601.81 1417.77,-536.47"/>
<polygon fill="none" stroke="#63b8ff" points="1417.77,-536.29 1413.8,-530.27 1417.83,-524.29 1421.8,-530.31 1417.77,-536.29"/>
</a>
</g>
<text text-anchor="middle" x="1472.22" y="-556" font-family="Helvetica,sans-Serif" font-size="10.00" fill="grey"> #mElementJacobians</text>
</g>
<!-- Node16 -->
<g id="Node000016" class="node">
<title>Node16</title>
<g id="a_Node000016"><a xlink:title=" ">
<polygon fill="white" stroke="transparent" points="1686.72,-765.5 1518.72,-765.5 1518.72,-705.5 1686.72,-705.5 1686.72,-765.5"/>
<text text-anchor="start" x="1523.72" y="-753.5" font-family="Helvetica,sans-Serif" font-size="10.00">vector&lt; c_matrix&lt; double,</text>
<text text-anchor="start" x="1523.72" y="-742.5" font-family="Helvetica,sans-Serif" font-size="10.00"> ELEMENT_DIM, SPACE_DIM &gt; &gt;</text>
<text text-anchor="start" x="1600.72" y="-727.5" font-family="Helvetica,sans-Serif" font-size="10.00"> </text>
<text text-anchor="start" x="1600.72" y="-712.5" font-family="Helvetica,sans-Serif" font-size="10.00"> </text>
<polygon fill="#bfbfbf" stroke="#bfbfbf" points="1518.72,-737.5 1518.72,-737.5 1686.72,-737.5 1686.72,-737.5 1518.72,-737.5"/>
<polygon fill="#bfbfbf" stroke="#bfbfbf" points="1518.72,-722.5 1518.72,-722.5 1686.72,-722.5 1686.72,-722.5 1518.72,-722.5"/>
<polygon fill="none" stroke="#bfbfbf" points="1518.72,-705.5 1518.72,-765.5 1686.72,-765.5 1686.72,-705.5 1518.72,-705.5"/>
</a>
</g>
</g>
<!-- Node16&#45;&gt;Node2 -->
<g id="edge19_Node000002_Node000016" class="edge">
<title>Node16&#45;&gt;Node2</title>
<g id="a_edge19_Node000002_Node000016"><a xlink:title=" ">
<path fill="none" stroke="#63b8ff" d="M1593.68,-705.45C1581.36,-667.17 1557.71,-598.11 1530.72,-542 1526.41,-533.04 1521.81,-523.94 1517.02,-514.83"/>
<polygon fill="none" stroke="#63b8ff" points="1516.97,-514.73 1510.61,-511.32 1511.32,-504.14 1517.67,-507.55 1516.97,-514.73"/>
</a>
</g>
<text text-anchor="middle" x="1616.22" y="-556" font-family="Helvetica,sans-Serif" font-size="10.00" fill="grey"> #mElementInverseJacobians</text>
</g>
<!-- Node17 -->
<g id="Node000017" class="node">
<title>Node17</title>
<g id="a_Node000017"><a xlink:title=" ">
<polygon fill="white" stroke="transparent" points="1810.22,-760 1713.22,-760 1713.22,-711 1810.22,-711 1810.22,-760"/>
<text text-anchor="start" x="1718.72" y="-747.5" font-family="Helvetica,sans-Serif" font-size="10.00">vector&lt; double &gt;</text>
<text text-anchor="start" x="1760.22" y="-732.5" font-family="Helvetica,sans-Serif" font-size="10.00"> </text>
<text text-anchor="start" x="1760.22" y="-717.5" font-family="Helvetica,sans-Serif" font-size="10.00"> </text>
<polygon fill="#bfbfbf" stroke="#bfbfbf" points="1713.72,-742.5 1713.72,-742.5 1810.72,-742.5 1810.72,-742.5 1713.72,-742.5"/>
<polygon fill="#bfbfbf" stroke="#bfbfbf" points="1713.72,-727.5 1713.72,-727.5 1810.72,-727.5 1810.72,-727.5 1713.72,-727.5"/>
<polygon fill="none" stroke="#bfbfbf" points="1713.22,-711 1713.22,-760 1810.22,-760 1810.22,-711 1713.22,-711"/>
</a>
</g>
</g>
<!-- Node17&#45;&gt;Node2 -->
<g id="edge20_Node000002_Node000017" class="edge">
<title>Node17&#45;&gt;Node2</title>
<g id="a_edge20_Node000002_Node000017"><a xlink:title=" ">
<path fill="none" stroke="#63b8ff" d="M1758.12,-710.92C1751.22,-672.2 1733.08,-594.27 1692.72,-542 1647.63,-483.58 1579.11,-436.7 1521.87,-404.42"/>
<polygon fill="none" stroke="#63b8ff" points="1521.81,-404.39 1514.62,-404.98 1511.32,-398.57 1518.51,-397.98 1521.81,-404.39"/>
</a>
</g>
<text text-anchor="start" x="1712.72" y="-567" font-family="Helvetica,sans-Serif" font-size="10.00" fill="grey"> #mBoundaryElementJacobian</text>
<text text-anchor="middle" x="1796.22" y="-556" font-family="Helvetica,sans-Serif" font-size="10.00" fill="grey">Determinants</text>
<text text-anchor="middle" x="1796.22" y="-545" font-family="Helvetica,sans-Serif" font-size="10.00" fill="grey">#mElementJacobianDeterminants</text>
</g>
</g>
</svg>
