<?xml version="1.0" encoding="UTF-8" standalone="no"?>
<!DOCTYPE svg PUBLIC "-//W3C//DTD SVG 1.1//EN"
 "http://www.w3.org/Graphics/SVG/1.1/DTD/svg11.dtd">
<!-- Generated by graphviz version 2.43.0 (0)
 -->
<!-- Title: PoleZeroMaterialLaw&lt; DIM &gt; Pages: 1 -->
<svg width="395pt" height="806pt"
 viewBox="0.00 0.00 395.00 806.00" xmlns="http://www.w3.org/2000/svg" xmlns:xlink="http://www.w3.org/1999/xlink">
<g id="graph0" class="graph" transform="scale(1 1) rotate(0) translate(4 802)">
<title>PoleZeroMaterialLaw&lt; DIM &gt;</title>
<!-- Node1 -->
<g id="Node000001" class="node">
<title>Node1</title>
<g id="a_Node000001"><a xlink:title=" ">
<polygon fill="#999999" stroke="transparent" points="273.5,-135 70.5,-135 70.5,0 273.5,0 273.5,-135"/>
<text text-anchor="start" x="120.5" y="-122.5" font-family="Helvetica,sans-Serif" font-size="10.00">PoleZeroMaterialLaw</text>
<text text-anchor="start" x="151" y="-111.5" font-family="Helvetica,sans-Serif" font-size="10.00">&lt; DIM &gt;</text>
<text text-anchor="start" x="170.5" y="-96.5" font-family="Helvetica,sans-Serif" font-size="10.00"> </text>
<text text-anchor="start" x="75" y="-81.5" font-family="Helvetica,sans-Serif" font-size="10.00">+</text>
<text text-anchor="start" x="88" y="-81.5" font-family="Helvetica,sans-Serif" font-size="10.00">PoleZeroMaterialLaw()</text>
<text text-anchor="start" x="75" y="-66.5" font-family="Helvetica,sans-Serif" font-size="10.00">+</text>
<text text-anchor="start" x="88" y="-66.5" font-family="Helvetica,sans-Serif" font-size="10.00">ComputeStressAndStressDerivative()</text>
<text text-anchor="start" x="75" y="-51.5" font-family="Helvetica,sans-Serif" font-size="10.00">+</text>
<text text-anchor="start" x="88" y="-51.5" font-family="Helvetica,sans-Serif" font-size="10.00">GetZeroStrainPressure()</text>
<text text-anchor="start" x="75" y="-36.5" font-family="Helvetica,sans-Serif" font-size="10.00">+</text>
<text text-anchor="start" x="88" y="-36.5" font-family="Helvetica,sans-Serif" font-size="10.00">ScaleMaterialParameters()</text>
<text text-anchor="start" x="75" y="-21.5" font-family="Helvetica,sans-Serif" font-size="10.00">#</text>
<text text-anchor="start" x="88" y="-21.5" font-family="Helvetica,sans-Serif" font-size="10.00">PoleZeroMaterialLaw()</text>
<text text-anchor="start" x="75" y="-6.5" font-family="Helvetica,sans-Serif" font-size="10.00">#</text>
<text text-anchor="start" x="88" y="-6.5" font-family="Helvetica,sans-Serif" font-size="10.00">SetParameters()</text>
<polygon fill="#666666" stroke="#666666" points="71,-106.5 71,-106.5 274,-106.5 274,-106.5 71,-106.5"/>
<polygon fill="#666666" stroke="#666666" points="71,-91.5 71,-91.5 274,-91.5 274,-91.5 71,-91.5"/>
<polygon fill="none" stroke="#666666" points="70.5,0 70.5,-135 273.5,-135 273.5,0 70.5,0"/>
</a>
</g>
</g>
<!-- Node2 -->
<g id="Node000002" class="node">
<title>Node2</title>
<g id="a_Node000002"><a xlink:href="classAbstractIncompressibleMaterialLaw.html" target="_top" xlink:title=" ">
<polygon fill="white" stroke="transparent" points="264.5,-316 79.5,-316 79.5,-204 264.5,-204 264.5,-316"/>
<text text-anchor="start" x="94.5" y="-304" font-family="Helvetica,sans-Serif" font-size="10.00">AbstractIncompressibleMaterial</text>
<text text-anchor="start" x="141.5" y="-293" font-family="Helvetica,sans-Serif" font-size="10.00">Law&lt; DIM &gt;</text>
<text text-anchor="start" x="170.5" y="-278" font-family="Helvetica,sans-Serif" font-size="10.00"> </text>
<text text-anchor="start" x="84" y="-263" font-family="Helvetica,sans-Serif" font-size="10.00">+</text>
<text text-anchor="start" x="97" y="-263" font-family="Helvetica,sans-Serif" font-size="10.00">AbstractIncompressibleMaterial</text>
<text text-anchor="start" x="97" y="-252" font-family="Helvetica,sans-Serif" font-size="10.00">Law()</text>
<text text-anchor="start" x="84" y="-237" font-family="Helvetica,sans-Serif" font-size="10.00">+</text>
<text text-anchor="start" x="97" y="-237" font-family="Helvetica,sans-Serif" font-size="10.00">~AbstractIncompressibleMaterial</text>
<text text-anchor="start" x="97" y="-226" font-family="Helvetica,sans-Serif" font-size="10.00">Law()</text>
<text text-anchor="start" x="84" y="-211" font-family="Helvetica,sans-Serif" font-size="10.00">+</text>
<text text-anchor="start" x="97" y="-211" font-family="Helvetica,sans-Serif" font-size="10.00">GetZeroStrainPressure()</text>
<polygon fill="#666666" stroke="#666666" points="80,-288 80,-288 265,-288 265,-288 80,-288"/>
<polygon fill="#666666" stroke="#666666" points="80,-273 80,-273 265,-273 265,-273 80,-273"/>
<polygon fill="none" stroke="#666666" points="79.5,-204 79.5,-316 264.5,-316 264.5,-204 79.5,-204"/>
</a>
</g>
</g>
<!-- Node2&#45;&gt;Node1 -->
<g id="edge1_Node000001_Node000002" class="edge">
<title>Node2&#45;&gt;Node1</title>
<g id="a_edge1_Node000001_Node000002"><a xlink:title=" ">
<path fill="none" stroke="#63b8ff" d="M172,-193.9C172,-174.99 172,-154.31 172,-135.3"/>
<polygon fill="none" stroke="#63b8ff" points="168.5,-193.9 172,-203.9 175.5,-193.9 168.5,-193.9"/>
</a>
</g>
</g>
<!-- Node3 -->
<g id="Node000003" class="node">
<title>Node3</title>
<g id="a_Node000003"><a xlink:href="classAbstractMaterialLaw.html" target="_top" xlink:title=" ">
<polygon fill="white" stroke="transparent" points="278.5,-595 75.5,-595 75.5,-363 278.5,-363 278.5,-595"/>
<text text-anchor="start" x="127" y="-583" font-family="Helvetica,sans-Serif" font-size="10.00">AbstractMaterialLaw</text>
<text text-anchor="start" x="156" y="-572" font-family="Helvetica,sans-Serif" font-size="10.00">&lt; DIM &gt;</text>
<text text-anchor="start" x="175.5" y="-557" font-family="Helvetica,sans-Serif" font-size="10.00"> </text>
<text text-anchor="start" x="80" y="-542" font-family="Helvetica,sans-Serif" font-size="10.00">+</text>
<text text-anchor="start" x="93" y="-542" font-family="Helvetica,sans-Serif" font-size="10.00">AbstractMaterialLaw()</text>
<text text-anchor="start" x="80" y="-527" font-family="Helvetica,sans-Serif" font-size="10.00">+</text>
<text text-anchor="start" x="93" y="-527" font-family="Helvetica,sans-Serif" font-size="10.00">~AbstractMaterialLaw()</text>
<text text-anchor="start" x="80" y="-512" font-family="Helvetica,sans-Serif" font-size="10.00">+</text>
<text text-anchor="start" x="93" y="-512" font-family="Helvetica,sans-Serif" font-size="10.00">ComputeStressAndStressDerivative()</text>
<text text-anchor="start" x="80" y="-497" font-family="Helvetica,sans-Serif" font-size="10.00">+</text>
<text text-anchor="start" x="93" y="-497" font-family="Helvetica,sans-Serif" font-size="10.00">ComputeCauchyStress()</text>
<text text-anchor="start" x="80" y="-482" font-family="Helvetica,sans-Serif" font-size="10.00">+</text>
<text text-anchor="start" x="93" y="-482" font-family="Helvetica,sans-Serif" font-size="10.00">Compute1stPiolaKirchoffStress()</text>
<text text-anchor="start" x="80" y="-467" font-family="Helvetica,sans-Serif" font-size="10.00">+</text>
<text text-anchor="start" x="93" y="-467" font-family="Helvetica,sans-Serif" font-size="10.00">Compute2ndPiolaKirchoffStress()</text>
<text text-anchor="start" x="80" y="-452" font-family="Helvetica,sans-Serif" font-size="10.00">+</text>
<text text-anchor="start" x="93" y="-452" font-family="Helvetica,sans-Serif" font-size="10.00">ScaleMaterialParameters()</text>
<text text-anchor="start" x="80" y="-437" font-family="Helvetica,sans-Serif" font-size="10.00">+</text>
<text text-anchor="start" x="93" y="-437" font-family="Helvetica,sans-Serif" font-size="10.00">SetChangeOfBasisMatrix()</text>
<text text-anchor="start" x="80" y="-422" font-family="Helvetica,sans-Serif" font-size="10.00">+</text>
<text text-anchor="start" x="93" y="-422" font-family="Helvetica,sans-Serif" font-size="10.00">ResetToNoChangeOfBasisMatrix()</text>
<text text-anchor="start" x="80" y="-407" font-family="Helvetica,sans-Serif" font-size="10.00">#</text>
<text text-anchor="start" x="93" y="-407" font-family="Helvetica,sans-Serif" font-size="10.00">ComputeTransformedDeformation</text>
<text text-anchor="start" x="93" y="-396" font-family="Helvetica,sans-Serif" font-size="10.00">Tensor()</text>
<text text-anchor="start" x="80" y="-381" font-family="Helvetica,sans-Serif" font-size="10.00">#</text>
<text text-anchor="start" x="93" y="-381" font-family="Helvetica,sans-Serif" font-size="10.00">TransformStressAndStress</text>
<text text-anchor="start" x="93" y="-370" font-family="Helvetica,sans-Serif" font-size="10.00">Derivative()</text>
<polygon fill="#666666" stroke="#666666" points="76,-567 76,-567 279,-567 279,-567 76,-567"/>
<polygon fill="#666666" stroke="#666666" points="76,-552 76,-552 279,-552 279,-552 76,-552"/>
<polygon fill="none" stroke="#666666" points="75.5,-363 75.5,-595 278.5,-595 278.5,-363 75.5,-363"/>
</a>
</g>
</g>
<!-- Node3&#45;&gt;Node2 -->
<g id="edge2_Node000002_Node000003" class="edge">
<title>Node3&#45;&gt;Node2</title>
<g id="a_edge2_Node000002_Node000003"><a xlink:title=" ">
<path fill="none" stroke="#63b8ff" d="M174.11,-352.6C173.82,-339.91 173.53,-327.54 173.27,-316.2"/>
<polygon fill="none" stroke="#63b8ff" points="170.62,-352.91 174.35,-362.83 177.61,-352.75 170.62,-352.91"/>
</a>
</g>
</g>
<!-- Node4 -->
<g id="Node000004" class="node">
<title>Node4</title>
<g id="a_Node000004"><a xlink:title=" ">
<polygon fill="white" stroke="transparent" points="126,-702 0,-702 0,-642 126,-642 126,-702"/>
<text text-anchor="start" x="5" y="-690" font-family="Helvetica,sans-Serif" font-size="10.00">c_matrix&lt; double, DIM,</text>
<text text-anchor="start" x="46" y="-679" font-family="Helvetica,sans-Serif" font-size="10.00"> DIM &gt;</text>
<text text-anchor="start" x="61" y="-664" font-family="Helvetica,sans-Serif" font-size="10.00"> </text>
<text text-anchor="start" x="61" y="-649" font-family="Helvetica,sans-Serif" font-size="10.00"> </text>
<polygon fill="#bfbfbf" stroke="#bfbfbf" points="0,-674 0,-674 126,-674 126,-674 0,-674"/>
<polygon fill="#bfbfbf" stroke="#bfbfbf" points="0,-659 0,-659 126,-659 126,-659 0,-659"/>
<polygon fill="none" stroke="#bfbfbf" points="0,-642 0,-702 126,-702 126,-642 0,-642"/>
</a>
</g>
</g>
<!-- Node4&#45;&gt;Node1 -->
<g id="edge6_Node000001_Node000004" class="edge">
<title>Node4&#45;&gt;Node1</title>
<g id="a_edge6_Node000001_Node000004"><a xlink:title=" ">
<path fill="none" stroke="#63b8ff" d="M57.26,-641.75C43.79,-566.51 15.25,-361.16 70,-204 77.23,-183.24 88.92,-163.06 101.86,-144.89"/>
<polygon fill="none" stroke="#63b8ff" points="102.02,-144.66 102.37,-137.46 109.15,-135.01 108.81,-142.21 102.02,-144.66"/>
</a>
</g>
<text text-anchor="middle" x="70.5" y="-337" font-family="Helvetica,sans-Serif" font-size="10.00" fill="grey"> &#45;mIdentity</text>
</g>
<!-- Node4&#45;&gt;Node3 -->
<g id="edge3_Node000003_Node000004" class="edge">
<title>Node4&#45;&gt;Node3</title>
<g id="a_edge3_Node000003_Node000004"><a xlink:title=" ">
<path fill="none" stroke="#63b8ff" d="M80.31,-641.99C86.52,-631.6 93.97,-619.11 101.94,-605.75"/>
<polygon fill="none" stroke="#63b8ff" points="101.98,-605.69 101.62,-598.48 108.13,-595.38 108.49,-602.58 101.98,-605.69"/>
</a>
</g>
<text text-anchor="middle" x="163.5" y="-616" font-family="Helvetica,sans-Serif" font-size="10.00" fill="grey"> #mpChangeOfBasisMatrix</text>
</g>
<!-- Node5 -->
<g id="Node000005" class="node">
<title>Node5</title>
<g id="a_Node000005"><a xlink:title=" ">
<polygon fill="white" stroke="transparent" points="89.5,-798 36.5,-798 36.5,-749 89.5,-749 89.5,-798"/>
<text text-anchor="start" x="42" y="-785.5" font-family="Helvetica,sans-Serif" font-size="10.00">c_matrix</text>
<text text-anchor="start" x="61.5" y="-770.5" font-family="Helvetica,sans-Serif" font-size="10.00"> </text>
<text text-anchor="start" x="61.5" y="-755.5" font-family="Helvetica,sans-Serif" font-size="10.00"> </text>
<polygon fill="#bfbfbf" stroke="#bfbfbf" points="37,-780.5 37,-780.5 90,-780.5 90,-780.5 37,-780.5"/>
<polygon fill="#bfbfbf" stroke="#bfbfbf" points="37,-765.5 37,-765.5 90,-765.5 90,-765.5 37,-765.5"/>
<polygon fill="none" stroke="#bfbfbf" points="36.5,-749 36.5,-798 89.5,-798 89.5,-749 36.5,-749"/>
</a>
</g>
</g>
<!-- Node5&#45;&gt;Node4 -->
<g id="edge4_Node000004_Node000005" class="edge">
<title>Node5&#45;&gt;Node4</title>
<g id="a_edge4_Node000004_Node000005"><a xlink:title=" ">
<path fill="none" stroke="orange" d="M63,-738.87C63,-726.94 63,-713.62 63,-702.1"/>
<polygon fill="orange" stroke="orange" points="59.5,-738.92 63,-748.92 66.5,-738.92 59.5,-738.92"/>
</a>
</g>
<text text-anchor="middle" x="118" y="-723" font-family="Helvetica,sans-Serif" font-size="10.00" fill="grey"> &lt; double, DIM, DIM &gt;</text>
</g>
<!-- Node6 -->
<g id="Node000006" class="node">
<title>Node6</title>
<g id="a_Node000006"><a xlink:title=" ">
<polygon fill="white" stroke="transparent" points="387,-290 283,-290 283,-230 387,-230 387,-290"/>
<text text-anchor="start" x="288" y="-278" font-family="Helvetica,sans-Serif" font-size="10.00">vector&lt; std::vector</text>
<text text-anchor="start" x="301.5" y="-267" font-family="Helvetica,sans-Serif" font-size="10.00">&lt; double &gt; &gt;</text>
<text text-anchor="start" x="333" y="-252" font-family="Helvetica,sans-Serif" font-size="10.00"> </text>
<text text-anchor="start" x="333" y="-237" font-family="Helvetica,sans-Serif" font-size="10.00"> </text>
<polygon fill="#bfbfbf" stroke="#bfbfbf" points="283,-262 283,-262 387,-262 387,-262 283,-262"/>
<polygon fill="#bfbfbf" stroke="#bfbfbf" points="283,-247 283,-247 387,-247 387,-247 283,-247"/>
<polygon fill="none" stroke="#bfbfbf" points="283,-230 283,-290 387,-290 387,-230 283,-230"/>
</a>
</g>
</g>
<!-- Node6&#45;&gt;Node1 -->
<g id="edge5_Node000001_Node000006" class="edge">
<title>Node6&#45;&gt;Node1</title>
<g id="a_edge5_Node000001_Node000006"><a xlink:title=" ">
<path fill="none" stroke="#63b8ff" d="M309.89,-229.65C290.38,-206.86 262.43,-174.19 236.78,-144.21"/>
<polygon fill="none" stroke="#63b8ff" points="236.71,-144.13 229.77,-142.17 228.91,-135.01 235.85,-136.97 236.71,-144.13"/>
</a>
</g>
<text text-anchor="middle" x="281" y="-178" font-family="Helvetica,sans-Serif" font-size="10.00" fill="grey"> &#45;mA</text>
<text text-anchor="middle" x="281" y="-167" font-family="Helvetica,sans-Serif" font-size="10.00" fill="grey">&#45;mB</text>
<text text-anchor="middle" x="281" y="-156" font-family="Helvetica,sans-Serif" font-size="10.00" fill="grey">&#45;mK</text>
</g>
</g>
</svg>
