<?xml version="1.0" encoding="UTF-8" standalone="no"?>
<!DOCTYPE svg PUBLIC "-//W3C//DTD SVG 1.1//EN"
 "http://www.w3.org/Graphics/SVG/1.1/DTD/svg11.dtd">
<!-- Generated by graphviz version 2.43.0 (0)
 -->
<!-- Title: AbstractConductivityModifier&lt; ELEMENT_DIM, SPACE_DIM &gt; Pages: 1 -->
<svg width="187pt" height="249pt"
 viewBox="0.00 0.00 187.00 249.00" xmlns="http://www.w3.org/2000/svg" xmlns:xlink="http://www.w3.org/1999/xlink">
<g id="graph0" class="graph" transform="scale(1 1) rotate(0) translate(4 245)">
<title>AbstractConductivityModifier&lt; ELEMENT_DIM, SPACE_DIM &gt;</title>
<!-- Node1 -->
<g id="Node000001" class="node">
<title>Node1</title>
<g id="a_Node000001"><a xlink:title=" ">
<polygon fill="#999999" stroke="transparent" points="179,-112 0,-112 0,0 179,0 179,-112"/>
<text text-anchor="start" x="12.5" y="-100" font-family="Helvetica,sans-Serif" font-size="10.00">AbstractConductivityModifier</text>
<text text-anchor="start" x="12.5" y="-89" font-family="Helvetica,sans-Serif" font-size="10.00">&lt; ELEMENT_DIM, SPACE_DIM &gt;</text>
<text text-anchor="start" x="88" y="-74" font-family="Helvetica,sans-Serif" font-size="10.00"> </text>
<text text-anchor="start" x="4.5" y="-59" font-family="Helvetica,sans-Serif" font-size="10.00">+</text>
<text text-anchor="start" x="17.5" y="-59" font-family="Helvetica,sans-Serif" font-size="10.00">~AbstractConductivityModifier()</text>
<text text-anchor="start" x="4.5" y="-44" font-family="Helvetica,sans-Serif" font-size="10.00">+</text>
<text text-anchor="start" x="17.5" y="-44" font-family="Helvetica,sans-Serif" font-size="10.00">rGetModifiedConductivity</text>
<text text-anchor="start" x="17.5" y="-33" font-family="Helvetica,sans-Serif" font-size="10.00">Tensor()</text>
<text text-anchor="start" x="4.5" y="-18" font-family="Helvetica,sans-Serif" font-size="10.00">+</text>
<text text-anchor="start" x="17.5" y="-18" font-family="Helvetica,sans-Serif" font-size="10.00">rCalculateModifiedConductivity</text>
<text text-anchor="start" x="17.5" y="-7" font-family="Helvetica,sans-Serif" font-size="10.00">Tensor()</text>
<polygon fill="#666666" stroke="#666666" points="0.5,-84 0.5,-84 179.5,-84 179.5,-84 0.5,-84"/>
<polygon fill="#666666" stroke="#666666" points="0.5,-69 0.5,-69 179.5,-69 179.5,-69 0.5,-69"/>
<polygon fill="none" stroke="#666666" points="0,0 0,-112 179,-112 179,0 0,0"/>
</a>
</g>
</g>
<!-- Node2 -->
<g id="Node000002" class="node">
<title>Node2</title>
<g id="a_Node000002"><a xlink:title=" ">
<polygon fill="white" stroke="transparent" points="149,-241 30,-241 30,-159 149,-159 149,-241"/>
<text text-anchor="start" x="35.5" y="-229" font-family="Helvetica,sans-Serif" font-size="10.00">vector&lt; std::pair&lt;</text>
<text text-anchor="start" x="35.5" y="-218" font-family="Helvetica,sans-Serif" font-size="10.00"> unsigned, c_matrix</text>
<text text-anchor="start" x="35.5" y="-207" font-family="Helvetica,sans-Serif" font-size="10.00">&lt; double, SPACE_DIM,</text>
<text text-anchor="start" x="43.5" y="-196" font-family="Helvetica,sans-Serif" font-size="10.00"> SPACE_DIM &gt; &gt; &gt;</text>
<text text-anchor="start" x="88" y="-181" font-family="Helvetica,sans-Serif" font-size="10.00"> </text>
<text text-anchor="start" x="88" y="-166" font-family="Helvetica,sans-Serif" font-size="10.00"> </text>
<polygon fill="#bfbfbf" stroke="#bfbfbf" points="30.5,-191 30.5,-191 149.5,-191 149.5,-191 30.5,-191"/>
<polygon fill="#bfbfbf" stroke="#bfbfbf" points="30.5,-176 30.5,-176 149.5,-176 149.5,-176 30.5,-176"/>
<polygon fill="none" stroke="#bfbfbf" points="30,-159 30,-241 149,-241 149,-159 30,-159"/>
</a>
</g>
</g>
<!-- Node2&#45;&gt;Node1 -->
<g id="edge1_Node000001_Node000002" class="edge">
<title>Node2&#45;&gt;Node1</title>
<g id="a_edge1_Node000001_Node000002"><a xlink:title=" ">
<path fill="none" stroke="#63b8ff" d="M89.5,-158.69C89.5,-147.98 89.5,-136.11 89.5,-124.38"/>
<polygon fill="none" stroke="#63b8ff" points="89.5,-124.26 85.5,-118.26 89.5,-112.26 93.5,-118.26 89.5,-124.26"/>
</a>
</g>
<text text-anchor="middle" x="113" y="-133" font-family="Helvetica,sans-Serif" font-size="10.00" fill="grey"> &#45;mCache</text>
</g>
</g>
</svg>
