<?xml version="1.0" encoding="UTF-8" standalone="no"?>
<!DOCTYPE svg PUBLIC "-//W3C//DTD SVG 1.1//EN"
 "http://www.w3.org/Graphics/SVG/1.1/DTD/svg11.dtd">
<!-- Generated by graphviz version 2.43.0 (0)
 -->
<!-- Title: GmshMeshReader&lt; ELEMENT_DIM, SPACE_DIM &gt; Pages: 1 -->
<svg width="684pt" height="690pt"
 viewBox="0.00 0.00 684.00 690.00" xmlns="http://www.w3.org/2000/svg" xmlns:xlink="http://www.w3.org/1999/xlink">
<g id="graph0" class="graph" transform="scale(1 1) rotate(0) translate(4 686)">
<title>GmshMeshReader&lt; ELEMENT_DIM, SPACE_DIM &gt;</title>
<!-- Node1 -->
<g id="Node000001" class="node">
<title>Node1</title>
<g id="a_Node000001"><a xlink:title=" ">
<polygon fill="#999999" stroke="transparent" points="403,-315 217,-315 217,0 403,0 403,-315"/>
<text text-anchor="start" x="236.5" y="-302.5" font-family="Helvetica,sans-Serif" font-size="10.00">GmshMeshReader&lt; ELEMENT</text>
<text text-anchor="start" x="261" y="-291.5" font-family="Helvetica,sans-Serif" font-size="10.00">_DIM, SPACE_DIM &gt;</text>
<text text-anchor="start" x="223.5" y="-276.5" font-family="Helvetica,sans-Serif" font-size="10.00">&#45;</text>
<text text-anchor="start" x="234" y="-276.5" font-family="Helvetica,sans-Serif" font-size="10.00">mTotalNumElementsAndFaces</text>
<text text-anchor="start" x="223.5" y="-261.5" font-family="Helvetica,sans-Serif" font-size="10.00">&#45;</text>
<text text-anchor="start" x="234" y="-261.5" font-family="Helvetica,sans-Serif" font-size="10.00">mOrderOfElements</text>
<text text-anchor="start" x="221" y="-246.5" font-family="Helvetica,sans-Serif" font-size="10.00">+</text>
<text text-anchor="start" x="234" y="-246.5" font-family="Helvetica,sans-Serif" font-size="10.00">GmshMeshReader()</text>
<text text-anchor="start" x="221" y="-231.5" font-family="Helvetica,sans-Serif" font-size="10.00">+</text>
<text text-anchor="start" x="234" y="-231.5" font-family="Helvetica,sans-Serif" font-size="10.00">~GmshMeshReader()</text>
<text text-anchor="start" x="221" y="-216.5" font-family="Helvetica,sans-Serif" font-size="10.00">+</text>
<text text-anchor="start" x="234" y="-216.5" font-family="Helvetica,sans-Serif" font-size="10.00">GetNumElements()</text>
<text text-anchor="start" x="221" y="-201.5" font-family="Helvetica,sans-Serif" font-size="10.00">+</text>
<text text-anchor="start" x="234" y="-201.5" font-family="Helvetica,sans-Serif" font-size="10.00">GetNumNodes()</text>
<text text-anchor="start" x="221" y="-186.5" font-family="Helvetica,sans-Serif" font-size="10.00">+</text>
<text text-anchor="start" x="234" y="-186.5" font-family="Helvetica,sans-Serif" font-size="10.00">GetNumFaces()</text>
<text text-anchor="start" x="221" y="-171.5" font-family="Helvetica,sans-Serif" font-size="10.00">+</text>
<text text-anchor="start" x="234" y="-171.5" font-family="Helvetica,sans-Serif" font-size="10.00">GetNumCableElements()</text>
<text text-anchor="start" x="221" y="-156.5" font-family="Helvetica,sans-Serif" font-size="10.00">+</text>
<text text-anchor="start" x="234" y="-156.5" font-family="Helvetica,sans-Serif" font-size="10.00">GetNumElementAttributes()</text>
<text text-anchor="start" x="221" y="-141.5" font-family="Helvetica,sans-Serif" font-size="10.00">+</text>
<text text-anchor="start" x="234" y="-141.5" font-family="Helvetica,sans-Serif" font-size="10.00">GetNumFaceAttributes()</text>
<text text-anchor="start" x="221" y="-126.5" font-family="Helvetica,sans-Serif" font-size="10.00">+</text>
<text text-anchor="start" x="234" y="-126.5" font-family="Helvetica,sans-Serif" font-size="10.00">GetNumCableElementAttributes()</text>
<text text-anchor="start" x="221" y="-111.5" font-family="Helvetica,sans-Serif" font-size="10.00">+</text>
<text text-anchor="start" x="234" y="-111.5" font-family="Helvetica,sans-Serif" font-size="10.00">GetOrderOfElements()</text>
<text text-anchor="start" x="234" y="-96.5" font-family="Helvetica,sans-Serif" font-size="10.00">and 10 more...</text>
<text text-anchor="start" x="223.5" y="-81.5" font-family="Helvetica,sans-Serif" font-size="10.00">&#45;</text>
<text text-anchor="start" x="234" y="-81.5" font-family="Helvetica,sans-Serif" font-size="10.00">ReadHeaders()</text>
<text text-anchor="start" x="223.5" y="-66.5" font-family="Helvetica,sans-Serif" font-size="10.00">&#45;</text>
<text text-anchor="start" x="234" y="-66.5" font-family="Helvetica,sans-Serif" font-size="10.00">ReadNodeHeader()</text>
<text text-anchor="start" x="223.5" y="-51.5" font-family="Helvetica,sans-Serif" font-size="10.00">&#45;</text>
<text text-anchor="start" x="234" y="-51.5" font-family="Helvetica,sans-Serif" font-size="10.00">ReadElementHeader()</text>
<text text-anchor="start" x="223.5" y="-36.5" font-family="Helvetica,sans-Serif" font-size="10.00">&#45;</text>
<text text-anchor="start" x="234" y="-36.5" font-family="Helvetica,sans-Serif" font-size="10.00">ReadFaceHeader()</text>
<text text-anchor="start" x="223.5" y="-21.5" font-family="Helvetica,sans-Serif" font-size="10.00">&#45;</text>
<text text-anchor="start" x="234" y="-21.5" font-family="Helvetica,sans-Serif" font-size="10.00">OpenFiles()</text>
<text text-anchor="start" x="223.5" y="-6.5" font-family="Helvetica,sans-Serif" font-size="10.00">&#45;</text>
<text text-anchor="start" x="234" y="-6.5" font-family="Helvetica,sans-Serif" font-size="10.00">CloseFiles()</text>
<polygon fill="#666666" stroke="#666666" points="217,-286.5 217,-286.5 403,-286.5 403,-286.5 217,-286.5"/>
<polygon fill="#666666" stroke="#666666" points="217,-256.5 217,-256.5 232,-256.5 232,-256.5 217,-256.5"/>
<polygon fill="#666666" stroke="#666666" points="232,-256.5 232,-256.5 403,-256.5 403,-256.5 232,-256.5"/>
<polygon fill="none" stroke="#666666" points="217,0 217,-315 403,-315 403,0 217,0"/>
</a>
</g>
</g>
<!-- Node2 -->
<g id="Node000002" class="node">
<title>Node2</title>
<g id="a_Node000002"><a xlink:href="classAbstractMeshReader.html" target="_top" xlink:title=" ">
<polygon fill="white" stroke="transparent" points="186,-682 0,-682 0,-472 186,-472 186,-682"/>
<text text-anchor="start" x="15.5" y="-670" font-family="Helvetica,sans-Serif" font-size="10.00">AbstractMeshReader</text>
<text text-anchor="start" x="15.5" y="-659" font-family="Helvetica,sans-Serif" font-size="10.00">&lt; ELEMENT_DIM, SPACE_DIM &gt;</text>
<text text-anchor="start" x="91" y="-644" font-family="Helvetica,sans-Serif" font-size="10.00"> </text>
<text text-anchor="start" x="4" y="-629" font-family="Helvetica,sans-Serif" font-size="10.00">+</text>
<text text-anchor="start" x="17" y="-629" font-family="Helvetica,sans-Serif" font-size="10.00">~AbstractMeshReader()</text>
<text text-anchor="start" x="4" y="-614" font-family="Helvetica,sans-Serif" font-size="10.00">+</text>
<text text-anchor="start" x="17" y="-614" font-family="Helvetica,sans-Serif" font-size="10.00">GetNumElements()</text>
<text text-anchor="start" x="4" y="-599" font-family="Helvetica,sans-Serif" font-size="10.00">+</text>
<text text-anchor="start" x="17" y="-599" font-family="Helvetica,sans-Serif" font-size="10.00">GetNumNodes()</text>
<text text-anchor="start" x="4" y="-584" font-family="Helvetica,sans-Serif" font-size="10.00">+</text>
<text text-anchor="start" x="17" y="-584" font-family="Helvetica,sans-Serif" font-size="10.00">GetNumFaces()</text>
<text text-anchor="start" x="4" y="-569" font-family="Helvetica,sans-Serif" font-size="10.00">+</text>
<text text-anchor="start" x="17" y="-569" font-family="Helvetica,sans-Serif" font-size="10.00">GetNumCableElements()</text>
<text text-anchor="start" x="4" y="-554" font-family="Helvetica,sans-Serif" font-size="10.00">+</text>
<text text-anchor="start" x="17" y="-554" font-family="Helvetica,sans-Serif" font-size="10.00">GetNumElementAttributes()</text>
<text text-anchor="start" x="4" y="-539" font-family="Helvetica,sans-Serif" font-size="10.00">+</text>
<text text-anchor="start" x="17" y="-539" font-family="Helvetica,sans-Serif" font-size="10.00">GetNumFaceAttributes()</text>
<text text-anchor="start" x="4" y="-524" font-family="Helvetica,sans-Serif" font-size="10.00">+</text>
<text text-anchor="start" x="17" y="-524" font-family="Helvetica,sans-Serif" font-size="10.00">GetNumCableElementAttributes()</text>
<text text-anchor="start" x="4" y="-509" font-family="Helvetica,sans-Serif" font-size="10.00">+</text>
<text text-anchor="start" x="17" y="-509" font-family="Helvetica,sans-Serif" font-size="10.00">GetNodeAttributes()</text>
<text text-anchor="start" x="4" y="-494" font-family="Helvetica,sans-Serif" font-size="10.00">+</text>
<text text-anchor="start" x="17" y="-494" font-family="Helvetica,sans-Serif" font-size="10.00">GetNumEdges()</text>
<text text-anchor="start" x="17" y="-479" font-family="Helvetica,sans-Serif" font-size="10.00">and 25 more...</text>
<polygon fill="#666666" stroke="#666666" points="0,-654 0,-654 186,-654 186,-654 0,-654"/>
<polygon fill="#666666" stroke="#666666" points="0,-639 0,-639 186,-639 186,-639 0,-639"/>
<polygon fill="none" stroke="#666666" points="0,-472 0,-682 186,-682 186,-472 0,-472"/>
</a>
</g>
</g>
<!-- Node2&#45;&gt;Node1 -->
<g id="edge1_Node000001_Node000002" class="edge">
<title>Node2&#45;&gt;Node1</title>
<g id="a_edge1_Node000001_Node000002"><a xlink:title=" ">
<path fill="none" stroke="#63b8ff" d="M151.73,-463.01C175.36,-417.55 203.01,-364.35 228.53,-315.25"/>
<polygon fill="none" stroke="#63b8ff" points="148.57,-461.51 147.06,-471.99 154.78,-464.73 148.57,-461.51"/>
</a>
</g>
</g>
<!-- Node3 -->
<g id="Node000003" class="node">
<title>Node3</title>
<g id="a_Node000003"><a xlink:title=" ">
<polygon fill="white" stroke="transparent" points="242,-601.5 204,-601.5 204,-552.5 242,-552.5 242,-601.5"/>
<text text-anchor="start" x="209" y="-589" font-family="Helvetica,sans-Serif" font-size="10.00">string</text>
<text text-anchor="start" x="221" y="-574" font-family="Helvetica,sans-Serif" font-size="10.00"> </text>
<text text-anchor="start" x="221" y="-559" font-family="Helvetica,sans-Serif" font-size="10.00"> </text>
<polygon fill="#bfbfbf" stroke="#bfbfbf" points="204,-584 204,-584 242,-584 242,-584 204,-584"/>
<polygon fill="#bfbfbf" stroke="#bfbfbf" points="204,-569 204,-569 242,-569 242,-569 204,-569"/>
<polygon fill="none" stroke="#bfbfbf" points="204,-552.5 204,-601.5 242,-601.5 242,-552.5 204,-552.5"/>
</a>
</g>
</g>
<!-- Node3&#45;&gt;Node1 -->
<g id="edge2_Node000001_Node000003" class="edge">
<title>Node3&#45;&gt;Node1</title>
<g id="a_edge2_Node000001_Node000003"><a xlink:title=" ">
<path fill="none" stroke="#63b8ff" d="M222.57,-552.2C222.27,-508.28 223.98,-411.79 242,-333 242.46,-330.98 242.94,-328.96 243.44,-326.93"/>
<polygon fill="none" stroke="#63b8ff" points="243.45,-326.87 241.09,-320.06 246.48,-315.26 248.84,-322.07 243.45,-326.87"/>
</a>
</g>
<text text-anchor="middle" x="274" y="-391" font-family="Helvetica,sans-Serif" font-size="10.00" fill="grey"> &#45;mFileName</text>
</g>
<!-- Node4 -->
<g id="Node000004" class="node">
<title>Node4</title>
<g id="a_Node000004"><a xlink:title=" ">
<polygon fill="white" stroke="transparent" points="336,-601.5 284,-601.5 284,-552.5 336,-552.5 336,-601.5"/>
<text text-anchor="start" x="289" y="-589" font-family="Helvetica,sans-Serif" font-size="10.00">ifstream</text>
<text text-anchor="start" x="308" y="-574" font-family="Helvetica,sans-Serif" font-size="10.00"> </text>
<text text-anchor="start" x="308" y="-559" font-family="Helvetica,sans-Serif" font-size="10.00"> </text>
<polygon fill="#bfbfbf" stroke="#bfbfbf" points="284,-584 284,-584 336,-584 336,-584 284,-584"/>
<polygon fill="#bfbfbf" stroke="#bfbfbf" points="284,-569 284,-569 336,-569 336,-569 284,-569"/>
<polygon fill="none" stroke="#bfbfbf" points="284,-552.5 284,-601.5 336,-601.5 336,-552.5 284,-552.5"/>
</a>
</g>
</g>
<!-- Node4&#45;&gt;Node1 -->
<g id="edge3_Node000001_Node000004" class="edge">
<title>Node4&#45;&gt;Node1</title>
<g id="a_edge3_Node000001_Node000004"><a xlink:title=" ">
<path fill="none" stroke="#63b8ff" d="M310,-552.36C310,-509.03 310,-413.42 310,-327.25"/>
<polygon fill="none" stroke="#63b8ff" points="310,-327.16 306,-321.16 310,-315.16 314,-321.16 310,-327.16"/>
</a>
</g>
<text text-anchor="middle" x="347.5" y="-402" font-family="Helvetica,sans-Serif" font-size="10.00" fill="grey"> &#45;mElementFile</text>
<text text-anchor="middle" x="347.5" y="-391" font-family="Helvetica,sans-Serif" font-size="10.00" fill="grey">&#45;mFaceFile</text>
<text text-anchor="middle" x="347.5" y="-380" font-family="Helvetica,sans-Serif" font-size="10.00" fill="grey">&#45;mNodeFile</text>
</g>
<!-- Node5 -->
<g id="Node000005" class="node">
<title>Node5</title>
<g id="a_Node000005"><a xlink:href="classdouble.html" target="_top" xlink:title=" ">
<polygon fill="white" stroke="transparent" points="430,-601.5 386,-601.5 386,-552.5 430,-552.5 430,-601.5"/>
<text text-anchor="start" x="391" y="-589" font-family="Helvetica,sans-Serif" font-size="10.00">double</text>
<text text-anchor="start" x="406" y="-574" font-family="Helvetica,sans-Serif" font-size="10.00"> </text>
<text text-anchor="start" x="406" y="-559" font-family="Helvetica,sans-Serif" font-size="10.00"> </text>
<polygon fill="#bfbfbf" stroke="#bfbfbf" points="386,-584 386,-584 430,-584 430,-584 386,-584"/>
<polygon fill="#bfbfbf" stroke="#bfbfbf" points="386,-569 386,-569 430,-569 430,-569 386,-569"/>
<polygon fill="none" stroke="#bfbfbf" points="386,-552.5 386,-601.5 430,-601.5 430,-552.5 386,-552.5"/>
</a>
</g>
</g>
<!-- Node5&#45;&gt;Node1 -->
<g id="edge4_Node000001_Node000005" class="edge">
<title>Node5&#45;&gt;Node1</title>
<g id="a_edge4_Node000001_Node000005"><a xlink:title=" ">
<path fill="none" stroke="#63b8ff" d="M408.34,-552.46C408.44,-508.58 406.11,-411.59 386,-333 385.48,-330.96 384.94,-328.92 384.38,-326.87"/>
<polygon fill="none" stroke="#63b8ff" points="384.3,-326.63 378.79,-321.98 380.95,-315.11 386.47,-319.75 384.3,-326.63"/>
</a>
</g>
<text text-anchor="middle" x="450" y="-391" font-family="Helvetica,sans-Serif" font-size="10.00" fill="grey"> &#45;mVersionNumber</text>
</g>
<!-- Node6 -->
<g id="Node000006" class="node">
<title>Node6</title>
<g id="a_Node000006"><a xlink:href="classunsigned.html" target="_top" xlink:title=" ">
<polygon fill="white" stroke="transparent" points="550.5,-601.5 495.5,-601.5 495.5,-552.5 550.5,-552.5 550.5,-601.5"/>
<text text-anchor="start" x="501" y="-589" font-family="Helvetica,sans-Serif" font-size="10.00">unsigned</text>
<text text-anchor="start" x="521.5" y="-574" font-family="Helvetica,sans-Serif" font-size="10.00"> </text>
<text text-anchor="start" x="521.5" y="-559" font-family="Helvetica,sans-Serif" font-size="10.00"> </text>
<polygon fill="#bfbfbf" stroke="#bfbfbf" points="496,-584 496,-584 551,-584 551,-584 496,-584"/>
<polygon fill="#bfbfbf" stroke="#bfbfbf" points="496,-569 496,-569 551,-569 551,-569 496,-569"/>
<polygon fill="none" stroke="#bfbfbf" points="495.5,-552.5 495.5,-601.5 550.5,-601.5 550.5,-552.5 495.5,-552.5"/>
</a>
</g>
</g>
<!-- Node6&#45;&gt;Node1 -->
<g id="edge5_Node000001_Node000006" class="edge">
<title>Node6&#45;&gt;Node1</title>
<g id="a_edge5_Node000001_Node000006"><a xlink:title=" ">
<path fill="none" stroke="#63b8ff" d="M526.12,-552.4C530.98,-507.16 536.39,-406.24 500,-333 479.87,-292.49 446.05,-256.78 412.47,-228.39"/>
<polygon fill="none" stroke="#63b8ff" points="412.27,-228.22 405.1,-227.49 403.02,-220.58 410.19,-221.32 412.27,-228.22"/>
</a>
</g>
<text text-anchor="middle" x="602" y="-446" font-family="Helvetica,sans-Serif" font-size="10.00" fill="grey"> &#45;mDataSize</text>
<text text-anchor="middle" x="602" y="-435" font-family="Helvetica,sans-Serif" font-size="10.00" fill="grey">&#45;mFileType</text>
<text text-anchor="middle" x="602" y="-424" font-family="Helvetica,sans-Serif" font-size="10.00" fill="grey">&#45;mNodesPerBoundaryElement</text>
<text text-anchor="middle" x="602" y="-413" font-family="Helvetica,sans-Serif" font-size="10.00" fill="grey">&#45;mNodesPerElement</text>
<text text-anchor="middle" x="602" y="-402" font-family="Helvetica,sans-Serif" font-size="10.00" fill="grey">&#45;mNumElementAttributes</text>
<text text-anchor="middle" x="602" y="-391" font-family="Helvetica,sans-Serif" font-size="10.00" fill="grey">&#45;mNumElements</text>
<text text-anchor="middle" x="602" y="-380" font-family="Helvetica,sans-Serif" font-size="10.00" fill="grey">&#45;mNumFaceAttributes</text>
<text text-anchor="middle" x="602" y="-369" font-family="Helvetica,sans-Serif" font-size="10.00" fill="grey">&#45;mNumFaces</text>
<text text-anchor="middle" x="602" y="-358" font-family="Helvetica,sans-Serif" font-size="10.00" fill="grey">&#45;mNumNodes</text>
<text text-anchor="middle" x="602" y="-347" font-family="Helvetica,sans-Serif" font-size="10.00" fill="grey">&#45;mOrderOfBoundaryElements</text>
<text text-anchor="middle" x="602" y="-336" font-family="Helvetica,sans-Serif" font-size="10.00" fill="grey">...</text>
</g>
</g>
</svg>
