<?xml version="1.0" encoding="UTF-8" standalone="no"?>
<!DOCTYPE svg PUBLIC "-//W3C//DTD SVG 1.1//EN"
 "http://www.w3.org/Graphics/SVG/1.1/DTD/svg11.dtd">
<!-- Generated by graphviz version 2.43.0 (0)
 -->
<!-- Title: VtkNonlinearElasticitySolutionWriter&lt; DIM &gt; Pages: 1 -->
<svg width="578pt" height="216pt"
 viewBox="0.00 0.00 578.00 216.00" xmlns="http://www.w3.org/2000/svg" xmlns:xlink="http://www.w3.org/1999/xlink">
<g id="graph0" class="graph" transform="scale(1 1) rotate(0) translate(4 212)">
<title>VtkNonlinearElasticitySolutionWriter&lt; DIM &gt;</title>
<!-- Node1 -->
<g id="Node000001" class="node">
<title>Node1</title>
<g id="a_Node000001"><a xlink:title=" ">
<polygon fill="#999999" stroke="transparent" points="344.5,-101 174.5,-101 174.5,0 344.5,0 344.5,-101"/>
<text text-anchor="start" x="185" y="-88.5" font-family="Helvetica,sans-Serif" font-size="10.00">VtkNonlinearElasticitySolution</text>
<text text-anchor="start" x="223" y="-77.5" font-family="Helvetica,sans-Serif" font-size="10.00">Writer&lt; DIM &gt;</text>
<text text-anchor="start" x="257.5" y="-62.5" font-family="Helvetica,sans-Serif" font-size="10.00"> </text>
<text text-anchor="start" x="178.5" y="-47.5" font-family="Helvetica,sans-Serif" font-size="10.00">+</text>
<text text-anchor="start" x="191.5" y="-47.5" font-family="Helvetica,sans-Serif" font-size="10.00">VtkNonlinearElasticitySolution</text>
<text text-anchor="start" x="191.5" y="-36.5" font-family="Helvetica,sans-Serif" font-size="10.00">Writer()</text>
<text text-anchor="start" x="178.5" y="-21.5" font-family="Helvetica,sans-Serif" font-size="10.00">+</text>
<text text-anchor="start" x="191.5" y="-21.5" font-family="Helvetica,sans-Serif" font-size="10.00">SetWriteElementWiseStrains()</text>
<text text-anchor="start" x="178.5" y="-6.5" font-family="Helvetica,sans-Serif" font-size="10.00">+</text>
<text text-anchor="start" x="191.5" y="-6.5" font-family="Helvetica,sans-Serif" font-size="10.00">Write()</text>
<polygon fill="#666666" stroke="#666666" points="174.5,-72.5 174.5,-72.5 344.5,-72.5 344.5,-72.5 174.5,-72.5"/>
<polygon fill="#666666" stroke="#666666" points="174.5,-57.5 174.5,-57.5 344.5,-57.5 344.5,-57.5 174.5,-57.5"/>
<polygon fill="none" stroke="#666666" points="174.5,0 174.5,-101 344.5,-101 344.5,0 174.5,0"/>
</a>
</g>
</g>
<!-- Node2 -->
<g id="Node000002" class="node">
<title>Node2</title>
<g id="a_Node000002"><a xlink:title=" ">
<polygon fill="white" stroke="transparent" points="143,-208 0,-208 0,-148 143,-148 143,-208"/>
<text text-anchor="start" x="5.5" y="-196" font-family="Helvetica,sans-Serif" font-size="10.00">AbstractNonlinearElasticity</text>
<text text-anchor="start" x="31" y="-185" font-family="Helvetica,sans-Serif" font-size="10.00">Solver&lt; DIM &gt; *</text>
<text text-anchor="start" x="70" y="-170" font-family="Helvetica,sans-Serif" font-size="10.00"> </text>
<text text-anchor="start" x="70" y="-155" font-family="Helvetica,sans-Serif" font-size="10.00"> </text>
<polygon fill="#bfbfbf" stroke="#bfbfbf" points="0.5,-180 0.5,-180 143.5,-180 143.5,-180 0.5,-180"/>
<polygon fill="#bfbfbf" stroke="#bfbfbf" points="0.5,-165 0.5,-165 143.5,-165 143.5,-165 0.5,-165"/>
<polygon fill="none" stroke="#bfbfbf" points="0,-148 0,-208 143,-208 143,-148 0,-148"/>
</a>
</g>
</g>
<!-- Node2&#45;&gt;Node1 -->
<g id="edge1_Node000001_Node000002" class="edge">
<title>Node2&#45;&gt;Node1</title>
<g id="a_edge1_Node000001_Node000002"><a xlink:title=" ">
<path fill="none" stroke="#63b8ff" d="M89.97,-147.82C97.34,-137.78 106.46,-127.05 116.5,-119 130.64,-107.66 147,-97.68 163.5,-89.11"/>
<polygon fill="none" stroke="#63b8ff" points="163.6,-89.05 167.18,-82.79 174.33,-83.68 170.76,-89.94 163.6,-89.05"/>
</a>
</g>
<text text-anchor="middle" x="143.5" y="-122" font-family="Helvetica,sans-Serif" font-size="10.00" fill="grey"> &#45;mpSolver</text>
</g>
<!-- Node3 -->
<g id="Node000003" class="node">
<title>Node3</title>
<g id="a_Node000003"><a xlink:href="classbool.html" target="_top" xlink:title=" ">
<polygon fill="white" stroke="transparent" points="193.5,-202.5 161.5,-202.5 161.5,-153.5 193.5,-153.5 193.5,-202.5"/>
<text text-anchor="start" x="166.5" y="-190" font-family="Helvetica,sans-Serif" font-size="10.00">bool</text>
<text text-anchor="start" x="175.5" y="-175" font-family="Helvetica,sans-Serif" font-size="10.00"> </text>
<text text-anchor="start" x="175.5" y="-160" font-family="Helvetica,sans-Serif" font-size="10.00"> </text>
<polygon fill="#bfbfbf" stroke="#bfbfbf" points="161.5,-185 161.5,-185 193.5,-185 193.5,-185 161.5,-185"/>
<polygon fill="#bfbfbf" stroke="#bfbfbf" points="161.5,-170 161.5,-170 193.5,-170 193.5,-170 161.5,-170"/>
<polygon fill="none" stroke="#bfbfbf" points="161.5,-153.5 161.5,-202.5 193.5,-202.5 193.5,-153.5 161.5,-153.5"/>
</a>
</g>
</g>
<!-- Node3&#45;&gt;Node1 -->
<g id="edge2_Node000001_Node000003" class="edge">
<title>Node3&#45;&gt;Node1</title>
<g id="a_edge2_Node000001_Node000003"><a xlink:title=" ">
<path fill="none" stroke="#63b8ff" d="M173.54,-153.39C172.78,-142.43 173.45,-129.54 178.5,-119 179.77,-116.35 181.19,-113.77 182.75,-111.26"/>
<polygon fill="none" stroke="#63b8ff" points="182.88,-111.09 183.12,-103.88 189.86,-101.33 189.62,-108.54 182.88,-111.09"/>
</a>
</g>
<text text-anchor="middle" x="249.5" y="-122" font-family="Helvetica,sans-Serif" font-size="10.00" fill="grey"> &#45;mWriteElementWiseStrains</text>
</g>
<!-- Node4 -->
<g id="Node000004" class="node">
<title>Node4</title>
<g id="a_Node000004"><a xlink:title=" ">
<polygon fill="white" stroke="transparent" points="391.5,-202.5 293.5,-202.5 293.5,-153.5 391.5,-153.5 391.5,-202.5"/>
<text text-anchor="start" x="298.5" y="-190" font-family="Helvetica,sans-Serif" font-size="10.00">enum StrainType_</text>
<text text-anchor="start" x="340.5" y="-175" font-family="Helvetica,sans-Serif" font-size="10.00"> </text>
<text text-anchor="start" x="340.5" y="-160" font-family="Helvetica,sans-Serif" font-size="10.00"> </text>
<polygon fill="#bfbfbf" stroke="#bfbfbf" points="293.5,-185 293.5,-185 391.5,-185 391.5,-185 293.5,-185"/>
<polygon fill="#bfbfbf" stroke="#bfbfbf" points="293.5,-170 293.5,-170 391.5,-170 391.5,-170 293.5,-170"/>
<polygon fill="none" stroke="#bfbfbf" points="293.5,-153.5 293.5,-202.5 391.5,-202.5 391.5,-153.5 293.5,-153.5"/>
</a>
</g>
</g>
<!-- Node4&#45;&gt;Node1 -->
<g id="edge3_Node000001_Node000004" class="edge">
<title>Node4&#45;&gt;Node1</title>
<g id="a_edge3_Node000001_Node000004"><a xlink:title=" ">
<path fill="none" stroke="#63b8ff" d="M335.8,-153.5C332.14,-142.57 327.02,-129.66 320.5,-119 318.82,-116.25 317.02,-113.51 315.13,-110.8"/>
<polygon fill="none" stroke="#63b8ff" points="315.1,-110.76 308.31,-108.32 307.95,-101.12 314.74,-103.55 315.1,-110.76"/>
</a>
</g>
<text text-anchor="middle" x="392" y="-122" font-family="Helvetica,sans-Serif" font-size="10.00" fill="grey"> &#45;mElementWiseStrainType</text>
</g>
<!-- Node5 -->
<g id="Node000005" class="node">
<title>Node5</title>
<g id="a_Node000005"><a xlink:title=" ">
<polygon fill="white" stroke="transparent" points="570,-208 427,-208 427,-148 570,-148 570,-208"/>
<text text-anchor="start" x="432.5" y="-196" font-family="Helvetica,sans-Serif" font-size="10.00">vector&lt; c_matrix&lt; double,</text>
<text text-anchor="start" x="463.5" y="-185" font-family="Helvetica,sans-Serif" font-size="10.00"> DIM, DIM &gt; &gt;</text>
<text text-anchor="start" x="497" y="-170" font-family="Helvetica,sans-Serif" font-size="10.00"> </text>
<text text-anchor="start" x="497" y="-155" font-family="Helvetica,sans-Serif" font-size="10.00"> </text>
<polygon fill="#bfbfbf" stroke="#bfbfbf" points="427.5,-180 427.5,-180 570.5,-180 570.5,-180 427.5,-180"/>
<polygon fill="#bfbfbf" stroke="#bfbfbf" points="427.5,-165 427.5,-165 570.5,-165 570.5,-165 427.5,-165"/>
<polygon fill="none" stroke="#bfbfbf" points="427,-148 427,-208 570,-208 570,-148 427,-148"/>
</a>
</g>
</g>
<!-- Node5&#45;&gt;Node1 -->
<g id="edge4_Node000001_Node000005" class="edge">
<title>Node5&#45;&gt;Node1</title>
<g id="a_edge4_Node000001_Node000005"><a xlink:title=" ">
<path fill="none" stroke="#63b8ff" d="M485.56,-147.72C479.78,-137.43 472.08,-126.56 462.5,-119 432.05,-94.97 392.66,-79.31 356.69,-69.19"/>
<polygon fill="none" stroke="#63b8ff" points="356.23,-69.07 349.4,-71.38 344.64,-65.97 351.47,-63.66 356.23,-69.07"/>
</a>
</g>
<text text-anchor="middle" x="508.5" y="-122" font-family="Helvetica,sans-Serif" font-size="10.00" fill="grey"> &#45;mTensorData</text>
</g>
</g>
</svg>
