<?xml version="1.0" encoding="UTF-8" standalone="no"?>
<!DOCTYPE svg PUBLIC "-//W3C//DTD SVG 1.1//EN"
 "http://www.w3.org/Graphics/SVG/1.1/DTD/svg11.dtd">
<!-- Generated by graphviz version 2.43.0 (0)
 -->
<!-- Title: EdgeOperation Pages: 1 -->
<svg width="660pt" height="545pt"
 viewBox="0.00 0.00 659.50 545.00" xmlns="http://www.w3.org/2000/svg" xmlns:xlink="http://www.w3.org/1999/xlink">
<g id="graph0" class="graph" transform="scale(1 1) rotate(0) translate(4 541)">
<title>EdgeOperation</title>
<!-- Node1 -->
<g id="Node000001" class="node">
<title>Node1</title>
<g id="a_Node000001"><a xlink:title=" ">
<polygon fill="#999999" stroke="transparent" points="274,-214 117,-214 117,0 274,0 274,-214"/>
<text text-anchor="start" x="159.5" y="-202" font-family="Helvetica,sans-Serif" font-size="10.00">EdgeOperation</text>
<text text-anchor="start" x="194" y="-187" font-family="Helvetica,sans-Serif" font-size="10.00"> </text>
<text text-anchor="start" x="121.5" y="-172" font-family="Helvetica,sans-Serif" font-size="10.00">+</text>
<text text-anchor="start" x="134.5" y="-172" font-family="Helvetica,sans-Serif" font-size="10.00">EdgeOperation()</text>
<text text-anchor="start" x="121.5" y="-157" font-family="Helvetica,sans-Serif" font-size="10.00">+</text>
<text text-anchor="start" x="134.5" y="-157" font-family="Helvetica,sans-Serif" font-size="10.00">EdgeOperation()</text>
<text text-anchor="start" x="121.5" y="-142" font-family="Helvetica,sans-Serif" font-size="10.00">+</text>
<text text-anchor="start" x="134.5" y="-142" font-family="Helvetica,sans-Serif" font-size="10.00">EdgeOperation()</text>
<text text-anchor="start" x="121.5" y="-127" font-family="Helvetica,sans-Serif" font-size="10.00">+</text>
<text text-anchor="start" x="134.5" y="-127" font-family="Helvetica,sans-Serif" font-size="10.00">GetOperation()</text>
<text text-anchor="start" x="121.5" y="-112" font-family="Helvetica,sans-Serif" font-size="10.00">+</text>
<text text-anchor="start" x="134.5" y="-112" font-family="Helvetica,sans-Serif" font-size="10.00">GetElementIndex()</text>
<text text-anchor="start" x="121.5" y="-97" font-family="Helvetica,sans-Serif" font-size="10.00">+</text>
<text text-anchor="start" x="134.5" y="-97" font-family="Helvetica,sans-Serif" font-size="10.00">SetElementIndex()</text>
<text text-anchor="start" x="121.5" y="-82" font-family="Helvetica,sans-Serif" font-size="10.00">+</text>
<text text-anchor="start" x="134.5" y="-82" font-family="Helvetica,sans-Serif" font-size="10.00">GetElementIndex2()</text>
<text text-anchor="start" x="121.5" y="-67" font-family="Helvetica,sans-Serif" font-size="10.00">+</text>
<text text-anchor="start" x="134.5" y="-67" font-family="Helvetica,sans-Serif" font-size="10.00">SetElementIndex2()</text>
<text text-anchor="start" x="121.5" y="-52" font-family="Helvetica,sans-Serif" font-size="10.00">+</text>
<text text-anchor="start" x="134.5" y="-52" font-family="Helvetica,sans-Serif" font-size="10.00">rGetRemapInfo()</text>
<text text-anchor="start" x="121.5" y="-37" font-family="Helvetica,sans-Serif" font-size="10.00">+</text>
<text text-anchor="start" x="134.5" y="-37" font-family="Helvetica,sans-Serif" font-size="10.00">rGetRemapInfo2()</text>
<text text-anchor="start" x="121.5" y="-22" font-family="Helvetica,sans-Serif" font-size="10.00">+</text>
<text text-anchor="start" x="134.5" y="-22" font-family="Helvetica,sans-Serif" font-size="10.00">IsElementIndexRemapped()</text>
<text text-anchor="start" x="124" y="-7" font-family="Helvetica,sans-Serif" font-size="10.00">&#45;</text>
<text text-anchor="start" x="134.5" y="-7" font-family="Helvetica,sans-Serif" font-size="10.00">serialize()</text>
<polygon fill="#666666" stroke="#666666" points="117.5,-197 117.5,-197 274.5,-197 274.5,-197 117.5,-197"/>
<polygon fill="#666666" stroke="#666666" points="117.5,-182 117.5,-182 274.5,-182 274.5,-182 117.5,-182"/>
<polygon fill="none" stroke="#666666" points="117,0 117,-214 274,-214 274,0 117,0"/>
</a>
</g>
</g>
<!-- Node2 -->
<g id="Node000002" class="node">
<title>Node2</title>
<g id="a_Node000002"><a xlink:title=" ">
<polygon fill="white" stroke="transparent" points="99,-381 0,-381 0,-332 99,-332 99,-381"/>
<text text-anchor="start" x="5.5" y="-368.5" font-family="Helvetica,sans-Serif" font-size="10.00">EDGE_OPERATION</text>
<text text-anchor="start" x="48" y="-353.5" font-family="Helvetica,sans-Serif" font-size="10.00"> </text>
<text text-anchor="start" x="48" y="-338.5" font-family="Helvetica,sans-Serif" font-size="10.00"> </text>
<polygon fill="#bfbfbf" stroke="#bfbfbf" points="0.5,-363.5 0.5,-363.5 99.5,-363.5 99.5,-363.5 0.5,-363.5"/>
<polygon fill="#bfbfbf" stroke="#bfbfbf" points="0.5,-348.5 0.5,-348.5 99.5,-348.5 99.5,-348.5 0.5,-348.5"/>
<polygon fill="none" stroke="#bfbfbf" points="0,-332 0,-381 99,-381 99,-332 0,-332"/>
</a>
</g>
</g>
<!-- Node2&#45;&gt;Node1 -->
<g id="edge1_Node000001_Node000002" class="edge">
<title>Node2&#45;&gt;Node1</title>
<g id="a_edge1_Node000001_Node000002"><a xlink:title=" ">
<path fill="none" stroke="#63b8ff" d="M50.08,-331.87C51.59,-305.98 56.71,-263.89 73.5,-232 82.65,-214.63 95.01,-198.08 108.38,-183.06"/>
<polygon fill="none" stroke="#63b8ff" points="108.68,-182.74 109.8,-175.62 116.81,-173.92 115.68,-181.04 108.68,-182.74"/>
</a>
</g>
<text text-anchor="middle" x="106" y="-240.5" font-family="Helvetica,sans-Serif" font-size="10.00" fill="grey"> &#45;mOperation</text>
</g>
<!-- Node3 -->
<g id="Node000003" class="node">
<title>Node3</title>
<g id="a_Node000003"><a xlink:href="classunsigned.html" target="_top" xlink:title=" ">
<polygon fill="white" stroke="transparent" points="172,-381 117,-381 117,-332 172,-332 172,-381"/>
<text text-anchor="start" x="122.5" y="-368.5" font-family="Helvetica,sans-Serif" font-size="10.00">unsigned</text>
<text text-anchor="start" x="143" y="-353.5" font-family="Helvetica,sans-Serif" font-size="10.00"> </text>
<text text-anchor="start" x="143" y="-338.5" font-family="Helvetica,sans-Serif" font-size="10.00"> </text>
<polygon fill="#bfbfbf" stroke="#bfbfbf" points="117.5,-363.5 117.5,-363.5 172.5,-363.5 172.5,-363.5 117.5,-363.5"/>
<polygon fill="#bfbfbf" stroke="#bfbfbf" points="117.5,-348.5 117.5,-348.5 172.5,-348.5 172.5,-348.5 117.5,-348.5"/>
<polygon fill="none" stroke="#bfbfbf" points="117,-332 117,-381 172,-381 172,-332 117,-332"/>
</a>
</g>
</g>
<!-- Node3&#45;&gt;Node1 -->
<g id="edge2_Node000001_Node000003" class="edge">
<title>Node3&#45;&gt;Node1</title>
<g id="a_edge2_Node000001_Node000003"><a xlink:title=" ">
<path fill="none" stroke="#63b8ff" d="M142.07,-331.56C140.14,-306.48 138.75,-266.07 145.5,-232 145.9,-229.97 146.34,-227.92 146.81,-225.87"/>
<polygon fill="none" stroke="#63b8ff" points="146.84,-225.72 144.44,-218.92 149.78,-214.09 152.19,-220.88 146.84,-225.72"/>
</a>
</g>
<text text-anchor="middle" x="189.5" y="-246" font-family="Helvetica,sans-Serif" font-size="10.00" fill="grey"> &#45;mElementIndex</text>
<text text-anchor="middle" x="189.5" y="-235" font-family="Helvetica,sans-Serif" font-size="10.00" fill="grey">&#45;mElementIndex2</text>
</g>
<!-- Node4 -->
<g id="Node000004" class="node">
<title>Node4</title>
<g id="a_Node000004"><a xlink:href="classEdgeRemapInfo.html" target="_top" xlink:title=" ">
<polygon fill="white" stroke="transparent" points="534.5,-441 410.5,-441 410.5,-272 534.5,-272 534.5,-441"/>
<text text-anchor="start" x="433.5" y="-428.5" font-family="Helvetica,sans-Serif" font-size="10.00">EdgeRemapInfo</text>
<text text-anchor="start" x="470.5" y="-413.5" font-family="Helvetica,sans-Serif" font-size="10.00"> </text>
<text text-anchor="start" x="414.5" y="-398.5" font-family="Helvetica,sans-Serif" font-size="10.00">+</text>
<text text-anchor="start" x="427.5" y="-398.5" font-family="Helvetica,sans-Serif" font-size="10.00">EdgeRemapInfo()</text>
<text text-anchor="start" x="414.5" y="-383.5" font-family="Helvetica,sans-Serif" font-size="10.00">+</text>
<text text-anchor="start" x="427.5" y="-383.5" font-family="Helvetica,sans-Serif" font-size="10.00">~EdgeRemapInfo()</text>
<text text-anchor="start" x="414.5" y="-368.5" font-family="Helvetica,sans-Serif" font-size="10.00">+</text>
<text text-anchor="start" x="427.5" y="-368.5" font-family="Helvetica,sans-Serif" font-size="10.00">EdgeRemapInfo()</text>
<text text-anchor="start" x="414.5" y="-353.5" font-family="Helvetica,sans-Serif" font-size="10.00">+</text>
<text text-anchor="start" x="427.5" y="-353.5" font-family="Helvetica,sans-Serif" font-size="10.00">GetEdgesMapping()</text>
<text text-anchor="start" x="414.5" y="-338.5" font-family="Helvetica,sans-Serif" font-size="10.00">+</text>
<text text-anchor="start" x="427.5" y="-338.5" font-family="Helvetica,sans-Serif" font-size="10.00">GetEdgesStatus()</text>
<text text-anchor="start" x="414.5" y="-323.5" font-family="Helvetica,sans-Serif" font-size="10.00">+</text>
<text text-anchor="start" x="427.5" y="-323.5" font-family="Helvetica,sans-Serif" font-size="10.00">GetSplitProportions()</text>
<text text-anchor="start" x="414.5" y="-308.5" font-family="Helvetica,sans-Serif" font-size="10.00">+</text>
<text text-anchor="start" x="427.5" y="-308.5" font-family="Helvetica,sans-Serif" font-size="10.00">SetSplitProportions()</text>
<text text-anchor="start" x="414.5" y="-293.5" font-family="Helvetica,sans-Serif" font-size="10.00">+</text>
<text text-anchor="start" x="427.5" y="-293.5" font-family="Helvetica,sans-Serif" font-size="10.00">GetUnused()</text>
<text text-anchor="start" x="417" y="-278.5" font-family="Helvetica,sans-Serif" font-size="10.00">&#45;</text>
<text text-anchor="start" x="427.5" y="-278.5" font-family="Helvetica,sans-Serif" font-size="10.00">serialize()</text>
<polygon fill="#666666" stroke="#666666" points="410.5,-423.5 410.5,-423.5 534.5,-423.5 534.5,-423.5 410.5,-423.5"/>
<polygon fill="#666666" stroke="#666666" points="410.5,-408.5 410.5,-408.5 534.5,-408.5 534.5,-408.5 410.5,-408.5"/>
<polygon fill="none" stroke="#666666" points="410.5,-272 410.5,-441 534.5,-441 534.5,-272 410.5,-272"/>
</a>
</g>
</g>
<!-- Node4&#45;&gt;Node1 -->
<g id="edge3_Node000001_Node000004" class="edge">
<title>Node4&#45;&gt;Node1</title>
<g id="a_edge3_Node000001_Node000004"><a xlink:title=" ">
<path fill="none" stroke="#63b8ff" d="M410.22,-285.5C405.66,-280.85 401.05,-276.31 396.5,-272 361.08,-238.45 319.65,-203.93 283.64,-175.27"/>
<polygon fill="none" stroke="#63b8ff" points="283.53,-175.18 276.34,-174.59 274.12,-167.73 281.31,-168.32 283.53,-175.18"/>
</a>
</g>
<text text-anchor="middle" x="413" y="-246" font-family="Helvetica,sans-Serif" font-size="10.00" fill="grey"> &#45;mRemapInfo</text>
<text text-anchor="middle" x="413" y="-235" font-family="Helvetica,sans-Serif" font-size="10.00" fill="grey">&#45;mRemapInfo2</text>
</g>
<!-- Node5 -->
<g id="Node000005" class="node">
<title>Node5</title>
<g id="a_Node000005"><a xlink:href="classbool.html" target="_top" xlink:title=" ">
<polygon fill="white" stroke="transparent" points="280.5,-537 248.5,-537 248.5,-488 280.5,-488 280.5,-537"/>
<text text-anchor="start" x="253.5" y="-524.5" font-family="Helvetica,sans-Serif" font-size="10.00">bool</text>
<text text-anchor="start" x="262.5" y="-509.5" font-family="Helvetica,sans-Serif" font-size="10.00"> </text>
<text text-anchor="start" x="262.5" y="-494.5" font-family="Helvetica,sans-Serif" font-size="10.00"> </text>
<polygon fill="#bfbfbf" stroke="#bfbfbf" points="248.5,-519.5 248.5,-519.5 280.5,-519.5 280.5,-519.5 248.5,-519.5"/>
<polygon fill="#bfbfbf" stroke="#bfbfbf" points="248.5,-504.5 248.5,-504.5 280.5,-504.5 280.5,-504.5 248.5,-504.5"/>
<polygon fill="none" stroke="#bfbfbf" points="248.5,-488 248.5,-537 280.5,-537 280.5,-488 248.5,-488"/>
</a>
</g>
</g>
<!-- Node5&#45;&gt;Node1 -->
<g id="edge8_Node000001_Node000005" class="edge">
<title>Node5&#45;&gt;Node1</title>
<g id="a_edge8_Node000001_Node000005"><a xlink:title=" ">
<path fill="none" stroke="#63b8ff" d="M261.78,-487.68C260.22,-474.02 258.24,-456.55 256.5,-441 246.12,-348.13 252.38,-323.52 233.5,-232 233.09,-229.99 232.65,-227.97 232.2,-225.94"/>
<polygon fill="none" stroke="#63b8ff" points="232.19,-225.88 226.93,-220.95 229.46,-214.2 234.72,-219.13 232.19,-225.88"/>
</a>
</g>
<text text-anchor="middle" x="329" y="-354" font-family="Helvetica,sans-Serif" font-size="10.00" fill="grey"> &#45;mIsElementIndexRemapped</text>
</g>
<!-- Node5&#45;&gt;Node4 -->
<g id="edge4_Node000004_Node000005" class="edge">
<title>Node5&#45;&gt;Node4</title>
<g id="a_edge4_Node000004_Node000005"><a xlink:title=" ">
<path fill="none" stroke="#63b8ff" d="M280.62,-490.17C289.95,-479.26 302.58,-466.71 316.5,-459 348.38,-441.34 365,-459.32 396.5,-441 397.83,-440.22 399.16,-439.42 400.47,-438.58"/>
<polygon fill="none" stroke="#63b8ff" points="400.5,-438.56 403.11,-431.83 410.32,-431.65 407.71,-438.38 400.5,-438.56"/>
</a>
</g>
<text text-anchor="middle" x="343.5" y="-462" font-family="Helvetica,sans-Serif" font-size="10.00" fill="grey"> &#45;mUnused</text>
</g>
<!-- Node6 -->
<g id="Node000006" class="node">
<title>Node6</title>
<g id="a_Node000006"><a xlink:title=" ">
<polygon fill="white" stroke="transparent" points="400,-537 315,-537 315,-488 400,-488 400,-537"/>
<text text-anchor="start" x="320.5" y="-524.5" font-family="Helvetica,sans-Serif" font-size="10.00">vector&lt; long &gt;</text>
<text text-anchor="start" x="356" y="-509.5" font-family="Helvetica,sans-Serif" font-size="10.00"> </text>
<text text-anchor="start" x="356" y="-494.5" font-family="Helvetica,sans-Serif" font-size="10.00"> </text>
<polygon fill="#bfbfbf" stroke="#bfbfbf" points="315.5,-519.5 315.5,-519.5 400.5,-519.5 400.5,-519.5 315.5,-519.5"/>
<polygon fill="#bfbfbf" stroke="#bfbfbf" points="315.5,-504.5 315.5,-504.5 400.5,-504.5 400.5,-504.5 315.5,-504.5"/>
<polygon fill="none" stroke="#bfbfbf" points="315,-488 315,-537 400,-537 400,-488 315,-488"/>
</a>
</g>
</g>
<!-- Node6&#45;&gt;Node4 -->
<g id="edge5_Node000004_Node000006" class="edge">
<title>Node6&#45;&gt;Node4</title>
<g id="a_edge5_Node000004_Node000006"><a xlink:title=" ">
<path fill="none" stroke="#63b8ff" d="M365.92,-487.93C369.75,-478.58 374.71,-467.94 380.5,-459 380.82,-458.5 389.91,-448.42 402.26,-434.8"/>
<polygon fill="none" stroke="#63b8ff" points="402.26,-434.79 403.32,-427.66 410.32,-425.9 409.25,-433.04 402.26,-434.79"/>
</a>
</g>
<text text-anchor="middle" x="424.5" y="-462" font-family="Helvetica,sans-Serif" font-size="10.00" fill="grey"> &#45;mEdgesMapping</text>
</g>
<!-- Node7 -->
<g id="Node000007" class="node">
<title>Node7</title>
<g id="a_Node000007"><a xlink:title=" ">
<polygon fill="white" stroke="transparent" points="526.5,-537 418.5,-537 418.5,-488 526.5,-488 526.5,-537"/>
<text text-anchor="start" x="423.5" y="-524.5" font-family="Helvetica,sans-Serif" font-size="10.00">vector&lt; unsigned &gt;</text>
<text text-anchor="start" x="470.5" y="-509.5" font-family="Helvetica,sans-Serif" font-size="10.00"> </text>
<text text-anchor="start" x="470.5" y="-494.5" font-family="Helvetica,sans-Serif" font-size="10.00"> </text>
<polygon fill="#bfbfbf" stroke="#bfbfbf" points="418.5,-519.5 418.5,-519.5 526.5,-519.5 526.5,-519.5 418.5,-519.5"/>
<polygon fill="#bfbfbf" stroke="#bfbfbf" points="418.5,-504.5 418.5,-504.5 526.5,-504.5 526.5,-504.5 418.5,-504.5"/>
<polygon fill="none" stroke="#bfbfbf" points="418.5,-488 418.5,-537 526.5,-537 526.5,-488 418.5,-488"/>
</a>
</g>
</g>
<!-- Node7&#45;&gt;Node4 -->
<g id="edge6_Node000004_Node000007" class="edge">
<title>Node7&#45;&gt;Node4</title>
<g id="a_edge6_Node000004_Node000007"><a xlink:title=" ">
<path fill="none" stroke="#63b8ff" d="M472.5,-487.77C472.5,-478.06 472.5,-466.12 472.5,-453.45"/>
<polygon fill="none" stroke="#63b8ff" points="472.5,-453.13 468.5,-447.13 472.5,-441.13 476.5,-447.13 472.5,-453.13"/>
</a>
</g>
<text text-anchor="middle" x="508.5" y="-462" font-family="Helvetica,sans-Serif" font-size="10.00" fill="grey"> &#45;mEdgeStatus</text>
</g>
<!-- Node8 -->
<g id="Node000008" class="node">
<title>Node8</title>
<g id="a_Node000008"><a xlink:title=" ">
<polygon fill="white" stroke="transparent" points="642,-537 545,-537 545,-488 642,-488 642,-537"/>
<text text-anchor="start" x="550.5" y="-524.5" font-family="Helvetica,sans-Serif" font-size="10.00">vector&lt; double &gt;</text>
<text text-anchor="start" x="592" y="-509.5" font-family="Helvetica,sans-Serif" font-size="10.00"> </text>
<text text-anchor="start" x="592" y="-494.5" font-family="Helvetica,sans-Serif" font-size="10.00"> </text>
<polygon fill="#bfbfbf" stroke="#bfbfbf" points="545.5,-519.5 545.5,-519.5 642.5,-519.5 642.5,-519.5 545.5,-519.5"/>
<polygon fill="#bfbfbf" stroke="#bfbfbf" points="545.5,-504.5 545.5,-504.5 642.5,-504.5 642.5,-504.5 545.5,-504.5"/>
<polygon fill="none" stroke="#bfbfbf" points="545,-488 545,-537 642,-537 642,-488 545,-488"/>
</a>
</g>
</g>
<!-- Node8&#45;&gt;Node4 -->
<g id="edge7_Node000004_Node000008" class="edge">
<title>Node8&#45;&gt;Node4</title>
<g id="a_edge7_Node000004_Node000008"><a xlink:title=" ">
<path fill="none" stroke="#63b8ff" d="M574.86,-487.77C565.8,-476.25 554.29,-461.59 542.27,-446.3"/>
<polygon fill="none" stroke="#63b8ff" points="542.16,-446.16 535.31,-443.91 534.75,-436.72 541.6,-438.97 542.16,-446.16"/>
</a>
</g>
<text text-anchor="middle" x="604.5" y="-462" font-family="Helvetica,sans-Serif" font-size="10.00" fill="grey"> &#45;mSplitProportions</text>
</g>
</g>
</svg>
