<?xml version="1.0" encoding="UTF-8" standalone="no"?>
<!DOCTYPE svg PUBLIC "-//W3C//DTD SVG 1.1//EN"
 "http://www.w3.org/Graphics/SVG/1.1/DTD/svg11.dtd">
<!-- Generated by graphviz version 2.43.0 (0)
 -->
<!-- Title: CellCycleModelOdeHandler Pages: 1 -->
<svg width="691pt" height="1592pt"
 viewBox="0.00 0.00 691.00 1592.00" xmlns="http://www.w3.org/2000/svg" xmlns:xlink="http://www.w3.org/1999/xlink">
<g id="graph0" class="graph" transform="scale(1 1) rotate(0) translate(4 1588)">
<title>CellCycleModelOdeHandler</title>
<!-- Node1 -->
<g id="Node000001" class="node">
<title>Node1</title>
<g id="a_Node000001"><a xlink:title=" ">
<polygon fill="#999999" stroke="transparent" points="440,-285 269,-285 269,0 440,0 440,-285"/>
<text text-anchor="start" x="288" y="-272.5" font-family="Helvetica,sans-Serif" font-size="10.00">CellCycleModelOdeHandler</text>
<text text-anchor="start" x="353" y="-257.5" font-family="Helvetica,sans-Serif" font-size="10.00"> </text>
<text text-anchor="start" x="273.5" y="-242.5" font-family="Helvetica,sans-Serif" font-size="10.00">+</text>
<text text-anchor="start" x="286.5" y="-242.5" font-family="Helvetica,sans-Serif" font-size="10.00">CellCycleModelOdeHandler()</text>
<text text-anchor="start" x="273.5" y="-227.5" font-family="Helvetica,sans-Serif" font-size="10.00">+</text>
<text text-anchor="start" x="286.5" y="-227.5" font-family="Helvetica,sans-Serif" font-size="10.00">~CellCycleModelOdeHandler()</text>
<text text-anchor="start" x="273.5" y="-212.5" font-family="Helvetica,sans-Serif" font-size="10.00">+</text>
<text text-anchor="start" x="286.5" y="-212.5" font-family="Helvetica,sans-Serif" font-size="10.00">GetOdeSystem()</text>
<text text-anchor="start" x="273.5" y="-197.5" font-family="Helvetica,sans-Serif" font-size="10.00">+</text>
<text text-anchor="start" x="286.5" y="-197.5" font-family="Helvetica,sans-Serif" font-size="10.00">SetOdeSystem()</text>
<text text-anchor="start" x="273.5" y="-182.5" font-family="Helvetica,sans-Serif" font-size="10.00">+</text>
<text text-anchor="start" x="286.5" y="-182.5" font-family="Helvetica,sans-Serif" font-size="10.00">GetOdeSolver()</text>
<text text-anchor="start" x="273.5" y="-167.5" font-family="Helvetica,sans-Serif" font-size="10.00">+</text>
<text text-anchor="start" x="286.5" y="-167.5" font-family="Helvetica,sans-Serif" font-size="10.00">SetLastTime()</text>
<text text-anchor="start" x="273.5" y="-152.5" font-family="Helvetica,sans-Serif" font-size="10.00">+</text>
<text text-anchor="start" x="286.5" y="-152.5" font-family="Helvetica,sans-Serif" font-size="10.00">GetDt()</text>
<text text-anchor="start" x="273.5" y="-137.5" font-family="Helvetica,sans-Serif" font-size="10.00">+</text>
<text text-anchor="start" x="286.5" y="-137.5" font-family="Helvetica,sans-Serif" font-size="10.00">SetDt()</text>
<text text-anchor="start" x="273.5" y="-122.5" font-family="Helvetica,sans-Serif" font-size="10.00">+</text>
<text text-anchor="start" x="286.5" y="-122.5" font-family="Helvetica,sans-Serif" font-size="10.00">SetStateVariables()</text>
<text text-anchor="start" x="273.5" y="-107.5" font-family="Helvetica,sans-Serif" font-size="10.00">+</text>
<text text-anchor="start" x="286.5" y="-107.5" font-family="Helvetica,sans-Serif" font-size="10.00">GetProteinConcentrations()</text>
<text text-anchor="start" x="273.5" y="-92.5" font-family="Helvetica,sans-Serif" font-size="10.00">+</text>
<text text-anchor="start" x="286.5" y="-92.5" font-family="Helvetica,sans-Serif" font-size="10.00">SetProteinConcentrations</text>
<text text-anchor="start" x="286.5" y="-81.5" font-family="Helvetica,sans-Serif" font-size="10.00">ForTestsOnly()</text>
<text text-anchor="start" x="273.5" y="-66.5" font-family="Helvetica,sans-Serif" font-size="10.00">#</text>
<text text-anchor="start" x="286.5" y="-66.5" font-family="Helvetica,sans-Serif" font-size="10.00">CellCycleModelOdeHandler()</text>
<text text-anchor="start" x="273.5" y="-51.5" font-family="Helvetica,sans-Serif" font-size="10.00">#</text>
<text text-anchor="start" x="286.5" y="-51.5" font-family="Helvetica,sans-Serif" font-size="10.00">SolveOdeToTime()</text>
<text text-anchor="start" x="273.5" y="-36.5" font-family="Helvetica,sans-Serif" font-size="10.00">#</text>
<text text-anchor="start" x="286.5" y="-36.5" font-family="Helvetica,sans-Serif" font-size="10.00">AdjustOdeParameters()</text>
<text text-anchor="start" x="276" y="-21.5" font-family="Helvetica,sans-Serif" font-size="10.00">&#45;</text>
<text text-anchor="start" x="286.5" y="-21.5" font-family="Helvetica,sans-Serif" font-size="10.00">serialize()</text>
<text text-anchor="start" x="276" y="-6.5" font-family="Helvetica,sans-Serif" font-size="10.00">&#45;</text>
<text text-anchor="start" x="286.5" y="-6.5" font-family="Helvetica,sans-Serif" font-size="10.00">operator=()</text>
<polygon fill="#666666" stroke="#666666" points="269.5,-267.5 269.5,-267.5 440.5,-267.5 440.5,-267.5 269.5,-267.5"/>
<polygon fill="#666666" stroke="#666666" points="269.5,-252.5 269.5,-252.5 440.5,-252.5 440.5,-252.5 269.5,-252.5"/>
<polygon fill="none" stroke="#666666" points="269,0 269,-285 440,-285 440,0 269,0"/>
</a>
</g>
</g>
<!-- Node2 -->
<g id="Node000002" class="node">
<title>Node2</title>
<g id="a_Node000002"><a xlink:href="classdouble.html" target="_top" xlink:title=" ">
<polygon fill="white" stroke="transparent" points="189.5,-452 145.5,-452 145.5,-403 189.5,-403 189.5,-452"/>
<text text-anchor="start" x="150.5" y="-439.5" font-family="Helvetica,sans-Serif" font-size="10.00">double</text>
<text text-anchor="start" x="165.5" y="-424.5" font-family="Helvetica,sans-Serif" font-size="10.00"> </text>
<text text-anchor="start" x="165.5" y="-409.5" font-family="Helvetica,sans-Serif" font-size="10.00"> </text>
<polygon fill="#bfbfbf" stroke="#bfbfbf" points="145.5,-434.5 145.5,-434.5 189.5,-434.5 189.5,-434.5 145.5,-434.5"/>
<polygon fill="#bfbfbf" stroke="#bfbfbf" points="145.5,-419.5 145.5,-419.5 189.5,-419.5 189.5,-419.5 145.5,-419.5"/>
<polygon fill="none" stroke="#bfbfbf" points="145.5,-403 145.5,-452 189.5,-452 189.5,-403 145.5,-403"/>
</a>
</g>
</g>
<!-- Node2&#45;&gt;Node1 -->
<g id="edge1_Node000001_Node000002" class="edge">
<title>Node2&#45;&gt;Node1</title>
<g id="a_edge1_Node000001_Node000002"><a xlink:title=" ">
<path fill="none" stroke="#63b8ff" d="M174.1,-402.98C179.42,-385.76 187.79,-362.17 198.5,-343 216.28,-311.19 238.89,-279.07 261.35,-250.17"/>
<polygon fill="none" stroke="#63b8ff" points="261.54,-249.93 262.1,-242.74 268.96,-240.49 268.39,-247.68 261.54,-249.93"/>
</a>
</g>
<text text-anchor="middle" x="252.5" y="-317" font-family="Helvetica,sans-Serif" font-size="10.00" fill="grey"> #mDt</text>
<text text-anchor="middle" x="252.5" y="-306" font-family="Helvetica,sans-Serif" font-size="10.00" fill="grey">#mLastTime</text>
</g>
<!-- Node3 -->
<g id="Node000003" class="node">
<title>Node3</title>
<g id="a_Node000003"><a xlink:href="classAbstractOdeSystem.html" target="_top" xlink:title=" ">
<polygon fill="white" stroke="transparent" points="355.5,-512 207.5,-512 207.5,-343 355.5,-343 355.5,-512"/>
<text text-anchor="start" x="233" y="-499.5" font-family="Helvetica,sans-Serif" font-size="10.00">AbstractOdeSystem</text>
<text text-anchor="start" x="279.5" y="-484.5" font-family="Helvetica,sans-Serif" font-size="10.00"> </text>
<text text-anchor="start" x="211.5" y="-469.5" font-family="Helvetica,sans-Serif" font-size="10.00">+</text>
<text text-anchor="start" x="224.5" y="-469.5" font-family="Helvetica,sans-Serif" font-size="10.00">AbstractOdeSystem()</text>
<text text-anchor="start" x="211.5" y="-454.5" font-family="Helvetica,sans-Serif" font-size="10.00">+</text>
<text text-anchor="start" x="224.5" y="-454.5" font-family="Helvetica,sans-Serif" font-size="10.00">~AbstractOdeSystem()</text>
<text text-anchor="start" x="211.5" y="-439.5" font-family="Helvetica,sans-Serif" font-size="10.00">+</text>
<text text-anchor="start" x="224.5" y="-439.5" font-family="Helvetica,sans-Serif" font-size="10.00">EvaluateYDerivatives()</text>
<text text-anchor="start" x="211.5" y="-424.5" font-family="Helvetica,sans-Serif" font-size="10.00">+</text>
<text text-anchor="start" x="224.5" y="-424.5" font-family="Helvetica,sans-Serif" font-size="10.00">CalculateStoppingEvent()</text>
<text text-anchor="start" x="211.5" y="-409.5" font-family="Helvetica,sans-Serif" font-size="10.00">+</text>
<text text-anchor="start" x="224.5" y="-409.5" font-family="Helvetica,sans-Serif" font-size="10.00">CalculateRootFunction()</text>
<text text-anchor="start" x="211.5" y="-394.5" font-family="Helvetica,sans-Serif" font-size="10.00">+</text>
<text text-anchor="start" x="224.5" y="-394.5" font-family="Helvetica,sans-Serif" font-size="10.00">GetUseAnalyticJacobian()</text>
<text text-anchor="start" x="211.5" y="-379.5" font-family="Helvetica,sans-Serif" font-size="10.00">+</text>
<text text-anchor="start" x="224.5" y="-379.5" font-family="Helvetica,sans-Serif" font-size="10.00">rGetConstStateVariables()</text>
<text text-anchor="start" x="214" y="-364.5" font-family="Helvetica,sans-Serif" font-size="10.00">&#45;</text>
<text text-anchor="start" x="224.5" y="-364.5" font-family="Helvetica,sans-Serif" font-size="10.00">save()</text>
<text text-anchor="start" x="214" y="-349.5" font-family="Helvetica,sans-Serif" font-size="10.00">&#45;</text>
<text text-anchor="start" x="224.5" y="-349.5" font-family="Helvetica,sans-Serif" font-size="10.00">load()</text>
<polygon fill="#666666" stroke="#666666" points="207.5,-494.5 207.5,-494.5 355.5,-494.5 355.5,-494.5 207.5,-494.5"/>
<polygon fill="#666666" stroke="#666666" points="207.5,-479.5 207.5,-479.5 355.5,-479.5 355.5,-479.5 207.5,-479.5"/>
<polygon fill="none" stroke="#666666" points="207.5,-343 207.5,-512 355.5,-512 355.5,-343 207.5,-343"/>
</a>
</g>
</g>
<!-- Node3&#45;&gt;Node1 -->
<g id="edge2_Node000001_Node000003" class="edge">
<title>Node3&#45;&gt;Node1</title>
<g id="a_edge2_Node000001_Node000003"><a xlink:title=" ">
<path fill="none" stroke="#63b8ff" d="M297.33,-342.89C300.18,-329.5 303.28,-315.84 306.5,-303 307.01,-300.98 307.53,-298.94 308.05,-296.89"/>
<polygon fill="none" stroke="#63b8ff" points="308.11,-296.67 305.76,-289.86 311.15,-285.07 313.5,-291.89 308.11,-296.67"/>
</a>
</g>
<text text-anchor="middle" x="348.5" y="-311.5" font-family="Helvetica,sans-Serif" font-size="10.00" fill="grey"> #mpOdeSystem</text>
</g>
<!-- Node4 -->
<g id="Node000004" class="node">
<title>Node4</title>
<g id="a_Node000004"><a xlink:href="classAbstractParameterisedSystem.html" target="_top" xlink:title=" ">
<polygon fill="white" stroke="transparent" points="324,-844 147,-844 147,-559 324,-559 324,-844"/>
<text text-anchor="start" x="162" y="-831.5" font-family="Helvetica,sans-Serif" font-size="10.00">AbstractParameterisedSystem</text>
<text text-anchor="start" x="171" y="-820.5" font-family="Helvetica,sans-Serif" font-size="10.00">&lt; std::vector&lt; double &gt; &gt;</text>
<text text-anchor="start" x="234" y="-805.5" font-family="Helvetica,sans-Serif" font-size="10.00"> </text>
<text text-anchor="start" x="151.5" y="-790.5" font-family="Helvetica,sans-Serif" font-size="10.00">+</text>
<text text-anchor="start" x="164.5" y="-790.5" font-family="Helvetica,sans-Serif" font-size="10.00">AbstractParameterisedSystem()</text>
<text text-anchor="start" x="151.5" y="-775.5" font-family="Helvetica,sans-Serif" font-size="10.00">+</text>
<text text-anchor="start" x="164.5" y="-775.5" font-family="Helvetica,sans-Serif" font-size="10.00">rGetStateVariables()</text>
<text text-anchor="start" x="151.5" y="-760.5" font-family="Helvetica,sans-Serif" font-size="10.00">+</text>
<text text-anchor="start" x="164.5" y="-760.5" font-family="Helvetica,sans-Serif" font-size="10.00">GetStateVariables()</text>
<text text-anchor="start" x="151.5" y="-745.5" font-family="Helvetica,sans-Serif" font-size="10.00">+</text>
<text text-anchor="start" x="164.5" y="-745.5" font-family="Helvetica,sans-Serif" font-size="10.00">SetStateVariables()</text>
<text text-anchor="start" x="151.5" y="-730.5" font-family="Helvetica,sans-Serif" font-size="10.00">+</text>
<text text-anchor="start" x="164.5" y="-730.5" font-family="Helvetica,sans-Serif" font-size="10.00">GetStateVariable()</text>
<text text-anchor="start" x="151.5" y="-715.5" font-family="Helvetica,sans-Serif" font-size="10.00">+</text>
<text text-anchor="start" x="164.5" y="-715.5" font-family="Helvetica,sans-Serif" font-size="10.00">GetStateVariable()</text>
<text text-anchor="start" x="151.5" y="-700.5" font-family="Helvetica,sans-Serif" font-size="10.00">+</text>
<text text-anchor="start" x="164.5" y="-700.5" font-family="Helvetica,sans-Serif" font-size="10.00">SetStateVariable()</text>
<text text-anchor="start" x="151.5" y="-685.5" font-family="Helvetica,sans-Serif" font-size="10.00">+</text>
<text text-anchor="start" x="164.5" y="-685.5" font-family="Helvetica,sans-Serif" font-size="10.00">SetStateVariable()</text>
<text text-anchor="start" x="151.5" y="-670.5" font-family="Helvetica,sans-Serif" font-size="10.00">+</text>
<text text-anchor="start" x="164.5" y="-670.5" font-family="Helvetica,sans-Serif" font-size="10.00">VerifyStateVariables()</text>
<text text-anchor="start" x="151.5" y="-655.5" font-family="Helvetica,sans-Serif" font-size="10.00">+</text>
<text text-anchor="start" x="164.5" y="-655.5" font-family="Helvetica,sans-Serif" font-size="10.00">SetDefaultInitialConditions()</text>
<text text-anchor="start" x="164.5" y="-640.5" font-family="Helvetica,sans-Serif" font-size="10.00">and 13 more...</text>
<text text-anchor="start" x="151.5" y="-625.5" font-family="Helvetica,sans-Serif" font-size="10.00">#</text>
<text text-anchor="start" x="164.5" y="-625.5" font-family="Helvetica,sans-Serif" font-size="10.00">DumpState()</text>
<text text-anchor="start" x="151.5" y="-610.5" font-family="Helvetica,sans-Serif" font-size="10.00">#</text>
<text text-anchor="start" x="164.5" y="-610.5" font-family="Helvetica,sans-Serif" font-size="10.00">DumpState()</text>
<text text-anchor="start" x="151.5" y="-595.5" font-family="Helvetica,sans-Serif" font-size="10.00">#</text>
<text text-anchor="start" x="164.5" y="-595.5" font-family="Helvetica,sans-Serif" font-size="10.00">DumpState()</text>
<text text-anchor="start" x="151.5" y="-580.5" font-family="Helvetica,sans-Serif" font-size="10.00">#</text>
<text text-anchor="start" x="164.5" y="-580.5" font-family="Helvetica,sans-Serif" font-size="10.00">CheckParametersOnLoad()</text>
<text text-anchor="start" x="154" y="-565.5" font-family="Helvetica,sans-Serif" font-size="10.00">&#45;</text>
<text text-anchor="start" x="164.5" y="-565.5" font-family="Helvetica,sans-Serif" font-size="10.00">GetStateMessage()</text>
<polygon fill="#666666" stroke="#666666" points="147.5,-815.5 147.5,-815.5 324.5,-815.5 324.5,-815.5 147.5,-815.5"/>
<polygon fill="#666666" stroke="#666666" points="147.5,-800.5 147.5,-800.5 324.5,-800.5 324.5,-800.5 147.5,-800.5"/>
<polygon fill="none" stroke="#666666" points="147,-559 147,-844 324,-844 324,-559 147,-559"/>
</a>
</g>
</g>
<!-- Node4&#45;&gt;Node3 -->
<g id="edge3_Node000003_Node000004" class="edge">
<title>Node4&#45;&gt;Node3</title>
<g id="a_edge3_Node000003_Node000004"><a xlink:title=" ">
<path fill="none" stroke="#63b8ff" d="M246.2,-548.73C247.2,-542.38 248.3,-536.12 249.5,-530 250.66,-524.11 252.03,-518.08 253.56,-512.03"/>
<polygon fill="none" stroke="#63b8ff" points="242.72,-548.34 244.7,-558.75 249.64,-549.38 242.72,-548.34"/>
</a>
</g>
</g>
<!-- Node5 -->
<g id="Node000005" class="node">
<title>Node5</title>
<g id="a_Node000005"><a xlink:href="classAbstractUntemplatedParameterisedSystem.html" target="_top" xlink:title=" ">
<polygon fill="white" stroke="transparent" points="338,-1477 133,-1477 133,-1245 338,-1245 338,-1477"/>
<text text-anchor="start" x="148.5" y="-1465" font-family="Helvetica,sans-Serif" font-size="10.00">AbstractUntemplatedParameterised</text>
<text text-anchor="start" x="217.5" y="-1454" font-family="Helvetica,sans-Serif" font-size="10.00">System</text>
<text text-anchor="start" x="234" y="-1439" font-family="Helvetica,sans-Serif" font-size="10.00"> </text>
<text text-anchor="start" x="137.5" y="-1424" font-family="Helvetica,sans-Serif" font-size="10.00">+</text>
<text text-anchor="start" x="150.5" y="-1424" font-family="Helvetica,sans-Serif" font-size="10.00">AbstractUntemplatedParameterised</text>
<text text-anchor="start" x="150.5" y="-1413" font-family="Helvetica,sans-Serif" font-size="10.00">System()</text>
<text text-anchor="start" x="137.5" y="-1398" font-family="Helvetica,sans-Serif" font-size="10.00">+</text>
<text text-anchor="start" x="150.5" y="-1398" font-family="Helvetica,sans-Serif" font-size="10.00">~AbstractUntemplatedParameterised</text>
<text text-anchor="start" x="150.5" y="-1387" font-family="Helvetica,sans-Serif" font-size="10.00">System()</text>
<text text-anchor="start" x="137.5" y="-1372" font-family="Helvetica,sans-Serif" font-size="10.00">+</text>
<text text-anchor="start" x="150.5" y="-1372" font-family="Helvetica,sans-Serif" font-size="10.00">GetSystemInformation()</text>
<text text-anchor="start" x="137.5" y="-1357" font-family="Helvetica,sans-Serif" font-size="10.00">+</text>
<text text-anchor="start" x="150.5" y="-1357" font-family="Helvetica,sans-Serif" font-size="10.00">GetSystemName()</text>
<text text-anchor="start" x="137.5" y="-1342" font-family="Helvetica,sans-Serif" font-size="10.00">+</text>
<text text-anchor="start" x="150.5" y="-1342" font-family="Helvetica,sans-Serif" font-size="10.00">GetNumberOfAttributes()</text>
<text text-anchor="start" x="137.5" y="-1327" font-family="Helvetica,sans-Serif" font-size="10.00">+</text>
<text text-anchor="start" x="150.5" y="-1327" font-family="Helvetica,sans-Serif" font-size="10.00">HasAttribute()</text>
<text text-anchor="start" x="137.5" y="-1312" font-family="Helvetica,sans-Serif" font-size="10.00">+</text>
<text text-anchor="start" x="150.5" y="-1312" font-family="Helvetica,sans-Serif" font-size="10.00">GetAttribute()</text>
<text text-anchor="start" x="137.5" y="-1297" font-family="Helvetica,sans-Serif" font-size="10.00">+</text>
<text text-anchor="start" x="150.5" y="-1297" font-family="Helvetica,sans-Serif" font-size="10.00">GetNumberOfStateVariables()</text>
<text text-anchor="start" x="137.5" y="-1282" font-family="Helvetica,sans-Serif" font-size="10.00">+</text>
<text text-anchor="start" x="150.5" y="-1282" font-family="Helvetica,sans-Serif" font-size="10.00">rGetStateVariableNames()</text>
<text text-anchor="start" x="137.5" y="-1267" font-family="Helvetica,sans-Serif" font-size="10.00">+</text>
<text text-anchor="start" x="150.5" y="-1267" font-family="Helvetica,sans-Serif" font-size="10.00">rGetStateVariableUnits()</text>
<text text-anchor="start" x="150.5" y="-1252" font-family="Helvetica,sans-Serif" font-size="10.00">and 20 more...</text>
<polygon fill="#666666" stroke="#666666" points="133.5,-1449 133.5,-1449 338.5,-1449 338.5,-1449 133.5,-1449"/>
<polygon fill="#666666" stroke="#666666" points="133.5,-1434 133.5,-1434 338.5,-1434 338.5,-1434 133.5,-1434"/>
<polygon fill="none" stroke="#666666" points="133,-1245 133,-1477 338,-1477 338,-1245 133,-1245"/>
</a>
</g>
</g>
<!-- Node5&#45;&gt;Node4 -->
<g id="edge4_Node000004_Node000005" class="edge">
<title>Node5&#45;&gt;Node4</title>
<g id="a_edge4_Node000004_Node000005"><a xlink:title=" ">
<path fill="none" stroke="#63b8ff" d="M235.5,-1234.43C235.5,-1122.91 235.5,-960.09 235.5,-844"/>
<polygon fill="none" stroke="#63b8ff" points="232,-1234.72 235.5,-1244.72 239,-1234.72 232,-1234.72"/>
</a>
</g>
</g>
<!-- Node9 -->
<g id="Node000009" class="node">
<title>Node9</title>
<g id="a_Node000009"><a xlink:href="classAbstractParameterisedSystem.html" target="_top" xlink:title=" ">
<polygon fill="white" stroke="transparent" points="177,-1187 0,-1187 0,-902 177,-902 177,-1187"/>
<text text-anchor="start" x="15" y="-1174.5" font-family="Helvetica,sans-Serif" font-size="10.00">AbstractParameterisedSystem</text>
<text text-anchor="start" x="57.5" y="-1163.5" font-family="Helvetica,sans-Serif" font-size="10.00">&lt; VECTOR &gt;</text>
<text text-anchor="start" x="87" y="-1148.5" font-family="Helvetica,sans-Serif" font-size="10.00"> </text>
<text text-anchor="start" x="4.5" y="-1133.5" font-family="Helvetica,sans-Serif" font-size="10.00">+</text>
<text text-anchor="start" x="17.5" y="-1133.5" font-family="Helvetica,sans-Serif" font-size="10.00">AbstractParameterisedSystem()</text>
<text text-anchor="start" x="4.5" y="-1118.5" font-family="Helvetica,sans-Serif" font-size="10.00">+</text>
<text text-anchor="start" x="17.5" y="-1118.5" font-family="Helvetica,sans-Serif" font-size="10.00">rGetStateVariables()</text>
<text text-anchor="start" x="4.5" y="-1103.5" font-family="Helvetica,sans-Serif" font-size="10.00">+</text>
<text text-anchor="start" x="17.5" y="-1103.5" font-family="Helvetica,sans-Serif" font-size="10.00">GetStateVariables()</text>
<text text-anchor="start" x="4.5" y="-1088.5" font-family="Helvetica,sans-Serif" font-size="10.00">+</text>
<text text-anchor="start" x="17.5" y="-1088.5" font-family="Helvetica,sans-Serif" font-size="10.00">SetStateVariables()</text>
<text text-anchor="start" x="4.5" y="-1073.5" font-family="Helvetica,sans-Serif" font-size="10.00">+</text>
<text text-anchor="start" x="17.5" y="-1073.5" font-family="Helvetica,sans-Serif" font-size="10.00">GetStateVariable()</text>
<text text-anchor="start" x="4.5" y="-1058.5" font-family="Helvetica,sans-Serif" font-size="10.00">+</text>
<text text-anchor="start" x="17.5" y="-1058.5" font-family="Helvetica,sans-Serif" font-size="10.00">GetStateVariable()</text>
<text text-anchor="start" x="4.5" y="-1043.5" font-family="Helvetica,sans-Serif" font-size="10.00">+</text>
<text text-anchor="start" x="17.5" y="-1043.5" font-family="Helvetica,sans-Serif" font-size="10.00">SetStateVariable()</text>
<text text-anchor="start" x="4.5" y="-1028.5" font-family="Helvetica,sans-Serif" font-size="10.00">+</text>
<text text-anchor="start" x="17.5" y="-1028.5" font-family="Helvetica,sans-Serif" font-size="10.00">SetStateVariable()</text>
<text text-anchor="start" x="4.5" y="-1013.5" font-family="Helvetica,sans-Serif" font-size="10.00">+</text>
<text text-anchor="start" x="17.5" y="-1013.5" font-family="Helvetica,sans-Serif" font-size="10.00">VerifyStateVariables()</text>
<text text-anchor="start" x="4.5" y="-998.5" font-family="Helvetica,sans-Serif" font-size="10.00">+</text>
<text text-anchor="start" x="17.5" y="-998.5" font-family="Helvetica,sans-Serif" font-size="10.00">SetDefaultInitialConditions()</text>
<text text-anchor="start" x="17.5" y="-983.5" font-family="Helvetica,sans-Serif" font-size="10.00">and 13 more...</text>
<text text-anchor="start" x="4.5" y="-968.5" font-family="Helvetica,sans-Serif" font-size="10.00">#</text>
<text text-anchor="start" x="17.5" y="-968.5" font-family="Helvetica,sans-Serif" font-size="10.00">DumpState()</text>
<text text-anchor="start" x="4.5" y="-953.5" font-family="Helvetica,sans-Serif" font-size="10.00">#</text>
<text text-anchor="start" x="17.5" y="-953.5" font-family="Helvetica,sans-Serif" font-size="10.00">DumpState()</text>
<text text-anchor="start" x="4.5" y="-938.5" font-family="Helvetica,sans-Serif" font-size="10.00">#</text>
<text text-anchor="start" x="17.5" y="-938.5" font-family="Helvetica,sans-Serif" font-size="10.00">DumpState()</text>
<text text-anchor="start" x="4.5" y="-923.5" font-family="Helvetica,sans-Serif" font-size="10.00">#</text>
<text text-anchor="start" x="17.5" y="-923.5" font-family="Helvetica,sans-Serif" font-size="10.00">CheckParametersOnLoad()</text>
<text text-anchor="start" x="7" y="-908.5" font-family="Helvetica,sans-Serif" font-size="10.00">&#45;</text>
<text text-anchor="start" x="17.5" y="-908.5" font-family="Helvetica,sans-Serif" font-size="10.00">GetStateMessage()</text>
<polygon fill="#666666" stroke="#666666" points="0.5,-1158.5 0.5,-1158.5 177.5,-1158.5 177.5,-1158.5 0.5,-1158.5"/>
<polygon fill="#666666" stroke="#666666" points="0.5,-1143.5 0.5,-1143.5 177.5,-1143.5 177.5,-1143.5 0.5,-1143.5"/>
<polygon fill="none" stroke="#666666" points="0,-902 0,-1187 177,-1187 177,-902 0,-902"/>
</a>
</g>
</g>
<!-- Node5&#45;&gt;Node9 -->
<g id="edge9_Node000009_Node000005" class="edge">
<title>Node5&#45;&gt;Node9</title>
<g id="a_edge9_Node000009_Node000005"><a xlink:title=" ">
<path fill="none" stroke="#63b8ff" d="M194.41,-1235.23C190.29,-1224.9 185.97,-1214.71 181.5,-1205 178.82,-1199.18 175.99,-1193.29 173.05,-1187.39"/>
<polygon fill="none" stroke="#63b8ff" points="191.23,-1236.7 198.13,-1244.74 197.75,-1234.15 191.23,-1236.7"/>
</a>
</g>
</g>
<!-- Node6 -->
<g id="Node000006" class="node">
<title>Node6</title>
<g id="a_Node000006"><a xlink:href="classunsigned.html" target="_top" xlink:title=" ">
<polygon fill="white" stroke="transparent" points="180,-1578.5 125,-1578.5 125,-1529.5 180,-1529.5 180,-1578.5"/>
<text text-anchor="start" x="130.5" y="-1566" font-family="Helvetica,sans-Serif" font-size="10.00">unsigned</text>
<text text-anchor="start" x="151" y="-1551" font-family="Helvetica,sans-Serif" font-size="10.00"> </text>
<text text-anchor="start" x="151" y="-1536" font-family="Helvetica,sans-Serif" font-size="10.00"> </text>
<polygon fill="#bfbfbf" stroke="#bfbfbf" points="125.5,-1561 125.5,-1561 180.5,-1561 180.5,-1561 125.5,-1561"/>
<polygon fill="#bfbfbf" stroke="#bfbfbf" points="125.5,-1546 125.5,-1546 180.5,-1546 180.5,-1546 125.5,-1546"/>
<polygon fill="none" stroke="#bfbfbf" points="125,-1529.5 125,-1578.5 180,-1578.5 180,-1529.5 125,-1529.5"/>
</a>
</g>
</g>
<!-- Node6&#45;&gt;Node5 -->
<g id="edge5_Node000005_Node000006" class="edge">
<title>Node6&#45;&gt;Node5</title>
<g id="a_edge5_Node000005_Node000006"><a xlink:title=" ">
<path fill="none" stroke="#63b8ff" d="M147.75,-1529.44C146.49,-1518.73 146.25,-1506.02 149.5,-1495 150.13,-1492.87 150.8,-1490.74 151.52,-1488.61"/>
<polygon fill="none" stroke="#63b8ff" points="151.55,-1488.53 149.9,-1481.51 155.75,-1477.29 157.4,-1484.31 151.55,-1488.53"/>
</a>
</g>
<text text-anchor="middle" x="220.5" y="-1498" font-family="Helvetica,sans-Serif" font-size="10.00" fill="grey"> #mNumberOfStateVariables</text>
</g>
<!-- Node7 -->
<g id="Node000007" class="node">
<title>Node7</title>
<g id="a_Node000007"><a xlink:title=" ">
<polygon fill="white" stroke="transparent" points="402.5,-1584 232.5,-1584 232.5,-1524 402.5,-1524 402.5,-1584"/>
<text text-anchor="start" x="237.5" y="-1572" font-family="Helvetica,sans-Serif" font-size="10.00">shared_ptr&lt; AbstractOdeSystem</text>
<text text-anchor="start" x="283" y="-1561" font-family="Helvetica,sans-Serif" font-size="10.00">Information &gt;</text>
<text text-anchor="start" x="315.5" y="-1546" font-family="Helvetica,sans-Serif" font-size="10.00"> </text>
<text text-anchor="start" x="315.5" y="-1531" font-family="Helvetica,sans-Serif" font-size="10.00"> </text>
<polygon fill="#bfbfbf" stroke="#bfbfbf" points="232.5,-1556 232.5,-1556 402.5,-1556 402.5,-1556 232.5,-1556"/>
<polygon fill="#bfbfbf" stroke="#bfbfbf" points="232.5,-1541 232.5,-1541 402.5,-1541 402.5,-1541 232.5,-1541"/>
<polygon fill="none" stroke="#bfbfbf" points="232.5,-1524 232.5,-1584 402.5,-1584 402.5,-1524 232.5,-1524"/>
</a>
</g>
</g>
<!-- Node7&#45;&gt;Node5 -->
<g id="edge6_Node000005_Node000007" class="edge">
<title>Node7&#45;&gt;Node5</title>
<g id="a_edge6_Node000005_Node000007"><a xlink:title=" ">
<path fill="none" stroke="#63b8ff" d="M306.88,-1523.95C303.37,-1514.65 299.38,-1504.35 295.5,-1495 294.59,-1492.81 293.67,-1490.6 292.73,-1488.37"/>
<polygon fill="none" stroke="#63b8ff" points="292.66,-1488.2 286.63,-1484.24 287.97,-1477.15 294,-1481.11 292.66,-1488.2"/>
</a>
</g>
<text text-anchor="middle" x="341" y="-1498" font-family="Helvetica,sans-Serif" font-size="10.00" fill="grey"> #mpSystemInfo</text>
</g>
<!-- Node8 -->
<g id="Node000008" class="node">
<title>Node8</title>
<g id="a_Node000008"><a xlink:title=" ">
<polygon fill="white" stroke="transparent" points="361,-1069 264,-1069 264,-1020 361,-1020 361,-1069"/>
<text text-anchor="start" x="269.5" y="-1056.5" font-family="Helvetica,sans-Serif" font-size="10.00">vector&lt; double &gt;</text>
<text text-anchor="start" x="311" y="-1041.5" font-family="Helvetica,sans-Serif" font-size="10.00"> </text>
<text text-anchor="start" x="311" y="-1026.5" font-family="Helvetica,sans-Serif" font-size="10.00"> </text>
<polygon fill="#bfbfbf" stroke="#bfbfbf" points="264.5,-1051.5 264.5,-1051.5 361.5,-1051.5 361.5,-1051.5 264.5,-1051.5"/>
<polygon fill="#bfbfbf" stroke="#bfbfbf" points="264.5,-1036.5 264.5,-1036.5 361.5,-1036.5 361.5,-1036.5 264.5,-1036.5"/>
<polygon fill="none" stroke="#bfbfbf" points="264,-1020 264,-1069 361,-1069 361,-1020 264,-1020"/>
</a>
</g>
</g>
<!-- Node8&#45;&gt;Node4 -->
<g id="edge7_Node000004_Node000008" class="edge">
<title>Node8&#45;&gt;Node4</title>
<g id="a_edge7_Node000004_Node000008"><a xlink:title=" ">
<path fill="none" stroke="#63b8ff" d="M307.15,-1019.79C299.39,-985.45 284.4,-919.05 270.12,-855.83"/>
<polygon fill="none" stroke="#63b8ff" points="270.11,-855.77 264.89,-850.8 267.47,-844.07 272.69,-849.04 270.11,-855.77"/>
</a>
</g>
<text text-anchor="middle" x="321" y="-876" font-family="Helvetica,sans-Serif" font-size="10.00" fill="grey"> #mParameters</text>
<text text-anchor="middle" x="321" y="-865" font-family="Helvetica,sans-Serif" font-size="10.00" fill="grey">#mStateVariables</text>
</g>
<!-- Node9&#45;&gt;Node4 -->
<g id="edge8_Node000004_Node000009" class="edge">
<title>Node9&#45;&gt;Node4</title>
<g id="a_edge8_Node000004_Node000009"><a xlink:title=" ">
<path fill="none" stroke="orange" d="M79.97,-891.93C81.98,-881.63 84.76,-871.56 88.5,-862 101.03,-829.9 123.39,-800.38 146.94,-775.68"/>
<polygon fill="orange" stroke="orange" points="76.5,-891.41 78.26,-901.85 83.4,-892.59 76.5,-891.41"/>
</a>
</g>
<text text-anchor="middle" x="155" y="-870.5" font-family="Helvetica,sans-Serif" font-size="10.00" fill="grey"> &lt; std::vector&lt; double &gt; &gt;</text>
</g>
<!-- Node10 -->
<g id="Node000010" class="node">
<title>Node10</title>
<g id="a_Node000010"><a xlink:title=" ">
<polygon fill="white" stroke="transparent" points="113.5,-1385.5 63.5,-1385.5 63.5,-1336.5 113.5,-1336.5 113.5,-1385.5"/>
<text text-anchor="start" x="68.5" y="-1373" font-family="Helvetica,sans-Serif" font-size="10.00">VECTOR</text>
<text text-anchor="start" x="86.5" y="-1358" font-family="Helvetica,sans-Serif" font-size="10.00"> </text>
<text text-anchor="start" x="86.5" y="-1343" font-family="Helvetica,sans-Serif" font-size="10.00"> </text>
<polygon fill="#bfbfbf" stroke="#bfbfbf" points="63.5,-1368 63.5,-1368 113.5,-1368 113.5,-1368 63.5,-1368"/>
<polygon fill="#bfbfbf" stroke="#bfbfbf" points="63.5,-1353 63.5,-1353 113.5,-1353 113.5,-1353 63.5,-1353"/>
<polygon fill="none" stroke="#bfbfbf" points="63.5,-1336.5 63.5,-1385.5 113.5,-1385.5 113.5,-1336.5 63.5,-1336.5"/>
</a>
</g>
</g>
<!-- Node10&#45;&gt;Node9 -->
<g id="edge10_Node000009_Node000010" class="edge">
<title>Node10&#45;&gt;Node9</title>
<g id="a_edge10_Node000009_Node000010"><a xlink:title=" ">
<path fill="none" stroke="#63b8ff" d="M88.5,-1336.36C88.5,-1306.55 88.5,-1252.7 88.5,-1199.38"/>
<polygon fill="none" stroke="#63b8ff" points="88.5,-1199.3 84.5,-1193.3 88.5,-1187.3 92.5,-1193.3 88.5,-1199.3"/>
</a>
</g>
<text text-anchor="middle" x="133" y="-1219" font-family="Helvetica,sans-Serif" font-size="10.00" fill="grey"> #mParameters</text>
<text text-anchor="middle" x="133" y="-1208" font-family="Helvetica,sans-Serif" font-size="10.00" fill="grey">#mStateVariables</text>
</g>
<!-- Node11 -->
<g id="Node000011" class="node">
<title>Node11</title>
<g id="a_Node000011"><a xlink:href="classbool.html" target="_top" xlink:title=" ">
<polygon fill="white" stroke="transparent" points="396.5,-726 364.5,-726 364.5,-677 396.5,-677 396.5,-726"/>
<text text-anchor="start" x="369.5" y="-713.5" font-family="Helvetica,sans-Serif" font-size="10.00">bool</text>
<text text-anchor="start" x="378.5" y="-698.5" font-family="Helvetica,sans-Serif" font-size="10.00"> </text>
<text text-anchor="start" x="378.5" y="-683.5" font-family="Helvetica,sans-Serif" font-size="10.00"> </text>
<polygon fill="#bfbfbf" stroke="#bfbfbf" points="364.5,-708.5 364.5,-708.5 396.5,-708.5 396.5,-708.5 364.5,-708.5"/>
<polygon fill="#bfbfbf" stroke="#bfbfbf" points="364.5,-693.5 364.5,-693.5 396.5,-693.5 396.5,-693.5 364.5,-693.5"/>
<polygon fill="none" stroke="#bfbfbf" points="364.5,-677 364.5,-726 396.5,-726 396.5,-677 364.5,-677"/>
</a>
</g>
</g>
<!-- Node11&#45;&gt;Node1 -->
<g id="edge13_Node000001_Node000011" class="edge">
<title>Node11&#45;&gt;Node1</title>
<g id="a_edge13_Node000001_Node000011"><a xlink:title=" ">
<path fill="none" stroke="#63b8ff" d="M383.35,-676.66C390.26,-614.77 406.21,-443.99 390.5,-303 390.3,-301.19 390.08,-299.38 389.86,-297.55"/>
<polygon fill="none" stroke="#63b8ff" points="389.83,-297.3 385.05,-291.9 388.21,-285.41 392.98,-290.82 389.83,-297.3"/>
</a>
</g>
<text text-anchor="middle" x="460" y="-425" font-family="Helvetica,sans-Serif" font-size="10.00" fill="grey"> #mFinishedRunningOdes</text>
</g>
<!-- Node11&#45;&gt;Node3 -->
<g id="edge11_Node000003_Node000011" class="edge">
<title>Node11&#45;&gt;Node3</title>
<g id="a_edge11_Node000003_Node000011"><a xlink:title=" ">
<path fill="none" stroke="#63b8ff" d="M379.05,-676.91C375.85,-645.56 365.56,-590.49 332.5,-559 311.41,-538.92 287.04,-564.25 269.5,-541 265.61,-535.84 262.91,-530.15 261.18,-524.15"/>
<polygon fill="none" stroke="#63b8ff" points="261.16,-524.07 256.12,-518.91 258.95,-512.28 263.99,-517.44 261.16,-524.07"/>
</a>
</g>
<text text-anchor="middle" x="330" y="-533" font-family="Helvetica,sans-Serif" font-size="10.00" fill="grey"> #mUseAnalyticJacobian</text>
</g>
<!-- Node12 -->
<g id="Node000012" class="node">
<title>Node12</title>
<g id="a_Node000012"><a xlink:title=" ">
<polygon fill="white" stroke="transparent" points="683,-457.5 550,-457.5 550,-397.5 683,-397.5 683,-457.5"/>
<text text-anchor="start" x="555.5" y="-445.5" font-family="Helvetica,sans-Serif" font-size="10.00">shared_ptr&lt; AbstractCell</text>
<text text-anchor="start" x="557.5" y="-434.5" font-family="Helvetica,sans-Serif" font-size="10.00">CycleModelOdeSolver &gt;</text>
<text text-anchor="start" x="615" y="-419.5" font-family="Helvetica,sans-Serif" font-size="10.00"> </text>
<text text-anchor="start" x="615" y="-404.5" font-family="Helvetica,sans-Serif" font-size="10.00"> </text>
<polygon fill="#bfbfbf" stroke="#bfbfbf" points="550.5,-429.5 550.5,-429.5 683.5,-429.5 683.5,-429.5 550.5,-429.5"/>
<polygon fill="#bfbfbf" stroke="#bfbfbf" points="550.5,-414.5 550.5,-414.5 683.5,-414.5 683.5,-414.5 550.5,-414.5"/>
<polygon fill="none" stroke="#bfbfbf" points="550,-397.5 550,-457.5 683,-457.5 683,-397.5 550,-397.5"/>
</a>
</g>
</g>
<!-- Node12&#45;&gt;Node1 -->
<g id="edge12_Node000001_Node000012" class="edge">
<title>Node12&#45;&gt;Node1</title>
<g id="a_edge12_Node000001_Node000012"><a xlink:title=" ">
<path fill="none" stroke="#63b8ff" d="M589.45,-397.28C556.32,-361.5 498.43,-298.97 448.41,-244.94"/>
<polygon fill="none" stroke="#63b8ff" points="448.29,-244.81 441.28,-243.12 440.14,-236 447.15,-237.69 448.29,-244.81"/>
</a>
</g>
<text text-anchor="middle" x="555.5" y="-311.5" font-family="Helvetica,sans-Serif" font-size="10.00" fill="grey"> #mpOdeSolver</text>
</g>
</g>
</svg>
