<?xml version="1.0" encoding="UTF-8" standalone="no"?>
<!DOCTYPE svg PUBLIC "-//W3C//DTD SVG 1.1//EN"
 "http://www.w3.org/Graphics/SVG/1.1/DTD/svg11.dtd">
<!-- Generated by graphviz version 2.43.0 (0)
 -->
<!-- Title: Hdf5DataReader Pages: 1 -->
<svg width="1491pt" height="918pt"
 viewBox="0.00 0.00 1491.00 918.00" xmlns="http://www.w3.org/2000/svg" xmlns:xlink="http://www.w3.org/1999/xlink">
<g id="graph0" class="graph" transform="scale(1 1) rotate(0) translate(4 914)">
<title>Hdf5DataReader</title>
<!-- Node1 -->
<g id="Node000001" class="node">
<title>Node1</title>
<g id="a_Node000001"><a xlink:title=" ">
<polygon fill="#999999" stroke="transparent" points="1131.5,-225 941.5,-225 941.5,0 1131.5,0 1131.5,-225"/>
<text text-anchor="start" x="995.5" y="-212.5" font-family="Helvetica,sans-Serif" font-size="10.00">Hdf5DataReader</text>
<text text-anchor="start" x="1034.5" y="-197.5" font-family="Helvetica,sans-Serif" font-size="10.00"> </text>
<text text-anchor="start" x="945.5" y="-182.5" font-family="Helvetica,sans-Serif" font-size="10.00">+</text>
<text text-anchor="start" x="958.5" y="-182.5" font-family="Helvetica,sans-Serif" font-size="10.00">Hdf5DataReader()</text>
<text text-anchor="start" x="945.5" y="-167.5" font-family="Helvetica,sans-Serif" font-size="10.00">+</text>
<text text-anchor="start" x="958.5" y="-167.5" font-family="Helvetica,sans-Serif" font-size="10.00">Hdf5DataReader()</text>
<text text-anchor="start" x="945.5" y="-152.5" font-family="Helvetica,sans-Serif" font-size="10.00">+</text>
<text text-anchor="start" x="958.5" y="-152.5" font-family="Helvetica,sans-Serif" font-size="10.00">GetVariableOverTime()</text>
<text text-anchor="start" x="945.5" y="-137.5" font-family="Helvetica,sans-Serif" font-size="10.00">+</text>
<text text-anchor="start" x="958.5" y="-137.5" font-family="Helvetica,sans-Serif" font-size="10.00">GetVariableOverTimeOverMultiple</text>
<text text-anchor="start" x="958.5" y="-126.5" font-family="Helvetica,sans-Serif" font-size="10.00">Nodes()</text>
<text text-anchor="start" x="945.5" y="-111.5" font-family="Helvetica,sans-Serif" font-size="10.00">+</text>
<text text-anchor="start" x="958.5" y="-111.5" font-family="Helvetica,sans-Serif" font-size="10.00">GetVariableOverNodes()</text>
<text text-anchor="start" x="945.5" y="-96.5" font-family="Helvetica,sans-Serif" font-size="10.00">+</text>
<text text-anchor="start" x="958.5" y="-96.5" font-family="Helvetica,sans-Serif" font-size="10.00">GetUnlimitedDimensionValues()</text>
<text text-anchor="start" x="945.5" y="-81.5" font-family="Helvetica,sans-Serif" font-size="10.00">+</text>
<text text-anchor="start" x="958.5" y="-81.5" font-family="Helvetica,sans-Serif" font-size="10.00">GetNumberOfRows()</text>
<text text-anchor="start" x="945.5" y="-66.5" font-family="Helvetica,sans-Serif" font-size="10.00">+</text>
<text text-anchor="start" x="958.5" y="-66.5" font-family="Helvetica,sans-Serif" font-size="10.00">GetVariableNames()</text>
<text text-anchor="start" x="945.5" y="-51.5" font-family="Helvetica,sans-Serif" font-size="10.00">+</text>
<text text-anchor="start" x="958.5" y="-51.5" font-family="Helvetica,sans-Serif" font-size="10.00">GetUnit()</text>
<text text-anchor="start" x="945.5" y="-36.5" font-family="Helvetica,sans-Serif" font-size="10.00">+</text>
<text text-anchor="start" x="958.5" y="-36.5" font-family="Helvetica,sans-Serif" font-size="10.00">Close()</text>
<text text-anchor="start" x="945.5" y="-21.5" font-family="Helvetica,sans-Serif" font-size="10.00">+</text>
<text text-anchor="start" x="958.5" y="-21.5" font-family="Helvetica,sans-Serif" font-size="10.00">~Hdf5DataReader()</text>
<text text-anchor="start" x="948" y="-6.5" font-family="Helvetica,sans-Serif" font-size="10.00">&#45;</text>
<text text-anchor="start" x="958.5" y="-6.5" font-family="Helvetica,sans-Serif" font-size="10.00">CommonConstructor()</text>
<polygon fill="#666666" stroke="#666666" points="941.5,-207.5 941.5,-207.5 1131.5,-207.5 1131.5,-207.5 941.5,-207.5"/>
<polygon fill="#666666" stroke="#666666" points="941.5,-192.5 941.5,-192.5 1131.5,-192.5 1131.5,-192.5 941.5,-192.5"/>
<polygon fill="none" stroke="#666666" points="941.5,0 941.5,-225 1131.5,-225 1131.5,0 941.5,0"/>
</a>
</g>
</g>
<!-- Node2 -->
<g id="Node000002" class="node">
<title>Node2</title>
<g id="a_Node000002"><a xlink:href="classAbstractHdf5Access.html" target="_top" xlink:title=" ">
<polygon fill="white" stroke="transparent" points="661,-456 472,-456 472,-272 661,-272 661,-456"/>
<text text-anchor="start" x="518" y="-444" font-family="Helvetica,sans-Serif" font-size="10.00">AbstractHdf5Access</text>
<text text-anchor="start" x="565" y="-429" font-family="Helvetica,sans-Serif" font-size="10.00"> </text>
<text text-anchor="start" x="476.5" y="-414" font-family="Helvetica,sans-Serif" font-size="10.00">+</text>
<text text-anchor="start" x="489.5" y="-414" font-family="Helvetica,sans-Serif" font-size="10.00">AbstractHdf5Access()</text>
<text text-anchor="start" x="476.5" y="-399" font-family="Helvetica,sans-Serif" font-size="10.00">+</text>
<text text-anchor="start" x="489.5" y="-399" font-family="Helvetica,sans-Serif" font-size="10.00">AbstractHdf5Access()</text>
<text text-anchor="start" x="476.5" y="-384" font-family="Helvetica,sans-Serif" font-size="10.00">+</text>
<text text-anchor="start" x="489.5" y="-384" font-family="Helvetica,sans-Serif" font-size="10.00">~AbstractHdf5Access()</text>
<text text-anchor="start" x="476.5" y="-369" font-family="Helvetica,sans-Serif" font-size="10.00">+</text>
<text text-anchor="start" x="489.5" y="-369" font-family="Helvetica,sans-Serif" font-size="10.00">IsDataComplete()</text>
<text text-anchor="start" x="476.5" y="-354" font-family="Helvetica,sans-Serif" font-size="10.00">+</text>
<text text-anchor="start" x="489.5" y="-354" font-family="Helvetica,sans-Serif" font-size="10.00">GetIncompleteNodeMap()</text>
<text text-anchor="start" x="476.5" y="-339" font-family="Helvetica,sans-Serif" font-size="10.00">+</text>
<text text-anchor="start" x="489.5" y="-339" font-family="Helvetica,sans-Serif" font-size="10.00">GetUnlimitedDimensionName()</text>
<text text-anchor="start" x="476.5" y="-324" font-family="Helvetica,sans-Serif" font-size="10.00">+</text>
<text text-anchor="start" x="489.5" y="-324" font-family="Helvetica,sans-Serif" font-size="10.00">GetUnlimitedDimensionUnit()</text>
<text text-anchor="start" x="476.5" y="-309" font-family="Helvetica,sans-Serif" font-size="10.00">#</text>
<text text-anchor="start" x="489.5" y="-309" font-family="Helvetica,sans-Serif" font-size="10.00">DoesDatasetExist()</text>
<text text-anchor="start" x="476.5" y="-294" font-family="Helvetica,sans-Serif" font-size="10.00">#</text>
<text text-anchor="start" x="489.5" y="-294" font-family="Helvetica,sans-Serif" font-size="10.00">SetUnlimitedDatasetId()</text>
<text text-anchor="start" x="476.5" y="-279" font-family="Helvetica,sans-Serif" font-size="10.00">#</text>
<text text-anchor="start" x="489.5" y="-279" font-family="Helvetica,sans-Serif" font-size="10.00">SetMainDatasetRawChunkCache()</text>
<polygon fill="#666666" stroke="#666666" points="472.5,-439 472.5,-439 661.5,-439 661.5,-439 472.5,-439"/>
<polygon fill="#666666" stroke="#666666" points="472.5,-424 472.5,-424 661.5,-424 661.5,-424 472.5,-424"/>
<polygon fill="none" stroke="#666666" points="472,-272 472,-456 661,-456 661,-272 472,-272"/>
</a>
</g>
</g>
<!-- Node2&#45;&gt;Node1 -->
<g id="edge1_Node000001_Node000002" class="edge">
<title>Node2&#45;&gt;Node1</title>
<g id="a_edge1_Node000001_Node000002"><a xlink:title=" ">
<path fill="none" stroke="#63b8ff" d="M669.55,-279.94C687.99,-266.77 707.42,-253.91 726.5,-243 795.35,-203.61 878.54,-169.53 941.4,-146.22"/>
<polygon fill="none" stroke="#63b8ff" points="667.21,-277.31 661.16,-286 671.31,-282.98 667.21,-277.31"/>
</a>
</g>
</g>
<!-- Node3 -->
<g id="Node000003" class="node">
<title>Node3</title>
<g id="a_Node000003"><a xlink:title=" ">
<polygon fill="white" stroke="transparent" points="173.5,-910 135.5,-910 135.5,-861 173.5,-861 173.5,-910"/>
<text text-anchor="start" x="140.5" y="-897.5" font-family="Helvetica,sans-Serif" font-size="10.00">string</text>
<text text-anchor="start" x="152.5" y="-882.5" font-family="Helvetica,sans-Serif" font-size="10.00"> </text>
<text text-anchor="start" x="152.5" y="-867.5" font-family="Helvetica,sans-Serif" font-size="10.00"> </text>
<polygon fill="#bfbfbf" stroke="#bfbfbf" points="135.5,-892.5 135.5,-892.5 173.5,-892.5 173.5,-892.5 135.5,-892.5"/>
<polygon fill="#bfbfbf" stroke="#bfbfbf" points="135.5,-877.5 135.5,-877.5 173.5,-877.5 173.5,-877.5 135.5,-877.5"/>
<polygon fill="none" stroke="#bfbfbf" points="135.5,-861 135.5,-910 173.5,-910 173.5,-861 135.5,-861"/>
</a>
</g>
</g>
<!-- Node3&#45;&gt;Node2 -->
<g id="edge2_Node000002_Node000003" class="edge">
<title>Node3&#45;&gt;Node2</title>
<g id="a_edge2_Node000002_Node000003"><a xlink:title=" ">
<path fill="none" stroke="#63b8ff" d="M135.4,-877.87C110.82,-868.17 69.19,-847.54 51.5,-814 -8.42,-700.39 -24.57,-628.5 51.5,-525 100.1,-458.86 323.71,-408.27 459.8,-382.95"/>
<polygon fill="none" stroke="#63b8ff" points="460.07,-382.9 465.25,-377.88 471.87,-380.72 466.7,-385.74 460.07,-382.9"/>
</a>
</g>
<text text-anchor="middle" x="125.5" y="-683.5" font-family="Helvetica,sans-Serif" font-size="10.00" fill="grey"> #mBaseName</text>
<text text-anchor="middle" x="125.5" y="-672.5" font-family="Helvetica,sans-Serif" font-size="10.00" fill="grey">#mDatasetName</text>
<text text-anchor="middle" x="125.5" y="-661.5" font-family="Helvetica,sans-Serif" font-size="10.00" fill="grey">#mUnlimitedDimensionName</text>
<text text-anchor="middle" x="125.5" y="-650.5" font-family="Helvetica,sans-Serif" font-size="10.00" fill="grey">#mUnlimitedDimensionUnit</text>
</g>
<!-- Node4 -->
<g id="Node000004" class="node">
<title>Node4</title>
<g id="a_Node000004"><a xlink:href="classFileFinder.html" target="_top" xlink:title=" ">
<polygon fill="white" stroke="transparent" points="681.5,-814 495.5,-814 495.5,-525 681.5,-525 681.5,-814"/>
<text text-anchor="start" x="564.5" y="-801.5" font-family="Helvetica,sans-Serif" font-size="10.00">FileFinder</text>
<text text-anchor="start" x="586.5" y="-786.5" font-family="Helvetica,sans-Serif" font-size="10.00"> </text>
<text text-anchor="start" x="499.5" y="-771.5" font-family="Helvetica,sans-Serif" font-size="10.00">+</text>
<text text-anchor="start" x="512.5" y="-771.5" font-family="Helvetica,sans-Serif" font-size="10.00">FileFinder()</text>
<text text-anchor="start" x="499.5" y="-756.5" font-family="Helvetica,sans-Serif" font-size="10.00">+</text>
<text text-anchor="start" x="512.5" y="-756.5" font-family="Helvetica,sans-Serif" font-size="10.00">FileFinder()</text>
<text text-anchor="start" x="499.5" y="-741.5" font-family="Helvetica,sans-Serif" font-size="10.00">+</text>
<text text-anchor="start" x="512.5" y="-741.5" font-family="Helvetica,sans-Serif" font-size="10.00">FileFinder()</text>
<text text-anchor="start" x="499.5" y="-726.5" font-family="Helvetica,sans-Serif" font-size="10.00">+</text>
<text text-anchor="start" x="512.5" y="-726.5" font-family="Helvetica,sans-Serif" font-size="10.00">FileFinder()</text>
<text text-anchor="start" x="499.5" y="-711.5" font-family="Helvetica,sans-Serif" font-size="10.00">+</text>
<text text-anchor="start" x="512.5" y="-711.5" font-family="Helvetica,sans-Serif" font-size="10.00">~FileFinder()</text>
<text text-anchor="start" x="499.5" y="-696.5" font-family="Helvetica,sans-Serif" font-size="10.00">+</text>
<text text-anchor="start" x="512.5" y="-696.5" font-family="Helvetica,sans-Serif" font-size="10.00">SetPath()</text>
<text text-anchor="start" x="499.5" y="-681.5" font-family="Helvetica,sans-Serif" font-size="10.00">+</text>
<text text-anchor="start" x="512.5" y="-681.5" font-family="Helvetica,sans-Serif" font-size="10.00">SetPath()</text>
<text text-anchor="start" x="499.5" y="-666.5" font-family="Helvetica,sans-Serif" font-size="10.00">+</text>
<text text-anchor="start" x="512.5" y="-666.5" font-family="Helvetica,sans-Serif" font-size="10.00">IsPathSet()</text>
<text text-anchor="start" x="499.5" y="-651.5" font-family="Helvetica,sans-Serif" font-size="10.00">+</text>
<text text-anchor="start" x="512.5" y="-651.5" font-family="Helvetica,sans-Serif" font-size="10.00">Exists()</text>
<text text-anchor="start" x="499.5" y="-636.5" font-family="Helvetica,sans-Serif" font-size="10.00">+</text>
<text text-anchor="start" x="512.5" y="-636.5" font-family="Helvetica,sans-Serif" font-size="10.00">IsFile()</text>
<text text-anchor="start" x="512.5" y="-621.5" font-family="Helvetica,sans-Serif" font-size="10.00">and 14 more...</text>
<text text-anchor="start" x="499.5" y="-606.5" font-family="Helvetica,sans-Serif" font-size="10.00">+</text>
<text text-anchor="start" x="512.5" y="-606.5" font-family="Helvetica,sans-Serif" font-size="10.00">IsAbsolutePath()</text>
<text text-anchor="start" x="499.5" y="-591.5" font-family="Helvetica,sans-Serif" font-size="10.00">+</text>
<text text-anchor="start" x="512.5" y="-591.5" font-family="Helvetica,sans-Serif" font-size="10.00">ReplaceSpacesWithUnderscores()</text>
<text text-anchor="start" x="499.5" y="-576.5" font-family="Helvetica,sans-Serif" font-size="10.00">+</text>
<text text-anchor="start" x="512.5" y="-576.5" font-family="Helvetica,sans-Serif" font-size="10.00">ReplaceUnderscoresWithSpaces()</text>
<text text-anchor="start" x="499.5" y="-561.5" font-family="Helvetica,sans-Serif" font-size="10.00">+</text>
<text text-anchor="start" x="512.5" y="-561.5" font-family="Helvetica,sans-Serif" font-size="10.00">FakePath()</text>
<text text-anchor="start" x="499.5" y="-546.5" font-family="Helvetica,sans-Serif" font-size="10.00">+</text>
<text text-anchor="start" x="512.5" y="-546.5" font-family="Helvetica,sans-Serif" font-size="10.00">StopFaking()</text>
<text text-anchor="start" x="502" y="-531.5" font-family="Helvetica,sans-Serif" font-size="10.00">&#45;</text>
<text text-anchor="start" x="512.5" y="-531.5" font-family="Helvetica,sans-Serif" font-size="10.00">PrivateRemove()</text>
<polygon fill="#666666" stroke="#666666" points="495.5,-796.5 495.5,-796.5 681.5,-796.5 681.5,-796.5 495.5,-796.5"/>
<polygon fill="#666666" stroke="#666666" points="495.5,-781.5 495.5,-781.5 681.5,-781.5 681.5,-781.5 495.5,-781.5"/>
<polygon fill="none" stroke="#666666" points="495.5,-525 495.5,-814 681.5,-814 681.5,-525 495.5,-525"/>
</a>
</g>
</g>
<!-- Node3&#45;&gt;Node4 -->
<g id="edge4_Node000004_Node000003" class="edge">
<title>Node3&#45;&gt;Node4</title>
<g id="a_edge4_Node000004_Node000003"><a xlink:title=" ">
<path fill="none" stroke="#63b8ff" d="M173.8,-880.79C242.55,-867.52 472.13,-822.74 485.5,-814 485.6,-813.93 485.71,-813.86 485.81,-813.8"/>
<polygon fill="none" stroke="#63b8ff" points="485.52,-814 488.08,-807.26 495.29,-807.03 492.73,-813.77 485.52,-814"/>
</a>
</g>
<text text-anchor="middle" x="435.5" y="-835" font-family="Helvetica,sans-Serif" font-size="10.00" fill="grey"> &#45;mAbsPath</text>
</g>
<!-- Node4&#45;&gt;Node2 -->
<g id="edge3_Node000002_Node000004" class="edge">
<title>Node4&#45;&gt;Node2</title>
<g id="a_edge3_Node000002_Node000004"><a xlink:title=" ">
<path fill="none" stroke="#63b8ff" d="M614.61,-524.97C614.84,-507.74 613.69,-490.43 610.5,-474 610.1,-471.97 609.67,-469.93 609.2,-467.88"/>
<polygon fill="none" stroke="#63b8ff" points="609.17,-467.74 603.8,-462.92 606.18,-456.11 611.55,-460.93 609.17,-467.74"/>
</a>
</g>
<text text-anchor="middle" x="648" y="-488" font-family="Helvetica,sans-Serif" font-size="10.00" fill="grey"> #mDirectory</text>
</g>
<!-- Node5 -->
<g id="Node000005" class="node">
<title>Node5</title>
<g id="a_Node000005"><a xlink:href="classbool.html" target="_top" xlink:title=" ">
<polygon fill="white" stroke="transparent" points="733.5,-910 701.5,-910 701.5,-861 733.5,-861 733.5,-910"/>
<text text-anchor="start" x="706.5" y="-897.5" font-family="Helvetica,sans-Serif" font-size="10.00">bool</text>
<text text-anchor="start" x="715.5" y="-882.5" font-family="Helvetica,sans-Serif" font-size="10.00"> </text>
<text text-anchor="start" x="715.5" y="-867.5" font-family="Helvetica,sans-Serif" font-size="10.00"> </text>
<polygon fill="#bfbfbf" stroke="#bfbfbf" points="701.5,-892.5 701.5,-892.5 733.5,-892.5 733.5,-892.5 701.5,-892.5"/>
<polygon fill="#bfbfbf" stroke="#bfbfbf" points="701.5,-877.5 701.5,-877.5 733.5,-877.5 733.5,-877.5 701.5,-877.5"/>
<polygon fill="none" stroke="#bfbfbf" points="701.5,-861 701.5,-910 733.5,-910 733.5,-861 701.5,-861"/>
</a>
</g>
</g>
<!-- Node5&#45;&gt;Node1 -->
<g id="edge18_Node000001_Node000005" class="edge">
<title>Node5&#45;&gt;Node1</title>
<g id="a_edge18_Node000001_Node000005"><a xlink:title=" ">
<path fill="none" stroke="#63b8ff" d="M733.74,-884.21C773.78,-882.59 877.87,-872.63 932.5,-814 1044.34,-693.97 999.02,-618.37 1022.5,-456 1032.92,-383.92 1036.57,-302.48 1037.55,-237.1"/>
<polygon fill="none" stroke="#63b8ff" points="1037.55,-237.09 1033.63,-231.04 1037.71,-225.09 1041.63,-231.14 1037.55,-237.09"/>
</a>
</g>
<text text-anchor="middle" x="1045.5" y="-488" font-family="Helvetica,sans-Serif" font-size="10.00" fill="grey"> &#45;mClosed</text>
</g>
<!-- Node5&#45;&gt;Node2 -->
<g id="edge9_Node000002_Node000005" class="edge">
<title>Node5&#45;&gt;Node2</title>
<g id="a_edge9_Node000002_Node000005"><a xlink:title=" ">
<path fill="none" stroke="#63b8ff" d="M717.95,-860.77C719.08,-783.87 719.73,-542.5 685.5,-474 680.95,-464.9 675.3,-456.2 668.95,-447.95"/>
<polygon fill="none" stroke="#63b8ff" points="668.81,-447.77 661.91,-445.66 661.2,-438.48 668.1,-440.59 668.81,-447.77"/>
</a>
</g>
<text text-anchor="middle" x="790" y="-672.5" font-family="Helvetica,sans-Serif" font-size="10.00" fill="grey"> #mIsDataComplete</text>
<text text-anchor="middle" x="790" y="-661.5" font-family="Helvetica,sans-Serif" font-size="10.00" fill="grey">#mIsUnlimitedDimensionSet</text>
</g>
<!-- Node5&#45;&gt;Node4 -->
<g id="edge5_Node000004_Node000005" class="edge">
<title>Node5&#45;&gt;Node4</title>
<g id="a_edge5_Node000004_Node000005"><a xlink:title=" ">
<path fill="none" stroke="#63b8ff" d="M701.28,-878.37C685.94,-871.8 663.26,-859.97 649.5,-843 644.77,-837.17 640.4,-830.95 636.35,-824.46"/>
<polygon fill="none" stroke="#63b8ff" points="636.32,-824.4 629.84,-821.25 630.26,-814.05 636.74,-817.2 636.32,-824.4"/>
</a>
</g>
<text text-anchor="middle" x="676.5" y="-835" font-family="Helvetica,sans-Serif" font-size="10.00" fill="grey"> &#45;msFaking</text>
</g>
<!-- Node6 -->
<g id="Node000006" class="node">
<title>Node6</title>
<g id="a_Node000006"><a xlink:title=" ">
<polygon fill="white" stroke="transparent" points="486.5,-910 448.5,-910 448.5,-861 486.5,-861 486.5,-910"/>
<text text-anchor="start" x="453.5" y="-897.5" font-family="Helvetica,sans-Serif" font-size="10.00">Value</text>
<text text-anchor="start" x="465.5" y="-882.5" font-family="Helvetica,sans-Serif" font-size="10.00"> </text>
<text text-anchor="start" x="465.5" y="-867.5" font-family="Helvetica,sans-Serif" font-size="10.00"> </text>
<polygon fill="#bfbfbf" stroke="#bfbfbf" points="448.5,-892.5 448.5,-892.5 486.5,-892.5 486.5,-892.5 448.5,-892.5"/>
<polygon fill="#bfbfbf" stroke="#bfbfbf" points="448.5,-877.5 448.5,-877.5 486.5,-877.5 486.5,-877.5 448.5,-877.5"/>
<polygon fill="none" stroke="#bfbfbf" points="448.5,-861 448.5,-910 486.5,-910 486.5,-861 448.5,-861"/>
</a>
</g>
</g>
<!-- Node6&#45;&gt;Node4 -->
<g id="edge6_Node000004_Node000006" class="edge">
<title>Node6&#45;&gt;Node4</title>
<g id="a_edge6_Node000004_Node000006"><a xlink:title=" ">
<path fill="none" stroke="#63b8ff" d="M475.4,-860.82C478.75,-851.65 482.94,-841.17 487.5,-832 488.69,-829.59 489.92,-827.18 491.16,-824.76"/>
<polygon fill="none" stroke="#63b8ff" points="491.18,-824.72 490.43,-817.55 496.76,-814.1 497.51,-821.27 491.18,-824.72"/>
</a>
</g>
<text text-anchor="middle" x="522.5" y="-835" font-family="Helvetica,sans-Serif" font-size="10.00" fill="grey"> &#45;msFakeWhat</text>
</g>
<!-- Node7 -->
<g id="Node000007" class="node">
<title>Node7</title>
<g id="a_Node000007"><a xlink:title=" ">
<polygon fill="white" stroke="transparent" points="579.5,-910 541.5,-910 541.5,-861 579.5,-861 579.5,-910"/>
<text text-anchor="start" x="546.5" y="-897.5" font-family="Helvetica,sans-Serif" font-size="10.00">string</text>
<text text-anchor="start" x="558.5" y="-882.5" font-family="Helvetica,sans-Serif" font-size="10.00"> </text>
<text text-anchor="start" x="558.5" y="-867.5" font-family="Helvetica,sans-Serif" font-size="10.00"> </text>
<polygon fill="#bfbfbf" stroke="#bfbfbf" points="541.5,-892.5 541.5,-892.5 579.5,-892.5 579.5,-892.5 541.5,-892.5"/>
<polygon fill="#bfbfbf" stroke="#bfbfbf" points="541.5,-877.5 541.5,-877.5 579.5,-877.5 579.5,-877.5 541.5,-877.5"/>
<polygon fill="none" stroke="#bfbfbf" points="541.5,-861 541.5,-910 579.5,-910 579.5,-861 541.5,-861"/>
</a>
</g>
</g>
<!-- Node7&#45;&gt;Node4 -->
<g id="edge7_Node000004_Node000007" class="edge">
<title>Node7&#45;&gt;Node4</title>
<g id="a_edge7_Node000004_Node000007"><a xlink:title=" ">
<path fill="none" stroke="#63b8ff" d="M560.21,-860.94C560.29,-851.88 560.62,-841.44 561.5,-832 561.66,-830.19 561.84,-828.36 562.03,-826.53"/>
<polygon fill="none" stroke="#63b8ff" points="562.06,-826.26 558.73,-819.86 563.35,-814.33 566.68,-820.72 562.06,-826.26"/>
</a>
</g>
<text text-anchor="middle" x="594" y="-835" font-family="Helvetica,sans-Serif" font-size="10.00" fill="grey"> &#45;msFakePath</text>
</g>
<!-- Node8 -->
<g id="Node000008" class="node">
<title>Node8</title>
<g id="a_Node000008"><a xlink:href="classunsigned.html" target="_top" xlink:title=" ">
<polygon fill="white" stroke="transparent" points="477,-694 422,-694 422,-645 477,-645 477,-694"/>
<text text-anchor="start" x="427.5" y="-681.5" font-family="Helvetica,sans-Serif" font-size="10.00">unsigned</text>
<text text-anchor="start" x="448" y="-666.5" font-family="Helvetica,sans-Serif" font-size="10.00"> </text>
<text text-anchor="start" x="448" y="-651.5" font-family="Helvetica,sans-Serif" font-size="10.00"> </text>
<polygon fill="#bfbfbf" stroke="#bfbfbf" points="422.5,-676.5 422.5,-676.5 477.5,-676.5 477.5,-676.5 422.5,-676.5"/>
<polygon fill="#bfbfbf" stroke="#bfbfbf" points="422.5,-661.5 422.5,-661.5 477.5,-661.5 477.5,-661.5 422.5,-661.5"/>
<polygon fill="none" stroke="#bfbfbf" points="422,-645 422,-694 477,-694 477,-645 422,-645"/>
</a>
</g>
</g>
<!-- Node8&#45;&gt;Node1 -->
<g id="edge13_Node000001_Node000008" class="edge">
<title>Node8&#45;&gt;Node1</title>
<g id="a_edge13_Node000001_Node000008"><a xlink:title=" ">
<path fill="none" stroke="#63b8ff" d="M447.99,-644.91C447.34,-612.45 451.6,-554.65 486.5,-525 520.33,-496.25 650.39,-534.18 685.5,-507 773.2,-439.1 698.96,-357.6 769.5,-272 811.91,-220.53 875.69,-181.78 930.28,-155.49"/>
<polygon fill="none" stroke="#63b8ff" points="930.57,-155.35 934.29,-149.18 941.42,-150.23 937.7,-156.41 930.57,-155.35"/>
</a>
</g>
<text text-anchor="middle" x="832" y="-361.5" font-family="Helvetica,sans-Serif" font-size="10.00" fill="grey"> &#45;mVariablesDatasetRank</text>
</g>
<!-- Node8&#45;&gt;Node2 -->
<g id="edge8_Node000002_Node000008" class="edge">
<title>Node8&#45;&gt;Node2</title>
<g id="a_edge8_Node000002_Node000008"><a xlink:title=" ">
<path fill="none" stroke="#63b8ff" d="M452.35,-644.75C456.61,-615.33 466.37,-564.27 486.5,-525 491.25,-515.73 495.95,-515.81 501.5,-507 509.36,-494.51 516.82,-480.91 523.69,-467.23"/>
<polygon fill="none" stroke="#63b8ff" points="523.79,-467.04 522.84,-459.9 529.08,-456.27 530.02,-463.42 523.79,-467.04"/>
</a>
</g>
<text text-anchor="middle" x="561.5" y="-488" font-family="Helvetica,sans-Serif" font-size="10.00" fill="grey"> #DATASET_DIMS</text>
</g>
<!-- Node9 -->
<g id="Node000009" class="node">
<title>Node9</title>
<g id="a_Node000009"><a xlink:title=" ">
<polygon fill="white" stroke="transparent" points="316.5,-694 208.5,-694 208.5,-645 316.5,-645 316.5,-694"/>
<text text-anchor="start" x="213.5" y="-681.5" font-family="Helvetica,sans-Serif" font-size="10.00">vector&lt; unsigned &gt;</text>
<text text-anchor="start" x="260.5" y="-666.5" font-family="Helvetica,sans-Serif" font-size="10.00"> </text>
<text text-anchor="start" x="260.5" y="-651.5" font-family="Helvetica,sans-Serif" font-size="10.00"> </text>
<polygon fill="#bfbfbf" stroke="#bfbfbf" points="208.5,-676.5 208.5,-676.5 316.5,-676.5 316.5,-676.5 208.5,-676.5"/>
<polygon fill="#bfbfbf" stroke="#bfbfbf" points="208.5,-661.5 208.5,-661.5 316.5,-661.5 316.5,-661.5 208.5,-661.5"/>
<polygon fill="none" stroke="#bfbfbf" points="208.5,-645 208.5,-694 316.5,-694 316.5,-645 208.5,-645"/>
</a>
</g>
</g>
<!-- Node9&#45;&gt;Node2 -->
<g id="edge10_Node000002_Node000009" class="edge">
<title>Node9&#45;&gt;Node2</title>
<g id="a_edge10_Node000002_Node000009"><a xlink:title=" ">
<path fill="none" stroke="#63b8ff" d="M248.96,-645C228.28,-605.66 194.98,-525.71 232.5,-474 283.92,-403.12 382.72,-377.46 459.57,-368.59"/>
<polygon fill="none" stroke="#63b8ff" points="459.78,-368.57 465.32,-363.96 471.71,-367.31 466.16,-371.92 459.78,-368.57"/>
</a>
</g>
<text text-anchor="middle" x="300.5" y="-488" font-family="Helvetica,sans-Serif" font-size="10.00" fill="grey"> #mIncompleteNodeIndices</text>
</g>
<!-- Node10 -->
<g id="Node000010" class="node">
<title>Node10</title>
<g id="a_Node000010"><a xlink:title=" ">
<polygon fill="white" stroke="transparent" points="404,-694 369,-694 369,-645 404,-645 404,-694"/>
<text text-anchor="start" x="374.5" y="-681.5" font-family="Helvetica,sans-Serif" font-size="10.00">hid_t</text>
<text text-anchor="start" x="385" y="-666.5" font-family="Helvetica,sans-Serif" font-size="10.00"> </text>
<text text-anchor="start" x="385" y="-651.5" font-family="Helvetica,sans-Serif" font-size="10.00"> </text>
<polygon fill="#bfbfbf" stroke="#bfbfbf" points="369.5,-676.5 369.5,-676.5 404.5,-676.5 404.5,-676.5 369.5,-676.5"/>
<polygon fill="#bfbfbf" stroke="#bfbfbf" points="369.5,-661.5 369.5,-661.5 404.5,-661.5 404.5,-661.5 369.5,-661.5"/>
<polygon fill="none" stroke="#bfbfbf" points="369,-645 369,-694 404,-694 404,-645 369,-645"/>
</a>
</g>
</g>
<!-- Node10&#45;&gt;Node2 -->
<g id="edge11_Node000002_Node000010" class="edge">
<title>Node10&#45;&gt;Node2</title>
<g id="a_edge11_Node000002_Node000010"><a xlink:title=" ">
<path fill="none" stroke="#63b8ff" d="M378.9,-644.76C368.02,-606.12 352.54,-528.46 383.5,-474 400.82,-443.52 430.42,-420.66 460.82,-403.96"/>
<polygon fill="none" stroke="#63b8ff" points="460.96,-403.89 464.42,-397.56 471.59,-398.31 468.13,-404.64 460.96,-403.89"/>
</a>
</g>
<text text-anchor="middle" x="440.5" y="-499" font-family="Helvetica,sans-Serif" font-size="10.00" fill="grey"> #mFileId</text>
<text text-anchor="middle" x="440.5" y="-488" font-family="Helvetica,sans-Serif" font-size="10.00" fill="grey">#mUnlimitedDatasetId</text>
<text text-anchor="middle" x="440.5" y="-477" font-family="Helvetica,sans-Serif" font-size="10.00" fill="grey">#mVariablesDatasetId</text>
</g>
<!-- Node11 -->
<g id="Node000011" class="node">
<title>Node11</title>
<g id="a_Node000011"><a xlink:href="classhsize__t.html" target="_top" xlink:title=" ">
<polygon fill="white" stroke="transparent" points="924,-694 879,-694 879,-645 924,-645 924,-694"/>
<text text-anchor="start" x="884.5" y="-681.5" font-family="Helvetica,sans-Serif" font-size="10.00">hsize_t</text>
<text text-anchor="start" x="900" y="-666.5" font-family="Helvetica,sans-Serif" font-size="10.00"> </text>
<text text-anchor="start" x="900" y="-651.5" font-family="Helvetica,sans-Serif" font-size="10.00"> </text>
<polygon fill="#bfbfbf" stroke="#bfbfbf" points="879.5,-676.5 879.5,-676.5 924.5,-676.5 924.5,-676.5 879.5,-676.5"/>
<polygon fill="#bfbfbf" stroke="#bfbfbf" points="879.5,-661.5 879.5,-661.5 924.5,-661.5 924.5,-661.5 879.5,-661.5"/>
<polygon fill="none" stroke="#bfbfbf" points="879,-645 879,-694 924,-694 924,-645 879,-645"/>
</a>
</g>
</g>
<!-- Node11&#45;&gt;Node1 -->
<g id="edge14_Node000001_Node000011" class="edge">
<title>Node11&#45;&gt;Node1</title>
<g id="a_edge14_Node000001_Node000011"><a xlink:title=" ">
<path fill="none" stroke="#63b8ff" d="M900.47,-644.81C897.52,-570.23 890.75,-341.15 915.5,-272 920.51,-257.98 927.26,-244.2 935.01,-230.97"/>
<polygon fill="none" stroke="#63b8ff" points="935.16,-230.72 934.88,-223.52 941.43,-220.49 941.71,-227.7 935.16,-230.72"/>
</a>
</g>
<text text-anchor="middle" x="969" y="-361.5" font-family="Helvetica,sans-Serif" font-size="10.00" fill="grey"> &#45;mNumberTimesteps</text>
</g>
<!-- Node11&#45;&gt;Node2 -->
<g id="edge12_Node000002_Node000011" class="edge">
<title>Node11&#45;&gt;Node2</title>
<g id="a_edge12_Node000002_Node000011"><a xlink:title=" ">
<path fill="none" stroke="#63b8ff" d="M902.15,-644.74C901.69,-613.14 896.03,-557.5 864.5,-525 844.52,-504.41 828.79,-518.49 802.5,-507 757.76,-487.44 711.16,-460.9 671.31,-436.05"/>
<polygon fill="none" stroke="#63b8ff" points="671.22,-435.99 664.01,-436.18 661.06,-429.6 668.27,-429.41 671.22,-435.99"/>
</a>
</g>
<text text-anchor="middle" x="845" y="-488" font-family="Helvetica,sans-Serif" font-size="10.00" fill="grey"> #mDatasetDims</text>
</g>
<!-- Node12 -->
<g id="Node000012" class="node">
<title>Node12</title>
<g id="a_Node000012"><a xlink:title=" ">
<polygon fill="white" stroke="transparent" points="1178,-388.5 1065,-388.5 1065,-339.5 1178,-339.5 1178,-388.5"/>
<text text-anchor="start" x="1070.5" y="-376" font-family="Helvetica,sans-Serif" font-size="10.00">vector&lt; std::string &gt;</text>
<text text-anchor="start" x="1120" y="-361" font-family="Helvetica,sans-Serif" font-size="10.00"> </text>
<text text-anchor="start" x="1120" y="-346" font-family="Helvetica,sans-Serif" font-size="10.00"> </text>
<polygon fill="#bfbfbf" stroke="#bfbfbf" points="1065.5,-371 1065.5,-371 1178.5,-371 1178.5,-371 1065.5,-371"/>
<polygon fill="#bfbfbf" stroke="#bfbfbf" points="1065.5,-356 1065.5,-356 1178.5,-356 1178.5,-356 1065.5,-356"/>
<polygon fill="none" stroke="#bfbfbf" points="1065,-339.5 1065,-388.5 1178,-388.5 1178,-339.5 1065,-339.5"/>
</a>
</g>
</g>
<!-- Node12&#45;&gt;Node1 -->
<g id="edge15_Node000001_Node000012" class="edge">
<title>Node12&#45;&gt;Node1</title>
<g id="a_edge15_Node000001_Node000012"><a xlink:title=" ">
<path fill="none" stroke="#63b8ff" d="M1113.35,-339.08C1105.12,-314.93 1091.77,-275.74 1078.48,-236.74"/>
<polygon fill="none" stroke="#63b8ff" points="1078.42,-236.57 1072.7,-232.18 1074.55,-225.21 1080.28,-229.6 1078.42,-236.57"/>
</a>
</g>
<text text-anchor="middle" x="1129" y="-246" font-family="Helvetica,sans-Serif" font-size="10.00" fill="grey"> &#45;mVariableNames</text>
</g>
<!-- Node13 -->
<g id="Node000013" class="node">
<title>Node13</title>
<g id="a_Node000013"><a xlink:title=" ">
<polygon fill="white" stroke="transparent" points="1350.5,-388.5 1196.5,-388.5 1196.5,-339.5 1350.5,-339.5 1350.5,-388.5"/>
<text text-anchor="start" x="1201.5" y="-376" font-family="Helvetica,sans-Serif" font-size="10.00">map&lt; std::string, unsigned &gt;</text>
<text text-anchor="start" x="1271.5" y="-361" font-family="Helvetica,sans-Serif" font-size="10.00"> </text>
<text text-anchor="start" x="1271.5" y="-346" font-family="Helvetica,sans-Serif" font-size="10.00"> </text>
<polygon fill="#bfbfbf" stroke="#bfbfbf" points="1196.5,-371 1196.5,-371 1350.5,-371 1350.5,-371 1196.5,-371"/>
<polygon fill="#bfbfbf" stroke="#bfbfbf" points="1196.5,-356 1196.5,-356 1350.5,-356 1350.5,-356 1196.5,-356"/>
<polygon fill="none" stroke="#bfbfbf" points="1196.5,-339.5 1196.5,-388.5 1350.5,-388.5 1350.5,-339.5 1196.5,-339.5"/>
</a>
</g>
</g>
<!-- Node13&#45;&gt;Node1 -->
<g id="edge16_Node000001_Node000013" class="edge">
<title>Node13&#45;&gt;Node1</title>
<g id="a_edge16_Node000001_Node000013"><a xlink:title=" ">
<path fill="none" stroke="#63b8ff" d="M1256.35,-339.08C1238.1,-314.17 1207.85,-274.48 1178.5,-243 1166.66,-230.31 1153.78,-217.43 1140.76,-204.97"/>
<polygon fill="none" stroke="#63b8ff" points="1140.44,-204.67 1133.34,-203.44 1131.73,-196.41 1138.84,-197.64 1140.44,-204.67"/>
</a>
</g>
<text text-anchor="middle" x="1252.5" y="-246" font-family="Helvetica,sans-Serif" font-size="10.00" fill="grey"> &#45;mVariableToColumnIndex</text>
</g>
<!-- Node14 -->
<g id="Node000014" class="node">
<title>Node14</title>
<g id="a_Node000014"><a xlink:title=" ">
<polygon fill="white" stroke="transparent" points="1483,-394 1370,-394 1370,-334 1483,-334 1483,-394"/>
<text text-anchor="start" x="1375.5" y="-382" font-family="Helvetica,sans-Serif" font-size="10.00">map&lt; std::string, std</text>
<text text-anchor="start" x="1404" y="-371" font-family="Helvetica,sans-Serif" font-size="10.00">::string &gt;</text>
<text text-anchor="start" x="1425" y="-356" font-family="Helvetica,sans-Serif" font-size="10.00"> </text>
<text text-anchor="start" x="1425" y="-341" font-family="Helvetica,sans-Serif" font-size="10.00"> </text>
<polygon fill="#bfbfbf" stroke="#bfbfbf" points="1370.5,-366 1370.5,-366 1483.5,-366 1483.5,-366 1370.5,-366"/>
<polygon fill="#bfbfbf" stroke="#bfbfbf" points="1370.5,-351 1370.5,-351 1483.5,-351 1483.5,-351 1370.5,-351"/>
<polygon fill="none" stroke="#bfbfbf" points="1370,-334 1370,-394 1483,-394 1483,-334 1370,-334"/>
</a>
</g>
</g>
<!-- Node14&#45;&gt;Node1 -->
<g id="edge17_Node000001_Node000014" class="edge">
<title>Node14&#45;&gt;Node1</title>
<g id="a_edge17_Node000001_Node000014"><a xlink:title=" ">
<path fill="none" stroke="#63b8ff" d="M1408.1,-333.97C1395.56,-315.27 1377.94,-291.01 1359.5,-272 1300.06,-210.74 1212.05,-169.72 1142.9,-144.79"/>
<polygon fill="none" stroke="#63b8ff" points="1142.85,-144.77 1135.86,-146.54 1131.54,-140.77 1138.53,-139 1142.85,-144.77"/>
</a>
</g>
<text text-anchor="middle" x="1381.5" y="-246" font-family="Helvetica,sans-Serif" font-size="10.00" fill="grey"> &#45;mVariableToUnit</text>
</g>
</g>
</svg>
