<?xml version="1.0" encoding="UTF-8" standalone="no"?>
<!DOCTYPE svg PUBLIC "-//W3C//DTD SVG 1.1//EN"
 "http://www.w3.org/Graphics/SVG/1.1/DTD/svg11.dtd">
<!-- Generated by graphviz version 2.43.0 (0)
 -->
<!-- Title: VertexMeshOperationRecorder&lt; ELEMENT_DIM, SPACE_DIM &gt; Pages: 1 -->
<svg width="840pt" height="340pt"
 viewBox="0.00 0.00 839.50 340.00" xmlns="http://www.w3.org/2000/svg" xmlns:xlink="http://www.w3.org/1999/xlink">
<g id="graph0" class="graph" transform="scale(1 1) rotate(0) translate(4 336)">
<title>VertexMeshOperationRecorder&lt; ELEMENT_DIM, SPACE_DIM &gt;</title>
<!-- Node1 -->
<g id="Node000001" class="node">
<title>Node1</title>
<g id="a_Node000001"><a xlink:title=" ">
<polygon fill="#999999" stroke="transparent" points="473.5,-225 286.5,-225 286.5,0 473.5,0 473.5,-225"/>
<text text-anchor="start" x="303" y="-212.5" font-family="Helvetica,sans-Serif" font-size="10.00">VertexMeshOperationRecorder</text>
<text text-anchor="start" x="303" y="-201.5" font-family="Helvetica,sans-Serif" font-size="10.00">&lt; ELEMENT_DIM, SPACE_DIM &gt;</text>
<text text-anchor="start" x="378.5" y="-186.5" font-family="Helvetica,sans-Serif" font-size="10.00"> </text>
<text text-anchor="start" x="291" y="-171.5" font-family="Helvetica,sans-Serif" font-size="10.00">+</text>
<text text-anchor="start" x="304" y="-171.5" font-family="Helvetica,sans-Serif" font-size="10.00">VertexMeshOperationRecorder()</text>
<text text-anchor="start" x="291" y="-156.5" font-family="Helvetica,sans-Serif" font-size="10.00">+</text>
<text text-anchor="start" x="304" y="-156.5" font-family="Helvetica,sans-Serif" font-size="10.00">~VertexMeshOperationRecorder()</text>
<text text-anchor="start" x="291" y="-141.5" font-family="Helvetica,sans-Serif" font-size="10.00">+</text>
<text text-anchor="start" x="304" y="-141.5" font-family="Helvetica,sans-Serif" font-size="10.00">SetEdgeHelper()</text>
<text text-anchor="start" x="291" y="-126.5" font-family="Helvetica,sans-Serif" font-size="10.00">+</text>
<text text-anchor="start" x="304" y="-126.5" font-family="Helvetica,sans-Serif" font-size="10.00">RecordT1Swap()</text>
<text text-anchor="start" x="291" y="-111.5" font-family="Helvetica,sans-Serif" font-size="10.00">+</text>
<text text-anchor="start" x="304" y="-111.5" font-family="Helvetica,sans-Serif" font-size="10.00">GetT1SwapsInfo()</text>
<text text-anchor="start" x="291" y="-96.5" font-family="Helvetica,sans-Serif" font-size="10.00">+</text>
<text text-anchor="start" x="304" y="-96.5" font-family="Helvetica,sans-Serif" font-size="10.00">ClearT1SwapsInfo()</text>
<text text-anchor="start" x="291" y="-81.5" font-family="Helvetica,sans-Serif" font-size="10.00">+</text>
<text text-anchor="start" x="304" y="-81.5" font-family="Helvetica,sans-Serif" font-size="10.00">RecordT2Swap()</text>
<text text-anchor="start" x="291" y="-66.5" font-family="Helvetica,sans-Serif" font-size="10.00">+</text>
<text text-anchor="start" x="304" y="-66.5" font-family="Helvetica,sans-Serif" font-size="10.00">GetT2SwapsInfo()</text>
<text text-anchor="start" x="291" y="-51.5" font-family="Helvetica,sans-Serif" font-size="10.00">+</text>
<text text-anchor="start" x="304" y="-51.5" font-family="Helvetica,sans-Serif" font-size="10.00">ClearT2SwapsInfo()</text>
<text text-anchor="start" x="291" y="-36.5" font-family="Helvetica,sans-Serif" font-size="10.00">+</text>
<text text-anchor="start" x="304" y="-36.5" font-family="Helvetica,sans-Serif" font-size="10.00">RecordT3Swap()</text>
<text text-anchor="start" x="304" y="-21.5" font-family="Helvetica,sans-Serif" font-size="10.00">and 12 more...</text>
<text text-anchor="start" x="293.5" y="-6.5" font-family="Helvetica,sans-Serif" font-size="10.00">&#45;</text>
<text text-anchor="start" x="304" y="-6.5" font-family="Helvetica,sans-Serif" font-size="10.00">serialize()</text>
<polygon fill="#666666" stroke="#666666" points="287,-196.5 287,-196.5 474,-196.5 474,-196.5 287,-196.5"/>
<polygon fill="#666666" stroke="#666666" points="287,-181.5 287,-181.5 474,-181.5 474,-181.5 287,-181.5"/>
<polygon fill="none" stroke="#666666" points="286.5,0 286.5,-225 473.5,-225 473.5,0 286.5,0"/>
</a>
</g>
</g>
<!-- Node2 -->
<g id="Node000002" class="node">
<title>Node2</title>
<g id="a_Node000002"><a xlink:title=" ">
<polygon fill="white" stroke="transparent" points="110,-332 0,-332 0,-272 110,-272 110,-332"/>
<text text-anchor="start" x="5" y="-320" font-family="Helvetica,sans-Serif" font-size="10.00">vector&lt; T1SwapInfo</text>
<text text-anchor="start" x="10" y="-309" font-family="Helvetica,sans-Serif" font-size="10.00">&lt; SPACE_DIM &gt; &gt;</text>
<text text-anchor="start" x="53" y="-294" font-family="Helvetica,sans-Serif" font-size="10.00"> </text>
<text text-anchor="start" x="53" y="-279" font-family="Helvetica,sans-Serif" font-size="10.00"> </text>
<polygon fill="#bfbfbf" stroke="#bfbfbf" points="0,-304 0,-304 110,-304 110,-304 0,-304"/>
<polygon fill="#bfbfbf" stroke="#bfbfbf" points="0,-289 0,-289 110,-289 110,-289 0,-289"/>
<polygon fill="none" stroke="#bfbfbf" points="0,-272 0,-332 110,-332 110,-272 0,-272"/>
</a>
</g>
</g>
<!-- Node2&#45;&gt;Node1 -->
<g id="edge1_Node000001_Node000002" class="edge">
<title>Node2&#45;&gt;Node1</title>
<g id="a_edge1_Node000001_Node000002"><a xlink:title=" ">
<path fill="none" stroke="#63b8ff" d="M105.42,-271.91C150.74,-245.76 218.74,-206.54 275.72,-173.66"/>
<polygon fill="none" stroke="#63b8ff" points="275.83,-173.6 279.03,-167.13 286.23,-167.6 283.03,-174.06 275.83,-173.6"/>
</a>
</g>
<text text-anchor="middle" x="182.5" y="-246" font-family="Helvetica,sans-Serif" font-size="10.00" fill="grey"> &#45;mT1Swaps</text>
</g>
<!-- Node3 -->
<g id="Node000003" class="node">
<title>Node3</title>
<g id="a_Node000003"><a xlink:title=" ">
<polygon fill="white" stroke="transparent" points="238,-332 128,-332 128,-272 238,-272 238,-332"/>
<text text-anchor="start" x="133" y="-320" font-family="Helvetica,sans-Serif" font-size="10.00">vector&lt; T2SwapInfo</text>
<text text-anchor="start" x="138" y="-309" font-family="Helvetica,sans-Serif" font-size="10.00">&lt; SPACE_DIM &gt; &gt;</text>
<text text-anchor="start" x="181" y="-294" font-family="Helvetica,sans-Serif" font-size="10.00"> </text>
<text text-anchor="start" x="181" y="-279" font-family="Helvetica,sans-Serif" font-size="10.00"> </text>
<polygon fill="#bfbfbf" stroke="#bfbfbf" points="128,-304 128,-304 238,-304 238,-304 128,-304"/>
<polygon fill="#bfbfbf" stroke="#bfbfbf" points="128,-289 128,-289 238,-289 238,-289 128,-289"/>
<polygon fill="none" stroke="#bfbfbf" points="128,-272 128,-332 238,-332 238,-272 128,-272"/>
</a>
</g>
</g>
<!-- Node3&#45;&gt;Node1 -->
<g id="edge2_Node000001_Node000003" class="edge">
<title>Node3&#45;&gt;Node1</title>
<g id="a_edge2_Node000001_Node000003"><a xlink:title=" ">
<path fill="none" stroke="#63b8ff" d="M213.78,-271.7C231.25,-255.08 254.21,-233.22 277.48,-211.07"/>
<polygon fill="none" stroke="#63b8ff" points="277.71,-210.86 279.3,-203.82 286.4,-202.58 284.82,-209.62 277.71,-210.86"/>
</a>
</g>
<text text-anchor="middle" x="272.5" y="-246" font-family="Helvetica,sans-Serif" font-size="10.00" fill="grey"> &#45;mT2Swaps</text>
</g>
<!-- Node4 -->
<g id="Node000004" class="node">
<title>Node4</title>
<g id="a_Node000004"><a xlink:title=" ">
<polygon fill="white" stroke="transparent" points="366,-332 256,-332 256,-272 366,-272 366,-332"/>
<text text-anchor="start" x="261" y="-320" font-family="Helvetica,sans-Serif" font-size="10.00">vector&lt; T3SwapInfo</text>
<text text-anchor="start" x="266" y="-309" font-family="Helvetica,sans-Serif" font-size="10.00">&lt; SPACE_DIM &gt; &gt;</text>
<text text-anchor="start" x="309" y="-294" font-family="Helvetica,sans-Serif" font-size="10.00"> </text>
<text text-anchor="start" x="309" y="-279" font-family="Helvetica,sans-Serif" font-size="10.00"> </text>
<polygon fill="#bfbfbf" stroke="#bfbfbf" points="256,-304 256,-304 366,-304 366,-304 256,-304"/>
<polygon fill="#bfbfbf" stroke="#bfbfbf" points="256,-289 256,-289 366,-289 366,-289 256,-289"/>
<polygon fill="none" stroke="#bfbfbf" points="256,-272 256,-332 366,-332 366,-272 256,-272"/>
</a>
</g>
</g>
<!-- Node4&#45;&gt;Node1 -->
<g id="edge3_Node000001_Node000004" class="edge">
<title>Node4&#45;&gt;Node1</title>
<g id="a_edge3_Node000001_Node000004"><a xlink:title=" ">
<path fill="none" stroke="#63b8ff" d="M321.78,-271.7C325.5,-261.59 329.94,-249.53 334.68,-236.65"/>
<polygon fill="none" stroke="#63b8ff" points="334.77,-236.4 333.09,-229.39 338.92,-225.14 340.6,-232.15 334.77,-236.4"/>
</a>
</g>
<text text-anchor="middle" x="361.5" y="-246" font-family="Helvetica,sans-Serif" font-size="10.00" fill="grey"> &#45;mT3Swaps</text>
</g>
<!-- Node5 -->
<g id="Node000005" class="node">
<title>Node5</title>
<g id="a_Node000005"><a xlink:title=" ">
<polygon fill="white" stroke="transparent" points="514,-332 384,-332 384,-272 514,-272 514,-332"/>
<text text-anchor="start" x="389" y="-320" font-family="Helvetica,sans-Serif" font-size="10.00">vector&lt; CellDivisionInfo</text>
<text text-anchor="start" x="404" y="-309" font-family="Helvetica,sans-Serif" font-size="10.00">&lt; SPACE_DIM &gt; &gt;</text>
<text text-anchor="start" x="447" y="-294" font-family="Helvetica,sans-Serif" font-size="10.00"> </text>
<text text-anchor="start" x="447" y="-279" font-family="Helvetica,sans-Serif" font-size="10.00"> </text>
<polygon fill="#bfbfbf" stroke="#bfbfbf" points="384,-304 384,-304 514,-304 514,-304 384,-304"/>
<polygon fill="#bfbfbf" stroke="#bfbfbf" points="384,-289 384,-289 514,-289 514,-289 384,-289"/>
<polygon fill="none" stroke="#bfbfbf" points="384,-272 384,-332 514,-332 514,-272 384,-272"/>
</a>
</g>
</g>
<!-- Node5&#45;&gt;Node1 -->
<g id="edge4_Node000001_Node000005" class="edge">
<title>Node5&#45;&gt;Node1</title>
<g id="a_edge4_Node000001_Node000005"><a xlink:title=" ">
<path fill="none" stroke="#63b8ff" d="M438.22,-271.7C434.5,-261.59 430.06,-249.53 425.32,-236.65"/>
<polygon fill="none" stroke="#63b8ff" points="425.23,-236.4 419.4,-232.15 421.08,-225.14 426.91,-229.39 425.23,-236.4"/>
</a>
</g>
<text text-anchor="middle" x="470.5" y="-246" font-family="Helvetica,sans-Serif" font-size="10.00" fill="grey"> &#45;mCellDivisions</text>
</g>
<!-- Node6 -->
<g id="Node000006" class="node">
<title>Node6</title>
<g id="a_Node000006"><a xlink:title=" ">
<polygon fill="white" stroke="transparent" points="668,-326.5 532,-326.5 532,-277.5 668,-277.5 668,-326.5"/>
<text text-anchor="start" x="537" y="-314" font-family="Helvetica,sans-Serif" font-size="10.00">vector&lt; EdgeOperation &gt;</text>
<text text-anchor="start" x="598" y="-299" font-family="Helvetica,sans-Serif" font-size="10.00"> </text>
<text text-anchor="start" x="598" y="-284" font-family="Helvetica,sans-Serif" font-size="10.00"> </text>
<polygon fill="#bfbfbf" stroke="#bfbfbf" points="532,-309 532,-309 668,-309 668,-309 532,-309"/>
<polygon fill="#bfbfbf" stroke="#bfbfbf" points="532,-294 532,-294 668,-294 668,-294 532,-294"/>
<polygon fill="none" stroke="#bfbfbf" points="532,-277.5 532,-326.5 668,-326.5 668,-277.5 532,-277.5"/>
</a>
</g>
</g>
<!-- Node6&#45;&gt;Node1 -->
<g id="edge5_Node000001_Node000006" class="edge">
<title>Node6&#45;&gt;Node1</title>
<g id="a_edge5_Node000001_Node000006"><a xlink:title=" ">
<path fill="none" stroke="#63b8ff" d="M572.14,-277.25C549.41,-257.89 515.83,-229.26 483.06,-201.34"/>
<polygon fill="none" stroke="#63b8ff" points="482.99,-201.27 475.83,-200.43 473.86,-193.49 481.02,-194.34 482.99,-201.27"/>
</a>
</g>
<text text-anchor="middle" x="587" y="-246" font-family="Helvetica,sans-Serif" font-size="10.00" fill="grey"> &#45;mEdgeOperations</text>
</g>
<!-- Node7 -->
<g id="Node000007" class="node">
<title>Node7</title>
<g id="a_Node000007"><a xlink:href="classEdgeHelper_3_01SPACE__DIM_01_4.html" target="_top" xlink:title=" ">
<polygon fill="white" stroke="transparent" points="831.5,-326.5 686.5,-326.5 686.5,-277.5 831.5,-277.5 831.5,-326.5"/>
<text text-anchor="start" x="692" y="-314" font-family="Helvetica,sans-Serif" font-size="10.00">EdgeHelper&lt; SPACE_DIM &gt;</text>
<text text-anchor="start" x="757.5" y="-299" font-family="Helvetica,sans-Serif" font-size="10.00"> </text>
<text text-anchor="start" x="757.5" y="-284" font-family="Helvetica,sans-Serif" font-size="10.00"> </text>
<polygon fill="#bfbfbf" stroke="#bfbfbf" points="687,-309 687,-309 832,-309 832,-309 687,-309"/>
<polygon fill="#bfbfbf" stroke="#bfbfbf" points="687,-294 687,-294 832,-294 832,-294 687,-294"/>
<polygon fill="none" stroke="#bfbfbf" points="686.5,-277.5 686.5,-326.5 831.5,-326.5 831.5,-277.5 686.5,-277.5"/>
</a>
</g>
</g>
<!-- Node7&#45;&gt;Node1 -->
<g id="edge6_Node000001_Node000007" class="edge">
<title>Node7&#45;&gt;Node1</title>
<g id="a_edge6_Node000001_Node000007"><a xlink:title=" ">
<path fill="none" stroke="#63b8ff" d="M711.38,-277.44C654.82,-249.46 558.79,-201.95 484.63,-165.26"/>
<polygon fill="none" stroke="#63b8ff" points="484.61,-165.25 477.46,-166.18 473.85,-159.93 481,-159.01 484.61,-165.25"/>
</a>
</g>
<text text-anchor="middle" x="696.5" y="-246" font-family="Helvetica,sans-Serif" font-size="10.00" fill="grey"> &#45;mpEdgeHelper</text>
</g>
</g>
</svg>
