<?xml version="1.0" encoding="UTF-8" standalone="no"?>
<!DOCTYPE svg PUBLIC "-//W3C//DTD SVG 1.1//EN"
 "http://www.w3.org/Graphics/SVG/1.1/DTD/svg11.dtd">
<!-- Generated by graphviz version 2.43.0 (0)
 -->
<!-- Title: VtkMeshWriter&lt; ELEMENT_DIM, SPACE_DIM &gt; Pages: 1 -->
<svg width="2359pt" height="1331pt"
 viewBox="0.00 0.00 2359.00 1331.00" xmlns="http://www.w3.org/2000/svg" xmlns:xlink="http://www.w3.org/1999/xlink">
<g id="graph0" class="graph" transform="scale(1 1) rotate(0) translate(4 1327)">
<title>VtkMeshWriter&lt; ELEMENT_DIM, SPACE_DIM &gt;</title>
<!-- Node1 -->
<g id="Node000001" class="node">
<title>Node1</title>
<g id="a_Node000001"><a xlink:title=" ">
<polygon fill="#999999" stroke="transparent" points="1956,-270 1816,-270 1816,0 1956,0 1956,-270"/>
<text text-anchor="start" x="1821" y="-258" font-family="Helvetica,sans-Serif" font-size="10.00">VtkMeshWriter&lt; ELEMENT</text>
<text text-anchor="start" x="1837" y="-247" font-family="Helvetica,sans-Serif" font-size="10.00">_DIM, SPACE_DIM &gt;</text>
<text text-anchor="start" x="1884" y="-232" font-family="Helvetica,sans-Serif" font-size="10.00"> </text>
<text text-anchor="start" x="1822" y="-217" font-family="Helvetica,sans-Serif" font-size="10.00">+</text>
<text text-anchor="start" x="1837" y="-217" font-family="Helvetica,sans-Serif" font-size="10.00">VtkMeshWriter()</text>
<text text-anchor="start" x="1822" y="-202" font-family="Helvetica,sans-Serif" font-size="10.00">+</text>
<text text-anchor="start" x="1837" y="-202" font-family="Helvetica,sans-Serif" font-size="10.00">WriteFiles()</text>
<text text-anchor="start" x="1822" y="-187" font-family="Helvetica,sans-Serif" font-size="10.00">+</text>
<text text-anchor="start" x="1837" y="-187" font-family="Helvetica,sans-Serif" font-size="10.00">AddCellData()</text>
<text text-anchor="start" x="1822" y="-172" font-family="Helvetica,sans-Serif" font-size="10.00">+</text>
<text text-anchor="start" x="1837" y="-172" font-family="Helvetica,sans-Serif" font-size="10.00">AddCellData()</text>
<text text-anchor="start" x="1822" y="-157" font-family="Helvetica,sans-Serif" font-size="10.00">+</text>
<text text-anchor="start" x="1837" y="-157" font-family="Helvetica,sans-Serif" font-size="10.00">AddTensorCellData()</text>
<text text-anchor="start" x="1822" y="-142" font-family="Helvetica,sans-Serif" font-size="10.00">+</text>
<text text-anchor="start" x="1837" y="-142" font-family="Helvetica,sans-Serif" font-size="10.00">AddTensorCellData()</text>
<text text-anchor="start" x="1822" y="-127" font-family="Helvetica,sans-Serif" font-size="10.00">+</text>
<text text-anchor="start" x="1837" y="-127" font-family="Helvetica,sans-Serif" font-size="10.00">AddPointData()</text>
<text text-anchor="start" x="1822" y="-112" font-family="Helvetica,sans-Serif" font-size="10.00">+</text>
<text text-anchor="start" x="1837" y="-112" font-family="Helvetica,sans-Serif" font-size="10.00">AddPointData()</text>
<text text-anchor="start" x="1822" y="-97" font-family="Helvetica,sans-Serif" font-size="10.00">+</text>
<text text-anchor="start" x="1837" y="-97" font-family="Helvetica,sans-Serif" font-size="10.00">AddTensorPointData()</text>
<text text-anchor="start" x="1822" y="-82" font-family="Helvetica,sans-Serif" font-size="10.00">+</text>
<text text-anchor="start" x="1837" y="-82" font-family="Helvetica,sans-Serif" font-size="10.00">SetParallelFiles()</text>
<text text-anchor="start" x="1822" y="-67" font-family="Helvetica,sans-Serif" font-size="10.00">+</text>
<text text-anchor="start" x="1837" y="-67" font-family="Helvetica,sans-Serif" font-size="10.00">WriteFilesUsingMesh()</text>
<text text-anchor="start" x="1822" y="-52" font-family="Helvetica,sans-Serif" font-size="10.00">+</text>
<text text-anchor="start" x="1837" y="-52" font-family="Helvetica,sans-Serif" font-size="10.00">AddProvenance()</text>
<text text-anchor="start" x="1822" y="-37" font-family="Helvetica,sans-Serif" font-size="10.00">+</text>
<text text-anchor="start" x="1837" y="-37" font-family="Helvetica,sans-Serif" font-size="10.00">~VtkMeshWriter()</text>
<text text-anchor="start" x="1824.5" y="-22" font-family="Helvetica,sans-Serif" font-size="10.00">&#45;</text>
<text text-anchor="start" x="1837" y="-22" font-family="Helvetica,sans-Serif" font-size="10.00">MakeVtkMesh()</text>
<text text-anchor="start" x="1824.5" y="-7" font-family="Helvetica,sans-Serif" font-size="10.00">&#45;</text>
<text text-anchor="start" x="1837" y="-7" font-family="Helvetica,sans-Serif" font-size="10.00">AugmentCellData()</text>
<polygon fill="#666666" stroke="#666666" points="1816,-242 1816,-242 1956,-242 1956,-242 1816,-242"/>
<polygon fill="#666666" stroke="#666666" points="1816,-227 1816,-227 1956,-227 1956,-227 1816,-227"/>
<polygon fill="none" stroke="#666666" points="1816,0 1816,-270 1956,-270 1956,0 1816,0"/>
</a>
</g>
</g>
<!-- Node2 -->
<g id="Node000002" class="node">
<title>Node2</title>
<g id="a_Node000002"><a xlink:href="classAbstractTetrahedralMeshWriter.html" target="_top" xlink:title=" ">
<polygon fill="white" stroke="transparent" points="1202.5,-620 1021.5,-620 1021.5,-328 1202.5,-328 1202.5,-620"/>
<text text-anchor="start" x="1035" y="-608" font-family="Helvetica,sans-Serif" font-size="10.00">AbstractTetrahedralMeshWriter</text>
<text text-anchor="start" x="1035" y="-597" font-family="Helvetica,sans-Serif" font-size="10.00">&lt; ELEMENT_DIM, SPACE_DIM &gt;</text>
<text text-anchor="start" x="1110.5" y="-582" font-family="Helvetica,sans-Serif" font-size="10.00"> </text>
<text text-anchor="start" x="1026" y="-567" font-family="Helvetica,sans-Serif" font-size="10.00">+</text>
<text text-anchor="start" x="1039" y="-567" font-family="Helvetica,sans-Serif" font-size="10.00">AbstractTetrahedralMeshWriter()</text>
<text text-anchor="start" x="1026" y="-552" font-family="Helvetica,sans-Serif" font-size="10.00">+</text>
<text text-anchor="start" x="1039" y="-552" font-family="Helvetica,sans-Serif" font-size="10.00">~AbstractTetrahedralMesh</text>
<text text-anchor="start" x="1039" y="-541" font-family="Helvetica,sans-Serif" font-size="10.00">Writer()</text>
<text text-anchor="start" x="1026" y="-526" font-family="Helvetica,sans-Serif" font-size="10.00">+</text>
<text text-anchor="start" x="1039" y="-526" font-family="Helvetica,sans-Serif" font-size="10.00">WriteFilesUsingMesh()</text>
<text text-anchor="start" x="1026" y="-511" font-family="Helvetica,sans-Serif" font-size="10.00">+</text>
<text text-anchor="start" x="1039" y="-511" font-family="Helvetica,sans-Serif" font-size="10.00">WriteFilesUsingMeshReader</text>
<text text-anchor="start" x="1039" y="-500" font-family="Helvetica,sans-Serif" font-size="10.00">AndMesh()</text>
<text text-anchor="start" x="1026" y="-485" font-family="Helvetica,sans-Serif" font-size="10.00">+</text>
<text text-anchor="start" x="1039" y="-485" font-family="Helvetica,sans-Serif" font-size="10.00">GetNextNode()</text>
<text text-anchor="start" x="1026" y="-470" font-family="Helvetica,sans-Serif" font-size="10.00">+</text>
<text text-anchor="start" x="1039" y="-470" font-family="Helvetica,sans-Serif" font-size="10.00">GetNextElement()</text>
<text text-anchor="start" x="1026" y="-455" font-family="Helvetica,sans-Serif" font-size="10.00">+</text>
<text text-anchor="start" x="1039" y="-455" font-family="Helvetica,sans-Serif" font-size="10.00">GetNextBoundaryElement()</text>
<text text-anchor="start" x="1026" y="-440" font-family="Helvetica,sans-Serif" font-size="10.00">+</text>
<text text-anchor="start" x="1039" y="-440" font-family="Helvetica,sans-Serif" font-size="10.00">GetNextCableElement()</text>
<text text-anchor="start" x="1028.5" y="-425" font-family="Helvetica,sans-Serif" font-size="10.00">&#45;</text>
<text text-anchor="start" x="1039" y="-425" font-family="Helvetica,sans-Serif" font-size="10.00">PostElement()</text>
<text text-anchor="start" x="1028.5" y="-410" font-family="Helvetica,sans-Serif" font-size="10.00">&#45;</text>
<text text-anchor="start" x="1039" y="-410" font-family="Helvetica,sans-Serif" font-size="10.00">UnpackElement()</text>
<text text-anchor="start" x="1028.5" y="-395" font-family="Helvetica,sans-Serif" font-size="10.00">&#45;</text>
<text text-anchor="start" x="1039" y="-395" font-family="Helvetica,sans-Serif" font-size="10.00">WriteFilesUsingParallelMesh()</text>
<text text-anchor="start" x="1028.5" y="-380" font-family="Helvetica,sans-Serif" font-size="10.00">&#45;</text>
<text text-anchor="start" x="1039" y="-380" font-family="Helvetica,sans-Serif" font-size="10.00">WriteNclFile()</text>
<text text-anchor="start" x="1028.5" y="-365" font-family="Helvetica,sans-Serif" font-size="10.00">&#45;</text>
<text text-anchor="start" x="1039" y="-365" font-family="Helvetica,sans-Serif" font-size="10.00">CreateFilesWithHeaders()</text>
<text text-anchor="start" x="1028.5" y="-350" font-family="Helvetica,sans-Serif" font-size="10.00">&#45;</text>
<text text-anchor="start" x="1039" y="-350" font-family="Helvetica,sans-Serif" font-size="10.00">AppendLocalDataToFiles()</text>
<text text-anchor="start" x="1028.5" y="-335" font-family="Helvetica,sans-Serif" font-size="10.00">&#45;</text>
<text text-anchor="start" x="1039" y="-335" font-family="Helvetica,sans-Serif" font-size="10.00">WriteFilesFooter()</text>
<polygon fill="#666666" stroke="#666666" points="1022,-592 1022,-592 1203,-592 1203,-592 1022,-592"/>
<polygon fill="#666666" stroke="#666666" points="1022,-577 1022,-577 1203,-577 1203,-577 1022,-577"/>
<polygon fill="none" stroke="#666666" points="1021.5,-328 1021.5,-620 1202.5,-620 1202.5,-328 1021.5,-328"/>
</a>
</g>
</g>
<!-- Node2&#45;&gt;Node1 -->
<g id="edge1_Node000001_Node000002" class="edge">
<title>Node2&#45;&gt;Node1</title>
<g id="a_edge1_Node000001_Node000002"><a xlink:title=" ">
<path fill="none" stroke="#63b8ff" d="M1212.02,-429.45C1371.16,-360.16 1678.11,-226.51 1815.97,-166.49"/>
<polygon fill="none" stroke="#63b8ff" points="1210.45,-426.32 1202.68,-433.52 1213.25,-432.73 1210.45,-426.32"/>
</a>
</g>
</g>
<!-- Node3 -->
<g id="Node000003" class="node">
<title>Node3</title>
<g id="a_Node000003"><a xlink:href="classAbstractMeshWriter.html" target="_top" xlink:title=" ">
<polygon fill="white" stroke="transparent" points="398,-907 232,-907 232,-667 398,-667 398,-907"/>
<text text-anchor="start" x="237.5" y="-895" font-family="Helvetica,sans-Serif" font-size="10.00">AbstractMeshWriter</text>
<text text-anchor="start" x="237.5" y="-884" font-family="Helvetica,sans-Serif" font-size="10.00">&lt; ELEMENT_DIM, SPACE_DIM &gt;</text>
<text text-anchor="start" x="313" y="-869" font-family="Helvetica,sans-Serif" font-size="10.00"> </text>
<text text-anchor="start" x="236" y="-854" font-family="Helvetica,sans-Serif" font-size="10.00">+</text>
<text text-anchor="start" x="249" y="-854" font-family="Helvetica,sans-Serif" font-size="10.00">AbstractMeshWriter()</text>
<text text-anchor="start" x="236" y="-839" font-family="Helvetica,sans-Serif" font-size="10.00">+</text>
<text text-anchor="start" x="249" y="-839" font-family="Helvetica,sans-Serif" font-size="10.00">~AbstractMeshWriter()</text>
<text text-anchor="start" x="236" y="-824" font-family="Helvetica,sans-Serif" font-size="10.00">+</text>
<text text-anchor="start" x="249" y="-824" font-family="Helvetica,sans-Serif" font-size="10.00">GetOutputDirectory()</text>
<text text-anchor="start" x="236" y="-809" font-family="Helvetica,sans-Serif" font-size="10.00">+</text>
<text text-anchor="start" x="249" y="-809" font-family="Helvetica,sans-Serif" font-size="10.00">GetNumNodes()</text>
<text text-anchor="start" x="236" y="-794" font-family="Helvetica,sans-Serif" font-size="10.00">+</text>
<text text-anchor="start" x="249" y="-794" font-family="Helvetica,sans-Serif" font-size="10.00">GetNumElements()</text>
<text text-anchor="start" x="236" y="-779" font-family="Helvetica,sans-Serif" font-size="10.00">+</text>
<text text-anchor="start" x="249" y="-779" font-family="Helvetica,sans-Serif" font-size="10.00">GetNumBoundaryFaces()</text>
<text text-anchor="start" x="236" y="-764" font-family="Helvetica,sans-Serif" font-size="10.00">+</text>
<text text-anchor="start" x="249" y="-764" font-family="Helvetica,sans-Serif" font-size="10.00">GetNumCableElements()</text>
<text text-anchor="start" x="236" y="-749" font-family="Helvetica,sans-Serif" font-size="10.00">+</text>
<text text-anchor="start" x="249" y="-749" font-family="Helvetica,sans-Serif" font-size="10.00">GetNextNode()</text>
<text text-anchor="start" x="236" y="-734" font-family="Helvetica,sans-Serif" font-size="10.00">+</text>
<text text-anchor="start" x="249" y="-734" font-family="Helvetica,sans-Serif" font-size="10.00">GetNextElement()</text>
<text text-anchor="start" x="236" y="-719" font-family="Helvetica,sans-Serif" font-size="10.00">+</text>
<text text-anchor="start" x="249" y="-719" font-family="Helvetica,sans-Serif" font-size="10.00">GetNextBoundaryElement()</text>
<text text-anchor="start" x="236" y="-704" font-family="Helvetica,sans-Serif" font-size="10.00">+</text>
<text text-anchor="start" x="249" y="-704" font-family="Helvetica,sans-Serif" font-size="10.00">GetNextCableElement()</text>
<text text-anchor="start" x="236" y="-689" font-family="Helvetica,sans-Serif" font-size="10.00">+</text>
<text text-anchor="start" x="249" y="-689" font-family="Helvetica,sans-Serif" font-size="10.00">WriteFiles()</text>
<text text-anchor="start" x="236" y="-674" font-family="Helvetica,sans-Serif" font-size="10.00">+</text>
<text text-anchor="start" x="249" y="-674" font-family="Helvetica,sans-Serif" font-size="10.00">WriteFilesUsingMeshReader()</text>
<polygon fill="#666666" stroke="#666666" points="232,-879 232,-879 398,-879 398,-879 232,-879"/>
<polygon fill="#666666" stroke="#666666" points="232,-864 232,-864 398,-864 398,-864 232,-864"/>
<polygon fill="none" stroke="#666666" points="232,-667 232,-907 398,-907 398,-667 232,-667"/>
</a>
</g>
</g>
<!-- Node3&#45;&gt;Node2 -->
<g id="edge2_Node000002_Node000003" class="edge">
<title>Node3&#45;&gt;Node2</title>
<g id="a_edge2_Node000002_Node000003"><a xlink:title=" ">
<path fill="none" stroke="#63b8ff" d="M406.79,-724.02C452.59,-695.05 509.69,-661.78 564,-638 719.03,-570.12 910.63,-520.36 1021.33,-494.69"/>
<polygon fill="none" stroke="#63b8ff" points="404.63,-721.24 398.08,-729.57 408.39,-727.15 404.63,-721.24"/>
</a>
</g>
</g>
<!-- Node4 -->
<g id="Node000004" class="node">
<title>Node4</title>
<g id="a_Node000004"><a xlink:href="classOutputFileHandler.html" target="_top" xlink:title=" ">
<polygon fill="white" stroke="transparent" points="178,-1227 0,-1227 0,-987 178,-987 178,-1227"/>
<text text-anchor="start" x="44.5" y="-1215" font-family="Helvetica,sans-Serif" font-size="10.00">OutputFileHandler</text>
<text text-anchor="start" x="87" y="-1200" font-family="Helvetica,sans-Serif" font-size="10.00"> </text>
<text text-anchor="start" x="4" y="-1185" font-family="Helvetica,sans-Serif" font-size="10.00">+</text>
<text text-anchor="start" x="17" y="-1185" font-family="Helvetica,sans-Serif" font-size="10.00">OutputFileHandler()</text>
<text text-anchor="start" x="4" y="-1170" font-family="Helvetica,sans-Serif" font-size="10.00">+</text>
<text text-anchor="start" x="17" y="-1170" font-family="Helvetica,sans-Serif" font-size="10.00">OutputFileHandler()</text>
<text text-anchor="start" x="4" y="-1155" font-family="Helvetica,sans-Serif" font-size="10.00">+</text>
<text text-anchor="start" x="17" y="-1155" font-family="Helvetica,sans-Serif" font-size="10.00">GetOutputDirectoryFullPath()</text>
<text text-anchor="start" x="4" y="-1140" font-family="Helvetica,sans-Serif" font-size="10.00">+</text>
<text text-anchor="start" x="17" y="-1140" font-family="Helvetica,sans-Serif" font-size="10.00">GetRelativePath()</text>
<text text-anchor="start" x="4" y="-1125" font-family="Helvetica,sans-Serif" font-size="10.00">+</text>
<text text-anchor="start" x="17" y="-1125" font-family="Helvetica,sans-Serif" font-size="10.00">SetArchiveDirectory()</text>
<text text-anchor="start" x="4" y="-1110" font-family="Helvetica,sans-Serif" font-size="10.00">+</text>
<text text-anchor="start" x="17" y="-1110" font-family="Helvetica,sans-Serif" font-size="10.00">OpenOutputFile()</text>
<text text-anchor="start" x="4" y="-1095" font-family="Helvetica,sans-Serif" font-size="10.00">+</text>
<text text-anchor="start" x="17" y="-1095" font-family="Helvetica,sans-Serif" font-size="10.00">OpenOutputFile()</text>
<text text-anchor="start" x="4" y="-1080" font-family="Helvetica,sans-Serif" font-size="10.00">+</text>
<text text-anchor="start" x="17" y="-1080" font-family="Helvetica,sans-Serif" font-size="10.00">CopyFileTo()</text>
<text text-anchor="start" x="4" y="-1065" font-family="Helvetica,sans-Serif" font-size="10.00">+</text>
<text text-anchor="start" x="17" y="-1065" font-family="Helvetica,sans-Serif" font-size="10.00">FindFile()</text>
<text text-anchor="start" x="4" y="-1050" font-family="Helvetica,sans-Serif" font-size="10.00">+</text>
<text text-anchor="start" x="17" y="-1050" font-family="Helvetica,sans-Serif" font-size="10.00">GetChasteTestOutputDirectory()</text>
<text text-anchor="start" x="6.5" y="-1035" font-family="Helvetica,sans-Serif" font-size="10.00">&#45;</text>
<text text-anchor="start" x="17" y="-1035" font-family="Helvetica,sans-Serif" font-size="10.00">CommonConstructor()</text>
<text text-anchor="start" x="6.5" y="-1020" font-family="Helvetica,sans-Serif" font-size="10.00">&#45;</text>
<text text-anchor="start" x="17" y="-1020" font-family="Helvetica,sans-Serif" font-size="10.00">MakeFoldersAndReturnFull</text>
<text text-anchor="start" x="17" y="-1009" font-family="Helvetica,sans-Serif" font-size="10.00">Path()</text>
<text text-anchor="start" x="6.5" y="-994" font-family="Helvetica,sans-Serif" font-size="10.00">&#45;</text>
<text text-anchor="start" x="17" y="-994" font-family="Helvetica,sans-Serif" font-size="10.00">AddTrailingSlash()</text>
<polygon fill="#666666" stroke="#666666" points="0,-1210 0,-1210 178,-1210 178,-1210 0,-1210"/>
<polygon fill="#666666" stroke="#666666" points="0,-1195 0,-1195 178,-1195 178,-1195 0,-1195"/>
<polygon fill="none" stroke="#666666" points="0,-987 0,-1227 178,-1227 178,-987 0,-987"/>
</a>
</g>
</g>
<!-- Node4&#45;&gt;Node3 -->
<g id="edge3_Node000003_Node000004" class="edge">
<title>Node4&#45;&gt;Node3</title>
<g id="a_edge3_Node000003_Node000004"><a xlink:title=" ">
<path fill="none" stroke="#63b8ff" d="M72.81,-986.62C74.48,-965.09 79.48,-943.6 90,-925 118.14,-875.23 172.46,-841.4 220.67,-819.81"/>
<polygon fill="none" stroke="#63b8ff" points="220.8,-819.76 224.71,-813.7 231.81,-814.99 227.89,-821.04 220.8,-819.76"/>
</a>
</g>
<text text-anchor="middle" x="148" y="-944.5" font-family="Helvetica,sans-Serif" font-size="10.00" fill="grey"> #mpOutputFileHandler</text>
</g>
<!-- Node5 -->
<g id="Node000005" class="node">
<title>Node5</title>
<g id="a_Node000005"><a xlink:title=" ">
<polygon fill="white" stroke="transparent" points="51,-1323 13,-1323 13,-1274 51,-1274 51,-1323"/>
<text text-anchor="start" x="18" y="-1310.5" font-family="Helvetica,sans-Serif" font-size="10.00">string</text>
<text text-anchor="start" x="30" y="-1295.5" font-family="Helvetica,sans-Serif" font-size="10.00"> </text>
<text text-anchor="start" x="30" y="-1280.5" font-family="Helvetica,sans-Serif" font-size="10.00"> </text>
<polygon fill="#bfbfbf" stroke="#bfbfbf" points="13,-1305.5 13,-1305.5 51,-1305.5 51,-1305.5 13,-1305.5"/>
<polygon fill="#bfbfbf" stroke="#bfbfbf" points="13,-1290.5 13,-1290.5 51,-1290.5 51,-1290.5 13,-1290.5"/>
<polygon fill="none" stroke="#bfbfbf" points="13,-1274 13,-1323 51,-1323 51,-1274 13,-1274"/>
</a>
</g>
</g>
<!-- Node5&#45;&gt;Node4 -->
<g id="edge4_Node000004_Node000005" class="edge">
<title>Node5&#45;&gt;Node4</title>
<g id="a_edge4_Node000004_Node000005"><a xlink:title=" ">
<path fill="none" stroke="#63b8ff" d="M30.61,-1273.77C30.56,-1264.69 31.08,-1254.29 33,-1245 33.42,-1242.97 33.87,-1240.93 34.34,-1238.88"/>
<polygon fill="none" stroke="#63b8ff" points="34.38,-1238.74 31.99,-1231.94 37.35,-1227.12 39.74,-1233.92 34.38,-1238.74"/>
</a>
</g>
<text text-anchor="middle" x="77" y="-1248" font-family="Helvetica,sans-Serif" font-size="10.00" fill="grey"> +SIG_FILE_NAME</text>
</g>
<!-- Node6 -->
<g id="Node000006" class="node">
<title>Node6</title>
<g id="a_Node000006"><a xlink:title=" ">
<polygon fill="white" stroke="transparent" points="200,-1323 162,-1323 162,-1274 200,-1274 200,-1323"/>
<text text-anchor="start" x="167" y="-1310.5" font-family="Helvetica,sans-Serif" font-size="10.00">string</text>
<text text-anchor="start" x="179" y="-1295.5" font-family="Helvetica,sans-Serif" font-size="10.00"> </text>
<text text-anchor="start" x="179" y="-1280.5" font-family="Helvetica,sans-Serif" font-size="10.00"> </text>
<polygon fill="#bfbfbf" stroke="#bfbfbf" points="162,-1305.5 162,-1305.5 200,-1305.5 200,-1305.5 162,-1305.5"/>
<polygon fill="#bfbfbf" stroke="#bfbfbf" points="162,-1290.5 162,-1290.5 200,-1290.5 200,-1290.5 162,-1290.5"/>
<polygon fill="none" stroke="#bfbfbf" points="162,-1274 162,-1323 200,-1323 200,-1274 162,-1274"/>
</a>
</g>
</g>
<!-- Node6&#45;&gt;Node3 -->
<g id="edge6_Node000003_Node000006" class="edge">
<title>Node6&#45;&gt;Node3</title>
<g id="a_edge6_Node000003_Node000006"><a xlink:title=" ">
<path fill="none" stroke="#63b8ff" d="M197.77,-1273.82C201.02,-1268.21 204.03,-1262.08 206,-1256 243.03,-1141.87 199.71,-1103.36 229,-987 234.72,-964.29 242.74,-940.85 251.6,-918.4"/>
<polygon fill="none" stroke="#63b8ff" points="251.67,-918.23 250.21,-911.17 256.16,-907.11 257.63,-914.17 251.67,-918.23"/>
</a>
</g>
<text text-anchor="middle" x="266.5" y="-1104.5" font-family="Helvetica,sans-Serif" font-size="10.00" fill="grey"> #mBaseName</text>
</g>
<!-- Node6&#45;&gt;Node4 -->
<g id="edge5_Node000004_Node000006" class="edge">
<title>Node6&#45;&gt;Node4</title>
<g id="a_edge5_Node000004_Node000006"><a xlink:title=" ">
<path fill="none" stroke="#63b8ff" d="M161.69,-1278.85C155.45,-1272.08 148.88,-1264.1 144,-1256 140.55,-1250.28 137.26,-1244.3 134.13,-1238.17"/>
<polygon fill="none" stroke="#63b8ff" points="133.94,-1237.78 127.71,-1234.15 128.67,-1227 134.9,-1230.63 133.94,-1237.78"/>
</a>
</g>
<text text-anchor="middle" x="175" y="-1248" font-family="Helvetica,sans-Serif" font-size="10.00" fill="grey"> &#45;mDirectory</text>
</g>
<!-- Node7 -->
<g id="Node000007" class="node">
<title>Node7</title>
<g id="a_Node000007"><a xlink:title=" ">
<polygon fill="white" stroke="transparent" points="442.5,-1142.5 313.5,-1142.5 313.5,-1071.5 442.5,-1071.5 442.5,-1142.5"/>
<text text-anchor="start" x="319" y="-1130" font-family="Helvetica,sans-Serif" font-size="10.00">AbstractMeshReader</text>
<text text-anchor="start" x="319" y="-1119" font-family="Helvetica,sans-Serif" font-size="10.00">&lt; ELEMENT_DIM, SPACE</text>
<text text-anchor="start" x="356" y="-1108" font-family="Helvetica,sans-Serif" font-size="10.00">_DIM &gt; *</text>
<text text-anchor="start" x="376.5" y="-1093" font-family="Helvetica,sans-Serif" font-size="10.00"> </text>
<text text-anchor="start" x="376.5" y="-1078" font-family="Helvetica,sans-Serif" font-size="10.00"> </text>
<polygon fill="#bfbfbf" stroke="#bfbfbf" points="314,-1103 314,-1103 443,-1103 443,-1103 314,-1103"/>
<polygon fill="#bfbfbf" stroke="#bfbfbf" points="314,-1088 314,-1088 443,-1088 443,-1088 314,-1088"/>
<polygon fill="none" stroke="#bfbfbf" points="313.5,-1071.5 313.5,-1142.5 442.5,-1142.5 442.5,-1071.5 313.5,-1071.5"/>
</a>
</g>
</g>
<!-- Node7&#45;&gt;Node3 -->
<g id="edge7_Node000003_Node000007" class="edge">
<title>Node7&#45;&gt;Node3</title>
<g id="a_edge7_Node000003_Node000007"><a xlink:title=" ">
<path fill="none" stroke="#63b8ff" d="M357.39,-1071.37C342.64,-1044.48 324.03,-1005.73 316,-969 312.52,-953.07 310.4,-936.15 309.25,-919.31"/>
<polygon fill="none" stroke="#63b8ff" points="309.24,-919.06 304.91,-913.29 308.57,-907.08 312.9,-912.85 309.24,-919.06"/>
</a>
</g>
<text text-anchor="middle" x="360" y="-944.5" font-family="Helvetica,sans-Serif" font-size="10.00" fill="grey"> #mpMeshReader</text>
</g>
<!-- Node8 -->
<g id="Node000008" class="node">
<title>Node8</title>
<g id="a_Node000008"><a xlink:href="classunsigned.html" target="_top" xlink:title=" ">
<polygon fill="white" stroke="transparent" points="591.5,-1131.5 536.5,-1131.5 536.5,-1082.5 591.5,-1082.5 591.5,-1131.5"/>
<text text-anchor="start" x="542" y="-1119" font-family="Helvetica,sans-Serif" font-size="10.00">unsigned</text>
<text text-anchor="start" x="562.5" y="-1104" font-family="Helvetica,sans-Serif" font-size="10.00"> </text>
<text text-anchor="start" x="562.5" y="-1089" font-family="Helvetica,sans-Serif" font-size="10.00"> </text>
<polygon fill="#bfbfbf" stroke="#bfbfbf" points="537,-1114 537,-1114 592,-1114 592,-1114 537,-1114"/>
<polygon fill="#bfbfbf" stroke="#bfbfbf" points="537,-1099 537,-1099 592,-1099 592,-1099 537,-1099"/>
<polygon fill="none" stroke="#bfbfbf" points="536.5,-1082.5 536.5,-1131.5 591.5,-1131.5 591.5,-1082.5 536.5,-1082.5"/>
</a>
</g>
</g>
<!-- Node8&#45;&gt;Node2 -->
<g id="edge12_Node000002_Node000008" class="edge">
<title>Node8&#45;&gt;Node2</title>
<g id="a_edge12_Node000002_Node000008"><a xlink:title=" ">
<path fill="none" stroke="#63b8ff" d="M564.52,-1082.5C566.56,-993.84 574.57,-683.82 587,-667 685.57,-533.57 886.57,-492.73 1009.27,-480.31"/>
<polygon fill="none" stroke="#63b8ff" points="1009.31,-480.31 1014.91,-475.75 1021.26,-479.16 1015.67,-483.72 1009.31,-480.31"/>
</a>
</g>
<text text-anchor="start" x="587" y="-823" font-family="Helvetica,sans-Serif" font-size="10.00" fill="grey"> #mBoundaryElementCounter</text>
<text text-anchor="middle" x="675" y="-812" font-family="Helvetica,sans-Serif" font-size="10.00" fill="grey">ForParallelMesh</text>
<text text-anchor="start" x="587" y="-801" font-family="Helvetica,sans-Serif" font-size="10.00" fill="grey">#mCableElementCounterForParallel</text>
<text text-anchor="middle" x="675" y="-790" font-family="Helvetica,sans-Serif" font-size="10.00" fill="grey">Mesh</text>
<text text-anchor="middle" x="675" y="-779" font-family="Helvetica,sans-Serif" font-size="10.00" fill="grey">#mElementCounterForParallelMesh</text>
<text text-anchor="middle" x="675" y="-768" font-family="Helvetica,sans-Serif" font-size="10.00" fill="grey">#mNodeCounterForParallelMesh</text>
<text text-anchor="middle" x="675" y="-757" font-family="Helvetica,sans-Serif" font-size="10.00" fill="grey">#mNodesPerBoundaryElement</text>
<text text-anchor="middle" x="675" y="-746" font-family="Helvetica,sans-Serif" font-size="10.00" fill="grey">#mNodesPerElement</text>
</g>
<!-- Node8&#45;&gt;Node3 -->
<g id="edge8_Node000003_Node000008" class="edge">
<title>Node8&#45;&gt;Node3</title>
<g id="a_edge8_Node000003_Node000008"><a xlink:title=" ">
<path fill="none" stroke="#63b8ff" d="M543.43,-1082.06C521.57,-1057.19 485.47,-1017.69 451,-987 441.04,-978.13 435.64,-979.16 427,-969 412.71,-952.19 415.13,-944.05 404,-925 402.55,-922.52 401.08,-920.02 399.58,-917.51"/>
<polygon fill="none" stroke="#63b8ff" points="399.52,-917.42 393,-914.34 393.34,-907.13 399.86,-910.21 399.52,-917.42"/>
</a>
</g>
<text text-anchor="middle" x="495.5" y="-961" font-family="Helvetica,sans-Serif" font-size="10.00" fill="grey"> #mNumBoundaryElements</text>
<text text-anchor="middle" x="495.5" y="-950" font-family="Helvetica,sans-Serif" font-size="10.00" fill="grey">#mNumCableElements</text>
<text text-anchor="middle" x="495.5" y="-939" font-family="Helvetica,sans-Serif" font-size="10.00" fill="grey">#mNumElements</text>
<text text-anchor="middle" x="495.5" y="-928" font-family="Helvetica,sans-Serif" font-size="10.00" fill="grey">#mNumNodes</text>
</g>
<!-- Node9 -->
<g id="Node000009" class="node">
<title>Node9</title>
<g id="a_Node000009"><a xlink:href="classNodeMap.html" target="_top" xlink:title=" ">
<polygon fill="white" stroke="transparent" points="877.5,-871.5 772.5,-871.5 772.5,-702.5 877.5,-702.5 877.5,-871.5"/>
<text text-anchor="start" x="802" y="-859" font-family="Helvetica,sans-Serif" font-size="10.00">NodeMap</text>
<text text-anchor="start" x="823.5" y="-844" font-family="Helvetica,sans-Serif" font-size="10.00"> </text>
<text text-anchor="start" x="777" y="-829" font-family="Helvetica,sans-Serif" font-size="10.00">+</text>
<text text-anchor="start" x="790" y="-829" font-family="Helvetica,sans-Serif" font-size="10.00">NodeMap()</text>
<text text-anchor="start" x="777" y="-814" font-family="Helvetica,sans-Serif" font-size="10.00">+</text>
<text text-anchor="start" x="790" y="-814" font-family="Helvetica,sans-Serif" font-size="10.00">Resize()</text>
<text text-anchor="start" x="777" y="-799" font-family="Helvetica,sans-Serif" font-size="10.00">+</text>
<text text-anchor="start" x="790" y="-799" font-family="Helvetica,sans-Serif" font-size="10.00">ResetToIdentity()</text>
<text text-anchor="start" x="777" y="-784" font-family="Helvetica,sans-Serif" font-size="10.00">+</text>
<text text-anchor="start" x="790" y="-784" font-family="Helvetica,sans-Serif" font-size="10.00">SetNewIndex()</text>
<text text-anchor="start" x="777" y="-769" font-family="Helvetica,sans-Serif" font-size="10.00">+</text>
<text text-anchor="start" x="790" y="-769" font-family="Helvetica,sans-Serif" font-size="10.00">SetDeleted()</text>
<text text-anchor="start" x="777" y="-754" font-family="Helvetica,sans-Serif" font-size="10.00">+</text>
<text text-anchor="start" x="790" y="-754" font-family="Helvetica,sans-Serif" font-size="10.00">IsDeleted()</text>
<text text-anchor="start" x="777" y="-739" font-family="Helvetica,sans-Serif" font-size="10.00">+</text>
<text text-anchor="start" x="790" y="-739" font-family="Helvetica,sans-Serif" font-size="10.00">GetNewIndex()</text>
<text text-anchor="start" x="777" y="-724" font-family="Helvetica,sans-Serif" font-size="10.00">+</text>
<text text-anchor="start" x="790" y="-724" font-family="Helvetica,sans-Serif" font-size="10.00">IsIdentityMap()</text>
<text text-anchor="start" x="777" y="-709" font-family="Helvetica,sans-Serif" font-size="10.00">+</text>
<text text-anchor="start" x="790" y="-709" font-family="Helvetica,sans-Serif" font-size="10.00">GetSize()</text>
<polygon fill="#666666" stroke="#666666" points="773,-854 773,-854 878,-854 878,-854 773,-854"/>
<polygon fill="#666666" stroke="#666666" points="773,-839 773,-839 878,-839 878,-839 773,-839"/>
<polygon fill="none" stroke="#666666" points="772.5,-702.5 772.5,-871.5 877.5,-871.5 877.5,-702.5 772.5,-702.5"/>
</a>
</g>
</g>
<!-- Node9&#45;&gt;Node2 -->
<g id="edge9_Node000002_Node000009" class="edge">
<title>Node9&#45;&gt;Node2</title>
<g id="a_edge9_Node000002_Node000009"><a xlink:title=" ">
<path fill="none" stroke="#63b8ff" d="M813.63,-702.35C814.28,-680.15 818.56,-657.07 830,-638 869.51,-572.12 946.49,-530.26 1010.06,-505.48"/>
<polygon fill="none" stroke="#63b8ff" points="1010.13,-505.45 1014.32,-499.59 1021.35,-501.2 1017.16,-507.07 1010.13,-505.45"/>
</a>
</g>
<text text-anchor="middle" x="865" y="-641" font-family="Helvetica,sans-Serif" font-size="10.00" fill="grey"> &#45;mpNodeMap</text>
</g>
<!-- Node10 -->
<g id="Node000010" class="node">
<title>Node10</title>
<g id="a_Node000010"><a xlink:title=" ">
<polygon fill="white" stroke="transparent" points="829,-1131.5 721,-1131.5 721,-1082.5 829,-1082.5 829,-1131.5"/>
<text text-anchor="start" x="726" y="-1119" font-family="Helvetica,sans-Serif" font-size="10.00">vector&lt; unsigned &gt;</text>
<text text-anchor="start" x="773" y="-1104" font-family="Helvetica,sans-Serif" font-size="10.00"> </text>
<text text-anchor="start" x="773" y="-1089" font-family="Helvetica,sans-Serif" font-size="10.00"> </text>
<polygon fill="#bfbfbf" stroke="#bfbfbf" points="721,-1114 721,-1114 829,-1114 829,-1114 721,-1114"/>
<polygon fill="#bfbfbf" stroke="#bfbfbf" points="721,-1099 721,-1099 829,-1099 829,-1099 721,-1099"/>
<polygon fill="none" stroke="#bfbfbf" points="721,-1082.5 721,-1131.5 829,-1131.5 829,-1082.5 721,-1082.5"/>
</a>
</g>
</g>
<!-- Node10&#45;&gt;Node9 -->
<g id="edge10_Node000009_Node000010" class="edge">
<title>Node10&#45;&gt;Node9</title>
<g id="a_edge10_Node000009_Node000010"><a xlink:title=" ">
<path fill="none" stroke="#63b8ff" d="M772.62,-1082.34C769.67,-1047.56 766.18,-980.7 776,-925 778.43,-911.2 782.11,-896.95 786.38,-883.09"/>
<polygon fill="none" stroke="#63b8ff" points="786.42,-882.98 784.45,-876.05 790.09,-871.56 792.06,-878.5 786.42,-882.98"/>
</a>
</g>
<text text-anchor="middle" x="795" y="-944.5" font-family="Helvetica,sans-Serif" font-size="10.00" fill="grey"> &#45;mMap</text>
</g>
<!-- Node11 -->
<g id="Node000011" class="node">
<title>Node11</title>
<g id="a_Node000011"><a xlink:href="classbool.html" target="_top" xlink:title=" ">
<polygon fill="white" stroke="transparent" points="930,-1131.5 898,-1131.5 898,-1082.5 930,-1082.5 930,-1131.5"/>
<text text-anchor="start" x="903" y="-1119" font-family="Helvetica,sans-Serif" font-size="10.00">bool</text>
<text text-anchor="start" x="912" y="-1104" font-family="Helvetica,sans-Serif" font-size="10.00"> </text>
<text text-anchor="start" x="912" y="-1089" font-family="Helvetica,sans-Serif" font-size="10.00"> </text>
<polygon fill="#bfbfbf" stroke="#bfbfbf" points="898,-1114 898,-1114 930,-1114 930,-1114 898,-1114"/>
<polygon fill="#bfbfbf" stroke="#bfbfbf" points="898,-1099 898,-1099 930,-1099 930,-1099 898,-1099"/>
<polygon fill="none" stroke="#bfbfbf" points="898,-1082.5 898,-1131.5 930,-1131.5 930,-1082.5 898,-1082.5"/>
</a>
</g>
</g>
<!-- Node11&#45;&gt;Node1 -->
<g id="edge18_Node000001_Node000011" class="edge">
<title>Node11&#45;&gt;Node1</title>
<g id="a_edge18_Node000001_Node000011"><a xlink:title=" ">
<path fill="none" stroke="#63b8ff" d="M930.17,-1104.39C1032.45,-1093.88 1588.47,-1031.47 1692,-907 1774.47,-807.86 1683.98,-448.08 1731,-328 1747.92,-284.79 1778.27,-243.77 1807.66,-210.83"/>
<polygon fill="none" stroke="#63b8ff" points="1807.83,-210.64 1808.91,-203.5 1815.91,-201.76 1814.83,-208.89 1807.83,-210.64"/>
</a>
</g>
<text text-anchor="middle" x="1777" y="-641" font-family="Helvetica,sans-Serif" font-size="10.00" fill="grey"> &#45;mWriteParallelFiles</text>
</g>
<!-- Node11&#45;&gt;Node2 -->
<g id="edge17_Node000002_Node000011" class="edge">
<title>Node11&#45;&gt;Node2</title>
<g id="a_edge17_Node000002_Node000011"><a xlink:title=" ">
<path fill="none" stroke="#63b8ff" d="M912.23,-1082.48C906.56,-1002.63 891.05,-742.77 923,-667 942.02,-621.9 977.07,-581.59 1011.87,-549.68"/>
<polygon fill="none" stroke="#63b8ff" points="1012.24,-549.35 1014.04,-542.36 1021.18,-541.34 1019.38,-548.32 1012.24,-549.35"/>
</a>
</g>
<text text-anchor="middle" x="969.5" y="-795.5" font-family="Helvetica,sans-Serif" font-size="10.00" fill="grey"> #mFilesAreBinary</text>
<text text-anchor="middle" x="969.5" y="-784.5" font-family="Helvetica,sans-Serif" font-size="10.00" fill="grey">#mIndexFromZero</text>
<text text-anchor="middle" x="969.5" y="-773.5" font-family="Helvetica,sans-Serif" font-size="10.00" fill="grey">#mWriteMetaFile</text>
</g>
<!-- Node11&#45;&gt;Node9 -->
<g id="edge11_Node000009_Node000011" class="edge">
<title>Node11&#45;&gt;Node9</title>
<g id="a_edge11_Node000009_Node000011"><a xlink:title=" ">
<path fill="none" stroke="#63b8ff" d="M897.92,-1084.6C879.49,-1058.75 850.15,-1013.2 837,-969 828.98,-942.05 825.1,-911.88 823.44,-884.02"/>
<polygon fill="none" stroke="#63b8ff" points="823.43,-883.8 819.14,-878 822.84,-871.81 827.13,-877.61 823.43,-883.8"/>
</a>
</g>
<text text-anchor="middle" x="868.5" y="-944.5" font-family="Helvetica,sans-Serif" font-size="10.00" fill="grey"> &#45;mIsIdentity</text>
</g>
<!-- Node12 -->
<g id="Node000012" class="node">
<title>Node12</title>
<g id="a_Node000012"><a xlink:title=" ">
<polygon fill="white" stroke="transparent" points="1198.5,-817 1025.5,-817 1025.5,-757 1198.5,-757 1198.5,-817"/>
<text text-anchor="start" x="1031" y="-805" font-family="Helvetica,sans-Serif" font-size="10.00">AbstractTetrahedralMesh</text>
<text text-anchor="start" x="1031" y="-794" font-family="Helvetica,sans-Serif" font-size="10.00">&lt; ELEMENT_DIM, SPACE_DIM &gt; *</text>
<text text-anchor="start" x="1110.5" y="-779" font-family="Helvetica,sans-Serif" font-size="10.00"> </text>
<text text-anchor="start" x="1110.5" y="-764" font-family="Helvetica,sans-Serif" font-size="10.00"> </text>
<polygon fill="#bfbfbf" stroke="#bfbfbf" points="1026,-789 1026,-789 1199,-789 1199,-789 1026,-789"/>
<polygon fill="#bfbfbf" stroke="#bfbfbf" points="1026,-774 1026,-774 1199,-774 1199,-774 1026,-774"/>
<polygon fill="none" stroke="#bfbfbf" points="1025.5,-757 1025.5,-817 1198.5,-817 1198.5,-757 1025.5,-757"/>
</a>
</g>
</g>
<!-- Node12&#45;&gt;Node2 -->
<g id="edge13_Node000002_Node000012" class="edge">
<title>Node12&#45;&gt;Node2</title>
<g id="a_edge13_Node000002_Node000012"><a xlink:title=" ">
<path fill="none" stroke="#63b8ff" d="M1112,-756.74C1112,-727.47 1112,-680.05 1112,-632.4"/>
<polygon fill="none" stroke="#63b8ff" points="1112,-632.29 1108,-626.29 1112,-620.29 1116,-626.29 1112,-632.29"/>
</a>
</g>
<text text-anchor="middle" x="1139" y="-641" font-family="Helvetica,sans-Serif" font-size="10.00" fill="grey"> #mpMesh</text>
</g>
<!-- Node13 -->
<g id="Node000013" class="node">
<title>Node13</title>
<g id="a_Node000013"><a xlink:title=" ">
<polygon fill="white" stroke="transparent" points="1389.5,-817 1216.5,-817 1216.5,-757 1389.5,-757 1389.5,-817"/>
<text text-anchor="start" x="1222" y="-805" font-family="Helvetica,sans-Serif" font-size="10.00">DistributedTetrahedralMesh</text>
<text text-anchor="start" x="1222" y="-794" font-family="Helvetica,sans-Serif" font-size="10.00">&lt; ELEMENT_DIM, SPACE_DIM &gt; *</text>
<text text-anchor="start" x="1301.5" y="-779" font-family="Helvetica,sans-Serif" font-size="10.00"> </text>
<text text-anchor="start" x="1301.5" y="-764" font-family="Helvetica,sans-Serif" font-size="10.00"> </text>
<polygon fill="#bfbfbf" stroke="#bfbfbf" points="1217,-789 1217,-789 1390,-789 1390,-789 1217,-789"/>
<polygon fill="#bfbfbf" stroke="#bfbfbf" points="1217,-774 1217,-774 1390,-774 1390,-774 1217,-774"/>
<polygon fill="none" stroke="#bfbfbf" points="1216.5,-757 1216.5,-817 1389.5,-817 1389.5,-757 1216.5,-757"/>
</a>
</g>
</g>
<!-- Node13&#45;&gt;Node2 -->
<g id="edge14_Node000002_Node000013" class="edge">
<title>Node13&#45;&gt;Node2</title>
<g id="a_edge14_Node000002_Node000013"><a xlink:title=" ">
<path fill="none" stroke="#63b8ff" d="M1285.03,-756.74C1266.82,-727.1 1237.19,-678.84 1207.55,-630.58"/>
<polygon fill="none" stroke="#63b8ff" points="1207.51,-630.51 1200.96,-627.49 1201.23,-620.29 1207.78,-623.31 1207.51,-630.51"/>
</a>
</g>
<text text-anchor="middle" x="1268" y="-641" font-family="Helvetica,sans-Serif" font-size="10.00" fill="grey"> #mpDistributedMesh</text>
</g>
<!-- Node14 -->
<g id="Node000014" class="node">
<title>Node14</title>
<g id="a_Node000014"><a xlink:title=" ">
<polygon fill="white" stroke="transparent" points="1536.5,-822.5 1407.5,-822.5 1407.5,-751.5 1536.5,-751.5 1536.5,-822.5"/>
<text text-anchor="start" x="1413" y="-810" font-family="Helvetica,sans-Serif" font-size="10.00">MixedDimensionMesh</text>
<text text-anchor="start" x="1413" y="-799" font-family="Helvetica,sans-Serif" font-size="10.00">&lt; ELEMENT_DIM, SPACE</text>
<text text-anchor="start" x="1450" y="-788" font-family="Helvetica,sans-Serif" font-size="10.00">_DIM &gt; *</text>
<text text-anchor="start" x="1470.5" y="-773" font-family="Helvetica,sans-Serif" font-size="10.00"> </text>
<text text-anchor="start" x="1470.5" y="-758" font-family="Helvetica,sans-Serif" font-size="10.00"> </text>
<polygon fill="#bfbfbf" stroke="#bfbfbf" points="1408,-783 1408,-783 1537,-783 1537,-783 1408,-783"/>
<polygon fill="#bfbfbf" stroke="#bfbfbf" points="1408,-768 1408,-768 1537,-768 1537,-768 1408,-768"/>
<polygon fill="none" stroke="#bfbfbf" points="1407.5,-751.5 1407.5,-822.5 1536.5,-822.5 1536.5,-751.5 1407.5,-751.5"/>
</a>
</g>
</g>
<!-- Node14&#45;&gt;Node2 -->
<g id="edge15_Node000002_Node000014" class="edge">
<title>Node14&#45;&gt;Node2</title>
<g id="a_edge15_Node000002_Node000014"><a xlink:title=" ">
<path fill="none" stroke="#63b8ff" d="M1455.46,-751.27C1442.28,-725.98 1422.08,-691.94 1398,-667 1344.21,-611.3 1271.67,-562.83 1213.11,-528.52"/>
<polygon fill="none" stroke="#63b8ff" points="1213.1,-528.52 1205.9,-528.97 1202.72,-522.5 1209.92,-522.05 1213.1,-528.52"/>
</a>
</g>
<text text-anchor="middle" x="1420.5" y="-641" font-family="Helvetica,sans-Serif" font-size="10.00" fill="grey"> #mpMixedMesh</text>
</g>
<!-- Node15 -->
<g id="Node000015" class="node">
<title>Node15</title>
<g id="a_Node000015"><a xlink:title=" ">
<polygon fill="white" stroke="transparent" points="1683.5,-822.5 1554.5,-822.5 1554.5,-751.5 1683.5,-751.5 1683.5,-822.5"/>
<text text-anchor="start" x="1560" y="-810" font-family="Helvetica,sans-Serif" font-size="10.00">MeshWriterIterators</text>
<text text-anchor="start" x="1560" y="-799" font-family="Helvetica,sans-Serif" font-size="10.00">&lt; ELEMENT_DIM, SPACE</text>
<text text-anchor="start" x="1597" y="-788" font-family="Helvetica,sans-Serif" font-size="10.00">_DIM &gt; *</text>
<text text-anchor="start" x="1617.5" y="-773" font-family="Helvetica,sans-Serif" font-size="10.00"> </text>
<text text-anchor="start" x="1617.5" y="-758" font-family="Helvetica,sans-Serif" font-size="10.00"> </text>
<polygon fill="#bfbfbf" stroke="#bfbfbf" points="1555,-783 1555,-783 1684,-783 1684,-783 1555,-783"/>
<polygon fill="#bfbfbf" stroke="#bfbfbf" points="1555,-768 1555,-768 1684,-768 1684,-768 1555,-768"/>
<polygon fill="none" stroke="#bfbfbf" points="1554.5,-751.5 1554.5,-822.5 1683.5,-822.5 1683.5,-751.5 1554.5,-751.5"/>
</a>
</g>
</g>
<!-- Node15&#45;&gt;Node2 -->
<g id="edge16_Node000002_Node000015" class="edge">
<title>Node15&#45;&gt;Node2</title>
<g id="a_edge16_Node000002_Node000015"><a xlink:title=" ">
<path fill="none" stroke="#63b8ff" d="M1604.34,-751.34C1591.82,-725.25 1571.62,-690.15 1545,-667 1448.22,-582.81 1308.61,-529.93 1214.3,-501.47"/>
<polygon fill="none" stroke="#63b8ff" points="1214.24,-501.45 1207.35,-503.57 1202.74,-498.03 1209.63,-495.91 1214.24,-501.45"/>
</a>
</g>
<text text-anchor="middle" x="1540.5" y="-641" font-family="Helvetica,sans-Serif" font-size="10.00" fill="grey"> #mpIters</text>
</g>
<!-- Node16 -->
<g id="Node000016" class="node">
<title>Node16</title>
<g id="a_Node000016"><a xlink:title=" ">
<polygon fill="white" stroke="transparent" points="1888.5,-498.5 1739.5,-498.5 1739.5,-449.5 1888.5,-449.5 1888.5,-498.5"/>
<text text-anchor="start" x="1745" y="-486" font-family="Helvetica,sans-Serif" font-size="10.00">map&lt; unsigned, unsigned &gt;</text>
<text text-anchor="start" x="1812.5" y="-471" font-family="Helvetica,sans-Serif" font-size="10.00"> </text>
<text text-anchor="start" x="1812.5" y="-456" font-family="Helvetica,sans-Serif" font-size="10.00"> </text>
<polygon fill="#bfbfbf" stroke="#bfbfbf" points="1740,-481 1740,-481 1889,-481 1889,-481 1740,-481"/>
<polygon fill="#bfbfbf" stroke="#bfbfbf" points="1740,-466 1740,-466 1889,-466 1889,-466 1740,-466"/>
<polygon fill="none" stroke="#bfbfbf" points="1739.5,-449.5 1739.5,-498.5 1888.5,-498.5 1888.5,-449.5 1739.5,-449.5"/>
</a>
</g>
</g>
<!-- Node16&#45;&gt;Node1 -->
<g id="edge19_Node000001_Node000016" class="edge">
<title>Node16&#45;&gt;Node1</title>
<g id="a_edge19_Node000001_Node000016"><a xlink:title=" ">
<path fill="none" stroke="#63b8ff" d="M1809.49,-449.23C1803.58,-413.62 1795.49,-344.56 1809,-288 1809.97,-283.92 1811.08,-279.83 1812.29,-275.73"/>
<polygon fill="none" stroke="#63b8ff" points="1812.32,-275.63 1810.35,-268.69 1815.99,-264.2 1817.97,-271.14 1812.32,-275.63"/>
</a>
</g>
<text text-anchor="middle" x="1875.5" y="-296.5" font-family="Helvetica,sans-Serif" font-size="10.00" fill="grey"> &#45;mGlobalToNodeIndexMap</text>
</g>
<!-- Node17 -->
<g id="Node000017" class="node">
<title>Node17</title>
<g id="a_Node000017"><a xlink:title=" ">
<polygon fill="white" stroke="transparent" points="2016,-504 1912,-504 1912,-444 2016,-444 2016,-504"/>
<text text-anchor="start" x="1917" y="-492" font-family="Helvetica,sans-Serif" font-size="10.00">vector&lt; std::vector</text>
<text text-anchor="start" x="1924.5" y="-481" font-family="Helvetica,sans-Serif" font-size="10.00">&lt; unsigned &gt; &gt;</text>
<text text-anchor="start" x="1962" y="-466" font-family="Helvetica,sans-Serif" font-size="10.00"> </text>
<text text-anchor="start" x="1962" y="-451" font-family="Helvetica,sans-Serif" font-size="10.00"> </text>
<polygon fill="#bfbfbf" stroke="#bfbfbf" points="1912,-476 1912,-476 2016,-476 2016,-476 1912,-476"/>
<polygon fill="#bfbfbf" stroke="#bfbfbf" points="1912,-461 1912,-461 2016,-461 2016,-461 1912,-461"/>
<polygon fill="none" stroke="#bfbfbf" points="1912,-444 1912,-504 2016,-504 2016,-444 1912,-444"/>
</a>
</g>
</g>
<!-- Node17&#45;&gt;Node1 -->
<g id="edge20_Node000001_Node000017" class="edge">
<title>Node17&#45;&gt;Node1</title>
<g id="a_edge20_Node000001_Node000017"><a xlink:title=" ">
<path fill="none" stroke="#63b8ff" d="M1962.64,-443.79C1960.46,-407.01 1954.99,-342.09 1942,-288 1941.51,-285.98 1941.01,-283.95 1940.49,-281.91"/>
<polygon fill="none" stroke="#63b8ff" points="1940.45,-281.75 1935.02,-277 1937.33,-270.16 1942.75,-274.92 1940.45,-281.75"/>
</a>
</g>
<text text-anchor="middle" x="2021.5" y="-302" font-family="Helvetica,sans-Serif" font-size="10.00" fill="grey"> &#45;mNodesToReceivePerProcess</text>
<text text-anchor="middle" x="2021.5" y="-291" font-family="Helvetica,sans-Serif" font-size="10.00" fill="grey">&#45;mNodesToSendPerProcess</text>
</g>
<!-- Node18 -->
<g id="Node000018" class="node">
<title>Node18</title>
<g id="a_Node000018"><a xlink:title=" ">
<polygon fill="white" stroke="transparent" points="2204,-504 2072,-504 2072,-444 2204,-444 2204,-504"/>
<text text-anchor="start" x="2077" y="-492" font-family="Helvetica,sans-Serif" font-size="10.00">NodesOnlyMesh&lt; SPACE</text>
<text text-anchor="start" x="2115.5" y="-481" font-family="Helvetica,sans-Serif" font-size="10.00">_DIM &gt; *</text>
<text text-anchor="start" x="2136" y="-466" font-family="Helvetica,sans-Serif" font-size="10.00"> </text>
<text text-anchor="start" x="2136" y="-451" font-family="Helvetica,sans-Serif" font-size="10.00"> </text>
<polygon fill="#bfbfbf" stroke="#bfbfbf" points="2072,-476 2072,-476 2204,-476 2204,-476 2072,-476"/>
<polygon fill="#bfbfbf" stroke="#bfbfbf" points="2072,-461 2072,-461 2204,-461 2204,-461 2072,-461"/>
<polygon fill="none" stroke="#bfbfbf" points="2072,-444 2072,-504 2204,-504 2204,-444 2072,-444"/>
</a>
</g>
</g>
<!-- Node18&#45;&gt;Node1 -->
<g id="edge21_Node000001_Node000018" class="edge">
<title>Node18&#45;&gt;Node1</title>
<g id="a_edge21_Node000001_Node000018"><a xlink:title=" ">
<path fill="none" stroke="#63b8ff" d="M2138.62,-443.92C2138.09,-405.26 2132.33,-336.2 2101,-288 2068.47,-237.95 2013.19,-199.42 1966.83,-173.67"/>
<polygon fill="none" stroke="#63b8ff" points="1966.72,-173.61 1959.54,-174.26 1956.17,-167.88 1963.35,-167.23 1966.72,-173.61"/>
</a>
</g>
<text text-anchor="middle" x="2161.5" y="-296.5" font-family="Helvetica,sans-Serif" font-size="10.00" fill="grey"> &#45;mpNodesOnlyMesh</text>
</g>
<!-- Node19 -->
<g id="Node000019" class="node">
<title>Node19</title>
<g id="a_Node000019"><a xlink:title=" ">
<polygon fill="white" stroke="transparent" points="2340,-498.5 2222,-498.5 2222,-449.5 2340,-449.5 2340,-498.5"/>
<text text-anchor="start" x="2227" y="-486" font-family="Helvetica,sans-Serif" font-size="10.00">vtkUnstructuredGrid *</text>
<text text-anchor="start" x="2279" y="-471" font-family="Helvetica,sans-Serif" font-size="10.00"> </text>
<text text-anchor="start" x="2279" y="-456" font-family="Helvetica,sans-Serif" font-size="10.00"> </text>
<polygon fill="#bfbfbf" stroke="#bfbfbf" points="2222,-481 2222,-481 2340,-481 2340,-481 2222,-481"/>
<polygon fill="#bfbfbf" stroke="#bfbfbf" points="2222,-466 2222,-466 2340,-466 2340,-466 2222,-466"/>
<polygon fill="none" stroke="#bfbfbf" points="2222,-449.5 2222,-498.5 2340,-498.5 2340,-449.5 2222,-449.5"/>
</a>
</g>
</g>
<!-- Node19&#45;&gt;Node1 -->
<g id="edge22_Node000001_Node000019" class="edge">
<title>Node19&#45;&gt;Node1</title>
<g id="a_edge22_Node000001_Node000019"><a xlink:title=" ">
<path fill="none" stroke="#63b8ff" d="M2278.75,-449.26C2273.93,-410.86 2259.35,-334.7 2217,-288 2150.76,-214.98 2042.44,-174.52 1967.85,-154.05"/>
<polygon fill="none" stroke="#63b8ff" points="1967.78,-154.03 1960.95,-156.35 1956.19,-150.93 1963.01,-148.62 1967.78,-154.03"/>
</a>
</g>
<text text-anchor="middle" x="2291.5" y="-296.5" font-family="Helvetica,sans-Serif" font-size="10.00" fill="grey"> &#45;mpVtkUnstructedMesh</text>
</g>
</g>
</svg>
