<?xml version="1.0" encoding="UTF-8" standalone="no"?>
<!DOCTYPE svg PUBLIC "-//W3C//DTD SVG 1.1//EN"
 "http://www.w3.org/Graphics/SVG/1.1/DTD/svg11.dtd">
<!-- Generated by graphviz version 2.43.0 (0)
 -->
<!-- Title: CellBasedSimulationArchiver&lt; ELEMENT_DIM, SIM, SPACE_DIM, INPUT_ARCHIVE_TYPE, OUTPUT_ARCHIVE_TYPE &gt; Pages: 1 -->
<svg width="161pt" height="105pt"
 viewBox="0.00 0.00 161.00 105.00" xmlns="http://www.w3.org/2000/svg" xmlns:xlink="http://www.w3.org/1999/xlink">
<g id="graph0" class="graph" transform="scale(1 1) rotate(0) translate(4 101)">
<title>CellBasedSimulationArchiver&lt; ELEMENT_DIM, SIM, SPACE_DIM, INPUT_ARCHIVE_TYPE, OUTPUT_ARCHIVE_TYPE &gt;</title>
<!-- Node1 -->
<g id="Node000001" class="node">
<title>Node1</title>
<g id="a_Node000001"><a xlink:title=" ">
<polygon fill="#999999" stroke="transparent" points="153,-97 0,-97 0,0 153,0 153,-97"/>
<text text-anchor="start" x="5.5" y="-84.5" font-family="Helvetica,sans-Serif" font-size="10.00">CellBasedSimulationArchiver</text>
<text text-anchor="start" x="5.5" y="-73.5" font-family="Helvetica,sans-Serif" font-size="10.00">&lt; ELEMENT_DIM, SIM, SPACE</text>
<text text-anchor="start" x="5.5" y="-62.5" font-family="Helvetica,sans-Serif" font-size="10.00">_DIM, INPUT_ARCHIVE_TYPE,</text>
<text text-anchor="start" x="10.5" y="-51.5" font-family="Helvetica,sans-Serif" font-size="10.00"> OUTPUT_ARCHIVE_TYPE &gt;</text>
<text text-anchor="start" x="75" y="-36.5" font-family="Helvetica,sans-Serif" font-size="10.00"> </text>
<text text-anchor="start" x="29.5" y="-21.5" font-family="Helvetica,sans-Serif" font-size="10.00">+</text>
<text text-anchor="start" x="67.5" y="-21.5" font-family="Helvetica,sans-Serif" font-size="10.00">Load()</text>
<text text-anchor="start" x="29.5" y="-6.5" font-family="Helvetica,sans-Serif" font-size="10.00">+</text>
<text text-anchor="start" x="67.5" y="-6.5" font-family="Helvetica,sans-Serif" font-size="10.00">Save()</text>
<polygon fill="#666666" stroke="#666666" points="0.5,-46.5 0.5,-46.5 153.5,-46.5 153.5,-46.5 0.5,-46.5"/>
<polygon fill="#666666" stroke="#666666" points="0.5,-31.5 0.5,-31.5 153.5,-31.5 153.5,-31.5 0.5,-31.5"/>
<polygon fill="none" stroke="#666666" points="0,0 0,-97 153,-97 153,0 0,0"/>
</a>
</g>
</g>
</g>
</svg>
