<?xml version="1.0" encoding="UTF-8" standalone="no"?>
<!DOCTYPE svg PUBLIC "-//W3C//DTD SVG 1.1//EN"
 "http://www.w3.org/Graphics/SVG/1.1/DTD/svg11.dtd">
<!-- Generated by graphviz version 2.43.0 (0)
 -->
<!-- Title: PottsMeshReader&lt; SPACE_DIM &gt; Pages: 1 -->
<svg width="685pt" height="873pt"
 viewBox="0.00 0.00 685.00 873.00" xmlns="http://www.w3.org/2000/svg" xmlns:xlink="http://www.w3.org/1999/xlink">
<g id="graph0" class="graph" transform="scale(1 1) rotate(0) translate(4 869)">
<title>PottsMeshReader&lt; SPACE_DIM &gt;</title>
<!-- Node1 -->
<g id="Node000001" class="node">
<title>Node1</title>
<g id="a_Node000001"><a xlink:title=" ">
<polygon fill="#999999" stroke="transparent" points="418,-285 260,-285 260,0 418,0 418,-285"/>
<text text-anchor="start" x="275" y="-272.5" font-family="Helvetica,sans-Serif" font-size="10.00">PottsMeshReader&lt; SPACE</text>
<text text-anchor="start" x="320.5" y="-261.5" font-family="Helvetica,sans-Serif" font-size="10.00">_DIM &gt;</text>
<text text-anchor="start" x="337" y="-246.5" font-family="Helvetica,sans-Serif" font-size="10.00"> </text>
<text text-anchor="start" x="264" y="-231.5" font-family="Helvetica,sans-Serif" font-size="10.00">+</text>
<text text-anchor="start" x="277" y="-231.5" font-family="Helvetica,sans-Serif" font-size="10.00">PottsMeshReader()</text>
<text text-anchor="start" x="264" y="-216.5" font-family="Helvetica,sans-Serif" font-size="10.00">+</text>
<text text-anchor="start" x="277" y="-216.5" font-family="Helvetica,sans-Serif" font-size="10.00">~PottsMeshReader()</text>
<text text-anchor="start" x="264" y="-201.5" font-family="Helvetica,sans-Serif" font-size="10.00">+</text>
<text text-anchor="start" x="277" y="-201.5" font-family="Helvetica,sans-Serif" font-size="10.00">GetNumElements()</text>
<text text-anchor="start" x="264" y="-186.5" font-family="Helvetica,sans-Serif" font-size="10.00">+</text>
<text text-anchor="start" x="277" y="-186.5" font-family="Helvetica,sans-Serif" font-size="10.00">GetNumNodes()</text>
<text text-anchor="start" x="264" y="-171.5" font-family="Helvetica,sans-Serif" font-size="10.00">+</text>
<text text-anchor="start" x="277" y="-171.5" font-family="Helvetica,sans-Serif" font-size="10.00">GetNumElementAttributes()</text>
<text text-anchor="start" x="264" y="-156.5" font-family="Helvetica,sans-Serif" font-size="10.00">+</text>
<text text-anchor="start" x="277" y="-156.5" font-family="Helvetica,sans-Serif" font-size="10.00">GetNumFaces()</text>
<text text-anchor="start" x="264" y="-141.5" font-family="Helvetica,sans-Serif" font-size="10.00">+</text>
<text text-anchor="start" x="277" y="-141.5" font-family="Helvetica,sans-Serif" font-size="10.00">GetNextFaceData()</text>
<text text-anchor="start" x="264" y="-126.5" font-family="Helvetica,sans-Serif" font-size="10.00">+</text>
<text text-anchor="start" x="277" y="-126.5" font-family="Helvetica,sans-Serif" font-size="10.00">Reset()</text>
<text text-anchor="start" x="264" y="-111.5" font-family="Helvetica,sans-Serif" font-size="10.00">+</text>
<text text-anchor="start" x="277" y="-111.5" font-family="Helvetica,sans-Serif" font-size="10.00">GetNextNode()</text>
<text text-anchor="start" x="264" y="-96.5" font-family="Helvetica,sans-Serif" font-size="10.00">+</text>
<text text-anchor="start" x="277" y="-96.5" font-family="Helvetica,sans-Serif" font-size="10.00">GetNextElementData()</text>
<text text-anchor="start" x="266.5" y="-81.5" font-family="Helvetica,sans-Serif" font-size="10.00">&#45;</text>
<text text-anchor="start" x="277" y="-81.5" font-family="Helvetica,sans-Serif" font-size="10.00">OpenFiles()</text>
<text text-anchor="start" x="266.5" y="-66.5" font-family="Helvetica,sans-Serif" font-size="10.00">&#45;</text>
<text text-anchor="start" x="277" y="-66.5" font-family="Helvetica,sans-Serif" font-size="10.00">OpenNodeFile()</text>
<text text-anchor="start" x="266.5" y="-51.5" font-family="Helvetica,sans-Serif" font-size="10.00">&#45;</text>
<text text-anchor="start" x="277" y="-51.5" font-family="Helvetica,sans-Serif" font-size="10.00">OpenElementsFile()</text>
<text text-anchor="start" x="266.5" y="-36.5" font-family="Helvetica,sans-Serif" font-size="10.00">&#45;</text>
<text text-anchor="start" x="277" y="-36.5" font-family="Helvetica,sans-Serif" font-size="10.00">ReadHeaders()</text>
<text text-anchor="start" x="266.5" y="-21.5" font-family="Helvetica,sans-Serif" font-size="10.00">&#45;</text>
<text text-anchor="start" x="277" y="-21.5" font-family="Helvetica,sans-Serif" font-size="10.00">CloseFiles()</text>
<text text-anchor="start" x="266.5" y="-6.5" font-family="Helvetica,sans-Serif" font-size="10.00">&#45;</text>
<text text-anchor="start" x="277" y="-6.5" font-family="Helvetica,sans-Serif" font-size="10.00">GetNextLineFromStream()</text>
<polygon fill="#666666" stroke="#666666" points="260,-256.5 260,-256.5 418,-256.5 418,-256.5 260,-256.5"/>
<polygon fill="#666666" stroke="#666666" points="260,-241.5 260,-241.5 418,-241.5 418,-241.5 260,-241.5"/>
<polygon fill="none" stroke="#666666" points="260,0 260,-285 418,-285 418,0 260,0"/>
</a>
</g>
</g>
<!-- Node2 -->
<g id="Node000002" class="node">
<title>Node2</title>
<g id="a_Node000002"><a xlink:href="classAbstractMeshReader.html" target="_top" xlink:title=" ">
<polygon fill="white" stroke="transparent" points="186,-597 0,-597 0,-387 186,-387 186,-597"/>
<text text-anchor="start" x="23" y="-585" font-family="Helvetica,sans-Serif" font-size="10.00">AbstractMeshReader</text>
<text text-anchor="start" x="23" y="-574" font-family="Helvetica,sans-Serif" font-size="10.00">&lt; SPACE_DIM, SPACE_DIM &gt;</text>
<text text-anchor="start" x="91" y="-559" font-family="Helvetica,sans-Serif" font-size="10.00"> </text>
<text text-anchor="start" x="4" y="-544" font-family="Helvetica,sans-Serif" font-size="10.00">+</text>
<text text-anchor="start" x="17" y="-544" font-family="Helvetica,sans-Serif" font-size="10.00">~AbstractMeshReader()</text>
<text text-anchor="start" x="4" y="-529" font-family="Helvetica,sans-Serif" font-size="10.00">+</text>
<text text-anchor="start" x="17" y="-529" font-family="Helvetica,sans-Serif" font-size="10.00">GetNumElements()</text>
<text text-anchor="start" x="4" y="-514" font-family="Helvetica,sans-Serif" font-size="10.00">+</text>
<text text-anchor="start" x="17" y="-514" font-family="Helvetica,sans-Serif" font-size="10.00">GetNumNodes()</text>
<text text-anchor="start" x="4" y="-499" font-family="Helvetica,sans-Serif" font-size="10.00">+</text>
<text text-anchor="start" x="17" y="-499" font-family="Helvetica,sans-Serif" font-size="10.00">GetNumFaces()</text>
<text text-anchor="start" x="4" y="-484" font-family="Helvetica,sans-Serif" font-size="10.00">+</text>
<text text-anchor="start" x="17" y="-484" font-family="Helvetica,sans-Serif" font-size="10.00">GetNumCableElements()</text>
<text text-anchor="start" x="4" y="-469" font-family="Helvetica,sans-Serif" font-size="10.00">+</text>
<text text-anchor="start" x="17" y="-469" font-family="Helvetica,sans-Serif" font-size="10.00">GetNumElementAttributes()</text>
<text text-anchor="start" x="4" y="-454" font-family="Helvetica,sans-Serif" font-size="10.00">+</text>
<text text-anchor="start" x="17" y="-454" font-family="Helvetica,sans-Serif" font-size="10.00">GetNumFaceAttributes()</text>
<text text-anchor="start" x="4" y="-439" font-family="Helvetica,sans-Serif" font-size="10.00">+</text>
<text text-anchor="start" x="17" y="-439" font-family="Helvetica,sans-Serif" font-size="10.00">GetNumCableElementAttributes()</text>
<text text-anchor="start" x="4" y="-424" font-family="Helvetica,sans-Serif" font-size="10.00">+</text>
<text text-anchor="start" x="17" y="-424" font-family="Helvetica,sans-Serif" font-size="10.00">GetNodeAttributes()</text>
<text text-anchor="start" x="4" y="-409" font-family="Helvetica,sans-Serif" font-size="10.00">+</text>
<text text-anchor="start" x="17" y="-409" font-family="Helvetica,sans-Serif" font-size="10.00">GetNumEdges()</text>
<text text-anchor="start" x="17" y="-394" font-family="Helvetica,sans-Serif" font-size="10.00">and 25 more...</text>
<polygon fill="#666666" stroke="#666666" points="0,-569 0,-569 186,-569 186,-569 0,-569"/>
<polygon fill="#666666" stroke="#666666" points="0,-554 0,-554 186,-554 186,-554 0,-554"/>
<polygon fill="none" stroke="#666666" points="0,-387 0,-597 186,-597 186,-387 0,-387"/>
</a>
</g>
</g>
<!-- Node2&#45;&gt;Node1 -->
<g id="edge1_Node000001_Node000002" class="edge">
<title>Node2&#45;&gt;Node1</title>
<g id="a_edge1_Node000001_Node000002"><a xlink:title=" ">
<path fill="none" stroke="#63b8ff" d="M170.97,-378.48C188.35,-353.57 206.74,-327.35 224,-303 235.55,-286.71 247.82,-269.53 259.89,-252.73"/>
<polygon fill="none" stroke="#63b8ff" points="167.97,-376.66 165.12,-386.87 173.71,-380.67 167.97,-376.66"/>
</a>
</g>
</g>
<!-- Node3 -->
<g id="Node000003" class="node">
<title>Node3</title>
<g id="a_Node000003"><a xlink:href="classAbstractMeshReader.html" target="_top" xlink:title=" ">
<polygon fill="white" stroke="transparent" points="186,-865 0,-865 0,-655 186,-655 186,-865"/>
<text text-anchor="start" x="15.5" y="-853" font-family="Helvetica,sans-Serif" font-size="10.00">AbstractMeshReader</text>
<text text-anchor="start" x="15.5" y="-842" font-family="Helvetica,sans-Serif" font-size="10.00">&lt; ELEMENT_DIM, SPACE_DIM &gt;</text>
<text text-anchor="start" x="91" y="-827" font-family="Helvetica,sans-Serif" font-size="10.00"> </text>
<text text-anchor="start" x="4" y="-812" font-family="Helvetica,sans-Serif" font-size="10.00">+</text>
<text text-anchor="start" x="17" y="-812" font-family="Helvetica,sans-Serif" font-size="10.00">~AbstractMeshReader()</text>
<text text-anchor="start" x="4" y="-797" font-family="Helvetica,sans-Serif" font-size="10.00">+</text>
<text text-anchor="start" x="17" y="-797" font-family="Helvetica,sans-Serif" font-size="10.00">GetNumElements()</text>
<text text-anchor="start" x="4" y="-782" font-family="Helvetica,sans-Serif" font-size="10.00">+</text>
<text text-anchor="start" x="17" y="-782" font-family="Helvetica,sans-Serif" font-size="10.00">GetNumNodes()</text>
<text text-anchor="start" x="4" y="-767" font-family="Helvetica,sans-Serif" font-size="10.00">+</text>
<text text-anchor="start" x="17" y="-767" font-family="Helvetica,sans-Serif" font-size="10.00">GetNumFaces()</text>
<text text-anchor="start" x="4" y="-752" font-family="Helvetica,sans-Serif" font-size="10.00">+</text>
<text text-anchor="start" x="17" y="-752" font-family="Helvetica,sans-Serif" font-size="10.00">GetNumCableElements()</text>
<text text-anchor="start" x="4" y="-737" font-family="Helvetica,sans-Serif" font-size="10.00">+</text>
<text text-anchor="start" x="17" y="-737" font-family="Helvetica,sans-Serif" font-size="10.00">GetNumElementAttributes()</text>
<text text-anchor="start" x="4" y="-722" font-family="Helvetica,sans-Serif" font-size="10.00">+</text>
<text text-anchor="start" x="17" y="-722" font-family="Helvetica,sans-Serif" font-size="10.00">GetNumFaceAttributes()</text>
<text text-anchor="start" x="4" y="-707" font-family="Helvetica,sans-Serif" font-size="10.00">+</text>
<text text-anchor="start" x="17" y="-707" font-family="Helvetica,sans-Serif" font-size="10.00">GetNumCableElementAttributes()</text>
<text text-anchor="start" x="4" y="-692" font-family="Helvetica,sans-Serif" font-size="10.00">+</text>
<text text-anchor="start" x="17" y="-692" font-family="Helvetica,sans-Serif" font-size="10.00">GetNodeAttributes()</text>
<text text-anchor="start" x="4" y="-677" font-family="Helvetica,sans-Serif" font-size="10.00">+</text>
<text text-anchor="start" x="17" y="-677" font-family="Helvetica,sans-Serif" font-size="10.00">GetNumEdges()</text>
<text text-anchor="start" x="17" y="-662" font-family="Helvetica,sans-Serif" font-size="10.00">and 25 more...</text>
<polygon fill="#666666" stroke="#666666" points="0,-837 0,-837 186,-837 186,-837 0,-837"/>
<polygon fill="#666666" stroke="#666666" points="0,-822 0,-822 186,-822 186,-822 0,-822"/>
<polygon fill="none" stroke="#666666" points="0,-655 0,-865 186,-865 186,-655 0,-655"/>
</a>
</g>
</g>
<!-- Node3&#45;&gt;Node2 -->
<g id="edge2_Node000002_Node000003" class="edge">
<title>Node3&#45;&gt;Node2</title>
<g id="a_edge2_Node000002_Node000003"><a xlink:title=" ">
<path fill="none" stroke="orange" d="M93,-644.36C93,-628.65 93,-612.58 93,-597.07"/>
<polygon fill="orange" stroke="orange" points="89.5,-644.63 93,-654.63 96.5,-644.63 89.5,-644.63"/>
</a>
</g>
<text text-anchor="start" x="93" y="-629" font-family="Helvetica,sans-Serif" font-size="10.00" fill="grey"> &lt; SPACE_DIM, SPACE</text>
<text text-anchor="middle" x="146.5" y="-618" font-family="Helvetica,sans-Serif" font-size="10.00" fill="grey">_DIM &gt;</text>
</g>
<!-- Node4 -->
<g id="Node000004" class="node">
<title>Node4</title>
<g id="a_Node000004"><a xlink:title=" ">
<polygon fill="white" stroke="transparent" points="242,-516.5 204,-516.5 204,-467.5 242,-467.5 242,-516.5"/>
<text text-anchor="start" x="209" y="-504" font-family="Helvetica,sans-Serif" font-size="10.00">string</text>
<text text-anchor="start" x="221" y="-489" font-family="Helvetica,sans-Serif" font-size="10.00"> </text>
<text text-anchor="start" x="221" y="-474" font-family="Helvetica,sans-Serif" font-size="10.00"> </text>
<polygon fill="#bfbfbf" stroke="#bfbfbf" points="204,-499 204,-499 242,-499 242,-499 204,-499"/>
<polygon fill="#bfbfbf" stroke="#bfbfbf" points="204,-484 204,-484 242,-484 242,-484 204,-484"/>
<polygon fill="none" stroke="#bfbfbf" points="204,-467.5 204,-516.5 242,-516.5 242,-467.5 204,-467.5"/>
</a>
</g>
</g>
<!-- Node4&#45;&gt;Node1 -->
<g id="edge3_Node000001_Node000004" class="edge">
<title>Node4&#45;&gt;Node1</title>
<g id="a_edge3_Node000001_Node000004"><a xlink:title=" ">
<path fill="none" stroke="#63b8ff" d="M222.09,-467.44C221.41,-431.14 222.97,-359.76 242,-303 245.48,-292.62 249.73,-282.2 254.49,-271.94"/>
<polygon fill="none" stroke="#63b8ff" points="254.62,-271.67 253.63,-264.53 259.84,-260.87 260.83,-268.01 254.62,-271.67"/>
</a>
</g>
<text text-anchor="middle" x="288.5" y="-333.5" font-family="Helvetica,sans-Serif" font-size="10.00" fill="grey"> &#45;mFilesBaseName</text>
</g>
<!-- Node5 -->
<g id="Node000005" class="node">
<title>Node5</title>
<g id="a_Node000005"><a xlink:title=" ">
<polygon fill="white" stroke="transparent" points="365,-516.5 313,-516.5 313,-467.5 365,-467.5 365,-516.5"/>
<text text-anchor="start" x="318" y="-504" font-family="Helvetica,sans-Serif" font-size="10.00">ifstream</text>
<text text-anchor="start" x="337" y="-489" font-family="Helvetica,sans-Serif" font-size="10.00"> </text>
<text text-anchor="start" x="337" y="-474" font-family="Helvetica,sans-Serif" font-size="10.00"> </text>
<polygon fill="#bfbfbf" stroke="#bfbfbf" points="313,-499 313,-499 365,-499 365,-499 313,-499"/>
<polygon fill="#bfbfbf" stroke="#bfbfbf" points="313,-484 313,-484 365,-484 365,-484 313,-484"/>
<polygon fill="none" stroke="#bfbfbf" points="313,-467.5 313,-516.5 365,-516.5 365,-467.5 313,-467.5"/>
</a>
</g>
</g>
<!-- Node5&#45;&gt;Node1 -->
<g id="edge4_Node000001_Node000005" class="edge">
<title>Node5&#45;&gt;Node1</title>
<g id="a_edge4_Node000001_Node000005"><a xlink:title=" ">
<path fill="none" stroke="#63b8ff" d="M339,-467.39C339,-432.15 339,-362.94 339,-297.51"/>
<polygon fill="none" stroke="#63b8ff" points="339,-297.34 335,-291.34 339,-285.34 343,-291.34 339,-297.34"/>
</a>
</g>
<text text-anchor="middle" x="379" y="-339" font-family="Helvetica,sans-Serif" font-size="10.00" fill="grey"> &#45;mElementsFile</text>
<text text-anchor="middle" x="379" y="-328" font-family="Helvetica,sans-Serif" font-size="10.00" fill="grey">&#45;mNodesFile</text>
</g>
<!-- Node6 -->
<g id="Node000006" class="node">
<title>Node6</title>
<g id="a_Node000006"><a xlink:href="classbool.html" target="_top" xlink:title=" ">
<polygon fill="white" stroke="transparent" points="458,-516.5 426,-516.5 426,-467.5 458,-467.5 458,-516.5"/>
<text text-anchor="start" x="431" y="-504" font-family="Helvetica,sans-Serif" font-size="10.00">bool</text>
<text text-anchor="start" x="440" y="-489" font-family="Helvetica,sans-Serif" font-size="10.00"> </text>
<text text-anchor="start" x="440" y="-474" font-family="Helvetica,sans-Serif" font-size="10.00"> </text>
<polygon fill="#bfbfbf" stroke="#bfbfbf" points="426,-499 426,-499 458,-499 458,-499 426,-499"/>
<polygon fill="#bfbfbf" stroke="#bfbfbf" points="426,-484 426,-484 458,-484 458,-484 426,-484"/>
<polygon fill="none" stroke="#bfbfbf" points="426,-467.5 426,-516.5 458,-516.5 458,-467.5 426,-467.5"/>
</a>
</g>
</g>
<!-- Node6&#45;&gt;Node1 -->
<g id="edge5_Node000001_Node000006" class="edge">
<title>Node6&#45;&gt;Node1</title>
<g id="a_edge5_Node000001_Node000006"><a xlink:title=" ">
<path fill="none" stroke="#63b8ff" d="M441.88,-467.31C441.11,-431.12 437.29,-360.26 420,-303 419.35,-300.86 418.68,-298.72 417.98,-296.57"/>
<polygon fill="none" stroke="#63b8ff" points="417.93,-296.42 412.19,-292.05 414.02,-285.07 419.75,-289.44 417.93,-296.42"/>
</a>
</g>
<text text-anchor="middle" x="479.5" y="-333.5" font-family="Helvetica,sans-Serif" font-size="10.00" fill="grey"> &#45;mIndexFromZero</text>
</g>
<!-- Node7 -->
<g id="Node000007" class="node">
<title>Node7</title>
<g id="a_Node000007"><a xlink:href="classunsigned.html" target="_top" xlink:title=" ">
<polygon fill="white" stroke="transparent" points="583.5,-516.5 528.5,-516.5 528.5,-467.5 583.5,-467.5 583.5,-516.5"/>
<text text-anchor="start" x="534" y="-504" font-family="Helvetica,sans-Serif" font-size="10.00">unsigned</text>
<text text-anchor="start" x="554.5" y="-489" font-family="Helvetica,sans-Serif" font-size="10.00"> </text>
<text text-anchor="start" x="554.5" y="-474" font-family="Helvetica,sans-Serif" font-size="10.00"> </text>
<polygon fill="#bfbfbf" stroke="#bfbfbf" points="529,-499 529,-499 584,-499 584,-499 529,-499"/>
<polygon fill="#bfbfbf" stroke="#bfbfbf" points="529,-484 529,-484 584,-484 584,-484 529,-484"/>
<polygon fill="none" stroke="#bfbfbf" points="528.5,-467.5 528.5,-516.5 583.5,-516.5 583.5,-467.5 528.5,-467.5"/>
</a>
</g>
</g>
<!-- Node7&#45;&gt;Node1 -->
<g id="edge6_Node000001_Node000007" class="edge">
<title>Node7&#45;&gt;Node1</title>
<g id="a_edge6_Node000001_Node000007"><a xlink:title=" ">
<path fill="none" stroke="#63b8ff" d="M557.79,-467.33C559.54,-429.95 558.49,-356.02 529,-303 505.27,-260.33 465.29,-224.17 428.12,-197.13"/>
<polygon fill="none" stroke="#63b8ff" points="428.01,-197.05 420.8,-196.83 418.23,-190.1 425.44,-190.31 428.01,-197.05"/>
</a>
</g>
<text text-anchor="middle" x="614" y="-361" font-family="Helvetica,sans-Serif" font-size="10.00" fill="grey"> &#45;mElementsRead</text>
<text text-anchor="middle" x="614" y="-350" font-family="Helvetica,sans-Serif" font-size="10.00" fill="grey">&#45;mNodesRead</text>
<text text-anchor="middle" x="614" y="-339" font-family="Helvetica,sans-Serif" font-size="10.00" fill="grey">&#45;mNumElementAttributes</text>
<text text-anchor="middle" x="614" y="-328" font-family="Helvetica,sans-Serif" font-size="10.00" fill="grey">&#45;mNumElements</text>
<text text-anchor="middle" x="614" y="-317" font-family="Helvetica,sans-Serif" font-size="10.00" fill="grey">&#45;mNumNodeAttributes</text>
<text text-anchor="middle" x="614" y="-306" font-family="Helvetica,sans-Serif" font-size="10.00" fill="grey">&#45;mNumNodes</text>
</g>
</g>
</svg>
