<?xml version="1.0" encoding="UTF-8" standalone="no"?>
<!DOCTYPE svg PUBLIC "-//W3C//DTD SVG 1.1//EN"
 "http://www.w3.org/Graphics/SVG/1.1/DTD/svg11.dtd">
<!-- Generated by graphviz version 2.43.0 (0)
 -->
<!-- Title: SteadyStateRestitutionStimulus Pages: 1 -->
<svg width="376pt" height="374pt"
 viewBox="0.00 0.00 376.00 374.00" xmlns="http://www.w3.org/2000/svg" xmlns:xlink="http://www.w3.org/1999/xlink">
<g id="graph0" class="graph" transform="scale(1 1) rotate(0) translate(4 370)">
<title>SteadyStateRestitutionStimulus</title>
<!-- Node1 -->
<g id="Node000001" class="node">
<title>Node1</title>
<g id="a_Node000001"><a xlink:title=" ">
<polygon fill="#999999" stroke="transparent" points="269,-79 85,-79 85,0 269,0 269,-79"/>
<text text-anchor="start" x="99" y="-66.5" font-family="Helvetica,sans-Serif" font-size="10.00">SteadyStateRestitutionStimulus</text>
<text text-anchor="start" x="175" y="-51.5" font-family="Helvetica,sans-Serif" font-size="10.00"> </text>
<text text-anchor="start" x="89" y="-36.5" font-family="Helvetica,sans-Serif" font-size="10.00">+</text>
<text text-anchor="start" x="102" y="-36.5" font-family="Helvetica,sans-Serif" font-size="10.00">SteadyStateRestitutionStimulus()</text>
<text text-anchor="start" x="91.5" y="-21.5" font-family="Helvetica,sans-Serif" font-size="10.00">&#45;</text>
<text text-anchor="start" x="102" y="-21.5" font-family="Helvetica,sans-Serif" font-size="10.00">serialize()</text>
<text text-anchor="start" x="91.5" y="-6.5" font-family="Helvetica,sans-Serif" font-size="10.00">&#45;</text>
<text text-anchor="start" x="102" y="-6.5" font-family="Helvetica,sans-Serif" font-size="10.00">SteadyStateRestitutionStimulus()</text>
<polygon fill="#666666" stroke="#666666" points="85,-61.5 85,-61.5 269,-61.5 269,-61.5 85,-61.5"/>
<polygon fill="#666666" stroke="#666666" points="85,-46.5 85,-46.5 269,-46.5 269,-46.5 85,-46.5"/>
<polygon fill="none" stroke="#666666" points="85,0 85,-79 269,-79 269,0 85,0"/>
</a>
</g>
</g>
<!-- Node2 -->
<g id="Node000002" class="node">
<title>Node2</title>
<g id="a_Node000002"><a xlink:href="classMultiStimulus.html" target="_top" xlink:title=" ">
<polygon fill="white" stroke="transparent" points="229.5,-225 124.5,-225 124.5,-116 229.5,-116 229.5,-225"/>
<text text-anchor="start" x="143.5" y="-212.5" font-family="Helvetica,sans-Serif" font-size="10.00">MultiStimulus</text>
<text text-anchor="start" x="175.5" y="-197.5" font-family="Helvetica,sans-Serif" font-size="10.00"> </text>
<text text-anchor="start" x="129" y="-182.5" font-family="Helvetica,sans-Serif" font-size="10.00">+</text>
<text text-anchor="start" x="142" y="-182.5" font-family="Helvetica,sans-Serif" font-size="10.00">~MultiStimulus()</text>
<text text-anchor="start" x="129" y="-167.5" font-family="Helvetica,sans-Serif" font-size="10.00">+</text>
<text text-anchor="start" x="142" y="-167.5" font-family="Helvetica,sans-Serif" font-size="10.00">AddStimulus()</text>
<text text-anchor="start" x="129" y="-152.5" font-family="Helvetica,sans-Serif" font-size="10.00">+</text>
<text text-anchor="start" x="142" y="-152.5" font-family="Helvetica,sans-Serif" font-size="10.00">GetStimulus()</text>
<text text-anchor="start" x="129" y="-137.5" font-family="Helvetica,sans-Serif" font-size="10.00">+</text>
<text text-anchor="start" x="142" y="-137.5" font-family="Helvetica,sans-Serif" font-size="10.00">Clear()</text>
<text text-anchor="start" x="131.5" y="-122.5" font-family="Helvetica,sans-Serif" font-size="10.00">&#45;</text>
<text text-anchor="start" x="142" y="-122.5" font-family="Helvetica,sans-Serif" font-size="10.00">serialize()</text>
<polygon fill="#666666" stroke="#666666" points="125,-207.5 125,-207.5 230,-207.5 230,-207.5 125,-207.5"/>
<polygon fill="#666666" stroke="#666666" points="125,-192.5 125,-192.5 230,-192.5 230,-192.5 125,-192.5"/>
<polygon fill="none" stroke="#666666" points="124.5,-116 124.5,-225 229.5,-225 229.5,-116 124.5,-116"/>
</a>
</g>
</g>
<!-- Node2&#45;&gt;Node1 -->
<g id="edge1_Node000001_Node000002" class="edge">
<title>Node2&#45;&gt;Node1</title>
<g id="a_edge1_Node000001_Node000002"><a xlink:title=" ">
<path fill="none" stroke="#63b8ff" d="M177,-105.72C177,-96.65 177,-87.56 177,-79.18"/>
<polygon fill="none" stroke="#63b8ff" points="173.5,-105.91 177,-115.91 180.5,-105.91 173.5,-105.91"/>
</a>
</g>
</g>
<!-- Node3 -->
<g id="Node000003" class="node">
<title>Node3</title>
<g id="a_Node000003"><a xlink:href="classAbstractStimulusFunction.html" target="_top" xlink:title=" ">
<polygon fill="white" stroke="transparent" points="162,-366 0,-366 0,-272 162,-272 162,-366"/>
<text text-anchor="start" x="18.5" y="-354" font-family="Helvetica,sans-Serif" font-size="10.00">AbstractStimulusFunction</text>
<text text-anchor="start" x="79" y="-339" font-family="Helvetica,sans-Serif" font-size="10.00"> </text>
<text text-anchor="start" x="4" y="-324" font-family="Helvetica,sans-Serif" font-size="10.00">+</text>
<text text-anchor="start" x="17" y="-324" font-family="Helvetica,sans-Serif" font-size="10.00">GetStimulus()</text>
<text text-anchor="start" x="4" y="-309" font-family="Helvetica,sans-Serif" font-size="10.00">+</text>
<text text-anchor="start" x="17" y="-309" font-family="Helvetica,sans-Serif" font-size="10.00">~AbstractStimulusFunction()</text>
<text text-anchor="start" x="4" y="-294" font-family="Helvetica,sans-Serif" font-size="10.00">+</text>
<text text-anchor="start" x="17" y="-294" font-family="Helvetica,sans-Serif" font-size="10.00">Clear()</text>
<text text-anchor="start" x="6.5" y="-279" font-family="Helvetica,sans-Serif" font-size="10.00">&#45;</text>
<text text-anchor="start" x="17" y="-279" font-family="Helvetica,sans-Serif" font-size="10.00">serialize()</text>
<polygon fill="#666666" stroke="#666666" points="0,-349 0,-349 162,-349 162,-349 0,-349"/>
<polygon fill="#666666" stroke="#666666" points="0,-334 0,-334 162,-334 162,-334 0,-334"/>
<polygon fill="none" stroke="#666666" points="0,-272 0,-366 162,-366 162,-272 0,-272"/>
</a>
</g>
</g>
<!-- Node3&#45;&gt;Node2 -->
<g id="edge2_Node000002_Node000003" class="edge">
<title>Node3&#45;&gt;Node2</title>
<g id="a_edge2_Node000002_Node000003"><a xlink:title=" ">
<path fill="none" stroke="#63b8ff" d="M116.92,-263.19C125.06,-250.77 133.69,-237.59 141.8,-225.22"/>
<polygon fill="none" stroke="#63b8ff" points="113.93,-261.36 111.38,-271.65 119.78,-265.2 113.93,-261.36"/>
</a>
</g>
</g>
<!-- Node4 -->
<g id="Node000004" class="node">
<title>Node4</title>
<g id="a_Node000004"><a xlink:title=" ">
<polygon fill="white" stroke="transparent" points="368,-349 180,-349 180,-289 368,-289 368,-349"/>
<text text-anchor="start" x="185" y="-337" font-family="Helvetica,sans-Serif" font-size="10.00">vector&lt; boost::shared</text>
<text text-anchor="start" x="185" y="-326" font-family="Helvetica,sans-Serif" font-size="10.00">_ptr&lt; AbstractStimulusFunction &gt; &gt;</text>
<text text-anchor="start" x="272" y="-311" font-family="Helvetica,sans-Serif" font-size="10.00"> </text>
<text text-anchor="start" x="272" y="-296" font-family="Helvetica,sans-Serif" font-size="10.00"> </text>
<polygon fill="#bfbfbf" stroke="#bfbfbf" points="180,-321 180,-321 368,-321 368,-321 180,-321"/>
<polygon fill="#bfbfbf" stroke="#bfbfbf" points="180,-306 180,-306 368,-306 368,-306 180,-306"/>
<polygon fill="none" stroke="#bfbfbf" points="180,-289 180,-349 368,-349 368,-289 180,-289"/>
</a>
</g>
</g>
<!-- Node4&#45;&gt;Node2 -->
<g id="edge3_Node000002_Node000004" class="edge">
<title>Node4&#45;&gt;Node2</title>
<g id="a_edge3_Node000002_Node000004"><a xlink:title=" ">
<path fill="none" stroke="#63b8ff" d="M254.6,-288.71C244.43,-273.35 231.56,-253.9 219.23,-235.28"/>
<polygon fill="none" stroke="#63b8ff" points="219.08,-235.05 212.43,-232.26 212.46,-225.05 219.1,-227.84 219.08,-235.05"/>
</a>
</g>
<text text-anchor="middle" x="260" y="-246" font-family="Helvetica,sans-Serif" font-size="10.00" fill="grey"> #mStimuli</text>
</g>
</g>
</svg>
