<?xml version="1.0" encoding="UTF-8" standalone="no"?>
<!DOCTYPE svg PUBLIC "-//W3C//DTD SVG 1.1//EN"
 "http://www.w3.org/Graphics/SVG/1.1/DTD/svg11.dtd">
<!-- Generated by graphviz version 2.43.0 (0)
 -->
<!-- Title: AbstractRushLarsenCardiacCell Pages: 1 -->
<svg width="901pt" height="1836pt"
 viewBox="0.00 0.00 900.50 1836.00" xmlns="http://www.w3.org/2000/svg" xmlns:xlink="http://www.w3.org/1999/xlink">
<g id="graph0" class="graph" transform="scale(1 1) rotate(0) translate(4 1832)">
<title>AbstractRushLarsenCardiacCell</title>
<!-- Node1 -->
<g id="Node000001" class="node">
<title>Node1</title>
<g id="a_Node000001"><a xlink:title=" ">
<polygon fill="#999999" stroke="transparent" points="740,-206 553,-206 553,0 740,0 740,-206"/>
<text text-anchor="start" x="570.5" y="-194" font-family="Helvetica,sans-Serif" font-size="10.00">AbstractRushLarsenCardiacCell</text>
<text text-anchor="start" x="645" y="-179" font-family="Helvetica,sans-Serif" font-size="10.00"> </text>
<text text-anchor="start" x="557.5" y="-164" font-family="Helvetica,sans-Serif" font-size="10.00">+</text>
<text text-anchor="start" x="570.5" y="-164" font-family="Helvetica,sans-Serif" font-size="10.00">AbstractRushLarsenCardiac</text>
<text text-anchor="start" x="570.5" y="-153" font-family="Helvetica,sans-Serif" font-size="10.00">Cell()</text>
<text text-anchor="start" x="557.5" y="-138" font-family="Helvetica,sans-Serif" font-size="10.00">+</text>
<text text-anchor="start" x="570.5" y="-138" font-family="Helvetica,sans-Serif" font-size="10.00">~AbstractRushLarsenCardiac</text>
<text text-anchor="start" x="570.5" y="-127" font-family="Helvetica,sans-Serif" font-size="10.00">Cell()</text>
<text text-anchor="start" x="557.5" y="-112" font-family="Helvetica,sans-Serif" font-size="10.00">+</text>
<text text-anchor="start" x="570.5" y="-112" font-family="Helvetica,sans-Serif" font-size="10.00">Compute()</text>
<text text-anchor="start" x="557.5" y="-97" font-family="Helvetica,sans-Serif" font-size="10.00">+</text>
<text text-anchor="start" x="570.5" y="-97" font-family="Helvetica,sans-Serif" font-size="10.00">ComputeExceptVoltage()</text>
<text text-anchor="start" x="557.5" y="-82" font-family="Helvetica,sans-Serif" font-size="10.00">+</text>
<text text-anchor="start" x="570.5" y="-82" font-family="Helvetica,sans-Serif" font-size="10.00">SolveAndUpdateState()</text>
<text text-anchor="start" x="557.5" y="-67" font-family="Helvetica,sans-Serif" font-size="10.00">#</text>
<text text-anchor="start" x="570.5" y="-67" font-family="Helvetica,sans-Serif" font-size="10.00">ComputeOneStepExceptVoltage()</text>
<text text-anchor="start" x="557.5" y="-52" font-family="Helvetica,sans-Serif" font-size="10.00">#</text>
<text text-anchor="start" x="570.5" y="-52" font-family="Helvetica,sans-Serif" font-size="10.00">UpdateTransmembranePotential()</text>
<text text-anchor="start" x="557.5" y="-37" font-family="Helvetica,sans-Serif" font-size="10.00">#</text>
<text text-anchor="start" x="570.5" y="-37" font-family="Helvetica,sans-Serif" font-size="10.00">EvaluateEquations()</text>
<text text-anchor="start" x="560" y="-22" font-family="Helvetica,sans-Serif" font-size="10.00">&#45;</text>
<text text-anchor="start" x="570.5" y="-22" font-family="Helvetica,sans-Serif" font-size="10.00">serialize()</text>
<text text-anchor="start" x="560" y="-7" font-family="Helvetica,sans-Serif" font-size="10.00">&#45;</text>
<text text-anchor="start" x="570.5" y="-7" font-family="Helvetica,sans-Serif" font-size="10.00">EvaluateYDerivatives()</text>
<polygon fill="#666666" stroke="#666666" points="553.5,-189 553.5,-189 740.5,-189 740.5,-189 553.5,-189"/>
<polygon fill="#666666" stroke="#666666" points="553.5,-174 553.5,-174 740.5,-174 740.5,-174 553.5,-174"/>
<polygon fill="none" stroke="#666666" points="553,0 553,-206 740,-206 740,0 553,0"/>
</a>
</g>
</g>
<!-- Node2 -->
<g id="Node000002" class="node">
<title>Node2</title>
<g id="a_Node000002"><a xlink:href="classAbstractCardiacCell.html" target="_top" xlink:title=" ">
<polygon fill="white" stroke="transparent" points="730,-472 563,-472 563,-243 730,-243 730,-472"/>
<text text-anchor="start" x="598.5" y="-459.5" font-family="Helvetica,sans-Serif" font-size="10.00">AbstractCardiacCell</text>
<text text-anchor="start" x="645" y="-444.5" font-family="Helvetica,sans-Serif" font-size="10.00"> </text>
<text text-anchor="start" x="567.5" y="-429.5" font-family="Helvetica,sans-Serif" font-size="10.00">+</text>
<text text-anchor="start" x="580.5" y="-429.5" font-family="Helvetica,sans-Serif" font-size="10.00">AbstractCardiacCell()</text>
<text text-anchor="start" x="567.5" y="-414.5" font-family="Helvetica,sans-Serif" font-size="10.00">+</text>
<text text-anchor="start" x="580.5" y="-414.5" font-family="Helvetica,sans-Serif" font-size="10.00">~AbstractCardiacCell()</text>
<text text-anchor="start" x="567.5" y="-399.5" font-family="Helvetica,sans-Serif" font-size="10.00">+</text>
<text text-anchor="start" x="580.5" y="-399.5" font-family="Helvetica,sans-Serif" font-size="10.00">Init()</text>
<text text-anchor="start" x="567.5" y="-384.5" font-family="Helvetica,sans-Serif" font-size="10.00">+</text>
<text text-anchor="start" x="580.5" y="-384.5" font-family="Helvetica,sans-Serif" font-size="10.00">SetTimestep()</text>
<text text-anchor="start" x="567.5" y="-369.5" font-family="Helvetica,sans-Serif" font-size="10.00">+</text>
<text text-anchor="start" x="580.5" y="-369.5" font-family="Helvetica,sans-Serif" font-size="10.00">SolveAndUpdateState()</text>
<text text-anchor="start" x="567.5" y="-354.5" font-family="Helvetica,sans-Serif" font-size="10.00">+</text>
<text text-anchor="start" x="580.5" y="-354.5" font-family="Helvetica,sans-Serif" font-size="10.00">Compute()</text>
<text text-anchor="start" x="567.5" y="-339.5" font-family="Helvetica,sans-Serif" font-size="10.00">+</text>
<text text-anchor="start" x="580.5" y="-339.5" font-family="Helvetica,sans-Serif" font-size="10.00">ComputeExceptVoltage()</text>
<text text-anchor="start" x="567.5" y="-324.5" font-family="Helvetica,sans-Serif" font-size="10.00">+</text>
<text text-anchor="start" x="580.5" y="-324.5" font-family="Helvetica,sans-Serif" font-size="10.00">SetVoltage()</text>
<text text-anchor="start" x="567.5" y="-309.5" font-family="Helvetica,sans-Serif" font-size="10.00">+</text>
<text text-anchor="start" x="580.5" y="-309.5" font-family="Helvetica,sans-Serif" font-size="10.00">GetVoltage()</text>
<text text-anchor="start" x="567.5" y="-294.5" font-family="Helvetica,sans-Serif" font-size="10.00">+</text>
<text text-anchor="start" x="580.5" y="-294.5" font-family="Helvetica,sans-Serif" font-size="10.00">GetNumberOfStateVariables()</text>
<text text-anchor="start" x="580.5" y="-279.5" font-family="Helvetica,sans-Serif" font-size="10.00">and 16 more...</text>
<text text-anchor="start" x="570" y="-264.5" font-family="Helvetica,sans-Serif" font-size="10.00">&#45;</text>
<text text-anchor="start" x="580.5" y="-264.5" font-family="Helvetica,sans-Serif" font-size="10.00">serialize()</text>
<text text-anchor="start" x="570" y="-249.5" font-family="Helvetica,sans-Serif" font-size="10.00">&#45;</text>
<text text-anchor="start" x="580.5" y="-249.5" font-family="Helvetica,sans-Serif" font-size="10.00">CheckForArchiveFix()</text>
<polygon fill="#666666" stroke="#666666" points="563.5,-454.5 563.5,-454.5 730.5,-454.5 730.5,-454.5 563.5,-454.5"/>
<polygon fill="#666666" stroke="#666666" points="563.5,-439.5 563.5,-439.5 730.5,-439.5 730.5,-439.5 563.5,-439.5"/>
<polygon fill="none" stroke="#666666" points="563,-243 563,-472 730,-472 730,-243 563,-243"/>
</a>
</g>
</g>
<!-- Node2&#45;&gt;Node1 -->
<g id="edge1_Node000001_Node000002" class="edge">
<title>Node2&#45;&gt;Node1</title>
<g id="a_edge1_Node000001_Node000002"><a xlink:title=" ">
<path fill="none" stroke="#63b8ff" d="M646.5,-232.8C646.5,-223.91 646.5,-215.01 646.5,-206.27"/>
<polygon fill="none" stroke="#63b8ff" points="643,-232.81 646.5,-242.81 650,-232.81 643,-232.81"/>
</a>
</g>
</g>
<!-- Node3 -->
<g id="Node000003" class="node">
<title>Node3</title>
<g id="a_Node000003"><a xlink:href="classAbstractCardiacCellInterface.html" target="_top" xlink:title=" ">
<polygon fill="white" stroke="transparent" points="735,-723 558,-723 558,-509 735,-509 735,-723"/>
<text text-anchor="start" x="577" y="-711" font-family="Helvetica,sans-Serif" font-size="10.00">AbstractCardiacCellInterface</text>
<text text-anchor="start" x="645" y="-696" font-family="Helvetica,sans-Serif" font-size="10.00"> </text>
<text text-anchor="start" x="562.5" y="-681" font-family="Helvetica,sans-Serif" font-size="10.00">+</text>
<text text-anchor="start" x="575.5" y="-681" font-family="Helvetica,sans-Serif" font-size="10.00">AbstractCardiacCellInterface()</text>
<text text-anchor="start" x="562.5" y="-666" font-family="Helvetica,sans-Serif" font-size="10.00">+</text>
<text text-anchor="start" x="575.5" y="-666" font-family="Helvetica,sans-Serif" font-size="10.00">~AbstractCardiacCellInterface()</text>
<text text-anchor="start" x="562.5" y="-651" font-family="Helvetica,sans-Serif" font-size="10.00">+</text>
<text text-anchor="start" x="575.5" y="-651" font-family="Helvetica,sans-Serif" font-size="10.00">SetTimestep()</text>
<text text-anchor="start" x="562.5" y="-636" font-family="Helvetica,sans-Serif" font-size="10.00">+</text>
<text text-anchor="start" x="575.5" y="-636" font-family="Helvetica,sans-Serif" font-size="10.00">GetNumberOfStateVariables()</text>
<text text-anchor="start" x="562.5" y="-621" font-family="Helvetica,sans-Serif" font-size="10.00">+</text>
<text text-anchor="start" x="575.5" y="-621" font-family="Helvetica,sans-Serif" font-size="10.00">GetNumberOfParameters()</text>
<text text-anchor="start" x="562.5" y="-606" font-family="Helvetica,sans-Serif" font-size="10.00">+</text>
<text text-anchor="start" x="575.5" y="-606" font-family="Helvetica,sans-Serif" font-size="10.00">GetStdVecStateVariables()</text>
<text text-anchor="start" x="562.5" y="-591" font-family="Helvetica,sans-Serif" font-size="10.00">+</text>
<text text-anchor="start" x="575.5" y="-591" font-family="Helvetica,sans-Serif" font-size="10.00">rGetStateVariableNames()</text>
<text text-anchor="start" x="562.5" y="-576" font-family="Helvetica,sans-Serif" font-size="10.00">+</text>
<text text-anchor="start" x="575.5" y="-576" font-family="Helvetica,sans-Serif" font-size="10.00">SetStateVariables()</text>
<text text-anchor="start" x="562.5" y="-561" font-family="Helvetica,sans-Serif" font-size="10.00">+</text>
<text text-anchor="start" x="575.5" y="-561" font-family="Helvetica,sans-Serif" font-size="10.00">SetStateVariable()</text>
<text text-anchor="start" x="562.5" y="-546" font-family="Helvetica,sans-Serif" font-size="10.00">+</text>
<text text-anchor="start" x="575.5" y="-546" font-family="Helvetica,sans-Serif" font-size="10.00">SetStateVariable()</text>
<text text-anchor="start" x="575.5" y="-531" font-family="Helvetica,sans-Serif" font-size="10.00">and 28 more...</text>
<text text-anchor="start" x="565" y="-516" font-family="Helvetica,sans-Serif" font-size="10.00">&#45;</text>
<text text-anchor="start" x="575.5" y="-516" font-family="Helvetica,sans-Serif" font-size="10.00">serialize()</text>
<polygon fill="#666666" stroke="#666666" points="558.5,-706 558.5,-706 735.5,-706 735.5,-706 558.5,-706"/>
<polygon fill="#666666" stroke="#666666" points="558.5,-691 558.5,-691 735.5,-691 735.5,-691 558.5,-691"/>
<polygon fill="none" stroke="#666666" points="558,-509 558,-723 735,-723 735,-509 558,-509"/>
</a>
</g>
</g>
<!-- Node3&#45;&gt;Node2 -->
<g id="edge2_Node000002_Node000003" class="edge">
<title>Node3&#45;&gt;Node2</title>
<g id="a_edge2_Node000002_Node000003"><a xlink:title=" ">
<path fill="none" stroke="#63b8ff" d="M646.5,-498.82C646.5,-489.92 646.5,-480.95 646.5,-472.07"/>
<polygon fill="none" stroke="#63b8ff" points="643,-498.82 646.5,-508.82 650,-498.82 643,-498.82"/>
</a>
</g>
</g>
<!-- Node4 -->
<g id="Node000004" class="node">
<title>Node4</title>
<g id="a_Node000004"><a xlink:href="classunsigned.html" target="_top" xlink:title=" ">
<polygon fill="white" stroke="transparent" points="521,-1822.5 466,-1822.5 466,-1773.5 521,-1773.5 521,-1822.5"/>
<text text-anchor="start" x="471.5" y="-1810" font-family="Helvetica,sans-Serif" font-size="10.00">unsigned</text>
<text text-anchor="start" x="492" y="-1795" font-family="Helvetica,sans-Serif" font-size="10.00"> </text>
<text text-anchor="start" x="492" y="-1780" font-family="Helvetica,sans-Serif" font-size="10.00"> </text>
<polygon fill="#bfbfbf" stroke="#bfbfbf" points="466.5,-1805 466.5,-1805 521.5,-1805 521.5,-1805 466.5,-1805"/>
<polygon fill="#bfbfbf" stroke="#bfbfbf" points="466.5,-1790 466.5,-1790 521.5,-1790 521.5,-1790 466.5,-1790"/>
<polygon fill="none" stroke="#bfbfbf" points="466,-1773.5 466,-1822.5 521,-1822.5 521,-1773.5 466,-1773.5"/>
</a>
</g>
</g>
<!-- Node4&#45;&gt;Node3 -->
<g id="edge3_Node000003_Node000004" class="edge">
<title>Node4&#45;&gt;Node3</title>
<g id="a_edge3_Node000003_Node000004"><a xlink:title=" ">
<path fill="none" stroke="#63b8ff" d="M521.34,-1784.65C537.22,-1776.54 556.67,-1764.72 570.5,-1750 620.05,-1697.26 646.5,-1678.37 646.5,-1606 646.5,-1606 646.5,-1606 646.5,-944.5 646.5,-875.2 646.5,-797.66 646.5,-735.43"/>
<polygon fill="none" stroke="#63b8ff" points="646.5,-735.2 642.5,-729.2 646.5,-723.2 650.5,-729.2 646.5,-735.2"/>
</a>
</g>
<text text-anchor="middle" x="689" y="-1286" font-family="Helvetica,sans-Serif" font-size="10.00" fill="grey"> #mVoltageIndex</text>
</g>
<!-- Node11 -->
<g id="Node000011" class="node">
<title>Node11</title>
<g id="a_Node000011"><a xlink:href="classAbstractUntemplatedParameterisedSystem.html" target="_top" xlink:title=" ">
<polygon fill="white" stroke="transparent" points="338,-1721 133,-1721 133,-1489 338,-1489 338,-1721"/>
<text text-anchor="start" x="148.5" y="-1709" font-family="Helvetica,sans-Serif" font-size="10.00">AbstractUntemplatedParameterised</text>
<text text-anchor="start" x="217.5" y="-1698" font-family="Helvetica,sans-Serif" font-size="10.00">System</text>
<text text-anchor="start" x="234" y="-1683" font-family="Helvetica,sans-Serif" font-size="10.00"> </text>
<text text-anchor="start" x="137.5" y="-1668" font-family="Helvetica,sans-Serif" font-size="10.00">+</text>
<text text-anchor="start" x="150.5" y="-1668" font-family="Helvetica,sans-Serif" font-size="10.00">AbstractUntemplatedParameterised</text>
<text text-anchor="start" x="150.5" y="-1657" font-family="Helvetica,sans-Serif" font-size="10.00">System()</text>
<text text-anchor="start" x="137.5" y="-1642" font-family="Helvetica,sans-Serif" font-size="10.00">+</text>
<text text-anchor="start" x="150.5" y="-1642" font-family="Helvetica,sans-Serif" font-size="10.00">~AbstractUntemplatedParameterised</text>
<text text-anchor="start" x="150.5" y="-1631" font-family="Helvetica,sans-Serif" font-size="10.00">System()</text>
<text text-anchor="start" x="137.5" y="-1616" font-family="Helvetica,sans-Serif" font-size="10.00">+</text>
<text text-anchor="start" x="150.5" y="-1616" font-family="Helvetica,sans-Serif" font-size="10.00">GetSystemInformation()</text>
<text text-anchor="start" x="137.5" y="-1601" font-family="Helvetica,sans-Serif" font-size="10.00">+</text>
<text text-anchor="start" x="150.5" y="-1601" font-family="Helvetica,sans-Serif" font-size="10.00">GetSystemName()</text>
<text text-anchor="start" x="137.5" y="-1586" font-family="Helvetica,sans-Serif" font-size="10.00">+</text>
<text text-anchor="start" x="150.5" y="-1586" font-family="Helvetica,sans-Serif" font-size="10.00">GetNumberOfAttributes()</text>
<text text-anchor="start" x="137.5" y="-1571" font-family="Helvetica,sans-Serif" font-size="10.00">+</text>
<text text-anchor="start" x="150.5" y="-1571" font-family="Helvetica,sans-Serif" font-size="10.00">HasAttribute()</text>
<text text-anchor="start" x="137.5" y="-1556" font-family="Helvetica,sans-Serif" font-size="10.00">+</text>
<text text-anchor="start" x="150.5" y="-1556" font-family="Helvetica,sans-Serif" font-size="10.00">GetAttribute()</text>
<text text-anchor="start" x="137.5" y="-1541" font-family="Helvetica,sans-Serif" font-size="10.00">+</text>
<text text-anchor="start" x="150.5" y="-1541" font-family="Helvetica,sans-Serif" font-size="10.00">GetNumberOfStateVariables()</text>
<text text-anchor="start" x="137.5" y="-1526" font-family="Helvetica,sans-Serif" font-size="10.00">+</text>
<text text-anchor="start" x="150.5" y="-1526" font-family="Helvetica,sans-Serif" font-size="10.00">rGetStateVariableNames()</text>
<text text-anchor="start" x="137.5" y="-1511" font-family="Helvetica,sans-Serif" font-size="10.00">+</text>
<text text-anchor="start" x="150.5" y="-1511" font-family="Helvetica,sans-Serif" font-size="10.00">rGetStateVariableUnits()</text>
<text text-anchor="start" x="150.5" y="-1496" font-family="Helvetica,sans-Serif" font-size="10.00">and 20 more...</text>
<polygon fill="#666666" stroke="#666666" points="133.5,-1693 133.5,-1693 338.5,-1693 338.5,-1693 133.5,-1693"/>
<polygon fill="#666666" stroke="#666666" points="133.5,-1678 133.5,-1678 338.5,-1678 338.5,-1678 133.5,-1678"/>
<polygon fill="none" stroke="#666666" points="133,-1489 133,-1721 338,-1721 338,-1489 133,-1489"/>
</a>
</g>
</g>
<!-- Node4&#45;&gt;Node11 -->
<g id="edge11_Node000011_Node000004" class="edge">
<title>Node4&#45;&gt;Node11</title>
<g id="a_edge11_Node000011_Node000004"><a xlink:title=" ">
<path fill="none" stroke="#63b8ff" d="M465.89,-1776.56C437.49,-1755.53 391.38,-1721.4 347.84,-1689.17"/>
<polygon fill="none" stroke="#63b8ff" points="347.66,-1689.03 340.46,-1688.68 338.01,-1681.89 345.22,-1682.25 347.66,-1689.03"/>
</a>
</g>
<text text-anchor="middle" x="495.5" y="-1742" font-family="Helvetica,sans-Serif" font-size="10.00" fill="grey"> #mNumberOfStateVariables</text>
</g>
<!-- Node5 -->
<g id="Node000005" class="node">
<title>Node5</title>
<g id="a_Node000005"><a xlink:title=" ">
<polygon fill="white" stroke="transparent" points="823,-975.5 674,-975.5 674,-915.5 823,-915.5 823,-975.5"/>
<text text-anchor="start" x="679.5" y="-963.5" font-family="Helvetica,sans-Serif" font-size="10.00">shared_ptr&lt; AbstractIvpOde</text>
<text text-anchor="start" x="727.5" y="-952.5" font-family="Helvetica,sans-Serif" font-size="10.00">Solver &gt;</text>
<text text-anchor="start" x="747" y="-937.5" font-family="Helvetica,sans-Serif" font-size="10.00"> </text>
<text text-anchor="start" x="747" y="-922.5" font-family="Helvetica,sans-Serif" font-size="10.00"> </text>
<polygon fill="#bfbfbf" stroke="#bfbfbf" points="674.5,-947.5 674.5,-947.5 823.5,-947.5 823.5,-947.5 674.5,-947.5"/>
<polygon fill="#bfbfbf" stroke="#bfbfbf" points="674.5,-932.5 674.5,-932.5 823.5,-932.5 823.5,-932.5 674.5,-932.5"/>
<polygon fill="none" stroke="#bfbfbf" points="674,-915.5 674,-975.5 823,-975.5 823,-915.5 674,-915.5"/>
</a>
</g>
</g>
<!-- Node5&#45;&gt;Node3 -->
<g id="edge4_Node000003_Node000005" class="edge">
<title>Node5&#45;&gt;Node3</title>
<g id="a_edge4_Node000003_Node000005"><a xlink:title=" ">
<path fill="none" stroke="#63b8ff" d="M734,-915.49C718.79,-884.03 695.11,-832 680.5,-785 675.56,-769.11 671.16,-752.14 667.29,-735.33"/>
<polygon fill="none" stroke="#63b8ff" points="667.18,-734.84 661.97,-729.86 664.57,-723.13 669.78,-728.12 667.18,-734.84"/>
</a>
</g>
<text text-anchor="middle" x="719.5" y="-760.5" font-family="Helvetica,sans-Serif" font-size="10.00" fill="grey"> #mpOdeSolver</text>
</g>
<!-- Node6 -->
<g id="Node000006" class="node">
<title>Node6</title>
<g id="a_Node000006"><a xlink:title=" ">
<polygon fill="white" stroke="transparent" points="581,-975.5 424,-975.5 424,-915.5 581,-915.5 581,-975.5"/>
<text text-anchor="start" x="429.5" y="-963.5" font-family="Helvetica,sans-Serif" font-size="10.00">shared_ptr&lt; AbstractStimulus</text>
<text text-anchor="start" x="476.5" y="-952.5" font-family="Helvetica,sans-Serif" font-size="10.00">Function &gt;</text>
<text text-anchor="start" x="501" y="-937.5" font-family="Helvetica,sans-Serif" font-size="10.00"> </text>
<text text-anchor="start" x="501" y="-922.5" font-family="Helvetica,sans-Serif" font-size="10.00"> </text>
<polygon fill="#bfbfbf" stroke="#bfbfbf" points="424.5,-947.5 424.5,-947.5 581.5,-947.5 581.5,-947.5 424.5,-947.5"/>
<polygon fill="#bfbfbf" stroke="#bfbfbf" points="424.5,-932.5 424.5,-932.5 581.5,-932.5 581.5,-932.5 424.5,-932.5"/>
<polygon fill="none" stroke="#bfbfbf" points="424,-915.5 424,-975.5 581,-975.5 581,-915.5 424,-915.5"/>
</a>
</g>
</g>
<!-- Node6&#45;&gt;Node3 -->
<g id="edge5_Node000003_Node000006" class="edge">
<title>Node6&#45;&gt;Node3</title>
<g id="a_edge5_Node000003_Node000006"><a xlink:title=" ">
<path fill="none" stroke="#63b8ff" d="M495.41,-915.25C487.02,-874.21 477.25,-798.15 503.5,-741 513.82,-718.55 530.41,-698.59 548.7,-681.59"/>
<polygon fill="none" stroke="#63b8ff" points="548.84,-681.47 550.66,-674.49 557.8,-673.49 555.98,-680.46 548.84,-681.47"/>
</a>
</g>
<text text-anchor="middle" x="568" y="-760.5" font-family="Helvetica,sans-Serif" font-size="10.00" fill="grey"> #mpIntracellularStimulus</text>
</g>
<!-- Node7 -->
<g id="Node000007" class="node">
<title>Node7</title>
<g id="a_Node000007"><a xlink:href="classbool.html" target="_top" xlink:title=" ">
<polygon fill="white" stroke="transparent" points="313.5,-970 281.5,-970 281.5,-921 313.5,-921 313.5,-970"/>
<text text-anchor="start" x="286.5" y="-957.5" font-family="Helvetica,sans-Serif" font-size="10.00">bool</text>
<text text-anchor="start" x="295.5" y="-942.5" font-family="Helvetica,sans-Serif" font-size="10.00"> </text>
<text text-anchor="start" x="295.5" y="-927.5" font-family="Helvetica,sans-Serif" font-size="10.00"> </text>
<polygon fill="#bfbfbf" stroke="#bfbfbf" points="281.5,-952.5 281.5,-952.5 313.5,-952.5 313.5,-952.5 281.5,-952.5"/>
<polygon fill="#bfbfbf" stroke="#bfbfbf" points="281.5,-937.5 281.5,-937.5 313.5,-937.5 313.5,-937.5 281.5,-937.5"/>
<polygon fill="none" stroke="#bfbfbf" points="281.5,-921 281.5,-970 313.5,-970 313.5,-921 281.5,-921"/>
</a>
</g>
</g>
<!-- Node7&#45;&gt;Node3 -->
<g id="edge6_Node000003_Node000007" class="edge">
<title>Node7&#45;&gt;Node3</title>
<g id="a_edge6_Node000003_Node000007"><a xlink:title=" ">
<path fill="none" stroke="#63b8ff" d="M294.66,-920.78C291.05,-879.44 289.76,-793.58 332.5,-741 384.83,-676.62 475.3,-645.52 545.73,-630.59"/>
<polygon fill="none" stroke="#63b8ff" points="545.98,-630.54 551.07,-625.42 557.74,-628.15 552.65,-633.26 545.98,-630.54"/>
</a>
</g>
<text text-anchor="start" x="332.5" y="-777" font-family="Helvetica,sans-Serif" font-size="10.00" fill="grey"> #mHasDefaultStimulusFrom</text>
<text text-anchor="middle" x="410" y="-766" font-family="Helvetica,sans-Serif" font-size="10.00" fill="grey">CellML</text>
<text text-anchor="middle" x="410" y="-755" font-family="Helvetica,sans-Serif" font-size="10.00" fill="grey">#mIsUsedInTissue</text>
<text text-anchor="middle" x="410" y="-744" font-family="Helvetica,sans-Serif" font-size="10.00" fill="grey">#mSetVoltageDerivativeToZero</text>
</g>
<!-- Node9 -->
<g id="Node000009" class="node">
<title>Node9</title>
<g id="a_Node000009"><a xlink:href="classAbstractOdeSystem.html" target="_top" xlink:title=" ">
<polygon fill="white" stroke="transparent" points="254.5,-700.5 106.5,-700.5 106.5,-531.5 254.5,-531.5 254.5,-700.5"/>
<text text-anchor="start" x="132" y="-688" font-family="Helvetica,sans-Serif" font-size="10.00">AbstractOdeSystem</text>
<text text-anchor="start" x="178.5" y="-673" font-family="Helvetica,sans-Serif" font-size="10.00"> </text>
<text text-anchor="start" x="110.5" y="-658" font-family="Helvetica,sans-Serif" font-size="10.00">+</text>
<text text-anchor="start" x="123.5" y="-658" font-family="Helvetica,sans-Serif" font-size="10.00">AbstractOdeSystem()</text>
<text text-anchor="start" x="110.5" y="-643" font-family="Helvetica,sans-Serif" font-size="10.00">+</text>
<text text-anchor="start" x="123.5" y="-643" font-family="Helvetica,sans-Serif" font-size="10.00">~AbstractOdeSystem()</text>
<text text-anchor="start" x="110.5" y="-628" font-family="Helvetica,sans-Serif" font-size="10.00">+</text>
<text text-anchor="start" x="123.5" y="-628" font-family="Helvetica,sans-Serif" font-size="10.00">EvaluateYDerivatives()</text>
<text text-anchor="start" x="110.5" y="-613" font-family="Helvetica,sans-Serif" font-size="10.00">+</text>
<text text-anchor="start" x="123.5" y="-613" font-family="Helvetica,sans-Serif" font-size="10.00">CalculateStoppingEvent()</text>
<text text-anchor="start" x="110.5" y="-598" font-family="Helvetica,sans-Serif" font-size="10.00">+</text>
<text text-anchor="start" x="123.5" y="-598" font-family="Helvetica,sans-Serif" font-size="10.00">CalculateRootFunction()</text>
<text text-anchor="start" x="110.5" y="-583" font-family="Helvetica,sans-Serif" font-size="10.00">+</text>
<text text-anchor="start" x="123.5" y="-583" font-family="Helvetica,sans-Serif" font-size="10.00">GetUseAnalyticJacobian()</text>
<text text-anchor="start" x="110.5" y="-568" font-family="Helvetica,sans-Serif" font-size="10.00">+</text>
<text text-anchor="start" x="123.5" y="-568" font-family="Helvetica,sans-Serif" font-size="10.00">rGetConstStateVariables()</text>
<text text-anchor="start" x="113" y="-553" font-family="Helvetica,sans-Serif" font-size="10.00">&#45;</text>
<text text-anchor="start" x="123.5" y="-553" font-family="Helvetica,sans-Serif" font-size="10.00">save()</text>
<text text-anchor="start" x="113" y="-538" font-family="Helvetica,sans-Serif" font-size="10.00">&#45;</text>
<text text-anchor="start" x="123.5" y="-538" font-family="Helvetica,sans-Serif" font-size="10.00">load()</text>
<polygon fill="#666666" stroke="#666666" points="106.5,-683 106.5,-683 254.5,-683 254.5,-683 106.5,-683"/>
<polygon fill="#666666" stroke="#666666" points="106.5,-668 106.5,-668 254.5,-668 254.5,-668 106.5,-668"/>
<polygon fill="none" stroke="#666666" points="106.5,-531.5 106.5,-700.5 254.5,-700.5 254.5,-531.5 106.5,-531.5"/>
</a>
</g>
</g>
<!-- Node7&#45;&gt;Node9 -->
<g id="edge17_Node000009_Node000007" class="edge">
<title>Node7&#45;&gt;Node9</title>
<g id="a_edge17_Node000009_Node000007"><a xlink:title=" ">
<path fill="none" stroke="#63b8ff" d="M297.93,-920.79C297.14,-889.31 290.83,-834.08 258.5,-803 233.17,-778.64 203.42,-812.47 181.5,-785 165.4,-764.83 160.31,-738.53 160.54,-712.75"/>
<polygon fill="none" stroke="#63b8ff" points="160.55,-712.56 156.8,-706.4 161.03,-700.57 164.79,-706.72 160.55,-712.56"/>
</a>
</g>
<text text-anchor="middle" x="242" y="-760.5" font-family="Helvetica,sans-Serif" font-size="10.00" fill="grey"> #mUseAnalyticJacobian</text>
</g>
<!-- Node8 -->
<g id="Node000008" class="node">
<title>Node8</title>
<g id="a_Node000008"><a xlink:href="classdouble.html" target="_top" xlink:title=" ">
<polygon fill="white" stroke="transparent" points="892.5,-970 848.5,-970 848.5,-921 892.5,-921 892.5,-970"/>
<text text-anchor="start" x="853.5" y="-957.5" font-family="Helvetica,sans-Serif" font-size="10.00">double</text>
<text text-anchor="start" x="868.5" y="-942.5" font-family="Helvetica,sans-Serif" font-size="10.00"> </text>
<text text-anchor="start" x="868.5" y="-927.5" font-family="Helvetica,sans-Serif" font-size="10.00"> </text>
<polygon fill="#bfbfbf" stroke="#bfbfbf" points="848.5,-952.5 848.5,-952.5 892.5,-952.5 892.5,-952.5 848.5,-952.5"/>
<polygon fill="#bfbfbf" stroke="#bfbfbf" points="848.5,-937.5 848.5,-937.5 892.5,-937.5 892.5,-937.5 848.5,-937.5"/>
<polygon fill="none" stroke="#bfbfbf" points="848.5,-921 848.5,-970 892.5,-970 892.5,-921 848.5,-921"/>
</a>
</g>
</g>
<!-- Node8&#45;&gt;Node2 -->
<g id="edge18_Node000002_Node000008" class="edge">
<title>Node8&#45;&gt;Node2</title>
<g id="a_edge18_Node000002_Node000008"><a xlink:title=" ">
<path fill="none" stroke="#63b8ff" d="M873.36,-920.82C877.24,-882.37 881.95,-804.28 865.5,-741 840.77,-645.87 785.71,-549.9 737,-477.88"/>
<polygon fill="none" stroke="#63b8ff" points="736.93,-477.79 730.25,-475.09 730.17,-467.88 736.85,-470.58 736.93,-477.79"/>
</a>
</g>
<text text-anchor="middle" x="876" y="-613.5" font-family="Helvetica,sans-Serif" font-size="10.00" fill="grey"> #mDt</text>
</g>
<!-- Node8&#45;&gt;Node3 -->
<g id="edge7_Node000003_Node000008" class="edge">
<title>Node8&#45;&gt;Node3</title>
<g id="a_edge7_Node000003_Node000008"><a xlink:title=" ">
<path fill="none" stroke="#63b8ff" d="M870.58,-920.78C869.4,-889.79 862.74,-835.66 832.5,-803 816.17,-785.36 799.66,-800.74 781.5,-785 764.83,-770.55 771.11,-759.11 758.5,-741 753.6,-733.96 748.34,-726.9 742.86,-719.9"/>
<polygon fill="none" stroke="#63b8ff" points="742.78,-719.79 735.9,-717.6 735.28,-710.42 742.15,-712.61 742.78,-719.79"/>
</a>
</g>
<text text-anchor="middle" x="823.5" y="-760.5" font-family="Helvetica,sans-Serif" font-size="10.00" fill="grey"> #mFixedVoltage</text>
</g>
<!-- Node9&#45;&gt;Node2 -->
<g id="edge8_Node000002_Node000009" class="edge">
<title>Node9&#45;&gt;Node2</title>
<g id="a_edge8_Node000002_Node000009"><a xlink:title=" ">
<path fill="none" stroke="#63b8ff" d="M263.39,-569.38C347.85,-522.89 478.14,-451.17 562.87,-404.53"/>
<polygon fill="none" stroke="#63b8ff" points="261.67,-566.33 254.6,-574.22 265.04,-572.46 261.67,-566.33"/>
</a>
</g>
</g>
<!-- Node10 -->
<g id="Node000010" class="node">
<title>Node10</title>
<g id="a_Node000010"><a xlink:href="classAbstractParameterisedSystem.html" target="_top" xlink:title=" ">
<polygon fill="white" stroke="transparent" points="250,-1088 73,-1088 73,-803 250,-803 250,-1088"/>
<text text-anchor="start" x="88" y="-1075.5" font-family="Helvetica,sans-Serif" font-size="10.00">AbstractParameterisedSystem</text>
<text text-anchor="start" x="97" y="-1064.5" font-family="Helvetica,sans-Serif" font-size="10.00">&lt; std::vector&lt; double &gt; &gt;</text>
<text text-anchor="start" x="160" y="-1049.5" font-family="Helvetica,sans-Serif" font-size="10.00"> </text>
<text text-anchor="start" x="77.5" y="-1034.5" font-family="Helvetica,sans-Serif" font-size="10.00">+</text>
<text text-anchor="start" x="90.5" y="-1034.5" font-family="Helvetica,sans-Serif" font-size="10.00">AbstractParameterisedSystem()</text>
<text text-anchor="start" x="77.5" y="-1019.5" font-family="Helvetica,sans-Serif" font-size="10.00">+</text>
<text text-anchor="start" x="90.5" y="-1019.5" font-family="Helvetica,sans-Serif" font-size="10.00">rGetStateVariables()</text>
<text text-anchor="start" x="77.5" y="-1004.5" font-family="Helvetica,sans-Serif" font-size="10.00">+</text>
<text text-anchor="start" x="90.5" y="-1004.5" font-family="Helvetica,sans-Serif" font-size="10.00">GetStateVariables()</text>
<text text-anchor="start" x="77.5" y="-989.5" font-family="Helvetica,sans-Serif" font-size="10.00">+</text>
<text text-anchor="start" x="90.5" y="-989.5" font-family="Helvetica,sans-Serif" font-size="10.00">SetStateVariables()</text>
<text text-anchor="start" x="77.5" y="-974.5" font-family="Helvetica,sans-Serif" font-size="10.00">+</text>
<text text-anchor="start" x="90.5" y="-974.5" font-family="Helvetica,sans-Serif" font-size="10.00">GetStateVariable()</text>
<text text-anchor="start" x="77.5" y="-959.5" font-family="Helvetica,sans-Serif" font-size="10.00">+</text>
<text text-anchor="start" x="90.5" y="-959.5" font-family="Helvetica,sans-Serif" font-size="10.00">GetStateVariable()</text>
<text text-anchor="start" x="77.5" y="-944.5" font-family="Helvetica,sans-Serif" font-size="10.00">+</text>
<text text-anchor="start" x="90.5" y="-944.5" font-family="Helvetica,sans-Serif" font-size="10.00">SetStateVariable()</text>
<text text-anchor="start" x="77.5" y="-929.5" font-family="Helvetica,sans-Serif" font-size="10.00">+</text>
<text text-anchor="start" x="90.5" y="-929.5" font-family="Helvetica,sans-Serif" font-size="10.00">SetStateVariable()</text>
<text text-anchor="start" x="77.5" y="-914.5" font-family="Helvetica,sans-Serif" font-size="10.00">+</text>
<text text-anchor="start" x="90.5" y="-914.5" font-family="Helvetica,sans-Serif" font-size="10.00">VerifyStateVariables()</text>
<text text-anchor="start" x="77.5" y="-899.5" font-family="Helvetica,sans-Serif" font-size="10.00">+</text>
<text text-anchor="start" x="90.5" y="-899.5" font-family="Helvetica,sans-Serif" font-size="10.00">SetDefaultInitialConditions()</text>
<text text-anchor="start" x="90.5" y="-884.5" font-family="Helvetica,sans-Serif" font-size="10.00">and 13 more...</text>
<text text-anchor="start" x="77.5" y="-869.5" font-family="Helvetica,sans-Serif" font-size="10.00">#</text>
<text text-anchor="start" x="90.5" y="-869.5" font-family="Helvetica,sans-Serif" font-size="10.00">DumpState()</text>
<text text-anchor="start" x="77.5" y="-854.5" font-family="Helvetica,sans-Serif" font-size="10.00">#</text>
<text text-anchor="start" x="90.5" y="-854.5" font-family="Helvetica,sans-Serif" font-size="10.00">DumpState()</text>
<text text-anchor="start" x="77.5" y="-839.5" font-family="Helvetica,sans-Serif" font-size="10.00">#</text>
<text text-anchor="start" x="90.5" y="-839.5" font-family="Helvetica,sans-Serif" font-size="10.00">DumpState()</text>
<text text-anchor="start" x="77.5" y="-824.5" font-family="Helvetica,sans-Serif" font-size="10.00">#</text>
<text text-anchor="start" x="90.5" y="-824.5" font-family="Helvetica,sans-Serif" font-size="10.00">CheckParametersOnLoad()</text>
<text text-anchor="start" x="80" y="-809.5" font-family="Helvetica,sans-Serif" font-size="10.00">&#45;</text>
<text text-anchor="start" x="90.5" y="-809.5" font-family="Helvetica,sans-Serif" font-size="10.00">GetStateMessage()</text>
<polygon fill="#666666" stroke="#666666" points="73.5,-1059.5 73.5,-1059.5 250.5,-1059.5 250.5,-1059.5 73.5,-1059.5"/>
<polygon fill="#666666" stroke="#666666" points="73.5,-1044.5 73.5,-1044.5 250.5,-1044.5 250.5,-1044.5 73.5,-1044.5"/>
<polygon fill="none" stroke="#666666" points="73,-803 73,-1088 250,-1088 250,-803 73,-803"/>
</a>
</g>
</g>
<!-- Node10&#45;&gt;Node9 -->
<g id="edge9_Node000009_Node000010" class="edge">
<title>Node10&#45;&gt;Node9</title>
<g id="a_edge9_Node000009_Node000010"><a xlink:title=" ">
<path fill="none" stroke="#63b8ff" d="M158.97,-792.65C159.43,-775.22 160.23,-757.71 161.5,-741 162.5,-727.86 164.09,-714.01 165.93,-700.51"/>
<polygon fill="none" stroke="#63b8ff" points="155.46,-792.82 158.73,-802.9 162.46,-792.98 155.46,-792.82"/>
</a>
</g>
</g>
<!-- Node11&#45;&gt;Node10 -->
<g id="edge10_Node000010_Node000011" class="edge">
<title>Node11&#45;&gt;Node10</title>
<g id="a_edge10_Node000010_Node000011"><a xlink:title=" ">
<path fill="none" stroke="#63b8ff" d="M243.35,-1478.54C246.99,-1377.07 246.06,-1231.03 221.5,-1106 220.36,-1100.19 219.03,-1094.32 217.55,-1088.43"/>
<polygon fill="none" stroke="#63b8ff" points="239.84,-1478.71 242.96,-1488.83 246.84,-1478.97 239.84,-1478.71"/>
</a>
</g>
</g>
<!-- Node14 -->
<g id="Node000014" class="node">
<title>Node14</title>
<g id="a_Node000014"><a xlink:href="classAbstractParameterisedSystem.html" target="_top" xlink:title=" ">
<polygon fill="white" stroke="transparent" points="177,-1431 0,-1431 0,-1146 177,-1146 177,-1431"/>
<text text-anchor="start" x="15" y="-1418.5" font-family="Helvetica,sans-Serif" font-size="10.00">AbstractParameterisedSystem</text>
<text text-anchor="start" x="57.5" y="-1407.5" font-family="Helvetica,sans-Serif" font-size="10.00">&lt; VECTOR &gt;</text>
<text text-anchor="start" x="87" y="-1392.5" font-family="Helvetica,sans-Serif" font-size="10.00"> </text>
<text text-anchor="start" x="4.5" y="-1377.5" font-family="Helvetica,sans-Serif" font-size="10.00">+</text>
<text text-anchor="start" x="17.5" y="-1377.5" font-family="Helvetica,sans-Serif" font-size="10.00">AbstractParameterisedSystem()</text>
<text text-anchor="start" x="4.5" y="-1362.5" font-family="Helvetica,sans-Serif" font-size="10.00">+</text>
<text text-anchor="start" x="17.5" y="-1362.5" font-family="Helvetica,sans-Serif" font-size="10.00">rGetStateVariables()</text>
<text text-anchor="start" x="4.5" y="-1347.5" font-family="Helvetica,sans-Serif" font-size="10.00">+</text>
<text text-anchor="start" x="17.5" y="-1347.5" font-family="Helvetica,sans-Serif" font-size="10.00">GetStateVariables()</text>
<text text-anchor="start" x="4.5" y="-1332.5" font-family="Helvetica,sans-Serif" font-size="10.00">+</text>
<text text-anchor="start" x="17.5" y="-1332.5" font-family="Helvetica,sans-Serif" font-size="10.00">SetStateVariables()</text>
<text text-anchor="start" x="4.5" y="-1317.5" font-family="Helvetica,sans-Serif" font-size="10.00">+</text>
<text text-anchor="start" x="17.5" y="-1317.5" font-family="Helvetica,sans-Serif" font-size="10.00">GetStateVariable()</text>
<text text-anchor="start" x="4.5" y="-1302.5" font-family="Helvetica,sans-Serif" font-size="10.00">+</text>
<text text-anchor="start" x="17.5" y="-1302.5" font-family="Helvetica,sans-Serif" font-size="10.00">GetStateVariable()</text>
<text text-anchor="start" x="4.5" y="-1287.5" font-family="Helvetica,sans-Serif" font-size="10.00">+</text>
<text text-anchor="start" x="17.5" y="-1287.5" font-family="Helvetica,sans-Serif" font-size="10.00">SetStateVariable()</text>
<text text-anchor="start" x="4.5" y="-1272.5" font-family="Helvetica,sans-Serif" font-size="10.00">+</text>
<text text-anchor="start" x="17.5" y="-1272.5" font-family="Helvetica,sans-Serif" font-size="10.00">SetStateVariable()</text>
<text text-anchor="start" x="4.5" y="-1257.5" font-family="Helvetica,sans-Serif" font-size="10.00">+</text>
<text text-anchor="start" x="17.5" y="-1257.5" font-family="Helvetica,sans-Serif" font-size="10.00">VerifyStateVariables()</text>
<text text-anchor="start" x="4.5" y="-1242.5" font-family="Helvetica,sans-Serif" font-size="10.00">+</text>
<text text-anchor="start" x="17.5" y="-1242.5" font-family="Helvetica,sans-Serif" font-size="10.00">SetDefaultInitialConditions()</text>
<text text-anchor="start" x="17.5" y="-1227.5" font-family="Helvetica,sans-Serif" font-size="10.00">and 13 more...</text>
<text text-anchor="start" x="4.5" y="-1212.5" font-family="Helvetica,sans-Serif" font-size="10.00">#</text>
<text text-anchor="start" x="17.5" y="-1212.5" font-family="Helvetica,sans-Serif" font-size="10.00">DumpState()</text>
<text text-anchor="start" x="4.5" y="-1197.5" font-family="Helvetica,sans-Serif" font-size="10.00">#</text>
<text text-anchor="start" x="17.5" y="-1197.5" font-family="Helvetica,sans-Serif" font-size="10.00">DumpState()</text>
<text text-anchor="start" x="4.5" y="-1182.5" font-family="Helvetica,sans-Serif" font-size="10.00">#</text>
<text text-anchor="start" x="17.5" y="-1182.5" font-family="Helvetica,sans-Serif" font-size="10.00">DumpState()</text>
<text text-anchor="start" x="4.5" y="-1167.5" font-family="Helvetica,sans-Serif" font-size="10.00">#</text>
<text text-anchor="start" x="17.5" y="-1167.5" font-family="Helvetica,sans-Serif" font-size="10.00">CheckParametersOnLoad()</text>
<text text-anchor="start" x="7" y="-1152.5" font-family="Helvetica,sans-Serif" font-size="10.00">&#45;</text>
<text text-anchor="start" x="17.5" y="-1152.5" font-family="Helvetica,sans-Serif" font-size="10.00">GetStateMessage()</text>
<polygon fill="#666666" stroke="#666666" points="0.5,-1402.5 0.5,-1402.5 177.5,-1402.5 177.5,-1402.5 0.5,-1402.5"/>
<polygon fill="#666666" stroke="#666666" points="0.5,-1387.5 0.5,-1387.5 177.5,-1387.5 177.5,-1387.5 0.5,-1387.5"/>
<polygon fill="none" stroke="#666666" points="0,-1146 0,-1431 177,-1431 177,-1146 0,-1146"/>
</a>
</g>
</g>
<!-- Node11&#45;&gt;Node14 -->
<g id="edge15_Node000014_Node000011" class="edge">
<title>Node11&#45;&gt;Node14</title>
<g id="a_edge15_Node000014_Node000011"><a xlink:title=" ">
<path fill="none" stroke="#63b8ff" d="M194.41,-1479.23C190.29,-1468.9 185.97,-1458.71 181.5,-1449 178.82,-1443.18 175.99,-1437.29 173.05,-1431.39"/>
<polygon fill="none" stroke="#63b8ff" points="191.23,-1480.7 198.13,-1488.74 197.75,-1478.15 191.23,-1480.7"/>
</a>
</g>
</g>
<!-- Node12 -->
<g id="Node000012" class="node">
<title>Node12</title>
<g id="a_Node000012"><a xlink:title=" ">
<polygon fill="white" stroke="transparent" points="320.5,-1828 150.5,-1828 150.5,-1768 320.5,-1768 320.5,-1828"/>
<text text-anchor="start" x="155.5" y="-1816" font-family="Helvetica,sans-Serif" font-size="10.00">shared_ptr&lt; AbstractOdeSystem</text>
<text text-anchor="start" x="201" y="-1805" font-family="Helvetica,sans-Serif" font-size="10.00">Information &gt;</text>
<text text-anchor="start" x="233.5" y="-1790" font-family="Helvetica,sans-Serif" font-size="10.00"> </text>
<text text-anchor="start" x="233.5" y="-1775" font-family="Helvetica,sans-Serif" font-size="10.00"> </text>
<polygon fill="#bfbfbf" stroke="#bfbfbf" points="150.5,-1800 150.5,-1800 320.5,-1800 320.5,-1800 150.5,-1800"/>
<polygon fill="#bfbfbf" stroke="#bfbfbf" points="150.5,-1785 150.5,-1785 320.5,-1785 320.5,-1785 150.5,-1785"/>
<polygon fill="none" stroke="#bfbfbf" points="150.5,-1768 150.5,-1828 320.5,-1828 320.5,-1768 150.5,-1768"/>
</a>
</g>
</g>
<!-- Node12&#45;&gt;Node11 -->
<g id="edge12_Node000011_Node000012" class="edge">
<title>Node12&#45;&gt;Node11</title>
<g id="a_edge12_Node000011_Node000012"><a xlink:title=" ">
<path fill="none" stroke="#63b8ff" d="M235.5,-1767.99C235.5,-1758.11 235.5,-1746.33 235.5,-1733.71"/>
<polygon fill="none" stroke="#63b8ff" points="235.5,-1733.38 231.5,-1727.38 235.5,-1721.38 239.5,-1727.38 235.5,-1733.38"/>
</a>
</g>
<text text-anchor="middle" x="277" y="-1742" font-family="Helvetica,sans-Serif" font-size="10.00" fill="grey"> #mpSystemInfo</text>
</g>
<!-- Node13 -->
<g id="Node000013" class="node">
<title>Node13</title>
<g id="a_Node000013"><a xlink:title=" ">
<polygon fill="white" stroke="transparent" points="361,-1313 264,-1313 264,-1264 361,-1264 361,-1313"/>
<text text-anchor="start" x="269.5" y="-1300.5" font-family="Helvetica,sans-Serif" font-size="10.00">vector&lt; double &gt;</text>
<text text-anchor="start" x="311" y="-1285.5" font-family="Helvetica,sans-Serif" font-size="10.00"> </text>
<text text-anchor="start" x="311" y="-1270.5" font-family="Helvetica,sans-Serif" font-size="10.00"> </text>
<polygon fill="#bfbfbf" stroke="#bfbfbf" points="264.5,-1295.5 264.5,-1295.5 361.5,-1295.5 361.5,-1295.5 264.5,-1295.5"/>
<polygon fill="#bfbfbf" stroke="#bfbfbf" points="264.5,-1280.5 264.5,-1280.5 361.5,-1280.5 361.5,-1280.5 264.5,-1280.5"/>
<polygon fill="none" stroke="#bfbfbf" points="264,-1264 264,-1313 361,-1313 361,-1264 264,-1264"/>
</a>
</g>
</g>
<!-- Node13&#45;&gt;Node10 -->
<g id="edge13_Node000010_Node000013" class="edge">
<title>Node13&#45;&gt;Node10</title>
<g id="a_edge13_Node000010_Node000013"><a xlink:title=" ">
<path fill="none" stroke="#63b8ff" d="M305.69,-1263.8C295.27,-1228.67 274,-1160.99 249.5,-1106 248.47,-1103.69 247.42,-1101.36 246.35,-1099.03"/>
<polygon fill="none" stroke="#63b8ff" points="246.3,-1098.92 240.13,-1095.19 241.2,-1088.06 247.37,-1091.79 246.3,-1098.92"/>
</a>
</g>
<text text-anchor="middle" x="303" y="-1120" font-family="Helvetica,sans-Serif" font-size="10.00" fill="grey"> #mParameters</text>
<text text-anchor="middle" x="303" y="-1109" font-family="Helvetica,sans-Serif" font-size="10.00" fill="grey">#mStateVariables</text>
</g>
<!-- Node14&#45;&gt;Node10 -->
<g id="edge14_Node000010_Node000014" class="edge">
<title>Node14&#45;&gt;Node10</title>
<g id="a_edge14_Node000010_Node000014"><a xlink:title=" ">
<path fill="none" stroke="orange" d="M83.66,-1135.58C84.83,-1125.52 86.41,-1115.58 88.5,-1106 89.8,-1100.05 91.34,-1094.05 93.07,-1088.06"/>
<polygon fill="orange" stroke="orange" points="80.17,-1135.37 82.63,-1145.67 87.13,-1136.08 80.17,-1135.37"/>
</a>
</g>
<text text-anchor="middle" x="155" y="-1114.5" font-family="Helvetica,sans-Serif" font-size="10.00" fill="grey"> &lt; std::vector&lt; double &gt; &gt;</text>
</g>
<!-- Node15 -->
<g id="Node000015" class="node">
<title>Node15</title>
<g id="a_Node000015"><a xlink:title=" ">
<polygon fill="white" stroke="transparent" points="113.5,-1629.5 63.5,-1629.5 63.5,-1580.5 113.5,-1580.5 113.5,-1629.5"/>
<text text-anchor="start" x="68.5" y="-1617" font-family="Helvetica,sans-Serif" font-size="10.00">VECTOR</text>
<text text-anchor="start" x="86.5" y="-1602" font-family="Helvetica,sans-Serif" font-size="10.00"> </text>
<text text-anchor="start" x="86.5" y="-1587" font-family="Helvetica,sans-Serif" font-size="10.00"> </text>
<polygon fill="#bfbfbf" stroke="#bfbfbf" points="63.5,-1612 63.5,-1612 113.5,-1612 113.5,-1612 63.5,-1612"/>
<polygon fill="#bfbfbf" stroke="#bfbfbf" points="63.5,-1597 63.5,-1597 113.5,-1597 113.5,-1597 63.5,-1597"/>
<polygon fill="none" stroke="#bfbfbf" points="63.5,-1580.5 63.5,-1629.5 113.5,-1629.5 113.5,-1580.5 63.5,-1580.5"/>
</a>
</g>
</g>
<!-- Node15&#45;&gt;Node14 -->
<g id="edge16_Node000014_Node000015" class="edge">
<title>Node15&#45;&gt;Node14</title>
<g id="a_edge16_Node000014_Node000015"><a xlink:title=" ">
<path fill="none" stroke="#63b8ff" d="M88.5,-1580.36C88.5,-1550.55 88.5,-1496.7 88.5,-1443.38"/>
<polygon fill="none" stroke="#63b8ff" points="88.5,-1443.3 84.5,-1437.3 88.5,-1431.3 92.5,-1437.3 88.5,-1443.3"/>
</a>
</g>
<text text-anchor="middle" x="133" y="-1463" font-family="Helvetica,sans-Serif" font-size="10.00" fill="grey"> #mParameters</text>
<text text-anchor="middle" x="133" y="-1452" font-family="Helvetica,sans-Serif" font-size="10.00" fill="grey">#mStateVariables</text>
</g>
</g>
</svg>
