<?xml version="1.0" encoding="UTF-8" standalone="no"?>
<!DOCTYPE svg PUBLIC "-//W3C//DTD SVG 1.1//EN"
 "http://www.w3.org/Graphics/SVG/1.1/DTD/svg11.dtd">
<!-- Generated by graphviz version 2.43.0 (0)
 -->
<!-- Title: TysonNovak2001OdeSystem Pages: 1 -->
<svg width="635pt" height="1833pt"
 viewBox="0.00 0.00 634.50 1833.00" xmlns="http://www.w3.org/2000/svg" xmlns:xlink="http://www.w3.org/1999/xlink">
<g id="graph0" class="graph" transform="scale(1 1) rotate(0) translate(4 1829)">
<title>TysonNovak2001OdeSystem</title>
<!-- Node1 -->
<g id="Node000001" class="node">
<title>Node1</title>
<g id="a_Node000001"><a xlink:title=" ">
<polygon fill="#999999" stroke="transparent" points="582,-304 405,-304 405,0 582,0 582,-304"/>
<text text-anchor="start" x="424" y="-292" font-family="Helvetica,sans-Serif" font-size="10.00">TysonNovak2001OdeSystem</text>
<text text-anchor="start" x="412" y="-277" font-family="Helvetica,sans-Serif" font-size="10.00">&#45;</text>
<text text-anchor="start" x="422.5" y="-277" font-family="Helvetica,sans-Serif" font-size="10.00">mK2d</text>
<text text-anchor="start" x="412" y="-262" font-family="Helvetica,sans-Serif" font-size="10.00">&#45;</text>
<text text-anchor="start" x="422.5" y="-262" font-family="Helvetica,sans-Serif" font-size="10.00">mK2dd</text>
<text text-anchor="start" x="412" y="-247" font-family="Helvetica,sans-Serif" font-size="10.00">&#45;</text>
<text text-anchor="start" x="422.5" y="-247" font-family="Helvetica,sans-Serif" font-size="10.00">mK2ddd</text>
<text text-anchor="start" x="412" y="-232" font-family="Helvetica,sans-Serif" font-size="10.00">&#45;</text>
<text text-anchor="start" x="422.5" y="-232" font-family="Helvetica,sans-Serif" font-size="10.00">mK3d</text>
<text text-anchor="start" x="412" y="-217" font-family="Helvetica,sans-Serif" font-size="10.00">&#45;</text>
<text text-anchor="start" x="422.5" y="-217" font-family="Helvetica,sans-Serif" font-size="10.00">mK3dd</text>
<text text-anchor="start" x="412" y="-202" font-family="Helvetica,sans-Serif" font-size="10.00">&#45;</text>
<text text-anchor="start" x="422.5" y="-202" font-family="Helvetica,sans-Serif" font-size="10.00">mK4d</text>
<text text-anchor="start" x="412" y="-187" font-family="Helvetica,sans-Serif" font-size="10.00">&#45;</text>
<text text-anchor="start" x="422.5" y="-187" font-family="Helvetica,sans-Serif" font-size="10.00">mK4</text>
<text text-anchor="start" x="412" y="-172" font-family="Helvetica,sans-Serif" font-size="10.00">&#45;</text>
<text text-anchor="start" x="422.5" y="-172" font-family="Helvetica,sans-Serif" font-size="10.00">mK5d</text>
<text text-anchor="start" x="412" y="-157" font-family="Helvetica,sans-Serif" font-size="10.00">&#45;</text>
<text text-anchor="start" x="422.5" y="-157" font-family="Helvetica,sans-Serif" font-size="10.00">mK5dd</text>
<text text-anchor="start" x="412" y="-142" font-family="Helvetica,sans-Serif" font-size="10.00">&#45;</text>
<text text-anchor="start" x="422.5" y="-142" font-family="Helvetica,sans-Serif" font-size="10.00">mK6</text>
<text text-anchor="start" x="422.5" y="-127" font-family="Helvetica,sans-Serif" font-size="10.00">and 17 more...</text>
<text text-anchor="start" x="409.5" y="-112" font-family="Helvetica,sans-Serif" font-size="10.00">+</text>
<text text-anchor="start" x="422.5" y="-112" font-family="Helvetica,sans-Serif" font-size="10.00">TysonNovak2001OdeSystem()</text>
<text text-anchor="start" x="409.5" y="-97" font-family="Helvetica,sans-Serif" font-size="10.00">+</text>
<text text-anchor="start" x="422.5" y="-97" font-family="Helvetica,sans-Serif" font-size="10.00">~TysonNovak2001OdeSystem()</text>
<text text-anchor="start" x="409.5" y="-82" font-family="Helvetica,sans-Serif" font-size="10.00">+</text>
<text text-anchor="start" x="422.5" y="-82" font-family="Helvetica,sans-Serif" font-size="10.00">Init()</text>
<text text-anchor="start" x="409.5" y="-67" font-family="Helvetica,sans-Serif" font-size="10.00">+</text>
<text text-anchor="start" x="422.5" y="-67" font-family="Helvetica,sans-Serif" font-size="10.00">EvaluateYDerivatives()</text>
<text text-anchor="start" x="409.5" y="-52" font-family="Helvetica,sans-Serif" font-size="10.00">+</text>
<text text-anchor="start" x="422.5" y="-52" font-family="Helvetica,sans-Serif" font-size="10.00">CalculateStoppingEvent()</text>
<text text-anchor="start" x="409.5" y="-37" font-family="Helvetica,sans-Serif" font-size="10.00">+</text>
<text text-anchor="start" x="422.5" y="-37" font-family="Helvetica,sans-Serif" font-size="10.00">CalculateRootFunction()</text>
<text text-anchor="start" x="409.5" y="-22" font-family="Helvetica,sans-Serif" font-size="10.00">+</text>
<text text-anchor="start" x="422.5" y="-22" font-family="Helvetica,sans-Serif" font-size="10.00">AnalyticJacobian()</text>
<text text-anchor="start" x="412" y="-7" font-family="Helvetica,sans-Serif" font-size="10.00">&#45;</text>
<text text-anchor="start" x="422.5" y="-7" font-family="Helvetica,sans-Serif" font-size="10.00">serialize()</text>
<polygon fill="#666666" stroke="#666666" points="405.5,-287 405.5,-287 582.5,-287 582.5,-287 405.5,-287"/>
<polygon fill="#666666" stroke="#666666" points="405.5,-122 405.5,-122 420.5,-122 420.5,-122 405.5,-122"/>
<polygon fill="#666666" stroke="#666666" points="420.5,-122 420.5,-122 582.5,-122 582.5,-122 420.5,-122"/>
<polygon fill="none" stroke="#666666" points="405,0 405,-304 582,-304 582,0 405,0"/>
</a>
</g>
</g>
<!-- Node2 -->
<g id="Node000002" class="node">
<title>Node2</title>
<g id="a_Node000002"><a xlink:href="classAbstractOdeSystemWithAnalyticJacobian.html" target="_top" xlink:title=" ">
<polygon fill="white" stroke="transparent" points="461,-547 280,-547 280,-461 461,-461 461,-547"/>
<text text-anchor="start" x="291" y="-535" font-family="Helvetica,sans-Serif" font-size="10.00">AbstractOdeSystemWithAnalytic</text>
<text text-anchor="start" x="350" y="-524" font-family="Helvetica,sans-Serif" font-size="10.00">Jacobian</text>
<text text-anchor="start" x="369" y="-509" font-family="Helvetica,sans-Serif" font-size="10.00"> </text>
<text text-anchor="start" x="284.5" y="-494" font-family="Helvetica,sans-Serif" font-size="10.00">+</text>
<text text-anchor="start" x="297.5" y="-494" font-family="Helvetica,sans-Serif" font-size="10.00">AbstractOdeSystemWithAnalytic</text>
<text text-anchor="start" x="297.5" y="-483" font-family="Helvetica,sans-Serif" font-size="10.00">Jacobian()</text>
<text text-anchor="start" x="284.5" y="-468" font-family="Helvetica,sans-Serif" font-size="10.00">+</text>
<text text-anchor="start" x="297.5" y="-468" font-family="Helvetica,sans-Serif" font-size="10.00">AnalyticJacobian()</text>
<polygon fill="#666666" stroke="#666666" points="280.5,-519 280.5,-519 461.5,-519 461.5,-519 280.5,-519"/>
<polygon fill="#666666" stroke="#666666" points="280.5,-504 280.5,-504 461.5,-504 461.5,-504 280.5,-504"/>
<polygon fill="none" stroke="#666666" points="280,-461 280,-547 461,-547 461,-461 280,-461"/>
</a>
</g>
</g>
<!-- Node2&#45;&gt;Node1 -->
<g id="edge1_Node000001_Node000002" class="edge">
<title>Node2&#45;&gt;Node1</title>
<g id="a_edge1_Node000001_Node000002"><a xlink:title=" ">
<path fill="none" stroke="#63b8ff" d="M388.69,-451.24C402.39,-412.25 421.91,-356.7 440.4,-304.08"/>
<polygon fill="none" stroke="#63b8ff" points="385.35,-450.19 385.34,-460.78 391.95,-452.51 385.35,-450.19"/>
</a>
</g>
</g>
<!-- Node3 -->
<g id="Node000003" class="node">
<title>Node3</title>
<g id="a_Node000003"><a xlink:href="classAbstractOdeSystem.html" target="_top" xlink:title=" ">
<polygon fill="white" stroke="transparent" points="431.5,-753 283.5,-753 283.5,-584 431.5,-584 431.5,-753"/>
<text text-anchor="start" x="309" y="-740.5" font-family="Helvetica,sans-Serif" font-size="10.00">AbstractOdeSystem</text>
<text text-anchor="start" x="355.5" y="-725.5" font-family="Helvetica,sans-Serif" font-size="10.00"> </text>
<text text-anchor="start" x="287.5" y="-710.5" font-family="Helvetica,sans-Serif" font-size="10.00">+</text>
<text text-anchor="start" x="300.5" y="-710.5" font-family="Helvetica,sans-Serif" font-size="10.00">AbstractOdeSystem()</text>
<text text-anchor="start" x="287.5" y="-695.5" font-family="Helvetica,sans-Serif" font-size="10.00">+</text>
<text text-anchor="start" x="300.5" y="-695.5" font-family="Helvetica,sans-Serif" font-size="10.00">~AbstractOdeSystem()</text>
<text text-anchor="start" x="287.5" y="-680.5" font-family="Helvetica,sans-Serif" font-size="10.00">+</text>
<text text-anchor="start" x="300.5" y="-680.5" font-family="Helvetica,sans-Serif" font-size="10.00">EvaluateYDerivatives()</text>
<text text-anchor="start" x="287.5" y="-665.5" font-family="Helvetica,sans-Serif" font-size="10.00">+</text>
<text text-anchor="start" x="300.5" y="-665.5" font-family="Helvetica,sans-Serif" font-size="10.00">CalculateStoppingEvent()</text>
<text text-anchor="start" x="287.5" y="-650.5" font-family="Helvetica,sans-Serif" font-size="10.00">+</text>
<text text-anchor="start" x="300.5" y="-650.5" font-family="Helvetica,sans-Serif" font-size="10.00">CalculateRootFunction()</text>
<text text-anchor="start" x="287.5" y="-635.5" font-family="Helvetica,sans-Serif" font-size="10.00">+</text>
<text text-anchor="start" x="300.5" y="-635.5" font-family="Helvetica,sans-Serif" font-size="10.00">GetUseAnalyticJacobian()</text>
<text text-anchor="start" x="287.5" y="-620.5" font-family="Helvetica,sans-Serif" font-size="10.00">+</text>
<text text-anchor="start" x="300.5" y="-620.5" font-family="Helvetica,sans-Serif" font-size="10.00">rGetConstStateVariables()</text>
<text text-anchor="start" x="290" y="-605.5" font-family="Helvetica,sans-Serif" font-size="10.00">&#45;</text>
<text text-anchor="start" x="300.5" y="-605.5" font-family="Helvetica,sans-Serif" font-size="10.00">save()</text>
<text text-anchor="start" x="290" y="-590.5" font-family="Helvetica,sans-Serif" font-size="10.00">&#45;</text>
<text text-anchor="start" x="300.5" y="-590.5" font-family="Helvetica,sans-Serif" font-size="10.00">load()</text>
<polygon fill="#666666" stroke="#666666" points="283.5,-735.5 283.5,-735.5 431.5,-735.5 431.5,-735.5 283.5,-735.5"/>
<polygon fill="#666666" stroke="#666666" points="283.5,-720.5 283.5,-720.5 431.5,-720.5 431.5,-720.5 283.5,-720.5"/>
<polygon fill="none" stroke="#666666" points="283.5,-584 283.5,-753 431.5,-753 431.5,-584 283.5,-584"/>
</a>
</g>
</g>
<!-- Node3&#45;&gt;Node2 -->
<g id="edge2_Node000002_Node000003" class="edge">
<title>Node3&#45;&gt;Node2</title>
<g id="a_edge2_Node000002_Node000003"><a xlink:title=" ">
<path fill="none" stroke="#63b8ff" d="M365,-573.75C365.74,-564.48 366.47,-555.43 367.13,-547.1"/>
<polygon fill="none" stroke="#63b8ff" points="361.5,-573.62 364.19,-583.87 368.48,-574.18 361.5,-573.62"/>
</a>
</g>
</g>
<!-- Node4 -->
<g id="Node000004" class="node">
<title>Node4</title>
<g id="a_Node000004"><a xlink:href="classAbstractParameterisedSystem.html" target="_top" xlink:title=" ">
<polygon fill="white" stroke="transparent" points="324,-1085 147,-1085 147,-800 324,-800 324,-1085"/>
<text text-anchor="start" x="162" y="-1072.5" font-family="Helvetica,sans-Serif" font-size="10.00">AbstractParameterisedSystem</text>
<text text-anchor="start" x="171" y="-1061.5" font-family="Helvetica,sans-Serif" font-size="10.00">&lt; std::vector&lt; double &gt; &gt;</text>
<text text-anchor="start" x="234" y="-1046.5" font-family="Helvetica,sans-Serif" font-size="10.00"> </text>
<text text-anchor="start" x="151.5" y="-1031.5" font-family="Helvetica,sans-Serif" font-size="10.00">+</text>
<text text-anchor="start" x="164.5" y="-1031.5" font-family="Helvetica,sans-Serif" font-size="10.00">AbstractParameterisedSystem()</text>
<text text-anchor="start" x="151.5" y="-1016.5" font-family="Helvetica,sans-Serif" font-size="10.00">+</text>
<text text-anchor="start" x="164.5" y="-1016.5" font-family="Helvetica,sans-Serif" font-size="10.00">rGetStateVariables()</text>
<text text-anchor="start" x="151.5" y="-1001.5" font-family="Helvetica,sans-Serif" font-size="10.00">+</text>
<text text-anchor="start" x="164.5" y="-1001.5" font-family="Helvetica,sans-Serif" font-size="10.00">GetStateVariables()</text>
<text text-anchor="start" x="151.5" y="-986.5" font-family="Helvetica,sans-Serif" font-size="10.00">+</text>
<text text-anchor="start" x="164.5" y="-986.5" font-family="Helvetica,sans-Serif" font-size="10.00">SetStateVariables()</text>
<text text-anchor="start" x="151.5" y="-971.5" font-family="Helvetica,sans-Serif" font-size="10.00">+</text>
<text text-anchor="start" x="164.5" y="-971.5" font-family="Helvetica,sans-Serif" font-size="10.00">GetStateVariable()</text>
<text text-anchor="start" x="151.5" y="-956.5" font-family="Helvetica,sans-Serif" font-size="10.00">+</text>
<text text-anchor="start" x="164.5" y="-956.5" font-family="Helvetica,sans-Serif" font-size="10.00">GetStateVariable()</text>
<text text-anchor="start" x="151.5" y="-941.5" font-family="Helvetica,sans-Serif" font-size="10.00">+</text>
<text text-anchor="start" x="164.5" y="-941.5" font-family="Helvetica,sans-Serif" font-size="10.00">SetStateVariable()</text>
<text text-anchor="start" x="151.5" y="-926.5" font-family="Helvetica,sans-Serif" font-size="10.00">+</text>
<text text-anchor="start" x="164.5" y="-926.5" font-family="Helvetica,sans-Serif" font-size="10.00">SetStateVariable()</text>
<text text-anchor="start" x="151.5" y="-911.5" font-family="Helvetica,sans-Serif" font-size="10.00">+</text>
<text text-anchor="start" x="164.5" y="-911.5" font-family="Helvetica,sans-Serif" font-size="10.00">VerifyStateVariables()</text>
<text text-anchor="start" x="151.5" y="-896.5" font-family="Helvetica,sans-Serif" font-size="10.00">+</text>
<text text-anchor="start" x="164.5" y="-896.5" font-family="Helvetica,sans-Serif" font-size="10.00">SetDefaultInitialConditions()</text>
<text text-anchor="start" x="164.5" y="-881.5" font-family="Helvetica,sans-Serif" font-size="10.00">and 13 more...</text>
<text text-anchor="start" x="151.5" y="-866.5" font-family="Helvetica,sans-Serif" font-size="10.00">#</text>
<text text-anchor="start" x="164.5" y="-866.5" font-family="Helvetica,sans-Serif" font-size="10.00">DumpState()</text>
<text text-anchor="start" x="151.5" y="-851.5" font-family="Helvetica,sans-Serif" font-size="10.00">#</text>
<text text-anchor="start" x="164.5" y="-851.5" font-family="Helvetica,sans-Serif" font-size="10.00">DumpState()</text>
<text text-anchor="start" x="151.5" y="-836.5" font-family="Helvetica,sans-Serif" font-size="10.00">#</text>
<text text-anchor="start" x="164.5" y="-836.5" font-family="Helvetica,sans-Serif" font-size="10.00">DumpState()</text>
<text text-anchor="start" x="151.5" y="-821.5" font-family="Helvetica,sans-Serif" font-size="10.00">#</text>
<text text-anchor="start" x="164.5" y="-821.5" font-family="Helvetica,sans-Serif" font-size="10.00">CheckParametersOnLoad()</text>
<text text-anchor="start" x="154" y="-806.5" font-family="Helvetica,sans-Serif" font-size="10.00">&#45;</text>
<text text-anchor="start" x="164.5" y="-806.5" font-family="Helvetica,sans-Serif" font-size="10.00">GetStateMessage()</text>
<polygon fill="#666666" stroke="#666666" points="147.5,-1056.5 147.5,-1056.5 324.5,-1056.5 324.5,-1056.5 147.5,-1056.5"/>
<polygon fill="#666666" stroke="#666666" points="147.5,-1041.5 147.5,-1041.5 324.5,-1041.5 324.5,-1041.5 147.5,-1041.5"/>
<polygon fill="none" stroke="#666666" points="147,-800 147,-1085 324,-1085 324,-800 147,-800"/>
</a>
</g>
</g>
<!-- Node4&#45;&gt;Node3 -->
<g id="edge3_Node000003_Node000004" class="edge">
<title>Node4&#45;&gt;Node3</title>
<g id="a_edge3_Node000003_Node000004"><a xlink:title=" ">
<path fill="none" stroke="#63b8ff" d="M303.2,-790.56C308.95,-777.74 314.62,-765.1 320,-753.1"/>
<polygon fill="none" stroke="#63b8ff" points="299.9,-789.37 299,-799.92 306.29,-792.23 299.9,-789.37"/>
</a>
</g>
</g>
<!-- Node5 -->
<g id="Node000005" class="node">
<title>Node5</title>
<g id="a_Node000005"><a xlink:href="classAbstractUntemplatedParameterisedSystem.html" target="_top" xlink:title=" ">
<polygon fill="white" stroke="transparent" points="337,-1718 132,-1718 132,-1486 337,-1486 337,-1718"/>
<text text-anchor="start" x="147.5" y="-1706" font-family="Helvetica,sans-Serif" font-size="10.00">AbstractUntemplatedParameterised</text>
<text text-anchor="start" x="216.5" y="-1695" font-family="Helvetica,sans-Serif" font-size="10.00">System</text>
<text text-anchor="start" x="233" y="-1680" font-family="Helvetica,sans-Serif" font-size="10.00"> </text>
<text text-anchor="start" x="136.5" y="-1665" font-family="Helvetica,sans-Serif" font-size="10.00">+</text>
<text text-anchor="start" x="149.5" y="-1665" font-family="Helvetica,sans-Serif" font-size="10.00">AbstractUntemplatedParameterised</text>
<text text-anchor="start" x="149.5" y="-1654" font-family="Helvetica,sans-Serif" font-size="10.00">System()</text>
<text text-anchor="start" x="136.5" y="-1639" font-family="Helvetica,sans-Serif" font-size="10.00">+</text>
<text text-anchor="start" x="149.5" y="-1639" font-family="Helvetica,sans-Serif" font-size="10.00">~AbstractUntemplatedParameterised</text>
<text text-anchor="start" x="149.5" y="-1628" font-family="Helvetica,sans-Serif" font-size="10.00">System()</text>
<text text-anchor="start" x="136.5" y="-1613" font-family="Helvetica,sans-Serif" font-size="10.00">+</text>
<text text-anchor="start" x="149.5" y="-1613" font-family="Helvetica,sans-Serif" font-size="10.00">GetSystemInformation()</text>
<text text-anchor="start" x="136.5" y="-1598" font-family="Helvetica,sans-Serif" font-size="10.00">+</text>
<text text-anchor="start" x="149.5" y="-1598" font-family="Helvetica,sans-Serif" font-size="10.00">GetSystemName()</text>
<text text-anchor="start" x="136.5" y="-1583" font-family="Helvetica,sans-Serif" font-size="10.00">+</text>
<text text-anchor="start" x="149.5" y="-1583" font-family="Helvetica,sans-Serif" font-size="10.00">GetNumberOfAttributes()</text>
<text text-anchor="start" x="136.5" y="-1568" font-family="Helvetica,sans-Serif" font-size="10.00">+</text>
<text text-anchor="start" x="149.5" y="-1568" font-family="Helvetica,sans-Serif" font-size="10.00">HasAttribute()</text>
<text text-anchor="start" x="136.5" y="-1553" font-family="Helvetica,sans-Serif" font-size="10.00">+</text>
<text text-anchor="start" x="149.5" y="-1553" font-family="Helvetica,sans-Serif" font-size="10.00">GetAttribute()</text>
<text text-anchor="start" x="136.5" y="-1538" font-family="Helvetica,sans-Serif" font-size="10.00">+</text>
<text text-anchor="start" x="149.5" y="-1538" font-family="Helvetica,sans-Serif" font-size="10.00">GetNumberOfStateVariables()</text>
<text text-anchor="start" x="136.5" y="-1523" font-family="Helvetica,sans-Serif" font-size="10.00">+</text>
<text text-anchor="start" x="149.5" y="-1523" font-family="Helvetica,sans-Serif" font-size="10.00">rGetStateVariableNames()</text>
<text text-anchor="start" x="136.5" y="-1508" font-family="Helvetica,sans-Serif" font-size="10.00">+</text>
<text text-anchor="start" x="149.5" y="-1508" font-family="Helvetica,sans-Serif" font-size="10.00">rGetStateVariableUnits()</text>
<text text-anchor="start" x="149.5" y="-1493" font-family="Helvetica,sans-Serif" font-size="10.00">and 20 more...</text>
<polygon fill="#666666" stroke="#666666" points="132.5,-1690 132.5,-1690 337.5,-1690 337.5,-1690 132.5,-1690"/>
<polygon fill="#666666" stroke="#666666" points="132.5,-1675 132.5,-1675 337.5,-1675 337.5,-1675 132.5,-1675"/>
<polygon fill="none" stroke="#666666" points="132,-1486 132,-1718 337,-1718 337,-1486 132,-1486"/>
</a>
</g>
</g>
<!-- Node5&#45;&gt;Node4 -->
<g id="edge4_Node000004_Node000005" class="edge">
<title>Node5&#45;&gt;Node4</title>
<g id="a_edge4_Node000004_Node000005"><a xlink:title=" ">
<path fill="none" stroke="#63b8ff" d="M234.69,-1475.43C234.86,-1363.91 235.11,-1201.09 235.28,-1085"/>
<polygon fill="none" stroke="#63b8ff" points="231.19,-1475.71 234.68,-1485.72 238.19,-1475.73 231.19,-1475.71"/>
</a>
</g>
</g>
<!-- Node9 -->
<g id="Node000009" class="node">
<title>Node9</title>
<g id="a_Node000009"><a xlink:href="classAbstractParameterisedSystem.html" target="_top" xlink:title=" ">
<polygon fill="white" stroke="transparent" points="177,-1428 0,-1428 0,-1143 177,-1143 177,-1428"/>
<text text-anchor="start" x="15" y="-1415.5" font-family="Helvetica,sans-Serif" font-size="10.00">AbstractParameterisedSystem</text>
<text text-anchor="start" x="57.5" y="-1404.5" font-family="Helvetica,sans-Serif" font-size="10.00">&lt; VECTOR &gt;</text>
<text text-anchor="start" x="87" y="-1389.5" font-family="Helvetica,sans-Serif" font-size="10.00"> </text>
<text text-anchor="start" x="4.5" y="-1374.5" font-family="Helvetica,sans-Serif" font-size="10.00">+</text>
<text text-anchor="start" x="17.5" y="-1374.5" font-family="Helvetica,sans-Serif" font-size="10.00">AbstractParameterisedSystem()</text>
<text text-anchor="start" x="4.5" y="-1359.5" font-family="Helvetica,sans-Serif" font-size="10.00">+</text>
<text text-anchor="start" x="17.5" y="-1359.5" font-family="Helvetica,sans-Serif" font-size="10.00">rGetStateVariables()</text>
<text text-anchor="start" x="4.5" y="-1344.5" font-family="Helvetica,sans-Serif" font-size="10.00">+</text>
<text text-anchor="start" x="17.5" y="-1344.5" font-family="Helvetica,sans-Serif" font-size="10.00">GetStateVariables()</text>
<text text-anchor="start" x="4.5" y="-1329.5" font-family="Helvetica,sans-Serif" font-size="10.00">+</text>
<text text-anchor="start" x="17.5" y="-1329.5" font-family="Helvetica,sans-Serif" font-size="10.00">SetStateVariables()</text>
<text text-anchor="start" x="4.5" y="-1314.5" font-family="Helvetica,sans-Serif" font-size="10.00">+</text>
<text text-anchor="start" x="17.5" y="-1314.5" font-family="Helvetica,sans-Serif" font-size="10.00">GetStateVariable()</text>
<text text-anchor="start" x="4.5" y="-1299.5" font-family="Helvetica,sans-Serif" font-size="10.00">+</text>
<text text-anchor="start" x="17.5" y="-1299.5" font-family="Helvetica,sans-Serif" font-size="10.00">GetStateVariable()</text>
<text text-anchor="start" x="4.5" y="-1284.5" font-family="Helvetica,sans-Serif" font-size="10.00">+</text>
<text text-anchor="start" x="17.5" y="-1284.5" font-family="Helvetica,sans-Serif" font-size="10.00">SetStateVariable()</text>
<text text-anchor="start" x="4.5" y="-1269.5" font-family="Helvetica,sans-Serif" font-size="10.00">+</text>
<text text-anchor="start" x="17.5" y="-1269.5" font-family="Helvetica,sans-Serif" font-size="10.00">SetStateVariable()</text>
<text text-anchor="start" x="4.5" y="-1254.5" font-family="Helvetica,sans-Serif" font-size="10.00">+</text>
<text text-anchor="start" x="17.5" y="-1254.5" font-family="Helvetica,sans-Serif" font-size="10.00">VerifyStateVariables()</text>
<text text-anchor="start" x="4.5" y="-1239.5" font-family="Helvetica,sans-Serif" font-size="10.00">+</text>
<text text-anchor="start" x="17.5" y="-1239.5" font-family="Helvetica,sans-Serif" font-size="10.00">SetDefaultInitialConditions()</text>
<text text-anchor="start" x="17.5" y="-1224.5" font-family="Helvetica,sans-Serif" font-size="10.00">and 13 more...</text>
<text text-anchor="start" x="4.5" y="-1209.5" font-family="Helvetica,sans-Serif" font-size="10.00">#</text>
<text text-anchor="start" x="17.5" y="-1209.5" font-family="Helvetica,sans-Serif" font-size="10.00">DumpState()</text>
<text text-anchor="start" x="4.5" y="-1194.5" font-family="Helvetica,sans-Serif" font-size="10.00">#</text>
<text text-anchor="start" x="17.5" y="-1194.5" font-family="Helvetica,sans-Serif" font-size="10.00">DumpState()</text>
<text text-anchor="start" x="4.5" y="-1179.5" font-family="Helvetica,sans-Serif" font-size="10.00">#</text>
<text text-anchor="start" x="17.5" y="-1179.5" font-family="Helvetica,sans-Serif" font-size="10.00">DumpState()</text>
<text text-anchor="start" x="4.5" y="-1164.5" font-family="Helvetica,sans-Serif" font-size="10.00">#</text>
<text text-anchor="start" x="17.5" y="-1164.5" font-family="Helvetica,sans-Serif" font-size="10.00">CheckParametersOnLoad()</text>
<text text-anchor="start" x="7" y="-1149.5" font-family="Helvetica,sans-Serif" font-size="10.00">&#45;</text>
<text text-anchor="start" x="17.5" y="-1149.5" font-family="Helvetica,sans-Serif" font-size="10.00">GetStateMessage()</text>
<polygon fill="#666666" stroke="#666666" points="0.5,-1399.5 0.5,-1399.5 177.5,-1399.5 177.5,-1399.5 0.5,-1399.5"/>
<polygon fill="#666666" stroke="#666666" points="0.5,-1384.5 0.5,-1384.5 177.5,-1384.5 177.5,-1384.5 0.5,-1384.5"/>
<polygon fill="none" stroke="#666666" points="0,-1143 0,-1428 177,-1428 177,-1143 0,-1143"/>
</a>
</g>
</g>
<!-- Node5&#45;&gt;Node9 -->
<g id="edge9_Node000009_Node000005" class="edge">
<title>Node5&#45;&gt;Node9</title>
<g id="a_edge9_Node000009_Node000005"><a xlink:title=" ">
<path fill="none" stroke="#63b8ff" d="M194.27,-1476.21C190.21,-1465.89 185.93,-1455.7 181.5,-1446 178.84,-1440.17 176.02,-1434.28 173.09,-1428.37"/>
<polygon fill="none" stroke="#63b8ff" points="191.08,-1477.65 197.94,-1485.72 197.61,-1475.13 191.08,-1477.65"/>
</a>
</g>
</g>
<!-- Node6 -->
<g id="Node000006" class="node">
<title>Node6</title>
<g id="a_Node000006"><a xlink:href="classunsigned.html" target="_top" xlink:title=" ">
<polygon fill="white" stroke="transparent" points="455,-1819.5 400,-1819.5 400,-1770.5 455,-1770.5 455,-1819.5"/>
<text text-anchor="start" x="405.5" y="-1807" font-family="Helvetica,sans-Serif" font-size="10.00">unsigned</text>
<text text-anchor="start" x="426" y="-1792" font-family="Helvetica,sans-Serif" font-size="10.00"> </text>
<text text-anchor="start" x="426" y="-1777" font-family="Helvetica,sans-Serif" font-size="10.00"> </text>
<polygon fill="#bfbfbf" stroke="#bfbfbf" points="400.5,-1802 400.5,-1802 455.5,-1802 455.5,-1802 400.5,-1802"/>
<polygon fill="#bfbfbf" stroke="#bfbfbf" points="400.5,-1787 400.5,-1787 455.5,-1787 455.5,-1787 400.5,-1787"/>
<polygon fill="none" stroke="#bfbfbf" points="400,-1770.5 400,-1819.5 455,-1819.5 455,-1770.5 400,-1770.5"/>
</a>
</g>
</g>
<!-- Node6&#45;&gt;Node1 -->
<g id="edge13_Node000001_Node000006" class="edge">
<title>Node6&#45;&gt;Node1</title>
<g id="a_edge13_Node000001_Node000006"><a xlink:title=" ">
<path fill="none" stroke="#63b8ff" d="M455.25,-1775.47C464.53,-1767.8 473.92,-1758.09 479.5,-1747 508.41,-1689.57 493.5,-1667.3 493.5,-1603 493.5,-1603 493.5,-1603 493.5,-503 493.5,-442.03 493.5,-375.09 493.5,-316.22"/>
<polygon fill="none" stroke="#63b8ff" points="493.5,-316.17 489.5,-310.17 493.5,-304.17 497.5,-310.17 493.5,-316.17"/>
</a>
</g>
<text text-anchor="middle" x="506" y="-940" font-family="Helvetica,sans-Serif" font-size="10.00" fill="grey"> &#45;mN</text>
</g>
<!-- Node6&#45;&gt;Node5 -->
<g id="edge5_Node000005_Node000006" class="edge">
<title>Node6&#45;&gt;Node5</title>
<g id="a_edge5_Node000005_Node000006"><a xlink:title=" ">
<path fill="none" stroke="#63b8ff" d="M399.87,-1783.59C380.94,-1775.55 355.99,-1763.07 337.5,-1747 330.49,-1740.9 323.69,-1734.24 317.16,-1727.22"/>
<polygon fill="none" stroke="#63b8ff" points="317.05,-1727.1 310.07,-1725.31 309.04,-1718.17 316.03,-1719.96 317.05,-1727.1"/>
</a>
</g>
<text text-anchor="middle" x="408.5" y="-1739" font-family="Helvetica,sans-Serif" font-size="10.00" fill="grey"> #mNumberOfStateVariables</text>
</g>
<!-- Node7 -->
<g id="Node000007" class="node">
<title>Node7</title>
<g id="a_Node000007"><a xlink:title=" ">
<polygon fill="white" stroke="transparent" points="315.5,-1825 145.5,-1825 145.5,-1765 315.5,-1765 315.5,-1825"/>
<text text-anchor="start" x="150.5" y="-1813" font-family="Helvetica,sans-Serif" font-size="10.00">shared_ptr&lt; AbstractOdeSystem</text>
<text text-anchor="start" x="196" y="-1802" font-family="Helvetica,sans-Serif" font-size="10.00">Information &gt;</text>
<text text-anchor="start" x="228.5" y="-1787" font-family="Helvetica,sans-Serif" font-size="10.00"> </text>
<text text-anchor="start" x="228.5" y="-1772" font-family="Helvetica,sans-Serif" font-size="10.00"> </text>
<polygon fill="#bfbfbf" stroke="#bfbfbf" points="145.5,-1797 145.5,-1797 315.5,-1797 315.5,-1797 145.5,-1797"/>
<polygon fill="#bfbfbf" stroke="#bfbfbf" points="145.5,-1782 145.5,-1782 315.5,-1782 315.5,-1782 145.5,-1782"/>
<polygon fill="none" stroke="#bfbfbf" points="145.5,-1765 145.5,-1825 315.5,-1825 315.5,-1765 145.5,-1765"/>
</a>
</g>
</g>
<!-- Node7&#45;&gt;Node5 -->
<g id="edge6_Node000005_Node000007" class="edge">
<title>Node7&#45;&gt;Node5</title>
<g id="a_edge6_Node000005_Node000007"><a xlink:title=" ">
<path fill="none" stroke="#63b8ff" d="M230.97,-1764.79C231.13,-1755.58 231.31,-1745.36 231.5,-1736 231.54,-1734.2 231.57,-1732.38 231.61,-1730.55"/>
<polygon fill="none" stroke="#63b8ff" points="231.61,-1730.34 227.74,-1724.26 231.86,-1718.34 235.74,-1724.42 231.61,-1730.34"/>
</a>
</g>
<text text-anchor="middle" x="273" y="-1739" font-family="Helvetica,sans-Serif" font-size="10.00" fill="grey"> #mpSystemInfo</text>
</g>
<!-- Node8 -->
<g id="Node000008" class="node">
<title>Node8</title>
<g id="a_Node000008"><a xlink:title=" ">
<polygon fill="white" stroke="transparent" points="361,-1310 264,-1310 264,-1261 361,-1261 361,-1310"/>
<text text-anchor="start" x="269.5" y="-1297.5" font-family="Helvetica,sans-Serif" font-size="10.00">vector&lt; double &gt;</text>
<text text-anchor="start" x="311" y="-1282.5" font-family="Helvetica,sans-Serif" font-size="10.00"> </text>
<text text-anchor="start" x="311" y="-1267.5" font-family="Helvetica,sans-Serif" font-size="10.00"> </text>
<polygon fill="#bfbfbf" stroke="#bfbfbf" points="264.5,-1292.5 264.5,-1292.5 361.5,-1292.5 361.5,-1292.5 264.5,-1292.5"/>
<polygon fill="#bfbfbf" stroke="#bfbfbf" points="264.5,-1277.5 264.5,-1277.5 361.5,-1277.5 361.5,-1277.5 264.5,-1277.5"/>
<polygon fill="none" stroke="#bfbfbf" points="264,-1261 264,-1310 361,-1310 361,-1261 264,-1261"/>
</a>
</g>
</g>
<!-- Node8&#45;&gt;Node4 -->
<g id="edge7_Node000004_Node000008" class="edge">
<title>Node8&#45;&gt;Node4</title>
<g id="a_edge7_Node000004_Node000008"><a xlink:title=" ">
<path fill="none" stroke="#63b8ff" d="M307.15,-1260.79C299.39,-1226.45 284.4,-1160.05 270.12,-1096.83"/>
<polygon fill="none" stroke="#63b8ff" points="270.11,-1096.77 264.89,-1091.8 267.47,-1085.07 272.69,-1090.04 270.11,-1096.77"/>
</a>
</g>
<text text-anchor="middle" x="321" y="-1117" font-family="Helvetica,sans-Serif" font-size="10.00" fill="grey"> #mParameters</text>
<text text-anchor="middle" x="321" y="-1106" font-family="Helvetica,sans-Serif" font-size="10.00" fill="grey">#mStateVariables</text>
</g>
<!-- Node9&#45;&gt;Node4 -->
<g id="edge8_Node000004_Node000009" class="edge">
<title>Node9&#45;&gt;Node4</title>
<g id="a_edge8_Node000004_Node000009"><a xlink:title=" ">
<path fill="none" stroke="orange" d="M79.97,-1132.93C81.98,-1122.63 84.76,-1112.56 88.5,-1103 101.03,-1070.9 123.39,-1041.38 146.94,-1016.68"/>
<polygon fill="orange" stroke="orange" points="76.5,-1132.41 78.26,-1142.85 83.4,-1133.59 76.5,-1132.41"/>
</a>
</g>
<text text-anchor="middle" x="155" y="-1111.5" font-family="Helvetica,sans-Serif" font-size="10.00" fill="grey"> &lt; std::vector&lt; double &gt; &gt;</text>
</g>
<!-- Node10 -->
<g id="Node000010" class="node">
<title>Node10</title>
<g id="a_Node000010"><a xlink:title=" ">
<polygon fill="white" stroke="transparent" points="113.5,-1626.5 63.5,-1626.5 63.5,-1577.5 113.5,-1577.5 113.5,-1626.5"/>
<text text-anchor="start" x="68.5" y="-1614" font-family="Helvetica,sans-Serif" font-size="10.00">VECTOR</text>
<text text-anchor="start" x="86.5" y="-1599" font-family="Helvetica,sans-Serif" font-size="10.00"> </text>
<text text-anchor="start" x="86.5" y="-1584" font-family="Helvetica,sans-Serif" font-size="10.00"> </text>
<polygon fill="#bfbfbf" stroke="#bfbfbf" points="63.5,-1609 63.5,-1609 113.5,-1609 113.5,-1609 63.5,-1609"/>
<polygon fill="#bfbfbf" stroke="#bfbfbf" points="63.5,-1594 63.5,-1594 113.5,-1594 113.5,-1594 63.5,-1594"/>
<polygon fill="none" stroke="#bfbfbf" points="63.5,-1577.5 63.5,-1626.5 113.5,-1626.5 113.5,-1577.5 63.5,-1577.5"/>
</a>
</g>
</g>
<!-- Node10&#45;&gt;Node9 -->
<g id="edge10_Node000009_Node000010" class="edge">
<title>Node10&#45;&gt;Node9</title>
<g id="a_edge10_Node000009_Node000010"><a xlink:title=" ">
<path fill="none" stroke="#63b8ff" d="M88.5,-1577.36C88.5,-1547.55 88.5,-1493.7 88.5,-1440.38"/>
<polygon fill="none" stroke="#63b8ff" points="88.5,-1440.3 84.5,-1434.3 88.5,-1428.3 92.5,-1434.3 88.5,-1440.3"/>
</a>
</g>
<text text-anchor="middle" x="133" y="-1460" font-family="Helvetica,sans-Serif" font-size="10.00" fill="grey"> #mParameters</text>
<text text-anchor="middle" x="133" y="-1449" font-family="Helvetica,sans-Serif" font-size="10.00" fill="grey">#mStateVariables</text>
</g>
<!-- Node11 -->
<g id="Node000011" class="node">
<title>Node11</title>
<g id="a_Node000011"><a xlink:href="classbool.html" target="_top" xlink:title=" ">
<polygon fill="white" stroke="transparent" points="373.5,-967 341.5,-967 341.5,-918 373.5,-918 373.5,-967"/>
<text text-anchor="start" x="346.5" y="-954.5" font-family="Helvetica,sans-Serif" font-size="10.00">bool</text>
<text text-anchor="start" x="355.5" y="-939.5" font-family="Helvetica,sans-Serif" font-size="10.00"> </text>
<text text-anchor="start" x="355.5" y="-924.5" font-family="Helvetica,sans-Serif" font-size="10.00"> </text>
<polygon fill="#bfbfbf" stroke="#bfbfbf" points="341.5,-949.5 341.5,-949.5 373.5,-949.5 373.5,-949.5 341.5,-949.5"/>
<polygon fill="#bfbfbf" stroke="#bfbfbf" points="341.5,-934.5 341.5,-934.5 373.5,-934.5 373.5,-934.5 341.5,-934.5"/>
<polygon fill="none" stroke="#bfbfbf" points="341.5,-918 341.5,-967 373.5,-967 373.5,-918 341.5,-918"/>
</a>
</g>
</g>
<!-- Node11&#45;&gt;Node3 -->
<g id="edge11_Node000003_Node000011" class="edge">
<title>Node11&#45;&gt;Node3</title>
<g id="a_edge11_Node000003_Node000011"><a xlink:title=" ">
<path fill="none" stroke="#63b8ff" d="M357.5,-917.84C357.5,-884.01 357.5,-819.88 357.5,-765.27"/>
<polygon fill="none" stroke="#63b8ff" points="357.5,-765.06 353.5,-759.06 357.5,-753.06 361.5,-759.06 357.5,-765.06"/>
</a>
</g>
<text text-anchor="middle" x="418" y="-774" font-family="Helvetica,sans-Serif" font-size="10.00" fill="grey"> #mUseAnalyticJacobian</text>
</g>
<!-- Node12 -->
<g id="Node000012" class="node">
<title>Node12</title>
<g id="a_Node000012"><a xlink:href="classdouble.html" target="_top" xlink:title=" ">
<polygon fill="white" stroke="transparent" points="565.5,-528.5 521.5,-528.5 521.5,-479.5 565.5,-479.5 565.5,-528.5"/>
<text text-anchor="start" x="526.5" y="-516" font-family="Helvetica,sans-Serif" font-size="10.00">double</text>
<text text-anchor="start" x="541.5" y="-501" font-family="Helvetica,sans-Serif" font-size="10.00"> </text>
<text text-anchor="start" x="541.5" y="-486" font-family="Helvetica,sans-Serif" font-size="10.00"> </text>
<polygon fill="#bfbfbf" stroke="#bfbfbf" points="521.5,-511 521.5,-511 565.5,-511 565.5,-511 521.5,-511"/>
<polygon fill="#bfbfbf" stroke="#bfbfbf" points="521.5,-496 521.5,-496 565.5,-496 565.5,-496 521.5,-496"/>
<polygon fill="none" stroke="#bfbfbf" points="521.5,-479.5 521.5,-528.5 565.5,-528.5 565.5,-479.5 521.5,-479.5"/>
</a>
</g>
</g>
<!-- Node12&#45;&gt;Node1 -->
<g id="edge12_Node000001_Node000012" class="edge">
<title>Node12&#45;&gt;Node1</title>
<g id="a_edge12_Node000001_Node000012"><a xlink:title=" ">
<path fill="none" stroke="#63b8ff" d="M540.14,-479.49C535.3,-445.58 525.93,-380.02 516.85,-316.48"/>
<polygon fill="none" stroke="#63b8ff" points="516.8,-316.11 511.99,-310.74 515.1,-304.23 519.91,-309.61 516.8,-316.11"/>
</a>
</g>
<text text-anchor="middle" x="580" y="-435" font-family="Helvetica,sans-Serif" font-size="10.00" fill="grey"> &#45;mCycB_threshold</text>
<text text-anchor="middle" x="580" y="-424" font-family="Helvetica,sans-Serif" font-size="10.00" fill="grey">&#45;mJ15</text>
<text text-anchor="middle" x="580" y="-413" font-family="Helvetica,sans-Serif" font-size="10.00" fill="grey">&#45;mJ16</text>
<text text-anchor="middle" x="580" y="-402" font-family="Helvetica,sans-Serif" font-size="10.00" fill="grey">&#45;mJ3</text>
<text text-anchor="middle" x="580" y="-391" font-family="Helvetica,sans-Serif" font-size="10.00" fill="grey">&#45;mJ4</text>
<text text-anchor="middle" x="580" y="-380" font-family="Helvetica,sans-Serif" font-size="10.00" fill="grey">&#45;mJ5</text>
<text text-anchor="middle" x="580" y="-369" font-family="Helvetica,sans-Serif" font-size="10.00" fill="grey">&#45;mJ7</text>
<text text-anchor="middle" x="580" y="-358" font-family="Helvetica,sans-Serif" font-size="10.00" fill="grey">&#45;mJ8</text>
<text text-anchor="middle" x="580" y="-347" font-family="Helvetica,sans-Serif" font-size="10.00" fill="grey">&#45;mK1</text>
<text text-anchor="middle" x="580" y="-336" font-family="Helvetica,sans-Serif" font-size="10.00" fill="grey">&#45;mK10</text>
<text text-anchor="middle" x="580" y="-325" font-family="Helvetica,sans-Serif" font-size="10.00" fill="grey">...</text>
</g>
</g>
</svg>
