<?xml version="1.0" encoding="UTF-8" standalone="no"?>
<!DOCTYPE svg PUBLIC "-//W3C//DTD SVG 1.1//EN"
 "http://www.w3.org/Graphics/SVG/1.1/DTD/svg11.dtd">
<!-- Generated by graphviz version 2.43.0 (0)
 -->
<!-- Title: HeartEventHandler Pages: 1 -->
<svg width="529pt" height="1038pt"
 viewBox="0.00 0.00 528.92 1038.00" xmlns="http://www.w3.org/2000/svg" xmlns:xlink="http://www.w3.org/1999/xlink">
<g id="graph0" class="graph" transform="scale(1 1) rotate(0) translate(4 1034)">
<title>HeartEventHandler</title>
<!-- Node1 -->
<g id="Node000001" class="node">
<title>Node1</title>
<g id="a_Node000001"><a xlink:title=" ">
<polygon fill="#999999" stroke="transparent" points="386.92,-49 282.92,-49 282.92,0 386.92,0 386.92,-49"/>
<text text-anchor="start" x="287.92" y="-36.5" font-family="Helvetica,sans-Serif" font-size="10.00">HeartEventHandler</text>
<text text-anchor="start" x="332.92" y="-21.5" font-family="Helvetica,sans-Serif" font-size="10.00"> </text>
<text text-anchor="start" x="332.92" y="-6.5" font-family="Helvetica,sans-Serif" font-size="10.00"> </text>
<polygon fill="#666666" stroke="#666666" points="282.92,-31.5 282.92,-31.5 386.92,-31.5 386.92,-31.5 282.92,-31.5"/>
<polygon fill="#666666" stroke="#666666" points="282.92,-16.5 282.92,-16.5 386.92,-16.5 386.92,-16.5 282.92,-16.5"/>
<polygon fill="none" stroke="#666666" points="282.92,0 282.92,-49 386.92,-49 386.92,0 282.92,0"/>
</a>
</g>
</g>
<!-- Node2 -->
<g id="Node000002" class="node">
<title>Node2</title>
<g id="a_Node000002"><a xlink:href="classGenericEventHandler.html" target="_top" xlink:title=" ">
<polygon fill="white" stroke="transparent" points="346.92,-486 162.92,-486 162.92,-96 346.92,-96 346.92,-486"/>
<text text-anchor="start" x="187.92" y="-474" font-family="Helvetica,sans-Serif" font-size="10.00">GenericEventHandler</text>
<text text-anchor="start" x="187.92" y="-463" font-family="Helvetica,sans-Serif" font-size="10.00">&lt; 16, HeartEventHandler &gt;</text>
<text text-anchor="start" x="252.92" y="-448" font-family="Helvetica,sans-Serif" font-size="10.00"> </text>
<text text-anchor="start" x="166.92" y="-433" font-family="Helvetica,sans-Serif" font-size="10.00">+</text>
<text text-anchor="start" x="179.92" y="-433" font-family="Helvetica,sans-Serif" font-size="10.00">Instance()</text>
<text text-anchor="start" x="166.92" y="-418" font-family="Helvetica,sans-Serif" font-size="10.00">+</text>
<text text-anchor="start" x="179.92" y="-418" font-family="Helvetica,sans-Serif" font-size="10.00">Reset()</text>
<text text-anchor="start" x="166.92" y="-403" font-family="Helvetica,sans-Serif" font-size="10.00">+</text>
<text text-anchor="start" x="179.92" y="-403" font-family="Helvetica,sans-Serif" font-size="10.00">BeginEvent()</text>
<text text-anchor="start" x="166.92" y="-388" font-family="Helvetica,sans-Serif" font-size="10.00">+</text>
<text text-anchor="start" x="179.92" y="-388" font-family="Helvetica,sans-Serif" font-size="10.00">EndEvent()</text>
<text text-anchor="start" x="166.92" y="-373" font-family="Helvetica,sans-Serif" font-size="10.00">+</text>
<text text-anchor="start" x="179.92" y="-373" font-family="Helvetica,sans-Serif" font-size="10.00">GetElapsedTime()</text>
<text text-anchor="start" x="166.92" y="-358" font-family="Helvetica,sans-Serif" font-size="10.00">+</text>
<text text-anchor="start" x="179.92" y="-358" font-family="Helvetica,sans-Serif" font-size="10.00">Report()</text>
<text text-anchor="start" x="166.92" y="-343" font-family="Helvetica,sans-Serif" font-size="10.00">+</text>
<text text-anchor="start" x="179.92" y="-343" font-family="Helvetica,sans-Serif" font-size="10.00">Headings()</text>
<text text-anchor="start" x="166.92" y="-328" font-family="Helvetica,sans-Serif" font-size="10.00">+</text>
<text text-anchor="start" x="179.92" y="-328" font-family="Helvetica,sans-Serif" font-size="10.00">Enable()</text>
<text text-anchor="start" x="166.92" y="-313" font-family="Helvetica,sans-Serif" font-size="10.00">+</text>
<text text-anchor="start" x="179.92" y="-313" font-family="Helvetica,sans-Serif" font-size="10.00">Disable()</text>
<text text-anchor="start" x="166.92" y="-298" font-family="Helvetica,sans-Serif" font-size="10.00">+</text>
<text text-anchor="start" x="179.92" y="-298" font-family="Helvetica,sans-Serif" font-size="10.00">IsEnabled()</text>
<text text-anchor="start" x="166.92" y="-283" font-family="Helvetica,sans-Serif" font-size="10.00">#</text>
<text text-anchor="start" x="179.92" y="-283" font-family="Helvetica,sans-Serif" font-size="10.00">GenericEventHandler()</text>
<text text-anchor="start" x="169.42" y="-268" font-family="Helvetica,sans-Serif" font-size="10.00">&#45;</text>
<text text-anchor="start" x="179.92" y="-268" font-family="Helvetica,sans-Serif" font-size="10.00">ConvertWallTimeToMilliseconds()</text>
<text text-anchor="start" x="169.42" y="-253" font-family="Helvetica,sans-Serif" font-size="10.00">&#45;</text>
<text text-anchor="start" x="179.92" y="-253" font-family="Helvetica,sans-Serif" font-size="10.00">ConvertWallTimeToSeconds()</text>
<text text-anchor="start" x="169.42" y="-238" font-family="Helvetica,sans-Serif" font-size="10.00">&#45;</text>
<text text-anchor="start" x="179.92" y="-238" font-family="Helvetica,sans-Serif" font-size="10.00">ResetImpl()</text>
<text text-anchor="start" x="169.42" y="-223" font-family="Helvetica,sans-Serif" font-size="10.00">&#45;</text>
<text text-anchor="start" x="179.92" y="-223" font-family="Helvetica,sans-Serif" font-size="10.00">BeginEventImpl()</text>
<text text-anchor="start" x="169.42" y="-208" font-family="Helvetica,sans-Serif" font-size="10.00">&#45;</text>
<text text-anchor="start" x="179.92" y="-208" font-family="Helvetica,sans-Serif" font-size="10.00">EndEventImpl()</text>
<text text-anchor="start" x="169.42" y="-193" font-family="Helvetica,sans-Serif" font-size="10.00">&#45;</text>
<text text-anchor="start" x="179.92" y="-193" font-family="Helvetica,sans-Serif" font-size="10.00">GetElapsedTimeImpl()</text>
<text text-anchor="start" x="169.42" y="-178" font-family="Helvetica,sans-Serif" font-size="10.00">&#45;</text>
<text text-anchor="start" x="179.92" y="-178" font-family="Helvetica,sans-Serif" font-size="10.00">ReportImpl()</text>
<text text-anchor="start" x="169.42" y="-163" font-family="Helvetica,sans-Serif" font-size="10.00">&#45;</text>
<text text-anchor="start" x="179.92" y="-163" font-family="Helvetica,sans-Serif" font-size="10.00">HeadingsImpl()</text>
<text text-anchor="start" x="169.42" y="-148" font-family="Helvetica,sans-Serif" font-size="10.00">&#45;</text>
<text text-anchor="start" x="179.92" y="-148" font-family="Helvetica,sans-Serif" font-size="10.00">EnableImpl()</text>
<text text-anchor="start" x="169.42" y="-133" font-family="Helvetica,sans-Serif" font-size="10.00">&#45;</text>
<text text-anchor="start" x="179.92" y="-133" font-family="Helvetica,sans-Serif" font-size="10.00">DisableImpl()</text>
<text text-anchor="start" x="169.42" y="-118" font-family="Helvetica,sans-Serif" font-size="10.00">&#45;</text>
<text text-anchor="start" x="179.92" y="-118" font-family="Helvetica,sans-Serif" font-size="10.00">IsEnabledImpl()</text>
<text text-anchor="start" x="169.42" y="-103" font-family="Helvetica,sans-Serif" font-size="10.00">&#45;</text>
<text text-anchor="start" x="179.92" y="-103" font-family="Helvetica,sans-Serif" font-size="10.00">MilliSleep()</text>
<polygon fill="#666666" stroke="#666666" points="162.92,-458 162.92,-458 346.92,-458 346.92,-458 162.92,-458"/>
<polygon fill="#666666" stroke="#666666" points="162.92,-443 162.92,-443 346.92,-443 346.92,-443 162.92,-443"/>
<polygon fill="none" stroke="#666666" points="162.92,-96 162.92,-486 346.92,-486 346.92,-96 162.92,-96"/>
</a>
</g>
</g>
<!-- Node2&#45;&gt;Node1 -->
<g id="edge1_Node000001_Node000002" class="edge">
<title>Node2&#45;&gt;Node1</title>
<g id="a_edge1_Node000001_Node000002"><a xlink:title=" ">
<path fill="none" stroke="#63b8ff" d="M316.71,-85.72C320.96,-71.66 324.74,-59.17 327.73,-49.26"/>
<polygon fill="none" stroke="#63b8ff" points="313.24,-85.1 313.69,-95.69 319.94,-87.13 313.24,-85.1"/>
</a>
</g>
</g>
<!-- Node3 -->
<g id="Node000003" class="node">
<title>Node3</title>
<g id="a_Node000003"><a xlink:title=" ">
<polygon fill="white" stroke="transparent" points="128.42,-1030 31.42,-1030 31.42,-981 128.42,-981 128.42,-1030"/>
<text text-anchor="start" x="36.92" y="-1017.5" font-family="Helvetica,sans-Serif" font-size="10.00">vector&lt; double &gt;</text>
<text text-anchor="start" x="78.42" y="-1002.5" font-family="Helvetica,sans-Serif" font-size="10.00"> </text>
<text text-anchor="start" x="78.42" y="-987.5" font-family="Helvetica,sans-Serif" font-size="10.00"> </text>
<polygon fill="#bfbfbf" stroke="#bfbfbf" points="31.92,-1012.5 31.92,-1012.5 128.92,-1012.5 128.92,-1012.5 31.92,-1012.5"/>
<polygon fill="#bfbfbf" stroke="#bfbfbf" points="31.92,-997.5 31.92,-997.5 128.92,-997.5 128.92,-997.5 31.92,-997.5"/>
<polygon fill="none" stroke="#bfbfbf" points="31.42,-981 31.42,-1030 128.42,-1030 128.42,-981 31.42,-981"/>
</a>
</g>
</g>
<!-- Node3&#45;&gt;Node2 -->
<g id="edge2_Node000002_Node000003" class="edge">
<title>Node3&#45;&gt;Node2</title>
<g id="a_edge2_Node000002_Node000003"><a xlink:title=" ">
<path fill="none" stroke="#63b8ff" d="M64.2,-980.68C54.83,-965.01 43.82,-943.65 38.92,-923 -1.11,-754.35 -23.01,-694.89 38.92,-533 62.45,-471.5 109.7,-415.81 154.02,-373.49"/>
<polygon fill="none" stroke="#63b8ff" points="154.09,-373.42 155.73,-366.4 162.84,-365.21 161.2,-372.23 154.09,-373.42"/>
</a>
</g>
<text text-anchor="middle" x="70.42" y="-725.5" font-family="Helvetica,sans-Serif" font-size="10.00" fill="grey"> &#45;mWallTime</text>
</g>
<!-- Node6 -->
<g id="Node000006" class="node">
<title>Node6</title>
<g id="a_Node000006"><a xlink:href="classGenericEventHandler.html" target="_top" xlink:title=" ">
<polygon fill="white" stroke="transparent" points="294.92,-923 110.92,-923 110.92,-533 294.92,-533 294.92,-923"/>
<text text-anchor="start" x="127.92" y="-911" font-family="Helvetica,sans-Serif" font-size="10.00">GenericEventHandler</text>
<text text-anchor="start" x="127.92" y="-900" font-family="Helvetica,sans-Serif" font-size="10.00">&lt; NUM_EVENTS, CONCRETE &gt;</text>
<text text-anchor="start" x="200.92" y="-885" font-family="Helvetica,sans-Serif" font-size="10.00"> </text>
<text text-anchor="start" x="114.92" y="-870" font-family="Helvetica,sans-Serif" font-size="10.00">+</text>
<text text-anchor="start" x="127.92" y="-870" font-family="Helvetica,sans-Serif" font-size="10.00">Instance()</text>
<text text-anchor="start" x="114.92" y="-855" font-family="Helvetica,sans-Serif" font-size="10.00">+</text>
<text text-anchor="start" x="127.92" y="-855" font-family="Helvetica,sans-Serif" font-size="10.00">Reset()</text>
<text text-anchor="start" x="114.92" y="-840" font-family="Helvetica,sans-Serif" font-size="10.00">+</text>
<text text-anchor="start" x="127.92" y="-840" font-family="Helvetica,sans-Serif" font-size="10.00">BeginEvent()</text>
<text text-anchor="start" x="114.92" y="-825" font-family="Helvetica,sans-Serif" font-size="10.00">+</text>
<text text-anchor="start" x="127.92" y="-825" font-family="Helvetica,sans-Serif" font-size="10.00">EndEvent()</text>
<text text-anchor="start" x="114.92" y="-810" font-family="Helvetica,sans-Serif" font-size="10.00">+</text>
<text text-anchor="start" x="127.92" y="-810" font-family="Helvetica,sans-Serif" font-size="10.00">GetElapsedTime()</text>
<text text-anchor="start" x="114.92" y="-795" font-family="Helvetica,sans-Serif" font-size="10.00">+</text>
<text text-anchor="start" x="127.92" y="-795" font-family="Helvetica,sans-Serif" font-size="10.00">Report()</text>
<text text-anchor="start" x="114.92" y="-780" font-family="Helvetica,sans-Serif" font-size="10.00">+</text>
<text text-anchor="start" x="127.92" y="-780" font-family="Helvetica,sans-Serif" font-size="10.00">Headings()</text>
<text text-anchor="start" x="114.92" y="-765" font-family="Helvetica,sans-Serif" font-size="10.00">+</text>
<text text-anchor="start" x="127.92" y="-765" font-family="Helvetica,sans-Serif" font-size="10.00">Enable()</text>
<text text-anchor="start" x="114.92" y="-750" font-family="Helvetica,sans-Serif" font-size="10.00">+</text>
<text text-anchor="start" x="127.92" y="-750" font-family="Helvetica,sans-Serif" font-size="10.00">Disable()</text>
<text text-anchor="start" x="114.92" y="-735" font-family="Helvetica,sans-Serif" font-size="10.00">+</text>
<text text-anchor="start" x="127.92" y="-735" font-family="Helvetica,sans-Serif" font-size="10.00">IsEnabled()</text>
<text text-anchor="start" x="114.92" y="-720" font-family="Helvetica,sans-Serif" font-size="10.00">#</text>
<text text-anchor="start" x="127.92" y="-720" font-family="Helvetica,sans-Serif" font-size="10.00">GenericEventHandler()</text>
<text text-anchor="start" x="117.42" y="-705" font-family="Helvetica,sans-Serif" font-size="10.00">&#45;</text>
<text text-anchor="start" x="127.92" y="-705" font-family="Helvetica,sans-Serif" font-size="10.00">ConvertWallTimeToMilliseconds()</text>
<text text-anchor="start" x="117.42" y="-690" font-family="Helvetica,sans-Serif" font-size="10.00">&#45;</text>
<text text-anchor="start" x="127.92" y="-690" font-family="Helvetica,sans-Serif" font-size="10.00">ConvertWallTimeToSeconds()</text>
<text text-anchor="start" x="117.42" y="-675" font-family="Helvetica,sans-Serif" font-size="10.00">&#45;</text>
<text text-anchor="start" x="127.92" y="-675" font-family="Helvetica,sans-Serif" font-size="10.00">ResetImpl()</text>
<text text-anchor="start" x="117.42" y="-660" font-family="Helvetica,sans-Serif" font-size="10.00">&#45;</text>
<text text-anchor="start" x="127.92" y="-660" font-family="Helvetica,sans-Serif" font-size="10.00">BeginEventImpl()</text>
<text text-anchor="start" x="117.42" y="-645" font-family="Helvetica,sans-Serif" font-size="10.00">&#45;</text>
<text text-anchor="start" x="127.92" y="-645" font-family="Helvetica,sans-Serif" font-size="10.00">EndEventImpl()</text>
<text text-anchor="start" x="117.42" y="-630" font-family="Helvetica,sans-Serif" font-size="10.00">&#45;</text>
<text text-anchor="start" x="127.92" y="-630" font-family="Helvetica,sans-Serif" font-size="10.00">GetElapsedTimeImpl()</text>
<text text-anchor="start" x="117.42" y="-615" font-family="Helvetica,sans-Serif" font-size="10.00">&#45;</text>
<text text-anchor="start" x="127.92" y="-615" font-family="Helvetica,sans-Serif" font-size="10.00">ReportImpl()</text>
<text text-anchor="start" x="117.42" y="-600" font-family="Helvetica,sans-Serif" font-size="10.00">&#45;</text>
<text text-anchor="start" x="127.92" y="-600" font-family="Helvetica,sans-Serif" font-size="10.00">HeadingsImpl()</text>
<text text-anchor="start" x="117.42" y="-585" font-family="Helvetica,sans-Serif" font-size="10.00">&#45;</text>
<text text-anchor="start" x="127.92" y="-585" font-family="Helvetica,sans-Serif" font-size="10.00">EnableImpl()</text>
<text text-anchor="start" x="117.42" y="-570" font-family="Helvetica,sans-Serif" font-size="10.00">&#45;</text>
<text text-anchor="start" x="127.92" y="-570" font-family="Helvetica,sans-Serif" font-size="10.00">DisableImpl()</text>
<text text-anchor="start" x="117.42" y="-555" font-family="Helvetica,sans-Serif" font-size="10.00">&#45;</text>
<text text-anchor="start" x="127.92" y="-555" font-family="Helvetica,sans-Serif" font-size="10.00">IsEnabledImpl()</text>
<text text-anchor="start" x="117.42" y="-540" font-family="Helvetica,sans-Serif" font-size="10.00">&#45;</text>
<text text-anchor="start" x="127.92" y="-540" font-family="Helvetica,sans-Serif" font-size="10.00">MilliSleep()</text>
<polygon fill="#666666" stroke="#666666" points="110.92,-895 110.92,-895 294.92,-895 294.92,-895 110.92,-895"/>
<polygon fill="#666666" stroke="#666666" points="110.92,-880 110.92,-880 294.92,-880 294.92,-880 110.92,-880"/>
<polygon fill="none" stroke="#666666" points="110.92,-533 110.92,-923 294.92,-923 294.92,-533 110.92,-533"/>
</a>
</g>
</g>
<!-- Node3&#45;&gt;Node6 -->
<g id="edge6_Node000006_Node000003" class="edge">
<title>Node3&#45;&gt;Node6</title>
<g id="a_edge6_Node000006_Node000003"><a xlink:title=" ">
<path fill="none" stroke="#63b8ff" d="M90.62,-980.53C96.04,-968.39 103.19,-952.39 111.25,-934.32"/>
<polygon fill="none" stroke="#63b8ff" points="111.35,-934.1 110.14,-927 116.24,-923.15 117.45,-930.26 111.35,-934.1"/>
</a>
</g>
<text text-anchor="middle" x="138.42" y="-949.5" font-family="Helvetica,sans-Serif" font-size="10.00" fill="grey"> &#45;mWallTime</text>
</g>
<!-- Node4 -->
<g id="Node000004" class="node">
<title>Node4</title>
<g id="a_Node000004"><a xlink:title=" ">
<polygon fill="white" stroke="transparent" points="447.42,-1030 362.42,-1030 362.42,-981 447.42,-981 447.42,-1030"/>
<text text-anchor="start" x="367.92" y="-1017.5" font-family="Helvetica,sans-Serif" font-size="10.00">vector&lt; bool &gt;</text>
<text text-anchor="start" x="403.42" y="-1002.5" font-family="Helvetica,sans-Serif" font-size="10.00"> </text>
<text text-anchor="start" x="403.42" y="-987.5" font-family="Helvetica,sans-Serif" font-size="10.00"> </text>
<polygon fill="#bfbfbf" stroke="#bfbfbf" points="362.92,-1012.5 362.92,-1012.5 447.92,-1012.5 447.92,-1012.5 362.92,-1012.5"/>
<polygon fill="#bfbfbf" stroke="#bfbfbf" points="362.92,-997.5 362.92,-997.5 447.92,-997.5 447.92,-997.5 362.92,-997.5"/>
<polygon fill="none" stroke="#bfbfbf" points="362.42,-981 362.42,-1030 447.42,-1030 447.42,-981 362.42,-981"/>
</a>
</g>
</g>
<!-- Node4&#45;&gt;Node2 -->
<g id="edge3_Node000002_Node000004" class="edge">
<title>Node4&#45;&gt;Node2</title>
<g id="a_edge3_Node000002_Node000004"><a xlink:title=" ">
<path fill="none" stroke="#63b8ff" d="M414.42,-980.7C416.28,-974.99 417.96,-968.85 418.92,-963 420.5,-953.35 418.93,-950.78 418.92,-941 418.7,-759.67 498.8,-695.3 417.92,-533 402.5,-502.05 378.22,-512.42 355.92,-486 355.55,-485.56 355.19,-485.13 354.82,-484.69"/>
<polygon fill="none" stroke="#63b8ff" points="354.77,-484.63 347.9,-482.45 347.26,-475.27 354.14,-477.45 354.77,-484.63"/>
</a>
</g>
<text text-anchor="middle" x="487.42" y="-725.5" font-family="Helvetica,sans-Serif" font-size="10.00" fill="grey"> &#45;mHasBegun</text>
</g>
<!-- Node4&#45;&gt;Node6 -->
<g id="edge7_Node000006_Node000004" class="edge">
<title>Node4&#45;&gt;Node6</title>
<g id="a_edge7_Node000006_Node000004"><a xlink:title=" ">
<path fill="none" stroke="#63b8ff" d="M371.09,-980.72C351.34,-965.71 326.87,-945.04 308.92,-923 306.7,-920.28 304.51,-917.51 302.34,-914.69"/>
<polygon fill="none" stroke="#63b8ff" points="302.24,-914.55 295.45,-912.14 295.07,-904.94 301.86,-907.35 302.24,-914.55"/>
</a>
</g>
<text text-anchor="middle" x="381.42" y="-949.5" font-family="Helvetica,sans-Serif" font-size="10.00" fill="grey"> &#45;mHasBegun</text>
</g>
<!-- Node5 -->
<g id="Node000005" class="node">
<title>Node5</title>
<g id="a_Node000005"><a xlink:href="classbool.html" target="_top" xlink:title=" ">
<polygon fill="white" stroke="transparent" points="294.92,-1030 262.92,-1030 262.92,-981 294.92,-981 294.92,-1030"/>
<text text-anchor="start" x="267.92" y="-1017.5" font-family="Helvetica,sans-Serif" font-size="10.00">bool</text>
<text text-anchor="start" x="276.92" y="-1002.5" font-family="Helvetica,sans-Serif" font-size="10.00"> </text>
<text text-anchor="start" x="276.92" y="-987.5" font-family="Helvetica,sans-Serif" font-size="10.00"> </text>
<polygon fill="#bfbfbf" stroke="#bfbfbf" points="262.92,-1012.5 262.92,-1012.5 294.92,-1012.5 294.92,-1012.5 262.92,-1012.5"/>
<polygon fill="#bfbfbf" stroke="#bfbfbf" points="262.92,-997.5 262.92,-997.5 294.92,-997.5 294.92,-997.5 262.92,-997.5"/>
<polygon fill="none" stroke="#bfbfbf" points="262.92,-981 262.92,-1030 294.92,-1030 294.92,-981 262.92,-981"/>
</a>
</g>
</g>
<!-- Node5&#45;&gt;Node2 -->
<g id="edge4_Node000002_Node000005" class="edge">
<title>Node5&#45;&gt;Node2</title>
<g id="a_edge4_Node000002_Node000005"><a xlink:title=" ">
<path fill="none" stroke="#63b8ff" d="M295.31,-991.78C303.48,-984.38 312.53,-974.29 316.92,-963 390.82,-772.86 345.84,-705.94 316.92,-504 316.64,-502.07 316.35,-500.13 316.05,-498.19"/>
<polygon fill="none" stroke="#63b8ff" points="316.02,-498.02 311.08,-492.76 314.03,-486.18 318.97,-491.44 316.02,-498.02"/>
</a>
</g>
<text text-anchor="middle" x="385.92" y="-731" font-family="Helvetica,sans-Serif" font-size="10.00" fill="grey"> &#45;mEnabled</text>
<text text-anchor="middle" x="385.92" y="-720" font-family="Helvetica,sans-Serif" font-size="10.00" fill="grey">&#45;mInUse</text>
</g>
<!-- Node5&#45;&gt;Node6 -->
<g id="edge8_Node000006_Node000005" class="edge">
<title>Node5&#45;&gt;Node6</title>
<g id="a_edge8_Node000006_Node000005"><a xlink:title=" ">
<path fill="none" stroke="#63b8ff" d="M267.76,-980.63C265.32,-974.92 262.88,-968.8 260.92,-963 257.82,-953.84 254.81,-944.43 251.9,-934.88"/>
<polygon fill="none" stroke="#63b8ff" points="251.83,-934.67 246.28,-930.07 248.39,-923.18 253.94,-927.78 251.83,-934.67"/>
</a>
</g>
<text text-anchor="middle" x="288.92" y="-955" font-family="Helvetica,sans-Serif" font-size="10.00" fill="grey"> &#45;mEnabled</text>
<text text-anchor="middle" x="288.92" y="-944" font-family="Helvetica,sans-Serif" font-size="10.00" fill="grey">&#45;mInUse</text>
</g>
<!-- Node6&#45;&gt;Node2 -->
<g id="edge5_Node000002_Node000006" class="edge">
<title>Node6&#45;&gt;Node2</title>
<g id="a_edge5_Node000002_Node000006"><a xlink:title=" ">
<path fill="none" stroke="orange" d="M177.39,-522.78C178.03,-516.44 178.86,-510.17 179.92,-504 180.93,-498.13 182.08,-492.21 183.36,-486.26"/>
<polygon fill="orange" stroke="orange" points="173.9,-522.54 176.55,-532.79 180.88,-523.12 173.9,-522.54"/>
</a>
</g>
<text text-anchor="middle" x="248.42" y="-507" font-family="Helvetica,sans-Serif" font-size="10.00" fill="grey"> &lt; 16, HeartEventHandler &gt;</text>
</g>
<!-- Node7 -->
<g id="Node000007" class="node">
<title>Node7</title>
<g id="a_Node000007"><a xlink:title=" ">
<polygon fill="white" stroke="transparent" points="464.42,-315.5 365.42,-315.5 365.42,-266.5 464.42,-266.5 464.42,-315.5"/>
<text text-anchor="start" x="370.92" y="-303" font-family="Helvetica,sans-Serif" font-size="10.00">static const char *</text>
<text text-anchor="start" x="413.42" y="-288" font-family="Helvetica,sans-Serif" font-size="10.00"> </text>
<text text-anchor="start" x="413.42" y="-273" font-family="Helvetica,sans-Serif" font-size="10.00"> </text>
<polygon fill="#bfbfbf" stroke="#bfbfbf" points="365.92,-298 365.92,-298 464.92,-298 464.92,-298 365.92,-298"/>
<polygon fill="#bfbfbf" stroke="#bfbfbf" points="365.92,-283 365.92,-283 464.92,-283 464.92,-283 365.92,-283"/>
<polygon fill="none" stroke="#bfbfbf" points="365.42,-266.5 365.42,-315.5 464.42,-315.5 464.42,-266.5 365.42,-266.5"/>
</a>
</g>
</g>
<!-- Node7&#45;&gt;Node1 -->
<g id="edge9_Node000001_Node000007" class="edge">
<title>Node7&#45;&gt;Node1</title>
<g id="a_edge9_Node000001_Node000007"><a xlink:title=" ">
<path fill="none" stroke="#63b8ff" d="M407.68,-266.06C393.52,-219.24 362.1,-115.38 345.57,-60.71"/>
<polygon fill="none" stroke="#63b8ff" points="345.56,-60.68 340,-56.1 342.09,-49.19 347.65,-53.78 345.56,-60.68"/>
</a>
</g>
<text text-anchor="middle" x="385.42" y="-70" font-family="Helvetica,sans-Serif" font-size="10.00" fill="grey"> +EventName</text>
</g>
</g>
</svg>
