<?xml version="1.0" encoding="UTF-8" standalone="no"?>
<!DOCTYPE svg PUBLIC "-//W3C//DTD SVG 1.1//EN"
 "http://www.w3.org/Graphics/SVG/1.1/DTD/svg11.dtd">
<!-- Generated by graphviz version 2.43.0 (0)
 -->
<!-- Title: AbstractMeshReader&lt; ELEMENT_DIM, SPACE_DIM &gt;::NodeIterator Pages: 1 -->
<svg width="744pt" height="298pt"
 viewBox="0.00 0.00 744.00 298.00" xmlns="http://www.w3.org/2000/svg" xmlns:xlink="http://www.w3.org/1999/xlink">
<g id="graph0" class="graph" transform="scale(1 1) rotate(0) translate(4 294)">
<title>AbstractMeshReader&lt; ELEMENT_DIM, SPACE_DIM &gt;::NodeIterator</title>
<!-- Node1 -->
<g id="Node000001" class="node">
<title>Node1</title>
<g id="a_Node000001"><a xlink:title=" ">
<polygon fill="#999999" stroke="transparent" points="445,-161 316,-161 316,0 445,0 445,-161"/>
<text text-anchor="start" x="321.5" y="-148.5" font-family="Helvetica,sans-Serif" font-size="10.00">AbstractMeshReader</text>
<text text-anchor="start" x="321.5" y="-137.5" font-family="Helvetica,sans-Serif" font-size="10.00">&lt; ELEMENT_DIM, SPACE</text>
<text text-anchor="start" x="329" y="-126.5" font-family="Helvetica,sans-Serif" font-size="10.00">_DIM &gt;::NodeIterator</text>
<text text-anchor="start" x="379" y="-111.5" font-family="Helvetica,sans-Serif" font-size="10.00"> </text>
<text text-anchor="start" x="330" y="-96.5" font-family="Helvetica,sans-Serif" font-size="10.00">+</text>
<text text-anchor="start" x="352.5" y="-96.5" font-family="Helvetica,sans-Serif" font-size="10.00">NodeIterator()</text>
<text text-anchor="start" x="330" y="-81.5" font-family="Helvetica,sans-Serif" font-size="10.00">+</text>
<text text-anchor="start" x="352.5" y="-81.5" font-family="Helvetica,sans-Serif" font-size="10.00">NodeIterator()</text>
<text text-anchor="start" x="330" y="-66.5" font-family="Helvetica,sans-Serif" font-size="10.00">+</text>
<text text-anchor="start" x="352.5" y="-66.5" font-family="Helvetica,sans-Serif" font-size="10.00">GetIndex()</text>
<text text-anchor="start" x="332.5" y="-51.5" font-family="Helvetica,sans-Serif" font-size="10.00">&#45;</text>
<text text-anchor="start" x="352.5" y="-51.5" font-family="Helvetica,sans-Serif" font-size="10.00">CacheData()</text>
<text text-anchor="start" x="332.5" y="-36.5" font-family="Helvetica,sans-Serif" font-size="10.00">&#45;</text>
<text text-anchor="start" x="352.5" y="-36.5" font-family="Helvetica,sans-Serif" font-size="10.00">increment()</text>
<text text-anchor="start" x="332.5" y="-21.5" font-family="Helvetica,sans-Serif" font-size="10.00">&#45;</text>
<text text-anchor="start" x="352.5" y="-21.5" font-family="Helvetica,sans-Serif" font-size="10.00">equal()</text>
<text text-anchor="start" x="332.5" y="-6.5" font-family="Helvetica,sans-Serif" font-size="10.00">&#45;</text>
<text text-anchor="start" x="352.5" y="-6.5" font-family="Helvetica,sans-Serif" font-size="10.00">dereference()</text>
<polygon fill="#666666" stroke="#666666" points="316.5,-121.5 316.5,-121.5 445.5,-121.5 445.5,-121.5 316.5,-121.5"/>
<polygon fill="#666666" stroke="#666666" points="316.5,-106.5 316.5,-106.5 445.5,-106.5 445.5,-106.5 316.5,-106.5"/>
<polygon fill="none" stroke="#666666" points="316,0 316,-161 445,-161 445,0 316,0"/>
</a>
</g>
</g>
<!-- Node2 -->
<g id="Node000002" class="node">
<title>Node2</title>
<g id="a_Node000002"><a xlink:title=" ">
<polygon fill="white" stroke="transparent" points="185,-290 0,-290 0,-208 185,-208 185,-290"/>
<text text-anchor="start" x="5.5" y="-278" font-family="Helvetica,sans-Serif" font-size="10.00">boost::iterator_facade</text>
<text text-anchor="start" x="5.5" y="-267" font-family="Helvetica,sans-Serif" font-size="10.00">&lt; NodeIterator, const</text>
<text text-anchor="start" x="5.5" y="-256" font-family="Helvetica,sans-Serif" font-size="10.00"> std::vector&lt; double &gt;,</text>
<text text-anchor="start" x="5.5" y="-245" font-family="Helvetica,sans-Serif" font-size="10.00"> boost::single_pass_traversal_tag &gt;</text>
<text text-anchor="start" x="91" y="-230" font-family="Helvetica,sans-Serif" font-size="10.00"> </text>
<text text-anchor="start" x="91" y="-215" font-family="Helvetica,sans-Serif" font-size="10.00"> </text>
<polygon fill="#bfbfbf" stroke="#bfbfbf" points="0.5,-240 0.5,-240 185.5,-240 185.5,-240 0.5,-240"/>
<polygon fill="#bfbfbf" stroke="#bfbfbf" points="0.5,-225 0.5,-225 185.5,-225 185.5,-225 0.5,-225"/>
<polygon fill="none" stroke="#bfbfbf" points="0,-208 0,-290 185,-290 185,-208 0,-208"/>
</a>
</g>
</g>
<!-- Node2&#45;&gt;Node1 -->
<g id="edge1_Node000001_Node000002" class="edge">
<title>Node2&#45;&gt;Node1</title>
<g id="a_edge1_Node000001_Node000002"><a xlink:title=" ">
<path fill="none" stroke="#63b8ff" d="M170.78,-202.74C216.22,-176.47 272.77,-143.78 315.7,-118.96"/>
<polygon fill="none" stroke="#63b8ff" points="168.76,-199.87 161.85,-207.91 172.26,-205.93 168.76,-199.87"/>
</a>
</g>
</g>
<!-- Node3 -->
<g id="Node000003" class="node">
<title>Node3</title>
<g id="a_Node000003"><a xlink:href="classunsigned.html" target="_top" xlink:title=" ">
<polygon fill="white" stroke="transparent" points="258,-273.5 203,-273.5 203,-224.5 258,-224.5 258,-273.5"/>
<text text-anchor="start" x="208.5" y="-261" font-family="Helvetica,sans-Serif" font-size="10.00">unsigned</text>
<text text-anchor="start" x="229" y="-246" font-family="Helvetica,sans-Serif" font-size="10.00"> </text>
<text text-anchor="start" x="229" y="-231" font-family="Helvetica,sans-Serif" font-size="10.00"> </text>
<polygon fill="#bfbfbf" stroke="#bfbfbf" points="203.5,-256 203.5,-256 258.5,-256 258.5,-256 203.5,-256"/>
<polygon fill="#bfbfbf" stroke="#bfbfbf" points="203.5,-241 203.5,-241 258.5,-241 258.5,-241 203.5,-241"/>
<polygon fill="none" stroke="#bfbfbf" points="203,-224.5 203,-273.5 258,-273.5 258,-224.5 203,-224.5"/>
</a>
</g>
</g>
<!-- Node3&#45;&gt;Node1 -->
<g id="edge2_Node000001_Node000003" class="edge">
<title>Node3&#45;&gt;Node1</title>
<g id="a_edge2_Node000001_Node000003"><a xlink:title=" ">
<path fill="none" stroke="#63b8ff" d="M251.82,-224.31C256.65,-218.95 261.75,-213.28 266.5,-208 279.9,-193.13 294.18,-177.27 307.95,-161.99"/>
<polygon fill="none" stroke="#63b8ff" points="307.95,-161.99 308.99,-154.85 315.98,-153.08 314.94,-160.21 307.95,-161.99"/>
</a>
</g>
<text text-anchor="middle" x="313.5" y="-182" font-family="Helvetica,sans-Serif" font-size="10.00" fill="grey"> &#45;mIndex</text>
</g>
<!-- Node4 -->
<g id="Node000004" class="node">
<title>Node4</title>
<g id="a_Node000004"><a xlink:title=" ">
<polygon fill="white" stroke="transparent" points="377,-273.5 276,-273.5 276,-224.5 377,-224.5 377,-273.5"/>
<text text-anchor="start" x="281.5" y="-261" font-family="Helvetica,sans-Serif" font-size="10.00">set&lt; unsigned &gt; *</text>
<text text-anchor="start" x="325" y="-246" font-family="Helvetica,sans-Serif" font-size="10.00"> </text>
<text text-anchor="start" x="325" y="-231" font-family="Helvetica,sans-Serif" font-size="10.00"> </text>
<polygon fill="#bfbfbf" stroke="#bfbfbf" points="276.5,-256 276.5,-256 377.5,-256 377.5,-256 276.5,-256"/>
<polygon fill="#bfbfbf" stroke="#bfbfbf" points="276.5,-241 276.5,-241 377.5,-241 377.5,-241 276.5,-241"/>
<polygon fill="none" stroke="#bfbfbf" points="276,-224.5 276,-273.5 377,-273.5 377,-224.5 276,-224.5"/>
</a>
</g>
</g>
<!-- Node4&#45;&gt;Node1 -->
<g id="edge3_Node000001_Node000004" class="edge">
<title>Node4&#45;&gt;Node1</title>
<g id="a_edge3_Node000001_Node000004"><a xlink:title=" ">
<path fill="none" stroke="#63b8ff" d="M334.12,-224.5C338.62,-210.63 344.64,-192.07 350.84,-172.94"/>
<polygon fill="none" stroke="#63b8ff" points="350.91,-172.73 348.96,-165.79 354.61,-161.32 356.57,-168.26 350.91,-172.73"/>
</a>
</g>
<text text-anchor="middle" x="377.5" y="-182" font-family="Helvetica,sans-Serif" font-size="10.00" fill="grey"> &#45;mpIndices</text>
</g>
<!-- Node5 -->
<g id="Node000005" class="node">
<title>Node5</title>
<g id="a_Node000005"><a xlink:title=" ">
<polygon fill="white" stroke="transparent" points="473.5,-273.5 395.5,-273.5 395.5,-224.5 473.5,-224.5 473.5,-273.5"/>
<text text-anchor="start" x="400.5" y="-261" font-family="Helvetica,sans-Serif" font-size="10.00">const_iterator</text>
<text text-anchor="start" x="432.5" y="-246" font-family="Helvetica,sans-Serif" font-size="10.00"> </text>
<text text-anchor="start" x="432.5" y="-231" font-family="Helvetica,sans-Serif" font-size="10.00"> </text>
<polygon fill="#bfbfbf" stroke="#bfbfbf" points="395.5,-256 395.5,-256 473.5,-256 473.5,-256 395.5,-256"/>
<polygon fill="#bfbfbf" stroke="#bfbfbf" points="395.5,-241 395.5,-241 473.5,-241 473.5,-241 395.5,-241"/>
<polygon fill="none" stroke="#bfbfbf" points="395.5,-224.5 395.5,-273.5 473.5,-273.5 473.5,-224.5 395.5,-224.5"/>
</a>
</g>
</g>
<!-- Node5&#45;&gt;Node1 -->
<g id="edge4_Node000001_Node000005" class="edge">
<title>Node5&#45;&gt;Node1</title>
<g id="a_edge4_Node000001_Node000005"><a xlink:title=" ">
<path fill="none" stroke="#63b8ff" d="M426.88,-224.5C422.38,-210.63 416.36,-192.07 410.16,-172.94"/>
<polygon fill="none" stroke="#63b8ff" points="410.09,-172.73 404.43,-168.26 406.39,-161.32 412.04,-165.79 410.09,-172.73"/>
</a>
</g>
<text text-anchor="middle" x="458.5" y="-182" font-family="Helvetica,sans-Serif" font-size="10.00" fill="grey"> &#45;mIndicesIterator</text>
</g>
<!-- Node6 -->
<g id="Node000006" class="node">
<title>Node6</title>
<g id="a_Node000006"><a xlink:title=" ">
<polygon fill="white" stroke="transparent" points="621,-284.5 492,-284.5 492,-213.5 621,-213.5 621,-284.5"/>
<text text-anchor="start" x="497.5" y="-272" font-family="Helvetica,sans-Serif" font-size="10.00">AbstractMeshReader</text>
<text text-anchor="start" x="497.5" y="-261" font-family="Helvetica,sans-Serif" font-size="10.00">&lt; ELEMENT_DIM, SPACE</text>
<text text-anchor="start" x="534.5" y="-250" font-family="Helvetica,sans-Serif" font-size="10.00">_DIM &gt; *</text>
<text text-anchor="start" x="555" y="-235" font-family="Helvetica,sans-Serif" font-size="10.00"> </text>
<text text-anchor="start" x="555" y="-220" font-family="Helvetica,sans-Serif" font-size="10.00"> </text>
<polygon fill="#bfbfbf" stroke="#bfbfbf" points="492.5,-245 492.5,-245 621.5,-245 621.5,-245 492.5,-245"/>
<polygon fill="#bfbfbf" stroke="#bfbfbf" points="492.5,-230 492.5,-230 621.5,-230 621.5,-230 492.5,-230"/>
<polygon fill="none" stroke="#bfbfbf" points="492,-213.5 492,-284.5 621,-284.5 621,-213.5 492,-213.5"/>
</a>
</g>
</g>
<!-- Node6&#45;&gt;Node1 -->
<g id="edge5_Node000001_Node000006" class="edge">
<title>Node6&#45;&gt;Node1</title>
<g id="a_edge5_Node000001_Node000006"><a xlink:title=" ">
<path fill="none" stroke="#63b8ff" d="M534.4,-213.49C526.28,-201.96 516.59,-189.41 506.5,-179 490.99,-162.99 472.76,-147.4 455.06,-133.56"/>
<polygon fill="none" stroke="#63b8ff" points="454.81,-133.37 447.62,-132.88 445.3,-126.05 452.5,-126.54 454.81,-133.37"/>
</a>
</g>
<text text-anchor="middle" x="544.5" y="-182" font-family="Helvetica,sans-Serif" font-size="10.00" fill="grey"> &#45;mpReader</text>
</g>
<!-- Node7 -->
<g id="Node000007" class="node">
<title>Node7</title>
<g id="a_Node000007"><a xlink:title=" ">
<polygon fill="white" stroke="transparent" points="736,-273.5 639,-273.5 639,-224.5 736,-224.5 736,-273.5"/>
<text text-anchor="start" x="644.5" y="-261" font-family="Helvetica,sans-Serif" font-size="10.00">vector&lt; double &gt;</text>
<text text-anchor="start" x="686" y="-246" font-family="Helvetica,sans-Serif" font-size="10.00"> </text>
<text text-anchor="start" x="686" y="-231" font-family="Helvetica,sans-Serif" font-size="10.00"> </text>
<polygon fill="#bfbfbf" stroke="#bfbfbf" points="639.5,-256 639.5,-256 736.5,-256 736.5,-256 639.5,-256"/>
<polygon fill="#bfbfbf" stroke="#bfbfbf" points="639.5,-241 639.5,-241 736.5,-241 736.5,-241 639.5,-241"/>
<polygon fill="none" stroke="#bfbfbf" points="639,-224.5 639,-273.5 736,-273.5 736,-224.5 639,-224.5"/>
</a>
</g>
</g>
<!-- Node7&#45;&gt;Node1 -->
<g id="edge6_Node000001_Node000007" class="edge">
<title>Node7&#45;&gt;Node1</title>
<g id="a_edge6_Node000001_Node000007"><a xlink:title=" ">
<path fill="none" stroke="#63b8ff" d="M655.07,-224.31C647.14,-218.78 638.61,-213.04 630.5,-208 574.14,-172.96 506.85,-139.34 456.28,-115.58"/>
<polygon fill="none" stroke="#63b8ff" points="455.98,-115.44 448.85,-116.52 445.11,-110.36 452.24,-109.27 455.98,-115.44"/>
</a>
</g>
<text text-anchor="middle" x="640" y="-182" font-family="Helvetica,sans-Serif" font-size="10.00" fill="grey"> &#45;mLastDataRead</text>
</g>
</g>
</svg>
