<?xml version="1.0" encoding="UTF-8" standalone="no"?>
<!DOCTYPE svg PUBLIC "-//W3C//DTD SVG 1.1//EN"
 "http://www.w3.org/Graphics/SVG/1.1/DTD/svg11.dtd">
<!-- Generated by graphviz version 2.43.0 (0)
 -->
<!-- Title: VtkMeshReader&lt; ELEMENT_DIM, SPACE_DIM &gt; Pages: 1 -->
<svg width="1162pt" height="690pt"
 viewBox="0.00 0.00 1162.00 690.00" xmlns="http://www.w3.org/2000/svg" xmlns:xlink="http://www.w3.org/1999/xlink">
<g id="graph0" class="graph" transform="scale(1 1) rotate(0) translate(4 686)">
<title>VtkMeshReader&lt; ELEMENT_DIM, SPACE_DIM &gt;</title>
<!-- Node1 -->
<g id="Node000001" class="node">
<title>Node1</title>
<g id="a_Node000001"><a xlink:title=" ">
<polygon fill="#999999" stroke="transparent" points="736,-315 550,-315 550,0 736,0 736,-315"/>
<text text-anchor="start" x="575.5" y="-302.5" font-family="Helvetica,sans-Serif" font-size="10.00">VtkMeshReader&lt; ELEMENT</text>
<text text-anchor="start" x="594" y="-291.5" font-family="Helvetica,sans-Serif" font-size="10.00">_DIM, SPACE_DIM &gt;</text>
<text text-anchor="start" x="556.5" y="-276.5" font-family="Helvetica,sans-Serif" font-size="10.00">&#45;</text>
<text text-anchor="start" x="567" y="-276.5" font-family="Helvetica,sans-Serif" font-size="10.00">mNumNodes</text>
<text text-anchor="start" x="556.5" y="-261.5" font-family="Helvetica,sans-Serif" font-size="10.00">&#45;</text>
<text text-anchor="start" x="567" y="-261.5" font-family="Helvetica,sans-Serif" font-size="10.00">mNumElements</text>
<text text-anchor="start" x="556.5" y="-246.5" font-family="Helvetica,sans-Serif" font-size="10.00">&#45;</text>
<text text-anchor="start" x="567" y="-246.5" font-family="Helvetica,sans-Serif" font-size="10.00">mNumFaces</text>
<text text-anchor="start" x="556.5" y="-231.5" font-family="Helvetica,sans-Serif" font-size="10.00">&#45;</text>
<text text-anchor="start" x="567" y="-231.5" font-family="Helvetica,sans-Serif" font-size="10.00">mNumNodeAttributes</text>
<text text-anchor="start" x="556.5" y="-216.5" font-family="Helvetica,sans-Serif" font-size="10.00">&#45;</text>
<text text-anchor="start" x="567" y="-216.5" font-family="Helvetica,sans-Serif" font-size="10.00">mNumElementAttributes</text>
<text text-anchor="start" x="556.5" y="-201.5" font-family="Helvetica,sans-Serif" font-size="10.00">&#45;</text>
<text text-anchor="start" x="567" y="-201.5" font-family="Helvetica,sans-Serif" font-size="10.00">mNumFaceAttributes</text>
<text text-anchor="start" x="556.5" y="-186.5" font-family="Helvetica,sans-Serif" font-size="10.00">&#45;</text>
<text text-anchor="start" x="567" y="-186.5" font-family="Helvetica,sans-Serif" font-size="10.00">mOrderOfElements</text>
<text text-anchor="start" x="554" y="-171.5" font-family="Helvetica,sans-Serif" font-size="10.00">+</text>
<text text-anchor="start" x="567" y="-171.5" font-family="Helvetica,sans-Serif" font-size="10.00">VtkMeshReader()</text>
<text text-anchor="start" x="554" y="-156.5" font-family="Helvetica,sans-Serif" font-size="10.00">+</text>
<text text-anchor="start" x="567" y="-156.5" font-family="Helvetica,sans-Serif" font-size="10.00">VtkMeshReader()</text>
<text text-anchor="start" x="554" y="-141.5" font-family="Helvetica,sans-Serif" font-size="10.00">+</text>
<text text-anchor="start" x="567" y="-141.5" font-family="Helvetica,sans-Serif" font-size="10.00">~VtkMeshReader()</text>
<text text-anchor="start" x="554" y="-126.5" font-family="Helvetica,sans-Serif" font-size="10.00">+</text>
<text text-anchor="start" x="567" y="-126.5" font-family="Helvetica,sans-Serif" font-size="10.00">GetNumElements()</text>
<text text-anchor="start" x="554" y="-111.5" font-family="Helvetica,sans-Serif" font-size="10.00">+</text>
<text text-anchor="start" x="567" y="-111.5" font-family="Helvetica,sans-Serif" font-size="10.00">GetNumCableElements()</text>
<text text-anchor="start" x="554" y="-96.5" font-family="Helvetica,sans-Serif" font-size="10.00">+</text>
<text text-anchor="start" x="567" y="-96.5" font-family="Helvetica,sans-Serif" font-size="10.00">GetNumNodes()</text>
<text text-anchor="start" x="554" y="-81.5" font-family="Helvetica,sans-Serif" font-size="10.00">+</text>
<text text-anchor="start" x="567" y="-81.5" font-family="Helvetica,sans-Serif" font-size="10.00">GetNumFaces()</text>
<text text-anchor="start" x="554" y="-66.5" font-family="Helvetica,sans-Serif" font-size="10.00">+</text>
<text text-anchor="start" x="567" y="-66.5" font-family="Helvetica,sans-Serif" font-size="10.00">GetNumEdges()</text>
<text text-anchor="start" x="554" y="-51.5" font-family="Helvetica,sans-Serif" font-size="10.00">+</text>
<text text-anchor="start" x="567" y="-51.5" font-family="Helvetica,sans-Serif" font-size="10.00">GetNumElementAttributes()</text>
<text text-anchor="start" x="554" y="-36.5" font-family="Helvetica,sans-Serif" font-size="10.00">+</text>
<text text-anchor="start" x="567" y="-36.5" font-family="Helvetica,sans-Serif" font-size="10.00">GetNumCableElementAttributes()</text>
<text text-anchor="start" x="567" y="-21.5" font-family="Helvetica,sans-Serif" font-size="10.00">and 11 more...</text>
<text text-anchor="start" x="556.5" y="-6.5" font-family="Helvetica,sans-Serif" font-size="10.00">&#45;</text>
<text text-anchor="start" x="567" y="-6.5" font-family="Helvetica,sans-Serif" font-size="10.00">CommonConstructor()</text>
<polygon fill="#666666" stroke="#666666" points="550,-286.5 550,-286.5 736,-286.5 736,-286.5 550,-286.5"/>
<polygon fill="#666666" stroke="#666666" points="550,-181.5 550,-181.5 565,-181.5 565,-181.5 550,-181.5"/>
<polygon fill="#666666" stroke="#666666" points="565,-181.5 565,-181.5 736,-181.5 736,-181.5 565,-181.5"/>
<polygon fill="none" stroke="#666666" points="550,0 550,-315 736,-315 736,0 550,0"/>
</a>
</g>
</g>
<!-- Node2 -->
<g id="Node000002" class="node">
<title>Node2</title>
<g id="a_Node000002"><a xlink:href="classAbstractMeshReader.html" target="_top" xlink:title=" ">
<polygon fill="white" stroke="transparent" points="186,-682 0,-682 0,-472 186,-472 186,-682"/>
<text text-anchor="start" x="15.5" y="-670" font-family="Helvetica,sans-Serif" font-size="10.00">AbstractMeshReader</text>
<text text-anchor="start" x="15.5" y="-659" font-family="Helvetica,sans-Serif" font-size="10.00">&lt; ELEMENT_DIM, SPACE_DIM &gt;</text>
<text text-anchor="start" x="91" y="-644" font-family="Helvetica,sans-Serif" font-size="10.00"> </text>
<text text-anchor="start" x="4" y="-629" font-family="Helvetica,sans-Serif" font-size="10.00">+</text>
<text text-anchor="start" x="17" y="-629" font-family="Helvetica,sans-Serif" font-size="10.00">~AbstractMeshReader()</text>
<text text-anchor="start" x="4" y="-614" font-family="Helvetica,sans-Serif" font-size="10.00">+</text>
<text text-anchor="start" x="17" y="-614" font-family="Helvetica,sans-Serif" font-size="10.00">GetNumElements()</text>
<text text-anchor="start" x="4" y="-599" font-family="Helvetica,sans-Serif" font-size="10.00">+</text>
<text text-anchor="start" x="17" y="-599" font-family="Helvetica,sans-Serif" font-size="10.00">GetNumNodes()</text>
<text text-anchor="start" x="4" y="-584" font-family="Helvetica,sans-Serif" font-size="10.00">+</text>
<text text-anchor="start" x="17" y="-584" font-family="Helvetica,sans-Serif" font-size="10.00">GetNumFaces()</text>
<text text-anchor="start" x="4" y="-569" font-family="Helvetica,sans-Serif" font-size="10.00">+</text>
<text text-anchor="start" x="17" y="-569" font-family="Helvetica,sans-Serif" font-size="10.00">GetNumCableElements()</text>
<text text-anchor="start" x="4" y="-554" font-family="Helvetica,sans-Serif" font-size="10.00">+</text>
<text text-anchor="start" x="17" y="-554" font-family="Helvetica,sans-Serif" font-size="10.00">GetNumElementAttributes()</text>
<text text-anchor="start" x="4" y="-539" font-family="Helvetica,sans-Serif" font-size="10.00">+</text>
<text text-anchor="start" x="17" y="-539" font-family="Helvetica,sans-Serif" font-size="10.00">GetNumFaceAttributes()</text>
<text text-anchor="start" x="4" y="-524" font-family="Helvetica,sans-Serif" font-size="10.00">+</text>
<text text-anchor="start" x="17" y="-524" font-family="Helvetica,sans-Serif" font-size="10.00">GetNumCableElementAttributes()</text>
<text text-anchor="start" x="4" y="-509" font-family="Helvetica,sans-Serif" font-size="10.00">+</text>
<text text-anchor="start" x="17" y="-509" font-family="Helvetica,sans-Serif" font-size="10.00">GetNodeAttributes()</text>
<text text-anchor="start" x="4" y="-494" font-family="Helvetica,sans-Serif" font-size="10.00">+</text>
<text text-anchor="start" x="17" y="-494" font-family="Helvetica,sans-Serif" font-size="10.00">GetNumEdges()</text>
<text text-anchor="start" x="17" y="-479" font-family="Helvetica,sans-Serif" font-size="10.00">and 25 more...</text>
<polygon fill="#666666" stroke="#666666" points="0,-654 0,-654 186,-654 186,-654 0,-654"/>
<polygon fill="#666666" stroke="#666666" points="0,-639 0,-639 186,-639 186,-639 0,-639"/>
<polygon fill="none" stroke="#666666" points="0,-472 0,-682 186,-682 186,-472 0,-472"/>
</a>
</g>
</g>
<!-- Node2&#45;&gt;Node1 -->
<g id="edge1_Node000001_Node000002" class="edge">
<title>Node2&#45;&gt;Node1</title>
<g id="a_edge1_Node000001_Node000002"><a xlink:title=" ">
<path fill="none" stroke="#63b8ff" d="M161.13,-463.65C192.32,-418.87 232.3,-369.43 277,-333 359.26,-265.96 471.56,-217.36 549.99,-188.74"/>
<polygon fill="none" stroke="#63b8ff" points="158.2,-461.73 155.41,-471.95 163.97,-465.7 158.2,-461.73"/>
</a>
</g>
</g>
<!-- Node3 -->
<g id="Node000003" class="node">
<title>Node3</title>
<g id="a_Node000003"><a xlink:title=" ">
<polygon fill="white" stroke="transparent" points="384,-607 204,-607 204,-547 384,-547 384,-607"/>
<text text-anchor="start" x="209" y="-595" font-family="Helvetica,sans-Serif" font-size="10.00">vtkSmartPointer&lt; vtkUnstructured</text>
<text text-anchor="start" x="278" y="-584" font-family="Helvetica,sans-Serif" font-size="10.00">Grid &gt;</text>
<text text-anchor="start" x="292" y="-569" font-family="Helvetica,sans-Serif" font-size="10.00"> </text>
<text text-anchor="start" x="292" y="-554" font-family="Helvetica,sans-Serif" font-size="10.00"> </text>
<polygon fill="#bfbfbf" stroke="#bfbfbf" points="204,-579 204,-579 384,-579 384,-579 204,-579"/>
<polygon fill="#bfbfbf" stroke="#bfbfbf" points="204,-564 204,-564 384,-564 384,-564 204,-564"/>
<polygon fill="none" stroke="#bfbfbf" points="204,-547 204,-607 384,-607 384,-547 204,-547"/>
</a>
</g>
</g>
<!-- Node3&#45;&gt;Node1 -->
<g id="edge2_Node000001_Node000003" class="edge">
<title>Node3&#45;&gt;Node1</title>
<g id="a_edge2_Node000001_Node000003"><a xlink:title=" ">
<path fill="none" stroke="#63b8ff" d="M287.93,-546.97C279.44,-498.31 269.55,-399.14 313,-333 364.27,-254.94 462.39,-209.47 538.36,-184.63"/>
<polygon fill="none" stroke="#63b8ff" points="538.44,-184.61 542.95,-178.98 549.88,-180.97 545.37,-186.6 538.44,-184.61"/>
</a>
</g>
<text text-anchor="middle" x="374.5" y="-391" font-family="Helvetica,sans-Serif" font-size="10.00" fill="grey"> &#45;mpVtkUnstructuredGrid</text>
</g>
<!-- Node4 -->
<g id="Node000004" class="node">
<title>Node4</title>
<g id="a_Node000004"><a xlink:title=" ">
<polygon fill="white" stroke="transparent" points="510,-601.5 402,-601.5 402,-552.5 510,-552.5 510,-601.5"/>
<text text-anchor="start" x="407" y="-589" font-family="Helvetica,sans-Serif" font-size="10.00">vtkGeometryFilter *</text>
<text text-anchor="start" x="454" y="-574" font-family="Helvetica,sans-Serif" font-size="10.00"> </text>
<text text-anchor="start" x="454" y="-559" font-family="Helvetica,sans-Serif" font-size="10.00"> </text>
<polygon fill="#bfbfbf" stroke="#bfbfbf" points="402,-584 402,-584 510,-584 510,-584 402,-584"/>
<polygon fill="#bfbfbf" stroke="#bfbfbf" points="402,-569 402,-569 510,-569 510,-569 402,-569"/>
<polygon fill="none" stroke="#bfbfbf" points="402,-552.5 402,-601.5 510,-601.5 510,-552.5 402,-552.5"/>
</a>
</g>
</g>
<!-- Node4&#45;&gt;Node1 -->
<g id="edge3_Node000001_Node000004" class="edge">
<title>Node4&#45;&gt;Node1</title>
<g id="a_edge3_Node000001_Node000004"><a xlink:title=" ">
<path fill="none" stroke="#63b8ff" d="M450.75,-552.29C441.98,-507.3 428.36,-407.38 461,-333 478.29,-293.6 509.14,-258.73 540.58,-230.72"/>
<polygon fill="none" stroke="#63b8ff" points="540.83,-230.49 542.74,-223.54 549.89,-222.62 547.99,-229.58 540.83,-230.49"/>
</a>
</g>
<text text-anchor="middle" x="517.5" y="-391" font-family="Helvetica,sans-Serif" font-size="10.00" fill="grey"> &#45;mpVtkGeometryFilter</text>
</g>
<!-- Node5 -->
<g id="Node000005" class="node">
<title>Node5</title>
<g id="a_Node000005"><a xlink:title=" ">
<polygon fill="white" stroke="transparent" points="635.5,-601.5 534.5,-601.5 534.5,-552.5 635.5,-552.5 635.5,-601.5"/>
<text text-anchor="start" x="540" y="-589" font-family="Helvetica,sans-Serif" font-size="10.00">vtkFeatureEdges *</text>
<text text-anchor="start" x="583.5" y="-574" font-family="Helvetica,sans-Serif" font-size="10.00"> </text>
<text text-anchor="start" x="583.5" y="-559" font-family="Helvetica,sans-Serif" font-size="10.00"> </text>
<polygon fill="#bfbfbf" stroke="#bfbfbf" points="535,-584 535,-584 636,-584 636,-584 535,-584"/>
<polygon fill="#bfbfbf" stroke="#bfbfbf" points="535,-569 535,-569 636,-569 636,-569 535,-569"/>
<polygon fill="none" stroke="#bfbfbf" points="534.5,-552.5 534.5,-601.5 635.5,-601.5 635.5,-552.5 534.5,-552.5"/>
</a>
</g>
</g>
<!-- Node5&#45;&gt;Node1 -->
<g id="edge4_Node000001_Node000005" class="edge">
<title>Node5&#45;&gt;Node1</title>
<g id="a_edge4_Node000001_Node000005"><a xlink:title=" ">
<path fill="none" stroke="#63b8ff" d="M582.68,-552.34C578.93,-508.66 573.17,-412.55 586,-333 586.31,-331.09 586.63,-329.17 586.98,-327.25"/>
<polygon fill="none" stroke="#63b8ff" points="586.99,-327.15 584.21,-320.5 589.27,-315.37 592.06,-322.02 586.99,-327.15"/>
</a>
</g>
<text text-anchor="middle" x="633" y="-391" font-family="Helvetica,sans-Serif" font-size="10.00" fill="grey"> &#45;mpVtkFilterEdges</text>
</g>
<!-- Node6 -->
<g id="Node000006" class="node">
<title>Node6</title>
<g id="a_Node000006"><a xlink:href="classbool.html" target="_top" xlink:title=" ">
<polygon fill="white" stroke="transparent" points="718,-601.5 686,-601.5 686,-552.5 718,-552.5 718,-601.5"/>
<text text-anchor="start" x="691" y="-589" font-family="Helvetica,sans-Serif" font-size="10.00">bool</text>
<text text-anchor="start" x="700" y="-574" font-family="Helvetica,sans-Serif" font-size="10.00"> </text>
<text text-anchor="start" x="700" y="-559" font-family="Helvetica,sans-Serif" font-size="10.00"> </text>
<polygon fill="#bfbfbf" stroke="#bfbfbf" points="686,-584 686,-584 718,-584 718,-584 686,-584"/>
<polygon fill="#bfbfbf" stroke="#bfbfbf" points="686,-569 686,-569 718,-569 718,-569 686,-569"/>
<polygon fill="none" stroke="#bfbfbf" points="686,-552.5 686,-601.5 718,-601.5 718,-552.5 686,-552.5"/>
</a>
</g>
</g>
<!-- Node6&#45;&gt;Node1 -->
<g id="edge5_Node000001_Node000006" class="edge">
<title>Node6&#45;&gt;Node1</title>
<g id="a_edge5_Node000001_Node000006"><a xlink:title=" ">
<path fill="none" stroke="#63b8ff" d="M700.8,-552.43C698.37,-508.89 692.06,-413 680,-333 679.71,-331.09 679.42,-329.17 679.11,-327.24"/>
<polygon fill="none" stroke="#63b8ff" points="679.1,-327.14 674.18,-321.86 677.16,-315.3 682.08,-320.58 679.1,-327.14"/>
</a>
</g>
<text text-anchor="middle" x="738.5" y="-391" font-family="Helvetica,sans-Serif" font-size="10.00" fill="grey"> &#45;mIndexFromZero</text>
</g>
<!-- Node7 -->
<g id="Node000007" class="node">
<title>Node7</title>
<g id="a_Node000007"><a xlink:title=" ">
<polygon fill="white" stroke="transparent" points="842,-601.5 790,-601.5 790,-552.5 842,-552.5 842,-601.5"/>
<text text-anchor="start" x="795" y="-589" font-family="Helvetica,sans-Serif" font-size="10.00">ifstream</text>
<text text-anchor="start" x="814" y="-574" font-family="Helvetica,sans-Serif" font-size="10.00"> </text>
<text text-anchor="start" x="814" y="-559" font-family="Helvetica,sans-Serif" font-size="10.00"> </text>
<polygon fill="#bfbfbf" stroke="#bfbfbf" points="790,-584 790,-584 842,-584 842,-584 790,-584"/>
<polygon fill="#bfbfbf" stroke="#bfbfbf" points="790,-569 790,-569 842,-569 842,-569 790,-569"/>
<polygon fill="none" stroke="#bfbfbf" points="790,-552.5 790,-601.5 842,-601.5 842,-552.5 790,-552.5"/>
</a>
</g>
</g>
<!-- Node7&#45;&gt;Node1 -->
<g id="edge6_Node000001_Node000007" class="edge">
<title>Node7&#45;&gt;Node1</title>
<g id="a_edge6_Node000001_Node000007"><a xlink:title=" ">
<path fill="none" stroke="#63b8ff" d="M817.62,-552.44C819.78,-507.69 820.14,-408.17 788,-333 777.03,-307.33 761.01,-282.5 743.59,-260.01"/>
<polygon fill="none" stroke="#63b8ff" points="743.52,-259.91 736.65,-257.71 736.05,-250.52 742.92,-252.73 743.52,-259.91"/>
</a>
</g>
<text text-anchor="middle" x="840.5" y="-391" font-family="Helvetica,sans-Serif" font-size="10.00" fill="grey"> &#45;mVtuFile</text>
</g>
<!-- Node8 -->
<g id="Node000008" class="node">
<title>Node8</title>
<g id="a_Node000008"><a xlink:href="classunsigned.html" target="_top" xlink:title=" ">
<polygon fill="white" stroke="transparent" points="917.5,-601.5 862.5,-601.5 862.5,-552.5 917.5,-552.5 917.5,-601.5"/>
<text text-anchor="start" x="868" y="-589" font-family="Helvetica,sans-Serif" font-size="10.00">unsigned</text>
<text text-anchor="start" x="888.5" y="-574" font-family="Helvetica,sans-Serif" font-size="10.00"> </text>
<text text-anchor="start" x="888.5" y="-559" font-family="Helvetica,sans-Serif" font-size="10.00"> </text>
<polygon fill="#bfbfbf" stroke="#bfbfbf" points="863,-584 863,-584 918,-584 918,-584 863,-584"/>
<polygon fill="#bfbfbf" stroke="#bfbfbf" points="863,-569 863,-569 918,-569 918,-569 863,-569"/>
<polygon fill="none" stroke="#bfbfbf" points="862.5,-552.5 862.5,-601.5 917.5,-601.5 917.5,-552.5 862.5,-552.5"/>
</a>
</g>
</g>
<!-- Node8&#45;&gt;Node1 -->
<g id="edge7_Node000001_Node000008" class="edge">
<title>Node8&#45;&gt;Node1</title>
<g id="a_edge7_Node000001_Node000008"><a xlink:title=" ">
<path fill="none" stroke="#63b8ff" d="M890.22,-552.34C890.34,-498.85 888.44,-370.35 868,-333 840.42,-282.61 791.52,-242 746.33,-212.69"/>
<polygon fill="none" stroke="#63b8ff" points="746.28,-212.66 739.08,-212.83 736.15,-206.23 743.36,-206.07 746.28,-212.66"/>
</a>
</g>
<text text-anchor="middle" x="964" y="-446" font-family="Helvetica,sans-Serif" font-size="10.00" fill="grey"> &#45;mBoundaryFacesRead</text>
<text text-anchor="middle" x="964" y="-435" font-family="Helvetica,sans-Serif" font-size="10.00" fill="grey">&#45;mBoundaryFacesSkipped</text>
<text text-anchor="middle" x="964" y="-424" font-family="Helvetica,sans-Serif" font-size="10.00" fill="grey">&#45;mCableElementsRead</text>
<text text-anchor="middle" x="964" y="-413" font-family="Helvetica,sans-Serif" font-size="10.00" fill="grey">&#45;mElementsRead</text>
<text text-anchor="middle" x="964" y="-402" font-family="Helvetica,sans-Serif" font-size="10.00" fill="grey">&#45;mFacesRead</text>
<text text-anchor="middle" x="964" y="-391" font-family="Helvetica,sans-Serif" font-size="10.00" fill="grey">&#45;mMaxNodeBdyMarker</text>
<text text-anchor="middle" x="964" y="-380" font-family="Helvetica,sans-Serif" font-size="10.00" fill="grey">&#45;mNodesPerElement</text>
<text text-anchor="middle" x="964" y="-369" font-family="Helvetica,sans-Serif" font-size="10.00" fill="grey">&#45;mNodesRead</text>
<text text-anchor="middle" x="964" y="-358" font-family="Helvetica,sans-Serif" font-size="10.00" fill="grey">&#45;mNumCableElementAttributes</text>
<text text-anchor="middle" x="964" y="-347" font-family="Helvetica,sans-Serif" font-size="10.00" fill="grey">&#45;mNumCableElements</text>
<text text-anchor="middle" x="964" y="-336" font-family="Helvetica,sans-Serif" font-size="10.00" fill="grey">...</text>
</g>
<!-- Node9 -->
<g id="Node000009" class="node">
<title>Node9</title>
<g id="a_Node000009"><a xlink:title=" ">
<polygon fill="white" stroke="transparent" points="1078.5,-601.5 1055.5,-601.5 1055.5,-552.5 1078.5,-552.5 1078.5,-601.5"/>
<text text-anchor="start" x="1061" y="-589" font-family="Helvetica,sans-Serif" font-size="10.00">int</text>
<text text-anchor="start" x="1065.5" y="-574" font-family="Helvetica,sans-Serif" font-size="10.00"> </text>
<text text-anchor="start" x="1065.5" y="-559" font-family="Helvetica,sans-Serif" font-size="10.00"> </text>
<polygon fill="#bfbfbf" stroke="#bfbfbf" points="1056,-584 1056,-584 1079,-584 1079,-584 1056,-584"/>
<polygon fill="#bfbfbf" stroke="#bfbfbf" points="1056,-569 1056,-569 1079,-569 1079,-569 1056,-569"/>
<polygon fill="none" stroke="#bfbfbf" points="1055.5,-552.5 1055.5,-601.5 1078.5,-601.5 1078.5,-552.5 1055.5,-552.5"/>
</a>
</g>
</g>
<!-- Node9&#45;&gt;Node1 -->
<g id="edge8_Node000001_Node000009" class="edge">
<title>Node9&#45;&gt;Node1</title>
<g id="a_edge8_Node000001_Node000009"><a xlink:title=" ">
<path fill="none" stroke="#63b8ff" d="M1072.16,-552.23C1080.89,-505.36 1093.26,-399.78 1045,-333 975.66,-237.05 842.11,-193.27 748.01,-173.69"/>
<polygon fill="none" stroke="#63b8ff" points="747.92,-173.68 741.25,-176.42 736.16,-171.31 742.83,-168.57 747.92,-173.68"/>
</a>
</g>
<text text-anchor="middle" x="1116.5" y="-391" font-family="Helvetica,sans-Serif" font-size="10.00" fill="grey"> &#45;mVtkCellType</text>
</g>
</g>
</svg>
