<?xml version="1.0" encoding="UTF-8" standalone="no"?>
<!DOCTYPE svg PUBLIC "-//W3C//DTD SVG 1.1//EN"
 "http://www.w3.org/Graphics/SVG/1.1/DTD/svg11.dtd">
<!-- Generated by graphviz version 2.43.0 (0)
 -->
<!-- Title: MutableElement&lt; ELEMENT_DIM, SPACE_DIM &gt; Pages: 1 -->
<svg width="593pt" height="634pt"
 viewBox="0.00 0.00 592.50 634.00" xmlns="http://www.w3.org/2000/svg" xmlns:xlink="http://www.w3.org/1999/xlink">
<g id="graph0" class="graph" transform="scale(1 1) rotate(0) translate(4 630)">
<title>MutableElement&lt; ELEMENT_DIM, SPACE_DIM &gt;</title>
<!-- Node1 -->
<g id="Node000001" class="node">
<title>Node1</title>
<g id="a_Node000001"><a xlink:title=" ">
<polygon fill="#999999" stroke="transparent" points="436,-225 288,-225 288,0 436,0 436,-225"/>
<text text-anchor="start" x="293" y="-212.5" font-family="Helvetica,sans-Serif" font-size="10.00">MutableElement&lt; ELEMENT</text>
<text text-anchor="start" x="313" y="-201.5" font-family="Helvetica,sans-Serif" font-size="10.00">_DIM, SPACE_DIM &gt;</text>
<text text-anchor="start" x="360" y="-186.5" font-family="Helvetica,sans-Serif" font-size="10.00"> </text>
<text text-anchor="start" x="298" y="-171.5" font-family="Helvetica,sans-Serif" font-size="10.00">+</text>
<text text-anchor="start" x="317" y="-171.5" font-family="Helvetica,sans-Serif" font-size="10.00">MutableElement()</text>
<text text-anchor="start" x="298" y="-156.5" font-family="Helvetica,sans-Serif" font-size="10.00">+</text>
<text text-anchor="start" x="317" y="-156.5" font-family="Helvetica,sans-Serif" font-size="10.00">MutableElement()</text>
<text text-anchor="start" x="298" y="-141.5" font-family="Helvetica,sans-Serif" font-size="10.00">+</text>
<text text-anchor="start" x="317" y="-141.5" font-family="Helvetica,sans-Serif" font-size="10.00">~MutableElement()</text>
<text text-anchor="start" x="298" y="-126.5" font-family="Helvetica,sans-Serif" font-size="10.00">+</text>
<text text-anchor="start" x="317" y="-126.5" font-family="Helvetica,sans-Serif" font-size="10.00">RegisterWithNodes()</text>
<text text-anchor="start" x="298" y="-111.5" font-family="Helvetica,sans-Serif" font-size="10.00">+</text>
<text text-anchor="start" x="317" y="-111.5" font-family="Helvetica,sans-Serif" font-size="10.00">MarkAsDeleted()</text>
<text text-anchor="start" x="298" y="-96.5" font-family="Helvetica,sans-Serif" font-size="10.00">+</text>
<text text-anchor="start" x="317" y="-96.5" font-family="Helvetica,sans-Serif" font-size="10.00">ResetIndex()</text>
<text text-anchor="start" x="298" y="-81.5" font-family="Helvetica,sans-Serif" font-size="10.00">+</text>
<text text-anchor="start" x="317" y="-81.5" font-family="Helvetica,sans-Serif" font-size="10.00">UpdateNode()</text>
<text text-anchor="start" x="298" y="-66.5" font-family="Helvetica,sans-Serif" font-size="10.00">+</text>
<text text-anchor="start" x="317" y="-66.5" font-family="Helvetica,sans-Serif" font-size="10.00">DeleteNode()</text>
<text text-anchor="start" x="298" y="-51.5" font-family="Helvetica,sans-Serif" font-size="10.00">+</text>
<text text-anchor="start" x="317" y="-51.5" font-family="Helvetica,sans-Serif" font-size="10.00">AddNode()</text>
<text text-anchor="start" x="298" y="-36.5" font-family="Helvetica,sans-Serif" font-size="10.00">+</text>
<text text-anchor="start" x="317" y="-36.5" font-family="Helvetica,sans-Serif" font-size="10.00">GetNodeLocalIndex()</text>
<text text-anchor="start" x="317" y="-21.5" font-family="Helvetica,sans-Serif" font-size="10.00">and 12 more...</text>
<text text-anchor="start" x="300.5" y="-6.5" font-family="Helvetica,sans-Serif" font-size="10.00">&#45;</text>
<text text-anchor="start" x="317" y="-6.5" font-family="Helvetica,sans-Serif" font-size="10.00">serialize()</text>
<polygon fill="#666666" stroke="#666666" points="288,-196.5 288,-196.5 436,-196.5 436,-196.5 288,-196.5"/>
<polygon fill="#666666" stroke="#666666" points="288,-181.5 288,-181.5 436,-181.5 436,-181.5 288,-181.5"/>
<polygon fill="none" stroke="#666666" points="288,0 288,-225 436,-225 436,0 288,0"/>
</a>
</g>
</g>
<!-- Node2 -->
<g id="Node000002" class="node">
<title>Node2</title>
<g id="a_Node000002"><a xlink:href="classAbstractElement.html" target="_top" xlink:title=" ">
<polygon fill="white" stroke="transparent" points="284,-497 120,-497 120,-272 284,-272 284,-497"/>
<text text-anchor="start" x="132.5" y="-484.5" font-family="Helvetica,sans-Serif" font-size="10.00">AbstractElement&lt; ELEMENT</text>
<text text-anchor="start" x="153" y="-473.5" font-family="Helvetica,sans-Serif" font-size="10.00">_DIM, SPACE_DIM &gt;</text>
<text text-anchor="start" x="200" y="-458.5" font-family="Helvetica,sans-Serif" font-size="10.00"> </text>
<text text-anchor="start" x="124" y="-443.5" font-family="Helvetica,sans-Serif" font-size="10.00">+</text>
<text text-anchor="start" x="137" y="-443.5" font-family="Helvetica,sans-Serif" font-size="10.00">AbstractElement()</text>
<text text-anchor="start" x="124" y="-428.5" font-family="Helvetica,sans-Serif" font-size="10.00">+</text>
<text text-anchor="start" x="137" y="-428.5" font-family="Helvetica,sans-Serif" font-size="10.00">AbstractElement()</text>
<text text-anchor="start" x="124" y="-413.5" font-family="Helvetica,sans-Serif" font-size="10.00">+</text>
<text text-anchor="start" x="137" y="-413.5" font-family="Helvetica,sans-Serif" font-size="10.00">~AbstractElement()</text>
<text text-anchor="start" x="124" y="-398.5" font-family="Helvetica,sans-Serif" font-size="10.00">+</text>
<text text-anchor="start" x="137" y="-398.5" font-family="Helvetica,sans-Serif" font-size="10.00">UpdateNode()</text>
<text text-anchor="start" x="124" y="-383.5" font-family="Helvetica,sans-Serif" font-size="10.00">+</text>
<text text-anchor="start" x="137" y="-383.5" font-family="Helvetica,sans-Serif" font-size="10.00">ReplaceNode()</text>
<text text-anchor="start" x="124" y="-368.5" font-family="Helvetica,sans-Serif" font-size="10.00">+</text>
<text text-anchor="start" x="137" y="-368.5" font-family="Helvetica,sans-Serif" font-size="10.00">MarkAsDeleted()</text>
<text text-anchor="start" x="124" y="-353.5" font-family="Helvetica,sans-Serif" font-size="10.00">+</text>
<text text-anchor="start" x="137" y="-353.5" font-family="Helvetica,sans-Serif" font-size="10.00">RegisterWithNodes()</text>
<text text-anchor="start" x="124" y="-338.5" font-family="Helvetica,sans-Serif" font-size="10.00">+</text>
<text text-anchor="start" x="137" y="-338.5" font-family="Helvetica,sans-Serif" font-size="10.00">GetNodeLocation()</text>
<text text-anchor="start" x="124" y="-323.5" font-family="Helvetica,sans-Serif" font-size="10.00">+</text>
<text text-anchor="start" x="137" y="-323.5" font-family="Helvetica,sans-Serif" font-size="10.00">GetNodeLocation()</text>
<text text-anchor="start" x="124" y="-308.5" font-family="Helvetica,sans-Serif" font-size="10.00">+</text>
<text text-anchor="start" x="137" y="-308.5" font-family="Helvetica,sans-Serif" font-size="10.00">GetNodeGlobalIndex()</text>
<text text-anchor="start" x="137" y="-293.5" font-family="Helvetica,sans-Serif" font-size="10.00">and 14 more...</text>
<text text-anchor="start" x="124" y="-278.5" font-family="Helvetica,sans-Serif" font-size="10.00">#</text>
<text text-anchor="start" x="137" y="-278.5" font-family="Helvetica,sans-Serif" font-size="10.00">ConstructElementAttributes()</text>
<polygon fill="#666666" stroke="#666666" points="120,-468.5 120,-468.5 284,-468.5 284,-468.5 120,-468.5"/>
<polygon fill="#666666" stroke="#666666" points="120,-453.5 120,-453.5 284,-453.5 284,-453.5 120,-453.5"/>
<polygon fill="none" stroke="#666666" points="120,-272 120,-497 284,-497 284,-272 120,-272"/>
</a>
</g>
</g>
<!-- Node2&#45;&gt;Node1 -->
<g id="edge1_Node000001_Node000002" class="edge">
<title>Node2&#45;&gt;Node1</title>
<g id="a_edge1_Node000001_Node000002"><a xlink:title=" ">
<path fill="none" stroke="#63b8ff" d="M273.38,-263.04C280.85,-250.45 288.41,-237.68 295.82,-225.18"/>
<polygon fill="none" stroke="#63b8ff" points="270.32,-261.34 268.23,-271.73 276.34,-264.91 270.32,-261.34"/>
</a>
</g>
</g>
<!-- Node3 -->
<g id="Node000003" class="node">
<title>Node3</title>
<g id="a_Node000003"><a xlink:title=" ">
<polygon fill="white" stroke="transparent" points="120,-620.5 0,-620.5 0,-560.5 120,-560.5 120,-620.5"/>
<text text-anchor="start" x="5" y="-608.5" font-family="Helvetica,sans-Serif" font-size="10.00">vector&lt; Node&lt; SPACE</text>
<text text-anchor="start" x="32" y="-597.5" font-family="Helvetica,sans-Serif" font-size="10.00">_DIM &gt; * &gt;</text>
<text text-anchor="start" x="58" y="-582.5" font-family="Helvetica,sans-Serif" font-size="10.00"> </text>
<text text-anchor="start" x="58" y="-567.5" font-family="Helvetica,sans-Serif" font-size="10.00"> </text>
<polygon fill="#bfbfbf" stroke="#bfbfbf" points="0,-592.5 0,-592.5 120,-592.5 120,-592.5 0,-592.5"/>
<polygon fill="#bfbfbf" stroke="#bfbfbf" points="0,-577.5 0,-577.5 120,-577.5 120,-577.5 0,-577.5"/>
<polygon fill="none" stroke="#bfbfbf" points="0,-560.5 0,-620.5 120,-620.5 120,-560.5 0,-560.5"/>
</a>
</g>
</g>
<!-- Node3&#45;&gt;Node2 -->
<g id="edge2_Node000002_Node000003" class="edge">
<title>Node3&#45;&gt;Node2</title>
<g id="a_edge2_Node000002_Node000003"><a xlink:title=" ">
<path fill="none" stroke="#63b8ff" d="M79.29,-560.37C88.5,-546.56 99.73,-529.87 110,-515 111.75,-512.47 113.52,-509.91 115.31,-507.34"/>
<polygon fill="none" stroke="#63b8ff" points="115.42,-507.18 115.56,-499.97 122.28,-497.33 122.13,-504.54 115.42,-507.18"/>
</a>
</g>
<text text-anchor="middle" x="136" y="-523.5" font-family="Helvetica,sans-Serif" font-size="10.00" fill="grey"> #mNodes</text>
</g>
<!-- Node4 -->
<g id="Node000004" class="node">
<title>Node4</title>
<g id="a_Node000004"><a xlink:href="classunsigned.html" target="_top" xlink:title=" ">
<polygon fill="white" stroke="transparent" points="193.5,-615 138.5,-615 138.5,-566 193.5,-566 193.5,-615"/>
<text text-anchor="start" x="144" y="-602.5" font-family="Helvetica,sans-Serif" font-size="10.00">unsigned</text>
<text text-anchor="start" x="164.5" y="-587.5" font-family="Helvetica,sans-Serif" font-size="10.00"> </text>
<text text-anchor="start" x="164.5" y="-572.5" font-family="Helvetica,sans-Serif" font-size="10.00"> </text>
<polygon fill="#bfbfbf" stroke="#bfbfbf" points="139,-597.5 139,-597.5 194,-597.5 194,-597.5 139,-597.5"/>
<polygon fill="#bfbfbf" stroke="#bfbfbf" points="139,-582.5 139,-582.5 194,-582.5 194,-582.5 139,-582.5"/>
<polygon fill="none" stroke="#bfbfbf" points="138.5,-566 138.5,-615 193.5,-615 193.5,-566 138.5,-566"/>
</a>
</g>
</g>
<!-- Node4&#45;&gt;Node2 -->
<g id="edge3_Node000002_Node000004" class="edge">
<title>Node4&#45;&gt;Node2</title>
<g id="a_edge3_Node000002_Node000004"><a xlink:title=" ">
<path fill="none" stroke="#63b8ff" d="M164.82,-565.9C164.45,-551.19 164.64,-531.91 167,-515 167.27,-513.07 167.56,-511.13 167.87,-509.18"/>
<polygon fill="none" stroke="#63b8ff" points="167.91,-508.92 165,-502.32 169.97,-497.1 172.88,-503.69 167.91,-508.92"/>
</a>
</g>
<text text-anchor="middle" x="191.5" y="-523.5" font-family="Helvetica,sans-Serif" font-size="10.00" fill="grey"> #mIndex</text>
</g>
<!-- Node5 -->
<g id="Node000005" class="node">
<title>Node5</title>
<g id="a_Node000005"><a xlink:href="classbool.html" target="_top" xlink:title=" ">
<polygon fill="white" stroke="transparent" points="254,-615 222,-615 222,-566 254,-566 254,-615"/>
<text text-anchor="start" x="227" y="-602.5" font-family="Helvetica,sans-Serif" font-size="10.00">bool</text>
<text text-anchor="start" x="236" y="-587.5" font-family="Helvetica,sans-Serif" font-size="10.00"> </text>
<text text-anchor="start" x="236" y="-572.5" font-family="Helvetica,sans-Serif" font-size="10.00"> </text>
<polygon fill="#bfbfbf" stroke="#bfbfbf" points="222,-597.5 222,-597.5 254,-597.5 254,-597.5 222,-597.5"/>
<polygon fill="#bfbfbf" stroke="#bfbfbf" points="222,-582.5 222,-582.5 254,-582.5 254,-582.5 222,-582.5"/>
<polygon fill="none" stroke="#bfbfbf" points="222,-566 222,-615 254,-615 254,-566 222,-566"/>
</a>
</g>
</g>
<!-- Node5&#45;&gt;Node2 -->
<g id="edge4_Node000002_Node000005" class="edge">
<title>Node5&#45;&gt;Node2</title>
<g id="a_edge4_Node000002_Node000005"><a xlink:title=" ">
<path fill="none" stroke="#63b8ff" d="M233.8,-565.7C231.2,-550.98 227.65,-530.83 223.85,-509.32"/>
<polygon fill="none" stroke="#63b8ff" points="223.81,-509.07 218.82,-503.86 221.72,-497.25 226.7,-502.47 223.81,-509.07"/>
</a>
</g>
<text text-anchor="middle" x="264" y="-529" font-family="Helvetica,sans-Serif" font-size="10.00" fill="grey"> #mIsDeleted</text>
<text text-anchor="middle" x="264" y="-518" font-family="Helvetica,sans-Serif" font-size="10.00" fill="grey">#mOwnership</text>
</g>
<!-- Node6 -->
<g id="Node000006" class="node">
<title>Node6</title>
<g id="a_Node000006"><a xlink:title=" ">
<polygon fill="white" stroke="transparent" points="393.5,-626 272.5,-626 272.5,-555 393.5,-555 393.5,-626"/>
<text text-anchor="start" x="278" y="-613.5" font-family="Helvetica,sans-Serif" font-size="10.00">ElementAttributes&lt;</text>
<text text-anchor="start" x="278" y="-602.5" font-family="Helvetica,sans-Serif" font-size="10.00"> ELEMENT_DIM, SPACE</text>
<text text-anchor="start" x="311" y="-591.5" font-family="Helvetica,sans-Serif" font-size="10.00">_DIM &gt; *</text>
<text text-anchor="start" x="331.5" y="-576.5" font-family="Helvetica,sans-Serif" font-size="10.00"> </text>
<text text-anchor="start" x="331.5" y="-561.5" font-family="Helvetica,sans-Serif" font-size="10.00"> </text>
<polygon fill="#bfbfbf" stroke="#bfbfbf" points="273,-586.5 273,-586.5 394,-586.5 394,-586.5 273,-586.5"/>
<polygon fill="#bfbfbf" stroke="#bfbfbf" points="273,-571.5 273,-571.5 394,-571.5 394,-571.5 273,-571.5"/>
<polygon fill="none" stroke="#bfbfbf" points="272.5,-555 272.5,-626 393.5,-626 393.5,-555 272.5,-555"/>
</a>
</g>
</g>
<!-- Node6&#45;&gt;Node2 -->
<g id="edge5_Node000002_Node000006" class="edge">
<title>Node6&#45;&gt;Node2</title>
<g id="a_edge5_Node000002_Node000006"><a xlink:title=" ">
<path fill="none" stroke="#63b8ff" d="M321.34,-554.81C316.42,-541.94 310.17,-527.44 303,-515 299.26,-508.51 295.23,-502 291.01,-495.52"/>
<polygon fill="none" stroke="#63b8ff" points="290.9,-495.36 284.23,-492.61 284.22,-485.4 290.88,-488.15 290.9,-495.36"/>
</a>
</g>
<text text-anchor="middle" x="372" y="-523.5" font-family="Helvetica,sans-Serif" font-size="10.00" fill="grey"> #mpElementAttributes</text>
</g>
<!-- Node7 -->
<g id="Node000007" class="node">
<title>Node7</title>
<g id="a_Node000007"><a xlink:title=" ">
<polygon fill="white" stroke="transparent" points="421.5,-414.5 302.5,-414.5 302.5,-354.5 421.5,-354.5 421.5,-414.5"/>
<text text-anchor="start" x="308" y="-402.5" font-family="Helvetica,sans-Serif" font-size="10.00">vector&lt; Edge&lt; SPACE</text>
<text text-anchor="start" x="334.5" y="-391.5" font-family="Helvetica,sans-Serif" font-size="10.00">_DIM &gt; * &gt;</text>
<text text-anchor="start" x="360.5" y="-376.5" font-family="Helvetica,sans-Serif" font-size="10.00"> </text>
<text text-anchor="start" x="360.5" y="-361.5" font-family="Helvetica,sans-Serif" font-size="10.00"> </text>
<polygon fill="#bfbfbf" stroke="#bfbfbf" points="303,-386.5 303,-386.5 422,-386.5 422,-386.5 303,-386.5"/>
<polygon fill="#bfbfbf" stroke="#bfbfbf" points="303,-371.5 303,-371.5 422,-371.5 422,-371.5 303,-371.5"/>
<polygon fill="none" stroke="#bfbfbf" points="302.5,-354.5 302.5,-414.5 421.5,-414.5 421.5,-354.5 302.5,-354.5"/>
</a>
</g>
</g>
<!-- Node7&#45;&gt;Node1 -->
<g id="edge6_Node000001_Node000007" class="edge">
<title>Node7&#45;&gt;Node1</title>
<g id="a_edge6_Node000001_Node000007"><a xlink:title=" ">
<path fill="none" stroke="#63b8ff" d="M362,-354.35C362,-325.99 362,-280.94 362,-237.43"/>
<polygon fill="none" stroke="#63b8ff" points="362,-237.22 358,-231.22 362,-225.22 366,-231.22 362,-237.22"/>
</a>
</g>
<text text-anchor="middle" x="387.5" y="-246" font-family="Helvetica,sans-Serif" font-size="10.00" fill="grey"> #mEdges</text>
</g>
<!-- Node8 -->
<g id="Node000008" class="node">
<title>Node8</title>
<g id="a_Node000008"><a xlink:href="classEdgeHelper_3_01SPACE__DIM_01_4.html" target="_top" xlink:title=" ">
<polygon fill="white" stroke="transparent" points="584.5,-409 439.5,-409 439.5,-360 584.5,-360 584.5,-409"/>
<text text-anchor="start" x="445" y="-396.5" font-family="Helvetica,sans-Serif" font-size="10.00">EdgeHelper&lt; SPACE_DIM &gt;</text>
<text text-anchor="start" x="510.5" y="-381.5" font-family="Helvetica,sans-Serif" font-size="10.00"> </text>
<text text-anchor="start" x="510.5" y="-366.5" font-family="Helvetica,sans-Serif" font-size="10.00"> </text>
<polygon fill="#bfbfbf" stroke="#bfbfbf" points="440,-391.5 440,-391.5 585,-391.5 585,-391.5 440,-391.5"/>
<polygon fill="#bfbfbf" stroke="#bfbfbf" points="440,-376.5 440,-376.5 585,-376.5 585,-376.5 440,-376.5"/>
<polygon fill="none" stroke="#bfbfbf" points="439.5,-360 439.5,-409 584.5,-409 584.5,-360 439.5,-360"/>
</a>
</g>
</g>
<!-- Node8&#45;&gt;Node1 -->
<g id="edge7_Node000001_Node000008" class="edge">
<title>Node8&#45;&gt;Node1</title>
<g id="a_edge7_Node000001_Node000008"><a xlink:title=" ">
<path fill="none" stroke="#63b8ff" d="M498.69,-359.54C483.06,-331.4 455.95,-282.62 429.98,-235.87"/>
<polygon fill="none" stroke="#63b8ff" points="429.94,-235.8 423.53,-232.5 424.12,-225.31 430.53,-228.61 429.94,-235.8"/>
</a>
</g>
<text text-anchor="middle" x="476" y="-246" font-family="Helvetica,sans-Serif" font-size="10.00" fill="grey"> #mEdgeHelper</text>
</g>
</g>
</svg>
