<?xml version="1.0" encoding="UTF-8" standalone="no"?>
<!DOCTYPE svg PUBLIC "-//W3C//DTD SVG 1.1//EN"
 "http://www.w3.org/Graphics/SVG/1.1/DTD/svg11.dtd">
<!-- Generated by graphviz version 2.43.0 (0)
 -->
<!-- Title: HeartFileFinder Pages: 1 -->
<svg width="318pt" height="479pt"
 viewBox="0.00 0.00 318.00 479.00" xmlns="http://www.w3.org/2000/svg" xmlns:xlink="http://www.w3.org/1999/xlink">
<g id="graph0" class="graph" transform="scale(1 1) rotate(0) translate(4 475)">
<title>HeartFileFinder</title>
<!-- Node1 -->
<g id="Node000001" class="node">
<title>Node1</title>
<g id="a_Node000001"><a xlink:title=" ">
<polygon fill="#999999" stroke="transparent" points="187.5,-49 84.5,-49 84.5,0 187.5,0 187.5,-49"/>
<text text-anchor="start" x="99" y="-36.5" font-family="Helvetica,sans-Serif" font-size="10.00">HeartFileFinder</text>
<text text-anchor="start" x="134.5" y="-21.5" font-family="Helvetica,sans-Serif" font-size="10.00"> </text>
<text text-anchor="start" x="89" y="-6.5" font-family="Helvetica,sans-Serif" font-size="10.00">+</text>
<text text-anchor="start" x="102" y="-6.5" font-family="Helvetica,sans-Serif" font-size="10.00">HeartFileFinder()</text>
<polygon fill="#666666" stroke="#666666" points="85,-31.5 85,-31.5 188,-31.5 188,-31.5 85,-31.5"/>
<polygon fill="#666666" stroke="#666666" points="85,-16.5 85,-16.5 188,-16.5 188,-16.5 85,-16.5"/>
<polygon fill="none" stroke="#666666" points="84.5,0 84.5,-49 187.5,-49 187.5,0 84.5,0"/>
</a>
</g>
</g>
<!-- Node2 -->
<g id="Node000002" class="node">
<title>Node2</title>
<g id="a_Node000002"><a xlink:href="classFileFinder.html" target="_top" xlink:title=" ">
<polygon fill="white" stroke="transparent" points="229,-375 43,-375 43,-86 229,-86 229,-375"/>
<text text-anchor="start" x="112" y="-362.5" font-family="Helvetica,sans-Serif" font-size="10.00">FileFinder</text>
<text text-anchor="start" x="134" y="-347.5" font-family="Helvetica,sans-Serif" font-size="10.00"> </text>
<text text-anchor="start" x="47" y="-332.5" font-family="Helvetica,sans-Serif" font-size="10.00">+</text>
<text text-anchor="start" x="60" y="-332.5" font-family="Helvetica,sans-Serif" font-size="10.00">FileFinder()</text>
<text text-anchor="start" x="47" y="-317.5" font-family="Helvetica,sans-Serif" font-size="10.00">+</text>
<text text-anchor="start" x="60" y="-317.5" font-family="Helvetica,sans-Serif" font-size="10.00">FileFinder()</text>
<text text-anchor="start" x="47" y="-302.5" font-family="Helvetica,sans-Serif" font-size="10.00">+</text>
<text text-anchor="start" x="60" y="-302.5" font-family="Helvetica,sans-Serif" font-size="10.00">FileFinder()</text>
<text text-anchor="start" x="47" y="-287.5" font-family="Helvetica,sans-Serif" font-size="10.00">+</text>
<text text-anchor="start" x="60" y="-287.5" font-family="Helvetica,sans-Serif" font-size="10.00">FileFinder()</text>
<text text-anchor="start" x="47" y="-272.5" font-family="Helvetica,sans-Serif" font-size="10.00">+</text>
<text text-anchor="start" x="60" y="-272.5" font-family="Helvetica,sans-Serif" font-size="10.00">~FileFinder()</text>
<text text-anchor="start" x="47" y="-257.5" font-family="Helvetica,sans-Serif" font-size="10.00">+</text>
<text text-anchor="start" x="60" y="-257.5" font-family="Helvetica,sans-Serif" font-size="10.00">SetPath()</text>
<text text-anchor="start" x="47" y="-242.5" font-family="Helvetica,sans-Serif" font-size="10.00">+</text>
<text text-anchor="start" x="60" y="-242.5" font-family="Helvetica,sans-Serif" font-size="10.00">SetPath()</text>
<text text-anchor="start" x="47" y="-227.5" font-family="Helvetica,sans-Serif" font-size="10.00">+</text>
<text text-anchor="start" x="60" y="-227.5" font-family="Helvetica,sans-Serif" font-size="10.00">IsPathSet()</text>
<text text-anchor="start" x="47" y="-212.5" font-family="Helvetica,sans-Serif" font-size="10.00">+</text>
<text text-anchor="start" x="60" y="-212.5" font-family="Helvetica,sans-Serif" font-size="10.00">Exists()</text>
<text text-anchor="start" x="47" y="-197.5" font-family="Helvetica,sans-Serif" font-size="10.00">+</text>
<text text-anchor="start" x="60" y="-197.5" font-family="Helvetica,sans-Serif" font-size="10.00">IsFile()</text>
<text text-anchor="start" x="60" y="-182.5" font-family="Helvetica,sans-Serif" font-size="10.00">and 14 more...</text>
<text text-anchor="start" x="47" y="-167.5" font-family="Helvetica,sans-Serif" font-size="10.00">+</text>
<text text-anchor="start" x="60" y="-167.5" font-family="Helvetica,sans-Serif" font-size="10.00">IsAbsolutePath()</text>
<text text-anchor="start" x="47" y="-152.5" font-family="Helvetica,sans-Serif" font-size="10.00">+</text>
<text text-anchor="start" x="60" y="-152.5" font-family="Helvetica,sans-Serif" font-size="10.00">ReplaceSpacesWithUnderscores()</text>
<text text-anchor="start" x="47" y="-137.5" font-family="Helvetica,sans-Serif" font-size="10.00">+</text>
<text text-anchor="start" x="60" y="-137.5" font-family="Helvetica,sans-Serif" font-size="10.00">ReplaceUnderscoresWithSpaces()</text>
<text text-anchor="start" x="47" y="-122.5" font-family="Helvetica,sans-Serif" font-size="10.00">+</text>
<text text-anchor="start" x="60" y="-122.5" font-family="Helvetica,sans-Serif" font-size="10.00">FakePath()</text>
<text text-anchor="start" x="47" y="-107.5" font-family="Helvetica,sans-Serif" font-size="10.00">+</text>
<text text-anchor="start" x="60" y="-107.5" font-family="Helvetica,sans-Serif" font-size="10.00">StopFaking()</text>
<text text-anchor="start" x="49.5" y="-92.5" font-family="Helvetica,sans-Serif" font-size="10.00">&#45;</text>
<text text-anchor="start" x="60" y="-92.5" font-family="Helvetica,sans-Serif" font-size="10.00">PrivateRemove()</text>
<polygon fill="#666666" stroke="#666666" points="43,-357.5 43,-357.5 229,-357.5 229,-357.5 43,-357.5"/>
<polygon fill="#666666" stroke="#666666" points="43,-342.5 43,-342.5 229,-342.5 229,-342.5 43,-342.5"/>
<polygon fill="none" stroke="#666666" points="43,-86 43,-375 229,-375 229,-86 43,-86"/>
</a>
</g>
</g>
<!-- Node2&#45;&gt;Node1 -->
<g id="edge1_Node000001_Node000002" class="edge">
<title>Node2&#45;&gt;Node1</title>
<g id="a_edge1_Node000001_Node000002"><a xlink:title=" ">
<path fill="none" stroke="#63b8ff" d="M136,-75.71C136,-65.81 136,-56.8 136,-49.23"/>
<polygon fill="none" stroke="#63b8ff" points="132.5,-75.88 136,-85.88 139.5,-75.88 132.5,-75.88"/>
</a>
</g>
</g>
<!-- Node3 -->
<g id="Node000003" class="node">
<title>Node3</title>
<g id="a_Node000003"><a xlink:title=" ">
<polygon fill="white" stroke="transparent" points="38,-471 0,-471 0,-422 38,-422 38,-471"/>
<text text-anchor="start" x="5" y="-458.5" font-family="Helvetica,sans-Serif" font-size="10.00">string</text>
<text text-anchor="start" x="17" y="-443.5" font-family="Helvetica,sans-Serif" font-size="10.00"> </text>
<text text-anchor="start" x="17" y="-428.5" font-family="Helvetica,sans-Serif" font-size="10.00"> </text>
<polygon fill="#bfbfbf" stroke="#bfbfbf" points="0,-453.5 0,-453.5 38,-453.5 38,-453.5 0,-453.5"/>
<polygon fill="#bfbfbf" stroke="#bfbfbf" points="0,-438.5 0,-438.5 38,-438.5 38,-438.5 0,-438.5"/>
<polygon fill="none" stroke="#bfbfbf" points="0,-422 0,-471 38,-471 38,-422 0,-422"/>
</a>
</g>
</g>
<!-- Node3&#45;&gt;Node2 -->
<g id="edge2_Node000002_Node000003" class="edge">
<title>Node3&#45;&gt;Node2</title>
<g id="a_edge2_Node000002_Node000003"><a xlink:title=" ">
<path fill="none" stroke="#63b8ff" d="M26.99,-421.86C30.35,-412.7 34.52,-402.21 39,-393 40.12,-390.7 41.26,-388.39 42.42,-386.08"/>
<polygon fill="none" stroke="#63b8ff" points="42.51,-385.88 41.68,-378.72 47.97,-375.2 48.81,-382.36 42.51,-385.88"/>
</a>
</g>
<text text-anchor="middle" x="67" y="-396" font-family="Helvetica,sans-Serif" font-size="10.00" fill="grey"> &#45;mAbsPath</text>
</g>
<!-- Node4 -->
<g id="Node000004" class="node">
<title>Node4</title>
<g id="a_Node000004"><a xlink:href="classbool.html" target="_top" xlink:title=" ">
<polygon fill="white" stroke="transparent" points="114,-471 82,-471 82,-422 114,-422 114,-471"/>
<text text-anchor="start" x="87" y="-458.5" font-family="Helvetica,sans-Serif" font-size="10.00">bool</text>
<text text-anchor="start" x="96" y="-443.5" font-family="Helvetica,sans-Serif" font-size="10.00"> </text>
<text text-anchor="start" x="96" y="-428.5" font-family="Helvetica,sans-Serif" font-size="10.00"> </text>
<polygon fill="#bfbfbf" stroke="#bfbfbf" points="82,-453.5 82,-453.5 114,-453.5 114,-453.5 82,-453.5"/>
<polygon fill="#bfbfbf" stroke="#bfbfbf" points="82,-438.5 82,-438.5 114,-438.5 114,-438.5 82,-438.5"/>
<polygon fill="none" stroke="#bfbfbf" points="82,-422 82,-471 114,-471 114,-422 82,-422"/>
</a>
</g>
</g>
<!-- Node4&#45;&gt;Node2 -->
<g id="edge3_Node000002_Node000004" class="edge">
<title>Node4&#45;&gt;Node2</title>
<g id="a_edge3_Node000002_Node000004"><a xlink:title=" ">
<path fill="none" stroke="#63b8ff" d="M97.42,-421.91C97.46,-412.84 97.84,-402.41 99,-393 99.24,-391.08 99.48,-389.15 99.75,-387.21"/>
<polygon fill="none" stroke="#63b8ff" points="99.77,-387.07 96.67,-380.56 101.5,-375.2 104.59,-381.71 99.77,-387.07"/>
</a>
</g>
<text text-anchor="middle" x="126" y="-396" font-family="Helvetica,sans-Serif" font-size="10.00" fill="grey"> &#45;msFaking</text>
</g>
<!-- Node5 -->
<g id="Node000005" class="node">
<title>Node5</title>
<g id="a_Node000005"><a xlink:title=" ">
<polygon fill="white" stroke="transparent" points="194,-471 156,-471 156,-422 194,-422 194,-471"/>
<text text-anchor="start" x="161" y="-458.5" font-family="Helvetica,sans-Serif" font-size="10.00">Value</text>
<text text-anchor="start" x="173" y="-443.5" font-family="Helvetica,sans-Serif" font-size="10.00"> </text>
<text text-anchor="start" x="173" y="-428.5" font-family="Helvetica,sans-Serif" font-size="10.00"> </text>
<polygon fill="#bfbfbf" stroke="#bfbfbf" points="156,-453.5 156,-453.5 194,-453.5 194,-453.5 156,-453.5"/>
<polygon fill="#bfbfbf" stroke="#bfbfbf" points="156,-438.5 156,-438.5 194,-438.5 194,-438.5 156,-438.5"/>
<polygon fill="none" stroke="#bfbfbf" points="156,-422 156,-471 194,-471 194,-422 156,-422"/>
</a>
</g>
</g>
<!-- Node5&#45;&gt;Node2 -->
<g id="edge4_Node000002_Node000005" class="edge">
<title>Node5&#45;&gt;Node2</title>
<g id="a_edge4_Node000002_Node000005"><a xlink:title=" ">
<path fill="none" stroke="#63b8ff" d="M170.68,-421.78C168.93,-412.19 166.75,-400.25 164.35,-387.07"/>
<polygon fill="none" stroke="#63b8ff" points="164.34,-387 159.33,-381.81 162.19,-375.19 167.2,-380.38 164.34,-387"/>
</a>
</g>
<text text-anchor="middle" x="201" y="-396" font-family="Helvetica,sans-Serif" font-size="10.00" fill="grey"> &#45;msFakeWhat</text>
</g>
<!-- Node6 -->
<g id="Node000006" class="node">
<title>Node6</title>
<g id="a_Node000006"><a xlink:title=" ">
<polygon fill="white" stroke="transparent" points="287,-471 249,-471 249,-422 287,-422 287,-471"/>
<text text-anchor="start" x="254" y="-458.5" font-family="Helvetica,sans-Serif" font-size="10.00">string</text>
<text text-anchor="start" x="266" y="-443.5" font-family="Helvetica,sans-Serif" font-size="10.00"> </text>
<text text-anchor="start" x="266" y="-428.5" font-family="Helvetica,sans-Serif" font-size="10.00"> </text>
<polygon fill="#bfbfbf" stroke="#bfbfbf" points="249,-453.5 249,-453.5 287,-453.5 287,-453.5 249,-453.5"/>
<polygon fill="#bfbfbf" stroke="#bfbfbf" points="249,-438.5 249,-438.5 287,-438.5 287,-438.5 249,-438.5"/>
<polygon fill="none" stroke="#bfbfbf" points="249,-422 249,-471 287,-471 287,-422 249,-422"/>
</a>
</g>
</g>
<!-- Node6&#45;&gt;Node2 -->
<g id="edge5_Node000002_Node000006" class="edge">
<title>Node6&#45;&gt;Node2</title>
<g id="a_edge5_Node000002_Node000006"><a xlink:title=" ">
<path fill="none" stroke="#63b8ff" d="M255.86,-421.75C251.08,-412.67 245.44,-402.26 240,-393 238.45,-390.36 236.87,-387.7 235.28,-385.02"/>
<polygon fill="none" stroke="#63b8ff" points="235.23,-384.94 228.71,-381.86 229.05,-374.65 235.57,-377.74 235.23,-384.94"/>
</a>
</g>
<text text-anchor="middle" x="277.5" y="-396" font-family="Helvetica,sans-Serif" font-size="10.00" fill="grey"> &#45;msFakePath</text>
</g>
</g>
</svg>
