<?xml version="1.0" encoding="UTF-8" standalone="no"?>
<!DOCTYPE svg PUBLIC "-//W3C//DTD SVG 1.1//EN"
 "http://www.w3.org/Graphics/SVG/1.1/DTD/svg11.dtd">
<!-- Generated by graphviz version 2.43.0 (0)
 -->
<!-- Title: MeshalyzerMeshWriter&lt; ELEMENT_DIM, SPACE_DIM &gt; Pages: 1 -->
<svg width="1692pt" height="1250pt"
 viewBox="0.00 0.00 1691.50 1250.00" xmlns="http://www.w3.org/2000/svg" xmlns:xlink="http://www.w3.org/1999/xlink">
<g id="graph0" class="graph" transform="scale(1 1) rotate(0) translate(4 1246)">
<title>MeshalyzerMeshWriter&lt; ELEMENT_DIM, SPACE_DIM &gt;</title>
<!-- Node1 -->
<g id="Node000001" class="node">
<title>Node1</title>
<g id="a_Node000001"><a xlink:title=" ">
<polygon fill="#999999" stroke="transparent" points="1095.5,-210 930.5,-210 930.5,0 1095.5,0 1095.5,-210"/>
<text text-anchor="start" x="936" y="-198" font-family="Helvetica,sans-Serif" font-size="10.00">MeshalyzerMeshWriter</text>
<text text-anchor="start" x="936" y="-187" font-family="Helvetica,sans-Serif" font-size="10.00">&lt; ELEMENT_DIM, SPACE_DIM &gt;</text>
<text text-anchor="start" x="1011.5" y="-172" font-family="Helvetica,sans-Serif" font-size="10.00"> </text>
<text text-anchor="start" x="938.5" y="-157" font-family="Helvetica,sans-Serif" font-size="10.00">+</text>
<text text-anchor="start" x="955" y="-157" font-family="Helvetica,sans-Serif" font-size="10.00">MeshalyzerMeshWriter()</text>
<text text-anchor="start" x="938.5" y="-142" font-family="Helvetica,sans-Serif" font-size="10.00">+</text>
<text text-anchor="start" x="955" y="-142" font-family="Helvetica,sans-Serif" font-size="10.00">WriteFiles()</text>
<text text-anchor="start" x="938.5" y="-127" font-family="Helvetica,sans-Serif" font-size="10.00">+</text>
<text text-anchor="start" x="955" y="-127" font-family="Helvetica,sans-Serif" font-size="10.00">~MeshalyzerMeshWriter()</text>
<text text-anchor="start" x="938.5" y="-112" font-family="Helvetica,sans-Serif" font-size="10.00">#</text>
<text text-anchor="start" x="955" y="-112" font-family="Helvetica,sans-Serif" font-size="10.00">CreateFilesWithHeaders()</text>
<text text-anchor="start" x="938.5" y="-97" font-family="Helvetica,sans-Serif" font-size="10.00">#</text>
<text text-anchor="start" x="955" y="-97" font-family="Helvetica,sans-Serif" font-size="10.00">AppendLocalDataToFiles()</text>
<text text-anchor="start" x="941" y="-82" font-family="Helvetica,sans-Serif" font-size="10.00">&#45;</text>
<text text-anchor="start" x="955" y="-82" font-family="Helvetica,sans-Serif" font-size="10.00">OpenNodeFile()</text>
<text text-anchor="start" x="941" y="-67" font-family="Helvetica,sans-Serif" font-size="10.00">&#45;</text>
<text text-anchor="start" x="955" y="-67" font-family="Helvetica,sans-Serif" font-size="10.00">OpenElementFile()</text>
<text text-anchor="start" x="941" y="-52" font-family="Helvetica,sans-Serif" font-size="10.00">&#45;</text>
<text text-anchor="start" x="955" y="-52" font-family="Helvetica,sans-Serif" font-size="10.00">OpenFaceFile()</text>
<text text-anchor="start" x="941" y="-37" font-family="Helvetica,sans-Serif" font-size="10.00">&#45;</text>
<text text-anchor="start" x="955" y="-37" font-family="Helvetica,sans-Serif" font-size="10.00">WriteMetaFile()</text>
<text text-anchor="start" x="941" y="-22" font-family="Helvetica,sans-Serif" font-size="10.00">&#45;</text>
<text text-anchor="start" x="955" y="-22" font-family="Helvetica,sans-Serif" font-size="10.00">WriteFilesFooter()</text>
<text text-anchor="start" x="941" y="-7" font-family="Helvetica,sans-Serif" font-size="10.00">&#45;</text>
<text text-anchor="start" x="955" y="-7" font-family="Helvetica,sans-Serif" font-size="10.00">GetOpenMode()</text>
<polygon fill="#666666" stroke="#666666" points="931,-182 931,-182 1096,-182 1096,-182 931,-182"/>
<polygon fill="#666666" stroke="#666666" points="931,-167 931,-167 1096,-167 1096,-167 931,-167"/>
<polygon fill="none" stroke="#666666" points="930.5,0 930.5,-210 1095.5,-210 1095.5,0 930.5,0"/>
</a>
</g>
</g>
<!-- Node2 -->
<g id="Node000002" class="node">
<title>Node2</title>
<g id="a_Node000002"><a xlink:href="classAbstractTetrahedralMeshWriter.html" target="_top" xlink:title=" ">
<polygon fill="white" stroke="transparent" points="1103.5,-539 922.5,-539 922.5,-247 1103.5,-247 1103.5,-539"/>
<text text-anchor="start" x="936" y="-527" font-family="Helvetica,sans-Serif" font-size="10.00">AbstractTetrahedralMeshWriter</text>
<text text-anchor="start" x="936" y="-516" font-family="Helvetica,sans-Serif" font-size="10.00">&lt; ELEMENT_DIM, SPACE_DIM &gt;</text>
<text text-anchor="start" x="1011.5" y="-501" font-family="Helvetica,sans-Serif" font-size="10.00"> </text>
<text text-anchor="start" x="927" y="-486" font-family="Helvetica,sans-Serif" font-size="10.00">+</text>
<text text-anchor="start" x="940" y="-486" font-family="Helvetica,sans-Serif" font-size="10.00">AbstractTetrahedralMeshWriter()</text>
<text text-anchor="start" x="927" y="-471" font-family="Helvetica,sans-Serif" font-size="10.00">+</text>
<text text-anchor="start" x="940" y="-471" font-family="Helvetica,sans-Serif" font-size="10.00">~AbstractTetrahedralMesh</text>
<text text-anchor="start" x="940" y="-460" font-family="Helvetica,sans-Serif" font-size="10.00">Writer()</text>
<text text-anchor="start" x="927" y="-445" font-family="Helvetica,sans-Serif" font-size="10.00">+</text>
<text text-anchor="start" x="940" y="-445" font-family="Helvetica,sans-Serif" font-size="10.00">WriteFilesUsingMesh()</text>
<text text-anchor="start" x="927" y="-430" font-family="Helvetica,sans-Serif" font-size="10.00">+</text>
<text text-anchor="start" x="940" y="-430" font-family="Helvetica,sans-Serif" font-size="10.00">WriteFilesUsingMeshReader</text>
<text text-anchor="start" x="940" y="-419" font-family="Helvetica,sans-Serif" font-size="10.00">AndMesh()</text>
<text text-anchor="start" x="927" y="-404" font-family="Helvetica,sans-Serif" font-size="10.00">+</text>
<text text-anchor="start" x="940" y="-404" font-family="Helvetica,sans-Serif" font-size="10.00">GetNextNode()</text>
<text text-anchor="start" x="927" y="-389" font-family="Helvetica,sans-Serif" font-size="10.00">+</text>
<text text-anchor="start" x="940" y="-389" font-family="Helvetica,sans-Serif" font-size="10.00">GetNextElement()</text>
<text text-anchor="start" x="927" y="-374" font-family="Helvetica,sans-Serif" font-size="10.00">+</text>
<text text-anchor="start" x="940" y="-374" font-family="Helvetica,sans-Serif" font-size="10.00">GetNextBoundaryElement()</text>
<text text-anchor="start" x="927" y="-359" font-family="Helvetica,sans-Serif" font-size="10.00">+</text>
<text text-anchor="start" x="940" y="-359" font-family="Helvetica,sans-Serif" font-size="10.00">GetNextCableElement()</text>
<text text-anchor="start" x="929.5" y="-344" font-family="Helvetica,sans-Serif" font-size="10.00">&#45;</text>
<text text-anchor="start" x="940" y="-344" font-family="Helvetica,sans-Serif" font-size="10.00">PostElement()</text>
<text text-anchor="start" x="929.5" y="-329" font-family="Helvetica,sans-Serif" font-size="10.00">&#45;</text>
<text text-anchor="start" x="940" y="-329" font-family="Helvetica,sans-Serif" font-size="10.00">UnpackElement()</text>
<text text-anchor="start" x="929.5" y="-314" font-family="Helvetica,sans-Serif" font-size="10.00">&#45;</text>
<text text-anchor="start" x="940" y="-314" font-family="Helvetica,sans-Serif" font-size="10.00">WriteFilesUsingParallelMesh()</text>
<text text-anchor="start" x="929.5" y="-299" font-family="Helvetica,sans-Serif" font-size="10.00">&#45;</text>
<text text-anchor="start" x="940" y="-299" font-family="Helvetica,sans-Serif" font-size="10.00">WriteNclFile()</text>
<text text-anchor="start" x="929.5" y="-284" font-family="Helvetica,sans-Serif" font-size="10.00">&#45;</text>
<text text-anchor="start" x="940" y="-284" font-family="Helvetica,sans-Serif" font-size="10.00">CreateFilesWithHeaders()</text>
<text text-anchor="start" x="929.5" y="-269" font-family="Helvetica,sans-Serif" font-size="10.00">&#45;</text>
<text text-anchor="start" x="940" y="-269" font-family="Helvetica,sans-Serif" font-size="10.00">AppendLocalDataToFiles()</text>
<text text-anchor="start" x="929.5" y="-254" font-family="Helvetica,sans-Serif" font-size="10.00">&#45;</text>
<text text-anchor="start" x="940" y="-254" font-family="Helvetica,sans-Serif" font-size="10.00">WriteFilesFooter()</text>
<polygon fill="#666666" stroke="#666666" points="923,-511 923,-511 1104,-511 1104,-511 923,-511"/>
<polygon fill="#666666" stroke="#666666" points="923,-496 923,-496 1104,-496 1104,-496 923,-496"/>
<polygon fill="none" stroke="#666666" points="922.5,-247 922.5,-539 1103.5,-539 1103.5,-247 922.5,-247"/>
</a>
</g>
</g>
<!-- Node2&#45;&gt;Node1 -->
<g id="edge1_Node000001_Node000002" class="edge">
<title>Node2&#45;&gt;Node1</title>
<g id="a_edge1_Node000001_Node000002"><a xlink:title=" ">
<path fill="none" stroke="#63b8ff" d="M1013,-236.71C1013,-227.7 1013,-218.75 1013,-210.01"/>
<polygon fill="none" stroke="#63b8ff" points="1009.5,-236.91 1013,-246.91 1016.5,-236.91 1009.5,-236.91"/>
</a>
</g>
</g>
<!-- Node3 -->
<g id="Node000003" class="node">
<title>Node3</title>
<g id="a_Node000003"><a xlink:href="classAbstractMeshWriter.html" target="_top" xlink:title=" ">
<polygon fill="white" stroke="transparent" points="398,-826 232,-826 232,-586 398,-586 398,-826"/>
<text text-anchor="start" x="237.5" y="-814" font-family="Helvetica,sans-Serif" font-size="10.00">AbstractMeshWriter</text>
<text text-anchor="start" x="237.5" y="-803" font-family="Helvetica,sans-Serif" font-size="10.00">&lt; ELEMENT_DIM, SPACE_DIM &gt;</text>
<text text-anchor="start" x="313" y="-788" font-family="Helvetica,sans-Serif" font-size="10.00"> </text>
<text text-anchor="start" x="236" y="-773" font-family="Helvetica,sans-Serif" font-size="10.00">+</text>
<text text-anchor="start" x="249" y="-773" font-family="Helvetica,sans-Serif" font-size="10.00">AbstractMeshWriter()</text>
<text text-anchor="start" x="236" y="-758" font-family="Helvetica,sans-Serif" font-size="10.00">+</text>
<text text-anchor="start" x="249" y="-758" font-family="Helvetica,sans-Serif" font-size="10.00">~AbstractMeshWriter()</text>
<text text-anchor="start" x="236" y="-743" font-family="Helvetica,sans-Serif" font-size="10.00">+</text>
<text text-anchor="start" x="249" y="-743" font-family="Helvetica,sans-Serif" font-size="10.00">GetOutputDirectory()</text>
<text text-anchor="start" x="236" y="-728" font-family="Helvetica,sans-Serif" font-size="10.00">+</text>
<text text-anchor="start" x="249" y="-728" font-family="Helvetica,sans-Serif" font-size="10.00">GetNumNodes()</text>
<text text-anchor="start" x="236" y="-713" font-family="Helvetica,sans-Serif" font-size="10.00">+</text>
<text text-anchor="start" x="249" y="-713" font-family="Helvetica,sans-Serif" font-size="10.00">GetNumElements()</text>
<text text-anchor="start" x="236" y="-698" font-family="Helvetica,sans-Serif" font-size="10.00">+</text>
<text text-anchor="start" x="249" y="-698" font-family="Helvetica,sans-Serif" font-size="10.00">GetNumBoundaryFaces()</text>
<text text-anchor="start" x="236" y="-683" font-family="Helvetica,sans-Serif" font-size="10.00">+</text>
<text text-anchor="start" x="249" y="-683" font-family="Helvetica,sans-Serif" font-size="10.00">GetNumCableElements()</text>
<text text-anchor="start" x="236" y="-668" font-family="Helvetica,sans-Serif" font-size="10.00">+</text>
<text text-anchor="start" x="249" y="-668" font-family="Helvetica,sans-Serif" font-size="10.00">GetNextNode()</text>
<text text-anchor="start" x="236" y="-653" font-family="Helvetica,sans-Serif" font-size="10.00">+</text>
<text text-anchor="start" x="249" y="-653" font-family="Helvetica,sans-Serif" font-size="10.00">GetNextElement()</text>
<text text-anchor="start" x="236" y="-638" font-family="Helvetica,sans-Serif" font-size="10.00">+</text>
<text text-anchor="start" x="249" y="-638" font-family="Helvetica,sans-Serif" font-size="10.00">GetNextBoundaryElement()</text>
<text text-anchor="start" x="236" y="-623" font-family="Helvetica,sans-Serif" font-size="10.00">+</text>
<text text-anchor="start" x="249" y="-623" font-family="Helvetica,sans-Serif" font-size="10.00">GetNextCableElement()</text>
<text text-anchor="start" x="236" y="-608" font-family="Helvetica,sans-Serif" font-size="10.00">+</text>
<text text-anchor="start" x="249" y="-608" font-family="Helvetica,sans-Serif" font-size="10.00">WriteFiles()</text>
<text text-anchor="start" x="236" y="-593" font-family="Helvetica,sans-Serif" font-size="10.00">+</text>
<text text-anchor="start" x="249" y="-593" font-family="Helvetica,sans-Serif" font-size="10.00">WriteFilesUsingMeshReader()</text>
<polygon fill="#666666" stroke="#666666" points="232,-798 232,-798 398,-798 398,-798 232,-798"/>
<polygon fill="#666666" stroke="#666666" points="232,-783 232,-783 398,-783 398,-783 232,-783"/>
<polygon fill="none" stroke="#666666" points="232,-586 232,-826 398,-826 398,-586 232,-586"/>
</a>
</g>
</g>
<!-- Node3&#45;&gt;Node2 -->
<g id="edge2_Node000002_Node000003" class="edge">
<title>Node3&#45;&gt;Node2</title>
<g id="a_edge2_Node000002_Node000003"><a xlink:title=" ">
<path fill="none" stroke="#63b8ff" d="M406.87,-644.76C452.92,-616.04 510.2,-582.48 564,-557 684.3,-500.04 830.24,-450.43 922.39,-421.34"/>
<polygon fill="none" stroke="#63b8ff" points="404.73,-641.97 398.11,-650.25 408.45,-647.9 404.73,-641.97"/>
</a>
</g>
</g>
<!-- Node4 -->
<g id="Node000004" class="node">
<title>Node4</title>
<g id="a_Node000004"><a xlink:href="classOutputFileHandler.html" target="_top" xlink:title=" ">
<polygon fill="white" stroke="transparent" points="178,-1146 0,-1146 0,-906 178,-906 178,-1146"/>
<text text-anchor="start" x="44.5" y="-1134" font-family="Helvetica,sans-Serif" font-size="10.00">OutputFileHandler</text>
<text text-anchor="start" x="87" y="-1119" font-family="Helvetica,sans-Serif" font-size="10.00"> </text>
<text text-anchor="start" x="4" y="-1104" font-family="Helvetica,sans-Serif" font-size="10.00">+</text>
<text text-anchor="start" x="17" y="-1104" font-family="Helvetica,sans-Serif" font-size="10.00">OutputFileHandler()</text>
<text text-anchor="start" x="4" y="-1089" font-family="Helvetica,sans-Serif" font-size="10.00">+</text>
<text text-anchor="start" x="17" y="-1089" font-family="Helvetica,sans-Serif" font-size="10.00">OutputFileHandler()</text>
<text text-anchor="start" x="4" y="-1074" font-family="Helvetica,sans-Serif" font-size="10.00">+</text>
<text text-anchor="start" x="17" y="-1074" font-family="Helvetica,sans-Serif" font-size="10.00">GetOutputDirectoryFullPath()</text>
<text text-anchor="start" x="4" y="-1059" font-family="Helvetica,sans-Serif" font-size="10.00">+</text>
<text text-anchor="start" x="17" y="-1059" font-family="Helvetica,sans-Serif" font-size="10.00">GetRelativePath()</text>
<text text-anchor="start" x="4" y="-1044" font-family="Helvetica,sans-Serif" font-size="10.00">+</text>
<text text-anchor="start" x="17" y="-1044" font-family="Helvetica,sans-Serif" font-size="10.00">SetArchiveDirectory()</text>
<text text-anchor="start" x="4" y="-1029" font-family="Helvetica,sans-Serif" font-size="10.00">+</text>
<text text-anchor="start" x="17" y="-1029" font-family="Helvetica,sans-Serif" font-size="10.00">OpenOutputFile()</text>
<text text-anchor="start" x="4" y="-1014" font-family="Helvetica,sans-Serif" font-size="10.00">+</text>
<text text-anchor="start" x="17" y="-1014" font-family="Helvetica,sans-Serif" font-size="10.00">OpenOutputFile()</text>
<text text-anchor="start" x="4" y="-999" font-family="Helvetica,sans-Serif" font-size="10.00">+</text>
<text text-anchor="start" x="17" y="-999" font-family="Helvetica,sans-Serif" font-size="10.00">CopyFileTo()</text>
<text text-anchor="start" x="4" y="-984" font-family="Helvetica,sans-Serif" font-size="10.00">+</text>
<text text-anchor="start" x="17" y="-984" font-family="Helvetica,sans-Serif" font-size="10.00">FindFile()</text>
<text text-anchor="start" x="4" y="-969" font-family="Helvetica,sans-Serif" font-size="10.00">+</text>
<text text-anchor="start" x="17" y="-969" font-family="Helvetica,sans-Serif" font-size="10.00">GetChasteTestOutputDirectory()</text>
<text text-anchor="start" x="6.5" y="-954" font-family="Helvetica,sans-Serif" font-size="10.00">&#45;</text>
<text text-anchor="start" x="17" y="-954" font-family="Helvetica,sans-Serif" font-size="10.00">CommonConstructor()</text>
<text text-anchor="start" x="6.5" y="-939" font-family="Helvetica,sans-Serif" font-size="10.00">&#45;</text>
<text text-anchor="start" x="17" y="-939" font-family="Helvetica,sans-Serif" font-size="10.00">MakeFoldersAndReturnFull</text>
<text text-anchor="start" x="17" y="-928" font-family="Helvetica,sans-Serif" font-size="10.00">Path()</text>
<text text-anchor="start" x="6.5" y="-913" font-family="Helvetica,sans-Serif" font-size="10.00">&#45;</text>
<text text-anchor="start" x="17" y="-913" font-family="Helvetica,sans-Serif" font-size="10.00">AddTrailingSlash()</text>
<polygon fill="#666666" stroke="#666666" points="0,-1129 0,-1129 178,-1129 178,-1129 0,-1129"/>
<polygon fill="#666666" stroke="#666666" points="0,-1114 0,-1114 178,-1114 178,-1114 0,-1114"/>
<polygon fill="none" stroke="#666666" points="0,-906 0,-1146 178,-1146 178,-906 0,-906"/>
</a>
</g>
</g>
<!-- Node4&#45;&gt;Node3 -->
<g id="edge3_Node000003_Node000004" class="edge">
<title>Node4&#45;&gt;Node3</title>
<g id="a_edge3_Node000003_Node000004"><a xlink:title=" ">
<path fill="none" stroke="#63b8ff" d="M72.81,-905.62C74.48,-884.09 79.48,-862.6 90,-844 118.14,-794.23 172.46,-760.4 220.67,-738.81"/>
<polygon fill="none" stroke="#63b8ff" points="220.8,-738.76 224.71,-732.7 231.81,-733.99 227.89,-740.04 220.8,-738.76"/>
</a>
</g>
<text text-anchor="middle" x="148" y="-863.5" font-family="Helvetica,sans-Serif" font-size="10.00" fill="grey"> #mpOutputFileHandler</text>
</g>
<!-- Node5 -->
<g id="Node000005" class="node">
<title>Node5</title>
<g id="a_Node000005"><a xlink:title=" ">
<polygon fill="white" stroke="transparent" points="51,-1242 13,-1242 13,-1193 51,-1193 51,-1242"/>
<text text-anchor="start" x="18" y="-1229.5" font-family="Helvetica,sans-Serif" font-size="10.00">string</text>
<text text-anchor="start" x="30" y="-1214.5" font-family="Helvetica,sans-Serif" font-size="10.00"> </text>
<text text-anchor="start" x="30" y="-1199.5" font-family="Helvetica,sans-Serif" font-size="10.00"> </text>
<polygon fill="#bfbfbf" stroke="#bfbfbf" points="13,-1224.5 13,-1224.5 51,-1224.5 51,-1224.5 13,-1224.5"/>
<polygon fill="#bfbfbf" stroke="#bfbfbf" points="13,-1209.5 13,-1209.5 51,-1209.5 51,-1209.5 13,-1209.5"/>
<polygon fill="none" stroke="#bfbfbf" points="13,-1193 13,-1242 51,-1242 51,-1193 13,-1193"/>
</a>
</g>
</g>
<!-- Node5&#45;&gt;Node4 -->
<g id="edge4_Node000004_Node000005" class="edge">
<title>Node5&#45;&gt;Node4</title>
<g id="a_edge4_Node000004_Node000005"><a xlink:title=" ">
<path fill="none" stroke="#63b8ff" d="M30.61,-1192.77C30.56,-1183.69 31.08,-1173.29 33,-1164 33.42,-1161.97 33.87,-1159.93 34.34,-1157.88"/>
<polygon fill="none" stroke="#63b8ff" points="34.38,-1157.74 31.99,-1150.94 37.35,-1146.12 39.74,-1152.92 34.38,-1157.74"/>
</a>
</g>
<text text-anchor="middle" x="77" y="-1167" font-family="Helvetica,sans-Serif" font-size="10.00" fill="grey"> +SIG_FILE_NAME</text>
</g>
<!-- Node6 -->
<g id="Node000006" class="node">
<title>Node6</title>
<g id="a_Node000006"><a xlink:title=" ">
<polygon fill="white" stroke="transparent" points="200,-1242 162,-1242 162,-1193 200,-1193 200,-1242"/>
<text text-anchor="start" x="167" y="-1229.5" font-family="Helvetica,sans-Serif" font-size="10.00">string</text>
<text text-anchor="start" x="179" y="-1214.5" font-family="Helvetica,sans-Serif" font-size="10.00"> </text>
<text text-anchor="start" x="179" y="-1199.5" font-family="Helvetica,sans-Serif" font-size="10.00"> </text>
<polygon fill="#bfbfbf" stroke="#bfbfbf" points="162,-1224.5 162,-1224.5 200,-1224.5 200,-1224.5 162,-1224.5"/>
<polygon fill="#bfbfbf" stroke="#bfbfbf" points="162,-1209.5 162,-1209.5 200,-1209.5 200,-1209.5 162,-1209.5"/>
<polygon fill="none" stroke="#bfbfbf" points="162,-1193 162,-1242 200,-1242 200,-1193 162,-1193"/>
</a>
</g>
</g>
<!-- Node6&#45;&gt;Node3 -->
<g id="edge6_Node000003_Node000006" class="edge">
<title>Node6&#45;&gt;Node3</title>
<g id="a_edge6_Node000003_Node000006"><a xlink:title=" ">
<path fill="none" stroke="#63b8ff" d="M197.77,-1192.82C201.02,-1187.21 204.03,-1181.08 206,-1175 243.03,-1060.87 199.71,-1022.36 229,-906 234.72,-883.29 242.74,-859.85 251.6,-837.4"/>
<polygon fill="none" stroke="#63b8ff" points="251.67,-837.23 250.21,-830.17 256.16,-826.11 257.63,-833.17 251.67,-837.23"/>
</a>
</g>
<text text-anchor="middle" x="266.5" y="-1023.5" font-family="Helvetica,sans-Serif" font-size="10.00" fill="grey"> #mBaseName</text>
</g>
<!-- Node6&#45;&gt;Node4 -->
<g id="edge5_Node000004_Node000006" class="edge">
<title>Node6&#45;&gt;Node4</title>
<g id="a_edge5_Node000004_Node000006"><a xlink:title=" ">
<path fill="none" stroke="#63b8ff" d="M161.69,-1197.85C155.45,-1191.08 148.88,-1183.1 144,-1175 140.55,-1169.28 137.26,-1163.3 134.13,-1157.17"/>
<polygon fill="none" stroke="#63b8ff" points="133.94,-1156.78 127.71,-1153.15 128.67,-1146 134.9,-1149.63 133.94,-1156.78"/>
</a>
</g>
<text text-anchor="middle" x="175" y="-1167" font-family="Helvetica,sans-Serif" font-size="10.00" fill="grey"> &#45;mDirectory</text>
</g>
<!-- Node7 -->
<g id="Node000007" class="node">
<title>Node7</title>
<g id="a_Node000007"><a xlink:title=" ">
<polygon fill="white" stroke="transparent" points="442.5,-1061.5 313.5,-1061.5 313.5,-990.5 442.5,-990.5 442.5,-1061.5"/>
<text text-anchor="start" x="319" y="-1049" font-family="Helvetica,sans-Serif" font-size="10.00">AbstractMeshReader</text>
<text text-anchor="start" x="319" y="-1038" font-family="Helvetica,sans-Serif" font-size="10.00">&lt; ELEMENT_DIM, SPACE</text>
<text text-anchor="start" x="356" y="-1027" font-family="Helvetica,sans-Serif" font-size="10.00">_DIM &gt; *</text>
<text text-anchor="start" x="376.5" y="-1012" font-family="Helvetica,sans-Serif" font-size="10.00"> </text>
<text text-anchor="start" x="376.5" y="-997" font-family="Helvetica,sans-Serif" font-size="10.00"> </text>
<polygon fill="#bfbfbf" stroke="#bfbfbf" points="314,-1022 314,-1022 443,-1022 443,-1022 314,-1022"/>
<polygon fill="#bfbfbf" stroke="#bfbfbf" points="314,-1007 314,-1007 443,-1007 443,-1007 314,-1007"/>
<polygon fill="none" stroke="#bfbfbf" points="313.5,-990.5 313.5,-1061.5 442.5,-1061.5 442.5,-990.5 313.5,-990.5"/>
</a>
</g>
</g>
<!-- Node7&#45;&gt;Node3 -->
<g id="edge7_Node000003_Node000007" class="edge">
<title>Node7&#45;&gt;Node3</title>
<g id="a_edge7_Node000003_Node000007"><a xlink:title=" ">
<path fill="none" stroke="#63b8ff" d="M357.39,-990.37C342.64,-963.48 324.03,-924.73 316,-888 312.52,-872.07 310.4,-855.15 309.25,-838.31"/>
<polygon fill="none" stroke="#63b8ff" points="309.24,-838.06 304.91,-832.29 308.57,-826.08 312.9,-831.85 309.24,-838.06"/>
</a>
</g>
<text text-anchor="middle" x="360" y="-863.5" font-family="Helvetica,sans-Serif" font-size="10.00" fill="grey"> #mpMeshReader</text>
</g>
<!-- Node8 -->
<g id="Node000008" class="node">
<title>Node8</title>
<g id="a_Node000008"><a xlink:href="classunsigned.html" target="_top" xlink:title=" ">
<polygon fill="white" stroke="transparent" points="591.5,-1050.5 536.5,-1050.5 536.5,-1001.5 591.5,-1001.5 591.5,-1050.5"/>
<text text-anchor="start" x="542" y="-1038" font-family="Helvetica,sans-Serif" font-size="10.00">unsigned</text>
<text text-anchor="start" x="562.5" y="-1023" font-family="Helvetica,sans-Serif" font-size="10.00"> </text>
<text text-anchor="start" x="562.5" y="-1008" font-family="Helvetica,sans-Serif" font-size="10.00"> </text>
<polygon fill="#bfbfbf" stroke="#bfbfbf" points="537,-1033 537,-1033 592,-1033 592,-1033 537,-1033"/>
<polygon fill="#bfbfbf" stroke="#bfbfbf" points="537,-1018 537,-1018 592,-1018 592,-1018 537,-1018"/>
<polygon fill="none" stroke="#bfbfbf" points="536.5,-1001.5 536.5,-1050.5 591.5,-1050.5 591.5,-1001.5 536.5,-1001.5"/>
</a>
</g>
</g>
<!-- Node8&#45;&gt;Node2 -->
<g id="edge12_Node000002_Node000008" class="edge">
<title>Node8&#45;&gt;Node2</title>
<g id="a_edge12_Node000002_Node000008"><a xlink:title=" ">
<path fill="none" stroke="#63b8ff" d="M563.82,-1001.42C563.35,-915.21 563.49,-620.37 587,-586 660.49,-478.54 809.24,-430.36 910.02,-409.36"/>
<polygon fill="none" stroke="#63b8ff" points="910.3,-409.31 915.39,-404.2 922.07,-406.94 916.97,-412.04 910.3,-409.31"/>
</a>
</g>
<text text-anchor="start" x="587" y="-742" font-family="Helvetica,sans-Serif" font-size="10.00" fill="grey"> #mBoundaryElementCounter</text>
<text text-anchor="middle" x="675" y="-731" font-family="Helvetica,sans-Serif" font-size="10.00" fill="grey">ForParallelMesh</text>
<text text-anchor="start" x="587" y="-720" font-family="Helvetica,sans-Serif" font-size="10.00" fill="grey">#mCableElementCounterForParallel</text>
<text text-anchor="middle" x="675" y="-709" font-family="Helvetica,sans-Serif" font-size="10.00" fill="grey">Mesh</text>
<text text-anchor="middle" x="675" y="-698" font-family="Helvetica,sans-Serif" font-size="10.00" fill="grey">#mElementCounterForParallelMesh</text>
<text text-anchor="middle" x="675" y="-687" font-family="Helvetica,sans-Serif" font-size="10.00" fill="grey">#mNodeCounterForParallelMesh</text>
<text text-anchor="middle" x="675" y="-676" font-family="Helvetica,sans-Serif" font-size="10.00" fill="grey">#mNodesPerBoundaryElement</text>
<text text-anchor="middle" x="675" y="-665" font-family="Helvetica,sans-Serif" font-size="10.00" fill="grey">#mNodesPerElement</text>
</g>
<!-- Node8&#45;&gt;Node3 -->
<g id="edge8_Node000003_Node000008" class="edge">
<title>Node8&#45;&gt;Node3</title>
<g id="a_edge8_Node000003_Node000008"><a xlink:title=" ">
<path fill="none" stroke="#63b8ff" d="M543.43,-1001.06C521.57,-976.19 485.47,-936.69 451,-906 441.04,-897.13 435.64,-898.16 427,-888 412.71,-871.19 415.13,-863.05 404,-844 402.55,-841.52 401.08,-839.02 399.58,-836.51"/>
<polygon fill="none" stroke="#63b8ff" points="399.52,-836.42 393,-833.34 393.34,-826.13 399.86,-829.21 399.52,-836.42"/>
</a>
</g>
<text text-anchor="middle" x="495.5" y="-880" font-family="Helvetica,sans-Serif" font-size="10.00" fill="grey"> #mNumBoundaryElements</text>
<text text-anchor="middle" x="495.5" y="-869" font-family="Helvetica,sans-Serif" font-size="10.00" fill="grey">#mNumCableElements</text>
<text text-anchor="middle" x="495.5" y="-858" font-family="Helvetica,sans-Serif" font-size="10.00" fill="grey">#mNumElements</text>
<text text-anchor="middle" x="495.5" y="-847" font-family="Helvetica,sans-Serif" font-size="10.00" fill="grey">#mNumNodes</text>
</g>
<!-- Node9 -->
<g id="Node000009" class="node">
<title>Node9</title>
<g id="a_Node000009"><a xlink:href="classNodeMap.html" target="_top" xlink:title=" ">
<polygon fill="white" stroke="transparent" points="877.5,-790.5 772.5,-790.5 772.5,-621.5 877.5,-621.5 877.5,-790.5"/>
<text text-anchor="start" x="802" y="-778" font-family="Helvetica,sans-Serif" font-size="10.00">NodeMap</text>
<text text-anchor="start" x="823.5" y="-763" font-family="Helvetica,sans-Serif" font-size="10.00"> </text>
<text text-anchor="start" x="777" y="-748" font-family="Helvetica,sans-Serif" font-size="10.00">+</text>
<text text-anchor="start" x="790" y="-748" font-family="Helvetica,sans-Serif" font-size="10.00">NodeMap()</text>
<text text-anchor="start" x="777" y="-733" font-family="Helvetica,sans-Serif" font-size="10.00">+</text>
<text text-anchor="start" x="790" y="-733" font-family="Helvetica,sans-Serif" font-size="10.00">Resize()</text>
<text text-anchor="start" x="777" y="-718" font-family="Helvetica,sans-Serif" font-size="10.00">+</text>
<text text-anchor="start" x="790" y="-718" font-family="Helvetica,sans-Serif" font-size="10.00">ResetToIdentity()</text>
<text text-anchor="start" x="777" y="-703" font-family="Helvetica,sans-Serif" font-size="10.00">+</text>
<text text-anchor="start" x="790" y="-703" font-family="Helvetica,sans-Serif" font-size="10.00">SetNewIndex()</text>
<text text-anchor="start" x="777" y="-688" font-family="Helvetica,sans-Serif" font-size="10.00">+</text>
<text text-anchor="start" x="790" y="-688" font-family="Helvetica,sans-Serif" font-size="10.00">SetDeleted()</text>
<text text-anchor="start" x="777" y="-673" font-family="Helvetica,sans-Serif" font-size="10.00">+</text>
<text text-anchor="start" x="790" y="-673" font-family="Helvetica,sans-Serif" font-size="10.00">IsDeleted()</text>
<text text-anchor="start" x="777" y="-658" font-family="Helvetica,sans-Serif" font-size="10.00">+</text>
<text text-anchor="start" x="790" y="-658" font-family="Helvetica,sans-Serif" font-size="10.00">GetNewIndex()</text>
<text text-anchor="start" x="777" y="-643" font-family="Helvetica,sans-Serif" font-size="10.00">+</text>
<text text-anchor="start" x="790" y="-643" font-family="Helvetica,sans-Serif" font-size="10.00">IsIdentityMap()</text>
<text text-anchor="start" x="777" y="-628" font-family="Helvetica,sans-Serif" font-size="10.00">+</text>
<text text-anchor="start" x="790" y="-628" font-family="Helvetica,sans-Serif" font-size="10.00">GetSize()</text>
<polygon fill="#666666" stroke="#666666" points="773,-773 773,-773 878,-773 878,-773 773,-773"/>
<polygon fill="#666666" stroke="#666666" points="773,-758 773,-758 878,-758 878,-758 773,-758"/>
<polygon fill="none" stroke="#666666" points="772.5,-621.5 772.5,-790.5 877.5,-790.5 877.5,-621.5 772.5,-621.5"/>
</a>
</g>
</g>
<!-- Node9&#45;&gt;Node2 -->
<g id="edge9_Node000002_Node000009" class="edge">
<title>Node9&#45;&gt;Node2</title>
<g id="a_edge9_Node000002_Node000009"><a xlink:title=" ">
<path fill="none" stroke="#63b8ff" d="M816.31,-621.21C817.1,-599.48 820.78,-576.67 830,-557 848.17,-518.26 880.3,-484.8 912.63,-458.45"/>
<polygon fill="none" stroke="#63b8ff" points="912.8,-458.32 915.01,-451.46 922.19,-450.86 919.98,-457.72 912.8,-458.32"/>
</a>
</g>
<text text-anchor="middle" x="865" y="-560" font-family="Helvetica,sans-Serif" font-size="10.00" fill="grey"> &#45;mpNodeMap</text>
</g>
<!-- Node10 -->
<g id="Node000010" class="node">
<title>Node10</title>
<g id="a_Node000010"><a xlink:title=" ">
<polygon fill="white" stroke="transparent" points="829,-1050.5 721,-1050.5 721,-1001.5 829,-1001.5 829,-1050.5"/>
<text text-anchor="start" x="726" y="-1038" font-family="Helvetica,sans-Serif" font-size="10.00">vector&lt; unsigned &gt;</text>
<text text-anchor="start" x="773" y="-1023" font-family="Helvetica,sans-Serif" font-size="10.00"> </text>
<text text-anchor="start" x="773" y="-1008" font-family="Helvetica,sans-Serif" font-size="10.00"> </text>
<polygon fill="#bfbfbf" stroke="#bfbfbf" points="721,-1033 721,-1033 829,-1033 829,-1033 721,-1033"/>
<polygon fill="#bfbfbf" stroke="#bfbfbf" points="721,-1018 721,-1018 829,-1018 829,-1018 721,-1018"/>
<polygon fill="none" stroke="#bfbfbf" points="721,-1001.5 721,-1050.5 829,-1050.5 829,-1001.5 721,-1001.5"/>
</a>
</g>
</g>
<!-- Node10&#45;&gt;Node9 -->
<g id="edge10_Node000009_Node000010" class="edge">
<title>Node10&#45;&gt;Node9</title>
<g id="a_edge10_Node000009_Node000010"><a xlink:title=" ">
<path fill="none" stroke="#63b8ff" d="M772.62,-1001.34C769.67,-966.56 766.18,-899.7 776,-844 778.43,-830.2 782.11,-815.95 786.38,-802.09"/>
<polygon fill="none" stroke="#63b8ff" points="786.42,-801.98 784.45,-795.05 790.09,-790.56 792.06,-797.5 786.42,-801.98"/>
</a>
</g>
<text text-anchor="middle" x="795" y="-863.5" font-family="Helvetica,sans-Serif" font-size="10.00" fill="grey"> &#45;mMap</text>
</g>
<!-- Node11 -->
<g id="Node000011" class="node">
<title>Node11</title>
<g id="a_Node000011"><a xlink:href="classbool.html" target="_top" xlink:title=" ">
<polygon fill="white" stroke="transparent" points="904,-1050.5 872,-1050.5 872,-1001.5 904,-1001.5 904,-1050.5"/>
<text text-anchor="start" x="877" y="-1038" font-family="Helvetica,sans-Serif" font-size="10.00">bool</text>
<text text-anchor="start" x="886" y="-1023" font-family="Helvetica,sans-Serif" font-size="10.00"> </text>
<text text-anchor="start" x="886" y="-1008" font-family="Helvetica,sans-Serif" font-size="10.00"> </text>
<polygon fill="#bfbfbf" stroke="#bfbfbf" points="872,-1033 872,-1033 904,-1033 904,-1033 872,-1033"/>
<polygon fill="#bfbfbf" stroke="#bfbfbf" points="872,-1018 872,-1018 904,-1018 904,-1018 872,-1018"/>
<polygon fill="none" stroke="#bfbfbf" points="872,-1001.5 872,-1050.5 904,-1050.5 904,-1001.5 872,-1001.5"/>
</a>
</g>
</g>
<!-- Node11&#45;&gt;Node2 -->
<g id="edge17_Node000002_Node000011" class="edge">
<title>Node11&#45;&gt;Node2</title>
<g id="a_edge17_Node000002_Node000011"><a xlink:title=" ">
<path fill="none" stroke="#63b8ff" d="M890.16,-1001.25C892.63,-973.93 896.75,-927.74 900,-888 910.98,-753.84 888.76,-716.18 923,-586 926.09,-574.26 929.87,-562.37 934.12,-550.54"/>
<polygon fill="none" stroke="#63b8ff" points="934.14,-550.48 932.49,-543.47 938.33,-539.24 939.99,-546.26 934.14,-550.48"/>
</a>
</g>
<text text-anchor="middle" x="969.5" y="-714.5" font-family="Helvetica,sans-Serif" font-size="10.00" fill="grey"> #mFilesAreBinary</text>
<text text-anchor="middle" x="969.5" y="-703.5" font-family="Helvetica,sans-Serif" font-size="10.00" fill="grey">#mIndexFromZero</text>
<text text-anchor="middle" x="969.5" y="-692.5" font-family="Helvetica,sans-Serif" font-size="10.00" fill="grey">#mWriteMetaFile</text>
</g>
<!-- Node11&#45;&gt;Node9 -->
<g id="edge11_Node000009_Node000011" class="edge">
<title>Node11&#45;&gt;Node9</title>
<g id="a_edge11_Node000009_Node000011"><a xlink:title=" ">
<path fill="none" stroke="#63b8ff" d="M876.8,-1001.38C864.66,-974.57 845.84,-929.19 837,-888 831.13,-860.64 827.89,-830.47 826.16,-802.73"/>
<polygon fill="none" stroke="#63b8ff" points="826.15,-802.58 821.83,-796.81 825.49,-790.6 829.82,-796.37 826.15,-802.58"/>
</a>
</g>
<text text-anchor="middle" x="868.5" y="-863.5" font-family="Helvetica,sans-Serif" font-size="10.00" fill="grey"> &#45;mIsIdentity</text>
</g>
<!-- Node12 -->
<g id="Node000012" class="node">
<title>Node12</title>
<g id="a_Node000012"><a xlink:title=" ">
<polygon fill="white" stroke="transparent" points="1198.5,-736 1025.5,-736 1025.5,-676 1198.5,-676 1198.5,-736"/>
<text text-anchor="start" x="1031" y="-724" font-family="Helvetica,sans-Serif" font-size="10.00">AbstractTetrahedralMesh</text>
<text text-anchor="start" x="1031" y="-713" font-family="Helvetica,sans-Serif" font-size="10.00">&lt; ELEMENT_DIM, SPACE_DIM &gt; *</text>
<text text-anchor="start" x="1110.5" y="-698" font-family="Helvetica,sans-Serif" font-size="10.00"> </text>
<text text-anchor="start" x="1110.5" y="-683" font-family="Helvetica,sans-Serif" font-size="10.00"> </text>
<polygon fill="#bfbfbf" stroke="#bfbfbf" points="1026,-708 1026,-708 1199,-708 1199,-708 1026,-708"/>
<polygon fill="#bfbfbf" stroke="#bfbfbf" points="1026,-693 1026,-693 1199,-693 1199,-693 1026,-693"/>
<polygon fill="none" stroke="#bfbfbf" points="1025.5,-676 1025.5,-736 1198.5,-736 1198.5,-676 1025.5,-676"/>
</a>
</g>
</g>
<!-- Node12&#45;&gt;Node2 -->
<g id="edge13_Node000002_Node000012" class="edge">
<title>Node12&#45;&gt;Node2</title>
<g id="a_edge13_Node000002_Node000012"><a xlink:title=" ">
<path fill="none" stroke="#63b8ff" d="M1102.69,-675.74C1093.33,-646.34 1078.15,-598.65 1062.91,-550.79"/>
<polygon fill="none" stroke="#63b8ff" points="1062.89,-550.72 1057.26,-546.22 1059.25,-539.29 1064.88,-543.79 1062.89,-550.72"/>
</a>
</g>
<text text-anchor="middle" x="1093" y="-560" font-family="Helvetica,sans-Serif" font-size="10.00" fill="grey"> #mpMesh</text>
</g>
<!-- Node13 -->
<g id="Node000013" class="node">
<title>Node13</title>
<g id="a_Node000013"><a xlink:title=" ">
<polygon fill="white" stroke="transparent" points="1389.5,-736 1216.5,-736 1216.5,-676 1389.5,-676 1389.5,-736"/>
<text text-anchor="start" x="1222" y="-724" font-family="Helvetica,sans-Serif" font-size="10.00">DistributedTetrahedralMesh</text>
<text text-anchor="start" x="1222" y="-713" font-family="Helvetica,sans-Serif" font-size="10.00">&lt; ELEMENT_DIM, SPACE_DIM &gt; *</text>
<text text-anchor="start" x="1301.5" y="-698" font-family="Helvetica,sans-Serif" font-size="10.00"> </text>
<text text-anchor="start" x="1301.5" y="-683" font-family="Helvetica,sans-Serif" font-size="10.00"> </text>
<polygon fill="#bfbfbf" stroke="#bfbfbf" points="1217,-708 1217,-708 1390,-708 1390,-708 1217,-708"/>
<polygon fill="#bfbfbf" stroke="#bfbfbf" points="1217,-693 1217,-693 1390,-693 1390,-693 1217,-693"/>
<polygon fill="none" stroke="#bfbfbf" points="1216.5,-676 1216.5,-736 1389.5,-736 1389.5,-676 1216.5,-676"/>
</a>
</g>
</g>
<!-- Node13&#45;&gt;Node2 -->
<g id="edge14_Node000002_Node000013" class="edge">
<title>Node13&#45;&gt;Node2</title>
<g id="a_edge14_Node000002_Node000013"><a xlink:title=" ">
<path fill="none" stroke="#63b8ff" d="M1281.28,-675.84C1262.6,-651.25 1234.54,-615.46 1208,-586 1178.06,-552.77 1143.76,-518.01 1112.37,-487.35"/>
<polygon fill="none" stroke="#63b8ff" points="1112.2,-487.18 1105.11,-485.86 1103.6,-478.81 1110.69,-480.13 1112.2,-487.18"/>
</a>
</g>
<text text-anchor="middle" x="1241" y="-560" font-family="Helvetica,sans-Serif" font-size="10.00" fill="grey"> #mpDistributedMesh</text>
</g>
<!-- Node14 -->
<g id="Node000014" class="node">
<title>Node14</title>
<g id="a_Node000014"><a xlink:title=" ">
<polygon fill="white" stroke="transparent" points="1536.5,-741.5 1407.5,-741.5 1407.5,-670.5 1536.5,-670.5 1536.5,-741.5"/>
<text text-anchor="start" x="1413" y="-729" font-family="Helvetica,sans-Serif" font-size="10.00">MixedDimensionMesh</text>
<text text-anchor="start" x="1413" y="-718" font-family="Helvetica,sans-Serif" font-size="10.00">&lt; ELEMENT_DIM, SPACE</text>
<text text-anchor="start" x="1450" y="-707" font-family="Helvetica,sans-Serif" font-size="10.00">_DIM &gt; *</text>
<text text-anchor="start" x="1470.5" y="-692" font-family="Helvetica,sans-Serif" font-size="10.00"> </text>
<text text-anchor="start" x="1470.5" y="-677" font-family="Helvetica,sans-Serif" font-size="10.00"> </text>
<polygon fill="#bfbfbf" stroke="#bfbfbf" points="1408,-702 1408,-702 1537,-702 1537,-702 1408,-702"/>
<polygon fill="#bfbfbf" stroke="#bfbfbf" points="1408,-687 1408,-687 1537,-687 1537,-687 1408,-687"/>
<polygon fill="none" stroke="#bfbfbf" points="1407.5,-670.5 1407.5,-741.5 1536.5,-741.5 1536.5,-670.5 1407.5,-670.5"/>
</a>
</g>
</g>
<!-- Node14&#45;&gt;Node2 -->
<g id="edge15_Node000002_Node000014" class="edge">
<title>Node14&#45;&gt;Node2</title>
<g id="a_edge15_Node000002_Node000014"><a xlink:title=" ">
<path fill="none" stroke="#63b8ff" d="M1457.22,-670.4C1444.77,-644.51 1424.84,-609.64 1399,-586 1316.51,-510.52 1198.86,-457.75 1115.16,-426.89"/>
<polygon fill="none" stroke="#63b8ff" points="1115.12,-426.88 1108.12,-428.59 1103.85,-422.78 1110.85,-421.07 1115.12,-426.88"/>
</a>
</g>
<text text-anchor="middle" x="1413.5" y="-560" font-family="Helvetica,sans-Serif" font-size="10.00" fill="grey"> #mpMixedMesh</text>
</g>
<!-- Node15 -->
<g id="Node000015" class="node">
<title>Node15</title>
<g id="a_Node000015"><a xlink:title=" ">
<polygon fill="white" stroke="transparent" points="1683.5,-741.5 1554.5,-741.5 1554.5,-670.5 1683.5,-670.5 1683.5,-741.5"/>
<text text-anchor="start" x="1560" y="-729" font-family="Helvetica,sans-Serif" font-size="10.00">MeshWriterIterators</text>
<text text-anchor="start" x="1560" y="-718" font-family="Helvetica,sans-Serif" font-size="10.00">&lt; ELEMENT_DIM, SPACE</text>
<text text-anchor="start" x="1597" y="-707" font-family="Helvetica,sans-Serif" font-size="10.00">_DIM &gt; *</text>
<text text-anchor="start" x="1617.5" y="-692" font-family="Helvetica,sans-Serif" font-size="10.00"> </text>
<text text-anchor="start" x="1617.5" y="-677" font-family="Helvetica,sans-Serif" font-size="10.00"> </text>
<polygon fill="#bfbfbf" stroke="#bfbfbf" points="1555,-702 1555,-702 1684,-702 1684,-702 1555,-702"/>
<polygon fill="#bfbfbf" stroke="#bfbfbf" points="1555,-687 1555,-687 1684,-687 1684,-687 1555,-687"/>
<polygon fill="none" stroke="#bfbfbf" points="1554.5,-670.5 1554.5,-741.5 1683.5,-741.5 1683.5,-670.5 1554.5,-670.5"/>
</a>
</g>
</g>
<!-- Node15&#45;&gt;Node2 -->
<g id="edge16_Node000002_Node000015" class="edge">
<title>Node15&#45;&gt;Node2</title>
<g id="a_edge16_Node000002_Node000015"><a xlink:title=" ">
<path fill="none" stroke="#63b8ff" d="M1605.35,-670.34C1593.33,-643.9 1573.45,-608.34 1546,-586 1418.73,-482.41 1230.95,-432.29 1115.6,-409.95"/>
<polygon fill="none" stroke="#63b8ff" points="1115.42,-409.92 1108.78,-412.73 1103.63,-407.68 1110.27,-404.87 1115.42,-409.92"/>
</a>
</g>
<text text-anchor="middle" x="1545.5" y="-560" font-family="Helvetica,sans-Serif" font-size="10.00" fill="grey"> #mpIters</text>
</g>
</g>
</svg>
