<?xml version="1.0" encoding="UTF-8" standalone="no"?>
<!DOCTYPE svg PUBLIC "-//W3C//DTD SVG 1.1//EN"
 "http://www.w3.org/Graphics/SVG/1.1/DTD/svg11.dtd">
<!-- Generated by graphviz version 2.43.0 (0)
 -->
<!-- Title: CellPropertyCollection Pages: 1 -->
<svg width="457pt" height="635pt"
 viewBox="0.00 0.00 457.00 635.00" xmlns="http://www.w3.org/2000/svg" xmlns:xlink="http://www.w3.org/1999/xlink">
<g id="graph0" class="graph" transform="scale(1 1) rotate(0) translate(4 631)">
<title>CellPropertyCollection</title>
<!-- Node1 -->
<g id="Node000001" class="node">
<title>Node1</title>
<g id="a_Node000001"><a xlink:title=" ">
<polygon fill="#999999" stroke="transparent" points="200.5,-274 53.5,-274 53.5,0 200.5,0 200.5,-274"/>
<text text-anchor="start" x="73" y="-262" font-family="Helvetica,sans-Serif" font-size="10.00">CellPropertyCollection</text>
<text text-anchor="start" x="125.5" y="-247" font-family="Helvetica,sans-Serif" font-size="10.00"> </text>
<text text-anchor="start" x="58" y="-232" font-family="Helvetica,sans-Serif" font-size="10.00">+</text>
<text text-anchor="start" x="71" y="-232" font-family="Helvetica,sans-Serif" font-size="10.00">CellPropertyCollection()</text>
<text text-anchor="start" x="58" y="-217" font-family="Helvetica,sans-Serif" font-size="10.00">+</text>
<text text-anchor="start" x="71" y="-217" font-family="Helvetica,sans-Serif" font-size="10.00">AddProperty()</text>
<text text-anchor="start" x="58" y="-202" font-family="Helvetica,sans-Serif" font-size="10.00">+</text>
<text text-anchor="start" x="71" y="-202" font-family="Helvetica,sans-Serif" font-size="10.00">GetCellPropertyRegistry()</text>
<text text-anchor="start" x="58" y="-187" font-family="Helvetica,sans-Serif" font-size="10.00">+</text>
<text text-anchor="start" x="71" y="-187" font-family="Helvetica,sans-Serif" font-size="10.00">SetCellPropertyRegistry()</text>
<text text-anchor="start" x="58" y="-172" font-family="Helvetica,sans-Serif" font-size="10.00">+</text>
<text text-anchor="start" x="71" y="-172" font-family="Helvetica,sans-Serif" font-size="10.00">HasProperty()</text>
<text text-anchor="start" x="58" y="-157" font-family="Helvetica,sans-Serif" font-size="10.00">+</text>
<text text-anchor="start" x="71" y="-157" font-family="Helvetica,sans-Serif" font-size="10.00">HasProperty()</text>
<text text-anchor="start" x="58" y="-142" font-family="Helvetica,sans-Serif" font-size="10.00">+</text>
<text text-anchor="start" x="71" y="-142" font-family="Helvetica,sans-Serif" font-size="10.00">HasPropertyType()</text>
<text text-anchor="start" x="58" y="-127" font-family="Helvetica,sans-Serif" font-size="10.00">+</text>
<text text-anchor="start" x="71" y="-127" font-family="Helvetica,sans-Serif" font-size="10.00">RemoveProperty()</text>
<text text-anchor="start" x="58" y="-112" font-family="Helvetica,sans-Serif" font-size="10.00">+</text>
<text text-anchor="start" x="71" y="-112" font-family="Helvetica,sans-Serif" font-size="10.00">RemoveProperty()</text>
<text text-anchor="start" x="58" y="-97" font-family="Helvetica,sans-Serif" font-size="10.00">+</text>
<text text-anchor="start" x="71" y="-97" font-family="Helvetica,sans-Serif" font-size="10.00">GetSize()</text>
<text text-anchor="start" x="58" y="-82" font-family="Helvetica,sans-Serif" font-size="10.00">+</text>
<text text-anchor="start" x="71" y="-82" font-family="Helvetica,sans-Serif" font-size="10.00">Begin()</text>
<text text-anchor="start" x="58" y="-67" font-family="Helvetica,sans-Serif" font-size="10.00">+</text>
<text text-anchor="start" x="71" y="-67" font-family="Helvetica,sans-Serif" font-size="10.00">End()</text>
<text text-anchor="start" x="58" y="-52" font-family="Helvetica,sans-Serif" font-size="10.00">+</text>
<text text-anchor="start" x="71" y="-52" font-family="Helvetica,sans-Serif" font-size="10.00">GetProperty()</text>
<text text-anchor="start" x="58" y="-37" font-family="Helvetica,sans-Serif" font-size="10.00">+</text>
<text text-anchor="start" x="71" y="-37" font-family="Helvetica,sans-Serif" font-size="10.00">GetProperties()</text>
<text text-anchor="start" x="58" y="-22" font-family="Helvetica,sans-Serif" font-size="10.00">+</text>
<text text-anchor="start" x="71" y="-22" font-family="Helvetica,sans-Serif" font-size="10.00">GetPropertiesType()</text>
<text text-anchor="start" x="60.5" y="-7" font-family="Helvetica,sans-Serif" font-size="10.00">&#45;</text>
<text text-anchor="start" x="71" y="-7" font-family="Helvetica,sans-Serif" font-size="10.00">serialize()</text>
<polygon fill="#666666" stroke="#666666" points="54,-257 54,-257 201,-257 201,-257 54,-257"/>
<polygon fill="#666666" stroke="#666666" points="54,-242 54,-242 201,-242 201,-242 54,-242"/>
<polygon fill="none" stroke="#666666" points="53.5,0 53.5,-274 200.5,-274 200.5,0 53.5,0"/>
</a>
</g>
</g>
<!-- Node2 -->
<g id="Node000002" class="node">
<title>Node2</title>
<g id="a_Node000002"><a xlink:title=" ">
<polygon fill="white" stroke="transparent" points="164,-450.5 0,-450.5 0,-390.5 164,-390.5 164,-450.5"/>
<text text-anchor="start" x="5" y="-438.5" font-family="Helvetica,sans-Serif" font-size="10.00">set&lt; boost::shared</text>
<text text-anchor="start" x="5" y="-427.5" font-family="Helvetica,sans-Serif" font-size="10.00">_ptr&lt; AbstractCellProperty &gt; &gt;</text>
<text text-anchor="start" x="80" y="-412.5" font-family="Helvetica,sans-Serif" font-size="10.00"> </text>
<text text-anchor="start" x="80" y="-397.5" font-family="Helvetica,sans-Serif" font-size="10.00"> </text>
<polygon fill="#bfbfbf" stroke="#bfbfbf" points="0,-422.5 0,-422.5 164,-422.5 164,-422.5 0,-422.5"/>
<polygon fill="#bfbfbf" stroke="#bfbfbf" points="0,-407.5 0,-407.5 164,-407.5 164,-407.5 0,-407.5"/>
<polygon fill="none" stroke="#bfbfbf" points="0,-390.5 0,-450.5 164,-450.5 164,-390.5 0,-390.5"/>
</a>
</g>
</g>
<!-- Node2&#45;&gt;Node1 -->
<g id="edge1_Node000001_Node000002" class="edge">
<title>Node2&#45;&gt;Node1</title>
<g id="a_edge1_Node000001_Node000002"><a xlink:title=" ">
<path fill="none" stroke="#63b8ff" d="M86.65,-390.43C90.72,-364.98 96.96,-325.93 103.33,-286.09"/>
<polygon fill="none" stroke="#63b8ff" points="103.36,-285.85 100.36,-279.3 105.26,-274 108.26,-280.56 103.36,-285.85"/>
</a>
</g>
<text text-anchor="middle" x="135.5" y="-295" font-family="Helvetica,sans-Serif" font-size="10.00" fill="grey"> &#45;mProperties</text>
</g>
<!-- Node3 -->
<g id="Node000003" class="node">
<title>Node3</title>
<g id="a_Node000003"><a xlink:href="classCellPropertyRegistry.html" target="_top" xlink:title=" ">
<polygon fill="white" stroke="transparent" points="341.5,-520 182.5,-520 182.5,-321 341.5,-321 341.5,-520"/>
<text text-anchor="start" x="212" y="-507.5" font-family="Helvetica,sans-Serif" font-size="10.00">CellPropertyRegistry</text>
<text text-anchor="start" x="260.5" y="-492.5" font-family="Helvetica,sans-Serif" font-size="10.00"> </text>
<text text-anchor="start" x="187" y="-477.5" font-family="Helvetica,sans-Serif" font-size="10.00">+</text>
<text text-anchor="start" x="200" y="-477.5" font-family="Helvetica,sans-Serif" font-size="10.00">Get()</text>
<text text-anchor="start" x="187" y="-462.5" font-family="Helvetica,sans-Serif" font-size="10.00">+</text>
<text text-anchor="start" x="200" y="-462.5" font-family="Helvetica,sans-Serif" font-size="10.00">rGetAllCellProperties()</text>
<text text-anchor="start" x="187" y="-447.5" font-family="Helvetica,sans-Serif" font-size="10.00">+</text>
<text text-anchor="start" x="200" y="-447.5" font-family="Helvetica,sans-Serif" font-size="10.00">Clear()</text>
<text text-anchor="start" x="187" y="-432.5" font-family="Helvetica,sans-Serif" font-size="10.00">+</text>
<text text-anchor="start" x="200" y="-432.5" font-family="Helvetica,sans-Serif" font-size="10.00">TakeOwnership()</text>
<text text-anchor="start" x="187" y="-417.5" font-family="Helvetica,sans-Serif" font-size="10.00">+</text>
<text text-anchor="start" x="200" y="-417.5" font-family="Helvetica,sans-Serif" font-size="10.00">SpecifyOrdering()</text>
<text text-anchor="start" x="187" y="-402.5" font-family="Helvetica,sans-Serif" font-size="10.00">+</text>
<text text-anchor="start" x="200" y="-402.5" font-family="Helvetica,sans-Serif" font-size="10.00">HasOrderingBeenSpecified()</text>
<text text-anchor="start" x="187" y="-387.5" font-family="Helvetica,sans-Serif" font-size="10.00">+</text>
<text text-anchor="start" x="200" y="-387.5" font-family="Helvetica,sans-Serif" font-size="10.00">Instance()</text>
<text text-anchor="start" x="189.5" y="-372.5" font-family="Helvetica,sans-Serif" font-size="10.00">&#45;</text>
<text text-anchor="start" x="200" y="-372.5" font-family="Helvetica,sans-Serif" font-size="10.00">CellPropertyRegistry()</text>
<text text-anchor="start" x="189.5" y="-357.5" font-family="Helvetica,sans-Serif" font-size="10.00">&#45;</text>
<text text-anchor="start" x="200" y="-357.5" font-family="Helvetica,sans-Serif" font-size="10.00">CellPropertyRegistry()</text>
<text text-anchor="start" x="189.5" y="-342.5" font-family="Helvetica,sans-Serif" font-size="10.00">&#45;</text>
<text text-anchor="start" x="200" y="-342.5" font-family="Helvetica,sans-Serif" font-size="10.00">operator=()</text>
<text text-anchor="start" x="189.5" y="-327.5" font-family="Helvetica,sans-Serif" font-size="10.00">&#45;</text>
<text text-anchor="start" x="200" y="-327.5" font-family="Helvetica,sans-Serif" font-size="10.00">serialize()</text>
<polygon fill="#666666" stroke="#666666" points="183,-502.5 183,-502.5 342,-502.5 342,-502.5 183,-502.5"/>
<polygon fill="#666666" stroke="#666666" points="183,-487.5 183,-487.5 342,-487.5 342,-487.5 183,-487.5"/>
<polygon fill="none" stroke="#666666" points="182.5,-321 182.5,-520 341.5,-520 341.5,-321 182.5,-321"/>
</a>
</g>
</g>
<!-- Node3&#45;&gt;Node1 -->
<g id="edge2_Node000001_Node000003" class="edge">
<title>Node3&#45;&gt;Node1</title>
<g id="a_edge2_Node000001_Node000003"><a xlink:title=" ">
<path fill="none" stroke="#63b8ff" d="M214.59,-320.65C209.07,-309.13 203.34,-297.19 197.59,-285.19"/>
<polygon fill="none" stroke="#63b8ff" points="197.49,-284.99 191.29,-281.31 192.3,-274.17 198.5,-277.85 197.49,-284.99"/>
</a>
</g>
<text text-anchor="middle" x="265" y="-295" font-family="Helvetica,sans-Serif" font-size="10.00" fill="grey"> &#45;mpCellPropertyRegistry</text>
</g>
<!-- Node3&#45;&gt;Node3 -->
<g id="edge3_Node000003_Node000003" class="edge">
<title>Node3&#45;&gt;Node3</title>
<g id="a_edge3_Node000003_Node000003"><a xlink:title=" ">
<path fill="none" stroke="#63b8ff" d="M341.57,-440.79C352.33,-437.39 359.5,-430.63 359.5,-420.5 359.5,-414.33 356.84,-409.41 352.32,-405.73"/>
<polygon fill="none" stroke="#63b8ff" points="352.24,-405.69 345.08,-406.51 341.57,-400.21 348.74,-399.39 352.24,-405.69"/>
</a>
</g>
<text text-anchor="middle" x="391.5" y="-418" font-family="Helvetica,sans-Serif" font-size="10.00" fill="grey"> &#45;mpInstance</text>
</g>
<!-- Node4 -->
<g id="Node000004" class="node">
<title>Node4</title>
<g id="a_Node000004"><a xlink:title=" ">
<polygon fill="white" stroke="transparent" points="286,-627 122,-627 122,-567 286,-567 286,-627"/>
<text text-anchor="start" x="127" y="-615" font-family="Helvetica,sans-Serif" font-size="10.00">vector&lt; boost::shared</text>
<text text-anchor="start" x="127" y="-604" font-family="Helvetica,sans-Serif" font-size="10.00">_ptr&lt; AbstractCellProperty &gt; &gt;</text>
<text text-anchor="start" x="202" y="-589" font-family="Helvetica,sans-Serif" font-size="10.00"> </text>
<text text-anchor="start" x="202" y="-574" font-family="Helvetica,sans-Serif" font-size="10.00"> </text>
<polygon fill="#bfbfbf" stroke="#bfbfbf" points="122,-599 122,-599 286,-599 286,-599 122,-599"/>
<polygon fill="#bfbfbf" stroke="#bfbfbf" points="122,-584 122,-584 286,-584 286,-584 122,-584"/>
<polygon fill="none" stroke="#bfbfbf" points="122,-567 122,-627 286,-627 286,-567 122,-567"/>
</a>
</g>
</g>
<!-- Node4&#45;&gt;Node3 -->
<g id="edge4_Node000003_Node000004" class="edge">
<title>Node4&#45;&gt;Node3</title>
<g id="a_edge4_Node000003_Node000004"><a xlink:title=" ">
<path fill="none" stroke="#63b8ff" d="M207.11,-566.79C208.48,-557.48 210.39,-547.22 213,-538 213.6,-535.88 214.23,-533.74 214.89,-531.59"/>
<polygon fill="none" stroke="#63b8ff" points="214.92,-531.48 212.96,-524.54 218.61,-520.06 220.58,-527 214.92,-531.48"/>
</a>
</g>
<text text-anchor="middle" x="255.5" y="-541" font-family="Helvetica,sans-Serif" font-size="10.00" fill="grey"> &#45;mCellProperties</text>
</g>
<!-- Node5 -->
<g id="Node000005" class="node">
<title>Node5</title>
<g id="a_Node000005"><a xlink:href="classbool.html" target="_top" xlink:title=" ">
<polygon fill="white" stroke="transparent" points="336,-621.5 304,-621.5 304,-572.5 336,-572.5 336,-621.5"/>
<text text-anchor="start" x="309" y="-609" font-family="Helvetica,sans-Serif" font-size="10.00">bool</text>
<text text-anchor="start" x="318" y="-594" font-family="Helvetica,sans-Serif" font-size="10.00"> </text>
<text text-anchor="start" x="318" y="-579" font-family="Helvetica,sans-Serif" font-size="10.00"> </text>
<polygon fill="#bfbfbf" stroke="#bfbfbf" points="304,-604 304,-604 336,-604 336,-604 304,-604"/>
<polygon fill="#bfbfbf" stroke="#bfbfbf" points="304,-589 304,-589 336,-589 336,-589 304,-589"/>
<polygon fill="none" stroke="#bfbfbf" points="304,-572.5 304,-621.5 336,-621.5 336,-572.5 304,-572.5"/>
</a>
</g>
</g>
<!-- Node5&#45;&gt;Node3 -->
<g id="edge5_Node000003_Node000005" class="edge">
<title>Node5&#45;&gt;Node3</title>
<g id="a_edge5_Node000003_Node000005"><a xlink:title=" ">
<path fill="none" stroke="#63b8ff" d="M312.18,-572.47C308.48,-561.35 303.78,-547.19 298.74,-532.02"/>
<polygon fill="none" stroke="#63b8ff" points="298.61,-531.65 292.92,-527.21 294.83,-520.26 300.51,-524.69 298.61,-531.65"/>
</a>
</g>
<text text-anchor="middle" x="375.5" y="-541" font-family="Helvetica,sans-Serif" font-size="10.00" fill="grey"> &#45;mOrderingHasBeenSpecified</text>
</g>
</g>
</svg>
