<?xml version="1.0" encoding="UTF-8" standalone="no"?>
<!DOCTYPE svg PUBLIC "-//W3C//DTD SVG 1.1//EN"
 "http://www.w3.org/Graphics/SVG/1.1/DTD/svg11.dtd">
<!-- Generated by graphviz version 2.43.0 (0)
 -->
<!-- Title: AbstractOneStepIvpOdeSolver Pages: 1 -->
<svg width="451pt" height="459pt"
 viewBox="0.00 0.00 451.00 459.00" xmlns="http://www.w3.org/2000/svg" xmlns:xlink="http://www.w3.org/1999/xlink">
<g id="graph0" class="graph" transform="scale(1 1) rotate(0) translate(4 455)">
<title>AbstractOneStepIvpOdeSolver</title>
<!-- Node1 -->
<g id="Node000001" class="node">
<title>Node1</title>
<g id="a_Node000001"><a xlink:title=" ">
<polygon fill="#999999" stroke="transparent" points="379,-124 195,-124 195,0 379,0 379,-124"/>
<text text-anchor="start" x="213" y="-112" font-family="Helvetica,sans-Serif" font-size="10.00">AbstractOneStepIvpOdeSolver</text>
<text text-anchor="start" x="285" y="-97" font-family="Helvetica,sans-Serif" font-size="10.00"> </text>
<text text-anchor="start" x="199" y="-82" font-family="Helvetica,sans-Serif" font-size="10.00">+</text>
<text text-anchor="start" x="212" y="-82" font-family="Helvetica,sans-Serif" font-size="10.00">Solve()</text>
<text text-anchor="start" x="199" y="-67" font-family="Helvetica,sans-Serif" font-size="10.00">+</text>
<text text-anchor="start" x="212" y="-67" font-family="Helvetica,sans-Serif" font-size="10.00">Solve()</text>
<text text-anchor="start" x="199" y="-52" font-family="Helvetica,sans-Serif" font-size="10.00">+</text>
<text text-anchor="start" x="212" y="-52" font-family="Helvetica,sans-Serif" font-size="10.00">~AbstractOneStepIvpOdeSolver()</text>
<text text-anchor="start" x="199" y="-37" font-family="Helvetica,sans-Serif" font-size="10.00">#</text>
<text text-anchor="start" x="212" y="-37" font-family="Helvetica,sans-Serif" font-size="10.00">InternalSolve()</text>
<text text-anchor="start" x="199" y="-22" font-family="Helvetica,sans-Serif" font-size="10.00">#</text>
<text text-anchor="start" x="212" y="-22" font-family="Helvetica,sans-Serif" font-size="10.00">CalculateNextYValue()</text>
<text text-anchor="start" x="201.5" y="-7" font-family="Helvetica,sans-Serif" font-size="10.00">&#45;</text>
<text text-anchor="start" x="212" y="-7" font-family="Helvetica,sans-Serif" font-size="10.00">serialize()</text>
<polygon fill="#666666" stroke="#666666" points="195,-107 195,-107 379,-107 379,-107 195,-107"/>
<polygon fill="#666666" stroke="#666666" points="195,-92 195,-92 379,-92 379,-92 195,-92"/>
<polygon fill="none" stroke="#666666" points="195,0 195,-124 379,-124 379,0 195,0"/>
</a>
</g>
</g>
<!-- Node2 -->
<g id="Node000002" class="node">
<title>Node2</title>
<g id="a_Node000002"><a xlink:href="classAbstractIvpOdeSolver.html" target="_top" xlink:title=" ">
<polygon fill="white" stroke="transparent" points="297.5,-325 122.5,-325 122.5,-171 297.5,-171 297.5,-325"/>
<text text-anchor="start" x="157.5" y="-313" font-family="Helvetica,sans-Serif" font-size="10.00">AbstractIvpOdeSolver</text>
<text text-anchor="start" x="208.5" y="-298" font-family="Helvetica,sans-Serif" font-size="10.00"> </text>
<text text-anchor="start" x="127" y="-283" font-family="Helvetica,sans-Serif" font-size="10.00">+</text>
<text text-anchor="start" x="140" y="-283" font-family="Helvetica,sans-Serif" font-size="10.00">Solve()</text>
<text text-anchor="start" x="127" y="-268" font-family="Helvetica,sans-Serif" font-size="10.00">+</text>
<text text-anchor="start" x="140" y="-268" font-family="Helvetica,sans-Serif" font-size="10.00">Solve()</text>
<text text-anchor="start" x="127" y="-253" font-family="Helvetica,sans-Serif" font-size="10.00">+</text>
<text text-anchor="start" x="140" y="-253" font-family="Helvetica,sans-Serif" font-size="10.00">SolveAndUpdateStateVariable()</text>
<text text-anchor="start" x="127" y="-238" font-family="Helvetica,sans-Serif" font-size="10.00">+</text>
<text text-anchor="start" x="140" y="-238" font-family="Helvetica,sans-Serif" font-size="10.00">StoppingEventOccurred()</text>
<text text-anchor="start" x="127" y="-223" font-family="Helvetica,sans-Serif" font-size="10.00">+</text>
<text text-anchor="start" x="140" y="-223" font-family="Helvetica,sans-Serif" font-size="10.00">GetStoppingTime()</text>
<text text-anchor="start" x="127" y="-208" font-family="Helvetica,sans-Serif" font-size="10.00">+</text>
<text text-anchor="start" x="140" y="-208" font-family="Helvetica,sans-Serif" font-size="10.00">AbstractIvpOdeSolver()</text>
<text text-anchor="start" x="127" y="-193" font-family="Helvetica,sans-Serif" font-size="10.00">+</text>
<text text-anchor="start" x="140" y="-193" font-family="Helvetica,sans-Serif" font-size="10.00">~AbstractIvpOdeSolver()</text>
<text text-anchor="start" x="129.5" y="-178" font-family="Helvetica,sans-Serif" font-size="10.00">&#45;</text>
<text text-anchor="start" x="140" y="-178" font-family="Helvetica,sans-Serif" font-size="10.00">serialize()</text>
<polygon fill="#666666" stroke="#666666" points="123,-308 123,-308 298,-308 298,-308 123,-308"/>
<polygon fill="#666666" stroke="#666666" points="123,-293 123,-293 298,-293 298,-293 123,-293"/>
<polygon fill="none" stroke="#666666" points="122.5,-171 122.5,-325 297.5,-325 297.5,-171 122.5,-171"/>
</a>
</g>
</g>
<!-- Node2&#45;&gt;Node1 -->
<g id="edge1_Node000001_Node000002" class="edge">
<title>Node2&#45;&gt;Node1</title>
<g id="a_edge1_Node000001_Node000002"><a xlink:title=" ">
<path fill="none" stroke="#63b8ff" d="M245.86,-161.31C251.09,-148.8 256.39,-136.14 261.37,-124.25"/>
<polygon fill="none" stroke="#63b8ff" points="242.51,-160.26 241.87,-170.83 248.96,-162.96 242.51,-160.26"/>
</a>
</g>
</g>
<!-- Node3 -->
<g id="Node000003" class="node">
<title>Node3</title>
<g id="a_Node000003"><a xlink:href="classIdentifiable.html" target="_top" xlink:title=" ">
<polygon fill="white" stroke="transparent" points="176,-451 0,-451 0,-372 176,-372 176,-451"/>
<text text-anchor="start" x="60.5" y="-438.5" font-family="Helvetica,sans-Serif" font-size="10.00">Identifiable</text>
<text text-anchor="start" x="86" y="-423.5" font-family="Helvetica,sans-Serif" font-size="10.00"> </text>
<text text-anchor="start" x="4" y="-408.5" font-family="Helvetica,sans-Serif" font-size="10.00">+</text>
<text text-anchor="start" x="17" y="-408.5" font-family="Helvetica,sans-Serif" font-size="10.00">~Identifiable()</text>
<text text-anchor="start" x="4" y="-393.5" font-family="Helvetica,sans-Serif" font-size="10.00">+</text>
<text text-anchor="start" x="17" y="-393.5" font-family="Helvetica,sans-Serif" font-size="10.00">GetIdentifier()</text>
<text text-anchor="start" x="6.5" y="-378.5" font-family="Helvetica,sans-Serif" font-size="10.00">&#45;</text>
<text text-anchor="start" x="17" y="-378.5" font-family="Helvetica,sans-Serif" font-size="10.00">TidyTemplatedExportIdentifier()</text>
<polygon fill="#666666" stroke="#666666" points="0,-433.5 0,-433.5 176,-433.5 176,-433.5 0,-433.5"/>
<polygon fill="#666666" stroke="#666666" points="0,-418.5 0,-418.5 176,-418.5 176,-418.5 0,-418.5"/>
<polygon fill="none" stroke="#666666" points="0,-372 0,-451 176,-451 176,-372 0,-372"/>
</a>
</g>
</g>
<!-- Node3&#45;&gt;Node2 -->
<g id="edge2_Node000002_Node000003" class="edge">
<title>Node3&#45;&gt;Node2</title>
<g id="a_edge2_Node000002_Node000003"><a xlink:title=" ">
<path fill="none" stroke="#63b8ff" d="M123.39,-363.66C132.52,-351.56 142.6,-338.22 152.55,-325.06"/>
<polygon fill="none" stroke="#63b8ff" points="120.46,-361.73 117.22,-371.82 126.04,-365.95 120.46,-361.73"/>
</a>
</g>
</g>
<!-- Node4 -->
<g id="Node000004" class="node">
<title>Node4</title>
<g id="a_Node000004"><a xlink:href="classbool.html" target="_top" xlink:title=" ">
<polygon fill="white" stroke="transparent" points="226,-436 194,-436 194,-387 226,-387 226,-436"/>
<text text-anchor="start" x="199" y="-423.5" font-family="Helvetica,sans-Serif" font-size="10.00">bool</text>
<text text-anchor="start" x="208" y="-408.5" font-family="Helvetica,sans-Serif" font-size="10.00"> </text>
<text text-anchor="start" x="208" y="-393.5" font-family="Helvetica,sans-Serif" font-size="10.00"> </text>
<polygon fill="#bfbfbf" stroke="#bfbfbf" points="194,-418.5 194,-418.5 226,-418.5 226,-418.5 194,-418.5"/>
<polygon fill="#bfbfbf" stroke="#bfbfbf" points="194,-403.5 194,-403.5 226,-403.5 226,-403.5 194,-403.5"/>
<polygon fill="none" stroke="#bfbfbf" points="194,-387 194,-436 226,-436 226,-387 194,-387"/>
</a>
</g>
</g>
<!-- Node4&#45;&gt;Node2 -->
<g id="edge3_Node000002_Node000004" class="edge">
<title>Node4&#45;&gt;Node2</title>
<g id="a_edge3_Node000002_Node000004"><a xlink:title=" ">
<path fill="none" stroke="#63b8ff" d="M210,-386.67C210,-373.21 210,-355.46 210,-337.19"/>
<polygon fill="none" stroke="#63b8ff" points="210,-337.16 206,-331.16 210,-325.16 214,-331.16 210,-337.16"/>
</a>
</g>
<text text-anchor="middle" x="278" y="-346" font-family="Helvetica,sans-Serif" font-size="10.00" fill="grey"> #mStoppingEventOccurred</text>
</g>
<!-- Node5 -->
<g id="Node000005" class="node">
<title>Node5</title>
<g id="a_Node000005"><a xlink:href="classdouble.html" target="_top" xlink:title=" ">
<polygon fill="white" stroke="transparent" points="391,-436 347,-436 347,-387 391,-387 391,-436"/>
<text text-anchor="start" x="352" y="-423.5" font-family="Helvetica,sans-Serif" font-size="10.00">double</text>
<text text-anchor="start" x="367" y="-408.5" font-family="Helvetica,sans-Serif" font-size="10.00"> </text>
<text text-anchor="start" x="367" y="-393.5" font-family="Helvetica,sans-Serif" font-size="10.00"> </text>
<polygon fill="#bfbfbf" stroke="#bfbfbf" points="347,-418.5 347,-418.5 391,-418.5 391,-418.5 347,-418.5"/>
<polygon fill="#bfbfbf" stroke="#bfbfbf" points="347,-403.5 347,-403.5 391,-403.5 391,-403.5 347,-403.5"/>
<polygon fill="none" stroke="#bfbfbf" points="347,-387 347,-436 391,-436 391,-387 347,-387"/>
</a>
</g>
</g>
<!-- Node5&#45;&gt;Node2 -->
<g id="edge4_Node000002_Node000005" class="edge">
<title>Node5&#45;&gt;Node2</title>
<g id="a_edge4_Node000002_Node000005"><a xlink:title=" ">
<path fill="none" stroke="#63b8ff" d="M366.16,-386.85C363.38,-372.68 357.87,-355.11 347,-343 335.91,-330.65 326.8,-333.59 308.25,-324.88"/>
<polygon fill="none" stroke="#63b8ff" points="308.18,-324.84 301,-325.5 297.64,-319.12 304.82,-318.46 308.18,-324.84"/>
</a>
</g>
<text text-anchor="middle" x="398.5" y="-346" font-family="Helvetica,sans-Serif" font-size="10.00" fill="grey"> #mStoppingTime</text>
</g>
<!-- Node6 -->
<g id="Node000006" class="node">
<title>Node6</title>
<g id="a_Node000006"><a xlink:title=" ">
<polygon fill="white" stroke="transparent" points="412.5,-272.5 315.5,-272.5 315.5,-223.5 412.5,-223.5 412.5,-272.5"/>
<text text-anchor="start" x="321" y="-260" font-family="Helvetica,sans-Serif" font-size="10.00">vector&lt; double &gt;</text>
<text text-anchor="start" x="362.5" y="-245" font-family="Helvetica,sans-Serif" font-size="10.00"> </text>
<text text-anchor="start" x="362.5" y="-230" font-family="Helvetica,sans-Serif" font-size="10.00"> </text>
<polygon fill="#bfbfbf" stroke="#bfbfbf" points="316,-255 316,-255 413,-255 413,-255 316,-255"/>
<polygon fill="#bfbfbf" stroke="#bfbfbf" points="316,-240 316,-240 413,-240 413,-240 316,-240"/>
<polygon fill="none" stroke="#bfbfbf" points="315.5,-223.5 315.5,-272.5 412.5,-272.5 412.5,-223.5 315.5,-223.5"/>
</a>
</g>
</g>
<!-- Node6&#45;&gt;Node1 -->
<g id="edge5_Node000001_Node000006" class="edge">
<title>Node6&#45;&gt;Node1</title>
<g id="a_edge5_Node000001_Node000006"><a xlink:title=" ">
<path fill="none" stroke="#63b8ff" d="M354.09,-223.32C344.79,-201.11 330.4,-166.71 317.33,-135.47"/>
<polygon fill="none" stroke="#63b8ff" points="317.21,-135.2 311.21,-131.21 312.58,-124.13 318.59,-128.12 317.21,-135.2"/>
</a>
</g>
<text text-anchor="middle" x="372.5" y="-145" font-family="Helvetica,sans-Serif" font-size="10.00" fill="grey"> &#45;mWorkingMemory</text>
</g>
</g>
</svg>
