<?xml version="1.0" encoding="UTF-8" standalone="no"?>
<!DOCTYPE svg PUBLIC "-//W3C//DTD SVG 1.1//EN"
 "http://www.w3.org/Graphics/SVG/1.1/DTD/svg11.dtd">
<!-- Generated by graphviz version 2.43.0 (0)
 -->
<!-- Title: AbstractBoxDomainPdeModifier&lt; DIM &gt; Pages: 1 -->
<svg width="422pt" height="1704pt"
 viewBox="0.00 0.00 422.00 1704.00" xmlns="http://www.w3.org/2000/svg" xmlns:xlink="http://www.w3.org/1999/xlink">
<g id="graph0" class="graph" transform="scale(1 1) rotate(0) translate(4 1700)">
<title>AbstractBoxDomainPdeModifier&lt; DIM &gt;</title>
<!-- Node1 -->
<g id="Node000001" class="node">
<title>Node1</title>
<g id="a_Node000001"><a xlink:title=" ">
<polygon fill="#999999" stroke="transparent" points="298,-610 95,-610 95,-295 298,-295 298,-610"/>
<text text-anchor="start" x="119" y="-597.5" font-family="Helvetica,sans-Serif" font-size="10.00">AbstractBoxDomainPdeModifier</text>
<text text-anchor="start" x="175.5" y="-586.5" font-family="Helvetica,sans-Serif" font-size="10.00">&lt; DIM &gt;</text>
<text text-anchor="start" x="99.5" y="-571.5" font-family="Helvetica,sans-Serif" font-size="10.00">#</text>
<text text-anchor="start" x="112.5" y="-571.5" font-family="Helvetica,sans-Serif" font-size="10.00">mCellPdeElementMap</text>
<text text-anchor="start" x="99.5" y="-556.5" font-family="Helvetica,sans-Serif" font-size="10.00">#</text>
<text text-anchor="start" x="112.5" y="-556.5" font-family="Helvetica,sans-Serif" font-size="10.00">mpMeshCuboid</text>
<text text-anchor="start" x="99.5" y="-541.5" font-family="Helvetica,sans-Serif" font-size="10.00">#</text>
<text text-anchor="start" x="112.5" y="-541.5" font-family="Helvetica,sans-Serif" font-size="10.00">mStepSize</text>
<text text-anchor="start" x="99.5" y="-526.5" font-family="Helvetica,sans-Serif" font-size="10.00">#</text>
<text text-anchor="start" x="112.5" y="-526.5" font-family="Helvetica,sans-Serif" font-size="10.00">mSetBcsOnBoxBoundary</text>
<text text-anchor="start" x="99.5" y="-511.5" font-family="Helvetica,sans-Serif" font-size="10.00">#</text>
<text text-anchor="start" x="112.5" y="-511.5" font-family="Helvetica,sans-Serif" font-size="10.00">mSetBcsOnBoundingSphere</text>
<text text-anchor="start" x="99.5" y="-496.5" font-family="Helvetica,sans-Serif" font-size="10.00">#</text>
<text text-anchor="start" x="112.5" y="-496.5" font-family="Helvetica,sans-Serif" font-size="10.00">mUseVoronoiCellsForInterpolation</text>
<text text-anchor="start" x="99.5" y="-481.5" font-family="Helvetica,sans-Serif" font-size="10.00">#</text>
<text text-anchor="start" x="112.5" y="-481.5" font-family="Helvetica,sans-Serif" font-size="10.00">mTypicalCellRadius</text>
<text text-anchor="start" x="99.5" y="-466.5" font-family="Helvetica,sans-Serif" font-size="10.00">+</text>
<text text-anchor="start" x="112.5" y="-466.5" font-family="Helvetica,sans-Serif" font-size="10.00">AbstractBoxDomainPdeModifier()</text>
<text text-anchor="start" x="99.5" y="-451.5" font-family="Helvetica,sans-Serif" font-size="10.00">+</text>
<text text-anchor="start" x="112.5" y="-451.5" font-family="Helvetica,sans-Serif" font-size="10.00">~AbstractBoxDomainPdeModifier()</text>
<text text-anchor="start" x="99.5" y="-436.5" font-family="Helvetica,sans-Serif" font-size="10.00">+</text>
<text text-anchor="start" x="112.5" y="-436.5" font-family="Helvetica,sans-Serif" font-size="10.00">GetStepSize()</text>
<text text-anchor="start" x="99.5" y="-421.5" font-family="Helvetica,sans-Serif" font-size="10.00">+</text>
<text text-anchor="start" x="112.5" y="-421.5" font-family="Helvetica,sans-Serif" font-size="10.00">SetBcsOnBoxBoundary()</text>
<text text-anchor="start" x="99.5" y="-406.5" font-family="Helvetica,sans-Serif" font-size="10.00">+</text>
<text text-anchor="start" x="112.5" y="-406.5" font-family="Helvetica,sans-Serif" font-size="10.00">AreBcsSetOnBoxBoundary()</text>
<text text-anchor="start" x="99.5" y="-391.5" font-family="Helvetica,sans-Serif" font-size="10.00">+</text>
<text text-anchor="start" x="112.5" y="-391.5" font-family="Helvetica,sans-Serif" font-size="10.00">SetBcsOnBoundingSphere()</text>
<text text-anchor="start" x="99.5" y="-376.5" font-family="Helvetica,sans-Serif" font-size="10.00">+</text>
<text text-anchor="start" x="112.5" y="-376.5" font-family="Helvetica,sans-Serif" font-size="10.00">AreBcsSetOnBoundingSphere()</text>
<text text-anchor="start" x="99.5" y="-361.5" font-family="Helvetica,sans-Serif" font-size="10.00">+</text>
<text text-anchor="start" x="112.5" y="-361.5" font-family="Helvetica,sans-Serif" font-size="10.00">SetUseVoronoiCellsForInterpolation()</text>
<text text-anchor="start" x="99.5" y="-346.5" font-family="Helvetica,sans-Serif" font-size="10.00">+</text>
<text text-anchor="start" x="112.5" y="-346.5" font-family="Helvetica,sans-Serif" font-size="10.00">GetUseVoronoiCellsForInterpolation()</text>
<text text-anchor="start" x="99.5" y="-331.5" font-family="Helvetica,sans-Serif" font-size="10.00">+</text>
<text text-anchor="start" x="112.5" y="-331.5" font-family="Helvetica,sans-Serif" font-size="10.00">SetTypicalCellRadius()</text>
<text text-anchor="start" x="112.5" y="-316.5" font-family="Helvetica,sans-Serif" font-size="10.00">and 9 more...</text>
<text text-anchor="start" x="102" y="-301.5" font-family="Helvetica,sans-Serif" font-size="10.00">&#45;</text>
<text text-anchor="start" x="112.5" y="-301.5" font-family="Helvetica,sans-Serif" font-size="10.00">serialize()</text>
<polygon fill="#666666" stroke="#666666" points="95.5,-581.5 95.5,-581.5 298.5,-581.5 298.5,-581.5 95.5,-581.5"/>
<polygon fill="#666666" stroke="#666666" points="95.5,-476.5 95.5,-476.5 110.5,-476.5 110.5,-476.5 95.5,-476.5"/>
<polygon fill="#666666" stroke="#666666" points="110.5,-476.5 110.5,-476.5 298.5,-476.5 298.5,-476.5 110.5,-476.5"/>
<polygon fill="none" stroke="#666666" points="95,-295 95,-610 298,-610 298,-295 95,-295"/>
</a>
</g>
</g>
<!-- Node6 -->
<g id="Node000006" class="node">
<title>Node6</title>
<g id="a_Node000006"><a xlink:href="classEllipticBoxDomainPdeModifier.html" target="_top" xlink:title=" ">
<polygon fill="white" stroke="transparent" points="185,-215 0,-215 0,-43 185,-43 185,-215"/>
<text text-anchor="start" x="19" y="-203" font-family="Helvetica,sans-Serif" font-size="10.00">EllipticBoxDomainPdeModifier</text>
<text text-anchor="start" x="71.5" y="-192" font-family="Helvetica,sans-Serif" font-size="10.00">&lt; DIM &gt;</text>
<text text-anchor="start" x="91" y="-177" font-family="Helvetica,sans-Serif" font-size="10.00"> </text>
<text text-anchor="start" x="4.5" y="-162" font-family="Helvetica,sans-Serif" font-size="10.00">+</text>
<text text-anchor="start" x="17.5" y="-162" font-family="Helvetica,sans-Serif" font-size="10.00">EllipticBoxDomainPdeModifier()</text>
<text text-anchor="start" x="4.5" y="-147" font-family="Helvetica,sans-Serif" font-size="10.00">+</text>
<text text-anchor="start" x="17.5" y="-147" font-family="Helvetica,sans-Serif" font-size="10.00">~EllipticBoxDomainPdeModifier()</text>
<text text-anchor="start" x="4.5" y="-132" font-family="Helvetica,sans-Serif" font-size="10.00">+</text>
<text text-anchor="start" x="17.5" y="-132" font-family="Helvetica,sans-Serif" font-size="10.00">UpdateAtEndOfTimeStep()</text>
<text text-anchor="start" x="4.5" y="-117" font-family="Helvetica,sans-Serif" font-size="10.00">+</text>
<text text-anchor="start" x="17.5" y="-117" font-family="Helvetica,sans-Serif" font-size="10.00">SetupSolve()</text>
<text text-anchor="start" x="4.5" y="-102" font-family="Helvetica,sans-Serif" font-size="10.00">+</text>
<text text-anchor="start" x="17.5" y="-102" font-family="Helvetica,sans-Serif" font-size="10.00">ConstructBoundaryConditions</text>
<text text-anchor="start" x="17.5" y="-91" font-family="Helvetica,sans-Serif" font-size="10.00">Container()</text>
<text text-anchor="start" x="4.5" y="-76" font-family="Helvetica,sans-Serif" font-size="10.00">+</text>
<text text-anchor="start" x="17.5" y="-76" font-family="Helvetica,sans-Serif" font-size="10.00">OutputSimulationModifier</text>
<text text-anchor="start" x="17.5" y="-65" font-family="Helvetica,sans-Serif" font-size="10.00">Parameters()</text>
<text text-anchor="start" x="7" y="-50" font-family="Helvetica,sans-Serif" font-size="10.00">&#45;</text>
<text text-anchor="start" x="17.5" y="-50" font-family="Helvetica,sans-Serif" font-size="10.00">serialize()</text>
<polygon fill="#666666" stroke="#666666" points="0.5,-187 0.5,-187 185.5,-187 185.5,-187 0.5,-187"/>
<polygon fill="#666666" stroke="#666666" points="0.5,-172 0.5,-172 185.5,-172 185.5,-172 0.5,-172"/>
<polygon fill="none" stroke="#666666" points="0,-43 0,-215 185,-215 185,-43 0,-43"/>
</a>
</g>
</g>
<!-- Node1&#45;&gt;Node6 -->
<g id="edge6_Node000001_Node000006" class="edge">
<title>Node1&#45;&gt;Node6</title>
<g id="a_edge6_Node000001_Node000006"><a xlink:title=" ">
<path fill="none" stroke="#63b8ff" d="M142.75,-285.33C134.9,-261.09 127.12,-237.01 120.09,-215.3"/>
<polygon fill="none" stroke="#63b8ff" points="139.46,-286.55 145.87,-294.99 146.12,-284.4 139.46,-286.55"/>
</a>
</g>
</g>
<!-- Node7 -->
<g id="Node000007" class="node">
<title>Node7</title>
<g id="a_Node000007"><a xlink:href="classParabolicBoxDomainPdeModifier.html" target="_top" xlink:title=" ">
<polygon fill="white" stroke="transparent" points="398.5,-258 202.5,-258 202.5,0 398.5,0 398.5,-258"/>
<text text-anchor="start" x="220.5" y="-246" font-family="Helvetica,sans-Serif" font-size="10.00">ParabolicBoxDomainPdeModifier</text>
<text text-anchor="start" x="279" y="-235" font-family="Helvetica,sans-Serif" font-size="10.00">&lt; DIM &gt;</text>
<text text-anchor="start" x="209" y="-220" font-family="Helvetica,sans-Serif" font-size="10.00">&#45;</text>
<text text-anchor="start" x="219.5" y="-220" font-family="Helvetica,sans-Serif" font-size="10.00">mMoveSolutionWithCells</text>
<text text-anchor="start" x="209" y="-205" font-family="Helvetica,sans-Serif" font-size="10.00">&#45;</text>
<text text-anchor="start" x="219.5" y="-205" font-family="Helvetica,sans-Serif" font-size="10.00">mOldCellLocations</text>
<text text-anchor="start" x="206.5" y="-190" font-family="Helvetica,sans-Serif" font-size="10.00">+</text>
<text text-anchor="start" x="219.5" y="-190" font-family="Helvetica,sans-Serif" font-size="10.00">ParabolicBoxDomainPdeModifier()</text>
<text text-anchor="start" x="206.5" y="-175" font-family="Helvetica,sans-Serif" font-size="10.00">+</text>
<text text-anchor="start" x="219.5" y="-175" font-family="Helvetica,sans-Serif" font-size="10.00">~ParabolicBoxDomainPdeModifier()</text>
<text text-anchor="start" x="206.5" y="-160" font-family="Helvetica,sans-Serif" font-size="10.00">+</text>
<text text-anchor="start" x="219.5" y="-160" font-family="Helvetica,sans-Serif" font-size="10.00">UpdateAtEndOfTimeStep()</text>
<text text-anchor="start" x="206.5" y="-145" font-family="Helvetica,sans-Serif" font-size="10.00">+</text>
<text text-anchor="start" x="219.5" y="-145" font-family="Helvetica,sans-Serif" font-size="10.00">SetupSolve()</text>
<text text-anchor="start" x="206.5" y="-130" font-family="Helvetica,sans-Serif" font-size="10.00">+</text>
<text text-anchor="start" x="219.5" y="-130" font-family="Helvetica,sans-Serif" font-size="10.00">ConstructBoundaryConditions</text>
<text text-anchor="start" x="219.5" y="-119" font-family="Helvetica,sans-Serif" font-size="10.00">Container()</text>
<text text-anchor="start" x="206.5" y="-104" font-family="Helvetica,sans-Serif" font-size="10.00">+</text>
<text text-anchor="start" x="219.5" y="-104" font-family="Helvetica,sans-Serif" font-size="10.00">SetupInitialSolutionVector()</text>
<text text-anchor="start" x="206.5" y="-89" font-family="Helvetica,sans-Serif" font-size="10.00">+</text>
<text text-anchor="start" x="219.5" y="-89" font-family="Helvetica,sans-Serif" font-size="10.00">InterpolateSolutionFromCell</text>
<text text-anchor="start" x="219.5" y="-78" font-family="Helvetica,sans-Serif" font-size="10.00">Movement()</text>
<text text-anchor="start" x="206.5" y="-63" font-family="Helvetica,sans-Serif" font-size="10.00">+</text>
<text text-anchor="start" x="219.5" y="-63" font-family="Helvetica,sans-Serif" font-size="10.00">SetMoveSolutionWithCells()</text>
<text text-anchor="start" x="206.5" y="-48" font-family="Helvetica,sans-Serif" font-size="10.00">+</text>
<text text-anchor="start" x="219.5" y="-48" font-family="Helvetica,sans-Serif" font-size="10.00">GetMoveSolutionWithCells()</text>
<text text-anchor="start" x="206.5" y="-33" font-family="Helvetica,sans-Serif" font-size="10.00">+</text>
<text text-anchor="start" x="219.5" y="-33" font-family="Helvetica,sans-Serif" font-size="10.00">OutputSimulationModifier</text>
<text text-anchor="start" x="219.5" y="-22" font-family="Helvetica,sans-Serif" font-size="10.00">Parameters()</text>
<text text-anchor="start" x="209" y="-7" font-family="Helvetica,sans-Serif" font-size="10.00">&#45;</text>
<text text-anchor="start" x="219.5" y="-7" font-family="Helvetica,sans-Serif" font-size="10.00">serialize()</text>
<polygon fill="#666666" stroke="#666666" points="202.5,-230 202.5,-230 398.5,-230 398.5,-230 202.5,-230"/>
<polygon fill="#666666" stroke="#666666" points="202.5,-200 202.5,-200 217.5,-200 217.5,-200 202.5,-200"/>
<polygon fill="#666666" stroke="#666666" points="217.5,-200 217.5,-200 398.5,-200 398.5,-200 217.5,-200"/>
<polygon fill="none" stroke="#666666" points="202.5,0 202.5,-258 398.5,-258 398.5,0 202.5,0"/>
</a>
</g>
</g>
<!-- Node1&#45;&gt;Node7 -->
<g id="edge7_Node000001_Node000007" class="edge">
<title>Node1&#45;&gt;Node7</title>
<g id="a_edge7_Node000001_Node000007"><a xlink:title=" ">
<path fill="none" stroke="#63b8ff" d="M250.3,-285.19C253.22,-276.16 256.13,-267.16 259,-258.29"/>
<polygon fill="none" stroke="#63b8ff" points="246.88,-284.4 247.13,-294.99 253.54,-286.55 246.88,-284.4"/>
</a>
</g>
</g>
<!-- Node2 -->
<g id="Node000002" class="node">
<title>Node2</title>
<g id="a_Node000002"><a xlink:href="classAbstractPdeModifier.html" target="_top" xlink:title=" ">
<polygon fill="white" stroke="transparent" points="286.5,-1048 106.5,-1048 106.5,-647 286.5,-647 286.5,-1048"/>
<text text-anchor="start" x="147" y="-1035.5" font-family="Helvetica,sans-Serif" font-size="10.00">AbstractPdeModifier</text>
<text text-anchor="start" x="175" y="-1024.5" font-family="Helvetica,sans-Serif" font-size="10.00">&lt; DIM &gt;</text>
<text text-anchor="start" x="110.5" y="-1009.5" font-family="Helvetica,sans-Serif" font-size="10.00">#</text>
<text text-anchor="start" x="123.5" y="-1009.5" font-family="Helvetica,sans-Serif" font-size="10.00">mpPde</text>
<text text-anchor="start" x="110.5" y="-994.5" font-family="Helvetica,sans-Serif" font-size="10.00">#</text>
<text text-anchor="start" x="123.5" y="-994.5" font-family="Helvetica,sans-Serif" font-size="10.00">mpBoundaryCondition</text>
<text text-anchor="start" x="110.5" y="-979.5" font-family="Helvetica,sans-Serif" font-size="10.00">#</text>
<text text-anchor="start" x="123.5" y="-979.5" font-family="Helvetica,sans-Serif" font-size="10.00">mIsNeumannBoundaryCondition</text>
<text text-anchor="start" x="110.5" y="-964.5" font-family="Helvetica,sans-Serif" font-size="10.00">#</text>
<text text-anchor="start" x="123.5" y="-964.5" font-family="Helvetica,sans-Serif" font-size="10.00">mDependentVariableName</text>
<text text-anchor="start" x="110.5" y="-949.5" font-family="Helvetica,sans-Serif" font-size="10.00">#</text>
<text text-anchor="start" x="123.5" y="-949.5" font-family="Helvetica,sans-Serif" font-size="10.00">mSolution</text>
<text text-anchor="start" x="110.5" y="-934.5" font-family="Helvetica,sans-Serif" font-size="10.00">#</text>
<text text-anchor="start" x="123.5" y="-934.5" font-family="Helvetica,sans-Serif" font-size="10.00">mpFeMesh</text>
<text text-anchor="start" x="110.5" y="-919.5" font-family="Helvetica,sans-Serif" font-size="10.00">#</text>
<text text-anchor="start" x="123.5" y="-919.5" font-family="Helvetica,sans-Serif" font-size="10.00">mOutputDirectory</text>
<text text-anchor="start" x="110.5" y="-904.5" font-family="Helvetica,sans-Serif" font-size="10.00">#</text>
<text text-anchor="start" x="123.5" y="-904.5" font-family="Helvetica,sans-Serif" font-size="10.00">mOutputGradient</text>
<text text-anchor="start" x="110.5" y="-889.5" font-family="Helvetica,sans-Serif" font-size="10.00">#</text>
<text text-anchor="start" x="123.5" y="-889.5" font-family="Helvetica,sans-Serif" font-size="10.00">mOutputSolutionAtPdeNodes</text>
<text text-anchor="start" x="110.5" y="-874.5" font-family="Helvetica,sans-Serif" font-size="10.00">#</text>
<text text-anchor="start" x="123.5" y="-874.5" font-family="Helvetica,sans-Serif" font-size="10.00">mpVizPdeSolutionResultsFile</text>
<text text-anchor="start" x="110.5" y="-859.5" font-family="Helvetica,sans-Serif" font-size="10.00">#</text>
<text text-anchor="start" x="123.5" y="-859.5" font-family="Helvetica,sans-Serif" font-size="10.00">mDeleteFeMesh</text>
<text text-anchor="start" x="110.5" y="-844.5" font-family="Helvetica,sans-Serif" font-size="10.00">#</text>
<text text-anchor="start" x="123.5" y="-844.5" font-family="Helvetica,sans-Serif" font-size="10.00">mIsDirichletBoundaryNode</text>
<text text-anchor="start" x="110.5" y="-829.5" font-family="Helvetica,sans-Serif" font-size="10.00">+</text>
<text text-anchor="start" x="123.5" y="-829.5" font-family="Helvetica,sans-Serif" font-size="10.00">AbstractPdeModifier()</text>
<text text-anchor="start" x="110.5" y="-814.5" font-family="Helvetica,sans-Serif" font-size="10.00">+</text>
<text text-anchor="start" x="123.5" y="-814.5" font-family="Helvetica,sans-Serif" font-size="10.00">~AbstractPdeModifier()</text>
<text text-anchor="start" x="110.5" y="-799.5" font-family="Helvetica,sans-Serif" font-size="10.00">+</text>
<text text-anchor="start" x="123.5" y="-799.5" font-family="Helvetica,sans-Serif" font-size="10.00">GetPde()</text>
<text text-anchor="start" x="110.5" y="-784.5" font-family="Helvetica,sans-Serif" font-size="10.00">+</text>
<text text-anchor="start" x="123.5" y="-784.5" font-family="Helvetica,sans-Serif" font-size="10.00">GetBoundaryCondition()</text>
<text text-anchor="start" x="110.5" y="-769.5" font-family="Helvetica,sans-Serif" font-size="10.00">+</text>
<text text-anchor="start" x="123.5" y="-769.5" font-family="Helvetica,sans-Serif" font-size="10.00">IsNeumannBoundaryCondition()</text>
<text text-anchor="start" x="110.5" y="-754.5" font-family="Helvetica,sans-Serif" font-size="10.00">+</text>
<text text-anchor="start" x="123.5" y="-754.5" font-family="Helvetica,sans-Serif" font-size="10.00">SetDependentVariableName()</text>
<text text-anchor="start" x="110.5" y="-739.5" font-family="Helvetica,sans-Serif" font-size="10.00">+</text>
<text text-anchor="start" x="123.5" y="-739.5" font-family="Helvetica,sans-Serif" font-size="10.00">rGetDependentVariableName()</text>
<text text-anchor="start" x="110.5" y="-724.5" font-family="Helvetica,sans-Serif" font-size="10.00">+</text>
<text text-anchor="start" x="123.5" y="-724.5" font-family="Helvetica,sans-Serif" font-size="10.00">HasAveragedSourcePde()</text>
<text text-anchor="start" x="110.5" y="-709.5" font-family="Helvetica,sans-Serif" font-size="10.00">+</text>
<text text-anchor="start" x="123.5" y="-709.5" font-family="Helvetica,sans-Serif" font-size="10.00">SetUpSourceTermsForAveraged</text>
<text text-anchor="start" x="123.5" y="-698.5" font-family="Helvetica,sans-Serif" font-size="10.00">SourcePde()</text>
<text text-anchor="start" x="110.5" y="-683.5" font-family="Helvetica,sans-Serif" font-size="10.00">+</text>
<text text-anchor="start" x="123.5" y="-683.5" font-family="Helvetica,sans-Serif" font-size="10.00">GetSolution()</text>
<text text-anchor="start" x="123.5" y="-668.5" font-family="Helvetica,sans-Serif" font-size="10.00">and 10 more...</text>
<text text-anchor="start" x="113" y="-653.5" font-family="Helvetica,sans-Serif" font-size="10.00">&#45;</text>
<text text-anchor="start" x="123.5" y="-653.5" font-family="Helvetica,sans-Serif" font-size="10.00">serialize()</text>
<polygon fill="#666666" stroke="#666666" points="106.5,-1019.5 106.5,-1019.5 286.5,-1019.5 286.5,-1019.5 106.5,-1019.5"/>
<polygon fill="#666666" stroke="#666666" points="106.5,-839.5 106.5,-839.5 121.5,-839.5 121.5,-839.5 106.5,-839.5"/>
<polygon fill="#666666" stroke="#666666" points="121.5,-839.5 121.5,-839.5 286.5,-839.5 286.5,-839.5 121.5,-839.5"/>
<polygon fill="none" stroke="#666666" points="106.5,-647 106.5,-1048 286.5,-1048 286.5,-647 106.5,-647"/>
</a>
</g>
</g>
<!-- Node2&#45;&gt;Node1 -->
<g id="edge1_Node000001_Node000002" class="edge">
<title>Node2&#45;&gt;Node1</title>
<g id="a_edge1_Node000001_Node000002"><a xlink:title=" ">
<path fill="none" stroke="#63b8ff" d="M196.5,-636.72C196.5,-627.77 196.5,-618.86 196.5,-610.07"/>
<polygon fill="none" stroke="#63b8ff" points="193,-636.83 196.5,-646.83 200,-636.83 193,-636.83"/>
</a>
</g>
</g>
<!-- Node3 -->
<g id="Node000003" class="node">
<title>Node3</title>
<g id="a_Node000003"><a xlink:href="classAbstractCellBasedSimulationModifier.html" target="_top" xlink:title=" ">
<polygon fill="white" stroke="transparent" points="288.5,-1309 104.5,-1309 104.5,-1085 288.5,-1085 288.5,-1309"/>
<text text-anchor="start" x="125.5" y="-1297" font-family="Helvetica,sans-Serif" font-size="10.00">AbstractCellBasedSimulation</text>
<text text-anchor="start" x="142.5" y="-1286" font-family="Helvetica,sans-Serif" font-size="10.00">Modifier&lt; DIM, DIM &gt;</text>
<text text-anchor="start" x="194.5" y="-1271" font-family="Helvetica,sans-Serif" font-size="10.00"> </text>
<text text-anchor="start" x="108.5" y="-1256" font-family="Helvetica,sans-Serif" font-size="10.00">+</text>
<text text-anchor="start" x="121.5" y="-1256" font-family="Helvetica,sans-Serif" font-size="10.00">AbstractCellBasedSimulation</text>
<text text-anchor="start" x="121.5" y="-1245" font-family="Helvetica,sans-Serif" font-size="10.00">Modifier()</text>
<text text-anchor="start" x="108.5" y="-1230" font-family="Helvetica,sans-Serif" font-size="10.00">+</text>
<text text-anchor="start" x="121.5" y="-1230" font-family="Helvetica,sans-Serif" font-size="10.00">~AbstractCellBasedSimulation</text>
<text text-anchor="start" x="121.5" y="-1219" font-family="Helvetica,sans-Serif" font-size="10.00">Modifier()</text>
<text text-anchor="start" x="108.5" y="-1204" font-family="Helvetica,sans-Serif" font-size="10.00">+</text>
<text text-anchor="start" x="121.5" y="-1204" font-family="Helvetica,sans-Serif" font-size="10.00">UpdateAtEndOfTimeStep()</text>
<text text-anchor="start" x="108.5" y="-1189" font-family="Helvetica,sans-Serif" font-size="10.00">+</text>
<text text-anchor="start" x="121.5" y="-1189" font-family="Helvetica,sans-Serif" font-size="10.00">UpdateAtEndOfOutputTimeStep()</text>
<text text-anchor="start" x="108.5" y="-1174" font-family="Helvetica,sans-Serif" font-size="10.00">+</text>
<text text-anchor="start" x="121.5" y="-1174" font-family="Helvetica,sans-Serif" font-size="10.00">SetupSolve()</text>
<text text-anchor="start" x="108.5" y="-1159" font-family="Helvetica,sans-Serif" font-size="10.00">+</text>
<text text-anchor="start" x="121.5" y="-1159" font-family="Helvetica,sans-Serif" font-size="10.00">UpdateAtEndOfSolve()</text>
<text text-anchor="start" x="108.5" y="-1144" font-family="Helvetica,sans-Serif" font-size="10.00">+</text>
<text text-anchor="start" x="121.5" y="-1144" font-family="Helvetica,sans-Serif" font-size="10.00">OutputSimulationModifier</text>
<text text-anchor="start" x="121.5" y="-1133" font-family="Helvetica,sans-Serif" font-size="10.00">Info()</text>
<text text-anchor="start" x="108.5" y="-1118" font-family="Helvetica,sans-Serif" font-size="10.00">+</text>
<text text-anchor="start" x="121.5" y="-1118" font-family="Helvetica,sans-Serif" font-size="10.00">OutputSimulationModifier</text>
<text text-anchor="start" x="121.5" y="-1107" font-family="Helvetica,sans-Serif" font-size="10.00">Parameters()</text>
<text text-anchor="start" x="111" y="-1092" font-family="Helvetica,sans-Serif" font-size="10.00">&#45;</text>
<text text-anchor="start" x="121.5" y="-1092" font-family="Helvetica,sans-Serif" font-size="10.00">serialize()</text>
<polygon fill="#666666" stroke="#666666" points="104.5,-1281 104.5,-1281 288.5,-1281 288.5,-1281 104.5,-1281"/>
<polygon fill="#666666" stroke="#666666" points="104.5,-1266 104.5,-1266 288.5,-1266 288.5,-1266 104.5,-1266"/>
<polygon fill="none" stroke="#666666" points="104.5,-1085 104.5,-1309 288.5,-1309 288.5,-1085 104.5,-1085"/>
</a>
</g>
</g>
<!-- Node3&#45;&gt;Node2 -->
<g id="edge2_Node000002_Node000003" class="edge">
<title>Node3&#45;&gt;Node2</title>
<g id="a_edge2_Node000002_Node000003"><a xlink:title=" ">
<path fill="none" stroke="#63b8ff" d="M196.5,-1074.55C196.5,-1065.9 196.5,-1057.05 196.5,-1048.11"/>
<polygon fill="none" stroke="#63b8ff" points="193,-1074.61 196.5,-1084.61 200,-1074.61 193,-1074.61"/>
</a>
</g>
</g>
<!-- Node4 -->
<g id="Node000004" class="node">
<title>Node4</title>
<g id="a_Node000004"><a xlink:href="classIdentifiable.html" target="_top" xlink:title=" ">
<polygon fill="white" stroke="transparent" points="280.5,-1696 104.5,-1696 104.5,-1617 280.5,-1617 280.5,-1696"/>
<text text-anchor="start" x="165" y="-1683.5" font-family="Helvetica,sans-Serif" font-size="10.00">Identifiable</text>
<text text-anchor="start" x="190.5" y="-1668.5" font-family="Helvetica,sans-Serif" font-size="10.00"> </text>
<text text-anchor="start" x="108.5" y="-1653.5" font-family="Helvetica,sans-Serif" font-size="10.00">+</text>
<text text-anchor="start" x="121.5" y="-1653.5" font-family="Helvetica,sans-Serif" font-size="10.00">~Identifiable()</text>
<text text-anchor="start" x="108.5" y="-1638.5" font-family="Helvetica,sans-Serif" font-size="10.00">+</text>
<text text-anchor="start" x="121.5" y="-1638.5" font-family="Helvetica,sans-Serif" font-size="10.00">GetIdentifier()</text>
<text text-anchor="start" x="111" y="-1623.5" font-family="Helvetica,sans-Serif" font-size="10.00">&#45;</text>
<text text-anchor="start" x="121.5" y="-1623.5" font-family="Helvetica,sans-Serif" font-size="10.00">TidyTemplatedExportIdentifier()</text>
<polygon fill="#666666" stroke="#666666" points="104.5,-1678.5 104.5,-1678.5 280.5,-1678.5 280.5,-1678.5 104.5,-1678.5"/>
<polygon fill="#666666" stroke="#666666" points="104.5,-1663.5 104.5,-1663.5 280.5,-1663.5 280.5,-1663.5 104.5,-1663.5"/>
<polygon fill="none" stroke="#666666" points="104.5,-1617 104.5,-1696 280.5,-1696 280.5,-1617 104.5,-1617"/>
</a>
</g>
</g>
<!-- Node4&#45;&gt;Node3 -->
<g id="edge3_Node000003_Node000004" class="edge">
<title>Node4&#45;&gt;Node3</title>
<g id="a_edge3_Node000003_Node000004"><a xlink:title=" ">
<path fill="none" stroke="#63b8ff" d="M192.93,-1606.53C193.54,-1536.02 194.7,-1403.96 195.53,-1309.05"/>
<polygon fill="none" stroke="#63b8ff" points="189.43,-1606.86 192.84,-1616.89 196.42,-1606.92 189.43,-1606.86"/>
</a>
</g>
</g>
<!-- Node5 -->
<g id="Node000005" class="node">
<title>Node5</title>
<g id="a_Node000005"><a xlink:href="classAbstractCellBasedSimulationModifier.html" target="_top" xlink:title=" ">
<polygon fill="white" stroke="transparent" points="414,-1580 209,-1580 209,-1356 414,-1356 414,-1580"/>
<text text-anchor="start" x="214.5" y="-1568" font-family="Helvetica,sans-Serif" font-size="10.00">AbstractCellBasedSimulation</text>
<text text-anchor="start" x="214.5" y="-1557" font-family="Helvetica,sans-Serif" font-size="10.00">Modifier&lt; ELEMENT_DIM, SPACE_DIM &gt;</text>
<text text-anchor="start" x="310" y="-1542" font-family="Helvetica,sans-Serif" font-size="10.00"> </text>
<text text-anchor="start" x="218.5" y="-1527" font-family="Helvetica,sans-Serif" font-size="10.00">+</text>
<text text-anchor="start" x="236.5" y="-1527" font-family="Helvetica,sans-Serif" font-size="10.00">AbstractCellBasedSimulation</text>
<text text-anchor="start" x="236.5" y="-1516" font-family="Helvetica,sans-Serif" font-size="10.00">Modifier()</text>
<text text-anchor="start" x="218.5" y="-1501" font-family="Helvetica,sans-Serif" font-size="10.00">+</text>
<text text-anchor="start" x="236.5" y="-1501" font-family="Helvetica,sans-Serif" font-size="10.00">~AbstractCellBasedSimulation</text>
<text text-anchor="start" x="236.5" y="-1490" font-family="Helvetica,sans-Serif" font-size="10.00">Modifier()</text>
<text text-anchor="start" x="218.5" y="-1475" font-family="Helvetica,sans-Serif" font-size="10.00">+</text>
<text text-anchor="start" x="236.5" y="-1475" font-family="Helvetica,sans-Serif" font-size="10.00">UpdateAtEndOfTimeStep()</text>
<text text-anchor="start" x="218.5" y="-1460" font-family="Helvetica,sans-Serif" font-size="10.00">+</text>
<text text-anchor="start" x="236.5" y="-1460" font-family="Helvetica,sans-Serif" font-size="10.00">UpdateAtEndOfOutputTimeStep()</text>
<text text-anchor="start" x="218.5" y="-1445" font-family="Helvetica,sans-Serif" font-size="10.00">+</text>
<text text-anchor="start" x="236.5" y="-1445" font-family="Helvetica,sans-Serif" font-size="10.00">SetupSolve()</text>
<text text-anchor="start" x="218.5" y="-1430" font-family="Helvetica,sans-Serif" font-size="10.00">+</text>
<text text-anchor="start" x="236.5" y="-1430" font-family="Helvetica,sans-Serif" font-size="10.00">UpdateAtEndOfSolve()</text>
<text text-anchor="start" x="218.5" y="-1415" font-family="Helvetica,sans-Serif" font-size="10.00">+</text>
<text text-anchor="start" x="236.5" y="-1415" font-family="Helvetica,sans-Serif" font-size="10.00">OutputSimulationModifier</text>
<text text-anchor="start" x="236.5" y="-1404" font-family="Helvetica,sans-Serif" font-size="10.00">Info()</text>
<text text-anchor="start" x="218.5" y="-1389" font-family="Helvetica,sans-Serif" font-size="10.00">+</text>
<text text-anchor="start" x="236.5" y="-1389" font-family="Helvetica,sans-Serif" font-size="10.00">OutputSimulationModifier</text>
<text text-anchor="start" x="236.5" y="-1378" font-family="Helvetica,sans-Serif" font-size="10.00">Parameters()</text>
<text text-anchor="start" x="221" y="-1363" font-family="Helvetica,sans-Serif" font-size="10.00">&#45;</text>
<text text-anchor="start" x="236.5" y="-1363" font-family="Helvetica,sans-Serif" font-size="10.00">serialize()</text>
<polygon fill="#666666" stroke="#666666" points="209.5,-1552 209.5,-1552 414.5,-1552 414.5,-1552 209.5,-1552"/>
<polygon fill="#666666" stroke="#666666" points="209.5,-1537 209.5,-1537 414.5,-1537 414.5,-1537 209.5,-1537"/>
<polygon fill="none" stroke="#666666" points="209,-1356 209,-1580 414,-1580 414,-1356 209,-1356"/>
</a>
</g>
</g>
<!-- Node4&#45;&gt;Node5 -->
<g id="edge5_Node000005_Node000004" class="edge">
<title>Node4&#45;&gt;Node5</title>
<g id="a_edge5_Node000005_Node000004"><a xlink:title=" ">
<path fill="none" stroke="#63b8ff" d="M222.59,-1608.34C228.19,-1599.56 234.26,-1590.06 240.5,-1580.28"/>
<polygon fill="none" stroke="#63b8ff" points="219.59,-1606.54 217.16,-1616.86 225.49,-1610.31 219.59,-1606.54"/>
</a>
</g>
</g>
<!-- Node5&#45;&gt;Node3 -->
<g id="edge4_Node000003_Node000005" class="edge">
<title>Node5&#45;&gt;Node3</title>
<g id="a_edge4_Node000003_Node000005"><a xlink:title=" ">
<path fill="none" stroke="orange" d="M259.88,-1346.27C254.62,-1333.95 249.29,-1321.48 244.07,-1309.27"/>
<polygon fill="orange" stroke="orange" points="256.75,-1347.83 263.89,-1355.65 263.18,-1345.07 256.75,-1347.83"/>
</a>
</g>
<text text-anchor="middle" x="289" y="-1330" font-family="Helvetica,sans-Serif" font-size="10.00" fill="grey"> &lt; DIM, DIM &gt;</text>
</g>
</g>
</svg>
