<?xml version="1.0" encoding="UTF-8" standalone="no"?>
<!DOCTYPE svg PUBLIC "-//W3C//DTD SVG 1.1//EN"
 "http://www.w3.org/Graphics/SVG/1.1/DTD/svg11.dtd">
<!-- Generated by graphviz version 2.43.0 (0)
 -->
<!-- Title: MutableElement&lt; ELEMENT_DIM, SPACE_DIM &gt; Pages: 1 -->
<svg width="530pt" height="1125pt"
 viewBox="0.00 0.00 529.50 1125.00" xmlns="http://www.w3.org/2000/svg" xmlns:xlink="http://www.w3.org/1999/xlink">
<g id="graph0" class="graph" transform="scale(1 1) rotate(0) translate(4 1121)">
<title>MutableElement&lt; ELEMENT_DIM, SPACE_DIM &gt;</title>
<!-- Node1 -->
<g id="Node000001" class="node">
<title>Node1</title>
<g id="a_Node000001"><a xlink:title=" ">
<polygon fill="#999999" stroke="transparent" points="412,-795 264,-795 264,-555 412,-555 412,-795"/>
<text text-anchor="start" x="269" y="-783" font-family="Helvetica,sans-Serif" font-size="10.00">MutableElement&lt; ELEMENT</text>
<text text-anchor="start" x="289" y="-772" font-family="Helvetica,sans-Serif" font-size="10.00">_DIM, SPACE_DIM &gt;</text>
<text text-anchor="start" x="274" y="-757" font-family="Helvetica,sans-Serif" font-size="10.00">#</text>
<text text-anchor="start" x="293" y="-757" font-family="Helvetica,sans-Serif" font-size="10.00">mEdges</text>
<text text-anchor="start" x="274" y="-742" font-family="Helvetica,sans-Serif" font-size="10.00">#</text>
<text text-anchor="start" x="293" y="-742" font-family="Helvetica,sans-Serif" font-size="10.00">mEdgeHelper</text>
<text text-anchor="start" x="274" y="-727" font-family="Helvetica,sans-Serif" font-size="10.00">+</text>
<text text-anchor="start" x="293" y="-727" font-family="Helvetica,sans-Serif" font-size="10.00">MutableElement()</text>
<text text-anchor="start" x="274" y="-712" font-family="Helvetica,sans-Serif" font-size="10.00">+</text>
<text text-anchor="start" x="293" y="-712" font-family="Helvetica,sans-Serif" font-size="10.00">MutableElement()</text>
<text text-anchor="start" x="274" y="-697" font-family="Helvetica,sans-Serif" font-size="10.00">+</text>
<text text-anchor="start" x="293" y="-697" font-family="Helvetica,sans-Serif" font-size="10.00">~MutableElement()</text>
<text text-anchor="start" x="274" y="-682" font-family="Helvetica,sans-Serif" font-size="10.00">+</text>
<text text-anchor="start" x="293" y="-682" font-family="Helvetica,sans-Serif" font-size="10.00">RegisterWithNodes()</text>
<text text-anchor="start" x="274" y="-667" font-family="Helvetica,sans-Serif" font-size="10.00">+</text>
<text text-anchor="start" x="293" y="-667" font-family="Helvetica,sans-Serif" font-size="10.00">MarkAsDeleted()</text>
<text text-anchor="start" x="274" y="-652" font-family="Helvetica,sans-Serif" font-size="10.00">+</text>
<text text-anchor="start" x="293" y="-652" font-family="Helvetica,sans-Serif" font-size="10.00">ResetIndex()</text>
<text text-anchor="start" x="274" y="-637" font-family="Helvetica,sans-Serif" font-size="10.00">+</text>
<text text-anchor="start" x="293" y="-637" font-family="Helvetica,sans-Serif" font-size="10.00">UpdateNode()</text>
<text text-anchor="start" x="274" y="-622" font-family="Helvetica,sans-Serif" font-size="10.00">+</text>
<text text-anchor="start" x="293" y="-622" font-family="Helvetica,sans-Serif" font-size="10.00">DeleteNode()</text>
<text text-anchor="start" x="274" y="-607" font-family="Helvetica,sans-Serif" font-size="10.00">+</text>
<text text-anchor="start" x="293" y="-607" font-family="Helvetica,sans-Serif" font-size="10.00">AddNode()</text>
<text text-anchor="start" x="274" y="-592" font-family="Helvetica,sans-Serif" font-size="10.00">+</text>
<text text-anchor="start" x="293" y="-592" font-family="Helvetica,sans-Serif" font-size="10.00">GetNodeLocalIndex()</text>
<text text-anchor="start" x="293" y="-577" font-family="Helvetica,sans-Serif" font-size="10.00">and 12 more...</text>
<text text-anchor="start" x="276.5" y="-562" font-family="Helvetica,sans-Serif" font-size="10.00">&#45;</text>
<text text-anchor="start" x="293" y="-562" font-family="Helvetica,sans-Serif" font-size="10.00">serialize()</text>
<polygon fill="#666666" stroke="#666666" points="264,-767 264,-767 412,-767 412,-767 264,-767"/>
<polygon fill="#666666" stroke="#666666" points="264,-737 264,-737 291,-737 291,-737 264,-737"/>
<polygon fill="#666666" stroke="#666666" points="291,-737 291,-737 412,-737 412,-737 291,-737"/>
<polygon fill="none" stroke="#666666" points="264,-555 264,-795 412,-795 412,-555 264,-555"/>
</a>
</g>
</g>
<!-- Node3 -->
<g id="Node000003" class="node">
<title>Node3</title>
<g id="a_Node000003"><a xlink:href="classVertexElement.html" target="_top" xlink:title=" ">
<polygon fill="white" stroke="transparent" points="343,-210 183,-210 183,0 343,0 343,-210"/>
<text text-anchor="start" x="198" y="-198" font-family="Helvetica,sans-Serif" font-size="10.00">VertexElement&lt; ELEMENT</text>
<text text-anchor="start" x="206" y="-187" font-family="Helvetica,sans-Serif" font-size="10.00">_DIM &#45; 1, SPACE_DIM &gt;</text>
<text text-anchor="start" x="189.5" y="-172" font-family="Helvetica,sans-Serif" font-size="10.00">&#45;</text>
<text text-anchor="start" x="200" y="-172" font-family="Helvetica,sans-Serif" font-size="10.00">mFaces</text>
<text text-anchor="start" x="189.5" y="-157" font-family="Helvetica,sans-Serif" font-size="10.00">&#45;</text>
<text text-anchor="start" x="200" y="-157" font-family="Helvetica,sans-Serif" font-size="10.00">mOrientations</text>
<text text-anchor="start" x="187" y="-142" font-family="Helvetica,sans-Serif" font-size="10.00">+</text>
<text text-anchor="start" x="200" y="-142" font-family="Helvetica,sans-Serif" font-size="10.00">VertexElement()</text>
<text text-anchor="start" x="187" y="-127" font-family="Helvetica,sans-Serif" font-size="10.00">+</text>
<text text-anchor="start" x="200" y="-127" font-family="Helvetica,sans-Serif" font-size="10.00">VertexElement()</text>
<text text-anchor="start" x="187" y="-112" font-family="Helvetica,sans-Serif" font-size="10.00">+</text>
<text text-anchor="start" x="200" y="-112" font-family="Helvetica,sans-Serif" font-size="10.00">VertexElement()</text>
<text text-anchor="start" x="187" y="-97" font-family="Helvetica,sans-Serif" font-size="10.00">+</text>
<text text-anchor="start" x="200" y="-97" font-family="Helvetica,sans-Serif" font-size="10.00">VertexElement()</text>
<text text-anchor="start" x="187" y="-82" font-family="Helvetica,sans-Serif" font-size="10.00">+</text>
<text text-anchor="start" x="200" y="-82" font-family="Helvetica,sans-Serif" font-size="10.00">~VertexElement()</text>
<text text-anchor="start" x="187" y="-67" font-family="Helvetica,sans-Serif" font-size="10.00">+</text>
<text text-anchor="start" x="200" y="-67" font-family="Helvetica,sans-Serif" font-size="10.00">GetNumFaces()</text>
<text text-anchor="start" x="187" y="-52" font-family="Helvetica,sans-Serif" font-size="10.00">+</text>
<text text-anchor="start" x="200" y="-52" font-family="Helvetica,sans-Serif" font-size="10.00">AddFace()</text>
<text text-anchor="start" x="187" y="-37" font-family="Helvetica,sans-Serif" font-size="10.00">+</text>
<text text-anchor="start" x="200" y="-37" font-family="Helvetica,sans-Serif" font-size="10.00">GetFace()</text>
<text text-anchor="start" x="187" y="-22" font-family="Helvetica,sans-Serif" font-size="10.00">+</text>
<text text-anchor="start" x="200" y="-22" font-family="Helvetica,sans-Serif" font-size="10.00">FaceIsOrientatedClockwise()</text>
<text text-anchor="start" x="189.5" y="-7" font-family="Helvetica,sans-Serif" font-size="10.00">&#45;</text>
<text text-anchor="start" x="200" y="-7" font-family="Helvetica,sans-Serif" font-size="10.00">serialize()</text>
<polygon fill="#666666" stroke="#666666" points="183,-182 183,-182 343,-182 343,-182 183,-182"/>
<polygon fill="#666666" stroke="#666666" points="183,-152 183,-152 198,-152 198,-152 183,-152"/>
<polygon fill="#666666" stroke="#666666" points="198,-152 198,-152 343,-152 343,-152 198,-152"/>
<polygon fill="none" stroke="#666666" points="183,0 183,-210 343,-210 343,0 183,0"/>
</a>
</g>
</g>
<!-- Node1&#45;&gt;Node3 -->
<g id="edge2_Node000001_Node000003" class="edge">
<title>Node1&#45;&gt;Node3</title>
<g id="a_edge2_Node000001_Node000003"><a xlink:title=" ">
<path fill="none" stroke="#63b8ff" d="M366.07,-544.74C380.23,-453.84 388.05,-330.6 354,-228 351.13,-219.35 347.38,-210.81 343.04,-202.52"/>
<polygon fill="none" stroke="#63b8ff" points="362.58,-544.4 364.45,-554.83 369.49,-545.51 362.58,-544.4"/>
</a>
</g>
</g>
<!-- Node4 -->
<g id="Node000004" class="node">
<title>Node4</title>
<g id="a_Node000004"><a xlink:href="classVertexElement.html" target="_top" xlink:title=" ">
<polygon fill="white" stroke="transparent" points="160,-210 0,-210 0,0 160,0 160,-210"/>
<text text-anchor="start" x="15" y="-198" font-family="Helvetica,sans-Serif" font-size="10.00">VertexElement&lt; ELEMENT</text>
<text text-anchor="start" x="26" y="-187" font-family="Helvetica,sans-Serif" font-size="10.00">_DIM&#45;1, SPACE_DIM &gt;</text>
<text text-anchor="start" x="6.5" y="-172" font-family="Helvetica,sans-Serif" font-size="10.00">&#45;</text>
<text text-anchor="start" x="17" y="-172" font-family="Helvetica,sans-Serif" font-size="10.00">mFaces</text>
<text text-anchor="start" x="6.5" y="-157" font-family="Helvetica,sans-Serif" font-size="10.00">&#45;</text>
<text text-anchor="start" x="17" y="-157" font-family="Helvetica,sans-Serif" font-size="10.00">mOrientations</text>
<text text-anchor="start" x="4" y="-142" font-family="Helvetica,sans-Serif" font-size="10.00">+</text>
<text text-anchor="start" x="17" y="-142" font-family="Helvetica,sans-Serif" font-size="10.00">VertexElement()</text>
<text text-anchor="start" x="4" y="-127" font-family="Helvetica,sans-Serif" font-size="10.00">+</text>
<text text-anchor="start" x="17" y="-127" font-family="Helvetica,sans-Serif" font-size="10.00">VertexElement()</text>
<text text-anchor="start" x="4" y="-112" font-family="Helvetica,sans-Serif" font-size="10.00">+</text>
<text text-anchor="start" x="17" y="-112" font-family="Helvetica,sans-Serif" font-size="10.00">VertexElement()</text>
<text text-anchor="start" x="4" y="-97" font-family="Helvetica,sans-Serif" font-size="10.00">+</text>
<text text-anchor="start" x="17" y="-97" font-family="Helvetica,sans-Serif" font-size="10.00">VertexElement()</text>
<text text-anchor="start" x="4" y="-82" font-family="Helvetica,sans-Serif" font-size="10.00">+</text>
<text text-anchor="start" x="17" y="-82" font-family="Helvetica,sans-Serif" font-size="10.00">~VertexElement()</text>
<text text-anchor="start" x="4" y="-67" font-family="Helvetica,sans-Serif" font-size="10.00">+</text>
<text text-anchor="start" x="17" y="-67" font-family="Helvetica,sans-Serif" font-size="10.00">GetNumFaces()</text>
<text text-anchor="start" x="4" y="-52" font-family="Helvetica,sans-Serif" font-size="10.00">+</text>
<text text-anchor="start" x="17" y="-52" font-family="Helvetica,sans-Serif" font-size="10.00">AddFace()</text>
<text text-anchor="start" x="4" y="-37" font-family="Helvetica,sans-Serif" font-size="10.00">+</text>
<text text-anchor="start" x="17" y="-37" font-family="Helvetica,sans-Serif" font-size="10.00">GetFace()</text>
<text text-anchor="start" x="4" y="-22" font-family="Helvetica,sans-Serif" font-size="10.00">+</text>
<text text-anchor="start" x="17" y="-22" font-family="Helvetica,sans-Serif" font-size="10.00">FaceIsOrientatedClockwise()</text>
<text text-anchor="start" x="6.5" y="-7" font-family="Helvetica,sans-Serif" font-size="10.00">&#45;</text>
<text text-anchor="start" x="17" y="-7" font-family="Helvetica,sans-Serif" font-size="10.00">serialize()</text>
<polygon fill="#666666" stroke="#666666" points="0,-182 0,-182 160,-182 160,-182 0,-182"/>
<polygon fill="#666666" stroke="#666666" points="0,-152 0,-152 15,-152 15,-152 0,-152"/>
<polygon fill="#666666" stroke="#666666" points="15,-152 15,-152 160,-152 160,-152 15,-152"/>
<polygon fill="none" stroke="#666666" points="0,0 0,-210 160,-210 160,0 0,0"/>
</a>
</g>
</g>
<!-- Node1&#45;&gt;Node4 -->
<g id="edge3_Node000001_Node000004" class="edge">
<title>Node1&#45;&gt;Node4</title>
<g id="a_edge3_Node000001_Node000004"><a xlink:title=" ">
<path fill="none" stroke="#63b8ff" d="M256.19,-615.49C221.67,-586.8 184,-549.49 160,-508 107,-416.37 88.58,-295.5 82.45,-210.31"/>
<polygon fill="none" stroke="#63b8ff" points="254.01,-618.22 263.96,-621.85 258.44,-612.81 254.01,-618.22"/>
</a>
</g>
</g>
<!-- Node5 -->
<g id="Node000005" class="node">
<title>Node5</title>
<g id="a_Node000005"><a xlink:href="classVertexElement.html" target="_top" xlink:title=" ">
<polygon fill="white" stroke="transparent" points="329,-493 169,-493 169,-283 329,-283 329,-493"/>
<text text-anchor="start" x="184" y="-481" font-family="Helvetica,sans-Serif" font-size="10.00">VertexElement&lt; ELEMENT</text>
<text text-anchor="start" x="200" y="-470" font-family="Helvetica,sans-Serif" font-size="10.00">_DIM, SPACE_DIM &gt;</text>
<text text-anchor="start" x="175.5" y="-455" font-family="Helvetica,sans-Serif" font-size="10.00">&#45;</text>
<text text-anchor="start" x="186" y="-455" font-family="Helvetica,sans-Serif" font-size="10.00">mFaces</text>
<text text-anchor="start" x="175.5" y="-440" font-family="Helvetica,sans-Serif" font-size="10.00">&#45;</text>
<text text-anchor="start" x="186" y="-440" font-family="Helvetica,sans-Serif" font-size="10.00">mOrientations</text>
<text text-anchor="start" x="173" y="-425" font-family="Helvetica,sans-Serif" font-size="10.00">+</text>
<text text-anchor="start" x="186" y="-425" font-family="Helvetica,sans-Serif" font-size="10.00">VertexElement()</text>
<text text-anchor="start" x="173" y="-410" font-family="Helvetica,sans-Serif" font-size="10.00">+</text>
<text text-anchor="start" x="186" y="-410" font-family="Helvetica,sans-Serif" font-size="10.00">VertexElement()</text>
<text text-anchor="start" x="173" y="-395" font-family="Helvetica,sans-Serif" font-size="10.00">+</text>
<text text-anchor="start" x="186" y="-395" font-family="Helvetica,sans-Serif" font-size="10.00">VertexElement()</text>
<text text-anchor="start" x="173" y="-380" font-family="Helvetica,sans-Serif" font-size="10.00">+</text>
<text text-anchor="start" x="186" y="-380" font-family="Helvetica,sans-Serif" font-size="10.00">VertexElement()</text>
<text text-anchor="start" x="173" y="-365" font-family="Helvetica,sans-Serif" font-size="10.00">+</text>
<text text-anchor="start" x="186" y="-365" font-family="Helvetica,sans-Serif" font-size="10.00">~VertexElement()</text>
<text text-anchor="start" x="173" y="-350" font-family="Helvetica,sans-Serif" font-size="10.00">+</text>
<text text-anchor="start" x="186" y="-350" font-family="Helvetica,sans-Serif" font-size="10.00">GetNumFaces()</text>
<text text-anchor="start" x="173" y="-335" font-family="Helvetica,sans-Serif" font-size="10.00">+</text>
<text text-anchor="start" x="186" y="-335" font-family="Helvetica,sans-Serif" font-size="10.00">AddFace()</text>
<text text-anchor="start" x="173" y="-320" font-family="Helvetica,sans-Serif" font-size="10.00">+</text>
<text text-anchor="start" x="186" y="-320" font-family="Helvetica,sans-Serif" font-size="10.00">GetFace()</text>
<text text-anchor="start" x="173" y="-305" font-family="Helvetica,sans-Serif" font-size="10.00">+</text>
<text text-anchor="start" x="186" y="-305" font-family="Helvetica,sans-Serif" font-size="10.00">FaceIsOrientatedClockwise()</text>
<text text-anchor="start" x="175.5" y="-290" font-family="Helvetica,sans-Serif" font-size="10.00">&#45;</text>
<text text-anchor="start" x="186" y="-290" font-family="Helvetica,sans-Serif" font-size="10.00">serialize()</text>
<polygon fill="#666666" stroke="#666666" points="169,-465 169,-465 329,-465 329,-465 169,-465"/>
<polygon fill="#666666" stroke="#666666" points="169,-435 169,-435 184,-435 184,-435 169,-435"/>
<polygon fill="#666666" stroke="#666666" points="184,-435 184,-435 329,-435 329,-435 184,-435"/>
<polygon fill="none" stroke="#666666" points="169,-283 169,-493 329,-493 329,-283 169,-283"/>
</a>
</g>
</g>
<!-- Node1&#45;&gt;Node5 -->
<g id="edge4_Node000001_Node000005" class="edge">
<title>Node1&#45;&gt;Node5</title>
<g id="a_edge4_Node000001_Node000005"><a xlink:title=" ">
<path fill="none" stroke="#63b8ff" d="M297.77,-545.16C292.34,-527.78 286.82,-510.12 281.55,-493.24"/>
<polygon fill="none" stroke="#63b8ff" points="294.45,-546.28 300.77,-554.79 301.13,-544.2 294.45,-546.28"/>
</a>
</g>
</g>
<!-- Node6 -->
<g id="Node000006" class="node">
<title>Node6</title>
<g id="a_Node000006"><a xlink:href="classMutableElement.html" target="_top" xlink:title=" ">
<polygon fill="white" stroke="transparent" points="521.5,-508 396.5,-508 396.5,-268 521.5,-268 521.5,-508"/>
<text text-anchor="start" x="402" y="-496" font-family="Helvetica,sans-Serif" font-size="10.00">MutableElement&lt; DIM,</text>
<text text-anchor="start" x="442.5" y="-485" font-family="Helvetica,sans-Serif" font-size="10.00"> DIM &gt;</text>
<text text-anchor="start" x="401" y="-470" font-family="Helvetica,sans-Serif" font-size="10.00">#</text>
<text text-anchor="start" x="414" y="-470" font-family="Helvetica,sans-Serif" font-size="10.00">mEdges</text>
<text text-anchor="start" x="401" y="-455" font-family="Helvetica,sans-Serif" font-size="10.00">#</text>
<text text-anchor="start" x="414" y="-455" font-family="Helvetica,sans-Serif" font-size="10.00">mEdgeHelper</text>
<text text-anchor="start" x="401" y="-440" font-family="Helvetica,sans-Serif" font-size="10.00">+</text>
<text text-anchor="start" x="414" y="-440" font-family="Helvetica,sans-Serif" font-size="10.00">MutableElement()</text>
<text text-anchor="start" x="401" y="-425" font-family="Helvetica,sans-Serif" font-size="10.00">+</text>
<text text-anchor="start" x="414" y="-425" font-family="Helvetica,sans-Serif" font-size="10.00">MutableElement()</text>
<text text-anchor="start" x="401" y="-410" font-family="Helvetica,sans-Serif" font-size="10.00">+</text>
<text text-anchor="start" x="414" y="-410" font-family="Helvetica,sans-Serif" font-size="10.00">~MutableElement()</text>
<text text-anchor="start" x="401" y="-395" font-family="Helvetica,sans-Serif" font-size="10.00">+</text>
<text text-anchor="start" x="414" y="-395" font-family="Helvetica,sans-Serif" font-size="10.00">RegisterWithNodes()</text>
<text text-anchor="start" x="401" y="-380" font-family="Helvetica,sans-Serif" font-size="10.00">+</text>
<text text-anchor="start" x="414" y="-380" font-family="Helvetica,sans-Serif" font-size="10.00">MarkAsDeleted()</text>
<text text-anchor="start" x="401" y="-365" font-family="Helvetica,sans-Serif" font-size="10.00">+</text>
<text text-anchor="start" x="414" y="-365" font-family="Helvetica,sans-Serif" font-size="10.00">ResetIndex()</text>
<text text-anchor="start" x="401" y="-350" font-family="Helvetica,sans-Serif" font-size="10.00">+</text>
<text text-anchor="start" x="414" y="-350" font-family="Helvetica,sans-Serif" font-size="10.00">UpdateNode()</text>
<text text-anchor="start" x="401" y="-335" font-family="Helvetica,sans-Serif" font-size="10.00">+</text>
<text text-anchor="start" x="414" y="-335" font-family="Helvetica,sans-Serif" font-size="10.00">DeleteNode()</text>
<text text-anchor="start" x="401" y="-320" font-family="Helvetica,sans-Serif" font-size="10.00">+</text>
<text text-anchor="start" x="414" y="-320" font-family="Helvetica,sans-Serif" font-size="10.00">AddNode()</text>
<text text-anchor="start" x="401" y="-305" font-family="Helvetica,sans-Serif" font-size="10.00">+</text>
<text text-anchor="start" x="414" y="-305" font-family="Helvetica,sans-Serif" font-size="10.00">GetNodeLocalIndex()</text>
<text text-anchor="start" x="414" y="-290" font-family="Helvetica,sans-Serif" font-size="10.00">and 12 more...</text>
<text text-anchor="start" x="403.5" y="-275" font-family="Helvetica,sans-Serif" font-size="10.00">&#45;</text>
<text text-anchor="start" x="414" y="-275" font-family="Helvetica,sans-Serif" font-size="10.00">serialize()</text>
<polygon fill="#666666" stroke="#666666" points="397,-480 397,-480 522,-480 522,-480 397,-480"/>
<polygon fill="#666666" stroke="#666666" points="397,-450 397,-450 412,-450 412,-450 397,-450"/>
<polygon fill="#666666" stroke="#666666" points="412,-450 412,-450 522,-450 522,-450 412,-450"/>
<polygon fill="none" stroke="#666666" points="396.5,-268 396.5,-508 521.5,-508 521.5,-268 396.5,-268"/>
</a>
</g>
</g>
<!-- Node1&#45;&gt;Node6 -->
<g id="edge7_Node000001_Node000006" class="edge">
<title>Node1&#45;&gt;Node6</title>
<g id="a_edge7_Node000001_Node000006"><a xlink:title=" ">
<path fill="none" stroke="orange" d="M392.62,-545.36C397.87,-532.98 403.18,-520.47 408.39,-508.19"/>
<polygon fill="orange" stroke="orange" points="389.3,-544.21 388.61,-554.79 395.74,-546.95 389.3,-544.21"/>
</a>
</g>
<text text-anchor="middle" x="434.5" y="-529" font-family="Helvetica,sans-Serif" font-size="10.00" fill="grey"> &lt; DIM, DIM &gt;</text>
</g>
<!-- Node2 -->
<g id="Node000002" class="node">
<title>Node2</title>
<g id="a_Node000002"><a xlink:href="classAbstractElement.html" target="_top" xlink:title=" ">
<polygon fill="white" stroke="transparent" points="420,-1117 256,-1117 256,-832 420,-832 420,-1117"/>
<text text-anchor="start" x="268.5" y="-1104.5" font-family="Helvetica,sans-Serif" font-size="10.00">AbstractElement&lt; ELEMENT</text>
<text text-anchor="start" x="289" y="-1093.5" font-family="Helvetica,sans-Serif" font-size="10.00">_DIM, SPACE_DIM &gt;</text>
<text text-anchor="start" x="260" y="-1078.5" font-family="Helvetica,sans-Serif" font-size="10.00">#</text>
<text text-anchor="start" x="273" y="-1078.5" font-family="Helvetica,sans-Serif" font-size="10.00">mNodes</text>
<text text-anchor="start" x="260" y="-1063.5" font-family="Helvetica,sans-Serif" font-size="10.00">#</text>
<text text-anchor="start" x="273" y="-1063.5" font-family="Helvetica,sans-Serif" font-size="10.00">mIndex</text>
<text text-anchor="start" x="260" y="-1048.5" font-family="Helvetica,sans-Serif" font-size="10.00">#</text>
<text text-anchor="start" x="273" y="-1048.5" font-family="Helvetica,sans-Serif" font-size="10.00">mIsDeleted</text>
<text text-anchor="start" x="260" y="-1033.5" font-family="Helvetica,sans-Serif" font-size="10.00">#</text>
<text text-anchor="start" x="273" y="-1033.5" font-family="Helvetica,sans-Serif" font-size="10.00">mOwnership</text>
<text text-anchor="start" x="260" y="-1018.5" font-family="Helvetica,sans-Serif" font-size="10.00">#</text>
<text text-anchor="start" x="273" y="-1018.5" font-family="Helvetica,sans-Serif" font-size="10.00">mpElementAttributes</text>
<text text-anchor="start" x="260" y="-1003.5" font-family="Helvetica,sans-Serif" font-size="10.00">+</text>
<text text-anchor="start" x="273" y="-1003.5" font-family="Helvetica,sans-Serif" font-size="10.00">AbstractElement()</text>
<text text-anchor="start" x="260" y="-988.5" font-family="Helvetica,sans-Serif" font-size="10.00">+</text>
<text text-anchor="start" x="273" y="-988.5" font-family="Helvetica,sans-Serif" font-size="10.00">AbstractElement()</text>
<text text-anchor="start" x="260" y="-973.5" font-family="Helvetica,sans-Serif" font-size="10.00">+</text>
<text text-anchor="start" x="273" y="-973.5" font-family="Helvetica,sans-Serif" font-size="10.00">~AbstractElement()</text>
<text text-anchor="start" x="260" y="-958.5" font-family="Helvetica,sans-Serif" font-size="10.00">+</text>
<text text-anchor="start" x="273" y="-958.5" font-family="Helvetica,sans-Serif" font-size="10.00">UpdateNode()</text>
<text text-anchor="start" x="260" y="-943.5" font-family="Helvetica,sans-Serif" font-size="10.00">+</text>
<text text-anchor="start" x="273" y="-943.5" font-family="Helvetica,sans-Serif" font-size="10.00">ReplaceNode()</text>
<text text-anchor="start" x="260" y="-928.5" font-family="Helvetica,sans-Serif" font-size="10.00">+</text>
<text text-anchor="start" x="273" y="-928.5" font-family="Helvetica,sans-Serif" font-size="10.00">MarkAsDeleted()</text>
<text text-anchor="start" x="260" y="-913.5" font-family="Helvetica,sans-Serif" font-size="10.00">+</text>
<text text-anchor="start" x="273" y="-913.5" font-family="Helvetica,sans-Serif" font-size="10.00">RegisterWithNodes()</text>
<text text-anchor="start" x="260" y="-898.5" font-family="Helvetica,sans-Serif" font-size="10.00">+</text>
<text text-anchor="start" x="273" y="-898.5" font-family="Helvetica,sans-Serif" font-size="10.00">GetNodeLocation()</text>
<text text-anchor="start" x="260" y="-883.5" font-family="Helvetica,sans-Serif" font-size="10.00">+</text>
<text text-anchor="start" x="273" y="-883.5" font-family="Helvetica,sans-Serif" font-size="10.00">GetNodeLocation()</text>
<text text-anchor="start" x="260" y="-868.5" font-family="Helvetica,sans-Serif" font-size="10.00">+</text>
<text text-anchor="start" x="273" y="-868.5" font-family="Helvetica,sans-Serif" font-size="10.00">GetNodeGlobalIndex()</text>
<text text-anchor="start" x="273" y="-853.5" font-family="Helvetica,sans-Serif" font-size="10.00">and 14 more...</text>
<text text-anchor="start" x="260" y="-838.5" font-family="Helvetica,sans-Serif" font-size="10.00">#</text>
<text text-anchor="start" x="273" y="-838.5" font-family="Helvetica,sans-Serif" font-size="10.00">ConstructElementAttributes()</text>
<polygon fill="#666666" stroke="#666666" points="256,-1088.5 256,-1088.5 420,-1088.5 420,-1088.5 256,-1088.5"/>
<polygon fill="#666666" stroke="#666666" points="256,-1013.5 256,-1013.5 271,-1013.5 271,-1013.5 256,-1013.5"/>
<polygon fill="#666666" stroke="#666666" points="271,-1013.5 271,-1013.5 420,-1013.5 420,-1013.5 271,-1013.5"/>
<polygon fill="none" stroke="#666666" points="256,-832 256,-1117 420,-1117 420,-832 256,-832"/>
</a>
</g>
</g>
<!-- Node2&#45;&gt;Node1 -->
<g id="edge1_Node000001_Node000002" class="edge">
<title>Node2&#45;&gt;Node1</title>
<g id="a_edge1_Node000001_Node000002"><a xlink:title=" ">
<path fill="none" stroke="#63b8ff" d="M338,-821.65C338,-812.72 338,-803.81 338,-795.05"/>
<polygon fill="none" stroke="#63b8ff" points="334.5,-821.72 338,-831.72 341.5,-821.72 334.5,-821.72"/>
</a>
</g>
</g>
<!-- Node5&#45;&gt;Node3 -->
<g id="edge5_Node000005_Node000003" class="edge">
<title>Node5&#45;&gt;Node3</title>
<g id="a_edge5_Node000005_Node000003"><a xlink:title=" ">
<path fill="none" stroke="orange" d="M248.36,-272.32C248.67,-257.4 249.19,-242.33 250,-228 250.33,-222.15 250.74,-216.15 251.2,-210.1"/>
<polygon fill="orange" stroke="orange" points="244.85,-272.55 248.17,-282.61 251.85,-272.68 244.85,-272.55"/>
</a>
</g>
<text text-anchor="start" x="250" y="-242" font-family="Helvetica,sans-Serif" font-size="10.00" fill="grey"> &lt; ELEMENT_DIM &#45; 1,</text>
<text text-anchor="middle" x="302" y="-231" font-family="Helvetica,sans-Serif" font-size="10.00" fill="grey"> SPACE_DIM &gt;</text>
</g>
<!-- Node5&#45;&gt;Node4 -->
<g id="edge6_Node000005_Node000004" class="edge">
<title>Node5&#45;&gt;Node4</title>
<g id="a_edge6_Node000005_Node000004"><a xlink:title=" ">
<path fill="none" stroke="orange" d="M161.71,-312.91C143.72,-294 126.48,-272.57 114,-250 107.17,-237.64 101.7,-223.94 97.33,-210.05"/>
<polygon fill="orange" stroke="orange" points="159.42,-315.58 168.9,-320.31 164.44,-310.7 159.42,-315.58"/>
</a>
</g>
<text text-anchor="start" x="114" y="-242" font-family="Helvetica,sans-Serif" font-size="10.00" fill="grey"> &lt; ELEMENT_DIM&#45;1, SPACE</text>
<text text-anchor="middle" x="180" y="-231" font-family="Helvetica,sans-Serif" font-size="10.00" fill="grey">_DIM &gt;</text>
</g>
<!-- Node7 -->
<g id="Node000007" class="node">
<title>Node7</title>
<g id="a_Node000007"><a xlink:href="classPottsElement.html" target="_top" xlink:title=" ">
<polygon fill="white" stroke="transparent" points="518,-159.5 400,-159.5 400,-50.5 518,-50.5 518,-159.5"/>
<text text-anchor="start" x="405" y="-147" font-family="Helvetica,sans-Serif" font-size="10.00">PottsElement&lt; DIM &gt;</text>
<text text-anchor="start" x="457" y="-132" font-family="Helvetica,sans-Serif" font-size="10.00"> </text>
<text text-anchor="start" x="407" y="-117" font-family="Helvetica,sans-Serif" font-size="10.00">+</text>
<text text-anchor="start" x="423" y="-117" font-family="Helvetica,sans-Serif" font-size="10.00">PottsElement()</text>
<text text-anchor="start" x="407" y="-102" font-family="Helvetica,sans-Serif" font-size="10.00">+</text>
<text text-anchor="start" x="423" y="-102" font-family="Helvetica,sans-Serif" font-size="10.00">~PottsElement()</text>
<text text-anchor="start" x="407" y="-87" font-family="Helvetica,sans-Serif" font-size="10.00">+</text>
<text text-anchor="start" x="423" y="-87" font-family="Helvetica,sans-Serif" font-size="10.00">AddNode()</text>
<text text-anchor="start" x="407" y="-72" font-family="Helvetica,sans-Serif" font-size="10.00">+</text>
<text text-anchor="start" x="423" y="-72" font-family="Helvetica,sans-Serif" font-size="10.00">GetAspectRatio()</text>
<text text-anchor="start" x="409.5" y="-57" font-family="Helvetica,sans-Serif" font-size="10.00">&#45;</text>
<text text-anchor="start" x="423" y="-57" font-family="Helvetica,sans-Serif" font-size="10.00">serialize()</text>
<polygon fill="#666666" stroke="#666666" points="400,-142 400,-142 518,-142 518,-142 400,-142"/>
<polygon fill="#666666" stroke="#666666" points="400,-127 400,-127 518,-127 518,-127 400,-127"/>
<polygon fill="none" stroke="#666666" points="400,-50.5 400,-159.5 518,-159.5 518,-50.5 400,-50.5"/>
</a>
</g>
</g>
<!-- Node6&#45;&gt;Node7 -->
<g id="edge8_Node000006_Node000007" class="edge">
<title>Node6&#45;&gt;Node7</title>
<g id="a_edge8_Node000006_Node000007"><a xlink:title=" ">
<path fill="none" stroke="#63b8ff" d="M459,-257.63C459,-223.06 459,-187.59 459,-159.65"/>
<polygon fill="none" stroke="#63b8ff" points="455.5,-257.83 459,-267.83 462.5,-257.83 455.5,-257.83"/>
</a>
</g>
</g>
</g>
</svg>
