<?xml version="1.0" encoding="UTF-8" standalone="no"?>
<!DOCTYPE svg PUBLIC "-//W3C//DTD SVG 1.1//EN"
 "http://www.w3.org/Graphics/SVG/1.1/DTD/svg11.dtd">
<!-- Generated by graphviz version 2.43.0 (0)
 -->
<!-- Title: BoundaryElement&lt; ELEMENT_DIM, SPACE_DIM &gt; Pages: 1 -->
<svg width="181pt" height="736pt"
 viewBox="0.00 0.00 181.00 736.00" xmlns="http://www.w3.org/2000/svg" xmlns:xlink="http://www.w3.org/1999/xlink">
<g id="graph0" class="graph" transform="scale(1 1) rotate(0) translate(4 732)">
<title>BoundaryElement&lt; ELEMENT_DIM, SPACE_DIM &gt;</title>
<!-- Node1 -->
<g id="Node000001" class="node">
<title>Node1</title>
<g id="a_Node000001"><a xlink:title=" ">
<polygon fill="#999999" stroke="transparent" points="164,-150 9,-150 9,0 164,0 164,-150"/>
<text text-anchor="start" x="14.5" y="-138" font-family="Helvetica,sans-Serif" font-size="10.00">BoundaryElement&lt; ELEMENT</text>
<text text-anchor="start" x="38" y="-127" font-family="Helvetica,sans-Serif" font-size="10.00">_DIM, SPACE_DIM &gt;</text>
<text text-anchor="start" x="85" y="-112" font-family="Helvetica,sans-Serif" font-size="10.00"> </text>
<text text-anchor="start" x="21.5" y="-97" font-family="Helvetica,sans-Serif" font-size="10.00">+</text>
<text text-anchor="start" x="42.5" y="-97" font-family="Helvetica,sans-Serif" font-size="10.00">BoundaryElement()</text>
<text text-anchor="start" x="21.5" y="-82" font-family="Helvetica,sans-Serif" font-size="10.00">+</text>
<text text-anchor="start" x="42.5" y="-82" font-family="Helvetica,sans-Serif" font-size="10.00">BoundaryElement()</text>
<text text-anchor="start" x="21.5" y="-67" font-family="Helvetica,sans-Serif" font-size="10.00">+</text>
<text text-anchor="start" x="42.5" y="-67" font-family="Helvetica,sans-Serif" font-size="10.00">RegisterWithNodes()</text>
<text text-anchor="start" x="21.5" y="-52" font-family="Helvetica,sans-Serif" font-size="10.00">+</text>
<text text-anchor="start" x="42.5" y="-52" font-family="Helvetica,sans-Serif" font-size="10.00">ResetIndex()</text>
<text text-anchor="start" x="21.5" y="-37" font-family="Helvetica,sans-Serif" font-size="10.00">+</text>
<text text-anchor="start" x="42.5" y="-37" font-family="Helvetica,sans-Serif" font-size="10.00">MarkAsDeleted()</text>
<text text-anchor="start" x="21.5" y="-22" font-family="Helvetica,sans-Serif" font-size="10.00">+</text>
<text text-anchor="start" x="42.5" y="-22" font-family="Helvetica,sans-Serif" font-size="10.00">UpdateNode()</text>
<text text-anchor="start" x="21.5" y="-7" font-family="Helvetica,sans-Serif" font-size="10.00">#</text>
<text text-anchor="start" x="42.5" y="-7" font-family="Helvetica,sans-Serif" font-size="10.00">BoundaryElement()</text>
<polygon fill="#666666" stroke="#666666" points="9.5,-122 9.5,-122 164.5,-122 164.5,-122 9.5,-122"/>
<polygon fill="#666666" stroke="#666666" points="9.5,-107 9.5,-107 164.5,-107 164.5,-107 9.5,-107"/>
<polygon fill="none" stroke="#666666" points="9,0 9,-150 164,-150 164,0 9,0"/>
</a>
</g>
</g>
<!-- Node2 -->
<g id="Node000002" class="node">
<title>Node2</title>
<g id="a_Node000002"><a xlink:href="classAbstractTetrahedralElement.html" target="_top" xlink:title=" ">
<polygon fill="white" stroke="transparent" points="173,-407 0,-407 0,-186 173,-186 173,-407"/>
<text text-anchor="start" x="9.5" y="-394.5" font-family="Helvetica,sans-Serif" font-size="10.00">AbstractTetrahedralElement</text>
<text text-anchor="start" x="9.5" y="-383.5" font-family="Helvetica,sans-Serif" font-size="10.00">&lt; ELEMENT_DIM, SPACE_DIM &gt;</text>
<text text-anchor="start" x="85" y="-368.5" font-family="Helvetica,sans-Serif" font-size="10.00"> </text>
<text text-anchor="start" x="4.5" y="-353.5" font-family="Helvetica,sans-Serif" font-size="10.00">+</text>
<text text-anchor="start" x="17.5" y="-353.5" font-family="Helvetica,sans-Serif" font-size="10.00">AbstractTetrahedralElement()</text>
<text text-anchor="start" x="4.5" y="-338.5" font-family="Helvetica,sans-Serif" font-size="10.00">+</text>
<text text-anchor="start" x="17.5" y="-338.5" font-family="Helvetica,sans-Serif" font-size="10.00">AbstractTetrahedralElement()</text>
<text text-anchor="start" x="4.5" y="-323.5" font-family="Helvetica,sans-Serif" font-size="10.00">+</text>
<text text-anchor="start" x="17.5" y="-323.5" font-family="Helvetica,sans-Serif" font-size="10.00">~AbstractTetrahedralElement()</text>
<text text-anchor="start" x="4.5" y="-308.5" font-family="Helvetica,sans-Serif" font-size="10.00">+</text>
<text text-anchor="start" x="17.5" y="-308.5" font-family="Helvetica,sans-Serif" font-size="10.00">CalculateCentroid()</text>
<text text-anchor="start" x="4.5" y="-293.5" font-family="Helvetica,sans-Serif" font-size="10.00">+</text>
<text text-anchor="start" x="17.5" y="-293.5" font-family="Helvetica,sans-Serif" font-size="10.00">CalculateJacobian()</text>
<text text-anchor="start" x="4.5" y="-278.5" font-family="Helvetica,sans-Serif" font-size="10.00">+</text>
<text text-anchor="start" x="17.5" y="-278.5" font-family="Helvetica,sans-Serif" font-size="10.00">CalculateWeightedDirection()</text>
<text text-anchor="start" x="4.5" y="-263.5" font-family="Helvetica,sans-Serif" font-size="10.00">+</text>
<text text-anchor="start" x="17.5" y="-263.5" font-family="Helvetica,sans-Serif" font-size="10.00">CalculateNormal()</text>
<text text-anchor="start" x="4.5" y="-248.5" font-family="Helvetica,sans-Serif" font-size="10.00">+</text>
<text text-anchor="start" x="17.5" y="-248.5" font-family="Helvetica,sans-Serif" font-size="10.00">CalculateInverseJacobian()</text>
<text text-anchor="start" x="4.5" y="-233.5" font-family="Helvetica,sans-Serif" font-size="10.00">+</text>
<text text-anchor="start" x="17.5" y="-233.5" font-family="Helvetica,sans-Serif" font-size="10.00">GetVolume()</text>
<text text-anchor="start" x="4.5" y="-218.5" font-family="Helvetica,sans-Serif" font-size="10.00">+</text>
<text text-anchor="start" x="17.5" y="-218.5" font-family="Helvetica,sans-Serif" font-size="10.00">GetStiffnessMatrixGlobal</text>
<text text-anchor="start" x="17.5" y="-207.5" font-family="Helvetica,sans-Serif" font-size="10.00">Indices()</text>
<text text-anchor="start" x="4.5" y="-192.5" font-family="Helvetica,sans-Serif" font-size="10.00">#</text>
<text text-anchor="start" x="17.5" y="-192.5" font-family="Helvetica,sans-Serif" font-size="10.00">RefreshJacobian()</text>
<polygon fill="#666666" stroke="#666666" points="0.5,-378.5 0.5,-378.5 173.5,-378.5 173.5,-378.5 0.5,-378.5"/>
<polygon fill="#666666" stroke="#666666" points="0.5,-363.5 0.5,-363.5 173.5,-363.5 173.5,-363.5 0.5,-363.5"/>
<polygon fill="none" stroke="#666666" points="0,-186 0,-407 173,-407 173,-186 0,-186"/>
</a>
</g>
</g>
<!-- Node2&#45;&gt;Node1 -->
<g id="edge1_Node000001_Node000002" class="edge">
<title>Node2&#45;&gt;Node1</title>
<g id="a_edge1_Node000001_Node000002"><a xlink:title=" ">
<path fill="none" stroke="#63b8ff" d="M86.5,-175.54C86.5,-166.87 86.5,-158.29 86.5,-150.01"/>
<polygon fill="none" stroke="#63b8ff" points="83,-175.75 86.5,-185.75 90,-175.75 83,-175.75"/>
</a>
</g>
</g>
<!-- Node3 -->
<g id="Node000003" class="node">
<title>Node3</title>
<g id="a_Node000003"><a xlink:href="classAbstractElement.html" target="_top" xlink:title=" ">
<polygon fill="white" stroke="transparent" points="168.5,-728 4.5,-728 4.5,-443 168.5,-443 168.5,-728"/>
<text text-anchor="start" x="17" y="-715.5" font-family="Helvetica,sans-Serif" font-size="10.00">AbstractElement&lt; ELEMENT</text>
<text text-anchor="start" x="37.5" y="-704.5" font-family="Helvetica,sans-Serif" font-size="10.00">_DIM, SPACE_DIM &gt;</text>
<text text-anchor="start" x="8.5" y="-689.5" font-family="Helvetica,sans-Serif" font-size="10.00">#</text>
<text text-anchor="start" x="21.5" y="-689.5" font-family="Helvetica,sans-Serif" font-size="10.00">mNodes</text>
<text text-anchor="start" x="8.5" y="-674.5" font-family="Helvetica,sans-Serif" font-size="10.00">#</text>
<text text-anchor="start" x="21.5" y="-674.5" font-family="Helvetica,sans-Serif" font-size="10.00">mIndex</text>
<text text-anchor="start" x="8.5" y="-659.5" font-family="Helvetica,sans-Serif" font-size="10.00">#</text>
<text text-anchor="start" x="21.5" y="-659.5" font-family="Helvetica,sans-Serif" font-size="10.00">mIsDeleted</text>
<text text-anchor="start" x="8.5" y="-644.5" font-family="Helvetica,sans-Serif" font-size="10.00">#</text>
<text text-anchor="start" x="21.5" y="-644.5" font-family="Helvetica,sans-Serif" font-size="10.00">mOwnership</text>
<text text-anchor="start" x="8.5" y="-629.5" font-family="Helvetica,sans-Serif" font-size="10.00">#</text>
<text text-anchor="start" x="21.5" y="-629.5" font-family="Helvetica,sans-Serif" font-size="10.00">mpElementAttributes</text>
<text text-anchor="start" x="8.5" y="-614.5" font-family="Helvetica,sans-Serif" font-size="10.00">+</text>
<text text-anchor="start" x="21.5" y="-614.5" font-family="Helvetica,sans-Serif" font-size="10.00">AbstractElement()</text>
<text text-anchor="start" x="8.5" y="-599.5" font-family="Helvetica,sans-Serif" font-size="10.00">+</text>
<text text-anchor="start" x="21.5" y="-599.5" font-family="Helvetica,sans-Serif" font-size="10.00">AbstractElement()</text>
<text text-anchor="start" x="8.5" y="-584.5" font-family="Helvetica,sans-Serif" font-size="10.00">+</text>
<text text-anchor="start" x="21.5" y="-584.5" font-family="Helvetica,sans-Serif" font-size="10.00">~AbstractElement()</text>
<text text-anchor="start" x="8.5" y="-569.5" font-family="Helvetica,sans-Serif" font-size="10.00">+</text>
<text text-anchor="start" x="21.5" y="-569.5" font-family="Helvetica,sans-Serif" font-size="10.00">UpdateNode()</text>
<text text-anchor="start" x="8.5" y="-554.5" font-family="Helvetica,sans-Serif" font-size="10.00">+</text>
<text text-anchor="start" x="21.5" y="-554.5" font-family="Helvetica,sans-Serif" font-size="10.00">ReplaceNode()</text>
<text text-anchor="start" x="8.5" y="-539.5" font-family="Helvetica,sans-Serif" font-size="10.00">+</text>
<text text-anchor="start" x="21.5" y="-539.5" font-family="Helvetica,sans-Serif" font-size="10.00">MarkAsDeleted()</text>
<text text-anchor="start" x="8.5" y="-524.5" font-family="Helvetica,sans-Serif" font-size="10.00">+</text>
<text text-anchor="start" x="21.5" y="-524.5" font-family="Helvetica,sans-Serif" font-size="10.00">RegisterWithNodes()</text>
<text text-anchor="start" x="8.5" y="-509.5" font-family="Helvetica,sans-Serif" font-size="10.00">+</text>
<text text-anchor="start" x="21.5" y="-509.5" font-family="Helvetica,sans-Serif" font-size="10.00">GetNodeLocation()</text>
<text text-anchor="start" x="8.5" y="-494.5" font-family="Helvetica,sans-Serif" font-size="10.00">+</text>
<text text-anchor="start" x="21.5" y="-494.5" font-family="Helvetica,sans-Serif" font-size="10.00">GetNodeLocation()</text>
<text text-anchor="start" x="8.5" y="-479.5" font-family="Helvetica,sans-Serif" font-size="10.00">+</text>
<text text-anchor="start" x="21.5" y="-479.5" font-family="Helvetica,sans-Serif" font-size="10.00">GetNodeGlobalIndex()</text>
<text text-anchor="start" x="21.5" y="-464.5" font-family="Helvetica,sans-Serif" font-size="10.00">and 14 more...</text>
<text text-anchor="start" x="8.5" y="-449.5" font-family="Helvetica,sans-Serif" font-size="10.00">#</text>
<text text-anchor="start" x="21.5" y="-449.5" font-family="Helvetica,sans-Serif" font-size="10.00">ConstructElementAttributes()</text>
<polygon fill="#666666" stroke="#666666" points="4.5,-699.5 4.5,-699.5 168.5,-699.5 168.5,-699.5 4.5,-699.5"/>
<polygon fill="#666666" stroke="#666666" points="4.5,-624.5 4.5,-624.5 19.5,-624.5 19.5,-624.5 4.5,-624.5"/>
<polygon fill="#666666" stroke="#666666" points="19.5,-624.5 19.5,-624.5 168.5,-624.5 168.5,-624.5 19.5,-624.5"/>
<polygon fill="none" stroke="#666666" points="4.5,-443 4.5,-728 168.5,-728 168.5,-443 4.5,-443"/>
</a>
</g>
</g>
<!-- Node3&#45;&gt;Node2 -->
<g id="edge2_Node000002_Node000003" class="edge">
<title>Node3&#45;&gt;Node2</title>
<g id="a_edge2_Node000002_Node000003"><a xlink:title=" ">
<path fill="none" stroke="#63b8ff" d="M86.5,-432.68C86.5,-424.16 86.5,-415.69 86.5,-407.37"/>
<polygon fill="none" stroke="#63b8ff" points="83,-432.68 86.5,-442.68 90,-432.68 83,-432.68"/>
</a>
</g>
</g>
</g>
</svg>
