<?xml version="1.0" encoding="UTF-8" standalone="no"?>
<!DOCTYPE svg PUBLIC "-//W3C//DTD SVG 1.1//EN"
 "http://www.w3.org/Graphics/SVG/1.1/DTD/svg11.dtd">
<!-- Generated by graphviz version 2.43.0 (0)
 -->
<!-- Title: LogFile Pages: 1 -->
<svg width="408pt" height="325pt"
 viewBox="0.00 0.00 408.00 325.00" xmlns="http://www.w3.org/2000/svg" xmlns:xlink="http://www.w3.org/1999/xlink">
<g id="graph0" class="graph" transform="scale(1 1) rotate(0) translate(4 321)">
<title>LogFile</title>
<!-- Node1 -->
<g id="Node000001" class="node">
<title>Node1</title>
<g id="a_Node000001"><a xlink:title=" ">
<polygon fill="#999999" stroke="transparent" points="237,-199 119,-199 119,0 237,0 237,-199"/>
<text text-anchor="start" x="160.5" y="-186.5" font-family="Helvetica,sans-Serif" font-size="10.00">LogFile</text>
<text text-anchor="start" x="176" y="-171.5" font-family="Helvetica,sans-Serif" font-size="10.00"> </text>
<text text-anchor="start" x="123" y="-156.5" font-family="Helvetica,sans-Serif" font-size="10.00">+</text>
<text text-anchor="start" x="136" y="-156.5" font-family="Helvetica,sans-Serif" font-size="10.00">Set()</text>
<text text-anchor="start" x="123" y="-141.5" font-family="Helvetica,sans-Serif" font-size="10.00">+</text>
<text text-anchor="start" x="136" y="-141.5" font-family="Helvetica,sans-Serif" font-size="10.00">SetPrecision()</text>
<text text-anchor="start" x="123" y="-126.5" font-family="Helvetica,sans-Serif" font-size="10.00">+</text>
<text text-anchor="start" x="136" y="-126.5" font-family="Helvetica,sans-Serif" font-size="10.00">WriteHeader()</text>
<text text-anchor="start" x="123" y="-111.5" font-family="Helvetica,sans-Serif" font-size="10.00">+</text>
<text text-anchor="start" x="136" y="-111.5" font-family="Helvetica,sans-Serif" font-size="10.00">WriteElapsedTime()</text>
<text text-anchor="start" x="123" y="-96.5" font-family="Helvetica,sans-Serif" font-size="10.00">+</text>
<text text-anchor="start" x="136" y="-96.5" font-family="Helvetica,sans-Serif" font-size="10.00">IsFileSet()</text>
<text text-anchor="start" x="123" y="-81.5" font-family="Helvetica,sans-Serif" font-size="10.00">+</text>
<text text-anchor="start" x="136" y="-81.5" font-family="Helvetica,sans-Serif" font-size="10.00">operator&lt;&lt;()</text>
<text text-anchor="start" x="123" y="-66.5" font-family="Helvetica,sans-Serif" font-size="10.00">+</text>
<text text-anchor="start" x="136" y="-66.5" font-family="Helvetica,sans-Serif" font-size="10.00">Instance()</text>
<text text-anchor="start" x="123" y="-51.5" font-family="Helvetica,sans-Serif" font-size="10.00">+</text>
<text text-anchor="start" x="136" y="-51.5" font-family="Helvetica,sans-Serif" font-size="10.00">Level()</text>
<text text-anchor="start" x="123" y="-36.5" font-family="Helvetica,sans-Serif" font-size="10.00">+</text>
<text text-anchor="start" x="136" y="-36.5" font-family="Helvetica,sans-Serif" font-size="10.00">MaxLoggingLevel()</text>
<text text-anchor="start" x="123" y="-21.5" font-family="Helvetica,sans-Serif" font-size="10.00">+</text>
<text text-anchor="start" x="136" y="-21.5" font-family="Helvetica,sans-Serif" font-size="10.00">Close()</text>
<text text-anchor="start" x="125.5" y="-6.5" font-family="Helvetica,sans-Serif" font-size="10.00">&#45;</text>
<text text-anchor="start" x="136" y="-6.5" font-family="Helvetica,sans-Serif" font-size="10.00">LogFile()</text>
<polygon fill="#666666" stroke="#666666" points="119,-181.5 119,-181.5 237,-181.5 237,-181.5 119,-181.5"/>
<polygon fill="#666666" stroke="#666666" points="119,-166.5 119,-166.5 237,-166.5 237,-166.5 119,-166.5"/>
<polygon fill="none" stroke="#666666" points="119,0 119,-199 237,-199 237,0 119,0"/>
</a>
</g>
</g>
<!-- Node1&#45;&gt;Node1 -->
<g id="edge1_Node000001_Node000001" class="edge">
<title>Node1&#45;&gt;Node1</title>
<g id="a_edge1_Node000001_Node000001"><a xlink:title=" ">
<path fill="none" stroke="#63b8ff" d="M237.08,-123.15C247.63,-120.08 255,-112.19 255,-99.5 255,-91.76 252.26,-85.82 247.74,-81.65"/>
<polygon fill="none" stroke="#63b8ff" points="247.62,-81.59 240.44,-82.23 237.08,-75.85 244.26,-75.21 247.62,-81.59"/>
</a>
</g>
<text text-anchor="middle" x="287" y="-97" font-family="Helvetica,sans-Serif" font-size="10.00" fill="grey"> &#45;mpInstance</text>
</g>
<!-- Node2 -->
<g id="Node000002" class="node">
<title>Node2</title>
<g id="a_Node000002"><a xlink:href="classbool.html" target="_top" xlink:title=" ">
<polygon fill="white" stroke="transparent" points="32,-317 0,-317 0,-268 32,-268 32,-317"/>
<text text-anchor="start" x="5" y="-304.5" font-family="Helvetica,sans-Serif" font-size="10.00">bool</text>
<text text-anchor="start" x="14" y="-289.5" font-family="Helvetica,sans-Serif" font-size="10.00"> </text>
<text text-anchor="start" x="14" y="-274.5" font-family="Helvetica,sans-Serif" font-size="10.00"> </text>
<polygon fill="#bfbfbf" stroke="#bfbfbf" points="0,-299.5 0,-299.5 32,-299.5 32,-299.5 0,-299.5"/>
<polygon fill="#bfbfbf" stroke="#bfbfbf" points="0,-284.5 0,-284.5 32,-284.5 32,-284.5 0,-284.5"/>
<polygon fill="none" stroke="#bfbfbf" points="0,-268 0,-317 32,-317 32,-268 0,-268"/>
</a>
</g>
</g>
<!-- Node2&#45;&gt;Node1 -->
<g id="edge2_Node000001_Node000002" class="edge">
<title>Node2&#45;&gt;Node1</title>
<g id="a_edge2_Node000001_Node000002"><a xlink:title=" ">
<path fill="none" stroke="#63b8ff" d="M32.13,-270C43.56,-254.96 59.41,-234.5 74,-217 85.68,-202.99 98.4,-188.31 110.81,-174.26"/>
<polygon fill="none" stroke="#63b8ff" points="110.95,-174.11 111.94,-166.97 118.91,-165.14 117.92,-172.28 110.95,-174.11"/>
</a>
</g>
<text text-anchor="middle" x="99" y="-231" font-family="Helvetica,sans-Serif" font-size="10.00" fill="grey"> &#45;mFileSet</text>
</g>
<!-- Node3 -->
<g id="Node000003" class="node">
<title>Node3</title>
<g id="a_Node000003"><a xlink:title=" ">
<polygon fill="white" stroke="transparent" points="200,-317 50,-317 50,-268 200,-268 200,-317"/>
<text text-anchor="start" x="55" y="-304.5" font-family="Helvetica,sans-Serif" font-size="10.00">shared_ptr&lt; std::ofstream &gt;</text>
<text text-anchor="start" x="123" y="-289.5" font-family="Helvetica,sans-Serif" font-size="10.00"> </text>
<text text-anchor="start" x="123" y="-274.5" font-family="Helvetica,sans-Serif" font-size="10.00"> </text>
<polygon fill="#bfbfbf" stroke="#bfbfbf" points="50,-299.5 50,-299.5 200,-299.5 200,-299.5 50,-299.5"/>
<polygon fill="#bfbfbf" stroke="#bfbfbf" points="50,-284.5 50,-284.5 200,-284.5 200,-284.5 50,-284.5"/>
<polygon fill="none" stroke="#bfbfbf" points="50,-268 50,-317 200,-317 200,-268 50,-268"/>
</a>
</g>
</g>
<!-- Node3&#45;&gt;Node1 -->
<g id="edge3_Node000001_Node000003" class="edge">
<title>Node3&#45;&gt;Node1</title>
<g id="a_edge3_Node000001_Node000003"><a xlink:title=" ">
<path fill="none" stroke="#63b8ff" d="M126.4,-267.75C127.64,-252.99 129.9,-233.7 134,-217 134.5,-214.98 135.02,-212.95 135.56,-210.9"/>
<polygon fill="none" stroke="#63b8ff" points="135.62,-210.68 133.41,-203.81 138.9,-199.13 141.11,-206 135.62,-210.68"/>
</a>
</g>
<text text-anchor="middle" x="172" y="-231" font-family="Helvetica,sans-Serif" font-size="10.00" fill="grey"> &#45;mpOutStream</text>
</g>
<!-- Node4 -->
<g id="Node000004" class="node">
<title>Node4</title>
<g id="a_Node000004"><a xlink:title=" ">
<polygon fill="white" stroke="transparent" points="260,-317 218,-317 218,-268 260,-268 260,-317"/>
<text text-anchor="start" x="223" y="-304.5" font-family="Helvetica,sans-Serif" font-size="10.00">time_t</text>
<text text-anchor="start" x="237" y="-289.5" font-family="Helvetica,sans-Serif" font-size="10.00"> </text>
<text text-anchor="start" x="237" y="-274.5" font-family="Helvetica,sans-Serif" font-size="10.00"> </text>
<polygon fill="#bfbfbf" stroke="#bfbfbf" points="218,-299.5 218,-299.5 260,-299.5 260,-299.5 218,-299.5"/>
<polygon fill="#bfbfbf" stroke="#bfbfbf" points="218,-284.5 218,-284.5 260,-284.5 260,-284.5 218,-284.5"/>
<polygon fill="none" stroke="#bfbfbf" points="218,-268 218,-317 260,-317 260,-268 218,-268"/>
</a>
</g>
</g>
<!-- Node4&#45;&gt;Node1 -->
<g id="edge4_Node000001_Node000004" class="edge">
<title>Node4&#45;&gt;Node1</title>
<g id="a_edge4_Node000001_Node000004"><a xlink:title=" ">
<path fill="none" stroke="#63b8ff" d="M231.4,-267.7C226.63,-252.78 220.11,-232.36 213.26,-210.91"/>
<polygon fill="none" stroke="#63b8ff" points="213.2,-210.7 207.56,-206.2 209.54,-199.27 215.18,-203.77 213.2,-210.7"/>
</a>
</g>
<text text-anchor="middle" x="253" y="-231" font-family="Helvetica,sans-Serif" font-size="10.00" fill="grey"> &#45;mInitTime</text>
</g>
<!-- Node5 -->
<g id="Node000005" class="node">
<title>Node5</title>
<g id="a_Node000005"><a xlink:href="classunsigned.html" target="_top" xlink:title=" ">
<polygon fill="white" stroke="transparent" points="340.5,-317 285.5,-317 285.5,-268 340.5,-268 340.5,-317"/>
<text text-anchor="start" x="291" y="-304.5" font-family="Helvetica,sans-Serif" font-size="10.00">unsigned</text>
<text text-anchor="start" x="311.5" y="-289.5" font-family="Helvetica,sans-Serif" font-size="10.00"> </text>
<text text-anchor="start" x="311.5" y="-274.5" font-family="Helvetica,sans-Serif" font-size="10.00"> </text>
<polygon fill="#bfbfbf" stroke="#bfbfbf" points="286,-299.5 286,-299.5 341,-299.5 341,-299.5 286,-299.5"/>
<polygon fill="#bfbfbf" stroke="#bfbfbf" points="286,-284.5 286,-284.5 341,-284.5 341,-284.5 286,-284.5"/>
<polygon fill="none" stroke="#bfbfbf" points="285.5,-268 285.5,-317 340.5,-317 340.5,-268 285.5,-268"/>
</a>
</g>
</g>
<!-- Node5&#45;&gt;Node1 -->
<g id="edge5_Node000001_Node000005" class="edge">
<title>Node5&#45;&gt;Node1</title>
<g id="a_edge5_Node000001_Node000005"><a xlink:title=" ">
<path fill="none" stroke="#63b8ff" d="M307.09,-267.93C302.65,-252.71 295.67,-232.86 286,-217 274.67,-198.42 260.07,-180.23 245.29,-163.95"/>
<polygon fill="none" stroke="#63b8ff" points="245.24,-163.91 238.23,-162.24 237.07,-155.12 244.09,-156.79 245.24,-163.91"/>
</a>
</g>
<text text-anchor="middle" x="350" y="-242" font-family="Helvetica,sans-Serif" font-size="10.00" fill="grey"> &#45;mLevel</text>
<text text-anchor="middle" x="350" y="-231" font-family="Helvetica,sans-Serif" font-size="10.00" fill="grey">&#45;mMaxLoggingLevel</text>
<text text-anchor="middle" x="350" y="-220" font-family="Helvetica,sans-Serif" font-size="10.00" fill="grey">&#45;mPrecision</text>
</g>
</g>
</svg>
