<?xml version="1.0" encoding="UTF-8" standalone="no"?>
<!DOCTYPE svg PUBLIC "-//W3C//DTD SVG 1.1//EN"
 "http://www.w3.org/Graphics/SVG/1.1/DTD/svg11.dtd">
<!-- Generated by graphviz version 2.43.0 (0)
 -->
<!-- Title: ExponentialMaterialLaw&lt; DIM &gt; Pages: 1 -->
<svg width="288pt" height="1043pt"
 viewBox="0.00 0.00 288.00 1043.00" xmlns="http://www.w3.org/2000/svg" xmlns:xlink="http://www.w3.org/1999/xlink">
<g id="graph0" class="graph" transform="scale(1 1) rotate(0) translate(4 1039)">
<title>ExponentialMaterialLaw&lt; DIM &gt;</title>
<!-- Node1 -->
<g id="Node000001" class="node">
<title>Node1</title>
<g id="a_Node000001"><a xlink:title=" ">
<polygon fill="#999999" stroke="transparent" points="280,-165 133,-165 133,0 280,0 280,-165"/>
<text text-anchor="start" x="148" y="-152.5" font-family="Helvetica,sans-Serif" font-size="10.00">ExponentialMaterialLaw</text>
<text text-anchor="start" x="185.5" y="-141.5" font-family="Helvetica,sans-Serif" font-size="10.00">&lt; DIM &gt;</text>
<text text-anchor="start" x="205" y="-126.5" font-family="Helvetica,sans-Serif" font-size="10.00"> </text>
<text text-anchor="start" x="137.5" y="-111.5" font-family="Helvetica,sans-Serif" font-size="10.00">+</text>
<text text-anchor="start" x="150.5" y="-111.5" font-family="Helvetica,sans-Serif" font-size="10.00">Get_dW_dI1()</text>
<text text-anchor="start" x="137.5" y="-96.5" font-family="Helvetica,sans-Serif" font-size="10.00">+</text>
<text text-anchor="start" x="150.5" y="-96.5" font-family="Helvetica,sans-Serif" font-size="10.00">Get_dW_dI2()</text>
<text text-anchor="start" x="137.5" y="-81.5" font-family="Helvetica,sans-Serif" font-size="10.00">+</text>
<text text-anchor="start" x="150.5" y="-81.5" font-family="Helvetica,sans-Serif" font-size="10.00">Get_d2W_dI1()</text>
<text text-anchor="start" x="137.5" y="-66.5" font-family="Helvetica,sans-Serif" font-size="10.00">+</text>
<text text-anchor="start" x="150.5" y="-66.5" font-family="Helvetica,sans-Serif" font-size="10.00">Get_d2W_dI2()</text>
<text text-anchor="start" x="137.5" y="-51.5" font-family="Helvetica,sans-Serif" font-size="10.00">+</text>
<text text-anchor="start" x="150.5" y="-51.5" font-family="Helvetica,sans-Serif" font-size="10.00">Get_d2W_dI1I2()</text>
<text text-anchor="start" x="137.5" y="-36.5" font-family="Helvetica,sans-Serif" font-size="10.00">+</text>
<text text-anchor="start" x="150.5" y="-36.5" font-family="Helvetica,sans-Serif" font-size="10.00">GetA()</text>
<text text-anchor="start" x="137.5" y="-21.5" font-family="Helvetica,sans-Serif" font-size="10.00">+</text>
<text text-anchor="start" x="150.5" y="-21.5" font-family="Helvetica,sans-Serif" font-size="10.00">GetB()</text>
<text text-anchor="start" x="137.5" y="-6.5" font-family="Helvetica,sans-Serif" font-size="10.00">+</text>
<text text-anchor="start" x="150.5" y="-6.5" font-family="Helvetica,sans-Serif" font-size="10.00">ExponentialMaterialLaw()</text>
<polygon fill="#666666" stroke="#666666" points="133.5,-136.5 133.5,-136.5 280.5,-136.5 280.5,-136.5 133.5,-136.5"/>
<polygon fill="#666666" stroke="#666666" points="133.5,-121.5 133.5,-121.5 280.5,-121.5 280.5,-121.5 133.5,-121.5"/>
<polygon fill="none" stroke="#666666" points="133,0 133,-165 280,-165 280,0 133,0"/>
</a>
</g>
</g>
<!-- Node2 -->
<g id="Node000002" class="node">
<title>Node2</title>
<g id="a_Node000002"><a xlink:href="classAbstractIsotropicIncompressibleMaterialLaw.html" target="_top" xlink:title=" ">
<polygon fill="white" stroke="transparent" points="203,-414 0,-414 0,-223 203,-223 203,-414"/>
<text text-anchor="start" x="23.5" y="-401.5" font-family="Helvetica,sans-Serif" font-size="10.00">AbstractIsotropicIncompressible</text>
<text text-anchor="start" x="50.5" y="-390.5" font-family="Helvetica,sans-Serif" font-size="10.00">MaterialLaw&lt; DIM &gt;</text>
<text text-anchor="start" x="100" y="-375.5" font-family="Helvetica,sans-Serif" font-size="10.00"> </text>
<text text-anchor="start" x="4.5" y="-360.5" font-family="Helvetica,sans-Serif" font-size="10.00">+</text>
<text text-anchor="start" x="17.5" y="-360.5" font-family="Helvetica,sans-Serif" font-size="10.00">ComputeStressAndStressDerivative()</text>
<text text-anchor="start" x="4.5" y="-345.5" font-family="Helvetica,sans-Serif" font-size="10.00">+</text>
<text text-anchor="start" x="17.5" y="-345.5" font-family="Helvetica,sans-Serif" font-size="10.00">~AbstractIsotropicIncompressible</text>
<text text-anchor="start" x="17.5" y="-334.5" font-family="Helvetica,sans-Serif" font-size="10.00">MaterialLaw()</text>
<text text-anchor="start" x="4.5" y="-319.5" font-family="Helvetica,sans-Serif" font-size="10.00">+</text>
<text text-anchor="start" x="17.5" y="-319.5" font-family="Helvetica,sans-Serif" font-size="10.00">GetZeroStrainPressure()</text>
<text text-anchor="start" x="4.5" y="-304.5" font-family="Helvetica,sans-Serif" font-size="10.00">+</text>
<text text-anchor="start" x="17.5" y="-304.5" font-family="Helvetica,sans-Serif" font-size="10.00">GetZeroStrainPressure()</text>
<text text-anchor="start" x="4.5" y="-289.5" font-family="Helvetica,sans-Serif" font-size="10.00">#</text>
<text text-anchor="start" x="17.5" y="-289.5" font-family="Helvetica,sans-Serif" font-size="10.00">Get_dW_dI1()</text>
<text text-anchor="start" x="4.5" y="-274.5" font-family="Helvetica,sans-Serif" font-size="10.00">#</text>
<text text-anchor="start" x="17.5" y="-274.5" font-family="Helvetica,sans-Serif" font-size="10.00">Get_dW_dI2()</text>
<text text-anchor="start" x="4.5" y="-259.5" font-family="Helvetica,sans-Serif" font-size="10.00">#</text>
<text text-anchor="start" x="17.5" y="-259.5" font-family="Helvetica,sans-Serif" font-size="10.00">Get_d2W_dI1()</text>
<text text-anchor="start" x="4.5" y="-244.5" font-family="Helvetica,sans-Serif" font-size="10.00">#</text>
<text text-anchor="start" x="17.5" y="-244.5" font-family="Helvetica,sans-Serif" font-size="10.00">Get_d2W_dI2()</text>
<text text-anchor="start" x="4.5" y="-229.5" font-family="Helvetica,sans-Serif" font-size="10.00">#</text>
<text text-anchor="start" x="17.5" y="-229.5" font-family="Helvetica,sans-Serif" font-size="10.00">Get_d2W_dI1I2()</text>
<polygon fill="#666666" stroke="#666666" points="0.5,-385.5 0.5,-385.5 203.5,-385.5 203.5,-385.5 0.5,-385.5"/>
<polygon fill="#666666" stroke="#666666" points="0.5,-370.5 0.5,-370.5 203.5,-370.5 203.5,-370.5 0.5,-370.5"/>
<polygon fill="none" stroke="#666666" points="0,-223 0,-414 203,-414 203,-223 0,-223"/>
</a>
</g>
</g>
<!-- Node2&#45;&gt;Node1 -->
<g id="edge1_Node000001_Node000002" class="edge">
<title>Node2&#45;&gt;Node1</title>
<g id="a_edge1_Node000001_Node000002"><a xlink:title=" ">
<path fill="none" stroke="#63b8ff" d="M148.16,-213.51C155.43,-197.32 162.84,-180.79 169.84,-165.19"/>
<polygon fill="none" stroke="#63b8ff" points="144.81,-212.44 143.9,-223 151.19,-215.31 144.81,-212.44"/>
</a>
</g>
</g>
<!-- Node3 -->
<g id="Node000003" class="node">
<title>Node3</title>
<g id="a_Node000003"><a xlink:href="classAbstractIncompressibleMaterialLaw.html" target="_top" xlink:title=" ">
<polygon fill="white" stroke="transparent" points="194,-563 9,-563 9,-451 194,-451 194,-563"/>
<text text-anchor="start" x="24" y="-551" font-family="Helvetica,sans-Serif" font-size="10.00">AbstractIncompressibleMaterial</text>
<text text-anchor="start" x="71" y="-540" font-family="Helvetica,sans-Serif" font-size="10.00">Law&lt; DIM &gt;</text>
<text text-anchor="start" x="100" y="-525" font-family="Helvetica,sans-Serif" font-size="10.00"> </text>
<text text-anchor="start" x="13.5" y="-510" font-family="Helvetica,sans-Serif" font-size="10.00">+</text>
<text text-anchor="start" x="26.5" y="-510" font-family="Helvetica,sans-Serif" font-size="10.00">AbstractIncompressibleMaterial</text>
<text text-anchor="start" x="26.5" y="-499" font-family="Helvetica,sans-Serif" font-size="10.00">Law()</text>
<text text-anchor="start" x="13.5" y="-484" font-family="Helvetica,sans-Serif" font-size="10.00">+</text>
<text text-anchor="start" x="26.5" y="-484" font-family="Helvetica,sans-Serif" font-size="10.00">~AbstractIncompressibleMaterial</text>
<text text-anchor="start" x="26.5" y="-473" font-family="Helvetica,sans-Serif" font-size="10.00">Law()</text>
<text text-anchor="start" x="13.5" y="-458" font-family="Helvetica,sans-Serif" font-size="10.00">+</text>
<text text-anchor="start" x="26.5" y="-458" font-family="Helvetica,sans-Serif" font-size="10.00">GetZeroStrainPressure()</text>
<polygon fill="#666666" stroke="#666666" points="9.5,-535 9.5,-535 194.5,-535 194.5,-535 9.5,-535"/>
<polygon fill="#666666" stroke="#666666" points="9.5,-520 9.5,-520 194.5,-520 194.5,-520 9.5,-520"/>
<polygon fill="none" stroke="#666666" points="9,-451 9,-563 194,-563 194,-451 9,-451"/>
</a>
</g>
</g>
<!-- Node3&#45;&gt;Node2 -->
<g id="edge2_Node000002_Node000003" class="edge">
<title>Node3&#45;&gt;Node2</title>
<g id="a_edge2_Node000002_Node000003"><a xlink:title=" ">
<path fill="none" stroke="#63b8ff" d="M101.5,-440.53C101.5,-431.94 101.5,-423.02 101.5,-414.07"/>
<polygon fill="none" stroke="#63b8ff" points="98,-440.8 101.5,-450.8 105,-440.8 98,-440.8"/>
</a>
</g>
</g>
<!-- Node4 -->
<g id="Node000004" class="node">
<title>Node4</title>
<g id="a_Node000004"><a xlink:href="classAbstractMaterialLaw.html" target="_top" xlink:title=" ">
<polygon fill="white" stroke="transparent" points="203,-832 0,-832 0,-600 203,-600 203,-832"/>
<text text-anchor="start" x="51.5" y="-820" font-family="Helvetica,sans-Serif" font-size="10.00">AbstractMaterialLaw</text>
<text text-anchor="start" x="80.5" y="-809" font-family="Helvetica,sans-Serif" font-size="10.00">&lt; DIM &gt;</text>
<text text-anchor="start" x="100" y="-794" font-family="Helvetica,sans-Serif" font-size="10.00"> </text>
<text text-anchor="start" x="4.5" y="-779" font-family="Helvetica,sans-Serif" font-size="10.00">+</text>
<text text-anchor="start" x="17.5" y="-779" font-family="Helvetica,sans-Serif" font-size="10.00">AbstractMaterialLaw()</text>
<text text-anchor="start" x="4.5" y="-764" font-family="Helvetica,sans-Serif" font-size="10.00">+</text>
<text text-anchor="start" x="17.5" y="-764" font-family="Helvetica,sans-Serif" font-size="10.00">~AbstractMaterialLaw()</text>
<text text-anchor="start" x="4.5" y="-749" font-family="Helvetica,sans-Serif" font-size="10.00">+</text>
<text text-anchor="start" x="17.5" y="-749" font-family="Helvetica,sans-Serif" font-size="10.00">ComputeStressAndStressDerivative()</text>
<text text-anchor="start" x="4.5" y="-734" font-family="Helvetica,sans-Serif" font-size="10.00">+</text>
<text text-anchor="start" x="17.5" y="-734" font-family="Helvetica,sans-Serif" font-size="10.00">ComputeCauchyStress()</text>
<text text-anchor="start" x="4.5" y="-719" font-family="Helvetica,sans-Serif" font-size="10.00">+</text>
<text text-anchor="start" x="17.5" y="-719" font-family="Helvetica,sans-Serif" font-size="10.00">Compute1stPiolaKirchoffStress()</text>
<text text-anchor="start" x="4.5" y="-704" font-family="Helvetica,sans-Serif" font-size="10.00">+</text>
<text text-anchor="start" x="17.5" y="-704" font-family="Helvetica,sans-Serif" font-size="10.00">Compute2ndPiolaKirchoffStress()</text>
<text text-anchor="start" x="4.5" y="-689" font-family="Helvetica,sans-Serif" font-size="10.00">+</text>
<text text-anchor="start" x="17.5" y="-689" font-family="Helvetica,sans-Serif" font-size="10.00">ScaleMaterialParameters()</text>
<text text-anchor="start" x="4.5" y="-674" font-family="Helvetica,sans-Serif" font-size="10.00">+</text>
<text text-anchor="start" x="17.5" y="-674" font-family="Helvetica,sans-Serif" font-size="10.00">SetChangeOfBasisMatrix()</text>
<text text-anchor="start" x="4.5" y="-659" font-family="Helvetica,sans-Serif" font-size="10.00">+</text>
<text text-anchor="start" x="17.5" y="-659" font-family="Helvetica,sans-Serif" font-size="10.00">ResetToNoChangeOfBasisMatrix()</text>
<text text-anchor="start" x="4.5" y="-644" font-family="Helvetica,sans-Serif" font-size="10.00">#</text>
<text text-anchor="start" x="17.5" y="-644" font-family="Helvetica,sans-Serif" font-size="10.00">ComputeTransformedDeformation</text>
<text text-anchor="start" x="17.5" y="-633" font-family="Helvetica,sans-Serif" font-size="10.00">Tensor()</text>
<text text-anchor="start" x="4.5" y="-618" font-family="Helvetica,sans-Serif" font-size="10.00">#</text>
<text text-anchor="start" x="17.5" y="-618" font-family="Helvetica,sans-Serif" font-size="10.00">TransformStressAndStress</text>
<text text-anchor="start" x="17.5" y="-607" font-family="Helvetica,sans-Serif" font-size="10.00">Derivative()</text>
<polygon fill="#666666" stroke="#666666" points="0.5,-804 0.5,-804 203.5,-804 203.5,-804 0.5,-804"/>
<polygon fill="#666666" stroke="#666666" points="0.5,-789 0.5,-789 203.5,-789 203.5,-789 0.5,-789"/>
<polygon fill="none" stroke="#666666" points="0,-600 0,-832 203,-832 203,-600 0,-600"/>
</a>
</g>
</g>
<!-- Node4&#45;&gt;Node3 -->
<g id="edge3_Node000003_Node000004" class="edge">
<title>Node4&#45;&gt;Node3</title>
<g id="a_edge3_Node000003_Node000004"><a xlink:title=" ">
<path fill="none" stroke="#63b8ff" d="M101.5,-589.9C101.5,-580.67 101.5,-571.68 101.5,-563.25"/>
<polygon fill="none" stroke="#63b8ff" points="98,-590 101.5,-600 105,-590 98,-590"/>
</a>
</g>
</g>
<!-- Node5 -->
<g id="Node000005" class="node">
<title>Node5</title>
<g id="a_Node000005"><a xlink:title=" ">
<polygon fill="white" stroke="transparent" points="164.5,-939 38.5,-939 38.5,-879 164.5,-879 164.5,-939"/>
<text text-anchor="start" x="43.5" y="-927" font-family="Helvetica,sans-Serif" font-size="10.00">c_matrix&lt; double, DIM,</text>
<text text-anchor="start" x="84.5" y="-916" font-family="Helvetica,sans-Serif" font-size="10.00"> DIM &gt;</text>
<text text-anchor="start" x="99.5" y="-901" font-family="Helvetica,sans-Serif" font-size="10.00"> </text>
<text text-anchor="start" x="99.5" y="-886" font-family="Helvetica,sans-Serif" font-size="10.00"> </text>
<polygon fill="#bfbfbf" stroke="#bfbfbf" points="38.5,-911 38.5,-911 164.5,-911 164.5,-911 38.5,-911"/>
<polygon fill="#bfbfbf" stroke="#bfbfbf" points="38.5,-896 38.5,-896 164.5,-896 164.5,-896 38.5,-896"/>
<polygon fill="none" stroke="#bfbfbf" points="38.5,-879 38.5,-939 164.5,-939 164.5,-879 38.5,-879"/>
</a>
</g>
</g>
<!-- Node5&#45;&gt;Node4 -->
<g id="edge4_Node000004_Node000005" class="edge">
<title>Node5&#45;&gt;Node4</title>
<g id="a_edge4_Node000004_Node000005"><a xlink:title=" ">
<path fill="none" stroke="#63b8ff" d="M101.5,-878.99C101.5,-869.11 101.5,-857.33 101.5,-844.71"/>
<polygon fill="none" stroke="#63b8ff" points="101.5,-844.38 97.5,-838.38 101.5,-832.38 105.5,-838.38 101.5,-844.38"/>
</a>
</g>
<text text-anchor="middle" x="168" y="-853" font-family="Helvetica,sans-Serif" font-size="10.00" fill="grey"> #mpChangeOfBasisMatrix</text>
</g>
<!-- Node6 -->
<g id="Node000006" class="node">
<title>Node6</title>
<g id="a_Node000006"><a xlink:title=" ">
<polygon fill="white" stroke="transparent" points="128,-1035 75,-1035 75,-986 128,-986 128,-1035"/>
<text text-anchor="start" x="80.5" y="-1022.5" font-family="Helvetica,sans-Serif" font-size="10.00">c_matrix</text>
<text text-anchor="start" x="100" y="-1007.5" font-family="Helvetica,sans-Serif" font-size="10.00"> </text>
<text text-anchor="start" x="100" y="-992.5" font-family="Helvetica,sans-Serif" font-size="10.00"> </text>
<polygon fill="#bfbfbf" stroke="#bfbfbf" points="75.5,-1017.5 75.5,-1017.5 128.5,-1017.5 128.5,-1017.5 75.5,-1017.5"/>
<polygon fill="#bfbfbf" stroke="#bfbfbf" points="75.5,-1002.5 75.5,-1002.5 128.5,-1002.5 128.5,-1002.5 75.5,-1002.5"/>
<polygon fill="none" stroke="#bfbfbf" points="75,-986 75,-1035 128,-1035 128,-986 75,-986"/>
</a>
</g>
</g>
<!-- Node6&#45;&gt;Node5 -->
<g id="edge5_Node000005_Node000006" class="edge">
<title>Node6&#45;&gt;Node5</title>
<g id="a_edge5_Node000005_Node000006"><a xlink:title=" ">
<path fill="none" stroke="orange" d="M101.5,-975.87C101.5,-963.94 101.5,-950.62 101.5,-939.1"/>
<polygon fill="orange" stroke="orange" points="98,-975.92 101.5,-985.92 105,-975.92 98,-975.92"/>
</a>
</g>
<text text-anchor="middle" x="156.5" y="-960" font-family="Helvetica,sans-Serif" font-size="10.00" fill="grey"> &lt; double, DIM, DIM &gt;</text>
</g>
<!-- Node7 -->
<g id="Node000007" class="node">
<title>Node7</title>
<g id="a_Node000007"><a xlink:href="classdouble.html" target="_top" xlink:title=" ">
<polygon fill="white" stroke="transparent" points="264.5,-343 220.5,-343 220.5,-294 264.5,-294 264.5,-343"/>
<text text-anchor="start" x="225.5" y="-330.5" font-family="Helvetica,sans-Serif" font-size="10.00">double</text>
<text text-anchor="start" x="240.5" y="-315.5" font-family="Helvetica,sans-Serif" font-size="10.00"> </text>
<text text-anchor="start" x="240.5" y="-300.5" font-family="Helvetica,sans-Serif" font-size="10.00"> </text>
<polygon fill="#bfbfbf" stroke="#bfbfbf" points="220.5,-325.5 220.5,-325.5 264.5,-325.5 264.5,-325.5 220.5,-325.5"/>
<polygon fill="#bfbfbf" stroke="#bfbfbf" points="220.5,-310.5 220.5,-310.5 264.5,-310.5 264.5,-310.5 220.5,-310.5"/>
<polygon fill="none" stroke="#bfbfbf" points="220.5,-294 220.5,-343 264.5,-343 264.5,-294 220.5,-294"/>
</a>
</g>
</g>
<!-- Node7&#45;&gt;Node1 -->
<g id="edge6_Node000001_Node000007" class="edge">
<title>Node7&#45;&gt;Node1</title>
<g id="a_edge6_Node000001_Node000007"><a xlink:title=" ">
<path fill="none" stroke="#63b8ff" d="M238.85,-293.78C234.63,-266.32 227.41,-219.42 220.87,-176.87"/>
<polygon fill="none" stroke="#63b8ff" points="220.86,-176.87 216,-171.55 219.04,-165.01 223.91,-170.33 220.86,-176.87"/>
</a>
</g>
<text text-anchor="middle" x="236.5" y="-197" font-family="Helvetica,sans-Serif" font-size="10.00" fill="grey"> &#45;mA</text>
<text text-anchor="middle" x="236.5" y="-186" font-family="Helvetica,sans-Serif" font-size="10.00" fill="grey">&#45;mB</text>
</g>
</g>
</svg>
