<?xml version="1.0" encoding="UTF-8" standalone="no"?>
<!DOCTYPE svg PUBLIC "-//W3C//DTD SVG 1.1//EN"
 "http://www.w3.org/Graphics/SVG/1.1/DTD/svg11.dtd">
<!-- Generated by graphviz version 2.43.0 (0)
 -->
<!-- Title: PottsElement&lt; DIM &gt; Pages: 1 -->
<svg width="595pt" height="1052pt"
 viewBox="0.00 0.00 594.50 1052.00" xmlns="http://www.w3.org/2000/svg" xmlns:xlink="http://www.w3.org/1999/xlink">
<g id="graph0" class="graph" transform="scale(1 1) rotate(0) translate(4 1048)">
<title>PottsElement&lt; DIM &gt;</title>
<!-- Node1 -->
<g id="Node000001" class="node">
<title>Node1</title>
<g id="a_Node000001"><a xlink:title=" ">
<polygon fill="#999999" stroke="transparent" points="429,-109 311,-109 311,0 429,0 429,-109"/>
<text text-anchor="start" x="316" y="-96.5" font-family="Helvetica,sans-Serif" font-size="10.00">PottsElement&lt; DIM &gt;</text>
<text text-anchor="start" x="368" y="-81.5" font-family="Helvetica,sans-Serif" font-size="10.00"> </text>
<text text-anchor="start" x="318" y="-66.5" font-family="Helvetica,sans-Serif" font-size="10.00">+</text>
<text text-anchor="start" x="334" y="-66.5" font-family="Helvetica,sans-Serif" font-size="10.00">PottsElement()</text>
<text text-anchor="start" x="318" y="-51.5" font-family="Helvetica,sans-Serif" font-size="10.00">+</text>
<text text-anchor="start" x="334" y="-51.5" font-family="Helvetica,sans-Serif" font-size="10.00">~PottsElement()</text>
<text text-anchor="start" x="318" y="-36.5" font-family="Helvetica,sans-Serif" font-size="10.00">+</text>
<text text-anchor="start" x="334" y="-36.5" font-family="Helvetica,sans-Serif" font-size="10.00">AddNode()</text>
<text text-anchor="start" x="318" y="-21.5" font-family="Helvetica,sans-Serif" font-size="10.00">+</text>
<text text-anchor="start" x="334" y="-21.5" font-family="Helvetica,sans-Serif" font-size="10.00">GetAspectRatio()</text>
<text text-anchor="start" x="320.5" y="-6.5" font-family="Helvetica,sans-Serif" font-size="10.00">&#45;</text>
<text text-anchor="start" x="334" y="-6.5" font-family="Helvetica,sans-Serif" font-size="10.00">serialize()</text>
<polygon fill="#666666" stroke="#666666" points="311,-91.5 311,-91.5 429,-91.5 429,-91.5 311,-91.5"/>
<polygon fill="#666666" stroke="#666666" points="311,-76.5 311,-76.5 429,-76.5 429,-76.5 311,-76.5"/>
<polygon fill="none" stroke="#666666" points="311,0 311,-109 429,-109 429,0 311,0"/>
</a>
</g>
</g>
<!-- Node2 -->
<g id="Node000002" class="node">
<title>Node2</title>
<g id="a_Node000002"><a xlink:href="classMutableElement.html" target="_top" xlink:title=" ">
<polygon fill="white" stroke="transparent" points="432.5,-371 307.5,-371 307.5,-146 432.5,-146 432.5,-371"/>
<text text-anchor="start" x="313" y="-358.5" font-family="Helvetica,sans-Serif" font-size="10.00">MutableElement&lt; DIM,</text>
<text text-anchor="start" x="353.5" y="-347.5" font-family="Helvetica,sans-Serif" font-size="10.00"> DIM &gt;</text>
<text text-anchor="start" x="368.5" y="-332.5" font-family="Helvetica,sans-Serif" font-size="10.00"> </text>
<text text-anchor="start" x="312" y="-317.5" font-family="Helvetica,sans-Serif" font-size="10.00">+</text>
<text text-anchor="start" x="325" y="-317.5" font-family="Helvetica,sans-Serif" font-size="10.00">MutableElement()</text>
<text text-anchor="start" x="312" y="-302.5" font-family="Helvetica,sans-Serif" font-size="10.00">+</text>
<text text-anchor="start" x="325" y="-302.5" font-family="Helvetica,sans-Serif" font-size="10.00">MutableElement()</text>
<text text-anchor="start" x="312" y="-287.5" font-family="Helvetica,sans-Serif" font-size="10.00">+</text>
<text text-anchor="start" x="325" y="-287.5" font-family="Helvetica,sans-Serif" font-size="10.00">~MutableElement()</text>
<text text-anchor="start" x="312" y="-272.5" font-family="Helvetica,sans-Serif" font-size="10.00">+</text>
<text text-anchor="start" x="325" y="-272.5" font-family="Helvetica,sans-Serif" font-size="10.00">RegisterWithNodes()</text>
<text text-anchor="start" x="312" y="-257.5" font-family="Helvetica,sans-Serif" font-size="10.00">+</text>
<text text-anchor="start" x="325" y="-257.5" font-family="Helvetica,sans-Serif" font-size="10.00">MarkAsDeleted()</text>
<text text-anchor="start" x="312" y="-242.5" font-family="Helvetica,sans-Serif" font-size="10.00">+</text>
<text text-anchor="start" x="325" y="-242.5" font-family="Helvetica,sans-Serif" font-size="10.00">ResetIndex()</text>
<text text-anchor="start" x="312" y="-227.5" font-family="Helvetica,sans-Serif" font-size="10.00">+</text>
<text text-anchor="start" x="325" y="-227.5" font-family="Helvetica,sans-Serif" font-size="10.00">UpdateNode()</text>
<text text-anchor="start" x="312" y="-212.5" font-family="Helvetica,sans-Serif" font-size="10.00">+</text>
<text text-anchor="start" x="325" y="-212.5" font-family="Helvetica,sans-Serif" font-size="10.00">DeleteNode()</text>
<text text-anchor="start" x="312" y="-197.5" font-family="Helvetica,sans-Serif" font-size="10.00">+</text>
<text text-anchor="start" x="325" y="-197.5" font-family="Helvetica,sans-Serif" font-size="10.00">AddNode()</text>
<text text-anchor="start" x="312" y="-182.5" font-family="Helvetica,sans-Serif" font-size="10.00">+</text>
<text text-anchor="start" x="325" y="-182.5" font-family="Helvetica,sans-Serif" font-size="10.00">GetNodeLocalIndex()</text>
<text text-anchor="start" x="325" y="-167.5" font-family="Helvetica,sans-Serif" font-size="10.00">and 12 more...</text>
<text text-anchor="start" x="314.5" y="-152.5" font-family="Helvetica,sans-Serif" font-size="10.00">&#45;</text>
<text text-anchor="start" x="325" y="-152.5" font-family="Helvetica,sans-Serif" font-size="10.00">serialize()</text>
<polygon fill="#666666" stroke="#666666" points="308,-342.5 308,-342.5 433,-342.5 433,-342.5 308,-342.5"/>
<polygon fill="#666666" stroke="#666666" points="308,-327.5 308,-327.5 433,-327.5 433,-327.5 308,-327.5"/>
<polygon fill="none" stroke="#666666" points="307.5,-146 307.5,-371 432.5,-371 432.5,-146 307.5,-146"/>
</a>
</g>
</g>
<!-- Node2&#45;&gt;Node1 -->
<g id="edge1_Node000001_Node000002" class="edge">
<title>Node2&#45;&gt;Node1</title>
<g id="a_edge1_Node000001_Node000002"><a xlink:title=" ">
<path fill="none" stroke="#63b8ff" d="M370,-135.75C370,-126.5 370,-117.5 370,-109.06"/>
<polygon fill="none" stroke="#63b8ff" points="366.5,-135.87 370,-145.87 373.5,-135.87 366.5,-135.87"/>
</a>
</g>
</g>
<!-- Node3 -->
<g id="Node000003" class="node">
<title>Node3</title>
<g id="a_Node000003"><a xlink:href="classAbstractElement.html" target="_top" xlink:title=" ">
<polygon fill="white" stroke="transparent" points="284,-915 120,-915 120,-690 284,-690 284,-915"/>
<text text-anchor="start" x="132.5" y="-902.5" font-family="Helvetica,sans-Serif" font-size="10.00">AbstractElement&lt; ELEMENT</text>
<text text-anchor="start" x="153" y="-891.5" font-family="Helvetica,sans-Serif" font-size="10.00">_DIM, SPACE_DIM &gt;</text>
<text text-anchor="start" x="200" y="-876.5" font-family="Helvetica,sans-Serif" font-size="10.00"> </text>
<text text-anchor="start" x="124" y="-861.5" font-family="Helvetica,sans-Serif" font-size="10.00">+</text>
<text text-anchor="start" x="137" y="-861.5" font-family="Helvetica,sans-Serif" font-size="10.00">AbstractElement()</text>
<text text-anchor="start" x="124" y="-846.5" font-family="Helvetica,sans-Serif" font-size="10.00">+</text>
<text text-anchor="start" x="137" y="-846.5" font-family="Helvetica,sans-Serif" font-size="10.00">AbstractElement()</text>
<text text-anchor="start" x="124" y="-831.5" font-family="Helvetica,sans-Serif" font-size="10.00">+</text>
<text text-anchor="start" x="137" y="-831.5" font-family="Helvetica,sans-Serif" font-size="10.00">~AbstractElement()</text>
<text text-anchor="start" x="124" y="-816.5" font-family="Helvetica,sans-Serif" font-size="10.00">+</text>
<text text-anchor="start" x="137" y="-816.5" font-family="Helvetica,sans-Serif" font-size="10.00">UpdateNode()</text>
<text text-anchor="start" x="124" y="-801.5" font-family="Helvetica,sans-Serif" font-size="10.00">+</text>
<text text-anchor="start" x="137" y="-801.5" font-family="Helvetica,sans-Serif" font-size="10.00">ReplaceNode()</text>
<text text-anchor="start" x="124" y="-786.5" font-family="Helvetica,sans-Serif" font-size="10.00">+</text>
<text text-anchor="start" x="137" y="-786.5" font-family="Helvetica,sans-Serif" font-size="10.00">MarkAsDeleted()</text>
<text text-anchor="start" x="124" y="-771.5" font-family="Helvetica,sans-Serif" font-size="10.00">+</text>
<text text-anchor="start" x="137" y="-771.5" font-family="Helvetica,sans-Serif" font-size="10.00">RegisterWithNodes()</text>
<text text-anchor="start" x="124" y="-756.5" font-family="Helvetica,sans-Serif" font-size="10.00">+</text>
<text text-anchor="start" x="137" y="-756.5" font-family="Helvetica,sans-Serif" font-size="10.00">GetNodeLocation()</text>
<text text-anchor="start" x="124" y="-741.5" font-family="Helvetica,sans-Serif" font-size="10.00">+</text>
<text text-anchor="start" x="137" y="-741.5" font-family="Helvetica,sans-Serif" font-size="10.00">GetNodeLocation()</text>
<text text-anchor="start" x="124" y="-726.5" font-family="Helvetica,sans-Serif" font-size="10.00">+</text>
<text text-anchor="start" x="137" y="-726.5" font-family="Helvetica,sans-Serif" font-size="10.00">GetNodeGlobalIndex()</text>
<text text-anchor="start" x="137" y="-711.5" font-family="Helvetica,sans-Serif" font-size="10.00">and 14 more...</text>
<text text-anchor="start" x="124" y="-696.5" font-family="Helvetica,sans-Serif" font-size="10.00">#</text>
<text text-anchor="start" x="137" y="-696.5" font-family="Helvetica,sans-Serif" font-size="10.00">ConstructElementAttributes()</text>
<polygon fill="#666666" stroke="#666666" points="120,-886.5 120,-886.5 284,-886.5 284,-886.5 120,-886.5"/>
<polygon fill="#666666" stroke="#666666" points="120,-871.5 120,-871.5 284,-871.5 284,-871.5 120,-871.5"/>
<polygon fill="none" stroke="#666666" points="120,-690 120,-915 284,-915 284,-690 120,-690"/>
</a>
</g>
</g>
<!-- Node3&#45;&gt;Node2 -->
<g id="edge2_Node000002_Node000003" class="edge">
<title>Node3&#45;&gt;Node2</title>
<g id="a_edge2_Node000002_Node000003"><a xlink:title=" ">
<path fill="none" stroke="#63b8ff" d="M186.56,-679.61C181.72,-601.74 184.97,-500.32 220,-418 238.62,-374.25 275.03,-335.3 307.32,-306.96"/>
<polygon fill="none" stroke="#63b8ff" points="183.09,-680.21 187.26,-689.95 190.08,-679.73 183.09,-680.21"/>
</a>
</g>
</g>
<!-- Node10 -->
<g id="Node000010" class="node">
<title>Node10</title>
<g id="a_Node000010"><a xlink:href="classMutableElement.html" target="_top" xlink:title=" ">
<polygon fill="white" stroke="transparent" points="377,-643 229,-643 229,-418 377,-418 377,-643"/>
<text text-anchor="start" x="234" y="-630.5" font-family="Helvetica,sans-Serif" font-size="10.00">MutableElement&lt; ELEMENT</text>
<text text-anchor="start" x="254" y="-619.5" font-family="Helvetica,sans-Serif" font-size="10.00">_DIM, SPACE_DIM &gt;</text>
<text text-anchor="start" x="301" y="-604.5" font-family="Helvetica,sans-Serif" font-size="10.00"> </text>
<text text-anchor="start" x="239" y="-589.5" font-family="Helvetica,sans-Serif" font-size="10.00">+</text>
<text text-anchor="start" x="258" y="-589.5" font-family="Helvetica,sans-Serif" font-size="10.00">MutableElement()</text>
<text text-anchor="start" x="239" y="-574.5" font-family="Helvetica,sans-Serif" font-size="10.00">+</text>
<text text-anchor="start" x="258" y="-574.5" font-family="Helvetica,sans-Serif" font-size="10.00">MutableElement()</text>
<text text-anchor="start" x="239" y="-559.5" font-family="Helvetica,sans-Serif" font-size="10.00">+</text>
<text text-anchor="start" x="258" y="-559.5" font-family="Helvetica,sans-Serif" font-size="10.00">~MutableElement()</text>
<text text-anchor="start" x="239" y="-544.5" font-family="Helvetica,sans-Serif" font-size="10.00">+</text>
<text text-anchor="start" x="258" y="-544.5" font-family="Helvetica,sans-Serif" font-size="10.00">RegisterWithNodes()</text>
<text text-anchor="start" x="239" y="-529.5" font-family="Helvetica,sans-Serif" font-size="10.00">+</text>
<text text-anchor="start" x="258" y="-529.5" font-family="Helvetica,sans-Serif" font-size="10.00">MarkAsDeleted()</text>
<text text-anchor="start" x="239" y="-514.5" font-family="Helvetica,sans-Serif" font-size="10.00">+</text>
<text text-anchor="start" x="258" y="-514.5" font-family="Helvetica,sans-Serif" font-size="10.00">ResetIndex()</text>
<text text-anchor="start" x="239" y="-499.5" font-family="Helvetica,sans-Serif" font-size="10.00">+</text>
<text text-anchor="start" x="258" y="-499.5" font-family="Helvetica,sans-Serif" font-size="10.00">UpdateNode()</text>
<text text-anchor="start" x="239" y="-484.5" font-family="Helvetica,sans-Serif" font-size="10.00">+</text>
<text text-anchor="start" x="258" y="-484.5" font-family="Helvetica,sans-Serif" font-size="10.00">DeleteNode()</text>
<text text-anchor="start" x="239" y="-469.5" font-family="Helvetica,sans-Serif" font-size="10.00">+</text>
<text text-anchor="start" x="258" y="-469.5" font-family="Helvetica,sans-Serif" font-size="10.00">AddNode()</text>
<text text-anchor="start" x="239" y="-454.5" font-family="Helvetica,sans-Serif" font-size="10.00">+</text>
<text text-anchor="start" x="258" y="-454.5" font-family="Helvetica,sans-Serif" font-size="10.00">GetNodeLocalIndex()</text>
<text text-anchor="start" x="258" y="-439.5" font-family="Helvetica,sans-Serif" font-size="10.00">and 12 more...</text>
<text text-anchor="start" x="241.5" y="-424.5" font-family="Helvetica,sans-Serif" font-size="10.00">&#45;</text>
<text text-anchor="start" x="258" y="-424.5" font-family="Helvetica,sans-Serif" font-size="10.00">serialize()</text>
<polygon fill="#666666" stroke="#666666" points="229,-614.5 229,-614.5 377,-614.5 377,-614.5 229,-614.5"/>
<polygon fill="#666666" stroke="#666666" points="229,-599.5 229,-599.5 377,-599.5 377,-599.5 229,-599.5"/>
<polygon fill="none" stroke="#666666" points="229,-418 229,-643 377,-643 377,-418 229,-418"/>
</a>
</g>
</g>
<!-- Node3&#45;&gt;Node10 -->
<g id="edge10_Node000010_Node000003" class="edge">
<title>Node3&#45;&gt;Node10</title>
<g id="a_edge10_Node000010_Node000003"><a xlink:title=" ">
<path fill="none" stroke="#63b8ff" d="M247.33,-680.32C251.96,-667.96 256.64,-655.44 261.22,-643.18"/>
<polygon fill="none" stroke="#63b8ff" points="244.04,-679.14 243.81,-689.73 250.59,-681.59 244.04,-679.14"/>
</a>
</g>
</g>
<!-- Node4 -->
<g id="Node000004" class="node">
<title>Node4</title>
<g id="a_Node000004"><a xlink:title=" ">
<polygon fill="white" stroke="transparent" points="120,-1038.5 0,-1038.5 0,-978.5 120,-978.5 120,-1038.5"/>
<text text-anchor="start" x="5" y="-1026.5" font-family="Helvetica,sans-Serif" font-size="10.00">vector&lt; Node&lt; SPACE</text>
<text text-anchor="start" x="32" y="-1015.5" font-family="Helvetica,sans-Serif" font-size="10.00">_DIM &gt; * &gt;</text>
<text text-anchor="start" x="58" y="-1000.5" font-family="Helvetica,sans-Serif" font-size="10.00"> </text>
<text text-anchor="start" x="58" y="-985.5" font-family="Helvetica,sans-Serif" font-size="10.00"> </text>
<polygon fill="#bfbfbf" stroke="#bfbfbf" points="0,-1010.5 0,-1010.5 120,-1010.5 120,-1010.5 0,-1010.5"/>
<polygon fill="#bfbfbf" stroke="#bfbfbf" points="0,-995.5 0,-995.5 120,-995.5 120,-995.5 0,-995.5"/>
<polygon fill="none" stroke="#bfbfbf" points="0,-978.5 0,-1038.5 120,-1038.5 120,-978.5 0,-978.5"/>
</a>
</g>
</g>
<!-- Node4&#45;&gt;Node3 -->
<g id="edge3_Node000003_Node000004" class="edge">
<title>Node4&#45;&gt;Node3</title>
<g id="a_edge3_Node000003_Node000004"><a xlink:title=" ">
<path fill="none" stroke="#63b8ff" d="M78.81,-978.3C87.81,-964.48 98.83,-947.8 109,-933 110.75,-930.46 112.52,-927.89 114.32,-925.3"/>
<polygon fill="none" stroke="#63b8ff" points="114.45,-925.1 114.6,-917.89 121.31,-915.26 121.16,-922.47 114.45,-925.1"/>
</a>
</g>
<text text-anchor="middle" x="135" y="-941.5" font-family="Helvetica,sans-Serif" font-size="10.00" fill="grey"> #mNodes</text>
</g>
<!-- Node5 -->
<g id="Node000005" class="node">
<title>Node5</title>
<g id="a_Node000005"><a xlink:href="classunsigned.html" target="_top" xlink:title=" ">
<polygon fill="white" stroke="transparent" points="193.5,-1033 138.5,-1033 138.5,-984 193.5,-984 193.5,-1033"/>
<text text-anchor="start" x="144" y="-1020.5" font-family="Helvetica,sans-Serif" font-size="10.00">unsigned</text>
<text text-anchor="start" x="164.5" y="-1005.5" font-family="Helvetica,sans-Serif" font-size="10.00"> </text>
<text text-anchor="start" x="164.5" y="-990.5" font-family="Helvetica,sans-Serif" font-size="10.00"> </text>
<polygon fill="#bfbfbf" stroke="#bfbfbf" points="139,-1015.5 139,-1015.5 194,-1015.5 194,-1015.5 139,-1015.5"/>
<polygon fill="#bfbfbf" stroke="#bfbfbf" points="139,-1000.5 139,-1000.5 194,-1000.5 194,-1000.5 139,-1000.5"/>
<polygon fill="none" stroke="#bfbfbf" points="138.5,-984 138.5,-1033 193.5,-1033 193.5,-984 138.5,-984"/>
</a>
</g>
</g>
<!-- Node5&#45;&gt;Node3 -->
<g id="edge4_Node000003_Node000005" class="edge">
<title>Node5&#45;&gt;Node3</title>
<g id="a_edge4_Node000003_Node000005"><a xlink:title=" ">
<path fill="none" stroke="#63b8ff" d="M164.82,-983.9C164.45,-969.19 164.64,-949.91 167,-933 167.27,-931.07 167.56,-929.13 167.87,-927.18"/>
<polygon fill="none" stroke="#63b8ff" points="167.91,-926.92 165,-920.32 169.97,-915.1 172.88,-921.69 167.91,-926.92"/>
</a>
</g>
<text text-anchor="middle" x="191.5" y="-941.5" font-family="Helvetica,sans-Serif" font-size="10.00" fill="grey"> #mIndex</text>
</g>
<!-- Node6 -->
<g id="Node000006" class="node">
<title>Node6</title>
<g id="a_Node000006"><a xlink:href="classbool.html" target="_top" xlink:title=" ">
<polygon fill="white" stroke="transparent" points="254,-1033 222,-1033 222,-984 254,-984 254,-1033"/>
<text text-anchor="start" x="227" y="-1020.5" font-family="Helvetica,sans-Serif" font-size="10.00">bool</text>
<text text-anchor="start" x="236" y="-1005.5" font-family="Helvetica,sans-Serif" font-size="10.00"> </text>
<text text-anchor="start" x="236" y="-990.5" font-family="Helvetica,sans-Serif" font-size="10.00"> </text>
<polygon fill="#bfbfbf" stroke="#bfbfbf" points="222,-1015.5 222,-1015.5 254,-1015.5 254,-1015.5 222,-1015.5"/>
<polygon fill="#bfbfbf" stroke="#bfbfbf" points="222,-1000.5 222,-1000.5 254,-1000.5 254,-1000.5 222,-1000.5"/>
<polygon fill="none" stroke="#bfbfbf" points="222,-984 222,-1033 254,-1033 254,-984 222,-984"/>
</a>
</g>
</g>
<!-- Node6&#45;&gt;Node3 -->
<g id="edge5_Node000003_Node000006" class="edge">
<title>Node6&#45;&gt;Node3</title>
<g id="a_edge5_Node000003_Node000006"><a xlink:title=" ">
<path fill="none" stroke="#63b8ff" d="M233.8,-983.7C231.2,-968.98 227.65,-948.83 223.85,-927.32"/>
<polygon fill="none" stroke="#63b8ff" points="223.81,-927.07 218.82,-921.86 221.72,-915.25 226.7,-920.47 223.81,-927.07"/>
</a>
</g>
<text text-anchor="middle" x="263" y="-947" font-family="Helvetica,sans-Serif" font-size="10.00" fill="grey"> #mIsDeleted</text>
<text text-anchor="middle" x="263" y="-936" font-family="Helvetica,sans-Serif" font-size="10.00" fill="grey">#mOwnership</text>
</g>
<!-- Node7 -->
<g id="Node000007" class="node">
<title>Node7</title>
<g id="a_Node000007"><a xlink:title=" ">
<polygon fill="white" stroke="transparent" points="393.5,-1044 272.5,-1044 272.5,-973 393.5,-973 393.5,-1044"/>
<text text-anchor="start" x="278" y="-1031.5" font-family="Helvetica,sans-Serif" font-size="10.00">ElementAttributes&lt;</text>
<text text-anchor="start" x="278" y="-1020.5" font-family="Helvetica,sans-Serif" font-size="10.00"> ELEMENT_DIM, SPACE</text>
<text text-anchor="start" x="311" y="-1009.5" font-family="Helvetica,sans-Serif" font-size="10.00">_DIM &gt; *</text>
<text text-anchor="start" x="331.5" y="-994.5" font-family="Helvetica,sans-Serif" font-size="10.00"> </text>
<text text-anchor="start" x="331.5" y="-979.5" font-family="Helvetica,sans-Serif" font-size="10.00"> </text>
<polygon fill="#bfbfbf" stroke="#bfbfbf" points="273,-1004.5 273,-1004.5 394,-1004.5 394,-1004.5 273,-1004.5"/>
<polygon fill="#bfbfbf" stroke="#bfbfbf" points="273,-989.5 273,-989.5 394,-989.5 394,-989.5 273,-989.5"/>
<polygon fill="none" stroke="#bfbfbf" points="272.5,-973 272.5,-1044 393.5,-1044 393.5,-973 272.5,-973"/>
</a>
</g>
</g>
<!-- Node7&#45;&gt;Node3 -->
<g id="edge6_Node000003_Node000007" class="edge">
<title>Node7&#45;&gt;Node3</title>
<g id="a_edge6_Node000003_Node000007"><a xlink:title=" ">
<path fill="none" stroke="#63b8ff" d="M320.78,-972.85C315.68,-959.98 309.24,-945.48 302,-933 298.48,-926.94 294.72,-920.85 290.78,-914.78"/>
<polygon fill="none" stroke="#63b8ff" points="290.66,-914.6 284,-911.82 284.01,-904.61 290.66,-907.39 290.66,-914.6"/>
</a>
</g>
<text text-anchor="middle" x="371" y="-941.5" font-family="Helvetica,sans-Serif" font-size="10.00" fill="grey"> #mpElementAttributes</text>
</g>
<!-- Node8 -->
<g id="Node000008" class="node">
<title>Node8</title>
<g id="a_Node000008"><a xlink:title=" ">
<polygon fill="white" stroke="transparent" points="586.5,-832.5 467.5,-832.5 467.5,-772.5 586.5,-772.5 586.5,-832.5"/>
<text text-anchor="start" x="473" y="-820.5" font-family="Helvetica,sans-Serif" font-size="10.00">vector&lt; Edge&lt; SPACE</text>
<text text-anchor="start" x="499.5" y="-809.5" font-family="Helvetica,sans-Serif" font-size="10.00">_DIM &gt; * &gt;</text>
<text text-anchor="start" x="525.5" y="-794.5" font-family="Helvetica,sans-Serif" font-size="10.00"> </text>
<text text-anchor="start" x="525.5" y="-779.5" font-family="Helvetica,sans-Serif" font-size="10.00"> </text>
<polygon fill="#bfbfbf" stroke="#bfbfbf" points="468,-804.5 468,-804.5 587,-804.5 587,-804.5 468,-804.5"/>
<polygon fill="#bfbfbf" stroke="#bfbfbf" points="468,-789.5 468,-789.5 587,-789.5 587,-789.5 468,-789.5"/>
<polygon fill="none" stroke="#bfbfbf" points="467.5,-772.5 467.5,-832.5 586.5,-832.5 586.5,-772.5 467.5,-772.5"/>
</a>
</g>
</g>
<!-- Node8&#45;&gt;Node2 -->
<g id="edge7_Node000002_Node000008" class="edge">
<title>Node8&#45;&gt;Node2</title>
<g id="a_edge7_Node000002_Node000008"><a xlink:title=" ">
<path fill="none" stroke="#63b8ff" d="M529.45,-772.37C533.86,-706.59 538.64,-542.62 490,-418 478.42,-388.34 459.61,-359.47 440.27,-334.68"/>
<polygon fill="none" stroke="#63b8ff" points="440.05,-334.4 433.18,-332.21 432.56,-325.03 439.43,-327.22 440.05,-334.4"/>
</a>
</g>
<text text-anchor="middle" x="555.5" y="-528" font-family="Helvetica,sans-Serif" font-size="10.00" fill="grey"> #mEdges</text>
</g>
<!-- Node8&#45;&gt;Node10 -->
<g id="edge11_Node000010_Node000008" class="edge">
<title>Node8&#45;&gt;Node10</title>
<g id="a_edge11_Node000010_Node000008"><a xlink:title=" ">
<path fill="none" stroke="#63b8ff" d="M513.12,-772.27C500.84,-748.39 481.28,-714.66 458,-690 433.03,-663.55 417.44,-667.98 391,-643 389.25,-641.35 387.51,-639.66 385.78,-637.94"/>
<polygon fill="none" stroke="#63b8ff" points="385.55,-637.71 378.5,-636.21 377.18,-629.12 384.23,-630.62 385.55,-637.71"/>
</a>
</g>
<text text-anchor="middle" x="459.5" y="-664" font-family="Helvetica,sans-Serif" font-size="10.00" fill="grey"> #mEdges</text>
</g>
<!-- Node9 -->
<g id="Node000009" class="node">
<title>Node9</title>
<g id="a_Node000009"><a xlink:href="classEdgeHelper_3_01SPACE__DIM_01_4.html" target="_top" xlink:title=" ">
<polygon fill="white" stroke="transparent" points="448.5,-827 303.5,-827 303.5,-778 448.5,-778 448.5,-827"/>
<text text-anchor="start" x="309" y="-814.5" font-family="Helvetica,sans-Serif" font-size="10.00">EdgeHelper&lt; SPACE_DIM &gt;</text>
<text text-anchor="start" x="374.5" y="-799.5" font-family="Helvetica,sans-Serif" font-size="10.00"> </text>
<text text-anchor="start" x="374.5" y="-784.5" font-family="Helvetica,sans-Serif" font-size="10.00"> </text>
<polygon fill="#bfbfbf" stroke="#bfbfbf" points="304,-809.5 304,-809.5 449,-809.5 449,-809.5 304,-809.5"/>
<polygon fill="#bfbfbf" stroke="#bfbfbf" points="304,-794.5 304,-794.5 449,-794.5 449,-794.5 304,-794.5"/>
<polygon fill="none" stroke="#bfbfbf" points="303.5,-778 303.5,-827 448.5,-827 448.5,-778 303.5,-778"/>
</a>
</g>
</g>
<!-- Node9&#45;&gt;Node2 -->
<g id="edge8_Node000002_Node000009" class="edge">
<title>Node9&#45;&gt;Node2</title>
<g id="a_edge8_Node000002_Node000009"><a xlink:title=" ">
<path fill="none" stroke="#63b8ff" d="M381.5,-777.8C387.2,-751.96 395.71,-709.3 399,-672 410.04,-546.71 412.83,-514.02 399,-389 398.79,-387.08 398.56,-385.15 398.31,-383.22"/>
<polygon fill="none" stroke="#63b8ff" points="398.3,-383.08 393.5,-377.7 396.62,-371.2 401.42,-376.58 398.3,-383.08"/>
</a>
</g>
<text text-anchor="middle" x="447" y="-528" font-family="Helvetica,sans-Serif" font-size="10.00" fill="grey"> #mEdgeHelper</text>
</g>
<!-- Node9&#45;&gt;Node10 -->
<g id="edge12_Node000010_Node000009" class="edge">
<title>Node9&#45;&gt;Node10</title>
<g id="a_edge12_Node000010_Node000009"><a xlink:title=" ">
<path fill="none" stroke="#63b8ff" d="M363.62,-777.86C350.86,-752.42 331.41,-710.43 321,-672 319.51,-666.5 318.14,-660.85 316.89,-655.12"/>
<polygon fill="none" stroke="#63b8ff" points="316.87,-655.01 311.75,-649.94 314.47,-643.26 319.59,-648.34 316.87,-655.01"/>
</a>
</g>
<text text-anchor="middle" x="360" y="-664" font-family="Helvetica,sans-Serif" font-size="10.00" fill="grey"> #mEdgeHelper</text>
</g>
<!-- Node10&#45;&gt;Node2 -->
<g id="edge9_Node000002_Node000010" class="edge">
<title>Node10&#45;&gt;Node2</title>
<g id="a_edge9_Node000002_Node000010"><a xlink:title=" ">
<path fill="none" stroke="orange" d="M323.56,-407.88C324.98,-401.48 326.46,-395.15 328,-389 329.46,-383.15 331.05,-377.19 332.72,-371.18"/>
<polygon fill="orange" stroke="orange" points="320.07,-407.48 321.39,-418 326.91,-408.96 320.07,-407.48"/>
</a>
</g>
<text text-anchor="middle" x="363.5" y="-392" font-family="Helvetica,sans-Serif" font-size="10.00" fill="grey"> &lt; DIM, DIM &gt;</text>
</g>
</g>
</svg>
