<?xml version="1.0" encoding="UTF-8" standalone="no"?>
<!DOCTYPE svg PUBLIC "-//W3C//DTD SVG 1.1//EN"
 "http://www.w3.org/Graphics/SVG/1.1/DTD/svg11.dtd">
<!-- Generated by graphviz version 2.43.0 (0)
 -->
<!-- Title: GenericEventHandler&lt; NUM_EVENTS, CONCRETE &gt; Pages: 1 -->
<svg width="296pt" height="505pt"
 viewBox="0.00 0.00 295.50 505.00" xmlns="http://www.w3.org/2000/svg" xmlns:xlink="http://www.w3.org/1999/xlink">
<g id="graph0" class="graph" transform="scale(1 1) rotate(0) translate(4 501)">
<title>GenericEventHandler&lt; NUM_EVENTS, CONCRETE &gt;</title>
<!-- Node1 -->
<g id="Node000001" class="node">
<title>Node1</title>
<g id="a_Node000001"><a xlink:title=" ">
<polygon fill="#999999" stroke="transparent" points="249.5,-390 65.5,-390 65.5,0 249.5,0 249.5,-390"/>
<text text-anchor="start" x="82.5" y="-378" font-family="Helvetica,sans-Serif" font-size="10.00">GenericEventHandler</text>
<text text-anchor="start" x="82.5" y="-367" font-family="Helvetica,sans-Serif" font-size="10.00">&lt; NUM_EVENTS, CONCRETE &gt;</text>
<text text-anchor="start" x="155.5" y="-352" font-family="Helvetica,sans-Serif" font-size="10.00"> </text>
<text text-anchor="start" x="69.5" y="-337" font-family="Helvetica,sans-Serif" font-size="10.00">+</text>
<text text-anchor="start" x="82.5" y="-337" font-family="Helvetica,sans-Serif" font-size="10.00">Instance()</text>
<text text-anchor="start" x="69.5" y="-322" font-family="Helvetica,sans-Serif" font-size="10.00">+</text>
<text text-anchor="start" x="82.5" y="-322" font-family="Helvetica,sans-Serif" font-size="10.00">Reset()</text>
<text text-anchor="start" x="69.5" y="-307" font-family="Helvetica,sans-Serif" font-size="10.00">+</text>
<text text-anchor="start" x="82.5" y="-307" font-family="Helvetica,sans-Serif" font-size="10.00">BeginEvent()</text>
<text text-anchor="start" x="69.5" y="-292" font-family="Helvetica,sans-Serif" font-size="10.00">+</text>
<text text-anchor="start" x="82.5" y="-292" font-family="Helvetica,sans-Serif" font-size="10.00">EndEvent()</text>
<text text-anchor="start" x="69.5" y="-277" font-family="Helvetica,sans-Serif" font-size="10.00">+</text>
<text text-anchor="start" x="82.5" y="-277" font-family="Helvetica,sans-Serif" font-size="10.00">GetElapsedTime()</text>
<text text-anchor="start" x="69.5" y="-262" font-family="Helvetica,sans-Serif" font-size="10.00">+</text>
<text text-anchor="start" x="82.5" y="-262" font-family="Helvetica,sans-Serif" font-size="10.00">Report()</text>
<text text-anchor="start" x="69.5" y="-247" font-family="Helvetica,sans-Serif" font-size="10.00">+</text>
<text text-anchor="start" x="82.5" y="-247" font-family="Helvetica,sans-Serif" font-size="10.00">Headings()</text>
<text text-anchor="start" x="69.5" y="-232" font-family="Helvetica,sans-Serif" font-size="10.00">+</text>
<text text-anchor="start" x="82.5" y="-232" font-family="Helvetica,sans-Serif" font-size="10.00">Enable()</text>
<text text-anchor="start" x="69.5" y="-217" font-family="Helvetica,sans-Serif" font-size="10.00">+</text>
<text text-anchor="start" x="82.5" y="-217" font-family="Helvetica,sans-Serif" font-size="10.00">Disable()</text>
<text text-anchor="start" x="69.5" y="-202" font-family="Helvetica,sans-Serif" font-size="10.00">+</text>
<text text-anchor="start" x="82.5" y="-202" font-family="Helvetica,sans-Serif" font-size="10.00">IsEnabled()</text>
<text text-anchor="start" x="69.5" y="-187" font-family="Helvetica,sans-Serif" font-size="10.00">#</text>
<text text-anchor="start" x="82.5" y="-187" font-family="Helvetica,sans-Serif" font-size="10.00">GenericEventHandler()</text>
<text text-anchor="start" x="72" y="-172" font-family="Helvetica,sans-Serif" font-size="10.00">&#45;</text>
<text text-anchor="start" x="82.5" y="-172" font-family="Helvetica,sans-Serif" font-size="10.00">ConvertWallTimeToMilliseconds()</text>
<text text-anchor="start" x="72" y="-157" font-family="Helvetica,sans-Serif" font-size="10.00">&#45;</text>
<text text-anchor="start" x="82.5" y="-157" font-family="Helvetica,sans-Serif" font-size="10.00">ConvertWallTimeToSeconds()</text>
<text text-anchor="start" x="72" y="-142" font-family="Helvetica,sans-Serif" font-size="10.00">&#45;</text>
<text text-anchor="start" x="82.5" y="-142" font-family="Helvetica,sans-Serif" font-size="10.00">ResetImpl()</text>
<text text-anchor="start" x="72" y="-127" font-family="Helvetica,sans-Serif" font-size="10.00">&#45;</text>
<text text-anchor="start" x="82.5" y="-127" font-family="Helvetica,sans-Serif" font-size="10.00">BeginEventImpl()</text>
<text text-anchor="start" x="72" y="-112" font-family="Helvetica,sans-Serif" font-size="10.00">&#45;</text>
<text text-anchor="start" x="82.5" y="-112" font-family="Helvetica,sans-Serif" font-size="10.00">EndEventImpl()</text>
<text text-anchor="start" x="72" y="-97" font-family="Helvetica,sans-Serif" font-size="10.00">&#45;</text>
<text text-anchor="start" x="82.5" y="-97" font-family="Helvetica,sans-Serif" font-size="10.00">GetElapsedTimeImpl()</text>
<text text-anchor="start" x="72" y="-82" font-family="Helvetica,sans-Serif" font-size="10.00">&#45;</text>
<text text-anchor="start" x="82.5" y="-82" font-family="Helvetica,sans-Serif" font-size="10.00">ReportImpl()</text>
<text text-anchor="start" x="72" y="-67" font-family="Helvetica,sans-Serif" font-size="10.00">&#45;</text>
<text text-anchor="start" x="82.5" y="-67" font-family="Helvetica,sans-Serif" font-size="10.00">HeadingsImpl()</text>
<text text-anchor="start" x="72" y="-52" font-family="Helvetica,sans-Serif" font-size="10.00">&#45;</text>
<text text-anchor="start" x="82.5" y="-52" font-family="Helvetica,sans-Serif" font-size="10.00">EnableImpl()</text>
<text text-anchor="start" x="72" y="-37" font-family="Helvetica,sans-Serif" font-size="10.00">&#45;</text>
<text text-anchor="start" x="82.5" y="-37" font-family="Helvetica,sans-Serif" font-size="10.00">DisableImpl()</text>
<text text-anchor="start" x="72" y="-22" font-family="Helvetica,sans-Serif" font-size="10.00">&#45;</text>
<text text-anchor="start" x="82.5" y="-22" font-family="Helvetica,sans-Serif" font-size="10.00">IsEnabledImpl()</text>
<text text-anchor="start" x="72" y="-7" font-family="Helvetica,sans-Serif" font-size="10.00">&#45;</text>
<text text-anchor="start" x="82.5" y="-7" font-family="Helvetica,sans-Serif" font-size="10.00">MilliSleep()</text>
<polygon fill="#666666" stroke="#666666" points="65.5,-362 65.5,-362 249.5,-362 249.5,-362 65.5,-362"/>
<polygon fill="#666666" stroke="#666666" points="65.5,-347 65.5,-347 249.5,-347 249.5,-347 65.5,-347"/>
<polygon fill="none" stroke="#666666" points="65.5,0 65.5,-390 249.5,-390 249.5,0 65.5,0"/>
</a>
</g>
</g>
<!-- Node2 -->
<g id="Node000002" class="node">
<title>Node2</title>
<g id="a_Node000002"><a xlink:title=" ">
<polygon fill="white" stroke="transparent" points="97,-497 0,-497 0,-448 97,-448 97,-497"/>
<text text-anchor="start" x="5.5" y="-484.5" font-family="Helvetica,sans-Serif" font-size="10.00">vector&lt; double &gt;</text>
<text text-anchor="start" x="47" y="-469.5" font-family="Helvetica,sans-Serif" font-size="10.00"> </text>
<text text-anchor="start" x="47" y="-454.5" font-family="Helvetica,sans-Serif" font-size="10.00"> </text>
<polygon fill="#bfbfbf" stroke="#bfbfbf" points="0.5,-479.5 0.5,-479.5 97.5,-479.5 97.5,-479.5 0.5,-479.5"/>
<polygon fill="#bfbfbf" stroke="#bfbfbf" points="0.5,-464.5 0.5,-464.5 97.5,-464.5 97.5,-464.5 0.5,-464.5"/>
<polygon fill="none" stroke="#bfbfbf" points="0,-448 0,-497 97,-497 97,-448 0,-448"/>
</a>
</g>
</g>
<!-- Node2&#45;&gt;Node1 -->
<g id="edge1_Node000001_Node000002" class="edge">
<title>Node2&#45;&gt;Node1</title>
<g id="a_edge1_Node000001_Node000002"><a xlink:title=" ">
<path fill="none" stroke="#63b8ff" d="M57.98,-447.53C62.79,-435.39 69.12,-419.39 76.26,-401.32"/>
<polygon fill="none" stroke="#63b8ff" points="76.27,-401.31 74.76,-394.25 80.69,-390.15 82.2,-397.2 76.27,-401.31"/>
</a>
</g>
<text text-anchor="middle" x="103" y="-416.5" font-family="Helvetica,sans-Serif" font-size="10.00" fill="grey"> &#45;mWallTime</text>
</g>
<!-- Node3 -->
<g id="Node000003" class="node">
<title>Node3</title>
<g id="a_Node000003"><a xlink:title=" ">
<polygon fill="white" stroke="transparent" points="200,-497 115,-497 115,-448 200,-448 200,-497"/>
<text text-anchor="start" x="120.5" y="-484.5" font-family="Helvetica,sans-Serif" font-size="10.00">vector&lt; bool &gt;</text>
<text text-anchor="start" x="156" y="-469.5" font-family="Helvetica,sans-Serif" font-size="10.00"> </text>
<text text-anchor="start" x="156" y="-454.5" font-family="Helvetica,sans-Serif" font-size="10.00"> </text>
<polygon fill="#bfbfbf" stroke="#bfbfbf" points="115.5,-479.5 115.5,-479.5 200.5,-479.5 200.5,-479.5 115.5,-479.5"/>
<polygon fill="#bfbfbf" stroke="#bfbfbf" points="115.5,-464.5 115.5,-464.5 200.5,-464.5 200.5,-464.5 115.5,-464.5"/>
<polygon fill="none" stroke="#bfbfbf" points="115,-448 115,-497 200,-497 200,-448 115,-448"/>
</a>
</g>
</g>
<!-- Node3&#45;&gt;Node1 -->
<g id="edge2_Node000001_Node000003" class="edge">
<title>Node3&#45;&gt;Node1</title>
<g id="a_edge2_Node000001_Node000003"><a xlink:title=" ">
<path fill="none" stroke="#63b8ff" d="M157.5,-447.53C157.5,-435.62 157.5,-419.99 157.5,-402.34"/>
<polygon fill="none" stroke="#63b8ff" points="157.5,-402.15 153.5,-396.15 157.5,-390.15 161.5,-396.15 157.5,-402.15"/>
</a>
</g>
<text text-anchor="middle" x="191" y="-416.5" font-family="Helvetica,sans-Serif" font-size="10.00" fill="grey"> &#45;mHasBegun</text>
</g>
<!-- Node4 -->
<g id="Node000004" class="node">
<title>Node4</title>
<g id="a_Node000004"><a xlink:href="classbool.html" target="_top" xlink:title=" ">
<polygon fill="white" stroke="transparent" points="263.5,-497 231.5,-497 231.5,-448 263.5,-448 263.5,-497"/>
<text text-anchor="start" x="236.5" y="-484.5" font-family="Helvetica,sans-Serif" font-size="10.00">bool</text>
<text text-anchor="start" x="245.5" y="-469.5" font-family="Helvetica,sans-Serif" font-size="10.00"> </text>
<text text-anchor="start" x="245.5" y="-454.5" font-family="Helvetica,sans-Serif" font-size="10.00"> </text>
<polygon fill="#bfbfbf" stroke="#bfbfbf" points="231.5,-479.5 231.5,-479.5 263.5,-479.5 263.5,-479.5 231.5,-479.5"/>
<polygon fill="#bfbfbf" stroke="#bfbfbf" points="231.5,-464.5 231.5,-464.5 263.5,-464.5 263.5,-464.5 231.5,-464.5"/>
<polygon fill="none" stroke="#bfbfbf" points="231.5,-448 231.5,-497 263.5,-497 263.5,-448 231.5,-448"/>
</a>
</g>
</g>
<!-- Node4&#45;&gt;Node1 -->
<g id="edge3_Node000001_Node000004" class="edge">
<title>Node4&#45;&gt;Node1</title>
<g id="a_edge3_Node000001_Node000004"><a xlink:title=" ">
<path fill="none" stroke="#63b8ff" d="M239.67,-447.53C235.72,-435.45 230.52,-419.54 224.66,-401.58"/>
<polygon fill="none" stroke="#63b8ff" points="224.65,-401.55 218.98,-397.09 220.92,-390.15 226.59,-394.61 224.65,-401.55"/>
</a>
</g>
<text text-anchor="middle" x="259.5" y="-422" font-family="Helvetica,sans-Serif" font-size="10.00" fill="grey"> &#45;mEnabled</text>
<text text-anchor="middle" x="259.5" y="-411" font-family="Helvetica,sans-Serif" font-size="10.00" fill="grey">&#45;mInUse</text>
</g>
</g>
</svg>
