<?xml version="1.0" encoding="UTF-8" standalone="no"?>
<!DOCTYPE svg PUBLIC "-//W3C//DTD SVG 1.1//EN"
 "http://www.w3.org/Graphics/SVG/1.1/DTD/svg11.dtd">
<!-- Generated by graphviz version 2.43.0 (0)
 -->
<!-- Title: Cell Pages: 1 -->
<svg width="1366pt" height="940pt"
 viewBox="0.00 0.00 1366.00 940.00" xmlns="http://www.w3.org/2000/svg" xmlns:xlink="http://www.w3.org/1999/xlink">
<g id="graph0" class="graph" transform="scale(1 1) rotate(0) translate(4 936)">
<title>Cell</title>
<!-- Node1 -->
<g id="Node000001" class="node">
<title>Node1</title>
<g id="a_Node000001"><a xlink:title=" ">
<polygon fill="#999999" stroke="transparent" points="690,-214 542,-214 542,0 690,0 690,-214"/>
<text text-anchor="start" x="606.5" y="-202" font-family="Helvetica,sans-Serif" font-size="10.00">Cell</text>
<text text-anchor="start" x="614" y="-187" font-family="Helvetica,sans-Serif" font-size="10.00"> </text>
<text text-anchor="start" x="546" y="-172" font-family="Helvetica,sans-Serif" font-size="10.00">+</text>
<text text-anchor="start" x="559" y="-172" font-family="Helvetica,sans-Serif" font-size="10.00">Cell()</text>
<text text-anchor="start" x="546" y="-157" font-family="Helvetica,sans-Serif" font-size="10.00">+</text>
<text text-anchor="start" x="559" y="-157" font-family="Helvetica,sans-Serif" font-size="10.00">~Cell()</text>
<text text-anchor="start" x="546" y="-142" font-family="Helvetica,sans-Serif" font-size="10.00">+</text>
<text text-anchor="start" x="559" y="-142" font-family="Helvetica,sans-Serif" font-size="10.00">GetCellProliferativeType()</text>
<text text-anchor="start" x="546" y="-127" font-family="Helvetica,sans-Serif" font-size="10.00">+</text>
<text text-anchor="start" x="559" y="-127" font-family="Helvetica,sans-Serif" font-size="10.00">SetCellProliferativeType()</text>
<text text-anchor="start" x="546" y="-112" font-family="Helvetica,sans-Serif" font-size="10.00">+</text>
<text text-anchor="start" x="559" y="-112" font-family="Helvetica,sans-Serif" font-size="10.00">SetBirthTime()</text>
<text text-anchor="start" x="546" y="-97" font-family="Helvetica,sans-Serif" font-size="10.00">+</text>
<text text-anchor="start" x="559" y="-97" font-family="Helvetica,sans-Serif" font-size="10.00">SetCellCycleModel()</text>
<text text-anchor="start" x="546" y="-82" font-family="Helvetica,sans-Serif" font-size="10.00">+</text>
<text text-anchor="start" x="559" y="-82" font-family="Helvetica,sans-Serif" font-size="10.00">GetCellCycleModel()</text>
<text text-anchor="start" x="546" y="-67" font-family="Helvetica,sans-Serif" font-size="10.00">+</text>
<text text-anchor="start" x="559" y="-67" font-family="Helvetica,sans-Serif" font-size="10.00">InitialiseCellCycleModel()</text>
<text text-anchor="start" x="546" y="-52" font-family="Helvetica,sans-Serif" font-size="10.00">+</text>
<text text-anchor="start" x="559" y="-52" font-family="Helvetica,sans-Serif" font-size="10.00">SetSrnModel()</text>
<text text-anchor="start" x="546" y="-37" font-family="Helvetica,sans-Serif" font-size="10.00">+</text>
<text text-anchor="start" x="559" y="-37" font-family="Helvetica,sans-Serif" font-size="10.00">GetSrnModel()</text>
<text text-anchor="start" x="559" y="-22" font-family="Helvetica,sans-Serif" font-size="10.00">and 30 more...</text>
<text text-anchor="start" x="548.5" y="-7" font-family="Helvetica,sans-Serif" font-size="10.00">&#45;</text>
<text text-anchor="start" x="559" y="-7" font-family="Helvetica,sans-Serif" font-size="10.00">serialize()</text>
<polygon fill="#666666" stroke="#666666" points="542,-197 542,-197 690,-197 690,-197 542,-197"/>
<polygon fill="#666666" stroke="#666666" points="542,-182 542,-182 690,-182 690,-182 542,-182"/>
<polygon fill="none" stroke="#666666" points="542,0 542,-214 690,-214 690,0 542,0"/>
</a>
</g>
</g>
<!-- Node2 -->
<g id="Node000002" class="node">
<title>Node2</title>
<g id="a_Node000002"><a xlink:title=" ">
<polygon fill="white" stroke="transparent" points="106,-422.5 0,-422.5 0,-373.5 106,-373.5 106,-422.5"/>
<text text-anchor="start" x="5" y="-410" font-family="Helvetica,sans-Serif" font-size="10.00">boost::noncopyable</text>
<text text-anchor="start" x="51" y="-395" font-family="Helvetica,sans-Serif" font-size="10.00"> </text>
<text text-anchor="start" x="51" y="-380" font-family="Helvetica,sans-Serif" font-size="10.00"> </text>
<polygon fill="#bfbfbf" stroke="#bfbfbf" points="0,-405 0,-405 106,-405 106,-405 0,-405"/>
<polygon fill="#bfbfbf" stroke="#bfbfbf" points="0,-390 0,-390 106,-390 106,-390 0,-390"/>
<polygon fill="none" stroke="#bfbfbf" points="0,-373.5 0,-422.5 106,-422.5 106,-373.5 0,-373.5"/>
</a>
</g>
</g>
<!-- Node2&#45;&gt;Node1 -->
<g id="edge1_Node000001_Node000002" class="edge">
<title>Node2&#45;&gt;Node1</title>
<g id="a_edge1_Node000001_Node000002"><a xlink:title=" ">
<path fill="none" stroke="#8b1a1a" d="M60,-363.37C68.13,-332.54 84.5,-287.74 115,-261 237.93,-153.24 435.23,-121.38 541.85,-111.96"/>
<polygon fill="none" stroke="#8b1a1a" points="56.57,-362.69 57.56,-373.24 63.36,-364.37 56.57,-362.69"/>
</a>
</g>
</g>
<!-- Node3 -->
<g id="Node000003" class="node">
<title>Node3</title>
<g id="a_Node000003"><a xlink:title=" ">
<polygon fill="white" stroke="transparent" points="239.5,-428 124.5,-428 124.5,-368 239.5,-368 239.5,-428"/>
<text text-anchor="start" x="130" y="-416" font-family="Helvetica,sans-Serif" font-size="10.00">boost::enable_shared</text>
<text text-anchor="start" x="135.5" y="-405" font-family="Helvetica,sans-Serif" font-size="10.00">_from_this&lt; Cell &gt;</text>
<text text-anchor="start" x="180.5" y="-390" font-family="Helvetica,sans-Serif" font-size="10.00"> </text>
<text text-anchor="start" x="180.5" y="-375" font-family="Helvetica,sans-Serif" font-size="10.00"> </text>
<polygon fill="#bfbfbf" stroke="#bfbfbf" points="125,-400 125,-400 240,-400 240,-400 125,-400"/>
<polygon fill="#bfbfbf" stroke="#bfbfbf" points="125,-385 125,-385 240,-385 240,-385 125,-385"/>
<polygon fill="none" stroke="#bfbfbf" points="124.5,-368 124.5,-428 239.5,-428 239.5,-368 124.5,-368"/>
</a>
</g>
</g>
<!-- Node3&#45;&gt;Node1 -->
<g id="edge2_Node000001_Node000003" class="edge">
<title>Node3&#45;&gt;Node1</title>
<g id="a_edge2_Node000001_Node000003"><a xlink:title=" ">
<path fill="none" stroke="#63b8ff" d="M192.87,-358.09C203.03,-328.09 220.9,-287.39 249,-261 332.15,-182.91 460.88,-141.88 541.69,-122.61"/>
<polygon fill="none" stroke="#63b8ff" points="189.47,-357.23 189.72,-367.82 196.13,-359.39 189.47,-357.23"/>
</a>
</g>
</g>
<!-- Node4 -->
<g id="Node000004" class="node">
<title>Node4</title>
<g id="a_Node000004"><a xlink:href="classbool.html" target="_top" xlink:title=" ">
<polygon fill="white" stroke="transparent" points="843,-926.5 811,-926.5 811,-877.5 843,-877.5 843,-926.5"/>
<text text-anchor="start" x="816" y="-914" font-family="Helvetica,sans-Serif" font-size="10.00">bool</text>
<text text-anchor="start" x="825" y="-899" font-family="Helvetica,sans-Serif" font-size="10.00"> </text>
<text text-anchor="start" x="825" y="-884" font-family="Helvetica,sans-Serif" font-size="10.00"> </text>
<polygon fill="#bfbfbf" stroke="#bfbfbf" points="811,-909 811,-909 843,-909 843,-909 811,-909"/>
<polygon fill="#bfbfbf" stroke="#bfbfbf" points="811,-894 811,-894 843,-894 843,-894 811,-894"/>
<polygon fill="none" stroke="#bfbfbf" points="811,-877.5 811,-926.5 843,-926.5 843,-877.5 811,-877.5"/>
</a>
</g>
</g>
<!-- Node4&#45;&gt;Node1 -->
<g id="edge3_Node000001_Node000004" class="edge">
<title>Node4&#45;&gt;Node1</title>
<g id="a_edge3_Node000001_Node000004"><a xlink:title=" ">
<path fill="none" stroke="#63b8ff" d="M843.08,-881.82C854.18,-867.26 867.98,-846.19 874,-825 898.28,-739.59 895.36,-313.75 865,-261 829.59,-199.47 758.5,-159.49 701.31,-135.89"/>
<polygon fill="none" stroke="#63b8ff" points="701.22,-135.85 694.16,-137.33 690.08,-131.39 697.13,-129.91 701.22,-135.85"/>
</a>
</g>
<text text-anchor="middle" x="951.5" y="-600" font-family="Helvetica,sans-Serif" font-size="10.00" fill="grey"> #mCanDivide</text>
<text text-anchor="middle" x="951.5" y="-589" font-family="Helvetica,sans-Serif" font-size="10.00" fill="grey">#mHasSrnModel</text>
<text text-anchor="middle" x="951.5" y="-578" font-family="Helvetica,sans-Serif" font-size="10.00" fill="grey">#mIsDead</text>
<text text-anchor="middle" x="951.5" y="-567" font-family="Helvetica,sans-Serif" font-size="10.00" fill="grey">#mIsLogged</text>
<text text-anchor="middle" x="951.5" y="-556" font-family="Helvetica,sans-Serif" font-size="10.00" fill="grey">#mUndergoingApoptosis</text>
</g>
<!-- Node7 -->
<g id="Node000007" class="node">
<title>Node7</title>
<g id="a_Node000007"><a xlink:href="classCellPropertyRegistry.html" target="_top" xlink:title=" ">
<polygon fill="white" stroke="transparent" points="1093.5,-825 934.5,-825 934.5,-626 1093.5,-626 1093.5,-825"/>
<text text-anchor="start" x="964" y="-812.5" font-family="Helvetica,sans-Serif" font-size="10.00">CellPropertyRegistry</text>
<text text-anchor="start" x="1012.5" y="-797.5" font-family="Helvetica,sans-Serif" font-size="10.00"> </text>
<text text-anchor="start" x="939" y="-782.5" font-family="Helvetica,sans-Serif" font-size="10.00">+</text>
<text text-anchor="start" x="952" y="-782.5" font-family="Helvetica,sans-Serif" font-size="10.00">Get()</text>
<text text-anchor="start" x="939" y="-767.5" font-family="Helvetica,sans-Serif" font-size="10.00">+</text>
<text text-anchor="start" x="952" y="-767.5" font-family="Helvetica,sans-Serif" font-size="10.00">rGetAllCellProperties()</text>
<text text-anchor="start" x="939" y="-752.5" font-family="Helvetica,sans-Serif" font-size="10.00">+</text>
<text text-anchor="start" x="952" y="-752.5" font-family="Helvetica,sans-Serif" font-size="10.00">Clear()</text>
<text text-anchor="start" x="939" y="-737.5" font-family="Helvetica,sans-Serif" font-size="10.00">+</text>
<text text-anchor="start" x="952" y="-737.5" font-family="Helvetica,sans-Serif" font-size="10.00">TakeOwnership()</text>
<text text-anchor="start" x="939" y="-722.5" font-family="Helvetica,sans-Serif" font-size="10.00">+</text>
<text text-anchor="start" x="952" y="-722.5" font-family="Helvetica,sans-Serif" font-size="10.00">SpecifyOrdering()</text>
<text text-anchor="start" x="939" y="-707.5" font-family="Helvetica,sans-Serif" font-size="10.00">+</text>
<text text-anchor="start" x="952" y="-707.5" font-family="Helvetica,sans-Serif" font-size="10.00">HasOrderingBeenSpecified()</text>
<text text-anchor="start" x="939" y="-692.5" font-family="Helvetica,sans-Serif" font-size="10.00">+</text>
<text text-anchor="start" x="952" y="-692.5" font-family="Helvetica,sans-Serif" font-size="10.00">Instance()</text>
<text text-anchor="start" x="941.5" y="-677.5" font-family="Helvetica,sans-Serif" font-size="10.00">&#45;</text>
<text text-anchor="start" x="952" y="-677.5" font-family="Helvetica,sans-Serif" font-size="10.00">CellPropertyRegistry()</text>
<text text-anchor="start" x="941.5" y="-662.5" font-family="Helvetica,sans-Serif" font-size="10.00">&#45;</text>
<text text-anchor="start" x="952" y="-662.5" font-family="Helvetica,sans-Serif" font-size="10.00">CellPropertyRegistry()</text>
<text text-anchor="start" x="941.5" y="-647.5" font-family="Helvetica,sans-Serif" font-size="10.00">&#45;</text>
<text text-anchor="start" x="952" y="-647.5" font-family="Helvetica,sans-Serif" font-size="10.00">operator=()</text>
<text text-anchor="start" x="941.5" y="-632.5" font-family="Helvetica,sans-Serif" font-size="10.00">&#45;</text>
<text text-anchor="start" x="952" y="-632.5" font-family="Helvetica,sans-Serif" font-size="10.00">serialize()</text>
<polygon fill="#666666" stroke="#666666" points="935,-807.5 935,-807.5 1094,-807.5 1094,-807.5 935,-807.5"/>
<polygon fill="#666666" stroke="#666666" points="935,-792.5 935,-792.5 1094,-792.5 1094,-792.5 935,-792.5"/>
<polygon fill="none" stroke="#666666" points="934.5,-626 934.5,-825 1093.5,-825 1093.5,-626 934.5,-626"/>
</a>
</g>
</g>
<!-- Node4&#45;&gt;Node7 -->
<g id="edge9_Node000007_Node000004" class="edge">
<title>Node4&#45;&gt;Node7</title>
<g id="a_edge9_Node000007_Node000004"><a xlink:title=" ">
<path fill="none" stroke="#63b8ff" d="M843.28,-892.02C858.44,-883.28 881.3,-869.14 899,-854 908,-846.3 916.99,-837.91 925.73,-829.24"/>
<polygon fill="none" stroke="#63b8ff" points="925.95,-829.02 927.33,-821.95 934.39,-820.5 933.02,-827.57 925.95,-829.02"/>
</a>
</g>
<text text-anchor="middle" x="982.5" y="-846" font-family="Helvetica,sans-Serif" font-size="10.00" fill="grey"> &#45;mOrderingHasBeenSpecified</text>
</g>
<!-- Node9 -->
<g id="Node000009" class="node">
<title>Node9</title>
<g id="a_Node000009"><a xlink:href="classAbstractCellCycleModel.html" target="_top" xlink:title=" ">
<polygon fill="white" stroke="transparent" points="695,-520 541,-520 541,-276 695,-276 695,-520"/>
<text text-anchor="start" x="559.5" y="-508" font-family="Helvetica,sans-Serif" font-size="10.00">AbstractCellCycleModel</text>
<text text-anchor="start" x="616" y="-493" font-family="Helvetica,sans-Serif" font-size="10.00"> </text>
<text text-anchor="start" x="545" y="-478" font-family="Helvetica,sans-Serif" font-size="10.00">+</text>
<text text-anchor="start" x="558" y="-478" font-family="Helvetica,sans-Serif" font-size="10.00">AbstractCellCycleModel()</text>
<text text-anchor="start" x="545" y="-463" font-family="Helvetica,sans-Serif" font-size="10.00">+</text>
<text text-anchor="start" x="558" y="-463" font-family="Helvetica,sans-Serif" font-size="10.00">~AbstractCellCycleModel()</text>
<text text-anchor="start" x="545" y="-448" font-family="Helvetica,sans-Serif" font-size="10.00">+</text>
<text text-anchor="start" x="558" y="-448" font-family="Helvetica,sans-Serif" font-size="10.00">SetCell()</text>
<text text-anchor="start" x="545" y="-433" font-family="Helvetica,sans-Serif" font-size="10.00">+</text>
<text text-anchor="start" x="558" y="-433" font-family="Helvetica,sans-Serif" font-size="10.00">Initialise()</text>
<text text-anchor="start" x="545" y="-418" font-family="Helvetica,sans-Serif" font-size="10.00">+</text>
<text text-anchor="start" x="558" y="-418" font-family="Helvetica,sans-Serif" font-size="10.00">InitialiseDaughterCell()</text>
<text text-anchor="start" x="545" y="-403" font-family="Helvetica,sans-Serif" font-size="10.00">+</text>
<text text-anchor="start" x="558" y="-403" font-family="Helvetica,sans-Serif" font-size="10.00">GetCell()</text>
<text text-anchor="start" x="545" y="-388" font-family="Helvetica,sans-Serif" font-size="10.00">+</text>
<text text-anchor="start" x="558" y="-388" font-family="Helvetica,sans-Serif" font-size="10.00">SetBirthTime()</text>
<text text-anchor="start" x="545" y="-373" font-family="Helvetica,sans-Serif" font-size="10.00">+</text>
<text text-anchor="start" x="558" y="-373" font-family="Helvetica,sans-Serif" font-size="10.00">SetDimension()</text>
<text text-anchor="start" x="545" y="-358" font-family="Helvetica,sans-Serif" font-size="10.00">+</text>
<text text-anchor="start" x="558" y="-358" font-family="Helvetica,sans-Serif" font-size="10.00">GetDimension()</text>
<text text-anchor="start" x="545" y="-343" font-family="Helvetica,sans-Serif" font-size="10.00">+</text>
<text text-anchor="start" x="558" y="-343" font-family="Helvetica,sans-Serif" font-size="10.00">GetBirthTime()</text>
<text text-anchor="start" x="558" y="-328" font-family="Helvetica,sans-Serif" font-size="10.00">and 9 more...</text>
<text text-anchor="start" x="545" y="-313" font-family="Helvetica,sans-Serif" font-size="10.00">#</text>
<text text-anchor="start" x="558" y="-313" font-family="Helvetica,sans-Serif" font-size="10.00">AbstractCellCycleModel()</text>
<text text-anchor="start" x="547.5" y="-298" font-family="Helvetica,sans-Serif" font-size="10.00">&#45;</text>
<text text-anchor="start" x="558" y="-298" font-family="Helvetica,sans-Serif" font-size="10.00">serialize()</text>
<text text-anchor="start" x="547.5" y="-283" font-family="Helvetica,sans-Serif" font-size="10.00">&#45;</text>
<text text-anchor="start" x="558" y="-283" font-family="Helvetica,sans-Serif" font-size="10.00">operator=()</text>
<polygon fill="#666666" stroke="#666666" points="541,-503 541,-503 695,-503 695,-503 541,-503"/>
<polygon fill="#666666" stroke="#666666" points="541,-488 541,-488 695,-488 695,-488 541,-488"/>
<polygon fill="none" stroke="#666666" points="541,-276 541,-520 695,-520 695,-276 541,-276"/>
</a>
</g>
</g>
<!-- Node4&#45;&gt;Node9 -->
<g id="edge14_Node000009_Node000004" class="edge">
<title>Node4&#45;&gt;Node9</title>
<g id="a_edge14_Node000009_Node000004"><a xlink:title=" ">
<path fill="none" stroke="#63b8ff" d="M810.82,-879.49C800.54,-864.84 787.76,-844.62 780,-825 734.63,-710.31 773.41,-666.44 725,-553 718.52,-537.82 710.41,-522.61 701.57,-507.99"/>
<polygon fill="none" stroke="#63b8ff" points="701.36,-507.64 694.79,-504.65 695.02,-497.44 701.59,-500.43 701.36,-507.64"/>
</a>
</g>
<text text-anchor="middle" x="827" y="-723" font-family="Helvetica,sans-Serif" font-size="10.00" fill="grey"> #mReadyToDivide</text>
</g>
<!-- Node14 -->
<g id="Node000014" class="node">
<title>Node14</title>
<g id="a_Node000014"><a xlink:href="classAbstractSrnModel.html" target="_top" xlink:title=" ">
<polygon fill="white" stroke="transparent" points="402,-520 258,-520 258,-276 402,-276 402,-520"/>
<text text-anchor="start" x="286.5" y="-508" font-family="Helvetica,sans-Serif" font-size="10.00">AbstractSrnModel</text>
<text text-anchor="start" x="328" y="-493" font-family="Helvetica,sans-Serif" font-size="10.00"> </text>
<text text-anchor="start" x="262" y="-478" font-family="Helvetica,sans-Serif" font-size="10.00">+</text>
<text text-anchor="start" x="275" y="-478" font-family="Helvetica,sans-Serif" font-size="10.00">AbstractSrnModel()</text>
<text text-anchor="start" x="262" y="-463" font-family="Helvetica,sans-Serif" font-size="10.00">+</text>
<text text-anchor="start" x="275" y="-463" font-family="Helvetica,sans-Serif" font-size="10.00">~AbstractSrnModel()</text>
<text text-anchor="start" x="262" y="-448" font-family="Helvetica,sans-Serif" font-size="10.00">+</text>
<text text-anchor="start" x="275" y="-448" font-family="Helvetica,sans-Serif" font-size="10.00">SetCell()</text>
<text text-anchor="start" x="262" y="-433" font-family="Helvetica,sans-Serif" font-size="10.00">+</text>
<text text-anchor="start" x="275" y="-433" font-family="Helvetica,sans-Serif" font-size="10.00">Initialise()</text>
<text text-anchor="start" x="262" y="-418" font-family="Helvetica,sans-Serif" font-size="10.00">+</text>
<text text-anchor="start" x="275" y="-418" font-family="Helvetica,sans-Serif" font-size="10.00">InitialiseDaughterCell()</text>
<text text-anchor="start" x="262" y="-403" font-family="Helvetica,sans-Serif" font-size="10.00">+</text>
<text text-anchor="start" x="275" y="-403" font-family="Helvetica,sans-Serif" font-size="10.00">GetCell()</text>
<text text-anchor="start" x="262" y="-388" font-family="Helvetica,sans-Serif" font-size="10.00">+</text>
<text text-anchor="start" x="275" y="-388" font-family="Helvetica,sans-Serif" font-size="10.00">SetSimulatedToTime()</text>
<text text-anchor="start" x="262" y="-373" font-family="Helvetica,sans-Serif" font-size="10.00">+</text>
<text text-anchor="start" x="275" y="-373" font-family="Helvetica,sans-Serif" font-size="10.00">GetSimulatedToTime()</text>
<text text-anchor="start" x="262" y="-358" font-family="Helvetica,sans-Serif" font-size="10.00">+</text>
<text text-anchor="start" x="275" y="-358" font-family="Helvetica,sans-Serif" font-size="10.00">SimulateToCurrentTime()</text>
<text text-anchor="start" x="262" y="-343" font-family="Helvetica,sans-Serif" font-size="10.00">+</text>
<text text-anchor="start" x="275" y="-343" font-family="Helvetica,sans-Serif" font-size="10.00">ResetForDivision()</text>
<text text-anchor="start" x="275" y="-328" font-family="Helvetica,sans-Serif" font-size="10.00">and 13 more...</text>
<text text-anchor="start" x="262" y="-313" font-family="Helvetica,sans-Serif" font-size="10.00">#</text>
<text text-anchor="start" x="275" y="-313" font-family="Helvetica,sans-Serif" font-size="10.00">AbstractSrnModel()</text>
<text text-anchor="start" x="264.5" y="-298" font-family="Helvetica,sans-Serif" font-size="10.00">&#45;</text>
<text text-anchor="start" x="275" y="-298" font-family="Helvetica,sans-Serif" font-size="10.00">serialize()</text>
<text text-anchor="start" x="264.5" y="-283" font-family="Helvetica,sans-Serif" font-size="10.00">&#45;</text>
<text text-anchor="start" x="275" y="-283" font-family="Helvetica,sans-Serif" font-size="10.00">operator=()</text>
<polygon fill="#666666" stroke="#666666" points="258,-503 258,-503 402,-503 402,-503 258,-503"/>
<polygon fill="#666666" stroke="#666666" points="258,-488 258,-488 402,-488 402,-488 258,-488"/>
<polygon fill="none" stroke="#666666" points="258,-276 258,-520 402,-520 402,-276 258,-276"/>
</a>
</g>
</g>
<!-- Node4&#45;&gt;Node14 -->
<g id="edge21_Node000014_Node000004" class="edge">
<title>Node4&#45;&gt;Node14</title>
<g id="a_edge21_Node000014_Node000004"><a xlink:title=" ">
<path fill="none" stroke="#63b8ff" d="M810.89,-900.55C709.15,-897.58 158.61,-879.03 110,-825 29.12,-735.1 33.26,-640.24 117,-553 157.7,-510.6 198.92,-567.32 248,-535 251.18,-532.91 254.25,-530.64 257.22,-528.24"/>
<polygon fill="none" stroke="#63b8ff" points="257.41,-528.07 259.23,-521.09 266.37,-520.08 264.55,-527.06 257.41,-528.07"/>
</a>
</g>
<text text-anchor="middle" x="167" y="-723" font-family="Helvetica,sans-Serif" font-size="10.00" fill="grey"> #mIsEdgeBasedModel</text>
</g>
<!-- Node5 -->
<g id="Node000005" class="node">
<title>Node5</title>
<g id="a_Node000005"><a xlink:href="classCellPropertyCollection.html" target="_top" xlink:title=" ">
<polygon fill="white" stroke="transparent" points="1107.5,-535 960.5,-535 960.5,-261 1107.5,-261 1107.5,-535"/>
<text text-anchor="start" x="980" y="-523" font-family="Helvetica,sans-Serif" font-size="10.00">CellPropertyCollection</text>
<text text-anchor="start" x="1032.5" y="-508" font-family="Helvetica,sans-Serif" font-size="10.00"> </text>
<text text-anchor="start" x="965" y="-493" font-family="Helvetica,sans-Serif" font-size="10.00">+</text>
<text text-anchor="start" x="978" y="-493" font-family="Helvetica,sans-Serif" font-size="10.00">CellPropertyCollection()</text>
<text text-anchor="start" x="965" y="-478" font-family="Helvetica,sans-Serif" font-size="10.00">+</text>
<text text-anchor="start" x="978" y="-478" font-family="Helvetica,sans-Serif" font-size="10.00">AddProperty()</text>
<text text-anchor="start" x="965" y="-463" font-family="Helvetica,sans-Serif" font-size="10.00">+</text>
<text text-anchor="start" x="978" y="-463" font-family="Helvetica,sans-Serif" font-size="10.00">GetCellPropertyRegistry()</text>
<text text-anchor="start" x="965" y="-448" font-family="Helvetica,sans-Serif" font-size="10.00">+</text>
<text text-anchor="start" x="978" y="-448" font-family="Helvetica,sans-Serif" font-size="10.00">SetCellPropertyRegistry()</text>
<text text-anchor="start" x="965" y="-433" font-family="Helvetica,sans-Serif" font-size="10.00">+</text>
<text text-anchor="start" x="978" y="-433" font-family="Helvetica,sans-Serif" font-size="10.00">HasProperty()</text>
<text text-anchor="start" x="965" y="-418" font-family="Helvetica,sans-Serif" font-size="10.00">+</text>
<text text-anchor="start" x="978" y="-418" font-family="Helvetica,sans-Serif" font-size="10.00">HasProperty()</text>
<text text-anchor="start" x="965" y="-403" font-family="Helvetica,sans-Serif" font-size="10.00">+</text>
<text text-anchor="start" x="978" y="-403" font-family="Helvetica,sans-Serif" font-size="10.00">HasPropertyType()</text>
<text text-anchor="start" x="965" y="-388" font-family="Helvetica,sans-Serif" font-size="10.00">+</text>
<text text-anchor="start" x="978" y="-388" font-family="Helvetica,sans-Serif" font-size="10.00">RemoveProperty()</text>
<text text-anchor="start" x="965" y="-373" font-family="Helvetica,sans-Serif" font-size="10.00">+</text>
<text text-anchor="start" x="978" y="-373" font-family="Helvetica,sans-Serif" font-size="10.00">RemoveProperty()</text>
<text text-anchor="start" x="965" y="-358" font-family="Helvetica,sans-Serif" font-size="10.00">+</text>
<text text-anchor="start" x="978" y="-358" font-family="Helvetica,sans-Serif" font-size="10.00">GetSize()</text>
<text text-anchor="start" x="965" y="-343" font-family="Helvetica,sans-Serif" font-size="10.00">+</text>
<text text-anchor="start" x="978" y="-343" font-family="Helvetica,sans-Serif" font-size="10.00">Begin()</text>
<text text-anchor="start" x="965" y="-328" font-family="Helvetica,sans-Serif" font-size="10.00">+</text>
<text text-anchor="start" x="978" y="-328" font-family="Helvetica,sans-Serif" font-size="10.00">End()</text>
<text text-anchor="start" x="965" y="-313" font-family="Helvetica,sans-Serif" font-size="10.00">+</text>
<text text-anchor="start" x="978" y="-313" font-family="Helvetica,sans-Serif" font-size="10.00">GetProperty()</text>
<text text-anchor="start" x="965" y="-298" font-family="Helvetica,sans-Serif" font-size="10.00">+</text>
<text text-anchor="start" x="978" y="-298" font-family="Helvetica,sans-Serif" font-size="10.00">GetProperties()</text>
<text text-anchor="start" x="965" y="-283" font-family="Helvetica,sans-Serif" font-size="10.00">+</text>
<text text-anchor="start" x="978" y="-283" font-family="Helvetica,sans-Serif" font-size="10.00">GetPropertiesType()</text>
<text text-anchor="start" x="967.5" y="-268" font-family="Helvetica,sans-Serif" font-size="10.00">&#45;</text>
<text text-anchor="start" x="978" y="-268" font-family="Helvetica,sans-Serif" font-size="10.00">serialize()</text>
<polygon fill="#666666" stroke="#666666" points="961,-518 961,-518 1108,-518 1108,-518 961,-518"/>
<polygon fill="#666666" stroke="#666666" points="961,-503 961,-503 1108,-503 1108,-503 961,-503"/>
<polygon fill="none" stroke="#666666" points="960.5,-261 960.5,-535 1107.5,-535 1107.5,-261 960.5,-261"/>
</a>
</g>
</g>
<!-- Node5&#45;&gt;Node1 -->
<g id="edge4_Node000001_Node000005" class="edge">
<title>Node5&#45;&gt;Node1</title>
<g id="a_edge4_Node000001_Node000005"><a xlink:title=" ">
<path fill="none" stroke="#63b8ff" d="M960.34,-289.1C942.88,-268.39 923.13,-248.15 902,-232 841.84,-186.02 762,-153.26 701.97,-133"/>
<polygon fill="none" stroke="#63b8ff" points="701.63,-132.89 694.68,-134.8 690.24,-129.12 697.19,-127.21 701.63,-132.89"/>
</a>
</g>
<text text-anchor="middle" x="980" y="-235" font-family="Helvetica,sans-Serif" font-size="10.00" fill="grey"> #mCellPropertyCollection</text>
</g>
<!-- Node6 -->
<g id="Node000006" class="node">
<title>Node6</title>
<g id="a_Node000006"><a xlink:title=" ">
<polygon fill="white" stroke="transparent" points="1358,-755.5 1194,-755.5 1194,-695.5 1358,-695.5 1358,-755.5"/>
<text text-anchor="start" x="1199" y="-743.5" font-family="Helvetica,sans-Serif" font-size="10.00">set&lt; boost::shared</text>
<text text-anchor="start" x="1199" y="-732.5" font-family="Helvetica,sans-Serif" font-size="10.00">_ptr&lt; AbstractCellProperty &gt; &gt;</text>
<text text-anchor="start" x="1274" y="-717.5" font-family="Helvetica,sans-Serif" font-size="10.00"> </text>
<text text-anchor="start" x="1274" y="-702.5" font-family="Helvetica,sans-Serif" font-size="10.00"> </text>
<polygon fill="#bfbfbf" stroke="#bfbfbf" points="1194,-727.5 1194,-727.5 1358,-727.5 1358,-727.5 1194,-727.5"/>
<polygon fill="#bfbfbf" stroke="#bfbfbf" points="1194,-712.5 1194,-712.5 1358,-712.5 1358,-712.5 1194,-712.5"/>
<polygon fill="none" stroke="#bfbfbf" points="1194,-695.5 1194,-755.5 1358,-755.5 1358,-695.5 1194,-695.5"/>
</a>
</g>
</g>
<!-- Node6&#45;&gt;Node5 -->
<g id="edge5_Node000005_Node000006" class="edge">
<title>Node6&#45;&gt;Node5</title>
<g id="a_edge5_Node000005_Node000006"><a xlink:title=" ">
<path fill="none" stroke="#63b8ff" d="M1255.4,-695.49C1230.99,-661.25 1188.97,-602.66 1152,-553 1140.15,-537.08 1127.5,-520.32 1115.05,-503.97"/>
<polygon fill="none" stroke="#63b8ff" points="1115.02,-503.93 1108.2,-501.59 1107.75,-494.39 1114.57,-496.74 1115.02,-503.93"/>
</a>
</g>
<text text-anchor="middle" x="1222.5" y="-578" font-family="Helvetica,sans-Serif" font-size="10.00" fill="grey"> &#45;mProperties</text>
</g>
<!-- Node7&#45;&gt;Node5 -->
<g id="edge6_Node000005_Node000007" class="edge">
<title>Node7&#45;&gt;Node5</title>
<g id="a_edge6_Node000005_Node000007"><a xlink:title=" ">
<path fill="none" stroke="#63b8ff" d="M1020.05,-625.96C1021.58,-601.13 1023.25,-573.93 1024.89,-547.25"/>
<polygon fill="none" stroke="#63b8ff" points="1024.9,-547.02 1021.28,-540.79 1025.64,-535.04 1029.27,-541.28 1024.9,-547.02"/>
</a>
</g>
<text text-anchor="middle" x="1086" y="-578" font-family="Helvetica,sans-Serif" font-size="10.00" fill="grey"> &#45;mpCellPropertyRegistry</text>
</g>
<!-- Node7&#45;&gt;Node7 -->
<g id="edge7_Node000007_Node000007" class="edge">
<title>Node7&#45;&gt;Node7</title>
<g id="a_edge7_Node000007_Node000007"><a xlink:title=" ">
<path fill="none" stroke="#63b8ff" d="M1093.57,-745.79C1104.33,-742.39 1111.5,-735.63 1111.5,-725.5 1111.5,-719.33 1108.84,-714.41 1104.32,-710.73"/>
<polygon fill="none" stroke="#63b8ff" points="1104.24,-710.69 1097.08,-711.51 1093.57,-705.21 1100.74,-704.39 1104.24,-710.69"/>
</a>
</g>
<text text-anchor="middle" x="1143.5" y="-723" font-family="Helvetica,sans-Serif" font-size="10.00" fill="grey"> &#45;mpInstance</text>
</g>
<!-- Node8 -->
<g id="Node000008" class="node">
<title>Node8</title>
<g id="a_Node000008"><a xlink:title=" ">
<polygon fill="white" stroke="transparent" points="1173,-932 1009,-932 1009,-872 1173,-872 1173,-932"/>
<text text-anchor="start" x="1014" y="-920" font-family="Helvetica,sans-Serif" font-size="10.00">vector&lt; boost::shared</text>
<text text-anchor="start" x="1014" y="-909" font-family="Helvetica,sans-Serif" font-size="10.00">_ptr&lt; AbstractCellProperty &gt; &gt;</text>
<text text-anchor="start" x="1089" y="-894" font-family="Helvetica,sans-Serif" font-size="10.00"> </text>
<text text-anchor="start" x="1089" y="-879" font-family="Helvetica,sans-Serif" font-size="10.00"> </text>
<polygon fill="#bfbfbf" stroke="#bfbfbf" points="1009,-904 1009,-904 1173,-904 1173,-904 1009,-904"/>
<polygon fill="#bfbfbf" stroke="#bfbfbf" points="1009,-889 1009,-889 1173,-889 1173,-889 1009,-889"/>
<polygon fill="none" stroke="#bfbfbf" points="1009,-872 1009,-932 1173,-932 1173,-872 1009,-872"/>
</a>
</g>
</g>
<!-- Node8&#45;&gt;Node7 -->
<g id="edge8_Node000007_Node000008" class="edge">
<title>Node8&#45;&gt;Node7</title>
<g id="a_edge8_Node000007_Node000008"><a xlink:title=" ">
<path fill="none" stroke="#63b8ff" d="M1080.48,-871.91C1076.98,-862.61 1072.96,-852.32 1069,-843 1068.07,-840.8 1067.11,-838.58 1066.15,-836.35"/>
<polygon fill="none" stroke="#63b8ff" points="1066.03,-836.08 1059.95,-832.19 1061.2,-825.09 1067.28,-828.98 1066.03,-836.08"/>
</a>
</g>
<text text-anchor="middle" x="1115.5" y="-846" font-family="Helvetica,sans-Serif" font-size="10.00" fill="grey"> &#45;mCellProperties</text>
</g>
<!-- Node9&#45;&gt;Node1 -->
<g id="edge10_Node000001_Node000009" class="edge">
<title>Node9&#45;&gt;Node1</title>
<g id="a_edge10_Node000001_Node000009"><a xlink:title=" ">
<path fill="none" stroke="#63b8ff" d="M617.16,-275.69C617.05,-259.45 616.93,-242.8 616.82,-226.6"/>
<polygon fill="none" stroke="#63b8ff" points="616.82,-226.31 612.78,-220.34 616.74,-214.31 620.78,-220.28 616.82,-226.31"/>
</a>
</g>
<text text-anchor="middle" x="667.5" y="-235" font-family="Helvetica,sans-Serif" font-size="10.00" fill="grey"> #mpCellCycleModel</text>
</g>
<!-- Node10 -->
<g id="Node000010" class="node">
<title>Node10</title>
<g id="a_Node000010"><a xlink:href="classIdentifiable.html" target="_top" xlink:title=" ">
<polygon fill="white" stroke="transparent" points="623,-765 447,-765 447,-686 623,-686 623,-765"/>
<text text-anchor="start" x="507.5" y="-752.5" font-family="Helvetica,sans-Serif" font-size="10.00">Identifiable</text>
<text text-anchor="start" x="533" y="-737.5" font-family="Helvetica,sans-Serif" font-size="10.00"> </text>
<text text-anchor="start" x="451" y="-722.5" font-family="Helvetica,sans-Serif" font-size="10.00">+</text>
<text text-anchor="start" x="464" y="-722.5" font-family="Helvetica,sans-Serif" font-size="10.00">~Identifiable()</text>
<text text-anchor="start" x="451" y="-707.5" font-family="Helvetica,sans-Serif" font-size="10.00">+</text>
<text text-anchor="start" x="464" y="-707.5" font-family="Helvetica,sans-Serif" font-size="10.00">GetIdentifier()</text>
<text text-anchor="start" x="453.5" y="-692.5" font-family="Helvetica,sans-Serif" font-size="10.00">&#45;</text>
<text text-anchor="start" x="464" y="-692.5" font-family="Helvetica,sans-Serif" font-size="10.00">TidyTemplatedExportIdentifier()</text>
<polygon fill="#666666" stroke="#666666" points="447,-747.5 447,-747.5 623,-747.5 623,-747.5 447,-747.5"/>
<polygon fill="#666666" stroke="#666666" points="447,-732.5 447,-732.5 623,-732.5 623,-732.5 447,-732.5"/>
<polygon fill="none" stroke="#666666" points="447,-686 447,-765 623,-765 623,-686 447,-686"/>
</a>
</g>
</g>
<!-- Node10&#45;&gt;Node9 -->
<g id="edge11_Node000009_Node000010" class="edge">
<title>Node10&#45;&gt;Node9</title>
<g id="a_edge11_Node000009_Node000010"><a xlink:title=" ">
<path fill="none" stroke="#63b8ff" d="M578.81,-677.97C594.71,-658.01 610.78,-633.44 619,-608 627.95,-580.29 631.19,-549.42 631.42,-520.08"/>
<polygon fill="none" stroke="#63b8ff" points="575.9,-676 572.27,-685.95 581.31,-680.44 575.9,-676"/>
</a>
</g>
</g>
<!-- Node10&#45;&gt;Node14 -->
<g id="edge17_Node000014_Node000010" class="edge">
<title>Node10&#45;&gt;Node14</title>
<g id="a_edge17_Node000014_Node000010"><a xlink:title=" ">
<path fill="none" stroke="#63b8ff" d="M497.87,-678.4C479.97,-659.24 456.97,-638.57 432,-626 389.71,-604.71 357.52,-644.2 327,-608 306.59,-583.79 300.44,-551.81 301.2,-520.16"/>
<polygon fill="none" stroke="#63b8ff" points="495.4,-680.89 504.72,-685.93 500.57,-676.18 495.4,-680.89"/>
</a>
</g>
</g>
<!-- Node11 -->
<g id="Node000011" class="node">
<title>Node11</title>
<g id="a_Node000011"><a xlink:title=" ">
<polygon fill="white" stroke="transparent" points="337,-750 233,-750 233,-701 337,-701 337,-750"/>
<text text-anchor="start" x="238" y="-737.5" font-family="Helvetica,sans-Serif" font-size="10.00">shared_ptr&lt; Cell &gt;</text>
<text text-anchor="start" x="283" y="-722.5" font-family="Helvetica,sans-Serif" font-size="10.00"> </text>
<text text-anchor="start" x="283" y="-707.5" font-family="Helvetica,sans-Serif" font-size="10.00"> </text>
<polygon fill="#bfbfbf" stroke="#bfbfbf" points="233,-732.5 233,-732.5 337,-732.5 337,-732.5 233,-732.5"/>
<polygon fill="#bfbfbf" stroke="#bfbfbf" points="233,-717.5 233,-717.5 337,-717.5 337,-717.5 233,-717.5"/>
<polygon fill="none" stroke="#bfbfbf" points="233,-701 233,-750 337,-750 337,-701 233,-701"/>
</a>
</g>
</g>
<!-- Node11&#45;&gt;Node9 -->
<g id="edge12_Node000009_Node000011" class="edge">
<title>Node11&#45;&gt;Node9</title>
<g id="a_edge12_Node000009_Node000011"><a xlink:title=" ">
<path fill="none" stroke="#63b8ff" d="M296.17,-700.98C308.32,-678.06 329.97,-644.12 359,-626 395.09,-603.48 420.84,-635.85 453,-608 472.55,-591.07 458.58,-575.11 472,-553 488.53,-525.77 510.55,-499.37 532.46,-476.35"/>
<polygon fill="none" stroke="#63b8ff" points="532.49,-476.31 533.79,-469.22 540.84,-467.69 539.54,-474.78 532.49,-476.31"/>
</a>
</g>
<text text-anchor="middle" x="495" y="-578" font-family="Helvetica,sans-Serif" font-size="10.00" fill="grey"> #mpCell</text>
</g>
<!-- Node11&#45;&gt;Node14 -->
<g id="edge18_Node000014_Node000011" class="edge">
<title>Node11&#45;&gt;Node14</title>
<g id="a_edge18_Node000014_Node000011"><a xlink:title=" ">
<path fill="none" stroke="#63b8ff" d="M274.71,-700.69C263.59,-677.9 243.67,-644.34 216,-626 184.18,-604.9 156,-637.69 132,-608 116.63,-588.99 116.1,-571.56 132,-553 165.95,-513.38 204.68,-564.07 248,-535 251.1,-532.92 254.11,-530.67 257.02,-528.29"/>
<polygon fill="none" stroke="#63b8ff" points="257.06,-528.26 258.85,-521.27 265.98,-520.24 264.19,-527.22 257.06,-528.26"/>
</a>
</g>
<text text-anchor="middle" x="155" y="-578" font-family="Helvetica,sans-Serif" font-size="10.00" fill="grey"> #mpCell</text>
</g>
<!-- Node12 -->
<g id="Node000012" class="node">
<title>Node12</title>
<g id="a_Node000012"><a xlink:href="classdouble.html" target="_top" xlink:title=" ">
<polygon fill="white" stroke="transparent" points="688,-750 644,-750 644,-701 688,-701 688,-750"/>
<text text-anchor="start" x="649" y="-737.5" font-family="Helvetica,sans-Serif" font-size="10.00">double</text>
<text text-anchor="start" x="664" y="-722.5" font-family="Helvetica,sans-Serif" font-size="10.00"> </text>
<text text-anchor="start" x="664" y="-707.5" font-family="Helvetica,sans-Serif" font-size="10.00"> </text>
<polygon fill="#bfbfbf" stroke="#bfbfbf" points="644,-732.5 644,-732.5 688,-732.5 688,-732.5 644,-732.5"/>
<polygon fill="#bfbfbf" stroke="#bfbfbf" points="644,-717.5 644,-717.5 688,-717.5 688,-717.5 644,-717.5"/>
<polygon fill="none" stroke="#bfbfbf" points="644,-701 644,-750 688,-750 688,-701 644,-701"/>
</a>
</g>
</g>
<!-- Node12&#45;&gt;Node1 -->
<g id="edge22_Node000001_Node000012" class="edge">
<title>Node12&#45;&gt;Node1</title>
<g id="a_edge22_Node000001_Node000012"><a xlink:title=" ">
<path fill="none" stroke="#63b8ff" d="M682.21,-700.81C696.67,-678.14 716.79,-642.4 725,-608 730.16,-586.4 748.34,-308.05 720,-232 714.53,-217.31 706.5,-203.14 697.29,-189.95"/>
<polygon fill="none" stroke="#63b8ff" points="697.14,-189.75 690.37,-187.27 690.05,-180.07 696.82,-182.54 697.14,-189.75"/>
</a>
</g>
<text text-anchor="middle" x="798" y="-406.5" font-family="Helvetica,sans-Serif" font-size="10.00" fill="grey"> #mApoptosisTime</text>
<text text-anchor="middle" x="798" y="-395.5" font-family="Helvetica,sans-Serif" font-size="10.00" fill="grey">#mDeathTime</text>
<text text-anchor="middle" x="798" y="-384.5" font-family="Helvetica,sans-Serif" font-size="10.00" fill="grey">#mStartOfApoptosisTime</text>
</g>
<!-- Node12&#45;&gt;Node9 -->
<g id="edge13_Node000009_Node000012" class="edge">
<title>Node12&#45;&gt;Node9</title>
<g id="a_edge13_Node000009_Node000012"><a xlink:title=" ">
<path fill="none" stroke="#63b8ff" d="M663.27,-700.88C659.38,-667.77 651.83,-605.7 644,-553 643,-546.3 641.96,-539.43 640.87,-532.51"/>
<polygon fill="none" stroke="#63b8ff" points="640.83,-532.25 635.94,-526.95 638.96,-520.4 643.85,-525.7 640.83,-532.25"/>
</a>
</g>
<text text-anchor="middle" x="686" y="-578" font-family="Helvetica,sans-Serif" font-size="10.00" fill="grey"> #mBirthTime</text>
</g>
<!-- Node12&#45;&gt;Node14 -->
<g id="edge19_Node000014_Node000012" class="edge">
<title>Node12&#45;&gt;Node14</title>
<g id="a_edge19_Node000014_Node000012"><a xlink:title=" ">
<path fill="none" stroke="#63b8ff" d="M664.96,-700.73C662.56,-677.62 655.04,-643.52 632,-626 580.79,-587.04 388.5,-653.5 343,-608 331.22,-596.21 326.2,-566.06 324.63,-532.21"/>
<polygon fill="none" stroke="#63b8ff" points="324.62,-532.1 320.42,-526.24 324.21,-520.1 328.41,-525.96 324.62,-532.1"/>
</a>
</g>
<text text-anchor="middle" x="396" y="-578" font-family="Helvetica,sans-Serif" font-size="10.00" fill="grey"> #mSimulatedToTime</text>
</g>
<!-- Node13 -->
<g id="Node000013" class="node">
<title>Node13</title>
<g id="a_Node000013"><a xlink:href="classunsigned.html" target="_top" xlink:title=" ">
<polygon fill="white" stroke="transparent" points="422.5,-750 367.5,-750 367.5,-701 422.5,-701 422.5,-750"/>
<text text-anchor="start" x="373" y="-737.5" font-family="Helvetica,sans-Serif" font-size="10.00">unsigned</text>
<text text-anchor="start" x="393.5" y="-722.5" font-family="Helvetica,sans-Serif" font-size="10.00"> </text>
<text text-anchor="start" x="393.5" y="-707.5" font-family="Helvetica,sans-Serif" font-size="10.00"> </text>
<polygon fill="#bfbfbf" stroke="#bfbfbf" points="368,-732.5 368,-732.5 423,-732.5 423,-732.5 368,-732.5"/>
<polygon fill="#bfbfbf" stroke="#bfbfbf" points="368,-717.5 368,-717.5 423,-717.5 423,-717.5 368,-717.5"/>
<polygon fill="none" stroke="#bfbfbf" points="367.5,-701 367.5,-750 422.5,-750 422.5,-701 367.5,-701"/>
</a>
</g>
</g>
<!-- Node13&#45;&gt;Node9 -->
<g id="edge15_Node000009_Node000013" class="edge">
<title>Node13&#45;&gt;Node9</title>
<g id="a_edge15_Node000009_Node000013"><a xlink:title=" ">
<path fill="none" stroke="#63b8ff" d="M398.95,-700.88C404,-678.22 415.03,-644.77 438,-626 467.56,-601.84 493.41,-633.31 522,-608 541.36,-590.86 530.97,-576.84 541,-553 544,-545.86 547.18,-538.6 550.48,-531.29"/>
<polygon fill="none" stroke="#63b8ff" points="550.56,-531.11 549.42,-523.99 555.56,-520.2 556.7,-527.32 550.56,-531.11"/>
</a>
</g>
<text text-anchor="middle" x="578" y="-578" font-family="Helvetica,sans-Serif" font-size="10.00" fill="grey"> #mDimension</text>
</g>
<!-- Node13&#45;&gt;Node14 -->
<g id="edge20_Node000014_Node000013" class="edge">
<title>Node13&#45;&gt;Node14</title>
<g id="a_edge20_Node000014_Node000013"><a xlink:title=" ">
<path fill="none" stroke="#63b8ff" d="M390.02,-700.79C383.84,-677.73 370.94,-643.67 346,-626 319.5,-607.23 222.5,-632.33 201,-608 184.81,-589.68 187.15,-573.14 201,-553 213.68,-534.57 230.85,-549.36 248,-535 250.36,-533.03 252.67,-530.96 254.93,-528.83"/>
<polygon fill="none" stroke="#63b8ff" points="254.97,-528.79 256.33,-521.71 263.39,-520.24 262.03,-527.33 254.97,-528.79"/>
</a>
</g>
<text text-anchor="middle" x="250" y="-578" font-family="Helvetica,sans-Serif" font-size="10.00" fill="grey"> #mEdgeLocalIndex</text>
</g>
<!-- Node14&#45;&gt;Node1 -->
<g id="edge16_Node000001_Node000014" class="edge">
<title>Node14&#45;&gt;Node1</title>
<g id="a_edge16_Node000001_Node000014"><a xlink:title=" ">
<path fill="none" stroke="#63b8ff" d="M402.17,-324.07C442.11,-283.71 491.92,-233.38 533.41,-191.46"/>
<polygon fill="none" stroke="#63b8ff" points="533.42,-191.45 534.8,-184.37 541.86,-182.92 540.48,-190 533.42,-191.45"/>
</a>
</g>
<text text-anchor="middle" x="526.5" y="-235" font-family="Helvetica,sans-Serif" font-size="10.00" fill="grey"> #mpSrnModel</text>
</g>
</g>
</svg>
