<?xml version="1.0" encoding="UTF-8" standalone="no"?>
<!DOCTYPE svg PUBLIC "-//W3C//DTD SVG 1.1//EN"
 "http://www.w3.org/Graphics/SVG/1.1/DTD/svg11.dtd">
<!-- Generated by graphviz version 2.43.0 (0)
 -->
<!-- Title: ChasteNodesList&lt; SPACE_DIM &gt; Pages: 1 -->
<svg width="383pt" height="310pt"
 viewBox="0.00 0.00 382.50 310.00" xmlns="http://www.w3.org/2000/svg" xmlns:xlink="http://www.w3.org/1999/xlink">
<g id="graph0" class="graph" transform="scale(1 1) rotate(0) translate(4 306)">
<title>ChasteNodesList&lt; SPACE_DIM &gt;</title>
<!-- Node1 -->
<g id="Node000001" class="node">
<title>Node1</title>
<g id="a_Node000001"><a xlink:title=" ">
<polygon fill="#999999" stroke="transparent" points="290.5,-135 156.5,-135 156.5,0 290.5,0 290.5,-135"/>
<text text-anchor="start" x="161.5" y="-122.5" font-family="Helvetica,sans-Serif" font-size="10.00">ChasteNodesList&lt; SPACE</text>
<text text-anchor="start" x="205" y="-111.5" font-family="Helvetica,sans-Serif" font-size="10.00">_DIM &gt;</text>
<text text-anchor="start" x="221.5" y="-96.5" font-family="Helvetica,sans-Serif" font-size="10.00"> </text>
<text text-anchor="start" x="164" y="-81.5" font-family="Helvetica,sans-Serif" font-size="10.00">+</text>
<text text-anchor="start" x="180.5" y="-81.5" font-family="Helvetica,sans-Serif" font-size="10.00">ChasteNodesList()</text>
<text text-anchor="start" x="164" y="-66.5" font-family="Helvetica,sans-Serif" font-size="10.00">+</text>
<text text-anchor="start" x="180.5" y="-66.5" font-family="Helvetica,sans-Serif" font-size="10.00">~ChasteNodesList()</text>
<text text-anchor="start" x="164" y="-51.5" font-family="Helvetica,sans-Serif" font-size="10.00">+</text>
<text text-anchor="start" x="180.5" y="-51.5" font-family="Helvetica,sans-Serif" font-size="10.00">rGetNodesList()</text>
<text text-anchor="start" x="164" y="-36.5" font-family="Helvetica,sans-Serif" font-size="10.00">+</text>
<text text-anchor="start" x="180.5" y="-36.5" font-family="Helvetica,sans-Serif" font-size="10.00">DoesContain()</text>
<text text-anchor="start" x="164" y="-21.5" font-family="Helvetica,sans-Serif" font-size="10.00">+</text>
<text text-anchor="start" x="180.5" y="-21.5" font-family="Helvetica,sans-Serif" font-size="10.00">GetSize()</text>
<text text-anchor="start" x="166.5" y="-6.5" font-family="Helvetica,sans-Serif" font-size="10.00">&#45;</text>
<text text-anchor="start" x="180.5" y="-6.5" font-family="Helvetica,sans-Serif" font-size="10.00">serialize()</text>
<polygon fill="#666666" stroke="#666666" points="156.5,-106.5 156.5,-106.5 290.5,-106.5 290.5,-106.5 156.5,-106.5"/>
<polygon fill="#666666" stroke="#666666" points="156.5,-91.5 156.5,-91.5 290.5,-91.5 290.5,-91.5 156.5,-91.5"/>
<polygon fill="none" stroke="#666666" points="156.5,0 156.5,-135 290.5,-135 290.5,0 156.5,0"/>
</a>
</g>
</g>
<!-- Node2 -->
<g id="Node000002" class="node">
<title>Node2</title>
<g id="a_Node000002"><a xlink:href="classAbstractChasteRegion.html" target="_top" xlink:title=" ">
<polygon fill="white" stroke="transparent" points="145,-302 0,-302 0,-182 145,-182 145,-302"/>
<text text-anchor="start" x="18.5" y="-290" font-family="Helvetica,sans-Serif" font-size="10.00">AbstractChasteRegion</text>
<text text-anchor="start" x="33.5" y="-279" font-family="Helvetica,sans-Serif" font-size="10.00">&lt; SPACE_DIM &gt;</text>
<text text-anchor="start" x="71" y="-264" font-family="Helvetica,sans-Serif" font-size="10.00"> </text>
<text text-anchor="start" x="4.5" y="-249" font-family="Helvetica,sans-Serif" font-size="10.00">+</text>
<text text-anchor="start" x="17.5" y="-249" font-family="Helvetica,sans-Serif" font-size="10.00">AbstractChasteRegion()</text>
<text text-anchor="start" x="4.5" y="-234" font-family="Helvetica,sans-Serif" font-size="10.00">+</text>
<text text-anchor="start" x="17.5" y="-234" font-family="Helvetica,sans-Serif" font-size="10.00">Destroy()</text>
<text text-anchor="start" x="4.5" y="-219" font-family="Helvetica,sans-Serif" font-size="10.00">+</text>
<text text-anchor="start" x="17.5" y="-219" font-family="Helvetica,sans-Serif" font-size="10.00">~AbstractChasteRegion()</text>
<text text-anchor="start" x="4.5" y="-204" font-family="Helvetica,sans-Serif" font-size="10.00">+</text>
<text text-anchor="start" x="17.5" y="-204" font-family="Helvetica,sans-Serif" font-size="10.00">DoesContain()</text>
<text text-anchor="start" x="7" y="-189" font-family="Helvetica,sans-Serif" font-size="10.00">&#45;</text>
<text text-anchor="start" x="17.5" y="-189" font-family="Helvetica,sans-Serif" font-size="10.00">serialize()</text>
<polygon fill="#666666" stroke="#666666" points="0.5,-274 0.5,-274 145.5,-274 145.5,-274 0.5,-274"/>
<polygon fill="#666666" stroke="#666666" points="0.5,-259 0.5,-259 145.5,-259 145.5,-259 0.5,-259"/>
<polygon fill="none" stroke="#666666" points="0,-182 0,-302 145,-302 145,-182 0,-182"/>
</a>
</g>
</g>
<!-- Node2&#45;&gt;Node1 -->
<g id="edge1_Node000001_Node000002" class="edge">
<title>Node2&#45;&gt;Node1</title>
<g id="a_edge1_Node000001_Node000002"><a xlink:title=" ">
<path fill="none" stroke="#63b8ff" d="M131.32,-173.8C142.46,-161.08 154.11,-147.78 165.22,-135.07"/>
<polygon fill="none" stroke="#63b8ff" points="128.42,-171.81 124.47,-181.64 133.69,-176.42 128.42,-171.81"/>
</a>
</g>
</g>
<!-- Node3 -->
<g id="Node000003" class="node">
<title>Node3</title>
<g id="a_Node000003"><a xlink:title=" ">
<polygon fill="white" stroke="transparent" points="283.5,-272 163.5,-272 163.5,-212 283.5,-212 283.5,-272"/>
<text text-anchor="start" x="168.5" y="-260" font-family="Helvetica,sans-Serif" font-size="10.00">vector&lt; Node&lt; SPACE</text>
<text text-anchor="start" x="195.5" y="-249" font-family="Helvetica,sans-Serif" font-size="10.00">_DIM &gt; * &gt;</text>
<text text-anchor="start" x="221.5" y="-234" font-family="Helvetica,sans-Serif" font-size="10.00"> </text>
<text text-anchor="start" x="221.5" y="-219" font-family="Helvetica,sans-Serif" font-size="10.00"> </text>
<polygon fill="#bfbfbf" stroke="#bfbfbf" points="163.5,-244 163.5,-244 283.5,-244 283.5,-244 163.5,-244"/>
<polygon fill="#bfbfbf" stroke="#bfbfbf" points="163.5,-229 163.5,-229 283.5,-229 283.5,-229 163.5,-229"/>
<polygon fill="none" stroke="#bfbfbf" points="163.5,-212 163.5,-272 283.5,-272 283.5,-212 163.5,-212"/>
</a>
</g>
</g>
<!-- Node3&#45;&gt;Node1 -->
<g id="edge2_Node000001_Node000003" class="edge">
<title>Node3&#45;&gt;Node1</title>
<g id="a_edge2_Node000001_Node000003"><a xlink:title=" ">
<path fill="none" stroke="#63b8ff" d="M223.5,-211.74C223.5,-193.98 223.5,-170.38 223.5,-147.47"/>
<polygon fill="none" stroke="#63b8ff" points="223.5,-147.22 219.5,-141.22 223.5,-135.22 227.5,-141.22 223.5,-147.22"/>
</a>
</g>
<text text-anchor="middle" x="261.5" y="-156" font-family="Helvetica,sans-Serif" font-size="10.00" fill="grey"> &#45;mListOfNodes</text>
</g>
<!-- Node4 -->
<g id="Node000004" class="node">
<title>Node4</title>
<g id="a_Node000004"><a xlink:href="classbool.html" target="_top" xlink:title=" ">
<polygon fill="white" stroke="transparent" points="338.5,-266.5 306.5,-266.5 306.5,-217.5 338.5,-217.5 338.5,-266.5"/>
<text text-anchor="start" x="311.5" y="-254" font-family="Helvetica,sans-Serif" font-size="10.00">bool</text>
<text text-anchor="start" x="320.5" y="-239" font-family="Helvetica,sans-Serif" font-size="10.00"> </text>
<text text-anchor="start" x="320.5" y="-224" font-family="Helvetica,sans-Serif" font-size="10.00"> </text>
<polygon fill="#bfbfbf" stroke="#bfbfbf" points="306.5,-249 306.5,-249 338.5,-249 338.5,-249 306.5,-249"/>
<polygon fill="#bfbfbf" stroke="#bfbfbf" points="306.5,-234 306.5,-234 338.5,-234 338.5,-234 306.5,-234"/>
<polygon fill="none" stroke="#bfbfbf" points="306.5,-217.5 306.5,-266.5 338.5,-266.5 338.5,-217.5 306.5,-217.5"/>
</a>
</g>
</g>
<!-- Node4&#45;&gt;Node1 -->
<g id="edge3_Node000001_Node000004" class="edge">
<title>Node4&#45;&gt;Node1</title>
<g id="a_edge3_Node000001_Node000004"><a xlink:title=" ">
<path fill="none" stroke="#63b8ff" d="M319.82,-217.44C316.99,-199.04 311.36,-173.27 300.5,-153 299.06,-150.32 297.53,-147.66 295.9,-145.03"/>
<polygon fill="none" stroke="#63b8ff" points="295.88,-145 289.23,-142.22 289.24,-135 295.89,-137.79 295.88,-145"/>
</a>
</g>
<text text-anchor="middle" x="339.5" y="-156" font-family="Helvetica,sans-Serif" font-size="10.00" fill="grey"> &#45;mOwnNodes</text>
</g>
</g>
</svg>
