<?xml version="1.0" encoding="UTF-8" standalone="no"?>
<!DOCTYPE svg PUBLIC "-//W3C//DTD SVG 1.1//EN"
 "http://www.w3.org/Graphics/SVG/1.1/DTD/svg11.dtd">
<!-- Generated by graphviz version 2.43.0 (0)
 -->
<!-- Title: NhsModelWithBackwardSolver Pages: 1 -->
<svg width="641pt" height="2135pt"
 viewBox="0.00 0.00 641.00 2135.00" xmlns="http://www.w3.org/2000/svg" xmlns:xlink="http://www.w3.org/1999/xlink">
<g id="graph0" class="graph" transform="scale(1 1) rotate(0) translate(4 2131)">
<title>NhsModelWithBackwardSolver</title>
<!-- Node1 -->
<g id="Node000001" class="node">
<title>Node1</title>
<g id="a_Node000001"><a xlink:title=" ">
<polygon fill="#999999" stroke="transparent" points="611,-139 421,-139 421,0 611,0 611,-139"/>
<text text-anchor="start" x="440.5" y="-126.5" font-family="Helvetica,sans-Serif" font-size="10.00">NhsModelWithBackwardSolver</text>
<text text-anchor="start" x="514" y="-111.5" font-family="Helvetica,sans-Serif" font-size="10.00"> </text>
<text text-anchor="start" x="425" y="-96.5" font-family="Helvetica,sans-Serif" font-size="10.00">+</text>
<text text-anchor="start" x="438" y="-96.5" font-family="Helvetica,sans-Serif" font-size="10.00">NhsModelWithBackwardSolver()</text>
<text text-anchor="start" x="425" y="-81.5" font-family="Helvetica,sans-Serif" font-size="10.00">+</text>
<text text-anchor="start" x="438" y="-81.5" font-family="Helvetica,sans-Serif" font-size="10.00">RunDoNotUpdate()</text>
<text text-anchor="start" x="425" y="-66.5" font-family="Helvetica,sans-Serif" font-size="10.00">+</text>
<text text-anchor="start" x="438" y="-66.5" font-family="Helvetica,sans-Serif" font-size="10.00">GetNextActiveTension()</text>
<text text-anchor="start" x="425" y="-51.5" font-family="Helvetica,sans-Serif" font-size="10.00">+</text>
<text text-anchor="start" x="438" y="-51.5" font-family="Helvetica,sans-Serif" font-size="10.00">RunAndUpdate()</text>
<text text-anchor="start" x="427.5" y="-36.5" font-family="Helvetica,sans-Serif" font-size="10.00">&#45;</text>
<text text-anchor="start" x="438" y="-36.5" font-family="Helvetica,sans-Serif" font-size="10.00">ImplicitSolveForQ()</text>
<text text-anchor="start" x="427.5" y="-21.5" font-family="Helvetica,sans-Serif" font-size="10.00">&#45;</text>
<text text-anchor="start" x="438" y="-21.5" font-family="Helvetica,sans-Serif" font-size="10.00">CalculateCaTropAndZDerivatives()</text>
<text text-anchor="start" x="427.5" y="-6.5" font-family="Helvetica,sans-Serif" font-size="10.00">&#45;</text>
<text text-anchor="start" x="438" y="-6.5" font-family="Helvetica,sans-Serif" font-size="10.00">CalculateBackwardEulerResidual()</text>
<polygon fill="#666666" stroke="#666666" points="421,-121.5 421,-121.5 611,-121.5 611,-121.5 421,-121.5"/>
<polygon fill="#666666" stroke="#666666" points="421,-106.5 421,-106.5 611,-106.5 611,-106.5 421,-106.5"/>
<polygon fill="none" stroke="#666666" points="421,0 421,-139 611,-139 611,0 421,0"/>
</a>
</g>
</g>
<!-- Node2 -->
<g id="Node000002" class="node">
<title>Node2</title>
<g id="a_Node000002"><a xlink:href="classNhsContractionModel.html" target="_top" xlink:title=" ">
<polygon fill="white" stroke="transparent" points="554.5,-615 343.5,-615 343.5,-176 554.5,-176 554.5,-615"/>
<text text-anchor="start" x="396.5" y="-602.5" font-family="Helvetica,sans-Serif" font-size="10.00">NhsContractionModel</text>
<text text-anchor="start" x="348" y="-587.5" font-family="Helvetica,sans-Serif" font-size="10.00">#</text>
<text text-anchor="start" x="361" y="-587.5" font-family="Helvetica,sans-Serif" font-size="10.00">mLambda</text>
<text text-anchor="start" x="348" y="-572.5" font-family="Helvetica,sans-Serif" font-size="10.00">#</text>
<text text-anchor="start" x="361" y="-572.5" font-family="Helvetica,sans-Serif" font-size="10.00">mDLambdaDt</text>
<text text-anchor="start" x="348" y="-557.5" font-family="Helvetica,sans-Serif" font-size="10.00">#</text>
<text text-anchor="start" x="361" y="-557.5" font-family="Helvetica,sans-Serif" font-size="10.00">mCalciumI</text>
<text text-anchor="start" x="348" y="-542.5" font-family="Helvetica,sans-Serif" font-size="10.00">#</text>
<text text-anchor="start" x="361" y="-542.5" font-family="Helvetica,sans-Serif" font-size="10.00">mCalciumTrop50</text>
<text text-anchor="start" x="348" y="-527.5" font-family="Helvetica,sans-Serif" font-size="10.00">#</text>
<text text-anchor="start" x="361" y="-527.5" font-family="Helvetica,sans-Serif" font-size="10.00">mK1</text>
<text text-anchor="start" x="348" y="-512.5" font-family="Helvetica,sans-Serif" font-size="10.00">#</text>
<text text-anchor="start" x="361" y="-512.5" font-family="Helvetica,sans-Serif" font-size="10.00">mK2</text>
<text text-anchor="start" x="348" y="-497.5" font-family="Helvetica,sans-Serif" font-size="10.00">#</text>
<text text-anchor="start" x="361" y="-497.5" font-family="Helvetica,sans-Serif" font-size="10.00">mKon</text>
<text text-anchor="start" x="348" y="-482.5" font-family="Helvetica,sans-Serif" font-size="10.00">#</text>
<text text-anchor="start" x="361" y="-482.5" font-family="Helvetica,sans-Serif" font-size="10.00">mKrefoff</text>
<text text-anchor="start" x="348" y="-467.5" font-family="Helvetica,sans-Serif" font-size="10.00">#</text>
<text text-anchor="start" x="361" y="-467.5" font-family="Helvetica,sans-Serif" font-size="10.00">mGamma</text>
<text text-anchor="start" x="348" y="-452.5" font-family="Helvetica,sans-Serif" font-size="10.00">#</text>
<text text-anchor="start" x="361" y="-452.5" font-family="Helvetica,sans-Serif" font-size="10.00">mCalciumTroponinMax</text>
<text text-anchor="start" x="348" y="-437.5" font-family="Helvetica,sans-Serif" font-size="10.00">#</text>
<text text-anchor="start" x="361" y="-437.5" font-family="Helvetica,sans-Serif" font-size="10.00">mKZ</text>
<text text-anchor="start" x="348" y="-422.5" font-family="Helvetica,sans-Serif" font-size="10.00">#</text>
<text text-anchor="start" x="361" y="-422.5" font-family="Helvetica,sans-Serif" font-size="10.00">mBeta1</text>
<text text-anchor="start" x="348" y="-407.5" font-family="Helvetica,sans-Serif" font-size="10.00">#</text>
<text text-anchor="start" x="361" y="-407.5" font-family="Helvetica,sans-Serif" font-size="10.00">mZp</text>
<text text-anchor="start" x="348" y="-392.5" font-family="Helvetica,sans-Serif" font-size="10.00">#</text>
<text text-anchor="start" x="361" y="-392.5" font-family="Helvetica,sans-Serif" font-size="10.00">mCalcium50ref</text>
<text text-anchor="start" x="348" y="-377.5" font-family="Helvetica,sans-Serif" font-size="10.00">#</text>
<text text-anchor="start" x="361" y="-377.5" font-family="Helvetica,sans-Serif" font-size="10.00">mTref</text>
<text text-anchor="start" x="348" y="-362.5" font-family="Helvetica,sans-Serif" font-size="10.00">#</text>
<text text-anchor="start" x="361" y="-362.5" font-family="Helvetica,sans-Serif" font-size="10.00">mBeta0</text>
<text text-anchor="start" x="348" y="-347.5" font-family="Helvetica,sans-Serif" font-size="10.00">+</text>
<text text-anchor="start" x="361" y="-347.5" font-family="Helvetica,sans-Serif" font-size="10.00">NhsContractionModel()</text>
<text text-anchor="start" x="348" y="-332.5" font-family="Helvetica,sans-Serif" font-size="10.00">+</text>
<text text-anchor="start" x="361" y="-332.5" font-family="Helvetica,sans-Serif" font-size="10.00">SetStretchAndStretchRate()</text>
<text text-anchor="start" x="348" y="-317.5" font-family="Helvetica,sans-Serif" font-size="10.00">+</text>
<text text-anchor="start" x="361" y="-317.5" font-family="Helvetica,sans-Serif" font-size="10.00">SetInputParameters()</text>
<text text-anchor="start" x="348" y="-302.5" font-family="Helvetica,sans-Serif" font-size="10.00">+</text>
<text text-anchor="start" x="361" y="-302.5" font-family="Helvetica,sans-Serif" font-size="10.00">SetIntracellularCalciumConcentration()</text>
<text text-anchor="start" x="348" y="-287.5" font-family="Helvetica,sans-Serif" font-size="10.00">+</text>
<text text-anchor="start" x="361" y="-287.5" font-family="Helvetica,sans-Serif" font-size="10.00">GetCalciumTroponinValue()</text>
<text text-anchor="start" x="348" y="-272.5" font-family="Helvetica,sans-Serif" font-size="10.00">+</text>
<text text-anchor="start" x="361" y="-272.5" font-family="Helvetica,sans-Serif" font-size="10.00">EvaluateYDerivatives()</text>
<text text-anchor="start" x="348" y="-257.5" font-family="Helvetica,sans-Serif" font-size="10.00">+</text>
<text text-anchor="start" x="361" y="-257.5" font-family="Helvetica,sans-Serif" font-size="10.00">GetActiveTension()</text>
<text text-anchor="start" x="348" y="-242.5" font-family="Helvetica,sans-Serif" font-size="10.00">+</text>
<text text-anchor="start" x="361" y="-242.5" font-family="Helvetica,sans-Serif" font-size="10.00">GetNextActiveTension()</text>
<text text-anchor="start" x="348" y="-227.5" font-family="Helvetica,sans-Serif" font-size="10.00">+</text>
<text text-anchor="start" x="361" y="-227.5" font-family="Helvetica,sans-Serif" font-size="10.00">IsStretchDependent()</text>
<text text-anchor="start" x="348" y="-212.5" font-family="Helvetica,sans-Serif" font-size="10.00">+</text>
<text text-anchor="start" x="361" y="-212.5" font-family="Helvetica,sans-Serif" font-size="10.00">IsStretchRateDependent()</text>
<text text-anchor="start" x="348" y="-197.5" font-family="Helvetica,sans-Serif" font-size="10.00">#</text>
<text text-anchor="start" x="361" y="-197.5" font-family="Helvetica,sans-Serif" font-size="10.00">CalculateCalciumTrop50()</text>
<text text-anchor="start" x="348" y="-182.5" font-family="Helvetica,sans-Serif" font-size="10.00">#</text>
<text text-anchor="start" x="361" y="-182.5" font-family="Helvetica,sans-Serif" font-size="10.00">CalculateT0()</text>
<polygon fill="#666666" stroke="#666666" points="344,-597.5 344,-597.5 555,-597.5 555,-597.5 344,-597.5"/>
<polygon fill="#666666" stroke="#666666" points="344,-357.5 344,-357.5 359,-357.5 359,-357.5 344,-357.5"/>
<polygon fill="#666666" stroke="#666666" points="359,-357.5 359,-357.5 555,-357.5 555,-357.5 359,-357.5"/>
<polygon fill="none" stroke="#666666" points="343.5,-176 343.5,-615 554.5,-615 554.5,-176 343.5,-176"/>
</a>
</g>
</g>
<!-- Node2&#45;&gt;Node1 -->
<g id="edge1_Node000001_Node000002" class="edge">
<title>Node2&#45;&gt;Node1</title>
<g id="a_edge1_Node000001_Node000002"><a xlink:title=" ">
<path fill="none" stroke="#63b8ff" d="M496.28,-165.87C498.2,-156.57 500.05,-147.62 501.8,-139.18"/>
<polygon fill="none" stroke="#63b8ff" points="492.84,-165.19 494.25,-175.69 499.7,-166.61 492.84,-165.19"/>
</a>
</g>
</g>
<!-- Node3 -->
<g id="Node000003" class="node">
<title>Node3</title>
<g id="a_Node000003"><a xlink:href="classAbstractOdeBasedContractionModel.html" target="_top" xlink:title=" ">
<polygon fill="white" stroke="transparent" points="437,-791.5 269,-791.5 269,-675.5 437,-675.5 437,-791.5"/>
<text text-anchor="start" x="279.5" y="-779.5" font-family="Helvetica,sans-Serif" font-size="10.00">AbstractOdeBasedContraction</text>
<text text-anchor="start" x="337.5" y="-768.5" font-family="Helvetica,sans-Serif" font-size="10.00">Model</text>
<text text-anchor="start" x="351" y="-753.5" font-family="Helvetica,sans-Serif" font-size="10.00"> </text>
<text text-anchor="start" x="273" y="-738.5" font-family="Helvetica,sans-Serif" font-size="10.00">+</text>
<text text-anchor="start" x="286" y="-738.5" font-family="Helvetica,sans-Serif" font-size="10.00">AbstractOdeBasedContraction</text>
<text text-anchor="start" x="286" y="-727.5" font-family="Helvetica,sans-Serif" font-size="10.00">Model()</text>
<text text-anchor="start" x="273" y="-712.5" font-family="Helvetica,sans-Serif" font-size="10.00">+</text>
<text text-anchor="start" x="286" y="-712.5" font-family="Helvetica,sans-Serif" font-size="10.00">RunDoNotUpdate()</text>
<text text-anchor="start" x="273" y="-697.5" font-family="Helvetica,sans-Serif" font-size="10.00">+</text>
<text text-anchor="start" x="286" y="-697.5" font-family="Helvetica,sans-Serif" font-size="10.00">UpdateStateVariables()</text>
<text text-anchor="start" x="273" y="-682.5" font-family="Helvetica,sans-Serif" font-size="10.00">+</text>
<text text-anchor="start" x="286" y="-682.5" font-family="Helvetica,sans-Serif" font-size="10.00">RunAndUpdate()</text>
<polygon fill="#666666" stroke="#666666" points="269,-763.5 269,-763.5 437,-763.5 437,-763.5 269,-763.5"/>
<polygon fill="#666666" stroke="#666666" points="269,-748.5 269,-748.5 437,-748.5 437,-748.5 269,-748.5"/>
<polygon fill="none" stroke="#666666" points="269,-675.5 269,-791.5 437,-791.5 437,-675.5 269,-675.5"/>
</a>
</g>
</g>
<!-- Node3&#45;&gt;Node2 -->
<g id="edge2_Node000002_Node000003" class="edge">
<title>Node3&#45;&gt;Node2</title>
<g id="a_edge2_Node000002_Node000003"><a xlink:title=" ">
<path fill="none" stroke="#63b8ff" d="M372.19,-665.35C376.55,-650.08 381.42,-633.05 386.52,-615.17"/>
<polygon fill="none" stroke="#63b8ff" points="368.78,-664.54 369.39,-675.12 375.51,-666.47 368.78,-664.54"/>
</a>
</g>
</g>
<!-- Node4 -->
<g id="Node000004" class="node">
<title>Node4</title>
<g id="a_Node000004"><a xlink:href="classAbstractOdeSystem.html" target="_top" xlink:title=" ">
<polygon fill="white" stroke="transparent" points="330,-1032.5 182,-1032.5 182,-863.5 330,-863.5 330,-1032.5"/>
<text text-anchor="start" x="207.5" y="-1020" font-family="Helvetica,sans-Serif" font-size="10.00">AbstractOdeSystem</text>
<text text-anchor="start" x="254" y="-1005" font-family="Helvetica,sans-Serif" font-size="10.00"> </text>
<text text-anchor="start" x="186" y="-990" font-family="Helvetica,sans-Serif" font-size="10.00">+</text>
<text text-anchor="start" x="199" y="-990" font-family="Helvetica,sans-Serif" font-size="10.00">AbstractOdeSystem()</text>
<text text-anchor="start" x="186" y="-975" font-family="Helvetica,sans-Serif" font-size="10.00">+</text>
<text text-anchor="start" x="199" y="-975" font-family="Helvetica,sans-Serif" font-size="10.00">~AbstractOdeSystem()</text>
<text text-anchor="start" x="186" y="-960" font-family="Helvetica,sans-Serif" font-size="10.00">+</text>
<text text-anchor="start" x="199" y="-960" font-family="Helvetica,sans-Serif" font-size="10.00">EvaluateYDerivatives()</text>
<text text-anchor="start" x="186" y="-945" font-family="Helvetica,sans-Serif" font-size="10.00">+</text>
<text text-anchor="start" x="199" y="-945" font-family="Helvetica,sans-Serif" font-size="10.00">CalculateStoppingEvent()</text>
<text text-anchor="start" x="186" y="-930" font-family="Helvetica,sans-Serif" font-size="10.00">+</text>
<text text-anchor="start" x="199" y="-930" font-family="Helvetica,sans-Serif" font-size="10.00">CalculateRootFunction()</text>
<text text-anchor="start" x="186" y="-915" font-family="Helvetica,sans-Serif" font-size="10.00">+</text>
<text text-anchor="start" x="199" y="-915" font-family="Helvetica,sans-Serif" font-size="10.00">GetUseAnalyticJacobian()</text>
<text text-anchor="start" x="186" y="-900" font-family="Helvetica,sans-Serif" font-size="10.00">+</text>
<text text-anchor="start" x="199" y="-900" font-family="Helvetica,sans-Serif" font-size="10.00">rGetConstStateVariables()</text>
<text text-anchor="start" x="188.5" y="-885" font-family="Helvetica,sans-Serif" font-size="10.00">&#45;</text>
<text text-anchor="start" x="199" y="-885" font-family="Helvetica,sans-Serif" font-size="10.00">save()</text>
<text text-anchor="start" x="188.5" y="-870" font-family="Helvetica,sans-Serif" font-size="10.00">&#45;</text>
<text text-anchor="start" x="199" y="-870" font-family="Helvetica,sans-Serif" font-size="10.00">load()</text>
<polygon fill="#666666" stroke="#666666" points="182,-1015 182,-1015 330,-1015 330,-1015 182,-1015"/>
<polygon fill="#666666" stroke="#666666" points="182,-1000 182,-1000 330,-1000 330,-1000 182,-1000"/>
<polygon fill="none" stroke="#666666" points="182,-863.5 182,-1032.5 330,-1032.5 330,-863.5 182,-863.5"/>
</a>
</g>
</g>
<!-- Node4&#45;&gt;Node3 -->
<g id="edge3_Node000003_Node000004" class="edge">
<title>Node4&#45;&gt;Node3</title>
<g id="a_edge3_Node000003_Node000004"><a xlink:title=" ">
<path fill="none" stroke="#63b8ff" d="M298.47,-853.95C308.16,-832.72 318.18,-810.78 326.94,-791.58"/>
<polygon fill="none" stroke="#63b8ff" points="295.17,-852.77 294.2,-863.32 301.53,-855.68 295.17,-852.77"/>
</a>
</g>
</g>
<!-- Node5 -->
<g id="Node000005" class="node">
<title>Node5</title>
<g id="a_Node000005"><a xlink:href="classAbstractParameterisedSystem.html" target="_top" xlink:title=" ">
<polygon fill="white" stroke="transparent" points="204.5,-1387 27.5,-1387 27.5,-1102 204.5,-1102 204.5,-1387"/>
<text text-anchor="start" x="42.5" y="-1374.5" font-family="Helvetica,sans-Serif" font-size="10.00">AbstractParameterisedSystem</text>
<text text-anchor="start" x="51.5" y="-1363.5" font-family="Helvetica,sans-Serif" font-size="10.00">&lt; std::vector&lt; double &gt; &gt;</text>
<text text-anchor="start" x="114.5" y="-1348.5" font-family="Helvetica,sans-Serif" font-size="10.00"> </text>
<text text-anchor="start" x="32" y="-1333.5" font-family="Helvetica,sans-Serif" font-size="10.00">+</text>
<text text-anchor="start" x="45" y="-1333.5" font-family="Helvetica,sans-Serif" font-size="10.00">AbstractParameterisedSystem()</text>
<text text-anchor="start" x="32" y="-1318.5" font-family="Helvetica,sans-Serif" font-size="10.00">+</text>
<text text-anchor="start" x="45" y="-1318.5" font-family="Helvetica,sans-Serif" font-size="10.00">rGetStateVariables()</text>
<text text-anchor="start" x="32" y="-1303.5" font-family="Helvetica,sans-Serif" font-size="10.00">+</text>
<text text-anchor="start" x="45" y="-1303.5" font-family="Helvetica,sans-Serif" font-size="10.00">GetStateVariables()</text>
<text text-anchor="start" x="32" y="-1288.5" font-family="Helvetica,sans-Serif" font-size="10.00">+</text>
<text text-anchor="start" x="45" y="-1288.5" font-family="Helvetica,sans-Serif" font-size="10.00">SetStateVariables()</text>
<text text-anchor="start" x="32" y="-1273.5" font-family="Helvetica,sans-Serif" font-size="10.00">+</text>
<text text-anchor="start" x="45" y="-1273.5" font-family="Helvetica,sans-Serif" font-size="10.00">GetStateVariable()</text>
<text text-anchor="start" x="32" y="-1258.5" font-family="Helvetica,sans-Serif" font-size="10.00">+</text>
<text text-anchor="start" x="45" y="-1258.5" font-family="Helvetica,sans-Serif" font-size="10.00">GetStateVariable()</text>
<text text-anchor="start" x="32" y="-1243.5" font-family="Helvetica,sans-Serif" font-size="10.00">+</text>
<text text-anchor="start" x="45" y="-1243.5" font-family="Helvetica,sans-Serif" font-size="10.00">SetStateVariable()</text>
<text text-anchor="start" x="32" y="-1228.5" font-family="Helvetica,sans-Serif" font-size="10.00">+</text>
<text text-anchor="start" x="45" y="-1228.5" font-family="Helvetica,sans-Serif" font-size="10.00">SetStateVariable()</text>
<text text-anchor="start" x="32" y="-1213.5" font-family="Helvetica,sans-Serif" font-size="10.00">+</text>
<text text-anchor="start" x="45" y="-1213.5" font-family="Helvetica,sans-Serif" font-size="10.00">VerifyStateVariables()</text>
<text text-anchor="start" x="32" y="-1198.5" font-family="Helvetica,sans-Serif" font-size="10.00">+</text>
<text text-anchor="start" x="45" y="-1198.5" font-family="Helvetica,sans-Serif" font-size="10.00">SetDefaultInitialConditions()</text>
<text text-anchor="start" x="45" y="-1183.5" font-family="Helvetica,sans-Serif" font-size="10.00">and 13 more...</text>
<text text-anchor="start" x="32" y="-1168.5" font-family="Helvetica,sans-Serif" font-size="10.00">#</text>
<text text-anchor="start" x="45" y="-1168.5" font-family="Helvetica,sans-Serif" font-size="10.00">DumpState()</text>
<text text-anchor="start" x="32" y="-1153.5" font-family="Helvetica,sans-Serif" font-size="10.00">#</text>
<text text-anchor="start" x="45" y="-1153.5" font-family="Helvetica,sans-Serif" font-size="10.00">DumpState()</text>
<text text-anchor="start" x="32" y="-1138.5" font-family="Helvetica,sans-Serif" font-size="10.00">#</text>
<text text-anchor="start" x="45" y="-1138.5" font-family="Helvetica,sans-Serif" font-size="10.00">DumpState()</text>
<text text-anchor="start" x="32" y="-1123.5" font-family="Helvetica,sans-Serif" font-size="10.00">#</text>
<text text-anchor="start" x="45" y="-1123.5" font-family="Helvetica,sans-Serif" font-size="10.00">CheckParametersOnLoad()</text>
<text text-anchor="start" x="34.5" y="-1108.5" font-family="Helvetica,sans-Serif" font-size="10.00">&#45;</text>
<text text-anchor="start" x="45" y="-1108.5" font-family="Helvetica,sans-Serif" font-size="10.00">GetStateMessage()</text>
<polygon fill="#666666" stroke="#666666" points="28,-1358.5 28,-1358.5 205,-1358.5 205,-1358.5 28,-1358.5"/>
<polygon fill="#666666" stroke="#666666" points="28,-1343.5 28,-1343.5 205,-1343.5 205,-1343.5 28,-1343.5"/>
<polygon fill="none" stroke="#666666" points="27.5,-1102 27.5,-1387 204.5,-1387 204.5,-1102 27.5,-1102"/>
</a>
</g>
</g>
<!-- Node5&#45;&gt;Node4 -->
<g id="edge4_Node000004_Node000005" class="edge">
<title>Node5&#45;&gt;Node4</title>
<g id="a_edge4_Node000004_Node000005"><a xlink:title=" ">
<path fill="none" stroke="#63b8ff" d="M187.7,-1092.68C197.53,-1072 207.31,-1051.42 216.27,-1032.57"/>
<polygon fill="none" stroke="#63b8ff" points="184.47,-1091.32 183.33,-1101.86 190.79,-1094.33 184.47,-1091.32"/>
</a>
</g>
</g>
<!-- Node6 -->
<g id="Node000006" class="node">
<title>Node6</title>
<g id="a_Node000006"><a xlink:href="classAbstractUntemplatedParameterisedSystem.html" target="_top" xlink:title=" ">
<polygon fill="white" stroke="transparent" points="246.5,-2020 41.5,-2020 41.5,-1788 246.5,-1788 246.5,-2020"/>
<text text-anchor="start" x="57" y="-2008" font-family="Helvetica,sans-Serif" font-size="10.00">AbstractUntemplatedParameterised</text>
<text text-anchor="start" x="126" y="-1997" font-family="Helvetica,sans-Serif" font-size="10.00">System</text>
<text text-anchor="start" x="142.5" y="-1982" font-family="Helvetica,sans-Serif" font-size="10.00"> </text>
<text text-anchor="start" x="46" y="-1967" font-family="Helvetica,sans-Serif" font-size="10.00">+</text>
<text text-anchor="start" x="59" y="-1967" font-family="Helvetica,sans-Serif" font-size="10.00">AbstractUntemplatedParameterised</text>
<text text-anchor="start" x="59" y="-1956" font-family="Helvetica,sans-Serif" font-size="10.00">System()</text>
<text text-anchor="start" x="46" y="-1941" font-family="Helvetica,sans-Serif" font-size="10.00">+</text>
<text text-anchor="start" x="59" y="-1941" font-family="Helvetica,sans-Serif" font-size="10.00">~AbstractUntemplatedParameterised</text>
<text text-anchor="start" x="59" y="-1930" font-family="Helvetica,sans-Serif" font-size="10.00">System()</text>
<text text-anchor="start" x="46" y="-1915" font-family="Helvetica,sans-Serif" font-size="10.00">+</text>
<text text-anchor="start" x="59" y="-1915" font-family="Helvetica,sans-Serif" font-size="10.00">GetSystemInformation()</text>
<text text-anchor="start" x="46" y="-1900" font-family="Helvetica,sans-Serif" font-size="10.00">+</text>
<text text-anchor="start" x="59" y="-1900" font-family="Helvetica,sans-Serif" font-size="10.00">GetSystemName()</text>
<text text-anchor="start" x="46" y="-1885" font-family="Helvetica,sans-Serif" font-size="10.00">+</text>
<text text-anchor="start" x="59" y="-1885" font-family="Helvetica,sans-Serif" font-size="10.00">GetNumberOfAttributes()</text>
<text text-anchor="start" x="46" y="-1870" font-family="Helvetica,sans-Serif" font-size="10.00">+</text>
<text text-anchor="start" x="59" y="-1870" font-family="Helvetica,sans-Serif" font-size="10.00">HasAttribute()</text>
<text text-anchor="start" x="46" y="-1855" font-family="Helvetica,sans-Serif" font-size="10.00">+</text>
<text text-anchor="start" x="59" y="-1855" font-family="Helvetica,sans-Serif" font-size="10.00">GetAttribute()</text>
<text text-anchor="start" x="46" y="-1840" font-family="Helvetica,sans-Serif" font-size="10.00">+</text>
<text text-anchor="start" x="59" y="-1840" font-family="Helvetica,sans-Serif" font-size="10.00">GetNumberOfStateVariables()</text>
<text text-anchor="start" x="46" y="-1825" font-family="Helvetica,sans-Serif" font-size="10.00">+</text>
<text text-anchor="start" x="59" y="-1825" font-family="Helvetica,sans-Serif" font-size="10.00">rGetStateVariableNames()</text>
<text text-anchor="start" x="46" y="-1810" font-family="Helvetica,sans-Serif" font-size="10.00">+</text>
<text text-anchor="start" x="59" y="-1810" font-family="Helvetica,sans-Serif" font-size="10.00">rGetStateVariableUnits()</text>
<text text-anchor="start" x="59" y="-1795" font-family="Helvetica,sans-Serif" font-size="10.00">and 20 more...</text>
<polygon fill="#666666" stroke="#666666" points="42,-1992 42,-1992 247,-1992 247,-1992 42,-1992"/>
<polygon fill="#666666" stroke="#666666" points="42,-1977 42,-1977 247,-1977 247,-1977 42,-1977"/>
<polygon fill="none" stroke="#666666" points="41.5,-1788 41.5,-2020 246.5,-2020 246.5,-1788 41.5,-1788"/>
</a>
</g>
</g>
<!-- Node6&#45;&gt;Node5 -->
<g id="edge5_Node000005_Node000006" class="edge">
<title>Node6&#45;&gt;Node5</title>
<g id="a_edge5_Node000005_Node000006"><a xlink:title=" ">
<path fill="none" stroke="#63b8ff" d="M111.55,-1777.85C108.43,-1761.84 105.78,-1745.6 104,-1730 90.9,-1615.16 95.31,-1484.05 102.22,-1387.21"/>
<polygon fill="none" stroke="#63b8ff" points="108.14,-1778.66 113.54,-1787.78 115,-1777.28 108.14,-1778.66"/>
</a>
</g>
</g>
<!-- Node10 -->
<g id="Node000010" class="node">
<title>Node10</title>
<g id="a_Node000010"><a xlink:href="classAbstractParameterisedSystem.html" target="_top" xlink:title=" ">
<polygon fill="white" stroke="transparent" points="290.5,-1730 113.5,-1730 113.5,-1445 290.5,-1445 290.5,-1730"/>
<text text-anchor="start" x="128.5" y="-1717.5" font-family="Helvetica,sans-Serif" font-size="10.00">AbstractParameterisedSystem</text>
<text text-anchor="start" x="171" y="-1706.5" font-family="Helvetica,sans-Serif" font-size="10.00">&lt; VECTOR &gt;</text>
<text text-anchor="start" x="200.5" y="-1691.5" font-family="Helvetica,sans-Serif" font-size="10.00"> </text>
<text text-anchor="start" x="118" y="-1676.5" font-family="Helvetica,sans-Serif" font-size="10.00">+</text>
<text text-anchor="start" x="131" y="-1676.5" font-family="Helvetica,sans-Serif" font-size="10.00">AbstractParameterisedSystem()</text>
<text text-anchor="start" x="118" y="-1661.5" font-family="Helvetica,sans-Serif" font-size="10.00">+</text>
<text text-anchor="start" x="131" y="-1661.5" font-family="Helvetica,sans-Serif" font-size="10.00">rGetStateVariables()</text>
<text text-anchor="start" x="118" y="-1646.5" font-family="Helvetica,sans-Serif" font-size="10.00">+</text>
<text text-anchor="start" x="131" y="-1646.5" font-family="Helvetica,sans-Serif" font-size="10.00">GetStateVariables()</text>
<text text-anchor="start" x="118" y="-1631.5" font-family="Helvetica,sans-Serif" font-size="10.00">+</text>
<text text-anchor="start" x="131" y="-1631.5" font-family="Helvetica,sans-Serif" font-size="10.00">SetStateVariables()</text>
<text text-anchor="start" x="118" y="-1616.5" font-family="Helvetica,sans-Serif" font-size="10.00">+</text>
<text text-anchor="start" x="131" y="-1616.5" font-family="Helvetica,sans-Serif" font-size="10.00">GetStateVariable()</text>
<text text-anchor="start" x="118" y="-1601.5" font-family="Helvetica,sans-Serif" font-size="10.00">+</text>
<text text-anchor="start" x="131" y="-1601.5" font-family="Helvetica,sans-Serif" font-size="10.00">GetStateVariable()</text>
<text text-anchor="start" x="118" y="-1586.5" font-family="Helvetica,sans-Serif" font-size="10.00">+</text>
<text text-anchor="start" x="131" y="-1586.5" font-family="Helvetica,sans-Serif" font-size="10.00">SetStateVariable()</text>
<text text-anchor="start" x="118" y="-1571.5" font-family="Helvetica,sans-Serif" font-size="10.00">+</text>
<text text-anchor="start" x="131" y="-1571.5" font-family="Helvetica,sans-Serif" font-size="10.00">SetStateVariable()</text>
<text text-anchor="start" x="118" y="-1556.5" font-family="Helvetica,sans-Serif" font-size="10.00">+</text>
<text text-anchor="start" x="131" y="-1556.5" font-family="Helvetica,sans-Serif" font-size="10.00">VerifyStateVariables()</text>
<text text-anchor="start" x="118" y="-1541.5" font-family="Helvetica,sans-Serif" font-size="10.00">+</text>
<text text-anchor="start" x="131" y="-1541.5" font-family="Helvetica,sans-Serif" font-size="10.00">SetDefaultInitialConditions()</text>
<text text-anchor="start" x="131" y="-1526.5" font-family="Helvetica,sans-Serif" font-size="10.00">and 13 more...</text>
<text text-anchor="start" x="118" y="-1511.5" font-family="Helvetica,sans-Serif" font-size="10.00">#</text>
<text text-anchor="start" x="131" y="-1511.5" font-family="Helvetica,sans-Serif" font-size="10.00">DumpState()</text>
<text text-anchor="start" x="118" y="-1496.5" font-family="Helvetica,sans-Serif" font-size="10.00">#</text>
<text text-anchor="start" x="131" y="-1496.5" font-family="Helvetica,sans-Serif" font-size="10.00">DumpState()</text>
<text text-anchor="start" x="118" y="-1481.5" font-family="Helvetica,sans-Serif" font-size="10.00">#</text>
<text text-anchor="start" x="131" y="-1481.5" font-family="Helvetica,sans-Serif" font-size="10.00">DumpState()</text>
<text text-anchor="start" x="118" y="-1466.5" font-family="Helvetica,sans-Serif" font-size="10.00">#</text>
<text text-anchor="start" x="131" y="-1466.5" font-family="Helvetica,sans-Serif" font-size="10.00">CheckParametersOnLoad()</text>
<text text-anchor="start" x="120.5" y="-1451.5" font-family="Helvetica,sans-Serif" font-size="10.00">&#45;</text>
<text text-anchor="start" x="131" y="-1451.5" font-family="Helvetica,sans-Serif" font-size="10.00">GetStateMessage()</text>
<polygon fill="#666666" stroke="#666666" points="114,-1701.5 114,-1701.5 291,-1701.5 291,-1701.5 114,-1701.5"/>
<polygon fill="#666666" stroke="#666666" points="114,-1686.5 114,-1686.5 291,-1686.5 291,-1686.5 114,-1686.5"/>
<polygon fill="none" stroke="#666666" points="113.5,-1445 113.5,-1730 290.5,-1730 290.5,-1445 113.5,-1445"/>
</a>
</g>
</g>
<!-- Node6&#45;&gt;Node10 -->
<g id="edge10_Node000010_Node000006" class="edge">
<title>Node6&#45;&gt;Node10</title>
<g id="a_edge10_Node000010_Node000006"><a xlink:title=" ">
<path fill="none" stroke="#63b8ff" d="M167.15,-1777.49C170.03,-1761.88 172.98,-1745.84 175.9,-1730.01"/>
<polygon fill="none" stroke="#63b8ff" points="163.64,-1777.21 165.27,-1787.68 170.52,-1778.48 163.64,-1777.21"/>
</a>
</g>
</g>
<!-- Node7 -->
<g id="Node000007" class="node">
<title>Node7</title>
<g id="a_Node000007"><a xlink:href="classunsigned.html" target="_top" xlink:title=" ">
<polygon fill="white" stroke="transparent" points="423.5,-2121.5 368.5,-2121.5 368.5,-2072.5 423.5,-2072.5 423.5,-2121.5"/>
<text text-anchor="start" x="374" y="-2109" font-family="Helvetica,sans-Serif" font-size="10.00">unsigned</text>
<text text-anchor="start" x="394.5" y="-2094" font-family="Helvetica,sans-Serif" font-size="10.00"> </text>
<text text-anchor="start" x="394.5" y="-2079" font-family="Helvetica,sans-Serif" font-size="10.00"> </text>
<polygon fill="#bfbfbf" stroke="#bfbfbf" points="369,-2104 369,-2104 424,-2104 424,-2104 369,-2104"/>
<polygon fill="#bfbfbf" stroke="#bfbfbf" points="369,-2089 369,-2089 424,-2089 424,-2089 369,-2089"/>
<polygon fill="none" stroke="#bfbfbf" points="368.5,-2072.5 368.5,-2121.5 423.5,-2121.5 423.5,-2072.5 368.5,-2072.5"/>
</a>
</g>
</g>
<!-- Node7&#45;&gt;Node2 -->
<g id="edge17_Node000002_Node000007" class="edge">
<title>Node7&#45;&gt;Node2</title>
<g id="a_edge17_Node000002_Node000007"><a xlink:title=" ">
<path fill="none" stroke="#63b8ff" d="M423.66,-2085.21C478.99,-2061.62 598,-1999.84 598,-1905 598,-1905 598,-1905 598,-816.5 598,-777.04 574.34,-702.33 545.88,-626.74"/>
<polygon fill="none" stroke="#63b8ff" points="545.71,-626.31 539.85,-622.12 541.46,-615.09 547.33,-619.28 545.71,-626.31"/>
</a>
</g>
<text text-anchor="middle" x="613" y="-1247.5" font-family="Helvetica,sans-Serif" font-size="10.00" fill="grey"> #mN</text>
<text text-anchor="middle" x="613" y="-1236.5" font-family="Helvetica,sans-Serif" font-size="10.00" fill="grey">#mNr</text>
</g>
<!-- Node7&#45;&gt;Node6 -->
<g id="edge6_Node000006_Node000007" class="edge">
<title>Node7&#45;&gt;Node6</title>
<g id="a_edge6_Node000006_Node000007"><a xlink:title=" ">
<path fill="none" stroke="#63b8ff" d="M368.5,-2084.09C341.28,-2071.69 298.77,-2050.63 256.55,-2020.02"/>
<polygon fill="none" stroke="#63b8ff" points="256.32,-2019.85 249.12,-2019.48 246.69,-2012.69 253.89,-2013.06 256.32,-2019.85"/>
</a>
</g>
<text text-anchor="middle" x="371" y="-2041" font-family="Helvetica,sans-Serif" font-size="10.00" fill="grey"> #mNumberOfStateVariables</text>
</g>
<!-- Node8 -->
<g id="Node000008" class="node">
<title>Node8</title>
<g id="a_Node000008"><a xlink:title=" ">
<polygon fill="white" stroke="transparent" points="229,-2127 59,-2127 59,-2067 229,-2067 229,-2127"/>
<text text-anchor="start" x="64" y="-2115" font-family="Helvetica,sans-Serif" font-size="10.00">shared_ptr&lt; AbstractOdeSystem</text>
<text text-anchor="start" x="109.5" y="-2104" font-family="Helvetica,sans-Serif" font-size="10.00">Information &gt;</text>
<text text-anchor="start" x="142" y="-2089" font-family="Helvetica,sans-Serif" font-size="10.00"> </text>
<text text-anchor="start" x="142" y="-2074" font-family="Helvetica,sans-Serif" font-size="10.00"> </text>
<polygon fill="#bfbfbf" stroke="#bfbfbf" points="59,-2099 59,-2099 229,-2099 229,-2099 59,-2099"/>
<polygon fill="#bfbfbf" stroke="#bfbfbf" points="59,-2084 59,-2084 229,-2084 229,-2084 59,-2084"/>
<polygon fill="none" stroke="#bfbfbf" points="59,-2067 59,-2127 229,-2127 229,-2067 59,-2067"/>
</a>
</g>
</g>
<!-- Node8&#45;&gt;Node6 -->
<g id="edge7_Node000006_Node000008" class="edge">
<title>Node8&#45;&gt;Node6</title>
<g id="a_edge7_Node000006_Node000008"><a xlink:title=" ">
<path fill="none" stroke="#63b8ff" d="M144,-2066.99C144,-2057.11 144,-2045.33 144,-2032.71"/>
<polygon fill="none" stroke="#63b8ff" points="144,-2032.38 140,-2026.38 144,-2020.38 148,-2026.38 144,-2032.38"/>
</a>
</g>
<text text-anchor="middle" x="185.5" y="-2041" font-family="Helvetica,sans-Serif" font-size="10.00" fill="grey"> #mpSystemInfo</text>
</g>
<!-- Node9 -->
<g id="Node000009" class="node">
<title>Node9</title>
<g id="a_Node000009"><a xlink:title=" ">
<polygon fill="white" stroke="transparent" points="416.5,-1612 319.5,-1612 319.5,-1563 416.5,-1563 416.5,-1612"/>
<text text-anchor="start" x="325" y="-1599.5" font-family="Helvetica,sans-Serif" font-size="10.00">vector&lt; double &gt;</text>
<text text-anchor="start" x="366.5" y="-1584.5" font-family="Helvetica,sans-Serif" font-size="10.00"> </text>
<text text-anchor="start" x="366.5" y="-1569.5" font-family="Helvetica,sans-Serif" font-size="10.00"> </text>
<polygon fill="#bfbfbf" stroke="#bfbfbf" points="320,-1594.5 320,-1594.5 417,-1594.5 417,-1594.5 320,-1594.5"/>
<polygon fill="#bfbfbf" stroke="#bfbfbf" points="320,-1579.5 320,-1579.5 417,-1579.5 417,-1579.5 320,-1579.5"/>
<polygon fill="none" stroke="#bfbfbf" points="319.5,-1563 319.5,-1612 416.5,-1612 416.5,-1563 319.5,-1563"/>
</a>
</g>
</g>
<!-- Node9&#45;&gt;Node3 -->
<g id="edge14_Node000003_Node000009" class="edge">
<title>Node9&#45;&gt;Node3</title>
<g id="a_edge14_Node000003_Node000009"><a xlink:title=" ">
<path fill="none" stroke="#63b8ff" d="M367.62,-1562.72C367.06,-1528.04 365.97,-1461.56 365,-1405 361.22,-1185.54 356.5,-925.68 354.27,-803.95"/>
<polygon fill="none" stroke="#63b8ff" points="354.27,-803.9 350.16,-797.97 354.05,-791.9 358.16,-797.83 354.27,-803.9"/>
</a>
</g>
<text text-anchor="middle" x="432" y="-1076" font-family="Helvetica,sans-Serif" font-size="10.00" fill="grey"> #mTemporaryStateVariables</text>
</g>
<!-- Node9&#45;&gt;Node5 -->
<g id="edge8_Node000005_Node000009" class="edge">
<title>Node9&#45;&gt;Node5</title>
<g id="a_edge8_Node000005_Node000009"><a xlink:title=" ">
<path fill="none" stroke="#63b8ff" d="M360.23,-1562.86C349.67,-1533.16 328.65,-1481.65 299,-1445 290.84,-1434.91 285.81,-1435.5 276,-1427 265.31,-1417.74 264.73,-1412.91 253,-1405 239.23,-1395.72 230.75,-1398.26 214.1,-1386.89"/>
<polygon fill="none" stroke="#63b8ff" points="214.08,-1386.87 206.88,-1386.37 204.58,-1379.54 211.77,-1380.04 214.08,-1386.87"/>
</a>
</g>
<text text-anchor="middle" x="320.5" y="-1419" font-family="Helvetica,sans-Serif" font-size="10.00" fill="grey"> #mParameters</text>
<text text-anchor="middle" x="320.5" y="-1408" font-family="Helvetica,sans-Serif" font-size="10.00" fill="grey">#mStateVariables</text>
</g>
<!-- Node10&#45;&gt;Node5 -->
<g id="edge9_Node000005_Node000010" class="edge">
<title>Node10&#45;&gt;Node5</title>
<g id="a_edge9_Node000005_Node000010"><a xlink:title=" ">
<path fill="none" stroke="orange" d="M122.18,-1435.01C121.4,-1432.34 120.68,-1429.67 120,-1427 116.74,-1414.17 114.45,-1400.66 112.89,-1387.05"/>
<polygon fill="orange" stroke="orange" points="118.88,-1436.19 125.18,-1444.7 125.56,-1434.12 118.88,-1436.19"/>
</a>
</g>
<text text-anchor="middle" x="186.5" y="-1413.5" font-family="Helvetica,sans-Serif" font-size="10.00" fill="grey"> &lt; std::vector&lt; double &gt; &gt;</text>
</g>
<!-- Node11 -->
<g id="Node000011" class="node">
<title>Node11</title>
<g id="a_Node000011"><a xlink:title=" ">
<polygon fill="white" stroke="transparent" points="315,-1928.5 265,-1928.5 265,-1879.5 315,-1879.5 315,-1928.5"/>
<text text-anchor="start" x="270" y="-1916" font-family="Helvetica,sans-Serif" font-size="10.00">VECTOR</text>
<text text-anchor="start" x="288" y="-1901" font-family="Helvetica,sans-Serif" font-size="10.00"> </text>
<text text-anchor="start" x="288" y="-1886" font-family="Helvetica,sans-Serif" font-size="10.00"> </text>
<polygon fill="#bfbfbf" stroke="#bfbfbf" points="265,-1911 265,-1911 315,-1911 315,-1911 265,-1911"/>
<polygon fill="#bfbfbf" stroke="#bfbfbf" points="265,-1896 265,-1896 315,-1896 315,-1896 265,-1896"/>
<polygon fill="none" stroke="#bfbfbf" points="265,-1879.5 265,-1928.5 315,-1928.5 315,-1879.5 265,-1879.5"/>
</a>
</g>
</g>
<!-- Node11&#45;&gt;Node10 -->
<g id="edge11_Node000010_Node000011" class="edge">
<title>Node11&#45;&gt;Node10</title>
<g id="a_edge11_Node000010_Node000011"><a xlink:title=" ">
<path fill="none" stroke="#63b8ff" d="M283.39,-1879.36C275.03,-1849.48 259.91,-1795.48 244.96,-1742.04"/>
<polygon fill="none" stroke="#63b8ff" points="244.91,-1741.86 239.44,-1737.16 241.68,-1730.3 247.15,-1735 244.91,-1741.86"/>
</a>
</g>
<text text-anchor="middle" x="296.5" y="-1762" font-family="Helvetica,sans-Serif" font-size="10.00" fill="grey"> #mParameters</text>
<text text-anchor="middle" x="296.5" y="-1751" font-family="Helvetica,sans-Serif" font-size="10.00" fill="grey">#mStateVariables</text>
</g>
<!-- Node12 -->
<g id="Node000012" class="node">
<title>Node12</title>
<g id="a_Node000012"><a xlink:href="classbool.html" target="_top" xlink:title=" ">
<polygon fill="white" stroke="transparent" points="254,-1269 222,-1269 222,-1220 254,-1220 254,-1269"/>
<text text-anchor="start" x="227" y="-1256.5" font-family="Helvetica,sans-Serif" font-size="10.00">bool</text>
<text text-anchor="start" x="236" y="-1241.5" font-family="Helvetica,sans-Serif" font-size="10.00"> </text>
<text text-anchor="start" x="236" y="-1226.5" font-family="Helvetica,sans-Serif" font-size="10.00"> </text>
<polygon fill="#bfbfbf" stroke="#bfbfbf" points="222,-1251.5 222,-1251.5 254,-1251.5 254,-1251.5 222,-1251.5"/>
<polygon fill="#bfbfbf" stroke="#bfbfbf" points="222,-1236.5 222,-1236.5 254,-1236.5 254,-1236.5 222,-1236.5"/>
<polygon fill="none" stroke="#bfbfbf" points="222,-1220 222,-1269 254,-1269 254,-1220 222,-1220"/>
</a>
</g>
</g>
<!-- Node12&#45;&gt;Node4 -->
<g id="edge12_Node000004_Node000012" class="edge">
<title>Node12&#45;&gt;Node4</title>
<g id="a_edge12_Node000004_Node000012"><a xlink:title=" ">
<path fill="none" stroke="#63b8ff" d="M236.35,-1219.73C234.37,-1186.74 231.81,-1125.23 236,-1073 236.73,-1063.83 237.77,-1054.31 238.99,-1044.82"/>
<polygon fill="none" stroke="#63b8ff" points="239,-1044.71 235.85,-1038.23 240.62,-1032.82 243.77,-1039.31 239,-1044.71"/>
</a>
</g>
<text text-anchor="middle" x="296.5" y="-1076" font-family="Helvetica,sans-Serif" font-size="10.00" fill="grey"> #mUseAnalyticJacobian</text>
</g>
<!-- Node13 -->
<g id="Node000013" class="node">
<title>Node13</title>
<g id="a_Node000013"><a xlink:href="classAbstractContractionModel.html" target="_top" xlink:title=" ">
<polygon fill="white" stroke="transparent" points="164,-1055 0,-1055 0,-841 164,-841 164,-1055"/>
<text text-anchor="start" x="18.5" y="-1043" font-family="Helvetica,sans-Serif" font-size="10.00">AbstractContractionModel</text>
<text text-anchor="start" x="80" y="-1028" font-family="Helvetica,sans-Serif" font-size="10.00"> </text>
<text text-anchor="start" x="4" y="-1013" font-family="Helvetica,sans-Serif" font-size="10.00">+</text>
<text text-anchor="start" x="17" y="-1013" font-family="Helvetica,sans-Serif" font-size="10.00">AbstractContractionModel()</text>
<text text-anchor="start" x="4" y="-998" font-family="Helvetica,sans-Serif" font-size="10.00">+</text>
<text text-anchor="start" x="17" y="-998" font-family="Helvetica,sans-Serif" font-size="10.00">~AbstractContractionModel()</text>
<text text-anchor="start" x="4" y="-983" font-family="Helvetica,sans-Serif" font-size="10.00">+</text>
<text text-anchor="start" x="17" y="-983" font-family="Helvetica,sans-Serif" font-size="10.00">IsStretchDependent()</text>
<text text-anchor="start" x="4" y="-968" font-family="Helvetica,sans-Serif" font-size="10.00">+</text>
<text text-anchor="start" x="17" y="-968" font-family="Helvetica,sans-Serif" font-size="10.00">IsStretchRateDependent()</text>
<text text-anchor="start" x="4" y="-953" font-family="Helvetica,sans-Serif" font-size="10.00">+</text>
<text text-anchor="start" x="17" y="-953" font-family="Helvetica,sans-Serif" font-size="10.00">SetInputParameters()</text>
<text text-anchor="start" x="4" y="-938" font-family="Helvetica,sans-Serif" font-size="10.00">+</text>
<text text-anchor="start" x="17" y="-938" font-family="Helvetica,sans-Serif" font-size="10.00">SetStretchAndStretchRate()</text>
<text text-anchor="start" x="4" y="-923" font-family="Helvetica,sans-Serif" font-size="10.00">+</text>
<text text-anchor="start" x="17" y="-923" font-family="Helvetica,sans-Serif" font-size="10.00">SetStretch()</text>
<text text-anchor="start" x="4" y="-908" font-family="Helvetica,sans-Serif" font-size="10.00">+</text>
<text text-anchor="start" x="17" y="-908" font-family="Helvetica,sans-Serif" font-size="10.00">RunDoNotUpdate()</text>
<text text-anchor="start" x="4" y="-893" font-family="Helvetica,sans-Serif" font-size="10.00">+</text>
<text text-anchor="start" x="17" y="-893" font-family="Helvetica,sans-Serif" font-size="10.00">RunAndUpdate()</text>
<text text-anchor="start" x="4" y="-878" font-family="Helvetica,sans-Serif" font-size="10.00">+</text>
<text text-anchor="start" x="17" y="-878" font-family="Helvetica,sans-Serif" font-size="10.00">UpdateStateVariables()</text>
<text text-anchor="start" x="4" y="-863" font-family="Helvetica,sans-Serif" font-size="10.00">+</text>
<text text-anchor="start" x="17" y="-863" font-family="Helvetica,sans-Serif" font-size="10.00">GetActiveTension()</text>
<text text-anchor="start" x="4" y="-848" font-family="Helvetica,sans-Serif" font-size="10.00">+</text>
<text text-anchor="start" x="17" y="-848" font-family="Helvetica,sans-Serif" font-size="10.00">GetNextActiveTension()</text>
<polygon fill="#666666" stroke="#666666" points="0,-1038 0,-1038 164,-1038 164,-1038 0,-1038"/>
<polygon fill="#666666" stroke="#666666" points="0,-1023 0,-1023 164,-1023 164,-1023 0,-1023"/>
<polygon fill="none" stroke="#666666" points="0,-841 0,-1055 164,-1055 164,-841 0,-841"/>
</a>
</g>
</g>
<!-- Node13&#45;&gt;Node3 -->
<g id="edge13_Node000003_Node000013" class="edge">
<title>Node13&#45;&gt;Node3</title>
<g id="a_edge13_Node000003_Node000013"><a xlink:title=" ">
<path fill="none" stroke="#63b8ff" d="M171.89,-841.94C172.26,-841.62 172.63,-841.31 173,-841 201.94,-816.74 237.07,-794.61 268.59,-776.89"/>
<polygon fill="none" stroke="#63b8ff" points="169.33,-839.53 164.14,-848.77 173.96,-844.78 169.33,-839.53"/>
</a>
</g>
</g>
<!-- Node14 -->
<g id="Node000014" class="node">
<title>Node14</title>
<g id="a_Node000014"><a xlink:href="classdouble.html" target="_top" xlink:title=" ">
<polygon fill="white" stroke="transparent" points="495,-972.5 451,-972.5 451,-923.5 495,-923.5 495,-972.5"/>
<text text-anchor="start" x="456" y="-960" font-family="Helvetica,sans-Serif" font-size="10.00">double</text>
<text text-anchor="start" x="471" y="-945" font-family="Helvetica,sans-Serif" font-size="10.00"> </text>
<text text-anchor="start" x="471" y="-930" font-family="Helvetica,sans-Serif" font-size="10.00"> </text>
<polygon fill="#bfbfbf" stroke="#bfbfbf" points="451,-955 451,-955 495,-955 495,-955 451,-955"/>
<polygon fill="#bfbfbf" stroke="#bfbfbf" points="451,-940 451,-940 495,-940 495,-940 451,-940"/>
<polygon fill="none" stroke="#bfbfbf" points="451,-923.5 451,-972.5 495,-972.5 495,-923.5 451,-923.5"/>
</a>
</g>
</g>
<!-- Node14&#45;&gt;Node1 -->
<g id="edge18_Node000001_Node000014" class="edge">
<title>Node14&#45;&gt;Node1</title>
<g id="a_edge18_Node000001_Node000014"><a xlink:title=" ">
<path fill="none" stroke="#63b8ff" d="M483.26,-923.3C495.79,-893.58 516.93,-840.82 530,-794 603.95,-529.04 622.28,-444.84 564,-176 562.17,-167.55 559.6,-158.96 556.59,-150.53"/>
<polygon fill="none" stroke="#63b8ff" points="556.52,-150.35 550.65,-146.17 552.25,-139.14 558.12,-143.32 556.52,-150.35"/>
</a>
</g>
<text text-anchor="middle" x="602.5" y="-647" font-family="Helvetica,sans-Serif" font-size="10.00" fill="grey"> &#45;mDt</text>
<text text-anchor="middle" x="602.5" y="-636" font-family="Helvetica,sans-Serif" font-size="10.00" fill="grey">&#45;mTolerance</text>
</g>
<!-- Node14&#45;&gt;Node2 -->
<g id="edge16_Node000002_Node000014" class="edge">
<title>Node14&#45;&gt;Node2</title>
<g id="a_edge16_Node000002_Node000014"><a xlink:title=" ">
<path fill="none" stroke="#63b8ff" d="M471.97,-923.35C469.72,-871.72 464.16,-744.19 459.07,-627.55"/>
<polygon fill="none" stroke="#63b8ff" points="459.06,-627.2 454.8,-621.38 458.53,-615.21 462.79,-621.03 459.06,-627.2"/>
</a>
</g>
<text text-anchor="middle" x="496.5" y="-786" font-family="Helvetica,sans-Serif" font-size="10.00" fill="grey"> #mA</text>
<text text-anchor="middle" x="496.5" y="-775" font-family="Helvetica,sans-Serif" font-size="10.00" fill="grey">#mA1</text>
<text text-anchor="middle" x="496.5" y="-764" font-family="Helvetica,sans-Serif" font-size="10.00" fill="grey">#mA2</text>
<text text-anchor="middle" x="496.5" y="-753" font-family="Helvetica,sans-Serif" font-size="10.00" fill="grey">#mA3</text>
<text text-anchor="middle" x="496.5" y="-742" font-family="Helvetica,sans-Serif" font-size="10.00" fill="grey">#mAlpha0</text>
<text text-anchor="middle" x="496.5" y="-731" font-family="Helvetica,sans-Serif" font-size="10.00" fill="grey">#mAlpha1</text>
<text text-anchor="middle" x="496.5" y="-720" font-family="Helvetica,sans-Serif" font-size="10.00" fill="grey">#mAlpha2</text>
<text text-anchor="middle" x="496.5" y="-709" font-family="Helvetica,sans-Serif" font-size="10.00" fill="grey">#mAlpha3</text>
<text text-anchor="middle" x="496.5" y="-698" font-family="Helvetica,sans-Serif" font-size="10.00" fill="grey">#mAlphaR1</text>
<text text-anchor="middle" x="496.5" y="-687" font-family="Helvetica,sans-Serif" font-size="10.00" fill="grey">#mAlphaR2</text>
<text text-anchor="middle" x="496.5" y="-676" font-family="Helvetica,sans-Serif" font-size="10.00" fill="grey">...</text>
</g>
<!-- Node14&#45;&gt;Node3 -->
<g id="edge15_Node000003_Node000014" class="edge">
<title>Node14&#45;&gt;Node3</title>
<g id="a_edge15_Node000003_Node000014"><a xlink:title=" ">
<path fill="none" stroke="#63b8ff" d="M459.7,-923.45C443.31,-894.42 414.75,-843.84 391.3,-802.32"/>
<polygon fill="none" stroke="#63b8ff" points="391.2,-802.15 384.77,-798.89 385.3,-791.7 391.73,-794.96 391.2,-802.15"/>
</a>
</g>
<text text-anchor="middle" x="426" y="-815" font-family="Helvetica,sans-Serif" font-size="10.00" fill="grey"> #mTime</text>
</g>
</g>
</svg>
