<?xml version="1.0" encoding="UTF-8" standalone="no"?>
<!DOCTYPE svg PUBLIC "-//W3C//DTD SVG 1.1//EN"
 "http://www.w3.org/Graphics/SVG/1.1/DTD/svg11.dtd">
<!-- Generated by graphviz version 2.43.0 (0)
 -->
<!-- Title: OdeSystemForCoupledHeatEquation Pages: 1 -->
<svg width="488pt" height="1513pt"
 viewBox="0.00 0.00 488.00 1513.00" xmlns="http://www.w3.org/2000/svg" xmlns:xlink="http://www.w3.org/1999/xlink">
<g id="graph0" class="graph" transform="scale(1 1) rotate(0) translate(4 1509)">
<title>OdeSystemForCoupledHeatEquation</title>
<!-- Node1 -->
<g id="Node000001" class="node">
<title>Node1</title>
<g id="a_Node000001"><a xlink:title=" ">
<polygon fill="#999999" stroke="transparent" points="317.5,-64 111.5,-64 111.5,0 317.5,0 317.5,-64"/>
<text text-anchor="start" x="125.5" y="-52" font-family="Helvetica,sans-Serif" font-size="10.00">OdeSystemForCoupledHeatEquation</text>
<text text-anchor="start" x="212.5" y="-37" font-family="Helvetica,sans-Serif" font-size="10.00"> </text>
<text text-anchor="start" x="115.5" y="-22" font-family="Helvetica,sans-Serif" font-size="10.00">+</text>
<text text-anchor="start" x="128.5" y="-22" font-family="Helvetica,sans-Serif" font-size="10.00">OdeSystemForCoupledHeatEquation()</text>
<text text-anchor="start" x="115.5" y="-7" font-family="Helvetica,sans-Serif" font-size="10.00">+</text>
<text text-anchor="start" x="128.5" y="-7" font-family="Helvetica,sans-Serif" font-size="10.00">EvaluateYDerivatives()</text>
<polygon fill="#666666" stroke="#666666" points="111.5,-47 111.5,-47 317.5,-47 317.5,-47 111.5,-47"/>
<polygon fill="#666666" stroke="#666666" points="111.5,-32 111.5,-32 317.5,-32 317.5,-32 111.5,-32"/>
<polygon fill="none" stroke="#666666" points="111.5,0 111.5,-64 317.5,-64 317.5,0 111.5,0"/>
</a>
</g>
</g>
<!-- Node2 -->
<g id="Node000002" class="node">
<title>Node2</title>
<g id="a_Node000002"><a xlink:href="classAbstractOdeSystemForCoupledPdeSystem.html" target="_top" xlink:title=" ">
<polygon fill="white" stroke="transparent" points="238,-227 65,-227 65,-111 238,-111 238,-227"/>
<text text-anchor="start" x="76" y="-215" font-family="Helvetica,sans-Serif" font-size="10.00">AbstractOdeSystemForCoupled</text>
<text text-anchor="start" x="124.5" y="-204" font-family="Helvetica,sans-Serif" font-size="10.00">PdeSystem</text>
<text text-anchor="start" x="150" y="-189" font-family="Helvetica,sans-Serif" font-size="10.00"> </text>
<text text-anchor="start" x="69.5" y="-174" font-family="Helvetica,sans-Serif" font-size="10.00">+</text>
<text text-anchor="start" x="82.5" y="-174" font-family="Helvetica,sans-Serif" font-size="10.00">AbstractOdeSystemForCoupled</text>
<text text-anchor="start" x="82.5" y="-163" font-family="Helvetica,sans-Serif" font-size="10.00">PdeSystem()</text>
<text text-anchor="start" x="69.5" y="-148" font-family="Helvetica,sans-Serif" font-size="10.00">+</text>
<text text-anchor="start" x="82.5" y="-148" font-family="Helvetica,sans-Serif" font-size="10.00">rGetPdeSolution()</text>
<text text-anchor="start" x="69.5" y="-133" font-family="Helvetica,sans-Serif" font-size="10.00">+</text>
<text text-anchor="start" x="82.5" y="-133" font-family="Helvetica,sans-Serif" font-size="10.00">SetPdeSolution()</text>
<text text-anchor="start" x="69.5" y="-118" font-family="Helvetica,sans-Serif" font-size="10.00">+</text>
<text text-anchor="start" x="82.5" y="-118" font-family="Helvetica,sans-Serif" font-size="10.00">GetPdeSolutionSize()</text>
<polygon fill="#666666" stroke="#666666" points="65.5,-199 65.5,-199 238.5,-199 238.5,-199 65.5,-199"/>
<polygon fill="#666666" stroke="#666666" points="65.5,-184 65.5,-184 238.5,-184 238.5,-184 65.5,-184"/>
<polygon fill="none" stroke="#666666" points="65,-111 65,-227 238,-227 238,-111 65,-111"/>
</a>
</g>
</g>
<!-- Node2&#45;&gt;Node1 -->
<g id="edge1_Node000001_Node000002" class="edge">
<title>Node2&#45;&gt;Node1</title>
<g id="a_edge1_Node000001_Node000002"><a xlink:title=" ">
<path fill="none" stroke="#63b8ff" d="M182.61,-101.34C188.66,-88.37 194.73,-75.36 199.93,-64.22"/>
<polygon fill="none" stroke="#63b8ff" points="179.27,-100.21 178.22,-110.75 185.62,-103.17 179.27,-100.21"/>
</a>
</g>
</g>
<!-- Node3 -->
<g id="Node000003" class="node">
<title>Node3</title>
<g id="a_Node000003"><a xlink:href="classAbstractOdeSystem.html" target="_top" xlink:title=" ">
<polygon fill="white" stroke="transparent" points="225.5,-433 77.5,-433 77.5,-264 225.5,-264 225.5,-433"/>
<text text-anchor="start" x="103" y="-420.5" font-family="Helvetica,sans-Serif" font-size="10.00">AbstractOdeSystem</text>
<text text-anchor="start" x="149.5" y="-405.5" font-family="Helvetica,sans-Serif" font-size="10.00"> </text>
<text text-anchor="start" x="81.5" y="-390.5" font-family="Helvetica,sans-Serif" font-size="10.00">+</text>
<text text-anchor="start" x="94.5" y="-390.5" font-family="Helvetica,sans-Serif" font-size="10.00">AbstractOdeSystem()</text>
<text text-anchor="start" x="81.5" y="-375.5" font-family="Helvetica,sans-Serif" font-size="10.00">+</text>
<text text-anchor="start" x="94.5" y="-375.5" font-family="Helvetica,sans-Serif" font-size="10.00">~AbstractOdeSystem()</text>
<text text-anchor="start" x="81.5" y="-360.5" font-family="Helvetica,sans-Serif" font-size="10.00">+</text>
<text text-anchor="start" x="94.5" y="-360.5" font-family="Helvetica,sans-Serif" font-size="10.00">EvaluateYDerivatives()</text>
<text text-anchor="start" x="81.5" y="-345.5" font-family="Helvetica,sans-Serif" font-size="10.00">+</text>
<text text-anchor="start" x="94.5" y="-345.5" font-family="Helvetica,sans-Serif" font-size="10.00">CalculateStoppingEvent()</text>
<text text-anchor="start" x="81.5" y="-330.5" font-family="Helvetica,sans-Serif" font-size="10.00">+</text>
<text text-anchor="start" x="94.5" y="-330.5" font-family="Helvetica,sans-Serif" font-size="10.00">CalculateRootFunction()</text>
<text text-anchor="start" x="81.5" y="-315.5" font-family="Helvetica,sans-Serif" font-size="10.00">+</text>
<text text-anchor="start" x="94.5" y="-315.5" font-family="Helvetica,sans-Serif" font-size="10.00">GetUseAnalyticJacobian()</text>
<text text-anchor="start" x="81.5" y="-300.5" font-family="Helvetica,sans-Serif" font-size="10.00">+</text>
<text text-anchor="start" x="94.5" y="-300.5" font-family="Helvetica,sans-Serif" font-size="10.00">rGetConstStateVariables()</text>
<text text-anchor="start" x="84" y="-285.5" font-family="Helvetica,sans-Serif" font-size="10.00">&#45;</text>
<text text-anchor="start" x="94.5" y="-285.5" font-family="Helvetica,sans-Serif" font-size="10.00">save()</text>
<text text-anchor="start" x="84" y="-270.5" font-family="Helvetica,sans-Serif" font-size="10.00">&#45;</text>
<text text-anchor="start" x="94.5" y="-270.5" font-family="Helvetica,sans-Serif" font-size="10.00">load()</text>
<polygon fill="#666666" stroke="#666666" points="77.5,-415.5 77.5,-415.5 225.5,-415.5 225.5,-415.5 77.5,-415.5"/>
<polygon fill="#666666" stroke="#666666" points="77.5,-400.5 77.5,-400.5 225.5,-400.5 225.5,-400.5 77.5,-400.5"/>
<polygon fill="none" stroke="#666666" points="77.5,-264 77.5,-433 225.5,-433 225.5,-264 77.5,-264"/>
</a>
</g>
</g>
<!-- Node3&#45;&gt;Node2 -->
<g id="edge2_Node000002_Node000003" class="edge">
<title>Node3&#45;&gt;Node2</title>
<g id="a_edge2_Node000002_Node000003"><a xlink:title=" ">
<path fill="none" stroke="#63b8ff" d="M151.5,-253.68C151.5,-244.6 151.5,-235.59 151.5,-227.03"/>
<polygon fill="none" stroke="#63b8ff" points="148,-253.95 151.5,-263.95 155,-253.95 148,-253.95"/>
</a>
</g>
</g>
<!-- Node4 -->
<g id="Node000004" class="node">
<title>Node4</title>
<g id="a_Node000004"><a xlink:href="classAbstractParameterisedSystem.html" target="_top" xlink:title=" ">
<polygon fill="white" stroke="transparent" points="277,-765 100,-765 100,-480 277,-480 277,-765"/>
<text text-anchor="start" x="115" y="-752.5" font-family="Helvetica,sans-Serif" font-size="10.00">AbstractParameterisedSystem</text>
<text text-anchor="start" x="124" y="-741.5" font-family="Helvetica,sans-Serif" font-size="10.00">&lt; std::vector&lt; double &gt; &gt;</text>
<text text-anchor="start" x="187" y="-726.5" font-family="Helvetica,sans-Serif" font-size="10.00"> </text>
<text text-anchor="start" x="104.5" y="-711.5" font-family="Helvetica,sans-Serif" font-size="10.00">+</text>
<text text-anchor="start" x="117.5" y="-711.5" font-family="Helvetica,sans-Serif" font-size="10.00">AbstractParameterisedSystem()</text>
<text text-anchor="start" x="104.5" y="-696.5" font-family="Helvetica,sans-Serif" font-size="10.00">+</text>
<text text-anchor="start" x="117.5" y="-696.5" font-family="Helvetica,sans-Serif" font-size="10.00">rGetStateVariables()</text>
<text text-anchor="start" x="104.5" y="-681.5" font-family="Helvetica,sans-Serif" font-size="10.00">+</text>
<text text-anchor="start" x="117.5" y="-681.5" font-family="Helvetica,sans-Serif" font-size="10.00">GetStateVariables()</text>
<text text-anchor="start" x="104.5" y="-666.5" font-family="Helvetica,sans-Serif" font-size="10.00">+</text>
<text text-anchor="start" x="117.5" y="-666.5" font-family="Helvetica,sans-Serif" font-size="10.00">SetStateVariables()</text>
<text text-anchor="start" x="104.5" y="-651.5" font-family="Helvetica,sans-Serif" font-size="10.00">+</text>
<text text-anchor="start" x="117.5" y="-651.5" font-family="Helvetica,sans-Serif" font-size="10.00">GetStateVariable()</text>
<text text-anchor="start" x="104.5" y="-636.5" font-family="Helvetica,sans-Serif" font-size="10.00">+</text>
<text text-anchor="start" x="117.5" y="-636.5" font-family="Helvetica,sans-Serif" font-size="10.00">GetStateVariable()</text>
<text text-anchor="start" x="104.5" y="-621.5" font-family="Helvetica,sans-Serif" font-size="10.00">+</text>
<text text-anchor="start" x="117.5" y="-621.5" font-family="Helvetica,sans-Serif" font-size="10.00">SetStateVariable()</text>
<text text-anchor="start" x="104.5" y="-606.5" font-family="Helvetica,sans-Serif" font-size="10.00">+</text>
<text text-anchor="start" x="117.5" y="-606.5" font-family="Helvetica,sans-Serif" font-size="10.00">SetStateVariable()</text>
<text text-anchor="start" x="104.5" y="-591.5" font-family="Helvetica,sans-Serif" font-size="10.00">+</text>
<text text-anchor="start" x="117.5" y="-591.5" font-family="Helvetica,sans-Serif" font-size="10.00">VerifyStateVariables()</text>
<text text-anchor="start" x="104.5" y="-576.5" font-family="Helvetica,sans-Serif" font-size="10.00">+</text>
<text text-anchor="start" x="117.5" y="-576.5" font-family="Helvetica,sans-Serif" font-size="10.00">SetDefaultInitialConditions()</text>
<text text-anchor="start" x="117.5" y="-561.5" font-family="Helvetica,sans-Serif" font-size="10.00">and 13 more...</text>
<text text-anchor="start" x="104.5" y="-546.5" font-family="Helvetica,sans-Serif" font-size="10.00">#</text>
<text text-anchor="start" x="117.5" y="-546.5" font-family="Helvetica,sans-Serif" font-size="10.00">DumpState()</text>
<text text-anchor="start" x="104.5" y="-531.5" font-family="Helvetica,sans-Serif" font-size="10.00">#</text>
<text text-anchor="start" x="117.5" y="-531.5" font-family="Helvetica,sans-Serif" font-size="10.00">DumpState()</text>
<text text-anchor="start" x="104.5" y="-516.5" font-family="Helvetica,sans-Serif" font-size="10.00">#</text>
<text text-anchor="start" x="117.5" y="-516.5" font-family="Helvetica,sans-Serif" font-size="10.00">DumpState()</text>
<text text-anchor="start" x="104.5" y="-501.5" font-family="Helvetica,sans-Serif" font-size="10.00">#</text>
<text text-anchor="start" x="117.5" y="-501.5" font-family="Helvetica,sans-Serif" font-size="10.00">CheckParametersOnLoad()</text>
<text text-anchor="start" x="107" y="-486.5" font-family="Helvetica,sans-Serif" font-size="10.00">&#45;</text>
<text text-anchor="start" x="117.5" y="-486.5" font-family="Helvetica,sans-Serif" font-size="10.00">GetStateMessage()</text>
<polygon fill="#666666" stroke="#666666" points="100.5,-736.5 100.5,-736.5 277.5,-736.5 277.5,-736.5 100.5,-736.5"/>
<polygon fill="#666666" stroke="#666666" points="100.5,-721.5 100.5,-721.5 277.5,-721.5 277.5,-721.5 100.5,-721.5"/>
<polygon fill="none" stroke="#666666" points="100,-480 100,-765 277,-765 277,-480 100,-480"/>
</a>
</g>
</g>
<!-- Node4&#45;&gt;Node3 -->
<g id="edge3_Node000003_Node000004" class="edge">
<title>Node4&#45;&gt;Node3</title>
<g id="a_edge3_Node000003_Node000004"><a xlink:title=" ">
<path fill="none" stroke="#63b8ff" d="M179.17,-469.82C178.36,-463.45 177.47,-457.16 176.5,-451 175.58,-445.17 174.5,-439.19 173.3,-433.18"/>
<polygon fill="none" stroke="#63b8ff" points="175.72,-470.37 180.4,-479.87 182.66,-469.52 175.72,-470.37"/>
</a>
</g>
</g>
<!-- Node5 -->
<g id="Node000005" class="node">
<title>Node5</title>
<g id="a_Node000005"><a xlink:href="classAbstractUntemplatedParameterisedSystem.html" target="_top" xlink:title=" ">
<polygon fill="white" stroke="transparent" points="252,-1398 47,-1398 47,-1166 252,-1166 252,-1398"/>
<text text-anchor="start" x="62.5" y="-1386" font-family="Helvetica,sans-Serif" font-size="10.00">AbstractUntemplatedParameterised</text>
<text text-anchor="start" x="131.5" y="-1375" font-family="Helvetica,sans-Serif" font-size="10.00">System</text>
<text text-anchor="start" x="148" y="-1360" font-family="Helvetica,sans-Serif" font-size="10.00"> </text>
<text text-anchor="start" x="51.5" y="-1345" font-family="Helvetica,sans-Serif" font-size="10.00">+</text>
<text text-anchor="start" x="64.5" y="-1345" font-family="Helvetica,sans-Serif" font-size="10.00">AbstractUntemplatedParameterised</text>
<text text-anchor="start" x="64.5" y="-1334" font-family="Helvetica,sans-Serif" font-size="10.00">System()</text>
<text text-anchor="start" x="51.5" y="-1319" font-family="Helvetica,sans-Serif" font-size="10.00">+</text>
<text text-anchor="start" x="64.5" y="-1319" font-family="Helvetica,sans-Serif" font-size="10.00">~AbstractUntemplatedParameterised</text>
<text text-anchor="start" x="64.5" y="-1308" font-family="Helvetica,sans-Serif" font-size="10.00">System()</text>
<text text-anchor="start" x="51.5" y="-1293" font-family="Helvetica,sans-Serif" font-size="10.00">+</text>
<text text-anchor="start" x="64.5" y="-1293" font-family="Helvetica,sans-Serif" font-size="10.00">GetSystemInformation()</text>
<text text-anchor="start" x="51.5" y="-1278" font-family="Helvetica,sans-Serif" font-size="10.00">+</text>
<text text-anchor="start" x="64.5" y="-1278" font-family="Helvetica,sans-Serif" font-size="10.00">GetSystemName()</text>
<text text-anchor="start" x="51.5" y="-1263" font-family="Helvetica,sans-Serif" font-size="10.00">+</text>
<text text-anchor="start" x="64.5" y="-1263" font-family="Helvetica,sans-Serif" font-size="10.00">GetNumberOfAttributes()</text>
<text text-anchor="start" x="51.5" y="-1248" font-family="Helvetica,sans-Serif" font-size="10.00">+</text>
<text text-anchor="start" x="64.5" y="-1248" font-family="Helvetica,sans-Serif" font-size="10.00">HasAttribute()</text>
<text text-anchor="start" x="51.5" y="-1233" font-family="Helvetica,sans-Serif" font-size="10.00">+</text>
<text text-anchor="start" x="64.5" y="-1233" font-family="Helvetica,sans-Serif" font-size="10.00">GetAttribute()</text>
<text text-anchor="start" x="51.5" y="-1218" font-family="Helvetica,sans-Serif" font-size="10.00">+</text>
<text text-anchor="start" x="64.5" y="-1218" font-family="Helvetica,sans-Serif" font-size="10.00">GetNumberOfStateVariables()</text>
<text text-anchor="start" x="51.5" y="-1203" font-family="Helvetica,sans-Serif" font-size="10.00">+</text>
<text text-anchor="start" x="64.5" y="-1203" font-family="Helvetica,sans-Serif" font-size="10.00">rGetStateVariableNames()</text>
<text text-anchor="start" x="51.5" y="-1188" font-family="Helvetica,sans-Serif" font-size="10.00">+</text>
<text text-anchor="start" x="64.5" y="-1188" font-family="Helvetica,sans-Serif" font-size="10.00">rGetStateVariableUnits()</text>
<text text-anchor="start" x="64.5" y="-1173" font-family="Helvetica,sans-Serif" font-size="10.00">and 20 more...</text>
<polygon fill="#666666" stroke="#666666" points="47.5,-1370 47.5,-1370 252.5,-1370 252.5,-1370 47.5,-1370"/>
<polygon fill="#666666" stroke="#666666" points="47.5,-1355 47.5,-1355 252.5,-1355 252.5,-1355 47.5,-1355"/>
<polygon fill="none" stroke="#666666" points="47,-1166 47,-1398 252,-1398 252,-1166 47,-1166"/>
</a>
</g>
</g>
<!-- Node5&#45;&gt;Node4 -->
<g id="edge4_Node000004_Node000005" class="edge">
<title>Node5&#45;&gt;Node4</title>
<g id="a_edge4_Node000004_Node000005"><a xlink:title=" ">
<path fill="none" stroke="#63b8ff" d="M152.73,-1155.4C155.58,-1063.31 160.55,-935.29 168.5,-823 169.83,-804.25 171.49,-784.53 173.27,-765.09"/>
<polygon fill="none" stroke="#63b8ff" points="149.23,-1155.5 152.42,-1165.61 156.22,-1155.72 149.23,-1155.5"/>
</a>
</g>
</g>
<!-- Node9 -->
<g id="Node000009" class="node">
<title>Node9</title>
<g id="a_Node000009"><a xlink:href="classAbstractParameterisedSystem.html" target="_top" xlink:title=" ">
<polygon fill="white" stroke="transparent" points="354,-1108 177,-1108 177,-823 354,-823 354,-1108"/>
<text text-anchor="start" x="192" y="-1095.5" font-family="Helvetica,sans-Serif" font-size="10.00">AbstractParameterisedSystem</text>
<text text-anchor="start" x="234.5" y="-1084.5" font-family="Helvetica,sans-Serif" font-size="10.00">&lt; VECTOR &gt;</text>
<text text-anchor="start" x="264" y="-1069.5" font-family="Helvetica,sans-Serif" font-size="10.00"> </text>
<text text-anchor="start" x="181.5" y="-1054.5" font-family="Helvetica,sans-Serif" font-size="10.00">+</text>
<text text-anchor="start" x="194.5" y="-1054.5" font-family="Helvetica,sans-Serif" font-size="10.00">AbstractParameterisedSystem()</text>
<text text-anchor="start" x="181.5" y="-1039.5" font-family="Helvetica,sans-Serif" font-size="10.00">+</text>
<text text-anchor="start" x="194.5" y="-1039.5" font-family="Helvetica,sans-Serif" font-size="10.00">rGetStateVariables()</text>
<text text-anchor="start" x="181.5" y="-1024.5" font-family="Helvetica,sans-Serif" font-size="10.00">+</text>
<text text-anchor="start" x="194.5" y="-1024.5" font-family="Helvetica,sans-Serif" font-size="10.00">GetStateVariables()</text>
<text text-anchor="start" x="181.5" y="-1009.5" font-family="Helvetica,sans-Serif" font-size="10.00">+</text>
<text text-anchor="start" x="194.5" y="-1009.5" font-family="Helvetica,sans-Serif" font-size="10.00">SetStateVariables()</text>
<text text-anchor="start" x="181.5" y="-994.5" font-family="Helvetica,sans-Serif" font-size="10.00">+</text>
<text text-anchor="start" x="194.5" y="-994.5" font-family="Helvetica,sans-Serif" font-size="10.00">GetStateVariable()</text>
<text text-anchor="start" x="181.5" y="-979.5" font-family="Helvetica,sans-Serif" font-size="10.00">+</text>
<text text-anchor="start" x="194.5" y="-979.5" font-family="Helvetica,sans-Serif" font-size="10.00">GetStateVariable()</text>
<text text-anchor="start" x="181.5" y="-964.5" font-family="Helvetica,sans-Serif" font-size="10.00">+</text>
<text text-anchor="start" x="194.5" y="-964.5" font-family="Helvetica,sans-Serif" font-size="10.00">SetStateVariable()</text>
<text text-anchor="start" x="181.5" y="-949.5" font-family="Helvetica,sans-Serif" font-size="10.00">+</text>
<text text-anchor="start" x="194.5" y="-949.5" font-family="Helvetica,sans-Serif" font-size="10.00">SetStateVariable()</text>
<text text-anchor="start" x="181.5" y="-934.5" font-family="Helvetica,sans-Serif" font-size="10.00">+</text>
<text text-anchor="start" x="194.5" y="-934.5" font-family="Helvetica,sans-Serif" font-size="10.00">VerifyStateVariables()</text>
<text text-anchor="start" x="181.5" y="-919.5" font-family="Helvetica,sans-Serif" font-size="10.00">+</text>
<text text-anchor="start" x="194.5" y="-919.5" font-family="Helvetica,sans-Serif" font-size="10.00">SetDefaultInitialConditions()</text>
<text text-anchor="start" x="194.5" y="-904.5" font-family="Helvetica,sans-Serif" font-size="10.00">and 13 more...</text>
<text text-anchor="start" x="181.5" y="-889.5" font-family="Helvetica,sans-Serif" font-size="10.00">#</text>
<text text-anchor="start" x="194.5" y="-889.5" font-family="Helvetica,sans-Serif" font-size="10.00">DumpState()</text>
<text text-anchor="start" x="181.5" y="-874.5" font-family="Helvetica,sans-Serif" font-size="10.00">#</text>
<text text-anchor="start" x="194.5" y="-874.5" font-family="Helvetica,sans-Serif" font-size="10.00">DumpState()</text>
<text text-anchor="start" x="181.5" y="-859.5" font-family="Helvetica,sans-Serif" font-size="10.00">#</text>
<text text-anchor="start" x="194.5" y="-859.5" font-family="Helvetica,sans-Serif" font-size="10.00">DumpState()</text>
<text text-anchor="start" x="181.5" y="-844.5" font-family="Helvetica,sans-Serif" font-size="10.00">#</text>
<text text-anchor="start" x="194.5" y="-844.5" font-family="Helvetica,sans-Serif" font-size="10.00">CheckParametersOnLoad()</text>
<text text-anchor="start" x="184" y="-829.5" font-family="Helvetica,sans-Serif" font-size="10.00">&#45;</text>
<text text-anchor="start" x="194.5" y="-829.5" font-family="Helvetica,sans-Serif" font-size="10.00">GetStateMessage()</text>
<polygon fill="#666666" stroke="#666666" points="177.5,-1079.5 177.5,-1079.5 354.5,-1079.5 354.5,-1079.5 177.5,-1079.5"/>
<polygon fill="#666666" stroke="#666666" points="177.5,-1064.5 177.5,-1064.5 354.5,-1064.5 354.5,-1064.5 177.5,-1064.5"/>
<polygon fill="none" stroke="#666666" points="177,-823 177,-1108 354,-1108 354,-823 177,-823"/>
</a>
</g>
</g>
<!-- Node5&#45;&gt;Node9 -->
<g id="edge9_Node000009_Node000005" class="edge">
<title>Node5&#45;&gt;Node9</title>
<g id="a_edge9_Node000009_Node000005"><a xlink:title=" ">
<path fill="none" stroke="#63b8ff" d="M195.63,-1155.94C201.44,-1140.19 207.41,-1123.99 213.31,-1108.01"/>
<polygon fill="none" stroke="#63b8ff" points="192.21,-1155.08 192.04,-1165.68 198.78,-1157.51 192.21,-1155.08"/>
</a>
</g>
</g>
<!-- Node6 -->
<g id="Node000006" class="node">
<title>Node6</title>
<g id="a_Node000006"><a xlink:href="classunsigned.html" target="_top" xlink:title=" ">
<polygon fill="white" stroke="transparent" points="55,-1499.5 0,-1499.5 0,-1450.5 55,-1450.5 55,-1499.5"/>
<text text-anchor="start" x="5.5" y="-1487" font-family="Helvetica,sans-Serif" font-size="10.00">unsigned</text>
<text text-anchor="start" x="26" y="-1472" font-family="Helvetica,sans-Serif" font-size="10.00"> </text>
<text text-anchor="start" x="26" y="-1457" font-family="Helvetica,sans-Serif" font-size="10.00"> </text>
<polygon fill="#bfbfbf" stroke="#bfbfbf" points="0.5,-1482 0.5,-1482 55.5,-1482 55.5,-1482 0.5,-1482"/>
<polygon fill="#bfbfbf" stroke="#bfbfbf" points="0.5,-1467 0.5,-1467 55.5,-1467 55.5,-1467 0.5,-1467"/>
<polygon fill="none" stroke="#bfbfbf" points="0,-1450.5 0,-1499.5 55,-1499.5 55,-1450.5 0,-1450.5"/>
</a>
</g>
</g>
<!-- Node6&#45;&gt;Node2 -->
<g id="edge13_Node000002_Node000006" class="edge">
<title>Node6&#45;&gt;Node2</title>
<g id="a_edge13_Node000002_Node000006"><a xlink:title=" ">
<path fill="none" stroke="#63b8ff" d="M24.02,-1450.24C19.05,-1414.18 10.5,-1343.42 10.5,-1283 10.5,-1283 10.5,-1283 10.5,-347.5 10.5,-304.52 36.16,-265.9 65.59,-235.75"/>
<polygon fill="none" stroke="#63b8ff" points="65.85,-235.5 67.32,-228.44 74.4,-227.07 72.93,-234.13 65.85,-235.5"/>
</a>
</g>
<text text-anchor="middle" x="60.5" y="-791.5" font-family="Helvetica,sans-Serif" font-size="10.00" fill="grey"> #mPdeSolutionSize</text>
</g>
<!-- Node6&#45;&gt;Node5 -->
<g id="edge5_Node000005_Node000006" class="edge">
<title>Node6&#45;&gt;Node5</title>
<g id="a_edge5_Node000005_Node000006"><a xlink:title=" ">
<path fill="none" stroke="#63b8ff" d="M32.75,-1450.37C35.67,-1439.54 39.88,-1426.74 45.5,-1416 46.77,-1413.57 48.09,-1411.15 49.44,-1408.72"/>
<polygon fill="none" stroke="#63b8ff" points="49.58,-1408.49 49.16,-1401.29 55.64,-1398.13 56.06,-1405.33 49.58,-1408.49"/>
</a>
</g>
<text text-anchor="middle" x="116.5" y="-1419" font-family="Helvetica,sans-Serif" font-size="10.00" fill="grey"> #mNumberOfStateVariables</text>
</g>
<!-- Node7 -->
<g id="Node000007" class="node">
<title>Node7</title>
<g id="a_Node000007"><a xlink:title=" ">
<polygon fill="white" stroke="transparent" points="293.5,-1505 123.5,-1505 123.5,-1445 293.5,-1445 293.5,-1505"/>
<text text-anchor="start" x="128.5" y="-1493" font-family="Helvetica,sans-Serif" font-size="10.00">shared_ptr&lt; AbstractOdeSystem</text>
<text text-anchor="start" x="174" y="-1482" font-family="Helvetica,sans-Serif" font-size="10.00">Information &gt;</text>
<text text-anchor="start" x="206.5" y="-1467" font-family="Helvetica,sans-Serif" font-size="10.00"> </text>
<text text-anchor="start" x="206.5" y="-1452" font-family="Helvetica,sans-Serif" font-size="10.00"> </text>
<polygon fill="#bfbfbf" stroke="#bfbfbf" points="123.5,-1477 123.5,-1477 293.5,-1477 293.5,-1477 123.5,-1477"/>
<polygon fill="#bfbfbf" stroke="#bfbfbf" points="123.5,-1462 123.5,-1462 293.5,-1462 293.5,-1462 123.5,-1462"/>
<polygon fill="none" stroke="#bfbfbf" points="123.5,-1445 123.5,-1505 293.5,-1505 293.5,-1445 123.5,-1445"/>
</a>
</g>
</g>
<!-- Node7&#45;&gt;Node5 -->
<g id="edge6_Node000005_Node000007" class="edge">
<title>Node7&#45;&gt;Node5</title>
<g id="a_edge6_Node000005_Node000007"><a xlink:title=" ">
<path fill="none" stroke="#63b8ff" d="M199.54,-1444.99C196.42,-1434.9 192.7,-1422.85 188.71,-1409.93"/>
<polygon fill="none" stroke="#63b8ff" points="188.68,-1409.85 183.09,-1405.29 185.14,-1398.38 190.73,-1402.93 188.68,-1409.85"/>
</a>
</g>
<text text-anchor="middle" x="235" y="-1419" font-family="Helvetica,sans-Serif" font-size="10.00" fill="grey"> #mpSystemInfo</text>
</g>
<!-- Node8 -->
<g id="Node000008" class="node">
<title>Node8</title>
<g id="a_Node000008"><a xlink:title=" ">
<polygon fill="white" stroke="transparent" points="480,-990 383,-990 383,-941 480,-941 480,-990"/>
<text text-anchor="start" x="388.5" y="-977.5" font-family="Helvetica,sans-Serif" font-size="10.00">vector&lt; double &gt;</text>
<text text-anchor="start" x="430" y="-962.5" font-family="Helvetica,sans-Serif" font-size="10.00"> </text>
<text text-anchor="start" x="430" y="-947.5" font-family="Helvetica,sans-Serif" font-size="10.00"> </text>
<polygon fill="#bfbfbf" stroke="#bfbfbf" points="383.5,-972.5 383.5,-972.5 480.5,-972.5 480.5,-972.5 383.5,-972.5"/>
<polygon fill="#bfbfbf" stroke="#bfbfbf" points="383.5,-957.5 383.5,-957.5 480.5,-957.5 480.5,-957.5 383.5,-957.5"/>
<polygon fill="none" stroke="#bfbfbf" points="383,-941 383,-990 480,-990 480,-941 383,-941"/>
</a>
</g>
</g>
<!-- Node8&#45;&gt;Node2 -->
<g id="edge12_Node000002_Node000008" class="edge">
<title>Node8&#45;&gt;Node2</title>
<g id="a_edge12_Node000002_Node000008"><a xlink:title=" ">
<path fill="none" stroke="#63b8ff" d="M434.43,-940.76C438.11,-905.85 442.78,-838.78 432.5,-783 387.76,-540.21 362.26,-475.26 234.5,-264 228.87,-254.7 222.28,-245.45 215.32,-236.58"/>
<polygon fill="none" stroke="#63b8ff" points="215.21,-236.45 208.32,-234.31 207.65,-227.13 214.54,-229.27 215.21,-236.45"/>
</a>
</g>
<text text-anchor="middle" x="382" y="-454" font-family="Helvetica,sans-Serif" font-size="10.00" fill="grey"> #mPdeSolution</text>
</g>
<!-- Node8&#45;&gt;Node4 -->
<g id="edge7_Node000004_Node000008" class="edge">
<title>Node8&#45;&gt;Node4</title>
<g id="a_edge7_Node000004_Node000008"><a xlink:title=" ">
<path fill="none" stroke="#63b8ff" d="M422.97,-940.78C411.77,-911.45 390.23,-860.79 362.5,-823 355.62,-813.62 351.51,-813.43 343.5,-805 324.15,-784.62 304.17,-762.31 285.26,-740.51"/>
<polygon fill="none" stroke="#63b8ff" points="285.07,-740.29 278.12,-738.36 277.23,-731.21 284.18,-733.13 285.07,-740.29"/>
</a>
</g>
<text text-anchor="middle" x="388" y="-797" font-family="Helvetica,sans-Serif" font-size="10.00" fill="grey"> #mParameters</text>
<text text-anchor="middle" x="388" y="-786" font-family="Helvetica,sans-Serif" font-size="10.00" fill="grey">#mStateVariables</text>
</g>
<!-- Node9&#45;&gt;Node4 -->
<g id="edge8_Node000004_Node000009" class="edge">
<title>Node9&#45;&gt;Node4</title>
<g id="a_edge8_Node000004_Node000009"><a xlink:title=" ">
<path fill="none" stroke="orange" d="M189.49,-812.98C188.78,-810.31 188.11,-807.65 187.5,-805 184.55,-792.26 182.59,-778.88 181.36,-765.4"/>
<polygon fill="orange" stroke="orange" points="186.14,-813.98 192.26,-822.63 192.87,-812.05 186.14,-813.98"/>
</a>
</g>
<text text-anchor="middle" x="254" y="-791.5" font-family="Helvetica,sans-Serif" font-size="10.00" fill="grey"> &lt; std::vector&lt; double &gt; &gt;</text>
</g>
<!-- Node10 -->
<g id="Node000010" class="node">
<title>Node10</title>
<g id="a_Node000010"><a xlink:title=" ">
<polygon fill="white" stroke="transparent" points="320.5,-1306.5 270.5,-1306.5 270.5,-1257.5 320.5,-1257.5 320.5,-1306.5"/>
<text text-anchor="start" x="275.5" y="-1294" font-family="Helvetica,sans-Serif" font-size="10.00">VECTOR</text>
<text text-anchor="start" x="293.5" y="-1279" font-family="Helvetica,sans-Serif" font-size="10.00"> </text>
<text text-anchor="start" x="293.5" y="-1264" font-family="Helvetica,sans-Serif" font-size="10.00"> </text>
<polygon fill="#bfbfbf" stroke="#bfbfbf" points="270.5,-1289 270.5,-1289 320.5,-1289 320.5,-1289 270.5,-1289"/>
<polygon fill="#bfbfbf" stroke="#bfbfbf" points="270.5,-1274 270.5,-1274 320.5,-1274 320.5,-1274 270.5,-1274"/>
<polygon fill="none" stroke="#bfbfbf" points="270.5,-1257.5 270.5,-1306.5 320.5,-1306.5 320.5,-1257.5 270.5,-1257.5"/>
</a>
</g>
</g>
<!-- Node10&#45;&gt;Node9 -->
<g id="edge10_Node000009_Node000010" class="edge">
<title>Node10&#45;&gt;Node9</title>
<g id="a_edge10_Node000009_Node000010"><a xlink:title=" ">
<path fill="none" stroke="#63b8ff" d="M293.25,-1257.36C290.4,-1227.55 285.27,-1173.7 280.18,-1120.38"/>
<polygon fill="none" stroke="#63b8ff" points="280.17,-1120.25 275.61,-1114.65 279.03,-1108.3 283.58,-1113.89 280.17,-1120.25"/>
</a>
</g>
<text text-anchor="middle" x="326" y="-1140" font-family="Helvetica,sans-Serif" font-size="10.00" fill="grey"> #mParameters</text>
<text text-anchor="middle" x="326" y="-1129" font-family="Helvetica,sans-Serif" font-size="10.00" fill="grey">#mStateVariables</text>
</g>
<!-- Node11 -->
<g id="Node000011" class="node">
<title>Node11</title>
<g id="a_Node000011"><a xlink:href="classbool.html" target="_top" xlink:title=" ">
<polygon fill="white" stroke="transparent" points="70.5,-647 38.5,-647 38.5,-598 70.5,-598 70.5,-647"/>
<text text-anchor="start" x="43.5" y="-634.5" font-family="Helvetica,sans-Serif" font-size="10.00">bool</text>
<text text-anchor="start" x="52.5" y="-619.5" font-family="Helvetica,sans-Serif" font-size="10.00"> </text>
<text text-anchor="start" x="52.5" y="-604.5" font-family="Helvetica,sans-Serif" font-size="10.00"> </text>
<polygon fill="#bfbfbf" stroke="#bfbfbf" points="38.5,-629.5 38.5,-629.5 70.5,-629.5 70.5,-629.5 38.5,-629.5"/>
<polygon fill="#bfbfbf" stroke="#bfbfbf" points="38.5,-614.5 38.5,-614.5 70.5,-614.5 70.5,-614.5 38.5,-614.5"/>
<polygon fill="none" stroke="#bfbfbf" points="38.5,-598 38.5,-647 70.5,-647 70.5,-598 38.5,-598"/>
</a>
</g>
</g>
<!-- Node11&#45;&gt;Node3 -->
<g id="edge11_Node000003_Node000011" class="edge">
<title>Node11&#45;&gt;Node3</title>
<g id="a_edge11_Node000003_Node000011"><a xlink:title=" ">
<path fill="none" stroke="#63b8ff" d="M48.39,-597.81C40.88,-563.86 31.4,-500.03 51.5,-451 56,-440.01 62.33,-429.58 69.65,-419.87"/>
<polygon fill="none" stroke="#63b8ff" points="69.73,-419.77 70.38,-412.59 77.26,-410.42 76.61,-417.6 69.73,-419.77"/>
</a>
</g>
<text text-anchor="middle" x="112" y="-454" font-family="Helvetica,sans-Serif" font-size="10.00" fill="grey"> #mUseAnalyticJacobian</text>
</g>
<!-- Node12 -->
<g id="Node000012" class="node">
<title>Node12</title>
<g id="a_Node000012"><a xlink:href="classdouble.html" target="_top" xlink:title=" ">
<polygon fill="white" stroke="transparent" points="300.5,-193.5 256.5,-193.5 256.5,-144.5 300.5,-144.5 300.5,-193.5"/>
<text text-anchor="start" x="261.5" y="-181" font-family="Helvetica,sans-Serif" font-size="10.00">double</text>
<text text-anchor="start" x="276.5" y="-166" font-family="Helvetica,sans-Serif" font-size="10.00"> </text>
<text text-anchor="start" x="276.5" y="-151" font-family="Helvetica,sans-Serif" font-size="10.00"> </text>
<polygon fill="#bfbfbf" stroke="#bfbfbf" points="256.5,-176 256.5,-176 300.5,-176 300.5,-176 256.5,-176"/>
<polygon fill="#bfbfbf" stroke="#bfbfbf" points="256.5,-161 256.5,-161 300.5,-161 300.5,-161 256.5,-161"/>
<polygon fill="none" stroke="#bfbfbf" points="256.5,-144.5 256.5,-193.5 300.5,-193.5 300.5,-144.5 256.5,-144.5"/>
</a>
</g>
</g>
<!-- Node12&#45;&gt;Node1 -->
<g id="edge14_Node000001_Node000012" class="edge">
<title>Node12&#45;&gt;Node1</title>
<g id="a_edge14_Node000001_Node000012"><a xlink:title=" ">
<path fill="none" stroke="#63b8ff" d="M267.35,-144.48C258.31,-125.42 245.35,-98.06 234.52,-75.22"/>
<polygon fill="none" stroke="#63b8ff" points="234.38,-74.94 228.2,-71.23 229.24,-64.09 235.43,-67.8 234.38,-74.94"/>
</a>
</g>
<text text-anchor="middle" x="255.5" y="-85" font-family="Helvetica,sans-Serif" font-size="10.00" fill="grey"> &#45;mA</text>
</g>
</g>
</svg>
