<?xml version="1.0" encoding="UTF-8" standalone="no"?>
<!DOCTYPE svg PUBLIC "-//W3C//DTD SVG 1.1//EN"
 "http://www.w3.org/Graphics/SVG/1.1/DTD/svg11.dtd">
<!-- Generated by graphviz version 2.43.0 (0)
 -->
<!-- Title: AbstractStimulusFactory&lt; ELEMENT_DIM, SPACE_DIM &gt; Pages: 1 -->
<svg width="1399pt" height="1659pt"
 viewBox="0.00 0.00 1399.35 1659.00" xmlns="http://www.w3.org/2000/svg" xmlns:xlink="http://www.w3.org/1999/xlink">
<g id="graph0" class="graph" transform="scale(1 1) rotate(0) translate(4 1655)">
<title>AbstractStimulusFactory&lt; ELEMENT_DIM, SPACE_DIM &gt;</title>
<!-- Node1 -->
<g id="Node000001" class="node">
<title>Node1</title>
<g id="a_Node000001"><a xlink:title=" ">
<polygon fill="#999999" stroke="transparent" points="1232.85,-176 1067.85,-176 1067.85,0 1232.85,0 1232.85,-176"/>
<text text-anchor="start" x="1073.35" y="-164" font-family="Helvetica,sans-Serif" font-size="10.00">AbstractStimulusFactory</text>
<text text-anchor="start" x="1073.35" y="-153" font-family="Helvetica,sans-Serif" font-size="10.00">&lt; ELEMENT_DIM, SPACE_DIM &gt;</text>
<text text-anchor="start" x="1148.85" y="-138" font-family="Helvetica,sans-Serif" font-size="10.00"> </text>
<text text-anchor="start" x="1074.35" y="-123" font-family="Helvetica,sans-Serif" font-size="10.00">+</text>
<text text-anchor="start" x="1089.35" y="-123" font-family="Helvetica,sans-Serif" font-size="10.00">CreateStimulusForNode()</text>
<text text-anchor="start" x="1074.35" y="-108" font-family="Helvetica,sans-Serif" font-size="10.00">+</text>
<text text-anchor="start" x="1089.35" y="-108" font-family="Helvetica,sans-Serif" font-size="10.00">GetNumberOfCells()</text>
<text text-anchor="start" x="1074.35" y="-93" font-family="Helvetica,sans-Serif" font-size="10.00">+</text>
<text text-anchor="start" x="1089.35" y="-93" font-family="Helvetica,sans-Serif" font-size="10.00">SetCompatibleExtracellular</text>
<text text-anchor="start" x="1089.35" y="-82" font-family="Helvetica,sans-Serif" font-size="10.00">Stimulus()</text>
<text text-anchor="start" x="1074.35" y="-67" font-family="Helvetica,sans-Serif" font-size="10.00">+</text>
<text text-anchor="start" x="1089.35" y="-67" font-family="Helvetica,sans-Serif" font-size="10.00">AbstractStimulusFactory()</text>
<text text-anchor="start" x="1074.35" y="-52" font-family="Helvetica,sans-Serif" font-size="10.00">+</text>
<text text-anchor="start" x="1089.35" y="-52" font-family="Helvetica,sans-Serif" font-size="10.00">~AbstractStimulusFactory()</text>
<text text-anchor="start" x="1074.35" y="-37" font-family="Helvetica,sans-Serif" font-size="10.00">+</text>
<text text-anchor="start" x="1089.35" y="-37" font-family="Helvetica,sans-Serif" font-size="10.00">SetMesh()</text>
<text text-anchor="start" x="1074.35" y="-22" font-family="Helvetica,sans-Serif" font-size="10.00">+</text>
<text text-anchor="start" x="1089.35" y="-22" font-family="Helvetica,sans-Serif" font-size="10.00">GetMesh()</text>
<text text-anchor="start" x="1074.35" y="-7" font-family="Helvetica,sans-Serif" font-size="10.00">+</text>
<text text-anchor="start" x="1089.35" y="-7" font-family="Helvetica,sans-Serif" font-size="10.00">GetRegionsToBeGrounded()</text>
<polygon fill="#666666" stroke="#666666" points="1068.35,-148 1068.35,-148 1233.35,-148 1233.35,-148 1068.35,-148"/>
<polygon fill="#666666" stroke="#666666" points="1068.35,-133 1068.35,-133 1233.35,-133 1233.35,-133 1068.35,-133"/>
<polygon fill="none" stroke="#666666" points="1067.85,0 1067.85,-176 1232.85,-176 1232.85,0 1067.85,0"/>
</a>
</g>
</g>
<!-- Node2 -->
<g id="Node000002" class="node">
<title>Node2</title>
<g id="a_Node000002"><a xlink:href="classAbstractTetrahedralMesh.html" target="_top" xlink:title=" ">
<polygon fill="white" stroke="transparent" points="1099.85,-508 912.85,-508 912.85,-223 1099.85,-223 1099.85,-508"/>
<text text-anchor="start" x="921.85" y="-495.5" font-family="Helvetica,sans-Serif" font-size="10.00">AbstractTetrahedralMesh</text>
<text text-anchor="start" x="921.85" y="-484.5" font-family="Helvetica,sans-Serif" font-size="10.00">&lt; ELEMENT_DIM, ELEMENT_DIM &gt;</text>
<text text-anchor="start" x="1004.85" y="-469.5" font-family="Helvetica,sans-Serif" font-size="10.00"> </text>
<text text-anchor="start" x="917.35" y="-454.5" font-family="Helvetica,sans-Serif" font-size="10.00">+</text>
<text text-anchor="start" x="930.35" y="-454.5" font-family="Helvetica,sans-Serif" font-size="10.00">GetElementIteratorBegin()</text>
<text text-anchor="start" x="917.35" y="-439.5" font-family="Helvetica,sans-Serif" font-size="10.00">+</text>
<text text-anchor="start" x="930.35" y="-439.5" font-family="Helvetica,sans-Serif" font-size="10.00">GetElementIteratorEnd()</text>
<text text-anchor="start" x="917.35" y="-424.5" font-family="Helvetica,sans-Serif" font-size="10.00">+</text>
<text text-anchor="start" x="930.35" y="-424.5" font-family="Helvetica,sans-Serif" font-size="10.00">AbstractTetrahedralMesh()</text>
<text text-anchor="start" x="917.35" y="-409.5" font-family="Helvetica,sans-Serif" font-size="10.00">+</text>
<text text-anchor="start" x="930.35" y="-409.5" font-family="Helvetica,sans-Serif" font-size="10.00">~AbstractTetrahedralMesh()</text>
<text text-anchor="start" x="917.35" y="-394.5" font-family="Helvetica,sans-Serif" font-size="10.00">+</text>
<text text-anchor="start" x="930.35" y="-394.5" font-family="Helvetica,sans-Serif" font-size="10.00">GetNumElements()</text>
<text text-anchor="start" x="917.35" y="-379.5" font-family="Helvetica,sans-Serif" font-size="10.00">+</text>
<text text-anchor="start" x="930.35" y="-379.5" font-family="Helvetica,sans-Serif" font-size="10.00">GetNumLocalElements()</text>
<text text-anchor="start" x="917.35" y="-364.5" font-family="Helvetica,sans-Serif" font-size="10.00">+</text>
<text text-anchor="start" x="930.35" y="-364.5" font-family="Helvetica,sans-Serif" font-size="10.00">GetNumBoundaryElements()</text>
<text text-anchor="start" x="917.35" y="-349.5" font-family="Helvetica,sans-Serif" font-size="10.00">+</text>
<text text-anchor="start" x="930.35" y="-349.5" font-family="Helvetica,sans-Serif" font-size="10.00">GetNumLocalBoundaryElements()</text>
<text text-anchor="start" x="917.35" y="-334.5" font-family="Helvetica,sans-Serif" font-size="10.00">+</text>
<text text-anchor="start" x="930.35" y="-334.5" font-family="Helvetica,sans-Serif" font-size="10.00">GetNumAllElements()</text>
<text text-anchor="start" x="917.35" y="-319.5" font-family="Helvetica,sans-Serif" font-size="10.00">+</text>
<text text-anchor="start" x="930.35" y="-319.5" font-family="Helvetica,sans-Serif" font-size="10.00">GetNumAllBoundaryElements()</text>
<text text-anchor="start" x="930.35" y="-304.5" font-family="Helvetica,sans-Serif" font-size="10.00">and 25 more...</text>
<text text-anchor="start" x="917.35" y="-289.5" font-family="Helvetica,sans-Serif" font-size="10.00">#</text>
<text text-anchor="start" x="930.35" y="-289.5" font-family="Helvetica,sans-Serif" font-size="10.00">SetElementOwnerships()</text>
<text text-anchor="start" x="919.85" y="-274.5" font-family="Helvetica,sans-Serif" font-size="10.00">&#45;</text>
<text text-anchor="start" x="930.35" y="-274.5" font-family="Helvetica,sans-Serif" font-size="10.00">SolveElementMapping()</text>
<text text-anchor="start" x="919.85" y="-259.5" font-family="Helvetica,sans-Serif" font-size="10.00">&#45;</text>
<text text-anchor="start" x="930.35" y="-259.5" font-family="Helvetica,sans-Serif" font-size="10.00">SolveBoundaryElementMapping()</text>
<text text-anchor="start" x="919.85" y="-244.5" font-family="Helvetica,sans-Serif" font-size="10.00">&#45;</text>
<text text-anchor="start" x="930.35" y="-244.5" font-family="Helvetica,sans-Serif" font-size="10.00">save()</text>
<text text-anchor="start" x="919.85" y="-229.5" font-family="Helvetica,sans-Serif" font-size="10.00">&#45;</text>
<text text-anchor="start" x="930.35" y="-229.5" font-family="Helvetica,sans-Serif" font-size="10.00">load()</text>
<polygon fill="#666666" stroke="#666666" points="913.35,-479.5 913.35,-479.5 1100.35,-479.5 1100.35,-479.5 913.35,-479.5"/>
<polygon fill="#666666" stroke="#666666" points="913.35,-464.5 913.35,-464.5 1100.35,-464.5 1100.35,-464.5 913.35,-464.5"/>
<polygon fill="none" stroke="#666666" points="912.85,-223 912.85,-508 1099.85,-508 1099.85,-223 912.85,-223"/>
</a>
</g>
</g>
<!-- Node2&#45;&gt;Node1 -->
<g id="edge1_Node000001_Node000002" class="edge">
<title>Node2&#45;&gt;Node1</title>
<g id="a_edge1_Node000001_Node000002"><a xlink:title=" ">
<path fill="none" stroke="#63b8ff" d="M1080.45,-222.71C1086.72,-210.73 1092.97,-198.78 1099,-187.23"/>
<polygon fill="none" stroke="#63b8ff" points="1099.16,-186.93 1098.39,-179.76 1104.71,-176.3 1105.48,-183.47 1099.16,-186.93"/>
</a>
</g>
<text text-anchor="middle" x="1118.35" y="-197" font-family="Helvetica,sans-Serif" font-size="10.00" fill="grey"> #mpMesh</text>
</g>
<!-- Node3 -->
<g id="Node000003" class="node">
<title>Node3</title>
<g id="a_Node000003"><a xlink:href="classAbstractMesh.html" target="_top" xlink:title=" ">
<polygon fill="white" stroke="transparent" points="678.85,-1168 531.85,-1168 531.85,-898 678.85,-898 678.85,-1168"/>
<text text-anchor="start" x="543.85" y="-1156" font-family="Helvetica,sans-Serif" font-size="10.00">AbstractMesh&lt; ELEMENT</text>
<text text-anchor="start" x="556.85" y="-1145" font-family="Helvetica,sans-Serif" font-size="10.00">_DIM, SPACE_DIM &gt;</text>
<text text-anchor="start" x="603.85" y="-1130" font-family="Helvetica,sans-Serif" font-size="10.00"> </text>
<text text-anchor="start" x="536.35" y="-1115" font-family="Helvetica,sans-Serif" font-size="10.00">+</text>
<text text-anchor="start" x="549.35" y="-1115" font-family="Helvetica,sans-Serif" font-size="10.00">GetNodeIteratorBegin()</text>
<text text-anchor="start" x="536.35" y="-1100" font-family="Helvetica,sans-Serif" font-size="10.00">+</text>
<text text-anchor="start" x="549.35" y="-1100" font-family="Helvetica,sans-Serif" font-size="10.00">GetNodeIteratorEnd()</text>
<text text-anchor="start" x="536.35" y="-1085" font-family="Helvetica,sans-Serif" font-size="10.00">+</text>
<text text-anchor="start" x="549.35" y="-1085" font-family="Helvetica,sans-Serif" font-size="10.00">AbstractMesh()</text>
<text text-anchor="start" x="536.35" y="-1070" font-family="Helvetica,sans-Serif" font-size="10.00">+</text>
<text text-anchor="start" x="549.35" y="-1070" font-family="Helvetica,sans-Serif" font-size="10.00">~AbstractMesh()</text>
<text text-anchor="start" x="536.35" y="-1055" font-family="Helvetica,sans-Serif" font-size="10.00">+</text>
<text text-anchor="start" x="549.35" y="-1055" font-family="Helvetica,sans-Serif" font-size="10.00">GetNumNodes()</text>
<text text-anchor="start" x="536.35" y="-1040" font-family="Helvetica,sans-Serif" font-size="10.00">+</text>
<text text-anchor="start" x="549.35" y="-1040" font-family="Helvetica,sans-Serif" font-size="10.00">GetNumBoundaryNodes()</text>
<text text-anchor="start" x="536.35" y="-1025" font-family="Helvetica,sans-Serif" font-size="10.00">+</text>
<text text-anchor="start" x="549.35" y="-1025" font-family="Helvetica,sans-Serif" font-size="10.00">GetNumAllNodes()</text>
<text text-anchor="start" x="536.35" y="-1010" font-family="Helvetica,sans-Serif" font-size="10.00">+</text>
<text text-anchor="start" x="549.35" y="-1010" font-family="Helvetica,sans-Serif" font-size="10.00">GetNumNodeAttributes()</text>
<text text-anchor="start" x="536.35" y="-995" font-family="Helvetica,sans-Serif" font-size="10.00">+</text>
<text text-anchor="start" x="549.35" y="-995" font-family="Helvetica,sans-Serif" font-size="10.00">GetNode()</text>
<text text-anchor="start" x="536.35" y="-980" font-family="Helvetica,sans-Serif" font-size="10.00">+</text>
<text text-anchor="start" x="549.35" y="-980" font-family="Helvetica,sans-Serif" font-size="10.00">GetNodeOrHaloNode()</text>
<text text-anchor="start" x="549.35" y="-965" font-family="Helvetica,sans-Serif" font-size="10.00">and 28 more...</text>
<text text-anchor="start" x="536.35" y="-950" font-family="Helvetica,sans-Serif" font-size="10.00">#</text>
<text text-anchor="start" x="549.35" y="-950" font-family="Helvetica,sans-Serif" font-size="10.00">SetElementOwnerships()</text>
<text text-anchor="start" x="536.35" y="-935" font-family="Helvetica,sans-Serif" font-size="10.00">#</text>
<text text-anchor="start" x="549.35" y="-935" font-family="Helvetica,sans-Serif" font-size="10.00">CalculateBoundingBox()</text>
<text text-anchor="start" x="538.85" y="-920" font-family="Helvetica,sans-Serif" font-size="10.00">&#45;</text>
<text text-anchor="start" x="549.35" y="-920" font-family="Helvetica,sans-Serif" font-size="10.00">SolveNodeMapping()</text>
<text text-anchor="start" x="538.85" y="-905" font-family="Helvetica,sans-Serif" font-size="10.00">&#45;</text>
<text text-anchor="start" x="549.35" y="-905" font-family="Helvetica,sans-Serif" font-size="10.00">serialize()</text>
<polygon fill="#666666" stroke="#666666" points="532.35,-1140 532.35,-1140 679.35,-1140 679.35,-1140 532.35,-1140"/>
<polygon fill="#666666" stroke="#666666" points="532.35,-1125 532.35,-1125 679.35,-1125 679.35,-1125 532.35,-1125"/>
<polygon fill="none" stroke="#666666" points="531.85,-898 531.85,-1168 678.85,-1168 678.85,-898 531.85,-898"/>
</a>
</g>
</g>
<!-- Node3&#45;&gt;Node2 -->
<g id="edge2_Node000002_Node000003" class="edge">
<title>Node3&#45;&gt;Node2</title>
<g id="a_edge2_Node000002_Node000003"><a xlink:title=" ">
<path fill="none" stroke="#63b8ff" d="M646.61,-888.01C683.52,-778.9 746.44,-630.44 840.35,-526 862.79,-501.04 888.38,-475.28 912.63,-451.94"/>
<polygon fill="none" stroke="#63b8ff" points="643.2,-887.18 643.34,-897.78 649.84,-889.4 643.2,-887.18"/>
</a>
</g>
</g>
<!-- Node13 -->
<g id="Node000013" class="node">
<title>Node13</title>
<g id="a_Node000013"><a xlink:href="classAbstractTetrahedralMesh.html" target="_top" xlink:title=" ">
<polygon fill="white" stroke="transparent" points="1099.85,-851 912.85,-851 912.85,-566 1099.85,-566 1099.85,-851"/>
<text text-anchor="start" x="929.35" y="-838.5" font-family="Helvetica,sans-Serif" font-size="10.00">AbstractTetrahedralMesh</text>
<text text-anchor="start" x="929.35" y="-827.5" font-family="Helvetica,sans-Serif" font-size="10.00">&lt; ELEMENT_DIM, SPACE_DIM &gt;</text>
<text text-anchor="start" x="1004.85" y="-812.5" font-family="Helvetica,sans-Serif" font-size="10.00"> </text>
<text text-anchor="start" x="917.35" y="-797.5" font-family="Helvetica,sans-Serif" font-size="10.00">+</text>
<text text-anchor="start" x="930.35" y="-797.5" font-family="Helvetica,sans-Serif" font-size="10.00">GetElementIteratorBegin()</text>
<text text-anchor="start" x="917.35" y="-782.5" font-family="Helvetica,sans-Serif" font-size="10.00">+</text>
<text text-anchor="start" x="930.35" y="-782.5" font-family="Helvetica,sans-Serif" font-size="10.00">GetElementIteratorEnd()</text>
<text text-anchor="start" x="917.35" y="-767.5" font-family="Helvetica,sans-Serif" font-size="10.00">+</text>
<text text-anchor="start" x="930.35" y="-767.5" font-family="Helvetica,sans-Serif" font-size="10.00">AbstractTetrahedralMesh()</text>
<text text-anchor="start" x="917.35" y="-752.5" font-family="Helvetica,sans-Serif" font-size="10.00">+</text>
<text text-anchor="start" x="930.35" y="-752.5" font-family="Helvetica,sans-Serif" font-size="10.00">~AbstractTetrahedralMesh()</text>
<text text-anchor="start" x="917.35" y="-737.5" font-family="Helvetica,sans-Serif" font-size="10.00">+</text>
<text text-anchor="start" x="930.35" y="-737.5" font-family="Helvetica,sans-Serif" font-size="10.00">GetNumElements()</text>
<text text-anchor="start" x="917.35" y="-722.5" font-family="Helvetica,sans-Serif" font-size="10.00">+</text>
<text text-anchor="start" x="930.35" y="-722.5" font-family="Helvetica,sans-Serif" font-size="10.00">GetNumLocalElements()</text>
<text text-anchor="start" x="917.35" y="-707.5" font-family="Helvetica,sans-Serif" font-size="10.00">+</text>
<text text-anchor="start" x="930.35" y="-707.5" font-family="Helvetica,sans-Serif" font-size="10.00">GetNumBoundaryElements()</text>
<text text-anchor="start" x="917.35" y="-692.5" font-family="Helvetica,sans-Serif" font-size="10.00">+</text>
<text text-anchor="start" x="930.35" y="-692.5" font-family="Helvetica,sans-Serif" font-size="10.00">GetNumLocalBoundaryElements()</text>
<text text-anchor="start" x="917.35" y="-677.5" font-family="Helvetica,sans-Serif" font-size="10.00">+</text>
<text text-anchor="start" x="930.35" y="-677.5" font-family="Helvetica,sans-Serif" font-size="10.00">GetNumAllElements()</text>
<text text-anchor="start" x="917.35" y="-662.5" font-family="Helvetica,sans-Serif" font-size="10.00">+</text>
<text text-anchor="start" x="930.35" y="-662.5" font-family="Helvetica,sans-Serif" font-size="10.00">GetNumAllBoundaryElements()</text>
<text text-anchor="start" x="930.35" y="-647.5" font-family="Helvetica,sans-Serif" font-size="10.00">and 25 more...</text>
<text text-anchor="start" x="917.35" y="-632.5" font-family="Helvetica,sans-Serif" font-size="10.00">#</text>
<text text-anchor="start" x="930.35" y="-632.5" font-family="Helvetica,sans-Serif" font-size="10.00">SetElementOwnerships()</text>
<text text-anchor="start" x="919.85" y="-617.5" font-family="Helvetica,sans-Serif" font-size="10.00">&#45;</text>
<text text-anchor="start" x="930.35" y="-617.5" font-family="Helvetica,sans-Serif" font-size="10.00">SolveElementMapping()</text>
<text text-anchor="start" x="919.85" y="-602.5" font-family="Helvetica,sans-Serif" font-size="10.00">&#45;</text>
<text text-anchor="start" x="930.35" y="-602.5" font-family="Helvetica,sans-Serif" font-size="10.00">SolveBoundaryElementMapping()</text>
<text text-anchor="start" x="919.85" y="-587.5" font-family="Helvetica,sans-Serif" font-size="10.00">&#45;</text>
<text text-anchor="start" x="930.35" y="-587.5" font-family="Helvetica,sans-Serif" font-size="10.00">save()</text>
<text text-anchor="start" x="919.85" y="-572.5" font-family="Helvetica,sans-Serif" font-size="10.00">&#45;</text>
<text text-anchor="start" x="930.35" y="-572.5" font-family="Helvetica,sans-Serif" font-size="10.00">load()</text>
<polygon fill="#666666" stroke="#666666" points="913.35,-822.5 913.35,-822.5 1100.35,-822.5 1100.35,-822.5 913.35,-822.5"/>
<polygon fill="#666666" stroke="#666666" points="913.35,-807.5 913.35,-807.5 1100.35,-807.5 1100.35,-807.5 913.35,-807.5"/>
<polygon fill="none" stroke="#666666" points="912.85,-566 912.85,-851 1099.85,-851 1099.85,-566 912.85,-566"/>
</a>
</g>
</g>
<!-- Node3&#45;&gt;Node13 -->
<g id="edge17_Node000013_Node000003" class="edge">
<title>Node3&#45;&gt;Node13</title>
<g id="a_edge17_Node000013_Node000003"><a xlink:title=" ">
<path fill="none" stroke="#63b8ff" d="M687.45,-970.47C721.01,-946.53 760.72,-919.7 798.35,-898 840.89,-873.47 860.13,-881.85 898.35,-851 903.27,-847.02 908.11,-842.77 912.83,-838.32"/>
<polygon fill="none" stroke="#63b8ff" points="685.14,-967.81 679.06,-976.49 689.22,-973.5 685.14,-967.81"/>
</a>
</g>
</g>
<!-- Node4 -->
<g id="Node000004" class="node">
<title>Node4</title>
<g id="a_Node000004"><a xlink:title=" ">
<polygon fill="white" stroke="transparent" points="558.35,-1398.5 452.35,-1398.5 452.35,-1349.5 558.35,-1349.5 558.35,-1398.5"/>
<text text-anchor="start" x="457.35" y="-1386" font-family="Helvetica,sans-Serif" font-size="10.00">boost::noncopyable</text>
<text text-anchor="start" x="503.35" y="-1371" font-family="Helvetica,sans-Serif" font-size="10.00"> </text>
<text text-anchor="start" x="503.35" y="-1356" font-family="Helvetica,sans-Serif" font-size="10.00"> </text>
<polygon fill="#bfbfbf" stroke="#bfbfbf" points="452.35,-1381 452.35,-1381 558.35,-1381 558.35,-1381 452.35,-1381"/>
<polygon fill="#bfbfbf" stroke="#bfbfbf" points="452.35,-1366 452.35,-1366 558.35,-1366 558.35,-1366 452.35,-1366"/>
<polygon fill="none" stroke="#bfbfbf" points="452.35,-1349.5 452.35,-1398.5 558.35,-1398.5 558.35,-1349.5 452.35,-1349.5"/>
</a>
</g>
</g>
<!-- Node4&#45;&gt;Node3 -->
<g id="edge3_Node000003_Node000004" class="edge">
<title>Node4&#45;&gt;Node3</title>
<g id="a_edge3_Node000003_Node000004"><a xlink:title=" ">
<path fill="none" stroke="#8b1a1a" d="M507.39,-1339.49C510.38,-1301.56 517.44,-1238.24 533.35,-1186 535.13,-1180.13 537.11,-1174.21 539.23,-1168.27"/>
<polygon fill="none" stroke="#8b1a1a" points="503.9,-1339.25 506.65,-1349.49 510.88,-1339.77 503.9,-1339.25"/>
</a>
</g>
</g>
<!-- Node5 -->
<g id="Node000005" class="node">
<title>Node5</title>
<g id="a_Node000005"><a xlink:title=" ">
<polygon fill="white" stroke="transparent" points="973.35,-1404 853.35,-1404 853.35,-1344 973.35,-1344 973.35,-1404"/>
<text text-anchor="start" x="858.35" y="-1392" font-family="Helvetica,sans-Serif" font-size="10.00">vector&lt; Node&lt; SPACE</text>
<text text-anchor="start" x="885.35" y="-1381" font-family="Helvetica,sans-Serif" font-size="10.00">_DIM &gt; * &gt;</text>
<text text-anchor="start" x="911.35" y="-1366" font-family="Helvetica,sans-Serif" font-size="10.00"> </text>
<text text-anchor="start" x="911.35" y="-1351" font-family="Helvetica,sans-Serif" font-size="10.00"> </text>
<polygon fill="#bfbfbf" stroke="#bfbfbf" points="853.35,-1376 853.35,-1376 973.35,-1376 973.35,-1376 853.35,-1376"/>
<polygon fill="#bfbfbf" stroke="#bfbfbf" points="853.35,-1361 853.35,-1361 973.35,-1361 973.35,-1361 853.35,-1361"/>
<polygon fill="none" stroke="#bfbfbf" points="853.35,-1344 853.35,-1404 973.35,-1404 973.35,-1344 853.35,-1344"/>
</a>
</g>
</g>
<!-- Node5&#45;&gt;Node3 -->
<g id="edge4_Node000003_Node000005" class="edge">
<title>Node5&#45;&gt;Node3</title>
<g id="a_edge4_Node000003_Node000005"><a xlink:title=" ">
<path fill="none" stroke="#63b8ff" d="M902.89,-1343.86C890.76,-1312.62 868.63,-1262.58 839.35,-1226 796.72,-1172.75 737.16,-1124.13 688.79,-1089.15"/>
<polygon fill="none" stroke="#63b8ff" points="688.72,-1089.1 681.52,-1088.86 678.97,-1082.11 686.17,-1082.35 688.72,-1089.1"/>
</a>
</g>
<text text-anchor="middle" x="873.85" y="-1200" font-family="Helvetica,sans-Serif" font-size="10.00" fill="grey"> #mBoundaryNodes</text>
<text text-anchor="middle" x="873.85" y="-1189" font-family="Helvetica,sans-Serif" font-size="10.00" fill="grey">#mNodes</text>
</g>
<!-- Node6 -->
<g id="Node000006" class="node">
<title>Node6</title>
<g id="a_Node000006"><a xlink:href="classDistributedVectorFactory.html" target="_top" xlink:title=" ">
<polygon fill="white" stroke="transparent" points="319.35,-1522 153.35,-1522 153.35,-1226 319.35,-1226 319.35,-1522"/>
<text text-anchor="start" x="175.85" y="-1510" font-family="Helvetica,sans-Serif" font-size="10.00">DistributedVectorFactory</text>
<text text-anchor="start" x="234.35" y="-1495" font-family="Helvetica,sans-Serif" font-size="10.00"> </text>
<text text-anchor="start" x="157.35" y="-1480" font-family="Helvetica,sans-Serif" font-size="10.00">+</text>
<text text-anchor="start" x="170.35" y="-1480" font-family="Helvetica,sans-Serif" font-size="10.00">DistributedVectorFactory()</text>
<text text-anchor="start" x="157.35" y="-1465" font-family="Helvetica,sans-Serif" font-size="10.00">+</text>
<text text-anchor="start" x="170.35" y="-1465" font-family="Helvetica,sans-Serif" font-size="10.00">DistributedVectorFactory()</text>
<text text-anchor="start" x="157.35" y="-1450" font-family="Helvetica,sans-Serif" font-size="10.00">+</text>
<text text-anchor="start" x="170.35" y="-1450" font-family="Helvetica,sans-Serif" font-size="10.00">DistributedVectorFactory()</text>
<text text-anchor="start" x="157.35" y="-1435" font-family="Helvetica,sans-Serif" font-size="10.00">+</text>
<text text-anchor="start" x="170.35" y="-1435" font-family="Helvetica,sans-Serif" font-size="10.00">DistributedVectorFactory()</text>
<text text-anchor="start" x="157.35" y="-1420" font-family="Helvetica,sans-Serif" font-size="10.00">+</text>
<text text-anchor="start" x="170.35" y="-1420" font-family="Helvetica,sans-Serif" font-size="10.00">~DistributedVectorFactory()</text>
<text text-anchor="start" x="157.35" y="-1405" font-family="Helvetica,sans-Serif" font-size="10.00">+</text>
<text text-anchor="start" x="170.35" y="-1405" font-family="Helvetica,sans-Serif" font-size="10.00">CreateVec()</text>
<text text-anchor="start" x="157.35" y="-1390" font-family="Helvetica,sans-Serif" font-size="10.00">+</text>
<text text-anchor="start" x="170.35" y="-1390" font-family="Helvetica,sans-Serif" font-size="10.00">CreateVec()</text>
<text text-anchor="start" x="157.35" y="-1375" font-family="Helvetica,sans-Serif" font-size="10.00">+</text>
<text text-anchor="start" x="170.35" y="-1375" font-family="Helvetica,sans-Serif" font-size="10.00">CreateDistributedVector()</text>
<text text-anchor="start" x="157.35" y="-1360" font-family="Helvetica,sans-Serif" font-size="10.00">+</text>
<text text-anchor="start" x="170.35" y="-1360" font-family="Helvetica,sans-Serif" font-size="10.00">IsGlobalIndexLocal()</text>
<text text-anchor="start" x="157.35" y="-1345" font-family="Helvetica,sans-Serif" font-size="10.00">+</text>
<text text-anchor="start" x="170.35" y="-1345" font-family="Helvetica,sans-Serif" font-size="10.00">GetLocalOwnership()</text>
<text text-anchor="start" x="170.35" y="-1330" font-family="Helvetica,sans-Serif" font-size="10.00">and 8 more...</text>
<text text-anchor="start" x="157.35" y="-1315" font-family="Helvetica,sans-Serif" font-size="10.00">+</text>
<text text-anchor="start" x="170.35" y="-1315" font-family="Helvetica,sans-Serif" font-size="10.00">SetCheckNumberOfProcesses</text>
<text text-anchor="start" x="170.35" y="-1304" font-family="Helvetica,sans-Serif" font-size="10.00">OnLoad()</text>
<text text-anchor="start" x="157.35" y="-1289" font-family="Helvetica,sans-Serif" font-size="10.00">+</text>
<text text-anchor="start" x="170.35" y="-1289" font-family="Helvetica,sans-Serif" font-size="10.00">CheckNumberOfProcessesOn</text>
<text text-anchor="start" x="170.35" y="-1278" font-family="Helvetica,sans-Serif" font-size="10.00">Load()</text>
<text text-anchor="start" x="159.85" y="-1263" font-family="Helvetica,sans-Serif" font-size="10.00">&#45;</text>
<text text-anchor="start" x="170.35" y="-1263" font-family="Helvetica,sans-Serif" font-size="10.00">CheckForPetsc()</text>
<text text-anchor="start" x="159.85" y="-1248" font-family="Helvetica,sans-Serif" font-size="10.00">&#45;</text>
<text text-anchor="start" x="170.35" y="-1248" font-family="Helvetica,sans-Serif" font-size="10.00">CalculateOwnership()</text>
<text text-anchor="start" x="159.85" y="-1233" font-family="Helvetica,sans-Serif" font-size="10.00">&#45;</text>
<text text-anchor="start" x="170.35" y="-1233" font-family="Helvetica,sans-Serif" font-size="10.00">serialize()</text>
<polygon fill="#666666" stroke="#666666" points="153.35,-1505 153.35,-1505 319.35,-1505 319.35,-1505 153.35,-1505"/>
<polygon fill="#666666" stroke="#666666" points="153.35,-1490 153.35,-1490 319.35,-1490 319.35,-1490 153.35,-1490"/>
<polygon fill="none" stroke="#666666" points="153.35,-1226 153.35,-1522 319.35,-1522 319.35,-1226 153.35,-1226"/>
</a>
</g>
</g>
<!-- Node6&#45;&gt;Node3 -->
<g id="edge5_Node000003_Node000006" class="edge">
<title>Node6&#45;&gt;Node3</title>
<g id="a_edge5_Node000003_Node000006"><a xlink:title=" ">
<path fill="none" stroke="#63b8ff" d="M319.53,-1249.22C337.03,-1227.01 356.3,-1204.94 376.35,-1186 419.78,-1144.95 475.53,-1107.69 521.15,-1080.33"/>
<polygon fill="none" stroke="#63b8ff" points="521.29,-1080.24 524.41,-1073.74 531.61,-1074.12 528.49,-1080.62 521.29,-1080.24"/>
</a>
</g>
<text text-anchor="middle" x="450.35" y="-1194.5" font-family="Helvetica,sans-Serif" font-size="10.00" fill="grey"> #mpDistributedVectorFactory</text>
</g>
<!-- Node6&#45;&gt;Node6 -->
<g id="edge9_Node000006_Node000006" class="edge">
<title>Node6&#45;&gt;Node6</title>
<g id="a_edge9_Node000006_Node000006"><a xlink:title=" ">
<path fill="none" stroke="#63b8ff" d="M319.55,-1402.92C330.27,-1397.91 337.35,-1388.27 337.35,-1374 337.35,-1364.86 334.44,-1357.62 329.54,-1352.28"/>
<polygon fill="none" stroke="#63b8ff" points="329.29,-1352.1 322.08,-1351.83 319.55,-1345.08 326.76,-1345.34 329.29,-1352.1"/>
</a>
</g>
<text text-anchor="middle" x="385.85" y="-1371.5" font-family="Helvetica,sans-Serif" font-size="10.00" fill="grey"> &#45;mpOriginalFactory</text>
</g>
<!-- Node7 -->
<g id="Node000007" class="node">
<title>Node7</title>
<g id="a_Node000007"><a xlink:href="classunsigned.html" target="_top" xlink:title=" ">
<polygon fill="white" stroke="transparent" points="263.85,-1651 208.85,-1651 208.85,-1602 263.85,-1602 263.85,-1651"/>
<text text-anchor="start" x="214.35" y="-1638.5" font-family="Helvetica,sans-Serif" font-size="10.00">unsigned</text>
<text text-anchor="start" x="234.85" y="-1623.5" font-family="Helvetica,sans-Serif" font-size="10.00"> </text>
<text text-anchor="start" x="234.85" y="-1608.5" font-family="Helvetica,sans-Serif" font-size="10.00"> </text>
<polygon fill="#bfbfbf" stroke="#bfbfbf" points="209.35,-1633.5 209.35,-1633.5 264.35,-1633.5 264.35,-1633.5 209.35,-1633.5"/>
<polygon fill="#bfbfbf" stroke="#bfbfbf" points="209.35,-1618.5 209.35,-1618.5 264.35,-1618.5 264.35,-1618.5 209.35,-1618.5"/>
<polygon fill="none" stroke="#bfbfbf" points="208.85,-1602 208.85,-1651 263.85,-1651 263.85,-1602 208.85,-1602"/>
</a>
</g>
</g>
<!-- Node7&#45;&gt;Node6 -->
<g id="edge6_Node000006_Node000007" class="edge">
<title>Node7&#45;&gt;Node6</title>
<g id="a_edge6_Node000006_Node000007"><a xlink:title=" ">
<path fill="none" stroke="#63b8ff" d="M236.35,-1601.93C236.35,-1585.14 236.35,-1560.93 236.35,-1534.52"/>
<polygon fill="none" stroke="#63b8ff" points="236.35,-1534.25 232.35,-1528.25 236.35,-1522.25 240.35,-1528.25 236.35,-1534.25"/>
</a>
</g>
<text text-anchor="middle" x="273.85" y="-1576" font-family="Helvetica,sans-Serif" font-size="10.00" fill="grey"> &#45;mHi</text>
<text text-anchor="middle" x="273.85" y="-1565" font-family="Helvetica,sans-Serif" font-size="10.00" fill="grey">&#45;mLo</text>
<text text-anchor="middle" x="273.85" y="-1554" font-family="Helvetica,sans-Serif" font-size="10.00" fill="grey">&#45;mNumProcs</text>
<text text-anchor="middle" x="273.85" y="-1543" font-family="Helvetica,sans-Serif" font-size="10.00" fill="grey">&#45;mProblemSize</text>
</g>
<!-- Node8 -->
<g id="Node000008" class="node">
<title>Node8</title>
<g id="a_Node000008"><a xlink:href="classbool.html" target="_top" xlink:title=" ">
<polygon fill="white" stroke="transparent" points="846.35,-1651 814.35,-1651 814.35,-1602 846.35,-1602 846.35,-1651"/>
<text text-anchor="start" x="819.35" y="-1638.5" font-family="Helvetica,sans-Serif" font-size="10.00">bool</text>
<text text-anchor="start" x="828.35" y="-1623.5" font-family="Helvetica,sans-Serif" font-size="10.00"> </text>
<text text-anchor="start" x="828.35" y="-1608.5" font-family="Helvetica,sans-Serif" font-size="10.00"> </text>
<polygon fill="#bfbfbf" stroke="#bfbfbf" points="814.35,-1633.5 814.35,-1633.5 846.35,-1633.5 846.35,-1633.5 814.35,-1633.5"/>
<polygon fill="#bfbfbf" stroke="#bfbfbf" points="814.35,-1618.5 814.35,-1618.5 846.35,-1618.5 846.35,-1618.5 814.35,-1618.5"/>
<polygon fill="none" stroke="#bfbfbf" points="814.35,-1602 814.35,-1651 846.35,-1651 846.35,-1602 814.35,-1602"/>
</a>
</g>
</g>
<!-- Node8&#45;&gt;Node2 -->
<g id="edge13_Node000002_Node000008" class="edge">
<title>Node8&#45;&gt;Node2</title>
<g id="a_edge13_Node000002_Node000008"><a xlink:title=" ">
<path fill="none" stroke="#63b8ff" d="M846.42,-1624.78C929.39,-1620.13 1305.35,-1587.33 1305.35,-1375 1305.35,-1375 1305.35,-1375 1305.35,-707.5 1305.35,-644.16 1328.57,-614.93 1288.35,-566 1251.84,-521.59 1220.09,-543.54 1165.35,-526 1143.11,-518.87 1132.56,-522.39 1110.06,-508.43"/>
<polygon fill="none" stroke="#63b8ff" points="1109.94,-508.34 1102.73,-508.27 1100.02,-501.58 1107.23,-501.66 1109.94,-508.34"/>
</a>
</g>
<text text-anchor="middle" x="1348.35" y="-1030.5" font-family="Helvetica,sans-Serif" font-size="10.00" fill="grey"> #mMeshIsLinear</text>
</g>
<!-- Node8&#45;&gt;Node3 -->
<g id="edge12_Node000003_Node000008" class="edge">
<title>Node8&#45;&gt;Node3</title>
<g id="a_edge12_Node000003_Node000008"><a xlink:title=" ">
<path fill="none" stroke="#63b8ff" d="M814.31,-1620.77C780.41,-1609.82 701.9,-1579.18 669.35,-1522 595.41,-1392.14 684.49,-1332.94 657.35,-1186 656.97,-1183.97 656.57,-1181.94 656.16,-1179.89"/>
<polygon fill="none" stroke="#63b8ff" points="656.15,-1179.84 650.95,-1174.84 653.56,-1168.12 658.76,-1173.12 656.15,-1179.84"/>
</a>
</g>
<text text-anchor="middle" x="756.85" y="-1371.5" font-family="Helvetica,sans-Serif" font-size="10.00" fill="grey"> #mMeshChangesDuringSimulation</text>
</g>
<!-- Node8&#45;&gt;Node6 -->
<g id="edge7_Node000006_Node000008" class="edge">
<title>Node8&#45;&gt;Node6</title>
<g id="a_edge7_Node000006_Node000008"><a xlink:title=" ">
<path fill="none" stroke="#63b8ff" d="M814.03,-1624.63C755.5,-1621.34 556.56,-1608.53 498.35,-1584 435.51,-1557.52 375.29,-1511.48 328.47,-1469.34"/>
<polygon fill="none" stroke="#63b8ff" points="328.46,-1469.33 321.33,-1468.25 319.59,-1461.25 326.72,-1462.33 328.46,-1469.33"/>
</a>
</g>
<text text-anchor="middle" x="572.35" y="-1570.5" font-family="Helvetica,sans-Serif" font-size="10.00" fill="grey"> &#45;mPetscStatusKnown</text>
<text text-anchor="start" x="498.35" y="-1559.5" font-family="Helvetica,sans-Serif" font-size="10.00" fill="grey">&#45;msCheckNumberOfProcesses</text>
<text text-anchor="middle" x="572.35" y="-1548.5" font-family="Helvetica,sans-Serif" font-size="10.00" fill="grey">OnLoad</text>
</g>
<!-- Node8&#45;&gt;Node13 -->
<g id="edge18_Node000013_Node000008" class="edge">
<title>Node8&#45;&gt;Node13</title>
<g id="a_edge18_Node000013_Node000008"><a xlink:title=" ">
<path fill="none" stroke="#63b8ff" d="M846.52,-1620.15C879.15,-1608.39 952.28,-1576.88 982.35,-1522 1042.31,-1412.56 1030.88,-1066.57 1018.08,-863.09"/>
<polygon fill="none" stroke="#63b8ff" points="1018.08,-863.08 1013.7,-857.34 1017.31,-851.1 1021.69,-856.83 1018.08,-863.08"/>
</a>
</g>
<text text-anchor="middle" x="1071.35" y="-1194.5" font-family="Helvetica,sans-Serif" font-size="10.00" fill="grey"> #mMeshIsLinear</text>
</g>
<!-- Node9 -->
<g id="Node000009" class="node">
<title>Node9</title>
<g id="a_Node000009"><a xlink:title=" ">
<polygon fill="white" stroke="transparent" points="136.35,-1651 28.35,-1651 28.35,-1602 136.35,-1602 136.35,-1651"/>
<text text-anchor="start" x="33.35" y="-1638.5" font-family="Helvetica,sans-Serif" font-size="10.00">vector&lt; unsigned &gt;</text>
<text text-anchor="start" x="80.35" y="-1623.5" font-family="Helvetica,sans-Serif" font-size="10.00"> </text>
<text text-anchor="start" x="80.35" y="-1608.5" font-family="Helvetica,sans-Serif" font-size="10.00"> </text>
<polygon fill="#bfbfbf" stroke="#bfbfbf" points="28.35,-1633.5 28.35,-1633.5 136.35,-1633.5 136.35,-1633.5 28.35,-1633.5"/>
<polygon fill="#bfbfbf" stroke="#bfbfbf" points="28.35,-1618.5 28.35,-1618.5 136.35,-1618.5 136.35,-1618.5 28.35,-1618.5"/>
<polygon fill="none" stroke="#bfbfbf" points="28.35,-1602 28.35,-1651 136.35,-1651 136.35,-1602 28.35,-1602"/>
</a>
</g>
</g>
<!-- Node9&#45;&gt;Node3 -->
<g id="edge10_Node000003_Node000009" class="edge">
<title>Node9&#45;&gt;Node3</title>
<g id="a_edge10_Node000003_Node000009"><a xlink:title=" ">
<path fill="none" stroke="#63b8ff" d="M69.51,-1601.55C35.71,-1534.88 -47.5,-1344.24 37.35,-1226 148.24,-1071.46 390.22,-1039.72 519.65,-1034.2"/>
<polygon fill="none" stroke="#63b8ff" points="519.82,-1034.2 525.67,-1029.98 531.81,-1033.75 525.97,-1037.97 519.82,-1034.2"/>
</a>
</g>
<text text-anchor="middle" x="90.85" y="-1371.5" font-family="Helvetica,sans-Serif" font-size="10.00" fill="grey"> #mNodePermutation</text>
</g>
<!-- Node9&#45;&gt;Node6 -->
<g id="edge8_Node000006_Node000009" class="edge">
<title>Node9&#45;&gt;Node6</title>
<g id="a_edge8_Node000006_Node000009"><a xlink:title=" ">
<path fill="none" stroke="#63b8ff" d="M96.83,-1601.93C108.96,-1582.21 127.38,-1552.25 146.89,-1520.51"/>
<polygon fill="none" stroke="#63b8ff" points="146.97,-1520.38 146.71,-1513.17 153.26,-1510.15 153.52,-1517.36 146.97,-1520.38"/>
</a>
</g>
<text text-anchor="middle" x="168.85" y="-1559.5" font-family="Helvetica,sans-Serif" font-size="10.00" fill="grey"> &#45;mGlobalLows</text>
</g>
<!-- Node10 -->
<g id="Node000010" class="node">
<title>Node10</title>
<g id="a_Node000010"><a xlink:title=" ">
<polygon fill="white" stroke="transparent" points="614.35,-1398.5 576.35,-1398.5 576.35,-1349.5 614.35,-1349.5 614.35,-1398.5"/>
<text text-anchor="start" x="581.35" y="-1386" font-family="Helvetica,sans-Serif" font-size="10.00">string</text>
<text text-anchor="start" x="593.35" y="-1371" font-family="Helvetica,sans-Serif" font-size="10.00"> </text>
<text text-anchor="start" x="593.35" y="-1356" font-family="Helvetica,sans-Serif" font-size="10.00"> </text>
<polygon fill="#bfbfbf" stroke="#bfbfbf" points="576.35,-1381 576.35,-1381 614.35,-1381 614.35,-1381 576.35,-1381"/>
<polygon fill="#bfbfbf" stroke="#bfbfbf" points="576.35,-1366 576.35,-1366 614.35,-1366 614.35,-1366 576.35,-1366"/>
<polygon fill="none" stroke="#bfbfbf" points="576.35,-1349.5 576.35,-1398.5 614.35,-1398.5 614.35,-1349.5 576.35,-1349.5"/>
</a>
</g>
</g>
<!-- Node10&#45;&gt;Node3 -->
<g id="edge11_Node000003_Node000010" class="edge">
<title>Node10&#45;&gt;Node3</title>
<g id="a_edge11_Node000003_Node000010"><a xlink:title=" ">
<path fill="none" stroke="#63b8ff" d="M596.35,-1349.48C596.53,-1318.54 592.78,-1263.68 567.35,-1226 559.07,-1213.74 546.43,-1220.98 539.35,-1208 534.66,-1199.42 537.36,-1195.57 539.35,-1186 539.77,-1183.97 540.22,-1181.93 540.7,-1179.88"/>
<polygon fill="none" stroke="#63b8ff" points="540.73,-1179.77 538.34,-1172.96 543.71,-1168.15 546.09,-1174.95 540.73,-1179.77"/>
</a>
</g>
<text text-anchor="middle" x="598.35" y="-1194.5" font-family="Helvetica,sans-Serif" font-size="10.00" fill="grey"> #mMeshFileBaseName</text>
</g>
<!-- Node11 -->
<g id="Node000011" class="node">
<title>Node11</title>
<g id="a_Node000011"><a xlink:title=" ">
<polygon fill="white" stroke="transparent" points="957.35,-1063 807.35,-1063 807.35,-1003 957.35,-1003 957.35,-1063"/>
<text text-anchor="start" x="812.35" y="-1051" font-family="Helvetica,sans-Serif" font-size="10.00">vector&lt; Element&lt; ELEMENT</text>
<text text-anchor="start" x="823.35" y="-1040" font-family="Helvetica,sans-Serif" font-size="10.00">_DIM, SPACE_DIM &gt; * &gt;</text>
<text text-anchor="start" x="880.35" y="-1025" font-family="Helvetica,sans-Serif" font-size="10.00"> </text>
<text text-anchor="start" x="880.35" y="-1010" font-family="Helvetica,sans-Serif" font-size="10.00"> </text>
<polygon fill="#bfbfbf" stroke="#bfbfbf" points="807.35,-1035 807.35,-1035 957.35,-1035 957.35,-1035 807.35,-1035"/>
<polygon fill="#bfbfbf" stroke="#bfbfbf" points="807.35,-1020 807.35,-1020 957.35,-1020 957.35,-1020 807.35,-1020"/>
<polygon fill="none" stroke="#bfbfbf" points="807.35,-1003 807.35,-1063 957.35,-1063 957.35,-1003 807.35,-1003"/>
</a>
</g>
</g>
<!-- Node11&#45;&gt;Node2 -->
<g id="edge14_Node000002_Node000011" class="edge">
<title>Node11&#45;&gt;Node2</title>
<g id="a_edge14_Node000002_Node000011"><a xlink:title=" ">
<path fill="none" stroke="#63b8ff" d="M870.84,-1002.78C843.05,-927.63 778.68,-722.58 836.35,-566 850.87,-526.55 877.05,-489.6 904.58,-458.47"/>
<polygon fill="none" stroke="#63b8ff" points="904.72,-458.32 905.78,-451.19 912.77,-449.43 911.71,-456.56 904.72,-458.32"/>
</a>
</g>
<text text-anchor="middle" x="869.85" y="-706" font-family="Helvetica,sans-Serif" font-size="10.00" fill="grey"> #mElements</text>
</g>
<!-- Node11&#45;&gt;Node13 -->
<g id="edge19_Node000013_Node000011" class="edge">
<title>Node11&#45;&gt;Node13</title>
<g id="a_edge19_Node000013_Node000011"><a xlink:title=" ">
<path fill="none" stroke="#63b8ff" d="M886.75,-1002.75C892.3,-969.59 903.22,-914.25 920.35,-869 921.18,-866.79 922.04,-864.58 922.92,-862.36"/>
<polygon fill="none" stroke="#63b8ff" points="922.94,-862.32 921.53,-855.25 927.52,-851.23 928.92,-858.3 922.94,-862.32"/>
</a>
</g>
<text text-anchor="middle" x="953.85" y="-872" font-family="Helvetica,sans-Serif" font-size="10.00" fill="grey"> #mElements</text>
</g>
<!-- Node12 -->
<g id="Node000012" class="node">
<title>Node12</title>
<g id="a_Node000012"><a xlink:title=" ">
<polygon fill="white" stroke="transparent" points="1201.35,-1068.5 1061.35,-1068.5 1061.35,-997.5 1201.35,-997.5 1201.35,-1068.5"/>
<text text-anchor="start" x="1066.35" y="-1056" font-family="Helvetica,sans-Serif" font-size="10.00">vector&lt; BoundaryElement</text>
<text text-anchor="start" x="1066.35" y="-1045" font-family="Helvetica,sans-Serif" font-size="10.00">&lt; ELEMENT_DIM&#45;1, SPACE</text>
<text text-anchor="start" x="1103.35" y="-1034" font-family="Helvetica,sans-Serif" font-size="10.00">_DIM &gt; * &gt;</text>
<text text-anchor="start" x="1129.35" y="-1019" font-family="Helvetica,sans-Serif" font-size="10.00"> </text>
<text text-anchor="start" x="1129.35" y="-1004" font-family="Helvetica,sans-Serif" font-size="10.00"> </text>
<polygon fill="#bfbfbf" stroke="#bfbfbf" points="1061.35,-1029 1061.35,-1029 1201.35,-1029 1201.35,-1029 1061.35,-1029"/>
<polygon fill="#bfbfbf" stroke="#bfbfbf" points="1061.35,-1014 1061.35,-1014 1201.35,-1014 1201.35,-1014 1061.35,-1014"/>
<polygon fill="none" stroke="#bfbfbf" points="1061.35,-997.5 1061.35,-1068.5 1201.35,-1068.5 1201.35,-997.5 1061.35,-997.5"/>
</a>
</g>
</g>
<!-- Node12&#45;&gt;Node2 -->
<g id="edge15_Node000002_Node000012" class="edge">
<title>Node12&#45;&gt;Node2</title>
<g id="a_edge15_Node000002_Node000012"><a xlink:title=" ">
<path fill="none" stroke="#63b8ff" d="M1137.37,-997.46C1154.23,-896.46 1197.49,-603.87 1147.35,-526 1138.62,-512.46 1127.34,-517.6 1110.2,-507.91"/>
<polygon fill="none" stroke="#63b8ff" points="1109.88,-507.69 1102.67,-507.52 1100.05,-500.8 1107.26,-500.97 1109.88,-507.69"/>
</a>
</g>
<text text-anchor="middle" x="1227.35" y="-706" font-family="Helvetica,sans-Serif" font-size="10.00" fill="grey"> #mBoundaryElements</text>
</g>
<!-- Node12&#45;&gt;Node13 -->
<g id="edge20_Node000013_Node000012" class="edge">
<title>Node12&#45;&gt;Node13</title>
<g id="a_edge20_Node000013_Node000012"><a xlink:title=" ">
<path fill="none" stroke="#63b8ff" d="M1103.77,-997.29C1081.78,-967.79 1051.98,-923.43 1035.35,-880 1033.24,-874.51 1031.29,-868.85 1029.48,-863.1"/>
<polygon fill="none" stroke="#63b8ff" points="1029.35,-862.68 1023.82,-858.06 1025.95,-851.17 1031.49,-855.79 1029.35,-862.68"/>
</a>
</g>
<text text-anchor="middle" x="1092.35" y="-872" font-family="Helvetica,sans-Serif" font-size="10.00" fill="grey"> #mBoundaryElements</text>
</g>
<!-- Node13&#45;&gt;Node2 -->
<g id="edge16_Node000002_Node000013" class="edge">
<title>Node13&#45;&gt;Node2</title>
<g id="a_edge16_Node000002_Node000013"><a xlink:title=" ">
<path fill="none" stroke="orange" d="M1006.35,-555.55C1006.35,-539.82 1006.35,-523.87 1006.35,-508.26"/>
<polygon fill="orange" stroke="orange" points="1002.85,-555.85 1006.35,-565.85 1009.85,-555.85 1002.85,-555.85"/>
</a>
</g>
<text text-anchor="start" x="1006.35" y="-540" font-family="Helvetica,sans-Serif" font-size="10.00" fill="grey"> &lt; ELEMENT_DIM, ELEMENT</text>
<text text-anchor="middle" x="1074.85" y="-529" font-family="Helvetica,sans-Serif" font-size="10.00" fill="grey">_DIM &gt;</text>
</g>
<!-- Node14 -->
<g id="Node000014" class="node">
<title>Node14</title>
<g id="a_Node000014"><a xlink:title=" ">
<polygon fill="white" stroke="transparent" points="1278.85,-395.5 1117.85,-395.5 1117.85,-335.5 1278.85,-335.5 1278.85,-395.5"/>
<text text-anchor="start" x="1123.35" y="-383.5" font-family="Helvetica,sans-Serif" font-size="10.00">vector&lt; AbstractChasteRegion</text>
<text text-anchor="start" x="1142.35" y="-372.5" font-family="Helvetica,sans-Serif" font-size="10.00">&lt; ELEMENT_DIM &gt; * &gt;</text>
<text text-anchor="start" x="1196.85" y="-357.5" font-family="Helvetica,sans-Serif" font-size="10.00"> </text>
<text text-anchor="start" x="1196.85" y="-342.5" font-family="Helvetica,sans-Serif" font-size="10.00"> </text>
<polygon fill="#bfbfbf" stroke="#bfbfbf" points="1118.35,-367.5 1118.35,-367.5 1279.35,-367.5 1279.35,-367.5 1118.35,-367.5"/>
<polygon fill="#bfbfbf" stroke="#bfbfbf" points="1118.35,-352.5 1118.35,-352.5 1279.35,-352.5 1279.35,-352.5 1118.35,-352.5"/>
<polygon fill="none" stroke="#bfbfbf" points="1117.85,-335.5 1117.85,-395.5 1278.85,-395.5 1278.85,-335.5 1117.85,-335.5"/>
</a>
</g>
</g>
<!-- Node14&#45;&gt;Node1 -->
<g id="edge21_Node000001_Node000014" class="edge">
<title>Node14&#45;&gt;Node1</title>
<g id="a_edge21_Node000001_Node000014"><a xlink:title=" ">
<path fill="none" stroke="#63b8ff" d="M1193.25,-335.28C1187.18,-300.4 1176.69,-240.23 1167.61,-188.1"/>
<polygon fill="none" stroke="#63b8ff" points="1167.58,-187.9 1162.61,-182.68 1165.52,-176.08 1170.49,-181.31 1167.58,-187.9"/>
</a>
</g>
<text text-anchor="middle" x="1223.35" y="-197" font-family="Helvetica,sans-Serif" font-size="10.00" fill="grey"> #mGroundedRegions</text>
</g>
</g>
</svg>
