<?xml version="1.0" encoding="UTF-8" standalone="no"?>
<!DOCTYPE svg PUBLIC "-//W3C//DTD SVG 1.1//EN"
 "http://www.w3.org/Graphics/SVG/1.1/DTD/svg11.dtd">
<!-- Generated by graphviz version 2.43.0 (0)
 -->
<!-- Title: BackwardEulerIvpOdeSolver Pages: 1 -->
<svg width="569pt" height="753pt"
 viewBox="0.00 0.00 569.03 753.00" xmlns="http://www.w3.org/2000/svg" xmlns:xlink="http://www.w3.org/1999/xlink">
<g id="graph0" class="graph" transform="scale(1 1) rotate(0) translate(4 749)">
<title>BackwardEulerIvpOdeSolver</title>
<!-- Node1 -->
<g id="Node000001" class="node">
<title>Node1</title>
<g id="a_Node000001"><a xlink:title=" ">
<polygon fill="#999999" stroke="transparent" points="495.53,-214 308.53,-214 308.53,0 495.53,0 495.53,-214"/>
<text text-anchor="start" x="333.03" y="-202" font-family="Helvetica,sans-Serif" font-size="10.00">BackwardEulerIvpOdeSolver</text>
<text text-anchor="start" x="400.53" y="-187" font-family="Helvetica,sans-Serif" font-size="10.00"> </text>
<text text-anchor="start" x="313.03" y="-172" font-family="Helvetica,sans-Serif" font-size="10.00">+</text>
<text text-anchor="start" x="326.03" y="-172" font-family="Helvetica,sans-Serif" font-size="10.00">BackwardEulerIvpOdeSolver()</text>
<text text-anchor="start" x="313.03" y="-157" font-family="Helvetica,sans-Serif" font-size="10.00">+</text>
<text text-anchor="start" x="326.03" y="-157" font-family="Helvetica,sans-Serif" font-size="10.00">~BackwardEulerIvpOdeSolver()</text>
<text text-anchor="start" x="313.03" y="-142" font-family="Helvetica,sans-Serif" font-size="10.00">+</text>
<text text-anchor="start" x="326.03" y="-142" font-family="Helvetica,sans-Serif" font-size="10.00">SetEpsilonForNumericalJacobian()</text>
<text text-anchor="start" x="313.03" y="-127" font-family="Helvetica,sans-Serif" font-size="10.00">+</text>
<text text-anchor="start" x="326.03" y="-127" font-family="Helvetica,sans-Serif" font-size="10.00">ForceUseOfNumericalJacobian()</text>
<text text-anchor="start" x="313.03" y="-112" font-family="Helvetica,sans-Serif" font-size="10.00">+</text>
<text text-anchor="start" x="326.03" y="-112" font-family="Helvetica,sans-Serif" font-size="10.00">GetSystemSize()</text>
<text text-anchor="start" x="313.03" y="-97" font-family="Helvetica,sans-Serif" font-size="10.00">#</text>
<text text-anchor="start" x="326.03" y="-97" font-family="Helvetica,sans-Serif" font-size="10.00">CalculateNextYValue()</text>
<text text-anchor="start" x="315.53" y="-82" font-family="Helvetica,sans-Serif" font-size="10.00">&#45;</text>
<text text-anchor="start" x="326.03" y="-82" font-family="Helvetica,sans-Serif" font-size="10.00">serialize()</text>
<text text-anchor="start" x="315.53" y="-67" font-family="Helvetica,sans-Serif" font-size="10.00">&#45;</text>
<text text-anchor="start" x="326.03" y="-67" font-family="Helvetica,sans-Serif" font-size="10.00">ComputeResidual()</text>
<text text-anchor="start" x="315.53" y="-52" font-family="Helvetica,sans-Serif" font-size="10.00">&#45;</text>
<text text-anchor="start" x="326.03" y="-52" font-family="Helvetica,sans-Serif" font-size="10.00">ComputeJacobian()</text>
<text text-anchor="start" x="315.53" y="-37" font-family="Helvetica,sans-Serif" font-size="10.00">&#45;</text>
<text text-anchor="start" x="326.03" y="-37" font-family="Helvetica,sans-Serif" font-size="10.00">SolveLinearSystem()</text>
<text text-anchor="start" x="315.53" y="-22" font-family="Helvetica,sans-Serif" font-size="10.00">&#45;</text>
<text text-anchor="start" x="326.03" y="-22" font-family="Helvetica,sans-Serif" font-size="10.00">ComputeNorm()</text>
<text text-anchor="start" x="315.53" y="-7" font-family="Helvetica,sans-Serif" font-size="10.00">&#45;</text>
<text text-anchor="start" x="326.03" y="-7" font-family="Helvetica,sans-Serif" font-size="10.00">ComputeNumericalJacobian()</text>
<polygon fill="#666666" stroke="#666666" points="309.03,-197 309.03,-197 496.03,-197 496.03,-197 309.03,-197"/>
<polygon fill="#666666" stroke="#666666" points="309.03,-182 309.03,-182 496.03,-182 496.03,-182 309.03,-182"/>
<polygon fill="none" stroke="#666666" points="308.53,0 308.53,-214 495.53,-214 495.53,0 308.53,0"/>
</a>
</g>
</g>
<!-- Node2 -->
<g id="Node000002" class="node">
<title>Node2</title>
<g id="a_Node000002"><a xlink:href="classAbstractOneStepIvpOdeSolver.html" target="_top" xlink:title=" ">
<polygon fill="white" stroke="transparent" points="404.03,-385 220.03,-385 220.03,-261 404.03,-261 404.03,-385"/>
<text text-anchor="start" x="238.03" y="-373" font-family="Helvetica,sans-Serif" font-size="10.00">AbstractOneStepIvpOdeSolver</text>
<text text-anchor="start" x="310.03" y="-358" font-family="Helvetica,sans-Serif" font-size="10.00"> </text>
<text text-anchor="start" x="224.03" y="-343" font-family="Helvetica,sans-Serif" font-size="10.00">+</text>
<text text-anchor="start" x="237.03" y="-343" font-family="Helvetica,sans-Serif" font-size="10.00">Solve()</text>
<text text-anchor="start" x="224.03" y="-328" font-family="Helvetica,sans-Serif" font-size="10.00">+</text>
<text text-anchor="start" x="237.03" y="-328" font-family="Helvetica,sans-Serif" font-size="10.00">Solve()</text>
<text text-anchor="start" x="224.03" y="-313" font-family="Helvetica,sans-Serif" font-size="10.00">+</text>
<text text-anchor="start" x="237.03" y="-313" font-family="Helvetica,sans-Serif" font-size="10.00">~AbstractOneStepIvpOdeSolver()</text>
<text text-anchor="start" x="224.03" y="-298" font-family="Helvetica,sans-Serif" font-size="10.00">#</text>
<text text-anchor="start" x="237.03" y="-298" font-family="Helvetica,sans-Serif" font-size="10.00">InternalSolve()</text>
<text text-anchor="start" x="224.03" y="-283" font-family="Helvetica,sans-Serif" font-size="10.00">#</text>
<text text-anchor="start" x="237.03" y="-283" font-family="Helvetica,sans-Serif" font-size="10.00">CalculateNextYValue()</text>
<text text-anchor="start" x="226.53" y="-268" font-family="Helvetica,sans-Serif" font-size="10.00">&#45;</text>
<text text-anchor="start" x="237.03" y="-268" font-family="Helvetica,sans-Serif" font-size="10.00">serialize()</text>
<polygon fill="#666666" stroke="#666666" points="220.03,-368 220.03,-368 404.03,-368 404.03,-368 220.03,-368"/>
<polygon fill="#666666" stroke="#666666" points="220.03,-353 220.03,-353 404.03,-353 404.03,-353 220.03,-353"/>
<polygon fill="none" stroke="#666666" points="220.03,-261 220.03,-385 404.03,-385 404.03,-261 220.03,-261"/>
</a>
</g>
</g>
<!-- Node2&#45;&gt;Node1 -->
<g id="edge1_Node000001_Node000002" class="edge">
<title>Node2&#45;&gt;Node1</title>
<g id="a_edge1_Node000001_Node000002"><a xlink:title=" ">
<path fill="none" stroke="#63b8ff" d="M341.69,-251.48C346.75,-239.46 352.1,-226.73 357.44,-214.03"/>
<polygon fill="none" stroke="#63b8ff" points="338.35,-250.39 337.7,-260.96 344.8,-253.1 338.35,-250.39"/>
</a>
</g>
</g>
<!-- Node3 -->
<g id="Node000003" class="node">
<title>Node3</title>
<g id="a_Node000003"><a xlink:href="classAbstractIvpOdeSolver.html" target="_top" xlink:title=" ">
<polygon fill="white" stroke="transparent" points="403.53,-619 228.53,-619 228.53,-465 403.53,-465 403.53,-619"/>
<text text-anchor="start" x="263.53" y="-607" font-family="Helvetica,sans-Serif" font-size="10.00">AbstractIvpOdeSolver</text>
<text text-anchor="start" x="314.53" y="-592" font-family="Helvetica,sans-Serif" font-size="10.00"> </text>
<text text-anchor="start" x="233.03" y="-577" font-family="Helvetica,sans-Serif" font-size="10.00">+</text>
<text text-anchor="start" x="246.03" y="-577" font-family="Helvetica,sans-Serif" font-size="10.00">Solve()</text>
<text text-anchor="start" x="233.03" y="-562" font-family="Helvetica,sans-Serif" font-size="10.00">+</text>
<text text-anchor="start" x="246.03" y="-562" font-family="Helvetica,sans-Serif" font-size="10.00">Solve()</text>
<text text-anchor="start" x="233.03" y="-547" font-family="Helvetica,sans-Serif" font-size="10.00">+</text>
<text text-anchor="start" x="246.03" y="-547" font-family="Helvetica,sans-Serif" font-size="10.00">SolveAndUpdateStateVariable()</text>
<text text-anchor="start" x="233.03" y="-532" font-family="Helvetica,sans-Serif" font-size="10.00">+</text>
<text text-anchor="start" x="246.03" y="-532" font-family="Helvetica,sans-Serif" font-size="10.00">StoppingEventOccurred()</text>
<text text-anchor="start" x="233.03" y="-517" font-family="Helvetica,sans-Serif" font-size="10.00">+</text>
<text text-anchor="start" x="246.03" y="-517" font-family="Helvetica,sans-Serif" font-size="10.00">GetStoppingTime()</text>
<text text-anchor="start" x="233.03" y="-502" font-family="Helvetica,sans-Serif" font-size="10.00">+</text>
<text text-anchor="start" x="246.03" y="-502" font-family="Helvetica,sans-Serif" font-size="10.00">AbstractIvpOdeSolver()</text>
<text text-anchor="start" x="233.03" y="-487" font-family="Helvetica,sans-Serif" font-size="10.00">+</text>
<text text-anchor="start" x="246.03" y="-487" font-family="Helvetica,sans-Serif" font-size="10.00">~AbstractIvpOdeSolver()</text>
<text text-anchor="start" x="235.53" y="-472" font-family="Helvetica,sans-Serif" font-size="10.00">&#45;</text>
<text text-anchor="start" x="246.03" y="-472" font-family="Helvetica,sans-Serif" font-size="10.00">serialize()</text>
<polygon fill="#666666" stroke="#666666" points="229.03,-602 229.03,-602 404.03,-602 404.03,-602 229.03,-602"/>
<polygon fill="#666666" stroke="#666666" points="229.03,-587 229.03,-587 404.03,-587 404.03,-587 229.03,-587"/>
<polygon fill="none" stroke="#666666" points="228.53,-465 228.53,-619 403.53,-619 403.53,-465 228.53,-465"/>
</a>
</g>
</g>
<!-- Node3&#45;&gt;Node2 -->
<g id="edge2_Node000002_Node000003" class="edge">
<title>Node3&#45;&gt;Node2</title>
<g id="a_edge2_Node000002_Node000003"><a xlink:title=" ">
<path fill="none" stroke="#63b8ff" d="M314.44,-454.57C314.01,-431.29 313.55,-406.59 313.16,-385.01"/>
<polygon fill="none" stroke="#63b8ff" points="310.94,-454.87 314.63,-464.8 317.94,-454.74 310.94,-454.87"/>
</a>
</g>
</g>
<!-- Node4 -->
<g id="Node000004" class="node">
<title>Node4</title>
<g id="a_Node000004"><a xlink:href="classIdentifiable.html" target="_top" xlink:title=" ">
<polygon fill="white" stroke="transparent" points="383.03,-745 207.03,-745 207.03,-666 383.03,-666 383.03,-745"/>
<text text-anchor="start" x="267.53" y="-732.5" font-family="Helvetica,sans-Serif" font-size="10.00">Identifiable</text>
<text text-anchor="start" x="293.03" y="-717.5" font-family="Helvetica,sans-Serif" font-size="10.00"> </text>
<text text-anchor="start" x="211.03" y="-702.5" font-family="Helvetica,sans-Serif" font-size="10.00">+</text>
<text text-anchor="start" x="224.03" y="-702.5" font-family="Helvetica,sans-Serif" font-size="10.00">~Identifiable()</text>
<text text-anchor="start" x="211.03" y="-687.5" font-family="Helvetica,sans-Serif" font-size="10.00">+</text>
<text text-anchor="start" x="224.03" y="-687.5" font-family="Helvetica,sans-Serif" font-size="10.00">GetIdentifier()</text>
<text text-anchor="start" x="213.53" y="-672.5" font-family="Helvetica,sans-Serif" font-size="10.00">&#45;</text>
<text text-anchor="start" x="224.03" y="-672.5" font-family="Helvetica,sans-Serif" font-size="10.00">TidyTemplatedExportIdentifier()</text>
<polygon fill="#666666" stroke="#666666" points="207.03,-727.5 207.03,-727.5 383.03,-727.5 383.03,-727.5 207.03,-727.5"/>
<polygon fill="#666666" stroke="#666666" points="207.03,-712.5 207.03,-712.5 383.03,-712.5 383.03,-712.5 207.03,-712.5"/>
<polygon fill="none" stroke="#666666" points="207.03,-666 207.03,-745 383.03,-745 383.03,-666 207.03,-666"/>
</a>
</g>
</g>
<!-- Node4&#45;&gt;Node3 -->
<g id="edge3_Node000003_Node000004" class="edge">
<title>Node4&#45;&gt;Node3</title>
<g id="a_edge3_Node000003_Node000004"><a xlink:title=" ">
<path fill="none" stroke="#63b8ff" d="M301.4,-655.55C302.9,-644.02 304.53,-631.46 306.14,-619.06"/>
<polygon fill="none" stroke="#63b8ff" points="297.88,-655.45 300.06,-665.82 304.82,-656.35 297.88,-655.45"/>
</a>
</g>
</g>
<!-- Node5 -->
<g id="Node000005" class="node">
<title>Node5</title>
<g id="a_Node000005"><a xlink:href="classbool.html" target="_top" xlink:title=" ">
<polygon fill="white" stroke="transparent" points="64.03,-730 32.03,-730 32.03,-681 64.03,-681 64.03,-730"/>
<text text-anchor="start" x="37.03" y="-717.5" font-family="Helvetica,sans-Serif" font-size="10.00">bool</text>
<text text-anchor="start" x="46.03" y="-702.5" font-family="Helvetica,sans-Serif" font-size="10.00"> </text>
<text text-anchor="start" x="46.03" y="-687.5" font-family="Helvetica,sans-Serif" font-size="10.00"> </text>
<polygon fill="#bfbfbf" stroke="#bfbfbf" points="32.03,-712.5 32.03,-712.5 64.03,-712.5 64.03,-712.5 32.03,-712.5"/>
<polygon fill="#bfbfbf" stroke="#bfbfbf" points="32.03,-697.5 32.03,-697.5 64.03,-697.5 64.03,-697.5 32.03,-697.5"/>
<polygon fill="none" stroke="#bfbfbf" points="32.03,-681 32.03,-730 64.03,-730 64.03,-681 32.03,-681"/>
</a>
</g>
</g>
<!-- Node5&#45;&gt;Node1 -->
<g id="edge9_Node000001_Node000005" class="edge">
<title>Node5&#45;&gt;Node1</title>
<g id="a_edge9_Node000001_Node000005"><a xlink:title=" ">
<path fill="none" stroke="#63b8ff" d="M37.92,-680.68C17.05,-627.65 -25.13,-497.13 21.03,-403 78.17,-286.5 205.93,-202.88 297.77,-155.06"/>
<polygon fill="none" stroke="#63b8ff" points="297.83,-155.03 301.34,-148.73 308.5,-149.55 304.99,-155.85 297.83,-155.03"/>
</a>
</g>
<text text-anchor="middle" x="103.53" y="-422.5" font-family="Helvetica,sans-Serif" font-size="10.00" fill="grey"> &#45;mForceUseOfNumericalJacobian</text>
</g>
<!-- Node5&#45;&gt;Node3 -->
<g id="edge4_Node000003_Node000005" class="edge">
<title>Node5&#45;&gt;Node3</title>
<g id="a_edge4_Node000003_Node000005"><a xlink:title=" ">
<path fill="none" stroke="#63b8ff" d="M64.18,-693.47C85.89,-679.02 126.05,-653.55 163.03,-637 184,-627.61 193.53,-630.29 217.55,-619.19"/>
<polygon fill="none" stroke="#63b8ff" points="217.65,-619.14 221.22,-612.87 228.38,-613.75 224.81,-620.02 217.65,-619.14"/>
</a>
</g>
<text text-anchor="middle" x="231.03" y="-640" font-family="Helvetica,sans-Serif" font-size="10.00" fill="grey"> #mStoppingEventOccurred</text>
</g>
<!-- Node6 -->
<g id="Node000006" class="node">
<title>Node6</title>
<g id="a_Node000006"><a xlink:href="classdouble.html" target="_top" xlink:title=" ">
<polygon fill="white" stroke="transparent" points="449.03,-730 405.03,-730 405.03,-681 449.03,-681 449.03,-730"/>
<text text-anchor="start" x="410.03" y="-717.5" font-family="Helvetica,sans-Serif" font-size="10.00">double</text>
<text text-anchor="start" x="425.03" y="-702.5" font-family="Helvetica,sans-Serif" font-size="10.00"> </text>
<text text-anchor="start" x="425.03" y="-687.5" font-family="Helvetica,sans-Serif" font-size="10.00"> </text>
<polygon fill="#bfbfbf" stroke="#bfbfbf" points="405.03,-712.5 405.03,-712.5 449.03,-712.5 449.03,-712.5 405.03,-712.5"/>
<polygon fill="#bfbfbf" stroke="#bfbfbf" points="405.03,-697.5 405.03,-697.5 449.03,-697.5 449.03,-697.5 405.03,-697.5"/>
<polygon fill="none" stroke="#bfbfbf" points="405.03,-681 405.03,-730 449.03,-730 449.03,-681 405.03,-681"/>
</a>
</g>
</g>
<!-- Node6&#45;&gt;Node1 -->
<g id="edge8_Node000001_Node000006" class="edge">
<title>Node6&#45;&gt;Node1</title>
<g id="a_edge8_Node000001_Node000006"><a xlink:title=" ">
<path fill="none" stroke="#63b8ff" d="M426.62,-680.93C425.4,-614.71 421.33,-421.4 413.03,-261 412.45,-249.75 411.76,-238.04 411.01,-226.33"/>
<polygon fill="none" stroke="#63b8ff" points="411,-226.12 406.62,-220.39 410.22,-214.14 414.6,-219.87 411,-226.12"/>
</a>
</g>
<text text-anchor="middle" x="490.53" y="-439" font-family="Helvetica,sans-Serif" font-size="10.00" fill="grey"> &#45;mJacobian</text>
<text text-anchor="middle" x="490.53" y="-428" font-family="Helvetica,sans-Serif" font-size="10.00" fill="grey">&#45;mNumericalJacobianEpsilon</text>
<text text-anchor="middle" x="490.53" y="-417" font-family="Helvetica,sans-Serif" font-size="10.00" fill="grey">&#45;mResidual</text>
<text text-anchor="middle" x="490.53" y="-406" font-family="Helvetica,sans-Serif" font-size="10.00" fill="grey">&#45;mUpdate</text>
</g>
<!-- Node6&#45;&gt;Node3 -->
<g id="edge5_Node000003_Node000006" class="edge">
<title>Node6&#45;&gt;Node3</title>
<g id="a_edge5_Node000003_Node000006"><a xlink:title=" ">
<path fill="none" stroke="#63b8ff" d="M409.23,-680.73C404.18,-675.26 398.32,-669.91 392.03,-666 367.29,-650.64 347.97,-670.12 329.03,-648 324.63,-642.85 321.22,-637.01 318.62,-630.78"/>
<polygon fill="none" stroke="#63b8ff" points="318.56,-630.59 312.86,-626.17 314.76,-619.21 320.45,-623.64 318.56,-630.59"/>
</a>
</g>
<text text-anchor="middle" x="373.53" y="-640" font-family="Helvetica,sans-Serif" font-size="10.00" fill="grey"> #mStoppingTime</text>
</g>
<!-- Node7 -->
<g id="Node000007" class="node">
<title>Node7</title>
<g id="a_Node000007"><a xlink:title=" ">
<polygon fill="white" stroke="transparent" points="210.53,-566.5 113.53,-566.5 113.53,-517.5 210.53,-517.5 210.53,-566.5"/>
<text text-anchor="start" x="119.03" y="-554" font-family="Helvetica,sans-Serif" font-size="10.00">vector&lt; double &gt;</text>
<text text-anchor="start" x="160.53" y="-539" font-family="Helvetica,sans-Serif" font-size="10.00"> </text>
<text text-anchor="start" x="160.53" y="-524" font-family="Helvetica,sans-Serif" font-size="10.00"> </text>
<polygon fill="#bfbfbf" stroke="#bfbfbf" points="114.03,-549 114.03,-549 211.03,-549 211.03,-549 114.03,-549"/>
<polygon fill="#bfbfbf" stroke="#bfbfbf" points="114.03,-534 114.03,-534 211.03,-534 211.03,-534 114.03,-534"/>
<polygon fill="none" stroke="#bfbfbf" points="113.53,-517.5 113.53,-566.5 210.53,-566.5 210.53,-517.5 113.53,-517.5"/>
</a>
</g>
</g>
<!-- Node7&#45;&gt;Node2 -->
<g id="edge6_Node000002_Node000007" class="edge">
<title>Node7&#45;&gt;Node2</title>
<g id="a_edge6_Node000002_Node000007"><a xlink:title=" ">
<path fill="none" stroke="#63b8ff" d="M166.65,-517.43C173.21,-488.37 187.38,-438.51 213.03,-403 215.21,-399.98 217.54,-397.01 219.99,-394.1"/>
<polygon fill="none" stroke="#63b8ff" points="220.13,-393.95 221.17,-386.81 228.15,-385.03 227.11,-392.16 220.13,-393.95"/>
</a>
</g>
<text text-anchor="middle" x="261.53" y="-422.5" font-family="Helvetica,sans-Serif" font-size="10.00" fill="grey"> &#45;mWorkingMemory</text>
</g>
<!-- Node8 -->
<g id="Node000008" class="node">
<title>Node8</title>
<g id="a_Node000008"><a xlink:href="classunsigned.html" target="_top" xlink:title=" ">
<polygon fill="white" stroke="transparent" points="515.53,-347.5 460.53,-347.5 460.53,-298.5 515.53,-298.5 515.53,-347.5"/>
<text text-anchor="start" x="466.03" y="-335" font-family="Helvetica,sans-Serif" font-size="10.00">unsigned</text>
<text text-anchor="start" x="486.53" y="-320" font-family="Helvetica,sans-Serif" font-size="10.00"> </text>
<text text-anchor="start" x="486.53" y="-305" font-family="Helvetica,sans-Serif" font-size="10.00"> </text>
<polygon fill="#bfbfbf" stroke="#bfbfbf" points="461.03,-330 461.03,-330 516.03,-330 516.03,-330 461.03,-330"/>
<polygon fill="#bfbfbf" stroke="#bfbfbf" points="461.03,-315 461.03,-315 516.03,-315 516.03,-315 461.03,-315"/>
<polygon fill="none" stroke="#bfbfbf" points="460.53,-298.5 460.53,-347.5 515.53,-347.5 515.53,-298.5 460.53,-298.5"/>
</a>
</g>
</g>
<!-- Node8&#45;&gt;Node1 -->
<g id="edge7_Node000001_Node000008" class="edge">
<title>Node8&#45;&gt;Node1</title>
<g id="a_edge7_Node000001_Node000008"><a xlink:title=" ">
<path fill="none" stroke="#63b8ff" d="M478.5,-298.28C471.16,-280.01 460.41,-253.27 449.28,-225.57"/>
<polygon fill="none" stroke="#63b8ff" points="449.14,-225.22 443.19,-221.15 444.66,-214.09 450.61,-218.16 449.14,-225.22"/>
</a>
</g>
<text text-anchor="middle" x="507.53" y="-235" font-family="Helvetica,sans-Serif" font-size="10.00" fill="grey"> &#45;mSizeOfOdeSystem</text>
</g>
</g>
</svg>
