<?xml version="1.0" encoding="UTF-8" standalone="no"?>
<!DOCTYPE svg PUBLIC "-//W3C//DTD SVG 1.1//EN"
 "http://www.w3.org/Graphics/SVG/1.1/DTD/svg11.dtd">
<!-- Generated by graphviz version 2.43.0 (0)
 -->
<!-- Title: AbstractFeCableIntegralAssembler&lt; ELEMENT_DIM, SPACE_DIM, PROBLEM_DIM, CAN_ASSEMBLE_VECTOR, CAN_ASSEMBLE_MATRIX, INTERPOLATION_LEVEL &gt; Pages: 1 -->
<svg width="1420pt" height="862pt"
 viewBox="0.00 0.00 1420.00 862.00" xmlns="http://www.w3.org/2000/svg" xmlns:xlink="http://www.w3.org/1999/xlink">
<g id="graph0" class="graph" transform="scale(1 1) rotate(0) translate(4 858)">
<title>AbstractFeCableIntegralAssembler&lt; ELEMENT_DIM, SPACE_DIM, PROBLEM_DIM, CAN_ASSEMBLE_VECTOR, CAN_ASSEMBLE_MATRIX, INTERPOLATION_LEVEL &gt;</title>
<!-- Node1 -->
<g id="Node000001" class="node">
<title>Node1</title>
<g id="a_Node000001"><a xlink:title=" ">
<polygon fill="#999999" stroke="transparent" points="1089.5,-209 848.5,-209 848.5,0 1089.5,0 1089.5,-209"/>
<text text-anchor="start" x="854" y="-196.5" font-family="Helvetica,sans-Serif" font-size="10.00">AbstractFeCableIntegralAssembler</text>
<text text-anchor="start" x="854" y="-185.5" font-family="Helvetica,sans-Serif" font-size="10.00">&lt; ELEMENT_DIM, SPACE_DIM, PROBLEM</text>
<text text-anchor="start" x="854" y="-174.5" font-family="Helvetica,sans-Serif" font-size="10.00">_DIM, CAN_ASSEMBLE_VECTOR, CAN</text>
<text text-anchor="start" x="854" y="-163.5" font-family="Helvetica,sans-Serif" font-size="10.00">_ASSEMBLE_MATRIX, INTERPOLATION_LEVEL &gt;</text>
<text text-anchor="start" x="967.5" y="-148.5" font-family="Helvetica,sans-Serif" font-size="10.00"> </text>
<text text-anchor="start" x="863.5" y="-133.5" font-family="Helvetica,sans-Serif" font-size="10.00">+</text>
<text text-anchor="start" x="887" y="-133.5" font-family="Helvetica,sans-Serif" font-size="10.00">AbstractFeCableIntegralAssembler()</text>
<text text-anchor="start" x="863.5" y="-118.5" font-family="Helvetica,sans-Serif" font-size="10.00">+</text>
<text text-anchor="start" x="887" y="-118.5" font-family="Helvetica,sans-Serif" font-size="10.00">~AbstractFeCableIntegral</text>
<text text-anchor="start" x="887" y="-107.5" font-family="Helvetica,sans-Serif" font-size="10.00">Assembler()</text>
<text text-anchor="start" x="863.5" y="-92.5" font-family="Helvetica,sans-Serif" font-size="10.00">#</text>
<text text-anchor="start" x="887" y="-92.5" font-family="Helvetica,sans-Serif" font-size="10.00">ComputeTransformedBasisFunction</text>
<text text-anchor="start" x="887" y="-81.5" font-family="Helvetica,sans-Serif" font-size="10.00">Derivatives()</text>
<text text-anchor="start" x="863.5" y="-66.5" font-family="Helvetica,sans-Serif" font-size="10.00">#</text>
<text text-anchor="start" x="887" y="-66.5" font-family="Helvetica,sans-Serif" font-size="10.00">DoAssemble()</text>
<text text-anchor="start" x="863.5" y="-51.5" font-family="Helvetica,sans-Serif" font-size="10.00">#</text>
<text text-anchor="start" x="887" y="-51.5" font-family="Helvetica,sans-Serif" font-size="10.00">ComputeCableMatrixTerm()</text>
<text text-anchor="start" x="863.5" y="-36.5" font-family="Helvetica,sans-Serif" font-size="10.00">#</text>
<text text-anchor="start" x="887" y="-36.5" font-family="Helvetica,sans-Serif" font-size="10.00">ComputeCableVectorTerm()</text>
<text text-anchor="start" x="863.5" y="-21.5" font-family="Helvetica,sans-Serif" font-size="10.00">#</text>
<text text-anchor="start" x="887" y="-21.5" font-family="Helvetica,sans-Serif" font-size="10.00">AssembleOnCableElement()</text>
<text text-anchor="start" x="863.5" y="-6.5" font-family="Helvetica,sans-Serif" font-size="10.00">#</text>
<text text-anchor="start" x="887" y="-6.5" font-family="Helvetica,sans-Serif" font-size="10.00">ElementAssemblyCriterion()</text>
<polygon fill="#666666" stroke="#666666" points="849,-158.5 849,-158.5 1090,-158.5 1090,-158.5 849,-158.5"/>
<polygon fill="#666666" stroke="#666666" points="849,-143.5 849,-143.5 1090,-143.5 1090,-143.5 849,-143.5"/>
<polygon fill="none" stroke="#666666" points="848.5,0 848.5,-209 1089.5,-209 1089.5,0 848.5,0"/>
</a>
</g>
</g>
<!-- Node2 -->
<g id="Node000002" class="node">
<title>Node2</title>
<g id="a_Node000002"><a xlink:href="classAbstractFeAssemblerCommon.html" target="_top" xlink:title=" ">
<polygon fill="white" stroke="transparent" points="848,-461 660,-461 660,-256 848,-256 848,-461"/>
<text text-anchor="start" x="666.5" y="-448.5" font-family="Helvetica,sans-Serif" font-size="10.00">AbstractFeAssemblerCommon</text>
<text text-anchor="start" x="666.5" y="-437.5" font-family="Helvetica,sans-Serif" font-size="10.00">&lt; ELEMENT_DIM, SPACE_DIM,</text>
<text text-anchor="start" x="666.5" y="-426.5" font-family="Helvetica,sans-Serif" font-size="10.00"> PROBLEM_DIM, CAN_ASSEMBLE</text>
<text text-anchor="start" x="666.5" y="-415.5" font-family="Helvetica,sans-Serif" font-size="10.00">_VECTOR, CAN_ASSEMBLE_MATRIX,</text>
<text text-anchor="start" x="690" y="-404.5" font-family="Helvetica,sans-Serif" font-size="10.00"> INTERPOLATION_LEVEL &gt;</text>
<text text-anchor="start" x="752" y="-389.5" font-family="Helvetica,sans-Serif" font-size="10.00"> </text>
<text text-anchor="start" x="664" y="-374.5" font-family="Helvetica,sans-Serif" font-size="10.00">+</text>
<text text-anchor="start" x="677" y="-374.5" font-family="Helvetica,sans-Serif" font-size="10.00">AbstractFeAssemblerCommon()</text>
<text text-anchor="start" x="664" y="-359.5" font-family="Helvetica,sans-Serif" font-size="10.00">+</text>
<text text-anchor="start" x="677" y="-359.5" font-family="Helvetica,sans-Serif" font-size="10.00">SetCurrentSolution()</text>
<text text-anchor="start" x="664" y="-344.5" font-family="Helvetica,sans-Serif" font-size="10.00">+</text>
<text text-anchor="start" x="677" y="-344.5" font-family="Helvetica,sans-Serif" font-size="10.00">~AbstractFeAssemblerCommon()</text>
<text text-anchor="start" x="664" y="-329.5" font-family="Helvetica,sans-Serif" font-size="10.00">#</text>
<text text-anchor="start" x="677" y="-329.5" font-family="Helvetica,sans-Serif" font-size="10.00">GetCurrentSolutionOrGuess</text>
<text text-anchor="start" x="677" y="-318.5" font-family="Helvetica,sans-Serif" font-size="10.00">Value()</text>
<text text-anchor="start" x="664" y="-303.5" font-family="Helvetica,sans-Serif" font-size="10.00">#</text>
<text text-anchor="start" x="677" y="-303.5" font-family="Helvetica,sans-Serif" font-size="10.00">ResetInterpolatedQuantities()</text>
<text text-anchor="start" x="664" y="-288.5" font-family="Helvetica,sans-Serif" font-size="10.00">#</text>
<text text-anchor="start" x="677" y="-288.5" font-family="Helvetica,sans-Serif" font-size="10.00">IncrementInterpolatedQuantities()</text>
<text text-anchor="start" x="664" y="-273.5" font-family="Helvetica,sans-Serif" font-size="10.00">#</text>
<text text-anchor="start" x="677" y="-273.5" font-family="Helvetica,sans-Serif" font-size="10.00">IncrementInterpolatedGradient</text>
<text text-anchor="start" x="677" y="-262.5" font-family="Helvetica,sans-Serif" font-size="10.00">Quantities()</text>
<polygon fill="#666666" stroke="#666666" points="660,-399.5 660,-399.5 848,-399.5 848,-399.5 660,-399.5"/>
<polygon fill="#666666" stroke="#666666" points="660,-384.5 660,-384.5 848,-384.5 848,-384.5 660,-384.5"/>
<polygon fill="none" stroke="#666666" points="660,-256 660,-461 848,-461 848,-256 660,-256"/>
</a>
</g>
</g>
<!-- Node2&#45;&gt;Node1 -->
<g id="edge1_Node000001_Node000002" class="edge">
<title>Node2&#45;&gt;Node1</title>
<g id="a_edge1_Node000001_Node000002"><a xlink:title=" ">
<path fill="none" stroke="#63b8ff" d="M847.59,-247.8C858.5,-235.01 869.61,-222 880.45,-209.29"/>
<polygon fill="none" stroke="#63b8ff" points="844.66,-245.85 840.83,-255.73 849.98,-250.39 844.66,-245.85"/>
</a>
</g>
</g>
<!-- Node3 -->
<g id="Node000003" class="node">
<title>Node3</title>
<g id="a_Node000003"><a xlink:href="classAbstractFeAssemblerInterface.html" target="_top" xlink:title=" ">
<polygon fill="white" stroke="transparent" points="366,-710 182,-710 182,-534 366,-534 366,-710"/>
<text text-anchor="start" x="193" y="-698" font-family="Helvetica,sans-Serif" font-size="10.00">AbstractFeAssemblerInterface</text>
<text text-anchor="start" x="193" y="-687" font-family="Helvetica,sans-Serif" font-size="10.00">&lt; CAN_ASSEMBLE_VECTOR, CAN</text>
<text text-anchor="start" x="218" y="-676" font-family="Helvetica,sans-Serif" font-size="10.00">_ASSEMBLE_MATRIX &gt;</text>
<text text-anchor="start" x="272" y="-661" font-family="Helvetica,sans-Serif" font-size="10.00"> </text>
<text text-anchor="start" x="186" y="-646" font-family="Helvetica,sans-Serif" font-size="10.00">+</text>
<text text-anchor="start" x="199" y="-646" font-family="Helvetica,sans-Serif" font-size="10.00">AbstractFeAssemblerInterface()</text>
<text text-anchor="start" x="186" y="-631" font-family="Helvetica,sans-Serif" font-size="10.00">+</text>
<text text-anchor="start" x="199" y="-631" font-family="Helvetica,sans-Serif" font-size="10.00">SetMatrixToAssemble()</text>
<text text-anchor="start" x="186" y="-616" font-family="Helvetica,sans-Serif" font-size="10.00">+</text>
<text text-anchor="start" x="199" y="-616" font-family="Helvetica,sans-Serif" font-size="10.00">SetVectorToAssemble()</text>
<text text-anchor="start" x="186" y="-601" font-family="Helvetica,sans-Serif" font-size="10.00">+</text>
<text text-anchor="start" x="199" y="-601" font-family="Helvetica,sans-Serif" font-size="10.00">Assemble()</text>
<text text-anchor="start" x="186" y="-586" font-family="Helvetica,sans-Serif" font-size="10.00">+</text>
<text text-anchor="start" x="199" y="-586" font-family="Helvetica,sans-Serif" font-size="10.00">AssembleMatrix()</text>
<text text-anchor="start" x="186" y="-571" font-family="Helvetica,sans-Serif" font-size="10.00">+</text>
<text text-anchor="start" x="199" y="-571" font-family="Helvetica,sans-Serif" font-size="10.00">AssembleVector()</text>
<text text-anchor="start" x="186" y="-556" font-family="Helvetica,sans-Serif" font-size="10.00">+</text>
<text text-anchor="start" x="199" y="-556" font-family="Helvetica,sans-Serif" font-size="10.00">~AbstractFeAssemblerInterface()</text>
<text text-anchor="start" x="186" y="-541" font-family="Helvetica,sans-Serif" font-size="10.00">#</text>
<text text-anchor="start" x="199" y="-541" font-family="Helvetica,sans-Serif" font-size="10.00">DoAssemble()</text>
<polygon fill="#666666" stroke="#666666" points="182,-671 182,-671 366,-671 366,-671 182,-671"/>
<polygon fill="#666666" stroke="#666666" points="182,-656 182,-656 366,-656 366,-656 182,-656"/>
<polygon fill="none" stroke="#666666" points="182,-534 182,-710 366,-710 366,-534 182,-534"/>
</a>
</g>
</g>
<!-- Node3&#45;&gt;Node2 -->
<g id="edge2_Node000002_Node000003" class="edge">
<title>Node3&#45;&gt;Node2</title>
<g id="a_edge2_Node000002_Node000003"><a xlink:title=" ">
<path fill="none" stroke="#63b8ff" d="M375.06,-565.94C459.14,-520.14 577.92,-455.43 659.98,-410.72"/>
<polygon fill="none" stroke="#63b8ff" points="373.37,-562.88 366.26,-570.73 376.72,-569.02 373.37,-562.88"/>
</a>
</g>
</g>
<!-- Node4 -->
<g id="Node000004" class="node">
<title>Node4</title>
<g id="a_Node000004"><a xlink:title=" ">
<polygon fill="white" stroke="transparent" points="191,-848.5 85,-848.5 85,-799.5 191,-799.5 191,-848.5"/>
<text text-anchor="start" x="90" y="-836" font-family="Helvetica,sans-Serif" font-size="10.00">boost::noncopyable</text>
<text text-anchor="start" x="136" y="-821" font-family="Helvetica,sans-Serif" font-size="10.00"> </text>
<text text-anchor="start" x="136" y="-806" font-family="Helvetica,sans-Serif" font-size="10.00"> </text>
<polygon fill="#bfbfbf" stroke="#bfbfbf" points="85,-831 85,-831 191,-831 191,-831 85,-831"/>
<polygon fill="#bfbfbf" stroke="#bfbfbf" points="85,-816 85,-816 191,-816 191,-816 85,-816"/>
<polygon fill="none" stroke="#bfbfbf" points="85,-799.5 85,-848.5 191,-848.5 191,-799.5 85,-799.5"/>
</a>
</g>
</g>
<!-- Node4&#45;&gt;Node3 -->
<g id="edge3_Node000003_Node000004" class="edge">
<title>Node4&#45;&gt;Node3</title>
<g id="a_edge3_Node000003_Node000004"><a xlink:title=" ">
<path fill="none" stroke="#8b1a1a" d="M159.96,-790.71C174.84,-768.82 195.29,-738.76 214.75,-710.13"/>
<polygon fill="none" stroke="#8b1a1a" points="156.86,-789.03 154.14,-799.27 162.65,-792.97 156.86,-789.03"/>
</a>
</g>
</g>
<!-- Node5 -->
<g id="Node000005" class="node">
<title>Node5</title>
<g id="a_Node000005"><a xlink:href="classVec.html" target="_top" xlink:title=" ">
<polygon fill="white" stroke="transparent" points="598,-848.5 570,-848.5 570,-799.5 598,-799.5 598,-848.5"/>
<text text-anchor="start" x="575" y="-836" font-family="Helvetica,sans-Serif" font-size="10.00">Vec</text>
<text text-anchor="start" x="582" y="-821" font-family="Helvetica,sans-Serif" font-size="10.00"> </text>
<text text-anchor="start" x="582" y="-806" font-family="Helvetica,sans-Serif" font-size="10.00"> </text>
<polygon fill="#bfbfbf" stroke="#bfbfbf" points="570,-831 570,-831 598,-831 598,-831 570,-831"/>
<polygon fill="#bfbfbf" stroke="#bfbfbf" points="570,-816 570,-816 598,-816 598,-816 570,-816"/>
<polygon fill="none" stroke="#bfbfbf" points="570,-799.5 570,-848.5 598,-848.5 598,-799.5 570,-799.5"/>
</a>
</g>
</g>
<!-- Node5&#45;&gt;Node3 -->
<g id="edge4_Node000003_Node000005" class="edge">
<title>Node5&#45;&gt;Node3</title>
<g id="a_edge4_Node000003_Node000005"><a xlink:title=" ">
<path fill="none" stroke="#63b8ff" d="M569.76,-815.92C554.57,-807.84 530.48,-793.46 514,-776 498.41,-759.48 504.56,-747.55 488,-732 456.4,-702.32 415.16,-678.76 377.33,-661.26"/>
<polygon fill="none" stroke="#63b8ff" points="377.18,-661.19 370.06,-662.37 366.24,-656.25 373.35,-655.07 377.18,-661.19"/>
</a>
</g>
<text text-anchor="middle" x="569.5" y="-751.5" font-family="Helvetica,sans-Serif" font-size="10.00" fill="grey"> #mVectorToAssemble</text>
</g>
<!-- Node9 -->
<g id="Node000009" class="node">
<title>Node9</title>
<g id="a_Node000009"><a xlink:href="classReplicatableVector.html" target="_top" xlink:title=" ">
<polygon fill="white" stroke="transparent" points="821,-714 687,-714 687,-530 821,-530 821,-714"/>
<text text-anchor="start" x="708" y="-702" font-family="Helvetica,sans-Serif" font-size="10.00">ReplicatableVector</text>
<text text-anchor="start" x="752" y="-687" font-family="Helvetica,sans-Serif" font-size="10.00"> </text>
<text text-anchor="start" x="691" y="-672" font-family="Helvetica,sans-Serif" font-size="10.00">+</text>
<text text-anchor="start" x="704" y="-672" font-family="Helvetica,sans-Serif" font-size="10.00">ReplicatableVector()</text>
<text text-anchor="start" x="691" y="-657" font-family="Helvetica,sans-Serif" font-size="10.00">+</text>
<text text-anchor="start" x="704" y="-657" font-family="Helvetica,sans-Serif" font-size="10.00">ReplicatableVector()</text>
<text text-anchor="start" x="691" y="-642" font-family="Helvetica,sans-Serif" font-size="10.00">+</text>
<text text-anchor="start" x="704" y="-642" font-family="Helvetica,sans-Serif" font-size="10.00">ReplicatableVector()</text>
<text text-anchor="start" x="691" y="-627" font-family="Helvetica,sans-Serif" font-size="10.00">+</text>
<text text-anchor="start" x="704" y="-627" font-family="Helvetica,sans-Serif" font-size="10.00">~ReplicatableVector()</text>
<text text-anchor="start" x="691" y="-612" font-family="Helvetica,sans-Serif" font-size="10.00">+</text>
<text text-anchor="start" x="704" y="-612" font-family="Helvetica,sans-Serif" font-size="10.00">GetSize()</text>
<text text-anchor="start" x="691" y="-597" font-family="Helvetica,sans-Serif" font-size="10.00">+</text>
<text text-anchor="start" x="704" y="-597" font-family="Helvetica,sans-Serif" font-size="10.00">Resize()</text>
<text text-anchor="start" x="691" y="-582" font-family="Helvetica,sans-Serif" font-size="10.00">+</text>
<text text-anchor="start" x="704" y="-582" font-family="Helvetica,sans-Serif" font-size="10.00">operator[]()</text>
<text text-anchor="start" x="691" y="-567" font-family="Helvetica,sans-Serif" font-size="10.00">+</text>
<text text-anchor="start" x="704" y="-567" font-family="Helvetica,sans-Serif" font-size="10.00">Replicate()</text>
<text text-anchor="start" x="691" y="-552" font-family="Helvetica,sans-Serif" font-size="10.00">+</text>
<text text-anchor="start" x="704" y="-552" font-family="Helvetica,sans-Serif" font-size="10.00">ReplicatePetscVector()</text>
<text text-anchor="start" x="693.5" y="-537" font-family="Helvetica,sans-Serif" font-size="10.00">&#45;</text>
<text text-anchor="start" x="704" y="-537" font-family="Helvetica,sans-Serif" font-size="10.00">RemovePetscContext()</text>
<polygon fill="#666666" stroke="#666666" points="687,-697 687,-697 821,-697 821,-697 687,-697"/>
<polygon fill="#666666" stroke="#666666" points="687,-682 687,-682 821,-682 821,-682 687,-682"/>
<polygon fill="none" stroke="#666666" points="687,-530 687,-714 821,-714 821,-530 687,-530"/>
</a>
</g>
</g>
<!-- Node5&#45;&gt;Node9 -->
<g id="edge12_Node000009_Node000005" class="edge">
<title>Node5&#45;&gt;Node9</title>
<g id="a_edge12_Node000009_Node000005"><a xlink:title=" ">
<path fill="none" stroke="#63b8ff" d="M598.08,-808.88C607.11,-799.68 618.97,-787.34 629,-776 645.58,-757.26 662.86,-736.78 679.1,-717.07"/>
<polygon fill="none" stroke="#63b8ff" points="679.11,-717.05 679.83,-709.87 686.72,-707.77 686.01,-714.95 679.11,-717.05"/>
</a>
</g>
<text text-anchor="middle" x="699.5" y="-751.5" font-family="Helvetica,sans-Serif" font-size="10.00" fill="grey"> &#45;mReplicated</text>
</g>
<!-- Node6 -->
<g id="Node000006" class="node">
<title>Node6</title>
<g id="a_Node000006"><a xlink:href="classMat.html" target="_top" xlink:title=" ">
<polygon fill="white" stroke="transparent" points="238.5,-848.5 209.5,-848.5 209.5,-799.5 238.5,-799.5 238.5,-848.5"/>
<text text-anchor="start" x="215" y="-836" font-family="Helvetica,sans-Serif" font-size="10.00">Mat</text>
<text text-anchor="start" x="222.5" y="-821" font-family="Helvetica,sans-Serif" font-size="10.00"> </text>
<text text-anchor="start" x="222.5" y="-806" font-family="Helvetica,sans-Serif" font-size="10.00"> </text>
<polygon fill="#bfbfbf" stroke="#bfbfbf" points="210,-831 210,-831 239,-831 239,-831 210,-831"/>
<polygon fill="#bfbfbf" stroke="#bfbfbf" points="210,-816 210,-816 239,-816 239,-816 210,-816"/>
<polygon fill="none" stroke="#bfbfbf" points="209.5,-799.5 209.5,-848.5 238.5,-848.5 238.5,-799.5 209.5,-799.5"/>
</a>
</g>
</g>
<!-- Node6&#45;&gt;Node3 -->
<g id="edge5_Node000003_Node000006" class="edge">
<title>Node6&#45;&gt;Node3</title>
<g id="a_edge5_Node000003_Node000006"><a xlink:title=" ">
<path fill="none" stroke="#63b8ff" d="M213.61,-799.16C206.96,-780.64 200.66,-754.43 207,-732 208.01,-728.43 209.17,-724.86 210.47,-721.3"/>
<polygon fill="none" stroke="#63b8ff" points="210.52,-721.16 209.05,-714.1 215.01,-710.03 216.47,-717.09 210.52,-721.16"/>
</a>
</g>
<text text-anchor="middle" x="263" y="-751.5" font-family="Helvetica,sans-Serif" font-size="10.00" fill="grey"> #mMatrixToAssemble</text>
</g>
<!-- Node7 -->
<g id="Node000007" class="node">
<title>Node7</title>
<g id="a_Node000007"><a xlink:href="classbool.html" target="_top" xlink:title=" ">
<polygon fill="white" stroke="transparent" points="357,-848.5 325,-848.5 325,-799.5 357,-799.5 357,-848.5"/>
<text text-anchor="start" x="330" y="-836" font-family="Helvetica,sans-Serif" font-size="10.00">bool</text>
<text text-anchor="start" x="339" y="-821" font-family="Helvetica,sans-Serif" font-size="10.00"> </text>
<text text-anchor="start" x="339" y="-806" font-family="Helvetica,sans-Serif" font-size="10.00"> </text>
<polygon fill="#bfbfbf" stroke="#bfbfbf" points="325,-831 325,-831 357,-831 357,-831 325,-831"/>
<polygon fill="#bfbfbf" stroke="#bfbfbf" points="325,-816 325,-816 357,-816 357,-816 325,-816"/>
<polygon fill="none" stroke="#bfbfbf" points="325,-799.5 325,-848.5 357,-848.5 357,-799.5 325,-799.5"/>
</a>
</g>
</g>
<!-- Node7&#45;&gt;Node3 -->
<g id="edge6_Node000003_Node000007" class="edge">
<title>Node7&#45;&gt;Node3</title>
<g id="a_edge6_Node000003_Node000007"><a xlink:title=" ">
<path fill="none" stroke="#63b8ff" d="M336.29,-799.15C332.38,-780.63 326.29,-754.41 319,-732 317.87,-728.51 316.67,-724.98 315.43,-721.42"/>
<polygon fill="none" stroke="#63b8ff" points="315.38,-721.3 309.58,-717.01 311.31,-710.01 317.11,-714.3 315.38,-721.3"/>
</a>
</g>
<text text-anchor="middle" x="407.5" y="-768" font-family="Helvetica,sans-Serif" font-size="10.00" fill="grey"> #mAssembleMatrix</text>
<text text-anchor="middle" x="407.5" y="-757" font-family="Helvetica,sans-Serif" font-size="10.00" fill="grey">#mAssembleVector</text>
<text text-anchor="middle" x="407.5" y="-746" font-family="Helvetica,sans-Serif" font-size="10.00" fill="grey">#mZeroMatrixBeforeAssembly</text>
<text text-anchor="middle" x="407.5" y="-735" font-family="Helvetica,sans-Serif" font-size="10.00" fill="grey">#mZeroVectorBeforeAssembly</text>
</g>
<!-- Node8 -->
<g id="Node000008" class="node">
<title>Node8</title>
<g id="a_Node000008"><a xlink:href="classPetscInt.html" target="_top" xlink:title=" ">
<polygon fill="white" stroke="transparent" points="50,-848.5 0,-848.5 0,-799.5 50,-799.5 50,-848.5"/>
<text text-anchor="start" x="5" y="-836" font-family="Helvetica,sans-Serif" font-size="10.00">PetscInt</text>
<text text-anchor="start" x="23" y="-821" font-family="Helvetica,sans-Serif" font-size="10.00"> </text>
<text text-anchor="start" x="23" y="-806" font-family="Helvetica,sans-Serif" font-size="10.00"> </text>
<polygon fill="#bfbfbf" stroke="#bfbfbf" points="0,-831 0,-831 50,-831 50,-831 0,-831"/>
<polygon fill="#bfbfbf" stroke="#bfbfbf" points="0,-816 0,-816 50,-816 50,-816 0,-816"/>
<polygon fill="none" stroke="#bfbfbf" points="0,-799.5 0,-848.5 50,-848.5 50,-799.5 0,-799.5"/>
</a>
</g>
</g>
<!-- Node8&#45;&gt;Node3 -->
<g id="edge7_Node000003_Node000008" class="edge">
<title>Node8&#45;&gt;Node3</title>
<g id="a_edge7_Node000003_Node000008"><a xlink:title=" ">
<path fill="none" stroke="#63b8ff" d="M26.8,-799.23C29.43,-779.25 35.94,-751.01 52,-732 82.71,-695.64 128.44,-670.34 170.43,-653.33"/>
<polygon fill="none" stroke="#63b8ff" points="170.7,-653.22 174.83,-647.31 181.87,-648.85 177.74,-654.76 170.7,-653.22"/>
</a>
</g>
<text text-anchor="middle" x="109.5" y="-757" font-family="Helvetica,sans-Serif" font-size="10.00" fill="grey"> #mOwnershipRangeHi</text>
<text text-anchor="middle" x="109.5" y="-746" font-family="Helvetica,sans-Serif" font-size="10.00" fill="grey">#mOwnershipRangeLo</text>
</g>
<!-- Node9&#45;&gt;Node2 -->
<g id="edge8_Node000002_Node000009" class="edge">
<title>Node9&#45;&gt;Node2</title>
<g id="a_edge8_Node000002_Node000009"><a xlink:title=" ">
<path fill="none" stroke="#63b8ff" d="M754,-529.91C754,-511.68 754,-492.32 754,-473.44"/>
<polygon fill="none" stroke="#63b8ff" points="754,-473.44 750,-467.44 754,-461.44 758,-467.44 754,-473.44"/>
</a>
</g>
<text text-anchor="start" x="754" y="-498.5" font-family="Helvetica,sans-Serif" font-size="10.00" fill="grey"> #mCurrentSolutionOrGuess</text>
<text text-anchor="middle" x="823.5" y="-487.5" font-family="Helvetica,sans-Serif" font-size="10.00" fill="grey">Replicated</text>
</g>
<!-- Node10 -->
<g id="Node000010" class="node">
<title>Node10</title>
<g id="a_Node000010"><a xlink:href="classdouble.html" target="_top" xlink:title=" ">
<polygon fill="white" stroke="transparent" points="832,-848.5 788,-848.5 788,-799.5 832,-799.5 832,-848.5"/>
<text text-anchor="start" x="793" y="-836" font-family="Helvetica,sans-Serif" font-size="10.00">double</text>
<text text-anchor="start" x="808" y="-821" font-family="Helvetica,sans-Serif" font-size="10.00"> </text>
<text text-anchor="start" x="808" y="-806" font-family="Helvetica,sans-Serif" font-size="10.00"> </text>
<polygon fill="#bfbfbf" stroke="#bfbfbf" points="788,-831 788,-831 832,-831 832,-831 788,-831"/>
<polygon fill="#bfbfbf" stroke="#bfbfbf" points="788,-816 788,-816 832,-816 832,-816 788,-816"/>
<polygon fill="none" stroke="#bfbfbf" points="788,-799.5 788,-848.5 832,-848.5 832,-799.5 788,-799.5"/>
</a>
</g>
</g>
<!-- Node10&#45;&gt;Node9 -->
<g id="edge9_Node000009_Node000010" class="edge">
<title>Node10&#45;&gt;Node9</title>
<g id="a_edge9_Node000009_Node000010"><a xlink:title=" ">
<path fill="none" stroke="#63b8ff" d="M803.36,-799.27C798.16,-780.71 790.55,-753.52 782.85,-726.02"/>
<polygon fill="none" stroke="#63b8ff" points="782.78,-725.8 777.31,-721.1 779.55,-714.25 785.02,-718.95 782.78,-725.8"/>
</a>
</g>
<text text-anchor="middle" x="820" y="-751.5" font-family="Helvetica,sans-Serif" font-size="10.00" fill="grey"> &#45;mpData</text>
</g>
<!-- Node11 -->
<g id="Node000011" class="node">
<title>Node11</title>
<g id="a_Node000011"><a xlink:href="classunsigned.html" target="_top" xlink:title=" ">
<polygon fill="white" stroke="transparent" points="977.5,-848.5 922.5,-848.5 922.5,-799.5 977.5,-799.5 977.5,-848.5"/>
<text text-anchor="start" x="928" y="-836" font-family="Helvetica,sans-Serif" font-size="10.00">unsigned</text>
<text text-anchor="start" x="948.5" y="-821" font-family="Helvetica,sans-Serif" font-size="10.00"> </text>
<text text-anchor="start" x="948.5" y="-806" font-family="Helvetica,sans-Serif" font-size="10.00"> </text>
<polygon fill="#bfbfbf" stroke="#bfbfbf" points="923,-831 923,-831 978,-831 978,-831 923,-831"/>
<polygon fill="#bfbfbf" stroke="#bfbfbf" points="923,-816 923,-816 978,-816 978,-816 923,-816"/>
<polygon fill="none" stroke="#bfbfbf" points="922.5,-799.5 922.5,-848.5 977.5,-848.5 977.5,-799.5 922.5,-799.5"/>
</a>
</g>
</g>
<!-- Node11&#45;&gt;Node1 -->
<g id="edge13_Node000001_Node000011" class="edge">
<title>Node11&#45;&gt;Node1</title>
<g id="a_edge13_Node000001_Node000011"><a xlink:title=" ">
<path fill="none" stroke="#63b8ff" d="M947.33,-799.24C941.65,-747.25 928.48,-619.46 924,-512 919.89,-413.55 933.46,-302.38 946.75,-221.22"/>
<polygon fill="none" stroke="#63b8ff" points="946.78,-221.05 943.82,-214.47 948.75,-209.21 951.71,-215.79 946.78,-221.05"/>
</a>
</g>
<text text-anchor="middle" x="984.5" y="-504" font-family="Helvetica,sans-Serif" font-size="10.00" fill="grey"> #CABLE_ELEMENT_DIM</text>
<text text-anchor="start" x="924" y="-493" font-family="Helvetica,sans-Serif" font-size="10.00" fill="grey">#NUM_CABLE_ELEMENT</text>
<text text-anchor="middle" x="984.5" y="-482" font-family="Helvetica,sans-Serif" font-size="10.00" fill="grey">_NODES</text>
</g>
<!-- Node11&#45;&gt;Node9 -->
<g id="edge10_Node000009_Node000011" class="edge">
<title>Node11&#45;&gt;Node9</title>
<g id="a_edge10_Node000009_Node000011"><a xlink:title=" ">
<path fill="none" stroke="#63b8ff" d="M922.36,-809.15C907.53,-800.86 889.57,-789.34 876,-776 859.3,-759.58 861.07,-750.72 847,-732 841.21,-724.3 835.04,-716.43 828.74,-708.62"/>
<polygon fill="none" stroke="#63b8ff" points="828.6,-708.44 821.7,-706.32 821.01,-699.14 827.9,-701.26 828.6,-708.44"/>
</a>
</g>
<text text-anchor="middle" x="894.5" y="-751.5" font-family="Helvetica,sans-Serif" font-size="10.00" fill="grey"> &#45;mSize</text>
</g>
<!-- Node14 -->
<g id="Node000014" class="node">
<title>Node14</title>
<g id="a_Node000014"><a xlink:href="classGaussianQuadratureRule.html" target="_top" xlink:title=" ">
<polygon fill="white" stroke="transparent" points="1164.5,-428 1003.5,-428 1003.5,-289 1164.5,-289 1164.5,-428"/>
<text text-anchor="start" x="1009" y="-415.5" font-family="Helvetica,sans-Serif" font-size="10.00">GaussianQuadratureRule&lt; 1 &gt;</text>
<text text-anchor="start" x="1082.5" y="-400.5" font-family="Helvetica,sans-Serif" font-size="10.00"> </text>
<text text-anchor="start" x="1010.5" y="-385.5" font-family="Helvetica,sans-Serif" font-size="10.00">+</text>
<text text-anchor="start" x="1026" y="-385.5" font-family="Helvetica,sans-Serif" font-size="10.00">GaussianQuadratureRule()</text>
<text text-anchor="start" x="1010.5" y="-370.5" font-family="Helvetica,sans-Serif" font-size="10.00">+</text>
<text text-anchor="start" x="1026" y="-370.5" font-family="Helvetica,sans-Serif" font-size="10.00">GaussianQuadratureRule()</text>
<text text-anchor="start" x="1010.5" y="-355.5" font-family="Helvetica,sans-Serif" font-size="10.00">+</text>
<text text-anchor="start" x="1026" y="-355.5" font-family="Helvetica,sans-Serif" font-size="10.00">GaussianQuadratureRule()</text>
<text text-anchor="start" x="1010.5" y="-340.5" font-family="Helvetica,sans-Serif" font-size="10.00">+</text>
<text text-anchor="start" x="1026" y="-340.5" font-family="Helvetica,sans-Serif" font-size="10.00">GaussianQuadratureRule()</text>
<text text-anchor="start" x="1010.5" y="-325.5" font-family="Helvetica,sans-Serif" font-size="10.00">+</text>
<text text-anchor="start" x="1026" y="-325.5" font-family="Helvetica,sans-Serif" font-size="10.00">rGetQuadPoint()</text>
<text text-anchor="start" x="1010.5" y="-310.5" font-family="Helvetica,sans-Serif" font-size="10.00">+</text>
<text text-anchor="start" x="1026" y="-310.5" font-family="Helvetica,sans-Serif" font-size="10.00">GetWeight()</text>
<text text-anchor="start" x="1010.5" y="-295.5" font-family="Helvetica,sans-Serif" font-size="10.00">+</text>
<text text-anchor="start" x="1026" y="-295.5" font-family="Helvetica,sans-Serif" font-size="10.00">GetNumQuadPoints()</text>
<polygon fill="#666666" stroke="#666666" points="1004,-410.5 1004,-410.5 1165,-410.5 1165,-410.5 1004,-410.5"/>
<polygon fill="#666666" stroke="#666666" points="1004,-395.5 1004,-395.5 1165,-395.5 1165,-395.5 1004,-395.5"/>
<polygon fill="none" stroke="#666666" points="1003.5,-289 1003.5,-428 1164.5,-428 1164.5,-289 1003.5,-289"/>
</a>
</g>
</g>
<!-- Node11&#45;&gt;Node14 -->
<g id="edge16_Node000014_Node000011" class="edge">
<title>Node11&#45;&gt;Node14</title>
<g id="a_edge16_Node000014_Node000011"><a xlink:title=" ">
<path fill="none" stroke="#63b8ff" d="M949.86,-799.34C949.96,-737.03 953.54,-570.38 988,-530 1006.35,-508.5 1029.63,-532.59 1049,-512 1067.15,-492.7 1076.55,-465.96 1081.24,-440.26"/>
<polygon fill="none" stroke="#63b8ff" points="1081.27,-440.02 1078.25,-433.47 1083.12,-428.16 1086.15,-434.71 1081.27,-440.02"/>
</a>
</g>
<text text-anchor="middle" x="1036" y="-619.5" font-family="Helvetica,sans-Serif" font-size="10.00" fill="grey"> &#45;mNumQuadPoints</text>
</g>
<!-- Node17 -->
<g id="Node000017" class="node">
<title>Node17</title>
<g id="a_Node000017"><a xlink:href="classGaussianQuadratureRule.html" target="_top" xlink:title=" ">
<polygon fill="white" stroke="transparent" points="1330.5,-697 1179.5,-697 1179.5,-547 1330.5,-547 1330.5,-697"/>
<text text-anchor="start" x="1194.5" y="-685" font-family="Helvetica,sans-Serif" font-size="10.00">GaussianQuadratureRule</text>
<text text-anchor="start" x="1208.5" y="-674" font-family="Helvetica,sans-Serif" font-size="10.00">&lt; ELEMENT_DIM &gt;</text>
<text text-anchor="start" x="1253.5" y="-659" font-family="Helvetica,sans-Serif" font-size="10.00"> </text>
<text text-anchor="start" x="1184" y="-644" font-family="Helvetica,sans-Serif" font-size="10.00">+</text>
<text text-anchor="start" x="1197" y="-644" font-family="Helvetica,sans-Serif" font-size="10.00">GaussianQuadratureRule()</text>
<text text-anchor="start" x="1184" y="-629" font-family="Helvetica,sans-Serif" font-size="10.00">+</text>
<text text-anchor="start" x="1197" y="-629" font-family="Helvetica,sans-Serif" font-size="10.00">rGetQuadPoint()</text>
<text text-anchor="start" x="1184" y="-614" font-family="Helvetica,sans-Serif" font-size="10.00">+</text>
<text text-anchor="start" x="1197" y="-614" font-family="Helvetica,sans-Serif" font-size="10.00">GetWeight()</text>
<text text-anchor="start" x="1184" y="-599" font-family="Helvetica,sans-Serif" font-size="10.00">+</text>
<text text-anchor="start" x="1197" y="-599" font-family="Helvetica,sans-Serif" font-size="10.00">GetNumQuadPoints()</text>
<text text-anchor="start" x="1184" y="-584" font-family="Helvetica,sans-Serif" font-size="10.00">+</text>
<text text-anchor="start" x="1197" y="-584" font-family="Helvetica,sans-Serif" font-size="10.00">GaussianQuadratureRule()</text>
<text text-anchor="start" x="1184" y="-569" font-family="Helvetica,sans-Serif" font-size="10.00">+</text>
<text text-anchor="start" x="1197" y="-569" font-family="Helvetica,sans-Serif" font-size="10.00">GaussianQuadratureRule()</text>
<text text-anchor="start" x="1184" y="-554" font-family="Helvetica,sans-Serif" font-size="10.00">+</text>
<text text-anchor="start" x="1197" y="-554" font-family="Helvetica,sans-Serif" font-size="10.00">GaussianQuadratureRule()</text>
<polygon fill="#666666" stroke="#666666" points="1180,-669 1180,-669 1331,-669 1331,-669 1180,-669"/>
<polygon fill="#666666" stroke="#666666" points="1180,-654 1180,-654 1331,-654 1331,-654 1180,-654"/>
<polygon fill="none" stroke="#666666" points="1179.5,-547 1179.5,-697 1330.5,-697 1330.5,-547 1179.5,-547"/>
</a>
</g>
</g>
<!-- Node11&#45;&gt;Node17 -->
<g id="edge20_Node000017_Node000011" class="edge">
<title>Node11&#45;&gt;Node17</title>
<g id="a_edge20_Node000017_Node000011"><a xlink:title=" ">
<path fill="none" stroke="#63b8ff" d="M977.68,-799.55C1003.56,-778.8 1044.11,-749.22 1084,-732 1117.86,-717.38 1132.72,-731.84 1165,-714 1170.08,-711.19 1175.06,-708.01 1179.91,-704.56"/>
<polygon fill="none" stroke="#63b8ff" points="1180.12,-704.4 1182.47,-697.58 1189.67,-697.13 1187.32,-703.95 1180.12,-704.4"/>
</a>
</g>
<text text-anchor="middle" x="1132" y="-751.5" font-family="Helvetica,sans-Serif" font-size="10.00" fill="grey"> &#45;mNumQuadPoints</text>
</g>
<!-- Node12 -->
<g id="Node000012" class="node">
<title>Node12</title>
<g id="a_Node000012"><a xlink:title=" ">
<polygon fill="white" stroke="transparent" points="770,-848.5 708,-848.5 708,-799.5 770,-799.5 770,-848.5"/>
<text text-anchor="start" x="713" y="-836" font-family="Helvetica,sans-Serif" font-size="10.00">VecScatter</text>
<text text-anchor="start" x="737" y="-821" font-family="Helvetica,sans-Serif" font-size="10.00"> </text>
<text text-anchor="start" x="737" y="-806" font-family="Helvetica,sans-Serif" font-size="10.00"> </text>
<polygon fill="#bfbfbf" stroke="#bfbfbf" points="708,-831 708,-831 770,-831 770,-831 708,-831"/>
<polygon fill="#bfbfbf" stroke="#bfbfbf" points="708,-816 708,-816 770,-816 770,-816 708,-816"/>
<polygon fill="none" stroke="#bfbfbf" points="708,-799.5 708,-848.5 770,-848.5 770,-799.5 708,-799.5"/>
</a>
</g>
</g>
<!-- Node12&#45;&gt;Node9 -->
<g id="edge11_Node000009_Node000012" class="edge">
<title>Node12&#45;&gt;Node9</title>
<g id="a_edge11_Node000009_Node000012"><a xlink:title=" ">
<path fill="none" stroke="#63b8ff" d="M740.06,-799.42C740.94,-781.04 742.32,-754.88 744,-732 744.14,-730.1 744.28,-728.19 744.43,-726.26"/>
<polygon fill="none" stroke="#63b8ff" points="744.43,-726.23 740.92,-719.94 745.38,-714.27 748.89,-720.57 744.43,-726.23"/>
</a>
</g>
<text text-anchor="middle" x="764" y="-751.5" font-family="Helvetica,sans-Serif" font-size="10.00" fill="grey"> &#45;mToAll</text>
</g>
<!-- Node13 -->
<g id="Node000013" class="node">
<title>Node13</title>
<g id="a_Node000013"><a xlink:title=" ">
<polygon fill="white" stroke="transparent" points="1311.5,-394 1182.5,-394 1182.5,-323 1311.5,-323 1311.5,-394"/>
<text text-anchor="start" x="1188" y="-381.5" font-family="Helvetica,sans-Serif" font-size="10.00">MixedDimensionMesh</text>
<text text-anchor="start" x="1188" y="-370.5" font-family="Helvetica,sans-Serif" font-size="10.00">&lt; ELEMENT_DIM, SPACE</text>
<text text-anchor="start" x="1225" y="-359.5" font-family="Helvetica,sans-Serif" font-size="10.00">_DIM &gt; *</text>
<text text-anchor="start" x="1245.5" y="-344.5" font-family="Helvetica,sans-Serif" font-size="10.00"> </text>
<text text-anchor="start" x="1245.5" y="-329.5" font-family="Helvetica,sans-Serif" font-size="10.00"> </text>
<polygon fill="#bfbfbf" stroke="#bfbfbf" points="1183,-354.5 1183,-354.5 1312,-354.5 1312,-354.5 1183,-354.5"/>
<polygon fill="#bfbfbf" stroke="#bfbfbf" points="1183,-339.5 1183,-339.5 1312,-339.5 1312,-339.5 1183,-339.5"/>
<polygon fill="none" stroke="#bfbfbf" points="1182.5,-323 1182.5,-394 1311.5,-394 1311.5,-323 1182.5,-323"/>
</a>
</g>
</g>
<!-- Node13&#45;&gt;Node1 -->
<g id="edge14_Node000001_Node000013" class="edge">
<title>Node13&#45;&gt;Node1</title>
<g id="a_edge14_Node000001_Node000013"><a xlink:title=" ">
<path fill="none" stroke="#63b8ff" d="M1226.09,-322.99C1212.65,-302.31 1194.01,-276.2 1174,-256 1151.55,-233.33 1125.44,-211.46 1099.52,-191.76"/>
<polygon fill="none" stroke="#63b8ff" points="1099.2,-191.52 1092,-191.11 1089.6,-184.31 1096.8,-184.72 1099.2,-191.52"/>
</a>
</g>
<text text-anchor="middle" x="1181" y="-230" font-family="Helvetica,sans-Serif" font-size="10.00" fill="grey"> #mpMesh</text>
</g>
<!-- Node14&#45;&gt;Node1 -->
<g id="edge15_Node000001_Node000014" class="edge">
<title>Node14&#45;&gt;Node1</title>
<g id="a_edge15_Node000001_Node000014"><a xlink:title=" ">
<path fill="none" stroke="#63b8ff" d="M1052.73,-288.97C1043.02,-267.71 1032.05,-243.67 1021.32,-220.15"/>
<polygon fill="none" stroke="#63b8ff" points="1021.23,-219.95 1015.1,-216.16 1016.25,-209.04 1022.38,-212.83 1021.23,-219.95"/>
</a>
</g>
<text text-anchor="middle" x="1078.5" y="-230" font-family="Helvetica,sans-Serif" font-size="10.00" fill="grey"> #mpCableQuadRule</text>
</g>
<!-- Node15 -->
<g id="Node000015" class="node">
<title>Node15</title>
<g id="a_Node000015"><a xlink:title=" ">
<polygon fill="white" stroke="transparent" points="1356.5,-854 1241.5,-854 1241.5,-794 1356.5,-794 1356.5,-854"/>
<text text-anchor="start" x="1247" y="-842" font-family="Helvetica,sans-Serif" font-size="10.00">vector&lt; ChastePoint</text>
<text text-anchor="start" x="1247" y="-831" font-family="Helvetica,sans-Serif" font-size="10.00">&lt; ELEMENT_DIM &gt; &gt;</text>
<text text-anchor="start" x="1297.5" y="-816" font-family="Helvetica,sans-Serif" font-size="10.00"> </text>
<text text-anchor="start" x="1297.5" y="-801" font-family="Helvetica,sans-Serif" font-size="10.00"> </text>
<polygon fill="#bfbfbf" stroke="#bfbfbf" points="1242,-826 1242,-826 1357,-826 1357,-826 1242,-826"/>
<polygon fill="#bfbfbf" stroke="#bfbfbf" points="1242,-811 1242,-811 1357,-811 1357,-811 1242,-811"/>
<polygon fill="none" stroke="#bfbfbf" points="1241.5,-794 1241.5,-854 1356.5,-854 1356.5,-794 1241.5,-794"/>
</a>
</g>
</g>
<!-- Node15&#45;&gt;Node14 -->
<g id="edge17_Node000014_Node000015" class="edge">
<title>Node15&#45;&gt;Node14</title>
<g id="a_edge17_Node000014_Node000015"><a xlink:title=" ">
<path fill="none" stroke="#63b8ff" d="M1328.86,-793.91C1332.99,-788.37 1336.62,-782.32 1339,-776 1357.42,-727.16 1386.78,-600.11 1340,-530 1317.83,-496.77 1206.52,-484.2 1174,-461 1164.05,-453.9 1154.43,-445.51 1145.42,-436.63"/>
<polygon fill="none" stroke="#63b8ff" points="1145.37,-436.59 1138.32,-435.1 1136.98,-428.01 1144.04,-429.5 1145.37,-436.59"/>
</a>
</g>
<text text-anchor="middle" x="1388.5" y="-619.5" font-family="Helvetica,sans-Serif" font-size="10.00" fill="grey"> &#45;mPoints</text>
</g>
<!-- Node15&#45;&gt;Node17 -->
<g id="edge21_Node000017_Node000015" class="edge">
<title>Node15&#45;&gt;Node17</title>
<g id="a_edge21_Node000017_Node000015"><a xlink:title=" ">
<path fill="none" stroke="#63b8ff" d="M1292.6,-793.92C1287.68,-771.54 1280.61,-739.39 1273.92,-709.01"/>
<polygon fill="none" stroke="#63b8ff" points="1273.86,-708.75 1268.67,-703.75 1271.29,-697.03 1276.48,-702.03 1273.86,-708.75"/>
</a>
</g>
<text text-anchor="middle" x="1311.5" y="-751.5" font-family="Helvetica,sans-Serif" font-size="10.00" fill="grey"> &#45;mPoints</text>
</g>
<!-- Node16 -->
<g id="Node000016" class="node">
<title>Node16</title>
<g id="a_Node000016"><a xlink:title=" ">
<polygon fill="white" stroke="transparent" points="1210.5,-848.5 1113.5,-848.5 1113.5,-799.5 1210.5,-799.5 1210.5,-848.5"/>
<text text-anchor="start" x="1119" y="-836" font-family="Helvetica,sans-Serif" font-size="10.00">vector&lt; double &gt;</text>
<text text-anchor="start" x="1160.5" y="-821" font-family="Helvetica,sans-Serif" font-size="10.00"> </text>
<text text-anchor="start" x="1160.5" y="-806" font-family="Helvetica,sans-Serif" font-size="10.00"> </text>
<polygon fill="#bfbfbf" stroke="#bfbfbf" points="1114,-831 1114,-831 1211,-831 1211,-831 1114,-831"/>
<polygon fill="#bfbfbf" stroke="#bfbfbf" points="1114,-816 1114,-816 1211,-816 1211,-816 1114,-816"/>
<polygon fill="none" stroke="#bfbfbf" points="1113.5,-799.5 1113.5,-848.5 1210.5,-848.5 1210.5,-799.5 1113.5,-799.5"/>
</a>
</g>
</g>
<!-- Node16&#45;&gt;Node14 -->
<g id="edge18_Node000014_Node000016" class="edge">
<title>Node16&#45;&gt;Node14</title>
<g id="a_edge18_Node000014_Node000016"><a xlink:title=" ">
<path fill="none" stroke="#63b8ff" d="M1149.04,-799.11C1138,-777.53 1122.71,-744.57 1115,-714 1091.82,-622.12 1085.29,-513.09 1083.77,-440.44"/>
<polygon fill="none" stroke="#63b8ff" points="1083.77,-440.2 1079.67,-434.27 1083.56,-428.2 1087.67,-434.13 1083.77,-440.2"/>
</a>
</g>
<text text-anchor="middle" x="1143" y="-619.5" font-family="Helvetica,sans-Serif" font-size="10.00" fill="grey"> &#45;mWeights</text>
</g>
<!-- Node16&#45;&gt;Node17 -->
<g id="edge22_Node000017_Node000016" class="edge">
<title>Node16&#45;&gt;Node17</title>
<g id="a_edge22_Node000017_Node000016"><a xlink:title=" ">
<path fill="none" stroke="#63b8ff" d="M1173.03,-799.27C1183.54,-776.68 1199.99,-741.31 1215.4,-708.16"/>
<polygon fill="none" stroke="#63b8ff" points="1215.52,-707.9 1214.42,-700.78 1220.58,-697.02 1221.68,-704.15 1215.52,-707.9"/>
</a>
</g>
<text text-anchor="middle" x="1230" y="-751.5" font-family="Helvetica,sans-Serif" font-size="10.00" fill="grey"> &#45;mWeights</text>
</g>
<!-- Node17&#45;&gt;Node14 -->
<g id="edge19_Node000014_Node000017" class="edge">
<title>Node17&#45;&gt;Node14</title>
<g id="a_edge19_Node000014_Node000017"><a xlink:title=" ">
<path fill="none" stroke="orange" d="M1200.95,-538.34C1177.74,-502.85 1150.94,-461.87 1128.85,-428.09"/>
<polygon fill="orange" stroke="orange" points="1198.05,-540.31 1206.46,-546.76 1203.91,-536.48 1198.05,-540.31"/>
</a>
</g>
<text text-anchor="middle" x="1195" y="-493" font-family="Helvetica,sans-Serif" font-size="10.00" fill="grey"> &lt; 1 &gt;</text>
</g>
</g>
</svg>
