<?xml version="1.0" encoding="UTF-8" standalone="no"?>
<!DOCTYPE svg PUBLIC "-//W3C//DTD SVG 1.1//EN"
 "http://www.w3.org/Graphics/SVG/1.1/DTD/svg11.dtd">
<!-- Generated by graphviz version 2.43.0 (0)
 -->
<!-- Title: AbstractMeshReader&lt; ELEMENT_DIM, SPACE_DIM &gt;::ElementIterator Pages: 1 -->
<svg width="709pt" height="394pt"
 viewBox="0.00 0.00 708.50 394.00" xmlns="http://www.w3.org/2000/svg" xmlns:xlink="http://www.w3.org/1999/xlink">
<g id="graph0" class="graph" transform="scale(1 1) rotate(0) translate(4 390)">
<title>AbstractMeshReader&lt; ELEMENT_DIM, SPACE_DIM &gt;::ElementIterator</title>
<!-- Node1 -->
<g id="Node000001" class="node">
<title>Node1</title>
<g id="a_Node000001"><a xlink:title=" ">
<polygon fill="#999999" stroke="transparent" points="415.5,-161 286.5,-161 286.5,0 415.5,0 415.5,-161"/>
<text text-anchor="start" x="292" y="-148.5" font-family="Helvetica,sans-Serif" font-size="10.00">AbstractMeshReader</text>
<text text-anchor="start" x="292" y="-137.5" font-family="Helvetica,sans-Serif" font-size="10.00">&lt; ELEMENT_DIM, SPACE</text>
<text text-anchor="start" x="292" y="-126.5" font-family="Helvetica,sans-Serif" font-size="10.00">_DIM &gt;::ElementIterator</text>
<text text-anchor="start" x="349.5" y="-111.5" font-family="Helvetica,sans-Serif" font-size="10.00"> </text>
<text text-anchor="start" x="296.5" y="-96.5" font-family="Helvetica,sans-Serif" font-size="10.00">+</text>
<text text-anchor="start" x="315" y="-96.5" font-family="Helvetica,sans-Serif" font-size="10.00">ElementIterator()</text>
<text text-anchor="start" x="296.5" y="-81.5" font-family="Helvetica,sans-Serif" font-size="10.00">+</text>
<text text-anchor="start" x="315" y="-81.5" font-family="Helvetica,sans-Serif" font-size="10.00">ElementIterator()</text>
<text text-anchor="start" x="296.5" y="-66.5" font-family="Helvetica,sans-Serif" font-size="10.00">+</text>
<text text-anchor="start" x="315" y="-66.5" font-family="Helvetica,sans-Serif" font-size="10.00">GetIndex()</text>
<text text-anchor="start" x="299" y="-51.5" font-family="Helvetica,sans-Serif" font-size="10.00">&#45;</text>
<text text-anchor="start" x="315" y="-51.5" font-family="Helvetica,sans-Serif" font-size="10.00">CacheData()</text>
<text text-anchor="start" x="299" y="-36.5" font-family="Helvetica,sans-Serif" font-size="10.00">&#45;</text>
<text text-anchor="start" x="315" y="-36.5" font-family="Helvetica,sans-Serif" font-size="10.00">increment()</text>
<text text-anchor="start" x="299" y="-21.5" font-family="Helvetica,sans-Serif" font-size="10.00">&#45;</text>
<text text-anchor="start" x="315" y="-21.5" font-family="Helvetica,sans-Serif" font-size="10.00">equal()</text>
<text text-anchor="start" x="299" y="-6.5" font-family="Helvetica,sans-Serif" font-size="10.00">&#45;</text>
<text text-anchor="start" x="315" y="-6.5" font-family="Helvetica,sans-Serif" font-size="10.00">dereference()</text>
<polygon fill="#666666" stroke="#666666" points="287,-121.5 287,-121.5 416,-121.5 416,-121.5 287,-121.5"/>
<polygon fill="#666666" stroke="#666666" points="287,-106.5 287,-106.5 416,-106.5 416,-106.5 287,-106.5"/>
<polygon fill="none" stroke="#666666" points="286.5,0 286.5,-161 415.5,-161 415.5,0 286.5,0"/>
</a>
</g>
</g>
<!-- Node2 -->
<g id="Node000002" class="node">
<title>Node2</title>
<g id="a_Node000002"><a xlink:title=" ">
<polygon fill="white" stroke="transparent" points="146,-290 0,-290 0,-208 146,-208 146,-290"/>
<text text-anchor="start" x="5" y="-278" font-family="Helvetica,sans-Serif" font-size="10.00">boost::iterator_facade</text>
<text text-anchor="start" x="5" y="-267" font-family="Helvetica,sans-Serif" font-size="10.00">&lt; ElementIterator, const</text>
<text text-anchor="start" x="5" y="-256" font-family="Helvetica,sans-Serif" font-size="10.00"> ElementData, boost::single</text>
<text text-anchor="start" x="18.5" y="-245" font-family="Helvetica,sans-Serif" font-size="10.00">_pass_traversal_tag &gt;</text>
<text text-anchor="start" x="71" y="-230" font-family="Helvetica,sans-Serif" font-size="10.00"> </text>
<text text-anchor="start" x="71" y="-215" font-family="Helvetica,sans-Serif" font-size="10.00"> </text>
<polygon fill="#bfbfbf" stroke="#bfbfbf" points="0,-240 0,-240 146,-240 146,-240 0,-240"/>
<polygon fill="#bfbfbf" stroke="#bfbfbf" points="0,-225 0,-225 146,-225 146,-225 0,-225"/>
<polygon fill="none" stroke="#bfbfbf" points="0,-208 0,-290 146,-290 146,-208 0,-208"/>
</a>
</g>
</g>
<!-- Node2&#45;&gt;Node1 -->
<g id="edge1_Node000001_Node000002" class="edge">
<title>Node2&#45;&gt;Node1</title>
<g id="a_edge1_Node000001_Node000002"><a xlink:title=" ">
<path fill="none" stroke="#63b8ff" d="M133.8,-201.94C144.99,-194.01 156.71,-186.06 168,-179 206.15,-155.14 250.68,-131.34 286.26,-113.22"/>
<polygon fill="none" stroke="#63b8ff" points="131.45,-199.32 125.36,-207.99 135.53,-205.01 131.45,-199.32"/>
</a>
</g>
</g>
<!-- Node3 -->
<g id="Node000003" class="node">
<title>Node3</title>
<g id="a_Node000003"><a xlink:href="classunsigned.html" target="_top" xlink:title=" ">
<polygon fill="white" stroke="transparent" points="226.5,-386 171.5,-386 171.5,-337 226.5,-337 226.5,-386"/>
<text text-anchor="start" x="177" y="-373.5" font-family="Helvetica,sans-Serif" font-size="10.00">unsigned</text>
<text text-anchor="start" x="197.5" y="-358.5" font-family="Helvetica,sans-Serif" font-size="10.00"> </text>
<text text-anchor="start" x="197.5" y="-343.5" font-family="Helvetica,sans-Serif" font-size="10.00"> </text>
<polygon fill="#bfbfbf" stroke="#bfbfbf" points="172,-368.5 172,-368.5 227,-368.5 227,-368.5 172,-368.5"/>
<polygon fill="#bfbfbf" stroke="#bfbfbf" points="172,-353.5 172,-353.5 227,-353.5 227,-353.5 172,-353.5"/>
<polygon fill="none" stroke="#bfbfbf" points="171.5,-337 171.5,-386 226.5,-386 226.5,-337 171.5,-337"/>
</a>
</g>
</g>
<!-- Node3&#45;&gt;Node1 -->
<g id="edge2_Node000001_Node000003" class="edge">
<title>Node3&#45;&gt;Node1</title>
<g id="a_edge2_Node000001_Node000003"><a xlink:title=" ">
<path fill="none" stroke="#63b8ff" d="M191.29,-336.91C182.52,-305.7 171.85,-249.78 192,-208 209.7,-171.3 243.79,-141.97 275.88,-120.82"/>
<polygon fill="none" stroke="#63b8ff" points="276.09,-120.69 279,-114.1 286.21,-114.25 283.3,-120.85 276.09,-120.69"/>
</a>
</g>
<text text-anchor="middle" x="214" y="-246.5" font-family="Helvetica,sans-Serif" font-size="10.00" fill="grey"> &#45;mIndex</text>
</g>
<!-- Node7 -->
<g id="Node000007" class="node">
<title>Node7</title>
<g id="a_Node000007"><a xlink:href="structElementData.html" target="_top" xlink:title=" ">
<polygon fill="white" stroke="transparent" points="337.5,-273.5 244.5,-273.5 244.5,-224.5 337.5,-224.5 337.5,-273.5"/>
<text text-anchor="start" x="259.5" y="-261" font-family="Helvetica,sans-Serif" font-size="10.00">ElementData</text>
<text text-anchor="start" x="289.5" y="-246" font-family="Helvetica,sans-Serif" font-size="10.00"> </text>
<text text-anchor="start" x="249" y="-231" font-family="Helvetica,sans-Serif" font-size="10.00">+</text>
<text text-anchor="start" x="262" y="-231" font-family="Helvetica,sans-Serif" font-size="10.00">ElementData()</text>
<polygon fill="#666666" stroke="#666666" points="245,-256 245,-256 338,-256 338,-256 245,-256"/>
<polygon fill="#666666" stroke="#666666" points="245,-241 245,-241 338,-241 338,-241 245,-241"/>
<polygon fill="none" stroke="#666666" points="244.5,-224.5 244.5,-273.5 337.5,-273.5 337.5,-224.5 244.5,-224.5"/>
</a>
</g>
</g>
<!-- Node3&#45;&gt;Node7 -->
<g id="edge9_Node000007_Node000003" class="edge">
<title>Node3&#45;&gt;Node7</title>
<g id="a_edge9_Node000007_Node000003"><a xlink:title=" ">
<path fill="none" stroke="#63b8ff" d="M201.3,-336.86C203.1,-327.28 206.3,-316.5 212,-308 216.73,-300.94 229.81,-290.55 243.99,-280.51"/>
<polygon fill="none" stroke="#63b8ff" points="244.03,-280.48 246.69,-273.78 253.9,-273.66 251.24,-280.36 244.03,-280.48"/>
</a>
</g>
<text text-anchor="middle" x="264.5" y="-311" font-family="Helvetica,sans-Serif" font-size="10.00" fill="grey"> +ContainingElement</text>
</g>
<!-- Node4 -->
<g id="Node000004" class="node">
<title>Node4</title>
<g id="a_Node000004"><a xlink:title=" ">
<polygon fill="white" stroke="transparent" points="456.5,-273.5 355.5,-273.5 355.5,-224.5 456.5,-224.5 456.5,-273.5"/>
<text text-anchor="start" x="361" y="-261" font-family="Helvetica,sans-Serif" font-size="10.00">set&lt; unsigned &gt; *</text>
<text text-anchor="start" x="404.5" y="-246" font-family="Helvetica,sans-Serif" font-size="10.00"> </text>
<text text-anchor="start" x="404.5" y="-231" font-family="Helvetica,sans-Serif" font-size="10.00"> </text>
<polygon fill="#bfbfbf" stroke="#bfbfbf" points="356,-256 356,-256 457,-256 457,-256 356,-256"/>
<polygon fill="#bfbfbf" stroke="#bfbfbf" points="356,-241 356,-241 457,-241 457,-241 356,-241"/>
<polygon fill="none" stroke="#bfbfbf" points="355.5,-224.5 355.5,-273.5 456.5,-273.5 456.5,-224.5 355.5,-224.5"/>
</a>
</g>
</g>
<!-- Node4&#45;&gt;Node1 -->
<g id="edge3_Node000001_Node000004" class="edge">
<title>Node4&#45;&gt;Node1</title>
<g id="a_edge3_Node000001_Node000004"><a xlink:title=" ">
<path fill="none" stroke="#63b8ff" d="M398.24,-224.5C393.65,-210.63 387.53,-192.07 381.21,-172.94"/>
<polygon fill="none" stroke="#63b8ff" points="381.13,-172.71 375.45,-168.27 377.37,-161.32 383.05,-165.76 381.13,-172.71"/>
</a>
</g>
<text text-anchor="middle" x="415" y="-182" font-family="Helvetica,sans-Serif" font-size="10.00" fill="grey"> &#45;mpIndices</text>
</g>
<!-- Node5 -->
<g id="Node000005" class="node">
<title>Node5</title>
<g id="a_Node000005"><a xlink:title=" ">
<polygon fill="white" stroke="transparent" points="553,-273.5 475,-273.5 475,-224.5 553,-224.5 553,-273.5"/>
<text text-anchor="start" x="480" y="-261" font-family="Helvetica,sans-Serif" font-size="10.00">const_iterator</text>
<text text-anchor="start" x="512" y="-246" font-family="Helvetica,sans-Serif" font-size="10.00"> </text>
<text text-anchor="start" x="512" y="-231" font-family="Helvetica,sans-Serif" font-size="10.00"> </text>
<polygon fill="#bfbfbf" stroke="#bfbfbf" points="475,-256 475,-256 553,-256 553,-256 475,-256"/>
<polygon fill="#bfbfbf" stroke="#bfbfbf" points="475,-241 475,-241 553,-241 553,-241 475,-241"/>
<polygon fill="none" stroke="#bfbfbf" points="475,-224.5 475,-273.5 553,-273.5 553,-224.5 475,-224.5"/>
</a>
</g>
</g>
<!-- Node5&#45;&gt;Node1 -->
<g id="edge4_Node000001_Node000005" class="edge">
<title>Node5&#45;&gt;Node1</title>
<g id="a_edge4_Node000001_Node000005"><a xlink:title=" ">
<path fill="none" stroke="#63b8ff" d="M491.51,-224.26C478.8,-210.9 462.59,-193.95 448,-179 440.35,-171.16 432.32,-162.99 424.3,-154.87"/>
<polygon fill="none" stroke="#63b8ff" points="424.06,-154.62 416.99,-153.17 415.62,-146.09 422.68,-147.55 424.06,-154.62"/>
</a>
</g>
<text text-anchor="middle" x="501" y="-182" font-family="Helvetica,sans-Serif" font-size="10.00" fill="grey"> &#45;mIndicesIterator</text>
</g>
<!-- Node6 -->
<g id="Node000006" class="node">
<title>Node6</title>
<g id="a_Node000006"><a xlink:title=" ">
<polygon fill="white" stroke="transparent" points="700.5,-284.5 571.5,-284.5 571.5,-213.5 700.5,-213.5 700.5,-284.5"/>
<text text-anchor="start" x="577" y="-272" font-family="Helvetica,sans-Serif" font-size="10.00">AbstractMeshReader</text>
<text text-anchor="start" x="577" y="-261" font-family="Helvetica,sans-Serif" font-size="10.00">&lt; ELEMENT_DIM, SPACE</text>
<text text-anchor="start" x="614" y="-250" font-family="Helvetica,sans-Serif" font-size="10.00">_DIM &gt; *</text>
<text text-anchor="start" x="634.5" y="-235" font-family="Helvetica,sans-Serif" font-size="10.00"> </text>
<text text-anchor="start" x="634.5" y="-220" font-family="Helvetica,sans-Serif" font-size="10.00"> </text>
<polygon fill="#bfbfbf" stroke="#bfbfbf" points="572,-245 572,-245 701,-245 701,-245 572,-245"/>
<polygon fill="#bfbfbf" stroke="#bfbfbf" points="572,-230 572,-230 701,-230 701,-230 572,-230"/>
<polygon fill="none" stroke="#bfbfbf" points="571.5,-213.5 571.5,-284.5 700.5,-284.5 700.5,-213.5 571.5,-213.5"/>
</a>
</g>
</g>
<!-- Node6&#45;&gt;Node1 -->
<g id="edge5_Node000001_Node000006" class="edge">
<title>Node6&#45;&gt;Node1</title>
<g id="a_edge5_Node000001_Node000006"><a xlink:title=" ">
<path fill="none" stroke="#63b8ff" d="M596.17,-213.49C581.79,-201.83 565.13,-189.2 549,-179 510.24,-154.48 464.45,-131.58 426.67,-114.14"/>
<polygon fill="none" stroke="#63b8ff" points="426.64,-114.13 419.52,-115.27 415.73,-109.14 422.85,-107.99 426.64,-114.13"/>
</a>
</g>
<text text-anchor="middle" x="593" y="-182" font-family="Helvetica,sans-Serif" font-size="10.00" fill="grey"> &#45;mpReader</text>
</g>
<!-- Node7&#45;&gt;Node1 -->
<g id="edge6_Node000001_Node000007" class="edge">
<title>Node7&#45;&gt;Node1</title>
<g id="a_edge6_Node000001_Node000007"><a xlink:title=" ">
<path fill="none" stroke="#63b8ff" d="M289.24,-224.22C288.93,-210.7 289.7,-193.61 294,-179 294.63,-176.87 295.31,-174.74 296.04,-172.61"/>
<polygon fill="none" stroke="#63b8ff" points="296.1,-172.47 294.51,-165.43 300.4,-161.26 301.98,-168.3 296.1,-172.47"/>
</a>
</g>
<text text-anchor="middle" x="336.5" y="-182" font-family="Helvetica,sans-Serif" font-size="10.00" fill="grey"> &#45;mLastDataRead</text>
</g>
<!-- Node8 -->
<g id="Node000008" class="node">
<title>Node8</title>
<g id="a_Node000008"><a xlink:title=" ">
<polygon fill="white" stroke="transparent" points="397,-386 289,-386 289,-337 397,-337 397,-386"/>
<text text-anchor="start" x="294" y="-373.5" font-family="Helvetica,sans-Serif" font-size="10.00">vector&lt; unsigned &gt;</text>
<text text-anchor="start" x="341" y="-358.5" font-family="Helvetica,sans-Serif" font-size="10.00"> </text>
<text text-anchor="start" x="341" y="-343.5" font-family="Helvetica,sans-Serif" font-size="10.00"> </text>
<polygon fill="#bfbfbf" stroke="#bfbfbf" points="289,-368.5 289,-368.5 397,-368.5 397,-368.5 289,-368.5"/>
<polygon fill="#bfbfbf" stroke="#bfbfbf" points="289,-353.5 289,-353.5 397,-353.5 397,-353.5 289,-353.5"/>
<polygon fill="none" stroke="#bfbfbf" points="289,-337 289,-386 397,-386 397,-337 289,-337"/>
</a>
</g>
</g>
<!-- Node8&#45;&gt;Node7 -->
<g id="edge7_Node000007_Node000008" class="edge">
<title>Node8&#45;&gt;Node7</title>
<g id="a_edge7_Node000007_Node000008"><a xlink:title=" ">
<path fill="none" stroke="#63b8ff" d="M333.54,-336.8C329.8,-327.72 325.35,-317.31 321,-308 317.42,-300.34 313.38,-292.22 309.45,-284.56"/>
<polygon fill="none" stroke="#63b8ff" points="309.38,-284.42 303.06,-280.94 303.84,-273.77 310.16,-277.25 309.38,-284.42"/>
</a>
</g>
<text text-anchor="middle" x="361" y="-311" font-family="Helvetica,sans-Serif" font-size="10.00" fill="grey"> +NodeIndices</text>
</g>
<!-- Node9 -->
<g id="Node000009" class="node">
<title>Node9</title>
<g id="a_Node000009"><a xlink:href="classdouble.html" target="_top" xlink:title=" ">
<polygon fill="white" stroke="transparent" points="460,-386 416,-386 416,-337 460,-337 460,-386"/>
<text text-anchor="start" x="421" y="-373.5" font-family="Helvetica,sans-Serif" font-size="10.00">double</text>
<text text-anchor="start" x="436" y="-358.5" font-family="Helvetica,sans-Serif" font-size="10.00"> </text>
<text text-anchor="start" x="436" y="-343.5" font-family="Helvetica,sans-Serif" font-size="10.00"> </text>
<polygon fill="#bfbfbf" stroke="#bfbfbf" points="416,-368.5 416,-368.5 460,-368.5 460,-368.5 416,-368.5"/>
<polygon fill="#bfbfbf" stroke="#bfbfbf" points="416,-353.5 416,-353.5 460,-353.5 460,-353.5 416,-353.5"/>
<polygon fill="none" stroke="#bfbfbf" points="416,-337 416,-386 460,-386 460,-337 416,-337"/>
</a>
</g>
</g>
<!-- Node9&#45;&gt;Node7 -->
<g id="edge8_Node000007_Node000009" class="edge">
<title>Node9&#45;&gt;Node7</title>
<g id="a_edge8_Node000007_Node000009"><a xlink:title=" ">
<path fill="none" stroke="#63b8ff" d="M425.89,-336.96C419.65,-326.82 411.2,-315.58 401,-308 380.7,-292.91 369.54,-301.48 347,-290 341.49,-287.19 335.91,-283.88 330.52,-280.39"/>
<polygon fill="none" stroke="#63b8ff" points="330.38,-280.29 323.17,-280.22 320.47,-273.53 327.68,-273.61 330.38,-280.29"/>
</a>
</g>
<text text-anchor="middle" x="453" y="-311" font-family="Helvetica,sans-Serif" font-size="10.00" fill="grey"> +AttributeValue</text>
</g>
</g>
</svg>
