<?xml version="1.0" encoding="UTF-8" standalone="no"?>
<!DOCTYPE svg PUBLIC "-//W3C//DTD SVG 1.1//EN"
 "http://www.w3.org/Graphics/SVG/1.1/DTD/svg11.dtd">
<!-- Generated by graphviz version 2.43.0 (0)
 -->
<!-- Title: CellPropertyRegistry Pages: 1 -->
<svg width="335pt" height="314pt"
 viewBox="0.00 0.00 335.00 314.00" xmlns="http://www.w3.org/2000/svg" xmlns:xlink="http://www.w3.org/1999/xlink">
<g id="graph0" class="graph" transform="scale(1 1) rotate(0) translate(4 310)">
<title>CellPropertyRegistry</title>
<!-- Node1 -->
<g id="Node000001" class="node">
<title>Node1</title>
<g id="a_Node000001"><a xlink:title=" ">
<polygon fill="#999999" stroke="transparent" points="219.5,-199 60.5,-199 60.5,0 219.5,0 219.5,-199"/>
<text text-anchor="start" x="90" y="-186.5" font-family="Helvetica,sans-Serif" font-size="10.00">CellPropertyRegistry</text>
<text text-anchor="start" x="138.5" y="-171.5" font-family="Helvetica,sans-Serif" font-size="10.00"> </text>
<text text-anchor="start" x="65" y="-156.5" font-family="Helvetica,sans-Serif" font-size="10.00">+</text>
<text text-anchor="start" x="78" y="-156.5" font-family="Helvetica,sans-Serif" font-size="10.00">Get()</text>
<text text-anchor="start" x="65" y="-141.5" font-family="Helvetica,sans-Serif" font-size="10.00">+</text>
<text text-anchor="start" x="78" y="-141.5" font-family="Helvetica,sans-Serif" font-size="10.00">rGetAllCellProperties()</text>
<text text-anchor="start" x="65" y="-126.5" font-family="Helvetica,sans-Serif" font-size="10.00">+</text>
<text text-anchor="start" x="78" y="-126.5" font-family="Helvetica,sans-Serif" font-size="10.00">Clear()</text>
<text text-anchor="start" x="65" y="-111.5" font-family="Helvetica,sans-Serif" font-size="10.00">+</text>
<text text-anchor="start" x="78" y="-111.5" font-family="Helvetica,sans-Serif" font-size="10.00">TakeOwnership()</text>
<text text-anchor="start" x="65" y="-96.5" font-family="Helvetica,sans-Serif" font-size="10.00">+</text>
<text text-anchor="start" x="78" y="-96.5" font-family="Helvetica,sans-Serif" font-size="10.00">SpecifyOrdering()</text>
<text text-anchor="start" x="65" y="-81.5" font-family="Helvetica,sans-Serif" font-size="10.00">+</text>
<text text-anchor="start" x="78" y="-81.5" font-family="Helvetica,sans-Serif" font-size="10.00">HasOrderingBeenSpecified()</text>
<text text-anchor="start" x="65" y="-66.5" font-family="Helvetica,sans-Serif" font-size="10.00">+</text>
<text text-anchor="start" x="78" y="-66.5" font-family="Helvetica,sans-Serif" font-size="10.00">Instance()</text>
<text text-anchor="start" x="67.5" y="-51.5" font-family="Helvetica,sans-Serif" font-size="10.00">&#45;</text>
<text text-anchor="start" x="78" y="-51.5" font-family="Helvetica,sans-Serif" font-size="10.00">CellPropertyRegistry()</text>
<text text-anchor="start" x="67.5" y="-36.5" font-family="Helvetica,sans-Serif" font-size="10.00">&#45;</text>
<text text-anchor="start" x="78" y="-36.5" font-family="Helvetica,sans-Serif" font-size="10.00">CellPropertyRegistry()</text>
<text text-anchor="start" x="67.5" y="-21.5" font-family="Helvetica,sans-Serif" font-size="10.00">&#45;</text>
<text text-anchor="start" x="78" y="-21.5" font-family="Helvetica,sans-Serif" font-size="10.00">operator=()</text>
<text text-anchor="start" x="67.5" y="-6.5" font-family="Helvetica,sans-Serif" font-size="10.00">&#45;</text>
<text text-anchor="start" x="78" y="-6.5" font-family="Helvetica,sans-Serif" font-size="10.00">serialize()</text>
<polygon fill="#666666" stroke="#666666" points="61,-181.5 61,-181.5 220,-181.5 220,-181.5 61,-181.5"/>
<polygon fill="#666666" stroke="#666666" points="61,-166.5 61,-166.5 220,-166.5 220,-166.5 61,-166.5"/>
<polygon fill="none" stroke="#666666" points="60.5,0 60.5,-199 219.5,-199 219.5,0 60.5,0"/>
</a>
</g>
</g>
<!-- Node1&#45;&gt;Node1 -->
<g id="edge1_Node000001_Node000001" class="edge">
<title>Node1&#45;&gt;Node1</title>
<g id="a_edge1_Node000001_Node000001"><a xlink:title=" ">
<path fill="none" stroke="#63b8ff" d="M219.57,-119.79C230.33,-116.39 237.5,-109.63 237.5,-99.5 237.5,-93.33 234.84,-88.41 230.32,-84.73"/>
<polygon fill="none" stroke="#63b8ff" points="230.24,-84.69 223.08,-85.51 219.57,-79.21 226.74,-78.39 230.24,-84.69"/>
</a>
</g>
<text text-anchor="middle" x="269.5" y="-97" font-family="Helvetica,sans-Serif" font-size="10.00" fill="grey"> &#45;mpInstance</text>
</g>
<!-- Node2 -->
<g id="Node000002" class="node">
<title>Node2</title>
<g id="a_Node000002"><a xlink:title=" ">
<polygon fill="white" stroke="transparent" points="164,-306 0,-306 0,-246 164,-246 164,-306"/>
<text text-anchor="start" x="5" y="-294" font-family="Helvetica,sans-Serif" font-size="10.00">vector&lt; boost::shared</text>
<text text-anchor="start" x="5" y="-283" font-family="Helvetica,sans-Serif" font-size="10.00">_ptr&lt; AbstractCellProperty &gt; &gt;</text>
<text text-anchor="start" x="80" y="-268" font-family="Helvetica,sans-Serif" font-size="10.00"> </text>
<text text-anchor="start" x="80" y="-253" font-family="Helvetica,sans-Serif" font-size="10.00"> </text>
<polygon fill="#bfbfbf" stroke="#bfbfbf" points="0,-278 0,-278 164,-278 164,-278 0,-278"/>
<polygon fill="#bfbfbf" stroke="#bfbfbf" points="0,-263 0,-263 164,-263 164,-263 0,-263"/>
<polygon fill="none" stroke="#bfbfbf" points="0,-246 0,-306 164,-306 164,-246 0,-246"/>
</a>
</g>
</g>
<!-- Node2&#45;&gt;Node1 -->
<g id="edge2_Node000001_Node000002" class="edge">
<title>Node2&#45;&gt;Node1</title>
<g id="a_edge2_Node000001_Node000002"><a xlink:title=" ">
<path fill="none" stroke="#63b8ff" d="M85.11,-245.79C86.48,-236.48 88.39,-226.22 91,-217 91.6,-214.88 92.23,-212.74 92.89,-210.59"/>
<polygon fill="none" stroke="#63b8ff" points="92.92,-210.48 90.96,-203.54 96.61,-199.06 98.58,-206 92.92,-210.48"/>
</a>
</g>
<text text-anchor="middle" x="133.5" y="-220" font-family="Helvetica,sans-Serif" font-size="10.00" fill="grey"> &#45;mCellProperties</text>
</g>
<!-- Node3 -->
<g id="Node000003" class="node">
<title>Node3</title>
<g id="a_Node000003"><a xlink:href="classbool.html" target="_top" xlink:title=" ">
<polygon fill="white" stroke="transparent" points="214,-300.5 182,-300.5 182,-251.5 214,-251.5 214,-300.5"/>
<text text-anchor="start" x="187" y="-288" font-family="Helvetica,sans-Serif" font-size="10.00">bool</text>
<text text-anchor="start" x="196" y="-273" font-family="Helvetica,sans-Serif" font-size="10.00"> </text>
<text text-anchor="start" x="196" y="-258" font-family="Helvetica,sans-Serif" font-size="10.00"> </text>
<polygon fill="#bfbfbf" stroke="#bfbfbf" points="182,-283 182,-283 214,-283 214,-283 182,-283"/>
<polygon fill="#bfbfbf" stroke="#bfbfbf" points="182,-268 182,-268 214,-268 214,-268 182,-268"/>
<polygon fill="none" stroke="#bfbfbf" points="182,-251.5 182,-300.5 214,-300.5 214,-251.5 182,-251.5"/>
</a>
</g>
</g>
<!-- Node3&#45;&gt;Node1 -->
<g id="edge3_Node000001_Node000003" class="edge">
<title>Node3&#45;&gt;Node1</title>
<g id="a_edge3_Node000001_Node000003"><a xlink:title=" ">
<path fill="none" stroke="#63b8ff" d="M190.18,-251.47C186.48,-240.35 181.78,-226.19 176.74,-211.02"/>
<polygon fill="none" stroke="#63b8ff" points="176.61,-210.65 170.92,-206.21 172.83,-199.26 178.51,-203.69 176.61,-210.65"/>
</a>
</g>
<text text-anchor="middle" x="253.5" y="-220" font-family="Helvetica,sans-Serif" font-size="10.00" fill="grey"> &#45;mOrderingHasBeenSpecified</text>
</g>
</g>
</svg>
