<?xml version="1.0" encoding="UTF-8" standalone="no"?>
<!DOCTYPE svg PUBLIC "-//W3C//DTD SVG 1.1//EN"
 "http://www.w3.org/Graphics/SVG/1.1/DTD/svg11.dtd">
<!-- Generated by graphviz version 2.43.0 (0)
 -->
<!-- Title: AbstractTetrahedralMesh&lt; ELEMENT_DIM, SPACE_DIM &gt; Pages: 1 -->
<svg width="1353pt" height="1093pt"
 viewBox="0.00 0.00 1352.72 1093.00" xmlns="http://www.w3.org/2000/svg" xmlns:xlink="http://www.w3.org/1999/xlink">
<g id="graph0" class="graph" transform="scale(1 1) rotate(0) translate(4 1089)">
<title>AbstractTetrahedralMesh&lt; ELEMENT_DIM, SPACE_DIM &gt;</title>
<!-- Node1 -->
<g id="Node000001" class="node">
<title>Node1</title>
<g id="a_Node000001"><a xlink:title=" ">
<polygon fill="#999999" stroke="transparent" points="1153.22,-285 966.22,-285 966.22,0 1153.22,0 1153.22,-285"/>
<text text-anchor="start" x="982.72" y="-272.5" font-family="Helvetica,sans-Serif" font-size="10.00">AbstractTetrahedralMesh</text>
<text text-anchor="start" x="982.72" y="-261.5" font-family="Helvetica,sans-Serif" font-size="10.00">&lt; ELEMENT_DIM, SPACE_DIM &gt;</text>
<text text-anchor="start" x="1058.22" y="-246.5" font-family="Helvetica,sans-Serif" font-size="10.00"> </text>
<text text-anchor="start" x="970.72" y="-231.5" font-family="Helvetica,sans-Serif" font-size="10.00">+</text>
<text text-anchor="start" x="983.72" y="-231.5" font-family="Helvetica,sans-Serif" font-size="10.00">GetElementIteratorBegin()</text>
<text text-anchor="start" x="970.72" y="-216.5" font-family="Helvetica,sans-Serif" font-size="10.00">+</text>
<text text-anchor="start" x="983.72" y="-216.5" font-family="Helvetica,sans-Serif" font-size="10.00">GetElementIteratorEnd()</text>
<text text-anchor="start" x="970.72" y="-201.5" font-family="Helvetica,sans-Serif" font-size="10.00">+</text>
<text text-anchor="start" x="983.72" y="-201.5" font-family="Helvetica,sans-Serif" font-size="10.00">AbstractTetrahedralMesh()</text>
<text text-anchor="start" x="970.72" y="-186.5" font-family="Helvetica,sans-Serif" font-size="10.00">+</text>
<text text-anchor="start" x="983.72" y="-186.5" font-family="Helvetica,sans-Serif" font-size="10.00">~AbstractTetrahedralMesh()</text>
<text text-anchor="start" x="970.72" y="-171.5" font-family="Helvetica,sans-Serif" font-size="10.00">+</text>
<text text-anchor="start" x="983.72" y="-171.5" font-family="Helvetica,sans-Serif" font-size="10.00">GetNumElements()</text>
<text text-anchor="start" x="970.72" y="-156.5" font-family="Helvetica,sans-Serif" font-size="10.00">+</text>
<text text-anchor="start" x="983.72" y="-156.5" font-family="Helvetica,sans-Serif" font-size="10.00">GetNumLocalElements()</text>
<text text-anchor="start" x="970.72" y="-141.5" font-family="Helvetica,sans-Serif" font-size="10.00">+</text>
<text text-anchor="start" x="983.72" y="-141.5" font-family="Helvetica,sans-Serif" font-size="10.00">GetNumBoundaryElements()</text>
<text text-anchor="start" x="970.72" y="-126.5" font-family="Helvetica,sans-Serif" font-size="10.00">+</text>
<text text-anchor="start" x="983.72" y="-126.5" font-family="Helvetica,sans-Serif" font-size="10.00">GetNumLocalBoundaryElements()</text>
<text text-anchor="start" x="970.72" y="-111.5" font-family="Helvetica,sans-Serif" font-size="10.00">+</text>
<text text-anchor="start" x="983.72" y="-111.5" font-family="Helvetica,sans-Serif" font-size="10.00">GetNumAllElements()</text>
<text text-anchor="start" x="970.72" y="-96.5" font-family="Helvetica,sans-Serif" font-size="10.00">+</text>
<text text-anchor="start" x="983.72" y="-96.5" font-family="Helvetica,sans-Serif" font-size="10.00">GetNumAllBoundaryElements()</text>
<text text-anchor="start" x="983.72" y="-81.5" font-family="Helvetica,sans-Serif" font-size="10.00">and 25 more...</text>
<text text-anchor="start" x="970.72" y="-66.5" font-family="Helvetica,sans-Serif" font-size="10.00">#</text>
<text text-anchor="start" x="983.72" y="-66.5" font-family="Helvetica,sans-Serif" font-size="10.00">SetElementOwnerships()</text>
<text text-anchor="start" x="973.22" y="-51.5" font-family="Helvetica,sans-Serif" font-size="10.00">&#45;</text>
<text text-anchor="start" x="983.72" y="-51.5" font-family="Helvetica,sans-Serif" font-size="10.00">SolveElementMapping()</text>
<text text-anchor="start" x="973.22" y="-36.5" font-family="Helvetica,sans-Serif" font-size="10.00">&#45;</text>
<text text-anchor="start" x="983.72" y="-36.5" font-family="Helvetica,sans-Serif" font-size="10.00">SolveBoundaryElementMapping()</text>
<text text-anchor="start" x="973.22" y="-21.5" font-family="Helvetica,sans-Serif" font-size="10.00">&#45;</text>
<text text-anchor="start" x="983.72" y="-21.5" font-family="Helvetica,sans-Serif" font-size="10.00">save()</text>
<text text-anchor="start" x="973.22" y="-6.5" font-family="Helvetica,sans-Serif" font-size="10.00">&#45;</text>
<text text-anchor="start" x="983.72" y="-6.5" font-family="Helvetica,sans-Serif" font-size="10.00">load()</text>
<polygon fill="#666666" stroke="#666666" points="966.72,-256.5 966.72,-256.5 1153.72,-256.5 1153.72,-256.5 966.72,-256.5"/>
<polygon fill="#666666" stroke="#666666" points="966.72,-241.5 966.72,-241.5 1153.72,-241.5 1153.72,-241.5 966.72,-241.5"/>
<polygon fill="none" stroke="#666666" points="966.22,0 966.22,-285 1153.22,-285 1153.22,0 966.22,0"/>
</a>
</g>
</g>
<!-- Node2 -->
<g id="Node000002" class="node">
<title>Node2</title>
<g id="a_Node000002"><a xlink:href="classAbstractMesh.html" target="_top" xlink:title=" ">
<polygon fill="white" stroke="transparent" points="608.22,-602 461.22,-602 461.22,-332 608.22,-332 608.22,-602"/>
<text text-anchor="start" x="473.22" y="-590" font-family="Helvetica,sans-Serif" font-size="10.00">AbstractMesh&lt; ELEMENT</text>
<text text-anchor="start" x="486.22" y="-579" font-family="Helvetica,sans-Serif" font-size="10.00">_DIM, SPACE_DIM &gt;</text>
<text text-anchor="start" x="533.22" y="-564" font-family="Helvetica,sans-Serif" font-size="10.00"> </text>
<text text-anchor="start" x="465.72" y="-549" font-family="Helvetica,sans-Serif" font-size="10.00">+</text>
<text text-anchor="start" x="478.72" y="-549" font-family="Helvetica,sans-Serif" font-size="10.00">GetNodeIteratorBegin()</text>
<text text-anchor="start" x="465.72" y="-534" font-family="Helvetica,sans-Serif" font-size="10.00">+</text>
<text text-anchor="start" x="478.72" y="-534" font-family="Helvetica,sans-Serif" font-size="10.00">GetNodeIteratorEnd()</text>
<text text-anchor="start" x="465.72" y="-519" font-family="Helvetica,sans-Serif" font-size="10.00">+</text>
<text text-anchor="start" x="478.72" y="-519" font-family="Helvetica,sans-Serif" font-size="10.00">AbstractMesh()</text>
<text text-anchor="start" x="465.72" y="-504" font-family="Helvetica,sans-Serif" font-size="10.00">+</text>
<text text-anchor="start" x="478.72" y="-504" font-family="Helvetica,sans-Serif" font-size="10.00">~AbstractMesh()</text>
<text text-anchor="start" x="465.72" y="-489" font-family="Helvetica,sans-Serif" font-size="10.00">+</text>
<text text-anchor="start" x="478.72" y="-489" font-family="Helvetica,sans-Serif" font-size="10.00">GetNumNodes()</text>
<text text-anchor="start" x="465.72" y="-474" font-family="Helvetica,sans-Serif" font-size="10.00">+</text>
<text text-anchor="start" x="478.72" y="-474" font-family="Helvetica,sans-Serif" font-size="10.00">GetNumBoundaryNodes()</text>
<text text-anchor="start" x="465.72" y="-459" font-family="Helvetica,sans-Serif" font-size="10.00">+</text>
<text text-anchor="start" x="478.72" y="-459" font-family="Helvetica,sans-Serif" font-size="10.00">GetNumAllNodes()</text>
<text text-anchor="start" x="465.72" y="-444" font-family="Helvetica,sans-Serif" font-size="10.00">+</text>
<text text-anchor="start" x="478.72" y="-444" font-family="Helvetica,sans-Serif" font-size="10.00">GetNumNodeAttributes()</text>
<text text-anchor="start" x="465.72" y="-429" font-family="Helvetica,sans-Serif" font-size="10.00">+</text>
<text text-anchor="start" x="478.72" y="-429" font-family="Helvetica,sans-Serif" font-size="10.00">GetNode()</text>
<text text-anchor="start" x="465.72" y="-414" font-family="Helvetica,sans-Serif" font-size="10.00">+</text>
<text text-anchor="start" x="478.72" y="-414" font-family="Helvetica,sans-Serif" font-size="10.00">GetNodeOrHaloNode()</text>
<text text-anchor="start" x="478.72" y="-399" font-family="Helvetica,sans-Serif" font-size="10.00">and 28 more...</text>
<text text-anchor="start" x="465.72" y="-384" font-family="Helvetica,sans-Serif" font-size="10.00">#</text>
<text text-anchor="start" x="478.72" y="-384" font-family="Helvetica,sans-Serif" font-size="10.00">SetElementOwnerships()</text>
<text text-anchor="start" x="465.72" y="-369" font-family="Helvetica,sans-Serif" font-size="10.00">#</text>
<text text-anchor="start" x="478.72" y="-369" font-family="Helvetica,sans-Serif" font-size="10.00">CalculateBoundingBox()</text>
<text text-anchor="start" x="468.22" y="-354" font-family="Helvetica,sans-Serif" font-size="10.00">&#45;</text>
<text text-anchor="start" x="478.72" y="-354" font-family="Helvetica,sans-Serif" font-size="10.00">SolveNodeMapping()</text>
<text text-anchor="start" x="468.22" y="-339" font-family="Helvetica,sans-Serif" font-size="10.00">&#45;</text>
<text text-anchor="start" x="478.72" y="-339" font-family="Helvetica,sans-Serif" font-size="10.00">serialize()</text>
<polygon fill="#666666" stroke="#666666" points="461.72,-574 461.72,-574 608.72,-574 608.72,-574 461.72,-574"/>
<polygon fill="#666666" stroke="#666666" points="461.72,-559 461.72,-559 608.72,-559 608.72,-559 461.72,-559"/>
<polygon fill="none" stroke="#666666" points="461.22,-332 461.22,-602 608.22,-602 608.22,-332 461.22,-332"/>
</a>
</g>
</g>
<!-- Node2&#45;&gt;Node1 -->
<g id="edge1_Node000001_Node000002" class="edge">
<title>Node2&#45;&gt;Node1</title>
<g id="a_edge1_Node000001_Node000002"><a xlink:title=" ">
<path fill="none" stroke="#63b8ff" d="M616.96,-415.49C711.56,-357.37 866.58,-262.14 965.84,-201.17"/>
<polygon fill="none" stroke="#63b8ff" points="614.97,-412.6 608.28,-420.82 618.63,-418.57 614.97,-412.6"/>
</a>
</g>
</g>
<!-- Node3 -->
<g id="Node000003" class="node">
<title>Node3</title>
<g id="a_Node000003"><a xlink:title=" ">
<polygon fill="white" stroke="transparent" points="269.72,-832.5 163.72,-832.5 163.72,-783.5 269.72,-783.5 269.72,-832.5"/>
<text text-anchor="start" x="168.72" y="-820" font-family="Helvetica,sans-Serif" font-size="10.00">boost::noncopyable</text>
<text text-anchor="start" x="214.72" y="-805" font-family="Helvetica,sans-Serif" font-size="10.00"> </text>
<text text-anchor="start" x="214.72" y="-790" font-family="Helvetica,sans-Serif" font-size="10.00"> </text>
<polygon fill="#bfbfbf" stroke="#bfbfbf" points="163.72,-815 163.72,-815 269.72,-815 269.72,-815 163.72,-815"/>
<polygon fill="#bfbfbf" stroke="#bfbfbf" points="163.72,-800 163.72,-800 269.72,-800 269.72,-800 163.72,-800"/>
<polygon fill="none" stroke="#bfbfbf" points="163.72,-783.5 163.72,-832.5 269.72,-832.5 269.72,-783.5 163.72,-783.5"/>
</a>
</g>
</g>
<!-- Node3&#45;&gt;Node2 -->
<g id="edge2_Node000002_Node000003" class="edge">
<title>Node3&#45;&gt;Node2</title>
<g id="a_edge2_Node000002_Node000003"><a xlink:title=" ">
<path fill="none" stroke="#8b1a1a" d="M225.28,-773.7C234.6,-742.07 251.87,-694.37 278.72,-660 328.66,-596.08 404.9,-542.62 461.21,-508.48"/>
<polygon fill="none" stroke="#8b1a1a" points="221.9,-772.79 222.53,-783.37 228.63,-774.71 221.9,-772.79"/>
</a>
</g>
</g>
<!-- Node4 -->
<g id="Node000004" class="node">
<title>Node4</title>
<g id="a_Node000004"><a xlink:title=" ">
<polygon fill="white" stroke="transparent" points="980.72,-838 860.72,-838 860.72,-778 980.72,-778 980.72,-838"/>
<text text-anchor="start" x="865.72" y="-826" font-family="Helvetica,sans-Serif" font-size="10.00">vector&lt; Node&lt; SPACE</text>
<text text-anchor="start" x="892.72" y="-815" font-family="Helvetica,sans-Serif" font-size="10.00">_DIM &gt; * &gt;</text>
<text text-anchor="start" x="918.72" y="-800" font-family="Helvetica,sans-Serif" font-size="10.00"> </text>
<text text-anchor="start" x="918.72" y="-785" font-family="Helvetica,sans-Serif" font-size="10.00"> </text>
<polygon fill="#bfbfbf" stroke="#bfbfbf" points="860.72,-810 860.72,-810 980.72,-810 980.72,-810 860.72,-810"/>
<polygon fill="#bfbfbf" stroke="#bfbfbf" points="860.72,-795 860.72,-795 980.72,-795 980.72,-795 860.72,-795"/>
<polygon fill="none" stroke="#bfbfbf" points="860.72,-778 860.72,-838 980.72,-838 980.72,-778 860.72,-778"/>
</a>
</g>
</g>
<!-- Node4&#45;&gt;Node2 -->
<g id="edge3_Node000002_Node000004" class="edge">
<title>Node4&#45;&gt;Node2</title>
<g id="a_edge3_Node000002_Node000004"><a xlink:title=" ">
<path fill="none" stroke="#63b8ff" d="M911.51,-777.93C900.26,-746.06 878.71,-694.83 846.72,-660 782.75,-590.33 687.81,-536.81 619.47,-504.19"/>
<polygon fill="none" stroke="#63b8ff" points="619.17,-504.05 612.04,-505.11 608.32,-498.93 615.45,-497.87 619.17,-504.05"/>
</a>
</g>
<text text-anchor="middle" x="876.22" y="-634" font-family="Helvetica,sans-Serif" font-size="10.00" fill="grey"> #mBoundaryNodes</text>
<text text-anchor="middle" x="876.22" y="-623" font-family="Helvetica,sans-Serif" font-size="10.00" fill="grey">#mNodes</text>
</g>
<!-- Node5 -->
<g id="Node000005" class="node">
<title>Node5</title>
<g id="a_Node000005"><a xlink:href="classDistributedVectorFactory.html" target="_top" xlink:title=" ">
<polygon fill="white" stroke="transparent" points="453.72,-956 287.72,-956 287.72,-660 453.72,-660 453.72,-956"/>
<text text-anchor="start" x="310.22" y="-944" font-family="Helvetica,sans-Serif" font-size="10.00">DistributedVectorFactory</text>
<text text-anchor="start" x="368.72" y="-929" font-family="Helvetica,sans-Serif" font-size="10.00"> </text>
<text text-anchor="start" x="291.72" y="-914" font-family="Helvetica,sans-Serif" font-size="10.00">+</text>
<text text-anchor="start" x="304.72" y="-914" font-family="Helvetica,sans-Serif" font-size="10.00">DistributedVectorFactory()</text>
<text text-anchor="start" x="291.72" y="-899" font-family="Helvetica,sans-Serif" font-size="10.00">+</text>
<text text-anchor="start" x="304.72" y="-899" font-family="Helvetica,sans-Serif" font-size="10.00">DistributedVectorFactory()</text>
<text text-anchor="start" x="291.72" y="-884" font-family="Helvetica,sans-Serif" font-size="10.00">+</text>
<text text-anchor="start" x="304.72" y="-884" font-family="Helvetica,sans-Serif" font-size="10.00">DistributedVectorFactory()</text>
<text text-anchor="start" x="291.72" y="-869" font-family="Helvetica,sans-Serif" font-size="10.00">+</text>
<text text-anchor="start" x="304.72" y="-869" font-family="Helvetica,sans-Serif" font-size="10.00">DistributedVectorFactory()</text>
<text text-anchor="start" x="291.72" y="-854" font-family="Helvetica,sans-Serif" font-size="10.00">+</text>
<text text-anchor="start" x="304.72" y="-854" font-family="Helvetica,sans-Serif" font-size="10.00">~DistributedVectorFactory()</text>
<text text-anchor="start" x="291.72" y="-839" font-family="Helvetica,sans-Serif" font-size="10.00">+</text>
<text text-anchor="start" x="304.72" y="-839" font-family="Helvetica,sans-Serif" font-size="10.00">CreateVec()</text>
<text text-anchor="start" x="291.72" y="-824" font-family="Helvetica,sans-Serif" font-size="10.00">+</text>
<text text-anchor="start" x="304.72" y="-824" font-family="Helvetica,sans-Serif" font-size="10.00">CreateVec()</text>
<text text-anchor="start" x="291.72" y="-809" font-family="Helvetica,sans-Serif" font-size="10.00">+</text>
<text text-anchor="start" x="304.72" y="-809" font-family="Helvetica,sans-Serif" font-size="10.00">CreateDistributedVector()</text>
<text text-anchor="start" x="291.72" y="-794" font-family="Helvetica,sans-Serif" font-size="10.00">+</text>
<text text-anchor="start" x="304.72" y="-794" font-family="Helvetica,sans-Serif" font-size="10.00">IsGlobalIndexLocal()</text>
<text text-anchor="start" x="291.72" y="-779" font-family="Helvetica,sans-Serif" font-size="10.00">+</text>
<text text-anchor="start" x="304.72" y="-779" font-family="Helvetica,sans-Serif" font-size="10.00">GetLocalOwnership()</text>
<text text-anchor="start" x="304.72" y="-764" font-family="Helvetica,sans-Serif" font-size="10.00">and 8 more...</text>
<text text-anchor="start" x="291.72" y="-749" font-family="Helvetica,sans-Serif" font-size="10.00">+</text>
<text text-anchor="start" x="304.72" y="-749" font-family="Helvetica,sans-Serif" font-size="10.00">SetCheckNumberOfProcesses</text>
<text text-anchor="start" x="304.72" y="-738" font-family="Helvetica,sans-Serif" font-size="10.00">OnLoad()</text>
<text text-anchor="start" x="291.72" y="-723" font-family="Helvetica,sans-Serif" font-size="10.00">+</text>
<text text-anchor="start" x="304.72" y="-723" font-family="Helvetica,sans-Serif" font-size="10.00">CheckNumberOfProcessesOn</text>
<text text-anchor="start" x="304.72" y="-712" font-family="Helvetica,sans-Serif" font-size="10.00">Load()</text>
<text text-anchor="start" x="294.22" y="-697" font-family="Helvetica,sans-Serif" font-size="10.00">&#45;</text>
<text text-anchor="start" x="304.72" y="-697" font-family="Helvetica,sans-Serif" font-size="10.00">CheckForPetsc()</text>
<text text-anchor="start" x="294.22" y="-682" font-family="Helvetica,sans-Serif" font-size="10.00">&#45;</text>
<text text-anchor="start" x="304.72" y="-682" font-family="Helvetica,sans-Serif" font-size="10.00">CalculateOwnership()</text>
<text text-anchor="start" x="294.22" y="-667" font-family="Helvetica,sans-Serif" font-size="10.00">&#45;</text>
<text text-anchor="start" x="304.72" y="-667" font-family="Helvetica,sans-Serif" font-size="10.00">serialize()</text>
<polygon fill="#666666" stroke="#666666" points="287.72,-939 287.72,-939 453.72,-939 453.72,-939 287.72,-939"/>
<polygon fill="#666666" stroke="#666666" points="287.72,-924 287.72,-924 453.72,-924 453.72,-924 287.72,-924"/>
<polygon fill="none" stroke="#666666" points="287.72,-660 287.72,-956 453.72,-956 453.72,-660 287.72,-660"/>
</a>
</g>
</g>
<!-- Node5&#45;&gt;Node2 -->
<g id="edge4_Node000002_Node000005" class="edge">
<title>Node5&#45;&gt;Node2</title>
<g id="a_edge4_Node000002_Node000005"><a xlink:title=" ">
<path fill="none" stroke="#63b8ff" d="M361.98,-659.61C364.45,-645.9 368.23,-632.48 373.72,-620 390.37,-582.22 421.39,-549.39 451.78,-524.01"/>
<polygon fill="none" stroke="#63b8ff" points="451.87,-523.94 454,-517.05 461.18,-516.37 459.04,-523.26 451.87,-523.94"/>
</a>
</g>
<text text-anchor="middle" x="447.72" y="-628.5" font-family="Helvetica,sans-Serif" font-size="10.00" fill="grey"> #mpDistributedVectorFactory</text>
</g>
<!-- Node5&#45;&gt;Node5 -->
<g id="edge8_Node000005_Node000005" class="edge">
<title>Node5&#45;&gt;Node5</title>
<g id="a_edge8_Node000005_Node000005"><a xlink:title=" ">
<path fill="none" stroke="#63b8ff" d="M453.93,-836.92C464.65,-831.91 471.72,-822.27 471.72,-808 471.72,-798.86 468.82,-791.62 463.92,-786.28"/>
<polygon fill="none" stroke="#63b8ff" points="463.67,-786.1 456.46,-785.83 453.93,-779.08 461.14,-779.34 463.67,-786.1"/>
</a>
</g>
<text text-anchor="middle" x="520.22" y="-805.5" font-family="Helvetica,sans-Serif" font-size="10.00" fill="grey"> &#45;mpOriginalFactory</text>
</g>
<!-- Node6 -->
<g id="Node000006" class="node">
<title>Node6</title>
<g id="a_Node000006"><a xlink:href="classunsigned.html" target="_top" xlink:title=" ">
<polygon fill="white" stroke="transparent" points="398.22,-1085 343.22,-1085 343.22,-1036 398.22,-1036 398.22,-1085"/>
<text text-anchor="start" x="348.72" y="-1072.5" font-family="Helvetica,sans-Serif" font-size="10.00">unsigned</text>
<text text-anchor="start" x="369.22" y="-1057.5" font-family="Helvetica,sans-Serif" font-size="10.00"> </text>
<text text-anchor="start" x="369.22" y="-1042.5" font-family="Helvetica,sans-Serif" font-size="10.00"> </text>
<polygon fill="#bfbfbf" stroke="#bfbfbf" points="343.72,-1067.5 343.72,-1067.5 398.72,-1067.5 398.72,-1067.5 343.72,-1067.5"/>
<polygon fill="#bfbfbf" stroke="#bfbfbf" points="343.72,-1052.5 343.72,-1052.5 398.72,-1052.5 398.72,-1052.5 343.72,-1052.5"/>
<polygon fill="none" stroke="#bfbfbf" points="343.22,-1036 343.22,-1085 398.22,-1085 398.22,-1036 343.22,-1036"/>
</a>
</g>
</g>
<!-- Node6&#45;&gt;Node5 -->
<g id="edge5_Node000005_Node000006" class="edge">
<title>Node6&#45;&gt;Node5</title>
<g id="a_edge5_Node000005_Node000006"><a xlink:title=" ">
<path fill="none" stroke="#63b8ff" d="M370.72,-1035.93C370.72,-1019.14 370.72,-994.93 370.72,-968.52"/>
<polygon fill="none" stroke="#63b8ff" points="370.72,-968.25 366.72,-962.25 370.72,-956.25 374.72,-962.25 370.72,-968.25"/>
</a>
</g>
<text text-anchor="middle" x="408.22" y="-1010" font-family="Helvetica,sans-Serif" font-size="10.00" fill="grey"> &#45;mHi</text>
<text text-anchor="middle" x="408.22" y="-999" font-family="Helvetica,sans-Serif" font-size="10.00" fill="grey">&#45;mLo</text>
<text text-anchor="middle" x="408.22" y="-988" font-family="Helvetica,sans-Serif" font-size="10.00" fill="grey">&#45;mNumProcs</text>
<text text-anchor="middle" x="408.22" y="-977" font-family="Helvetica,sans-Serif" font-size="10.00" fill="grey">&#45;mProblemSize</text>
</g>
<!-- Node7 -->
<g id="Node000007" class="node">
<title>Node7</title>
<g id="a_Node000007"><a xlink:href="classbool.html" target="_top" xlink:title=" ">
<polygon fill="white" stroke="transparent" points="683.72,-1085 651.72,-1085 651.72,-1036 683.72,-1036 683.72,-1085"/>
<text text-anchor="start" x="656.72" y="-1072.5" font-family="Helvetica,sans-Serif" font-size="10.00">bool</text>
<text text-anchor="start" x="665.72" y="-1057.5" font-family="Helvetica,sans-Serif" font-size="10.00"> </text>
<text text-anchor="start" x="665.72" y="-1042.5" font-family="Helvetica,sans-Serif" font-size="10.00"> </text>
<polygon fill="#bfbfbf" stroke="#bfbfbf" points="651.72,-1067.5 651.72,-1067.5 683.72,-1067.5 683.72,-1067.5 651.72,-1067.5"/>
<polygon fill="#bfbfbf" stroke="#bfbfbf" points="651.72,-1052.5 651.72,-1052.5 683.72,-1052.5 683.72,-1052.5 651.72,-1052.5"/>
<polygon fill="none" stroke="#bfbfbf" points="651.72,-1036 651.72,-1085 683.72,-1085 683.72,-1036 651.72,-1036"/>
</a>
</g>
</g>
<!-- Node7&#45;&gt;Node1 -->
<g id="edge12_Node000001_Node000007" class="edge">
<title>Node7&#45;&gt;Node1</title>
<g id="a_edge12_Node000001_Node000007"><a xlink:title=" ">
<path fill="none" stroke="#63b8ff" d="M683.9,-1060.06C737.8,-1060.94 912.29,-1055.71 989.72,-956 1032.33,-901.14 1019.79,-401.01 1027.72,-332 1029.03,-320.68 1030.55,-309.01 1032.22,-297.28"/>
<polygon fill="none" stroke="#63b8ff" points="1032.28,-296.92 1029.19,-290.41 1034.01,-285.05 1037.1,-291.57 1032.28,-296.92"/>
</a>
</g>
<text text-anchor="middle" x="1065.72" y="-628.5" font-family="Helvetica,sans-Serif" font-size="10.00" fill="grey"> #mMeshIsLinear</text>
</g>
<!-- Node7&#45;&gt;Node2 -->
<g id="edge11_Node000002_Node000007" class="edge">
<title>Node7&#45;&gt;Node2</title>
<g id="a_edge11_Node000002_Node000007"><a xlink:title=" ">
<path fill="none" stroke="#63b8ff" d="M668.89,-1035.79C672.52,-955.91 681.78,-697.33 653.72,-620 645.09,-596.2 631.19,-573.21 615.89,-552.63"/>
<polygon fill="none" stroke="#63b8ff" points="615.83,-552.56 609,-550.23 608.52,-543.04 615.35,-545.36 615.83,-552.56"/>
</a>
</g>
<text text-anchor="middle" x="761.22" y="-805.5" font-family="Helvetica,sans-Serif" font-size="10.00" fill="grey"> #mMeshChangesDuringSimulation</text>
</g>
<!-- Node7&#45;&gt;Node5 -->
<g id="edge6_Node000005_Node000007" class="edge">
<title>Node7&#45;&gt;Node5</title>
<g id="a_edge6_Node000005_Node000007"><a xlink:title=" ">
<path fill="none" stroke="#63b8ff" d="M651.38,-1059.15C620.18,-1057.7 551.2,-1050.74 505.72,-1018 485.92,-1003.74 468.28,-985.59 452.81,-965.97"/>
<polygon fill="none" stroke="#63b8ff" points="452.66,-965.77 445.85,-963.42 445.39,-956.23 452.21,-958.58 452.66,-965.77"/>
</a>
</g>
<text text-anchor="middle" x="579.72" y="-1004.5" font-family="Helvetica,sans-Serif" font-size="10.00" fill="grey"> &#45;mPetscStatusKnown</text>
<text text-anchor="start" x="505.72" y="-993.5" font-family="Helvetica,sans-Serif" font-size="10.00" fill="grey">&#45;msCheckNumberOfProcesses</text>
<text text-anchor="middle" x="579.72" y="-982.5" font-family="Helvetica,sans-Serif" font-size="10.00" fill="grey">OnLoad</text>
</g>
<!-- Node8 -->
<g id="Node000008" class="node">
<title>Node8</title>
<g id="a_Node000008"><a xlink:title=" ">
<polygon fill="white" stroke="transparent" points="208.72,-1085 100.72,-1085 100.72,-1036 208.72,-1036 208.72,-1085"/>
<text text-anchor="start" x="105.72" y="-1072.5" font-family="Helvetica,sans-Serif" font-size="10.00">vector&lt; unsigned &gt;</text>
<text text-anchor="start" x="152.72" y="-1057.5" font-family="Helvetica,sans-Serif" font-size="10.00"> </text>
<text text-anchor="start" x="152.72" y="-1042.5" font-family="Helvetica,sans-Serif" font-size="10.00"> </text>
<polygon fill="#bfbfbf" stroke="#bfbfbf" points="100.72,-1067.5 100.72,-1067.5 208.72,-1067.5 208.72,-1067.5 100.72,-1067.5"/>
<polygon fill="#bfbfbf" stroke="#bfbfbf" points="100.72,-1052.5 100.72,-1052.5 208.72,-1052.5 208.72,-1052.5 100.72,-1052.5"/>
<polygon fill="none" stroke="#bfbfbf" points="100.72,-1036 100.72,-1085 208.72,-1085 208.72,-1036 100.72,-1036"/>
</a>
</g>
</g>
<!-- Node8&#45;&gt;Node2 -->
<g id="edge9_Node000002_Node000008" class="edge">
<title>Node8&#45;&gt;Node2</title>
<g id="a_edge9_Node000002_Node000008"><a xlink:title=" ">
<path fill="none" stroke="#63b8ff" d="M117.96,-1035.92C92.96,-1017.54 61.95,-989.55 47.72,-956 -3.63,-834.88 -26.3,-768.75 47.72,-660 137.89,-527.53 334.89,-486.46 448.77,-473.72"/>
<polygon fill="none" stroke="#63b8ff" points="448.95,-473.7 454.49,-469.09 460.88,-472.44 455.34,-477.05 448.95,-473.7"/>
</a>
</g>
<text text-anchor="middle" x="101.22" y="-805.5" font-family="Helvetica,sans-Serif" font-size="10.00" fill="grey"> #mNodePermutation</text>
</g>
<!-- Node8&#45;&gt;Node5 -->
<g id="edge7_Node000005_Node000008" class="edge">
<title>Node8&#45;&gt;Node5</title>
<g id="a_edge7_Node000005_Node000008"><a xlink:title=" ">
<path fill="none" stroke="#63b8ff" d="M188.56,-1035.88C215.02,-1016.38 251.72,-986.96 278.72,-956 279.1,-955.57 279.47,-955.15 279.84,-954.72"/>
<polygon fill="none" stroke="#63b8ff" points="279.84,-954.71 280.61,-947.54 287.53,-945.5 286.76,-952.67 279.84,-954.71"/>
</a>
</g>
<text text-anchor="middle" x="297.22" y="-993.5" font-family="Helvetica,sans-Serif" font-size="10.00" fill="grey"> &#45;mGlobalLows</text>
</g>
<!-- Node9 -->
<g id="Node000009" class="node">
<title>Node9</title>
<g id="a_Node000009"><a xlink:title=" ">
<polygon fill="white" stroke="transparent" points="624.72,-832.5 586.72,-832.5 586.72,-783.5 624.72,-783.5 624.72,-832.5"/>
<text text-anchor="start" x="591.72" y="-820" font-family="Helvetica,sans-Serif" font-size="10.00">string</text>
<text text-anchor="start" x="603.72" y="-805" font-family="Helvetica,sans-Serif" font-size="10.00"> </text>
<text text-anchor="start" x="603.72" y="-790" font-family="Helvetica,sans-Serif" font-size="10.00"> </text>
<polygon fill="#bfbfbf" stroke="#bfbfbf" points="586.72,-815 586.72,-815 624.72,-815 624.72,-815 586.72,-815"/>
<polygon fill="#bfbfbf" stroke="#bfbfbf" points="586.72,-800 586.72,-800 624.72,-800 624.72,-800 586.72,-800"/>
<polygon fill="none" stroke="#bfbfbf" points="586.72,-783.5 586.72,-832.5 624.72,-832.5 624.72,-783.5 586.72,-783.5"/>
</a>
</g>
</g>
<!-- Node9&#45;&gt;Node2 -->
<g id="edge10_Node000002_Node000009" class="edge">
<title>Node9&#45;&gt;Node2</title>
<g id="a_edge10_Node000002_Node000009"><a xlink:title=" ">
<path fill="none" stroke="#63b8ff" d="M607.62,-783.35C608.86,-751.75 606.37,-695.64 577.72,-660 565,-644.17 546.95,-658.92 535.72,-642 529.96,-633.32 525.74,-623.81 522.73,-613.87"/>
<polygon fill="none" stroke="#63b8ff" points="522.68,-613.65 517.34,-608.81 519.76,-602.01 525.1,-606.86 522.68,-613.65"/>
</a>
</g>
<text text-anchor="middle" x="594.72" y="-628.5" font-family="Helvetica,sans-Serif" font-size="10.00" fill="grey"> #mMeshFileBaseName</text>
</g>
<!-- Node10 -->
<g id="Node000010" class="node">
<title>Node10</title>
<g id="a_Node000010"><a xlink:title=" ">
<polygon fill="white" stroke="transparent" points="1186.72,-497 1036.72,-497 1036.72,-437 1186.72,-437 1186.72,-497"/>
<text text-anchor="start" x="1041.72" y="-485" font-family="Helvetica,sans-Serif" font-size="10.00">vector&lt; Element&lt; ELEMENT</text>
<text text-anchor="start" x="1052.72" y="-474" font-family="Helvetica,sans-Serif" font-size="10.00">_DIM, SPACE_DIM &gt; * &gt;</text>
<text text-anchor="start" x="1109.72" y="-459" font-family="Helvetica,sans-Serif" font-size="10.00"> </text>
<text text-anchor="start" x="1109.72" y="-444" font-family="Helvetica,sans-Serif" font-size="10.00"> </text>
<polygon fill="#bfbfbf" stroke="#bfbfbf" points="1036.72,-469 1036.72,-469 1186.72,-469 1186.72,-469 1036.72,-469"/>
<polygon fill="#bfbfbf" stroke="#bfbfbf" points="1036.72,-454 1036.72,-454 1186.72,-454 1186.72,-454 1036.72,-454"/>
<polygon fill="none" stroke="#bfbfbf" points="1036.72,-437 1036.72,-497 1186.72,-497 1186.72,-437 1036.72,-437"/>
</a>
</g>
</g>
<!-- Node10&#45;&gt;Node1 -->
<g id="edge13_Node000001_Node000010" class="edge">
<title>Node10&#45;&gt;Node1</title>
<g id="a_edge13_Node000001_Node000010"><a xlink:title=" ">
<path fill="none" stroke="#63b8ff" d="M1107.02,-436.81C1101.84,-404.67 1093.1,-350.46 1084.53,-297.33"/>
<polygon fill="none" stroke="#63b8ff" points="1084.5,-297.15 1079.6,-291.87 1082.59,-285.31 1087.49,-290.59 1084.5,-297.15"/>
</a>
</g>
<text text-anchor="middle" x="1119.22" y="-306" font-family="Helvetica,sans-Serif" font-size="10.00" fill="grey"> #mElements</text>
</g>
<!-- Node11 -->
<g id="Node000011" class="node">
<title>Node11</title>
<g id="a_Node000011"><a xlink:title=" ">
<polygon fill="white" stroke="transparent" points="1344.72,-502.5 1204.72,-502.5 1204.72,-431.5 1344.72,-431.5 1344.72,-502.5"/>
<text text-anchor="start" x="1209.72" y="-490" font-family="Helvetica,sans-Serif" font-size="10.00">vector&lt; BoundaryElement</text>
<text text-anchor="start" x="1209.72" y="-479" font-family="Helvetica,sans-Serif" font-size="10.00">&lt; ELEMENT_DIM&#45;1, SPACE</text>
<text text-anchor="start" x="1246.72" y="-468" font-family="Helvetica,sans-Serif" font-size="10.00">_DIM &gt; * &gt;</text>
<text text-anchor="start" x="1272.72" y="-453" font-family="Helvetica,sans-Serif" font-size="10.00"> </text>
<text text-anchor="start" x="1272.72" y="-438" font-family="Helvetica,sans-Serif" font-size="10.00"> </text>
<polygon fill="#bfbfbf" stroke="#bfbfbf" points="1204.72,-463 1204.72,-463 1344.72,-463 1344.72,-463 1204.72,-463"/>
<polygon fill="#bfbfbf" stroke="#bfbfbf" points="1204.72,-448 1204.72,-448 1344.72,-448 1344.72,-448 1204.72,-448"/>
<polygon fill="none" stroke="#bfbfbf" points="1204.72,-431.5 1204.72,-502.5 1344.72,-502.5 1344.72,-431.5 1204.72,-431.5"/>
</a>
</g>
</g>
<!-- Node11&#45;&gt;Node1 -->
<g id="edge14_Node000001_Node000011" class="edge">
<title>Node11&#45;&gt;Node1</title>
<g id="a_edge14_Node000001_Node000011"><a xlink:title=" ">
<path fill="none" stroke="#63b8ff" d="M1255.45,-431.32C1239.96,-403.95 1217.29,-365.01 1195.72,-332 1184.61,-314.99 1172.6,-297.37 1160.48,-280.05"/>
<polygon fill="none" stroke="#63b8ff" points="1160.24,-279.71 1153.52,-277.1 1153.34,-269.89 1160.06,-272.5 1160.24,-279.71"/>
</a>
</g>
<text text-anchor="middle" x="1238.72" y="-306" font-family="Helvetica,sans-Serif" font-size="10.00" fill="grey"> #mBoundaryElements</text>
</g>
</g>
</svg>
