<?xml version="1.0" encoding="UTF-8" standalone="no"?>
<!DOCTYPE svg PUBLIC "-//W3C//DTD SVG 1.1//EN"
 "http://www.w3.org/Graphics/SVG/1.1/DTD/svg11.dtd">
<!-- Generated by graphviz version 2.43.0 (0)
 -->
<!-- Title: ArchiveOpener&lt; InputArchive, std::ifstream &gt; Pages: 1 -->
<svg width="285pt" height="571pt"
 viewBox="0.00 0.00 285.00 571.00" xmlns="http://www.w3.org/2000/svg" xmlns:xlink="http://www.w3.org/1999/xlink">
<g id="graph0" class="graph" transform="scale(1 1) rotate(0) translate(4 567)">
<title>ArchiveOpener&lt; InputArchive, std::ifstream &gt;</title>
<!-- Node1 -->
<g id="Node000001" class="node">
<title>Node1</title>
<g id="a_Node000001"><a xlink:title="Partial class specialization to specialize class members for input archives.">
<polygon fill="#999999" stroke="transparent" points="203,-90 45,-90 45,0 203,0 203,-90"/>
<text text-anchor="start" x="50" y="-78" font-family="Helvetica,sans-Serif" font-size="10.00">ArchiveOpener&lt; InputArchive,</text>
<text text-anchor="start" x="85.5" y="-67" font-family="Helvetica,sans-Serif" font-size="10.00"> std::ifstream &gt;</text>
<text text-anchor="start" x="122" y="-52" font-family="Helvetica,sans-Serif" font-size="10.00"> </text>
<text text-anchor="start" x="56.5" y="-37" font-family="Helvetica,sans-Serif" font-size="10.00">+</text>
<text text-anchor="start" x="77" y="-37" font-family="Helvetica,sans-Serif" font-size="10.00">ArchiveOpener()</text>
<text text-anchor="start" x="56.5" y="-22" font-family="Helvetica,sans-Serif" font-size="10.00">+</text>
<text text-anchor="start" x="77" y="-22" font-family="Helvetica,sans-Serif" font-size="10.00">GetCommonArchive()</text>
<text text-anchor="start" x="56.5" y="-7" font-family="Helvetica,sans-Serif" font-size="10.00">+</text>
<text text-anchor="start" x="77" y="-7" font-family="Helvetica,sans-Serif" font-size="10.00">~ArchiveOpener()</text>
<polygon fill="#666666" stroke="#666666" points="45,-62 45,-62 203,-62 203,-62 45,-62"/>
<polygon fill="#666666" stroke="#666666" points="45,-47 45,-47 203,-47 203,-47 45,-47"/>
<polygon fill="none" stroke="#666666" points="45,0 45,-90 203,-90 203,0 45,0"/>
</a>
</g>
</g>
<!-- Node2 -->
<g id="Node000002" class="node">
<title>Node2</title>
<g id="a_Node000002"><a xlink:title=" ">
<polygon fill="white" stroke="transparent" points="97.5,-197 24.5,-197 24.5,-148 97.5,-148 97.5,-197"/>
<text text-anchor="start" x="30" y="-184.5" font-family="Helvetica,sans-Serif" font-size="10.00">std::ifstream</text>
<text text-anchor="start" x="59.5" y="-169.5" font-family="Helvetica,sans-Serif" font-size="10.00"> </text>
<text text-anchor="start" x="59.5" y="-154.5" font-family="Helvetica,sans-Serif" font-size="10.00"> </text>
<polygon fill="#666666" stroke="#666666" points="25,-179.5 25,-179.5 98,-179.5 98,-179.5 25,-179.5"/>
<polygon fill="#666666" stroke="#666666" points="25,-164.5 25,-164.5 98,-164.5 98,-164.5 25,-164.5"/>
<polygon fill="none" stroke="#666666" points="24.5,-148 24.5,-197 97.5,-197 97.5,-148 24.5,-148"/>
</a>
</g>
</g>
<!-- Node2&#45;&gt;Node1 -->
<g id="edge1_Node000001_Node000002" class="edge">
<title>Node2&#45;&gt;Node1</title>
<g id="a_edge1_Node000001_Node000002"><a xlink:title=" ">
<path fill="none" stroke="#63b8ff" d="M57.22,-147.7C56.28,-135.39 56.75,-120.39 62,-108 63.13,-105.34 64.43,-102.73 65.87,-100.18"/>
<polygon fill="none" stroke="#63b8ff" points="65.93,-100.1 65.88,-92.89 72.52,-90.07 72.56,-97.28 65.93,-100.1"/>
</a>
</g>
<text text-anchor="middle" x="113.5" y="-122" font-family="Helvetica,sans-Serif" font-size="10.00" fill="grey"> &#45;mpCommonStream</text>
<text text-anchor="middle" x="113.5" y="-111" font-family="Helvetica,sans-Serif" font-size="10.00" fill="grey">&#45;mpPrivateStream</text>
</g>
<!-- Node3 -->
<g id="Node000003" class="node">
<title>Node3</title>
<g id="a_Node000003"><a xlink:title=" ">
<polygon fill="white" stroke="transparent" points="113,-294 9,-294 9,-234 113,-234 113,-294"/>
<text text-anchor="start" x="14" y="-282" font-family="Helvetica,sans-Serif" font-size="10.00">std::basic_ifstream</text>
<text text-anchor="start" x="38" y="-271" font-family="Helvetica,sans-Serif" font-size="10.00">&lt; Char &gt;</text>
<text text-anchor="start" x="59" y="-256" font-family="Helvetica,sans-Serif" font-size="10.00"> </text>
<text text-anchor="start" x="59" y="-241" font-family="Helvetica,sans-Serif" font-size="10.00"> </text>
<polygon fill="#666666" stroke="#666666" points="9,-266 9,-266 113,-266 113,-266 9,-266"/>
<polygon fill="#666666" stroke="#666666" points="9,-251 9,-251 113,-251 113,-251 9,-251"/>
<polygon fill="none" stroke="#666666" points="9,-234 9,-294 113,-294 113,-234 9,-234"/>
</a>
</g>
</g>
<!-- Node3&#45;&gt;Node2 -->
<g id="edge2_Node000002_Node000003" class="edge">
<title>Node3&#45;&gt;Node2</title>
<g id="a_edge2_Node000002_Node000003"><a xlink:title=" ">
<path fill="none" stroke="#63b8ff" d="M61,-223.41C61,-214.47 61,-205.25 61,-197.21"/>
<polygon fill="none" stroke="#63b8ff" points="57.5,-223.69 61,-233.69 64.5,-223.69 57.5,-223.69"/>
</a>
</g>
</g>
<!-- Node4 -->
<g id="Node000004" class="node">
<title>Node4</title>
<g id="a_Node000004"><a xlink:title=" ">
<polygon fill="white" stroke="transparent" points="111,-391 11,-391 11,-331 111,-331 111,-391"/>
<text text-anchor="start" x="16" y="-379" font-family="Helvetica,sans-Serif" font-size="10.00">std::basic_istream</text>
<text text-anchor="start" x="38" y="-368" font-family="Helvetica,sans-Serif" font-size="10.00">&lt; Char &gt;</text>
<text text-anchor="start" x="59" y="-353" font-family="Helvetica,sans-Serif" font-size="10.00"> </text>
<text text-anchor="start" x="59" y="-338" font-family="Helvetica,sans-Serif" font-size="10.00"> </text>
<polygon fill="#666666" stroke="#666666" points="11,-363 11,-363 111,-363 111,-363 11,-363"/>
<polygon fill="#666666" stroke="#666666" points="11,-348 11,-348 111,-348 111,-348 11,-348"/>
<polygon fill="none" stroke="#666666" points="11,-331 11,-391 111,-391 111,-331 11,-331"/>
</a>
</g>
</g>
<!-- Node4&#45;&gt;Node3 -->
<g id="edge3_Node000003_Node000004" class="edge">
<title>Node4&#45;&gt;Node3</title>
<g id="a_edge3_Node000003_Node000004"><a xlink:title=" ">
<path fill="none" stroke="#63b8ff" d="M61,-320.79C61,-311.88 61,-302.57 61,-294.17"/>
<polygon fill="none" stroke="#63b8ff" points="57.5,-320.98 61,-330.98 64.5,-320.98 57.5,-320.98"/>
</a>
</g>
</g>
<!-- Node5 -->
<g id="Node000005" class="node">
<title>Node5</title>
<g id="a_Node000005"><a xlink:title=" ">
<polygon fill="white" stroke="transparent" points="122,-477 0,-477 0,-428 122,-428 122,-477"/>
<text text-anchor="start" x="5" y="-464.5" font-family="Helvetica,sans-Serif" font-size="10.00">std::basic_ios&lt; Char &gt;</text>
<text text-anchor="start" x="59" y="-449.5" font-family="Helvetica,sans-Serif" font-size="10.00"> </text>
<text text-anchor="start" x="59" y="-434.5" font-family="Helvetica,sans-Serif" font-size="10.00"> </text>
<polygon fill="#666666" stroke="#666666" points="0,-459.5 0,-459.5 122,-459.5 122,-459.5 0,-459.5"/>
<polygon fill="#666666" stroke="#666666" points="0,-444.5 0,-444.5 122,-444.5 122,-444.5 0,-444.5"/>
<polygon fill="none" stroke="#666666" points="0,-428 0,-477 122,-477 122,-428 0,-428"/>
</a>
</g>
</g>
<!-- Node5&#45;&gt;Node4 -->
<g id="edge4_Node000004_Node000005" class="edge">
<title>Node5&#45;&gt;Node4</title>
<g id="a_edge4_Node000004_Node000005"><a xlink:title=" ">
<path fill="none" stroke="#63b8ff" d="M61,-417.7C61,-408.95 61,-399.6 61,-391.12"/>
<polygon fill="none" stroke="#63b8ff" points="57.5,-417.98 61,-427.98 64.5,-417.98 57.5,-417.98"/>
</a>
</g>
</g>
<!-- Node6 -->
<g id="Node000006" class="node">
<title>Node6</title>
<g id="a_Node000006"><a xlink:title=" ">
<polygon fill="white" stroke="transparent" points="98,-563 24,-563 24,-514 98,-514 98,-563"/>
<text text-anchor="start" x="29" y="-550.5" font-family="Helvetica,sans-Serif" font-size="10.00">std::ios_base</text>
<text text-anchor="start" x="59" y="-535.5" font-family="Helvetica,sans-Serif" font-size="10.00"> </text>
<text text-anchor="start" x="59" y="-520.5" font-family="Helvetica,sans-Serif" font-size="10.00"> </text>
<polygon fill="#666666" stroke="#666666" points="24,-545.5 24,-545.5 98,-545.5 98,-545.5 24,-545.5"/>
<polygon fill="#666666" stroke="#666666" points="24,-530.5 24,-530.5 98,-530.5 98,-530.5 24,-530.5"/>
<polygon fill="none" stroke="#666666" points="24,-514 24,-563 98,-563 98,-514 24,-514"/>
</a>
</g>
</g>
<!-- Node6&#45;&gt;Node5 -->
<g id="edge5_Node000005_Node000006" class="edge">
<title>Node6&#45;&gt;Node5</title>
<g id="a_edge5_Node000005_Node000006"><a xlink:title=" ">
<path fill="none" stroke="#63b8ff" d="M61,-503.57C61,-494.69 61,-485.32 61,-477.12"/>
<polygon fill="none" stroke="#63b8ff" points="57.5,-503.65 61,-513.65 64.5,-503.65 57.5,-503.65"/>
</a>
</g>
</g>
<!-- Node7 -->
<g id="Node000007" class="node">
<title>Node7</title>
<g id="a_Node000007"><a xlink:title=" ">
<polygon fill="white" stroke="transparent" points="227,-197 147,-197 147,-148 227,-148 227,-197"/>
<text text-anchor="start" x="152" y="-184.5" font-family="Helvetica,sans-Serif" font-size="10.00">InputArchive *</text>
<text text-anchor="start" x="185" y="-169.5" font-family="Helvetica,sans-Serif" font-size="10.00"> </text>
<text text-anchor="start" x="185" y="-154.5" font-family="Helvetica,sans-Serif" font-size="10.00"> </text>
<polygon fill="#bfbfbf" stroke="#bfbfbf" points="147,-179.5 147,-179.5 227,-179.5 227,-179.5 147,-179.5"/>
<polygon fill="#bfbfbf" stroke="#bfbfbf" points="147,-164.5 147,-164.5 227,-164.5 227,-164.5 147,-164.5"/>
<polygon fill="none" stroke="#bfbfbf" points="147,-148 147,-197 227,-197 227,-148 147,-148"/>
</a>
</g>
</g>
<!-- Node7&#45;&gt;Node1 -->
<g id="edge6_Node000001_Node000007" class="edge">
<title>Node7&#45;&gt;Node1</title>
<g id="a_edge6_Node000001_Node000007"><a xlink:title=" ">
<path fill="none" stroke="#63b8ff" d="M180.32,-147.71C176.51,-135.54 171.25,-120.66 165,-108 163.82,-105.6 162.55,-103.19 161.24,-100.77"/>
<polygon fill="none" stroke="#63b8ff" points="161.16,-100.64 154.7,-97.44 155.16,-90.25 161.62,-93.44 161.16,-100.64"/>
</a>
</g>
<text text-anchor="middle" x="225" y="-122" font-family="Helvetica,sans-Serif" font-size="10.00" fill="grey"> &#45;mpCommonArchive</text>
<text text-anchor="middle" x="225" y="-111" font-family="Helvetica,sans-Serif" font-size="10.00" fill="grey">&#45;mpPrivateArchive</text>
</g>
</g>
</svg>
