<?xml version="1.0" encoding="UTF-8" standalone="no"?>
<!DOCTYPE svg PUBLIC "-//W3C//DTD SVG 1.1//EN"
 "http://www.w3.org/Graphics/SVG/1.1/DTD/svg11.dtd">
<!-- Generated by graphviz version 2.43.0 (0)
 -->
<!-- Title: PottsMesh&lt; DIM &gt; Pages: 1 -->
<svg width="1626pt" height="1421pt"
 viewBox="0.00 0.00 1625.95 1421.00" xmlns="http://www.w3.org/2000/svg" xmlns:xlink="http://www.w3.org/1999/xlink">
<g id="graph0" class="graph" transform="scale(1 1) rotate(0) translate(4 1417)">
<title>PottsMesh&lt; DIM &gt;</title>
<!-- Node1 -->
<g id="Node000001" class="node">
<title>Node1</title>
<g id="a_Node000001"><a xlink:title=" ">
<polygon fill="#999999" stroke="transparent" points="1419.45,-274 1234.45,-274 1234.45,0 1419.45,0 1419.45,-274"/>
<text text-anchor="start" x="1280.45" y="-262" font-family="Helvetica,sans-Serif" font-size="10.00">PottsMesh&lt; DIM &gt;</text>
<text text-anchor="start" x="1325.45" y="-247" font-family="Helvetica,sans-Serif" font-size="10.00"> </text>
<text text-anchor="start" x="1238.95" y="-232" font-family="Helvetica,sans-Serif" font-size="10.00">+</text>
<text text-anchor="start" x="1251.95" y="-232" font-family="Helvetica,sans-Serif" font-size="10.00">GetElementIteratorBegin()</text>
<text text-anchor="start" x="1238.95" y="-217" font-family="Helvetica,sans-Serif" font-size="10.00">+</text>
<text text-anchor="start" x="1251.95" y="-217" font-family="Helvetica,sans-Serif" font-size="10.00">GetElementIteratorEnd()</text>
<text text-anchor="start" x="1238.95" y="-202" font-family="Helvetica,sans-Serif" font-size="10.00">+</text>
<text text-anchor="start" x="1251.95" y="-202" font-family="Helvetica,sans-Serif" font-size="10.00">PottsMesh()</text>
<text text-anchor="start" x="1238.95" y="-187" font-family="Helvetica,sans-Serif" font-size="10.00">+</text>
<text text-anchor="start" x="1251.95" y="-187" font-family="Helvetica,sans-Serif" font-size="10.00">PottsMesh()</text>
<text text-anchor="start" x="1238.95" y="-172" font-family="Helvetica,sans-Serif" font-size="10.00">+</text>
<text text-anchor="start" x="1251.95" y="-172" font-family="Helvetica,sans-Serif" font-size="10.00">~PottsMesh()</text>
<text text-anchor="start" x="1238.95" y="-157" font-family="Helvetica,sans-Serif" font-size="10.00">+</text>
<text text-anchor="start" x="1251.95" y="-157" font-family="Helvetica,sans-Serif" font-size="10.00">GetNumNodes()</text>
<text text-anchor="start" x="1238.95" y="-142" font-family="Helvetica,sans-Serif" font-size="10.00">+</text>
<text text-anchor="start" x="1251.95" y="-142" font-family="Helvetica,sans-Serif" font-size="10.00">GetNumElements()</text>
<text text-anchor="start" x="1238.95" y="-127" font-family="Helvetica,sans-Serif" font-size="10.00">+</text>
<text text-anchor="start" x="1251.95" y="-127" font-family="Helvetica,sans-Serif" font-size="10.00">GetNumAllElements()</text>
<text text-anchor="start" x="1238.95" y="-112" font-family="Helvetica,sans-Serif" font-size="10.00">+</text>
<text text-anchor="start" x="1251.95" y="-112" font-family="Helvetica,sans-Serif" font-size="10.00">GetElement()</text>
<text text-anchor="start" x="1238.95" y="-97" font-family="Helvetica,sans-Serif" font-size="10.00">+</text>
<text text-anchor="start" x="1251.95" y="-97" font-family="Helvetica,sans-Serif" font-size="10.00">GetCentroidOfElement()</text>
<text text-anchor="start" x="1251.95" y="-82" font-family="Helvetica,sans-Serif" font-size="10.00">and 12 more...</text>
<text text-anchor="start" x="1238.95" y="-67" font-family="Helvetica,sans-Serif" font-size="10.00">#</text>
<text text-anchor="start" x="1251.95" y="-67" font-family="Helvetica,sans-Serif" font-size="10.00">SolveNodeMapping()</text>
<text text-anchor="start" x="1238.95" y="-52" font-family="Helvetica,sans-Serif" font-size="10.00">#</text>
<text text-anchor="start" x="1251.95" y="-52" font-family="Helvetica,sans-Serif" font-size="10.00">SolveElementMapping()</text>
<text text-anchor="start" x="1238.95" y="-37" font-family="Helvetica,sans-Serif" font-size="10.00">#</text>
<text text-anchor="start" x="1251.95" y="-37" font-family="Helvetica,sans-Serif" font-size="10.00">SolveBoundaryElementMapping()</text>
<text text-anchor="start" x="1238.95" y="-22" font-family="Helvetica,sans-Serif" font-size="10.00">#</text>
<text text-anchor="start" x="1251.95" y="-22" font-family="Helvetica,sans-Serif" font-size="10.00">save()</text>
<text text-anchor="start" x="1238.95" y="-7" font-family="Helvetica,sans-Serif" font-size="10.00">#</text>
<text text-anchor="start" x="1251.95" y="-7" font-family="Helvetica,sans-Serif" font-size="10.00">load()</text>
<polygon fill="#666666" stroke="#666666" points="1234.95,-257 1234.95,-257 1419.95,-257 1419.95,-257 1234.95,-257"/>
<polygon fill="#666666" stroke="#666666" points="1234.95,-242 1234.95,-242 1419.95,-242 1419.95,-242 1234.95,-242"/>
<polygon fill="none" stroke="#666666" points="1234.45,0 1234.45,-274 1419.45,-274 1419.45,0 1234.45,0"/>
</a>
</g>
</g>
<!-- Node2 -->
<g id="Node000002" class="node">
<title>Node2</title>
<g id="a_Node000002"><a xlink:href="classAbstractMesh.html" target="_top" xlink:title=" ">
<polygon fill="white" stroke="transparent" points="888.45,-613 741.45,-613 741.45,-343 888.45,-343 888.45,-613"/>
<text text-anchor="start" x="764.95" y="-601" font-family="Helvetica,sans-Serif" font-size="10.00">AbstractMesh&lt; DIM,</text>
<text text-anchor="start" x="798.45" y="-590" font-family="Helvetica,sans-Serif" font-size="10.00"> DIM &gt;</text>
<text text-anchor="start" x="813.45" y="-575" font-family="Helvetica,sans-Serif" font-size="10.00"> </text>
<text text-anchor="start" x="745.95" y="-560" font-family="Helvetica,sans-Serif" font-size="10.00">+</text>
<text text-anchor="start" x="758.95" y="-560" font-family="Helvetica,sans-Serif" font-size="10.00">CalculateBoundingBox()</text>
<text text-anchor="start" x="745.95" y="-545" font-family="Helvetica,sans-Serif" font-size="10.00">+</text>
<text text-anchor="start" x="758.95" y="-545" font-family="Helvetica,sans-Serif" font-size="10.00">GetNodeIteratorBegin()</text>
<text text-anchor="start" x="745.95" y="-530" font-family="Helvetica,sans-Serif" font-size="10.00">+</text>
<text text-anchor="start" x="758.95" y="-530" font-family="Helvetica,sans-Serif" font-size="10.00">GetNodeIteratorEnd()</text>
<text text-anchor="start" x="745.95" y="-515" font-family="Helvetica,sans-Serif" font-size="10.00">+</text>
<text text-anchor="start" x="758.95" y="-515" font-family="Helvetica,sans-Serif" font-size="10.00">AbstractMesh()</text>
<text text-anchor="start" x="745.95" y="-500" font-family="Helvetica,sans-Serif" font-size="10.00">+</text>
<text text-anchor="start" x="758.95" y="-500" font-family="Helvetica,sans-Serif" font-size="10.00">~AbstractMesh()</text>
<text text-anchor="start" x="745.95" y="-485" font-family="Helvetica,sans-Serif" font-size="10.00">+</text>
<text text-anchor="start" x="758.95" y="-485" font-family="Helvetica,sans-Serif" font-size="10.00">GetNumNodes()</text>
<text text-anchor="start" x="745.95" y="-470" font-family="Helvetica,sans-Serif" font-size="10.00">+</text>
<text text-anchor="start" x="758.95" y="-470" font-family="Helvetica,sans-Serif" font-size="10.00">GetNumBoundaryNodes()</text>
<text text-anchor="start" x="745.95" y="-455" font-family="Helvetica,sans-Serif" font-size="10.00">+</text>
<text text-anchor="start" x="758.95" y="-455" font-family="Helvetica,sans-Serif" font-size="10.00">GetNumAllNodes()</text>
<text text-anchor="start" x="745.95" y="-440" font-family="Helvetica,sans-Serif" font-size="10.00">+</text>
<text text-anchor="start" x="758.95" y="-440" font-family="Helvetica,sans-Serif" font-size="10.00">GetNumNodeAttributes()</text>
<text text-anchor="start" x="745.95" y="-425" font-family="Helvetica,sans-Serif" font-size="10.00">+</text>
<text text-anchor="start" x="758.95" y="-425" font-family="Helvetica,sans-Serif" font-size="10.00">GetNode()</text>
<text text-anchor="start" x="758.95" y="-410" font-family="Helvetica,sans-Serif" font-size="10.00">and 28 more...</text>
<text text-anchor="start" x="745.95" y="-395" font-family="Helvetica,sans-Serif" font-size="10.00">#</text>
<text text-anchor="start" x="758.95" y="-395" font-family="Helvetica,sans-Serif" font-size="10.00">SetElementOwnerships()</text>
<text text-anchor="start" x="745.95" y="-380" font-family="Helvetica,sans-Serif" font-size="10.00">#</text>
<text text-anchor="start" x="758.95" y="-380" font-family="Helvetica,sans-Serif" font-size="10.00">CalculateBoundingBox()</text>
<text text-anchor="start" x="748.45" y="-365" font-family="Helvetica,sans-Serif" font-size="10.00">&#45;</text>
<text text-anchor="start" x="758.95" y="-365" font-family="Helvetica,sans-Serif" font-size="10.00">SolveNodeMapping()</text>
<text text-anchor="start" x="748.45" y="-350" font-family="Helvetica,sans-Serif" font-size="10.00">&#45;</text>
<text text-anchor="start" x="758.95" y="-350" font-family="Helvetica,sans-Serif" font-size="10.00">serialize()</text>
<polygon fill="#666666" stroke="#666666" points="741.95,-585 741.95,-585 888.95,-585 888.95,-585 741.95,-585"/>
<polygon fill="#666666" stroke="#666666" points="741.95,-570 741.95,-570 888.95,-570 888.95,-570 741.95,-570"/>
<polygon fill="none" stroke="#666666" points="741.45,-343 741.45,-613 888.45,-613 888.45,-343 741.45,-343"/>
</a>
</g>
</g>
<!-- Node2&#45;&gt;Node1 -->
<g id="edge1_Node000001_Node000002" class="edge">
<title>Node2&#45;&gt;Node1</title>
<g id="a_edge1_Node000001_Node000002"><a xlink:title=" ">
<path fill="none" stroke="#63b8ff" d="M897.03,-422.65C989.11,-361.68 1138.14,-263.01 1234.32,-199.33"/>
<polygon fill="none" stroke="#63b8ff" points="894.98,-419.81 888.58,-428.25 898.85,-425.65 894.98,-419.81"/>
</a>
</g>
</g>
<!-- Node3 -->
<g id="Node000003" class="node">
<title>Node3</title>
<g id="a_Node000003"><a xlink:title=" ">
<polygon fill="white" stroke="transparent" points="871.95,-1160.5 765.95,-1160.5 765.95,-1111.5 871.95,-1111.5 871.95,-1160.5"/>
<text text-anchor="start" x="770.95" y="-1148" font-family="Helvetica,sans-Serif" font-size="10.00">boost::noncopyable</text>
<text text-anchor="start" x="816.95" y="-1133" font-family="Helvetica,sans-Serif" font-size="10.00"> </text>
<text text-anchor="start" x="816.95" y="-1118" font-family="Helvetica,sans-Serif" font-size="10.00"> </text>
<polygon fill="#bfbfbf" stroke="#bfbfbf" points="765.95,-1143 765.95,-1143 871.95,-1143 871.95,-1143 765.95,-1143"/>
<polygon fill="#bfbfbf" stroke="#bfbfbf" points="765.95,-1128 765.95,-1128 871.95,-1128 871.95,-1128 765.95,-1128"/>
<polygon fill="none" stroke="#bfbfbf" points="765.95,-1111.5 765.95,-1160.5 871.95,-1160.5 871.95,-1111.5 765.95,-1111.5"/>
</a>
</g>
</g>
<!-- Node3&#45;&gt;Node2 -->
<g id="edge2_Node000002_Node000003" class="edge">
<title>Node3&#45;&gt;Node2</title>
<g id="a_edge2_Node000002_Node000003"><a xlink:title=" ">
<path fill="none" stroke="#8b1a1a" d="M800.19,-1102.41C782.72,-1070.04 757.91,-1018.37 747.95,-970 723.3,-850.35 746.61,-712.36 772.26,-613.2"/>
<polygon fill="none" stroke="#8b1a1a" points="797.25,-1104.33 805.13,-1111.42 803.39,-1100.97 797.25,-1104.33"/>
</a>
</g>
</g>
<!-- Node10 -->
<g id="Node000010" class="node">
<title>Node10</title>
<g id="a_Node000010"><a xlink:href="classAbstractMesh.html" target="_top" xlink:title=" ">
<polygon fill="white" stroke="transparent" points="717.45,-930 570.45,-930 570.45,-660 717.45,-660 717.45,-930"/>
<text text-anchor="start" x="582.45" y="-918" font-family="Helvetica,sans-Serif" font-size="10.00">AbstractMesh&lt; ELEMENT</text>
<text text-anchor="start" x="595.45" y="-907" font-family="Helvetica,sans-Serif" font-size="10.00">_DIM, SPACE_DIM &gt;</text>
<text text-anchor="start" x="642.45" y="-892" font-family="Helvetica,sans-Serif" font-size="10.00"> </text>
<text text-anchor="start" x="574.95" y="-877" font-family="Helvetica,sans-Serif" font-size="10.00">+</text>
<text text-anchor="start" x="587.95" y="-877" font-family="Helvetica,sans-Serif" font-size="10.00">GetNodeIteratorBegin()</text>
<text text-anchor="start" x="574.95" y="-862" font-family="Helvetica,sans-Serif" font-size="10.00">+</text>
<text text-anchor="start" x="587.95" y="-862" font-family="Helvetica,sans-Serif" font-size="10.00">GetNodeIteratorEnd()</text>
<text text-anchor="start" x="574.95" y="-847" font-family="Helvetica,sans-Serif" font-size="10.00">+</text>
<text text-anchor="start" x="587.95" y="-847" font-family="Helvetica,sans-Serif" font-size="10.00">AbstractMesh()</text>
<text text-anchor="start" x="574.95" y="-832" font-family="Helvetica,sans-Serif" font-size="10.00">+</text>
<text text-anchor="start" x="587.95" y="-832" font-family="Helvetica,sans-Serif" font-size="10.00">~AbstractMesh()</text>
<text text-anchor="start" x="574.95" y="-817" font-family="Helvetica,sans-Serif" font-size="10.00">+</text>
<text text-anchor="start" x="587.95" y="-817" font-family="Helvetica,sans-Serif" font-size="10.00">GetNumNodes()</text>
<text text-anchor="start" x="574.95" y="-802" font-family="Helvetica,sans-Serif" font-size="10.00">+</text>
<text text-anchor="start" x="587.95" y="-802" font-family="Helvetica,sans-Serif" font-size="10.00">GetNumBoundaryNodes()</text>
<text text-anchor="start" x="574.95" y="-787" font-family="Helvetica,sans-Serif" font-size="10.00">+</text>
<text text-anchor="start" x="587.95" y="-787" font-family="Helvetica,sans-Serif" font-size="10.00">GetNumAllNodes()</text>
<text text-anchor="start" x="574.95" y="-772" font-family="Helvetica,sans-Serif" font-size="10.00">+</text>
<text text-anchor="start" x="587.95" y="-772" font-family="Helvetica,sans-Serif" font-size="10.00">GetNumNodeAttributes()</text>
<text text-anchor="start" x="574.95" y="-757" font-family="Helvetica,sans-Serif" font-size="10.00">+</text>
<text text-anchor="start" x="587.95" y="-757" font-family="Helvetica,sans-Serif" font-size="10.00">GetNode()</text>
<text text-anchor="start" x="574.95" y="-742" font-family="Helvetica,sans-Serif" font-size="10.00">+</text>
<text text-anchor="start" x="587.95" y="-742" font-family="Helvetica,sans-Serif" font-size="10.00">GetNodeOrHaloNode()</text>
<text text-anchor="start" x="587.95" y="-727" font-family="Helvetica,sans-Serif" font-size="10.00">and 28 more...</text>
<text text-anchor="start" x="574.95" y="-712" font-family="Helvetica,sans-Serif" font-size="10.00">#</text>
<text text-anchor="start" x="587.95" y="-712" font-family="Helvetica,sans-Serif" font-size="10.00">SetElementOwnerships()</text>
<text text-anchor="start" x="574.95" y="-697" font-family="Helvetica,sans-Serif" font-size="10.00">#</text>
<text text-anchor="start" x="587.95" y="-697" font-family="Helvetica,sans-Serif" font-size="10.00">CalculateBoundingBox()</text>
<text text-anchor="start" x="577.45" y="-682" font-family="Helvetica,sans-Serif" font-size="10.00">&#45;</text>
<text text-anchor="start" x="587.95" y="-682" font-family="Helvetica,sans-Serif" font-size="10.00">SolveNodeMapping()</text>
<text text-anchor="start" x="577.45" y="-667" font-family="Helvetica,sans-Serif" font-size="10.00">&#45;</text>
<text text-anchor="start" x="587.95" y="-667" font-family="Helvetica,sans-Serif" font-size="10.00">serialize()</text>
<polygon fill="#666666" stroke="#666666" points="570.95,-902 570.95,-902 717.95,-902 717.95,-902 570.95,-902"/>
<polygon fill="#666666" stroke="#666666" points="570.95,-887 570.95,-887 717.95,-887 717.95,-887 570.95,-887"/>
<polygon fill="none" stroke="#666666" points="570.45,-660 570.45,-930 717.45,-930 717.45,-660 570.45,-660"/>
</a>
</g>
</g>
<!-- Node3&#45;&gt;Node10 -->
<g id="edge13_Node000010_Node000003" class="edge">
<title>Node3&#45;&gt;Node10</title>
<g id="a_edge13_Node000010_Node000003"><a xlink:title=" ">
<path fill="none" stroke="#8b1a1a" d="M810.26,-1101.43C800.51,-1069.2 782,-1020.71 751.95,-988 740.91,-975.98 730.89,-982.1 719.95,-970 709.23,-958.14 699.84,-944.53 691.66,-930.26"/>
<polygon fill="none" stroke="#8b1a1a" points="806.97,-1102.66 813.12,-1111.29 813.69,-1100.71 806.97,-1102.66"/>
</a>
</g>
</g>
<!-- Node4 -->
<g id="Node000004" class="node">
<title>Node4</title>
<g id="a_Node000004"><a xlink:title=" ">
<polygon fill="white" stroke="transparent" points="1009.95,-1166 889.95,-1166 889.95,-1106 1009.95,-1106 1009.95,-1166"/>
<text text-anchor="start" x="894.95" y="-1154" font-family="Helvetica,sans-Serif" font-size="10.00">vector&lt; Node&lt; SPACE</text>
<text text-anchor="start" x="921.95" y="-1143" font-family="Helvetica,sans-Serif" font-size="10.00">_DIM &gt; * &gt;</text>
<text text-anchor="start" x="947.95" y="-1128" font-family="Helvetica,sans-Serif" font-size="10.00"> </text>
<text text-anchor="start" x="947.95" y="-1113" font-family="Helvetica,sans-Serif" font-size="10.00"> </text>
<polygon fill="#bfbfbf" stroke="#bfbfbf" points="889.95,-1138 889.95,-1138 1009.95,-1138 1009.95,-1138 889.95,-1138"/>
<polygon fill="#bfbfbf" stroke="#bfbfbf" points="889.95,-1123 889.95,-1123 1009.95,-1123 1009.95,-1123 889.95,-1123"/>
<polygon fill="none" stroke="#bfbfbf" points="889.95,-1106 889.95,-1166 1009.95,-1166 1009.95,-1106 889.95,-1106"/>
</a>
</g>
</g>
<!-- Node4&#45;&gt;Node2 -->
<g id="edge3_Node000002_Node000004" class="edge">
<title>Node4&#45;&gt;Node2</title>
<g id="a_edge3_Node000002_Node000004"><a xlink:title=" ">
<path fill="none" stroke="#63b8ff" d="M938.67,-1105.91C926.39,-1073.27 906.91,-1018.52 894.95,-970 866.73,-855.49 845.85,-723.44 832.51,-625.14"/>
<polygon fill="none" stroke="#63b8ff" points="832.48,-624.91 827.72,-619.5 830.88,-613.02 835.65,-618.43 832.48,-624.91"/>
</a>
</g>
<text text-anchor="middle" x="934.45" y="-798" font-family="Helvetica,sans-Serif" font-size="10.00" fill="grey"> #mBoundaryNodes</text>
<text text-anchor="middle" x="934.45" y="-787" font-family="Helvetica,sans-Serif" font-size="10.00" fill="grey">#mNodes</text>
</g>
<!-- Node4&#45;&gt;Node10 -->
<g id="edge14_Node000010_Node000004" class="edge">
<title>Node4&#45;&gt;Node10</title>
<g id="a_edge14_Node000010_Node000004"><a xlink:title=" ">
<path fill="none" stroke="#63b8ff" d="M944.72,-1105.83C937,-1071.86 919.14,-1016.73 880.95,-988 840.31,-957.43 811.18,-996.79 767.95,-970 752.56,-960.46 738.53,-948.24 725.9,-934.69"/>
<polygon fill="none" stroke="#63b8ff" points="725.8,-934.58 718.82,-932.76 717.81,-925.62 724.79,-927.43 725.8,-934.58"/>
</a>
</g>
<text text-anchor="middle" x="817.45" y="-962" font-family="Helvetica,sans-Serif" font-size="10.00" fill="grey"> #mBoundaryNodes</text>
<text text-anchor="middle" x="817.45" y="-951" font-family="Helvetica,sans-Serif" font-size="10.00" fill="grey">#mNodes</text>
</g>
<!-- Node5 -->
<g id="Node000005" class="node">
<title>Node5</title>
<g id="a_Node000005"><a xlink:href="classDistributedVectorFactory.html" target="_top" xlink:title=" ">
<polygon fill="white" stroke="transparent" points="489.95,-1284 323.95,-1284 323.95,-988 489.95,-988 489.95,-1284"/>
<text text-anchor="start" x="346.45" y="-1272" font-family="Helvetica,sans-Serif" font-size="10.00">DistributedVectorFactory</text>
<text text-anchor="start" x="404.95" y="-1257" font-family="Helvetica,sans-Serif" font-size="10.00"> </text>
<text text-anchor="start" x="327.95" y="-1242" font-family="Helvetica,sans-Serif" font-size="10.00">+</text>
<text text-anchor="start" x="340.95" y="-1242" font-family="Helvetica,sans-Serif" font-size="10.00">DistributedVectorFactory()</text>
<text text-anchor="start" x="327.95" y="-1227" font-family="Helvetica,sans-Serif" font-size="10.00">+</text>
<text text-anchor="start" x="340.95" y="-1227" font-family="Helvetica,sans-Serif" font-size="10.00">DistributedVectorFactory()</text>
<text text-anchor="start" x="327.95" y="-1212" font-family="Helvetica,sans-Serif" font-size="10.00">+</text>
<text text-anchor="start" x="340.95" y="-1212" font-family="Helvetica,sans-Serif" font-size="10.00">DistributedVectorFactory()</text>
<text text-anchor="start" x="327.95" y="-1197" font-family="Helvetica,sans-Serif" font-size="10.00">+</text>
<text text-anchor="start" x="340.95" y="-1197" font-family="Helvetica,sans-Serif" font-size="10.00">DistributedVectorFactory()</text>
<text text-anchor="start" x="327.95" y="-1182" font-family="Helvetica,sans-Serif" font-size="10.00">+</text>
<text text-anchor="start" x="340.95" y="-1182" font-family="Helvetica,sans-Serif" font-size="10.00">~DistributedVectorFactory()</text>
<text text-anchor="start" x="327.95" y="-1167" font-family="Helvetica,sans-Serif" font-size="10.00">+</text>
<text text-anchor="start" x="340.95" y="-1167" font-family="Helvetica,sans-Serif" font-size="10.00">CreateVec()</text>
<text text-anchor="start" x="327.95" y="-1152" font-family="Helvetica,sans-Serif" font-size="10.00">+</text>
<text text-anchor="start" x="340.95" y="-1152" font-family="Helvetica,sans-Serif" font-size="10.00">CreateVec()</text>
<text text-anchor="start" x="327.95" y="-1137" font-family="Helvetica,sans-Serif" font-size="10.00">+</text>
<text text-anchor="start" x="340.95" y="-1137" font-family="Helvetica,sans-Serif" font-size="10.00">CreateDistributedVector()</text>
<text text-anchor="start" x="327.95" y="-1122" font-family="Helvetica,sans-Serif" font-size="10.00">+</text>
<text text-anchor="start" x="340.95" y="-1122" font-family="Helvetica,sans-Serif" font-size="10.00">IsGlobalIndexLocal()</text>
<text text-anchor="start" x="327.95" y="-1107" font-family="Helvetica,sans-Serif" font-size="10.00">+</text>
<text text-anchor="start" x="340.95" y="-1107" font-family="Helvetica,sans-Serif" font-size="10.00">GetLocalOwnership()</text>
<text text-anchor="start" x="340.95" y="-1092" font-family="Helvetica,sans-Serif" font-size="10.00">and 8 more...</text>
<text text-anchor="start" x="327.95" y="-1077" font-family="Helvetica,sans-Serif" font-size="10.00">+</text>
<text text-anchor="start" x="340.95" y="-1077" font-family="Helvetica,sans-Serif" font-size="10.00">SetCheckNumberOfProcesses</text>
<text text-anchor="start" x="340.95" y="-1066" font-family="Helvetica,sans-Serif" font-size="10.00">OnLoad()</text>
<text text-anchor="start" x="327.95" y="-1051" font-family="Helvetica,sans-Serif" font-size="10.00">+</text>
<text text-anchor="start" x="340.95" y="-1051" font-family="Helvetica,sans-Serif" font-size="10.00">CheckNumberOfProcessesOn</text>
<text text-anchor="start" x="340.95" y="-1040" font-family="Helvetica,sans-Serif" font-size="10.00">Load()</text>
<text text-anchor="start" x="330.45" y="-1025" font-family="Helvetica,sans-Serif" font-size="10.00">&#45;</text>
<text text-anchor="start" x="340.95" y="-1025" font-family="Helvetica,sans-Serif" font-size="10.00">CheckForPetsc()</text>
<text text-anchor="start" x="330.45" y="-1010" font-family="Helvetica,sans-Serif" font-size="10.00">&#45;</text>
<text text-anchor="start" x="340.95" y="-1010" font-family="Helvetica,sans-Serif" font-size="10.00">CalculateOwnership()</text>
<text text-anchor="start" x="330.45" y="-995" font-family="Helvetica,sans-Serif" font-size="10.00">&#45;</text>
<text text-anchor="start" x="340.95" y="-995" font-family="Helvetica,sans-Serif" font-size="10.00">serialize()</text>
<polygon fill="#666666" stroke="#666666" points="323.95,-1267 323.95,-1267 489.95,-1267 489.95,-1267 323.95,-1267"/>
<polygon fill="#666666" stroke="#666666" points="323.95,-1252 323.95,-1252 489.95,-1252 489.95,-1252 323.95,-1252"/>
<polygon fill="none" stroke="#666666" points="323.95,-988 323.95,-1284 489.95,-1284 489.95,-988 323.95,-988"/>
</a>
</g>
</g>
<!-- Node5&#45;&gt;Node2 -->
<g id="edge4_Node000002_Node000005" class="edge">
<title>Node5&#45;&gt;Node2</title>
<g id="a_edge4_Node000002_Node000005"><a xlink:title=" ">
<path fill="none" stroke="#63b8ff" d="M370.14,-987.85C353.73,-887.44 350.16,-755.79 412.95,-660 483.26,-552.72 633.79,-508.33 729.37,-490.47"/>
<polygon fill="none" stroke="#63b8ff" points="729.52,-490.44 734.71,-485.44 741.33,-488.32 736.13,-493.32 729.52,-490.44"/>
</a>
</g>
<text text-anchor="middle" x="486.95" y="-792.5" font-family="Helvetica,sans-Serif" font-size="10.00" fill="grey"> #mpDistributedVectorFactory</text>
</g>
<!-- Node5&#45;&gt;Node5 -->
<g id="edge8_Node000005_Node000005" class="edge">
<title>Node5&#45;&gt;Node5</title>
<g id="a_edge8_Node000005_Node000005"><a xlink:title=" ">
<path fill="none" stroke="#63b8ff" d="M490.16,-1164.92C500.87,-1159.91 507.95,-1150.27 507.95,-1136 507.95,-1126.86 505.04,-1119.62 500.14,-1114.28"/>
<polygon fill="none" stroke="#63b8ff" points="499.89,-1114.1 492.68,-1113.83 490.16,-1107.08 497.36,-1107.34 499.89,-1114.1"/>
</a>
</g>
<text text-anchor="middle" x="556.45" y="-1133.5" font-family="Helvetica,sans-Serif" font-size="10.00" fill="grey"> &#45;mpOriginalFactory</text>
</g>
<!-- Node5&#45;&gt;Node10 -->
<g id="edge15_Node000010_Node000005" class="edge">
<title>Node5&#45;&gt;Node10</title>
<g id="a_edge15_Node000010_Node000005"><a xlink:title=" ">
<path fill="none" stroke="#63b8ff" d="M446.83,-987.89C455.52,-972.95 466.09,-959.19 478.95,-948 505.45,-924.92 527.14,-950.12 555.95,-930 557.67,-928.79 559.37,-927.54 561.05,-926.25"/>
<polygon fill="none" stroke="#63b8ff" points="561.18,-926.14 563.2,-919.21 570.37,-918.41 568.35,-925.34 561.18,-926.14"/>
</a>
</g>
<text text-anchor="middle" x="552.95" y="-956.5" font-family="Helvetica,sans-Serif" font-size="10.00" fill="grey"> #mpDistributedVectorFactory</text>
</g>
<!-- Node6 -->
<g id="Node000006" class="node">
<title>Node6</title>
<g id="a_Node000006"><a xlink:href="classunsigned.html" target="_top" xlink:title=" ">
<polygon fill="white" stroke="transparent" points="434.45,-1413 379.45,-1413 379.45,-1364 434.45,-1364 434.45,-1413"/>
<text text-anchor="start" x="384.95" y="-1400.5" font-family="Helvetica,sans-Serif" font-size="10.00">unsigned</text>
<text text-anchor="start" x="405.45" y="-1385.5" font-family="Helvetica,sans-Serif" font-size="10.00"> </text>
<text text-anchor="start" x="405.45" y="-1370.5" font-family="Helvetica,sans-Serif" font-size="10.00"> </text>
<polygon fill="#bfbfbf" stroke="#bfbfbf" points="379.95,-1395.5 379.95,-1395.5 434.95,-1395.5 434.95,-1395.5 379.95,-1395.5"/>
<polygon fill="#bfbfbf" stroke="#bfbfbf" points="379.95,-1380.5 379.95,-1380.5 434.95,-1380.5 434.95,-1380.5 379.95,-1380.5"/>
<polygon fill="none" stroke="#bfbfbf" points="379.45,-1364 379.45,-1413 434.45,-1413 434.45,-1364 379.45,-1364"/>
</a>
</g>
</g>
<!-- Node6&#45;&gt;Node5 -->
<g id="edge5_Node000005_Node000006" class="edge">
<title>Node6&#45;&gt;Node5</title>
<g id="a_edge5_Node000005_Node000006"><a xlink:title=" ">
<path fill="none" stroke="#63b8ff" d="M406.95,-1363.93C406.95,-1347.14 406.95,-1322.93 406.95,-1296.52"/>
<polygon fill="none" stroke="#63b8ff" points="406.95,-1296.25 402.95,-1290.25 406.95,-1284.25 410.95,-1290.25 406.95,-1296.25"/>
</a>
</g>
<text text-anchor="middle" x="444.45" y="-1338" font-family="Helvetica,sans-Serif" font-size="10.00" fill="grey"> &#45;mHi</text>
<text text-anchor="middle" x="444.45" y="-1327" font-family="Helvetica,sans-Serif" font-size="10.00" fill="grey">&#45;mLo</text>
<text text-anchor="middle" x="444.45" y="-1316" font-family="Helvetica,sans-Serif" font-size="10.00" fill="grey">&#45;mNumProcs</text>
<text text-anchor="middle" x="444.45" y="-1305" font-family="Helvetica,sans-Serif" font-size="10.00" fill="grey">&#45;mProblemSize</text>
</g>
<!-- Node7 -->
<g id="Node000007" class="node">
<title>Node7</title>
<g id="a_Node000007"><a xlink:href="classbool.html" target="_top" xlink:title=" ">
<polygon fill="white" stroke="transparent" points="146.95,-1413 114.95,-1413 114.95,-1364 146.95,-1364 146.95,-1413"/>
<text text-anchor="start" x="119.95" y="-1400.5" font-family="Helvetica,sans-Serif" font-size="10.00">bool</text>
<text text-anchor="start" x="128.95" y="-1385.5" font-family="Helvetica,sans-Serif" font-size="10.00"> </text>
<text text-anchor="start" x="128.95" y="-1370.5" font-family="Helvetica,sans-Serif" font-size="10.00"> </text>
<polygon fill="#bfbfbf" stroke="#bfbfbf" points="114.95,-1395.5 114.95,-1395.5 146.95,-1395.5 146.95,-1395.5 114.95,-1395.5"/>
<polygon fill="#bfbfbf" stroke="#bfbfbf" points="114.95,-1380.5 114.95,-1380.5 146.95,-1380.5 146.95,-1380.5 114.95,-1380.5"/>
<polygon fill="none" stroke="#bfbfbf" points="114.95,-1364 114.95,-1413 146.95,-1413 146.95,-1364 114.95,-1364"/>
</a>
</g>
</g>
<!-- Node7&#45;&gt;Node2 -->
<g id="edge11_Node000002_Node000007" class="edge">
<title>Node7&#45;&gt;Node2</title>
<g id="a_edge11_Node000002_Node000007"><a xlink:title=" ">
<path fill="none" stroke="#63b8ff" d="M114.65,-1367.63C109.77,-1361.03 104.73,-1353.45 100.95,-1346 87.86,-1320.17 88.04,-1312.07 80.95,-1284 43.85,-1137.07 -40.07,-1085.82 22.95,-948 154,-661.39 553.18,-538.03 729.58,-496.49"/>
<polygon fill="none" stroke="#63b8ff" points="729.69,-496.47 734.64,-491.22 741.38,-493.76 736.44,-499.01 729.69,-496.47"/>
</a>
</g>
<text text-anchor="middle" x="110.45" y="-956.5" font-family="Helvetica,sans-Serif" font-size="10.00" fill="grey"> #mMeshChangesDuringSimulation</text>
</g>
<!-- Node7&#45;&gt;Node5 -->
<g id="edge6_Node000005_Node000007" class="edge">
<title>Node7&#45;&gt;Node5</title>
<g id="a_edge6_Node000005_Node000007"><a xlink:title=" ">
<path fill="none" stroke="#63b8ff" d="M147.24,-1373.97C170.07,-1355.55 213.47,-1322.55 254.95,-1302 278,-1290.58 289.5,-1299.6 309.95,-1284 311.43,-1282.87 312.89,-1281.71 314.34,-1280.52"/>
<polygon fill="none" stroke="#63b8ff" points="314.67,-1280.23 316.54,-1273.27 323.69,-1272.31 321.82,-1279.28 314.67,-1280.23"/>
</a>
</g>
<text text-anchor="middle" x="328.95" y="-1332.5" font-family="Helvetica,sans-Serif" font-size="10.00" fill="grey"> &#45;mPetscStatusKnown</text>
<text text-anchor="start" x="254.95" y="-1321.5" font-family="Helvetica,sans-Serif" font-size="10.00" fill="grey">&#45;msCheckNumberOfProcesses</text>
<text text-anchor="middle" x="328.95" y="-1310.5" font-family="Helvetica,sans-Serif" font-size="10.00" fill="grey">OnLoad</text>
</g>
<!-- Node7&#45;&gt;Node10 -->
<g id="edge18_Node000010_Node000007" class="edge">
<title>Node7&#45;&gt;Node10</title>
<g id="a_edge18_Node000010_Node000007"><a xlink:title=" ">
<path fill="none" stroke="#63b8ff" d="M122.32,-1363.97C99.02,-1295.88 42.92,-1096.68 139.95,-988 169.83,-954.53 484.93,-956.07 559.28,-931.21"/>
<polygon fill="none" stroke="#63b8ff" points="559.31,-931.2 563.12,-925.08 570.24,-926.25 566.42,-932.37 559.31,-931.2"/>
</a>
</g>
<text text-anchor="middle" x="227.45" y="-1133.5" font-family="Helvetica,sans-Serif" font-size="10.00" fill="grey"> #mMeshChangesDuringSimulation</text>
</g>
<!-- Node8 -->
<g id="Node000008" class="node">
<title>Node8</title>
<g id="a_Node000008"><a xlink:title=" ">
<polygon fill="white" stroke="transparent" points="954.95,-1413 846.95,-1413 846.95,-1364 954.95,-1364 954.95,-1413"/>
<text text-anchor="start" x="851.95" y="-1400.5" font-family="Helvetica,sans-Serif" font-size="10.00">vector&lt; unsigned &gt;</text>
<text text-anchor="start" x="898.95" y="-1385.5" font-family="Helvetica,sans-Serif" font-size="10.00"> </text>
<text text-anchor="start" x="898.95" y="-1370.5" font-family="Helvetica,sans-Serif" font-size="10.00"> </text>
<polygon fill="#bfbfbf" stroke="#bfbfbf" points="846.95,-1395.5 846.95,-1395.5 954.95,-1395.5 954.95,-1395.5 846.95,-1395.5"/>
<polygon fill="#bfbfbf" stroke="#bfbfbf" points="846.95,-1380.5 846.95,-1380.5 954.95,-1380.5 954.95,-1380.5 846.95,-1380.5"/>
<polygon fill="none" stroke="#bfbfbf" points="846.95,-1364 846.95,-1413 954.95,-1413 954.95,-1364 846.95,-1364"/>
</a>
</g>
</g>
<!-- Node8&#45;&gt;Node1 -->
<g id="edge20_Node000001_Node000008" class="edge">
<title>Node8&#45;&gt;Node1</title>
<g id="a_edge20_Node000001_Node000008"><a xlink:title=" ">
<path fill="none" stroke="#63b8ff" d="M955.01,-1378.17C1060.58,-1356.51 1283.95,-1292.33 1283.95,-1137 1283.95,-1137 1283.95,-1137 1283.95,-477 1283.95,-414.28 1291.28,-345.55 1299.89,-286.47"/>
<polygon fill="none" stroke="#63b8ff" points="1299.92,-286.27 1296.85,-279.75 1301.69,-274.41 1304.76,-280.93 1299.92,-286.27"/>
</a>
</g>
<text text-anchor="middle" x="1351.45" y="-792.5" font-family="Helvetica,sans-Serif" font-size="10.00" fill="grey"> #mDeletedElementIndices</text>
</g>
<!-- Node8&#45;&gt;Node2 -->
<g id="edge9_Node000002_Node000008" class="edge">
<title>Node8&#45;&gt;Node2</title>
<g id="a_edge9_Node000002_Node000008"><a xlink:title=" ">
<path fill="none" stroke="#63b8ff" d="M955.27,-1368.91C994.56,-1352.63 1045.69,-1325.09 1074.95,-1284 1168.13,-1153.14 1131.64,-1089.81 1147.95,-930 1160.13,-810.62 1209.28,-763.14 1147.95,-660 1094.85,-570.7 980.57,-522.7 900.78,-499.03"/>
<polygon fill="none" stroke="#63b8ff" points="900.31,-498.89 893.44,-501.08 888.78,-495.57 895.65,-493.39 900.31,-498.89"/>
</a>
</g>
<text text-anchor="middle" x="1200.45" y="-956.5" font-family="Helvetica,sans-Serif" font-size="10.00" fill="grey"> #mNodePermutation</text>
</g>
<!-- Node8&#45;&gt;Node5 -->
<g id="edge7_Node000005_Node000008" class="edge">
<title>Node8&#45;&gt;Node5</title>
<g id="a_edge7_Node000005_Node000008"><a xlink:title=" ">
<path fill="none" stroke="#63b8ff" d="M846.8,-1386.34C761.89,-1383.64 602.13,-1374.78 553.95,-1346 531.32,-1332.49 511.29,-1313.99 493.85,-1293.56"/>
<polygon fill="none" stroke="#63b8ff" points="493.65,-1293.31 486.74,-1291.21 486.02,-1284.04 492.92,-1286.13 493.65,-1293.31"/>
</a>
</g>
<text text-anchor="middle" x="590.45" y="-1321.5" font-family="Helvetica,sans-Serif" font-size="10.00" fill="grey"> &#45;mGlobalLows</text>
</g>
<!-- Node8&#45;&gt;Node10 -->
<g id="edge16_Node000010_Node000008" class="edge">
<title>Node8&#45;&gt;Node10</title>
<g id="a_edge16_Node000010_Node000008"><a xlink:title=" ">
<path fill="none" stroke="#63b8ff" d="M846.78,-1382.25C787.21,-1373.27 694.07,-1349.05 649.95,-1284 631.11,-1256.23 633.29,-1075.93 637.69,-942.53"/>
<polygon fill="none" stroke="#63b8ff" points="637.7,-942.17 633.91,-936.04 638.11,-930.18 641.9,-936.31 637.7,-942.17"/>
</a>
</g>
<text text-anchor="middle" x="703.45" y="-1133.5" font-family="Helvetica,sans-Serif" font-size="10.00" fill="grey"> #mNodePermutation</text>
</g>
<!-- Node9 -->
<g id="Node000009" class="node">
<title>Node9</title>
<g id="a_Node000009"><a xlink:title=" ">
<polygon fill="white" stroke="transparent" points="1065.95,-1160.5 1027.95,-1160.5 1027.95,-1111.5 1065.95,-1111.5 1065.95,-1160.5"/>
<text text-anchor="start" x="1032.95" y="-1148" font-family="Helvetica,sans-Serif" font-size="10.00">string</text>
<text text-anchor="start" x="1044.95" y="-1133" font-family="Helvetica,sans-Serif" font-size="10.00"> </text>
<text text-anchor="start" x="1044.95" y="-1118" font-family="Helvetica,sans-Serif" font-size="10.00"> </text>
<polygon fill="#bfbfbf" stroke="#bfbfbf" points="1027.95,-1143 1027.95,-1143 1065.95,-1143 1065.95,-1143 1027.95,-1143"/>
<polygon fill="#bfbfbf" stroke="#bfbfbf" points="1027.95,-1128 1027.95,-1128 1065.95,-1128 1065.95,-1128 1027.95,-1128"/>
<polygon fill="none" stroke="#bfbfbf" points="1027.95,-1111.5 1027.95,-1160.5 1065.95,-1160.5 1065.95,-1111.5 1027.95,-1111.5"/>
</a>
</g>
</g>
<!-- Node9&#45;&gt;Node2 -->
<g id="edge10_Node000002_Node000009" class="edge">
<title>Node9&#45;&gt;Node2</title>
<g id="a_edge10_Node000002_Node000009"><a xlink:title=" ">
<path fill="none" stroke="#63b8ff" d="M1045.86,-1111.32C1044.08,-1075.76 1040,-1006.5 1032.95,-948 1031.98,-939.95 1031.24,-938.01 1029.95,-930 1010.63,-810.1 1041.71,-768.9 987.95,-660 966.49,-616.53 930.89,-576.58 897.54,-545.33"/>
<polygon fill="none" stroke="#63b8ff" points="897.5,-545.29 890.38,-544.18 888.67,-537.17 895.79,-538.29 897.5,-545.29"/>
</a>
</g>
<text text-anchor="middle" x="1088.95" y="-792.5" font-family="Helvetica,sans-Serif" font-size="10.00" fill="grey"> #mMeshFileBaseName</text>
</g>
<!-- Node9&#45;&gt;Node10 -->
<g id="edge17_Node000010_Node000009" class="edge">
<title>Node9&#45;&gt;Node10</title>
<g id="a_edge17_Node000010_Node000009"><a xlink:title=" ">
<path fill="none" stroke="#63b8ff" d="M1049.92,-1111.41C1052.58,-1078.83 1051.92,-1020.42 1018.95,-988 985.5,-955.11 958.66,-987.01 914.95,-970 876.49,-955.04 792.29,-899.48 727.88,-855.12"/>
<polygon fill="none" stroke="#63b8ff" points="727.6,-854.93 720.39,-854.81 717.72,-848.11 724.93,-848.22 727.6,-854.93"/>
</a>
</g>
<text text-anchor="middle" x="973.95" y="-956.5" font-family="Helvetica,sans-Serif" font-size="10.00" fill="grey"> #mMeshFileBaseName</text>
</g>
<!-- Node10&#45;&gt;Node2 -->
<g id="edge12_Node000002_Node000010" class="edge">
<title>Node10&#45;&gt;Node2</title>
<g id="a_edge12_Node000002_Node000010"><a xlink:title=" ">
<path fill="none" stroke="orange" d="M653.28,-650.07C655.47,-643.51 658.01,-637.12 660.95,-631 679.25,-592.91 711.21,-558.94 741.28,-532.83"/>
<polygon fill="orange" stroke="orange" points="649.89,-649.21 650.32,-659.8 656.58,-651.25 649.89,-649.21"/>
</a>
</g>
<text text-anchor="middle" x="696.45" y="-634" font-family="Helvetica,sans-Serif" font-size="10.00" fill="grey"> &lt; DIM, DIM &gt;</text>
</g>
<!-- Node11 -->
<g id="Node000011" class="node">
<title>Node11</title>
<g id="a_Node000011"><a xlink:title=" ">
<polygon fill="white" stroke="transparent" points="1429.95,-508 1311.95,-508 1311.95,-448 1429.95,-448 1429.95,-508"/>
<text text-anchor="start" x="1316.95" y="-496" font-family="Helvetica,sans-Serif" font-size="10.00">vector&lt; PottsElement</text>
<text text-anchor="start" x="1339.95" y="-485" font-family="Helvetica,sans-Serif" font-size="10.00">&lt; DIM &gt; * &gt;</text>
<text text-anchor="start" x="1368.95" y="-470" font-family="Helvetica,sans-Serif" font-size="10.00"> </text>
<text text-anchor="start" x="1368.95" y="-455" font-family="Helvetica,sans-Serif" font-size="10.00"> </text>
<polygon fill="#bfbfbf" stroke="#bfbfbf" points="1311.95,-480 1311.95,-480 1429.95,-480 1429.95,-480 1311.95,-480"/>
<polygon fill="#bfbfbf" stroke="#bfbfbf" points="1311.95,-465 1311.95,-465 1429.95,-465 1429.95,-465 1311.95,-465"/>
<polygon fill="none" stroke="#bfbfbf" points="1311.95,-448 1311.95,-508 1429.95,-508 1429.95,-448 1311.95,-448"/>
</a>
</g>
</g>
<!-- Node11&#45;&gt;Node1 -->
<g id="edge19_Node000001_Node000011" class="edge">
<title>Node11&#45;&gt;Node1</title>
<g id="a_edge19_Node000001_Node000011"><a xlink:title=" ">
<path fill="none" stroke="#63b8ff" d="M1367.16,-447.8C1362.46,-411.59 1354.1,-347.2 1346.22,-286.46"/>
<polygon fill="none" stroke="#63b8ff" points="1346.19,-286.27 1341.45,-280.83 1344.65,-274.37 1349.39,-279.81 1346.19,-286.27"/>
</a>
</g>
<text text-anchor="middle" x="1384.45" y="-306" font-family="Helvetica,sans-Serif" font-size="10.00" fill="grey"> #mElements</text>
</g>
<!-- Node12 -->
<g id="Node000012" class="node">
<title>Node12</title>
<g id="a_Node000012"><a xlink:title=" ">
<polygon fill="white" stroke="transparent" points="1615.45,-502.5 1448.45,-502.5 1448.45,-453.5 1615.45,-453.5 1615.45,-502.5"/>
<text text-anchor="start" x="1453.95" y="-490" font-family="Helvetica,sans-Serif" font-size="10.00">vector&lt; std::set&lt; unsigned &gt; &gt;</text>
<text text-anchor="start" x="1530.45" y="-475" font-family="Helvetica,sans-Serif" font-size="10.00"> </text>
<text text-anchor="start" x="1530.45" y="-460" font-family="Helvetica,sans-Serif" font-size="10.00"> </text>
<polygon fill="#bfbfbf" stroke="#bfbfbf" points="1448.95,-485 1448.95,-485 1615.95,-485 1615.95,-485 1448.95,-485"/>
<polygon fill="#bfbfbf" stroke="#bfbfbf" points="1448.95,-470 1448.95,-470 1615.95,-470 1615.95,-470 1448.95,-470"/>
<polygon fill="none" stroke="#bfbfbf" points="1448.45,-453.5 1448.45,-502.5 1615.45,-502.5 1615.45,-453.5 1448.45,-453.5"/>
</a>
</g>
</g>
<!-- Node12&#45;&gt;Node1 -->
<g id="edge21_Node000001_Node000012" class="edge">
<title>Node12&#45;&gt;Node1</title>
<g id="a_edge21_Node000001_Node000012"><a xlink:title=" ">
<path fill="none" stroke="#63b8ff" d="M1518.01,-453.27C1497.24,-418 1456.89,-349.69 1421.95,-292 1420.53,-289.65 1419.09,-287.29 1417.65,-284.91"/>
<polygon fill="none" stroke="#63b8ff" points="1417.48,-284.63 1410.94,-281.59 1411.24,-274.38 1417.78,-277.43 1417.48,-284.63"/>
</a>
</g>
<text text-anchor="middle" x="1528.95" y="-317" font-family="Helvetica,sans-Serif" font-size="10.00" fill="grey"> #mMooreNeighbouringNodeIndices</text>
<text text-anchor="start" x="1439.95" y="-306" font-family="Helvetica,sans-Serif" font-size="10.00" fill="grey">#mVonNeumannNeighbouringNode</text>
<text text-anchor="middle" x="1528.95" y="-295" font-family="Helvetica,sans-Serif" font-size="10.00" fill="grey">Indices</text>
</g>
</g>
</svg>
