<?xml version="1.0" encoding="UTF-8" standalone="no"?>
<!DOCTYPE svg PUBLIC "-//W3C//DTD SVG 1.1//EN"
 "http://www.w3.org/Graphics/SVG/1.1/DTD/svg11.dtd">
<!-- Generated by graphviz version 2.43.0 (0)
 -->
<!-- Title: UniformSourceParabolicPde&lt; DIM &gt; Pages: 1 -->
<svg width="376pt" height="697pt"
 viewBox="0.00 0.00 375.50 697.00" xmlns="http://www.w3.org/2000/svg" xmlns:xlink="http://www.w3.org/1999/xlink">
<g id="graph0" class="graph" transform="scale(1 1) rotate(0) translate(4 693)">
<title>UniformSourceParabolicPde&lt; DIM &gt;</title>
<!-- Node1 -->
<g id="Node000001" class="node">
<title>Node1</title>
<g id="a_Node000001"><a xlink:title=" ">
<polygon fill="#999999" stroke="transparent" points="270.5,-135 78.5,-135 78.5,0 270.5,0 270.5,-135"/>
<text text-anchor="start" x="106.5" y="-122.5" font-family="Helvetica,sans-Serif" font-size="10.00">UniformSourceParabolicPde</text>
<text text-anchor="start" x="153" y="-111.5" font-family="Helvetica,sans-Serif" font-size="10.00">&lt; DIM &gt;</text>
<text text-anchor="start" x="85" y="-96.5" font-family="Helvetica,sans-Serif" font-size="10.00">&#45;</text>
<text text-anchor="start" x="95.5" y="-96.5" font-family="Helvetica,sans-Serif" font-size="10.00">mSourceCoefficient</text>
<text text-anchor="start" x="82.5" y="-81.5" font-family="Helvetica,sans-Serif" font-size="10.00">+</text>
<text text-anchor="start" x="95.5" y="-81.5" font-family="Helvetica,sans-Serif" font-size="10.00">UniformSourceParabolicPde()</text>
<text text-anchor="start" x="82.5" y="-66.5" font-family="Helvetica,sans-Serif" font-size="10.00">+</text>
<text text-anchor="start" x="95.5" y="-66.5" font-family="Helvetica,sans-Serif" font-size="10.00">GetCoefficient()</text>
<text text-anchor="start" x="82.5" y="-51.5" font-family="Helvetica,sans-Serif" font-size="10.00">+</text>
<text text-anchor="start" x="95.5" y="-51.5" font-family="Helvetica,sans-Serif" font-size="10.00">ComputeSourceTerm()</text>
<text text-anchor="start" x="82.5" y="-36.5" font-family="Helvetica,sans-Serif" font-size="10.00">+</text>
<text text-anchor="start" x="95.5" y="-36.5" font-family="Helvetica,sans-Serif" font-size="10.00">ComputeDiffusionTerm()</text>
<text text-anchor="start" x="82.5" y="-21.5" font-family="Helvetica,sans-Serif" font-size="10.00">+</text>
<text text-anchor="start" x="95.5" y="-21.5" font-family="Helvetica,sans-Serif" font-size="10.00">ComputeDuDtCoefficientFunction()</text>
<text text-anchor="start" x="85" y="-6.5" font-family="Helvetica,sans-Serif" font-size="10.00">&#45;</text>
<text text-anchor="start" x="95.5" y="-6.5" font-family="Helvetica,sans-Serif" font-size="10.00">serialize()</text>
<polygon fill="#666666" stroke="#666666" points="78.5,-106.5 78.5,-106.5 270.5,-106.5 270.5,-106.5 78.5,-106.5"/>
<polygon fill="#666666" stroke="#666666" points="78.5,-91.5 78.5,-91.5 93.5,-91.5 93.5,-91.5 78.5,-91.5"/>
<polygon fill="#666666" stroke="#666666" points="93.5,-91.5 93.5,-91.5 270.5,-91.5 270.5,-91.5 93.5,-91.5"/>
<polygon fill="none" stroke="#666666" points="78.5,0 78.5,-135 270.5,-135 270.5,0 78.5,0"/>
</a>
</g>
</g>
<!-- Node2 -->
<g id="Node000002" class="node">
<title>Node2</title>
<g id="a_Node000002"><a xlink:href="classAbstractLinearParabolicPde.html" target="_top" xlink:title=" ">
<polygon fill="white" stroke="transparent" points="270.5,-333 78.5,-333 78.5,-172 270.5,-172 270.5,-333"/>
<text text-anchor="start" x="108" y="-320.5" font-family="Helvetica,sans-Serif" font-size="10.00">AbstractLinearParabolicPde</text>
<text text-anchor="start" x="140.5" y="-309.5" font-family="Helvetica,sans-Serif" font-size="10.00">&lt; DIM, DIM &gt;</text>
<text text-anchor="start" x="172.5" y="-294.5" font-family="Helvetica,sans-Serif" font-size="10.00"> </text>
<text text-anchor="start" x="82.5" y="-279.5" font-family="Helvetica,sans-Serif" font-size="10.00">+</text>
<text text-anchor="start" x="95.5" y="-279.5" font-family="Helvetica,sans-Serif" font-size="10.00">AbstractLinearParabolicPde()</text>
<text text-anchor="start" x="82.5" y="-264.5" font-family="Helvetica,sans-Serif" font-size="10.00">+</text>
<text text-anchor="start" x="95.5" y="-264.5" font-family="Helvetica,sans-Serif" font-size="10.00">~AbstractLinearParabolic</text>
<text text-anchor="start" x="95.5" y="-253.5" font-family="Helvetica,sans-Serif" font-size="10.00">Pde()</text>
<text text-anchor="start" x="82.5" y="-238.5" font-family="Helvetica,sans-Serif" font-size="10.00">+</text>
<text text-anchor="start" x="95.5" y="-238.5" font-family="Helvetica,sans-Serif" font-size="10.00">ComputeDuDtCoefficientFunction()</text>
<text text-anchor="start" x="82.5" y="-223.5" font-family="Helvetica,sans-Serif" font-size="10.00">+</text>
<text text-anchor="start" x="95.5" y="-223.5" font-family="Helvetica,sans-Serif" font-size="10.00">ComputeSourceTerm()</text>
<text text-anchor="start" x="82.5" y="-208.5" font-family="Helvetica,sans-Serif" font-size="10.00">+</text>
<text text-anchor="start" x="95.5" y="-208.5" font-family="Helvetica,sans-Serif" font-size="10.00">ComputeSourceTermAtNode()</text>
<text text-anchor="start" x="82.5" y="-193.5" font-family="Helvetica,sans-Serif" font-size="10.00">+</text>
<text text-anchor="start" x="95.5" y="-193.5" font-family="Helvetica,sans-Serif" font-size="10.00">ComputeDiffusionTerm()</text>
<text text-anchor="start" x="85" y="-178.5" font-family="Helvetica,sans-Serif" font-size="10.00">&#45;</text>
<text text-anchor="start" x="95.5" y="-178.5" font-family="Helvetica,sans-Serif" font-size="10.00">serialize()</text>
<polygon fill="#666666" stroke="#666666" points="78.5,-304.5 78.5,-304.5 270.5,-304.5 270.5,-304.5 78.5,-304.5"/>
<polygon fill="#666666" stroke="#666666" points="78.5,-289.5 78.5,-289.5 270.5,-289.5 270.5,-289.5 78.5,-289.5"/>
<polygon fill="none" stroke="#666666" points="78.5,-172 78.5,-333 270.5,-333 270.5,-172 78.5,-172"/>
</a>
</g>
</g>
<!-- Node2&#45;&gt;Node1 -->
<g id="edge1_Node000001_Node000002" class="edge">
<title>Node2&#45;&gt;Node1</title>
<g id="a_edge1_Node000001_Node000002"><a xlink:title=" ">
<path fill="none" stroke="#63b8ff" d="M174.5,-161.69C174.5,-152.73 174.5,-143.76 174.5,-135.11"/>
<polygon fill="none" stroke="#63b8ff" points="171,-161.77 174.5,-171.77 178,-161.77 171,-161.77"/>
</a>
</g>
</g>
<!-- Node3 -->
<g id="Node000003" class="node">
<title>Node3</title>
<g id="a_Node000003"><a xlink:href="classAbstractLinearPde.html" target="_top" xlink:title=" ">
<polygon fill="white" stroke="transparent" points="157,-505.5 0,-505.5 0,-415.5 157,-415.5 157,-505.5"/>
<text text-anchor="start" x="5.5" y="-493.5" font-family="Helvetica,sans-Serif" font-size="10.00">AbstractLinearPde&lt;</text>
<text text-anchor="start" x="5.5" y="-482.5" font-family="Helvetica,sans-Serif" font-size="10.00"> ELEMENT_DIM, SPACE_DIM &gt;</text>
<text text-anchor="start" x="77" y="-467.5" font-family="Helvetica,sans-Serif" font-size="10.00"> </text>
<text text-anchor="start" x="12" y="-452.5" font-family="Helvetica,sans-Serif" font-size="10.00">+</text>
<text text-anchor="start" x="32.5" y="-452.5" font-family="Helvetica,sans-Serif" font-size="10.00">AbstractLinearPde()</text>
<text text-anchor="start" x="12" y="-437.5" font-family="Helvetica,sans-Serif" font-size="10.00">+</text>
<text text-anchor="start" x="32.5" y="-437.5" font-family="Helvetica,sans-Serif" font-size="10.00">~AbstractLinearPde()</text>
<text text-anchor="start" x="14.5" y="-422.5" font-family="Helvetica,sans-Serif" font-size="10.00">&#45;</text>
<text text-anchor="start" x="32.5" y="-422.5" font-family="Helvetica,sans-Serif" font-size="10.00">serialize()</text>
<polygon fill="#666666" stroke="#666666" points="0.5,-477.5 0.5,-477.5 157.5,-477.5 157.5,-477.5 0.5,-477.5"/>
<polygon fill="#666666" stroke="#666666" points="0.5,-462.5 0.5,-462.5 157.5,-462.5 157.5,-462.5 0.5,-462.5"/>
<polygon fill="none" stroke="#666666" points="0,-415.5 0,-505.5 157,-505.5 157,-415.5 0,-415.5"/>
</a>
</g>
</g>
<!-- Node3&#45;&gt;Node2 -->
<g id="edge2_Node000002_Node000003" class="edge">
<title>Node3&#45;&gt;Node2</title>
<g id="a_edge2_Node000002_Node000003"><a xlink:title=" ">
<path fill="none" stroke="#63b8ff" d="M103.4,-406.07C113.73,-383.91 125.93,-357.72 137.28,-333.36"/>
<polygon fill="none" stroke="#63b8ff" points="100.15,-404.77 99.09,-415.31 106.49,-407.72 100.15,-404.77"/>
</a>
</g>
</g>
<!-- Node4 -->
<g id="Node000004" class="node">
<title>Node4</title>
<g id="a_Node000004"><a xlink:href="classAbstractLinearPde.html" target="_top" xlink:title=" ">
<polygon fill="white" stroke="transparent" points="157,-689 0,-689 0,-599 157,-599 157,-689"/>
<text text-anchor="start" x="5.5" y="-677" font-family="Helvetica,sans-Serif" font-size="10.00">AbstractLinearPde&lt;</text>
<text text-anchor="start" x="5.5" y="-666" font-family="Helvetica,sans-Serif" font-size="10.00"> ELEMENT_DIM, SPACE_DIM &gt;</text>
<text text-anchor="start" x="77" y="-651" font-family="Helvetica,sans-Serif" font-size="10.00"> </text>
<text text-anchor="start" x="12" y="-636" font-family="Helvetica,sans-Serif" font-size="10.00">+</text>
<text text-anchor="start" x="32.5" y="-636" font-family="Helvetica,sans-Serif" font-size="10.00">AbstractLinearPde()</text>
<text text-anchor="start" x="12" y="-621" font-family="Helvetica,sans-Serif" font-size="10.00">+</text>
<text text-anchor="start" x="32.5" y="-621" font-family="Helvetica,sans-Serif" font-size="10.00">~AbstractLinearPde()</text>
<text text-anchor="start" x="14.5" y="-606" font-family="Helvetica,sans-Serif" font-size="10.00">&#45;</text>
<text text-anchor="start" x="32.5" y="-606" font-family="Helvetica,sans-Serif" font-size="10.00">serialize()</text>
<polygon fill="#666666" stroke="#666666" points="0.5,-661 0.5,-661 157.5,-661 157.5,-661 0.5,-661"/>
<polygon fill="#666666" stroke="#666666" points="0.5,-646 0.5,-646 157.5,-646 157.5,-646 0.5,-646"/>
<polygon fill="none" stroke="#666666" points="0,-599 0,-689 157,-689 157,-599 0,-599"/>
</a>
</g>
</g>
<!-- Node4&#45;&gt;Node3 -->
<g id="edge3_Node000003_Node000004" class="edge">
<title>Node4&#45;&gt;Node3</title>
<g id="a_edge3_Node000003_Node000004"><a xlink:title=" ">
<path fill="none" stroke="orange" d="M78.5,-588.36C78.5,-561.95 78.5,-530.65 78.5,-505.76"/>
<polygon fill="orange" stroke="orange" points="75,-588.6 78.5,-598.6 82,-588.6 75,-588.6"/>
</a>
</g>
<text text-anchor="start" x="78.5" y="-573" font-family="Helvetica,sans-Serif" font-size="10.00" fill="grey"> &lt; ELEMENT_DIM, SPACE</text>
<text text-anchor="middle" x="139.5" y="-562" font-family="Helvetica,sans-Serif" font-size="10.00" fill="grey">_DIM &gt;</text>
</g>
<!-- Node5 -->
<g id="Node000005" class="node">
<title>Node5</title>
<g id="a_Node000005"><a xlink:href="classAbstractLinearParabolicPde.html" target="_top" xlink:title=" ">
<polygon fill="white" stroke="transparent" points="367.5,-541 175.5,-541 175.5,-380 367.5,-380 367.5,-541"/>
<text text-anchor="start" x="194" y="-528.5" font-family="Helvetica,sans-Serif" font-size="10.00">AbstractLinearParabolicPde</text>
<text text-anchor="start" x="194" y="-517.5" font-family="Helvetica,sans-Serif" font-size="10.00">&lt; ELEMENT_DIM, SPACE_DIM &gt;</text>
<text text-anchor="start" x="269.5" y="-502.5" font-family="Helvetica,sans-Serif" font-size="10.00"> </text>
<text text-anchor="start" x="179.5" y="-487.5" font-family="Helvetica,sans-Serif" font-size="10.00">+</text>
<text text-anchor="start" x="192.5" y="-487.5" font-family="Helvetica,sans-Serif" font-size="10.00">AbstractLinearParabolicPde()</text>
<text text-anchor="start" x="179.5" y="-472.5" font-family="Helvetica,sans-Serif" font-size="10.00">+</text>
<text text-anchor="start" x="192.5" y="-472.5" font-family="Helvetica,sans-Serif" font-size="10.00">~AbstractLinearParabolic</text>
<text text-anchor="start" x="192.5" y="-461.5" font-family="Helvetica,sans-Serif" font-size="10.00">Pde()</text>
<text text-anchor="start" x="179.5" y="-446.5" font-family="Helvetica,sans-Serif" font-size="10.00">+</text>
<text text-anchor="start" x="192.5" y="-446.5" font-family="Helvetica,sans-Serif" font-size="10.00">ComputeDuDtCoefficientFunction()</text>
<text text-anchor="start" x="179.5" y="-431.5" font-family="Helvetica,sans-Serif" font-size="10.00">+</text>
<text text-anchor="start" x="192.5" y="-431.5" font-family="Helvetica,sans-Serif" font-size="10.00">ComputeSourceTerm()</text>
<text text-anchor="start" x="179.5" y="-416.5" font-family="Helvetica,sans-Serif" font-size="10.00">+</text>
<text text-anchor="start" x="192.5" y="-416.5" font-family="Helvetica,sans-Serif" font-size="10.00">ComputeSourceTermAtNode()</text>
<text text-anchor="start" x="179.5" y="-401.5" font-family="Helvetica,sans-Serif" font-size="10.00">+</text>
<text text-anchor="start" x="192.5" y="-401.5" font-family="Helvetica,sans-Serif" font-size="10.00">ComputeDiffusionTerm()</text>
<text text-anchor="start" x="182" y="-386.5" font-family="Helvetica,sans-Serif" font-size="10.00">&#45;</text>
<text text-anchor="start" x="192.5" y="-386.5" font-family="Helvetica,sans-Serif" font-size="10.00">serialize()</text>
<polygon fill="#666666" stroke="#666666" points="175.5,-512.5 175.5,-512.5 367.5,-512.5 367.5,-512.5 175.5,-512.5"/>
<polygon fill="#666666" stroke="#666666" points="175.5,-497.5 175.5,-497.5 367.5,-497.5 367.5,-497.5 175.5,-497.5"/>
<polygon fill="none" stroke="#666666" points="175.5,-380 175.5,-541 367.5,-541 367.5,-380 175.5,-380"/>
</a>
</g>
</g>
<!-- Node5&#45;&gt;Node2 -->
<g id="edge4_Node000002_Node000005" class="edge">
<title>Node5&#45;&gt;Node2</title>
<g id="a_edge4_Node000002_Node000005"><a xlink:title=" ">
<path fill="none" stroke="orange" d="M229.58,-370.46C223.75,-358.1 217.8,-345.46 212.06,-333.27"/>
<polygon fill="orange" stroke="orange" points="226.57,-372.3 234,-379.86 232.9,-369.32 226.57,-372.3"/>
</a>
</g>
<text text-anchor="middle" x="259" y="-354" font-family="Helvetica,sans-Serif" font-size="10.00" fill="grey"> &lt; DIM, DIM &gt;</text>
</g>
<!-- Node6 -->
<g id="Node000006" class="node">
<title>Node6</title>
<g id="a_Node000006"><a xlink:href="classAbstractLinearPde.html" target="_top" xlink:title=" ">
<polygon fill="white" stroke="transparent" points="350,-689 193,-689 193,-599 350,-599 350,-689"/>
<text text-anchor="start" x="198.5" y="-677" font-family="Helvetica,sans-Serif" font-size="10.00">AbstractLinearPde&lt;</text>
<text text-anchor="start" x="198.5" y="-666" font-family="Helvetica,sans-Serif" font-size="10.00"> ELEMENT_DIM, SPACE_DIM &gt;</text>
<text text-anchor="start" x="270" y="-651" font-family="Helvetica,sans-Serif" font-size="10.00"> </text>
<text text-anchor="start" x="205" y="-636" font-family="Helvetica,sans-Serif" font-size="10.00">+</text>
<text text-anchor="start" x="225.5" y="-636" font-family="Helvetica,sans-Serif" font-size="10.00">AbstractLinearPde()</text>
<text text-anchor="start" x="205" y="-621" font-family="Helvetica,sans-Serif" font-size="10.00">+</text>
<text text-anchor="start" x="225.5" y="-621" font-family="Helvetica,sans-Serif" font-size="10.00">~AbstractLinearPde()</text>
<text text-anchor="start" x="207.5" y="-606" font-family="Helvetica,sans-Serif" font-size="10.00">&#45;</text>
<text text-anchor="start" x="225.5" y="-606" font-family="Helvetica,sans-Serif" font-size="10.00">serialize()</text>
<polygon fill="#666666" stroke="#666666" points="193.5,-661 193.5,-661 350.5,-661 350.5,-661 193.5,-661"/>
<polygon fill="#666666" stroke="#666666" points="193.5,-646 193.5,-646 350.5,-646 350.5,-646 193.5,-646"/>
<polygon fill="none" stroke="#666666" points="193,-599 193,-689 350,-689 350,-599 193,-599"/>
</a>
</g>
</g>
<!-- Node6&#45;&gt;Node5 -->
<g id="edge5_Node000005_Node000006" class="edge">
<title>Node6&#45;&gt;Node5</title>
<g id="a_edge5_Node000005_Node000006"><a xlink:title=" ">
<path fill="none" stroke="#63b8ff" d="M271.5,-588.56C271.5,-573.66 271.5,-557.2 271.5,-541.2"/>
<polygon fill="none" stroke="#63b8ff" points="268,-588.6 271.5,-598.6 275,-588.6 268,-588.6"/>
</a>
</g>
</g>
</g>
</svg>
