<?xml version="1.0" encoding="UTF-8" standalone="no"?>
<!DOCTYPE svg PUBLIC "-//W3C//DTD SVG 1.1//EN"
 "http://www.w3.org/Graphics/SVG/1.1/DTD/svg11.dtd">
<!-- Generated by graphviz version 2.43.0 (0)
 -->
<!-- Title: FibreWriter&lt; DIM &gt; Pages: 1 -->
<svg width="362pt" height="515pt"
 viewBox="0.00 0.00 362.00 515.00" xmlns="http://www.w3.org/2000/svg" xmlns:xlink="http://www.w3.org/1999/xlink">
<g id="graph0" class="graph" transform="scale(1 1) rotate(0) translate(4 511)">
<title>FibreWriter&lt; DIM &gt;</title>
<!-- Node1 -->
<g id="Node000001" class="node">
<title>Node1</title>
<g id="a_Node000001"><a xlink:title=" ">
<polygon fill="#999999" stroke="transparent" points="292,-124 140,-124 140,0 292,0 292,-124"/>
<text text-anchor="start" x="167.5" y="-112" font-family="Helvetica,sans-Serif" font-size="10.00">FibreWriter&lt; DIM &gt;</text>
<text text-anchor="start" x="214" y="-97" font-family="Helvetica,sans-Serif" font-size="10.00"> </text>
<text text-anchor="start" x="144" y="-82" font-family="Helvetica,sans-Serif" font-size="10.00">+</text>
<text text-anchor="start" x="157" y="-82" font-family="Helvetica,sans-Serif" font-size="10.00">FibreWriter()</text>
<text text-anchor="start" x="144" y="-67" font-family="Helvetica,sans-Serif" font-size="10.00">+</text>
<text text-anchor="start" x="157" y="-67" font-family="Helvetica,sans-Serif" font-size="10.00">~FibreWriter()</text>
<text text-anchor="start" x="144" y="-52" font-family="Helvetica,sans-Serif" font-size="10.00">+</text>
<text text-anchor="start" x="157" y="-52" font-family="Helvetica,sans-Serif" font-size="10.00">WriteAllAxi()</text>
<text text-anchor="start" x="144" y="-37" font-family="Helvetica,sans-Serif" font-size="10.00">+</text>
<text text-anchor="start" x="157" y="-37" font-family="Helvetica,sans-Serif" font-size="10.00">WriteAllOrtho()</text>
<text text-anchor="start" x="144" y="-22" font-family="Helvetica,sans-Serif" font-size="10.00">+</text>
<text text-anchor="start" x="157" y="-22" font-family="Helvetica,sans-Serif" font-size="10.00">SetWriteFileAsBinary()</text>
<text text-anchor="start" x="146.5" y="-7" font-family="Helvetica,sans-Serif" font-size="10.00">&#45;</text>
<text text-anchor="start" x="157" y="-7" font-family="Helvetica,sans-Serif" font-size="10.00">OpenFileAndWriteHeader()</text>
<polygon fill="#666666" stroke="#666666" points="140,-107 140,-107 292,-107 292,-107 140,-107"/>
<polygon fill="#666666" stroke="#666666" points="140,-92 140,-92 292,-92 292,-92 140,-92"/>
<polygon fill="none" stroke="#666666" points="140,0 140,-124 292,-124 292,0 140,0"/>
</a>
</g>
</g>
<!-- Node2 -->
<g id="Node000002" class="node">
<title>Node2</title>
<g id="a_Node000002"><a xlink:href="classOutputFileHandler.html" target="_top" xlink:title=" ">
<polygon fill="white" stroke="transparent" points="178,-411 0,-411 0,-171 178,-171 178,-411"/>
<text text-anchor="start" x="44.5" y="-399" font-family="Helvetica,sans-Serif" font-size="10.00">OutputFileHandler</text>
<text text-anchor="start" x="87" y="-384" font-family="Helvetica,sans-Serif" font-size="10.00"> </text>
<text text-anchor="start" x="4" y="-369" font-family="Helvetica,sans-Serif" font-size="10.00">+</text>
<text text-anchor="start" x="17" y="-369" font-family="Helvetica,sans-Serif" font-size="10.00">OutputFileHandler()</text>
<text text-anchor="start" x="4" y="-354" font-family="Helvetica,sans-Serif" font-size="10.00">+</text>
<text text-anchor="start" x="17" y="-354" font-family="Helvetica,sans-Serif" font-size="10.00">OutputFileHandler()</text>
<text text-anchor="start" x="4" y="-339" font-family="Helvetica,sans-Serif" font-size="10.00">+</text>
<text text-anchor="start" x="17" y="-339" font-family="Helvetica,sans-Serif" font-size="10.00">GetOutputDirectoryFullPath()</text>
<text text-anchor="start" x="4" y="-324" font-family="Helvetica,sans-Serif" font-size="10.00">+</text>
<text text-anchor="start" x="17" y="-324" font-family="Helvetica,sans-Serif" font-size="10.00">GetRelativePath()</text>
<text text-anchor="start" x="4" y="-309" font-family="Helvetica,sans-Serif" font-size="10.00">+</text>
<text text-anchor="start" x="17" y="-309" font-family="Helvetica,sans-Serif" font-size="10.00">SetArchiveDirectory()</text>
<text text-anchor="start" x="4" y="-294" font-family="Helvetica,sans-Serif" font-size="10.00">+</text>
<text text-anchor="start" x="17" y="-294" font-family="Helvetica,sans-Serif" font-size="10.00">OpenOutputFile()</text>
<text text-anchor="start" x="4" y="-279" font-family="Helvetica,sans-Serif" font-size="10.00">+</text>
<text text-anchor="start" x="17" y="-279" font-family="Helvetica,sans-Serif" font-size="10.00">OpenOutputFile()</text>
<text text-anchor="start" x="4" y="-264" font-family="Helvetica,sans-Serif" font-size="10.00">+</text>
<text text-anchor="start" x="17" y="-264" font-family="Helvetica,sans-Serif" font-size="10.00">CopyFileTo()</text>
<text text-anchor="start" x="4" y="-249" font-family="Helvetica,sans-Serif" font-size="10.00">+</text>
<text text-anchor="start" x="17" y="-249" font-family="Helvetica,sans-Serif" font-size="10.00">FindFile()</text>
<text text-anchor="start" x="4" y="-234" font-family="Helvetica,sans-Serif" font-size="10.00">+</text>
<text text-anchor="start" x="17" y="-234" font-family="Helvetica,sans-Serif" font-size="10.00">GetChasteTestOutputDirectory()</text>
<text text-anchor="start" x="6.5" y="-219" font-family="Helvetica,sans-Serif" font-size="10.00">&#45;</text>
<text text-anchor="start" x="17" y="-219" font-family="Helvetica,sans-Serif" font-size="10.00">CommonConstructor()</text>
<text text-anchor="start" x="6.5" y="-204" font-family="Helvetica,sans-Serif" font-size="10.00">&#45;</text>
<text text-anchor="start" x="17" y="-204" font-family="Helvetica,sans-Serif" font-size="10.00">MakeFoldersAndReturnFull</text>
<text text-anchor="start" x="17" y="-193" font-family="Helvetica,sans-Serif" font-size="10.00">Path()</text>
<text text-anchor="start" x="6.5" y="-178" font-family="Helvetica,sans-Serif" font-size="10.00">&#45;</text>
<text text-anchor="start" x="17" y="-178" font-family="Helvetica,sans-Serif" font-size="10.00">AddTrailingSlash()</text>
<polygon fill="#666666" stroke="#666666" points="0,-394 0,-394 178,-394 178,-394 0,-394"/>
<polygon fill="#666666" stroke="#666666" points="0,-379 0,-379 178,-379 178,-379 0,-379"/>
<polygon fill="none" stroke="#666666" points="0,-171 0,-411 178,-411 178,-171 0,-171"/>
</a>
</g>
</g>
<!-- Node2&#45;&gt;Node1 -->
<g id="edge1_Node000001_Node000002" class="edge">
<title>Node2&#45;&gt;Node1</title>
<g id="a_edge1_Node000001_Node000002"><a xlink:title=" ">
<path fill="none" stroke="#63b8ff" d="M79.24,-170.88C81.53,-160.76 84.99,-150.98 90,-142 99.23,-125.44 113.53,-111.89 129.24,-100.97"/>
<polygon fill="none" stroke="#63b8ff" points="129.65,-100.7 132.51,-94.08 139.72,-94.17 136.86,-100.79 129.65,-100.7"/>
</a>
</g>
<text text-anchor="middle" x="146" y="-145" font-family="Helvetica,sans-Serif" font-size="10.00" fill="grey"> &#45;mpOutputFileHandler</text>
</g>
<!-- Node3 -->
<g id="Node000003" class="node">
<title>Node3</title>
<g id="a_Node000003"><a xlink:title=" ">
<polygon fill="white" stroke="transparent" points="47,-507 9,-507 9,-458 47,-458 47,-507"/>
<text text-anchor="start" x="14" y="-494.5" font-family="Helvetica,sans-Serif" font-size="10.00">string</text>
<text text-anchor="start" x="26" y="-479.5" font-family="Helvetica,sans-Serif" font-size="10.00"> </text>
<text text-anchor="start" x="26" y="-464.5" font-family="Helvetica,sans-Serif" font-size="10.00"> </text>
<polygon fill="#bfbfbf" stroke="#bfbfbf" points="9,-489.5 9,-489.5 47,-489.5 47,-489.5 9,-489.5"/>
<polygon fill="#bfbfbf" stroke="#bfbfbf" points="9,-474.5 9,-474.5 47,-474.5 47,-474.5 9,-474.5"/>
<polygon fill="none" stroke="#bfbfbf" points="9,-458 9,-507 47,-507 47,-458 9,-458"/>
</a>
</g>
</g>
<!-- Node3&#45;&gt;Node2 -->
<g id="edge2_Node000002_Node000003" class="edge">
<title>Node3&#45;&gt;Node2</title>
<g id="a_edge2_Node000002_Node000003"><a xlink:title=" ">
<path fill="none" stroke="#63b8ff" d="M26.49,-457.75C26.42,-448.66 26.97,-438.26 29,-429 29.42,-427.09 29.87,-425.17 30.34,-423.24"/>
<polygon fill="none" stroke="#63b8ff" points="30.41,-422.97 28.12,-416.13 33.55,-411.38 35.84,-418.22 30.41,-422.97"/>
</a>
</g>
<text text-anchor="middle" x="73" y="-432" font-family="Helvetica,sans-Serif" font-size="10.00" fill="grey"> +SIG_FILE_NAME</text>
</g>
<!-- Node4 -->
<g id="Node000004" class="node">
<title>Node4</title>
<g id="a_Node000004"><a xlink:title=" ">
<polygon fill="white" stroke="transparent" points="196,-507 158,-507 158,-458 196,-458 196,-507"/>
<text text-anchor="start" x="163" y="-494.5" font-family="Helvetica,sans-Serif" font-size="10.00">string</text>
<text text-anchor="start" x="175" y="-479.5" font-family="Helvetica,sans-Serif" font-size="10.00"> </text>
<text text-anchor="start" x="175" y="-464.5" font-family="Helvetica,sans-Serif" font-size="10.00"> </text>
<polygon fill="#bfbfbf" stroke="#bfbfbf" points="158,-489.5 158,-489.5 196,-489.5 196,-489.5 158,-489.5"/>
<polygon fill="#bfbfbf" stroke="#bfbfbf" points="158,-474.5 158,-474.5 196,-474.5 196,-474.5 158,-474.5"/>
<polygon fill="none" stroke="#bfbfbf" points="158,-458 158,-507 196,-507 196,-458 158,-458"/>
</a>
</g>
</g>
<!-- Node4&#45;&gt;Node1 -->
<g id="edge4_Node000001_Node000004" class="edge">
<title>Node4&#45;&gt;Node1</title>
<g id="a_edge4_Node000001_Node000004"><a xlink:title=" ">
<path fill="none" stroke="#63b8ff" d="M193.99,-457.89C197.23,-452.27 200.17,-446.13 202,-440 218.34,-385.19 218.9,-229.68 217.61,-136.4"/>
<polygon fill="none" stroke="#63b8ff" points="217.6,-136.22 213.51,-130.28 217.42,-124.22 221.51,-130.16 217.6,-136.22"/>
</a>
</g>
<text text-anchor="middle" x="253" y="-288.5" font-family="Helvetica,sans-Serif" font-size="10.00" fill="grey"> &#45;mBaseName</text>
</g>
<!-- Node4&#45;&gt;Node2 -->
<g id="edge3_Node000002_Node000004" class="edge">
<title>Node4&#45;&gt;Node2</title>
<g id="a_edge3_Node000002_Node000004"><a xlink:title=" ">
<path fill="none" stroke="#63b8ff" d="M157.96,-463.33C151.59,-456.48 144.88,-448.33 140,-440 136.65,-434.28 133.48,-428.32 130.48,-422.19"/>
<polygon fill="none" stroke="#63b8ff" points="130.34,-421.9 124.18,-418.16 125.26,-411.03 131.42,-414.77 130.34,-421.9"/>
</a>
</g>
<text text-anchor="middle" x="171" y="-432" font-family="Helvetica,sans-Serif" font-size="10.00" fill="grey"> &#45;mDirectory</text>
</g>
<!-- Node5 -->
<g id="Node000005" class="node">
<title>Node5</title>
<g id="a_Node000005"><a xlink:href="classbool.html" target="_top" xlink:title=" ">
<polygon fill="white" stroke="transparent" points="336,-315.5 304,-315.5 304,-266.5 336,-266.5 336,-315.5"/>
<text text-anchor="start" x="309" y="-303" font-family="Helvetica,sans-Serif" font-size="10.00">bool</text>
<text text-anchor="start" x="318" y="-288" font-family="Helvetica,sans-Serif" font-size="10.00"> </text>
<text text-anchor="start" x="318" y="-273" font-family="Helvetica,sans-Serif" font-size="10.00"> </text>
<polygon fill="#bfbfbf" stroke="#bfbfbf" points="304,-298 304,-298 336,-298 336,-298 304,-298"/>
<polygon fill="#bfbfbf" stroke="#bfbfbf" points="304,-283 304,-283 336,-283 336,-283 304,-283"/>
<polygon fill="none" stroke="#bfbfbf" points="304,-266.5 304,-315.5 336,-315.5 336,-266.5 304,-266.5"/>
</a>
</g>
</g>
<!-- Node5&#45;&gt;Node1 -->
<g id="edge5_Node000001_Node000005" class="edge">
<title>Node5&#45;&gt;Node1</title>
<g id="a_edge5_Node000001_Node000005"><a xlink:title=" ">
<path fill="none" stroke="#63b8ff" d="M316.58,-266.38C312.44,-241.76 304.19,-202.46 290,-171 284.43,-158.66 277.45,-146.22 270.01,-134.39"/>
<polygon fill="none" stroke="#63b8ff" points="269.92,-134.24 263.29,-131.38 263.39,-124.17 270.01,-127.02 269.92,-134.24"/>
</a>
</g>
<text text-anchor="middle" x="317" y="-145" font-family="Helvetica,sans-Serif" font-size="10.00" fill="grey"> &#45;mFileIsBinary</text>
</g>
</g>
</svg>
