<?xml version="1.0" encoding="UTF-8" standalone="no"?>
<!DOCTYPE svg PUBLIC "-//W3C//DTD SVG 1.1//EN"
 "http://www.w3.org/Graphics/SVG/1.1/DTD/svg11.dtd">
<!-- Generated by graphviz version 2.43.0 (0)
 -->
<!-- Title: AbstractCellWriter&lt; ELEMENT_DIM, SPACE_DIM &gt; Pages: 1 -->
<svg width="699pt" height="597pt"
 viewBox="0.00 0.00 699.00 597.00" xmlns="http://www.w3.org/2000/svg" xmlns:xlink="http://www.w3.org/1999/xlink">
<g id="graph0" class="graph" transform="scale(1 1) rotate(0) translate(4 593)">
<title>AbstractCellWriter&lt; ELEMENT_DIM, SPACE_DIM &gt;</title>
<!-- Node1 -->
<g id="Node000001" class="node">
<title>Node1</title>
<g id="a_Node000001"><a xlink:title=" ">
<polygon fill="#999999" stroke="transparent" points="547,-210 363,-210 363,0 547,0 547,-210"/>
<text text-anchor="start" x="377.5" y="-198" font-family="Helvetica,sans-Serif" font-size="10.00">AbstractCellWriter</text>
<text text-anchor="start" x="377.5" y="-187" font-family="Helvetica,sans-Serif" font-size="10.00">&lt; ELEMENT_DIM, SPACE_DIM &gt;</text>
<text text-anchor="start" x="453" y="-172" font-family="Helvetica,sans-Serif" font-size="10.00"> </text>
<text text-anchor="start" x="367" y="-157" font-family="Helvetica,sans-Serif" font-size="10.00">+</text>
<text text-anchor="start" x="380" y="-157" font-family="Helvetica,sans-Serif" font-size="10.00">AbstractCellWriter()</text>
<text text-anchor="start" x="367" y="-142" font-family="Helvetica,sans-Serif" font-size="10.00">+</text>
<text text-anchor="start" x="380" y="-142" font-family="Helvetica,sans-Serif" font-size="10.00">GetCellDataForVtkOutput()</text>
<text text-anchor="start" x="367" y="-127" font-family="Helvetica,sans-Serif" font-size="10.00">+</text>
<text text-anchor="start" x="380" y="-127" font-family="Helvetica,sans-Serif" font-size="10.00">GetVectorCellDataForVtkOutput()</text>
<text text-anchor="start" x="367" y="-112" font-family="Helvetica,sans-Serif" font-size="10.00">+</text>
<text text-anchor="start" x="380" y="-112" font-family="Helvetica,sans-Serif" font-size="10.00">VisitCell()</text>
<text text-anchor="start" x="367" y="-97" font-family="Helvetica,sans-Serif" font-size="10.00">+</text>
<text text-anchor="start" x="380" y="-97" font-family="Helvetica,sans-Serif" font-size="10.00">GetOutputScalarData()</text>
<text text-anchor="start" x="367" y="-82" font-family="Helvetica,sans-Serif" font-size="10.00">+</text>
<text text-anchor="start" x="380" y="-82" font-family="Helvetica,sans-Serif" font-size="10.00">GetOutputVectorData()</text>
<text text-anchor="start" x="367" y="-67" font-family="Helvetica,sans-Serif" font-size="10.00">+</text>
<text text-anchor="start" x="380" y="-67" font-family="Helvetica,sans-Serif" font-size="10.00">SetVtkCellDataName()</text>
<text text-anchor="start" x="367" y="-52" font-family="Helvetica,sans-Serif" font-size="10.00">+</text>
<text text-anchor="start" x="380" y="-52" font-family="Helvetica,sans-Serif" font-size="10.00">SetVtkVectorCellDataName()</text>
<text text-anchor="start" x="367" y="-37" font-family="Helvetica,sans-Serif" font-size="10.00">+</text>
<text text-anchor="start" x="380" y="-37" font-family="Helvetica,sans-Serif" font-size="10.00">GetVtkCellDataName()</text>
<text text-anchor="start" x="367" y="-22" font-family="Helvetica,sans-Serif" font-size="10.00">+</text>
<text text-anchor="start" x="380" y="-22" font-family="Helvetica,sans-Serif" font-size="10.00">GetVtkVectorCellDataName()</text>
<text text-anchor="start" x="369.5" y="-7" font-family="Helvetica,sans-Serif" font-size="10.00">&#45;</text>
<text text-anchor="start" x="380" y="-7" font-family="Helvetica,sans-Serif" font-size="10.00">serialize()</text>
<polygon fill="#666666" stroke="#666666" points="363,-182 363,-182 547,-182 547,-182 363,-182"/>
<polygon fill="#666666" stroke="#666666" points="363,-167 363,-167 547,-167 547,-167 363,-167"/>
<polygon fill="none" stroke="#666666" points="363,0 363,-210 547,-210 547,0 363,0"/>
</a>
</g>
</g>
<!-- Node2 -->
<g id="Node000002" class="node">
<title>Node2</title>
<g id="a_Node000002"><a xlink:href="classAbstractCellBasedWriter.html" target="_top" xlink:title=" ">
<polygon fill="white" stroke="transparent" points="385.5,-463 220.5,-463 220.5,-268 385.5,-268 385.5,-463"/>
<text text-anchor="start" x="226" y="-450.5" font-family="Helvetica,sans-Serif" font-size="10.00">AbstractCellBasedWriter</text>
<text text-anchor="start" x="226" y="-439.5" font-family="Helvetica,sans-Serif" font-size="10.00">&lt; ELEMENT_DIM, SPACE_DIM &gt;</text>
<text text-anchor="start" x="301.5" y="-424.5" font-family="Helvetica,sans-Serif" font-size="10.00"> </text>
<text text-anchor="start" x="227" y="-409.5" font-family="Helvetica,sans-Serif" font-size="10.00">+</text>
<text text-anchor="start" x="242" y="-409.5" font-family="Helvetica,sans-Serif" font-size="10.00">AbstractCellBasedWriter()</text>
<text text-anchor="start" x="227" y="-394.5" font-family="Helvetica,sans-Serif" font-size="10.00">+</text>
<text text-anchor="start" x="242" y="-394.5" font-family="Helvetica,sans-Serif" font-size="10.00">~AbstractCellBasedWriter()</text>
<text text-anchor="start" x="227" y="-379.5" font-family="Helvetica,sans-Serif" font-size="10.00">+</text>
<text text-anchor="start" x="242" y="-379.5" font-family="Helvetica,sans-Serif" font-size="10.00">CloseFile()</text>
<text text-anchor="start" x="227" y="-364.5" font-family="Helvetica,sans-Serif" font-size="10.00">+</text>
<text text-anchor="start" x="242" y="-364.5" font-family="Helvetica,sans-Serif" font-size="10.00">OpenOutputFile()</text>
<text text-anchor="start" x="227" y="-349.5" font-family="Helvetica,sans-Serif" font-size="10.00">+</text>
<text text-anchor="start" x="242" y="-349.5" font-family="Helvetica,sans-Serif" font-size="10.00">OpenOutputFileForAppend()</text>
<text text-anchor="start" x="227" y="-334.5" font-family="Helvetica,sans-Serif" font-size="10.00">+</text>
<text text-anchor="start" x="242" y="-334.5" font-family="Helvetica,sans-Serif" font-size="10.00">WriteTimeStamp()</text>
<text text-anchor="start" x="227" y="-319.5" font-family="Helvetica,sans-Serif" font-size="10.00">+</text>
<text text-anchor="start" x="242" y="-319.5" font-family="Helvetica,sans-Serif" font-size="10.00">WriteNewline()</text>
<text text-anchor="start" x="227" y="-304.5" font-family="Helvetica,sans-Serif" font-size="10.00">+</text>
<text text-anchor="start" x="242" y="-304.5" font-family="Helvetica,sans-Serif" font-size="10.00">SetFileName()</text>
<text text-anchor="start" x="227" y="-289.5" font-family="Helvetica,sans-Serif" font-size="10.00">+</text>
<text text-anchor="start" x="242" y="-289.5" font-family="Helvetica,sans-Serif" font-size="10.00">GetFileName()</text>
<text text-anchor="start" x="229.5" y="-274.5" font-family="Helvetica,sans-Serif" font-size="10.00">&#45;</text>
<text text-anchor="start" x="242" y="-274.5" font-family="Helvetica,sans-Serif" font-size="10.00">serialize()</text>
<polygon fill="#666666" stroke="#666666" points="221,-434.5 221,-434.5 386,-434.5 386,-434.5 221,-434.5"/>
<polygon fill="#666666" stroke="#666666" points="221,-419.5 221,-419.5 386,-419.5 386,-419.5 221,-419.5"/>
<polygon fill="none" stroke="#666666" points="220.5,-268 220.5,-463 385.5,-463 385.5,-268 220.5,-268"/>
</a>
</g>
</g>
<!-- Node2&#45;&gt;Node1 -->
<g id="edge1_Node000001_Node000002" class="edge">
<title>Node2&#45;&gt;Node1</title>
<g id="a_edge1_Node000001_Node000002"><a xlink:title=" ">
<path fill="none" stroke="#63b8ff" d="M365.03,-259.01C374.48,-242.93 384.23,-226.35 393.67,-210.3"/>
<polygon fill="none" stroke="#63b8ff" points="361.87,-257.48 359.82,-267.88 367.9,-261.03 361.87,-257.48"/>
</a>
</g>
</g>
<!-- Node3 -->
<g id="Node000003" class="node">
<title>Node3</title>
<g id="a_Node000003"><a xlink:href="classIdentifiable.html" target="_top" xlink:title=" ">
<polygon fill="white" stroke="transparent" points="176,-589 0,-589 0,-510 176,-510 176,-589"/>
<text text-anchor="start" x="60.5" y="-576.5" font-family="Helvetica,sans-Serif" font-size="10.00">Identifiable</text>
<text text-anchor="start" x="86" y="-561.5" font-family="Helvetica,sans-Serif" font-size="10.00"> </text>
<text text-anchor="start" x="4" y="-546.5" font-family="Helvetica,sans-Serif" font-size="10.00">+</text>
<text text-anchor="start" x="17" y="-546.5" font-family="Helvetica,sans-Serif" font-size="10.00">~Identifiable()</text>
<text text-anchor="start" x="4" y="-531.5" font-family="Helvetica,sans-Serif" font-size="10.00">+</text>
<text text-anchor="start" x="17" y="-531.5" font-family="Helvetica,sans-Serif" font-size="10.00">GetIdentifier()</text>
<text text-anchor="start" x="6.5" y="-516.5" font-family="Helvetica,sans-Serif" font-size="10.00">&#45;</text>
<text text-anchor="start" x="17" y="-516.5" font-family="Helvetica,sans-Serif" font-size="10.00">TidyTemplatedExportIdentifier()</text>
<polygon fill="#666666" stroke="#666666" points="0,-571.5 0,-571.5 176,-571.5 176,-571.5 0,-571.5"/>
<polygon fill="#666666" stroke="#666666" points="0,-556.5 0,-556.5 176,-556.5 176,-556.5 0,-556.5"/>
<polygon fill="none" stroke="#666666" points="0,-510 0,-589 176,-589 176,-510 0,-510"/>
</a>
</g>
</g>
<!-- Node3&#45;&gt;Node2 -->
<g id="edge2_Node000002_Node000003" class="edge">
<title>Node3&#45;&gt;Node2</title>
<g id="a_edge2_Node000002_Node000003"><a xlink:title=" ">
<path fill="none" stroke="#63b8ff" d="M141.46,-503.25C165.22,-483.14 193.73,-459 220.14,-436.64"/>
<polygon fill="none" stroke="#63b8ff" points="138.97,-500.77 133.6,-509.9 143.49,-506.11 138.97,-500.77"/>
</a>
</g>
</g>
<!-- Node4 -->
<g id="Node000004" class="node">
<title>Node4</title>
<g id="a_Node000004"><a xlink:title=" ">
<polygon fill="white" stroke="transparent" points="437,-574 399,-574 399,-525 437,-525 437,-574"/>
<text text-anchor="start" x="404" y="-561.5" font-family="Helvetica,sans-Serif" font-size="10.00">string</text>
<text text-anchor="start" x="416" y="-546.5" font-family="Helvetica,sans-Serif" font-size="10.00"> </text>
<text text-anchor="start" x="416" y="-531.5" font-family="Helvetica,sans-Serif" font-size="10.00"> </text>
<polygon fill="#bfbfbf" stroke="#bfbfbf" points="399,-556.5 399,-556.5 437,-556.5 437,-556.5 399,-556.5"/>
<polygon fill="#bfbfbf" stroke="#bfbfbf" points="399,-541.5 399,-541.5 437,-541.5 437,-541.5 399,-541.5"/>
<polygon fill="none" stroke="#bfbfbf" points="399,-525 399,-574 437,-574 437,-525 399,-525"/>
</a>
</g>
</g>
<!-- Node4&#45;&gt;Node1 -->
<g id="edge6_Node000001_Node000004" class="edge">
<title>Node4&#45;&gt;Node1</title>
<g id="a_edge6_Node000001_Node000004"><a xlink:title=" ">
<path fill="none" stroke="#63b8ff" d="M429.77,-524.9C434.13,-514.99 438.6,-503.18 441,-492 460.13,-402.85 462.89,-299.5 461.27,-222.19"/>
<polygon fill="none" stroke="#63b8ff" points="461.27,-222.01 457.12,-216.11 460.98,-210.02 465.12,-215.92 461.27,-222.01"/>
</a>
</g>
<text text-anchor="middle" x="530.5" y="-368.5" font-family="Helvetica,sans-Serif" font-size="10.00" fill="grey"> #mVtkCellDataName</text>
<text text-anchor="middle" x="530.5" y="-357.5" font-family="Helvetica,sans-Serif" font-size="10.00" fill="grey">#mVtkVectorCellDataName</text>
</g>
<!-- Node4&#45;&gt;Node2 -->
<g id="edge3_Node000002_Node000004" class="edge">
<title>Node4&#45;&gt;Node2</title>
<g id="a_edge3_Node000002_Node000004"><a xlink:title=" ">
<path fill="none" stroke="#63b8ff" d="M398.95,-526.32C390.58,-516.16 380.89,-503.77 373,-492 369.04,-486.09 365.09,-479.95 361.21,-473.68"/>
<polygon fill="none" stroke="#63b8ff" points="360.98,-473.31 354.44,-470.27 354.73,-463.06 361.27,-466.1 360.98,-473.31"/>
</a>
</g>
<text text-anchor="middle" x="407" y="-484" font-family="Helvetica,sans-Serif" font-size="10.00" fill="grey"> #mFileName</text>
</g>
<!-- Node5 -->
<g id="Node000005" class="node">
<title>Node5</title>
<g id="a_Node000005"><a xlink:title=" ">
<polygon fill="white" stroke="transparent" points="344,-574 194,-574 194,-525 344,-525 344,-574"/>
<text text-anchor="start" x="199" y="-561.5" font-family="Helvetica,sans-Serif" font-size="10.00">shared_ptr&lt; std::ofstream &gt;</text>
<text text-anchor="start" x="267" y="-546.5" font-family="Helvetica,sans-Serif" font-size="10.00"> </text>
<text text-anchor="start" x="267" y="-531.5" font-family="Helvetica,sans-Serif" font-size="10.00"> </text>
<polygon fill="#bfbfbf" stroke="#bfbfbf" points="194,-556.5 194,-556.5 344,-556.5 344,-556.5 194,-556.5"/>
<polygon fill="#bfbfbf" stroke="#bfbfbf" points="194,-541.5 194,-541.5 344,-541.5 344,-541.5 194,-541.5"/>
<polygon fill="none" stroke="#bfbfbf" points="194,-525 194,-574 344,-574 344,-525 194,-525"/>
</a>
</g>
</g>
<!-- Node5&#45;&gt;Node2 -->
<g id="edge4_Node000002_Node000005" class="edge">
<title>Node5&#45;&gt;Node2</title>
<g id="a_edge4_Node000002_Node000005"><a xlink:title=" ">
<path fill="none" stroke="#63b8ff" d="M267.82,-524.95C267.55,-511.92 267.84,-495.49 270,-481 270.28,-479.09 270.59,-477.16 270.92,-475.22"/>
<polygon fill="none" stroke="#63b8ff" points="270.96,-475.03 268.14,-468.39 273.19,-463.24 276,-469.88 270.96,-475.03"/>
</a>
</g>
<text text-anchor="middle" x="310" y="-484" font-family="Helvetica,sans-Serif" font-size="10.00" fill="grey"> #mpOutStream</text>
</g>
<!-- Node6 -->
<g id="Node000006" class="node">
<title>Node6</title>
<g id="a_Node000006"><a xlink:href="classbool.html" target="_top" xlink:title=" ">
<polygon fill="white" stroke="transparent" points="642,-390 610,-390 610,-341 642,-341 642,-390"/>
<text text-anchor="start" x="615" y="-377.5" font-family="Helvetica,sans-Serif" font-size="10.00">bool</text>
<text text-anchor="start" x="624" y="-362.5" font-family="Helvetica,sans-Serif" font-size="10.00"> </text>
<text text-anchor="start" x="624" y="-347.5" font-family="Helvetica,sans-Serif" font-size="10.00"> </text>
<polygon fill="#bfbfbf" stroke="#bfbfbf" points="610,-372.5 610,-372.5 642,-372.5 642,-372.5 610,-372.5"/>
<polygon fill="#bfbfbf" stroke="#bfbfbf" points="610,-357.5 610,-357.5 642,-357.5 642,-357.5 610,-357.5"/>
<polygon fill="none" stroke="#bfbfbf" points="610,-341 610,-390 642,-390 642,-341 610,-341"/>
</a>
</g>
</g>
<!-- Node6&#45;&gt;Node1 -->
<g id="edge5_Node000001_Node000006" class="edge">
<title>Node6&#45;&gt;Node1</title>
<g id="a_edge5_Node000001_Node000006"><a xlink:title=" ">
<path fill="none" stroke="#63b8ff" d="M621.51,-340.79C617.02,-320.55 608.91,-291.14 596,-268 584.5,-247.39 570.07,-227.06 554.85,-208.14"/>
<polygon fill="none" stroke="#63b8ff" points="554.7,-207.95 547.8,-205.86 547.09,-198.68 553.98,-200.78 554.7,-207.95"/>
</a>
</g>
<text text-anchor="middle" x="637" y="-242" font-family="Helvetica,sans-Serif" font-size="10.00" fill="grey"> #mOutputScalarData</text>
<text text-anchor="middle" x="637" y="-231" font-family="Helvetica,sans-Serif" font-size="10.00" fill="grey">#mOutputVectorData</text>
</g>
</g>
</svg>
