<?xml version="1.0" encoding="UTF-8" standalone="no"?>
<!DOCTYPE svg PUBLIC "-//W3C//DTD SVG 1.1//EN"
 "http://www.w3.org/Graphics/SVG/1.1/DTD/svg11.dtd">
<!-- Generated by graphviz version 2.43.0 (0)
 -->
<!-- Title: PolynomialMaterialLaw3d Pages: 1 -->
<svg width="329pt" height="1061pt"
 viewBox="0.00 0.00 329.00 1061.00" xmlns="http://www.w3.org/2000/svg" xmlns:xlink="http://www.w3.org/1999/xlink">
<g id="graph0" class="graph" transform="scale(1 1) rotate(0) translate(4 1057)">
<title>PolynomialMaterialLaw3d</title>
<!-- Node1 -->
<g id="Node000001" class="node">
<title>Node1</title>
<g id="a_Node000001"><a xlink:title=" ">
<polygon fill="#999999" stroke="transparent" points="183.5,-169 27.5,-169 27.5,0 183.5,0 183.5,-169"/>
<text text-anchor="start" x="42" y="-156.5" font-family="Helvetica,sans-Serif" font-size="10.00">PolynomialMaterialLaw3d</text>
<text text-anchor="start" x="34" y="-141.5" font-family="Helvetica,sans-Serif" font-size="10.00">&#45;</text>
<text text-anchor="start" x="44.5" y="-141.5" font-family="Helvetica,sans-Serif" font-size="10.00">mN</text>
<text text-anchor="start" x="34" y="-126.5" font-family="Helvetica,sans-Serif" font-size="10.00">&#45;</text>
<text text-anchor="start" x="44.5" y="-126.5" font-family="Helvetica,sans-Serif" font-size="10.00">mAlpha</text>
<text text-anchor="start" x="31.5" y="-111.5" font-family="Helvetica,sans-Serif" font-size="10.00">+</text>
<text text-anchor="start" x="44.5" y="-111.5" font-family="Helvetica,sans-Serif" font-size="10.00">Get_dW_dI1()</text>
<text text-anchor="start" x="31.5" y="-96.5" font-family="Helvetica,sans-Serif" font-size="10.00">+</text>
<text text-anchor="start" x="44.5" y="-96.5" font-family="Helvetica,sans-Serif" font-size="10.00">Get_dW_dI2()</text>
<text text-anchor="start" x="31.5" y="-81.5" font-family="Helvetica,sans-Serif" font-size="10.00">+</text>
<text text-anchor="start" x="44.5" y="-81.5" font-family="Helvetica,sans-Serif" font-size="10.00">Get_d2W_dI1()</text>
<text text-anchor="start" x="31.5" y="-66.5" font-family="Helvetica,sans-Serif" font-size="10.00">+</text>
<text text-anchor="start" x="44.5" y="-66.5" font-family="Helvetica,sans-Serif" font-size="10.00">Get_d2W_dI2()</text>
<text text-anchor="start" x="31.5" y="-51.5" font-family="Helvetica,sans-Serif" font-size="10.00">+</text>
<text text-anchor="start" x="44.5" y="-51.5" font-family="Helvetica,sans-Serif" font-size="10.00">Get_d2W_dI1I2()</text>
<text text-anchor="start" x="31.5" y="-36.5" font-family="Helvetica,sans-Serif" font-size="10.00">+</text>
<text text-anchor="start" x="44.5" y="-36.5" font-family="Helvetica,sans-Serif" font-size="10.00">GetAlpha()</text>
<text text-anchor="start" x="31.5" y="-21.5" font-family="Helvetica,sans-Serif" font-size="10.00">+</text>
<text text-anchor="start" x="44.5" y="-21.5" font-family="Helvetica,sans-Serif" font-size="10.00">PolynomialMaterialLaw3d()</text>
<text text-anchor="start" x="31.5" y="-6.5" font-family="Helvetica,sans-Serif" font-size="10.00">+</text>
<text text-anchor="start" x="44.5" y="-6.5" font-family="Helvetica,sans-Serif" font-size="10.00">GetZeroedAlpha()</text>
<polygon fill="#666666" stroke="#666666" points="27.5,-151.5 27.5,-151.5 183.5,-151.5 183.5,-151.5 27.5,-151.5"/>
<polygon fill="#666666" stroke="#666666" points="27.5,-121.5 27.5,-121.5 42.5,-121.5 42.5,-121.5 27.5,-121.5"/>
<polygon fill="#666666" stroke="#666666" points="42.5,-121.5 42.5,-121.5 183.5,-121.5 183.5,-121.5 42.5,-121.5"/>
<polygon fill="none" stroke="#666666" points="27.5,0 27.5,-169 183.5,-169 183.5,0 27.5,0"/>
</a>
</g>
</g>
<!-- Node2 -->
<g id="Node000002" class="node">
<title>Node2</title>
<g id="a_Node000002"><a xlink:href="classAbstractIsotropicIncompressibleMaterialLaw.html" target="_top" xlink:title=" ">
<polygon fill="white" stroke="transparent" points="207,-397 4,-397 4,-206 207,-206 207,-397"/>
<text text-anchor="start" x="27.5" y="-384.5" font-family="Helvetica,sans-Serif" font-size="10.00">AbstractIsotropicIncompressible</text>
<text text-anchor="start" x="61.5" y="-373.5" font-family="Helvetica,sans-Serif" font-size="10.00">MaterialLaw&lt; 3 &gt;</text>
<text text-anchor="start" x="104" y="-358.5" font-family="Helvetica,sans-Serif" font-size="10.00"> </text>
<text text-anchor="start" x="8.5" y="-343.5" font-family="Helvetica,sans-Serif" font-size="10.00">+</text>
<text text-anchor="start" x="21.5" y="-343.5" font-family="Helvetica,sans-Serif" font-size="10.00">ComputeStressAndStressDerivative()</text>
<text text-anchor="start" x="8.5" y="-328.5" font-family="Helvetica,sans-Serif" font-size="10.00">+</text>
<text text-anchor="start" x="21.5" y="-328.5" font-family="Helvetica,sans-Serif" font-size="10.00">~AbstractIsotropicIncompressible</text>
<text text-anchor="start" x="21.5" y="-317.5" font-family="Helvetica,sans-Serif" font-size="10.00">MaterialLaw()</text>
<text text-anchor="start" x="8.5" y="-302.5" font-family="Helvetica,sans-Serif" font-size="10.00">+</text>
<text text-anchor="start" x="21.5" y="-302.5" font-family="Helvetica,sans-Serif" font-size="10.00">GetZeroStrainPressure()</text>
<text text-anchor="start" x="8.5" y="-287.5" font-family="Helvetica,sans-Serif" font-size="10.00">+</text>
<text text-anchor="start" x="21.5" y="-287.5" font-family="Helvetica,sans-Serif" font-size="10.00">GetZeroStrainPressure()</text>
<text text-anchor="start" x="8.5" y="-272.5" font-family="Helvetica,sans-Serif" font-size="10.00">#</text>
<text text-anchor="start" x="21.5" y="-272.5" font-family="Helvetica,sans-Serif" font-size="10.00">Get_dW_dI1()</text>
<text text-anchor="start" x="8.5" y="-257.5" font-family="Helvetica,sans-Serif" font-size="10.00">#</text>
<text text-anchor="start" x="21.5" y="-257.5" font-family="Helvetica,sans-Serif" font-size="10.00">Get_dW_dI2()</text>
<text text-anchor="start" x="8.5" y="-242.5" font-family="Helvetica,sans-Serif" font-size="10.00">#</text>
<text text-anchor="start" x="21.5" y="-242.5" font-family="Helvetica,sans-Serif" font-size="10.00">Get_d2W_dI1()</text>
<text text-anchor="start" x="8.5" y="-227.5" font-family="Helvetica,sans-Serif" font-size="10.00">#</text>
<text text-anchor="start" x="21.5" y="-227.5" font-family="Helvetica,sans-Serif" font-size="10.00">Get_d2W_dI2()</text>
<text text-anchor="start" x="8.5" y="-212.5" font-family="Helvetica,sans-Serif" font-size="10.00">#</text>
<text text-anchor="start" x="21.5" y="-212.5" font-family="Helvetica,sans-Serif" font-size="10.00">Get_d2W_dI1I2()</text>
<polygon fill="#666666" stroke="#666666" points="4.5,-368.5 4.5,-368.5 207.5,-368.5 207.5,-368.5 4.5,-368.5"/>
<polygon fill="#666666" stroke="#666666" points="4.5,-353.5 4.5,-353.5 207.5,-353.5 207.5,-353.5 4.5,-353.5"/>
<polygon fill="none" stroke="#666666" points="4,-206 4,-397 207,-397 207,-206 4,-206"/>
</a>
</g>
</g>
<!-- Node2&#45;&gt;Node1 -->
<g id="edge1_Node000001_Node000002" class="edge">
<title>Node2&#45;&gt;Node1</title>
<g id="a_edge1_Node000001_Node000002"><a xlink:title=" ">
<path fill="none" stroke="#63b8ff" d="M105.5,-195.77C105.5,-186.8 105.5,-177.79 105.5,-169.02"/>
<polygon fill="none" stroke="#63b8ff" points="102,-195.88 105.5,-205.88 109,-195.89 102,-195.88"/>
</a>
</g>
</g>
<!-- Node3 -->
<g id="Node000003" class="node">
<title>Node3</title>
<g id="a_Node000003"><a xlink:href="classAbstractIncompressibleMaterialLaw.html" target="_top" xlink:title=" ">
<polygon fill="white" stroke="transparent" points="194,-784 9,-784 9,-672 194,-672 194,-784"/>
<text text-anchor="start" x="24" y="-772" font-family="Helvetica,sans-Serif" font-size="10.00">AbstractIncompressibleMaterial</text>
<text text-anchor="start" x="71" y="-761" font-family="Helvetica,sans-Serif" font-size="10.00">Law&lt; DIM &gt;</text>
<text text-anchor="start" x="100" y="-746" font-family="Helvetica,sans-Serif" font-size="10.00"> </text>
<text text-anchor="start" x="13.5" y="-731" font-family="Helvetica,sans-Serif" font-size="10.00">+</text>
<text text-anchor="start" x="26.5" y="-731" font-family="Helvetica,sans-Serif" font-size="10.00">AbstractIncompressibleMaterial</text>
<text text-anchor="start" x="26.5" y="-720" font-family="Helvetica,sans-Serif" font-size="10.00">Law()</text>
<text text-anchor="start" x="13.5" y="-705" font-family="Helvetica,sans-Serif" font-size="10.00">+</text>
<text text-anchor="start" x="26.5" y="-705" font-family="Helvetica,sans-Serif" font-size="10.00">~AbstractIncompressibleMaterial</text>
<text text-anchor="start" x="26.5" y="-694" font-family="Helvetica,sans-Serif" font-size="10.00">Law()</text>
<text text-anchor="start" x="13.5" y="-679" font-family="Helvetica,sans-Serif" font-size="10.00">+</text>
<text text-anchor="start" x="26.5" y="-679" font-family="Helvetica,sans-Serif" font-size="10.00">GetZeroStrainPressure()</text>
<polygon fill="#666666" stroke="#666666" points="9.5,-756 9.5,-756 194.5,-756 194.5,-756 9.5,-756"/>
<polygon fill="#666666" stroke="#666666" points="9.5,-741 9.5,-741 194.5,-741 194.5,-741 9.5,-741"/>
<polygon fill="none" stroke="#666666" points="9,-672 9,-784 194,-784 194,-672 9,-672"/>
</a>
</g>
</g>
<!-- Node3&#45;&gt;Node2 -->
<g id="edge2_Node000002_Node000003" class="edge">
<title>Node3&#45;&gt;Node2</title>
<g id="a_edge2_Node000002_Node000003"><a xlink:title=" ">
<path fill="none" stroke="#63b8ff" d="M102.11,-661.83C102.78,-591.15 103.85,-477.67 104.61,-397.17"/>
<polygon fill="none" stroke="#63b8ff" points="98.61,-661.91 102.02,-671.94 105.61,-661.97 98.61,-661.91"/>
</a>
</g>
</g>
<!-- Node5 -->
<g id="Node000005" class="node">
<title>Node5</title>
<g id="a_Node000005"><a xlink:href="classAbstractIsotropicIncompressibleMaterialLaw.html" target="_top" xlink:title=" ">
<polygon fill="white" stroke="transparent" points="321,-635 118,-635 118,-444 321,-444 321,-635"/>
<text text-anchor="start" x="141.5" y="-622.5" font-family="Helvetica,sans-Serif" font-size="10.00">AbstractIsotropicIncompressible</text>
<text text-anchor="start" x="168.5" y="-611.5" font-family="Helvetica,sans-Serif" font-size="10.00">MaterialLaw&lt; DIM &gt;</text>
<text text-anchor="start" x="218" y="-596.5" font-family="Helvetica,sans-Serif" font-size="10.00"> </text>
<text text-anchor="start" x="122.5" y="-581.5" font-family="Helvetica,sans-Serif" font-size="10.00">+</text>
<text text-anchor="start" x="135.5" y="-581.5" font-family="Helvetica,sans-Serif" font-size="10.00">ComputeStressAndStressDerivative()</text>
<text text-anchor="start" x="122.5" y="-566.5" font-family="Helvetica,sans-Serif" font-size="10.00">+</text>
<text text-anchor="start" x="135.5" y="-566.5" font-family="Helvetica,sans-Serif" font-size="10.00">~AbstractIsotropicIncompressible</text>
<text text-anchor="start" x="135.5" y="-555.5" font-family="Helvetica,sans-Serif" font-size="10.00">MaterialLaw()</text>
<text text-anchor="start" x="122.5" y="-540.5" font-family="Helvetica,sans-Serif" font-size="10.00">+</text>
<text text-anchor="start" x="135.5" y="-540.5" font-family="Helvetica,sans-Serif" font-size="10.00">GetZeroStrainPressure()</text>
<text text-anchor="start" x="122.5" y="-525.5" font-family="Helvetica,sans-Serif" font-size="10.00">+</text>
<text text-anchor="start" x="135.5" y="-525.5" font-family="Helvetica,sans-Serif" font-size="10.00">GetZeroStrainPressure()</text>
<text text-anchor="start" x="122.5" y="-510.5" font-family="Helvetica,sans-Serif" font-size="10.00">#</text>
<text text-anchor="start" x="135.5" y="-510.5" font-family="Helvetica,sans-Serif" font-size="10.00">Get_dW_dI1()</text>
<text text-anchor="start" x="122.5" y="-495.5" font-family="Helvetica,sans-Serif" font-size="10.00">#</text>
<text text-anchor="start" x="135.5" y="-495.5" font-family="Helvetica,sans-Serif" font-size="10.00">Get_dW_dI2()</text>
<text text-anchor="start" x="122.5" y="-480.5" font-family="Helvetica,sans-Serif" font-size="10.00">#</text>
<text text-anchor="start" x="135.5" y="-480.5" font-family="Helvetica,sans-Serif" font-size="10.00">Get_d2W_dI1()</text>
<text text-anchor="start" x="122.5" y="-465.5" font-family="Helvetica,sans-Serif" font-size="10.00">#</text>
<text text-anchor="start" x="135.5" y="-465.5" font-family="Helvetica,sans-Serif" font-size="10.00">Get_d2W_dI2()</text>
<text text-anchor="start" x="122.5" y="-450.5" font-family="Helvetica,sans-Serif" font-size="10.00">#</text>
<text text-anchor="start" x="135.5" y="-450.5" font-family="Helvetica,sans-Serif" font-size="10.00">Get_d2W_dI1I2()</text>
<polygon fill="#666666" stroke="#666666" points="118.5,-606.5 118.5,-606.5 321.5,-606.5 321.5,-606.5 118.5,-606.5"/>
<polygon fill="#666666" stroke="#666666" points="118.5,-591.5 118.5,-591.5 321.5,-591.5 321.5,-591.5 118.5,-591.5"/>
<polygon fill="none" stroke="#666666" points="118,-444 118,-635 321,-635 321,-444 118,-444"/>
</a>
</g>
</g>
<!-- Node3&#45;&gt;Node5 -->
<g id="edge5_Node000005_Node000003" class="edge">
<title>Node3&#45;&gt;Node5</title>
<g id="a_edge5_Node000005_Node000003"><a xlink:title=" ">
<path fill="none" stroke="#63b8ff" d="M141.85,-663.22C147.61,-654.12 153.63,-644.6 159.66,-635.07"/>
<polygon fill="none" stroke="#63b8ff" points="138.81,-661.48 136.42,-671.8 144.73,-665.22 138.81,-661.48"/>
</a>
</g>
</g>
<!-- Node4 -->
<g id="Node000004" class="node">
<title>Node4</title>
<g id="a_Node000004"><a xlink:href="classAbstractMaterialLaw.html" target="_top" xlink:title=" ">
<polygon fill="white" stroke="transparent" points="203,-1053 0,-1053 0,-821 203,-821 203,-1053"/>
<text text-anchor="start" x="51.5" y="-1041" font-family="Helvetica,sans-Serif" font-size="10.00">AbstractMaterialLaw</text>
<text text-anchor="start" x="80.5" y="-1030" font-family="Helvetica,sans-Serif" font-size="10.00">&lt; DIM &gt;</text>
<text text-anchor="start" x="4.5" y="-1015" font-family="Helvetica,sans-Serif" font-size="10.00">#</text>
<text text-anchor="start" x="17.5" y="-1015" font-family="Helvetica,sans-Serif" font-size="10.00">mpChangeOfBasisMatrix</text>
<text text-anchor="start" x="4.5" y="-1000" font-family="Helvetica,sans-Serif" font-size="10.00">+</text>
<text text-anchor="start" x="17.5" y="-1000" font-family="Helvetica,sans-Serif" font-size="10.00">AbstractMaterialLaw()</text>
<text text-anchor="start" x="4.5" y="-985" font-family="Helvetica,sans-Serif" font-size="10.00">+</text>
<text text-anchor="start" x="17.5" y="-985" font-family="Helvetica,sans-Serif" font-size="10.00">~AbstractMaterialLaw()</text>
<text text-anchor="start" x="4.5" y="-970" font-family="Helvetica,sans-Serif" font-size="10.00">+</text>
<text text-anchor="start" x="17.5" y="-970" font-family="Helvetica,sans-Serif" font-size="10.00">ComputeStressAndStressDerivative()</text>
<text text-anchor="start" x="4.5" y="-955" font-family="Helvetica,sans-Serif" font-size="10.00">+</text>
<text text-anchor="start" x="17.5" y="-955" font-family="Helvetica,sans-Serif" font-size="10.00">ComputeCauchyStress()</text>
<text text-anchor="start" x="4.5" y="-940" font-family="Helvetica,sans-Serif" font-size="10.00">+</text>
<text text-anchor="start" x="17.5" y="-940" font-family="Helvetica,sans-Serif" font-size="10.00">Compute1stPiolaKirchoffStress()</text>
<text text-anchor="start" x="4.5" y="-925" font-family="Helvetica,sans-Serif" font-size="10.00">+</text>
<text text-anchor="start" x="17.5" y="-925" font-family="Helvetica,sans-Serif" font-size="10.00">Compute2ndPiolaKirchoffStress()</text>
<text text-anchor="start" x="4.5" y="-910" font-family="Helvetica,sans-Serif" font-size="10.00">+</text>
<text text-anchor="start" x="17.5" y="-910" font-family="Helvetica,sans-Serif" font-size="10.00">ScaleMaterialParameters()</text>
<text text-anchor="start" x="4.5" y="-895" font-family="Helvetica,sans-Serif" font-size="10.00">+</text>
<text text-anchor="start" x="17.5" y="-895" font-family="Helvetica,sans-Serif" font-size="10.00">SetChangeOfBasisMatrix()</text>
<text text-anchor="start" x="4.5" y="-880" font-family="Helvetica,sans-Serif" font-size="10.00">+</text>
<text text-anchor="start" x="17.5" y="-880" font-family="Helvetica,sans-Serif" font-size="10.00">ResetToNoChangeOfBasisMatrix()</text>
<text text-anchor="start" x="4.5" y="-865" font-family="Helvetica,sans-Serif" font-size="10.00">#</text>
<text text-anchor="start" x="17.5" y="-865" font-family="Helvetica,sans-Serif" font-size="10.00">ComputeTransformedDeformation</text>
<text text-anchor="start" x="17.5" y="-854" font-family="Helvetica,sans-Serif" font-size="10.00">Tensor()</text>
<text text-anchor="start" x="4.5" y="-839" font-family="Helvetica,sans-Serif" font-size="10.00">#</text>
<text text-anchor="start" x="17.5" y="-839" font-family="Helvetica,sans-Serif" font-size="10.00">TransformStressAndStress</text>
<text text-anchor="start" x="17.5" y="-828" font-family="Helvetica,sans-Serif" font-size="10.00">Derivative()</text>
<polygon fill="#666666" stroke="#666666" points="0.5,-1025 0.5,-1025 203.5,-1025 203.5,-1025 0.5,-1025"/>
<polygon fill="#666666" stroke="#666666" points="0.5,-1010 0.5,-1010 15.5,-1010 15.5,-1010 0.5,-1010"/>
<polygon fill="#666666" stroke="#666666" points="15.5,-1010 15.5,-1010 203.5,-1010 203.5,-1010 15.5,-1010"/>
<polygon fill="none" stroke="#666666" points="0,-821 0,-1053 203,-1053 203,-821 0,-821"/>
</a>
</g>
</g>
<!-- Node4&#45;&gt;Node3 -->
<g id="edge3_Node000003_Node000004" class="edge">
<title>Node4&#45;&gt;Node3</title>
<g id="a_edge3_Node000003_Node000004"><a xlink:title=" ">
<path fill="none" stroke="#63b8ff" d="M101.5,-810.9C101.5,-801.67 101.5,-792.68 101.5,-784.25"/>
<polygon fill="none" stroke="#63b8ff" points="98,-811 101.5,-821 105,-811 98,-811"/>
</a>
</g>
</g>
<!-- Node5&#45;&gt;Node2 -->
<g id="edge4_Node000002_Node000005" class="edge">
<title>Node5&#45;&gt;Node2</title>
<g id="a_edge4_Node000002_Node000005"><a xlink:title=" ">
<path fill="none" stroke="orange" d="M169.41,-434.8C163.36,-422.28 157.2,-409.53 151.22,-397.15"/>
<polygon fill="orange" stroke="orange" points="166.29,-436.39 173.79,-443.87 172.59,-433.34 166.29,-436.39"/>
</a>
</g>
<text text-anchor="middle" x="178.5" y="-418" font-family="Helvetica,sans-Serif" font-size="10.00" fill="grey"> &lt; 3 &gt;</text>
</g>
</g>
</svg>
