<?xml version="1.0" encoding="UTF-8" standalone="no"?>
<!DOCTYPE svg PUBLIC "-//W3C//DTD SVG 1.1//EN"
 "http://www.w3.org/Graphics/SVG/1.1/DTD/svg11.dtd">
<!-- Generated by graphviz version 2.43.0 (0)
 -->
<!-- Title: DistributedTetrahedralMesh&lt; ELEMENT_DIM, SPACE_DIM &gt; Pages: 1 -->
<svg width="1342pt" height="1574pt"
 viewBox="0.00 0.00 1341.50 1574.00" xmlns="http://www.w3.org/2000/svg" xmlns:xlink="http://www.w3.org/1999/xlink">
<g id="graph0" class="graph" transform="scale(1 1) rotate(0) translate(4 1570)">
<title>DistributedTetrahedralMesh&lt; ELEMENT_DIM, SPACE_DIM &gt;</title>
<!-- Node1 -->
<g id="Node000001" class="node">
<title>Node1</title>
<g id="a_Node000001"><a xlink:title=" ">
<polygon fill="#999999" stroke="transparent" points="1042,-401 855,-401 855,0 1042,0 1042,-401"/>
<text text-anchor="start" x="871.5" y="-388.5" font-family="Helvetica,sans-Serif" font-size="10.00">DistributedTetrahedralMesh</text>
<text text-anchor="start" x="871.5" y="-377.5" font-family="Helvetica,sans-Serif" font-size="10.00">&lt; ELEMENT_DIM, SPACE_DIM &gt;</text>
<text text-anchor="start" x="947" y="-362.5" font-family="Helvetica,sans-Serif" font-size="10.00"> </text>
<text text-anchor="start" x="859.5" y="-347.5" font-family="Helvetica,sans-Serif" font-size="10.00">+</text>
<text text-anchor="start" x="872.5" y="-347.5" font-family="Helvetica,sans-Serif" font-size="10.00">DistributedTetrahedralMesh()</text>
<text text-anchor="start" x="859.5" y="-332.5" font-family="Helvetica,sans-Serif" font-size="10.00">+</text>
<text text-anchor="start" x="872.5" y="-332.5" font-family="Helvetica,sans-Serif" font-size="10.00">~DistributedTetrahedralMesh()</text>
<text text-anchor="start" x="859.5" y="-317.5" font-family="Helvetica,sans-Serif" font-size="10.00">+</text>
<text text-anchor="start" x="872.5" y="-317.5" font-family="Helvetica,sans-Serif" font-size="10.00">SetDistributedVectorFactory()</text>
<text text-anchor="start" x="859.5" y="-302.5" font-family="Helvetica,sans-Serif" font-size="10.00">+</text>
<text text-anchor="start" x="872.5" y="-302.5" font-family="Helvetica,sans-Serif" font-size="10.00">ConstructFromMeshReader()</text>
<text text-anchor="start" x="859.5" y="-287.5" font-family="Helvetica,sans-Serif" font-size="10.00">+</text>
<text text-anchor="start" x="872.5" y="-287.5" font-family="Helvetica,sans-Serif" font-size="10.00">GetNumLocalNodes()</text>
<text text-anchor="start" x="859.5" y="-272.5" font-family="Helvetica,sans-Serif" font-size="10.00">+</text>
<text text-anchor="start" x="872.5" y="-272.5" font-family="Helvetica,sans-Serif" font-size="10.00">GetNumHaloNodes()</text>
<text text-anchor="start" x="859.5" y="-257.5" font-family="Helvetica,sans-Serif" font-size="10.00">+</text>
<text text-anchor="start" x="872.5" y="-257.5" font-family="Helvetica,sans-Serif" font-size="10.00">GetNumLocalElements()</text>
<text text-anchor="start" x="859.5" y="-242.5" font-family="Helvetica,sans-Serif" font-size="10.00">+</text>
<text text-anchor="start" x="872.5" y="-242.5" font-family="Helvetica,sans-Serif" font-size="10.00">GetNumLocalBoundaryElements()</text>
<text text-anchor="start" x="859.5" y="-227.5" font-family="Helvetica,sans-Serif" font-size="10.00">+</text>
<text text-anchor="start" x="872.5" y="-227.5" font-family="Helvetica,sans-Serif" font-size="10.00">GetNumNodes()</text>
<text text-anchor="start" x="859.5" y="-212.5" font-family="Helvetica,sans-Serif" font-size="10.00">+</text>
<text text-anchor="start" x="872.5" y="-212.5" font-family="Helvetica,sans-Serif" font-size="10.00">GetNumAllNodes()</text>
<text text-anchor="start" x="872.5" y="-197.5" font-family="Helvetica,sans-Serif" font-size="10.00">and 20 more...</text>
<text text-anchor="start" x="859.5" y="-182.5" font-family="Helvetica,sans-Serif" font-size="10.00">#</text>
<text text-anchor="start" x="872.5" y="-182.5" font-family="Helvetica,sans-Serif" font-size="10.00">SolveNodeMapping()</text>
<text text-anchor="start" x="859.5" y="-167.5" font-family="Helvetica,sans-Serif" font-size="10.00">#</text>
<text text-anchor="start" x="872.5" y="-167.5" font-family="Helvetica,sans-Serif" font-size="10.00">SolveElementMapping()</text>
<text text-anchor="start" x="859.5" y="-152.5" font-family="Helvetica,sans-Serif" font-size="10.00">#</text>
<text text-anchor="start" x="872.5" y="-152.5" font-family="Helvetica,sans-Serif" font-size="10.00">SolveBoundaryElementMapping()</text>
<text text-anchor="start" x="862" y="-137.5" font-family="Helvetica,sans-Serif" font-size="10.00">&#45;</text>
<text text-anchor="start" x="872.5" y="-137.5" font-family="Helvetica,sans-Serif" font-size="10.00">serialize()</text>
<text text-anchor="start" x="862" y="-122.5" font-family="Helvetica,sans-Serif" font-size="10.00">&#45;</text>
<text text-anchor="start" x="872.5" y="-122.5" font-family="Helvetica,sans-Serif" font-size="10.00">SetElementOwnerships()</text>
<text text-anchor="start" x="862" y="-107.5" font-family="Helvetica,sans-Serif" font-size="10.00">&#45;</text>
<text text-anchor="start" x="872.5" y="-107.5" font-family="Helvetica,sans-Serif" font-size="10.00">RegisterNode()</text>
<text text-anchor="start" x="862" y="-92.5" font-family="Helvetica,sans-Serif" font-size="10.00">&#45;</text>
<text text-anchor="start" x="872.5" y="-92.5" font-family="Helvetica,sans-Serif" font-size="10.00">RegisterHaloNode()</text>
<text text-anchor="start" x="862" y="-77.5" font-family="Helvetica,sans-Serif" font-size="10.00">&#45;</text>
<text text-anchor="start" x="872.5" y="-77.5" font-family="Helvetica,sans-Serif" font-size="10.00">RegisterElement()</text>
<text text-anchor="start" x="862" y="-62.5" font-family="Helvetica,sans-Serif" font-size="10.00">&#45;</text>
<text text-anchor="start" x="872.5" y="-62.5" font-family="Helvetica,sans-Serif" font-size="10.00">RegisterBoundaryElement()</text>
<text text-anchor="start" x="862" y="-47.5" font-family="Helvetica,sans-Serif" font-size="10.00">&#45;</text>
<text text-anchor="start" x="872.5" y="-47.5" font-family="Helvetica,sans-Serif" font-size="10.00">ComputeMeshPartitioning()</text>
<text text-anchor="start" x="862" y="-32.5" font-family="Helvetica,sans-Serif" font-size="10.00">&#45;</text>
<text text-anchor="start" x="872.5" y="-32.5" font-family="Helvetica,sans-Serif" font-size="10.00">ParMetisLibraryNodeAndElement</text>
<text text-anchor="start" x="872.5" y="-21.5" font-family="Helvetica,sans-Serif" font-size="10.00">Partitioning()</text>
<text text-anchor="start" x="862" y="-6.5" font-family="Helvetica,sans-Serif" font-size="10.00">&#45;</text>
<text text-anchor="start" x="872.5" y="-6.5" font-family="Helvetica,sans-Serif" font-size="10.00">ReorderNodes()</text>
<polygon fill="#666666" stroke="#666666" points="855.5,-372.5 855.5,-372.5 1042.5,-372.5 1042.5,-372.5 855.5,-372.5"/>
<polygon fill="#666666" stroke="#666666" points="855.5,-357.5 855.5,-357.5 1042.5,-357.5 1042.5,-357.5 855.5,-357.5"/>
<polygon fill="none" stroke="#666666" points="855,0 855,-401 1042,-401 1042,0 855,0"/>
</a>
</g>
</g>
<!-- Node2 -->
<g id="Node000002" class="node">
<title>Node2</title>
<g id="a_Node000002"><a xlink:href="classAbstractTetrahedralMesh.html" target="_top" xlink:title=" ">
<polygon fill="white" stroke="transparent" points="832,-766 645,-766 645,-481 832,-481 832,-766"/>
<text text-anchor="start" x="661.5" y="-753.5" font-family="Helvetica,sans-Serif" font-size="10.00">AbstractTetrahedralMesh</text>
<text text-anchor="start" x="661.5" y="-742.5" font-family="Helvetica,sans-Serif" font-size="10.00">&lt; ELEMENT_DIM, SPACE_DIM &gt;</text>
<text text-anchor="start" x="737" y="-727.5" font-family="Helvetica,sans-Serif" font-size="10.00"> </text>
<text text-anchor="start" x="649.5" y="-712.5" font-family="Helvetica,sans-Serif" font-size="10.00">+</text>
<text text-anchor="start" x="662.5" y="-712.5" font-family="Helvetica,sans-Serif" font-size="10.00">GetElementIteratorBegin()</text>
<text text-anchor="start" x="649.5" y="-697.5" font-family="Helvetica,sans-Serif" font-size="10.00">+</text>
<text text-anchor="start" x="662.5" y="-697.5" font-family="Helvetica,sans-Serif" font-size="10.00">GetElementIteratorEnd()</text>
<text text-anchor="start" x="649.5" y="-682.5" font-family="Helvetica,sans-Serif" font-size="10.00">+</text>
<text text-anchor="start" x="662.5" y="-682.5" font-family="Helvetica,sans-Serif" font-size="10.00">AbstractTetrahedralMesh()</text>
<text text-anchor="start" x="649.5" y="-667.5" font-family="Helvetica,sans-Serif" font-size="10.00">+</text>
<text text-anchor="start" x="662.5" y="-667.5" font-family="Helvetica,sans-Serif" font-size="10.00">~AbstractTetrahedralMesh()</text>
<text text-anchor="start" x="649.5" y="-652.5" font-family="Helvetica,sans-Serif" font-size="10.00">+</text>
<text text-anchor="start" x="662.5" y="-652.5" font-family="Helvetica,sans-Serif" font-size="10.00">GetNumElements()</text>
<text text-anchor="start" x="649.5" y="-637.5" font-family="Helvetica,sans-Serif" font-size="10.00">+</text>
<text text-anchor="start" x="662.5" y="-637.5" font-family="Helvetica,sans-Serif" font-size="10.00">GetNumLocalElements()</text>
<text text-anchor="start" x="649.5" y="-622.5" font-family="Helvetica,sans-Serif" font-size="10.00">+</text>
<text text-anchor="start" x="662.5" y="-622.5" font-family="Helvetica,sans-Serif" font-size="10.00">GetNumBoundaryElements()</text>
<text text-anchor="start" x="649.5" y="-607.5" font-family="Helvetica,sans-Serif" font-size="10.00">+</text>
<text text-anchor="start" x="662.5" y="-607.5" font-family="Helvetica,sans-Serif" font-size="10.00">GetNumLocalBoundaryElements()</text>
<text text-anchor="start" x="649.5" y="-592.5" font-family="Helvetica,sans-Serif" font-size="10.00">+</text>
<text text-anchor="start" x="662.5" y="-592.5" font-family="Helvetica,sans-Serif" font-size="10.00">GetNumAllElements()</text>
<text text-anchor="start" x="649.5" y="-577.5" font-family="Helvetica,sans-Serif" font-size="10.00">+</text>
<text text-anchor="start" x="662.5" y="-577.5" font-family="Helvetica,sans-Serif" font-size="10.00">GetNumAllBoundaryElements()</text>
<text text-anchor="start" x="662.5" y="-562.5" font-family="Helvetica,sans-Serif" font-size="10.00">and 25 more...</text>
<text text-anchor="start" x="649.5" y="-547.5" font-family="Helvetica,sans-Serif" font-size="10.00">#</text>
<text text-anchor="start" x="662.5" y="-547.5" font-family="Helvetica,sans-Serif" font-size="10.00">SetElementOwnerships()</text>
<text text-anchor="start" x="652" y="-532.5" font-family="Helvetica,sans-Serif" font-size="10.00">&#45;</text>
<text text-anchor="start" x="662.5" y="-532.5" font-family="Helvetica,sans-Serif" font-size="10.00">SolveElementMapping()</text>
<text text-anchor="start" x="652" y="-517.5" font-family="Helvetica,sans-Serif" font-size="10.00">&#45;</text>
<text text-anchor="start" x="662.5" y="-517.5" font-family="Helvetica,sans-Serif" font-size="10.00">SolveBoundaryElementMapping()</text>
<text text-anchor="start" x="652" y="-502.5" font-family="Helvetica,sans-Serif" font-size="10.00">&#45;</text>
<text text-anchor="start" x="662.5" y="-502.5" font-family="Helvetica,sans-Serif" font-size="10.00">save()</text>
<text text-anchor="start" x="652" y="-487.5" font-family="Helvetica,sans-Serif" font-size="10.00">&#45;</text>
<text text-anchor="start" x="662.5" y="-487.5" font-family="Helvetica,sans-Serif" font-size="10.00">load()</text>
<polygon fill="#666666" stroke="#666666" points="645.5,-737.5 645.5,-737.5 832.5,-737.5 832.5,-737.5 645.5,-737.5"/>
<polygon fill="#666666" stroke="#666666" points="645.5,-722.5 645.5,-722.5 832.5,-722.5 832.5,-722.5 645.5,-722.5"/>
<polygon fill="none" stroke="#666666" points="645,-481 645,-766 832,-766 832,-481 645,-481"/>
</a>
</g>
</g>
<!-- Node2&#45;&gt;Node1 -->
<g id="edge1_Node000001_Node000002" class="edge">
<title>Node2&#45;&gt;Node1</title>
<g id="a_edge1_Node000001_Node000002"><a xlink:title=" ">
<path fill="none" stroke="#63b8ff" d="M813.67,-471.8C827.06,-444.96 841.15,-416.71 854.98,-388.99"/>
<polygon fill="none" stroke="#63b8ff" points="810.49,-470.34 809.16,-480.85 816.75,-473.46 810.49,-470.34"/>
</a>
</g>
</g>
<!-- Node3 -->
<g id="Node000003" class="node">
<title>Node3</title>
<g id="a_Node000003"><a xlink:href="classAbstractMesh.html" target="_top" xlink:title=" ">
<polygon fill="white" stroke="transparent" points="812,-1083 665,-1083 665,-813 812,-813 812,-1083"/>
<text text-anchor="start" x="677" y="-1071" font-family="Helvetica,sans-Serif" font-size="10.00">AbstractMesh&lt; ELEMENT</text>
<text text-anchor="start" x="690" y="-1060" font-family="Helvetica,sans-Serif" font-size="10.00">_DIM, SPACE_DIM &gt;</text>
<text text-anchor="start" x="737" y="-1045" font-family="Helvetica,sans-Serif" font-size="10.00"> </text>
<text text-anchor="start" x="669.5" y="-1030" font-family="Helvetica,sans-Serif" font-size="10.00">+</text>
<text text-anchor="start" x="682.5" y="-1030" font-family="Helvetica,sans-Serif" font-size="10.00">GetNodeIteratorBegin()</text>
<text text-anchor="start" x="669.5" y="-1015" font-family="Helvetica,sans-Serif" font-size="10.00">+</text>
<text text-anchor="start" x="682.5" y="-1015" font-family="Helvetica,sans-Serif" font-size="10.00">GetNodeIteratorEnd()</text>
<text text-anchor="start" x="669.5" y="-1000" font-family="Helvetica,sans-Serif" font-size="10.00">+</text>
<text text-anchor="start" x="682.5" y="-1000" font-family="Helvetica,sans-Serif" font-size="10.00">AbstractMesh()</text>
<text text-anchor="start" x="669.5" y="-985" font-family="Helvetica,sans-Serif" font-size="10.00">+</text>
<text text-anchor="start" x="682.5" y="-985" font-family="Helvetica,sans-Serif" font-size="10.00">~AbstractMesh()</text>
<text text-anchor="start" x="669.5" y="-970" font-family="Helvetica,sans-Serif" font-size="10.00">+</text>
<text text-anchor="start" x="682.5" y="-970" font-family="Helvetica,sans-Serif" font-size="10.00">GetNumNodes()</text>
<text text-anchor="start" x="669.5" y="-955" font-family="Helvetica,sans-Serif" font-size="10.00">+</text>
<text text-anchor="start" x="682.5" y="-955" font-family="Helvetica,sans-Serif" font-size="10.00">GetNumBoundaryNodes()</text>
<text text-anchor="start" x="669.5" y="-940" font-family="Helvetica,sans-Serif" font-size="10.00">+</text>
<text text-anchor="start" x="682.5" y="-940" font-family="Helvetica,sans-Serif" font-size="10.00">GetNumAllNodes()</text>
<text text-anchor="start" x="669.5" y="-925" font-family="Helvetica,sans-Serif" font-size="10.00">+</text>
<text text-anchor="start" x="682.5" y="-925" font-family="Helvetica,sans-Serif" font-size="10.00">GetNumNodeAttributes()</text>
<text text-anchor="start" x="669.5" y="-910" font-family="Helvetica,sans-Serif" font-size="10.00">+</text>
<text text-anchor="start" x="682.5" y="-910" font-family="Helvetica,sans-Serif" font-size="10.00">GetNode()</text>
<text text-anchor="start" x="669.5" y="-895" font-family="Helvetica,sans-Serif" font-size="10.00">+</text>
<text text-anchor="start" x="682.5" y="-895" font-family="Helvetica,sans-Serif" font-size="10.00">GetNodeOrHaloNode()</text>
<text text-anchor="start" x="682.5" y="-880" font-family="Helvetica,sans-Serif" font-size="10.00">and 28 more...</text>
<text text-anchor="start" x="669.5" y="-865" font-family="Helvetica,sans-Serif" font-size="10.00">#</text>
<text text-anchor="start" x="682.5" y="-865" font-family="Helvetica,sans-Serif" font-size="10.00">SetElementOwnerships()</text>
<text text-anchor="start" x="669.5" y="-850" font-family="Helvetica,sans-Serif" font-size="10.00">#</text>
<text text-anchor="start" x="682.5" y="-850" font-family="Helvetica,sans-Serif" font-size="10.00">CalculateBoundingBox()</text>
<text text-anchor="start" x="672" y="-835" font-family="Helvetica,sans-Serif" font-size="10.00">&#45;</text>
<text text-anchor="start" x="682.5" y="-835" font-family="Helvetica,sans-Serif" font-size="10.00">SolveNodeMapping()</text>
<text text-anchor="start" x="672" y="-820" font-family="Helvetica,sans-Serif" font-size="10.00">&#45;</text>
<text text-anchor="start" x="682.5" y="-820" font-family="Helvetica,sans-Serif" font-size="10.00">serialize()</text>
<polygon fill="#666666" stroke="#666666" points="665.5,-1055 665.5,-1055 812.5,-1055 812.5,-1055 665.5,-1055"/>
<polygon fill="#666666" stroke="#666666" points="665.5,-1040 665.5,-1040 812.5,-1040 812.5,-1040 665.5,-1040"/>
<polygon fill="none" stroke="#666666" points="665,-813 665,-1083 812,-1083 812,-813 665,-813"/>
</a>
</g>
</g>
<!-- Node3&#45;&gt;Node2 -->
<g id="edge2_Node000002_Node000003" class="edge">
<title>Node3&#45;&gt;Node2</title>
<g id="a_edge2_Node000002_Node000003"><a xlink:title=" ">
<path fill="none" stroke="#63b8ff" d="M738.5,-802.49C738.5,-790.45 738.5,-778.28 738.5,-766.26"/>
<polygon fill="none" stroke="#63b8ff" points="735,-802.57 738.5,-812.57 742,-802.57 735,-802.57"/>
</a>
</g>
</g>
<!-- Node4 -->
<g id="Node000004" class="node">
<title>Node4</title>
<g id="a_Node000004"><a xlink:title=" ">
<polygon fill="white" stroke="transparent" points="725.5,-1313.5 619.5,-1313.5 619.5,-1264.5 725.5,-1264.5 725.5,-1313.5"/>
<text text-anchor="start" x="624.5" y="-1301" font-family="Helvetica,sans-Serif" font-size="10.00">boost::noncopyable</text>
<text text-anchor="start" x="670.5" y="-1286" font-family="Helvetica,sans-Serif" font-size="10.00"> </text>
<text text-anchor="start" x="670.5" y="-1271" font-family="Helvetica,sans-Serif" font-size="10.00"> </text>
<polygon fill="#bfbfbf" stroke="#bfbfbf" points="619.5,-1296 619.5,-1296 725.5,-1296 725.5,-1296 619.5,-1296"/>
<polygon fill="#bfbfbf" stroke="#bfbfbf" points="619.5,-1281 619.5,-1281 725.5,-1281 725.5,-1281 619.5,-1281"/>
<polygon fill="none" stroke="#bfbfbf" points="619.5,-1264.5 619.5,-1313.5 725.5,-1313.5 725.5,-1264.5 619.5,-1264.5"/>
</a>
</g>
</g>
<!-- Node4&#45;&gt;Node3 -->
<g id="edge3_Node000003_Node000004" class="edge">
<title>Node4&#45;&gt;Node3</title>
<g id="a_edge3_Node000003_Node000004"><a xlink:title=" ">
<path fill="none" stroke="#8b1a1a" d="M679.03,-1254.46C686.79,-1214.58 700.24,-1145.54 712.38,-1083.18"/>
<polygon fill="none" stroke="#8b1a1a" points="675.56,-1253.95 677.09,-1264.43 682.44,-1255.28 675.56,-1253.95"/>
</a>
</g>
</g>
<!-- Node5 -->
<g id="Node000005" class="node">
<title>Node5</title>
<g id="a_Node000005"><a xlink:title=" ">
<polygon fill="white" stroke="transparent" points="1074.5,-1319 954.5,-1319 954.5,-1259 1074.5,-1259 1074.5,-1319"/>
<text text-anchor="start" x="959.5" y="-1307" font-family="Helvetica,sans-Serif" font-size="10.00">vector&lt; Node&lt; SPACE</text>
<text text-anchor="start" x="986.5" y="-1296" font-family="Helvetica,sans-Serif" font-size="10.00">_DIM &gt; * &gt;</text>
<text text-anchor="start" x="1012.5" y="-1281" font-family="Helvetica,sans-Serif" font-size="10.00"> </text>
<text text-anchor="start" x="1012.5" y="-1266" font-family="Helvetica,sans-Serif" font-size="10.00"> </text>
<polygon fill="#bfbfbf" stroke="#bfbfbf" points="954.5,-1291 954.5,-1291 1074.5,-1291 1074.5,-1291 954.5,-1291"/>
<polygon fill="#bfbfbf" stroke="#bfbfbf" points="954.5,-1276 954.5,-1276 1074.5,-1276 1074.5,-1276 954.5,-1276"/>
<polygon fill="none" stroke="#bfbfbf" points="954.5,-1259 954.5,-1319 1074.5,-1319 1074.5,-1259 954.5,-1259"/>
</a>
</g>
</g>
<!-- Node5&#45;&gt;Node1 -->
<g id="edge17_Node000001_Node000005" class="edge">
<title>Node5&#45;&gt;Node1</title>
<g id="a_edge17_Node000001_Node000005"><a xlink:title=" ">
<path fill="none" stroke="#63b8ff" d="M1007.88,-1258.78C990.39,-1179.85 943.19,-955.53 927.5,-766 917.05,-639.76 922.75,-607.58 927.5,-481 928.33,-458.95 929.52,-435.94 930.92,-413.01"/>
<polygon fill="none" stroke="#63b8ff" points="930.92,-413 927.31,-406.76 931.68,-401.03 935.29,-407.26 930.92,-413"/>
</a>
</g>
<text text-anchor="middle" x="964.5" y="-787" font-family="Helvetica,sans-Serif" font-size="10.00" fill="grey"> &#45;mHaloNodes</text>
</g>
<!-- Node5&#45;&gt;Node3 -->
<g id="edge4_Node000003_Node000005" class="edge">
<title>Node5&#45;&gt;Node3</title>
<g id="a_edge4_Node000003_Node000005"><a xlink:title=" ">
<path fill="none" stroke="#63b8ff" d="M1008.5,-1258.85C999.81,-1224.63 980.2,-1168.98 940.5,-1141 887.42,-1103.59 845.63,-1164.28 795.5,-1123 785.55,-1114.81 777.32,-1104.85 770.52,-1093.88"/>
<polygon fill="none" stroke="#63b8ff" points="770.33,-1093.54 763.89,-1090.28 764.43,-1083.09 770.86,-1086.34 770.33,-1093.54"/>
</a>
</g>
<text text-anchor="middle" x="845" y="-1115" font-family="Helvetica,sans-Serif" font-size="10.00" fill="grey"> #mBoundaryNodes</text>
<text text-anchor="middle" x="845" y="-1104" font-family="Helvetica,sans-Serif" font-size="10.00" fill="grey">#mNodes</text>
</g>
<!-- Node6 -->
<g id="Node000006" class="node">
<title>Node6</title>
<g id="a_Node000006"><a xlink:href="classDistributedVectorFactory.html" target="_top" xlink:title=" ">
<polygon fill="white" stroke="transparent" points="430.5,-1437 264.5,-1437 264.5,-1141 430.5,-1141 430.5,-1437"/>
<text text-anchor="start" x="287" y="-1425" font-family="Helvetica,sans-Serif" font-size="10.00">DistributedVectorFactory</text>
<text text-anchor="start" x="345.5" y="-1410" font-family="Helvetica,sans-Serif" font-size="10.00"> </text>
<text text-anchor="start" x="268.5" y="-1395" font-family="Helvetica,sans-Serif" font-size="10.00">+</text>
<text text-anchor="start" x="281.5" y="-1395" font-family="Helvetica,sans-Serif" font-size="10.00">DistributedVectorFactory()</text>
<text text-anchor="start" x="268.5" y="-1380" font-family="Helvetica,sans-Serif" font-size="10.00">+</text>
<text text-anchor="start" x="281.5" y="-1380" font-family="Helvetica,sans-Serif" font-size="10.00">DistributedVectorFactory()</text>
<text text-anchor="start" x="268.5" y="-1365" font-family="Helvetica,sans-Serif" font-size="10.00">+</text>
<text text-anchor="start" x="281.5" y="-1365" font-family="Helvetica,sans-Serif" font-size="10.00">DistributedVectorFactory()</text>
<text text-anchor="start" x="268.5" y="-1350" font-family="Helvetica,sans-Serif" font-size="10.00">+</text>
<text text-anchor="start" x="281.5" y="-1350" font-family="Helvetica,sans-Serif" font-size="10.00">DistributedVectorFactory()</text>
<text text-anchor="start" x="268.5" y="-1335" font-family="Helvetica,sans-Serif" font-size="10.00">+</text>
<text text-anchor="start" x="281.5" y="-1335" font-family="Helvetica,sans-Serif" font-size="10.00">~DistributedVectorFactory()</text>
<text text-anchor="start" x="268.5" y="-1320" font-family="Helvetica,sans-Serif" font-size="10.00">+</text>
<text text-anchor="start" x="281.5" y="-1320" font-family="Helvetica,sans-Serif" font-size="10.00">CreateVec()</text>
<text text-anchor="start" x="268.5" y="-1305" font-family="Helvetica,sans-Serif" font-size="10.00">+</text>
<text text-anchor="start" x="281.5" y="-1305" font-family="Helvetica,sans-Serif" font-size="10.00">CreateVec()</text>
<text text-anchor="start" x="268.5" y="-1290" font-family="Helvetica,sans-Serif" font-size="10.00">+</text>
<text text-anchor="start" x="281.5" y="-1290" font-family="Helvetica,sans-Serif" font-size="10.00">CreateDistributedVector()</text>
<text text-anchor="start" x="268.5" y="-1275" font-family="Helvetica,sans-Serif" font-size="10.00">+</text>
<text text-anchor="start" x="281.5" y="-1275" font-family="Helvetica,sans-Serif" font-size="10.00">IsGlobalIndexLocal()</text>
<text text-anchor="start" x="268.5" y="-1260" font-family="Helvetica,sans-Serif" font-size="10.00">+</text>
<text text-anchor="start" x="281.5" y="-1260" font-family="Helvetica,sans-Serif" font-size="10.00">GetLocalOwnership()</text>
<text text-anchor="start" x="281.5" y="-1245" font-family="Helvetica,sans-Serif" font-size="10.00">and 8 more...</text>
<text text-anchor="start" x="268.5" y="-1230" font-family="Helvetica,sans-Serif" font-size="10.00">+</text>
<text text-anchor="start" x="281.5" y="-1230" font-family="Helvetica,sans-Serif" font-size="10.00">SetCheckNumberOfProcesses</text>
<text text-anchor="start" x="281.5" y="-1219" font-family="Helvetica,sans-Serif" font-size="10.00">OnLoad()</text>
<text text-anchor="start" x="268.5" y="-1204" font-family="Helvetica,sans-Serif" font-size="10.00">+</text>
<text text-anchor="start" x="281.5" y="-1204" font-family="Helvetica,sans-Serif" font-size="10.00">CheckNumberOfProcessesOn</text>
<text text-anchor="start" x="281.5" y="-1193" font-family="Helvetica,sans-Serif" font-size="10.00">Load()</text>
<text text-anchor="start" x="271" y="-1178" font-family="Helvetica,sans-Serif" font-size="10.00">&#45;</text>
<text text-anchor="start" x="281.5" y="-1178" font-family="Helvetica,sans-Serif" font-size="10.00">CheckForPetsc()</text>
<text text-anchor="start" x="271" y="-1163" font-family="Helvetica,sans-Serif" font-size="10.00">&#45;</text>
<text text-anchor="start" x="281.5" y="-1163" font-family="Helvetica,sans-Serif" font-size="10.00">CalculateOwnership()</text>
<text text-anchor="start" x="271" y="-1148" font-family="Helvetica,sans-Serif" font-size="10.00">&#45;</text>
<text text-anchor="start" x="281.5" y="-1148" font-family="Helvetica,sans-Serif" font-size="10.00">serialize()</text>
<polygon fill="#666666" stroke="#666666" points="264.5,-1420 264.5,-1420 430.5,-1420 430.5,-1420 264.5,-1420"/>
<polygon fill="#666666" stroke="#666666" points="264.5,-1405 264.5,-1405 430.5,-1405 430.5,-1405 264.5,-1405"/>
<polygon fill="none" stroke="#666666" points="264.5,-1141 264.5,-1437 430.5,-1437 430.5,-1141 264.5,-1141"/>
</a>
</g>
</g>
<!-- Node6&#45;&gt;Node3 -->
<g id="edge5_Node000003_Node000006" class="edge">
<title>Node6&#45;&gt;Node3</title>
<g id="a_edge5_Node000003_Node000006"><a xlink:title=" ">
<path fill="none" stroke="#63b8ff" d="M384.68,-1140.68C393.85,-1125.38 405.27,-1111.59 419.5,-1101 459.14,-1071.5 592.92,-1105.65 654.11,-1081.86"/>
<polygon fill="none" stroke="#63b8ff" points="654.23,-1081.8 657.84,-1075.57 664.99,-1076.51 661.38,-1082.74 654.23,-1081.8"/>
</a>
</g>
<text text-anchor="middle" x="493.5" y="-1109.5" font-family="Helvetica,sans-Serif" font-size="10.00" fill="grey"> #mpDistributedVectorFactory</text>
</g>
<!-- Node6&#45;&gt;Node6 -->
<g id="edge9_Node000006_Node000006" class="edge">
<title>Node6&#45;&gt;Node6</title>
<g id="a_edge9_Node000006_Node000006"><a xlink:title=" ">
<path fill="none" stroke="#63b8ff" d="M430.71,-1317.92C441.42,-1312.91 448.5,-1303.27 448.5,-1289 448.5,-1279.86 445.6,-1272.62 440.69,-1267.28"/>
<polygon fill="none" stroke="#63b8ff" points="440.44,-1267.1 433.24,-1266.83 430.71,-1260.08 437.91,-1260.34 440.44,-1267.1"/>
</a>
</g>
<text text-anchor="middle" x="497" y="-1286.5" font-family="Helvetica,sans-Serif" font-size="10.00" fill="grey"> &#45;mpOriginalFactory</text>
</g>
<!-- Node7 -->
<g id="Node000007" class="node">
<title>Node7</title>
<g id="a_Node000007"><a xlink:href="classunsigned.html" target="_top" xlink:title=" ">
<polygon fill="white" stroke="transparent" points="55,-1566 0,-1566 0,-1517 55,-1517 55,-1566"/>
<text text-anchor="start" x="5.5" y="-1553.5" font-family="Helvetica,sans-Serif" font-size="10.00">unsigned</text>
<text text-anchor="start" x="26" y="-1538.5" font-family="Helvetica,sans-Serif" font-size="10.00"> </text>
<text text-anchor="start" x="26" y="-1523.5" font-family="Helvetica,sans-Serif" font-size="10.00"> </text>
<polygon fill="#bfbfbf" stroke="#bfbfbf" points="0.5,-1548.5 0.5,-1548.5 55.5,-1548.5 55.5,-1548.5 0.5,-1548.5"/>
<polygon fill="#bfbfbf" stroke="#bfbfbf" points="0.5,-1533.5 0.5,-1533.5 55.5,-1533.5 55.5,-1533.5 0.5,-1533.5"/>
<polygon fill="none" stroke="#bfbfbf" points="0,-1517 0,-1566 55,-1566 55,-1517 0,-1517"/>
</a>
</g>
</g>
<!-- Node7&#45;&gt;Node1 -->
<g id="edge16_Node000001_Node000007" class="edge">
<title>Node7&#45;&gt;Node1</title>
<g id="a_edge16_Node000001_Node000007"><a xlink:title=" ">
<path fill="none" stroke="#63b8ff" d="M25.76,-1516.68C22.66,-1472.18 16.5,-1373.36 16.5,-1290 16.5,-1290 16.5,-1290 16.5,-622.5 16.5,-263.26 598.7,-208.89 842.8,-201.89"/>
<polygon fill="none" stroke="#63b8ff" points="842.87,-201.88 848.77,-197.73 854.87,-201.57 848.98,-205.73 842.87,-201.88"/>
</a>
</g>
<text text-anchor="middle" x="94.5" y="-956.5" font-family="Helvetica,sans-Serif" font-size="10.00" fill="grey"> &#45;mTotalNumBoundaryElements</text>
<text text-anchor="middle" x="94.5" y="-945.5" font-family="Helvetica,sans-Serif" font-size="10.00" fill="grey">&#45;mTotalNumElements</text>
<text text-anchor="middle" x="94.5" y="-934.5" font-family="Helvetica,sans-Serif" font-size="10.00" fill="grey">&#45;mTotalNumNodes</text>
</g>
<!-- Node7&#45;&gt;Node6 -->
<g id="edge6_Node000006_Node000007" class="edge">
<title>Node7&#45;&gt;Node6</title>
<g id="a_edge6_Node000006_Node000007"><a xlink:title=" ">
<path fill="none" stroke="#63b8ff" d="M53,-1516.63C75.56,-1496.9 110.29,-1469.82 145.5,-1455 189.14,-1436.63 210.86,-1462.89 250.5,-1437 251.83,-1436.13 253.15,-1435.23 254.45,-1434.32"/>
<polygon fill="none" stroke="#63b8ff" points="254.67,-1434.15 256.98,-1427.32 264.17,-1426.82 261.87,-1433.65 254.67,-1434.15"/>
</a>
</g>
<text text-anchor="middle" x="183" y="-1491" font-family="Helvetica,sans-Serif" font-size="10.00" fill="grey"> &#45;mHi</text>
<text text-anchor="middle" x="183" y="-1480" font-family="Helvetica,sans-Serif" font-size="10.00" fill="grey">&#45;mLo</text>
<text text-anchor="middle" x="183" y="-1469" font-family="Helvetica,sans-Serif" font-size="10.00" fill="grey">&#45;mNumProcs</text>
<text text-anchor="middle" x="183" y="-1458" font-family="Helvetica,sans-Serif" font-size="10.00" fill="grey">&#45;mProblemSize</text>
</g>
<!-- Node8 -->
<g id="Node000008" class="node">
<title>Node8</title>
<g id="a_Node000008"><a xlink:href="classbool.html" target="_top" xlink:title=" ">
<polygon fill="white" stroke="transparent" points="777.5,-1566 745.5,-1566 745.5,-1517 777.5,-1517 777.5,-1566"/>
<text text-anchor="start" x="750.5" y="-1553.5" font-family="Helvetica,sans-Serif" font-size="10.00">bool</text>
<text text-anchor="start" x="759.5" y="-1538.5" font-family="Helvetica,sans-Serif" font-size="10.00"> </text>
<text text-anchor="start" x="759.5" y="-1523.5" font-family="Helvetica,sans-Serif" font-size="10.00"> </text>
<polygon fill="#bfbfbf" stroke="#bfbfbf" points="745.5,-1548.5 745.5,-1548.5 777.5,-1548.5 777.5,-1548.5 745.5,-1548.5"/>
<polygon fill="#bfbfbf" stroke="#bfbfbf" points="745.5,-1533.5 745.5,-1533.5 777.5,-1533.5 777.5,-1533.5 745.5,-1533.5"/>
<polygon fill="none" stroke="#bfbfbf" points="745.5,-1517 745.5,-1566 777.5,-1566 777.5,-1517 745.5,-1517"/>
</a>
</g>
</g>
<!-- Node8&#45;&gt;Node2 -->
<g id="edge13_Node000002_Node000008" class="edge">
<title>Node8&#45;&gt;Node2</title>
<g id="a_edge13_Node000002_Node000008"><a xlink:title=" ">
<path fill="none" stroke="#63b8ff" d="M777.53,-1541.23C831.74,-1542.7 1008.96,-1539.26 1083.5,-1437 1160.99,-1330.69 1101.58,-1271.31 1083.5,-1141 1060.84,-977.67 1096.71,-902.94 982.5,-784 964.69,-765.45 950.32,-777.86 927.5,-766 898.19,-750.76 868.6,-731.09 841.81,-711.29"/>
<polygon fill="none" stroke="#63b8ff" points="841.68,-711.19 834.48,-710.79 832.07,-704 839.27,-704.39 841.68,-711.19"/>
</a>
</g>
<text text-anchor="middle" x="1123.5" y="-1109.5" font-family="Helvetica,sans-Serif" font-size="10.00" fill="grey"> #mMeshIsLinear</text>
</g>
<!-- Node8&#45;&gt;Node3 -->
<g id="edge12_Node000003_Node000008" class="edge">
<title>Node8&#45;&gt;Node3</title>
<g id="a_edge12_Node000003_Node000008"><a xlink:title=" ">
<path fill="none" stroke="#63b8ff" d="M760.58,-1516.95C757.88,-1447.53 749.8,-1239.57 744.2,-1095.55"/>
<polygon fill="none" stroke="#63b8ff" points="744.18,-1095.12 739.95,-1089.28 743.72,-1083.13 747.95,-1088.97 744.18,-1095.12"/>
</a>
</g>
<text text-anchor="middle" x="845" y="-1286.5" font-family="Helvetica,sans-Serif" font-size="10.00" fill="grey"> #mMeshChangesDuringSimulation</text>
</g>
<!-- Node8&#45;&gt;Node6 -->
<g id="edge7_Node000006_Node000008" class="edge">
<title>Node8&#45;&gt;Node6</title>
<g id="a_edge7_Node000006_Node000008"><a xlink:title=" ">
<path fill="none" stroke="#63b8ff" d="M745.5,-1538.76C715.45,-1535.01 649.16,-1524.32 599.5,-1499 541.35,-1469.35 484.66,-1424.24 439.82,-1383.51"/>
<polygon fill="none" stroke="#63b8ff" points="439.57,-1383.28 432.44,-1382.17 430.73,-1375.16 437.85,-1376.27 439.57,-1383.28"/>
</a>
</g>
<text text-anchor="middle" x="673.5" y="-1485.5" font-family="Helvetica,sans-Serif" font-size="10.00" fill="grey"> &#45;mPetscStatusKnown</text>
<text text-anchor="start" x="599.5" y="-1474.5" font-family="Helvetica,sans-Serif" font-size="10.00" fill="grey">&#45;msCheckNumberOfProcesses</text>
<text text-anchor="middle" x="673.5" y="-1463.5" font-family="Helvetica,sans-Serif" font-size="10.00" fill="grey">OnLoad</text>
</g>
<!-- Node9 -->
<g id="Node000009" class="node">
<title>Node9</title>
<g id="a_Node000009"><a xlink:title=" ">
<polygon fill="white" stroke="transparent" points="253.5,-1566 145.5,-1566 145.5,-1517 253.5,-1517 253.5,-1566"/>
<text text-anchor="start" x="150.5" y="-1553.5" font-family="Helvetica,sans-Serif" font-size="10.00">vector&lt; unsigned &gt;</text>
<text text-anchor="start" x="197.5" y="-1538.5" font-family="Helvetica,sans-Serif" font-size="10.00"> </text>
<text text-anchor="start" x="197.5" y="-1523.5" font-family="Helvetica,sans-Serif" font-size="10.00"> </text>
<polygon fill="#bfbfbf" stroke="#bfbfbf" points="145.5,-1548.5 145.5,-1548.5 253.5,-1548.5 253.5,-1548.5 145.5,-1548.5"/>
<polygon fill="#bfbfbf" stroke="#bfbfbf" points="145.5,-1533.5 145.5,-1533.5 253.5,-1533.5 253.5,-1533.5 145.5,-1533.5"/>
<polygon fill="none" stroke="#bfbfbf" points="145.5,-1517 145.5,-1566 253.5,-1566 253.5,-1517 145.5,-1517"/>
</a>
</g>
</g>
<!-- Node9&#45;&gt;Node3 -->
<g id="edge10_Node000003_Node000009" class="edge">
<title>Node9&#45;&gt;Node3</title>
<g id="a_edge10_Node000003_Node000009"><a xlink:title=" ">
<path fill="none" stroke="#63b8ff" d="M185.66,-1516.78C148.15,-1449.06 53.52,-1252.52 148.5,-1141 220.89,-1056 285.59,-1113.77 396.5,-1101 450.57,-1094.77 589.15,-1110.8 653.86,-1082.4"/>
<polygon fill="none" stroke="#63b8ff" points="654.03,-1082.31 657.52,-1075.99 664.68,-1076.78 661.2,-1083.1 654.03,-1082.31"/>
</a>
</g>
<text text-anchor="middle" x="202" y="-1286.5" font-family="Helvetica,sans-Serif" font-size="10.00" fill="grey"> #mNodePermutation</text>
</g>
<!-- Node9&#45;&gt;Node6 -->
<g id="edge8_Node000006_Node000009" class="edge">
<title>Node9&#45;&gt;Node6</title>
<g id="a_edge8_Node000006_Node000009"><a xlink:title=" ">
<path fill="none" stroke="#63b8ff" d="M213.42,-1516.93C224.37,-1498.41 240.64,-1470.87 258.1,-1441.31"/>
<polygon fill="none" stroke="#63b8ff" points="258.22,-1441.11 257.83,-1433.91 264.33,-1430.78 264.72,-1437.98 258.22,-1441.11"/>
</a>
</g>
<text text-anchor="middle" x="284" y="-1474.5" font-family="Helvetica,sans-Serif" font-size="10.00" fill="grey"> &#45;mGlobalLows</text>
</g>
<!-- Node10 -->
<g id="Node000010" class="node">
<title>Node10</title>
<g id="a_Node000010"><a xlink:title=" ">
<polygon fill="white" stroke="transparent" points="601.5,-1313.5 563.5,-1313.5 563.5,-1264.5 601.5,-1264.5 601.5,-1313.5"/>
<text text-anchor="start" x="568.5" y="-1301" font-family="Helvetica,sans-Serif" font-size="10.00">string</text>
<text text-anchor="start" x="580.5" y="-1286" font-family="Helvetica,sans-Serif" font-size="10.00"> </text>
<text text-anchor="start" x="580.5" y="-1271" font-family="Helvetica,sans-Serif" font-size="10.00"> </text>
<polygon fill="#bfbfbf" stroke="#bfbfbf" points="563.5,-1296 563.5,-1296 601.5,-1296 601.5,-1296 563.5,-1296"/>
<polygon fill="#bfbfbf" stroke="#bfbfbf" points="563.5,-1281 563.5,-1281 601.5,-1281 601.5,-1281 563.5,-1281"/>
<polygon fill="none" stroke="#bfbfbf" points="563.5,-1264.5 563.5,-1313.5 601.5,-1313.5 601.5,-1264.5 563.5,-1264.5"/>
</a>
</g>
</g>
<!-- Node10&#45;&gt;Node3 -->
<g id="edge11_Node000003_Node000010" class="edge">
<title>Node10&#45;&gt;Node3</title>
<g id="a_edge11_Node000003_Node000010"><a xlink:title=" ">
<path fill="none" stroke="#63b8ff" d="M574.32,-1264.36C562.58,-1225.69 546.21,-1148.5 583.5,-1101 601.88,-1077.59 624.02,-1097.61 654.6,-1081.95"/>
<polygon fill="none" stroke="#63b8ff" points="654.67,-1081.9 657.62,-1075.32 664.82,-1075.51 661.88,-1082.09 654.67,-1081.9"/>
</a>
</g>
<text text-anchor="middle" x="642.5" y="-1109.5" font-family="Helvetica,sans-Serif" font-size="10.00" fill="grey"> #mMeshFileBaseName</text>
</g>
<!-- Node11 -->
<g id="Node000011" class="node">
<title>Node11</title>
<g id="a_Node000011"><a xlink:title=" ">
<polygon fill="white" stroke="transparent" points="488.5,-978 338.5,-978 338.5,-918 488.5,-918 488.5,-978"/>
<text text-anchor="start" x="343.5" y="-966" font-family="Helvetica,sans-Serif" font-size="10.00">vector&lt; Element&lt; ELEMENT</text>
<text text-anchor="start" x="354.5" y="-955" font-family="Helvetica,sans-Serif" font-size="10.00">_DIM, SPACE_DIM &gt; * &gt;</text>
<text text-anchor="start" x="411.5" y="-940" font-family="Helvetica,sans-Serif" font-size="10.00"> </text>
<text text-anchor="start" x="411.5" y="-925" font-family="Helvetica,sans-Serif" font-size="10.00"> </text>
<polygon fill="#bfbfbf" stroke="#bfbfbf" points="338.5,-950 338.5,-950 488.5,-950 488.5,-950 338.5,-950"/>
<polygon fill="#bfbfbf" stroke="#bfbfbf" points="338.5,-935 338.5,-935 488.5,-935 488.5,-935 338.5,-935"/>
<polygon fill="none" stroke="#bfbfbf" points="338.5,-918 338.5,-978 488.5,-978 488.5,-918 338.5,-918"/>
</a>
</g>
</g>
<!-- Node11&#45;&gt;Node2 -->
<g id="edge14_Node000002_Node000011" class="edge">
<title>Node11&#45;&gt;Node2</title>
<g id="a_edge14_Node000002_Node000011"><a xlink:title=" ">
<path fill="none" stroke="#63b8ff" d="M427.95,-917.83C442.95,-889.27 468.27,-845.43 497.5,-813 537.84,-768.24 589.74,-726.14 635.04,-693.13"/>
<polygon fill="none" stroke="#63b8ff" points="635.17,-693.04 637.7,-686.28 644.9,-686.01 642.38,-692.77 635.17,-693.04"/>
</a>
</g>
<text text-anchor="middle" x="554" y="-787" font-family="Helvetica,sans-Serif" font-size="10.00" fill="grey"> #mElements</text>
</g>
<!-- Node12 -->
<g id="Node000012" class="node">
<title>Node12</title>
<g id="a_Node000012"><a xlink:title=" ">
<polygon fill="white" stroke="transparent" points="646.5,-983.5 506.5,-983.5 506.5,-912.5 646.5,-912.5 646.5,-983.5"/>
<text text-anchor="start" x="511.5" y="-971" font-family="Helvetica,sans-Serif" font-size="10.00">vector&lt; BoundaryElement</text>
<text text-anchor="start" x="511.5" y="-960" font-family="Helvetica,sans-Serif" font-size="10.00">&lt; ELEMENT_DIM&#45;1, SPACE</text>
<text text-anchor="start" x="548.5" y="-949" font-family="Helvetica,sans-Serif" font-size="10.00">_DIM &gt; * &gt;</text>
<text text-anchor="start" x="574.5" y="-934" font-family="Helvetica,sans-Serif" font-size="10.00"> </text>
<text text-anchor="start" x="574.5" y="-919" font-family="Helvetica,sans-Serif" font-size="10.00"> </text>
<polygon fill="#bfbfbf" stroke="#bfbfbf" points="506.5,-944 506.5,-944 646.5,-944 646.5,-944 506.5,-944"/>
<polygon fill="#bfbfbf" stroke="#bfbfbf" points="506.5,-929 506.5,-929 646.5,-929 646.5,-929 506.5,-929"/>
<polygon fill="none" stroke="#bfbfbf" points="506.5,-912.5 506.5,-983.5 646.5,-983.5 646.5,-912.5 506.5,-912.5"/>
</a>
</g>
</g>
<!-- Node12&#45;&gt;Node2 -->
<g id="edge15_Node000002_Node000012" class="edge">
<title>Node12&#45;&gt;Node2</title>
<g id="a_edge15_Node000002_Node000012"><a xlink:title=" ">
<path fill="none" stroke="#63b8ff" d="M581.99,-912.28C588.23,-878.34 600.28,-825.83 620.5,-784 625.78,-773.07 631.85,-762.13 638.38,-751.39"/>
<polygon fill="none" stroke="#63b8ff" points="638.41,-751.33 638.2,-744.12 644.77,-741.15 644.98,-748.36 638.41,-751.33"/>
</a>
</g>
<text text-anchor="middle" x="677.5" y="-787" font-family="Helvetica,sans-Serif" font-size="10.00" fill="grey"> #mBoundaryElements</text>
</g>
<!-- Node13 -->
<g id="Node000013" class="node">
<title>Node13</title>
<g id="a_Node000013"><a xlink:title=" ">
<polygon fill="white" stroke="transparent" points="1085,-648 936,-648 936,-599 1085,-599 1085,-648"/>
<text text-anchor="start" x="941.5" y="-635.5" font-family="Helvetica,sans-Serif" font-size="10.00">map&lt; unsigned, unsigned &gt;</text>
<text text-anchor="start" x="1009" y="-620.5" font-family="Helvetica,sans-Serif" font-size="10.00"> </text>
<text text-anchor="start" x="1009" y="-605.5" font-family="Helvetica,sans-Serif" font-size="10.00"> </text>
<polygon fill="#bfbfbf" stroke="#bfbfbf" points="936.5,-630.5 936.5,-630.5 1085.5,-630.5 1085.5,-630.5 936.5,-630.5"/>
<polygon fill="#bfbfbf" stroke="#bfbfbf" points="936.5,-615.5 936.5,-615.5 1085.5,-615.5 1085.5,-615.5 936.5,-615.5"/>
<polygon fill="none" stroke="#bfbfbf" points="936,-599 936,-648 1085,-648 1085,-599 936,-599"/>
</a>
</g>
</g>
<!-- Node13&#45;&gt;Node1 -->
<g id="edge18_Node000001_Node000013" class="edge">
<title>Node13&#45;&gt;Node1</title>
<g id="a_edge18_Node000001_Node000013"><a xlink:title=" ">
<path fill="none" stroke="#63b8ff" d="M1007.03,-598.96C1001.62,-562.23 990.65,-487.69 979.65,-412.99"/>
<polygon fill="none" stroke="#63b8ff" points="979.63,-412.88 974.8,-407.53 977.88,-401.01 982.71,-406.36 979.63,-412.88"/>
</a>
</g>
<text text-anchor="middle" x="1062" y="-455" font-family="Helvetica,sans-Serif" font-size="10.00" fill="grey"> &#45;mBoundaryElementsMapping</text>
<text text-anchor="middle" x="1062" y="-444" font-family="Helvetica,sans-Serif" font-size="10.00" fill="grey">&#45;mElementsMapping</text>
<text text-anchor="middle" x="1062" y="-433" font-family="Helvetica,sans-Serif" font-size="10.00" fill="grey">&#45;mHaloNodesMapping</text>
<text text-anchor="middle" x="1062" y="-422" font-family="Helvetica,sans-Serif" font-size="10.00" fill="grey">&#45;mNodesMapping</text>
</g>
<!-- Node14 -->
<g id="Node000014" class="node">
<title>Node14</title>
<g id="a_Node000014"><a xlink:title=" ">
<polygon fill="white" stroke="transparent" points="1222.5,-653.5 1102.5,-653.5 1102.5,-593.5 1222.5,-593.5 1222.5,-653.5"/>
<text text-anchor="start" x="1107.5" y="-641.5" font-family="Helvetica,sans-Serif" font-size="10.00">ChasteCuboid&lt; SPACE</text>
<text text-anchor="start" x="1140" y="-630.5" font-family="Helvetica,sans-Serif" font-size="10.00">_DIM &gt; *</text>
<text text-anchor="start" x="1160.5" y="-615.5" font-family="Helvetica,sans-Serif" font-size="10.00"> </text>
<text text-anchor="start" x="1160.5" y="-600.5" font-family="Helvetica,sans-Serif" font-size="10.00"> </text>
<polygon fill="#bfbfbf" stroke="#bfbfbf" points="1102.5,-625.5 1102.5,-625.5 1222.5,-625.5 1222.5,-625.5 1102.5,-625.5"/>
<polygon fill="#bfbfbf" stroke="#bfbfbf" points="1102.5,-610.5 1102.5,-610.5 1222.5,-610.5 1222.5,-610.5 1102.5,-610.5"/>
<polygon fill="none" stroke="#bfbfbf" points="1102.5,-593.5 1102.5,-653.5 1222.5,-653.5 1222.5,-593.5 1102.5,-593.5"/>
</a>
</g>
</g>
<!-- Node14&#45;&gt;Node1 -->
<g id="edge19_Node000001_Node000014" class="edge">
<title>Node14&#45;&gt;Node1</title>
<g id="a_edge19_Node000001_Node000014"><a xlink:title=" ">
<path fill="none" stroke="#63b8ff" d="M1164.73,-593.45C1166.69,-552.65 1166.03,-476.87 1140.5,-419 1119.74,-371.95 1085.01,-327.83 1050.74,-291.8"/>
<polygon fill="none" stroke="#63b8ff" points="1050.39,-291.43 1043.34,-289.9 1042.05,-282.81 1049.09,-284.34 1050.39,-291.43"/>
</a>
</g>
<text text-anchor="middle" x="1196.5" y="-438.5" font-family="Helvetica,sans-Serif" font-size="10.00" fill="grey"> &#45;mpSpaceRegion</text>
</g>
<!-- Node15 -->
<g id="Node000015" class="node">
<title>Node15</title>
<g id="a_Node000015"><a xlink:title=" ">
<polygon fill="white" stroke="transparent" points="1287.5,-648 1255.5,-648 1255.5,-599 1287.5,-599 1287.5,-648"/>
<text text-anchor="start" x="1260.5" y="-635.5" font-family="Helvetica,sans-Serif" font-size="10.00">type</text>
<text text-anchor="start" x="1269.5" y="-620.5" font-family="Helvetica,sans-Serif" font-size="10.00"> </text>
<text text-anchor="start" x="1269.5" y="-605.5" font-family="Helvetica,sans-Serif" font-size="10.00"> </text>
<polygon fill="#bfbfbf" stroke="#bfbfbf" points="1255.5,-630.5 1255.5,-630.5 1287.5,-630.5 1287.5,-630.5 1255.5,-630.5"/>
<polygon fill="#bfbfbf" stroke="#bfbfbf" points="1255.5,-615.5 1255.5,-615.5 1287.5,-615.5 1287.5,-615.5 1255.5,-615.5"/>
<polygon fill="none" stroke="#bfbfbf" points="1255.5,-599 1255.5,-648 1287.5,-648 1287.5,-599 1255.5,-599"/>
</a>
</g>
</g>
<!-- Node15&#45;&gt;Node1 -->
<g id="edge20_Node000001_Node000015" class="edge">
<title>Node15&#45;&gt;Node1</title>
<g id="a_edge20_Node000001_Node000015"><a xlink:title=" ">
<path fill="none" stroke="#63b8ff" d="M1273.9,-598.93C1276.8,-558.93 1277.66,-476.49 1243.5,-419 1199.32,-344.64 1118.88,-287.93 1053.15,-251.08"/>
<polygon fill="none" stroke="#63b8ff" points="1052.83,-250.9 1045.64,-251.51 1042.32,-245.11 1049.5,-244.51 1052.83,-250.9"/>
</a>
</g>
<text text-anchor="middle" x="1297" y="-438.5" font-family="Helvetica,sans-Serif" font-size="10.00" fill="grey"> &#45;mPartitioning</text>
</g>
</g>
</svg>
