<?xml version="1.0" encoding="UTF-8" standalone="no"?>
<!DOCTYPE svg PUBLIC "-//W3C//DTD SVG 1.1//EN"
 "http://www.w3.org/Graphics/SVG/1.1/DTD/svg11.dtd">
<!-- Generated by graphviz version 2.43.0 (0)
 -->
<!-- Title: VertexElement&lt; 1, SPACE_DIM &gt; Pages: 1 -->
<svg width="650pt" height="1033pt"
 viewBox="0.00 0.00 650.00 1033.00" xmlns="http://www.w3.org/2000/svg" xmlns:xlink="http://www.w3.org/1999/xlink">
<g id="graph0" class="graph" transform="scale(1 1) rotate(0) translate(4 1029)">
<title>VertexElement&lt; 1, SPACE_DIM &gt;</title>
<!-- Node1 -->
<g id="Node000001" class="node">
<title>Node1</title>
<g id="a_Node000001"><a xlink:title=" ">
<polygon fill="#999999" stroke="transparent" points="499.5,-105 339.5,-105 339.5,0 499.5,0 499.5,-105"/>
<text text-anchor="start" x="356" y="-92.5" font-family="Helvetica,sans-Serif" font-size="10.00">VertexElement&lt; 1, SPACE</text>
<text text-anchor="start" x="401" y="-81.5" font-family="Helvetica,sans-Serif" font-size="10.00">_DIM &gt;</text>
<text text-anchor="start" x="417.5" y="-66.5" font-family="Helvetica,sans-Serif" font-size="10.00"> </text>
<text text-anchor="start" x="343.5" y="-51.5" font-family="Helvetica,sans-Serif" font-size="10.00">+</text>
<text text-anchor="start" x="356.5" y="-51.5" font-family="Helvetica,sans-Serif" font-size="10.00">VertexElement()</text>
<text text-anchor="start" x="343.5" y="-36.5" font-family="Helvetica,sans-Serif" font-size="10.00">+</text>
<text text-anchor="start" x="356.5" y="-36.5" font-family="Helvetica,sans-Serif" font-size="10.00">GetNumFaces()</text>
<text text-anchor="start" x="343.5" y="-21.5" font-family="Helvetica,sans-Serif" font-size="10.00">+</text>
<text text-anchor="start" x="356.5" y="-21.5" font-family="Helvetica,sans-Serif" font-size="10.00">GetFace()</text>
<text text-anchor="start" x="343.5" y="-6.5" font-family="Helvetica,sans-Serif" font-size="10.00">+</text>
<text text-anchor="start" x="356.5" y="-6.5" font-family="Helvetica,sans-Serif" font-size="10.00">FaceIsOrientatedClockwise()</text>
<polygon fill="#666666" stroke="#666666" points="339.5,-76.5 339.5,-76.5 499.5,-76.5 499.5,-76.5 339.5,-76.5"/>
<polygon fill="#666666" stroke="#666666" points="339.5,-61.5 339.5,-61.5 499.5,-61.5 499.5,-61.5 339.5,-61.5"/>
<polygon fill="none" stroke="#666666" points="339.5,0 339.5,-105 499.5,-105 499.5,0 339.5,0"/>
</a>
</g>
</g>
<!-- Node2 -->
<g id="Node000002" class="node">
<title>Node2</title>
<g id="a_Node000002"><a xlink:href="classMutableElement_3_011_00_01SPACE__DIM_01_4.html" target="_top" xlink:title=" ">
<polygon fill="white" stroke="transparent" points="481,-352 358,-352 358,-142 481,-142 481,-352"/>
<text text-anchor="start" x="369.5" y="-340" font-family="Helvetica,sans-Serif" font-size="10.00">MutableElement&lt; 1,</text>
<text text-anchor="start" x="385" y="-329" font-family="Helvetica,sans-Serif" font-size="10.00"> SPACE_DIM &gt;</text>
<text text-anchor="start" x="418" y="-314" font-family="Helvetica,sans-Serif" font-size="10.00"> </text>
<text text-anchor="start" x="362.5" y="-299" font-family="Helvetica,sans-Serif" font-size="10.00">+</text>
<text text-anchor="start" x="375.5" y="-299" font-family="Helvetica,sans-Serif" font-size="10.00">MutableElement()</text>
<text text-anchor="start" x="362.5" y="-284" font-family="Helvetica,sans-Serif" font-size="10.00">+</text>
<text text-anchor="start" x="375.5" y="-284" font-family="Helvetica,sans-Serif" font-size="10.00">MutableElement()</text>
<text text-anchor="start" x="362.5" y="-269" font-family="Helvetica,sans-Serif" font-size="10.00">+</text>
<text text-anchor="start" x="375.5" y="-269" font-family="Helvetica,sans-Serif" font-size="10.00">~MutableElement()</text>
<text text-anchor="start" x="362.5" y="-254" font-family="Helvetica,sans-Serif" font-size="10.00">+</text>
<text text-anchor="start" x="375.5" y="-254" font-family="Helvetica,sans-Serif" font-size="10.00">UpdateNode()</text>
<text text-anchor="start" x="362.5" y="-239" font-family="Helvetica,sans-Serif" font-size="10.00">+</text>
<text text-anchor="start" x="375.5" y="-239" font-family="Helvetica,sans-Serif" font-size="10.00">RegisterWithNodes()</text>
<text text-anchor="start" x="362.5" y="-224" font-family="Helvetica,sans-Serif" font-size="10.00">+</text>
<text text-anchor="start" x="375.5" y="-224" font-family="Helvetica,sans-Serif" font-size="10.00">MarkAsDeleted()</text>
<text text-anchor="start" x="362.5" y="-209" font-family="Helvetica,sans-Serif" font-size="10.00">+</text>
<text text-anchor="start" x="375.5" y="-209" font-family="Helvetica,sans-Serif" font-size="10.00">ResetIndex()</text>
<text text-anchor="start" x="362.5" y="-194" font-family="Helvetica,sans-Serif" font-size="10.00">+</text>
<text text-anchor="start" x="375.5" y="-194" font-family="Helvetica,sans-Serif" font-size="10.00">DeleteNode()</text>
<text text-anchor="start" x="362.5" y="-179" font-family="Helvetica,sans-Serif" font-size="10.00">+</text>
<text text-anchor="start" x="375.5" y="-179" font-family="Helvetica,sans-Serif" font-size="10.00">AddNode()</text>
<text text-anchor="start" x="362.5" y="-164" font-family="Helvetica,sans-Serif" font-size="10.00">+</text>
<text text-anchor="start" x="375.5" y="-164" font-family="Helvetica,sans-Serif" font-size="10.00">GetEdge()</text>
<text text-anchor="start" x="375.5" y="-149" font-family="Helvetica,sans-Serif" font-size="10.00">and 12 more...</text>
<polygon fill="#666666" stroke="#666666" points="358.5,-324 358.5,-324 481.5,-324 481.5,-324 358.5,-324"/>
<polygon fill="#666666" stroke="#666666" points="358.5,-309 358.5,-309 481.5,-309 481.5,-309 358.5,-309"/>
<polygon fill="none" stroke="#666666" points="358,-142 358,-352 481,-352 481,-142 358,-142"/>
</a>
</g>
</g>
<!-- Node2&#45;&gt;Node1 -->
<g id="edge1_Node000001_Node000002" class="edge">
<title>Node2&#45;&gt;Node1</title>
<g id="a_edge1_Node000001_Node000002"><a xlink:title=" ">
<path fill="none" stroke="#63b8ff" d="M419.5,-131.75C419.5,-122.5 419.5,-113.49 419.5,-105.05"/>
<polygon fill="none" stroke="#63b8ff" points="416,-131.86 419.5,-141.86 423,-131.86 416,-131.86"/>
</a>
</g>
</g>
<!-- Node3 -->
<g id="Node000003" class="node">
<title>Node3</title>
<g id="a_Node000003"><a xlink:href="classAbstractElement.html" target="_top" xlink:title=" ">
<polygon fill="white" stroke="transparent" points="341.5,-624 177.5,-624 177.5,-399 341.5,-399 341.5,-624"/>
<text text-anchor="start" x="208.5" y="-611.5" font-family="Helvetica,sans-Serif" font-size="10.00">AbstractElement&lt; 1,</text>
<text text-anchor="start" x="224.5" y="-600.5" font-family="Helvetica,sans-Serif" font-size="10.00"> SPACE_DIM &gt;</text>
<text text-anchor="start" x="257.5" y="-585.5" font-family="Helvetica,sans-Serif" font-size="10.00"> </text>
<text text-anchor="start" x="181.5" y="-570.5" font-family="Helvetica,sans-Serif" font-size="10.00">+</text>
<text text-anchor="start" x="194.5" y="-570.5" font-family="Helvetica,sans-Serif" font-size="10.00">AbstractElement()</text>
<text text-anchor="start" x="181.5" y="-555.5" font-family="Helvetica,sans-Serif" font-size="10.00">+</text>
<text text-anchor="start" x="194.5" y="-555.5" font-family="Helvetica,sans-Serif" font-size="10.00">AbstractElement()</text>
<text text-anchor="start" x="181.5" y="-540.5" font-family="Helvetica,sans-Serif" font-size="10.00">+</text>
<text text-anchor="start" x="194.5" y="-540.5" font-family="Helvetica,sans-Serif" font-size="10.00">~AbstractElement()</text>
<text text-anchor="start" x="181.5" y="-525.5" font-family="Helvetica,sans-Serif" font-size="10.00">+</text>
<text text-anchor="start" x="194.5" y="-525.5" font-family="Helvetica,sans-Serif" font-size="10.00">UpdateNode()</text>
<text text-anchor="start" x="181.5" y="-510.5" font-family="Helvetica,sans-Serif" font-size="10.00">+</text>
<text text-anchor="start" x="194.5" y="-510.5" font-family="Helvetica,sans-Serif" font-size="10.00">ReplaceNode()</text>
<text text-anchor="start" x="181.5" y="-495.5" font-family="Helvetica,sans-Serif" font-size="10.00">+</text>
<text text-anchor="start" x="194.5" y="-495.5" font-family="Helvetica,sans-Serif" font-size="10.00">MarkAsDeleted()</text>
<text text-anchor="start" x="181.5" y="-480.5" font-family="Helvetica,sans-Serif" font-size="10.00">+</text>
<text text-anchor="start" x="194.5" y="-480.5" font-family="Helvetica,sans-Serif" font-size="10.00">RegisterWithNodes()</text>
<text text-anchor="start" x="181.5" y="-465.5" font-family="Helvetica,sans-Serif" font-size="10.00">+</text>
<text text-anchor="start" x="194.5" y="-465.5" font-family="Helvetica,sans-Serif" font-size="10.00">GetNodeLocation()</text>
<text text-anchor="start" x="181.5" y="-450.5" font-family="Helvetica,sans-Serif" font-size="10.00">+</text>
<text text-anchor="start" x="194.5" y="-450.5" font-family="Helvetica,sans-Serif" font-size="10.00">GetNodeLocation()</text>
<text text-anchor="start" x="181.5" y="-435.5" font-family="Helvetica,sans-Serif" font-size="10.00">+</text>
<text text-anchor="start" x="194.5" y="-435.5" font-family="Helvetica,sans-Serif" font-size="10.00">GetNodeGlobalIndex()</text>
<text text-anchor="start" x="194.5" y="-420.5" font-family="Helvetica,sans-Serif" font-size="10.00">and 14 more...</text>
<text text-anchor="start" x="181.5" y="-405.5" font-family="Helvetica,sans-Serif" font-size="10.00">#</text>
<text text-anchor="start" x="194.5" y="-405.5" font-family="Helvetica,sans-Serif" font-size="10.00">ConstructElementAttributes()</text>
<polygon fill="#666666" stroke="#666666" points="177.5,-595.5 177.5,-595.5 341.5,-595.5 341.5,-595.5 177.5,-595.5"/>
<polygon fill="#666666" stroke="#666666" points="177.5,-580.5 177.5,-580.5 341.5,-580.5 341.5,-580.5 177.5,-580.5"/>
<polygon fill="none" stroke="#666666" points="177.5,-399 177.5,-624 341.5,-624 341.5,-399 177.5,-399"/>
</a>
</g>
</g>
<!-- Node3&#45;&gt;Node2 -->
<g id="edge2_Node000002_Node000003" class="edge">
<title>Node3&#45;&gt;Node2</title>
<g id="a_edge2_Node000002_Node000003"><a xlink:title=" ">
<path fill="none" stroke="#63b8ff" d="M333.02,-389.89C341.31,-376.28 349.69,-362.53 357.81,-349.21"/>
<polygon fill="none" stroke="#63b8ff" points="329.8,-388.44 327.59,-398.8 335.78,-392.08 329.8,-388.44"/>
</a>
</g>
</g>
<!-- Node4 -->
<g id="Node000004" class="node">
<title>Node4</title>
<g id="a_Node000004"><a xlink:title=" ">
<polygon fill="white" stroke="transparent" points="203.5,-1019.5 83.5,-1019.5 83.5,-959.5 203.5,-959.5 203.5,-1019.5"/>
<text text-anchor="start" x="88.5" y="-1007.5" font-family="Helvetica,sans-Serif" font-size="10.00">vector&lt; Node&lt; SPACE</text>
<text text-anchor="start" x="115.5" y="-996.5" font-family="Helvetica,sans-Serif" font-size="10.00">_DIM &gt; * &gt;</text>
<text text-anchor="start" x="141.5" y="-981.5" font-family="Helvetica,sans-Serif" font-size="10.00"> </text>
<text text-anchor="start" x="141.5" y="-966.5" font-family="Helvetica,sans-Serif" font-size="10.00"> </text>
<polygon fill="#bfbfbf" stroke="#bfbfbf" points="83.5,-991.5 83.5,-991.5 203.5,-991.5 203.5,-991.5 83.5,-991.5"/>
<polygon fill="#bfbfbf" stroke="#bfbfbf" points="83.5,-976.5 83.5,-976.5 203.5,-976.5 203.5,-976.5 83.5,-976.5"/>
<polygon fill="none" stroke="#bfbfbf" points="83.5,-959.5 83.5,-1019.5 203.5,-1019.5 203.5,-959.5 83.5,-959.5"/>
</a>
</g>
</g>
<!-- Node4&#45;&gt;Node3 -->
<g id="edge3_Node000003_Node000004" class="edge">
<title>Node4&#45;&gt;Node3</title>
<g id="a_edge3_Node000003_Node000004"><a xlink:title=" ">
<path fill="none" stroke="#63b8ff" d="M132.74,-959.28C113.35,-901.86 77.99,-771.17 116.5,-671 127.94,-641.25 147.83,-613.59 169.21,-589.99"/>
<polygon fill="none" stroke="#63b8ff" points="169.28,-589.92 170.44,-582.8 177.46,-581.14 176.29,-588.26 169.28,-589.92"/>
</a>
</g>
<text text-anchor="middle" x="142.5" y="-781" font-family="Helvetica,sans-Serif" font-size="10.00" fill="grey"> #mNodes</text>
</g>
<!-- Node8 -->
<g id="Node000008" class="node">
<title>Node8</title>
<g id="a_Node000008"><a xlink:href="classAbstractElement.html" target="_top" xlink:title=" ">
<polygon fill="white" stroke="transparent" points="341.5,-896 177.5,-896 177.5,-671 341.5,-671 341.5,-896"/>
<text text-anchor="start" x="190" y="-883.5" font-family="Helvetica,sans-Serif" font-size="10.00">AbstractElement&lt; ELEMENT</text>
<text text-anchor="start" x="210.5" y="-872.5" font-family="Helvetica,sans-Serif" font-size="10.00">_DIM, SPACE_DIM &gt;</text>
<text text-anchor="start" x="257.5" y="-857.5" font-family="Helvetica,sans-Serif" font-size="10.00"> </text>
<text text-anchor="start" x="181.5" y="-842.5" font-family="Helvetica,sans-Serif" font-size="10.00">+</text>
<text text-anchor="start" x="194.5" y="-842.5" font-family="Helvetica,sans-Serif" font-size="10.00">AbstractElement()</text>
<text text-anchor="start" x="181.5" y="-827.5" font-family="Helvetica,sans-Serif" font-size="10.00">+</text>
<text text-anchor="start" x="194.5" y="-827.5" font-family="Helvetica,sans-Serif" font-size="10.00">AbstractElement()</text>
<text text-anchor="start" x="181.5" y="-812.5" font-family="Helvetica,sans-Serif" font-size="10.00">+</text>
<text text-anchor="start" x="194.5" y="-812.5" font-family="Helvetica,sans-Serif" font-size="10.00">~AbstractElement()</text>
<text text-anchor="start" x="181.5" y="-797.5" font-family="Helvetica,sans-Serif" font-size="10.00">+</text>
<text text-anchor="start" x="194.5" y="-797.5" font-family="Helvetica,sans-Serif" font-size="10.00">UpdateNode()</text>
<text text-anchor="start" x="181.5" y="-782.5" font-family="Helvetica,sans-Serif" font-size="10.00">+</text>
<text text-anchor="start" x="194.5" y="-782.5" font-family="Helvetica,sans-Serif" font-size="10.00">ReplaceNode()</text>
<text text-anchor="start" x="181.5" y="-767.5" font-family="Helvetica,sans-Serif" font-size="10.00">+</text>
<text text-anchor="start" x="194.5" y="-767.5" font-family="Helvetica,sans-Serif" font-size="10.00">MarkAsDeleted()</text>
<text text-anchor="start" x="181.5" y="-752.5" font-family="Helvetica,sans-Serif" font-size="10.00">+</text>
<text text-anchor="start" x="194.5" y="-752.5" font-family="Helvetica,sans-Serif" font-size="10.00">RegisterWithNodes()</text>
<text text-anchor="start" x="181.5" y="-737.5" font-family="Helvetica,sans-Serif" font-size="10.00">+</text>
<text text-anchor="start" x="194.5" y="-737.5" font-family="Helvetica,sans-Serif" font-size="10.00">GetNodeLocation()</text>
<text text-anchor="start" x="181.5" y="-722.5" font-family="Helvetica,sans-Serif" font-size="10.00">+</text>
<text text-anchor="start" x="194.5" y="-722.5" font-family="Helvetica,sans-Serif" font-size="10.00">GetNodeLocation()</text>
<text text-anchor="start" x="181.5" y="-707.5" font-family="Helvetica,sans-Serif" font-size="10.00">+</text>
<text text-anchor="start" x="194.5" y="-707.5" font-family="Helvetica,sans-Serif" font-size="10.00">GetNodeGlobalIndex()</text>
<text text-anchor="start" x="194.5" y="-692.5" font-family="Helvetica,sans-Serif" font-size="10.00">and 14 more...</text>
<text text-anchor="start" x="181.5" y="-677.5" font-family="Helvetica,sans-Serif" font-size="10.00">#</text>
<text text-anchor="start" x="194.5" y="-677.5" font-family="Helvetica,sans-Serif" font-size="10.00">ConstructElementAttributes()</text>
<polygon fill="#666666" stroke="#666666" points="177.5,-867.5 177.5,-867.5 341.5,-867.5 341.5,-867.5 177.5,-867.5"/>
<polygon fill="#666666" stroke="#666666" points="177.5,-852.5 177.5,-852.5 341.5,-852.5 341.5,-852.5 177.5,-852.5"/>
<polygon fill="none" stroke="#666666" points="177.5,-671 177.5,-896 341.5,-896 341.5,-671 177.5,-671"/>
</a>
</g>
</g>
<!-- Node4&#45;&gt;Node8 -->
<g id="edge8_Node000008_Node000004" class="edge">
<title>Node4&#45;&gt;Node8</title>
<g id="a_edge8_Node000008_Node000004"><a xlink:title=" ">
<path fill="none" stroke="#63b8ff" d="M158.82,-959.35C166.17,-945.54 175.16,-928.85 183.5,-914 184.82,-911.65 186.16,-909.27 187.52,-906.88"/>
<polygon fill="none" stroke="#63b8ff" points="187.6,-906.74 187.09,-899.54 193.53,-896.3 194.04,-903.5 187.6,-906.74"/>
</a>
</g>
<text text-anchor="middle" x="209.5" y="-922.5" font-family="Helvetica,sans-Serif" font-size="10.00" fill="grey"> #mNodes</text>
</g>
<!-- Node5 -->
<g id="Node000005" class="node">
<title>Node5</title>
<g id="a_Node000005"><a xlink:href="classunsigned.html" target="_top" xlink:title=" ">
<polygon fill="white" stroke="transparent" points="55,-1014 0,-1014 0,-965 55,-965 55,-1014"/>
<text text-anchor="start" x="5.5" y="-1001.5" font-family="Helvetica,sans-Serif" font-size="10.00">unsigned</text>
<text text-anchor="start" x="26" y="-986.5" font-family="Helvetica,sans-Serif" font-size="10.00"> </text>
<text text-anchor="start" x="26" y="-971.5" font-family="Helvetica,sans-Serif" font-size="10.00"> </text>
<polygon fill="#bfbfbf" stroke="#bfbfbf" points="0.5,-996.5 0.5,-996.5 55.5,-996.5 55.5,-996.5 0.5,-996.5"/>
<polygon fill="#bfbfbf" stroke="#bfbfbf" points="0.5,-981.5 0.5,-981.5 55.5,-981.5 55.5,-981.5 0.5,-981.5"/>
<polygon fill="none" stroke="#bfbfbf" points="0,-965 0,-1014 55,-1014 55,-965 0,-965"/>
</a>
</g>
</g>
<!-- Node5&#45;&gt;Node3 -->
<g id="edge4_Node000003_Node000005" class="edge">
<title>Node5&#45;&gt;Node3</title>
<g id="a_edge4_Node000003_Node000005"><a xlink:title=" ">
<path fill="none" stroke="#63b8ff" d="M22.52,-964.77C12.21,-909.38 -6.4,-768.89 46.5,-671 73.08,-621.82 122.27,-583.66 166.7,-557.13"/>
<polygon fill="none" stroke="#63b8ff" points="166.91,-557.01 170.08,-550.53 177.28,-550.97 174.1,-557.44 166.91,-557.01"/>
</a>
</g>
<text text-anchor="middle" x="71" y="-781" font-family="Helvetica,sans-Serif" font-size="10.00" fill="grey"> #mIndex</text>
</g>
<!-- Node5&#45;&gt;Node8 -->
<g id="edge9_Node000008_Node000005" class="edge">
<title>Node5&#45;&gt;Node8</title>
<g id="a_edge9_Node000008_Node000005"><a xlink:title=" ">
<path fill="none" stroke="#63b8ff" d="M52.56,-964.82C70.27,-948.97 95.09,-928.45 119.5,-914 137.68,-903.24 146.35,-908.35 163.5,-896 164.96,-894.95 166.41,-893.87 167.85,-892.77"/>
<polygon fill="none" stroke="#63b8ff" points="167.9,-892.73 170.05,-885.85 177.23,-885.18 175.08,-892.07 167.9,-892.73"/>
</a>
</g>
<text text-anchor="middle" x="144" y="-922.5" font-family="Helvetica,sans-Serif" font-size="10.00" fill="grey"> #mIndex</text>
</g>
<!-- Node6 -->
<g id="Node000006" class="node">
<title>Node6</title>
<g id="a_Node000006"><a xlink:href="classbool.html" target="_top" xlink:title=" ">
<polygon fill="white" stroke="transparent" points="471.5,-1014 439.5,-1014 439.5,-965 471.5,-965 471.5,-1014"/>
<text text-anchor="start" x="444.5" y="-1001.5" font-family="Helvetica,sans-Serif" font-size="10.00">bool</text>
<text text-anchor="start" x="453.5" y="-986.5" font-family="Helvetica,sans-Serif" font-size="10.00"> </text>
<text text-anchor="start" x="453.5" y="-971.5" font-family="Helvetica,sans-Serif" font-size="10.00"> </text>
<polygon fill="#bfbfbf" stroke="#bfbfbf" points="439.5,-996.5 439.5,-996.5 471.5,-996.5 471.5,-996.5 439.5,-996.5"/>
<polygon fill="#bfbfbf" stroke="#bfbfbf" points="439.5,-981.5 439.5,-981.5 471.5,-981.5 471.5,-981.5 439.5,-981.5"/>
<polygon fill="none" stroke="#bfbfbf" points="439.5,-965 439.5,-1014 471.5,-1014 471.5,-965 439.5,-965"/>
</a>
</g>
</g>
<!-- Node6&#45;&gt;Node3 -->
<g id="edge5_Node000003_Node000006" class="edge">
<title>Node6&#45;&gt;Node3</title>
<g id="a_edge5_Node000003_Node000006"><a xlink:title=" ">
<path fill="none" stroke="#63b8ff" d="M468.94,-964.61C498.97,-907.67 563.89,-761.93 497.5,-671 459.19,-618.52 412.43,-657.94 351.9,-623.92"/>
<polygon fill="none" stroke="#63b8ff" points="351.84,-623.88 344.63,-624.09 341.66,-617.52 348.87,-617.31 351.84,-623.88"/>
</a>
</g>
<text text-anchor="middle" x="560.5" y="-786.5" font-family="Helvetica,sans-Serif" font-size="10.00" fill="grey"> #mIsDeleted</text>
<text text-anchor="middle" x="560.5" y="-775.5" font-family="Helvetica,sans-Serif" font-size="10.00" fill="grey">#mOwnership</text>
</g>
<!-- Node6&#45;&gt;Node8 -->
<g id="edge10_Node000008_Node000006" class="edge">
<title>Node6&#45;&gt;Node8</title>
<g id="a_edge10_Node000008_Node000006"><a xlink:title=" ">
<path fill="none" stroke="#63b8ff" d="M439.3,-973.7C413,-949.65 363.18,-903.96 355.5,-896 353.63,-894.06 351.74,-892.09 349.86,-890.09"/>
<polygon fill="none" stroke="#63b8ff" points="349.75,-889.98 342.73,-888.33 341.56,-881.21 348.58,-882.87 349.75,-889.98"/>
</a>
</g>
<text text-anchor="middle" x="433.5" y="-928" font-family="Helvetica,sans-Serif" font-size="10.00" fill="grey"> #mIsDeleted</text>
<text text-anchor="middle" x="433.5" y="-917" font-family="Helvetica,sans-Serif" font-size="10.00" fill="grey">#mOwnership</text>
</g>
<!-- Node7 -->
<g id="Node000007" class="node">
<title>Node7</title>
<g id="a_Node000007"><a xlink:title=" ">
<polygon fill="white" stroke="transparent" points="409,-1025 288,-1025 288,-954 409,-954 409,-1025"/>
<text text-anchor="start" x="293.5" y="-1012.5" font-family="Helvetica,sans-Serif" font-size="10.00">ElementAttributes&lt;</text>
<text text-anchor="start" x="293.5" y="-1001.5" font-family="Helvetica,sans-Serif" font-size="10.00"> ELEMENT_DIM, SPACE</text>
<text text-anchor="start" x="326.5" y="-990.5" font-family="Helvetica,sans-Serif" font-size="10.00">_DIM &gt; *</text>
<text text-anchor="start" x="347" y="-975.5" font-family="Helvetica,sans-Serif" font-size="10.00"> </text>
<text text-anchor="start" x="347" y="-960.5" font-family="Helvetica,sans-Serif" font-size="10.00"> </text>
<polygon fill="#bfbfbf" stroke="#bfbfbf" points="288.5,-985.5 288.5,-985.5 409.5,-985.5 409.5,-985.5 288.5,-985.5"/>
<polygon fill="#bfbfbf" stroke="#bfbfbf" points="288.5,-970.5 288.5,-970.5 409.5,-970.5 409.5,-970.5 288.5,-970.5"/>
<polygon fill="none" stroke="#bfbfbf" points="288,-954 288,-1025 409,-1025 409,-954 288,-954"/>
</a>
</g>
</g>
<!-- Node7&#45;&gt;Node3 -->
<g id="edge6_Node000003_Node000007" class="edge">
<title>Node7&#45;&gt;Node3</title>
<g id="a_edge6_Node000003_Node000007"><a xlink:title=" ">
<path fill="none" stroke="#63b8ff" d="M359.88,-953.77C361.38,-947.9 362.68,-941.82 363.5,-936 364.86,-926.32 363.61,-923.78 363.5,-914 362.17,-793.09 397.25,-756.2 357.5,-642 354.76,-634.13 351.35,-626.35 347.45,-618.74"/>
<polygon fill="none" stroke="#63b8ff" points="347.39,-618.64 341.01,-615.29 341.64,-608.11 348.03,-611.46 347.39,-618.64"/>
</a>
</g>
<text text-anchor="middle" x="435.5" y="-781" font-family="Helvetica,sans-Serif" font-size="10.00" fill="grey"> #mpElementAttributes</text>
</g>
<!-- Node7&#45;&gt;Node8 -->
<g id="edge11_Node000008_Node000007" class="edge">
<title>Node7&#45;&gt;Node8</title>
<g id="a_edge11_Node000008_Node000007"><a xlink:title=" ">
<path fill="none" stroke="#63b8ff" d="M287.82,-970.08C271.96,-962.2 256.73,-951.2 247.5,-936 242.29,-927.42 238.9,-918.05 236.89,-908.31"/>
<polygon fill="none" stroke="#63b8ff" points="236.86,-908.14 232.03,-902.79 235.1,-896.27 239.94,-901.61 236.86,-908.14"/>
</a>
</g>
<text text-anchor="middle" x="305.5" y="-922.5" font-family="Helvetica,sans-Serif" font-size="10.00" fill="grey"> #mpElementAttributes</text>
</g>
<!-- Node8&#45;&gt;Node3 -->
<g id="edge7_Node000003_Node000008" class="edge">
<title>Node8&#45;&gt;Node3</title>
<g id="a_edge7_Node000003_Node000008"><a xlink:title=" ">
<path fill="none" stroke="orange" d="M259.5,-660.59C259.5,-648.46 259.5,-636.2 259.5,-624.18"/>
<polygon fill="orange" stroke="orange" points="256,-660.73 259.5,-670.73 263,-660.73 256,-660.73"/>
</a>
</g>
<text text-anchor="middle" x="306.5" y="-645" font-family="Helvetica,sans-Serif" font-size="10.00" fill="grey"> &lt; 1, SPACE_DIM &gt;</text>
</g>
<!-- Node9 -->
<g id="Node000009" class="node">
<title>Node9</title>
<g id="a_Node000009"><a xlink:title=" ">
<polygon fill="white" stroke="transparent" points="479,-541.5 360,-541.5 360,-481.5 479,-481.5 479,-541.5"/>
<text text-anchor="start" x="365.5" y="-529.5" font-family="Helvetica,sans-Serif" font-size="10.00">vector&lt; Edge&lt; SPACE</text>
<text text-anchor="start" x="392" y="-518.5" font-family="Helvetica,sans-Serif" font-size="10.00">_DIM &gt; * &gt;</text>
<text text-anchor="start" x="418" y="-503.5" font-family="Helvetica,sans-Serif" font-size="10.00"> </text>
<text text-anchor="start" x="418" y="-488.5" font-family="Helvetica,sans-Serif" font-size="10.00"> </text>
<polygon fill="#bfbfbf" stroke="#bfbfbf" points="360.5,-513.5 360.5,-513.5 479.5,-513.5 479.5,-513.5 360.5,-513.5"/>
<polygon fill="#bfbfbf" stroke="#bfbfbf" points="360.5,-498.5 360.5,-498.5 479.5,-498.5 479.5,-498.5 360.5,-498.5"/>
<polygon fill="none" stroke="#bfbfbf" points="360,-481.5 360,-541.5 479,-541.5 479,-481.5 360,-481.5"/>
</a>
</g>
</g>
<!-- Node9&#45;&gt;Node2 -->
<g id="edge12_Node000002_Node000009" class="edge">
<title>Node9&#45;&gt;Node2</title>
<g id="a_edge12_Node000002_Node000009"><a xlink:title=" ">
<path fill="none" stroke="#63b8ff" d="M419.5,-481.4C419.5,-452.85 419.5,-407.42 419.5,-364.2"/>
<polygon fill="none" stroke="#63b8ff" points="419.5,-364.08 415.5,-358.08 419.5,-352.08 423.5,-358.08 419.5,-364.08"/>
</a>
</g>
<text text-anchor="middle" x="445" y="-373" font-family="Helvetica,sans-Serif" font-size="10.00" fill="grey"> #mEdges</text>
</g>
<!-- Node10 -->
<g id="Node000010" class="node">
<title>Node10</title>
<g id="a_Node000010"><a xlink:href="classEdgeHelper_3_01SPACE__DIM_01_4.html" target="_top" xlink:title=" ">
<polygon fill="white" stroke="transparent" points="642,-536 497,-536 497,-487 642,-487 642,-536"/>
<text text-anchor="start" x="502.5" y="-523.5" font-family="Helvetica,sans-Serif" font-size="10.00">EdgeHelper&lt; SPACE_DIM &gt;</text>
<text text-anchor="start" x="568" y="-508.5" font-family="Helvetica,sans-Serif" font-size="10.00"> </text>
<text text-anchor="start" x="568" y="-493.5" font-family="Helvetica,sans-Serif" font-size="10.00"> </text>
<polygon fill="#bfbfbf" stroke="#bfbfbf" points="497.5,-518.5 497.5,-518.5 642.5,-518.5 642.5,-518.5 497.5,-518.5"/>
<polygon fill="#bfbfbf" stroke="#bfbfbf" points="497.5,-503.5 497.5,-503.5 642.5,-503.5 642.5,-503.5 497.5,-503.5"/>
<polygon fill="none" stroke="#bfbfbf" points="497,-487 497,-536 642,-536 642,-487 497,-487"/>
</a>
</g>
</g>
<!-- Node10&#45;&gt;Node2 -->
<g id="edge13_Node000002_Node000010" class="edge">
<title>Node10&#45;&gt;Node2</title>
<g id="a_edge13_Node000002_Node000010"><a xlink:title=" ">
<path fill="none" stroke="#63b8ff" d="M555.92,-486.74C539.77,-458.47 511.62,-409.22 485.08,-362.77"/>
<polygon fill="none" stroke="#63b8ff" points="485.05,-362.71 478.6,-359.48 479.09,-352.29 485.54,-355.51 485.05,-362.71"/>
</a>
</g>
<text text-anchor="middle" x="533.5" y="-373" font-family="Helvetica,sans-Serif" font-size="10.00" fill="grey"> #mEdgeHelper</text>
</g>
</g>
</svg>
