<?xml version="1.0" encoding="UTF-8" standalone="no"?>
<!DOCTYPE svg PUBLIC "-//W3C//DTD SVG 1.1//EN"
 "http://www.w3.org/Graphics/SVG/1.1/DTD/svg11.dtd">
<!-- Generated by graphviz version 2.43.0 (0)
 -->
<!-- Title: QuadraturePointsGroup&lt; DIM &gt; Pages: 1 -->
<svg width="325pt" height="261pt"
 viewBox="0.00 0.00 324.50 261.00" xmlns="http://www.w3.org/2000/svg" xmlns:xlink="http://www.w3.org/1999/xlink">
<g id="graph0" class="graph" transform="scale(1 1) rotate(0) translate(4 257)">
<title>QuadraturePointsGroup&lt; DIM &gt;</title>
<!-- Node1 -->
<g id="Node000001" class="node">
<title>Node1</title>
<g id="a_Node000001"><a xlink:title=" ">
<polygon fill="#999999" stroke="transparent" points="219,-135 38,-135 38,0 219,0 219,-135"/>
<text text-anchor="start" x="71.5" y="-122.5" font-family="Helvetica,sans-Serif" font-size="10.00">QuadraturePointsGroup</text>
<text text-anchor="start" x="107.5" y="-111.5" font-family="Helvetica,sans-Serif" font-size="10.00">&lt; DIM &gt;</text>
<text text-anchor="start" x="127" y="-96.5" font-family="Helvetica,sans-Serif" font-size="10.00"> </text>
<text text-anchor="start" x="42.5" y="-81.5" font-family="Helvetica,sans-Serif" font-size="10.00">+</text>
<text text-anchor="start" x="55.5" y="-81.5" font-family="Helvetica,sans-Serif" font-size="10.00">QuadraturePointsGroup()</text>
<text text-anchor="start" x="42.5" y="-66.5" font-family="Helvetica,sans-Serif" font-size="10.00">+</text>
<text text-anchor="start" x="55.5" y="-66.5" font-family="Helvetica,sans-Serif" font-size="10.00">rGet()</text>
<text text-anchor="start" x="42.5" y="-51.5" font-family="Helvetica,sans-Serif" font-size="10.00">+</text>
<text text-anchor="start" x="55.5" y="-51.5" font-family="Helvetica,sans-Serif" font-size="10.00">rGet()</text>
<text text-anchor="start" x="42.5" y="-36.5" font-family="Helvetica,sans-Serif" font-size="10.00">+</text>
<text text-anchor="start" x="55.5" y="-36.5" font-family="Helvetica,sans-Serif" font-size="10.00">GetNumElements()</text>
<text text-anchor="start" x="42.5" y="-21.5" font-family="Helvetica,sans-Serif" font-size="10.00">+</text>
<text text-anchor="start" x="55.5" y="-21.5" font-family="Helvetica,sans-Serif" font-size="10.00">GetNumQuadPointsPerElement()</text>
<text text-anchor="start" x="42.5" y="-6.5" font-family="Helvetica,sans-Serif" font-size="10.00">+</text>
<text text-anchor="start" x="55.5" y="-6.5" font-family="Helvetica,sans-Serif" font-size="10.00">Size()</text>
<polygon fill="#666666" stroke="#666666" points="38.5,-106.5 38.5,-106.5 219.5,-106.5 219.5,-106.5 38.5,-106.5"/>
<polygon fill="#666666" stroke="#666666" points="38.5,-91.5 38.5,-91.5 219.5,-91.5 219.5,-91.5 38.5,-91.5"/>
<polygon fill="none" stroke="#666666" points="38,0 38,-135 219,-135 219,0 38,0"/>
</a>
</g>
</g>
<!-- Node2 -->
<g id="Node000002" class="node">
<title>Node2</title>
<g id="a_Node000002"><a xlink:title=" ">
<polygon fill="white" stroke="transparent" points="141,-253 0,-253 0,-193 141,-193 141,-253"/>
<text text-anchor="start" x="5.5" y="-241" font-family="Helvetica,sans-Serif" font-size="10.00">vector&lt; c_vector&lt; double,</text>
<text text-anchor="start" x="48" y="-230" font-family="Helvetica,sans-Serif" font-size="10.00"> DIM &gt; &gt;</text>
<text text-anchor="start" x="69" y="-215" font-family="Helvetica,sans-Serif" font-size="10.00"> </text>
<text text-anchor="start" x="69" y="-200" font-family="Helvetica,sans-Serif" font-size="10.00"> </text>
<polygon fill="#bfbfbf" stroke="#bfbfbf" points="0.5,-225 0.5,-225 141.5,-225 141.5,-225 0.5,-225"/>
<polygon fill="#bfbfbf" stroke="#bfbfbf" points="0.5,-210 0.5,-210 141.5,-210 141.5,-210 0.5,-210"/>
<polygon fill="none" stroke="#bfbfbf" points="0,-193 0,-253 141,-253 141,-193 0,-193"/>
</a>
</g>
</g>
<!-- Node2&#45;&gt;Node1 -->
<g id="edge1_Node000001_Node000002" class="edge">
<title>Node2&#45;&gt;Node1</title>
<g id="a_edge1_Node000001_Node000002"><a xlink:title=" ">
<path fill="none" stroke="#63b8ff" d="M81.55,-192.77C86.57,-179.48 92.77,-163.06 99.01,-146.56"/>
<polygon fill="none" stroke="#63b8ff" points="99.07,-146.39 97.45,-139.36 103.31,-135.16 104.93,-142.19 99.07,-146.39"/>
</a>
</g>
<text text-anchor="middle" x="111" y="-161.5" font-family="Helvetica,sans-Serif" font-size="10.00" fill="grey"> &#45;data</text>
</g>
<!-- Node3 -->
<g id="Node000003" class="node">
<title>Node3</title>
<g id="a_Node000003"><a xlink:href="classunsigned.html" target="_top" xlink:title=" ">
<polygon fill="white" stroke="transparent" points="214,-247.5 159,-247.5 159,-198.5 214,-198.5 214,-247.5"/>
<text text-anchor="start" x="164.5" y="-235" font-family="Helvetica,sans-Serif" font-size="10.00">unsigned</text>
<text text-anchor="start" x="185" y="-220" font-family="Helvetica,sans-Serif" font-size="10.00"> </text>
<text text-anchor="start" x="185" y="-205" font-family="Helvetica,sans-Serif" font-size="10.00"> </text>
<polygon fill="#bfbfbf" stroke="#bfbfbf" points="159.5,-230 159.5,-230 214.5,-230 214.5,-230 159.5,-230"/>
<polygon fill="#bfbfbf" stroke="#bfbfbf" points="159.5,-215 159.5,-215 214.5,-215 214.5,-215 159.5,-215"/>
<polygon fill="none" stroke="#bfbfbf" points="159,-198.5 159,-247.5 214,-247.5 214,-198.5 159,-198.5"/>
</a>
</g>
</g>
<!-- Node3&#45;&gt;Node1 -->
<g id="edge2_Node000001_Node000003" class="edge">
<title>Node3&#45;&gt;Node1</title>
<g id="a_edge2_Node000001_Node000003"><a xlink:title=" ">
<path fill="none" stroke="#63b8ff" d="M177.56,-198.35C172.25,-184.29 165.17,-165.56 158.05,-146.71"/>
<polygon fill="none" stroke="#63b8ff" points="157.99,-146.54 152.13,-142.34 153.75,-135.32 159.61,-139.52 157.99,-146.54"/>
</a>
</g>
<text text-anchor="middle" x="242" y="-167" font-family="Helvetica,sans-Serif" font-size="10.00" fill="grey"> &#45;mNumElements</text>
<text text-anchor="middle" x="242" y="-156" font-family="Helvetica,sans-Serif" font-size="10.00" fill="grey">&#45;mNumQuadPointsPerElement</text>
</g>
</g>
</svg>
