<?xml version="1.0" encoding="UTF-8" standalone="no"?>
<!DOCTYPE svg PUBLIC "-//W3C//DTD SVG 1.1//EN"
 "http://www.w3.org/Graphics/SVG/1.1/DTD/svg11.dtd">
<!-- Generated by graphviz version 2.43.0 (0)
 -->
<!-- Title: Node&lt; SPACE_DIM &gt; Pages: 1 -->
<svg width="650pt" height="492pt"
 viewBox="0.00 0.00 649.50 492.00" xmlns="http://www.w3.org/2000/svg" xmlns:xlink="http://www.w3.org/1999/xlink">
<g id="graph0" class="graph" transform="scale(1 1) rotate(0) translate(4 488)">
<title>Node&lt; SPACE_DIM &gt;</title>
<!-- Node1 -->
<g id="Node000001" class="node">
<title>Node1</title>
<g id="a_Node000001"><a xlink:title=" ">
<polygon fill="#999999" stroke="transparent" points="350,-259 201,-259 201,0 350,0 350,-259"/>
<text text-anchor="start" x="224" y="-246.5" font-family="Helvetica,sans-Serif" font-size="10.00">Node&lt; SPACE_DIM &gt;</text>
<text text-anchor="start" x="274" y="-231.5" font-family="Helvetica,sans-Serif" font-size="10.00"> </text>
<text text-anchor="start" x="205.5" y="-216.5" font-family="Helvetica,sans-Serif" font-size="10.00">+</text>
<text text-anchor="start" x="218.5" y="-216.5" font-family="Helvetica,sans-Serif" font-size="10.00">Node()</text>
<text text-anchor="start" x="205.5" y="-201.5" font-family="Helvetica,sans-Serif" font-size="10.00">+</text>
<text text-anchor="start" x="218.5" y="-201.5" font-family="Helvetica,sans-Serif" font-size="10.00">Node()</text>
<text text-anchor="start" x="205.5" y="-186.5" font-family="Helvetica,sans-Serif" font-size="10.00">+</text>
<text text-anchor="start" x="218.5" y="-186.5" font-family="Helvetica,sans-Serif" font-size="10.00">Node()</text>
<text text-anchor="start" x="205.5" y="-171.5" font-family="Helvetica,sans-Serif" font-size="10.00">+</text>
<text text-anchor="start" x="218.5" y="-171.5" font-family="Helvetica,sans-Serif" font-size="10.00">Node()</text>
<text text-anchor="start" x="205.5" y="-156.5" font-family="Helvetica,sans-Serif" font-size="10.00">+</text>
<text text-anchor="start" x="218.5" y="-156.5" font-family="Helvetica,sans-Serif" font-size="10.00">Node()</text>
<text text-anchor="start" x="205.5" y="-141.5" font-family="Helvetica,sans-Serif" font-size="10.00">+</text>
<text text-anchor="start" x="218.5" y="-141.5" font-family="Helvetica,sans-Serif" font-size="10.00">~Node()</text>
<text text-anchor="start" x="205.5" y="-126.5" font-family="Helvetica,sans-Serif" font-size="10.00">+</text>
<text text-anchor="start" x="218.5" y="-126.5" font-family="Helvetica,sans-Serif" font-size="10.00">SetPoint()</text>
<text text-anchor="start" x="205.5" y="-111.5" font-family="Helvetica,sans-Serif" font-size="10.00">+</text>
<text text-anchor="start" x="218.5" y="-111.5" font-family="Helvetica,sans-Serif" font-size="10.00">SetIndex()</text>
<text text-anchor="start" x="205.5" y="-96.5" font-family="Helvetica,sans-Serif" font-size="10.00">+</text>
<text text-anchor="start" x="218.5" y="-96.5" font-family="Helvetica,sans-Serif" font-size="10.00">AddNodeAttribute()</text>
<text text-anchor="start" x="205.5" y="-81.5" font-family="Helvetica,sans-Serif" font-size="10.00">+</text>
<text text-anchor="start" x="218.5" y="-81.5" font-family="Helvetica,sans-Serif" font-size="10.00">SetAsBoundaryNode()</text>
<text text-anchor="start" x="218.5" y="-66.5" font-family="Helvetica,sans-Serif" font-size="10.00">and 40 more...</text>
<text text-anchor="start" x="208" y="-51.5" font-family="Helvetica,sans-Serif" font-size="10.00">&#45;</text>
<text text-anchor="start" x="218.5" y="-51.5" font-family="Helvetica,sans-Serif" font-size="10.00">serialize()</text>
<text text-anchor="start" x="208" y="-36.5" font-family="Helvetica,sans-Serif" font-size="10.00">&#45;</text>
<text text-anchor="start" x="218.5" y="-36.5" font-family="Helvetica,sans-Serif" font-size="10.00">CommonConstructor()</text>
<text text-anchor="start" x="208" y="-21.5" font-family="Helvetica,sans-Serif" font-size="10.00">&#45;</text>
<text text-anchor="start" x="218.5" y="-21.5" font-family="Helvetica,sans-Serif" font-size="10.00">ConstructNodeAttributes()</text>
<text text-anchor="start" x="208" y="-6.5" font-family="Helvetica,sans-Serif" font-size="10.00">&#45;</text>
<text text-anchor="start" x="218.5" y="-6.5" font-family="Helvetica,sans-Serif" font-size="10.00">CheckForNodeAttributes()</text>
<polygon fill="#666666" stroke="#666666" points="201.5,-241.5 201.5,-241.5 350.5,-241.5 350.5,-241.5 201.5,-241.5"/>
<polygon fill="#666666" stroke="#666666" points="201.5,-226.5 201.5,-226.5 350.5,-226.5 350.5,-226.5 201.5,-226.5"/>
<polygon fill="none" stroke="#666666" points="201,0 201,-259 350,-259 350,0 201,0"/>
</a>
</g>
</g>
<!-- Node2 -->
<g id="Node000002" class="node">
<title>Node2</title>
<g id="a_Node000002"><a xlink:href="classunsigned.html" target="_top" xlink:title=" ">
<polygon fill="white" stroke="transparent" points="55,-382.5 0,-382.5 0,-333.5 55,-333.5 55,-382.5"/>
<text text-anchor="start" x="5.5" y="-370" font-family="Helvetica,sans-Serif" font-size="10.00">unsigned</text>
<text text-anchor="start" x="26" y="-355" font-family="Helvetica,sans-Serif" font-size="10.00"> </text>
<text text-anchor="start" x="26" y="-340" font-family="Helvetica,sans-Serif" font-size="10.00"> </text>
<polygon fill="#bfbfbf" stroke="#bfbfbf" points="0.5,-365 0.5,-365 55.5,-365 55.5,-365 0.5,-365"/>
<polygon fill="#bfbfbf" stroke="#bfbfbf" points="0.5,-350 0.5,-350 55.5,-350 55.5,-350 0.5,-350"/>
<polygon fill="none" stroke="#bfbfbf" points="0,-333.5 0,-382.5 55,-382.5 55,-333.5 0,-333.5"/>
</a>
</g>
</g>
<!-- Node2&#45;&gt;Node1 -->
<g id="edge1_Node000001_Node000002" class="edge">
<title>Node2&#45;&gt;Node1</title>
<g id="a_edge1_Node000001_Node000002"><a xlink:title=" ">
<path fill="none" stroke="#63b8ff" d="M53.57,-333.19C86.18,-303.41 143.58,-250.98 191.84,-206.91"/>
<polygon fill="none" stroke="#63b8ff" points="191.88,-206.87 193.61,-199.87 200.74,-198.78 199,-205.78 191.88,-206.87"/>
</a>
</g>
<text text-anchor="middle" x="137.5" y="-291" font-family="Helvetica,sans-Serif" font-size="10.00" fill="grey"> &#45;mIndex</text>
</g>
<!-- Node3 -->
<g id="Node000003" class="node">
<title>Node3</title>
<g id="a_Node000003"><a xlink:title=" ">
<polygon fill="white" stroke="transparent" points="206,-388 73,-388 73,-328 206,-328 206,-388"/>
<text text-anchor="start" x="78.5" y="-376" font-family="Helvetica,sans-Serif" font-size="10.00">c_vector&lt; double, SPACE</text>
<text text-anchor="start" x="121.5" y="-365" font-family="Helvetica,sans-Serif" font-size="10.00">_DIM &gt;</text>
<text text-anchor="start" x="138" y="-350" font-family="Helvetica,sans-Serif" font-size="10.00"> </text>
<text text-anchor="start" x="138" y="-335" font-family="Helvetica,sans-Serif" font-size="10.00"> </text>
<polygon fill="#bfbfbf" stroke="#bfbfbf" points="73.5,-360 73.5,-360 206.5,-360 206.5,-360 73.5,-360"/>
<polygon fill="#bfbfbf" stroke="#bfbfbf" points="73.5,-345 73.5,-345 206.5,-345 206.5,-345 73.5,-345"/>
<polygon fill="none" stroke="#bfbfbf" points="73,-328 73,-388 206,-388 206,-328 73,-328"/>
</a>
</g>
</g>
<!-- Node3&#45;&gt;Node1 -->
<g id="edge2_Node000001_Node000003" class="edge">
<title>Node3&#45;&gt;Node1</title>
<g id="a_edge2_Node000001_Node000003"><a xlink:title=" ">
<path fill="none" stroke="#63b8ff" d="M157,-327.85C167.03,-311.15 180.42,-288.85 194.58,-265.26"/>
<polygon fill="none" stroke="#63b8ff" points="194.74,-265 194.4,-257.8 200.92,-254.72 201.26,-261.92 194.74,-265"/>
</a>
</g>
<text text-anchor="middle" x="215.5" y="-291" font-family="Helvetica,sans-Serif" font-size="10.00" fill="grey"> &#45;mLocation</text>
</g>
<!-- Node4 -->
<g id="Node000004" class="node">
<title>Node4</title>
<g id="a_Node000004"><a xlink:title=" ">
<polygon fill="white" stroke="transparent" points="165.5,-484 113.5,-484 113.5,-435 165.5,-435 165.5,-484"/>
<text text-anchor="start" x="118.5" y="-471.5" font-family="Helvetica,sans-Serif" font-size="10.00">c_vector</text>
<text text-anchor="start" x="137.5" y="-456.5" font-family="Helvetica,sans-Serif" font-size="10.00"> </text>
<text text-anchor="start" x="137.5" y="-441.5" font-family="Helvetica,sans-Serif" font-size="10.00"> </text>
<polygon fill="#bfbfbf" stroke="#bfbfbf" points="113.5,-466.5 113.5,-466.5 165.5,-466.5 165.5,-466.5 113.5,-466.5"/>
<polygon fill="#bfbfbf" stroke="#bfbfbf" points="113.5,-451.5 113.5,-451.5 165.5,-451.5 165.5,-451.5 113.5,-451.5"/>
<polygon fill="none" stroke="#bfbfbf" points="113.5,-435 113.5,-484 165.5,-484 165.5,-435 113.5,-435"/>
</a>
</g>
</g>
<!-- Node4&#45;&gt;Node3 -->
<g id="edge3_Node000003_Node000004" class="edge">
<title>Node4&#45;&gt;Node3</title>
<g id="a_edge3_Node000003_Node000004"><a xlink:title=" ">
<path fill="none" stroke="orange" d="M139.5,-424.87C139.5,-412.94 139.5,-399.62 139.5,-388.1"/>
<polygon fill="orange" stroke="orange" points="136,-424.92 139.5,-434.92 143,-424.92 136,-424.92"/>
</a>
</g>
<text text-anchor="middle" x="200" y="-409" font-family="Helvetica,sans-Serif" font-size="10.00" fill="grey"> &lt; double, SPACE_DIM &gt;</text>
</g>
<!-- Node5 -->
<g id="Node000005" class="node">
<title>Node5</title>
<g id="a_Node000005"><a xlink:title=" ">
<polygon fill="white" stroke="transparent" points="350.5,-388 224.5,-388 224.5,-328 350.5,-328 350.5,-388"/>
<text text-anchor="start" x="229.5" y="-376" font-family="Helvetica,sans-Serif" font-size="10.00">NodeAttributes&lt; SPACE</text>
<text text-anchor="start" x="265" y="-365" font-family="Helvetica,sans-Serif" font-size="10.00">_DIM &gt; *</text>
<text text-anchor="start" x="285.5" y="-350" font-family="Helvetica,sans-Serif" font-size="10.00"> </text>
<text text-anchor="start" x="285.5" y="-335" font-family="Helvetica,sans-Serif" font-size="10.00"> </text>
<polygon fill="#bfbfbf" stroke="#bfbfbf" points="224.5,-360 224.5,-360 350.5,-360 350.5,-360 224.5,-360"/>
<polygon fill="#bfbfbf" stroke="#bfbfbf" points="224.5,-345 224.5,-345 350.5,-345 350.5,-345 224.5,-345"/>
<polygon fill="none" stroke="#bfbfbf" points="224.5,-328 224.5,-388 350.5,-388 350.5,-328 224.5,-328"/>
</a>
</g>
</g>
<!-- Node5&#45;&gt;Node1 -->
<g id="edge4_Node000001_Node000005" class="edge">
<title>Node5&#45;&gt;Node1</title>
<g id="a_edge4_Node000001_Node000005"><a xlink:title=" ">
<path fill="none" stroke="#63b8ff" d="M279.61,-327.85C278.32,-321.98 277.19,-315.83 276.5,-310 275.01,-297.44 273.97,-284.36 273.28,-271.22"/>
<polygon fill="none" stroke="#63b8ff" points="273.27,-271.15 269.01,-265.34 272.73,-259.16 277,-264.98 273.27,-271.15"/>
</a>
</g>
<text text-anchor="middle" x="325" y="-291" font-family="Helvetica,sans-Serif" font-size="10.00" fill="grey"> &#45;mpNodeAttributes</text>
</g>
<!-- Node6 -->
<g id="Node000006" class="node">
<title>Node6</title>
<g id="a_Node000006"><a xlink:href="classbool.html" target="_top" xlink:title=" ">
<polygon fill="white" stroke="transparent" points="411.5,-382.5 379.5,-382.5 379.5,-333.5 411.5,-333.5 411.5,-382.5"/>
<text text-anchor="start" x="384.5" y="-370" font-family="Helvetica,sans-Serif" font-size="10.00">bool</text>
<text text-anchor="start" x="393.5" y="-355" font-family="Helvetica,sans-Serif" font-size="10.00"> </text>
<text text-anchor="start" x="393.5" y="-340" font-family="Helvetica,sans-Serif" font-size="10.00"> </text>
<polygon fill="#bfbfbf" stroke="#bfbfbf" points="379.5,-365 379.5,-365 411.5,-365 411.5,-365 379.5,-365"/>
<polygon fill="#bfbfbf" stroke="#bfbfbf" points="379.5,-350 379.5,-350 411.5,-350 411.5,-350 379.5,-350"/>
<polygon fill="none" stroke="#bfbfbf" points="379.5,-333.5 379.5,-382.5 411.5,-382.5 411.5,-333.5 379.5,-333.5"/>
</a>
</g>
</g>
<!-- Node6&#45;&gt;Node1 -->
<g id="edge5_Node000001_Node000006" class="edge">
<title>Node6&#45;&gt;Node1</title>
<g id="a_edge5_Node000001_Node000006"><a xlink:title=" ">
<path fill="none" stroke="#63b8ff" d="M391.06,-333.2C387.52,-316.91 381.77,-295.08 373.5,-277 368.44,-265.93 362.58,-254.76 356.3,-243.79"/>
<polygon fill="none" stroke="#63b8ff" points="356.24,-243.69 349.75,-240.55 350.16,-233.35 356.65,-236.49 356.24,-243.69"/>
</a>
</g>
<text text-anchor="middle" x="433" y="-302" font-family="Helvetica,sans-Serif" font-size="10.00" fill="grey"> &#45;mIsBoundaryNode</text>
<text text-anchor="middle" x="433" y="-291" font-family="Helvetica,sans-Serif" font-size="10.00" fill="grey">&#45;mIsDeleted</text>
<text text-anchor="middle" x="433" y="-280" font-family="Helvetica,sans-Serif" font-size="10.00" fill="grey">&#45;mIsInternal</text>
</g>
<!-- Node7 -->
<g id="Node000007" class="node">
<title>Node7</title>
<g id="a_Node000007"><a xlink:title=" ">
<polygon fill="white" stroke="transparent" points="561.5,-382.5 469.5,-382.5 469.5,-333.5 561.5,-333.5 561.5,-382.5"/>
<text text-anchor="start" x="474.5" y="-370" font-family="Helvetica,sans-Serif" font-size="10.00">set&lt; unsigned &gt;</text>
<text text-anchor="start" x="513.5" y="-355" font-family="Helvetica,sans-Serif" font-size="10.00"> </text>
<text text-anchor="start" x="513.5" y="-340" font-family="Helvetica,sans-Serif" font-size="10.00"> </text>
<polygon fill="#bfbfbf" stroke="#bfbfbf" points="469.5,-365 469.5,-365 561.5,-365 561.5,-365 469.5,-365"/>
<polygon fill="#bfbfbf" stroke="#bfbfbf" points="469.5,-350 469.5,-350 561.5,-350 561.5,-350 469.5,-350"/>
<polygon fill="none" stroke="#bfbfbf" points="469.5,-333.5 469.5,-382.5 561.5,-382.5 561.5,-333.5 469.5,-333.5"/>
</a>
</g>
</g>
<!-- Node7&#45;&gt;Node1 -->
<g id="edge6_Node000001_Node000007" class="edge">
<title>Node7&#45;&gt;Node1</title>
<g id="a_edge6_Node000001_Node000007"><a xlink:title=" ">
<path fill="none" stroke="#63b8ff" d="M510.64,-333.43C506.24,-316.43 498.42,-293.64 485.5,-277 452.32,-234.27 403.24,-199.06 360.86,-173.88"/>
<polygon fill="none" stroke="#63b8ff" points="360.62,-173.74 353.42,-174.17 350.25,-167.7 357.45,-167.26 360.62,-173.74"/>
</a>
</g>
<text text-anchor="middle" x="572" y="-296.5" font-family="Helvetica,sans-Serif" font-size="10.00" fill="grey"> &#45;mBoundaryElementIndices</text>
<text text-anchor="middle" x="572" y="-285.5" font-family="Helvetica,sans-Serif" font-size="10.00" fill="grey">&#45;mElementIndices</text>
</g>
</g>
</svg>
