<?xml version="1.0" encoding="UTF-8" standalone="no"?>
<!DOCTYPE svg PUBLIC "-//W3C//DTD SVG 1.1//EN"
 "http://www.w3.org/Graphics/SVG/1.1/DTD/svg11.dtd">
<!-- Generated by graphviz version 2.43.0 (0)
 -->
<!-- Title: AbstractLinearParabolicPde&lt; ELEMENT_DIM, SPACE_DIM &gt; Pages: 1 -->
<svg width="620pt" height="1034pt"
 viewBox="0.00 0.00 620.00 1034.00" xmlns="http://www.w3.org/2000/svg" xmlns:xlink="http://www.w3.org/1999/xlink">
<g id="graph0" class="graph" transform="scale(1 1) rotate(0) translate(4 1030)">
<title>AbstractLinearParabolicPde&lt; ELEMENT_DIM, SPACE_DIM &gt;</title>
<!-- Node1 -->
<g id="Node000001" class="node">
<title>Node1</title>
<g id="a_Node000001"><a xlink:title=" ">
<polygon fill="#999999" stroke="transparent" points="402,-751 210,-751 210,-590 402,-590 402,-751"/>
<text text-anchor="start" x="228.5" y="-738.5" font-family="Helvetica,sans-Serif" font-size="10.00">AbstractLinearParabolicPde</text>
<text text-anchor="start" x="228.5" y="-727.5" font-family="Helvetica,sans-Serif" font-size="10.00">&lt; ELEMENT_DIM, SPACE_DIM &gt;</text>
<text text-anchor="start" x="304" y="-712.5" font-family="Helvetica,sans-Serif" font-size="10.00"> </text>
<text text-anchor="start" x="214" y="-697.5" font-family="Helvetica,sans-Serif" font-size="10.00">+</text>
<text text-anchor="start" x="227" y="-697.5" font-family="Helvetica,sans-Serif" font-size="10.00">AbstractLinearParabolicPde()</text>
<text text-anchor="start" x="214" y="-682.5" font-family="Helvetica,sans-Serif" font-size="10.00">+</text>
<text text-anchor="start" x="227" y="-682.5" font-family="Helvetica,sans-Serif" font-size="10.00">~AbstractLinearParabolic</text>
<text text-anchor="start" x="227" y="-671.5" font-family="Helvetica,sans-Serif" font-size="10.00">Pde()</text>
<text text-anchor="start" x="214" y="-656.5" font-family="Helvetica,sans-Serif" font-size="10.00">+</text>
<text text-anchor="start" x="227" y="-656.5" font-family="Helvetica,sans-Serif" font-size="10.00">ComputeDuDtCoefficientFunction()</text>
<text text-anchor="start" x="214" y="-641.5" font-family="Helvetica,sans-Serif" font-size="10.00">+</text>
<text text-anchor="start" x="227" y="-641.5" font-family="Helvetica,sans-Serif" font-size="10.00">ComputeSourceTerm()</text>
<text text-anchor="start" x="214" y="-626.5" font-family="Helvetica,sans-Serif" font-size="10.00">+</text>
<text text-anchor="start" x="227" y="-626.5" font-family="Helvetica,sans-Serif" font-size="10.00">ComputeSourceTermAtNode()</text>
<text text-anchor="start" x="214" y="-611.5" font-family="Helvetica,sans-Serif" font-size="10.00">+</text>
<text text-anchor="start" x="227" y="-611.5" font-family="Helvetica,sans-Serif" font-size="10.00">ComputeDiffusionTerm()</text>
<text text-anchor="start" x="216.5" y="-596.5" font-family="Helvetica,sans-Serif" font-size="10.00">&#45;</text>
<text text-anchor="start" x="227" y="-596.5" font-family="Helvetica,sans-Serif" font-size="10.00">serialize()</text>
<polygon fill="#666666" stroke="#666666" points="210,-722.5 210,-722.5 402,-722.5 402,-722.5 210,-722.5"/>
<polygon fill="#666666" stroke="#666666" points="210,-707.5 210,-707.5 402,-707.5 402,-707.5 210,-707.5"/>
<polygon fill="none" stroke="#666666" points="210,-590 210,-751 402,-751 402,-590 210,-590"/>
</a>
</g>
</g>
<!-- Node4 -->
<g id="Node000004" class="node">
<title>Node4</title>
<g id="a_Node000004"><a xlink:href="classAbstractLinearParabolicPde.html" target="_top" xlink:title=" ">
<polygon fill="white" stroke="transparent" points="402,-543 210,-543 210,-382 402,-382 402,-543"/>
<text text-anchor="start" x="239.5" y="-530.5" font-family="Helvetica,sans-Serif" font-size="10.00">AbstractLinearParabolicPde</text>
<text text-anchor="start" x="272" y="-519.5" font-family="Helvetica,sans-Serif" font-size="10.00">&lt; DIM, DIM &gt;</text>
<text text-anchor="start" x="304" y="-504.5" font-family="Helvetica,sans-Serif" font-size="10.00"> </text>
<text text-anchor="start" x="214" y="-489.5" font-family="Helvetica,sans-Serif" font-size="10.00">+</text>
<text text-anchor="start" x="227" y="-489.5" font-family="Helvetica,sans-Serif" font-size="10.00">AbstractLinearParabolicPde()</text>
<text text-anchor="start" x="214" y="-474.5" font-family="Helvetica,sans-Serif" font-size="10.00">+</text>
<text text-anchor="start" x="227" y="-474.5" font-family="Helvetica,sans-Serif" font-size="10.00">~AbstractLinearParabolic</text>
<text text-anchor="start" x="227" y="-463.5" font-family="Helvetica,sans-Serif" font-size="10.00">Pde()</text>
<text text-anchor="start" x="214" y="-448.5" font-family="Helvetica,sans-Serif" font-size="10.00">+</text>
<text text-anchor="start" x="227" y="-448.5" font-family="Helvetica,sans-Serif" font-size="10.00">ComputeDuDtCoefficientFunction()</text>
<text text-anchor="start" x="214" y="-433.5" font-family="Helvetica,sans-Serif" font-size="10.00">+</text>
<text text-anchor="start" x="227" y="-433.5" font-family="Helvetica,sans-Serif" font-size="10.00">ComputeSourceTerm()</text>
<text text-anchor="start" x="214" y="-418.5" font-family="Helvetica,sans-Serif" font-size="10.00">+</text>
<text text-anchor="start" x="227" y="-418.5" font-family="Helvetica,sans-Serif" font-size="10.00">ComputeSourceTermAtNode()</text>
<text text-anchor="start" x="214" y="-403.5" font-family="Helvetica,sans-Serif" font-size="10.00">+</text>
<text text-anchor="start" x="227" y="-403.5" font-family="Helvetica,sans-Serif" font-size="10.00">ComputeDiffusionTerm()</text>
<text text-anchor="start" x="216.5" y="-388.5" font-family="Helvetica,sans-Serif" font-size="10.00">&#45;</text>
<text text-anchor="start" x="227" y="-388.5" font-family="Helvetica,sans-Serif" font-size="10.00">serialize()</text>
<polygon fill="#666666" stroke="#666666" points="210,-514.5 210,-514.5 402,-514.5 402,-514.5 210,-514.5"/>
<polygon fill="#666666" stroke="#666666" points="210,-499.5 210,-499.5 402,-499.5 402,-499.5 210,-499.5"/>
<polygon fill="none" stroke="#666666" points="210,-382 210,-543 402,-543 402,-382 210,-382"/>
</a>
</g>
</g>
<!-- Node1&#45;&gt;Node4 -->
<g id="edge3_Node000001_Node000004" class="edge">
<title>Node1&#45;&gt;Node4</title>
<g id="a_edge3_Node000001_Node000004"><a xlink:title=" ">
<path fill="none" stroke="orange" d="M306,-579.74C306,-567.6 306,-555.22 306,-543.27"/>
<polygon fill="orange" stroke="orange" points="302.5,-579.85 306,-589.86 309.5,-579.86 302.5,-579.85"/>
</a>
</g>
<text text-anchor="middle" x="341.5" y="-564" font-family="Helvetica,sans-Serif" font-size="10.00" fill="grey"> &lt; DIM, DIM &gt;</text>
</g>
<!-- Node2 -->
<g id="Node000002" class="node">
<title>Node2</title>
<g id="a_Node000002"><a xlink:href="classAbstractLinearPde.html" target="_top" xlink:title=" ">
<polygon fill="white" stroke="transparent" points="384.5,-878 227.5,-878 227.5,-788 384.5,-788 384.5,-878"/>
<text text-anchor="start" x="233" y="-866" font-family="Helvetica,sans-Serif" font-size="10.00">AbstractLinearPde&lt;</text>
<text text-anchor="start" x="233" y="-855" font-family="Helvetica,sans-Serif" font-size="10.00"> ELEMENT_DIM, SPACE_DIM &gt;</text>
<text text-anchor="start" x="304.5" y="-840" font-family="Helvetica,sans-Serif" font-size="10.00"> </text>
<text text-anchor="start" x="239.5" y="-825" font-family="Helvetica,sans-Serif" font-size="10.00">+</text>
<text text-anchor="start" x="260" y="-825" font-family="Helvetica,sans-Serif" font-size="10.00">AbstractLinearPde()</text>
<text text-anchor="start" x="239.5" y="-810" font-family="Helvetica,sans-Serif" font-size="10.00">+</text>
<text text-anchor="start" x="260" y="-810" font-family="Helvetica,sans-Serif" font-size="10.00">~AbstractLinearPde()</text>
<text text-anchor="start" x="242" y="-795" font-family="Helvetica,sans-Serif" font-size="10.00">&#45;</text>
<text text-anchor="start" x="260" y="-795" font-family="Helvetica,sans-Serif" font-size="10.00">serialize()</text>
<polygon fill="#666666" stroke="#666666" points="228,-850 228,-850 385,-850 385,-850 228,-850"/>
<polygon fill="#666666" stroke="#666666" points="228,-835 228,-835 385,-835 385,-835 228,-835"/>
<polygon fill="none" stroke="#666666" points="227.5,-788 227.5,-878 384.5,-878 384.5,-788 227.5,-788"/>
</a>
</g>
</g>
<!-- Node2&#45;&gt;Node1 -->
<g id="edge1_Node000001_Node000002" class="edge">
<title>Node2&#45;&gt;Node1</title>
<g id="a_edge1_Node000001_Node000002"><a xlink:title=" ">
<path fill="none" stroke="#63b8ff" d="M306,-777.54C306,-769 306,-760.02 306,-751.05"/>
<polygon fill="none" stroke="#63b8ff" points="302.5,-777.72 306,-787.72 309.5,-777.72 302.5,-777.72"/>
</a>
</g>
</g>
<!-- Node3 -->
<g id="Node000003" class="node">
<title>Node3</title>
<g id="a_Node000003"><a xlink:href="classAbstractLinearPde.html" target="_top" xlink:title=" ">
<polygon fill="white" stroke="transparent" points="384.5,-1026 227.5,-1026 227.5,-936 384.5,-936 384.5,-1026"/>
<text text-anchor="start" x="233" y="-1014" font-family="Helvetica,sans-Serif" font-size="10.00">AbstractLinearPde&lt;</text>
<text text-anchor="start" x="233" y="-1003" font-family="Helvetica,sans-Serif" font-size="10.00"> ELEMENT_DIM, SPACE_DIM &gt;</text>
<text text-anchor="start" x="304.5" y="-988" font-family="Helvetica,sans-Serif" font-size="10.00"> </text>
<text text-anchor="start" x="239.5" y="-973" font-family="Helvetica,sans-Serif" font-size="10.00">+</text>
<text text-anchor="start" x="260" y="-973" font-family="Helvetica,sans-Serif" font-size="10.00">AbstractLinearPde()</text>
<text text-anchor="start" x="239.5" y="-958" font-family="Helvetica,sans-Serif" font-size="10.00">+</text>
<text text-anchor="start" x="260" y="-958" font-family="Helvetica,sans-Serif" font-size="10.00">~AbstractLinearPde()</text>
<text text-anchor="start" x="242" y="-943" font-family="Helvetica,sans-Serif" font-size="10.00">&#45;</text>
<text text-anchor="start" x="260" y="-943" font-family="Helvetica,sans-Serif" font-size="10.00">serialize()</text>
<polygon fill="#666666" stroke="#666666" points="228,-998 228,-998 385,-998 385,-998 228,-998"/>
<polygon fill="#666666" stroke="#666666" points="228,-983 228,-983 385,-983 385,-983 228,-983"/>
<polygon fill="none" stroke="#666666" points="227.5,-936 227.5,-1026 384.5,-1026 384.5,-936 227.5,-936"/>
</a>
</g>
</g>
<!-- Node3&#45;&gt;Node2 -->
<g id="edge2_Node000002_Node000003" class="edge">
<title>Node3&#45;&gt;Node2</title>
<g id="a_edge2_Node000002_Node000003"><a xlink:title=" ">
<path fill="none" stroke="orange" d="M306,-925.69C306,-909.99 306,-893.05 306,-878.05"/>
<polygon fill="orange" stroke="orange" points="302.5,-925.8 306,-935.8 309.5,-925.8 302.5,-925.8"/>
</a>
</g>
<text text-anchor="start" x="306" y="-910" font-family="Helvetica,sans-Serif" font-size="10.00" fill="grey"> &lt; ELEMENT_DIM, SPACE</text>
<text text-anchor="middle" x="367" y="-899" font-family="Helvetica,sans-Serif" font-size="10.00" fill="grey">_DIM &gt;</text>
</g>
<!-- Node5 -->
<g id="Node000005" class="node">
<title>Node5</title>
<g id="a_Node000005"><a xlink:href="classAveragedSourceParabolicPde.html" target="_top" xlink:title=" ">
<polygon fill="white" stroke="transparent" points="192,-345 0,-345 0,0 192,0 192,-345"/>
<text text-anchor="start" x="25" y="-332.5" font-family="Helvetica,sans-Serif" font-size="10.00">AveragedSourceParabolicPde</text>
<text text-anchor="start" x="74.5" y="-321.5" font-family="Helvetica,sans-Serif" font-size="10.00">&lt; DIM &gt;</text>
<text text-anchor="start" x="4" y="-306.5" font-family="Helvetica,sans-Serif" font-size="10.00">#</text>
<text text-anchor="start" x="17" y="-306.5" font-family="Helvetica,sans-Serif" font-size="10.00">mrCellPopulation</text>
<text text-anchor="start" x="4" y="-291.5" font-family="Helvetica,sans-Serif" font-size="10.00">#</text>
<text text-anchor="start" x="17" y="-291.5" font-family="Helvetica,sans-Serif" font-size="10.00">mConstantSourceCoefficient</text>
<text text-anchor="start" x="4" y="-276.5" font-family="Helvetica,sans-Serif" font-size="10.00">#</text>
<text text-anchor="start" x="17" y="-276.5" font-family="Helvetica,sans-Serif" font-size="10.00">mLinearSourceCoefficient</text>
<text text-anchor="start" x="4" y="-261.5" font-family="Helvetica,sans-Serif" font-size="10.00">#</text>
<text text-anchor="start" x="17" y="-261.5" font-family="Helvetica,sans-Serif" font-size="10.00">mDiffusionCoefficient</text>
<text text-anchor="start" x="4" y="-246.5" font-family="Helvetica,sans-Serif" font-size="10.00">#</text>
<text text-anchor="start" x="17" y="-246.5" font-family="Helvetica,sans-Serif" font-size="10.00">mDuDtCoefficient</text>
<text text-anchor="start" x="4" y="-231.5" font-family="Helvetica,sans-Serif" font-size="10.00">#</text>
<text text-anchor="start" x="17" y="-231.5" font-family="Helvetica,sans-Serif" font-size="10.00">mScaleByCellVolume</text>
<text text-anchor="start" x="4" y="-216.5" font-family="Helvetica,sans-Serif" font-size="10.00">#</text>
<text text-anchor="start" x="17" y="-216.5" font-family="Helvetica,sans-Serif" font-size="10.00">mCellDensityOnCoarseElements</text>
<text text-anchor="start" x="4" y="-201.5" font-family="Helvetica,sans-Serif" font-size="10.00">+</text>
<text text-anchor="start" x="17" y="-201.5" font-family="Helvetica,sans-Serif" font-size="10.00">AveragedSourceParabolicPde()</text>
<text text-anchor="start" x="4" y="-186.5" font-family="Helvetica,sans-Serif" font-size="10.00">+</text>
<text text-anchor="start" x="17" y="-186.5" font-family="Helvetica,sans-Serif" font-size="10.00">rGetCellPopulation()</text>
<text text-anchor="start" x="4" y="-171.5" font-family="Helvetica,sans-Serif" font-size="10.00">+</text>
<text text-anchor="start" x="17" y="-171.5" font-family="Helvetica,sans-Serif" font-size="10.00">GetConstantCoefficient()</text>
<text text-anchor="start" x="4" y="-156.5" font-family="Helvetica,sans-Serif" font-size="10.00">+</text>
<text text-anchor="start" x="17" y="-156.5" font-family="Helvetica,sans-Serif" font-size="10.00">GetLinearCoefficient()</text>
<text text-anchor="start" x="4" y="-141.5" font-family="Helvetica,sans-Serif" font-size="10.00">+</text>
<text text-anchor="start" x="17" y="-141.5" font-family="Helvetica,sans-Serif" font-size="10.00">GetDiffusionCoefficient()</text>
<text text-anchor="start" x="4" y="-126.5" font-family="Helvetica,sans-Serif" font-size="10.00">+</text>
<text text-anchor="start" x="17" y="-126.5" font-family="Helvetica,sans-Serif" font-size="10.00">GetDuDtCoefficient()</text>
<text text-anchor="start" x="4" y="-111.5" font-family="Helvetica,sans-Serif" font-size="10.00">+</text>
<text text-anchor="start" x="17" y="-111.5" font-family="Helvetica,sans-Serif" font-size="10.00">GetScaleByCellVolume()</text>
<text text-anchor="start" x="4" y="-96.5" font-family="Helvetica,sans-Serif" font-size="10.00">+</text>
<text text-anchor="start" x="17" y="-96.5" font-family="Helvetica,sans-Serif" font-size="10.00">SetupSourceTerms()</text>
<text text-anchor="start" x="4" y="-81.5" font-family="Helvetica,sans-Serif" font-size="10.00">+</text>
<text text-anchor="start" x="17" y="-81.5" font-family="Helvetica,sans-Serif" font-size="10.00">ComputeDuDtCoefficientFunction()</text>
<text text-anchor="start" x="4" y="-66.5" font-family="Helvetica,sans-Serif" font-size="10.00">+</text>
<text text-anchor="start" x="17" y="-66.5" font-family="Helvetica,sans-Serif" font-size="10.00">ComputeSourceTerm()</text>
<text text-anchor="start" x="4" y="-51.5" font-family="Helvetica,sans-Serif" font-size="10.00">+</text>
<text text-anchor="start" x="17" y="-51.5" font-family="Helvetica,sans-Serif" font-size="10.00">ComputeSourceTermAtNode()</text>
<text text-anchor="start" x="4" y="-36.5" font-family="Helvetica,sans-Serif" font-size="10.00">+</text>
<text text-anchor="start" x="17" y="-36.5" font-family="Helvetica,sans-Serif" font-size="10.00">ComputeDiffusionTerm()</text>
<text text-anchor="start" x="4" y="-21.5" font-family="Helvetica,sans-Serif" font-size="10.00">+</text>
<text text-anchor="start" x="17" y="-21.5" font-family="Helvetica,sans-Serif" font-size="10.00">GetUptakeRateForElement()</text>
<text text-anchor="start" x="6.5" y="-6.5" font-family="Helvetica,sans-Serif" font-size="10.00">&#45;</text>
<text text-anchor="start" x="17" y="-6.5" font-family="Helvetica,sans-Serif" font-size="10.00">serialize()</text>
<polygon fill="#666666" stroke="#666666" points="0,-316.5 0,-316.5 192,-316.5 192,-316.5 0,-316.5"/>
<polygon fill="#666666" stroke="#666666" points="0,-211.5 0,-211.5 15,-211.5 15,-211.5 0,-211.5"/>
<polygon fill="#666666" stroke="#666666" points="15,-211.5 15,-211.5 192,-211.5 192,-211.5 15,-211.5"/>
<polygon fill="none" stroke="#666666" points="0,0 0,-345 192,-345 192,0 0,0"/>
</a>
</g>
</g>
<!-- Node4&#45;&gt;Node5 -->
<g id="edge4_Node000004_Node000005" class="edge">
<title>Node4&#45;&gt;Node5</title>
<g id="a_edge4_Node000004_Node000005"><a xlink:title=" ">
<path fill="none" stroke="#63b8ff" d="M224.31,-374.27C216.18,-364.6 208.26,-354.73 201,-345 198.08,-341.08 195.16,-337.08 192.25,-333.02"/>
<polygon fill="none" stroke="#63b8ff" points="221.71,-376.62 230.86,-381.98 227.05,-372.09 221.71,-376.62"/>
</a>
</g>
</g>
<!-- Node6 -->
<g id="Node000006" class="node">
<title>Node6</title>
<g id="a_Node000006"><a xlink:href="classCellwiseSourceParabolicPde.html" target="_top" xlink:title=" ">
<polygon fill="white" stroke="transparent" points="402,-322.5 210,-322.5 210,-22.5 402,-22.5 402,-322.5"/>
<text text-anchor="start" x="237.5" y="-310.5" font-family="Helvetica,sans-Serif" font-size="10.00">CellwiseSourceParabolicPde</text>
<text text-anchor="start" x="284.5" y="-299.5" font-family="Helvetica,sans-Serif" font-size="10.00">&lt; DIM &gt;</text>
<text text-anchor="start" x="214" y="-284.5" font-family="Helvetica,sans-Serif" font-size="10.00">#</text>
<text text-anchor="start" x="227" y="-284.5" font-family="Helvetica,sans-Serif" font-size="10.00">mrCellPopulation</text>
<text text-anchor="start" x="214" y="-269.5" font-family="Helvetica,sans-Serif" font-size="10.00">#</text>
<text text-anchor="start" x="227" y="-269.5" font-family="Helvetica,sans-Serif" font-size="10.00">mConstantSourceCoefficient</text>
<text text-anchor="start" x="214" y="-254.5" font-family="Helvetica,sans-Serif" font-size="10.00">#</text>
<text text-anchor="start" x="227" y="-254.5" font-family="Helvetica,sans-Serif" font-size="10.00">mLinearSourceCoefficient</text>
<text text-anchor="start" x="214" y="-239.5" font-family="Helvetica,sans-Serif" font-size="10.00">#</text>
<text text-anchor="start" x="227" y="-239.5" font-family="Helvetica,sans-Serif" font-size="10.00">mDiffusionCoefficient</text>
<text text-anchor="start" x="214" y="-224.5" font-family="Helvetica,sans-Serif" font-size="10.00">#</text>
<text text-anchor="start" x="227" y="-224.5" font-family="Helvetica,sans-Serif" font-size="10.00">mDuDtCoefficient</text>
<text text-anchor="start" x="214" y="-209.5" font-family="Helvetica,sans-Serif" font-size="10.00">#</text>
<text text-anchor="start" x="227" y="-209.5" font-family="Helvetica,sans-Serif" font-size="10.00">mScaleByCellVolume</text>
<text text-anchor="start" x="214" y="-194.5" font-family="Helvetica,sans-Serif" font-size="10.00">+</text>
<text text-anchor="start" x="227" y="-194.5" font-family="Helvetica,sans-Serif" font-size="10.00">CellwiseSourceParabolicPde()</text>
<text text-anchor="start" x="214" y="-179.5" font-family="Helvetica,sans-Serif" font-size="10.00">+</text>
<text text-anchor="start" x="227" y="-179.5" font-family="Helvetica,sans-Serif" font-size="10.00">rGetCellPopulation()</text>
<text text-anchor="start" x="214" y="-164.5" font-family="Helvetica,sans-Serif" font-size="10.00">+</text>
<text text-anchor="start" x="227" y="-164.5" font-family="Helvetica,sans-Serif" font-size="10.00">GetConstantCoefficient()</text>
<text text-anchor="start" x="214" y="-149.5" font-family="Helvetica,sans-Serif" font-size="10.00">+</text>
<text text-anchor="start" x="227" y="-149.5" font-family="Helvetica,sans-Serif" font-size="10.00">GetLinearCoefficient()</text>
<text text-anchor="start" x="214" y="-134.5" font-family="Helvetica,sans-Serif" font-size="10.00">+</text>
<text text-anchor="start" x="227" y="-134.5" font-family="Helvetica,sans-Serif" font-size="10.00">GetDiffusionCoefficient()</text>
<text text-anchor="start" x="214" y="-119.5" font-family="Helvetica,sans-Serif" font-size="10.00">+</text>
<text text-anchor="start" x="227" y="-119.5" font-family="Helvetica,sans-Serif" font-size="10.00">GetDuDtCoefficient()</text>
<text text-anchor="start" x="214" y="-104.5" font-family="Helvetica,sans-Serif" font-size="10.00">+</text>
<text text-anchor="start" x="227" y="-104.5" font-family="Helvetica,sans-Serif" font-size="10.00">GetScaleByCellVolume()</text>
<text text-anchor="start" x="214" y="-89.5" font-family="Helvetica,sans-Serif" font-size="10.00">+</text>
<text text-anchor="start" x="227" y="-89.5" font-family="Helvetica,sans-Serif" font-size="10.00">ComputeDuDtCoefficientFunction()</text>
<text text-anchor="start" x="214" y="-74.5" font-family="Helvetica,sans-Serif" font-size="10.00">+</text>
<text text-anchor="start" x="227" y="-74.5" font-family="Helvetica,sans-Serif" font-size="10.00">ComputeSourceTerm()</text>
<text text-anchor="start" x="214" y="-59.5" font-family="Helvetica,sans-Serif" font-size="10.00">+</text>
<text text-anchor="start" x="227" y="-59.5" font-family="Helvetica,sans-Serif" font-size="10.00">ComputeSourceTermAtNode()</text>
<text text-anchor="start" x="214" y="-44.5" font-family="Helvetica,sans-Serif" font-size="10.00">+</text>
<text text-anchor="start" x="227" y="-44.5" font-family="Helvetica,sans-Serif" font-size="10.00">ComputeDiffusionTerm()</text>
<text text-anchor="start" x="216.5" y="-29.5" font-family="Helvetica,sans-Serif" font-size="10.00">&#45;</text>
<text text-anchor="start" x="227" y="-29.5" font-family="Helvetica,sans-Serif" font-size="10.00">serialize()</text>
<polygon fill="#666666" stroke="#666666" points="210,-294.5 210,-294.5 402,-294.5 402,-294.5 210,-294.5"/>
<polygon fill="#666666" stroke="#666666" points="210,-204.5 210,-204.5 225,-204.5 225,-204.5 210,-204.5"/>
<polygon fill="#666666" stroke="#666666" points="225,-204.5 225,-204.5 402,-204.5 402,-204.5 225,-204.5"/>
<polygon fill="none" stroke="#666666" points="210,-22.5 210,-322.5 402,-322.5 402,-22.5 210,-22.5"/>
</a>
</g>
</g>
<!-- Node4&#45;&gt;Node6 -->
<g id="edge5_Node000004_Node000006" class="edge">
<title>Node4&#45;&gt;Node6</title>
<g id="a_edge5_Node000004_Node000006"><a xlink:title=" ">
<path fill="none" stroke="#63b8ff" d="M306,-371.54C306,-355.9 306,-339.27 306,-322.55"/>
<polygon fill="none" stroke="#63b8ff" points="302.5,-371.66 306,-381.66 309.5,-371.66 302.5,-371.66"/>
</a>
</g>
</g>
<!-- Node7 -->
<g id="Node000007" class="node">
<title>Node7</title>
<g id="a_Node000007"><a xlink:href="classUniformSourceParabolicPde.html" target="_top" xlink:title=" ">
<polygon fill="white" stroke="transparent" points="612,-285 420,-285 420,-60 612,-60 612,-285"/>
<text text-anchor="start" x="448" y="-272.5" font-family="Helvetica,sans-Serif" font-size="10.00">UniformSourceParabolicPde</text>
<text text-anchor="start" x="494.5" y="-261.5" font-family="Helvetica,sans-Serif" font-size="10.00">&lt; DIM &gt;</text>
<text text-anchor="start" x="426.5" y="-246.5" font-family="Helvetica,sans-Serif" font-size="10.00">&#45;</text>
<text text-anchor="start" x="437" y="-246.5" font-family="Helvetica,sans-Serif" font-size="10.00">mConstantSourceCoefficient</text>
<text text-anchor="start" x="426.5" y="-231.5" font-family="Helvetica,sans-Serif" font-size="10.00">&#45;</text>
<text text-anchor="start" x="437" y="-231.5" font-family="Helvetica,sans-Serif" font-size="10.00">mLinearSourceCoefficient</text>
<text text-anchor="start" x="426.5" y="-216.5" font-family="Helvetica,sans-Serif" font-size="10.00">&#45;</text>
<text text-anchor="start" x="437" y="-216.5" font-family="Helvetica,sans-Serif" font-size="10.00">mDiffusionCoefficient</text>
<text text-anchor="start" x="426.5" y="-201.5" font-family="Helvetica,sans-Serif" font-size="10.00">&#45;</text>
<text text-anchor="start" x="437" y="-201.5" font-family="Helvetica,sans-Serif" font-size="10.00">mDuDtCoefficient</text>
<text text-anchor="start" x="424" y="-186.5" font-family="Helvetica,sans-Serif" font-size="10.00">+</text>
<text text-anchor="start" x="437" y="-186.5" font-family="Helvetica,sans-Serif" font-size="10.00">UniformSourceParabolicPde()</text>
<text text-anchor="start" x="424" y="-171.5" font-family="Helvetica,sans-Serif" font-size="10.00">+</text>
<text text-anchor="start" x="437" y="-171.5" font-family="Helvetica,sans-Serif" font-size="10.00">GetConstantCoefficient()</text>
<text text-anchor="start" x="424" y="-156.5" font-family="Helvetica,sans-Serif" font-size="10.00">+</text>
<text text-anchor="start" x="437" y="-156.5" font-family="Helvetica,sans-Serif" font-size="10.00">GetLinearCoefficient()</text>
<text text-anchor="start" x="424" y="-141.5" font-family="Helvetica,sans-Serif" font-size="10.00">+</text>
<text text-anchor="start" x="437" y="-141.5" font-family="Helvetica,sans-Serif" font-size="10.00">GetDiffusionCoefficient()</text>
<text text-anchor="start" x="424" y="-126.5" font-family="Helvetica,sans-Serif" font-size="10.00">+</text>
<text text-anchor="start" x="437" y="-126.5" font-family="Helvetica,sans-Serif" font-size="10.00">GetDuDtCoefficient()</text>
<text text-anchor="start" x="424" y="-111.5" font-family="Helvetica,sans-Serif" font-size="10.00">+</text>
<text text-anchor="start" x="437" y="-111.5" font-family="Helvetica,sans-Serif" font-size="10.00">ComputeSourceTerm()</text>
<text text-anchor="start" x="424" y="-96.5" font-family="Helvetica,sans-Serif" font-size="10.00">+</text>
<text text-anchor="start" x="437" y="-96.5" font-family="Helvetica,sans-Serif" font-size="10.00">ComputeDiffusionTerm()</text>
<text text-anchor="start" x="424" y="-81.5" font-family="Helvetica,sans-Serif" font-size="10.00">+</text>
<text text-anchor="start" x="437" y="-81.5" font-family="Helvetica,sans-Serif" font-size="10.00">ComputeDuDtCoefficientFunction()</text>
<text text-anchor="start" x="426.5" y="-66.5" font-family="Helvetica,sans-Serif" font-size="10.00">&#45;</text>
<text text-anchor="start" x="437" y="-66.5" font-family="Helvetica,sans-Serif" font-size="10.00">serialize()</text>
<polygon fill="#666666" stroke="#666666" points="420,-256.5 420,-256.5 612,-256.5 612,-256.5 420,-256.5"/>
<polygon fill="#666666" stroke="#666666" points="420,-196.5 420,-196.5 435,-196.5 435,-196.5 420,-196.5"/>
<polygon fill="#666666" stroke="#666666" points="435,-196.5 435,-196.5 612,-196.5 612,-196.5 435,-196.5"/>
<polygon fill="none" stroke="#666666" points="420,-60 420,-285 612,-285 612,-60 420,-60"/>
</a>
</g>
</g>
<!-- Node4&#45;&gt;Node7 -->
<g id="edge6_Node000004_Node000007" class="edge">
<title>Node4&#45;&gt;Node7</title>
<g id="a_edge6_Node000004_Node000007"><a xlink:title=" ">
<path fill="none" stroke="#63b8ff" d="M387.69,-374.27C395.82,-364.6 403.74,-354.73 411,-345 425,-326.26 438.86,-305.58 451.7,-285.26"/>
<polygon fill="none" stroke="#63b8ff" points="384.95,-372.09 381.14,-381.98 390.29,-376.62 384.95,-372.09"/>
</a>
</g>
</g>
</g>
</svg>
