<?xml version="1.0" encoding="UTF-8" standalone="no"?>
<!DOCTYPE svg PUBLIC "-//W3C//DTD SVG 1.1//EN"
 "http://www.w3.org/Graphics/SVG/1.1/DTD/svg11.dtd">
<!-- Generated by graphviz version 2.43.0 (0)
 -->
<!-- Title: ParallelColumnDataWriter Pages: 1 -->
<svg width="1727pt" height="965pt"
 viewBox="0.00 0.00 1727.07 965.00" xmlns="http://www.w3.org/2000/svg" xmlns:xlink="http://www.w3.org/1999/xlink">
<g id="graph0" class="graph" transform="scale(1 1) rotate(0) translate(4 961)">
<title>ParallelColumnDataWriter</title>
<!-- Node1 -->
<g id="Node000001" class="node">
<title>Node1</title>
<g id="a_Node000001"><a xlink:title=" ">
<polygon fill="#999999" stroke="transparent" points="1659.57,-154 1460.57,-154 1460.57,0 1659.57,0 1659.57,-154"/>
<text text-anchor="start" x="1497.07" y="-142" font-family="Helvetica,sans-Serif" font-size="10.00">ParallelColumnDataWriter</text>
<text text-anchor="start" x="1558.57" y="-127" font-family="Helvetica,sans-Serif" font-size="10.00"> </text>
<text text-anchor="start" x="1465.07" y="-112" font-family="Helvetica,sans-Serif" font-size="10.00">+</text>
<text text-anchor="start" x="1478.07" y="-112" font-family="Helvetica,sans-Serif" font-size="10.00">ParallelColumnDataWriter()</text>
<text text-anchor="start" x="1465.07" y="-97" font-family="Helvetica,sans-Serif" font-size="10.00">+</text>
<text text-anchor="start" x="1478.07" y="-97" font-family="Helvetica,sans-Serif" font-size="10.00">~ParallelColumnDataWriter()</text>
<text text-anchor="start" x="1465.07" y="-82" font-family="Helvetica,sans-Serif" font-size="10.00">+</text>
<text text-anchor="start" x="1478.07" y="-82" font-family="Helvetica,sans-Serif" font-size="10.00">PutVector()</text>
<text text-anchor="start" x="1465.07" y="-67" font-family="Helvetica,sans-Serif" font-size="10.00">+</text>
<text text-anchor="start" x="1478.07" y="-67" font-family="Helvetica,sans-Serif" font-size="10.00">PutVectorStripe()</text>
<text text-anchor="start" x="1465.07" y="-52" font-family="Helvetica,sans-Serif" font-size="10.00">+</text>
<text text-anchor="start" x="1478.07" y="-52" font-family="Helvetica,sans-Serif" font-size="10.00">PutVariable()</text>
<text text-anchor="start" x="1465.07" y="-37" font-family="Helvetica,sans-Serif" font-size="10.00">+</text>
<text text-anchor="start" x="1478.07" y="-37" font-family="Helvetica,sans-Serif" font-size="10.00">EndDefineMode()</text>
<text text-anchor="start" x="1465.07" y="-22" font-family="Helvetica,sans-Serif" font-size="10.00">+</text>
<text text-anchor="start" x="1478.07" y="-22" font-family="Helvetica,sans-Serif" font-size="10.00">AdvanceAlongUnlimitedDimension()</text>
<text text-anchor="start" x="1465.07" y="-7" font-family="Helvetica,sans-Serif" font-size="10.00">+</text>
<text text-anchor="start" x="1478.07" y="-7" font-family="Helvetica,sans-Serif" font-size="10.00">Close()</text>
<polygon fill="#666666" stroke="#666666" points="1461.07,-137 1461.07,-137 1660.07,-137 1660.07,-137 1461.07,-137"/>
<polygon fill="#666666" stroke="#666666" points="1461.07,-122 1461.07,-122 1660.07,-122 1660.07,-122 1461.07,-122"/>
<polygon fill="none" stroke="#666666" points="1460.57,0 1460.57,-154 1659.57,-154 1659.57,0 1460.57,0"/>
</a>
</g>
</g>
<!-- Node2 -->
<g id="Node000002" class="node">
<title>Node2</title>
<g id="a_Node000002"><a xlink:href="classColumnDataWriter.html" target="_top" xlink:title=" ">
<polygon fill="white" stroke="transparent" points="1014.57,-475 801.57,-475 801.57,-201 1014.57,-201 1014.57,-475"/>
<text text-anchor="start" x="863.07" y="-463" font-family="Helvetica,sans-Serif" font-size="10.00">ColumnDataWriter</text>
<text text-anchor="start" x="906.57" y="-448" font-family="Helvetica,sans-Serif" font-size="10.00"> </text>
<text text-anchor="start" x="806.07" y="-433" font-family="Helvetica,sans-Serif" font-size="10.00">+</text>
<text text-anchor="start" x="819.07" y="-433" font-family="Helvetica,sans-Serif" font-size="10.00">ColumnDataWriter()</text>
<text text-anchor="start" x="806.07" y="-418" font-family="Helvetica,sans-Serif" font-size="10.00">+</text>
<text text-anchor="start" x="819.07" y="-418" font-family="Helvetica,sans-Serif" font-size="10.00">~ColumnDataWriter()</text>
<text text-anchor="start" x="806.07" y="-403" font-family="Helvetica,sans-Serif" font-size="10.00">+</text>
<text text-anchor="start" x="819.07" y="-403" font-family="Helvetica,sans-Serif" font-size="10.00">DefineUnlimitedDimension()</text>
<text text-anchor="start" x="806.07" y="-388" font-family="Helvetica,sans-Serif" font-size="10.00">+</text>
<text text-anchor="start" x="819.07" y="-388" font-family="Helvetica,sans-Serif" font-size="10.00">DefineFixedDimension()</text>
<text text-anchor="start" x="806.07" y="-373" font-family="Helvetica,sans-Serif" font-size="10.00">+</text>
<text text-anchor="start" x="819.07" y="-373" font-family="Helvetica,sans-Serif" font-size="10.00">DefineVariable()</text>
<text text-anchor="start" x="806.07" y="-358" font-family="Helvetica,sans-Serif" font-size="10.00">+</text>
<text text-anchor="start" x="819.07" y="-358" font-family="Helvetica,sans-Serif" font-size="10.00">SetCommentForInfoFile()</text>
<text text-anchor="start" x="806.07" y="-343" font-family="Helvetica,sans-Serif" font-size="10.00">+</text>
<text text-anchor="start" x="819.07" y="-343" font-family="Helvetica,sans-Serif" font-size="10.00">EndDefineMode()</text>
<text text-anchor="start" x="806.07" y="-328" font-family="Helvetica,sans-Serif" font-size="10.00">+</text>
<text text-anchor="start" x="819.07" y="-328" font-family="Helvetica,sans-Serif" font-size="10.00">AdvanceAlongUnlimitedDimension()</text>
<text text-anchor="start" x="806.07" y="-313" font-family="Helvetica,sans-Serif" font-size="10.00">+</text>
<text text-anchor="start" x="819.07" y="-313" font-family="Helvetica,sans-Serif" font-size="10.00">PutVariable()</text>
<text text-anchor="start" x="806.07" y="-298" font-family="Helvetica,sans-Serif" font-size="10.00">+</text>
<text text-anchor="start" x="819.07" y="-298" font-family="Helvetica,sans-Serif" font-size="10.00">Close()</text>
<text text-anchor="start" x="806.07" y="-283" font-family="Helvetica,sans-Serif" font-size="10.00">+</text>
<text text-anchor="start" x="819.07" y="-283" font-family="Helvetica,sans-Serif" font-size="10.00">GetOutputDirectory()</text>
<text text-anchor="start" x="806.07" y="-268" font-family="Helvetica,sans-Serif" font-size="10.00">#</text>
<text text-anchor="start" x="819.07" y="-268" font-family="Helvetica,sans-Serif" font-size="10.00">CreateFixedDimensionFile()</text>
<text text-anchor="start" x="806.07" y="-253" font-family="Helvetica,sans-Serif" font-size="10.00">#</text>
<text text-anchor="start" x="819.07" y="-253" font-family="Helvetica,sans-Serif" font-size="10.00">CreateInfoFile()</text>
<text text-anchor="start" x="806.07" y="-238" font-family="Helvetica,sans-Serif" font-size="10.00">#</text>
<text text-anchor="start" x="819.07" y="-238" font-family="Helvetica,sans-Serif" font-size="10.00">CheckVariableName()</text>
<text text-anchor="start" x="806.07" y="-223" font-family="Helvetica,sans-Serif" font-size="10.00">#</text>
<text text-anchor="start" x="819.07" y="-223" font-family="Helvetica,sans-Serif" font-size="10.00">CheckUnitsName()</text>
<text text-anchor="start" x="806.07" y="-208" font-family="Helvetica,sans-Serif" font-size="10.00">#</text>
<text text-anchor="start" x="819.07" y="-208" font-family="Helvetica,sans-Serif" font-size="10.00">DoAdvanceAlongUnlimitedDimension()</text>
<polygon fill="#666666" stroke="#666666" points="802.07,-458 802.07,-458 1015.07,-458 1015.07,-458 802.07,-458"/>
<polygon fill="#666666" stroke="#666666" points="802.07,-443 802.07,-443 1015.07,-443 1015.07,-443 802.07,-443"/>
<polygon fill="none" stroke="#666666" points="801.57,-201 801.57,-475 1014.57,-475 1014.57,-201 801.57,-201"/>
</a>
</g>
</g>
<!-- Node2&#45;&gt;Node1 -->
<g id="edge1_Node000001_Node000002" class="edge">
<title>Node2&#45;&gt;Node1</title>
<g id="a_edge1_Node000001_Node000002"><a xlink:title=" ">
<path fill="none" stroke="#63b8ff" d="M1024.2,-290.87C1148.33,-241.56 1343.06,-164.21 1460.45,-117.57"/>
<polygon fill="none" stroke="#63b8ff" points="1022.65,-287.72 1014.64,-294.67 1025.23,-294.23 1022.65,-287.72"/>
</a>
</g>
</g>
<!-- Node3 -->
<g id="Node000003" class="node">
<title>Node3</title>
<g id="a_Node000003"><a xlink:href="classAbstractDataWriter.html" target="_top" xlink:title=" ">
<polygon fill="white" stroke="transparent" points="970.57,-807 771.57,-807 771.57,-653 970.57,-653 970.57,-807"/>
<text text-anchor="start" x="824.57" y="-795" font-family="Helvetica,sans-Serif" font-size="10.00">AbstractDataWriter</text>
<text text-anchor="start" x="869.57" y="-780" font-family="Helvetica,sans-Serif" font-size="10.00"> </text>
<text text-anchor="start" x="776.07" y="-765" font-family="Helvetica,sans-Serif" font-size="10.00">+</text>
<text text-anchor="start" x="789.07" y="-765" font-family="Helvetica,sans-Serif" font-size="10.00">DefineFixedDimension()</text>
<text text-anchor="start" x="776.07" y="-750" font-family="Helvetica,sans-Serif" font-size="10.00">+</text>
<text text-anchor="start" x="789.07" y="-750" font-family="Helvetica,sans-Serif" font-size="10.00">DefineUnlimitedDimension()</text>
<text text-anchor="start" x="776.07" y="-735" font-family="Helvetica,sans-Serif" font-size="10.00">+</text>
<text text-anchor="start" x="789.07" y="-735" font-family="Helvetica,sans-Serif" font-size="10.00">DefineVariable()</text>
<text text-anchor="start" x="776.07" y="-720" font-family="Helvetica,sans-Serif" font-size="10.00">+</text>
<text text-anchor="start" x="789.07" y="-720" font-family="Helvetica,sans-Serif" font-size="10.00">EndDefineMode()</text>
<text text-anchor="start" x="776.07" y="-705" font-family="Helvetica,sans-Serif" font-size="10.00">+</text>
<text text-anchor="start" x="789.07" y="-705" font-family="Helvetica,sans-Serif" font-size="10.00">AdvanceAlongUnlimitedDimension()</text>
<text text-anchor="start" x="776.07" y="-690" font-family="Helvetica,sans-Serif" font-size="10.00">+</text>
<text text-anchor="start" x="789.07" y="-690" font-family="Helvetica,sans-Serif" font-size="10.00">PutVariable()</text>
<text text-anchor="start" x="776.07" y="-675" font-family="Helvetica,sans-Serif" font-size="10.00">+</text>
<text text-anchor="start" x="789.07" y="-675" font-family="Helvetica,sans-Serif" font-size="10.00">Close()</text>
<text text-anchor="start" x="776.07" y="-660" font-family="Helvetica,sans-Serif" font-size="10.00">+</text>
<text text-anchor="start" x="789.07" y="-660" font-family="Helvetica,sans-Serif" font-size="10.00">~AbstractDataWriter()</text>
<polygon fill="#666666" stroke="#666666" points="772.07,-790 772.07,-790 971.07,-790 971.07,-790 772.07,-790"/>
<polygon fill="#666666" stroke="#666666" points="772.07,-775 772.07,-775 971.07,-775 971.07,-775 772.07,-775"/>
<polygon fill="none" stroke="#666666" points="771.57,-653 771.57,-807 970.57,-807 970.57,-653 771.57,-653"/>
</a>
</g>
</g>
<!-- Node3&#45;&gt;Node2 -->
<g id="edge2_Node000002_Node000003" class="edge">
<title>Node3&#45;&gt;Node2</title>
<g id="a_edge2_Node000002_Node000003"><a xlink:title=" ">
<path fill="none" stroke="#63b8ff" d="M887.1,-642.47C889.77,-625.77 892.25,-608.38 894.07,-592 898.28,-554.18 901.25,-513.03 903.32,-475.13"/>
<polygon fill="none" stroke="#63b8ff" points="883.57,-642.33 885.42,-652.76 890.48,-643.46 883.57,-642.33"/>
</a>
</g>
</g>
<!-- Node4 -->
<g id="Node000004" class="node">
<title>Node4</title>
<g id="a_Node000004"><a xlink:href="classOutputFileHandler.html" target="_top" xlink:title=" ">
<polygon fill="white" stroke="transparent" points="375.07,-850 197.07,-850 197.07,-610 375.07,-610 375.07,-850"/>
<text text-anchor="start" x="241.57" y="-838" font-family="Helvetica,sans-Serif" font-size="10.00">OutputFileHandler</text>
<text text-anchor="start" x="284.07" y="-823" font-family="Helvetica,sans-Serif" font-size="10.00"> </text>
<text text-anchor="start" x="201.07" y="-808" font-family="Helvetica,sans-Serif" font-size="10.00">+</text>
<text text-anchor="start" x="214.07" y="-808" font-family="Helvetica,sans-Serif" font-size="10.00">OutputFileHandler()</text>
<text text-anchor="start" x="201.07" y="-793" font-family="Helvetica,sans-Serif" font-size="10.00">+</text>
<text text-anchor="start" x="214.07" y="-793" font-family="Helvetica,sans-Serif" font-size="10.00">OutputFileHandler()</text>
<text text-anchor="start" x="201.07" y="-778" font-family="Helvetica,sans-Serif" font-size="10.00">+</text>
<text text-anchor="start" x="214.07" y="-778" font-family="Helvetica,sans-Serif" font-size="10.00">GetOutputDirectoryFullPath()</text>
<text text-anchor="start" x="201.07" y="-763" font-family="Helvetica,sans-Serif" font-size="10.00">+</text>
<text text-anchor="start" x="214.07" y="-763" font-family="Helvetica,sans-Serif" font-size="10.00">GetRelativePath()</text>
<text text-anchor="start" x="201.07" y="-748" font-family="Helvetica,sans-Serif" font-size="10.00">+</text>
<text text-anchor="start" x="214.07" y="-748" font-family="Helvetica,sans-Serif" font-size="10.00">SetArchiveDirectory()</text>
<text text-anchor="start" x="201.07" y="-733" font-family="Helvetica,sans-Serif" font-size="10.00">+</text>
<text text-anchor="start" x="214.07" y="-733" font-family="Helvetica,sans-Serif" font-size="10.00">OpenOutputFile()</text>
<text text-anchor="start" x="201.07" y="-718" font-family="Helvetica,sans-Serif" font-size="10.00">+</text>
<text text-anchor="start" x="214.07" y="-718" font-family="Helvetica,sans-Serif" font-size="10.00">OpenOutputFile()</text>
<text text-anchor="start" x="201.07" y="-703" font-family="Helvetica,sans-Serif" font-size="10.00">+</text>
<text text-anchor="start" x="214.07" y="-703" font-family="Helvetica,sans-Serif" font-size="10.00">CopyFileTo()</text>
<text text-anchor="start" x="201.07" y="-688" font-family="Helvetica,sans-Serif" font-size="10.00">+</text>
<text text-anchor="start" x="214.07" y="-688" font-family="Helvetica,sans-Serif" font-size="10.00">FindFile()</text>
<text text-anchor="start" x="201.07" y="-673" font-family="Helvetica,sans-Serif" font-size="10.00">+</text>
<text text-anchor="start" x="214.07" y="-673" font-family="Helvetica,sans-Serif" font-size="10.00">GetChasteTestOutputDirectory()</text>
<text text-anchor="start" x="203.57" y="-658" font-family="Helvetica,sans-Serif" font-size="10.00">&#45;</text>
<text text-anchor="start" x="214.07" y="-658" font-family="Helvetica,sans-Serif" font-size="10.00">CommonConstructor()</text>
<text text-anchor="start" x="203.57" y="-643" font-family="Helvetica,sans-Serif" font-size="10.00">&#45;</text>
<text text-anchor="start" x="214.07" y="-643" font-family="Helvetica,sans-Serif" font-size="10.00">MakeFoldersAndReturnFull</text>
<text text-anchor="start" x="214.07" y="-632" font-family="Helvetica,sans-Serif" font-size="10.00">Path()</text>
<text text-anchor="start" x="203.57" y="-617" font-family="Helvetica,sans-Serif" font-size="10.00">&#45;</text>
<text text-anchor="start" x="214.07" y="-617" font-family="Helvetica,sans-Serif" font-size="10.00">AddTrailingSlash()</text>
<polygon fill="#666666" stroke="#666666" points="197.07,-833 197.07,-833 375.07,-833 375.07,-833 197.07,-833"/>
<polygon fill="#666666" stroke="#666666" points="197.07,-818 197.07,-818 375.07,-818 375.07,-818 197.07,-818"/>
<polygon fill="none" stroke="#666666" points="197.07,-610 197.07,-850 375.07,-850 375.07,-610 197.07,-610"/>
</a>
</g>
</g>
<!-- Node4&#45;&gt;Node2 -->
<g id="edge3_Node000002_Node000004" class="edge">
<title>Node4&#45;&gt;Node2</title>
<g id="a_edge3_Node000002_Node000004"><a xlink:title=" ">
<path fill="none" stroke="#63b8ff" d="M243.95,-609.79C237.2,-569.02 239.41,-525.54 265.07,-493 329.13,-411.79 621.63,-368.6 789.21,-350.15"/>
<polygon fill="none" stroke="#63b8ff" points="789.37,-350.13 794.9,-345.51 801.3,-348.84 795.77,-353.46 789.37,-350.13"/>
</a>
</g>
<text text-anchor="middle" x="320.07" y="-540" font-family="Helvetica,sans-Serif" font-size="10.00" fill="grey"> #mOutputFileHandler</text>
</g>
<!-- Node5 -->
<g id="Node000005" class="node">
<title>Node5</title>
<g id="a_Node000005"><a xlink:title=" ">
<polygon fill="white" stroke="transparent" points="404.07,-957 366.07,-957 366.07,-908 404.07,-908 404.07,-957"/>
<text text-anchor="start" x="371.07" y="-944.5" font-family="Helvetica,sans-Serif" font-size="10.00">string</text>
<text text-anchor="start" x="383.07" y="-929.5" font-family="Helvetica,sans-Serif" font-size="10.00"> </text>
<text text-anchor="start" x="383.07" y="-914.5" font-family="Helvetica,sans-Serif" font-size="10.00"> </text>
<polygon fill="#bfbfbf" stroke="#bfbfbf" points="366.07,-939.5 366.07,-939.5 404.07,-939.5 404.07,-939.5 366.07,-939.5"/>
<polygon fill="#bfbfbf" stroke="#bfbfbf" points="366.07,-924.5 366.07,-924.5 404.07,-924.5 404.07,-924.5 366.07,-924.5"/>
<polygon fill="none" stroke="#bfbfbf" points="366.07,-908 366.07,-957 404.07,-957 404.07,-908 366.07,-908"/>
</a>
</g>
</g>
<!-- Node5&#45;&gt;Node4 -->
<g id="edge4_Node000004_Node000005" class="edge">
<title>Node5&#45;&gt;Node4</title>
<g id="a_edge4_Node000004_Node000005"><a xlink:title=" ">
<path fill="none" stroke="#63b8ff" d="M378.01,-907.89C374.1,-895.76 368.87,-880.87 363.07,-868 362.05,-865.72 360.99,-863.42 359.92,-861.11"/>
<polygon fill="none" stroke="#63b8ff" points="359.91,-861.11 353.72,-857.42 354.74,-850.28 360.93,-853.97 359.91,-861.11"/>
</a>
</g>
<text text-anchor="middle" x="416.07" y="-876.5" font-family="Helvetica,sans-Serif" font-size="10.00" fill="grey"> +SIG_FILE_NAME</text>
</g>
<!-- Node6 -->
<g id="Node000006" class="node">
<title>Node6</title>
<g id="a_Node000006"><a xlink:title=" ">
<polygon fill="white" stroke="transparent" points="205.07,-957 167.07,-957 167.07,-908 205.07,-908 205.07,-957"/>
<text text-anchor="start" x="172.07" y="-944.5" font-family="Helvetica,sans-Serif" font-size="10.00">string</text>
<text text-anchor="start" x="184.07" y="-929.5" font-family="Helvetica,sans-Serif" font-size="10.00"> </text>
<text text-anchor="start" x="184.07" y="-914.5" font-family="Helvetica,sans-Serif" font-size="10.00"> </text>
<polygon fill="#bfbfbf" stroke="#bfbfbf" points="167.07,-939.5 167.07,-939.5 205.07,-939.5 205.07,-939.5 167.07,-939.5"/>
<polygon fill="#bfbfbf" stroke="#bfbfbf" points="167.07,-924.5 167.07,-924.5 205.07,-924.5 205.07,-924.5 167.07,-924.5"/>
<polygon fill="none" stroke="#bfbfbf" points="167.07,-908 167.07,-957 205.07,-957 205.07,-908 167.07,-908"/>
</a>
</g>
</g>
<!-- Node6&#45;&gt;Node2 -->
<g id="edge6_Node000002_Node000006" class="edge">
<title>Node6&#45;&gt;Node2</title>
<g id="a_edge6_Node000002_Node000006"><a xlink:title=" ">
<path fill="none" stroke="#63b8ff" d="M167.02,-927.4C134.19,-919.19 67.85,-897.31 40.07,-850 -13.93,-758.01 -12.69,-702.7 40.07,-610 115.36,-477.72 569.7,-390.96 789.35,-356.2"/>
<polygon fill="none" stroke="#63b8ff" points="789.37,-356.19 794.68,-351.31 801.23,-354.33 795.92,-359.21 789.37,-356.19"/>
</a>
</g>
<text text-anchor="middle" x="114.07" y="-766" font-family="Helvetica,sans-Serif" font-size="10.00" fill="grey"> #mBaseName</text>
<text text-anchor="middle" x="114.07" y="-755" font-family="Helvetica,sans-Serif" font-size="10.00" fill="grey">#mCommentForInfoFile</text>
<text text-anchor="middle" x="114.07" y="-744" font-family="Helvetica,sans-Serif" font-size="10.00" fill="grey">#mDirectory</text>
<text text-anchor="middle" x="114.07" y="-733" font-family="Helvetica,sans-Serif" font-size="10.00" fill="grey">#mFileExtension</text>
<text text-anchor="middle" x="114.07" y="-722" font-family="Helvetica,sans-Serif" font-size="10.00" fill="grey">#mFixedDimensionName</text>
<text text-anchor="middle" x="114.07" y="-711" font-family="Helvetica,sans-Serif" font-size="10.00" fill="grey">#mFixedDimensionUnits</text>
<text text-anchor="middle" x="114.07" y="-700" font-family="Helvetica,sans-Serif" font-size="10.00" fill="grey">#mUnlimitedDimensionName</text>
<text text-anchor="middle" x="114.07" y="-689" font-family="Helvetica,sans-Serif" font-size="10.00" fill="grey">#mUnlimitedDimensionUnits</text>
</g>
<!-- Node6&#45;&gt;Node4 -->
<g id="edge5_Node000004_Node000006" class="edge">
<title>Node6&#45;&gt;Node4</title>
<g id="a_edge5_Node000004_Node000006"><a xlink:title=" ">
<path fill="none" stroke="#63b8ff" d="M183.11,-907.71C182.42,-895.54 182.87,-880.66 187.07,-868 188.5,-863.71 190.11,-859.44 191.88,-855.2"/>
<polygon fill="none" stroke="#63b8ff" points="191.97,-855 190.81,-847.89 196.93,-844.07 198.09,-851.19 191.97,-855"/>
</a>
</g>
<text text-anchor="middle" x="218.07" y="-876.5" font-family="Helvetica,sans-Serif" font-size="10.00" fill="grey"> &#45;mDirectory</text>
</g>
<!-- Node10 -->
<g id="Node000010" class="node">
<title>Node10</title>
<g id="a_Node000010"><a xlink:href="structDataWriterVariable.html" target="_top" xlink:title=" ">
<polygon fill="white" stroke="transparent" points="497.07,-754.5 393.07,-754.5 393.07,-705.5 497.07,-705.5 497.07,-754.5"/>
<text text-anchor="start" x="398.07" y="-742" font-family="Helvetica,sans-Serif" font-size="10.00">DataWriterVariable</text>
<text text-anchor="start" x="443.07" y="-727" font-family="Helvetica,sans-Serif" font-size="10.00"> </text>
<text text-anchor="start" x="443.07" y="-712" font-family="Helvetica,sans-Serif" font-size="10.00"> </text>
<polygon fill="#666666" stroke="#666666" points="393.07,-737 393.07,-737 497.07,-737 497.07,-737 393.07,-737"/>
<polygon fill="#666666" stroke="#666666" points="393.07,-722 393.07,-722 497.07,-722 497.07,-722 393.07,-722"/>
<polygon fill="none" stroke="#666666" points="393.07,-705.5 393.07,-754.5 497.07,-754.5 497.07,-705.5 393.07,-705.5"/>
</a>
</g>
</g>
<!-- Node6&#45;&gt;Node10 -->
<g id="edge11_Node000010_Node000006" class="edge">
<title>Node6&#45;&gt;Node10</title>
<g id="a_edge11_Node000010_Node000006"><a xlink:title=" ">
<path fill="none" stroke="#63b8ff" d="M205.23,-920.78C218.25,-913.05 235.49,-901.92 249.07,-890 258.78,-881.48 256.78,-874.26 268.07,-868 313.7,-842.7 341.78,-880.55 384.07,-850 411.66,-830.08 427.65,-793.97 436.28,-766.73"/>
<polygon fill="none" stroke="#63b8ff" points="436.37,-766.44 434.22,-759.56 439.75,-754.93 441.9,-761.81 436.37,-766.44"/>
</a>
</g>
<text text-anchor="middle" x="313.57" y="-882" font-family="Helvetica,sans-Serif" font-size="10.00" fill="grey"> +mVariableName</text>
<text text-anchor="middle" x="313.57" y="-871" font-family="Helvetica,sans-Serif" font-size="10.00" fill="grey">+mVariableUnits</text>
</g>
<!-- Node7 -->
<g id="Node000007" class="node">
<title>Node7</title>
<g id="a_Node000007"><a xlink:href="classbool.html" target="_top" xlink:title=" ">
<polygon fill="white" stroke="transparent" points="1368.07,-957 1336.07,-957 1336.07,-908 1368.07,-908 1368.07,-957"/>
<text text-anchor="start" x="1341.07" y="-944.5" font-family="Helvetica,sans-Serif" font-size="10.00">bool</text>
<text text-anchor="start" x="1350.07" y="-929.5" font-family="Helvetica,sans-Serif" font-size="10.00"> </text>
<text text-anchor="start" x="1350.07" y="-914.5" font-family="Helvetica,sans-Serif" font-size="10.00"> </text>
<polygon fill="#bfbfbf" stroke="#bfbfbf" points="1336.07,-939.5 1336.07,-939.5 1368.07,-939.5 1368.07,-939.5 1336.07,-939.5"/>
<polygon fill="#bfbfbf" stroke="#bfbfbf" points="1336.07,-924.5 1336.07,-924.5 1368.07,-924.5 1368.07,-924.5 1336.07,-924.5"/>
<polygon fill="none" stroke="#bfbfbf" points="1336.07,-908 1336.07,-957 1368.07,-957 1368.07,-908 1336.07,-908"/>
</a>
</g>
</g>
<!-- Node7&#45;&gt;Node1 -->
<g id="edge16_Node000001_Node000007" class="edge">
<title>Node7&#45;&gt;Node1</title>
<g id="a_edge16_Node000001_Node000007"><a xlink:title=" ">
<path fill="none" stroke="#63b8ff" d="M1368.24,-929.25C1403.3,-923.41 1486.03,-904.25 1522.07,-850 1559.09,-794.29 1561.5,-357.12 1560.75,-166.43"/>
<polygon fill="none" stroke="#63b8ff" points="1560.75,-166.24 1556.73,-160.25 1560.7,-154.24 1564.73,-160.22 1560.75,-166.24"/>
</a>
</g>
<text text-anchor="middle" x="1587.57" y="-540" font-family="Helvetica,sans-Serif" font-size="10.00" fill="grey"> &#45;mIsParallel</text>
</g>
<!-- Node7&#45;&gt;Node2 -->
<g id="edge7_Node000002_Node000007" class="edge">
<title>Node7&#45;&gt;Node2</title>
<g id="a_edge7_Node000002_Node000007"><a xlink:title=" ">
<path fill="none" stroke="#63b8ff" d="M1352.85,-907.9C1355.47,-821.62 1362.54,-526.6 1338.07,-493 1266.87,-395.21 1127.84,-359.28 1027.1,-346.21"/>
<polygon fill="none" stroke="#63b8ff" points="1026.92,-346.19 1020.48,-349.43 1015.01,-344.73 1021.45,-341.49 1026.92,-346.19"/>
</a>
</g>
<text text-anchor="middle" x="1437.07" y="-755" font-family="Helvetica,sans-Serif" font-size="10.00" fill="grey"> #mHasPutVariable</text>
<text text-anchor="middle" x="1437.07" y="-744" font-family="Helvetica,sans-Serif" font-size="10.00" fill="grey">#mIsFixedDimensionSet</text>
<text text-anchor="middle" x="1437.07" y="-733" font-family="Helvetica,sans-Serif" font-size="10.00" fill="grey">#mIsInDefineMode</text>
<text text-anchor="middle" x="1437.07" y="-722" font-family="Helvetica,sans-Serif" font-size="10.00" fill="grey">#mIsUnlimitedDimensionSet</text>
<text text-anchor="start" x="1356.07" y="-711" font-family="Helvetica,sans-Serif" font-size="10.00" fill="grey">#mNeedAdvanceAlongUnlimited</text>
<text text-anchor="middle" x="1437.07" y="-700" font-family="Helvetica,sans-Serif" font-size="10.00" fill="grey">Dimension</text>
</g>
<!-- Node7&#45;&gt;Node10 -->
<g id="edge12_Node000010_Node000007" class="edge">
<title>Node7&#45;&gt;Node10</title>
<g id="a_edge12_Node000010_Node000007"><a xlink:title=" ">
<path fill="none" stroke="#63b8ff" d="M1335.91,-931.51C1234.75,-931.33 688.48,-926.78 544.07,-850 508.25,-830.95 480.25,-792.99 463.31,-765.04"/>
<polygon fill="none" stroke="#63b8ff" points="463.21,-764.87 456.72,-761.71 457.15,-754.51 463.63,-757.67 463.21,-764.87"/>
</a>
</g>
<text text-anchor="middle" x="757.07" y="-882" font-family="Helvetica,sans-Serif" font-size="10.00" fill="grey"> +mVariesWithFixedDimension</text>
<text text-anchor="middle" x="757.07" y="-871" font-family="Helvetica,sans-Serif" font-size="10.00" fill="grey">+mVariesWithUnlimitedDimension</text>
</g>
<!-- Node8 -->
<g id="Node000008" class="node">
<title>Node8</title>
<g id="a_Node000008"><a xlink:title=" ">
<polygon fill="white" stroke="transparent" points="585.07,-754.5 553.07,-754.5 553.07,-705.5 585.07,-705.5 585.07,-754.5"/>
<text text-anchor="start" x="558.07" y="-742" font-family="Helvetica,sans-Serif" font-size="10.00">long</text>
<text text-anchor="start" x="567.07" y="-727" font-family="Helvetica,sans-Serif" font-size="10.00"> </text>
<text text-anchor="start" x="567.07" y="-712" font-family="Helvetica,sans-Serif" font-size="10.00"> </text>
<polygon fill="#bfbfbf" stroke="#bfbfbf" points="553.07,-737 553.07,-737 585.07,-737 585.07,-737 553.07,-737"/>
<polygon fill="#bfbfbf" stroke="#bfbfbf" points="553.07,-722 553.07,-722 585.07,-722 585.07,-722 553.07,-722"/>
<polygon fill="none" stroke="#bfbfbf" points="553.07,-705.5 553.07,-754.5 585.07,-754.5 585.07,-705.5 553.07,-705.5"/>
</a>
</g>
</g>
<!-- Node8&#45;&gt;Node2 -->
<g id="edge8_Node000002_Node000008" class="edge">
<title>Node8&#45;&gt;Node2</title>
<g id="a_edge8_Node000002_Node000008"><a xlink:title=" ">
<path fill="none" stroke="#63b8ff" d="M567.74,-705.33C565.23,-652.53 561.94,-527.05 585.07,-493 631.79,-424.25 717.91,-385.29 789.48,-363.77"/>
<polygon fill="none" stroke="#63b8ff" points="789.76,-363.69 794.41,-358.17 801.29,-360.34 796.64,-365.85 789.76,-363.69"/>
</a>
</g>
<text text-anchor="middle" x="664.07" y="-545.5" font-family="Helvetica,sans-Serif" font-size="10.00" fill="grey"> #mFixedDimensionSize</text>
<text text-anchor="middle" x="664.07" y="-534.5" font-family="Helvetica,sans-Serif" font-size="10.00" fill="grey">#mUnlimitedDimensionPosition</text>
</g>
<!-- Node9 -->
<g id="Node000009" class="node">
<title>Node9</title>
<g id="a_Node000009"><a xlink:title=" ">
<polygon fill="white" stroke="transparent" points="753.07,-754.5 603.07,-754.5 603.07,-705.5 753.07,-705.5 753.07,-754.5"/>
<text text-anchor="start" x="608.07" y="-742" font-family="Helvetica,sans-Serif" font-size="10.00">shared_ptr&lt; std::ofstream &gt;</text>
<text text-anchor="start" x="676.07" y="-727" font-family="Helvetica,sans-Serif" font-size="10.00"> </text>
<text text-anchor="start" x="676.07" y="-712" font-family="Helvetica,sans-Serif" font-size="10.00"> </text>
<polygon fill="#bfbfbf" stroke="#bfbfbf" points="603.07,-737 603.07,-737 753.07,-737 753.07,-737 603.07,-737"/>
<polygon fill="#bfbfbf" stroke="#bfbfbf" points="603.07,-722 603.07,-722 753.07,-722 753.07,-722 603.07,-722"/>
<polygon fill="none" stroke="#bfbfbf" points="603.07,-705.5 603.07,-754.5 753.07,-754.5 753.07,-705.5 603.07,-705.5"/>
</a>
</g>
</g>
<!-- Node9&#45;&gt;Node2 -->
<g id="edge9_Node000002_Node000009" class="edge">
<title>Node9&#45;&gt;Node2</title>
<g id="a_edge9_Node000002_Node000009"><a xlink:title=" ">
<path fill="none" stroke="#63b8ff" d="M692.66,-705.14C708.34,-678.49 732.92,-633.6 747.07,-592 761.51,-549.59 745.89,-533 766.07,-493 773.73,-477.83 783.32,-463.07 793.88,-449.07"/>
<polygon fill="none" stroke="#63b8ff" points="793.96,-448.97 794.49,-441.78 801.34,-439.51 800.8,-446.7 793.96,-448.97"/>
</a>
</g>
<text text-anchor="middle" x="828.07" y="-545.5" font-family="Helvetica,sans-Serif" font-size="10.00" fill="grey"> #mpCurrentAncillaryFile</text>
<text text-anchor="middle" x="828.07" y="-534.5" font-family="Helvetica,sans-Serif" font-size="10.00" fill="grey">#mpCurrentOutputFile</text>
</g>
<!-- Node10&#45;&gt;Node2 -->
<g id="edge10_Node000002_Node000010" class="edge">
<title>Node10&#45;&gt;Node2</title>
<g id="a_edge10_Node000002_Node000010"><a xlink:title=" ">
<path fill="none" stroke="#63b8ff" d="M429.42,-705.27C401.39,-659.52 349.88,-557.9 398.07,-493 444.88,-429.98 653.85,-382.82 789.35,-358.2"/>
<polygon fill="none" stroke="#63b8ff" points="789.6,-358.16 794.8,-353.16 801.41,-356.03 796.22,-361.03 789.6,-358.16"/>
</a>
</g>
<text text-anchor="middle" x="480.57" y="-545.5" font-family="Helvetica,sans-Serif" font-size="10.00" fill="grey"> #mpFixedDimensionVariable</text>
<text text-anchor="middle" x="480.57" y="-534.5" font-family="Helvetica,sans-Serif" font-size="10.00" fill="grey">#mpUnlimitedDimensionVariable</text>
</g>
<!-- Node11 -->
<g id="Node000011" class="node">
<title>Node11</title>
<g id="a_Node000011"><a xlink:title=" ">
<polygon fill="white" stroke="transparent" points="1145.57,-754.5 988.57,-754.5 988.57,-705.5 1145.57,-705.5 1145.57,-754.5"/>
<text text-anchor="start" x="994.07" y="-742" font-family="Helvetica,sans-Serif" font-size="10.00">vector&lt; DataWriterVariable &gt;</text>
<text text-anchor="start" x="1065.57" y="-727" font-family="Helvetica,sans-Serif" font-size="10.00"> </text>
<text text-anchor="start" x="1065.57" y="-712" font-family="Helvetica,sans-Serif" font-size="10.00"> </text>
<polygon fill="#bfbfbf" stroke="#bfbfbf" points="989.07,-737 989.07,-737 1146.07,-737 1146.07,-737 989.07,-737"/>
<polygon fill="#bfbfbf" stroke="#bfbfbf" points="989.07,-722 989.07,-722 1146.07,-722 1146.07,-722 989.07,-722"/>
<polygon fill="none" stroke="#bfbfbf" points="988.57,-705.5 988.57,-754.5 1145.57,-754.5 1145.57,-705.5 988.57,-705.5"/>
</a>
</g>
</g>
<!-- Node11&#45;&gt;Node2 -->
<g id="edge13_Node000002_Node000011" class="edge">
<title>Node11&#45;&gt;Node2</title>
<g id="a_edge13_Node000002_Node000011"><a xlink:title=" ">
<path fill="none" stroke="#63b8ff" d="M1056.38,-705.36C1044.15,-678.15 1023.68,-632.06 1007.07,-592 992.98,-557.99 978.28,-521.2 964.65,-486.49"/>
<polygon fill="none" stroke="#63b8ff" points="964.64,-486.47 958.73,-482.34 960.26,-475.3 966.17,-479.42 964.64,-486.47"/>
</a>
</g>
<text text-anchor="middle" x="1040.57" y="-540" font-family="Helvetica,sans-Serif" font-size="10.00" fill="grey"> #mVariables</text>
</g>
<!-- Node12 -->
<g id="Node000012" class="node">
<title>Node12</title>
<g id="a_Node000012"><a xlink:href="classunsigned.html" target="_top" xlink:title=" ">
<polygon fill="white" stroke="transparent" points="1218.57,-754.5 1163.57,-754.5 1163.57,-705.5 1218.57,-705.5 1218.57,-754.5"/>
<text text-anchor="start" x="1169.07" y="-742" font-family="Helvetica,sans-Serif" font-size="10.00">unsigned</text>
<text text-anchor="start" x="1189.57" y="-727" font-family="Helvetica,sans-Serif" font-size="10.00"> </text>
<text text-anchor="start" x="1189.57" y="-712" font-family="Helvetica,sans-Serif" font-size="10.00"> </text>
<polygon fill="#bfbfbf" stroke="#bfbfbf" points="1164.07,-737 1164.07,-737 1219.07,-737 1219.07,-737 1164.07,-737"/>
<polygon fill="#bfbfbf" stroke="#bfbfbf" points="1164.07,-722 1164.07,-722 1219.07,-722 1219.07,-722 1164.07,-722"/>
<polygon fill="none" stroke="#bfbfbf" points="1163.57,-705.5 1163.57,-754.5 1218.57,-754.5 1218.57,-705.5 1163.57,-705.5"/>
</a>
</g>
</g>
<!-- Node12&#45;&gt;Node2 -->
<g id="edge14_Node000002_Node000012" class="edge">
<title>Node12&#45;&gt;Node2</title>
<g id="a_edge14_Node000002_Node000012"><a xlink:title=" ">
<path fill="none" stroke="#63b8ff" d="M1190.01,-705.14C1187.54,-678.44 1179.57,-635.6 1154.07,-610 1135.33,-591.17 1115.12,-611.5 1097.07,-592 1066.4,-558.84 1096.74,-532.08 1074.07,-493 1060.67,-469.89 1042.69,-448.21 1023.51,-428.81"/>
<polygon fill="none" stroke="#63b8ff" points="1023.47,-428.77 1016.39,-427.41 1014.92,-420.35 1022,-421.71 1023.47,-428.77"/>
</a>
</g>
<text text-anchor="middle" x="1133.57" y="-545.5" font-family="Helvetica,sans-Serif" font-size="10.00" fill="grey"> #mFieldWidth</text>
<text text-anchor="middle" x="1133.57" y="-534.5" font-family="Helvetica,sans-Serif" font-size="10.00" fill="grey">#mPrecision</text>
</g>
<!-- Node13 -->
<g id="Node000013" class="node">
<title>Node13</title>
<g id="a_Node000013"><a xlink:title=" ">
<polygon fill="white" stroke="transparent" points="1259.57,-754.5 1236.57,-754.5 1236.57,-705.5 1259.57,-705.5 1259.57,-754.5"/>
<text text-anchor="start" x="1242.07" y="-742" font-family="Helvetica,sans-Serif" font-size="10.00">int</text>
<text text-anchor="start" x="1246.57" y="-727" font-family="Helvetica,sans-Serif" font-size="10.00"> </text>
<text text-anchor="start" x="1246.57" y="-712" font-family="Helvetica,sans-Serif" font-size="10.00"> </text>
<polygon fill="#bfbfbf" stroke="#bfbfbf" points="1237.07,-737 1237.07,-737 1260.07,-737 1260.07,-737 1237.07,-737"/>
<polygon fill="#bfbfbf" stroke="#bfbfbf" points="1237.07,-722 1237.07,-722 1260.07,-722 1260.07,-722 1237.07,-722"/>
<polygon fill="none" stroke="#bfbfbf" points="1236.57,-705.5 1236.57,-754.5 1259.57,-754.5 1259.57,-705.5 1236.57,-705.5"/>
</a>
</g>
</g>
<!-- Node13&#45;&gt;Node2 -->
<g id="edge15_Node000002_Node000013" class="edge">
<title>Node13&#45;&gt;Node2</title>
<g id="a_edge15_Node000002_Node000013"><a xlink:title=" ">
<path fill="none" stroke="#63b8ff" d="M1249.72,-705.19C1250.28,-679.33 1247.45,-637.98 1227.07,-610 1217.01,-596.18 1203.5,-605.55 1193.07,-592 1165.52,-556.21 1196.83,-529.4 1170.07,-493 1133.97,-443.88 1077.1,-407.73 1025.55,-382.85"/>
<polygon fill="none" stroke="#63b8ff" points="1025.49,-382.83 1018.36,-383.89 1014.64,-377.71 1021.77,-376.65 1025.49,-382.83"/>
</a>
</g>
<text text-anchor="start" x="1193.07" y="-584" font-family="Helvetica,sans-Serif" font-size="10.00" fill="grey"> #FIXED_DIMENSION_VAR</text>
<text text-anchor="middle" x="1265.57" y="-573" font-family="Helvetica,sans-Serif" font-size="10.00" fill="grey">_ID</text>
<text text-anchor="middle" x="1265.57" y="-562" font-family="Helvetica,sans-Serif" font-size="10.00" fill="grey">#SPACING</text>
<text text-anchor="start" x="1193.07" y="-551" font-family="Helvetica,sans-Serif" font-size="10.00" fill="grey">#UNLIMITED_DIMENSION</text>
<text text-anchor="middle" x="1265.57" y="-540" font-family="Helvetica,sans-Serif" font-size="10.00" fill="grey">_VAR_ID</text>
<text text-anchor="middle" x="1265.57" y="-529" font-family="Helvetica,sans-Serif" font-size="10.00" fill="grey">#mAncillaryRowStartPosition</text>
<text text-anchor="middle" x="1265.57" y="-518" font-family="Helvetica,sans-Serif" font-size="10.00" fill="grey">#mAncillaryRowWidth</text>
<text text-anchor="middle" x="1265.57" y="-507" font-family="Helvetica,sans-Serif" font-size="10.00" fill="grey">#mRowStartPosition</text>
<text text-anchor="middle" x="1265.57" y="-496" font-family="Helvetica,sans-Serif" font-size="10.00" fill="grey">#mRowWidth</text>
</g>
<!-- Node14 -->
<g id="Node000014" class="node">
<title>Node14</title>
<g id="a_Node000014"><a xlink:href="classVec.html" target="_top" xlink:title=" ">
<polygon fill="white" stroke="transparent" points="1598.07,-362.5 1570.07,-362.5 1570.07,-313.5 1598.07,-313.5 1598.07,-362.5"/>
<text text-anchor="start" x="1575.07" y="-350" font-family="Helvetica,sans-Serif" font-size="10.00">Vec</text>
<text text-anchor="start" x="1582.07" y="-335" font-family="Helvetica,sans-Serif" font-size="10.00"> </text>
<text text-anchor="start" x="1582.07" y="-320" font-family="Helvetica,sans-Serif" font-size="10.00"> </text>
<polygon fill="#bfbfbf" stroke="#bfbfbf" points="1570.07,-345 1570.07,-345 1598.07,-345 1598.07,-345 1570.07,-345"/>
<polygon fill="#bfbfbf" stroke="#bfbfbf" points="1570.07,-330 1570.07,-330 1598.07,-330 1598.07,-330 1570.07,-330"/>
<polygon fill="none" stroke="#bfbfbf" points="1570.07,-313.5 1570.07,-362.5 1598.07,-362.5 1598.07,-313.5 1570.07,-313.5"/>
</a>
</g>
</g>
<!-- Node14&#45;&gt;Node1 -->
<g id="edge17_Node000001_Node000014" class="edge">
<title>Node14&#45;&gt;Node1</title>
<g id="a_edge17_Node000001_Node000014"><a xlink:title=" ">
<path fill="none" stroke="#63b8ff" d="M1581.86,-313.1C1578.79,-279.94 1573.07,-218.2 1568.26,-166.32"/>
<polygon fill="none" stroke="#63b8ff" points="1568.23,-165.99 1563.69,-160.39 1567.12,-154.05 1571.66,-159.65 1568.23,-165.99"/>
</a>
</g>
<text text-anchor="middle" x="1610.07" y="-175" font-family="Helvetica,sans-Serif" font-size="10.00" fill="grey"> &#45;mConcentrated</text>
</g>
<!-- Node15 -->
<g id="Node000015" class="node">
<title>Node15</title>
<g id="a_Node000015"><a xlink:title=" ">
<polygon fill="white" stroke="transparent" points="1715.07,-362.5 1653.07,-362.5 1653.07,-313.5 1715.07,-313.5 1715.07,-362.5"/>
<text text-anchor="start" x="1658.07" y="-350" font-family="Helvetica,sans-Serif" font-size="10.00">VecScatter</text>
<text text-anchor="start" x="1682.07" y="-335" font-family="Helvetica,sans-Serif" font-size="10.00"> </text>
<text text-anchor="start" x="1682.07" y="-320" font-family="Helvetica,sans-Serif" font-size="10.00"> </text>
<polygon fill="#bfbfbf" stroke="#bfbfbf" points="1653.07,-345 1653.07,-345 1715.07,-345 1715.07,-345 1653.07,-345"/>
<polygon fill="#bfbfbf" stroke="#bfbfbf" points="1653.07,-330 1653.07,-330 1715.07,-330 1715.07,-330 1653.07,-330"/>
<polygon fill="none" stroke="#bfbfbf" points="1653.07,-313.5 1653.07,-362.5 1715.07,-362.5 1715.07,-313.5 1653.07,-313.5"/>
</a>
</g>
</g>
<!-- Node15&#45;&gt;Node1 -->
<g id="edge18_Node000001_Node000015" class="edge">
<title>Node15&#45;&gt;Node1</title>
<g id="a_edge18_Node000001_Node000015"><a xlink:title=" ">
<path fill="none" stroke="#63b8ff" d="M1684.33,-313.44C1683.75,-280.07 1679.16,-217.99 1655.07,-172 1653.71,-169.4 1652.25,-166.82 1650.71,-164.28"/>
<polygon fill="none" stroke="#63b8ff" points="1650.54,-164.02 1643.89,-161.22 1643.92,-154.01 1650.56,-156.81 1650.54,-164.02"/>
</a>
</g>
<text text-anchor="middle" x="1688.57" y="-175" font-family="Helvetica,sans-Serif" font-size="10.00" fill="grey"> &#45;mToMaster</text>
</g>
</g>
</svg>
