<?xml version="1.0" encoding="UTF-8" standalone="no"?>
<!DOCTYPE svg PUBLIC "-//W3C//DTD SVG 1.1//EN"
 "http://www.w3.org/Graphics/SVG/1.1/DTD/svg11.dtd">
<!-- Generated by graphviz version 2.43.0 (0)
 -->
<!-- Title: ImplicitCardiacMechanicsSolver&lt; ELASTICITY_SOLVER, DIM &gt; Pages: 1 -->
<svg width="1965pt" height="979pt"
 viewBox="0.00 0.00 1964.50 979.00" xmlns="http://www.w3.org/2000/svg" xmlns:xlink="http://www.w3.org/1999/xlink">
<g id="graph0" class="graph" transform="scale(1 1) rotate(0) translate(4 975)">
<title>ImplicitCardiacMechanicsSolver&lt; ELASTICITY_SOLVER, DIM &gt;</title>
<!-- Node1 -->
<g id="Node000001" class="node">
<title>Node1</title>
<g id="a_Node000001"><a xlink:title=" ">
<polygon fill="#999999" stroke="transparent" points="964.5,-164 802.5,-164 802.5,0 964.5,0 964.5,-164"/>
<text text-anchor="start" x="811.5" y="-152" font-family="Helvetica,sans-Serif" font-size="10.00">ImplicitCardiacMechanics</text>
<text text-anchor="start" x="811.5" y="-141" font-family="Helvetica,sans-Serif" font-size="10.00">Solver&lt; ELASTICITY_SOLVER,</text>
<text text-anchor="start" x="866.5" y="-130" font-family="Helvetica,sans-Serif" font-size="10.00"> DIM &gt;</text>
<text text-anchor="start" x="881.5" y="-115" font-family="Helvetica,sans-Serif" font-size="10.00"> </text>
<text text-anchor="start" x="806.5" y="-100" font-family="Helvetica,sans-Serif" font-size="10.00">+</text>
<text text-anchor="start" x="819.5" y="-100" font-family="Helvetica,sans-Serif" font-size="10.00">ImplicitCardiacMechanics</text>
<text text-anchor="start" x="819.5" y="-89" font-family="Helvetica,sans-Serif" font-size="10.00">Solver()</text>
<text text-anchor="start" x="806.5" y="-74" font-family="Helvetica,sans-Serif" font-size="10.00">+</text>
<text text-anchor="start" x="819.5" y="-74" font-family="Helvetica,sans-Serif" font-size="10.00">~ImplicitCardiacMechanics</text>
<text text-anchor="start" x="819.5" y="-63" font-family="Helvetica,sans-Serif" font-size="10.00">Solver()</text>
<text text-anchor="start" x="806.5" y="-48" font-family="Helvetica,sans-Serif" font-size="10.00">+</text>
<text text-anchor="start" x="819.5" y="-48" font-family="Helvetica,sans-Serif" font-size="10.00">Solve()</text>
<text text-anchor="start" x="809" y="-33" font-family="Helvetica,sans-Serif" font-size="10.00">&#45;</text>
<text text-anchor="start" x="819.5" y="-33" font-family="Helvetica,sans-Serif" font-size="10.00">IsImplicitSolver()</text>
<text text-anchor="start" x="809" y="-18" font-family="Helvetica,sans-Serif" font-size="10.00">&#45;</text>
<text text-anchor="start" x="819.5" y="-18" font-family="Helvetica,sans-Serif" font-size="10.00">GetActiveTensionAndTension</text>
<text text-anchor="start" x="819.5" y="-7" font-family="Helvetica,sans-Serif" font-size="10.00">Derivs()</text>
<polygon fill="#666666" stroke="#666666" points="802.5,-125 802.5,-125 964.5,-125 964.5,-125 802.5,-125"/>
<polygon fill="#666666" stroke="#666666" points="802.5,-110 802.5,-110 964.5,-110 964.5,-110 802.5,-110"/>
<polygon fill="none" stroke="#666666" points="802.5,0 802.5,-164 964.5,-164 964.5,0 802.5,0"/>
</a>
</g>
</g>
<!-- Node2 -->
<g id="Node000002" class="node">
<title>Node2</title>
<g id="a_Node000002"><a xlink:href="classAbstractCardiacMechanicsSolver.html" target="_top" xlink:title=" ">
<polygon fill="white" stroke="transparent" points="978.5,-563 788.5,-563 788.5,-201 978.5,-201 978.5,-563"/>
<text text-anchor="start" x="811.5" y="-551" font-family="Helvetica,sans-Serif" font-size="10.00">AbstractCardiacMechanics</text>
<text text-anchor="start" x="811.5" y="-540" font-family="Helvetica,sans-Serif" font-size="10.00">Solver&lt; ELASTICITY_SOLVER,</text>
<text text-anchor="start" x="866.5" y="-529" font-family="Helvetica,sans-Serif" font-size="10.00"> DIM &gt;</text>
<text text-anchor="start" x="881.5" y="-514" font-family="Helvetica,sans-Serif" font-size="10.00"> </text>
<text text-anchor="start" x="792.5" y="-499" font-family="Helvetica,sans-Serif" font-size="10.00">+</text>
<text text-anchor="start" x="805.5" y="-499" font-family="Helvetica,sans-Serif" font-size="10.00">AbstractCardiacMechanics</text>
<text text-anchor="start" x="805.5" y="-488" font-family="Helvetica,sans-Serif" font-size="10.00">Solver()</text>
<text text-anchor="start" x="792.5" y="-473" font-family="Helvetica,sans-Serif" font-size="10.00">+</text>
<text text-anchor="start" x="805.5" y="-473" font-family="Helvetica,sans-Serif" font-size="10.00">~AbstractCardiacMechanics</text>
<text text-anchor="start" x="805.5" y="-462" font-family="Helvetica,sans-Serif" font-size="10.00">Solver()</text>
<text text-anchor="start" x="792.5" y="-447" font-family="Helvetica,sans-Serif" font-size="10.00">+</text>
<text text-anchor="start" x="805.5" y="-447" font-family="Helvetica,sans-Serif" font-size="10.00">SetFineCoarseMeshPair()</text>
<text text-anchor="start" x="792.5" y="-432" font-family="Helvetica,sans-Serif" font-size="10.00">+</text>
<text text-anchor="start" x="805.5" y="-432" font-family="Helvetica,sans-Serif" font-size="10.00">GetTotalNumQuadPoints()</text>
<text text-anchor="start" x="792.5" y="-417" font-family="Helvetica,sans-Serif" font-size="10.00">+</text>
<text text-anchor="start" x="805.5" y="-417" font-family="Helvetica,sans-Serif" font-size="10.00">GetQuadratureRule()</text>
<text text-anchor="start" x="792.5" y="-402" font-family="Helvetica,sans-Serif" font-size="10.00">+</text>
<text text-anchor="start" x="805.5" y="-402" font-family="Helvetica,sans-Serif" font-size="10.00">rGetQuadPointToDataAtQuad</text>
<text text-anchor="start" x="805.5" y="-391" font-family="Helvetica,sans-Serif" font-size="10.00">PointMap()</text>
<text text-anchor="start" x="792.5" y="-376" font-family="Helvetica,sans-Serif" font-size="10.00">+</text>
<text text-anchor="start" x="805.5" y="-376" font-family="Helvetica,sans-Serif" font-size="10.00">SetConstantFibreSheetDirections()</text>
<text text-anchor="start" x="792.5" y="-361" font-family="Helvetica,sans-Serif" font-size="10.00">+</text>
<text text-anchor="start" x="805.5" y="-361" font-family="Helvetica,sans-Serif" font-size="10.00">SetVariableFibreSheetDirections()</text>
<text text-anchor="start" x="792.5" y="-346" font-family="Helvetica,sans-Serif" font-size="10.00">+</text>
<text text-anchor="start" x="805.5" y="-346" font-family="Helvetica,sans-Serif" font-size="10.00">SetCalciumAndVoltage()</text>
<text text-anchor="start" x="792.5" y="-331" font-family="Helvetica,sans-Serif" font-size="10.00">+</text>
<text text-anchor="start" x="805.5" y="-331" font-family="Helvetica,sans-Serif" font-size="10.00">Solve()</text>
<text text-anchor="start" x="792.5" y="-316" font-family="Helvetica,sans-Serif" font-size="10.00">+</text>
<text text-anchor="start" x="805.5" y="-316" font-family="Helvetica,sans-Serif" font-size="10.00">ComputeDeformationGradient</text>
<text text-anchor="start" x="805.5" y="-305" font-family="Helvetica,sans-Serif" font-size="10.00">AndStretchInEachElement()</text>
<text text-anchor="start" x="792.5" y="-290" font-family="Helvetica,sans-Serif" font-size="10.00">#</text>
<text text-anchor="start" x="805.5" y="-290" font-family="Helvetica,sans-Serif" font-size="10.00">IsImplicitSolver()</text>
<text text-anchor="start" x="792.5" y="-275" font-family="Helvetica,sans-Serif" font-size="10.00">#</text>
<text text-anchor="start" x="805.5" y="-275" font-family="Helvetica,sans-Serif" font-size="10.00">AddActiveStressAndStress</text>
<text text-anchor="start" x="805.5" y="-264" font-family="Helvetica,sans-Serif" font-size="10.00">Derivative()</text>
<text text-anchor="start" x="792.5" y="-249" font-family="Helvetica,sans-Serif" font-size="10.00">#</text>
<text text-anchor="start" x="805.5" y="-249" font-family="Helvetica,sans-Serif" font-size="10.00">SetupChangeOfBasisMatrix()</text>
<text text-anchor="start" x="792.5" y="-234" font-family="Helvetica,sans-Serif" font-size="10.00">#</text>
<text text-anchor="start" x="805.5" y="-234" font-family="Helvetica,sans-Serif" font-size="10.00">Initialise()</text>
<text text-anchor="start" x="792.5" y="-219" font-family="Helvetica,sans-Serif" font-size="10.00">#</text>
<text text-anchor="start" x="805.5" y="-219" font-family="Helvetica,sans-Serif" font-size="10.00">GetActiveTensionAndTension</text>
<text text-anchor="start" x="805.5" y="-208" font-family="Helvetica,sans-Serif" font-size="10.00">Derivs()</text>
<polygon fill="#666666" stroke="#666666" points="788.5,-524 788.5,-524 978.5,-524 978.5,-524 788.5,-524"/>
<polygon fill="#666666" stroke="#666666" points="788.5,-509 788.5,-509 978.5,-509 978.5,-509 788.5,-509"/>
<polygon fill="none" stroke="#666666" points="788.5,-201 788.5,-563 978.5,-563 978.5,-201 788.5,-201"/>
</a>
</g>
</g>
<!-- Node2&#45;&gt;Node1 -->
<g id="edge1_Node000001_Node000002" class="edge">
<title>Node2&#45;&gt;Node1</title>
<g id="a_edge1_Node000001_Node000002"><a xlink:title=" ">
<path fill="none" stroke="#63b8ff" d="M883.5,-190.5C883.5,-181.47 883.5,-172.66 883.5,-164.23"/>
<polygon fill="none" stroke="#63b8ff" points="880,-190.78 883.5,-200.78 887,-190.78 880,-190.78"/>
</a>
</g>
</g>
<!-- Node3 -->
<g id="Node000003" class="node">
<title>Node3</title>
<g id="a_Node000003"><a xlink:href="classELASTICITY__SOLVER.html" target="_top" xlink:title=" ">
<polygon fill="white" stroke="transparent" points="109,-778 0,-778 0,-729 109,-729 109,-778"/>
<text text-anchor="start" x="5.5" y="-765.5" font-family="Helvetica,sans-Serif" font-size="10.00">ELASTICITY_SOLVER</text>
<text text-anchor="start" x="53" y="-750.5" font-family="Helvetica,sans-Serif" font-size="10.00"> </text>
<text text-anchor="start" x="53" y="-735.5" font-family="Helvetica,sans-Serif" font-size="10.00"> </text>
<polygon fill="#bfbfbf" stroke="#bfbfbf" points="0.5,-760.5 0.5,-760.5 109.5,-760.5 109.5,-760.5 0.5,-760.5"/>
<polygon fill="#bfbfbf" stroke="#bfbfbf" points="0.5,-745.5 0.5,-745.5 109.5,-745.5 109.5,-745.5 0.5,-745.5"/>
<polygon fill="none" stroke="#bfbfbf" points="0,-729 0,-778 109,-778 109,-729 0,-729"/>
</a>
</g>
</g>
<!-- Node3&#45;&gt;Node2 -->
<g id="edge2_Node000002_Node000003" class="edge">
<title>Node3&#45;&gt;Node2</title>
<g id="a_edge2_Node000002_Node000003"><a xlink:title=" ">
<path fill="none" stroke="#63b8ff" d="M64.54,-718.82C74.23,-691.78 91.48,-654.7 118.5,-632 317.69,-464.69 631.97,-409.03 788.44,-391.12"/>
<polygon fill="none" stroke="#63b8ff" points="61.1,-718.05 61.19,-728.65 67.73,-720.31 61.1,-718.05"/>
</a>
</g>
</g>
<!-- Node4 -->
<g id="Node000004" class="node">
<title>Node4</title>
<g id="a_Node000004"><a xlink:href="classAbstractCardiacMechanicsSolverInterface.html" target="_top" xlink:title=" ">
<polygon fill="white" stroke="transparent" points="317.5,-875 127.5,-875 127.5,-632 317.5,-632 317.5,-875"/>
<text text-anchor="start" x="157.5" y="-862.5" font-family="Helvetica,sans-Serif" font-size="10.00">AbstractCardiacMechanics</text>
<text text-anchor="start" x="164" y="-851.5" font-family="Helvetica,sans-Serif" font-size="10.00">SolverInterface&lt; DIM &gt;</text>
<text text-anchor="start" x="220.5" y="-836.5" font-family="Helvetica,sans-Serif" font-size="10.00"> </text>
<text text-anchor="start" x="131.5" y="-821.5" font-family="Helvetica,sans-Serif" font-size="10.00">+</text>
<text text-anchor="start" x="144.5" y="-821.5" font-family="Helvetica,sans-Serif" font-size="10.00">AbstractCardiacMechanics</text>
<text text-anchor="start" x="144.5" y="-810.5" font-family="Helvetica,sans-Serif" font-size="10.00">SolverInterface()</text>
<text text-anchor="start" x="131.5" y="-795.5" font-family="Helvetica,sans-Serif" font-size="10.00">+</text>
<text text-anchor="start" x="144.5" y="-795.5" font-family="Helvetica,sans-Serif" font-size="10.00">~AbstractCardiacMechanics</text>
<text text-anchor="start" x="144.5" y="-784.5" font-family="Helvetica,sans-Serif" font-size="10.00">SolverInterface()</text>
<text text-anchor="start" x="131.5" y="-769.5" font-family="Helvetica,sans-Serif" font-size="10.00">+</text>
<text text-anchor="start" x="144.5" y="-769.5" font-family="Helvetica,sans-Serif" font-size="10.00">GetTotalNumQuadPoints()</text>
<text text-anchor="start" x="131.5" y="-754.5" font-family="Helvetica,sans-Serif" font-size="10.00">+</text>
<text text-anchor="start" x="144.5" y="-754.5" font-family="Helvetica,sans-Serif" font-size="10.00">GetQuadratureRule()</text>
<text text-anchor="start" x="131.5" y="-739.5" font-family="Helvetica,sans-Serif" font-size="10.00">+</text>
<text text-anchor="start" x="144.5" y="-739.5" font-family="Helvetica,sans-Serif" font-size="10.00">Initialise()</text>
<text text-anchor="start" x="131.5" y="-724.5" font-family="Helvetica,sans-Serif" font-size="10.00">+</text>
<text text-anchor="start" x="144.5" y="-724.5" font-family="Helvetica,sans-Serif" font-size="10.00">SetFineCoarseMeshPair()</text>
<text text-anchor="start" x="131.5" y="-709.5" font-family="Helvetica,sans-Serif" font-size="10.00">+</text>
<text text-anchor="start" x="144.5" y="-709.5" font-family="Helvetica,sans-Serif" font-size="10.00">SetConstantFibreSheetDirections()</text>
<text text-anchor="start" x="131.5" y="-694.5" font-family="Helvetica,sans-Serif" font-size="10.00">+</text>
<text text-anchor="start" x="144.5" y="-694.5" font-family="Helvetica,sans-Serif" font-size="10.00">SetVariableFibreSheetDirections()</text>
<text text-anchor="start" x="131.5" y="-679.5" font-family="Helvetica,sans-Serif" font-size="10.00">+</text>
<text text-anchor="start" x="144.5" y="-679.5" font-family="Helvetica,sans-Serif" font-size="10.00">SetCalciumAndVoltage()</text>
<text text-anchor="start" x="131.5" y="-664.5" font-family="Helvetica,sans-Serif" font-size="10.00">+</text>
<text text-anchor="start" x="144.5" y="-664.5" font-family="Helvetica,sans-Serif" font-size="10.00">Solve()</text>
<text text-anchor="start" x="131.5" y="-649.5" font-family="Helvetica,sans-Serif" font-size="10.00">+</text>
<text text-anchor="start" x="144.5" y="-649.5" font-family="Helvetica,sans-Serif" font-size="10.00">ComputeDeformationGradient</text>
<text text-anchor="start" x="144.5" y="-638.5" font-family="Helvetica,sans-Serif" font-size="10.00">AndStretchInEachElement()</text>
<polygon fill="#666666" stroke="#666666" points="127.5,-846.5 127.5,-846.5 317.5,-846.5 317.5,-846.5 127.5,-846.5"/>
<polygon fill="#666666" stroke="#666666" points="127.5,-831.5 127.5,-831.5 317.5,-831.5 317.5,-831.5 127.5,-831.5"/>
<polygon fill="none" stroke="#666666" points="127.5,-632 127.5,-875 317.5,-875 317.5,-632 127.5,-632"/>
</a>
</g>
</g>
<!-- Node4&#45;&gt;Node2 -->
<g id="edge3_Node000002_Node000004" class="edge">
<title>Node4&#45;&gt;Node2</title>
<g id="a_edge3_Node000002_Node000004"><a xlink:title=" ">
<path fill="none" stroke="#63b8ff" d="M305.06,-624C318.91,-608.15 334.14,-593.25 350.5,-581 484.64,-480.57 675.24,-426.27 788.44,-401.08"/>
<polygon fill="none" stroke="#63b8ff" points="302.2,-621.96 298.38,-631.84 307.53,-626.5 302.2,-621.96"/>
</a>
</g>
</g>
<!-- Node5 -->
<g id="Node000005" class="node">
<title>Node5</title>
<g id="a_Node000005"><a xlink:href="classunsigned.html" target="_top" xlink:title=" ">
<polygon fill="white" stroke="transparent" points="391,-778 336,-778 336,-729 391,-729 391,-778"/>
<text text-anchor="start" x="341.5" y="-765.5" font-family="Helvetica,sans-Serif" font-size="10.00">unsigned</text>
<text text-anchor="start" x="362" y="-750.5" font-family="Helvetica,sans-Serif" font-size="10.00"> </text>
<text text-anchor="start" x="362" y="-735.5" font-family="Helvetica,sans-Serif" font-size="10.00"> </text>
<polygon fill="#bfbfbf" stroke="#bfbfbf" points="336.5,-760.5 336.5,-760.5 391.5,-760.5 391.5,-760.5 336.5,-760.5"/>
<polygon fill="#bfbfbf" stroke="#bfbfbf" points="336.5,-745.5 336.5,-745.5 391.5,-745.5 391.5,-745.5 336.5,-745.5"/>
<polygon fill="none" stroke="#bfbfbf" points="336,-729 336,-778 391,-778 391,-729 336,-729"/>
</a>
</g>
</g>
<!-- Node5&#45;&gt;Node2 -->
<g id="edge4_Node000002_Node000005" class="edge">
<title>Node5&#45;&gt;Node2</title>
<g id="a_edge4_Node000002_Node000005"><a xlink:title=" ">
<path fill="none" stroke="#63b8ff" d="M356.83,-728.86C348.28,-693.21 338.04,-625.16 369.5,-581 462.71,-450.17 654.91,-405.78 776.05,-390.73"/>
<polygon fill="none" stroke="#63b8ff" points="776.36,-390.69 781.85,-386.01 788.28,-389.28 782.79,-393.96 776.36,-390.69"/>
</a>
</g>
<text text-anchor="middle" x="451" y="-600.5" font-family="Helvetica,sans-Serif" font-size="10.00" fill="grey"> #NUM_VERTICES_PER_ELEMENT</text>
<text text-anchor="middle" x="451" y="-589.5" font-family="Helvetica,sans-Serif" font-size="10.00" fill="grey">#mTotalQuadPoints</text>
</g>
<!-- Node6 -->
<g id="Node000006" class="node">
<title>Node6</title>
<g id="a_Node000006"><a xlink:title=" ">
<polygon fill="white" stroke="transparent" points="615.5,-783.5 433.5,-783.5 433.5,-723.5 615.5,-723.5 615.5,-783.5"/>
<text text-anchor="start" x="438.5" y="-771.5" font-family="Helvetica,sans-Serif" font-size="10.00">map&lt; unsigned, DataAtQuadrature</text>
<text text-anchor="start" x="503.5" y="-760.5" font-family="Helvetica,sans-Serif" font-size="10.00">Point_ &gt;</text>
<text text-anchor="start" x="522.5" y="-745.5" font-family="Helvetica,sans-Serif" font-size="10.00"> </text>
<text text-anchor="start" x="522.5" y="-730.5" font-family="Helvetica,sans-Serif" font-size="10.00"> </text>
<polygon fill="#bfbfbf" stroke="#bfbfbf" points="433.5,-755.5 433.5,-755.5 615.5,-755.5 615.5,-755.5 433.5,-755.5"/>
<polygon fill="#bfbfbf" stroke="#bfbfbf" points="433.5,-740.5 433.5,-740.5 615.5,-740.5 615.5,-740.5 433.5,-740.5"/>
<polygon fill="none" stroke="#bfbfbf" points="433.5,-723.5 433.5,-783.5 615.5,-783.5 615.5,-723.5 433.5,-723.5"/>
</a>
</g>
</g>
<!-- Node6&#45;&gt;Node2 -->
<g id="edge5_Node000002_Node000006" class="edge">
<title>Node6&#45;&gt;Node2</title>
<g id="a_edge5_Node000002_Node000006"><a xlink:title=" ">
<path fill="none" stroke="#63b8ff" d="M521.95,-723.41C520.24,-686.97 522.37,-624.07 551.5,-581 605.05,-501.81 701.79,-449.45 777.08,-418.57"/>
<polygon fill="none" stroke="#63b8ff" points="777.36,-418.46 781.44,-412.51 788.5,-413.99 784.42,-419.94 777.36,-418.46"/>
</a>
</g>
<text text-anchor="middle" x="645" y="-595" font-family="Helvetica,sans-Serif" font-size="10.00" fill="grey"> #mQuadPointToDataAtQuadPointMap</text>
</g>
<!-- Node7 -->
<g id="Node000007" class="node">
<title>Node7</title>
<g id="a_Node000007"><a xlink:title=" ">
<polygon fill="white" stroke="transparent" points="758,-778 711,-778 711,-729 758,-729 758,-778"/>
<text text-anchor="start" x="716.5" y="-765.5" font-family="Helvetica,sans-Serif" font-size="10.00">iterator</text>
<text text-anchor="start" x="733" y="-750.5" font-family="Helvetica,sans-Serif" font-size="10.00"> </text>
<text text-anchor="start" x="733" y="-735.5" font-family="Helvetica,sans-Serif" font-size="10.00"> </text>
<polygon fill="#bfbfbf" stroke="#bfbfbf" points="711.5,-760.5 711.5,-760.5 758.5,-760.5 758.5,-760.5 711.5,-760.5"/>
<polygon fill="#bfbfbf" stroke="#bfbfbf" points="711.5,-745.5 711.5,-745.5 758.5,-745.5 758.5,-745.5 711.5,-745.5"/>
<polygon fill="none" stroke="#bfbfbf" points="711,-729 711,-778 758,-778 758,-729 711,-729"/>
</a>
</g>
</g>
<!-- Node7&#45;&gt;Node2 -->
<g id="edge6_Node000002_Node000007" class="edge">
<title>Node7&#45;&gt;Node2</title>
<g id="a_edge6_Node000002_Node000007"><a xlink:title=" ">
<path fill="none" stroke="#63b8ff" d="M733.29,-728.97C732.34,-695.18 733.47,-631.43 751.5,-581 759.35,-559.04 770.16,-537.13 782.24,-516.32"/>
<polygon fill="none" stroke="#63b8ff" points="782.33,-516.18 781.96,-508.98 788.47,-505.88 788.83,-513.08 782.33,-516.18"/>
</a>
</g>
<text text-anchor="middle" x="791" y="-595" font-family="Helvetica,sans-Serif" font-size="10.00" fill="grey"> #mMapIterator</text>
</g>
<!-- Node8 -->
<g id="Node000008" class="node">
<title>Node8</title>
<g id="a_Node000008"><a xlink:title=" ">
<polygon fill="white" stroke="transparent" points="891,-783.5 782,-783.5 782,-723.5 891,-723.5 891,-783.5"/>
<text text-anchor="start" x="787.5" y="-771.5" font-family="Helvetica,sans-Serif" font-size="10.00">FineCoarseMeshPair</text>
<text text-anchor="start" x="811.5" y="-760.5" font-family="Helvetica,sans-Serif" font-size="10.00">&lt; DIM &gt; *</text>
<text text-anchor="start" x="835" y="-745.5" font-family="Helvetica,sans-Serif" font-size="10.00"> </text>
<text text-anchor="start" x="835" y="-730.5" font-family="Helvetica,sans-Serif" font-size="10.00"> </text>
<polygon fill="#bfbfbf" stroke="#bfbfbf" points="782.5,-755.5 782.5,-755.5 891.5,-755.5 891.5,-755.5 782.5,-755.5"/>
<polygon fill="#bfbfbf" stroke="#bfbfbf" points="782.5,-740.5 782.5,-740.5 891.5,-740.5 891.5,-740.5 782.5,-740.5"/>
<polygon fill="none" stroke="#bfbfbf" points="782,-723.5 782,-783.5 891,-783.5 891,-723.5 782,-723.5"/>
</a>
</g>
</g>
<!-- Node8&#45;&gt;Node2 -->
<g id="edge7_Node000002_Node000008" class="edge">
<title>Node8&#45;&gt;Node2</title>
<g id="a_edge7_Node000002_Node000008"><a xlink:title=" ">
<path fill="none" stroke="#63b8ff" d="M834.7,-723.25C833.05,-689.01 831.66,-630.68 837.5,-581 837.73,-579.07 837.96,-577.14 838.21,-575.2"/>
<polygon fill="none" stroke="#63b8ff" points="838.23,-575.07 835.09,-568.58 839.87,-563.19 843.01,-569.68 838.23,-575.07"/>
</a>
</g>
<text text-anchor="middle" x="873.5" y="-595" font-family="Helvetica,sans-Serif" font-size="10.00" fill="grey"> #mpMeshPair</text>
</g>
<!-- Node9 -->
<g id="Node000009" class="node">
<title>Node9</title>
<g id="a_Node000009"><a xlink:href="classdouble.html" target="_top" xlink:title=" ">
<polygon fill="white" stroke="transparent" points="953.5,-778 909.5,-778 909.5,-729 953.5,-729 953.5,-778"/>
<text text-anchor="start" x="914.5" y="-765.5" font-family="Helvetica,sans-Serif" font-size="10.00">double</text>
<text text-anchor="start" x="929.5" y="-750.5" font-family="Helvetica,sans-Serif" font-size="10.00"> </text>
<text text-anchor="start" x="929.5" y="-735.5" font-family="Helvetica,sans-Serif" font-size="10.00"> </text>
<polygon fill="#bfbfbf" stroke="#bfbfbf" points="909.5,-760.5 909.5,-760.5 953.5,-760.5 953.5,-760.5 909.5,-760.5"/>
<polygon fill="#bfbfbf" stroke="#bfbfbf" points="909.5,-745.5 909.5,-745.5 953.5,-745.5 953.5,-745.5 909.5,-745.5"/>
<polygon fill="none" stroke="#bfbfbf" points="909.5,-729 909.5,-778 953.5,-778 953.5,-729 909.5,-729"/>
</a>
</g>
</g>
<!-- Node9&#45;&gt;Node2 -->
<g id="edge8_Node000002_Node000009" class="edge">
<title>Node9&#45;&gt;Node2</title>
<g id="a_edge8_Node000002_Node000009"><a xlink:title=" ">
<path fill="none" stroke="#63b8ff" d="M928.5,-728.92C924.28,-695.85 916.36,-633.84 909.5,-581 909.25,-579.08 909,-577.15 908.75,-575.22"/>
<polygon fill="none" stroke="#63b8ff" points="908.74,-575.11 903.99,-569.68 907.19,-563.21 911.93,-568.65 908.74,-575.11"/>
</a>
</g>
<text text-anchor="middle" x="955.5" y="-606" font-family="Helvetica,sans-Serif" font-size="10.00" fill="grey"> #mCurrentTime</text>
<text text-anchor="middle" x="955.5" y="-595" font-family="Helvetica,sans-Serif" font-size="10.00" fill="grey">#mNextTime</text>
<text text-anchor="middle" x="955.5" y="-584" font-family="Helvetica,sans-Serif" font-size="10.00" fill="grey">#mOdeTimestep</text>
</g>
<!-- Node10 -->
<g id="Node000010" class="node">
<title>Node10</title>
<g id="a_Node000010"><a xlink:title=" ">
<polygon fill="white" stroke="transparent" points="1101.5,-783.5 975.5,-783.5 975.5,-723.5 1101.5,-723.5 1101.5,-783.5"/>
<text text-anchor="start" x="980.5" y="-771.5" font-family="Helvetica,sans-Serif" font-size="10.00">c_matrix&lt; double, DIM,</text>
<text text-anchor="start" x="1021.5" y="-760.5" font-family="Helvetica,sans-Serif" font-size="10.00"> DIM &gt;</text>
<text text-anchor="start" x="1036.5" y="-745.5" font-family="Helvetica,sans-Serif" font-size="10.00"> </text>
<text text-anchor="start" x="1036.5" y="-730.5" font-family="Helvetica,sans-Serif" font-size="10.00"> </text>
<polygon fill="#bfbfbf" stroke="#bfbfbf" points="975.5,-755.5 975.5,-755.5 1101.5,-755.5 1101.5,-755.5 975.5,-755.5"/>
<polygon fill="#bfbfbf" stroke="#bfbfbf" points="975.5,-740.5 975.5,-740.5 1101.5,-740.5 1101.5,-740.5 975.5,-740.5"/>
<polygon fill="none" stroke="#bfbfbf" points="975.5,-723.5 975.5,-783.5 1101.5,-783.5 1101.5,-723.5 975.5,-723.5"/>
</a>
</g>
</g>
<!-- Node10&#45;&gt;Node2 -->
<g id="edge9_Node000002_Node000010" class="edge">
<title>Node10&#45;&gt;Node2</title>
<g id="a_edge9_Node000002_Node000010"><a xlink:title=" ">
<path fill="none" stroke="#63b8ff" d="M1035.16,-723.45C1030.5,-688.65 1020.41,-629.04 1001.5,-581 996.38,-567.98 990.45,-554.83 984.04,-541.81"/>
<polygon fill="none" stroke="#63b8ff" points="983.95,-541.64 977.68,-538.08 978.55,-530.92 984.82,-534.48 983.95,-541.64"/>
</a>
</g>
<text text-anchor="middle" x="1094.5" y="-595" font-family="Helvetica,sans-Serif" font-size="10.00" fill="grey"> #mConstantFibreSheetDirections</text>
</g>
<!-- Node11 -->
<g id="Node000011" class="node">
<title>Node11</title>
<g id="a_Node000011"><a xlink:title=" ">
<polygon fill="white" stroke="transparent" points="1065,-971 1012,-971 1012,-922 1065,-922 1065,-971"/>
<text text-anchor="start" x="1017.5" y="-958.5" font-family="Helvetica,sans-Serif" font-size="10.00">c_matrix</text>
<text text-anchor="start" x="1037" y="-943.5" font-family="Helvetica,sans-Serif" font-size="10.00"> </text>
<text text-anchor="start" x="1037" y="-928.5" font-family="Helvetica,sans-Serif" font-size="10.00"> </text>
<polygon fill="#bfbfbf" stroke="#bfbfbf" points="1012.5,-953.5 1012.5,-953.5 1065.5,-953.5 1065.5,-953.5 1012.5,-953.5"/>
<polygon fill="#bfbfbf" stroke="#bfbfbf" points="1012.5,-938.5 1012.5,-938.5 1065.5,-938.5 1065.5,-938.5 1012.5,-938.5"/>
<polygon fill="none" stroke="#bfbfbf" points="1012,-922 1012,-971 1065,-971 1065,-922 1012,-922"/>
</a>
</g>
</g>
<!-- Node11&#45;&gt;Node10 -->
<g id="edge10_Node000010_Node000011" class="edge">
<title>Node11&#45;&gt;Node10</title>
<g id="a_edge10_Node000010_Node000011"><a xlink:title=" ">
<path fill="none" stroke="orange" d="M1038.5,-911.57C1038.5,-875.19 1038.5,-818.02 1038.5,-783.61"/>
<polygon fill="orange" stroke="orange" points="1035,-911.7 1038.5,-921.7 1042,-911.7 1035,-911.7"/>
</a>
</g>
<text text-anchor="middle" x="1093.5" y="-896" font-family="Helvetica,sans-Serif" font-size="10.00" fill="grey"> &lt; double, DIM, DIM &gt;</text>
</g>
<!-- Node12 -->
<g id="Node000012" class="node">
<title>Node12</title>
<g id="a_Node000012"><a xlink:title=" ">
<polygon fill="white" stroke="transparent" points="1299,-783.5 1156,-783.5 1156,-723.5 1299,-723.5 1299,-783.5"/>
<text text-anchor="start" x="1161.5" y="-771.5" font-family="Helvetica,sans-Serif" font-size="10.00">vector&lt; c_matrix&lt; double,</text>
<text text-anchor="start" x="1188.5" y="-760.5" font-family="Helvetica,sans-Serif" font-size="10.00"> DIM, DIM &gt; &gt; *</text>
<text text-anchor="start" x="1226" y="-745.5" font-family="Helvetica,sans-Serif" font-size="10.00"> </text>
<text text-anchor="start" x="1226" y="-730.5" font-family="Helvetica,sans-Serif" font-size="10.00"> </text>
<polygon fill="#bfbfbf" stroke="#bfbfbf" points="1156.5,-755.5 1156.5,-755.5 1299.5,-755.5 1299.5,-755.5 1156.5,-755.5"/>
<polygon fill="#bfbfbf" stroke="#bfbfbf" points="1156.5,-740.5 1156.5,-740.5 1299.5,-740.5 1299.5,-740.5 1156.5,-740.5"/>
<polygon fill="none" stroke="#bfbfbf" points="1156,-723.5 1156,-783.5 1299,-783.5 1299,-723.5 1156,-723.5"/>
</a>
</g>
</g>
<!-- Node12&#45;&gt;Node2 -->
<g id="edge11_Node000002_Node000012" class="edge">
<title>Node12&#45;&gt;Node2</title>
<g id="a_edge11_Node000002_Node000012"><a xlink:title=" ">
<path fill="none" stroke="#63b8ff" d="M1225.92,-723.45C1222.63,-687.04 1212.54,-624.18 1181.5,-581 1133.09,-513.65 1054.11,-462.69 989.62,-429.35"/>
<polygon fill="none" stroke="#63b8ff" points="989.28,-429.18 982.12,-430.02 978.58,-423.74 985.74,-422.89 989.28,-429.18"/>
</a>
</g>
<text text-anchor="middle" x="1282" y="-595" font-family="Helvetica,sans-Serif" font-size="10.00" fill="grey"> #mpVariableFibreSheetDirections</text>
</g>
<!-- Node13 -->
<g id="Node000013" class="node">
<title>Node13</title>
<g id="a_Node000013"><a xlink:href="classbool.html" target="_top" xlink:title=" ">
<polygon fill="white" stroke="transparent" points="1435.5,-778 1403.5,-778 1403.5,-729 1435.5,-729 1435.5,-778"/>
<text text-anchor="start" x="1408.5" y="-765.5" font-family="Helvetica,sans-Serif" font-size="10.00">bool</text>
<text text-anchor="start" x="1417.5" y="-750.5" font-family="Helvetica,sans-Serif" font-size="10.00"> </text>
<text text-anchor="start" x="1417.5" y="-735.5" font-family="Helvetica,sans-Serif" font-size="10.00"> </text>
<polygon fill="#bfbfbf" stroke="#bfbfbf" points="1403.5,-760.5 1403.5,-760.5 1435.5,-760.5 1435.5,-760.5 1403.5,-760.5"/>
<polygon fill="#bfbfbf" stroke="#bfbfbf" points="1403.5,-745.5 1403.5,-745.5 1435.5,-745.5 1435.5,-745.5 1403.5,-745.5"/>
<polygon fill="none" stroke="#bfbfbf" points="1403.5,-729 1403.5,-778 1435.5,-778 1435.5,-729 1403.5,-729"/>
</a>
</g>
</g>
<!-- Node13&#45;&gt;Node2 -->
<g id="edge12_Node000002_Node000013" class="edge">
<title>Node13&#45;&gt;Node2</title>
<g id="a_edge12_Node000002_Node000013"><a xlink:title=" ">
<path fill="none" stroke="#63b8ff" d="M1419.05,-728.9C1417.13,-692.69 1408.35,-623.17 1370.5,-581 1271.24,-470.41 1101.25,-420.4 990.64,-398.65"/>
<polygon fill="none" stroke="#63b8ff" points="990.58,-398.63 983.94,-401.44 978.8,-396.38 985.44,-393.58 990.58,-398.63"/>
</a>
</g>
<text text-anchor="start" x="1391.5" y="-600.5" font-family="Helvetica,sans-Serif" font-size="10.00" fill="grey"> #mFibreSheetDirectionsDefined</text>
<text text-anchor="middle" x="1471.5" y="-589.5" font-family="Helvetica,sans-Serif" font-size="10.00" fill="grey">ByQuadraturePoint</text>
</g>
<!-- Node14 -->
<g id="Node000014" class="node">
<title>Node14</title>
<g id="a_Node000014"><a xlink:title=" ">
<polygon fill="white" stroke="transparent" points="1669,-778 1536,-778 1536,-729 1669,-729 1669,-778"/>
<text text-anchor="start" x="1541.5" y="-765.5" font-family="Helvetica,sans-Serif" font-size="10.00">c_vector&lt; double, DIM &gt;</text>
<text text-anchor="start" x="1601" y="-750.5" font-family="Helvetica,sans-Serif" font-size="10.00"> </text>
<text text-anchor="start" x="1601" y="-735.5" font-family="Helvetica,sans-Serif" font-size="10.00"> </text>
<polygon fill="#bfbfbf" stroke="#bfbfbf" points="1536.5,-760.5 1536.5,-760.5 1669.5,-760.5 1669.5,-760.5 1536.5,-760.5"/>
<polygon fill="#bfbfbf" stroke="#bfbfbf" points="1536.5,-745.5 1536.5,-745.5 1669.5,-745.5 1669.5,-745.5 1536.5,-745.5"/>
<polygon fill="none" stroke="#bfbfbf" points="1536,-729 1536,-778 1669,-778 1669,-729 1536,-729"/>
</a>
</g>
</g>
<!-- Node14&#45;&gt;Node2 -->
<g id="edge13_Node000002_Node000014" class="edge">
<title>Node14&#45;&gt;Node2</title>
<g id="a_edge13_Node000002_Node000014"><a xlink:title=" ">
<path fill="none" stroke="#63b8ff" d="M1602.87,-728.76C1602.12,-692.02 1595.17,-621.44 1555.5,-581 1403.99,-426.57 1138.6,-391.16 990.72,-383.92"/>
<polygon fill="none" stroke="#63b8ff" points="990.53,-383.91 984.35,-387.64 978.54,-383.37 984.71,-379.65 990.53,-383.91"/>
</a>
</g>
<text text-anchor="middle" x="1678" y="-606" font-family="Helvetica,sans-Serif" font-size="10.00" fill="grey"> #mCurrentElementFibreDirection</text>
<text text-anchor="middle" x="1678" y="-595" font-family="Helvetica,sans-Serif" font-size="10.00" fill="grey">#mCurrentElementSheetDirection</text>
<text text-anchor="middle" x="1678" y="-584" font-family="Helvetica,sans-Serif" font-size="10.00" fill="grey">#mCurrentElementSheetNormalDirection</text>
</g>
<!-- Node15 -->
<g id="Node000015" class="node">
<title>Node15</title>
<g id="a_Node000015"><a xlink:title=" ">
<polygon fill="white" stroke="transparent" points="1628.5,-971 1576.5,-971 1576.5,-922 1628.5,-922 1628.5,-971"/>
<text text-anchor="start" x="1581.5" y="-958.5" font-family="Helvetica,sans-Serif" font-size="10.00">c_vector</text>
<text text-anchor="start" x="1600.5" y="-943.5" font-family="Helvetica,sans-Serif" font-size="10.00"> </text>
<text text-anchor="start" x="1600.5" y="-928.5" font-family="Helvetica,sans-Serif" font-size="10.00"> </text>
<polygon fill="#bfbfbf" stroke="#bfbfbf" points="1576.5,-953.5 1576.5,-953.5 1628.5,-953.5 1628.5,-953.5 1576.5,-953.5"/>
<polygon fill="#bfbfbf" stroke="#bfbfbf" points="1576.5,-938.5 1576.5,-938.5 1628.5,-938.5 1628.5,-938.5 1576.5,-938.5"/>
<polygon fill="none" stroke="#bfbfbf" points="1576.5,-922 1576.5,-971 1628.5,-971 1628.5,-922 1576.5,-922"/>
</a>
</g>
</g>
<!-- Node15&#45;&gt;Node14 -->
<g id="edge14_Node000014_Node000015" class="edge">
<title>Node15&#45;&gt;Node14</title>
<g id="a_edge14_Node000014_Node000015"><a xlink:title=" ">
<path fill="none" stroke="orange" d="M1602.5,-911.51C1602.5,-873.07 1602.5,-811.48 1602.5,-778"/>
<polygon fill="orange" stroke="orange" points="1599,-911.7 1602.5,-921.7 1606,-911.7 1599,-911.7"/>
</a>
</g>
<text text-anchor="middle" x="1645" y="-896" font-family="Helvetica,sans-Serif" font-size="10.00" fill="grey"> &lt; double, DIM &gt;</text>
</g>
<!-- Node16 -->
<g id="Node000016" class="node">
<title>Node16</title>
<g id="a_Node000016"><a xlink:title=" ">
<polygon fill="white" stroke="transparent" points="1920.5,-783.5 1736.5,-783.5 1736.5,-723.5 1920.5,-723.5 1920.5,-783.5"/>
<text text-anchor="start" x="1741.5" y="-771.5" font-family="Helvetica,sans-Serif" font-size="10.00">ElectroMechanicsProblemDefinition</text>
<text text-anchor="start" x="1802" y="-760.5" font-family="Helvetica,sans-Serif" font-size="10.00">&lt; DIM &gt; &amp;</text>
<text text-anchor="start" x="1826.5" y="-745.5" font-family="Helvetica,sans-Serif" font-size="10.00"> </text>
<text text-anchor="start" x="1826.5" y="-730.5" font-family="Helvetica,sans-Serif" font-size="10.00"> </text>
<polygon fill="#bfbfbf" stroke="#bfbfbf" points="1736.5,-755.5 1736.5,-755.5 1920.5,-755.5 1920.5,-755.5 1736.5,-755.5"/>
<polygon fill="#bfbfbf" stroke="#bfbfbf" points="1736.5,-740.5 1736.5,-740.5 1920.5,-740.5 1920.5,-740.5 1736.5,-740.5"/>
<polygon fill="none" stroke="#bfbfbf" points="1736.5,-723.5 1736.5,-783.5 1920.5,-783.5 1920.5,-723.5 1736.5,-723.5"/>
</a>
</g>
</g>
<!-- Node16&#45;&gt;Node2 -->
<g id="edge15_Node000002_Node000016" class="edge">
<title>Node16&#45;&gt;Node2</title>
<g id="a_edge15_Node000002_Node000016"><a xlink:title=" ">
<path fill="none" stroke="#63b8ff" d="M1829.51,-723.39C1829.15,-685.14 1822.46,-618.43 1783.5,-581 1670.61,-472.54 1204.36,-414.2 990.99,-392.73"/>
<polygon fill="none" stroke="#63b8ff" points="990.79,-392.71 984.42,-396.1 978.85,-391.52 985.22,-388.13 990.79,-392.71"/>
</a>
</g>
<text text-anchor="start" x="1805.5" y="-600.5" font-family="Helvetica,sans-Serif" font-size="10.00" fill="grey"> #mrElectroMechanicsProblem</text>
<text text-anchor="middle" x="1881" y="-589.5" font-family="Helvetica,sans-Serif" font-size="10.00" fill="grey">Definition</text>
</g>
</g>
</svg>
