<?xml version="1.0" encoding="UTF-8" standalone="no"?>
<!DOCTYPE svg PUBLIC "-//W3C//DTD SVG 1.1//EN"
 "http://www.w3.org/Graphics/SVG/1.1/DTD/svg11.dtd">
<!-- Generated by graphviz version 2.43.0 (0)
 -->
<!-- Title: CML_noble_varghese_kohl_noble_1998_basic_with_sac Pages: 1 -->
<svg width="988pt" height="1860pt"
 viewBox="0.00 0.00 988.00 1860.00" xmlns="http://www.w3.org/2000/svg" xmlns:xlink="http://www.w3.org/1999/xlink">
<g id="graph0" class="graph" transform="scale(1 1) rotate(0) translate(4 1856)">
<title>CML_noble_varghese_kohl_noble_1998_basic_with_sac</title>
<!-- Node1 -->
<g id="Node000001" class="node">
<title>Node1</title>
<g id="a_Node000001"><a xlink:title=" ">
<polygon fill="#999999" stroke="transparent" points="980,-220 767,-220 767,0 980,0 980,-220"/>
<text text-anchor="start" x="815" y="-208" font-family="Helvetica,sans-Serif" font-size="10.00">CML_noble_varghese</text>
<text text-anchor="start" x="815" y="-197" font-family="Helvetica,sans-Serif" font-size="10.00">_kohl_noble_1998_basic</text>
<text text-anchor="start" x="849.5" y="-186" font-family="Helvetica,sans-Serif" font-size="10.00">_with_sac</text>
<text text-anchor="start" x="872" y="-171" font-family="Helvetica,sans-Serif" font-size="10.00"> </text>
<text text-anchor="start" x="771.5" y="-156" font-family="Helvetica,sans-Serif" font-size="10.00">+</text>
<text text-anchor="start" x="784.5" y="-156" font-family="Helvetica,sans-Serif" font-size="10.00">CML_noble_varghese</text>
<text text-anchor="start" x="784.5" y="-145" font-family="Helvetica,sans-Serif" font-size="10.00">_kohl_noble_1998_basic</text>
<text text-anchor="start" x="784.5" y="-134" font-family="Helvetica,sans-Serif" font-size="10.00">_with_sac()</text>
<text text-anchor="start" x="771.5" y="-119" font-family="Helvetica,sans-Serif" font-size="10.00">+</text>
<text text-anchor="start" x="784.5" y="-119" font-family="Helvetica,sans-Serif" font-size="10.00">~CML_noble_varghese</text>
<text text-anchor="start" x="784.5" y="-108" font-family="Helvetica,sans-Serif" font-size="10.00">_kohl_noble_1998_basic</text>
<text text-anchor="start" x="784.5" y="-97" font-family="Helvetica,sans-Serif" font-size="10.00">_with_sac()</text>
<text text-anchor="start" x="771.5" y="-82" font-family="Helvetica,sans-Serif" font-size="10.00">+</text>
<text text-anchor="start" x="784.5" y="-82" font-family="Helvetica,sans-Serif" font-size="10.00">GetIIonic()</text>
<text text-anchor="start" x="771.5" y="-67" font-family="Helvetica,sans-Serif" font-size="10.00">+</text>
<text text-anchor="start" x="784.5" y="-67" font-family="Helvetica,sans-Serif" font-size="10.00">EvaluateYDerivatives()</text>
<text text-anchor="start" x="771.5" y="-52" font-family="Helvetica,sans-Serif" font-size="10.00">+</text>
<text text-anchor="start" x="784.5" y="-52" font-family="Helvetica,sans-Serif" font-size="10.00">SetStretch()</text>
<text text-anchor="start" x="771.5" y="-37" font-family="Helvetica,sans-Serif" font-size="10.00">+</text>
<text text-anchor="start" x="784.5" y="-37" font-family="Helvetica,sans-Serif" font-size="10.00">GetStretch()</text>
<text text-anchor="start" x="771.5" y="-22" font-family="Helvetica,sans-Serif" font-size="10.00">+</text>
<text text-anchor="start" x="784.5" y="-22" font-family="Helvetica,sans-Serif" font-size="10.00">GetIntracellularCalciumConcentration()</text>
<text text-anchor="start" x="774" y="-7" font-family="Helvetica,sans-Serif" font-size="10.00">&#45;</text>
<text text-anchor="start" x="784.5" y="-7" font-family="Helvetica,sans-Serif" font-size="10.00">serialize()</text>
<polygon fill="#666666" stroke="#666666" points="767.5,-181 767.5,-181 980.5,-181 980.5,-181 767.5,-181"/>
<polygon fill="#666666" stroke="#666666" points="767.5,-166 767.5,-166 980.5,-166 980.5,-166 767.5,-166"/>
<polygon fill="none" stroke="#666666" points="767,0 767,-220 980,-220 980,0 767,0"/>
</a>
</g>
</g>
<!-- Node2 -->
<g id="Node000002" class="node">
<title>Node2</title>
<g id="a_Node000002"><a xlink:href="classAbstractCardiacCell.html" target="_top" xlink:title=" ">
<polygon fill="white" stroke="transparent" points="861,-486 694,-486 694,-257 861,-257 861,-486"/>
<text text-anchor="start" x="729.5" y="-473.5" font-family="Helvetica,sans-Serif" font-size="10.00">AbstractCardiacCell</text>
<text text-anchor="start" x="776" y="-458.5" font-family="Helvetica,sans-Serif" font-size="10.00"> </text>
<text text-anchor="start" x="698.5" y="-443.5" font-family="Helvetica,sans-Serif" font-size="10.00">+</text>
<text text-anchor="start" x="711.5" y="-443.5" font-family="Helvetica,sans-Serif" font-size="10.00">AbstractCardiacCell()</text>
<text text-anchor="start" x="698.5" y="-428.5" font-family="Helvetica,sans-Serif" font-size="10.00">+</text>
<text text-anchor="start" x="711.5" y="-428.5" font-family="Helvetica,sans-Serif" font-size="10.00">~AbstractCardiacCell()</text>
<text text-anchor="start" x="698.5" y="-413.5" font-family="Helvetica,sans-Serif" font-size="10.00">+</text>
<text text-anchor="start" x="711.5" y="-413.5" font-family="Helvetica,sans-Serif" font-size="10.00">Init()</text>
<text text-anchor="start" x="698.5" y="-398.5" font-family="Helvetica,sans-Serif" font-size="10.00">+</text>
<text text-anchor="start" x="711.5" y="-398.5" font-family="Helvetica,sans-Serif" font-size="10.00">SetTimestep()</text>
<text text-anchor="start" x="698.5" y="-383.5" font-family="Helvetica,sans-Serif" font-size="10.00">+</text>
<text text-anchor="start" x="711.5" y="-383.5" font-family="Helvetica,sans-Serif" font-size="10.00">SolveAndUpdateState()</text>
<text text-anchor="start" x="698.5" y="-368.5" font-family="Helvetica,sans-Serif" font-size="10.00">+</text>
<text text-anchor="start" x="711.5" y="-368.5" font-family="Helvetica,sans-Serif" font-size="10.00">Compute()</text>
<text text-anchor="start" x="698.5" y="-353.5" font-family="Helvetica,sans-Serif" font-size="10.00">+</text>
<text text-anchor="start" x="711.5" y="-353.5" font-family="Helvetica,sans-Serif" font-size="10.00">ComputeExceptVoltage()</text>
<text text-anchor="start" x="698.5" y="-338.5" font-family="Helvetica,sans-Serif" font-size="10.00">+</text>
<text text-anchor="start" x="711.5" y="-338.5" font-family="Helvetica,sans-Serif" font-size="10.00">SetVoltage()</text>
<text text-anchor="start" x="698.5" y="-323.5" font-family="Helvetica,sans-Serif" font-size="10.00">+</text>
<text text-anchor="start" x="711.5" y="-323.5" font-family="Helvetica,sans-Serif" font-size="10.00">GetVoltage()</text>
<text text-anchor="start" x="698.5" y="-308.5" font-family="Helvetica,sans-Serif" font-size="10.00">+</text>
<text text-anchor="start" x="711.5" y="-308.5" font-family="Helvetica,sans-Serif" font-size="10.00">GetNumberOfStateVariables()</text>
<text text-anchor="start" x="711.5" y="-293.5" font-family="Helvetica,sans-Serif" font-size="10.00">and 16 more...</text>
<text text-anchor="start" x="701" y="-278.5" font-family="Helvetica,sans-Serif" font-size="10.00">&#45;</text>
<text text-anchor="start" x="711.5" y="-278.5" font-family="Helvetica,sans-Serif" font-size="10.00">serialize()</text>
<text text-anchor="start" x="701" y="-263.5" font-family="Helvetica,sans-Serif" font-size="10.00">&#45;</text>
<text text-anchor="start" x="711.5" y="-263.5" font-family="Helvetica,sans-Serif" font-size="10.00">CheckForArchiveFix()</text>
<polygon fill="#666666" stroke="#666666" points="694.5,-468.5 694.5,-468.5 861.5,-468.5 861.5,-468.5 694.5,-468.5"/>
<polygon fill="#666666" stroke="#666666" points="694.5,-453.5 694.5,-453.5 861.5,-453.5 861.5,-453.5 694.5,-453.5"/>
<polygon fill="none" stroke="#666666" points="694,-257 694,-486 861,-486 861,-257 694,-257"/>
</a>
</g>
</g>
<!-- Node2&#45;&gt;Node1 -->
<g id="edge1_Node000001_Node000002" class="edge">
<title>Node2&#45;&gt;Node1</title>
<g id="a_edge1_Node000001_Node000002"><a xlink:title=" ">
<path fill="none" stroke="#63b8ff" d="M823.09,-247.28C826.43,-238.23 829.79,-229.14 833.11,-220.19"/>
<polygon fill="none" stroke="#63b8ff" points="819.79,-246.09 819.61,-256.68 826.36,-248.52 819.79,-246.09"/>
</a>
</g>
</g>
<!-- Node3 -->
<g id="Node000003" class="node">
<title>Node3</title>
<g id="a_Node000003"><a xlink:href="classAbstractCardiacCellInterface.html" target="_top" xlink:title=" ">
<polygon fill="white" stroke="transparent" points="495,-747 318,-747 318,-533 495,-533 495,-747"/>
<text text-anchor="start" x="337" y="-735" font-family="Helvetica,sans-Serif" font-size="10.00">AbstractCardiacCellInterface</text>
<text text-anchor="start" x="405" y="-720" font-family="Helvetica,sans-Serif" font-size="10.00"> </text>
<text text-anchor="start" x="322.5" y="-705" font-family="Helvetica,sans-Serif" font-size="10.00">+</text>
<text text-anchor="start" x="335.5" y="-705" font-family="Helvetica,sans-Serif" font-size="10.00">AbstractCardiacCellInterface()</text>
<text text-anchor="start" x="322.5" y="-690" font-family="Helvetica,sans-Serif" font-size="10.00">+</text>
<text text-anchor="start" x="335.5" y="-690" font-family="Helvetica,sans-Serif" font-size="10.00">~AbstractCardiacCellInterface()</text>
<text text-anchor="start" x="322.5" y="-675" font-family="Helvetica,sans-Serif" font-size="10.00">+</text>
<text text-anchor="start" x="335.5" y="-675" font-family="Helvetica,sans-Serif" font-size="10.00">SetTimestep()</text>
<text text-anchor="start" x="322.5" y="-660" font-family="Helvetica,sans-Serif" font-size="10.00">+</text>
<text text-anchor="start" x="335.5" y="-660" font-family="Helvetica,sans-Serif" font-size="10.00">GetNumberOfStateVariables()</text>
<text text-anchor="start" x="322.5" y="-645" font-family="Helvetica,sans-Serif" font-size="10.00">+</text>
<text text-anchor="start" x="335.5" y="-645" font-family="Helvetica,sans-Serif" font-size="10.00">GetNumberOfParameters()</text>
<text text-anchor="start" x="322.5" y="-630" font-family="Helvetica,sans-Serif" font-size="10.00">+</text>
<text text-anchor="start" x="335.5" y="-630" font-family="Helvetica,sans-Serif" font-size="10.00">GetStdVecStateVariables()</text>
<text text-anchor="start" x="322.5" y="-615" font-family="Helvetica,sans-Serif" font-size="10.00">+</text>
<text text-anchor="start" x="335.5" y="-615" font-family="Helvetica,sans-Serif" font-size="10.00">rGetStateVariableNames()</text>
<text text-anchor="start" x="322.5" y="-600" font-family="Helvetica,sans-Serif" font-size="10.00">+</text>
<text text-anchor="start" x="335.5" y="-600" font-family="Helvetica,sans-Serif" font-size="10.00">SetStateVariables()</text>
<text text-anchor="start" x="322.5" y="-585" font-family="Helvetica,sans-Serif" font-size="10.00">+</text>
<text text-anchor="start" x="335.5" y="-585" font-family="Helvetica,sans-Serif" font-size="10.00">SetStateVariable()</text>
<text text-anchor="start" x="322.5" y="-570" font-family="Helvetica,sans-Serif" font-size="10.00">+</text>
<text text-anchor="start" x="335.5" y="-570" font-family="Helvetica,sans-Serif" font-size="10.00">SetStateVariable()</text>
<text text-anchor="start" x="335.5" y="-555" font-family="Helvetica,sans-Serif" font-size="10.00">and 28 more...</text>
<text text-anchor="start" x="325" y="-540" font-family="Helvetica,sans-Serif" font-size="10.00">&#45;</text>
<text text-anchor="start" x="335.5" y="-540" font-family="Helvetica,sans-Serif" font-size="10.00">serialize()</text>
<polygon fill="#666666" stroke="#666666" points="318.5,-730 318.5,-730 495.5,-730 495.5,-730 318.5,-730"/>
<polygon fill="#666666" stroke="#666666" points="318.5,-715 318.5,-715 495.5,-715 495.5,-715 318.5,-715"/>
<polygon fill="none" stroke="#666666" points="318,-533 318,-747 495,-747 495,-533 318,-533"/>
</a>
</g>
</g>
<!-- Node3&#45;&gt;Node2 -->
<g id="edge2_Node000002_Node000003" class="edge">
<title>Node3&#45;&gt;Node2</title>
<g id="a_edge2_Node000002_Node000003"><a xlink:title=" ">
<path fill="none" stroke="#63b8ff" d="M503.59,-569.26C562.67,-526.82 637.36,-473.17 693.82,-432.61"/>
<polygon fill="none" stroke="#63b8ff" points="501.44,-566.49 495.36,-575.17 505.53,-572.18 501.44,-566.49"/>
</a>
</g>
</g>
<!-- Node4 -->
<g id="Node000004" class="node">
<title>Node4</title>
<g id="a_Node000004"><a xlink:href="classunsigned.html" target="_top" xlink:title=" ">
<polygon fill="white" stroke="transparent" points="442,-1846.5 387,-1846.5 387,-1797.5 442,-1797.5 442,-1846.5"/>
<text text-anchor="start" x="392.5" y="-1834" font-family="Helvetica,sans-Serif" font-size="10.00">unsigned</text>
<text text-anchor="start" x="413" y="-1819" font-family="Helvetica,sans-Serif" font-size="10.00"> </text>
<text text-anchor="start" x="413" y="-1804" font-family="Helvetica,sans-Serif" font-size="10.00"> </text>
<polygon fill="#bfbfbf" stroke="#bfbfbf" points="387.5,-1829 387.5,-1829 442.5,-1829 442.5,-1829 387.5,-1829"/>
<polygon fill="#bfbfbf" stroke="#bfbfbf" points="387.5,-1814 387.5,-1814 442.5,-1814 442.5,-1814 387.5,-1814"/>
<polygon fill="none" stroke="#bfbfbf" points="387,-1797.5 387,-1846.5 442,-1846.5 442,-1797.5 387,-1797.5"/>
</a>
</g>
</g>
<!-- Node4&#45;&gt;Node3 -->
<g id="edge3_Node000003_Node000004" class="edge">
<title>Node4&#45;&gt;Node3</title>
<g id="a_edge3_Node000003_Node000004"><a xlink:title=" ">
<path fill="none" stroke="#63b8ff" d="M409.38,-1797.31C402.07,-1761.34 389.5,-1690.7 389.5,-1630 389.5,-1630 389.5,-1630 389.5,-968.5 389.5,-899.11 393.35,-821.56 397.39,-759.35"/>
<polygon fill="none" stroke="#63b8ff" points="397.41,-759.1 393.81,-752.85 398.2,-747.12 401.79,-753.37 397.41,-759.1"/>
</a>
</g>
<text text-anchor="middle" x="432" y="-1310" font-family="Helvetica,sans-Serif" font-size="10.00" fill="grey"> #mVoltageIndex</text>
</g>
<!-- Node11 -->
<g id="Node000011" class="node">
<title>Node11</title>
<g id="a_Node000011"><a xlink:href="classAbstractUntemplatedParameterisedSystem.html" target="_top" xlink:title=" ">
<polygon fill="white" stroke="transparent" points="708,-1745 503,-1745 503,-1513 708,-1513 708,-1745"/>
<text text-anchor="start" x="518.5" y="-1733" font-family="Helvetica,sans-Serif" font-size="10.00">AbstractUntemplatedParameterised</text>
<text text-anchor="start" x="587.5" y="-1722" font-family="Helvetica,sans-Serif" font-size="10.00">System</text>
<text text-anchor="start" x="604" y="-1707" font-family="Helvetica,sans-Serif" font-size="10.00"> </text>
<text text-anchor="start" x="507.5" y="-1692" font-family="Helvetica,sans-Serif" font-size="10.00">+</text>
<text text-anchor="start" x="520.5" y="-1692" font-family="Helvetica,sans-Serif" font-size="10.00">AbstractUntemplatedParameterised</text>
<text text-anchor="start" x="520.5" y="-1681" font-family="Helvetica,sans-Serif" font-size="10.00">System()</text>
<text text-anchor="start" x="507.5" y="-1666" font-family="Helvetica,sans-Serif" font-size="10.00">+</text>
<text text-anchor="start" x="520.5" y="-1666" font-family="Helvetica,sans-Serif" font-size="10.00">~AbstractUntemplatedParameterised</text>
<text text-anchor="start" x="520.5" y="-1655" font-family="Helvetica,sans-Serif" font-size="10.00">System()</text>
<text text-anchor="start" x="507.5" y="-1640" font-family="Helvetica,sans-Serif" font-size="10.00">+</text>
<text text-anchor="start" x="520.5" y="-1640" font-family="Helvetica,sans-Serif" font-size="10.00">GetSystemInformation()</text>
<text text-anchor="start" x="507.5" y="-1625" font-family="Helvetica,sans-Serif" font-size="10.00">+</text>
<text text-anchor="start" x="520.5" y="-1625" font-family="Helvetica,sans-Serif" font-size="10.00">GetSystemName()</text>
<text text-anchor="start" x="507.5" y="-1610" font-family="Helvetica,sans-Serif" font-size="10.00">+</text>
<text text-anchor="start" x="520.5" y="-1610" font-family="Helvetica,sans-Serif" font-size="10.00">GetNumberOfAttributes()</text>
<text text-anchor="start" x="507.5" y="-1595" font-family="Helvetica,sans-Serif" font-size="10.00">+</text>
<text text-anchor="start" x="520.5" y="-1595" font-family="Helvetica,sans-Serif" font-size="10.00">HasAttribute()</text>
<text text-anchor="start" x="507.5" y="-1580" font-family="Helvetica,sans-Serif" font-size="10.00">+</text>
<text text-anchor="start" x="520.5" y="-1580" font-family="Helvetica,sans-Serif" font-size="10.00">GetAttribute()</text>
<text text-anchor="start" x="507.5" y="-1565" font-family="Helvetica,sans-Serif" font-size="10.00">+</text>
<text text-anchor="start" x="520.5" y="-1565" font-family="Helvetica,sans-Serif" font-size="10.00">GetNumberOfStateVariables()</text>
<text text-anchor="start" x="507.5" y="-1550" font-family="Helvetica,sans-Serif" font-size="10.00">+</text>
<text text-anchor="start" x="520.5" y="-1550" font-family="Helvetica,sans-Serif" font-size="10.00">rGetStateVariableNames()</text>
<text text-anchor="start" x="507.5" y="-1535" font-family="Helvetica,sans-Serif" font-size="10.00">+</text>
<text text-anchor="start" x="520.5" y="-1535" font-family="Helvetica,sans-Serif" font-size="10.00">rGetStateVariableUnits()</text>
<text text-anchor="start" x="520.5" y="-1520" font-family="Helvetica,sans-Serif" font-size="10.00">and 20 more...</text>
<polygon fill="#666666" stroke="#666666" points="503.5,-1717 503.5,-1717 708.5,-1717 708.5,-1717 503.5,-1717"/>
<polygon fill="#666666" stroke="#666666" points="503.5,-1702 503.5,-1702 708.5,-1702 708.5,-1702 503.5,-1702"/>
<polygon fill="none" stroke="#666666" points="503,-1513 503,-1745 708,-1745 708,-1513 503,-1513"/>
</a>
</g>
</g>
<!-- Node4&#45;&gt;Node11 -->
<g id="edge11_Node000011_Node000004" class="edge">
<title>Node4&#45;&gt;Node11</title>
<g id="a_edge11_Node000011_Node000004"><a xlink:title=" ">
<path fill="none" stroke="#63b8ff" d="M429.39,-1797.33C437.35,-1785.98 447.89,-1772.76 459.5,-1763 470.44,-1753.8 477.29,-1754.57 492.69,-1744.83"/>
<polygon fill="none" stroke="#63b8ff" points="493.01,-1744.61 495.63,-1737.9 502.84,-1737.74 500.21,-1744.45 493.01,-1744.61"/>
</a>
</g>
<text text-anchor="middle" x="530.5" y="-1766" font-family="Helvetica,sans-Serif" font-size="10.00" fill="grey"> #mNumberOfStateVariables</text>
</g>
<!-- Node5 -->
<g id="Node000005" class="node">
<title>Node5</title>
<g id="a_Node000005"><a xlink:title=" ">
<polygon fill="white" stroke="transparent" points="149,-999.5 0,-999.5 0,-939.5 149,-939.5 149,-999.5"/>
<text text-anchor="start" x="5.5" y="-987.5" font-family="Helvetica,sans-Serif" font-size="10.00">shared_ptr&lt; AbstractIvpOde</text>
<text text-anchor="start" x="53.5" y="-976.5" font-family="Helvetica,sans-Serif" font-size="10.00">Solver &gt;</text>
<text text-anchor="start" x="73" y="-961.5" font-family="Helvetica,sans-Serif" font-size="10.00"> </text>
<text text-anchor="start" x="73" y="-946.5" font-family="Helvetica,sans-Serif" font-size="10.00"> </text>
<polygon fill="#bfbfbf" stroke="#bfbfbf" points="0.5,-971.5 0.5,-971.5 149.5,-971.5 149.5,-971.5 0.5,-971.5"/>
<polygon fill="#bfbfbf" stroke="#bfbfbf" points="0.5,-956.5 0.5,-956.5 149.5,-956.5 149.5,-956.5 0.5,-956.5"/>
<polygon fill="none" stroke="#bfbfbf" points="0,-939.5 0,-999.5 149,-999.5 149,-939.5 0,-939.5"/>
</a>
</g>
</g>
<!-- Node5&#45;&gt;Node3 -->
<g id="edge4_Node000003_Node000005" class="edge">
<title>Node5&#45;&gt;Node3</title>
<g id="a_edge4_Node000003_Node000005"><a xlink:title=" ">
<path fill="none" stroke="#63b8ff" d="M78.58,-939.34C86,-896.31 105.4,-815.49 151.5,-765 192.86,-719.7 254.37,-689.12 306.62,-669.66"/>
<polygon fill="none" stroke="#63b8ff" points="306.67,-669.64 310.95,-663.84 317.96,-665.56 313.68,-671.36 306.67,-669.64"/>
</a>
</g>
<text text-anchor="middle" x="190.5" y="-784.5" font-family="Helvetica,sans-Serif" font-size="10.00" fill="grey"> #mpOdeSolver</text>
</g>
<!-- Node6 -->
<g id="Node000006" class="node">
<title>Node6</title>
<g id="a_Node000006"><a xlink:title=" ">
<polygon fill="white" stroke="transparent" points="324,-999.5 167,-999.5 167,-939.5 324,-939.5 324,-999.5"/>
<text text-anchor="start" x="172.5" y="-987.5" font-family="Helvetica,sans-Serif" font-size="10.00">shared_ptr&lt; AbstractStimulus</text>
<text text-anchor="start" x="219.5" y="-976.5" font-family="Helvetica,sans-Serif" font-size="10.00">Function &gt;</text>
<text text-anchor="start" x="244" y="-961.5" font-family="Helvetica,sans-Serif" font-size="10.00"> </text>
<text text-anchor="start" x="244" y="-946.5" font-family="Helvetica,sans-Serif" font-size="10.00"> </text>
<polygon fill="#bfbfbf" stroke="#bfbfbf" points="167.5,-971.5 167.5,-971.5 324.5,-971.5 324.5,-971.5 167.5,-971.5"/>
<polygon fill="#bfbfbf" stroke="#bfbfbf" points="167.5,-956.5 167.5,-956.5 324.5,-956.5 324.5,-956.5 167.5,-956.5"/>
<polygon fill="none" stroke="#bfbfbf" points="167,-939.5 167,-999.5 324,-999.5 324,-939.5 167,-939.5"/>
</a>
</g>
</g>
<!-- Node6&#45;&gt;Node3 -->
<g id="edge5_Node000003_Node000006" class="edge">
<title>Node6&#45;&gt;Node3</title>
<g id="a_edge5_Node000003_Node000006"><a xlink:title=" ">
<path fill="none" stroke="#63b8ff" d="M238.05,-939.39C229.12,-898.18 218.6,-821.56 246.5,-765 260.22,-737.18 283.51,-713.8 308.13,-695.1"/>
<polygon fill="none" stroke="#63b8ff" points="308.29,-694.98 310.78,-688.21 317.99,-687.91 315.5,-694.68 308.29,-694.98"/>
</a>
</g>
<text text-anchor="middle" x="311" y="-784.5" font-family="Helvetica,sans-Serif" font-size="10.00" fill="grey"> #mpIntracellularStimulus</text>
</g>
<!-- Node7 -->
<g id="Node000007" class="node">
<title>Node7</title>
<g id="a_Node000007"><a xlink:href="classbool.html" target="_top" xlink:title=" ">
<polygon fill="white" stroke="transparent" points="533.5,-994 501.5,-994 501.5,-945 533.5,-945 533.5,-994"/>
<text text-anchor="start" x="506.5" y="-981.5" font-family="Helvetica,sans-Serif" font-size="10.00">bool</text>
<text text-anchor="start" x="515.5" y="-966.5" font-family="Helvetica,sans-Serif" font-size="10.00"> </text>
<text text-anchor="start" x="515.5" y="-951.5" font-family="Helvetica,sans-Serif" font-size="10.00"> </text>
<polygon fill="#bfbfbf" stroke="#bfbfbf" points="501.5,-976.5 501.5,-976.5 533.5,-976.5 533.5,-976.5 501.5,-976.5"/>
<polygon fill="#bfbfbf" stroke="#bfbfbf" points="501.5,-961.5 501.5,-961.5 533.5,-961.5 533.5,-961.5 501.5,-961.5"/>
<polygon fill="none" stroke="#bfbfbf" points="501.5,-945 501.5,-994 533.5,-994 533.5,-945 501.5,-945"/>
</a>
</g>
</g>
<!-- Node7&#45;&gt;Node3 -->
<g id="edge6_Node000003_Node000007" class="edge">
<title>Node7&#45;&gt;Node3</title>
<g id="a_edge6_Node000003_Node000007"><a xlink:title=" ">
<path fill="none" stroke="#63b8ff" d="M501.23,-947.75C479.37,-918.61 441.22,-863.06 423.5,-809 418.36,-793.31 414.65,-776.39 412.01,-759.54"/>
<polygon fill="none" stroke="#63b8ff" points="411.96,-759.18 407.15,-753.81 410.26,-747.3 415.07,-752.68 411.96,-759.18"/>
</a>
</g>
<text text-anchor="start" x="423.5" y="-801" font-family="Helvetica,sans-Serif" font-size="10.00" fill="grey"> #mHasDefaultStimulusFrom</text>
<text text-anchor="middle" x="501" y="-790" font-family="Helvetica,sans-Serif" font-size="10.00" fill="grey">CellML</text>
<text text-anchor="middle" x="501" y="-779" font-family="Helvetica,sans-Serif" font-size="10.00" fill="grey">#mIsUsedInTissue</text>
<text text-anchor="middle" x="501" y="-768" font-family="Helvetica,sans-Serif" font-size="10.00" fill="grey">#mSetVoltageDerivativeToZero</text>
</g>
<!-- Node9 -->
<g id="Node000009" class="node">
<title>Node9</title>
<g id="a_Node000009"><a xlink:href="classAbstractOdeSystem.html" target="_top" xlink:title=" ">
<polygon fill="white" stroke="transparent" points="810.5,-724.5 662.5,-724.5 662.5,-555.5 810.5,-555.5 810.5,-724.5"/>
<text text-anchor="start" x="688" y="-712" font-family="Helvetica,sans-Serif" font-size="10.00">AbstractOdeSystem</text>
<text text-anchor="start" x="734.5" y="-697" font-family="Helvetica,sans-Serif" font-size="10.00"> </text>
<text text-anchor="start" x="666.5" y="-682" font-family="Helvetica,sans-Serif" font-size="10.00">+</text>
<text text-anchor="start" x="679.5" y="-682" font-family="Helvetica,sans-Serif" font-size="10.00">AbstractOdeSystem()</text>
<text text-anchor="start" x="666.5" y="-667" font-family="Helvetica,sans-Serif" font-size="10.00">+</text>
<text text-anchor="start" x="679.5" y="-667" font-family="Helvetica,sans-Serif" font-size="10.00">~AbstractOdeSystem()</text>
<text text-anchor="start" x="666.5" y="-652" font-family="Helvetica,sans-Serif" font-size="10.00">+</text>
<text text-anchor="start" x="679.5" y="-652" font-family="Helvetica,sans-Serif" font-size="10.00">EvaluateYDerivatives()</text>
<text text-anchor="start" x="666.5" y="-637" font-family="Helvetica,sans-Serif" font-size="10.00">+</text>
<text text-anchor="start" x="679.5" y="-637" font-family="Helvetica,sans-Serif" font-size="10.00">CalculateStoppingEvent()</text>
<text text-anchor="start" x="666.5" y="-622" font-family="Helvetica,sans-Serif" font-size="10.00">+</text>
<text text-anchor="start" x="679.5" y="-622" font-family="Helvetica,sans-Serif" font-size="10.00">CalculateRootFunction()</text>
<text text-anchor="start" x="666.5" y="-607" font-family="Helvetica,sans-Serif" font-size="10.00">+</text>
<text text-anchor="start" x="679.5" y="-607" font-family="Helvetica,sans-Serif" font-size="10.00">GetUseAnalyticJacobian()</text>
<text text-anchor="start" x="666.5" y="-592" font-family="Helvetica,sans-Serif" font-size="10.00">+</text>
<text text-anchor="start" x="679.5" y="-592" font-family="Helvetica,sans-Serif" font-size="10.00">rGetConstStateVariables()</text>
<text text-anchor="start" x="669" y="-577" font-family="Helvetica,sans-Serif" font-size="10.00">&#45;</text>
<text text-anchor="start" x="679.5" y="-577" font-family="Helvetica,sans-Serif" font-size="10.00">save()</text>
<text text-anchor="start" x="669" y="-562" font-family="Helvetica,sans-Serif" font-size="10.00">&#45;</text>
<text text-anchor="start" x="679.5" y="-562" font-family="Helvetica,sans-Serif" font-size="10.00">load()</text>
<polygon fill="#666666" stroke="#666666" points="662.5,-707 662.5,-707 810.5,-707 810.5,-707 662.5,-707"/>
<polygon fill="#666666" stroke="#666666" points="662.5,-692 662.5,-692 810.5,-692 810.5,-692 662.5,-692"/>
<polygon fill="none" stroke="#666666" points="662.5,-555.5 662.5,-724.5 810.5,-724.5 810.5,-555.5 662.5,-555.5"/>
</a>
</g>
</g>
<!-- Node7&#45;&gt;Node9 -->
<g id="edge17_Node000009_Node000007" class="edge">
<title>Node7&#45;&gt;Node9</title>
<g id="a_edge17_Node000009_Node000007"><a xlink:title=" ">
<path fill="none" stroke="#63b8ff" d="M525.32,-944.79C539,-905.28 569.86,-824.45 611.5,-765 623.78,-747.47 638.7,-730.25 653.89,-714.48"/>
<polygon fill="none" stroke="#63b8ff" points="653.93,-714.44 655.28,-707.35 662.34,-705.88 660.99,-712.96 653.93,-714.44"/>
</a>
</g>
<text text-anchor="middle" x="672" y="-784.5" font-family="Helvetica,sans-Serif" font-size="10.00" fill="grey"> #mUseAnalyticJacobian</text>
</g>
<!-- Node8 -->
<g id="Node000008" class="node">
<title>Node8</title>
<g id="a_Node000008"><a xlink:href="classdouble.html" target="_top" xlink:title=" ">
<polygon fill="white" stroke="transparent" points="890.5,-994 846.5,-994 846.5,-945 890.5,-945 890.5,-994"/>
<text text-anchor="start" x="851.5" y="-981.5" font-family="Helvetica,sans-Serif" font-size="10.00">double</text>
<text text-anchor="start" x="866.5" y="-966.5" font-family="Helvetica,sans-Serif" font-size="10.00"> </text>
<text text-anchor="start" x="866.5" y="-951.5" font-family="Helvetica,sans-Serif" font-size="10.00"> </text>
<polygon fill="#bfbfbf" stroke="#bfbfbf" points="846.5,-976.5 846.5,-976.5 890.5,-976.5 890.5,-976.5 846.5,-976.5"/>
<polygon fill="#bfbfbf" stroke="#bfbfbf" points="846.5,-961.5 846.5,-961.5 890.5,-961.5 890.5,-961.5 846.5,-961.5"/>
<polygon fill="none" stroke="#bfbfbf" points="846.5,-945 846.5,-994 890.5,-994 890.5,-945 846.5,-945"/>
</a>
</g>
</g>
<!-- Node8&#45;&gt;Node1 -->
<g id="edge19_Node000001_Node000008" class="edge">
<title>Node8&#45;&gt;Node1</title>
<g id="a_edge19_Node000001_Node000008"><a xlink:title=" ">
<path fill="none" stroke="#63b8ff" d="M871.33,-944.94C876.03,-904.53 885.24,-819.32 888.5,-747 896.57,-567.96 888.38,-360.37 881.3,-232.35"/>
<polygon fill="none" stroke="#63b8ff" points="881.3,-232.19 876.97,-226.43 880.62,-220.21 884.95,-225.98 881.3,-232.19"/>
</a>
</g>
<text text-anchor="middle" x="916.5" y="-507" font-family="Helvetica,sans-Serif" font-size="10.00" fill="grey"> &#45;mStretch</text>
</g>
<!-- Node8&#45;&gt;Node2 -->
<g id="edge18_Node000002_Node000008" class="edge">
<title>Node8&#45;&gt;Node2</title>
<g id="a_edge18_Node000002_Node000008"><a xlink:title=" ">
<path fill="none" stroke="#63b8ff" d="M867.5,-944.94C865.75,-906.98 861.62,-829.95 854.5,-765 843.13,-661.34 840.51,-635.14 819.5,-533 817.15,-521.57 814.49,-509.75 811.68,-497.93"/>
<polygon fill="none" stroke="#63b8ff" points="811.65,-497.8 806.35,-492.9 808.83,-486.13 814.13,-491.02 811.65,-497.8"/>
</a>
</g>
<text text-anchor="middle" x="868" y="-637.5" font-family="Helvetica,sans-Serif" font-size="10.00" fill="grey"> #mDt</text>
</g>
<!-- Node8&#45;&gt;Node3 -->
<g id="edge7_Node000003_Node000008" class="edge">
<title>Node8&#45;&gt;Node3</title>
<g id="a_edge7_Node000003_Node000008"><a xlink:title=" ">
<path fill="none" stroke="#63b8ff" d="M869.44,-944.81C869.34,-913.6 864.34,-858.96 833.5,-827 813.28,-806.04 794.61,-825.34 770.5,-809 750.04,-795.14 757.4,-778.2 736.5,-765 704.58,-744.85 689.45,-758.5 653.5,-747 603.92,-731.15 550.65,-708.98 506.32,-689.02"/>
<polygon fill="none" stroke="#63b8ff" points="506.18,-688.96 499.06,-690.12 495.25,-684 502.37,-682.83 506.18,-688.96"/>
</a>
</g>
<text text-anchor="middle" x="812.5" y="-784.5" font-family="Helvetica,sans-Serif" font-size="10.00" fill="grey"> #mFixedVoltage</text>
</g>
<!-- Node9&#45;&gt;Node2 -->
<g id="edge8_Node000002_Node000009" class="edge">
<title>Node9&#45;&gt;Node2</title>
<g id="a_edge8_Node000002_Node000009"><a xlink:title=" ">
<path fill="none" stroke="#63b8ff" d="M750.89,-545.49C753.84,-526.3 756.98,-505.89 760.03,-486.08"/>
<polygon fill="none" stroke="#63b8ff" points="747.42,-544.99 749.36,-555.41 754.34,-546.06 747.42,-544.99"/>
</a>
</g>
</g>
<!-- Node10 -->
<g id="Node000010" class="node">
<title>Node10</title>
<g id="a_Node000010"><a xlink:href="classAbstractParameterisedSystem.html" target="_top" xlink:title=" ">
<polygon fill="white" stroke="transparent" points="825,-1112 648,-1112 648,-827 825,-827 825,-1112"/>
<text text-anchor="start" x="663" y="-1099.5" font-family="Helvetica,sans-Serif" font-size="10.00">AbstractParameterisedSystem</text>
<text text-anchor="start" x="672" y="-1088.5" font-family="Helvetica,sans-Serif" font-size="10.00">&lt; std::vector&lt; double &gt; &gt;</text>
<text text-anchor="start" x="735" y="-1073.5" font-family="Helvetica,sans-Serif" font-size="10.00"> </text>
<text text-anchor="start" x="652.5" y="-1058.5" font-family="Helvetica,sans-Serif" font-size="10.00">+</text>
<text text-anchor="start" x="665.5" y="-1058.5" font-family="Helvetica,sans-Serif" font-size="10.00">AbstractParameterisedSystem()</text>
<text text-anchor="start" x="652.5" y="-1043.5" font-family="Helvetica,sans-Serif" font-size="10.00">+</text>
<text text-anchor="start" x="665.5" y="-1043.5" font-family="Helvetica,sans-Serif" font-size="10.00">rGetStateVariables()</text>
<text text-anchor="start" x="652.5" y="-1028.5" font-family="Helvetica,sans-Serif" font-size="10.00">+</text>
<text text-anchor="start" x="665.5" y="-1028.5" font-family="Helvetica,sans-Serif" font-size="10.00">GetStateVariables()</text>
<text text-anchor="start" x="652.5" y="-1013.5" font-family="Helvetica,sans-Serif" font-size="10.00">+</text>
<text text-anchor="start" x="665.5" y="-1013.5" font-family="Helvetica,sans-Serif" font-size="10.00">SetStateVariables()</text>
<text text-anchor="start" x="652.5" y="-998.5" font-family="Helvetica,sans-Serif" font-size="10.00">+</text>
<text text-anchor="start" x="665.5" y="-998.5" font-family="Helvetica,sans-Serif" font-size="10.00">GetStateVariable()</text>
<text text-anchor="start" x="652.5" y="-983.5" font-family="Helvetica,sans-Serif" font-size="10.00">+</text>
<text text-anchor="start" x="665.5" y="-983.5" font-family="Helvetica,sans-Serif" font-size="10.00">GetStateVariable()</text>
<text text-anchor="start" x="652.5" y="-968.5" font-family="Helvetica,sans-Serif" font-size="10.00">+</text>
<text text-anchor="start" x="665.5" y="-968.5" font-family="Helvetica,sans-Serif" font-size="10.00">SetStateVariable()</text>
<text text-anchor="start" x="652.5" y="-953.5" font-family="Helvetica,sans-Serif" font-size="10.00">+</text>
<text text-anchor="start" x="665.5" y="-953.5" font-family="Helvetica,sans-Serif" font-size="10.00">SetStateVariable()</text>
<text text-anchor="start" x="652.5" y="-938.5" font-family="Helvetica,sans-Serif" font-size="10.00">+</text>
<text text-anchor="start" x="665.5" y="-938.5" font-family="Helvetica,sans-Serif" font-size="10.00">VerifyStateVariables()</text>
<text text-anchor="start" x="652.5" y="-923.5" font-family="Helvetica,sans-Serif" font-size="10.00">+</text>
<text text-anchor="start" x="665.5" y="-923.5" font-family="Helvetica,sans-Serif" font-size="10.00">SetDefaultInitialConditions()</text>
<text text-anchor="start" x="665.5" y="-908.5" font-family="Helvetica,sans-Serif" font-size="10.00">and 13 more...</text>
<text text-anchor="start" x="652.5" y="-893.5" font-family="Helvetica,sans-Serif" font-size="10.00">#</text>
<text text-anchor="start" x="665.5" y="-893.5" font-family="Helvetica,sans-Serif" font-size="10.00">DumpState()</text>
<text text-anchor="start" x="652.5" y="-878.5" font-family="Helvetica,sans-Serif" font-size="10.00">#</text>
<text text-anchor="start" x="665.5" y="-878.5" font-family="Helvetica,sans-Serif" font-size="10.00">DumpState()</text>
<text text-anchor="start" x="652.5" y="-863.5" font-family="Helvetica,sans-Serif" font-size="10.00">#</text>
<text text-anchor="start" x="665.5" y="-863.5" font-family="Helvetica,sans-Serif" font-size="10.00">DumpState()</text>
<text text-anchor="start" x="652.5" y="-848.5" font-family="Helvetica,sans-Serif" font-size="10.00">#</text>
<text text-anchor="start" x="665.5" y="-848.5" font-family="Helvetica,sans-Serif" font-size="10.00">CheckParametersOnLoad()</text>
<text text-anchor="start" x="655" y="-833.5" font-family="Helvetica,sans-Serif" font-size="10.00">&#45;</text>
<text text-anchor="start" x="665.5" y="-833.5" font-family="Helvetica,sans-Serif" font-size="10.00">GetStateMessage()</text>
<polygon fill="#666666" stroke="#666666" points="648.5,-1083.5 648.5,-1083.5 825.5,-1083.5 825.5,-1083.5 648.5,-1083.5"/>
<polygon fill="#666666" stroke="#666666" points="648.5,-1068.5 648.5,-1068.5 825.5,-1068.5 825.5,-1068.5 648.5,-1068.5"/>
<polygon fill="none" stroke="#666666" points="648,-827 648,-1112 825,-1112 825,-827 648,-827"/>
</a>
</g>
</g>
<!-- Node10&#45;&gt;Node9 -->
<g id="edge9_Node000009_Node000010" class="edge">
<title>Node10&#45;&gt;Node9</title>
<g id="a_edge9_Node000009_Node000010"><a xlink:title=" ">
<path fill="none" stroke="#63b8ff" d="M736.5,-816.55C736.5,-785.01 736.5,-752.89 736.5,-724.89"/>
<polygon fill="none" stroke="#63b8ff" points="733,-816.76 736.5,-826.76 740,-816.76 733,-816.76"/>
</a>
</g>
</g>
<!-- Node11&#45;&gt;Node10 -->
<g id="edge10_Node000010_Node000011" class="edge">
<title>Node11&#45;&gt;Node10</title>
<g id="a_edge10_Node000010_Node000011"><a xlink:title=" ">
<path fill="none" stroke="#63b8ff" d="M715.73,-1550.58C745.82,-1523.82 775.16,-1491.32 793.5,-1455 858.96,-1325.41 863.38,-1270.42 826.5,-1130 824.92,-1124 823.07,-1117.99 820.98,-1112.01"/>
<polygon fill="none" stroke="#63b8ff" points="713.31,-1548.05 708.07,-1557.25 717.91,-1553.32 713.31,-1548.05"/>
</a>
</g>
</g>
<!-- Node14 -->
<g id="Node000014" class="node">
<title>Node14</title>
<g id="a_Node000014"><a xlink:href="classAbstractParameterisedSystem.html" target="_top" xlink:title=" ">
<polygon fill="white" stroke="transparent" points="670,-1455 493,-1455 493,-1170 670,-1170 670,-1455"/>
<text text-anchor="start" x="508" y="-1442.5" font-family="Helvetica,sans-Serif" font-size="10.00">AbstractParameterisedSystem</text>
<text text-anchor="start" x="550.5" y="-1431.5" font-family="Helvetica,sans-Serif" font-size="10.00">&lt; VECTOR &gt;</text>
<text text-anchor="start" x="580" y="-1416.5" font-family="Helvetica,sans-Serif" font-size="10.00"> </text>
<text text-anchor="start" x="497.5" y="-1401.5" font-family="Helvetica,sans-Serif" font-size="10.00">+</text>
<text text-anchor="start" x="510.5" y="-1401.5" font-family="Helvetica,sans-Serif" font-size="10.00">AbstractParameterisedSystem()</text>
<text text-anchor="start" x="497.5" y="-1386.5" font-family="Helvetica,sans-Serif" font-size="10.00">+</text>
<text text-anchor="start" x="510.5" y="-1386.5" font-family="Helvetica,sans-Serif" font-size="10.00">rGetStateVariables()</text>
<text text-anchor="start" x="497.5" y="-1371.5" font-family="Helvetica,sans-Serif" font-size="10.00">+</text>
<text text-anchor="start" x="510.5" y="-1371.5" font-family="Helvetica,sans-Serif" font-size="10.00">GetStateVariables()</text>
<text text-anchor="start" x="497.5" y="-1356.5" font-family="Helvetica,sans-Serif" font-size="10.00">+</text>
<text text-anchor="start" x="510.5" y="-1356.5" font-family="Helvetica,sans-Serif" font-size="10.00">SetStateVariables()</text>
<text text-anchor="start" x="497.5" y="-1341.5" font-family="Helvetica,sans-Serif" font-size="10.00">+</text>
<text text-anchor="start" x="510.5" y="-1341.5" font-family="Helvetica,sans-Serif" font-size="10.00">GetStateVariable()</text>
<text text-anchor="start" x="497.5" y="-1326.5" font-family="Helvetica,sans-Serif" font-size="10.00">+</text>
<text text-anchor="start" x="510.5" y="-1326.5" font-family="Helvetica,sans-Serif" font-size="10.00">GetStateVariable()</text>
<text text-anchor="start" x="497.5" y="-1311.5" font-family="Helvetica,sans-Serif" font-size="10.00">+</text>
<text text-anchor="start" x="510.5" y="-1311.5" font-family="Helvetica,sans-Serif" font-size="10.00">SetStateVariable()</text>
<text text-anchor="start" x="497.5" y="-1296.5" font-family="Helvetica,sans-Serif" font-size="10.00">+</text>
<text text-anchor="start" x="510.5" y="-1296.5" font-family="Helvetica,sans-Serif" font-size="10.00">SetStateVariable()</text>
<text text-anchor="start" x="497.5" y="-1281.5" font-family="Helvetica,sans-Serif" font-size="10.00">+</text>
<text text-anchor="start" x="510.5" y="-1281.5" font-family="Helvetica,sans-Serif" font-size="10.00">VerifyStateVariables()</text>
<text text-anchor="start" x="497.5" y="-1266.5" font-family="Helvetica,sans-Serif" font-size="10.00">+</text>
<text text-anchor="start" x="510.5" y="-1266.5" font-family="Helvetica,sans-Serif" font-size="10.00">SetDefaultInitialConditions()</text>
<text text-anchor="start" x="510.5" y="-1251.5" font-family="Helvetica,sans-Serif" font-size="10.00">and 13 more...</text>
<text text-anchor="start" x="497.5" y="-1236.5" font-family="Helvetica,sans-Serif" font-size="10.00">#</text>
<text text-anchor="start" x="510.5" y="-1236.5" font-family="Helvetica,sans-Serif" font-size="10.00">DumpState()</text>
<text text-anchor="start" x="497.5" y="-1221.5" font-family="Helvetica,sans-Serif" font-size="10.00">#</text>
<text text-anchor="start" x="510.5" y="-1221.5" font-family="Helvetica,sans-Serif" font-size="10.00">DumpState()</text>
<text text-anchor="start" x="497.5" y="-1206.5" font-family="Helvetica,sans-Serif" font-size="10.00">#</text>
<text text-anchor="start" x="510.5" y="-1206.5" font-family="Helvetica,sans-Serif" font-size="10.00">DumpState()</text>
<text text-anchor="start" x="497.5" y="-1191.5" font-family="Helvetica,sans-Serif" font-size="10.00">#</text>
<text text-anchor="start" x="510.5" y="-1191.5" font-family="Helvetica,sans-Serif" font-size="10.00">CheckParametersOnLoad()</text>
<text text-anchor="start" x="500" y="-1176.5" font-family="Helvetica,sans-Serif" font-size="10.00">&#45;</text>
<text text-anchor="start" x="510.5" y="-1176.5" font-family="Helvetica,sans-Serif" font-size="10.00">GetStateMessage()</text>
<polygon fill="#666666" stroke="#666666" points="493.5,-1426.5 493.5,-1426.5 670.5,-1426.5 670.5,-1426.5 493.5,-1426.5"/>
<polygon fill="#666666" stroke="#666666" points="493.5,-1411.5 493.5,-1411.5 670.5,-1411.5 670.5,-1411.5 493.5,-1411.5"/>
<polygon fill="none" stroke="#666666" points="493,-1170 493,-1455 670,-1455 670,-1170 493,-1170"/>
</a>
</g>
</g>
<!-- Node11&#45;&gt;Node14 -->
<g id="edge15_Node000014_Node000011" class="edge">
<title>Node11&#45;&gt;Node14</title>
<g id="a_edge15_Node000014_Node000011"><a xlink:title=" ">
<path fill="none" stroke="#63b8ff" d="M595.92,-1502.49C594.73,-1486.88 593.51,-1470.84 592.3,-1455.01"/>
<polygon fill="none" stroke="#63b8ff" points="592.45,-1502.97 596.7,-1512.68 599.43,-1502.44 592.45,-1502.97"/>
</a>
</g>
</g>
<!-- Node12 -->
<g id="Node000012" class="node">
<title>Node12</title>
<g id="a_Node000012"><a xlink:title=" ">
<polygon fill="white" stroke="transparent" points="690.5,-1852 520.5,-1852 520.5,-1792 690.5,-1792 690.5,-1852"/>
<text text-anchor="start" x="525.5" y="-1840" font-family="Helvetica,sans-Serif" font-size="10.00">shared_ptr&lt; AbstractOdeSystem</text>
<text text-anchor="start" x="571" y="-1829" font-family="Helvetica,sans-Serif" font-size="10.00">Information &gt;</text>
<text text-anchor="start" x="603.5" y="-1814" font-family="Helvetica,sans-Serif" font-size="10.00"> </text>
<text text-anchor="start" x="603.5" y="-1799" font-family="Helvetica,sans-Serif" font-size="10.00"> </text>
<polygon fill="#bfbfbf" stroke="#bfbfbf" points="520.5,-1824 520.5,-1824 690.5,-1824 690.5,-1824 520.5,-1824"/>
<polygon fill="#bfbfbf" stroke="#bfbfbf" points="520.5,-1809 520.5,-1809 690.5,-1809 690.5,-1809 520.5,-1809"/>
<polygon fill="none" stroke="#bfbfbf" points="520.5,-1792 520.5,-1852 690.5,-1852 690.5,-1792 520.5,-1792"/>
</a>
</g>
</g>
<!-- Node12&#45;&gt;Node11 -->
<g id="edge12_Node000011_Node000012" class="edge">
<title>Node12&#45;&gt;Node11</title>
<g id="a_edge12_Node000011_Node000012"><a xlink:title=" ">
<path fill="none" stroke="#63b8ff" d="M605.5,-1791.99C605.5,-1782.11 605.5,-1770.33 605.5,-1757.71"/>
<polygon fill="none" stroke="#63b8ff" points="605.5,-1757.38 601.5,-1751.38 605.5,-1745.38 609.5,-1751.38 605.5,-1757.38"/>
</a>
</g>
<text text-anchor="middle" x="647" y="-1766" font-family="Helvetica,sans-Serif" font-size="10.00" fill="grey"> #mpSystemInfo</text>
</g>
<!-- Node13 -->
<g id="Node000013" class="node">
<title>Node13</title>
<g id="a_Node000013"><a xlink:title=" ">
<polygon fill="white" stroke="transparent" points="785,-1337 688,-1337 688,-1288 785,-1288 785,-1337"/>
<text text-anchor="start" x="693.5" y="-1324.5" font-family="Helvetica,sans-Serif" font-size="10.00">vector&lt; double &gt;</text>
<text text-anchor="start" x="735" y="-1309.5" font-family="Helvetica,sans-Serif" font-size="10.00"> </text>
<text text-anchor="start" x="735" y="-1294.5" font-family="Helvetica,sans-Serif" font-size="10.00"> </text>
<polygon fill="#bfbfbf" stroke="#bfbfbf" points="688.5,-1319.5 688.5,-1319.5 785.5,-1319.5 785.5,-1319.5 688.5,-1319.5"/>
<polygon fill="#bfbfbf" stroke="#bfbfbf" points="688.5,-1304.5 688.5,-1304.5 785.5,-1304.5 785.5,-1304.5 688.5,-1304.5"/>
<polygon fill="none" stroke="#bfbfbf" points="688,-1288 688,-1337 785,-1337 785,-1288 688,-1288"/>
</a>
</g>
</g>
<!-- Node13&#45;&gt;Node10 -->
<g id="edge13_Node000010_Node000013" class="edge">
<title>Node13&#45;&gt;Node10</title>
<g id="a_edge13_Node000010_Node000013"><a xlink:title=" ">
<path fill="none" stroke="#63b8ff" d="M736.5,-1287.79C736.5,-1253.53 736.5,-1187.32 736.5,-1124.22"/>
<polygon fill="none" stroke="#63b8ff" points="736.5,-1124.07 732.5,-1118.07 736.5,-1112.07 740.5,-1118.07 736.5,-1124.07"/>
</a>
</g>
<text text-anchor="middle" x="781" y="-1144" font-family="Helvetica,sans-Serif" font-size="10.00" fill="grey"> #mParameters</text>
<text text-anchor="middle" x="781" y="-1133" font-family="Helvetica,sans-Serif" font-size="10.00" fill="grey">#mStateVariables</text>
</g>
<!-- Node14&#45;&gt;Node10 -->
<g id="edge14_Node000010_Node000014" class="edge">
<title>Node14&#45;&gt;Node10</title>
<g id="a_edge14_Node000010_Node000014"><a xlink:title=" ">
<path fill="none" stroke="orange" d="M589.43,-1159.75C592.12,-1149.5 595.44,-1139.49 599.5,-1130 611.06,-1102.98 628.89,-1077.19 647.92,-1054.51"/>
<polygon fill="orange" stroke="orange" points="585.98,-1159.1 587.02,-1169.64 592.79,-1160.75 585.98,-1159.1"/>
</a>
</g>
<text text-anchor="middle" x="666" y="-1138.5" font-family="Helvetica,sans-Serif" font-size="10.00" fill="grey"> &lt; std::vector&lt; double &gt; &gt;</text>
</g>
<!-- Node15 -->
<g id="Node000015" class="node">
<title>Node15</title>
<g id="a_Node000015"><a xlink:title=" ">
<polygon fill="white" stroke="transparent" points="484.5,-1653.5 434.5,-1653.5 434.5,-1604.5 484.5,-1604.5 484.5,-1653.5"/>
<text text-anchor="start" x="439.5" y="-1641" font-family="Helvetica,sans-Serif" font-size="10.00">VECTOR</text>
<text text-anchor="start" x="457.5" y="-1626" font-family="Helvetica,sans-Serif" font-size="10.00"> </text>
<text text-anchor="start" x="457.5" y="-1611" font-family="Helvetica,sans-Serif" font-size="10.00"> </text>
<polygon fill="#bfbfbf" stroke="#bfbfbf" points="434.5,-1636 434.5,-1636 484.5,-1636 484.5,-1636 434.5,-1636"/>
<polygon fill="#bfbfbf" stroke="#bfbfbf" points="434.5,-1621 434.5,-1621 484.5,-1621 484.5,-1621 434.5,-1621"/>
<polygon fill="none" stroke="#bfbfbf" points="434.5,-1604.5 434.5,-1653.5 484.5,-1653.5 484.5,-1604.5 434.5,-1604.5"/>
</a>
</g>
</g>
<!-- Node15&#45;&gt;Node14 -->
<g id="edge16_Node000014_Node000015" class="edge">
<title>Node15&#45;&gt;Node14</title>
<g id="a_edge16_Node000014_Node000015"><a xlink:title=" ">
<path fill="none" stroke="#63b8ff" d="M464.34,-1604.43C471.01,-1573.64 484.19,-1518.32 501.5,-1473 502.35,-1470.78 503.22,-1468.54 504.11,-1466.3"/>
<polygon fill="none" stroke="#63b8ff" points="504.17,-1466.14 502.74,-1459.08 508.71,-1455.03 510.14,-1462.1 504.17,-1466.14"/>
</a>
</g>
<text text-anchor="middle" x="546" y="-1487" font-family="Helvetica,sans-Serif" font-size="10.00" fill="grey"> #mParameters</text>
<text text-anchor="middle" x="546" y="-1476" font-family="Helvetica,sans-Serif" font-size="10.00" fill="grey">#mStateVariables</text>
</g>
</g>
</svg>
