<?xml version="1.0" encoding="UTF-8" standalone="no"?>
<!DOCTYPE svg PUBLIC "-//W3C//DTD SVG 1.1//EN"
 "http://www.w3.org/Graphics/SVG/1.1/DTD/svg11.dtd">
<!-- Generated by graphviz version 2.43.0 (0)
 -->
<!-- Title: AbstractOdeBasedContractionModel Pages: 1 -->
<svg width="696pt" height="1457pt"
 viewBox="0.00 0.00 695.50 1457.00" xmlns="http://www.w3.org/2000/svg" xmlns:xlink="http://www.w3.org/1999/xlink">
<g id="graph0" class="graph" transform="scale(1 1) rotate(0) translate(4 1453)">
<title>AbstractOdeBasedContractionModel</title>
<!-- Node1 -->
<g id="Node000001" class="node">
<title>Node1</title>
<g id="a_Node000001"><a xlink:title=" ">
<polygon fill="#999999" stroke="transparent" points="572.5,-116 404.5,-116 404.5,0 572.5,0 572.5,-116"/>
<text text-anchor="start" x="415" y="-104" font-family="Helvetica,sans-Serif" font-size="10.00">AbstractOdeBasedContraction</text>
<text text-anchor="start" x="473" y="-93" font-family="Helvetica,sans-Serif" font-size="10.00">Model</text>
<text text-anchor="start" x="486.5" y="-78" font-family="Helvetica,sans-Serif" font-size="10.00"> </text>
<text text-anchor="start" x="408.5" y="-63" font-family="Helvetica,sans-Serif" font-size="10.00">+</text>
<text text-anchor="start" x="421.5" y="-63" font-family="Helvetica,sans-Serif" font-size="10.00">AbstractOdeBasedContraction</text>
<text text-anchor="start" x="421.5" y="-52" font-family="Helvetica,sans-Serif" font-size="10.00">Model()</text>
<text text-anchor="start" x="408.5" y="-37" font-family="Helvetica,sans-Serif" font-size="10.00">+</text>
<text text-anchor="start" x="421.5" y="-37" font-family="Helvetica,sans-Serif" font-size="10.00">RunDoNotUpdate()</text>
<text text-anchor="start" x="408.5" y="-22" font-family="Helvetica,sans-Serif" font-size="10.00">+</text>
<text text-anchor="start" x="421.5" y="-22" font-family="Helvetica,sans-Serif" font-size="10.00">UpdateStateVariables()</text>
<text text-anchor="start" x="408.5" y="-7" font-family="Helvetica,sans-Serif" font-size="10.00">+</text>
<text text-anchor="start" x="421.5" y="-7" font-family="Helvetica,sans-Serif" font-size="10.00">RunAndUpdate()</text>
<polygon fill="#666666" stroke="#666666" points="404.5,-88 404.5,-88 572.5,-88 572.5,-88 404.5,-88"/>
<polygon fill="#666666" stroke="#666666" points="404.5,-73 404.5,-73 572.5,-73 572.5,-73 404.5,-73"/>
<polygon fill="none" stroke="#666666" points="404.5,0 404.5,-116 572.5,-116 572.5,0 404.5,0"/>
</a>
</g>
</g>
<!-- Node2 -->
<g id="Node000002" class="node">
<title>Node2</title>
<g id="a_Node000002"><a xlink:href="classAbstractOdeSystem.html" target="_top" xlink:title=" ">
<polygon fill="white" stroke="transparent" points="363.5,-354.5 215.5,-354.5 215.5,-185.5 363.5,-185.5 363.5,-354.5"/>
<text text-anchor="start" x="241" y="-342" font-family="Helvetica,sans-Serif" font-size="10.00">AbstractOdeSystem</text>
<text text-anchor="start" x="287.5" y="-327" font-family="Helvetica,sans-Serif" font-size="10.00"> </text>
<text text-anchor="start" x="219.5" y="-312" font-family="Helvetica,sans-Serif" font-size="10.00">+</text>
<text text-anchor="start" x="232.5" y="-312" font-family="Helvetica,sans-Serif" font-size="10.00">AbstractOdeSystem()</text>
<text text-anchor="start" x="219.5" y="-297" font-family="Helvetica,sans-Serif" font-size="10.00">+</text>
<text text-anchor="start" x="232.5" y="-297" font-family="Helvetica,sans-Serif" font-size="10.00">~AbstractOdeSystem()</text>
<text text-anchor="start" x="219.5" y="-282" font-family="Helvetica,sans-Serif" font-size="10.00">+</text>
<text text-anchor="start" x="232.5" y="-282" font-family="Helvetica,sans-Serif" font-size="10.00">EvaluateYDerivatives()</text>
<text text-anchor="start" x="219.5" y="-267" font-family="Helvetica,sans-Serif" font-size="10.00">+</text>
<text text-anchor="start" x="232.5" y="-267" font-family="Helvetica,sans-Serif" font-size="10.00">CalculateStoppingEvent()</text>
<text text-anchor="start" x="219.5" y="-252" font-family="Helvetica,sans-Serif" font-size="10.00">+</text>
<text text-anchor="start" x="232.5" y="-252" font-family="Helvetica,sans-Serif" font-size="10.00">CalculateRootFunction()</text>
<text text-anchor="start" x="219.5" y="-237" font-family="Helvetica,sans-Serif" font-size="10.00">+</text>
<text text-anchor="start" x="232.5" y="-237" font-family="Helvetica,sans-Serif" font-size="10.00">GetUseAnalyticJacobian()</text>
<text text-anchor="start" x="219.5" y="-222" font-family="Helvetica,sans-Serif" font-size="10.00">+</text>
<text text-anchor="start" x="232.5" y="-222" font-family="Helvetica,sans-Serif" font-size="10.00">rGetConstStateVariables()</text>
<text text-anchor="start" x="222" y="-207" font-family="Helvetica,sans-Serif" font-size="10.00">&#45;</text>
<text text-anchor="start" x="232.5" y="-207" font-family="Helvetica,sans-Serif" font-size="10.00">save()</text>
<text text-anchor="start" x="222" y="-192" font-family="Helvetica,sans-Serif" font-size="10.00">&#45;</text>
<text text-anchor="start" x="232.5" y="-192" font-family="Helvetica,sans-Serif" font-size="10.00">load()</text>
<polygon fill="#666666" stroke="#666666" points="215.5,-337 215.5,-337 363.5,-337 363.5,-337 215.5,-337"/>
<polygon fill="#666666" stroke="#666666" points="215.5,-322 215.5,-322 363.5,-322 363.5,-322 215.5,-322"/>
<polygon fill="none" stroke="#666666" points="215.5,-185.5 215.5,-354.5 363.5,-354.5 363.5,-185.5 215.5,-185.5"/>
</a>
</g>
</g>
<!-- Node2&#45;&gt;Node1 -->
<g id="edge1_Node000001_Node000002" class="edge">
<title>Node2&#45;&gt;Node1</title>
<g id="a_edge1_Node000001_Node000002"><a xlink:title=" ">
<path fill="none" stroke="#63b8ff" d="M370.52,-183.51C391.96,-160.88 414.59,-136.99 434.24,-116.26"/>
<polygon fill="none" stroke="#63b8ff" points="367.94,-181.14 363.6,-190.8 373.02,-185.95 367.94,-181.14"/>
</a>
</g>
</g>
<!-- Node3 -->
<g id="Node000003" class="node">
<title>Node3</title>
<g id="a_Node000003"><a xlink:href="classAbstractParameterisedSystem.html" target="_top" xlink:title=" ">
<polygon fill="white" stroke="transparent" points="300,-709 123,-709 123,-424 300,-424 300,-709"/>
<text text-anchor="start" x="138" y="-696.5" font-family="Helvetica,sans-Serif" font-size="10.00">AbstractParameterisedSystem</text>
<text text-anchor="start" x="147" y="-685.5" font-family="Helvetica,sans-Serif" font-size="10.00">&lt; std::vector&lt; double &gt; &gt;</text>
<text text-anchor="start" x="210" y="-670.5" font-family="Helvetica,sans-Serif" font-size="10.00"> </text>
<text text-anchor="start" x="127.5" y="-655.5" font-family="Helvetica,sans-Serif" font-size="10.00">+</text>
<text text-anchor="start" x="140.5" y="-655.5" font-family="Helvetica,sans-Serif" font-size="10.00">AbstractParameterisedSystem()</text>
<text text-anchor="start" x="127.5" y="-640.5" font-family="Helvetica,sans-Serif" font-size="10.00">+</text>
<text text-anchor="start" x="140.5" y="-640.5" font-family="Helvetica,sans-Serif" font-size="10.00">rGetStateVariables()</text>
<text text-anchor="start" x="127.5" y="-625.5" font-family="Helvetica,sans-Serif" font-size="10.00">+</text>
<text text-anchor="start" x="140.5" y="-625.5" font-family="Helvetica,sans-Serif" font-size="10.00">GetStateVariables()</text>
<text text-anchor="start" x="127.5" y="-610.5" font-family="Helvetica,sans-Serif" font-size="10.00">+</text>
<text text-anchor="start" x="140.5" y="-610.5" font-family="Helvetica,sans-Serif" font-size="10.00">SetStateVariables()</text>
<text text-anchor="start" x="127.5" y="-595.5" font-family="Helvetica,sans-Serif" font-size="10.00">+</text>
<text text-anchor="start" x="140.5" y="-595.5" font-family="Helvetica,sans-Serif" font-size="10.00">GetStateVariable()</text>
<text text-anchor="start" x="127.5" y="-580.5" font-family="Helvetica,sans-Serif" font-size="10.00">+</text>
<text text-anchor="start" x="140.5" y="-580.5" font-family="Helvetica,sans-Serif" font-size="10.00">GetStateVariable()</text>
<text text-anchor="start" x="127.5" y="-565.5" font-family="Helvetica,sans-Serif" font-size="10.00">+</text>
<text text-anchor="start" x="140.5" y="-565.5" font-family="Helvetica,sans-Serif" font-size="10.00">SetStateVariable()</text>
<text text-anchor="start" x="127.5" y="-550.5" font-family="Helvetica,sans-Serif" font-size="10.00">+</text>
<text text-anchor="start" x="140.5" y="-550.5" font-family="Helvetica,sans-Serif" font-size="10.00">SetStateVariable()</text>
<text text-anchor="start" x="127.5" y="-535.5" font-family="Helvetica,sans-Serif" font-size="10.00">+</text>
<text text-anchor="start" x="140.5" y="-535.5" font-family="Helvetica,sans-Serif" font-size="10.00">VerifyStateVariables()</text>
<text text-anchor="start" x="127.5" y="-520.5" font-family="Helvetica,sans-Serif" font-size="10.00">+</text>
<text text-anchor="start" x="140.5" y="-520.5" font-family="Helvetica,sans-Serif" font-size="10.00">SetDefaultInitialConditions()</text>
<text text-anchor="start" x="140.5" y="-505.5" font-family="Helvetica,sans-Serif" font-size="10.00">and 13 more...</text>
<text text-anchor="start" x="127.5" y="-490.5" font-family="Helvetica,sans-Serif" font-size="10.00">#</text>
<text text-anchor="start" x="140.5" y="-490.5" font-family="Helvetica,sans-Serif" font-size="10.00">DumpState()</text>
<text text-anchor="start" x="127.5" y="-475.5" font-family="Helvetica,sans-Serif" font-size="10.00">#</text>
<text text-anchor="start" x="140.5" y="-475.5" font-family="Helvetica,sans-Serif" font-size="10.00">DumpState()</text>
<text text-anchor="start" x="127.5" y="-460.5" font-family="Helvetica,sans-Serif" font-size="10.00">#</text>
<text text-anchor="start" x="140.5" y="-460.5" font-family="Helvetica,sans-Serif" font-size="10.00">DumpState()</text>
<text text-anchor="start" x="127.5" y="-445.5" font-family="Helvetica,sans-Serif" font-size="10.00">#</text>
<text text-anchor="start" x="140.5" y="-445.5" font-family="Helvetica,sans-Serif" font-size="10.00">CheckParametersOnLoad()</text>
<text text-anchor="start" x="130" y="-430.5" font-family="Helvetica,sans-Serif" font-size="10.00">&#45;</text>
<text text-anchor="start" x="140.5" y="-430.5" font-family="Helvetica,sans-Serif" font-size="10.00">GetStateMessage()</text>
<polygon fill="#666666" stroke="#666666" points="123.5,-680.5 123.5,-680.5 300.5,-680.5 300.5,-680.5 123.5,-680.5"/>
<polygon fill="#666666" stroke="#666666" points="123.5,-665.5 123.5,-665.5 300.5,-665.5 300.5,-665.5 123.5,-665.5"/>
<polygon fill="none" stroke="#666666" points="123,-424 123,-709 300,-709 300,-424 123,-424"/>
</a>
</g>
</g>
<!-- Node3&#45;&gt;Node2 -->
<g id="edge2_Node000002_Node000003" class="edge">
<title>Node3&#45;&gt;Node2</title>
<g id="a_edge2_Node000002_Node000003"><a xlink:title=" ">
<path fill="none" stroke="#63b8ff" d="M251.59,-414.12C257.02,-393.64 262.42,-373.26 267.37,-354.57"/>
<polygon fill="none" stroke="#63b8ff" points="248.19,-413.29 249.01,-423.86 254.96,-415.09 248.19,-413.29"/>
</a>
</g>
</g>
<!-- Node4 -->
<g id="Node000004" class="node">
<title>Node4</title>
<g id="a_Node000004"><a xlink:href="classAbstractUntemplatedParameterisedSystem.html" target="_top" xlink:title=" ">
<polygon fill="white" stroke="transparent" points="338,-1342 133,-1342 133,-1110 338,-1110 338,-1342"/>
<text text-anchor="start" x="148.5" y="-1330" font-family="Helvetica,sans-Serif" font-size="10.00">AbstractUntemplatedParameterised</text>
<text text-anchor="start" x="217.5" y="-1319" font-family="Helvetica,sans-Serif" font-size="10.00">System</text>
<text text-anchor="start" x="234" y="-1304" font-family="Helvetica,sans-Serif" font-size="10.00"> </text>
<text text-anchor="start" x="137.5" y="-1289" font-family="Helvetica,sans-Serif" font-size="10.00">+</text>
<text text-anchor="start" x="150.5" y="-1289" font-family="Helvetica,sans-Serif" font-size="10.00">AbstractUntemplatedParameterised</text>
<text text-anchor="start" x="150.5" y="-1278" font-family="Helvetica,sans-Serif" font-size="10.00">System()</text>
<text text-anchor="start" x="137.5" y="-1263" font-family="Helvetica,sans-Serif" font-size="10.00">+</text>
<text text-anchor="start" x="150.5" y="-1263" font-family="Helvetica,sans-Serif" font-size="10.00">~AbstractUntemplatedParameterised</text>
<text text-anchor="start" x="150.5" y="-1252" font-family="Helvetica,sans-Serif" font-size="10.00">System()</text>
<text text-anchor="start" x="137.5" y="-1237" font-family="Helvetica,sans-Serif" font-size="10.00">+</text>
<text text-anchor="start" x="150.5" y="-1237" font-family="Helvetica,sans-Serif" font-size="10.00">GetSystemInformation()</text>
<text text-anchor="start" x="137.5" y="-1222" font-family="Helvetica,sans-Serif" font-size="10.00">+</text>
<text text-anchor="start" x="150.5" y="-1222" font-family="Helvetica,sans-Serif" font-size="10.00">GetSystemName()</text>
<text text-anchor="start" x="137.5" y="-1207" font-family="Helvetica,sans-Serif" font-size="10.00">+</text>
<text text-anchor="start" x="150.5" y="-1207" font-family="Helvetica,sans-Serif" font-size="10.00">GetNumberOfAttributes()</text>
<text text-anchor="start" x="137.5" y="-1192" font-family="Helvetica,sans-Serif" font-size="10.00">+</text>
<text text-anchor="start" x="150.5" y="-1192" font-family="Helvetica,sans-Serif" font-size="10.00">HasAttribute()</text>
<text text-anchor="start" x="137.5" y="-1177" font-family="Helvetica,sans-Serif" font-size="10.00">+</text>
<text text-anchor="start" x="150.5" y="-1177" font-family="Helvetica,sans-Serif" font-size="10.00">GetAttribute()</text>
<text text-anchor="start" x="137.5" y="-1162" font-family="Helvetica,sans-Serif" font-size="10.00">+</text>
<text text-anchor="start" x="150.5" y="-1162" font-family="Helvetica,sans-Serif" font-size="10.00">GetNumberOfStateVariables()</text>
<text text-anchor="start" x="137.5" y="-1147" font-family="Helvetica,sans-Serif" font-size="10.00">+</text>
<text text-anchor="start" x="150.5" y="-1147" font-family="Helvetica,sans-Serif" font-size="10.00">rGetStateVariableNames()</text>
<text text-anchor="start" x="137.5" y="-1132" font-family="Helvetica,sans-Serif" font-size="10.00">+</text>
<text text-anchor="start" x="150.5" y="-1132" font-family="Helvetica,sans-Serif" font-size="10.00">rGetStateVariableUnits()</text>
<text text-anchor="start" x="150.5" y="-1117" font-family="Helvetica,sans-Serif" font-size="10.00">and 20 more...</text>
<polygon fill="#666666" stroke="#666666" points="133.5,-1314 133.5,-1314 338.5,-1314 338.5,-1314 133.5,-1314"/>
<polygon fill="#666666" stroke="#666666" points="133.5,-1299 133.5,-1299 338.5,-1299 338.5,-1299 133.5,-1299"/>
<polygon fill="none" stroke="#666666" points="133,-1110 133,-1342 338,-1342 338,-1110 133,-1110"/>
</a>
</g>
</g>
<!-- Node4&#45;&gt;Node3 -->
<g id="edge3_Node000003_Node000004" class="edge">
<title>Node4&#45;&gt;Node3</title>
<g id="a_edge3_Node000003_Node000004"><a xlink:title=" ">
<path fill="none" stroke="#63b8ff" d="M233.17,-1099.52C231.01,-998.79 227.25,-853.76 221.5,-727 221.24,-721.18 220.95,-715.24 220.64,-709.24"/>
<polygon fill="none" stroke="#63b8ff" points="229.68,-1099.81 233.39,-1109.74 236.67,-1099.67 229.68,-1099.81"/>
</a>
</g>
</g>
<!-- Node8 -->
<g id="Node000008" class="node">
<title>Node8</title>
<g id="a_Node000008"><a xlink:href="classAbstractParameterisedSystem.html" target="_top" xlink:title=" ">
<polygon fill="white" stroke="transparent" points="177,-1052 0,-1052 0,-767 177,-767 177,-1052"/>
<text text-anchor="start" x="15" y="-1039.5" font-family="Helvetica,sans-Serif" font-size="10.00">AbstractParameterisedSystem</text>
<text text-anchor="start" x="57.5" y="-1028.5" font-family="Helvetica,sans-Serif" font-size="10.00">&lt; VECTOR &gt;</text>
<text text-anchor="start" x="87" y="-1013.5" font-family="Helvetica,sans-Serif" font-size="10.00"> </text>
<text text-anchor="start" x="4.5" y="-998.5" font-family="Helvetica,sans-Serif" font-size="10.00">+</text>
<text text-anchor="start" x="17.5" y="-998.5" font-family="Helvetica,sans-Serif" font-size="10.00">AbstractParameterisedSystem()</text>
<text text-anchor="start" x="4.5" y="-983.5" font-family="Helvetica,sans-Serif" font-size="10.00">+</text>
<text text-anchor="start" x="17.5" y="-983.5" font-family="Helvetica,sans-Serif" font-size="10.00">rGetStateVariables()</text>
<text text-anchor="start" x="4.5" y="-968.5" font-family="Helvetica,sans-Serif" font-size="10.00">+</text>
<text text-anchor="start" x="17.5" y="-968.5" font-family="Helvetica,sans-Serif" font-size="10.00">GetStateVariables()</text>
<text text-anchor="start" x="4.5" y="-953.5" font-family="Helvetica,sans-Serif" font-size="10.00">+</text>
<text text-anchor="start" x="17.5" y="-953.5" font-family="Helvetica,sans-Serif" font-size="10.00">SetStateVariables()</text>
<text text-anchor="start" x="4.5" y="-938.5" font-family="Helvetica,sans-Serif" font-size="10.00">+</text>
<text text-anchor="start" x="17.5" y="-938.5" font-family="Helvetica,sans-Serif" font-size="10.00">GetStateVariable()</text>
<text text-anchor="start" x="4.5" y="-923.5" font-family="Helvetica,sans-Serif" font-size="10.00">+</text>
<text text-anchor="start" x="17.5" y="-923.5" font-family="Helvetica,sans-Serif" font-size="10.00">GetStateVariable()</text>
<text text-anchor="start" x="4.5" y="-908.5" font-family="Helvetica,sans-Serif" font-size="10.00">+</text>
<text text-anchor="start" x="17.5" y="-908.5" font-family="Helvetica,sans-Serif" font-size="10.00">SetStateVariable()</text>
<text text-anchor="start" x="4.5" y="-893.5" font-family="Helvetica,sans-Serif" font-size="10.00">+</text>
<text text-anchor="start" x="17.5" y="-893.5" font-family="Helvetica,sans-Serif" font-size="10.00">SetStateVariable()</text>
<text text-anchor="start" x="4.5" y="-878.5" font-family="Helvetica,sans-Serif" font-size="10.00">+</text>
<text text-anchor="start" x="17.5" y="-878.5" font-family="Helvetica,sans-Serif" font-size="10.00">VerifyStateVariables()</text>
<text text-anchor="start" x="4.5" y="-863.5" font-family="Helvetica,sans-Serif" font-size="10.00">+</text>
<text text-anchor="start" x="17.5" y="-863.5" font-family="Helvetica,sans-Serif" font-size="10.00">SetDefaultInitialConditions()</text>
<text text-anchor="start" x="17.5" y="-848.5" font-family="Helvetica,sans-Serif" font-size="10.00">and 13 more...</text>
<text text-anchor="start" x="4.5" y="-833.5" font-family="Helvetica,sans-Serif" font-size="10.00">#</text>
<text text-anchor="start" x="17.5" y="-833.5" font-family="Helvetica,sans-Serif" font-size="10.00">DumpState()</text>
<text text-anchor="start" x="4.5" y="-818.5" font-family="Helvetica,sans-Serif" font-size="10.00">#</text>
<text text-anchor="start" x="17.5" y="-818.5" font-family="Helvetica,sans-Serif" font-size="10.00">DumpState()</text>
<text text-anchor="start" x="4.5" y="-803.5" font-family="Helvetica,sans-Serif" font-size="10.00">#</text>
<text text-anchor="start" x="17.5" y="-803.5" font-family="Helvetica,sans-Serif" font-size="10.00">DumpState()</text>
<text text-anchor="start" x="4.5" y="-788.5" font-family="Helvetica,sans-Serif" font-size="10.00">#</text>
<text text-anchor="start" x="17.5" y="-788.5" font-family="Helvetica,sans-Serif" font-size="10.00">CheckParametersOnLoad()</text>
<text text-anchor="start" x="7" y="-773.5" font-family="Helvetica,sans-Serif" font-size="10.00">&#45;</text>
<text text-anchor="start" x="17.5" y="-773.5" font-family="Helvetica,sans-Serif" font-size="10.00">GetStateMessage()</text>
<polygon fill="#666666" stroke="#666666" points="0.5,-1023.5 0.5,-1023.5 177.5,-1023.5 177.5,-1023.5 0.5,-1023.5"/>
<polygon fill="#666666" stroke="#666666" points="0.5,-1008.5 0.5,-1008.5 177.5,-1008.5 177.5,-1008.5 0.5,-1008.5"/>
<polygon fill="none" stroke="#666666" points="0,-767 0,-1052 177,-1052 177,-767 0,-767"/>
</a>
</g>
</g>
<!-- Node4&#45;&gt;Node8 -->
<g id="edge8_Node000008_Node000004" class="edge">
<title>Node4&#45;&gt;Node8</title>
<g id="a_edge8_Node000008_Node000004"><a xlink:title=" ">
<path fill="none" stroke="#63b8ff" d="M194.41,-1100.23C190.29,-1089.9 185.97,-1079.71 181.5,-1070 178.82,-1064.18 175.99,-1058.29 173.05,-1052.39"/>
<polygon fill="none" stroke="#63b8ff" points="191.23,-1101.7 198.13,-1109.74 197.75,-1099.15 191.23,-1101.7"/>
</a>
</g>
</g>
<!-- Node5 -->
<g id="Node000005" class="node">
<title>Node5</title>
<g id="a_Node000005"><a xlink:href="classunsigned.html" target="_top" xlink:title=" ">
<polygon fill="white" stroke="transparent" points="180,-1443.5 125,-1443.5 125,-1394.5 180,-1394.5 180,-1443.5"/>
<text text-anchor="start" x="130.5" y="-1431" font-family="Helvetica,sans-Serif" font-size="10.00">unsigned</text>
<text text-anchor="start" x="151" y="-1416" font-family="Helvetica,sans-Serif" font-size="10.00"> </text>
<text text-anchor="start" x="151" y="-1401" font-family="Helvetica,sans-Serif" font-size="10.00"> </text>
<polygon fill="#bfbfbf" stroke="#bfbfbf" points="125.5,-1426 125.5,-1426 180.5,-1426 180.5,-1426 125.5,-1426"/>
<polygon fill="#bfbfbf" stroke="#bfbfbf" points="125.5,-1411 125.5,-1411 180.5,-1411 180.5,-1411 125.5,-1411"/>
<polygon fill="none" stroke="#bfbfbf" points="125,-1394.5 125,-1443.5 180,-1443.5 180,-1394.5 125,-1394.5"/>
</a>
</g>
</g>
<!-- Node5&#45;&gt;Node4 -->
<g id="edge4_Node000004_Node000005" class="edge">
<title>Node5&#45;&gt;Node4</title>
<g id="a_edge4_Node000004_Node000005"><a xlink:title=" ">
<path fill="none" stroke="#63b8ff" d="M147.75,-1394.44C146.49,-1383.73 146.25,-1371.02 149.5,-1360 150.13,-1357.87 150.8,-1355.74 151.52,-1353.61"/>
<polygon fill="none" stroke="#63b8ff" points="151.55,-1353.53 149.9,-1346.51 155.75,-1342.29 157.4,-1349.31 151.55,-1353.53"/>
</a>
</g>
<text text-anchor="middle" x="220.5" y="-1363" font-family="Helvetica,sans-Serif" font-size="10.00" fill="grey"> #mNumberOfStateVariables</text>
</g>
<!-- Node6 -->
<g id="Node000006" class="node">
<title>Node6</title>
<g id="a_Node000006"><a xlink:title=" ">
<polygon fill="white" stroke="transparent" points="402.5,-1449 232.5,-1449 232.5,-1389 402.5,-1389 402.5,-1449"/>
<text text-anchor="start" x="237.5" y="-1437" font-family="Helvetica,sans-Serif" font-size="10.00">shared_ptr&lt; AbstractOdeSystem</text>
<text text-anchor="start" x="283" y="-1426" font-family="Helvetica,sans-Serif" font-size="10.00">Information &gt;</text>
<text text-anchor="start" x="315.5" y="-1411" font-family="Helvetica,sans-Serif" font-size="10.00"> </text>
<text text-anchor="start" x="315.5" y="-1396" font-family="Helvetica,sans-Serif" font-size="10.00"> </text>
<polygon fill="#bfbfbf" stroke="#bfbfbf" points="232.5,-1421 232.5,-1421 402.5,-1421 402.5,-1421 232.5,-1421"/>
<polygon fill="#bfbfbf" stroke="#bfbfbf" points="232.5,-1406 232.5,-1406 402.5,-1406 402.5,-1406 232.5,-1406"/>
<polygon fill="none" stroke="#bfbfbf" points="232.5,-1389 232.5,-1449 402.5,-1449 402.5,-1389 232.5,-1389"/>
</a>
</g>
</g>
<!-- Node6&#45;&gt;Node4 -->
<g id="edge5_Node000004_Node000006" class="edge">
<title>Node6&#45;&gt;Node4</title>
<g id="a_edge5_Node000004_Node000006"><a xlink:title=" ">
<path fill="none" stroke="#63b8ff" d="M306.88,-1388.95C303.37,-1379.65 299.38,-1369.35 295.5,-1360 294.59,-1357.81 293.67,-1355.6 292.73,-1353.37"/>
<polygon fill="none" stroke="#63b8ff" points="292.66,-1353.2 286.63,-1349.24 287.97,-1342.15 294,-1346.11 292.66,-1353.2"/>
</a>
</g>
<text text-anchor="middle" x="341" y="-1363" font-family="Helvetica,sans-Serif" font-size="10.00" fill="grey"> #mpSystemInfo</text>
</g>
<!-- Node7 -->
<g id="Node000007" class="node">
<title>Node7</title>
<g id="a_Node000007"><a xlink:title=" ">
<polygon fill="white" stroke="transparent" points="391,-934 294,-934 294,-885 391,-885 391,-934"/>
<text text-anchor="start" x="299.5" y="-921.5" font-family="Helvetica,sans-Serif" font-size="10.00">vector&lt; double &gt;</text>
<text text-anchor="start" x="341" y="-906.5" font-family="Helvetica,sans-Serif" font-size="10.00"> </text>
<text text-anchor="start" x="341" y="-891.5" font-family="Helvetica,sans-Serif" font-size="10.00"> </text>
<polygon fill="#bfbfbf" stroke="#bfbfbf" points="294.5,-916.5 294.5,-916.5 391.5,-916.5 391.5,-916.5 294.5,-916.5"/>
<polygon fill="#bfbfbf" stroke="#bfbfbf" points="294.5,-901.5 294.5,-901.5 391.5,-901.5 391.5,-901.5 294.5,-901.5"/>
<polygon fill="none" stroke="#bfbfbf" points="294,-885 294,-934 391,-934 391,-885 294,-885"/>
</a>
</g>
</g>
<!-- Node7&#45;&gt;Node1 -->
<g id="edge12_Node000001_Node000007" class="edge">
<title>Node7&#45;&gt;Node1</title>
<g id="a_edge12_Node000001_Node000007"><a xlink:title=" ">
<path fill="none" stroke="#63b8ff" d="M347.76,-884.81C354.54,-853.74 366.42,-797.47 374.5,-749 396.1,-619.42 422.19,-290.83 452.5,-163 455.24,-151.43 458.78,-139.33 462.57,-127.66"/>
<polygon fill="none" stroke="#63b8ff" points="462.61,-127.53 460.72,-120.57 466.41,-116.15 468.3,-123.11 462.61,-127.53"/>
</a>
</g>
<text text-anchor="middle" x="489.5" y="-398" font-family="Helvetica,sans-Serif" font-size="10.00" fill="grey"> #mTemporaryStateVariables</text>
</g>
<!-- Node7&#45;&gt;Node3 -->
<g id="edge6_Node000003_Node000007" class="edge">
<title>Node7&#45;&gt;Node3</title>
<g id="a_edge6_Node000003_Node000007"><a xlink:title=" ">
<path fill="none" stroke="#63b8ff" d="M333.39,-884.79C320.17,-850.38 294.58,-783.77 270.25,-720.43"/>
<polygon fill="none" stroke="#63b8ff" points="270.19,-720.27 264.3,-716.1 265.88,-709.07 271.77,-713.23 270.19,-720.27"/>
</a>
</g>
<text text-anchor="middle" x="326" y="-741" font-family="Helvetica,sans-Serif" font-size="10.00" fill="grey"> #mParameters</text>
<text text-anchor="middle" x="326" y="-730" font-family="Helvetica,sans-Serif" font-size="10.00" fill="grey">#mStateVariables</text>
</g>
<!-- Node8&#45;&gt;Node3 -->
<g id="edge7_Node000003_Node000008" class="edge">
<title>Node8&#45;&gt;Node3</title>
<g id="a_edge7_Node000003_Node000008"><a xlink:title=" ">
<path fill="none" stroke="orange" d="M81.05,-756.6C82.83,-746.46 85.26,-736.51 88.5,-727 96.28,-704.16 108.81,-682.05 122.95,-661.93"/>
<polygon fill="orange" stroke="orange" points="77.54,-756.38 79.49,-766.8 84.46,-757.44 77.54,-756.38"/>
</a>
</g>
<text text-anchor="middle" x="155" y="-735.5" font-family="Helvetica,sans-Serif" font-size="10.00" fill="grey"> &lt; std::vector&lt; double &gt; &gt;</text>
</g>
<!-- Node9 -->
<g id="Node000009" class="node">
<title>Node9</title>
<g id="a_Node000009"><a xlink:title=" ">
<polygon fill="white" stroke="transparent" points="113.5,-1250.5 63.5,-1250.5 63.5,-1201.5 113.5,-1201.5 113.5,-1250.5"/>
<text text-anchor="start" x="68.5" y="-1238" font-family="Helvetica,sans-Serif" font-size="10.00">VECTOR</text>
<text text-anchor="start" x="86.5" y="-1223" font-family="Helvetica,sans-Serif" font-size="10.00"> </text>
<text text-anchor="start" x="86.5" y="-1208" font-family="Helvetica,sans-Serif" font-size="10.00"> </text>
<polygon fill="#bfbfbf" stroke="#bfbfbf" points="63.5,-1233 63.5,-1233 113.5,-1233 113.5,-1233 63.5,-1233"/>
<polygon fill="#bfbfbf" stroke="#bfbfbf" points="63.5,-1218 63.5,-1218 113.5,-1218 113.5,-1218 63.5,-1218"/>
<polygon fill="none" stroke="#bfbfbf" points="63.5,-1201.5 63.5,-1250.5 113.5,-1250.5 113.5,-1201.5 63.5,-1201.5"/>
</a>
</g>
</g>
<!-- Node9&#45;&gt;Node8 -->
<g id="edge9_Node000008_Node000009" class="edge">
<title>Node9&#45;&gt;Node8</title>
<g id="a_edge9_Node000008_Node000009"><a xlink:title=" ">
<path fill="none" stroke="#63b8ff" d="M88.5,-1201.36C88.5,-1171.55 88.5,-1117.7 88.5,-1064.38"/>
<polygon fill="none" stroke="#63b8ff" points="88.5,-1064.3 84.5,-1058.3 88.5,-1052.3 92.5,-1058.3 88.5,-1064.3"/>
</a>
</g>
<text text-anchor="middle" x="133" y="-1084" font-family="Helvetica,sans-Serif" font-size="10.00" fill="grey"> #mParameters</text>
<text text-anchor="middle" x="133" y="-1073" font-family="Helvetica,sans-Serif" font-size="10.00" fill="grey">#mStateVariables</text>
</g>
<!-- Node10 -->
<g id="Node000010" class="node">
<title>Node10</title>
<g id="a_Node000010"><a xlink:href="classbool.html" target="_top" xlink:title=" ">
<polygon fill="white" stroke="transparent" points="349.5,-591 317.5,-591 317.5,-542 349.5,-542 349.5,-591"/>
<text text-anchor="start" x="322.5" y="-578.5" font-family="Helvetica,sans-Serif" font-size="10.00">bool</text>
<text text-anchor="start" x="331.5" y="-563.5" font-family="Helvetica,sans-Serif" font-size="10.00"> </text>
<text text-anchor="start" x="331.5" y="-548.5" font-family="Helvetica,sans-Serif" font-size="10.00"> </text>
<polygon fill="#bfbfbf" stroke="#bfbfbf" points="317.5,-573.5 317.5,-573.5 349.5,-573.5 349.5,-573.5 317.5,-573.5"/>
<polygon fill="#bfbfbf" stroke="#bfbfbf" points="317.5,-558.5 317.5,-558.5 349.5,-558.5 349.5,-558.5 317.5,-558.5"/>
<polygon fill="none" stroke="#bfbfbf" points="317.5,-542 317.5,-591 349.5,-591 349.5,-542 317.5,-542"/>
</a>
</g>
</g>
<!-- Node10&#45;&gt;Node2 -->
<g id="edge10_Node000002_Node000010" class="edge">
<title>Node10&#45;&gt;Node2</title>
<g id="a_edge10_Node000002_Node000010"><a xlink:title=" ">
<path fill="none" stroke="#63b8ff" d="M333.59,-541.83C332.77,-512.55 328.26,-461.95 308.5,-424 303.27,-413.97 294.87,-416.44 290.5,-406 285.41,-393.83 282.51,-380.49 281.08,-367.08"/>
<polygon fill="none" stroke="#63b8ff" points="281.05,-366.74 276.62,-361.06 280.16,-354.78 284.59,-360.46 281.05,-366.74"/>
</a>
</g>
<text text-anchor="middle" x="351" y="-398" font-family="Helvetica,sans-Serif" font-size="10.00" fill="grey"> #mUseAnalyticJacobian</text>
</g>
<!-- Node11 -->
<g id="Node000011" class="node">
<title>Node11</title>
<g id="a_Node000011"><a xlink:href="classAbstractContractionModel.html" target="_top" xlink:title=" ">
<polygon fill="white" stroke="transparent" points="625.5,-377 461.5,-377 461.5,-163 625.5,-163 625.5,-377"/>
<text text-anchor="start" x="480" y="-365" font-family="Helvetica,sans-Serif" font-size="10.00">AbstractContractionModel</text>
<text text-anchor="start" x="541.5" y="-350" font-family="Helvetica,sans-Serif" font-size="10.00"> </text>
<text text-anchor="start" x="465.5" y="-335" font-family="Helvetica,sans-Serif" font-size="10.00">+</text>
<text text-anchor="start" x="478.5" y="-335" font-family="Helvetica,sans-Serif" font-size="10.00">AbstractContractionModel()</text>
<text text-anchor="start" x="465.5" y="-320" font-family="Helvetica,sans-Serif" font-size="10.00">+</text>
<text text-anchor="start" x="478.5" y="-320" font-family="Helvetica,sans-Serif" font-size="10.00">~AbstractContractionModel()</text>
<text text-anchor="start" x="465.5" y="-305" font-family="Helvetica,sans-Serif" font-size="10.00">+</text>
<text text-anchor="start" x="478.5" y="-305" font-family="Helvetica,sans-Serif" font-size="10.00">IsStretchDependent()</text>
<text text-anchor="start" x="465.5" y="-290" font-family="Helvetica,sans-Serif" font-size="10.00">+</text>
<text text-anchor="start" x="478.5" y="-290" font-family="Helvetica,sans-Serif" font-size="10.00">IsStretchRateDependent()</text>
<text text-anchor="start" x="465.5" y="-275" font-family="Helvetica,sans-Serif" font-size="10.00">+</text>
<text text-anchor="start" x="478.5" y="-275" font-family="Helvetica,sans-Serif" font-size="10.00">SetInputParameters()</text>
<text text-anchor="start" x="465.5" y="-260" font-family="Helvetica,sans-Serif" font-size="10.00">+</text>
<text text-anchor="start" x="478.5" y="-260" font-family="Helvetica,sans-Serif" font-size="10.00">SetStretchAndStretchRate()</text>
<text text-anchor="start" x="465.5" y="-245" font-family="Helvetica,sans-Serif" font-size="10.00">+</text>
<text text-anchor="start" x="478.5" y="-245" font-family="Helvetica,sans-Serif" font-size="10.00">SetStretch()</text>
<text text-anchor="start" x="465.5" y="-230" font-family="Helvetica,sans-Serif" font-size="10.00">+</text>
<text text-anchor="start" x="478.5" y="-230" font-family="Helvetica,sans-Serif" font-size="10.00">RunDoNotUpdate()</text>
<text text-anchor="start" x="465.5" y="-215" font-family="Helvetica,sans-Serif" font-size="10.00">+</text>
<text text-anchor="start" x="478.5" y="-215" font-family="Helvetica,sans-Serif" font-size="10.00">RunAndUpdate()</text>
<text text-anchor="start" x="465.5" y="-200" font-family="Helvetica,sans-Serif" font-size="10.00">+</text>
<text text-anchor="start" x="478.5" y="-200" font-family="Helvetica,sans-Serif" font-size="10.00">UpdateStateVariables()</text>
<text text-anchor="start" x="465.5" y="-185" font-family="Helvetica,sans-Serif" font-size="10.00">+</text>
<text text-anchor="start" x="478.5" y="-185" font-family="Helvetica,sans-Serif" font-size="10.00">GetActiveTension()</text>
<text text-anchor="start" x="465.5" y="-170" font-family="Helvetica,sans-Serif" font-size="10.00">+</text>
<text text-anchor="start" x="478.5" y="-170" font-family="Helvetica,sans-Serif" font-size="10.00">GetNextActiveTension()</text>
<polygon fill="#666666" stroke="#666666" points="461.5,-360 461.5,-360 625.5,-360 625.5,-360 461.5,-360"/>
<polygon fill="#666666" stroke="#666666" points="461.5,-345 461.5,-345 625.5,-345 625.5,-345 461.5,-345"/>
<polygon fill="none" stroke="#666666" points="461.5,-163 461.5,-377 625.5,-377 625.5,-163 461.5,-163"/>
</a>
</g>
</g>
<!-- Node11&#45;&gt;Node1 -->
<g id="edge11_Node000001_Node000011" class="edge">
<title>Node11&#45;&gt;Node1</title>
<g id="a_edge11_Node000001_Node000011"><a xlink:title=" ">
<path fill="none" stroke="#63b8ff" d="M513.12,-152.99C509.78,-140.25 506.5,-127.72 503.47,-116.17"/>
<polygon fill="none" stroke="#63b8ff" points="509.76,-153.98 515.68,-162.77 516.53,-152.21 509.76,-153.98"/>
</a>
</g>
</g>
<!-- Node12 -->
<g id="Node000012" class="node">
<title>Node12</title>
<g id="a_Node000012"><a xlink:href="classdouble.html" target="_top" xlink:title=" ">
<polygon fill="white" stroke="transparent" points="687.5,-294.5 643.5,-294.5 643.5,-245.5 687.5,-245.5 687.5,-294.5"/>
<text text-anchor="start" x="648.5" y="-282" font-family="Helvetica,sans-Serif" font-size="10.00">double</text>
<text text-anchor="start" x="663.5" y="-267" font-family="Helvetica,sans-Serif" font-size="10.00"> </text>
<text text-anchor="start" x="663.5" y="-252" font-family="Helvetica,sans-Serif" font-size="10.00"> </text>
<polygon fill="#bfbfbf" stroke="#bfbfbf" points="643.5,-277 643.5,-277 687.5,-277 687.5,-277 643.5,-277"/>
<polygon fill="#bfbfbf" stroke="#bfbfbf" points="643.5,-262 643.5,-262 687.5,-262 687.5,-262 643.5,-262"/>
<polygon fill="none" stroke="#bfbfbf" points="643.5,-245.5 643.5,-294.5 687.5,-294.5 687.5,-245.5 643.5,-245.5"/>
</a>
</g>
</g>
<!-- Node12&#45;&gt;Node1 -->
<g id="edge13_Node000001_Node000012" class="edge">
<title>Node12&#45;&gt;Node1</title>
<g id="a_edge13_Node000001_Node000012"><a xlink:title=" ">
<path fill="none" stroke="#63b8ff" d="M663.07,-245.15C659.75,-222.28 652.06,-187.69 634.5,-163 620.61,-143.47 601.87,-126.29 582.46,-111.8"/>
<polygon fill="none" stroke="#63b8ff" points="582.32,-111.69 575.11,-111.44 572.58,-104.68 579.78,-104.94 582.32,-111.69"/>
</a>
</g>
<text text-anchor="middle" x="641.5" y="-137" font-family="Helvetica,sans-Serif" font-size="10.00" fill="grey"> #mTime</text>
</g>
</g>
</svg>
