<?xml version="1.0" encoding="UTF-8" standalone="no"?>
<!DOCTYPE svg PUBLIC "-//W3C//DTD SVG 1.1//EN"
 "http://www.w3.org/Graphics/SVG/1.1/DTD/svg11.dtd">
<!-- Generated by graphviz version 2.43.0 (0)
 -->
<!-- Title: CellProliferativeTypesCountWriter&lt; ELEMENT_DIM, SPACE_DIM &gt; Pages: 1 -->
<svg width="408pt" height="755pt"
 viewBox="0.00 0.00 408.00 755.00" xmlns="http://www.w3.org/2000/svg" xmlns:xlink="http://www.w3.org/1999/xlink">
<g id="graph0" class="graph" transform="scale(1 1) rotate(0) translate(4 751)">
<title>CellProliferativeTypesCountWriter&lt; ELEMENT_DIM, SPACE_DIM &gt;</title>
<!-- Node1 -->
<g id="Node000001" class="node">
<title>Node1</title>
<g id="a_Node000001"><a xlink:title=" ">
<polygon fill="#999999" stroke="transparent" points="310.5,-176 115.5,-176 115.5,0 310.5,0 310.5,-176"/>
<text text-anchor="start" x="121" y="-164" font-family="Helvetica,sans-Serif" font-size="10.00">CellProliferativeTypesCount</text>
<text text-anchor="start" x="121" y="-153" font-family="Helvetica,sans-Serif" font-size="10.00">Writer&lt; ELEMENT_DIM, SPACE_DIM &gt;</text>
<text text-anchor="start" x="211.5" y="-138" font-family="Helvetica,sans-Serif" font-size="10.00"> </text>
<text text-anchor="start" x="129.5" y="-123" font-family="Helvetica,sans-Serif" font-size="10.00">+</text>
<text text-anchor="start" x="152" y="-123" font-family="Helvetica,sans-Serif" font-size="10.00">CellProliferativeTypesCount</text>
<text text-anchor="start" x="152" y="-112" font-family="Helvetica,sans-Serif" font-size="10.00">Writer()</text>
<text text-anchor="start" x="129.5" y="-97" font-family="Helvetica,sans-Serif" font-size="10.00">+</text>
<text text-anchor="start" x="152" y="-97" font-family="Helvetica,sans-Serif" font-size="10.00">VisitAnyPopulation()</text>
<text text-anchor="start" x="129.5" y="-82" font-family="Helvetica,sans-Serif" font-size="10.00">+</text>
<text text-anchor="start" x="152" y="-82" font-family="Helvetica,sans-Serif" font-size="10.00">Visit()</text>
<text text-anchor="start" x="129.5" y="-67" font-family="Helvetica,sans-Serif" font-size="10.00">+</text>
<text text-anchor="start" x="152" y="-67" font-family="Helvetica,sans-Serif" font-size="10.00">Visit()</text>
<text text-anchor="start" x="129.5" y="-52" font-family="Helvetica,sans-Serif" font-size="10.00">+</text>
<text text-anchor="start" x="152" y="-52" font-family="Helvetica,sans-Serif" font-size="10.00">Visit()</text>
<text text-anchor="start" x="129.5" y="-37" font-family="Helvetica,sans-Serif" font-size="10.00">+</text>
<text text-anchor="start" x="152" y="-37" font-family="Helvetica,sans-Serif" font-size="10.00">Visit()</text>
<text text-anchor="start" x="129.5" y="-22" font-family="Helvetica,sans-Serif" font-size="10.00">+</text>
<text text-anchor="start" x="152" y="-22" font-family="Helvetica,sans-Serif" font-size="10.00">Visit()</text>
<text text-anchor="start" x="132" y="-7" font-family="Helvetica,sans-Serif" font-size="10.00">&#45;</text>
<text text-anchor="start" x="152" y="-7" font-family="Helvetica,sans-Serif" font-size="10.00">serialize()</text>
<polygon fill="#666666" stroke="#666666" points="116,-148 116,-148 311,-148 311,-148 116,-148"/>
<polygon fill="#666666" stroke="#666666" points="116,-133 116,-133 311,-133 311,-133 116,-133"/>
<polygon fill="none" stroke="#666666" points="115.5,0 115.5,-176 310.5,-176 310.5,0 115.5,0"/>
</a>
</g>
</g>
<!-- Node2 -->
<g id="Node000002" class="node">
<title>Node2</title>
<g id="a_Node000002"><a xlink:href="classAbstractCellPopulationCountWriter.html" target="_top" xlink:title=" ">
<polygon fill="white" stroke="transparent" points="310.5,-389 115.5,-389 115.5,-213 310.5,-213 310.5,-389"/>
<text text-anchor="start" x="121" y="-377" font-family="Helvetica,sans-Serif" font-size="10.00">AbstractCellPopulationCount</text>
<text text-anchor="start" x="121" y="-366" font-family="Helvetica,sans-Serif" font-size="10.00">Writer&lt; ELEMENT_DIM, SPACE_DIM &gt;</text>
<text text-anchor="start" x="211.5" y="-351" font-family="Helvetica,sans-Serif" font-size="10.00"> </text>
<text text-anchor="start" x="128.5" y="-336" font-family="Helvetica,sans-Serif" font-size="10.00">+</text>
<text text-anchor="start" x="150" y="-336" font-family="Helvetica,sans-Serif" font-size="10.00">AbstractCellPopulationCount</text>
<text text-anchor="start" x="150" y="-325" font-family="Helvetica,sans-Serif" font-size="10.00">Writer()</text>
<text text-anchor="start" x="128.5" y="-310" font-family="Helvetica,sans-Serif" font-size="10.00">+</text>
<text text-anchor="start" x="150" y="-310" font-family="Helvetica,sans-Serif" font-size="10.00">WriteHeader()</text>
<text text-anchor="start" x="128.5" y="-295" font-family="Helvetica,sans-Serif" font-size="10.00">+</text>
<text text-anchor="start" x="150" y="-295" font-family="Helvetica,sans-Serif" font-size="10.00">Visit()</text>
<text text-anchor="start" x="128.5" y="-280" font-family="Helvetica,sans-Serif" font-size="10.00">+</text>
<text text-anchor="start" x="150" y="-280" font-family="Helvetica,sans-Serif" font-size="10.00">Visit()</text>
<text text-anchor="start" x="128.5" y="-265" font-family="Helvetica,sans-Serif" font-size="10.00">+</text>
<text text-anchor="start" x="150" y="-265" font-family="Helvetica,sans-Serif" font-size="10.00">Visit()</text>
<text text-anchor="start" x="128.5" y="-250" font-family="Helvetica,sans-Serif" font-size="10.00">+</text>
<text text-anchor="start" x="150" y="-250" font-family="Helvetica,sans-Serif" font-size="10.00">Visit()</text>
<text text-anchor="start" x="128.5" y="-235" font-family="Helvetica,sans-Serif" font-size="10.00">+</text>
<text text-anchor="start" x="150" y="-235" font-family="Helvetica,sans-Serif" font-size="10.00">Visit()</text>
<text text-anchor="start" x="131" y="-220" font-family="Helvetica,sans-Serif" font-size="10.00">&#45;</text>
<text text-anchor="start" x="150" y="-220" font-family="Helvetica,sans-Serif" font-size="10.00">serialize()</text>
<polygon fill="#666666" stroke="#666666" points="116,-361 116,-361 311,-361 311,-361 116,-361"/>
<polygon fill="#666666" stroke="#666666" points="116,-346 116,-346 311,-346 311,-346 116,-346"/>
<polygon fill="none" stroke="#666666" points="115.5,-213 115.5,-389 310.5,-389 310.5,-213 115.5,-213"/>
</a>
</g>
</g>
<!-- Node2&#45;&gt;Node1 -->
<g id="edge1_Node000001_Node000002" class="edge">
<title>Node2&#45;&gt;Node1</title>
<g id="a_edge1_Node000001_Node000002"><a xlink:title=" ">
<path fill="none" stroke="#63b8ff" d="M213,-202.93C213,-194.01 213,-185.01 213,-176.18"/>
<polygon fill="none" stroke="#63b8ff" points="209.5,-202.96 213,-212.96 216.5,-202.96 209.5,-202.96"/>
</a>
</g>
</g>
<!-- Node3 -->
<g id="Node000003" class="node">
<title>Node3</title>
<g id="a_Node000003"><a xlink:href="classAbstractCellBasedWriter.html" target="_top" xlink:title=" ">
<polygon fill="white" stroke="transparent" points="295.5,-621 130.5,-621 130.5,-426 295.5,-426 295.5,-621"/>
<text text-anchor="start" x="136" y="-608.5" font-family="Helvetica,sans-Serif" font-size="10.00">AbstractCellBasedWriter</text>
<text text-anchor="start" x="136" y="-597.5" font-family="Helvetica,sans-Serif" font-size="10.00">&lt; ELEMENT_DIM, SPACE_DIM &gt;</text>
<text text-anchor="start" x="211.5" y="-582.5" font-family="Helvetica,sans-Serif" font-size="10.00"> </text>
<text text-anchor="start" x="137" y="-567.5" font-family="Helvetica,sans-Serif" font-size="10.00">+</text>
<text text-anchor="start" x="152" y="-567.5" font-family="Helvetica,sans-Serif" font-size="10.00">AbstractCellBasedWriter()</text>
<text text-anchor="start" x="137" y="-552.5" font-family="Helvetica,sans-Serif" font-size="10.00">+</text>
<text text-anchor="start" x="152" y="-552.5" font-family="Helvetica,sans-Serif" font-size="10.00">~AbstractCellBasedWriter()</text>
<text text-anchor="start" x="137" y="-537.5" font-family="Helvetica,sans-Serif" font-size="10.00">+</text>
<text text-anchor="start" x="152" y="-537.5" font-family="Helvetica,sans-Serif" font-size="10.00">CloseFile()</text>
<text text-anchor="start" x="137" y="-522.5" font-family="Helvetica,sans-Serif" font-size="10.00">+</text>
<text text-anchor="start" x="152" y="-522.5" font-family="Helvetica,sans-Serif" font-size="10.00">OpenOutputFile()</text>
<text text-anchor="start" x="137" y="-507.5" font-family="Helvetica,sans-Serif" font-size="10.00">+</text>
<text text-anchor="start" x="152" y="-507.5" font-family="Helvetica,sans-Serif" font-size="10.00">OpenOutputFileForAppend()</text>
<text text-anchor="start" x="137" y="-492.5" font-family="Helvetica,sans-Serif" font-size="10.00">+</text>
<text text-anchor="start" x="152" y="-492.5" font-family="Helvetica,sans-Serif" font-size="10.00">WriteTimeStamp()</text>
<text text-anchor="start" x="137" y="-477.5" font-family="Helvetica,sans-Serif" font-size="10.00">+</text>
<text text-anchor="start" x="152" y="-477.5" font-family="Helvetica,sans-Serif" font-size="10.00">WriteNewline()</text>
<text text-anchor="start" x="137" y="-462.5" font-family="Helvetica,sans-Serif" font-size="10.00">+</text>
<text text-anchor="start" x="152" y="-462.5" font-family="Helvetica,sans-Serif" font-size="10.00">SetFileName()</text>
<text text-anchor="start" x="137" y="-447.5" font-family="Helvetica,sans-Serif" font-size="10.00">+</text>
<text text-anchor="start" x="152" y="-447.5" font-family="Helvetica,sans-Serif" font-size="10.00">GetFileName()</text>
<text text-anchor="start" x="139.5" y="-432.5" font-family="Helvetica,sans-Serif" font-size="10.00">&#45;</text>
<text text-anchor="start" x="152" y="-432.5" font-family="Helvetica,sans-Serif" font-size="10.00">serialize()</text>
<polygon fill="#666666" stroke="#666666" points="131,-592.5 131,-592.5 296,-592.5 296,-592.5 131,-592.5"/>
<polygon fill="#666666" stroke="#666666" points="131,-577.5 131,-577.5 296,-577.5 296,-577.5 131,-577.5"/>
<polygon fill="none" stroke="#666666" points="130.5,-426 130.5,-621 295.5,-621 295.5,-426 130.5,-426"/>
</a>
</g>
</g>
<!-- Node3&#45;&gt;Node2 -->
<g id="edge2_Node000002_Node000003" class="edge">
<title>Node3&#45;&gt;Node2</title>
<g id="a_edge2_Node000002_Node000003"><a xlink:title=" ">
<path fill="none" stroke="#63b8ff" d="M213,-415.78C213,-406.9 213,-397.98 213,-389.27"/>
<polygon fill="none" stroke="#63b8ff" points="209.5,-415.79 213,-425.79 216.5,-415.79 209.5,-415.79"/>
</a>
</g>
</g>
<!-- Node4 -->
<g id="Node000004" class="node">
<title>Node4</title>
<g id="a_Node000004"><a xlink:href="classIdentifiable.html" target="_top" xlink:title=" ">
<polygon fill="white" stroke="transparent" points="176,-747 0,-747 0,-668 176,-668 176,-747"/>
<text text-anchor="start" x="60.5" y="-734.5" font-family="Helvetica,sans-Serif" font-size="10.00">Identifiable</text>
<text text-anchor="start" x="86" y="-719.5" font-family="Helvetica,sans-Serif" font-size="10.00"> </text>
<text text-anchor="start" x="4" y="-704.5" font-family="Helvetica,sans-Serif" font-size="10.00">+</text>
<text text-anchor="start" x="17" y="-704.5" font-family="Helvetica,sans-Serif" font-size="10.00">~Identifiable()</text>
<text text-anchor="start" x="4" y="-689.5" font-family="Helvetica,sans-Serif" font-size="10.00">+</text>
<text text-anchor="start" x="17" y="-689.5" font-family="Helvetica,sans-Serif" font-size="10.00">GetIdentifier()</text>
<text text-anchor="start" x="6.5" y="-674.5" font-family="Helvetica,sans-Serif" font-size="10.00">&#45;</text>
<text text-anchor="start" x="17" y="-674.5" font-family="Helvetica,sans-Serif" font-size="10.00">TidyTemplatedExportIdentifier()</text>
<polygon fill="#666666" stroke="#666666" points="0,-729.5 0,-729.5 176,-729.5 176,-729.5 0,-729.5"/>
<polygon fill="#666666" stroke="#666666" points="0,-714.5 0,-714.5 176,-714.5 176,-714.5 0,-714.5"/>
<polygon fill="none" stroke="#666666" points="0,-668 0,-747 176,-747 176,-668 0,-668"/>
</a>
</g>
</g>
<!-- Node4&#45;&gt;Node3 -->
<g id="edge3_Node000003_Node000004" class="edge">
<title>Node4&#45;&gt;Node3</title>
<g id="a_edge3_Node000003_Node000004"><a xlink:title=" ">
<path fill="none" stroke="#63b8ff" d="M120.28,-659.51C128.43,-647.63 137.49,-634.44 146.66,-621.09"/>
<polygon fill="none" stroke="#63b8ff" points="117.29,-657.68 114.51,-667.9 123.06,-661.64 117.29,-657.68"/>
</a>
</g>
</g>
<!-- Node5 -->
<g id="Node000005" class="node">
<title>Node5</title>
<g id="a_Node000005"><a xlink:title=" ">
<polygon fill="white" stroke="transparent" points="232,-732 194,-732 194,-683 232,-683 232,-732"/>
<text text-anchor="start" x="199" y="-719.5" font-family="Helvetica,sans-Serif" font-size="10.00">string</text>
<text text-anchor="start" x="211" y="-704.5" font-family="Helvetica,sans-Serif" font-size="10.00"> </text>
<text text-anchor="start" x="211" y="-689.5" font-family="Helvetica,sans-Serif" font-size="10.00"> </text>
<polygon fill="#bfbfbf" stroke="#bfbfbf" points="194,-714.5 194,-714.5 232,-714.5 232,-714.5 194,-714.5"/>
<polygon fill="#bfbfbf" stroke="#bfbfbf" points="194,-699.5 194,-699.5 232,-699.5 232,-699.5 194,-699.5"/>
<polygon fill="none" stroke="#bfbfbf" points="194,-683 194,-732 232,-732 232,-683 194,-683"/>
</a>
</g>
</g>
<!-- Node5&#45;&gt;Node3 -->
<g id="edge4_Node000003_Node000005" class="edge">
<title>Node5&#45;&gt;Node3</title>
<g id="a_edge4_Node000003_Node000005"><a xlink:title=" ">
<path fill="none" stroke="#63b8ff" d="M213,-682.71C213,-669.44 213,-651.88 213,-633.28"/>
<polygon fill="none" stroke="#63b8ff" points="213,-633.27 209,-627.27 213,-621.27 217,-627.27 213,-633.27"/>
</a>
</g>
<text text-anchor="middle" x="247" y="-642" font-family="Helvetica,sans-Serif" font-size="10.00" fill="grey"> #mFileName</text>
</g>
<!-- Node6 -->
<g id="Node000006" class="node">
<title>Node6</title>
<g id="a_Node000006"><a xlink:title=" ">
<polygon fill="white" stroke="transparent" points="400,-732 250,-732 250,-683 400,-683 400,-732"/>
<text text-anchor="start" x="255" y="-719.5" font-family="Helvetica,sans-Serif" font-size="10.00">shared_ptr&lt; std::ofstream &gt;</text>
<text text-anchor="start" x="323" y="-704.5" font-family="Helvetica,sans-Serif" font-size="10.00"> </text>
<text text-anchor="start" x="323" y="-689.5" font-family="Helvetica,sans-Serif" font-size="10.00"> </text>
<polygon fill="#bfbfbf" stroke="#bfbfbf" points="250,-714.5 250,-714.5 400,-714.5 400,-714.5 250,-714.5"/>
<polygon fill="#bfbfbf" stroke="#bfbfbf" points="250,-699.5 250,-699.5 400,-699.5 400,-699.5 250,-699.5"/>
<polygon fill="none" stroke="#bfbfbf" points="250,-683 250,-732 400,-732 400,-683 250,-683"/>
</a>
</g>
</g>
<!-- Node6&#45;&gt;Node3 -->
<g id="edge5_Node000003_Node000006" class="edge">
<title>Node6&#45;&gt;Node3</title>
<g id="a_edge5_Node000003_Node000006"><a xlink:title=" ">
<path fill="none" stroke="#63b8ff" d="M311.27,-682.98C303.62,-669.97 293.87,-653.53 285,-639 283.5,-636.55 281.98,-634.07 280.45,-631.57"/>
<polygon fill="none" stroke="#63b8ff" points="280.36,-631.43 273.81,-628.42 274.07,-621.22 280.62,-624.22 280.36,-631.43"/>
</a>
</g>
<text text-anchor="middle" x="331" y="-642" font-family="Helvetica,sans-Serif" font-size="10.00" fill="grey"> #mpOutStream</text>
</g>
</g>
</svg>
