<?xml version="1.0" encoding="UTF-8" standalone="no"?>
<!DOCTYPE svg PUBLIC "-//W3C//DTD SVG 1.1//EN"
 "http://www.w3.org/Graphics/SVG/1.1/DTD/svg11.dtd">
<!-- Generated by graphviz version 2.43.0 (0)
 -->
<!-- Title: Electrodes&lt; DIM &gt; Pages: 1 -->
<svg width="1667pt" height="1726pt"
 viewBox="0.00 0.00 1666.82 1726.00" xmlns="http://www.w3.org/2000/svg" xmlns:xlink="http://www.w3.org/1999/xlink">
<g id="graph0" class="graph" transform="scale(1 1) rotate(0) translate(4 1722)">
<title>Electrodes&lt; DIM &gt;</title>
<!-- Node1 -->
<g id="Node000001" class="node">
<title>Node1</title>
<g id="a_Node000001"><a xlink:title=" ">
<polygon fill="#999999" stroke="transparent" points="1408.82,-210 1216.82,-210 1216.82,0 1408.82,0 1408.82,-210"/>
<text text-anchor="start" x="1265.82" y="-198" font-family="Helvetica,sans-Serif" font-size="10.00">Electrodes&lt; DIM &gt;</text>
<text text-anchor="start" x="1310.82" y="-183" font-family="Helvetica,sans-Serif" font-size="10.00"> </text>
<text text-anchor="start" x="1220.82" y="-168" font-family="Helvetica,sans-Serif" font-size="10.00">+</text>
<text text-anchor="start" x="1233.82" y="-168" font-family="Helvetica,sans-Serif" font-size="10.00">Electrodes()</text>
<text text-anchor="start" x="1220.82" y="-153" font-family="Helvetica,sans-Serif" font-size="10.00">+</text>
<text text-anchor="start" x="1233.82" y="-153" font-family="Helvetica,sans-Serif" font-size="10.00">GetBoundaryConditionsContainer()</text>
<text text-anchor="start" x="1220.82" y="-138" font-family="Helvetica,sans-Serif" font-size="10.00">+</text>
<text text-anchor="start" x="1233.82" y="-138" font-family="Helvetica,sans-Serif" font-size="10.00">SwitchOff()</text>
<text text-anchor="start" x="1220.82" y="-123" font-family="Helvetica,sans-Serif" font-size="10.00">+</text>
<text text-anchor="start" x="1233.82" y="-123" font-family="Helvetica,sans-Serif" font-size="10.00">SwitchOn()</text>
<text text-anchor="start" x="1220.82" y="-108" font-family="Helvetica,sans-Serif" font-size="10.00">+</text>
<text text-anchor="start" x="1233.82" y="-108" font-family="Helvetica,sans-Serif" font-size="10.00">GetSwitchOnTime()</text>
<text text-anchor="start" x="1220.82" y="-93" font-family="Helvetica,sans-Serif" font-size="10.00">+</text>
<text text-anchor="start" x="1233.82" y="-93" font-family="Helvetica,sans-Serif" font-size="10.00">GetSwitchOffTime()</text>
<text text-anchor="start" x="1220.82" y="-78" font-family="Helvetica,sans-Serif" font-size="10.00">+</text>
<text text-anchor="start" x="1233.82" y="-78" font-family="Helvetica,sans-Serif" font-size="10.00">HasGroundedElectrode()</text>
<text text-anchor="start" x="1223.32" y="-63" font-family="Helvetica,sans-Serif" font-size="10.00">&#45;</text>
<text text-anchor="start" x="1233.82" y="-63" font-family="Helvetica,sans-Serif" font-size="10.00">ComputeElectrodesAreasAnd</text>
<text text-anchor="start" x="1233.82" y="-52" font-family="Helvetica,sans-Serif" font-size="10.00">CheckEquality()</text>
<text text-anchor="start" x="1223.32" y="-37" font-family="Helvetica,sans-Serif" font-size="10.00">&#45;</text>
<text text-anchor="start" x="1233.82" y="-37" font-family="Helvetica,sans-Serif" font-size="10.00">save()</text>
<text text-anchor="start" x="1223.32" y="-22" font-family="Helvetica,sans-Serif" font-size="10.00">&#45;</text>
<text text-anchor="start" x="1233.82" y="-22" font-family="Helvetica,sans-Serif" font-size="10.00">load()</text>
<text text-anchor="start" x="1223.32" y="-7" font-family="Helvetica,sans-Serif" font-size="10.00">&#45;</text>
<text text-anchor="start" x="1233.82" y="-7" font-family="Helvetica,sans-Serif" font-size="10.00">Electrodes()</text>
<polygon fill="#666666" stroke="#666666" points="1216.82,-193 1216.82,-193 1408.82,-193 1408.82,-193 1216.82,-193"/>
<polygon fill="#666666" stroke="#666666" points="1216.82,-178 1216.82,-178 1408.82,-178 1408.82,-178 1216.82,-178"/>
<polygon fill="none" stroke="#666666" points="1216.82,0 1216.82,-210 1408.82,-210 1408.82,0 1216.82,0"/>
</a>
</g>
</g>
<!-- Node2 -->
<g id="Node000002" class="node">
<title>Node2</title>
<g id="a_Node000002"><a xlink:href="classbool.html" target="_top" xlink:title=" ">
<polygon fill="white" stroke="transparent" points="1048.82,-1718 1016.82,-1718 1016.82,-1669 1048.82,-1669 1048.82,-1718"/>
<text text-anchor="start" x="1021.82" y="-1705.5" font-family="Helvetica,sans-Serif" font-size="10.00">bool</text>
<text text-anchor="start" x="1030.82" y="-1690.5" font-family="Helvetica,sans-Serif" font-size="10.00"> </text>
<text text-anchor="start" x="1030.82" y="-1675.5" font-family="Helvetica,sans-Serif" font-size="10.00"> </text>
<polygon fill="#bfbfbf" stroke="#bfbfbf" points="1016.82,-1700.5 1016.82,-1700.5 1048.82,-1700.5 1048.82,-1700.5 1016.82,-1700.5"/>
<polygon fill="#bfbfbf" stroke="#bfbfbf" points="1016.82,-1685.5 1016.82,-1685.5 1048.82,-1685.5 1048.82,-1685.5 1016.82,-1685.5"/>
<polygon fill="none" stroke="#bfbfbf" points="1016.82,-1669 1016.82,-1718 1048.82,-1718 1048.82,-1669 1016.82,-1669"/>
</a>
</g>
</g>
<!-- Node2&#45;&gt;Node1 -->
<g id="edge1_Node000001_Node000002" class="edge">
<title>Node2&#45;&gt;Node1</title>
<g id="a_edge1_Node000001_Node000002"><a xlink:title=" ">
<path fill="none" stroke="#63b8ff" d="M1032.53,-1668.61C1031.66,-1606.57 1028.5,-1435.29 1018.82,-1293 1007.67,-1129.09 974.91,-1089.05 983.82,-925 991.17,-789.74 992.25,-755.22 1016.82,-622 1044.49,-471.99 1023.75,-419.83 1103.82,-290 1130.2,-247.23 1169.61,-208.86 1207.12,-178.36"/>
<polygon fill="none" stroke="#63b8ff" points="1207.24,-178.27 1209.43,-171.4 1216.61,-170.78 1214.42,-177.65 1207.24,-178.27"/>
</a>
</g>
<text text-anchor="middle" x="1048.82" y="-939" font-family="Helvetica,sans-Serif" font-size="10.00" fill="grey"> &#45;mAreActive</text>
<text text-anchor="middle" x="1048.82" y="-928" font-family="Helvetica,sans-Serif" font-size="10.00" fill="grey">&#45;mGroundSecondElectrode</text>
</g>
<!-- Node5 -->
<g id="Node000005" class="node">
<title>Node5</title>
<g id="a_Node000005"><a xlink:href="classAbstractTetrahedralMesh.html" target="_top" xlink:title=" ">
<polygon fill="white" stroke="transparent" points="1300.32,-575 1113.32,-575 1113.32,-290 1300.32,-290 1300.32,-575"/>
<text text-anchor="start" x="1146.32" y="-562.5" font-family="Helvetica,sans-Serif" font-size="10.00">AbstractTetrahedralMesh</text>
<text text-anchor="start" x="1173.32" y="-551.5" font-family="Helvetica,sans-Serif" font-size="10.00">&lt; DIM, DIM &gt;</text>
<text text-anchor="start" x="1205.32" y="-536.5" font-family="Helvetica,sans-Serif" font-size="10.00"> </text>
<text text-anchor="start" x="1117.82" y="-521.5" font-family="Helvetica,sans-Serif" font-size="10.00">+</text>
<text text-anchor="start" x="1130.82" y="-521.5" font-family="Helvetica,sans-Serif" font-size="10.00">GetElementIteratorBegin()</text>
<text text-anchor="start" x="1117.82" y="-506.5" font-family="Helvetica,sans-Serif" font-size="10.00">+</text>
<text text-anchor="start" x="1130.82" y="-506.5" font-family="Helvetica,sans-Serif" font-size="10.00">GetElementIteratorEnd()</text>
<text text-anchor="start" x="1117.82" y="-491.5" font-family="Helvetica,sans-Serif" font-size="10.00">+</text>
<text text-anchor="start" x="1130.82" y="-491.5" font-family="Helvetica,sans-Serif" font-size="10.00">AbstractTetrahedralMesh()</text>
<text text-anchor="start" x="1117.82" y="-476.5" font-family="Helvetica,sans-Serif" font-size="10.00">+</text>
<text text-anchor="start" x="1130.82" y="-476.5" font-family="Helvetica,sans-Serif" font-size="10.00">~AbstractTetrahedralMesh()</text>
<text text-anchor="start" x="1117.82" y="-461.5" font-family="Helvetica,sans-Serif" font-size="10.00">+</text>
<text text-anchor="start" x="1130.82" y="-461.5" font-family="Helvetica,sans-Serif" font-size="10.00">GetNumElements()</text>
<text text-anchor="start" x="1117.82" y="-446.5" font-family="Helvetica,sans-Serif" font-size="10.00">+</text>
<text text-anchor="start" x="1130.82" y="-446.5" font-family="Helvetica,sans-Serif" font-size="10.00">GetNumLocalElements()</text>
<text text-anchor="start" x="1117.82" y="-431.5" font-family="Helvetica,sans-Serif" font-size="10.00">+</text>
<text text-anchor="start" x="1130.82" y="-431.5" font-family="Helvetica,sans-Serif" font-size="10.00">GetNumBoundaryElements()</text>
<text text-anchor="start" x="1117.82" y="-416.5" font-family="Helvetica,sans-Serif" font-size="10.00">+</text>
<text text-anchor="start" x="1130.82" y="-416.5" font-family="Helvetica,sans-Serif" font-size="10.00">GetNumLocalBoundaryElements()</text>
<text text-anchor="start" x="1117.82" y="-401.5" font-family="Helvetica,sans-Serif" font-size="10.00">+</text>
<text text-anchor="start" x="1130.82" y="-401.5" font-family="Helvetica,sans-Serif" font-size="10.00">GetNumAllElements()</text>
<text text-anchor="start" x="1117.82" y="-386.5" font-family="Helvetica,sans-Serif" font-size="10.00">+</text>
<text text-anchor="start" x="1130.82" y="-386.5" font-family="Helvetica,sans-Serif" font-size="10.00">GetNumAllBoundaryElements()</text>
<text text-anchor="start" x="1130.82" y="-371.5" font-family="Helvetica,sans-Serif" font-size="10.00">and 25 more...</text>
<text text-anchor="start" x="1117.82" y="-356.5" font-family="Helvetica,sans-Serif" font-size="10.00">#</text>
<text text-anchor="start" x="1130.82" y="-356.5" font-family="Helvetica,sans-Serif" font-size="10.00">SetElementOwnerships()</text>
<text text-anchor="start" x="1120.32" y="-341.5" font-family="Helvetica,sans-Serif" font-size="10.00">&#45;</text>
<text text-anchor="start" x="1130.82" y="-341.5" font-family="Helvetica,sans-Serif" font-size="10.00">SolveElementMapping()</text>
<text text-anchor="start" x="1120.32" y="-326.5" font-family="Helvetica,sans-Serif" font-size="10.00">&#45;</text>
<text text-anchor="start" x="1130.82" y="-326.5" font-family="Helvetica,sans-Serif" font-size="10.00">SolveBoundaryElementMapping()</text>
<text text-anchor="start" x="1120.32" y="-311.5" font-family="Helvetica,sans-Serif" font-size="10.00">&#45;</text>
<text text-anchor="start" x="1130.82" y="-311.5" font-family="Helvetica,sans-Serif" font-size="10.00">save()</text>
<text text-anchor="start" x="1120.32" y="-296.5" font-family="Helvetica,sans-Serif" font-size="10.00">&#45;</text>
<text text-anchor="start" x="1130.82" y="-296.5" font-family="Helvetica,sans-Serif" font-size="10.00">load()</text>
<polygon fill="#666666" stroke="#666666" points="1113.82,-546.5 1113.82,-546.5 1300.82,-546.5 1300.82,-546.5 1113.82,-546.5"/>
<polygon fill="#666666" stroke="#666666" points="1113.82,-531.5 1113.82,-531.5 1300.82,-531.5 1300.82,-531.5 1113.82,-531.5"/>
<polygon fill="none" stroke="#666666" points="1113.32,-290 1113.32,-575 1300.32,-575 1300.32,-290 1113.32,-290"/>
</a>
</g>
</g>
<!-- Node2&#45;&gt;Node5 -->
<g id="edge16_Node000005_Node000002" class="edge">
<title>Node2&#45;&gt;Node5</title>
<g id="a_edge16_Node000005_Node000002"><a xlink:title=" ">
<path fill="none" stroke="#63b8ff" d="M1048.99,-1691.58C1130.76,-1685.97 1494.82,-1649.34 1494.82,-1442 1494.82,-1442 1494.82,-1442 1494.82,-763.5 1494.82,-699.79 1514.06,-669.7 1471.82,-622 1448.91,-596.13 1356.64,-596.32 1311.16,-574.22"/>
<polygon fill="none" stroke="#63b8ff" points="1311.03,-574.15 1303.83,-574.58 1300.67,-568.1 1307.87,-567.67 1311.03,-574.15"/>
</a>
</g>
<text text-anchor="middle" x="1537.82" y="-1097.5" font-family="Helvetica,sans-Serif" font-size="10.00" fill="grey"> #mMeshIsLinear</text>
</g>
<!-- Node6 -->
<g id="Node000006" class="node">
<title>Node6</title>
<g id="a_Node000006"><a xlink:href="classAbstractMesh.html" target="_top" xlink:title=" ">
<polygon fill="white" stroke="transparent" points="709.32,-1235 562.32,-1235 562.32,-965 709.32,-965 709.32,-1235"/>
<text text-anchor="start" x="574.32" y="-1223" font-family="Helvetica,sans-Serif" font-size="10.00">AbstractMesh&lt; ELEMENT</text>
<text text-anchor="start" x="587.32" y="-1212" font-family="Helvetica,sans-Serif" font-size="10.00">_DIM, SPACE_DIM &gt;</text>
<text text-anchor="start" x="634.32" y="-1197" font-family="Helvetica,sans-Serif" font-size="10.00"> </text>
<text text-anchor="start" x="566.82" y="-1182" font-family="Helvetica,sans-Serif" font-size="10.00">+</text>
<text text-anchor="start" x="579.82" y="-1182" font-family="Helvetica,sans-Serif" font-size="10.00">GetNodeIteratorBegin()</text>
<text text-anchor="start" x="566.82" y="-1167" font-family="Helvetica,sans-Serif" font-size="10.00">+</text>
<text text-anchor="start" x="579.82" y="-1167" font-family="Helvetica,sans-Serif" font-size="10.00">GetNodeIteratorEnd()</text>
<text text-anchor="start" x="566.82" y="-1152" font-family="Helvetica,sans-Serif" font-size="10.00">+</text>
<text text-anchor="start" x="579.82" y="-1152" font-family="Helvetica,sans-Serif" font-size="10.00">AbstractMesh()</text>
<text text-anchor="start" x="566.82" y="-1137" font-family="Helvetica,sans-Serif" font-size="10.00">+</text>
<text text-anchor="start" x="579.82" y="-1137" font-family="Helvetica,sans-Serif" font-size="10.00">~AbstractMesh()</text>
<text text-anchor="start" x="566.82" y="-1122" font-family="Helvetica,sans-Serif" font-size="10.00">+</text>
<text text-anchor="start" x="579.82" y="-1122" font-family="Helvetica,sans-Serif" font-size="10.00">GetNumNodes()</text>
<text text-anchor="start" x="566.82" y="-1107" font-family="Helvetica,sans-Serif" font-size="10.00">+</text>
<text text-anchor="start" x="579.82" y="-1107" font-family="Helvetica,sans-Serif" font-size="10.00">GetNumBoundaryNodes()</text>
<text text-anchor="start" x="566.82" y="-1092" font-family="Helvetica,sans-Serif" font-size="10.00">+</text>
<text text-anchor="start" x="579.82" y="-1092" font-family="Helvetica,sans-Serif" font-size="10.00">GetNumAllNodes()</text>
<text text-anchor="start" x="566.82" y="-1077" font-family="Helvetica,sans-Serif" font-size="10.00">+</text>
<text text-anchor="start" x="579.82" y="-1077" font-family="Helvetica,sans-Serif" font-size="10.00">GetNumNodeAttributes()</text>
<text text-anchor="start" x="566.82" y="-1062" font-family="Helvetica,sans-Serif" font-size="10.00">+</text>
<text text-anchor="start" x="579.82" y="-1062" font-family="Helvetica,sans-Serif" font-size="10.00">GetNode()</text>
<text text-anchor="start" x="566.82" y="-1047" font-family="Helvetica,sans-Serif" font-size="10.00">+</text>
<text text-anchor="start" x="579.82" y="-1047" font-family="Helvetica,sans-Serif" font-size="10.00">GetNodeOrHaloNode()</text>
<text text-anchor="start" x="579.82" y="-1032" font-family="Helvetica,sans-Serif" font-size="10.00">and 28 more...</text>
<text text-anchor="start" x="566.82" y="-1017" font-family="Helvetica,sans-Serif" font-size="10.00">#</text>
<text text-anchor="start" x="579.82" y="-1017" font-family="Helvetica,sans-Serif" font-size="10.00">SetElementOwnerships()</text>
<text text-anchor="start" x="566.82" y="-1002" font-family="Helvetica,sans-Serif" font-size="10.00">#</text>
<text text-anchor="start" x="579.82" y="-1002" font-family="Helvetica,sans-Serif" font-size="10.00">CalculateBoundingBox()</text>
<text text-anchor="start" x="569.32" y="-987" font-family="Helvetica,sans-Serif" font-size="10.00">&#45;</text>
<text text-anchor="start" x="579.82" y="-987" font-family="Helvetica,sans-Serif" font-size="10.00">SolveNodeMapping()</text>
<text text-anchor="start" x="569.32" y="-972" font-family="Helvetica,sans-Serif" font-size="10.00">&#45;</text>
<text text-anchor="start" x="579.82" y="-972" font-family="Helvetica,sans-Serif" font-size="10.00">serialize()</text>
<polygon fill="#666666" stroke="#666666" points="562.82,-1207 562.82,-1207 709.82,-1207 709.82,-1207 562.82,-1207"/>
<polygon fill="#666666" stroke="#666666" points="562.82,-1192 562.82,-1192 709.82,-1192 709.82,-1192 562.82,-1192"/>
<polygon fill="none" stroke="#666666" points="562.32,-965 562.32,-1235 709.32,-1235 709.32,-965 562.32,-965"/>
</a>
</g>
</g>
<!-- Node2&#45;&gt;Node6 -->
<g id="edge15_Node000006_Node000002" class="edge">
<title>Node2&#45;&gt;Node6</title>
<g id="a_edge15_Node000006_Node000002"><a xlink:title=" ">
<path fill="none" stroke="#63b8ff" d="M1016.64,-1689.08C978.87,-1680.17 885.01,-1652.36 843.82,-1589 762.14,-1463.37 884.53,-1386.17 815.82,-1253 794.22,-1211.14 755.63,-1176.18 719.7,-1150.38"/>
<polygon fill="none" stroke="#63b8ff" points="719.48,-1150.23 712.27,-1150.07 709.65,-1143.35 716.86,-1143.51 719.48,-1150.23"/>
</a>
</g>
<text text-anchor="middle" x="931.32" y="-1438.5" font-family="Helvetica,sans-Serif" font-size="10.00" fill="grey"> #mMeshChangesDuringSimulation</text>
</g>
<!-- Node9 -->
<g id="Node000009" class="node">
<title>Node9</title>
<g id="a_Node000009"><a xlink:href="classDistributedVectorFactory.html" target="_top" xlink:title=" ">
<polygon fill="white" stroke="transparent" points="319.82,-1589 153.82,-1589 153.82,-1293 319.82,-1293 319.82,-1589"/>
<text text-anchor="start" x="176.32" y="-1577" font-family="Helvetica,sans-Serif" font-size="10.00">DistributedVectorFactory</text>
<text text-anchor="start" x="234.82" y="-1562" font-family="Helvetica,sans-Serif" font-size="10.00"> </text>
<text text-anchor="start" x="157.82" y="-1547" font-family="Helvetica,sans-Serif" font-size="10.00">+</text>
<text text-anchor="start" x="170.82" y="-1547" font-family="Helvetica,sans-Serif" font-size="10.00">DistributedVectorFactory()</text>
<text text-anchor="start" x="157.82" y="-1532" font-family="Helvetica,sans-Serif" font-size="10.00">+</text>
<text text-anchor="start" x="170.82" y="-1532" font-family="Helvetica,sans-Serif" font-size="10.00">DistributedVectorFactory()</text>
<text text-anchor="start" x="157.82" y="-1517" font-family="Helvetica,sans-Serif" font-size="10.00">+</text>
<text text-anchor="start" x="170.82" y="-1517" font-family="Helvetica,sans-Serif" font-size="10.00">DistributedVectorFactory()</text>
<text text-anchor="start" x="157.82" y="-1502" font-family="Helvetica,sans-Serif" font-size="10.00">+</text>
<text text-anchor="start" x="170.82" y="-1502" font-family="Helvetica,sans-Serif" font-size="10.00">DistributedVectorFactory()</text>
<text text-anchor="start" x="157.82" y="-1487" font-family="Helvetica,sans-Serif" font-size="10.00">+</text>
<text text-anchor="start" x="170.82" y="-1487" font-family="Helvetica,sans-Serif" font-size="10.00">~DistributedVectorFactory()</text>
<text text-anchor="start" x="157.82" y="-1472" font-family="Helvetica,sans-Serif" font-size="10.00">+</text>
<text text-anchor="start" x="170.82" y="-1472" font-family="Helvetica,sans-Serif" font-size="10.00">CreateVec()</text>
<text text-anchor="start" x="157.82" y="-1457" font-family="Helvetica,sans-Serif" font-size="10.00">+</text>
<text text-anchor="start" x="170.82" y="-1457" font-family="Helvetica,sans-Serif" font-size="10.00">CreateVec()</text>
<text text-anchor="start" x="157.82" y="-1442" font-family="Helvetica,sans-Serif" font-size="10.00">+</text>
<text text-anchor="start" x="170.82" y="-1442" font-family="Helvetica,sans-Serif" font-size="10.00">CreateDistributedVector()</text>
<text text-anchor="start" x="157.82" y="-1427" font-family="Helvetica,sans-Serif" font-size="10.00">+</text>
<text text-anchor="start" x="170.82" y="-1427" font-family="Helvetica,sans-Serif" font-size="10.00">IsGlobalIndexLocal()</text>
<text text-anchor="start" x="157.82" y="-1412" font-family="Helvetica,sans-Serif" font-size="10.00">+</text>
<text text-anchor="start" x="170.82" y="-1412" font-family="Helvetica,sans-Serif" font-size="10.00">GetLocalOwnership()</text>
<text text-anchor="start" x="170.82" y="-1397" font-family="Helvetica,sans-Serif" font-size="10.00">and 8 more...</text>
<text text-anchor="start" x="157.82" y="-1382" font-family="Helvetica,sans-Serif" font-size="10.00">+</text>
<text text-anchor="start" x="170.82" y="-1382" font-family="Helvetica,sans-Serif" font-size="10.00">SetCheckNumberOfProcesses</text>
<text text-anchor="start" x="170.82" y="-1371" font-family="Helvetica,sans-Serif" font-size="10.00">OnLoad()</text>
<text text-anchor="start" x="157.82" y="-1356" font-family="Helvetica,sans-Serif" font-size="10.00">+</text>
<text text-anchor="start" x="170.82" y="-1356" font-family="Helvetica,sans-Serif" font-size="10.00">CheckNumberOfProcessesOn</text>
<text text-anchor="start" x="170.82" y="-1345" font-family="Helvetica,sans-Serif" font-size="10.00">Load()</text>
<text text-anchor="start" x="160.32" y="-1330" font-family="Helvetica,sans-Serif" font-size="10.00">&#45;</text>
<text text-anchor="start" x="170.82" y="-1330" font-family="Helvetica,sans-Serif" font-size="10.00">CheckForPetsc()</text>
<text text-anchor="start" x="160.32" y="-1315" font-family="Helvetica,sans-Serif" font-size="10.00">&#45;</text>
<text text-anchor="start" x="170.82" y="-1315" font-family="Helvetica,sans-Serif" font-size="10.00">CalculateOwnership()</text>
<text text-anchor="start" x="160.32" y="-1300" font-family="Helvetica,sans-Serif" font-size="10.00">&#45;</text>
<text text-anchor="start" x="170.82" y="-1300" font-family="Helvetica,sans-Serif" font-size="10.00">serialize()</text>
<polygon fill="#666666" stroke="#666666" points="153.82,-1572 153.82,-1572 319.82,-1572 319.82,-1572 153.82,-1572"/>
<polygon fill="#666666" stroke="#666666" points="153.82,-1557 153.82,-1557 319.82,-1557 319.82,-1557 153.82,-1557"/>
<polygon fill="none" stroke="#666666" points="153.82,-1293 153.82,-1589 319.82,-1589 319.82,-1293 153.82,-1293"/>
</a>
</g>
</g>
<!-- Node2&#45;&gt;Node9 -->
<g id="edge10_Node000009_Node000002" class="edge">
<title>Node2&#45;&gt;Node9</title>
<g id="a_edge10_Node000009_Node000002"><a xlink:title=" ">
<path fill="none" stroke="#63b8ff" d="M1016.41,-1692.74C944.67,-1693.16 652.92,-1688.4 443.82,-1589 404.33,-1570.23 364.36,-1543.93 330.21,-1518.75"/>
<polygon fill="none" stroke="#63b8ff" points="329.89,-1518.52 322.69,-1518.13 320.28,-1511.34 327.48,-1511.72 329.89,-1518.52"/>
</a>
</g>
<text text-anchor="middle" x="687.82" y="-1637.5" font-family="Helvetica,sans-Serif" font-size="10.00" fill="grey"> &#45;mPetscStatusKnown</text>
<text text-anchor="start" x="613.82" y="-1626.5" font-family="Helvetica,sans-Serif" font-size="10.00" fill="grey">&#45;msCheckNumberOfProcesses</text>
<text text-anchor="middle" x="687.82" y="-1615.5" font-family="Helvetica,sans-Serif" font-size="10.00" fill="grey">OnLoad</text>
</g>
<!-- Node15 -->
<g id="Node000015" class="node">
<title>Node15</title>
<g id="a_Node000015"><a xlink:href="classAbstractTetrahedralMesh.html" target="_top" xlink:title=" ">
<polygon fill="white" stroke="transparent" points="1213.32,-907 1026.32,-907 1026.32,-622 1213.32,-622 1213.32,-907"/>
<text text-anchor="start" x="1042.82" y="-894.5" font-family="Helvetica,sans-Serif" font-size="10.00">AbstractTetrahedralMesh</text>
<text text-anchor="start" x="1042.82" y="-883.5" font-family="Helvetica,sans-Serif" font-size="10.00">&lt; ELEMENT_DIM, SPACE_DIM &gt;</text>
<text text-anchor="start" x="1118.32" y="-868.5" font-family="Helvetica,sans-Serif" font-size="10.00"> </text>
<text text-anchor="start" x="1030.82" y="-853.5" font-family="Helvetica,sans-Serif" font-size="10.00">+</text>
<text text-anchor="start" x="1043.82" y="-853.5" font-family="Helvetica,sans-Serif" font-size="10.00">GetElementIteratorBegin()</text>
<text text-anchor="start" x="1030.82" y="-838.5" font-family="Helvetica,sans-Serif" font-size="10.00">+</text>
<text text-anchor="start" x="1043.82" y="-838.5" font-family="Helvetica,sans-Serif" font-size="10.00">GetElementIteratorEnd()</text>
<text text-anchor="start" x="1030.82" y="-823.5" font-family="Helvetica,sans-Serif" font-size="10.00">+</text>
<text text-anchor="start" x="1043.82" y="-823.5" font-family="Helvetica,sans-Serif" font-size="10.00">AbstractTetrahedralMesh()</text>
<text text-anchor="start" x="1030.82" y="-808.5" font-family="Helvetica,sans-Serif" font-size="10.00">+</text>
<text text-anchor="start" x="1043.82" y="-808.5" font-family="Helvetica,sans-Serif" font-size="10.00">~AbstractTetrahedralMesh()</text>
<text text-anchor="start" x="1030.82" y="-793.5" font-family="Helvetica,sans-Serif" font-size="10.00">+</text>
<text text-anchor="start" x="1043.82" y="-793.5" font-family="Helvetica,sans-Serif" font-size="10.00">GetNumElements()</text>
<text text-anchor="start" x="1030.82" y="-778.5" font-family="Helvetica,sans-Serif" font-size="10.00">+</text>
<text text-anchor="start" x="1043.82" y="-778.5" font-family="Helvetica,sans-Serif" font-size="10.00">GetNumLocalElements()</text>
<text text-anchor="start" x="1030.82" y="-763.5" font-family="Helvetica,sans-Serif" font-size="10.00">+</text>
<text text-anchor="start" x="1043.82" y="-763.5" font-family="Helvetica,sans-Serif" font-size="10.00">GetNumBoundaryElements()</text>
<text text-anchor="start" x="1030.82" y="-748.5" font-family="Helvetica,sans-Serif" font-size="10.00">+</text>
<text text-anchor="start" x="1043.82" y="-748.5" font-family="Helvetica,sans-Serif" font-size="10.00">GetNumLocalBoundaryElements()</text>
<text text-anchor="start" x="1030.82" y="-733.5" font-family="Helvetica,sans-Serif" font-size="10.00">+</text>
<text text-anchor="start" x="1043.82" y="-733.5" font-family="Helvetica,sans-Serif" font-size="10.00">GetNumAllElements()</text>
<text text-anchor="start" x="1030.82" y="-718.5" font-family="Helvetica,sans-Serif" font-size="10.00">+</text>
<text text-anchor="start" x="1043.82" y="-718.5" font-family="Helvetica,sans-Serif" font-size="10.00">GetNumAllBoundaryElements()</text>
<text text-anchor="start" x="1043.82" y="-703.5" font-family="Helvetica,sans-Serif" font-size="10.00">and 25 more...</text>
<text text-anchor="start" x="1030.82" y="-688.5" font-family="Helvetica,sans-Serif" font-size="10.00">#</text>
<text text-anchor="start" x="1043.82" y="-688.5" font-family="Helvetica,sans-Serif" font-size="10.00">SetElementOwnerships()</text>
<text text-anchor="start" x="1033.32" y="-673.5" font-family="Helvetica,sans-Serif" font-size="10.00">&#45;</text>
<text text-anchor="start" x="1043.82" y="-673.5" font-family="Helvetica,sans-Serif" font-size="10.00">SolveElementMapping()</text>
<text text-anchor="start" x="1033.32" y="-658.5" font-family="Helvetica,sans-Serif" font-size="10.00">&#45;</text>
<text text-anchor="start" x="1043.82" y="-658.5" font-family="Helvetica,sans-Serif" font-size="10.00">SolveBoundaryElementMapping()</text>
<text text-anchor="start" x="1033.32" y="-643.5" font-family="Helvetica,sans-Serif" font-size="10.00">&#45;</text>
<text text-anchor="start" x="1043.82" y="-643.5" font-family="Helvetica,sans-Serif" font-size="10.00">save()</text>
<text text-anchor="start" x="1033.32" y="-628.5" font-family="Helvetica,sans-Serif" font-size="10.00">&#45;</text>
<text text-anchor="start" x="1043.82" y="-628.5" font-family="Helvetica,sans-Serif" font-size="10.00">load()</text>
<polygon fill="#666666" stroke="#666666" points="1026.82,-878.5 1026.82,-878.5 1213.82,-878.5 1213.82,-878.5 1026.82,-878.5"/>
<polygon fill="#666666" stroke="#666666" points="1026.82,-863.5 1026.82,-863.5 1213.82,-863.5 1213.82,-863.5 1026.82,-863.5"/>
<polygon fill="none" stroke="#666666" points="1026.32,-622 1026.32,-907 1213.32,-907 1213.32,-622 1026.32,-622"/>
</a>
</g>
</g>
<!-- Node2&#45;&gt;Node15 -->
<g id="edge21_Node000015_Node000002" class="edge">
<title>Node2&#45;&gt;Node15</title>
<g id="a_edge21_Node000015_Node000002"><a xlink:title=" ">
<path fill="none" stroke="#63b8ff" d="M1041.97,-1668.63C1043.85,-1662.93 1045.62,-1656.81 1046.82,-1651 1099.09,-1398.12 1114.21,-1097.31 1118.42,-919.4"/>
<polygon fill="none" stroke="#63b8ff" points="1118.42,-919.33 1114.56,-913.24 1118.7,-907.33 1122.56,-913.42 1118.42,-919.33"/>
</a>
</g>
<text text-anchor="middle" x="1143.82" y="-1261.5" font-family="Helvetica,sans-Serif" font-size="10.00" fill="grey"> #mMeshIsLinear</text>
</g>
<!-- Node3 -->
<g id="Node000003" class="node">
<title>Node3</title>
<g id="a_Node000003"><a xlink:title=" ">
<polygon fill="white" stroke="transparent" points="1490.82,-462.5 1318.82,-462.5 1318.82,-402.5 1490.82,-402.5 1490.82,-462.5"/>
<text text-anchor="start" x="1323.82" y="-450.5" font-family="Helvetica,sans-Serif" font-size="10.00">shared_ptr&lt; BoundaryConditions</text>
<text text-anchor="start" x="1335.32" y="-439.5" font-family="Helvetica,sans-Serif" font-size="10.00">Container&lt; DIM, DIM, 2 &gt; &gt;</text>
<text text-anchor="start" x="1402.82" y="-424.5" font-family="Helvetica,sans-Serif" font-size="10.00"> </text>
<text text-anchor="start" x="1402.82" y="-409.5" font-family="Helvetica,sans-Serif" font-size="10.00"> </text>
<polygon fill="#bfbfbf" stroke="#bfbfbf" points="1318.82,-434.5 1318.82,-434.5 1490.82,-434.5 1490.82,-434.5 1318.82,-434.5"/>
<polygon fill="#bfbfbf" stroke="#bfbfbf" points="1318.82,-419.5 1318.82,-419.5 1490.82,-419.5 1490.82,-419.5 1318.82,-419.5"/>
<polygon fill="none" stroke="#bfbfbf" points="1318.82,-402.5 1318.82,-462.5 1490.82,-462.5 1490.82,-402.5 1318.82,-402.5"/>
</a>
</g>
</g>
<!-- Node3&#45;&gt;Node1 -->
<g id="edge2_Node000001_Node000003" class="edge">
<title>Node3&#45;&gt;Node1</title>
<g id="a_edge2_Node000001_Node000003"><a xlink:title=" ">
<path fill="none" stroke="#63b8ff" d="M1396.58,-402.33C1385.16,-361.93 1363.87,-286.62 1345.62,-222.04"/>
<polygon fill="none" stroke="#63b8ff" points="1345.51,-221.66 1340.03,-216.98 1342.25,-210.12 1347.73,-214.8 1345.51,-221.66"/>
</a>
</g>
<text text-anchor="middle" x="1443.32" y="-247.5" font-family="Helvetica,sans-Serif" font-size="10.00" fill="grey"> &#45;mpBoundaryConditionsContainer</text>
</g>
<!-- Node4 -->
<g id="Node000004" class="node">
<title>Node4</title>
<g id="a_Node000004"><a xlink:href="classdouble.html" target="_top" xlink:title=" ">
<polygon fill="white" stroke="transparent" points="1585.82,-457 1541.82,-457 1541.82,-408 1585.82,-408 1585.82,-457"/>
<text text-anchor="start" x="1546.82" y="-444.5" font-family="Helvetica,sans-Serif" font-size="10.00">double</text>
<text text-anchor="start" x="1561.82" y="-429.5" font-family="Helvetica,sans-Serif" font-size="10.00"> </text>
<text text-anchor="start" x="1561.82" y="-414.5" font-family="Helvetica,sans-Serif" font-size="10.00"> </text>
<polygon fill="#bfbfbf" stroke="#bfbfbf" points="1541.82,-439.5 1541.82,-439.5 1585.82,-439.5 1585.82,-439.5 1541.82,-439.5"/>
<polygon fill="#bfbfbf" stroke="#bfbfbf" points="1541.82,-424.5 1541.82,-424.5 1585.82,-424.5 1585.82,-424.5 1541.82,-424.5"/>
<polygon fill="none" stroke="#bfbfbf" points="1541.82,-408 1541.82,-457 1585.82,-457 1585.82,-408 1541.82,-408"/>
</a>
</g>
</g>
<!-- Node4&#45;&gt;Node1 -->
<g id="edge3_Node000001_Node000004" class="edge">
<title>Node4&#45;&gt;Node1</title>
<g id="a_edge3_Node000001_Node000004"><a xlink:title=" ">
<path fill="none" stroke="#63b8ff" d="M1566.39,-407.72C1569.52,-367.04 1570.3,-283.14 1531.82,-228 1504.73,-189.17 1461.12,-161.32 1419.92,-142.12"/>
<polygon fill="none" stroke="#63b8ff" points="1419.89,-142.1 1412.78,-143.29 1408.95,-137.17 1416.06,-135.99 1419.89,-142.1"/>
</a>
</g>
<text text-anchor="middle" x="1604.82" y="-264" font-family="Helvetica,sans-Serif" font-size="10.00" fill="grey"> &#45;mEndTime</text>
<text text-anchor="middle" x="1604.82" y="-253" font-family="Helvetica,sans-Serif" font-size="10.00" fill="grey">&#45;mLeftElectrodeArea</text>
<text text-anchor="middle" x="1604.82" y="-242" font-family="Helvetica,sans-Serif" font-size="10.00" fill="grey">&#45;mRightElectrodeArea</text>
<text text-anchor="middle" x="1604.82" y="-231" font-family="Helvetica,sans-Serif" font-size="10.00" fill="grey">&#45;mStartTime</text>
</g>
<!-- Node5&#45;&gt;Node1 -->
<g id="edge4_Node000001_Node000005" class="edge">
<title>Node5&#45;&gt;Node1</title>
<g id="a_edge4_Node000001_Node000005"><a xlink:title=" ">
<path fill="none" stroke="#63b8ff" d="M1253.01,-289.68C1260.38,-267.02 1267.94,-243.82 1275.09,-221.86"/>
<polygon fill="none" stroke="#63b8ff" points="1275.19,-221.56 1273.24,-214.62 1278.9,-210.15 1280.85,-217.09 1275.19,-221.56"/>
</a>
</g>
<text text-anchor="middle" x="1296.32" y="-247.5" font-family="Helvetica,sans-Serif" font-size="10.00" fill="grey"> &#45;mpMesh</text>
</g>
<!-- Node6&#45;&gt;Node5 -->
<g id="edge5_Node000005_Node000006" class="edge">
<title>Node6&#45;&gt;Node5</title>
<g id="a_edge5_Node000005_Node000006"><a xlink:title=" ">
<path fill="none" stroke="#63b8ff" d="M715.84,-991.72C790.7,-893.11 907.14,-744.15 1016.82,-622 1047.09,-588.29 1081.86,-552.92 1113.32,-522.03"/>
<polygon fill="none" stroke="#63b8ff" points="712.88,-989.84 709.63,-999.92 718.46,-994.06 712.88,-989.84"/>
</a>
</g>
</g>
<!-- Node6&#45;&gt;Node15 -->
<g id="edge20_Node000015_Node000006" class="edge">
<title>Node6&#45;&gt;Node15</title>
<g id="a_edge20_Node000015_Node000006"><a xlink:title=" ">
<path fill="none" stroke="#63b8ff" d="M719.63,-1091.63C816.05,-1078.7 972.86,-1043.32 1064.82,-947 1075.85,-935.45 1084.67,-921.76 1091.73,-907.16"/>
<polygon fill="none" stroke="#63b8ff" points="719.1,-1088.16 709.63,-1092.92 719.99,-1095.11 719.1,-1088.16"/>
</a>
</g>
</g>
<!-- Node7 -->
<g id="Node000007" class="node">
<title>Node7</title>
<g id="a_Node000007"><a xlink:title=" ">
<polygon fill="white" stroke="transparent" points="558.82,-1465.5 452.82,-1465.5 452.82,-1416.5 558.82,-1416.5 558.82,-1465.5"/>
<text text-anchor="start" x="457.82" y="-1453" font-family="Helvetica,sans-Serif" font-size="10.00">boost::noncopyable</text>
<text text-anchor="start" x="503.82" y="-1438" font-family="Helvetica,sans-Serif" font-size="10.00"> </text>
<text text-anchor="start" x="503.82" y="-1423" font-family="Helvetica,sans-Serif" font-size="10.00"> </text>
<polygon fill="#bfbfbf" stroke="#bfbfbf" points="452.82,-1448 452.82,-1448 558.82,-1448 558.82,-1448 452.82,-1448"/>
<polygon fill="#bfbfbf" stroke="#bfbfbf" points="452.82,-1433 452.82,-1433 558.82,-1433 558.82,-1433 452.82,-1433"/>
<polygon fill="none" stroke="#bfbfbf" points="452.82,-1416.5 452.82,-1465.5 558.82,-1465.5 558.82,-1416.5 452.82,-1416.5"/>
</a>
</g>
</g>
<!-- Node7&#45;&gt;Node6 -->
<g id="edge6_Node000006_Node000007" class="edge">
<title>Node7&#45;&gt;Node6</title>
<g id="a_edge6_Node000006_Node000007"><a xlink:title=" ">
<path fill="none" stroke="#8b1a1a" d="M516.38,-1406.54C528.46,-1368.9 549.25,-1306.08 569.82,-1253 572.11,-1247.1 574.49,-1241.09 576.93,-1235.03"/>
<polygon fill="none" stroke="#8b1a1a" points="512.92,-1405.87 513.21,-1416.46 519.59,-1408 512.92,-1405.87"/>
</a>
</g>
</g>
<!-- Node8 -->
<g id="Node000008" class="node">
<title>Node8</title>
<g id="a_Node000008"><a xlink:title=" ">
<polygon fill="white" stroke="transparent" points="696.82,-1471 576.82,-1471 576.82,-1411 696.82,-1411 696.82,-1471"/>
<text text-anchor="start" x="581.82" y="-1459" font-family="Helvetica,sans-Serif" font-size="10.00">vector&lt; Node&lt; SPACE</text>
<text text-anchor="start" x="608.82" y="-1448" font-family="Helvetica,sans-Serif" font-size="10.00">_DIM &gt; * &gt;</text>
<text text-anchor="start" x="634.82" y="-1433" font-family="Helvetica,sans-Serif" font-size="10.00"> </text>
<text text-anchor="start" x="634.82" y="-1418" font-family="Helvetica,sans-Serif" font-size="10.00"> </text>
<polygon fill="#bfbfbf" stroke="#bfbfbf" points="576.82,-1443 576.82,-1443 696.82,-1443 696.82,-1443 576.82,-1443"/>
<polygon fill="#bfbfbf" stroke="#bfbfbf" points="576.82,-1428 576.82,-1428 696.82,-1428 696.82,-1428 576.82,-1428"/>
<polygon fill="none" stroke="#bfbfbf" points="576.82,-1411 576.82,-1471 696.82,-1471 696.82,-1411 576.82,-1411"/>
</a>
</g>
</g>
<!-- Node8&#45;&gt;Node6 -->
<g id="edge7_Node000006_Node000008" class="edge">
<title>Node8&#45;&gt;Node6</title>
<g id="a_edge7_Node000006_Node000008"><a xlink:title=" ">
<path fill="none" stroke="#63b8ff" d="M617.5,-1410.82C595.79,-1374.53 564.91,-1310.37 575.82,-1253 576.19,-1251.08 576.58,-1249.15 576.99,-1247.22"/>
<polygon fill="none" stroke="#63b8ff" points="577.04,-1246.99 574.52,-1240.23 579.78,-1235.3 582.31,-1242.06 577.04,-1246.99"/>
</a>
</g>
<text text-anchor="middle" x="625.32" y="-1267" font-family="Helvetica,sans-Serif" font-size="10.00" fill="grey"> #mBoundaryNodes</text>
<text text-anchor="middle" x="625.32" y="-1256" font-family="Helvetica,sans-Serif" font-size="10.00" fill="grey">#mNodes</text>
</g>
<!-- Node9&#45;&gt;Node6 -->
<g id="edge8_Node000006_Node000009" class="edge">
<title>Node9&#45;&gt;Node6</title>
<g id="a_edge8_Node000006_Node000009"><a xlink:title=" ">
<path fill="none" stroke="#63b8ff" d="M320.06,-1342.2C347.62,-1312.17 379.32,-1279.96 410.82,-1253 454.68,-1215.48 508.05,-1179.08 551.8,-1151.31"/>
<polygon fill="none" stroke="#63b8ff" points="551.98,-1151.2 554.92,-1144.62 562.13,-1144.8 559.19,-1151.39 551.98,-1151.2"/>
</a>
</g>
<text text-anchor="middle" x="484.82" y="-1261.5" font-family="Helvetica,sans-Serif" font-size="10.00" fill="grey"> #mpDistributedVectorFactory</text>
</g>
<!-- Node9&#45;&gt;Node9 -->
<g id="edge12_Node000009_Node000009" class="edge">
<title>Node9&#45;&gt;Node9</title>
<g id="a_edge12_Node000009_Node000009"><a xlink:title=" ">
<path fill="none" stroke="#63b8ff" d="M320.03,-1469.92C330.74,-1464.91 337.82,-1455.27 337.82,-1441 337.82,-1431.86 334.92,-1424.62 330.01,-1419.28"/>
<polygon fill="none" stroke="#63b8ff" points="329.76,-1419.1 322.56,-1418.83 320.03,-1412.08 327.24,-1412.34 329.76,-1419.1"/>
</a>
</g>
<text text-anchor="middle" x="386.32" y="-1438.5" font-family="Helvetica,sans-Serif" font-size="10.00" fill="grey"> &#45;mpOriginalFactory</text>
</g>
<!-- Node10 -->
<g id="Node000010" class="node">
<title>Node10</title>
<g id="a_Node000010"><a xlink:href="classunsigned.html" target="_top" xlink:title=" ">
<polygon fill="white" stroke="transparent" points="264.32,-1718 209.32,-1718 209.32,-1669 264.32,-1669 264.32,-1718"/>
<text text-anchor="start" x="214.82" y="-1705.5" font-family="Helvetica,sans-Serif" font-size="10.00">unsigned</text>
<text text-anchor="start" x="235.32" y="-1690.5" font-family="Helvetica,sans-Serif" font-size="10.00"> </text>
<text text-anchor="start" x="235.32" y="-1675.5" font-family="Helvetica,sans-Serif" font-size="10.00"> </text>
<polygon fill="#bfbfbf" stroke="#bfbfbf" points="209.82,-1700.5 209.82,-1700.5 264.82,-1700.5 264.82,-1700.5 209.82,-1700.5"/>
<polygon fill="#bfbfbf" stroke="#bfbfbf" points="209.82,-1685.5 209.82,-1685.5 264.82,-1685.5 264.82,-1685.5 209.82,-1685.5"/>
<polygon fill="none" stroke="#bfbfbf" points="209.32,-1669 209.32,-1718 264.32,-1718 264.32,-1669 209.32,-1669"/>
</a>
</g>
</g>
<!-- Node10&#45;&gt;Node9 -->
<g id="edge9_Node000009_Node000010" class="edge">
<title>Node10&#45;&gt;Node9</title>
<g id="a_edge9_Node000009_Node000010"><a xlink:title=" ">
<path fill="none" stroke="#63b8ff" d="M236.82,-1668.93C236.82,-1652.14 236.82,-1627.93 236.82,-1601.52"/>
<polygon fill="none" stroke="#63b8ff" points="236.82,-1601.25 232.82,-1595.25 236.82,-1589.25 240.82,-1595.25 236.82,-1601.25"/>
</a>
</g>
<text text-anchor="middle" x="274.32" y="-1643" font-family="Helvetica,sans-Serif" font-size="10.00" fill="grey"> &#45;mHi</text>
<text text-anchor="middle" x="274.32" y="-1632" font-family="Helvetica,sans-Serif" font-size="10.00" fill="grey">&#45;mLo</text>
<text text-anchor="middle" x="274.32" y="-1621" font-family="Helvetica,sans-Serif" font-size="10.00" fill="grey">&#45;mNumProcs</text>
<text text-anchor="middle" x="274.32" y="-1610" font-family="Helvetica,sans-Serif" font-size="10.00" fill="grey">&#45;mProblemSize</text>
</g>
<!-- Node11 -->
<g id="Node000011" class="node">
<title>Node11</title>
<g id="a_Node000011"><a xlink:title=" ">
<polygon fill="white" stroke="transparent" points="136.82,-1718 28.82,-1718 28.82,-1669 136.82,-1669 136.82,-1718"/>
<text text-anchor="start" x="33.82" y="-1705.5" font-family="Helvetica,sans-Serif" font-size="10.00">vector&lt; unsigned &gt;</text>
<text text-anchor="start" x="80.82" y="-1690.5" font-family="Helvetica,sans-Serif" font-size="10.00"> </text>
<text text-anchor="start" x="80.82" y="-1675.5" font-family="Helvetica,sans-Serif" font-size="10.00"> </text>
<polygon fill="#bfbfbf" stroke="#bfbfbf" points="28.82,-1700.5 28.82,-1700.5 136.82,-1700.5 136.82,-1700.5 28.82,-1700.5"/>
<polygon fill="#bfbfbf" stroke="#bfbfbf" points="28.82,-1685.5 28.82,-1685.5 136.82,-1685.5 136.82,-1685.5 28.82,-1685.5"/>
<polygon fill="none" stroke="#bfbfbf" points="28.82,-1669 28.82,-1718 136.82,-1718 136.82,-1669 28.82,-1669"/>
</a>
</g>
</g>
<!-- Node11&#45;&gt;Node6 -->
<g id="edge13_Node000006_Node000011" class="edge">
<title>Node11&#45;&gt;Node6</title>
<g id="a_edge13_Node000006_Node000011"><a xlink:title=" ">
<path fill="none" stroke="#63b8ff" d="M70.14,-1668.97C36.26,-1602.55 -48.13,-1410.87 37.82,-1293 99.01,-1209.1 400.17,-1143.76 550.35,-1115.81"/>
<polygon fill="none" stroke="#63b8ff" points="550.41,-1115.8 555.59,-1110.78 562.21,-1113.62 557.04,-1118.64 550.41,-1115.8"/>
</a>
</g>
<text text-anchor="middle" x="91.32" y="-1438.5" font-family="Helvetica,sans-Serif" font-size="10.00" fill="grey"> #mNodePermutation</text>
</g>
<!-- Node11&#45;&gt;Node9 -->
<g id="edge11_Node000009_Node000011" class="edge">
<title>Node11&#45;&gt;Node9</title>
<g id="a_edge11_Node000009_Node000011"><a xlink:title=" ">
<path fill="none" stroke="#63b8ff" d="M97.31,-1668.93C109.44,-1649.21 127.85,-1619.25 147.37,-1587.51"/>
<polygon fill="none" stroke="#63b8ff" points="147.45,-1587.38 147.18,-1580.17 153.73,-1577.15 154,-1584.36 147.45,-1587.38"/>
</a>
</g>
<text text-anchor="middle" x="169.32" y="-1626.5" font-family="Helvetica,sans-Serif" font-size="10.00" fill="grey"> &#45;mGlobalLows</text>
</g>
<!-- Node12 -->
<g id="Node000012" class="node">
<title>Node12</title>
<g id="a_Node000012"><a xlink:title=" ">
<polygon fill="white" stroke="transparent" points="752.82,-1465.5 714.82,-1465.5 714.82,-1416.5 752.82,-1416.5 752.82,-1465.5"/>
<text text-anchor="start" x="719.82" y="-1453" font-family="Helvetica,sans-Serif" font-size="10.00">string</text>
<text text-anchor="start" x="731.82" y="-1438" font-family="Helvetica,sans-Serif" font-size="10.00"> </text>
<text text-anchor="start" x="731.82" y="-1423" font-family="Helvetica,sans-Serif" font-size="10.00"> </text>
<polygon fill="#bfbfbf" stroke="#bfbfbf" points="714.82,-1448 714.82,-1448 752.82,-1448 752.82,-1448 714.82,-1448"/>
<polygon fill="#bfbfbf" stroke="#bfbfbf" points="714.82,-1433 714.82,-1433 752.82,-1433 752.82,-1433 714.82,-1433"/>
<polygon fill="none" stroke="#bfbfbf" points="714.82,-1416.5 714.82,-1465.5 752.82,-1465.5 752.82,-1416.5 714.82,-1416.5"/>
</a>
</g>
</g>
<!-- Node12&#45;&gt;Node6 -->
<g id="edge14_Node000006_Node000012" class="edge">
<title>Node12&#45;&gt;Node6</title>
<g id="a_edge14_Node000006_Node000012"><a xlink:title=" ">
<path fill="none" stroke="#63b8ff" d="M731.03,-1416.42C727.17,-1387.04 719.13,-1335.52 705.82,-1293 703.21,-1284.64 701.07,-1283.13 697.82,-1275 694.14,-1265.8 690.45,-1256.28 686.8,-1246.66"/>
<polygon fill="none" stroke="#63b8ff" points="686.76,-1246.56 680.9,-1242.35 682.53,-1235.33 688.39,-1239.54 686.76,-1246.56"/>
</a>
</g>
<text text-anchor="middle" x="756.82" y="-1261.5" font-family="Helvetica,sans-Serif" font-size="10.00" fill="grey"> #mMeshFileBaseName</text>
</g>
<!-- Node13 -->
<g id="Node000013" class="node">
<title>Node13</title>
<g id="a_Node000013"><a xlink:title=" ">
<polygon fill="white" stroke="transparent" points="1457.82,-1130 1307.82,-1130 1307.82,-1070 1457.82,-1070 1457.82,-1130"/>
<text text-anchor="start" x="1312.82" y="-1118" font-family="Helvetica,sans-Serif" font-size="10.00">vector&lt; Element&lt; ELEMENT</text>
<text text-anchor="start" x="1323.82" y="-1107" font-family="Helvetica,sans-Serif" font-size="10.00">_DIM, SPACE_DIM &gt; * &gt;</text>
<text text-anchor="start" x="1380.82" y="-1092" font-family="Helvetica,sans-Serif" font-size="10.00"> </text>
<text text-anchor="start" x="1380.82" y="-1077" font-family="Helvetica,sans-Serif" font-size="10.00"> </text>
<polygon fill="#bfbfbf" stroke="#bfbfbf" points="1307.82,-1102 1307.82,-1102 1457.82,-1102 1457.82,-1102 1307.82,-1102"/>
<polygon fill="#bfbfbf" stroke="#bfbfbf" points="1307.82,-1087 1307.82,-1087 1457.82,-1087 1457.82,-1087 1307.82,-1087"/>
<polygon fill="none" stroke="#bfbfbf" points="1307.82,-1070 1307.82,-1130 1457.82,-1130 1457.82,-1070 1307.82,-1070"/>
</a>
</g>
</g>
<!-- Node13&#45;&gt;Node5 -->
<g id="edge17_Node000005_Node000013" class="edge">
<title>Node13&#45;&gt;Node5</title>
<g id="a_edge17_Node000005_Node000013"><a xlink:title=" ">
<path fill="none" stroke="#63b8ff" d="M1385.95,-1069.74C1395.18,-978.38 1419.2,-699.89 1377.82,-622 1360.59,-589.55 1336.12,-600.66 1309.82,-575 1309.53,-574.71 1309.23,-574.42 1308.94,-574.13"/>
<polygon fill="none" stroke="#63b8ff" points="1308.85,-574.04 1301.79,-572.56 1300.45,-565.47 1307.51,-566.96 1308.85,-574.04"/>
</a>
</g>
<text text-anchor="middle" x="1434.32" y="-762" font-family="Helvetica,sans-Serif" font-size="10.00" fill="grey"> #mElements</text>
</g>
<!-- Node13&#45;&gt;Node15 -->
<g id="edge22_Node000015_Node000013" class="edge">
<title>Node13&#45;&gt;Node15</title>
<g id="a_edge22_Node000015_Node000013"><a xlink:title=" ">
<path fill="none" stroke="#63b8ff" d="M1367.61,-1069.9C1352.09,-1041.59 1326.29,-998.11 1297.82,-965 1280.16,-944.46 1272.9,-942.03 1251.82,-925 1241.45,-916.62 1237.29,-916.39 1227.82,-907 1225.86,-905.06 1223.9,-903.07 1221.96,-901.06"/>
<polygon fill="none" stroke="#63b8ff" points="1221.69,-900.78 1214.67,-899.16 1213.47,-892.05 1220.49,-893.67 1221.69,-900.78"/>
</a>
</g>
<text text-anchor="middle" x="1313.32" y="-933.5" font-family="Helvetica,sans-Serif" font-size="10.00" fill="grey"> #mElements</text>
</g>
<!-- Node14 -->
<g id="Node000014" class="node">
<title>Node14</title>
<g id="a_Node000014"><a xlink:title=" ">
<polygon fill="white" stroke="transparent" points="1288.82,-1135.5 1148.82,-1135.5 1148.82,-1064.5 1288.82,-1064.5 1288.82,-1135.5"/>
<text text-anchor="start" x="1153.82" y="-1123" font-family="Helvetica,sans-Serif" font-size="10.00">vector&lt; BoundaryElement</text>
<text text-anchor="start" x="1153.82" y="-1112" font-family="Helvetica,sans-Serif" font-size="10.00">&lt; ELEMENT_DIM&#45;1, SPACE</text>
<text text-anchor="start" x="1190.82" y="-1101" font-family="Helvetica,sans-Serif" font-size="10.00">_DIM &gt; * &gt;</text>
<text text-anchor="start" x="1216.82" y="-1086" font-family="Helvetica,sans-Serif" font-size="10.00"> </text>
<text text-anchor="start" x="1216.82" y="-1071" font-family="Helvetica,sans-Serif" font-size="10.00"> </text>
<polygon fill="#bfbfbf" stroke="#bfbfbf" points="1148.82,-1096 1148.82,-1096 1288.82,-1096 1288.82,-1096 1148.82,-1096"/>
<polygon fill="#bfbfbf" stroke="#bfbfbf" points="1148.82,-1081 1148.82,-1081 1288.82,-1081 1288.82,-1081 1148.82,-1081"/>
<polygon fill="none" stroke="#bfbfbf" points="1148.82,-1064.5 1148.82,-1135.5 1288.82,-1135.5 1288.82,-1064.5 1148.82,-1064.5"/>
</a>
</g>
</g>
<!-- Node14&#45;&gt;Node5 -->
<g id="edge18_Node000005_Node000014" class="edge">
<title>Node14&#45;&gt;Node5</title>
<g id="a_edge18_Node000005_Node000014"><a xlink:title=" ">
<path fill="none" stroke="#63b8ff" d="M1232.17,-1064.28C1245.19,-1034.44 1267.61,-992.07 1298.82,-965 1314.47,-951.42 1330.34,-964.25 1341.82,-947 1347.24,-938.86 1347.91,-932.65 1341.82,-925 1319.67,-897.16 1287.19,-933.83 1263.82,-907 1217.82,-854.17 1245.21,-662.42 1235.82,-593 1235.56,-591.08 1235.3,-589.14 1235.02,-587.2"/>
<polygon fill="none" stroke="#63b8ff" points="1235,-587.02 1230.17,-581.66 1233.27,-575.15 1238.09,-580.51 1235,-587.02"/>
</a>
</g>
<text text-anchor="middle" x="1320.82" y="-762" font-family="Helvetica,sans-Serif" font-size="10.00" fill="grey"> #mBoundaryElements</text>
</g>
<!-- Node14&#45;&gt;Node15 -->
<g id="edge23_Node000015_Node000014" class="edge">
<title>Node14&#45;&gt;Node15</title>
<g id="a_edge23_Node000015_Node000014"><a xlink:title=" ">
<path fill="none" stroke="#63b8ff" d="M1195.35,-1064.48C1176.4,-1034.73 1150.83,-989.93 1137.82,-947 1135.11,-938.05 1132.78,-928.75 1130.79,-919.3"/>
<polygon fill="none" stroke="#63b8ff" points="1130.74,-919.04 1125.67,-913.92 1128.44,-907.26 1133.52,-912.39 1130.74,-919.04"/>
</a>
</g>
<text text-anchor="middle" x="1194.82" y="-933.5" font-family="Helvetica,sans-Serif" font-size="10.00" fill="grey"> #mBoundaryElements</text>
</g>
<!-- Node15&#45;&gt;Node5 -->
<g id="edge19_Node000005_Node000015" class="edge">
<title>Node15&#45;&gt;Node5</title>
<g id="a_edge19_Node000005_Node000015"><a xlink:title=" ">
<path fill="none" stroke="orange" d="M1159.8,-611.88C1163.01,-599.67 1166.26,-587.37 1169.45,-575.25"/>
<polygon fill="orange" stroke="orange" points="1156.39,-611.07 1157.22,-621.64 1163.16,-612.86 1156.39,-611.07"/>
</a>
</g>
<text text-anchor="middle" x="1199.32" y="-596" font-family="Helvetica,sans-Serif" font-size="10.00" fill="grey"> &lt; DIM, DIM &gt;</text>
</g>
</g>
</svg>
