<?xml version="1.0" encoding="UTF-8" standalone="no"?>
<!DOCTYPE svg PUBLIC "-//W3C//DTD SVG 1.1//EN"
 "http://www.w3.org/Graphics/SVG/1.1/DTD/svg11.dtd">
<!-- Generated by graphviz version 2.43.0 (0)
 -->
<!-- Title: AbstractOdeSrnModel Pages: 1 -->
<svg width="1402pt" height="1892pt"
 viewBox="0.00 0.00 1402.00 1892.00" xmlns="http://www.w3.org/2000/svg" xmlns:xlink="http://www.w3.org/1999/xlink">
<g id="graph0" class="graph" transform="scale(1 1) rotate(0) translate(4 1888)">
<title>AbstractOdeSrnModel</title>
<!-- Node1 -->
<g id="Node000001" class="node">
<title>Node1</title>
<g id="a_Node000001"><a xlink:title=" ">
<polygon fill="#999999" stroke="transparent" points="1196.5,-199 1033.5,-199 1033.5,0 1196.5,0 1196.5,-199"/>
<text text-anchor="start" x="1062.5" y="-186.5" font-family="Helvetica,sans-Serif" font-size="10.00">AbstractOdeSrnModel</text>
<text text-anchor="start" x="1113.5" y="-171.5" font-family="Helvetica,sans-Serif" font-size="10.00"> </text>
<text text-anchor="start" x="1038" y="-156.5" font-family="Helvetica,sans-Serif" font-size="10.00">+</text>
<text text-anchor="start" x="1051" y="-156.5" font-family="Helvetica,sans-Serif" font-size="10.00">AbstractOdeSrnModel()</text>
<text text-anchor="start" x="1038" y="-141.5" font-family="Helvetica,sans-Serif" font-size="10.00">+</text>
<text text-anchor="start" x="1051" y="-141.5" font-family="Helvetica,sans-Serif" font-size="10.00">~AbstractOdeSrnModel()</text>
<text text-anchor="start" x="1038" y="-126.5" font-family="Helvetica,sans-Serif" font-size="10.00">+</text>
<text text-anchor="start" x="1051" y="-126.5" font-family="Helvetica,sans-Serif" font-size="10.00">SimulateToCurrentTime()</text>
<text text-anchor="start" x="1038" y="-111.5" font-family="Helvetica,sans-Serif" font-size="10.00">+</text>
<text text-anchor="start" x="1051" y="-111.5" font-family="Helvetica,sans-Serif" font-size="10.00">ResetForDivision()</text>
<text text-anchor="start" x="1038" y="-96.5" font-family="Helvetica,sans-Serif" font-size="10.00">+</text>
<text text-anchor="start" x="1051" y="-96.5" font-family="Helvetica,sans-Serif" font-size="10.00">SetInitialConditions()</text>
<text text-anchor="start" x="1038" y="-81.5" font-family="Helvetica,sans-Serif" font-size="10.00">+</text>
<text text-anchor="start" x="1051" y="-81.5" font-family="Helvetica,sans-Serif" font-size="10.00">OutputSrnModelParameters()</text>
<text text-anchor="start" x="1038" y="-66.5" font-family="Helvetica,sans-Serif" font-size="10.00">+</text>
<text text-anchor="start" x="1051" y="-66.5" font-family="Helvetica,sans-Serif" font-size="10.00">ScaleSrnVariables()</text>
<text text-anchor="start" x="1038" y="-51.5" font-family="Helvetica,sans-Serif" font-size="10.00">#</text>
<text text-anchor="start" x="1051" y="-51.5" font-family="Helvetica,sans-Serif" font-size="10.00">Initialise()</text>
<text text-anchor="start" x="1038" y="-36.5" font-family="Helvetica,sans-Serif" font-size="10.00">#</text>
<text text-anchor="start" x="1051" y="-36.5" font-family="Helvetica,sans-Serif" font-size="10.00">AbstractOdeSrnModel()</text>
<text text-anchor="start" x="1038" y="-21.5" font-family="Helvetica,sans-Serif" font-size="10.00">#</text>
<text text-anchor="start" x="1051" y="-21.5" font-family="Helvetica,sans-Serif" font-size="10.00">Initialise()</text>
<text text-anchor="start" x="1040.5" y="-6.5" font-family="Helvetica,sans-Serif" font-size="10.00">&#45;</text>
<text text-anchor="start" x="1051" y="-6.5" font-family="Helvetica,sans-Serif" font-size="10.00">serialize()</text>
<polygon fill="#666666" stroke="#666666" points="1034,-181.5 1034,-181.5 1197,-181.5 1197,-181.5 1034,-181.5"/>
<polygon fill="#666666" stroke="#666666" points="1034,-166.5 1034,-166.5 1197,-166.5 1197,-166.5 1034,-166.5"/>
<polygon fill="none" stroke="#666666" points="1033.5,0 1033.5,-199 1196.5,-199 1196.5,0 1033.5,0"/>
</a>
</g>
</g>
<!-- Node2 -->
<g id="Node000002" class="node">
<title>Node2</title>
<g id="a_Node000002"><a xlink:href="classAbstractSrnModel.html" target="_top" xlink:title=" ">
<polygon fill="white" stroke="transparent" points="415,-812 271,-812 271,-568 415,-568 415,-812"/>
<text text-anchor="start" x="299.5" y="-800" font-family="Helvetica,sans-Serif" font-size="10.00">AbstractSrnModel</text>
<text text-anchor="start" x="341" y="-785" font-family="Helvetica,sans-Serif" font-size="10.00"> </text>
<text text-anchor="start" x="275" y="-770" font-family="Helvetica,sans-Serif" font-size="10.00">+</text>
<text text-anchor="start" x="288" y="-770" font-family="Helvetica,sans-Serif" font-size="10.00">AbstractSrnModel()</text>
<text text-anchor="start" x="275" y="-755" font-family="Helvetica,sans-Serif" font-size="10.00">+</text>
<text text-anchor="start" x="288" y="-755" font-family="Helvetica,sans-Serif" font-size="10.00">~AbstractSrnModel()</text>
<text text-anchor="start" x="275" y="-740" font-family="Helvetica,sans-Serif" font-size="10.00">+</text>
<text text-anchor="start" x="288" y="-740" font-family="Helvetica,sans-Serif" font-size="10.00">SetCell()</text>
<text text-anchor="start" x="275" y="-725" font-family="Helvetica,sans-Serif" font-size="10.00">+</text>
<text text-anchor="start" x="288" y="-725" font-family="Helvetica,sans-Serif" font-size="10.00">Initialise()</text>
<text text-anchor="start" x="275" y="-710" font-family="Helvetica,sans-Serif" font-size="10.00">+</text>
<text text-anchor="start" x="288" y="-710" font-family="Helvetica,sans-Serif" font-size="10.00">InitialiseDaughterCell()</text>
<text text-anchor="start" x="275" y="-695" font-family="Helvetica,sans-Serif" font-size="10.00">+</text>
<text text-anchor="start" x="288" y="-695" font-family="Helvetica,sans-Serif" font-size="10.00">GetCell()</text>
<text text-anchor="start" x="275" y="-680" font-family="Helvetica,sans-Serif" font-size="10.00">+</text>
<text text-anchor="start" x="288" y="-680" font-family="Helvetica,sans-Serif" font-size="10.00">SetSimulatedToTime()</text>
<text text-anchor="start" x="275" y="-665" font-family="Helvetica,sans-Serif" font-size="10.00">+</text>
<text text-anchor="start" x="288" y="-665" font-family="Helvetica,sans-Serif" font-size="10.00">GetSimulatedToTime()</text>
<text text-anchor="start" x="275" y="-650" font-family="Helvetica,sans-Serif" font-size="10.00">+</text>
<text text-anchor="start" x="288" y="-650" font-family="Helvetica,sans-Serif" font-size="10.00">SimulateToCurrentTime()</text>
<text text-anchor="start" x="275" y="-635" font-family="Helvetica,sans-Serif" font-size="10.00">+</text>
<text text-anchor="start" x="288" y="-635" font-family="Helvetica,sans-Serif" font-size="10.00">ResetForDivision()</text>
<text text-anchor="start" x="288" y="-620" font-family="Helvetica,sans-Serif" font-size="10.00">and 13 more...</text>
<text text-anchor="start" x="275" y="-605" font-family="Helvetica,sans-Serif" font-size="10.00">#</text>
<text text-anchor="start" x="288" y="-605" font-family="Helvetica,sans-Serif" font-size="10.00">AbstractSrnModel()</text>
<text text-anchor="start" x="277.5" y="-590" font-family="Helvetica,sans-Serif" font-size="10.00">&#45;</text>
<text text-anchor="start" x="288" y="-590" font-family="Helvetica,sans-Serif" font-size="10.00">serialize()</text>
<text text-anchor="start" x="277.5" y="-575" font-family="Helvetica,sans-Serif" font-size="10.00">&#45;</text>
<text text-anchor="start" x="288" y="-575" font-family="Helvetica,sans-Serif" font-size="10.00">operator=()</text>
<polygon fill="#666666" stroke="#666666" points="271,-795 271,-795 415,-795 415,-795 271,-795"/>
<polygon fill="#666666" stroke="#666666" points="271,-780 271,-780 415,-780 415,-780 271,-780"/>
<polygon fill="none" stroke="#666666" points="271,-568 271,-812 415,-812 415,-568 271,-568"/>
</a>
</g>
</g>
<!-- Node2&#45;&gt;Node1 -->
<g id="edge1_Node000001_Node000002" class="edge">
<title>Node2&#45;&gt;Node1</title>
<g id="a_edge1_Node000001_Node000002"><a xlink:title=" ">
<path fill="none" stroke="#63b8ff" d="M421.58,-583.34C501.15,-482.56 632.53,-332.26 775,-236 855.56,-181.57 961.27,-143.8 1033.29,-122.22"/>
<polygon fill="none" stroke="#63b8ff" points="418.66,-581.4 415.23,-591.42 424.16,-585.72 418.66,-581.4"/>
</a>
</g>
</g>
<!-- Node3 -->
<g id="Node000003" class="node">
<title>Node3</title>
<g id="a_Node000003"><a xlink:href="classIdentifiable.html" target="_top" xlink:title=" ">
<polygon fill="white" stroke="transparent" points="298,-1041 122,-1041 122,-962 298,-962 298,-1041"/>
<text text-anchor="start" x="182.5" y="-1028.5" font-family="Helvetica,sans-Serif" font-size="10.00">Identifiable</text>
<text text-anchor="start" x="208" y="-1013.5" font-family="Helvetica,sans-Serif" font-size="10.00"> </text>
<text text-anchor="start" x="126" y="-998.5" font-family="Helvetica,sans-Serif" font-size="10.00">+</text>
<text text-anchor="start" x="139" y="-998.5" font-family="Helvetica,sans-Serif" font-size="10.00">~Identifiable()</text>
<text text-anchor="start" x="126" y="-983.5" font-family="Helvetica,sans-Serif" font-size="10.00">+</text>
<text text-anchor="start" x="139" y="-983.5" font-family="Helvetica,sans-Serif" font-size="10.00">GetIdentifier()</text>
<text text-anchor="start" x="128.5" y="-968.5" font-family="Helvetica,sans-Serif" font-size="10.00">&#45;</text>
<text text-anchor="start" x="139" y="-968.5" font-family="Helvetica,sans-Serif" font-size="10.00">TidyTemplatedExportIdentifier()</text>
<polygon fill="#666666" stroke="#666666" points="122,-1023.5 122,-1023.5 298,-1023.5 298,-1023.5 122,-1023.5"/>
<polygon fill="#666666" stroke="#666666" points="122,-1008.5 122,-1008.5 298,-1008.5 298,-1008.5 122,-1008.5"/>
<polygon fill="none" stroke="#666666" points="122,-962 122,-1041 298,-1041 298,-962 122,-962"/>
</a>
</g>
</g>
<!-- Node3&#45;&gt;Node2 -->
<g id="edge2_Node000002_Node000003" class="edge">
<title>Node3&#45;&gt;Node2</title>
<g id="a_edge2_Node000002_Node000003"><a xlink:title=" ">
<path fill="none" stroke="#63b8ff" d="M230.72,-952.28C246.84,-914.78 269.92,-861.06 290.97,-812.07"/>
<polygon fill="none" stroke="#63b8ff" points="227.31,-951.36 226.58,-961.93 233.74,-954.12 227.31,-951.36"/>
</a>
</g>
</g>
<!-- Node4 -->
<g id="Node000004" class="node">
<title>Node4</title>
<g id="a_Node000004"><a xlink:title=" ">
<polygon fill="white" stroke="transparent" points="104,-1026 0,-1026 0,-977 104,-977 104,-1026"/>
<text text-anchor="start" x="5" y="-1013.5" font-family="Helvetica,sans-Serif" font-size="10.00">shared_ptr&lt; Cell &gt;</text>
<text text-anchor="start" x="50" y="-998.5" font-family="Helvetica,sans-Serif" font-size="10.00"> </text>
<text text-anchor="start" x="50" y="-983.5" font-family="Helvetica,sans-Serif" font-size="10.00"> </text>
<polygon fill="#bfbfbf" stroke="#bfbfbf" points="0,-1008.5 0,-1008.5 104,-1008.5 104,-1008.5 0,-1008.5"/>
<polygon fill="#bfbfbf" stroke="#bfbfbf" points="0,-993.5 0,-993.5 104,-993.5 104,-993.5 0,-993.5"/>
<polygon fill="none" stroke="#bfbfbf" points="0,-977 0,-1026 104,-1026 104,-977 0,-977"/>
</a>
</g>
</g>
<!-- Node4&#45;&gt;Node2 -->
<g id="edge3_Node000002_Node000004" class="edge">
<title>Node4&#45;&gt;Node2</title>
<g id="a_edge3_Node000002_Node000004"><a xlink:title=" ">
<path fill="none" stroke="#63b8ff" d="M57.98,-976.93C66.43,-947.08 84.13,-895.18 113,-859 153.3,-808.5 212.38,-765.78 260.57,-736.06"/>
<polygon fill="none" stroke="#63b8ff" points="260.73,-735.96 263.78,-729.43 270.99,-729.73 267.94,-736.26 260.73,-735.96"/>
</a>
</g>
<text text-anchor="middle" x="162" y="-833" font-family="Helvetica,sans-Serif" font-size="10.00" fill="grey"> #mpCell</text>
</g>
<!-- Node5 -->
<g id="Node000005" class="node">
<title>Node5</title>
<g id="a_Node000005"><a xlink:href="classdouble.html" target="_top" xlink:title=" ">
<polygon fill="white" stroke="transparent" points="519,-1026 475,-1026 475,-977 519,-977 519,-1026"/>
<text text-anchor="start" x="480" y="-1013.5" font-family="Helvetica,sans-Serif" font-size="10.00">double</text>
<text text-anchor="start" x="495" y="-998.5" font-family="Helvetica,sans-Serif" font-size="10.00"> </text>
<text text-anchor="start" x="495" y="-983.5" font-family="Helvetica,sans-Serif" font-size="10.00"> </text>
<polygon fill="#bfbfbf" stroke="#bfbfbf" points="475,-1008.5 475,-1008.5 519,-1008.5 519,-1008.5 475,-1008.5"/>
<polygon fill="#bfbfbf" stroke="#bfbfbf" points="475,-993.5 475,-993.5 519,-993.5 519,-993.5 475,-993.5"/>
<polygon fill="none" stroke="#bfbfbf" points="475,-977 475,-1026 519,-1026 519,-977 475,-977"/>
</a>
</g>
</g>
<!-- Node5&#45;&gt;Node2 -->
<g id="edge4_Node000002_Node000005" class="edge">
<title>Node5&#45;&gt;Node2</title>
<g id="a_edge4_Node000002_Node000005"><a xlink:title=" ">
<path fill="none" stroke="#63b8ff" d="M474.89,-982.6C443.33,-955.61 386.27,-901.23 360,-841 357.64,-835.58 355.56,-829.95 353.73,-824.19"/>
<polygon fill="none" stroke="#63b8ff" points="353.61,-823.75 348.12,-819.07 350.33,-812.21 355.81,-816.89 353.61,-823.75"/>
</a>
</g>
<text text-anchor="middle" x="413" y="-833" font-family="Helvetica,sans-Serif" font-size="10.00" fill="grey"> #mSimulatedToTime</text>
</g>
<!-- Node8 -->
<g id="Node000008" class="node">
<title>Node8</title>
<g id="a_Node000008"><a xlink:href="classCellCycleModelOdeHandler.html" target="_top" xlink:title=" ">
<polygon fill="white" stroke="transparent" points="954.5,-521 783.5,-521 783.5,-236 954.5,-236 954.5,-521"/>
<text text-anchor="start" x="802.5" y="-508.5" font-family="Helvetica,sans-Serif" font-size="10.00">CellCycleModelOdeHandler</text>
<text text-anchor="start" x="867.5" y="-493.5" font-family="Helvetica,sans-Serif" font-size="10.00"> </text>
<text text-anchor="start" x="788" y="-478.5" font-family="Helvetica,sans-Serif" font-size="10.00">+</text>
<text text-anchor="start" x="801" y="-478.5" font-family="Helvetica,sans-Serif" font-size="10.00">CellCycleModelOdeHandler()</text>
<text text-anchor="start" x="788" y="-463.5" font-family="Helvetica,sans-Serif" font-size="10.00">+</text>
<text text-anchor="start" x="801" y="-463.5" font-family="Helvetica,sans-Serif" font-size="10.00">~CellCycleModelOdeHandler()</text>
<text text-anchor="start" x="788" y="-448.5" font-family="Helvetica,sans-Serif" font-size="10.00">+</text>
<text text-anchor="start" x="801" y="-448.5" font-family="Helvetica,sans-Serif" font-size="10.00">GetOdeSystem()</text>
<text text-anchor="start" x="788" y="-433.5" font-family="Helvetica,sans-Serif" font-size="10.00">+</text>
<text text-anchor="start" x="801" y="-433.5" font-family="Helvetica,sans-Serif" font-size="10.00">SetOdeSystem()</text>
<text text-anchor="start" x="788" y="-418.5" font-family="Helvetica,sans-Serif" font-size="10.00">+</text>
<text text-anchor="start" x="801" y="-418.5" font-family="Helvetica,sans-Serif" font-size="10.00">GetOdeSolver()</text>
<text text-anchor="start" x="788" y="-403.5" font-family="Helvetica,sans-Serif" font-size="10.00">+</text>
<text text-anchor="start" x="801" y="-403.5" font-family="Helvetica,sans-Serif" font-size="10.00">SetLastTime()</text>
<text text-anchor="start" x="788" y="-388.5" font-family="Helvetica,sans-Serif" font-size="10.00">+</text>
<text text-anchor="start" x="801" y="-388.5" font-family="Helvetica,sans-Serif" font-size="10.00">GetDt()</text>
<text text-anchor="start" x="788" y="-373.5" font-family="Helvetica,sans-Serif" font-size="10.00">+</text>
<text text-anchor="start" x="801" y="-373.5" font-family="Helvetica,sans-Serif" font-size="10.00">SetDt()</text>
<text text-anchor="start" x="788" y="-358.5" font-family="Helvetica,sans-Serif" font-size="10.00">+</text>
<text text-anchor="start" x="801" y="-358.5" font-family="Helvetica,sans-Serif" font-size="10.00">SetStateVariables()</text>
<text text-anchor="start" x="788" y="-343.5" font-family="Helvetica,sans-Serif" font-size="10.00">+</text>
<text text-anchor="start" x="801" y="-343.5" font-family="Helvetica,sans-Serif" font-size="10.00">GetProteinConcentrations()</text>
<text text-anchor="start" x="788" y="-328.5" font-family="Helvetica,sans-Serif" font-size="10.00">+</text>
<text text-anchor="start" x="801" y="-328.5" font-family="Helvetica,sans-Serif" font-size="10.00">SetProteinConcentrations</text>
<text text-anchor="start" x="801" y="-317.5" font-family="Helvetica,sans-Serif" font-size="10.00">ForTestsOnly()</text>
<text text-anchor="start" x="788" y="-302.5" font-family="Helvetica,sans-Serif" font-size="10.00">#</text>
<text text-anchor="start" x="801" y="-302.5" font-family="Helvetica,sans-Serif" font-size="10.00">CellCycleModelOdeHandler()</text>
<text text-anchor="start" x="788" y="-287.5" font-family="Helvetica,sans-Serif" font-size="10.00">#</text>
<text text-anchor="start" x="801" y="-287.5" font-family="Helvetica,sans-Serif" font-size="10.00">SolveOdeToTime()</text>
<text text-anchor="start" x="788" y="-272.5" font-family="Helvetica,sans-Serif" font-size="10.00">#</text>
<text text-anchor="start" x="801" y="-272.5" font-family="Helvetica,sans-Serif" font-size="10.00">AdjustOdeParameters()</text>
<text text-anchor="start" x="790.5" y="-257.5" font-family="Helvetica,sans-Serif" font-size="10.00">&#45;</text>
<text text-anchor="start" x="801" y="-257.5" font-family="Helvetica,sans-Serif" font-size="10.00">serialize()</text>
<text text-anchor="start" x="790.5" y="-242.5" font-family="Helvetica,sans-Serif" font-size="10.00">&#45;</text>
<text text-anchor="start" x="801" y="-242.5" font-family="Helvetica,sans-Serif" font-size="10.00">operator=()</text>
<polygon fill="#666666" stroke="#666666" points="784,-503.5 784,-503.5 955,-503.5 955,-503.5 784,-503.5"/>
<polygon fill="#666666" stroke="#666666" points="784,-488.5 784,-488.5 955,-488.5 955,-488.5 784,-488.5"/>
<polygon fill="none" stroke="#666666" points="783.5,-236 783.5,-521 954.5,-521 954.5,-236 783.5,-236"/>
</a>
</g>
</g>
<!-- Node5&#45;&gt;Node8 -->
<g id="edge8_Node000008_Node000005" class="edge">
<title>Node5&#45;&gt;Node8</title>
<g id="a_edge8_Node000008_Node000005"><a xlink:title=" ">
<path fill="none" stroke="#63b8ff" d="M518.33,-976.92C543.52,-947.51 584.35,-894.53 603,-841 643.07,-726.02 567.89,-675 626,-568 658.79,-507.63 720.01,-460.32 772.79,-428.2"/>
<polygon fill="none" stroke="#63b8ff" points="772.92,-428.13 776.02,-421.62 783.22,-421.98 780.12,-428.49 772.92,-428.13"/>
</a>
</g>
<text text-anchor="middle" x="658" y="-693" font-family="Helvetica,sans-Serif" font-size="10.00" fill="grey"> #mDt</text>
<text text-anchor="middle" x="658" y="-682" font-family="Helvetica,sans-Serif" font-size="10.00" fill="grey">#mLastTime</text>
</g>
<!-- Node6 -->
<g id="Node000006" class="node">
<title>Node6</title>
<g id="a_Node000006"><a xlink:href="classunsigned.html" target="_top" xlink:title=" ">
<polygon fill="white" stroke="transparent" points="1154.5,-1878.5 1099.5,-1878.5 1099.5,-1829.5 1154.5,-1829.5 1154.5,-1878.5"/>
<text text-anchor="start" x="1105" y="-1866" font-family="Helvetica,sans-Serif" font-size="10.00">unsigned</text>
<text text-anchor="start" x="1125.5" y="-1851" font-family="Helvetica,sans-Serif" font-size="10.00"> </text>
<text text-anchor="start" x="1125.5" y="-1836" font-family="Helvetica,sans-Serif" font-size="10.00"> </text>
<polygon fill="#bfbfbf" stroke="#bfbfbf" points="1100,-1861 1100,-1861 1155,-1861 1155,-1861 1100,-1861"/>
<polygon fill="#bfbfbf" stroke="#bfbfbf" points="1100,-1846 1100,-1846 1155,-1846 1155,-1846 1100,-1846"/>
<polygon fill="none" stroke="#bfbfbf" points="1099.5,-1829.5 1099.5,-1878.5 1154.5,-1878.5 1154.5,-1829.5 1099.5,-1829.5"/>
</a>
</g>
</g>
<!-- Node6&#45;&gt;Node1 -->
<g id="edge22_Node000001_Node000006" class="edge">
<title>Node6&#45;&gt;Node1</title>
<g id="a_edge22_Node000001_Node000006"><a xlink:title=" ">
<path fill="none" stroke="#63b8ff" d="M1154.54,-1848.98C1182.75,-1843.59 1226.41,-1831.56 1255,-1806 1308.34,-1758.31 1327,-1733.55 1327,-1662 1327,-1662 1327,-1662 1327,-377.5 1327,-292.57 1263.37,-217.56 1205.83,-167.09"/>
<polygon fill="none" stroke="#63b8ff" points="1205.76,-167.03 1198.6,-166.15 1196.66,-159.2 1203.82,-160.08 1205.76,-167.03"/>
</a>
</g>
<text text-anchor="middle" x="1360.5" y="-999" font-family="Helvetica,sans-Serif" font-size="10.00" fill="grey"> #mStateSize</text>
</g>
<!-- Node6&#45;&gt;Node2 -->
<g id="edge5_Node000002_Node000006" class="edge">
<title>Node6&#45;&gt;Node2</title>
<g id="a_edge5_Node000002_Node000006"><a xlink:title=" ">
<path fill="none" stroke="#63b8ff" d="M1099.61,-1829.38C1096.49,-1827.35 1093.26,-1825.51 1090,-1824 1053.77,-1807.24 1041.08,-1814.16 1002,-1806 851.65,-1774.61 326,-1815.59 326,-1662 326,-1662 326,-1662 326,-1000.5 326,-942.72 328.99,-878.95 332.46,-824.4"/>
<polygon fill="none" stroke="#63b8ff" points="332.48,-824.16 328.88,-817.91 333.26,-812.18 336.86,-818.43 332.48,-824.16"/>
</a>
</g>
<text text-anchor="middle" x="375" y="-1342" font-family="Helvetica,sans-Serif" font-size="10.00" fill="grey"> #mEdgeLocalIndex</text>
</g>
<!-- Node11 -->
<g id="Node000011" class="node">
<title>Node11</title>
<g id="a_Node000011"><a xlink:href="classAbstractUntemplatedParameterisedSystem.html" target="_top" xlink:title=" ">
<polygon fill="white" stroke="transparent" points="1162.5,-1777 957.5,-1777 957.5,-1545 1162.5,-1545 1162.5,-1777"/>
<text text-anchor="start" x="973" y="-1765" font-family="Helvetica,sans-Serif" font-size="10.00">AbstractUntemplatedParameterised</text>
<text text-anchor="start" x="1042" y="-1754" font-family="Helvetica,sans-Serif" font-size="10.00">System</text>
<text text-anchor="start" x="1058.5" y="-1739" font-family="Helvetica,sans-Serif" font-size="10.00"> </text>
<text text-anchor="start" x="962" y="-1724" font-family="Helvetica,sans-Serif" font-size="10.00">+</text>
<text text-anchor="start" x="975" y="-1724" font-family="Helvetica,sans-Serif" font-size="10.00">AbstractUntemplatedParameterised</text>
<text text-anchor="start" x="975" y="-1713" font-family="Helvetica,sans-Serif" font-size="10.00">System()</text>
<text text-anchor="start" x="962" y="-1698" font-family="Helvetica,sans-Serif" font-size="10.00">+</text>
<text text-anchor="start" x="975" y="-1698" font-family="Helvetica,sans-Serif" font-size="10.00">~AbstractUntemplatedParameterised</text>
<text text-anchor="start" x="975" y="-1687" font-family="Helvetica,sans-Serif" font-size="10.00">System()</text>
<text text-anchor="start" x="962" y="-1672" font-family="Helvetica,sans-Serif" font-size="10.00">+</text>
<text text-anchor="start" x="975" y="-1672" font-family="Helvetica,sans-Serif" font-size="10.00">GetSystemInformation()</text>
<text text-anchor="start" x="962" y="-1657" font-family="Helvetica,sans-Serif" font-size="10.00">+</text>
<text text-anchor="start" x="975" y="-1657" font-family="Helvetica,sans-Serif" font-size="10.00">GetSystemName()</text>
<text text-anchor="start" x="962" y="-1642" font-family="Helvetica,sans-Serif" font-size="10.00">+</text>
<text text-anchor="start" x="975" y="-1642" font-family="Helvetica,sans-Serif" font-size="10.00">GetNumberOfAttributes()</text>
<text text-anchor="start" x="962" y="-1627" font-family="Helvetica,sans-Serif" font-size="10.00">+</text>
<text text-anchor="start" x="975" y="-1627" font-family="Helvetica,sans-Serif" font-size="10.00">HasAttribute()</text>
<text text-anchor="start" x="962" y="-1612" font-family="Helvetica,sans-Serif" font-size="10.00">+</text>
<text text-anchor="start" x="975" y="-1612" font-family="Helvetica,sans-Serif" font-size="10.00">GetAttribute()</text>
<text text-anchor="start" x="962" y="-1597" font-family="Helvetica,sans-Serif" font-size="10.00">+</text>
<text text-anchor="start" x="975" y="-1597" font-family="Helvetica,sans-Serif" font-size="10.00">GetNumberOfStateVariables()</text>
<text text-anchor="start" x="962" y="-1582" font-family="Helvetica,sans-Serif" font-size="10.00">+</text>
<text text-anchor="start" x="975" y="-1582" font-family="Helvetica,sans-Serif" font-size="10.00">rGetStateVariableNames()</text>
<text text-anchor="start" x="962" y="-1567" font-family="Helvetica,sans-Serif" font-size="10.00">+</text>
<text text-anchor="start" x="975" y="-1567" font-family="Helvetica,sans-Serif" font-size="10.00">rGetStateVariableUnits()</text>
<text text-anchor="start" x="975" y="-1552" font-family="Helvetica,sans-Serif" font-size="10.00">and 20 more...</text>
<polygon fill="#666666" stroke="#666666" points="958,-1749 958,-1749 1163,-1749 1163,-1749 958,-1749"/>
<polygon fill="#666666" stroke="#666666" points="958,-1734 958,-1734 1163,-1734 1163,-1734 958,-1734"/>
<polygon fill="none" stroke="#666666" points="957.5,-1545 957.5,-1777 1162.5,-1777 1162.5,-1545 957.5,-1545"/>
</a>
</g>
</g>
<!-- Node6&#45;&gt;Node11 -->
<g id="edge12_Node000011_Node000006" class="edge">
<title>Node6&#45;&gt;Node11</title>
<g id="a_edge12_Node000011_Node000006"><a xlink:title=" ">
<path fill="none" stroke="#63b8ff" d="M1118.65,-1829.2C1114.75,-1818.09 1109.79,-1803.94 1104.4,-1788.58"/>
<polygon fill="none" stroke="#63b8ff" points="1104.39,-1788.54 1098.63,-1784.2 1100.42,-1777.21 1106.18,-1781.55 1104.39,-1788.54"/>
</a>
</g>
<text text-anchor="middle" x="1180" y="-1798" font-family="Helvetica,sans-Serif" font-size="10.00" fill="grey"> #mNumberOfStateVariables</text>
</g>
<!-- Node7 -->
<g id="Node000007" class="node">
<title>Node7</title>
<g id="a_Node000007"><a xlink:href="classbool.html" target="_top" xlink:title=" ">
<polygon fill="white" stroke="transparent" points="885,-1026 853,-1026 853,-977 885,-977 885,-1026"/>
<text text-anchor="start" x="858" y="-1013.5" font-family="Helvetica,sans-Serif" font-size="10.00">bool</text>
<text text-anchor="start" x="867" y="-998.5" font-family="Helvetica,sans-Serif" font-size="10.00"> </text>
<text text-anchor="start" x="867" y="-983.5" font-family="Helvetica,sans-Serif" font-size="10.00"> </text>
<polygon fill="#bfbfbf" stroke="#bfbfbf" points="853,-1008.5 853,-1008.5 885,-1008.5 885,-1008.5 853,-1008.5"/>
<polygon fill="#bfbfbf" stroke="#bfbfbf" points="853,-993.5 853,-993.5 885,-993.5 885,-993.5 853,-993.5"/>
<polygon fill="none" stroke="#bfbfbf" points="853,-977 853,-1026 885,-1026 885,-977 853,-977"/>
</a>
</g>
</g>
<!-- Node7&#45;&gt;Node2 -->
<g id="edge6_Node000002_Node000007" class="edge">
<title>Node7&#45;&gt;Node2</title>
<g id="a_edge6_Node000002_Node000007"><a xlink:title=" ">
<path fill="none" stroke="#63b8ff" d="M852.97,-991.07C789.5,-953.72 553.06,-814.6 425.63,-739.62"/>
<polygon fill="none" stroke="#63b8ff" points="425.49,-739.54 418.29,-739.94 415.15,-733.45 422.35,-733.05 425.49,-739.54"/>
</a>
</g>
<text text-anchor="middle" x="648" y="-833" font-family="Helvetica,sans-Serif" font-size="10.00" fill="grey"> #mIsEdgeBasedModel</text>
</g>
<!-- Node7&#45;&gt;Node8 -->
<g id="edge20_Node000008_Node000007" class="edge">
<title>Node7&#45;&gt;Node8</title>
<g id="a_edge20_Node000008_Node000007"><a xlink:title=" ">
<path fill="none" stroke="#63b8ff" d="M869,-976.91C869,-905.19 869,-685.33 869,-533.33"/>
<polygon fill="none" stroke="#63b8ff" points="869,-533.14 865,-527.14 869,-521.14 873,-527.14 869,-533.14"/>
</a>
</g>
<text text-anchor="middle" x="932.5" y="-687.5" font-family="Helvetica,sans-Serif" font-size="10.00" fill="grey"> #mFinishedRunningOdes</text>
</g>
<!-- Node9 -->
<g id="Node000009" class="node">
<title>Node9</title>
<g id="a_Node000009"><a xlink:href="classAbstractOdeSystem.html" target="_top" xlink:title=" ">
<polygon fill="white" stroke="transparent" points="1162,-774.5 1014,-774.5 1014,-605.5 1162,-605.5 1162,-774.5"/>
<text text-anchor="start" x="1039.5" y="-762" font-family="Helvetica,sans-Serif" font-size="10.00">AbstractOdeSystem</text>
<text text-anchor="start" x="1086" y="-747" font-family="Helvetica,sans-Serif" font-size="10.00"> </text>
<text text-anchor="start" x="1018" y="-732" font-family="Helvetica,sans-Serif" font-size="10.00">+</text>
<text text-anchor="start" x="1031" y="-732" font-family="Helvetica,sans-Serif" font-size="10.00">AbstractOdeSystem()</text>
<text text-anchor="start" x="1018" y="-717" font-family="Helvetica,sans-Serif" font-size="10.00">+</text>
<text text-anchor="start" x="1031" y="-717" font-family="Helvetica,sans-Serif" font-size="10.00">~AbstractOdeSystem()</text>
<text text-anchor="start" x="1018" y="-702" font-family="Helvetica,sans-Serif" font-size="10.00">+</text>
<text text-anchor="start" x="1031" y="-702" font-family="Helvetica,sans-Serif" font-size="10.00">EvaluateYDerivatives()</text>
<text text-anchor="start" x="1018" y="-687" font-family="Helvetica,sans-Serif" font-size="10.00">+</text>
<text text-anchor="start" x="1031" y="-687" font-family="Helvetica,sans-Serif" font-size="10.00">CalculateStoppingEvent()</text>
<text text-anchor="start" x="1018" y="-672" font-family="Helvetica,sans-Serif" font-size="10.00">+</text>
<text text-anchor="start" x="1031" y="-672" font-family="Helvetica,sans-Serif" font-size="10.00">CalculateRootFunction()</text>
<text text-anchor="start" x="1018" y="-657" font-family="Helvetica,sans-Serif" font-size="10.00">+</text>
<text text-anchor="start" x="1031" y="-657" font-family="Helvetica,sans-Serif" font-size="10.00">GetUseAnalyticJacobian()</text>
<text text-anchor="start" x="1018" y="-642" font-family="Helvetica,sans-Serif" font-size="10.00">+</text>
<text text-anchor="start" x="1031" y="-642" font-family="Helvetica,sans-Serif" font-size="10.00">rGetConstStateVariables()</text>
<text text-anchor="start" x="1020.5" y="-627" font-family="Helvetica,sans-Serif" font-size="10.00">&#45;</text>
<text text-anchor="start" x="1031" y="-627" font-family="Helvetica,sans-Serif" font-size="10.00">save()</text>
<text text-anchor="start" x="1020.5" y="-612" font-family="Helvetica,sans-Serif" font-size="10.00">&#45;</text>
<text text-anchor="start" x="1031" y="-612" font-family="Helvetica,sans-Serif" font-size="10.00">load()</text>
<polygon fill="#666666" stroke="#666666" points="1014,-757 1014,-757 1162,-757 1162,-757 1014,-757"/>
<polygon fill="#666666" stroke="#666666" points="1014,-742 1014,-742 1162,-742 1162,-742 1014,-742"/>
<polygon fill="none" stroke="#666666" points="1014,-605.5 1014,-774.5 1162,-774.5 1162,-605.5 1014,-605.5"/>
</a>
</g>
</g>
<!-- Node7&#45;&gt;Node9 -->
<g id="edge18_Node000009_Node000007" class="edge">
<title>Node7&#45;&gt;Node9</title>
<g id="a_edge18_Node000009_Node000007"><a xlink:title=" ">
<path fill="none" stroke="#63b8ff" d="M874.71,-976.74C884.63,-940.33 908.38,-870.69 953,-830 969.53,-814.93 982.25,-825.61 1000,-812 1010.42,-804.02 1020.15,-794.47 1029.07,-784.29"/>
<polygon fill="none" stroke="#63b8ff" points="1029.32,-783.99 1030.1,-776.82 1037.02,-774.79 1036.23,-781.96 1029.32,-783.99"/>
</a>
</g>
<text text-anchor="middle" x="1013.5" y="-833" font-family="Helvetica,sans-Serif" font-size="10.00" fill="grey"> #mUseAnalyticJacobian</text>
</g>
<!-- Node8&#45;&gt;Node1 -->
<g id="edge7_Node000001_Node000008" class="edge">
<title>Node8&#45;&gt;Node1</title>
<g id="a_edge7_Node000001_Node000008"><a xlink:title=" ">
<path fill="none" stroke="#63b8ff" d="M961.62,-273.2C985.2,-246.66 1010.36,-218.33 1033.34,-192.45"/>
<polygon fill="none" stroke="#63b8ff" points="958.72,-271.21 954.69,-281.01 963.95,-275.85 958.72,-271.21"/>
</a>
</g>
</g>
<!-- Node9&#45;&gt;Node8 -->
<g id="edge9_Node000008_Node000009" class="edge">
<title>Node9&#45;&gt;Node8</title>
<g id="a_edge9_Node000008_Node000009"><a xlink:title=" ">
<path fill="none" stroke="#63b8ff" d="M1028.74,-605.24C1008.07,-576.04 984.36,-542.53 961.64,-510.42"/>
<polygon fill="none" stroke="#63b8ff" points="961.56,-510.31 954.83,-507.72 954.63,-500.51 961.36,-503.1 961.56,-510.31"/>
</a>
</g>
<text text-anchor="middle" x="1027" y="-542" font-family="Helvetica,sans-Serif" font-size="10.00" fill="grey"> #mpOdeSystem</text>
</g>
<!-- Node10 -->
<g id="Node000010" class="node">
<title>Node10</title>
<g id="a_Node000010"><a xlink:href="classAbstractParameterisedSystem.html" target="_top" xlink:title=" ">
<polygon fill="white" stroke="transparent" points="1156.5,-1144 979.5,-1144 979.5,-859 1156.5,-859 1156.5,-1144"/>
<text text-anchor="start" x="994.5" y="-1131.5" font-family="Helvetica,sans-Serif" font-size="10.00">AbstractParameterisedSystem</text>
<text text-anchor="start" x="1003.5" y="-1120.5" font-family="Helvetica,sans-Serif" font-size="10.00">&lt; std::vector&lt; double &gt; &gt;</text>
<text text-anchor="start" x="1066.5" y="-1105.5" font-family="Helvetica,sans-Serif" font-size="10.00"> </text>
<text text-anchor="start" x="984" y="-1090.5" font-family="Helvetica,sans-Serif" font-size="10.00">+</text>
<text text-anchor="start" x="997" y="-1090.5" font-family="Helvetica,sans-Serif" font-size="10.00">AbstractParameterisedSystem()</text>
<text text-anchor="start" x="984" y="-1075.5" font-family="Helvetica,sans-Serif" font-size="10.00">+</text>
<text text-anchor="start" x="997" y="-1075.5" font-family="Helvetica,sans-Serif" font-size="10.00">rGetStateVariables()</text>
<text text-anchor="start" x="984" y="-1060.5" font-family="Helvetica,sans-Serif" font-size="10.00">+</text>
<text text-anchor="start" x="997" y="-1060.5" font-family="Helvetica,sans-Serif" font-size="10.00">GetStateVariables()</text>
<text text-anchor="start" x="984" y="-1045.5" font-family="Helvetica,sans-Serif" font-size="10.00">+</text>
<text text-anchor="start" x="997" y="-1045.5" font-family="Helvetica,sans-Serif" font-size="10.00">SetStateVariables()</text>
<text text-anchor="start" x="984" y="-1030.5" font-family="Helvetica,sans-Serif" font-size="10.00">+</text>
<text text-anchor="start" x="997" y="-1030.5" font-family="Helvetica,sans-Serif" font-size="10.00">GetStateVariable()</text>
<text text-anchor="start" x="984" y="-1015.5" font-family="Helvetica,sans-Serif" font-size="10.00">+</text>
<text text-anchor="start" x="997" y="-1015.5" font-family="Helvetica,sans-Serif" font-size="10.00">GetStateVariable()</text>
<text text-anchor="start" x="984" y="-1000.5" font-family="Helvetica,sans-Serif" font-size="10.00">+</text>
<text text-anchor="start" x="997" y="-1000.5" font-family="Helvetica,sans-Serif" font-size="10.00">SetStateVariable()</text>
<text text-anchor="start" x="984" y="-985.5" font-family="Helvetica,sans-Serif" font-size="10.00">+</text>
<text text-anchor="start" x="997" y="-985.5" font-family="Helvetica,sans-Serif" font-size="10.00">SetStateVariable()</text>
<text text-anchor="start" x="984" y="-970.5" font-family="Helvetica,sans-Serif" font-size="10.00">+</text>
<text text-anchor="start" x="997" y="-970.5" font-family="Helvetica,sans-Serif" font-size="10.00">VerifyStateVariables()</text>
<text text-anchor="start" x="984" y="-955.5" font-family="Helvetica,sans-Serif" font-size="10.00">+</text>
<text text-anchor="start" x="997" y="-955.5" font-family="Helvetica,sans-Serif" font-size="10.00">SetDefaultInitialConditions()</text>
<text text-anchor="start" x="997" y="-940.5" font-family="Helvetica,sans-Serif" font-size="10.00">and 13 more...</text>
<text text-anchor="start" x="984" y="-925.5" font-family="Helvetica,sans-Serif" font-size="10.00">#</text>
<text text-anchor="start" x="997" y="-925.5" font-family="Helvetica,sans-Serif" font-size="10.00">DumpState()</text>
<text text-anchor="start" x="984" y="-910.5" font-family="Helvetica,sans-Serif" font-size="10.00">#</text>
<text text-anchor="start" x="997" y="-910.5" font-family="Helvetica,sans-Serif" font-size="10.00">DumpState()</text>
<text text-anchor="start" x="984" y="-895.5" font-family="Helvetica,sans-Serif" font-size="10.00">#</text>
<text text-anchor="start" x="997" y="-895.5" font-family="Helvetica,sans-Serif" font-size="10.00">DumpState()</text>
<text text-anchor="start" x="984" y="-880.5" font-family="Helvetica,sans-Serif" font-size="10.00">#</text>
<text text-anchor="start" x="997" y="-880.5" font-family="Helvetica,sans-Serif" font-size="10.00">CheckParametersOnLoad()</text>
<text text-anchor="start" x="986.5" y="-865.5" font-family="Helvetica,sans-Serif" font-size="10.00">&#45;</text>
<text text-anchor="start" x="997" y="-865.5" font-family="Helvetica,sans-Serif" font-size="10.00">GetStateMessage()</text>
<polygon fill="#666666" stroke="#666666" points="980,-1115.5 980,-1115.5 1157,-1115.5 1157,-1115.5 980,-1115.5"/>
<polygon fill="#666666" stroke="#666666" points="980,-1100.5 980,-1100.5 1157,-1100.5 1157,-1100.5 980,-1100.5"/>
<polygon fill="none" stroke="#666666" points="979.5,-859 979.5,-1144 1156.5,-1144 1156.5,-859 979.5,-859"/>
</a>
</g>
</g>
<!-- Node10&#45;&gt;Node9 -->
<g id="edge10_Node000009_Node000010" class="edge">
<title>Node10&#45;&gt;Node9</title>
<g id="a_edge10_Node000009_Node000010"><a xlink:title=" ">
<path fill="none" stroke="#63b8ff" d="M1077.81,-848.74C1079.46,-823.23 1081.11,-797.61 1082.59,-774.65"/>
<polygon fill="none" stroke="#63b8ff" points="1074.3,-848.68 1077.15,-858.88 1081.29,-849.13 1074.3,-848.68"/>
</a>
</g>
</g>
<!-- Node11&#45;&gt;Node10 -->
<g id="edge11_Node000010_Node000011" class="edge">
<title>Node11&#45;&gt;Node10</title>
<g id="a_edge11_Node000010_Node000011"><a xlink:title=" ">
<path fill="none" stroke="#63b8ff" d="M1061.53,-1534.43C1062.88,-1422.91 1064.87,-1260.09 1066.28,-1144"/>
<polygon fill="none" stroke="#63b8ff" points="1058.02,-1534.68 1061.4,-1544.72 1065.02,-1534.76 1058.02,-1534.68"/>
</a>
</g>
</g>
<!-- Node14 -->
<g id="Node000014" class="node">
<title>Node14</title>
<g id="a_Node000014"><a xlink:href="classAbstractParameterisedSystem.html" target="_top" xlink:title=" ">
<polygon fill="white" stroke="transparent" points="1002.5,-1487 825.5,-1487 825.5,-1202 1002.5,-1202 1002.5,-1487"/>
<text text-anchor="start" x="840.5" y="-1474.5" font-family="Helvetica,sans-Serif" font-size="10.00">AbstractParameterisedSystem</text>
<text text-anchor="start" x="883" y="-1463.5" font-family="Helvetica,sans-Serif" font-size="10.00">&lt; VECTOR &gt;</text>
<text text-anchor="start" x="912.5" y="-1448.5" font-family="Helvetica,sans-Serif" font-size="10.00"> </text>
<text text-anchor="start" x="830" y="-1433.5" font-family="Helvetica,sans-Serif" font-size="10.00">+</text>
<text text-anchor="start" x="843" y="-1433.5" font-family="Helvetica,sans-Serif" font-size="10.00">AbstractParameterisedSystem()</text>
<text text-anchor="start" x="830" y="-1418.5" font-family="Helvetica,sans-Serif" font-size="10.00">+</text>
<text text-anchor="start" x="843" y="-1418.5" font-family="Helvetica,sans-Serif" font-size="10.00">rGetStateVariables()</text>
<text text-anchor="start" x="830" y="-1403.5" font-family="Helvetica,sans-Serif" font-size="10.00">+</text>
<text text-anchor="start" x="843" y="-1403.5" font-family="Helvetica,sans-Serif" font-size="10.00">GetStateVariables()</text>
<text text-anchor="start" x="830" y="-1388.5" font-family="Helvetica,sans-Serif" font-size="10.00">+</text>
<text text-anchor="start" x="843" y="-1388.5" font-family="Helvetica,sans-Serif" font-size="10.00">SetStateVariables()</text>
<text text-anchor="start" x="830" y="-1373.5" font-family="Helvetica,sans-Serif" font-size="10.00">+</text>
<text text-anchor="start" x="843" y="-1373.5" font-family="Helvetica,sans-Serif" font-size="10.00">GetStateVariable()</text>
<text text-anchor="start" x="830" y="-1358.5" font-family="Helvetica,sans-Serif" font-size="10.00">+</text>
<text text-anchor="start" x="843" y="-1358.5" font-family="Helvetica,sans-Serif" font-size="10.00">GetStateVariable()</text>
<text text-anchor="start" x="830" y="-1343.5" font-family="Helvetica,sans-Serif" font-size="10.00">+</text>
<text text-anchor="start" x="843" y="-1343.5" font-family="Helvetica,sans-Serif" font-size="10.00">SetStateVariable()</text>
<text text-anchor="start" x="830" y="-1328.5" font-family="Helvetica,sans-Serif" font-size="10.00">+</text>
<text text-anchor="start" x="843" y="-1328.5" font-family="Helvetica,sans-Serif" font-size="10.00">SetStateVariable()</text>
<text text-anchor="start" x="830" y="-1313.5" font-family="Helvetica,sans-Serif" font-size="10.00">+</text>
<text text-anchor="start" x="843" y="-1313.5" font-family="Helvetica,sans-Serif" font-size="10.00">VerifyStateVariables()</text>
<text text-anchor="start" x="830" y="-1298.5" font-family="Helvetica,sans-Serif" font-size="10.00">+</text>
<text text-anchor="start" x="843" y="-1298.5" font-family="Helvetica,sans-Serif" font-size="10.00">SetDefaultInitialConditions()</text>
<text text-anchor="start" x="843" y="-1283.5" font-family="Helvetica,sans-Serif" font-size="10.00">and 13 more...</text>
<text text-anchor="start" x="830" y="-1268.5" font-family="Helvetica,sans-Serif" font-size="10.00">#</text>
<text text-anchor="start" x="843" y="-1268.5" font-family="Helvetica,sans-Serif" font-size="10.00">DumpState()</text>
<text text-anchor="start" x="830" y="-1253.5" font-family="Helvetica,sans-Serif" font-size="10.00">#</text>
<text text-anchor="start" x="843" y="-1253.5" font-family="Helvetica,sans-Serif" font-size="10.00">DumpState()</text>
<text text-anchor="start" x="830" y="-1238.5" font-family="Helvetica,sans-Serif" font-size="10.00">#</text>
<text text-anchor="start" x="843" y="-1238.5" font-family="Helvetica,sans-Serif" font-size="10.00">DumpState()</text>
<text text-anchor="start" x="830" y="-1223.5" font-family="Helvetica,sans-Serif" font-size="10.00">#</text>
<text text-anchor="start" x="843" y="-1223.5" font-family="Helvetica,sans-Serif" font-size="10.00">CheckParametersOnLoad()</text>
<text text-anchor="start" x="832.5" y="-1208.5" font-family="Helvetica,sans-Serif" font-size="10.00">&#45;</text>
<text text-anchor="start" x="843" y="-1208.5" font-family="Helvetica,sans-Serif" font-size="10.00">GetStateMessage()</text>
<polygon fill="#666666" stroke="#666666" points="826,-1458.5 826,-1458.5 1003,-1458.5 1003,-1458.5 826,-1458.5"/>
<polygon fill="#666666" stroke="#666666" points="826,-1443.5 826,-1443.5 1003,-1443.5 1003,-1443.5 826,-1443.5"/>
<polygon fill="none" stroke="#666666" points="825.5,-1202 825.5,-1487 1002.5,-1487 1002.5,-1202 825.5,-1202"/>
</a>
</g>
</g>
<!-- Node11&#45;&gt;Node14 -->
<g id="edge16_Node000014_Node000011" class="edge">
<title>Node11&#45;&gt;Node14</title>
<g id="a_edge16_Node000014_Node000011"><a xlink:title=" ">
<path fill="none" stroke="#63b8ff" d="M1019.77,-1535.21C1015.71,-1524.89 1011.43,-1514.7 1007,-1505 1004.34,-1499.17 1001.52,-1493.28 998.59,-1487.37"/>
<polygon fill="none" stroke="#63b8ff" points="1016.58,-1536.65 1023.44,-1544.72 1023.11,-1534.13 1016.58,-1536.65"/>
</a>
</g>
</g>
<!-- Node12 -->
<g id="Node000012" class="node">
<title>Node12</title>
<g id="a_Node000012"><a xlink:title=" ">
<polygon fill="white" stroke="transparent" points="1081,-1884 911,-1884 911,-1824 1081,-1824 1081,-1884"/>
<text text-anchor="start" x="916" y="-1872" font-family="Helvetica,sans-Serif" font-size="10.00">shared_ptr&lt; AbstractOdeSystem</text>
<text text-anchor="start" x="961.5" y="-1861" font-family="Helvetica,sans-Serif" font-size="10.00">Information &gt;</text>
<text text-anchor="start" x="994" y="-1846" font-family="Helvetica,sans-Serif" font-size="10.00"> </text>
<text text-anchor="start" x="994" y="-1831" font-family="Helvetica,sans-Serif" font-size="10.00"> </text>
<polygon fill="#bfbfbf" stroke="#bfbfbf" points="911,-1856 911,-1856 1081,-1856 1081,-1856 911,-1856"/>
<polygon fill="#bfbfbf" stroke="#bfbfbf" points="911,-1841 911,-1841 1081,-1841 1081,-1841 911,-1841"/>
<polygon fill="none" stroke="#bfbfbf" points="911,-1824 911,-1884 1081,-1884 1081,-1824 911,-1824"/>
</a>
</g>
</g>
<!-- Node12&#45;&gt;Node11 -->
<g id="edge13_Node000011_Node000012" class="edge">
<title>Node12&#45;&gt;Node11</title>
<g id="a_edge13_Node000011_Node000012"><a xlink:title=" ">
<path fill="none" stroke="#63b8ff" d="M1002.29,-1823.9C1004.49,-1814.6 1007.14,-1804.31 1010,-1795 1010.65,-1792.88 1011.32,-1790.75 1012,-1788.6"/>
<polygon fill="none" stroke="#63b8ff" points="1012.05,-1788.45 1010.1,-1781.51 1015.76,-1777.04 1017.71,-1783.99 1012.05,-1788.45"/>
</a>
</g>
<text text-anchor="middle" x="1051.5" y="-1798" font-family="Helvetica,sans-Serif" font-size="10.00" fill="grey"> #mpSystemInfo</text>
</g>
<!-- Node13 -->
<g id="Node000013" class="node">
<title>Node13</title>
<g id="a_Node000013"><a xlink:title=" ">
<polygon fill="white" stroke="transparent" points="1216.5,-1369 1119.5,-1369 1119.5,-1320 1216.5,-1320 1216.5,-1369"/>
<text text-anchor="start" x="1125" y="-1356.5" font-family="Helvetica,sans-Serif" font-size="10.00">vector&lt; double &gt;</text>
<text text-anchor="start" x="1166.5" y="-1341.5" font-family="Helvetica,sans-Serif" font-size="10.00"> </text>
<text text-anchor="start" x="1166.5" y="-1326.5" font-family="Helvetica,sans-Serif" font-size="10.00"> </text>
<polygon fill="#bfbfbf" stroke="#bfbfbf" points="1120,-1351.5 1120,-1351.5 1217,-1351.5 1217,-1351.5 1120,-1351.5"/>
<polygon fill="#bfbfbf" stroke="#bfbfbf" points="1120,-1336.5 1120,-1336.5 1217,-1336.5 1217,-1336.5 1120,-1336.5"/>
<polygon fill="none" stroke="#bfbfbf" points="1119.5,-1320 1119.5,-1369 1216.5,-1369 1216.5,-1320 1119.5,-1320"/>
</a>
</g>
</g>
<!-- Node13&#45;&gt;Node1 -->
<g id="edge21_Node000001_Node000013" class="edge">
<title>Node13&#45;&gt;Node1</title>
<g id="a_edge21_Node000001_Node000013"><a xlink:title=" ">
<path fill="none" stroke="#63b8ff" d="M1171.5,-1320C1179.41,-1264.75 1198,-1122.25 1198,-1002.5 1198,-1002.5 1198,-1002.5 1198,-377.5 1198,-320.91 1181.91,-260.45 1163.9,-210.5"/>
<polygon fill="none" stroke="#63b8ff" points="1163.82,-210.29 1157.98,-206.04 1159.66,-199.03 1165.49,-203.27 1163.82,-210.29"/>
</a>
</g>
<text text-anchor="middle" x="1248.5" y="-687.5" font-family="Helvetica,sans-Serif" font-size="10.00" fill="grey"> #mInitialConditions</text>
</g>
<!-- Node13&#45;&gt;Node10 -->
<g id="edge14_Node000010_Node000013" class="edge">
<title>Node13&#45;&gt;Node10</title>
<g id="a_edge14_Node000010_Node000013"><a xlink:title=" ">
<path fill="none" stroke="#63b8ff" d="M1154.54,-1319.74C1137.89,-1289.27 1109.94,-1234.36 1095,-1184 1092.29,-1174.88 1089.85,-1165.42 1087.65,-1155.82"/>
<polygon fill="none" stroke="#63b8ff" points="1087.64,-1155.78 1082.45,-1150.77 1085.08,-1144.06 1090.27,-1149.06 1087.64,-1155.78"/>
</a>
</g>
<text text-anchor="middle" x="1139.5" y="-1176" font-family="Helvetica,sans-Serif" font-size="10.00" fill="grey"> #mParameters</text>
<text text-anchor="middle" x="1139.5" y="-1165" font-family="Helvetica,sans-Serif" font-size="10.00" fill="grey">#mStateVariables</text>
</g>
<!-- Node14&#45;&gt;Node10 -->
<g id="edge15_Node000010_Node000014" class="edge">
<title>Node14&#45;&gt;Node10</title>
<g id="a_edge15_Node000010_Node000014"><a xlink:title=" ">
<path fill="none" stroke="orange" d="M905.21,-1191.83C907.29,-1181.56 910.15,-1171.52 914,-1162 927.91,-1127.56 953.22,-1096.42 979.35,-1070.99"/>
<polygon fill="orange" stroke="orange" points="901.76,-1191.28 903.46,-1201.73 908.65,-1192.5 901.76,-1191.28"/>
</a>
</g>
<text text-anchor="middle" x="980.5" y="-1170.5" font-family="Helvetica,sans-Serif" font-size="10.00" fill="grey"> &lt; std::vector&lt; double &gt; &gt;</text>
</g>
<!-- Node15 -->
<g id="Node000015" class="node">
<title>Node15</title>
<g id="a_Node000015"><a xlink:title=" ">
<polygon fill="white" stroke="transparent" points="939,-1685.5 889,-1685.5 889,-1636.5 939,-1636.5 939,-1685.5"/>
<text text-anchor="start" x="894" y="-1673" font-family="Helvetica,sans-Serif" font-size="10.00">VECTOR</text>
<text text-anchor="start" x="912" y="-1658" font-family="Helvetica,sans-Serif" font-size="10.00"> </text>
<text text-anchor="start" x="912" y="-1643" font-family="Helvetica,sans-Serif" font-size="10.00"> </text>
<polygon fill="#bfbfbf" stroke="#bfbfbf" points="889,-1668 889,-1668 939,-1668 939,-1668 889,-1668"/>
<polygon fill="#bfbfbf" stroke="#bfbfbf" points="889,-1653 889,-1653 939,-1653 939,-1653 889,-1653"/>
<polygon fill="none" stroke="#bfbfbf" points="889,-1636.5 889,-1685.5 939,-1685.5 939,-1636.5 889,-1636.5"/>
</a>
</g>
</g>
<!-- Node15&#45;&gt;Node14 -->
<g id="edge17_Node000014_Node000015" class="edge">
<title>Node15&#45;&gt;Node14</title>
<g id="a_edge17_Node000014_Node000015"><a xlink:title=" ">
<path fill="none" stroke="#63b8ff" d="M914,-1636.36C914,-1606.55 914,-1552.7 914,-1499.38"/>
<polygon fill="none" stroke="#63b8ff" points="914,-1499.3 910,-1493.3 914,-1487.3 918,-1493.3 914,-1499.3"/>
</a>
</g>
<text text-anchor="middle" x="958.5" y="-1519" font-family="Helvetica,sans-Serif" font-size="10.00" fill="grey"> #mParameters</text>
<text text-anchor="middle" x="958.5" y="-1508" font-family="Helvetica,sans-Serif" font-size="10.00" fill="grey">#mStateVariables</text>
</g>
<!-- Node16 -->
<g id="Node000016" class="node">
<title>Node16</title>
<g id="a_Node000016"><a xlink:title=" ">
<polygon fill="white" stroke="transparent" points="832.5,-720 699.5,-720 699.5,-660 832.5,-660 832.5,-720"/>
<text text-anchor="start" x="705" y="-708" font-family="Helvetica,sans-Serif" font-size="10.00">shared_ptr&lt; AbstractCell</text>
<text text-anchor="start" x="707" y="-697" font-family="Helvetica,sans-Serif" font-size="10.00">CycleModelOdeSolver &gt;</text>
<text text-anchor="start" x="764.5" y="-682" font-family="Helvetica,sans-Serif" font-size="10.00"> </text>
<text text-anchor="start" x="764.5" y="-667" font-family="Helvetica,sans-Serif" font-size="10.00"> </text>
<polygon fill="#bfbfbf" stroke="#bfbfbf" points="700,-692 700,-692 833,-692 833,-692 700,-692"/>
<polygon fill="#bfbfbf" stroke="#bfbfbf" points="700,-677 700,-677 833,-677 833,-677 700,-677"/>
<polygon fill="none" stroke="#bfbfbf" points="699.5,-660 699.5,-720 832.5,-720 832.5,-660 699.5,-660"/>
</a>
</g>
</g>
<!-- Node16&#45;&gt;Node8 -->
<g id="edge19_Node000008_Node000016" class="edge">
<title>Node16&#45;&gt;Node8</title>
<g id="a_edge19_Node000008_Node000016"><a xlink:title=" ">
<path fill="none" stroke="#63b8ff" d="M764.34,-659.82C763.46,-629.07 764.53,-579.56 777,-539 777.7,-536.71 778.45,-534.41 779.22,-532.12"/>
<polygon fill="none" stroke="#63b8ff" points="779.29,-531.93 777.58,-524.93 783.39,-520.65 785.1,-527.66 779.29,-531.93"/>
</a>
</g>
<text text-anchor="middle" x="816" y="-542" font-family="Helvetica,sans-Serif" font-size="10.00" fill="grey"> #mpOdeSolver</text>
</g>
</g>
</svg>
