<?xml version="1.0" encoding="UTF-8" standalone="no"?>
<!DOCTYPE svg PUBLIC "-//W3C//DTD SVG 1.1//EN"
 "http://www.w3.org/Graphics/SVG/1.1/DTD/svg11.dtd">
<!-- Generated by graphviz version 2.43.0 (0)
 -->
<!-- Title: Node&lt; SPACE_DIM &gt;::ContainingBoundaryElementIterator Pages: 1 -->
<svg width="194pt" height="235pt"
 viewBox="0.00 0.00 194.00 235.00" xmlns="http://www.w3.org/2000/svg" xmlns:xlink="http://www.w3.org/1999/xlink">
<g id="graph0" class="graph" transform="scale(1 1) rotate(0) translate(4 231)">
<title>Node&lt; SPACE_DIM &gt;::ContainingBoundaryElementIterator</title>
<!-- Node1 -->
<g id="Node000001" class="node">
<title>Node1</title>
<g id="a_Node000001"><a xlink:title=" ">
<polygon fill="#999999" stroke="transparent" points="186,-131 0,-131 0,0 186,0 186,-131"/>
<text text-anchor="start" x="5" y="-118.5" font-family="Helvetica,sans-Serif" font-size="10.00">Node&lt; SPACE_DIM &gt;::</text>
<text text-anchor="start" x="5" y="-107.5" font-family="Helvetica,sans-Serif" font-size="10.00">ContainingBoundaryElementIterator</text>
<text text-anchor="start" x="91" y="-92.5" font-family="Helvetica,sans-Serif" font-size="10.00"> </text>
<text text-anchor="start" x="10" y="-77.5" font-family="Helvetica,sans-Serif" font-size="10.00">+</text>
<text text-anchor="start" x="29" y="-77.5" font-family="Helvetica,sans-Serif" font-size="10.00">ContainingBoundaryElement</text>
<text text-anchor="start" x="29" y="-66.5" font-family="Helvetica,sans-Serif" font-size="10.00">Iterator()</text>
<text text-anchor="start" x="10" y="-51.5" font-family="Helvetica,sans-Serif" font-size="10.00">+</text>
<text text-anchor="start" x="29" y="-51.5" font-family="Helvetica,sans-Serif" font-size="10.00">operator*()</text>
<text text-anchor="start" x="10" y="-36.5" font-family="Helvetica,sans-Serif" font-size="10.00">+</text>
<text text-anchor="start" x="29" y="-36.5" font-family="Helvetica,sans-Serif" font-size="10.00">operator!=()</text>
<text text-anchor="start" x="10" y="-21.5" font-family="Helvetica,sans-Serif" font-size="10.00">+</text>
<text text-anchor="start" x="29" y="-21.5" font-family="Helvetica,sans-Serif" font-size="10.00">operator==()</text>
<text text-anchor="start" x="10" y="-6.5" font-family="Helvetica,sans-Serif" font-size="10.00">+</text>
<text text-anchor="start" x="29" y="-6.5" font-family="Helvetica,sans-Serif" font-size="10.00">operator++()</text>
<polygon fill="#666666" stroke="#666666" points="0,-102.5 0,-102.5 186,-102.5 186,-102.5 0,-102.5"/>
<polygon fill="#666666" stroke="#666666" points="0,-87.5 0,-87.5 186,-87.5 186,-87.5 0,-87.5"/>
<polygon fill="none" stroke="#666666" points="0,0 0,-131 186,-131 186,0 0,0"/>
</a>
</g>
</g>
<!-- Node2 -->
<g id="Node000002" class="node">
<title>Node2</title>
<g id="a_Node000002"><a xlink:title=" ">
<polygon fill="white" stroke="transparent" points="132,-227 54,-227 54,-178 132,-178 132,-227"/>
<text text-anchor="start" x="59" y="-214.5" font-family="Helvetica,sans-Serif" font-size="10.00">const_iterator</text>
<text text-anchor="start" x="91" y="-199.5" font-family="Helvetica,sans-Serif" font-size="10.00"> </text>
<text text-anchor="start" x="91" y="-184.5" font-family="Helvetica,sans-Serif" font-size="10.00"> </text>
<polygon fill="#bfbfbf" stroke="#bfbfbf" points="54,-209.5 54,-209.5 132,-209.5 132,-209.5 54,-209.5"/>
<polygon fill="#bfbfbf" stroke="#bfbfbf" points="54,-194.5 54,-194.5 132,-194.5 132,-194.5 54,-194.5"/>
<polygon fill="none" stroke="#bfbfbf" points="54,-178 54,-227 132,-227 132,-178 54,-178"/>
</a>
</g>
</g>
<!-- Node2&#45;&gt;Node1 -->
<g id="edge1_Node000001_Node000002" class="edge">
<title>Node2&#45;&gt;Node1</title>
<g id="a_edge1_Node000001_Node000002"><a xlink:title=" ">
<path fill="none" stroke="#63b8ff" d="M93,-177.98C93,-168.08 93,-155.94 93,-143.36"/>
<polygon fill="none" stroke="#63b8ff" points="93,-143.21 89,-137.21 93,-131.21 97,-137.21 93,-143.21"/>
</a>
</g>
<text text-anchor="middle" x="133" y="-152" font-family="Helvetica,sans-Serif" font-size="10.00" fill="grey"> &#45;mIndexIterator</text>
</g>
</g>
</svg>
