<?xml version="1.0" encoding="UTF-8" standalone="no"?>
<!DOCTYPE svg PUBLIC "-//W3C//DTD SVG 1.1//EN"
 "http://www.w3.org/Graphics/SVG/1.1/DTD/svg11.dtd">
<!-- Generated by graphviz version 2.43.0 (0)
 -->
<!-- Title: VertexElement&lt; ELEMENT_DIM, SPACE_DIM &gt; Pages: 1 -->
<svg width="705pt" height="876pt"
 viewBox="0.00 0.00 704.50 876.00" xmlns="http://www.w3.org/2000/svg" xmlns:xlink="http://www.w3.org/1999/xlink">
<g id="graph0" class="graph" transform="scale(1 1) rotate(0) translate(4 872)">
<title>VertexElement&lt; ELEMENT_DIM, SPACE_DIM &gt;</title>
<!-- Node1 -->
<g id="Node000001" class="node">
<title>Node1</title>
<g id="a_Node000001"><a xlink:title=" ">
<polygon fill="#999999" stroke="transparent" points="604,-195 444,-195 444,0 604,0 604,-195"/>
<text text-anchor="start" x="459" y="-182.5" font-family="Helvetica,sans-Serif" font-size="10.00">VertexElement&lt; ELEMENT</text>
<text text-anchor="start" x="475" y="-171.5" font-family="Helvetica,sans-Serif" font-size="10.00">_DIM, SPACE_DIM &gt;</text>
<text text-anchor="start" x="522" y="-156.5" font-family="Helvetica,sans-Serif" font-size="10.00"> </text>
<text text-anchor="start" x="448" y="-141.5" font-family="Helvetica,sans-Serif" font-size="10.00">+</text>
<text text-anchor="start" x="461" y="-141.5" font-family="Helvetica,sans-Serif" font-size="10.00">VertexElement()</text>
<text text-anchor="start" x="448" y="-126.5" font-family="Helvetica,sans-Serif" font-size="10.00">+</text>
<text text-anchor="start" x="461" y="-126.5" font-family="Helvetica,sans-Serif" font-size="10.00">VertexElement()</text>
<text text-anchor="start" x="448" y="-111.5" font-family="Helvetica,sans-Serif" font-size="10.00">+</text>
<text text-anchor="start" x="461" y="-111.5" font-family="Helvetica,sans-Serif" font-size="10.00">VertexElement()</text>
<text text-anchor="start" x="448" y="-96.5" font-family="Helvetica,sans-Serif" font-size="10.00">+</text>
<text text-anchor="start" x="461" y="-96.5" font-family="Helvetica,sans-Serif" font-size="10.00">VertexElement()</text>
<text text-anchor="start" x="448" y="-81.5" font-family="Helvetica,sans-Serif" font-size="10.00">+</text>
<text text-anchor="start" x="461" y="-81.5" font-family="Helvetica,sans-Serif" font-size="10.00">~VertexElement()</text>
<text text-anchor="start" x="448" y="-66.5" font-family="Helvetica,sans-Serif" font-size="10.00">+</text>
<text text-anchor="start" x="461" y="-66.5" font-family="Helvetica,sans-Serif" font-size="10.00">GetNumFaces()</text>
<text text-anchor="start" x="448" y="-51.5" font-family="Helvetica,sans-Serif" font-size="10.00">+</text>
<text text-anchor="start" x="461" y="-51.5" font-family="Helvetica,sans-Serif" font-size="10.00">AddFace()</text>
<text text-anchor="start" x="448" y="-36.5" font-family="Helvetica,sans-Serif" font-size="10.00">+</text>
<text text-anchor="start" x="461" y="-36.5" font-family="Helvetica,sans-Serif" font-size="10.00">GetFace()</text>
<text text-anchor="start" x="448" y="-21.5" font-family="Helvetica,sans-Serif" font-size="10.00">+</text>
<text text-anchor="start" x="461" y="-21.5" font-family="Helvetica,sans-Serif" font-size="10.00">FaceIsOrientatedClockwise()</text>
<text text-anchor="start" x="450.5" y="-6.5" font-family="Helvetica,sans-Serif" font-size="10.00">&#45;</text>
<text text-anchor="start" x="461" y="-6.5" font-family="Helvetica,sans-Serif" font-size="10.00">serialize()</text>
<polygon fill="#666666" stroke="#666666" points="444,-166.5 444,-166.5 604,-166.5 604,-166.5 444,-166.5"/>
<polygon fill="#666666" stroke="#666666" points="444,-151.5 444,-151.5 604,-151.5 604,-151.5 444,-151.5"/>
<polygon fill="none" stroke="#666666" points="444,0 444,-195 604,-195 604,0 444,0"/>
</a>
</g>
</g>
<!-- Node2 -->
<g id="Node000002" class="node">
<title>Node2</title>
<g id="a_Node000002"><a xlink:href="classMutableElement.html" target="_top" xlink:title=" ">
<polygon fill="white" stroke="transparent" points="436,-467 288,-467 288,-242 436,-242 436,-467"/>
<text text-anchor="start" x="293" y="-454.5" font-family="Helvetica,sans-Serif" font-size="10.00">MutableElement&lt; ELEMENT</text>
<text text-anchor="start" x="313" y="-443.5" font-family="Helvetica,sans-Serif" font-size="10.00">_DIM, SPACE_DIM &gt;</text>
<text text-anchor="start" x="360" y="-428.5" font-family="Helvetica,sans-Serif" font-size="10.00"> </text>
<text text-anchor="start" x="298" y="-413.5" font-family="Helvetica,sans-Serif" font-size="10.00">+</text>
<text text-anchor="start" x="317" y="-413.5" font-family="Helvetica,sans-Serif" font-size="10.00">MutableElement()</text>
<text text-anchor="start" x="298" y="-398.5" font-family="Helvetica,sans-Serif" font-size="10.00">+</text>
<text text-anchor="start" x="317" y="-398.5" font-family="Helvetica,sans-Serif" font-size="10.00">MutableElement()</text>
<text text-anchor="start" x="298" y="-383.5" font-family="Helvetica,sans-Serif" font-size="10.00">+</text>
<text text-anchor="start" x="317" y="-383.5" font-family="Helvetica,sans-Serif" font-size="10.00">~MutableElement()</text>
<text text-anchor="start" x="298" y="-368.5" font-family="Helvetica,sans-Serif" font-size="10.00">+</text>
<text text-anchor="start" x="317" y="-368.5" font-family="Helvetica,sans-Serif" font-size="10.00">RegisterWithNodes()</text>
<text text-anchor="start" x="298" y="-353.5" font-family="Helvetica,sans-Serif" font-size="10.00">+</text>
<text text-anchor="start" x="317" y="-353.5" font-family="Helvetica,sans-Serif" font-size="10.00">MarkAsDeleted()</text>
<text text-anchor="start" x="298" y="-338.5" font-family="Helvetica,sans-Serif" font-size="10.00">+</text>
<text text-anchor="start" x="317" y="-338.5" font-family="Helvetica,sans-Serif" font-size="10.00">ResetIndex()</text>
<text text-anchor="start" x="298" y="-323.5" font-family="Helvetica,sans-Serif" font-size="10.00">+</text>
<text text-anchor="start" x="317" y="-323.5" font-family="Helvetica,sans-Serif" font-size="10.00">UpdateNode()</text>
<text text-anchor="start" x="298" y="-308.5" font-family="Helvetica,sans-Serif" font-size="10.00">+</text>
<text text-anchor="start" x="317" y="-308.5" font-family="Helvetica,sans-Serif" font-size="10.00">DeleteNode()</text>
<text text-anchor="start" x="298" y="-293.5" font-family="Helvetica,sans-Serif" font-size="10.00">+</text>
<text text-anchor="start" x="317" y="-293.5" font-family="Helvetica,sans-Serif" font-size="10.00">AddNode()</text>
<text text-anchor="start" x="298" y="-278.5" font-family="Helvetica,sans-Serif" font-size="10.00">+</text>
<text text-anchor="start" x="317" y="-278.5" font-family="Helvetica,sans-Serif" font-size="10.00">GetNodeLocalIndex()</text>
<text text-anchor="start" x="317" y="-263.5" font-family="Helvetica,sans-Serif" font-size="10.00">and 12 more...</text>
<text text-anchor="start" x="300.5" y="-248.5" font-family="Helvetica,sans-Serif" font-size="10.00">&#45;</text>
<text text-anchor="start" x="317" y="-248.5" font-family="Helvetica,sans-Serif" font-size="10.00">serialize()</text>
<polygon fill="#666666" stroke="#666666" points="288,-438.5 288,-438.5 436,-438.5 436,-438.5 288,-438.5"/>
<polygon fill="#666666" stroke="#666666" points="288,-423.5 288,-423.5 436,-423.5 436,-423.5 288,-423.5"/>
<polygon fill="none" stroke="#666666" points="288,-242 288,-467 436,-467 436,-242 288,-242"/>
</a>
</g>
</g>
<!-- Node2&#45;&gt;Node1 -->
<g id="edge1_Node000001_Node000002" class="edge">
<title>Node2&#45;&gt;Node1</title>
<g id="a_edge1_Node000001_Node000002"><a xlink:title=" ">
<path fill="none" stroke="#63b8ff" d="M438.62,-232.89C446.68,-220.21 454.79,-207.44 462.64,-195.08"/>
<polygon fill="none" stroke="#63b8ff" points="435.46,-231.34 433.06,-241.65 441.37,-235.09 435.46,-231.34"/>
</a>
</g>
</g>
<!-- Node3 -->
<g id="Node000003" class="node">
<title>Node3</title>
<g id="a_Node000003"><a xlink:href="classAbstractElement.html" target="_top" xlink:title=" ">
<polygon fill="white" stroke="transparent" points="284,-739 120,-739 120,-514 284,-514 284,-739"/>
<text text-anchor="start" x="132.5" y="-726.5" font-family="Helvetica,sans-Serif" font-size="10.00">AbstractElement&lt; ELEMENT</text>
<text text-anchor="start" x="153" y="-715.5" font-family="Helvetica,sans-Serif" font-size="10.00">_DIM, SPACE_DIM &gt;</text>
<text text-anchor="start" x="200" y="-700.5" font-family="Helvetica,sans-Serif" font-size="10.00"> </text>
<text text-anchor="start" x="124" y="-685.5" font-family="Helvetica,sans-Serif" font-size="10.00">+</text>
<text text-anchor="start" x="137" y="-685.5" font-family="Helvetica,sans-Serif" font-size="10.00">AbstractElement()</text>
<text text-anchor="start" x="124" y="-670.5" font-family="Helvetica,sans-Serif" font-size="10.00">+</text>
<text text-anchor="start" x="137" y="-670.5" font-family="Helvetica,sans-Serif" font-size="10.00">AbstractElement()</text>
<text text-anchor="start" x="124" y="-655.5" font-family="Helvetica,sans-Serif" font-size="10.00">+</text>
<text text-anchor="start" x="137" y="-655.5" font-family="Helvetica,sans-Serif" font-size="10.00">~AbstractElement()</text>
<text text-anchor="start" x="124" y="-640.5" font-family="Helvetica,sans-Serif" font-size="10.00">+</text>
<text text-anchor="start" x="137" y="-640.5" font-family="Helvetica,sans-Serif" font-size="10.00">UpdateNode()</text>
<text text-anchor="start" x="124" y="-625.5" font-family="Helvetica,sans-Serif" font-size="10.00">+</text>
<text text-anchor="start" x="137" y="-625.5" font-family="Helvetica,sans-Serif" font-size="10.00">ReplaceNode()</text>
<text text-anchor="start" x="124" y="-610.5" font-family="Helvetica,sans-Serif" font-size="10.00">+</text>
<text text-anchor="start" x="137" y="-610.5" font-family="Helvetica,sans-Serif" font-size="10.00">MarkAsDeleted()</text>
<text text-anchor="start" x="124" y="-595.5" font-family="Helvetica,sans-Serif" font-size="10.00">+</text>
<text text-anchor="start" x="137" y="-595.5" font-family="Helvetica,sans-Serif" font-size="10.00">RegisterWithNodes()</text>
<text text-anchor="start" x="124" y="-580.5" font-family="Helvetica,sans-Serif" font-size="10.00">+</text>
<text text-anchor="start" x="137" y="-580.5" font-family="Helvetica,sans-Serif" font-size="10.00">GetNodeLocation()</text>
<text text-anchor="start" x="124" y="-565.5" font-family="Helvetica,sans-Serif" font-size="10.00">+</text>
<text text-anchor="start" x="137" y="-565.5" font-family="Helvetica,sans-Serif" font-size="10.00">GetNodeLocation()</text>
<text text-anchor="start" x="124" y="-550.5" font-family="Helvetica,sans-Serif" font-size="10.00">+</text>
<text text-anchor="start" x="137" y="-550.5" font-family="Helvetica,sans-Serif" font-size="10.00">GetNodeGlobalIndex()</text>
<text text-anchor="start" x="137" y="-535.5" font-family="Helvetica,sans-Serif" font-size="10.00">and 14 more...</text>
<text text-anchor="start" x="124" y="-520.5" font-family="Helvetica,sans-Serif" font-size="10.00">#</text>
<text text-anchor="start" x="137" y="-520.5" font-family="Helvetica,sans-Serif" font-size="10.00">ConstructElementAttributes()</text>
<polygon fill="#666666" stroke="#666666" points="120,-710.5 120,-710.5 284,-710.5 284,-710.5 120,-710.5"/>
<polygon fill="#666666" stroke="#666666" points="120,-695.5 120,-695.5 284,-695.5 284,-695.5 120,-695.5"/>
<polygon fill="none" stroke="#666666" points="120,-514 120,-739 284,-739 284,-514 120,-514"/>
</a>
</g>
</g>
<!-- Node3&#45;&gt;Node2 -->
<g id="edge2_Node000002_Node000003" class="edge">
<title>Node3&#45;&gt;Node2</title>
<g id="a_edge2_Node000002_Node000003"><a xlink:title=" ">
<path fill="none" stroke="#63b8ff" d="M273.38,-505.04C280.85,-492.45 288.41,-479.68 295.82,-467.18"/>
<polygon fill="none" stroke="#63b8ff" points="270.32,-503.34 268.23,-513.73 276.34,-506.91 270.32,-503.34"/>
</a>
</g>
</g>
<!-- Node4 -->
<g id="Node000004" class="node">
<title>Node4</title>
<g id="a_Node000004"><a xlink:title=" ">
<polygon fill="white" stroke="transparent" points="120,-862.5 0,-862.5 0,-802.5 120,-802.5 120,-862.5"/>
<text text-anchor="start" x="5" y="-850.5" font-family="Helvetica,sans-Serif" font-size="10.00">vector&lt; Node&lt; SPACE</text>
<text text-anchor="start" x="32" y="-839.5" font-family="Helvetica,sans-Serif" font-size="10.00">_DIM &gt; * &gt;</text>
<text text-anchor="start" x="58" y="-824.5" font-family="Helvetica,sans-Serif" font-size="10.00"> </text>
<text text-anchor="start" x="58" y="-809.5" font-family="Helvetica,sans-Serif" font-size="10.00"> </text>
<polygon fill="#bfbfbf" stroke="#bfbfbf" points="0,-834.5 0,-834.5 120,-834.5 120,-834.5 0,-834.5"/>
<polygon fill="#bfbfbf" stroke="#bfbfbf" points="0,-819.5 0,-819.5 120,-819.5 120,-819.5 0,-819.5"/>
<polygon fill="none" stroke="#bfbfbf" points="0,-802.5 0,-862.5 120,-862.5 120,-802.5 0,-802.5"/>
</a>
</g>
</g>
<!-- Node4&#45;&gt;Node3 -->
<g id="edge3_Node000003_Node000004" class="edge">
<title>Node4&#45;&gt;Node3</title>
<g id="a_edge3_Node000003_Node000004"><a xlink:title=" ">
<path fill="none" stroke="#63b8ff" d="M79.29,-802.37C88.5,-788.56 99.73,-771.87 110,-757 111.75,-754.47 113.52,-751.91 115.31,-749.34"/>
<polygon fill="none" stroke="#63b8ff" points="115.42,-749.18 115.56,-741.97 122.28,-739.33 122.13,-746.54 115.42,-749.18"/>
</a>
</g>
<text text-anchor="middle" x="136" y="-765.5" font-family="Helvetica,sans-Serif" font-size="10.00" fill="grey"> #mNodes</text>
</g>
<!-- Node5 -->
<g id="Node000005" class="node">
<title>Node5</title>
<g id="a_Node000005"><a xlink:href="classunsigned.html" target="_top" xlink:title=" ">
<polygon fill="white" stroke="transparent" points="193.5,-857 138.5,-857 138.5,-808 193.5,-808 193.5,-857"/>
<text text-anchor="start" x="144" y="-844.5" font-family="Helvetica,sans-Serif" font-size="10.00">unsigned</text>
<text text-anchor="start" x="164.5" y="-829.5" font-family="Helvetica,sans-Serif" font-size="10.00"> </text>
<text text-anchor="start" x="164.5" y="-814.5" font-family="Helvetica,sans-Serif" font-size="10.00"> </text>
<polygon fill="#bfbfbf" stroke="#bfbfbf" points="139,-839.5 139,-839.5 194,-839.5 194,-839.5 139,-839.5"/>
<polygon fill="#bfbfbf" stroke="#bfbfbf" points="139,-824.5 139,-824.5 194,-824.5 194,-824.5 139,-824.5"/>
<polygon fill="none" stroke="#bfbfbf" points="138.5,-808 138.5,-857 193.5,-857 193.5,-808 138.5,-808"/>
</a>
</g>
</g>
<!-- Node5&#45;&gt;Node3 -->
<g id="edge4_Node000003_Node000005" class="edge">
<title>Node5&#45;&gt;Node3</title>
<g id="a_edge4_Node000003_Node000005"><a xlink:title=" ">
<path fill="none" stroke="#63b8ff" d="M164.82,-807.9C164.45,-793.19 164.64,-773.91 167,-757 167.27,-755.07 167.56,-753.13 167.87,-751.18"/>
<polygon fill="none" stroke="#63b8ff" points="167.91,-750.92 165,-744.32 169.97,-739.1 172.88,-745.69 167.91,-750.92"/>
</a>
</g>
<text text-anchor="middle" x="191.5" y="-765.5" font-family="Helvetica,sans-Serif" font-size="10.00" fill="grey"> #mIndex</text>
</g>
<!-- Node6 -->
<g id="Node000006" class="node">
<title>Node6</title>
<g id="a_Node000006"><a xlink:href="classbool.html" target="_top" xlink:title=" ">
<polygon fill="white" stroke="transparent" points="254,-857 222,-857 222,-808 254,-808 254,-857"/>
<text text-anchor="start" x="227" y="-844.5" font-family="Helvetica,sans-Serif" font-size="10.00">bool</text>
<text text-anchor="start" x="236" y="-829.5" font-family="Helvetica,sans-Serif" font-size="10.00"> </text>
<text text-anchor="start" x="236" y="-814.5" font-family="Helvetica,sans-Serif" font-size="10.00"> </text>
<polygon fill="#bfbfbf" stroke="#bfbfbf" points="222,-839.5 222,-839.5 254,-839.5 254,-839.5 222,-839.5"/>
<polygon fill="#bfbfbf" stroke="#bfbfbf" points="222,-824.5 222,-824.5 254,-824.5 254,-824.5 222,-824.5"/>
<polygon fill="none" stroke="#bfbfbf" points="222,-808 222,-857 254,-857 254,-808 222,-808"/>
</a>
</g>
</g>
<!-- Node6&#45;&gt;Node3 -->
<g id="edge5_Node000003_Node000006" class="edge">
<title>Node6&#45;&gt;Node3</title>
<g id="a_edge5_Node000003_Node000006"><a xlink:title=" ">
<path fill="none" stroke="#63b8ff" d="M233.8,-807.7C231.2,-792.98 227.65,-772.83 223.85,-751.32"/>
<polygon fill="none" stroke="#63b8ff" points="223.81,-751.07 218.82,-745.86 221.72,-739.25 226.7,-744.47 223.81,-751.07"/>
</a>
</g>
<text text-anchor="middle" x="264" y="-771" font-family="Helvetica,sans-Serif" font-size="10.00" fill="grey"> #mIsDeleted</text>
<text text-anchor="middle" x="264" y="-760" font-family="Helvetica,sans-Serif" font-size="10.00" fill="grey">#mOwnership</text>
</g>
<!-- Node7 -->
<g id="Node000007" class="node">
<title>Node7</title>
<g id="a_Node000007"><a xlink:title=" ">
<polygon fill="white" stroke="transparent" points="393.5,-868 272.5,-868 272.5,-797 393.5,-797 393.5,-868"/>
<text text-anchor="start" x="278" y="-855.5" font-family="Helvetica,sans-Serif" font-size="10.00">ElementAttributes&lt;</text>
<text text-anchor="start" x="278" y="-844.5" font-family="Helvetica,sans-Serif" font-size="10.00"> ELEMENT_DIM, SPACE</text>
<text text-anchor="start" x="311" y="-833.5" font-family="Helvetica,sans-Serif" font-size="10.00">_DIM &gt; *</text>
<text text-anchor="start" x="331.5" y="-818.5" font-family="Helvetica,sans-Serif" font-size="10.00"> </text>
<text text-anchor="start" x="331.5" y="-803.5" font-family="Helvetica,sans-Serif" font-size="10.00"> </text>
<polygon fill="#bfbfbf" stroke="#bfbfbf" points="273,-828.5 273,-828.5 394,-828.5 394,-828.5 273,-828.5"/>
<polygon fill="#bfbfbf" stroke="#bfbfbf" points="273,-813.5 273,-813.5 394,-813.5 394,-813.5 273,-813.5"/>
<polygon fill="none" stroke="#bfbfbf" points="272.5,-797 272.5,-868 393.5,-868 393.5,-797 272.5,-797"/>
</a>
</g>
</g>
<!-- Node7&#45;&gt;Node3 -->
<g id="edge6_Node000003_Node000007" class="edge">
<title>Node7&#45;&gt;Node3</title>
<g id="a_edge6_Node000003_Node000007"><a xlink:title=" ">
<path fill="none" stroke="#63b8ff" d="M321.34,-796.81C316.42,-783.94 310.17,-769.44 303,-757 299.26,-750.51 295.23,-744 291.01,-737.52"/>
<polygon fill="none" stroke="#63b8ff" points="290.9,-737.36 284.23,-734.61 284.22,-727.4 290.88,-730.15 290.9,-737.36"/>
</a>
</g>
<text text-anchor="middle" x="372" y="-765.5" font-family="Helvetica,sans-Serif" font-size="10.00" fill="grey"> #mpElementAttributes</text>
</g>
<!-- Node8 -->
<g id="Node000008" class="node">
<title>Node8</title>
<g id="a_Node000008"><a xlink:title=" ">
<polygon fill="white" stroke="transparent" points="421.5,-656.5 302.5,-656.5 302.5,-596.5 421.5,-596.5 421.5,-656.5"/>
<text text-anchor="start" x="308" y="-644.5" font-family="Helvetica,sans-Serif" font-size="10.00">vector&lt; Edge&lt; SPACE</text>
<text text-anchor="start" x="334.5" y="-633.5" font-family="Helvetica,sans-Serif" font-size="10.00">_DIM &gt; * &gt;</text>
<text text-anchor="start" x="360.5" y="-618.5" font-family="Helvetica,sans-Serif" font-size="10.00"> </text>
<text text-anchor="start" x="360.5" y="-603.5" font-family="Helvetica,sans-Serif" font-size="10.00"> </text>
<polygon fill="#bfbfbf" stroke="#bfbfbf" points="303,-628.5 303,-628.5 422,-628.5 422,-628.5 303,-628.5"/>
<polygon fill="#bfbfbf" stroke="#bfbfbf" points="303,-613.5 303,-613.5 422,-613.5 422,-613.5 303,-613.5"/>
<polygon fill="none" stroke="#bfbfbf" points="302.5,-596.5 302.5,-656.5 421.5,-656.5 421.5,-596.5 302.5,-596.5"/>
</a>
</g>
</g>
<!-- Node8&#45;&gt;Node2 -->
<g id="edge7_Node000002_Node000008" class="edge">
<title>Node8&#45;&gt;Node2</title>
<g id="a_edge7_Node000002_Node000008"><a xlink:title=" ">
<path fill="none" stroke="#63b8ff" d="M362,-596.35C362,-567.99 362,-522.94 362,-479.43"/>
<polygon fill="none" stroke="#63b8ff" points="362,-479.22 358,-473.22 362,-467.22 366,-473.22 362,-479.22"/>
</a>
</g>
<text text-anchor="middle" x="387.5" y="-488" font-family="Helvetica,sans-Serif" font-size="10.00" fill="grey"> #mEdges</text>
</g>
<!-- Node9 -->
<g id="Node000009" class="node">
<title>Node9</title>
<g id="a_Node000009"><a xlink:href="classEdgeHelper_3_01SPACE__DIM_01_4.html" target="_top" xlink:title=" ">
<polygon fill="white" stroke="transparent" points="584.5,-651 439.5,-651 439.5,-602 584.5,-602 584.5,-651"/>
<text text-anchor="start" x="445" y="-638.5" font-family="Helvetica,sans-Serif" font-size="10.00">EdgeHelper&lt; SPACE_DIM &gt;</text>
<text text-anchor="start" x="510.5" y="-623.5" font-family="Helvetica,sans-Serif" font-size="10.00"> </text>
<text text-anchor="start" x="510.5" y="-608.5" font-family="Helvetica,sans-Serif" font-size="10.00"> </text>
<polygon fill="#bfbfbf" stroke="#bfbfbf" points="440,-633.5 440,-633.5 585,-633.5 585,-633.5 440,-633.5"/>
<polygon fill="#bfbfbf" stroke="#bfbfbf" points="440,-618.5 440,-618.5 585,-618.5 585,-618.5 440,-618.5"/>
<polygon fill="none" stroke="#bfbfbf" points="439.5,-602 439.5,-651 584.5,-651 584.5,-602 439.5,-602"/>
</a>
</g>
</g>
<!-- Node9&#45;&gt;Node2 -->
<g id="edge8_Node000002_Node000009" class="edge">
<title>Node9&#45;&gt;Node2</title>
<g id="a_edge8_Node000002_Node000009"><a xlink:title=" ">
<path fill="none" stroke="#63b8ff" d="M498.69,-601.54C483.06,-573.4 455.95,-524.62 429.98,-477.87"/>
<polygon fill="none" stroke="#63b8ff" points="429.94,-477.8 423.53,-474.5 424.12,-467.31 430.53,-470.61 429.94,-477.8"/>
</a>
</g>
<text text-anchor="middle" x="476" y="-488" font-family="Helvetica,sans-Serif" font-size="10.00" fill="grey"> #mEdgeHelper</text>
</g>
<!-- Node10 -->
<g id="Node000010" class="node">
<title>Node10</title>
<g id="a_Node000010"><a xlink:title=" ">
<polygon fill="white" stroke="transparent" points="593.5,-390 454.5,-390 454.5,-319 593.5,-319 593.5,-390"/>
<text text-anchor="start" x="460" y="-377.5" font-family="Helvetica,sans-Serif" font-size="10.00">vector&lt; VertexElement</text>
<text text-anchor="start" x="460" y="-366.5" font-family="Helvetica,sans-Serif" font-size="10.00">&lt; ELEMENT_DIM&#45;1, SPACE</text>
<text text-anchor="start" x="496.5" y="-355.5" font-family="Helvetica,sans-Serif" font-size="10.00">_DIM &gt; * &gt;</text>
<text text-anchor="start" x="522.5" y="-340.5" font-family="Helvetica,sans-Serif" font-size="10.00"> </text>
<text text-anchor="start" x="522.5" y="-325.5" font-family="Helvetica,sans-Serif" font-size="10.00"> </text>
<polygon fill="#bfbfbf" stroke="#bfbfbf" points="455,-350.5 455,-350.5 594,-350.5 594,-350.5 455,-350.5"/>
<polygon fill="#bfbfbf" stroke="#bfbfbf" points="455,-335.5 455,-335.5 594,-335.5 594,-335.5 455,-335.5"/>
<polygon fill="none" stroke="#bfbfbf" points="454.5,-319 454.5,-390 593.5,-390 593.5,-319 454.5,-319"/>
</a>
</g>
</g>
<!-- Node10&#45;&gt;Node1 -->
<g id="edge9_Node000001_Node000010" class="edge">
<title>Node10&#45;&gt;Node1</title>
<g id="a_edge9_Node000001_Node000010"><a xlink:title=" ">
<path fill="none" stroke="#63b8ff" d="M524,-318.84C524,-290.03 524,-247.39 524,-207.28"/>
<polygon fill="none" stroke="#63b8ff" points="524,-207.21 520,-201.21 524,-195.21 528,-201.21 524,-207.21"/>
</a>
</g>
<text text-anchor="middle" x="546" y="-216" font-family="Helvetica,sans-Serif" font-size="10.00" fill="grey"> &#45;mFaces</text>
</g>
<!-- Node11 -->
<g id="Node000011" class="node">
<title>Node11</title>
<g id="a_Node000011"><a xlink:title=" ">
<polygon fill="white" stroke="transparent" points="696.5,-379 611.5,-379 611.5,-330 696.5,-330 696.5,-379"/>
<text text-anchor="start" x="617" y="-366.5" font-family="Helvetica,sans-Serif" font-size="10.00">vector&lt; bool &gt;</text>
<text text-anchor="start" x="652.5" y="-351.5" font-family="Helvetica,sans-Serif" font-size="10.00"> </text>
<text text-anchor="start" x="652.5" y="-336.5" font-family="Helvetica,sans-Serif" font-size="10.00"> </text>
<polygon fill="#bfbfbf" stroke="#bfbfbf" points="612,-361.5 612,-361.5 697,-361.5 697,-361.5 612,-361.5"/>
<polygon fill="#bfbfbf" stroke="#bfbfbf" points="612,-346.5 612,-346.5 697,-346.5 697,-346.5 612,-346.5"/>
<polygon fill="none" stroke="#bfbfbf" points="611.5,-330 611.5,-379 696.5,-379 696.5,-330 611.5,-330"/>
</a>
</g>
</g>
<!-- Node11&#45;&gt;Node1 -->
<g id="edge10_Node000001_Node000011" class="edge">
<title>Node11&#45;&gt;Node1</title>
<g id="a_edge10_Node000001_Node000011"><a xlink:title=" ">
<path fill="none" stroke="#63b8ff" d="M643.76,-329.77C633.8,-307.03 618.02,-271.85 603,-242 597.07,-230.21 590.69,-217.98 584.23,-205.86"/>
<polygon fill="none" stroke="#63b8ff" points="584.2,-205.81 577.84,-202.42 578.53,-195.24 584.89,-198.64 584.2,-205.81"/>
</a>
</g>
<text text-anchor="middle" x="630.5" y="-216" font-family="Helvetica,sans-Serif" font-size="10.00" fill="grey"> &#45;mOrientations</text>
</g>
</g>
</svg>
