<?xml version="1.0" encoding="UTF-8" standalone="no"?>
<!DOCTYPE svg PUBLIC "-//W3C//DTD SVG 1.1//EN"
 "http://www.w3.org/Graphics/SVG/1.1/DTD/svg11.dtd">
<!-- Generated by graphviz version 2.43.0 (0)
 -->
<!-- Title: AbstractHdf5Converter&lt; ELEMENT_DIM, SPACE_DIM &gt; Pages: 1 -->
<svg width="1133pt" height="597pt"
 viewBox="0.00 0.00 1132.50 597.00" xmlns="http://www.w3.org/2000/svg" xmlns:xlink="http://www.w3.org/1999/xlink">
<g id="graph0" class="graph" transform="scale(1 1) rotate(0) translate(4 593)">
<title>AbstractHdf5Converter&lt; ELEMENT_DIM, SPACE_DIM &gt;</title>
<!-- Node1 -->
<g id="Node000001" class="node">
<title>Node1</title>
<g id="a_Node000001"><a xlink:title=" ">
<polygon fill="#999999" stroke="transparent" points="728.5,-135 563.5,-135 563.5,0 728.5,0 728.5,-135"/>
<text text-anchor="start" x="569" y="-122.5" font-family="Helvetica,sans-Serif" font-size="10.00">AbstractHdf5Converter</text>
<text text-anchor="start" x="569" y="-111.5" font-family="Helvetica,sans-Serif" font-size="10.00">&lt; ELEMENT_DIM, SPACE_DIM &gt;</text>
<text text-anchor="start" x="644.5" y="-96.5" font-family="Helvetica,sans-Serif" font-size="10.00"> </text>
<text text-anchor="start" x="572" y="-81.5" font-family="Helvetica,sans-Serif" font-size="10.00">+</text>
<text text-anchor="start" x="589" y="-81.5" font-family="Helvetica,sans-Serif" font-size="10.00">AbstractHdf5Converter()</text>
<text text-anchor="start" x="572" y="-66.5" font-family="Helvetica,sans-Serif" font-size="10.00">+</text>
<text text-anchor="start" x="589" y="-66.5" font-family="Helvetica,sans-Serif" font-size="10.00">WriteInfoFile()</text>
<text text-anchor="start" x="572" y="-51.5" font-family="Helvetica,sans-Serif" font-size="10.00">+</text>
<text text-anchor="start" x="589" y="-51.5" font-family="Helvetica,sans-Serif" font-size="10.00">~AbstractHdf5Converter()</text>
<text text-anchor="start" x="572" y="-36.5" font-family="Helvetica,sans-Serif" font-size="10.00">+</text>
<text text-anchor="start" x="589" y="-36.5" font-family="Helvetica,sans-Serif" font-size="10.00">GetSubdirectory()</text>
<text text-anchor="start" x="572" y="-21.5" font-family="Helvetica,sans-Serif" font-size="10.00">#</text>
<text text-anchor="start" x="589" y="-21.5" font-family="Helvetica,sans-Serif" font-size="10.00">MoveOntoNextDataset()</text>
<text text-anchor="start" x="574.5" y="-6.5" font-family="Helvetica,sans-Serif" font-size="10.00">&#45;</text>
<text text-anchor="start" x="589" y="-6.5" font-family="Helvetica,sans-Serif" font-size="10.00">GenerateListOfDatasets()</text>
<polygon fill="#666666" stroke="#666666" points="564,-106.5 564,-106.5 729,-106.5 729,-106.5 564,-106.5"/>
<polygon fill="#666666" stroke="#666666" points="564,-91.5 564,-91.5 729,-91.5 729,-91.5 564,-91.5"/>
<polygon fill="none" stroke="#666666" points="563.5,0 563.5,-135 728.5,-135 728.5,0 563.5,0"/>
</a>
</g>
</g>
<!-- Node2 -->
<g id="Node000002" class="node">
<title>Node2</title>
<g id="a_Node000002"><a xlink:href="classFileFinder.html" target="_top" xlink:title=" ">
<polygon fill="white" stroke="transparent" points="545,-493 359,-493 359,-204 545,-204 545,-493"/>
<text text-anchor="start" x="428" y="-480.5" font-family="Helvetica,sans-Serif" font-size="10.00">FileFinder</text>
<text text-anchor="start" x="450" y="-465.5" font-family="Helvetica,sans-Serif" font-size="10.00"> </text>
<text text-anchor="start" x="363" y="-450.5" font-family="Helvetica,sans-Serif" font-size="10.00">+</text>
<text text-anchor="start" x="376" y="-450.5" font-family="Helvetica,sans-Serif" font-size="10.00">FileFinder()</text>
<text text-anchor="start" x="363" y="-435.5" font-family="Helvetica,sans-Serif" font-size="10.00">+</text>
<text text-anchor="start" x="376" y="-435.5" font-family="Helvetica,sans-Serif" font-size="10.00">FileFinder()</text>
<text text-anchor="start" x="363" y="-420.5" font-family="Helvetica,sans-Serif" font-size="10.00">+</text>
<text text-anchor="start" x="376" y="-420.5" font-family="Helvetica,sans-Serif" font-size="10.00">FileFinder()</text>
<text text-anchor="start" x="363" y="-405.5" font-family="Helvetica,sans-Serif" font-size="10.00">+</text>
<text text-anchor="start" x="376" y="-405.5" font-family="Helvetica,sans-Serif" font-size="10.00">FileFinder()</text>
<text text-anchor="start" x="363" y="-390.5" font-family="Helvetica,sans-Serif" font-size="10.00">+</text>
<text text-anchor="start" x="376" y="-390.5" font-family="Helvetica,sans-Serif" font-size="10.00">~FileFinder()</text>
<text text-anchor="start" x="363" y="-375.5" font-family="Helvetica,sans-Serif" font-size="10.00">+</text>
<text text-anchor="start" x="376" y="-375.5" font-family="Helvetica,sans-Serif" font-size="10.00">SetPath()</text>
<text text-anchor="start" x="363" y="-360.5" font-family="Helvetica,sans-Serif" font-size="10.00">+</text>
<text text-anchor="start" x="376" y="-360.5" font-family="Helvetica,sans-Serif" font-size="10.00">SetPath()</text>
<text text-anchor="start" x="363" y="-345.5" font-family="Helvetica,sans-Serif" font-size="10.00">+</text>
<text text-anchor="start" x="376" y="-345.5" font-family="Helvetica,sans-Serif" font-size="10.00">IsPathSet()</text>
<text text-anchor="start" x="363" y="-330.5" font-family="Helvetica,sans-Serif" font-size="10.00">+</text>
<text text-anchor="start" x="376" y="-330.5" font-family="Helvetica,sans-Serif" font-size="10.00">Exists()</text>
<text text-anchor="start" x="363" y="-315.5" font-family="Helvetica,sans-Serif" font-size="10.00">+</text>
<text text-anchor="start" x="376" y="-315.5" font-family="Helvetica,sans-Serif" font-size="10.00">IsFile()</text>
<text text-anchor="start" x="376" y="-300.5" font-family="Helvetica,sans-Serif" font-size="10.00">and 14 more...</text>
<text text-anchor="start" x="363" y="-285.5" font-family="Helvetica,sans-Serif" font-size="10.00">+</text>
<text text-anchor="start" x="376" y="-285.5" font-family="Helvetica,sans-Serif" font-size="10.00">IsAbsolutePath()</text>
<text text-anchor="start" x="363" y="-270.5" font-family="Helvetica,sans-Serif" font-size="10.00">+</text>
<text text-anchor="start" x="376" y="-270.5" font-family="Helvetica,sans-Serif" font-size="10.00">ReplaceSpacesWithUnderscores()</text>
<text text-anchor="start" x="363" y="-255.5" font-family="Helvetica,sans-Serif" font-size="10.00">+</text>
<text text-anchor="start" x="376" y="-255.5" font-family="Helvetica,sans-Serif" font-size="10.00">ReplaceUnderscoresWithSpaces()</text>
<text text-anchor="start" x="363" y="-240.5" font-family="Helvetica,sans-Serif" font-size="10.00">+</text>
<text text-anchor="start" x="376" y="-240.5" font-family="Helvetica,sans-Serif" font-size="10.00">FakePath()</text>
<text text-anchor="start" x="363" y="-225.5" font-family="Helvetica,sans-Serif" font-size="10.00">+</text>
<text text-anchor="start" x="376" y="-225.5" font-family="Helvetica,sans-Serif" font-size="10.00">StopFaking()</text>
<text text-anchor="start" x="365.5" y="-210.5" font-family="Helvetica,sans-Serif" font-size="10.00">&#45;</text>
<text text-anchor="start" x="376" y="-210.5" font-family="Helvetica,sans-Serif" font-size="10.00">PrivateRemove()</text>
<polygon fill="#666666" stroke="#666666" points="359,-475.5 359,-475.5 545,-475.5 545,-475.5 359,-475.5"/>
<polygon fill="#666666" stroke="#666666" points="359,-460.5 359,-460.5 545,-460.5 545,-460.5 359,-460.5"/>
<polygon fill="none" stroke="#666666" points="359,-204 359,-493 545,-493 545,-204 359,-204"/>
</a>
</g>
</g>
<!-- Node2&#45;&gt;Node1 -->
<g id="edge1_Node000001_Node000002" class="edge">
<title>Node2&#45;&gt;Node1</title>
<g id="a_edge1_Node000001_Node000002"><a xlink:title=" ">
<path fill="none" stroke="#63b8ff" d="M537.72,-203.99C549.18,-186.54 561.1,-169.17 573,-153 575.05,-150.22 577.16,-147.42 579.33,-144.61"/>
<polygon fill="none" stroke="#63b8ff" points="579.42,-144.49 579.99,-137.3 586.85,-135.06 586.28,-142.25 579.42,-144.49"/>
</a>
</g>
<text text-anchor="middle" x="607.5" y="-167" font-family="Helvetica,sans-Serif" font-size="10.00" fill="grey"> #mrH5Folder</text>
</g>
<!-- Node3 -->
<g id="Node000003" class="node">
<title>Node3</title>
<g id="a_Node000003"><a xlink:title=" ">
<polygon fill="white" stroke="transparent" points="239,-589 201,-589 201,-540 239,-540 239,-589"/>
<text text-anchor="start" x="206" y="-576.5" font-family="Helvetica,sans-Serif" font-size="10.00">string</text>
<text text-anchor="start" x="218" y="-561.5" font-family="Helvetica,sans-Serif" font-size="10.00"> </text>
<text text-anchor="start" x="218" y="-546.5" font-family="Helvetica,sans-Serif" font-size="10.00"> </text>
<polygon fill="#bfbfbf" stroke="#bfbfbf" points="201,-571.5 201,-571.5 239,-571.5 239,-571.5 201,-571.5"/>
<polygon fill="#bfbfbf" stroke="#bfbfbf" points="201,-556.5 201,-556.5 239,-556.5 239,-556.5 201,-556.5"/>
<polygon fill="none" stroke="#bfbfbf" points="201,-540 201,-589 239,-589 239,-540 201,-540"/>
</a>
</g>
</g>
<!-- Node3&#45;&gt;Node1 -->
<g id="edge8_Node000001_Node000003" class="edge">
<title>Node3&#45;&gt;Node1</title>
<g id="a_edge8_Node000001_Node000003"><a xlink:title=" ">
<path fill="none" stroke="#63b8ff" d="M217.2,-539.99C209.23,-468.78 189.43,-257.05 229,-204 303.49,-104.13 453.18,-76.57 551.47,-69.69"/>
<polygon fill="none" stroke="#63b8ff" points="551.52,-69.69 557.25,-65.32 563.49,-68.93 557.76,-73.3 551.52,-69.69"/>
</a>
</g>
<text text-anchor="middle" x="289.5" y="-351.5" font-family="Helvetica,sans-Serif" font-size="10.00" fill="grey"> #mFileBaseName</text>
<text text-anchor="middle" x="289.5" y="-340.5" font-family="Helvetica,sans-Serif" font-size="10.00" fill="grey">#mRelativeSubdirectory</text>
</g>
<!-- Node3&#45;&gt;Node2 -->
<g id="edge2_Node000002_Node000003" class="edge">
<title>Node3&#45;&gt;Node2</title>
<g id="a_edge2_Node000002_Node000003"><a xlink:title=" ">
<path fill="none" stroke="#63b8ff" d="M239.03,-554C269.5,-538.59 327.61,-508.31 345,-493 346.6,-491.59 348.2,-490.15 349.78,-488.68"/>
<polygon fill="none" stroke="#63b8ff" points="350.11,-488.37 351.66,-481.32 358.75,-480.04 357.21,-487.08 350.11,-488.37"/>
</a>
</g>
<text text-anchor="middle" x="345" y="-514" font-family="Helvetica,sans-Serif" font-size="10.00" fill="grey"> &#45;mAbsPath</text>
</g>
<!-- Node11 -->
<g id="Node000011" class="node">
<title>Node11</title>
<g id="a_Node000011"><a xlink:href="classOutputFileHandler.html" target="_top" xlink:title=" ">
<polygon fill="white" stroke="transparent" points="178,-468.5 0,-468.5 0,-228.5 178,-228.5 178,-468.5"/>
<text text-anchor="start" x="44.5" y="-456.5" font-family="Helvetica,sans-Serif" font-size="10.00">OutputFileHandler</text>
<text text-anchor="start" x="87" y="-441.5" font-family="Helvetica,sans-Serif" font-size="10.00"> </text>
<text text-anchor="start" x="4" y="-426.5" font-family="Helvetica,sans-Serif" font-size="10.00">+</text>
<text text-anchor="start" x="17" y="-426.5" font-family="Helvetica,sans-Serif" font-size="10.00">OutputFileHandler()</text>
<text text-anchor="start" x="4" y="-411.5" font-family="Helvetica,sans-Serif" font-size="10.00">+</text>
<text text-anchor="start" x="17" y="-411.5" font-family="Helvetica,sans-Serif" font-size="10.00">OutputFileHandler()</text>
<text text-anchor="start" x="4" y="-396.5" font-family="Helvetica,sans-Serif" font-size="10.00">+</text>
<text text-anchor="start" x="17" y="-396.5" font-family="Helvetica,sans-Serif" font-size="10.00">GetOutputDirectoryFullPath()</text>
<text text-anchor="start" x="4" y="-381.5" font-family="Helvetica,sans-Serif" font-size="10.00">+</text>
<text text-anchor="start" x="17" y="-381.5" font-family="Helvetica,sans-Serif" font-size="10.00">GetRelativePath()</text>
<text text-anchor="start" x="4" y="-366.5" font-family="Helvetica,sans-Serif" font-size="10.00">+</text>
<text text-anchor="start" x="17" y="-366.5" font-family="Helvetica,sans-Serif" font-size="10.00">SetArchiveDirectory()</text>
<text text-anchor="start" x="4" y="-351.5" font-family="Helvetica,sans-Serif" font-size="10.00">+</text>
<text text-anchor="start" x="17" y="-351.5" font-family="Helvetica,sans-Serif" font-size="10.00">OpenOutputFile()</text>
<text text-anchor="start" x="4" y="-336.5" font-family="Helvetica,sans-Serif" font-size="10.00">+</text>
<text text-anchor="start" x="17" y="-336.5" font-family="Helvetica,sans-Serif" font-size="10.00">OpenOutputFile()</text>
<text text-anchor="start" x="4" y="-321.5" font-family="Helvetica,sans-Serif" font-size="10.00">+</text>
<text text-anchor="start" x="17" y="-321.5" font-family="Helvetica,sans-Serif" font-size="10.00">CopyFileTo()</text>
<text text-anchor="start" x="4" y="-306.5" font-family="Helvetica,sans-Serif" font-size="10.00">+</text>
<text text-anchor="start" x="17" y="-306.5" font-family="Helvetica,sans-Serif" font-size="10.00">FindFile()</text>
<text text-anchor="start" x="4" y="-291.5" font-family="Helvetica,sans-Serif" font-size="10.00">+</text>
<text text-anchor="start" x="17" y="-291.5" font-family="Helvetica,sans-Serif" font-size="10.00">GetChasteTestOutputDirectory()</text>
<text text-anchor="start" x="6.5" y="-276.5" font-family="Helvetica,sans-Serif" font-size="10.00">&#45;</text>
<text text-anchor="start" x="17" y="-276.5" font-family="Helvetica,sans-Serif" font-size="10.00">CommonConstructor()</text>
<text text-anchor="start" x="6.5" y="-261.5" font-family="Helvetica,sans-Serif" font-size="10.00">&#45;</text>
<text text-anchor="start" x="17" y="-261.5" font-family="Helvetica,sans-Serif" font-size="10.00">MakeFoldersAndReturnFull</text>
<text text-anchor="start" x="17" y="-250.5" font-family="Helvetica,sans-Serif" font-size="10.00">Path()</text>
<text text-anchor="start" x="6.5" y="-235.5" font-family="Helvetica,sans-Serif" font-size="10.00">&#45;</text>
<text text-anchor="start" x="17" y="-235.5" font-family="Helvetica,sans-Serif" font-size="10.00">AddTrailingSlash()</text>
<polygon fill="#666666" stroke="#666666" points="0,-451.5 0,-451.5 178,-451.5 178,-451.5 0,-451.5"/>
<polygon fill="#666666" stroke="#666666" points="0,-436.5 0,-436.5 178,-436.5 178,-436.5 0,-436.5"/>
<polygon fill="none" stroke="#666666" points="0,-228.5 0,-468.5 178,-468.5 178,-228.5 0,-228.5"/>
</a>
</g>
</g>
<!-- Node3&#45;&gt;Node11 -->
<g id="edge13_Node000011_Node000003" class="edge">
<title>Node3&#45;&gt;Node11</title>
<g id="a_edge13_Node000011_Node000003"><a xlink:title=" ">
<path fill="none" stroke="#63b8ff" d="M200.77,-557.61C183.56,-551.4 158.83,-539.97 144,-522 133.7,-509.51 125.31,-495.07 118.5,-479.96"/>
<polygon fill="none" stroke="#63b8ff" points="118.48,-479.91 112.45,-475.94 113.8,-468.86 119.82,-472.83 118.48,-479.91"/>
</a>
</g>
<text text-anchor="middle" x="175" y="-514" font-family="Helvetica,sans-Serif" font-size="10.00" fill="grey"> &#45;mDirectory</text>
</g>
<!-- Node4 -->
<g id="Node000004" class="node">
<title>Node4</title>
<g id="a_Node000004"><a xlink:href="classbool.html" target="_top" xlink:title=" ">
<polygon fill="white" stroke="transparent" points="468,-589 436,-589 436,-540 468,-540 468,-589"/>
<text text-anchor="start" x="441" y="-576.5" font-family="Helvetica,sans-Serif" font-size="10.00">bool</text>
<text text-anchor="start" x="450" y="-561.5" font-family="Helvetica,sans-Serif" font-size="10.00"> </text>
<text text-anchor="start" x="450" y="-546.5" font-family="Helvetica,sans-Serif" font-size="10.00"> </text>
<polygon fill="#bfbfbf" stroke="#bfbfbf" points="436,-571.5 436,-571.5 468,-571.5 468,-571.5 436,-571.5"/>
<polygon fill="#bfbfbf" stroke="#bfbfbf" points="436,-556.5 436,-556.5 468,-556.5 468,-556.5 436,-556.5"/>
<polygon fill="none" stroke="#bfbfbf" points="436,-540 436,-589 468,-589 468,-540 436,-540"/>
</a>
</g>
</g>
<!-- Node4&#45;&gt;Node2 -->
<g id="edge3_Node000002_Node000004" class="edge">
<title>Node4&#45;&gt;Node2</title>
<g id="a_edge3_Node000002_Node000004"><a xlink:title=" ">
<path fill="none" stroke="#63b8ff" d="M452,-539.78C452,-530.28 452,-518.49 452,-505.47"/>
<polygon fill="none" stroke="#63b8ff" points="452,-505.19 448,-499.19 452,-493.19 456,-499.19 452,-505.19"/>
</a>
</g>
<text text-anchor="middle" x="479" y="-514" font-family="Helvetica,sans-Serif" font-size="10.00" fill="grey"> &#45;msFaking</text>
</g>
<!-- Node5 -->
<g id="Node000005" class="node">
<title>Node5</title>
<g id="a_Node000005"><a xlink:title=" ">
<polygon fill="white" stroke="transparent" points="548,-589 510,-589 510,-540 548,-540 548,-589"/>
<text text-anchor="start" x="515" y="-576.5" font-family="Helvetica,sans-Serif" font-size="10.00">Value</text>
<text text-anchor="start" x="527" y="-561.5" font-family="Helvetica,sans-Serif" font-size="10.00"> </text>
<text text-anchor="start" x="527" y="-546.5" font-family="Helvetica,sans-Serif" font-size="10.00"> </text>
<polygon fill="#bfbfbf" stroke="#bfbfbf" points="510,-571.5 510,-571.5 548,-571.5 548,-571.5 510,-571.5"/>
<polygon fill="#bfbfbf" stroke="#bfbfbf" points="510,-556.5 510,-556.5 548,-556.5 548,-556.5 510,-556.5"/>
<polygon fill="none" stroke="#bfbfbf" points="510,-540 510,-589 548,-589 548,-540 510,-540"/>
</a>
</g>
</g>
<!-- Node5&#45;&gt;Node2 -->
<g id="edge4_Node000002_Node000005" class="edge">
<title>Node5&#45;&gt;Node2</title>
<g id="a_edge4_Node000002_Node000005"><a xlink:title=" ">
<path fill="none" stroke="#63b8ff" d="M520.47,-539.78C516.98,-530.09 512.63,-518.01 507.83,-504.67"/>
<polygon fill="none" stroke="#63b8ff" points="507.77,-504.48 501.97,-500.19 503.7,-493.19 509.5,-497.48 507.77,-504.48"/>
</a>
</g>
<text text-anchor="middle" x="547" y="-514" font-family="Helvetica,sans-Serif" font-size="10.00" fill="grey"> &#45;msFakeWhat</text>
</g>
<!-- Node6 -->
<g id="Node000006" class="node">
<title>Node6</title>
<g id="a_Node000006"><a xlink:title=" ">
<polygon fill="white" stroke="transparent" points="383,-589 345,-589 345,-540 383,-540 383,-589"/>
<text text-anchor="start" x="350" y="-576.5" font-family="Helvetica,sans-Serif" font-size="10.00">string</text>
<text text-anchor="start" x="362" y="-561.5" font-family="Helvetica,sans-Serif" font-size="10.00"> </text>
<text text-anchor="start" x="362" y="-546.5" font-family="Helvetica,sans-Serif" font-size="10.00"> </text>
<polygon fill="#bfbfbf" stroke="#bfbfbf" points="345,-571.5 345,-571.5 383,-571.5 383,-571.5 345,-571.5"/>
<polygon fill="#bfbfbf" stroke="#bfbfbf" points="345,-556.5 345,-556.5 383,-556.5 383,-556.5 345,-556.5"/>
<polygon fill="none" stroke="#bfbfbf" points="345,-540 345,-589 383,-589 383,-540 345,-540"/>
</a>
</g>
</g>
<!-- Node6&#45;&gt;Node2 -->
<g id="edge5_Node000002_Node000006" class="edge">
<title>Node6&#45;&gt;Node2</title>
<g id="a_edge5_Node000002_Node000006"><a xlink:title=" ">
<path fill="none" stroke="#63b8ff" d="M372.23,-539.87C375.47,-530.8 379.3,-520.38 383,-511 383.82,-508.91 384.66,-506.81 385.5,-504.69"/>
<polygon fill="none" stroke="#63b8ff" points="385.6,-504.43 384.13,-497.37 390.08,-493.3 391.55,-500.35 385.6,-504.43"/>
</a>
</g>
<text text-anchor="middle" x="415.5" y="-514" font-family="Helvetica,sans-Serif" font-size="10.00" fill="grey"> &#45;msFakePath</text>
</g>
<!-- Node7 -->
<g id="Node000007" class="node">
<title>Node7</title>
<g id="a_Node000007"><a xlink:title=" ">
<polygon fill="white" stroke="transparent" points="729,-373 563,-373 563,-324 729,-324 729,-373"/>
<text text-anchor="start" x="568" y="-360.5" font-family="Helvetica,sans-Serif" font-size="10.00">shared_ptr&lt; Hdf5DataReader &gt;</text>
<text text-anchor="start" x="644" y="-345.5" font-family="Helvetica,sans-Serif" font-size="10.00"> </text>
<text text-anchor="start" x="644" y="-330.5" font-family="Helvetica,sans-Serif" font-size="10.00"> </text>
<polygon fill="#bfbfbf" stroke="#bfbfbf" points="563,-355.5 563,-355.5 729,-355.5 729,-355.5 563,-355.5"/>
<polygon fill="#bfbfbf" stroke="#bfbfbf" points="563,-340.5 563,-340.5 729,-340.5 729,-340.5 563,-340.5"/>
<polygon fill="none" stroke="#bfbfbf" points="563,-324 563,-373 729,-373 729,-324 563,-324"/>
</a>
</g>
</g>
<!-- Node7&#45;&gt;Node1 -->
<g id="edge6_Node000001_Node000007" class="edge">
<title>Node7&#45;&gt;Node1</title>
<g id="a_edge6_Node000001_Node000007"><a xlink:title=" ">
<path fill="none" stroke="#63b8ff" d="M646,-323.71C646,-285.06 646,-206.95 646,-147.26"/>
<polygon fill="none" stroke="#63b8ff" points="646,-147.21 642,-141.21 646,-135.21 650,-141.21 646,-147.21"/>
</a>
</g>
<text text-anchor="middle" x="677" y="-167" font-family="Helvetica,sans-Serif" font-size="10.00" fill="grey"> #mpReader</text>
</g>
<!-- Node8 -->
<g id="Node000008" class="node">
<title>Node8</title>
<g id="a_Node000008"><a xlink:href="classunsigned.html" target="_top" xlink:title=" ">
<polygon fill="white" stroke="transparent" points="802.5,-373 747.5,-373 747.5,-324 802.5,-324 802.5,-373"/>
<text text-anchor="start" x="753" y="-360.5" font-family="Helvetica,sans-Serif" font-size="10.00">unsigned</text>
<text text-anchor="start" x="773.5" y="-345.5" font-family="Helvetica,sans-Serif" font-size="10.00"> </text>
<text text-anchor="start" x="773.5" y="-330.5" font-family="Helvetica,sans-Serif" font-size="10.00"> </text>
<polygon fill="#bfbfbf" stroke="#bfbfbf" points="748,-355.5 748,-355.5 803,-355.5 803,-355.5 748,-355.5"/>
<polygon fill="#bfbfbf" stroke="#bfbfbf" points="748,-340.5 748,-340.5 803,-340.5 803,-340.5 748,-340.5"/>
<polygon fill="none" stroke="#bfbfbf" points="747.5,-324 747.5,-373 802.5,-373 802.5,-324 747.5,-324"/>
</a>
</g>
</g>
<!-- Node8&#45;&gt;Node1 -->
<g id="edge7_Node000001_Node000008" class="edge">
<title>Node8&#45;&gt;Node1</title>
<g id="a_edge7_Node000001_Node000008"><a xlink:title=" ">
<path fill="none" stroke="#63b8ff" d="M770.57,-323.9C764.79,-295.06 753.53,-245.02 738,-204 728.99,-180.21 725.67,-174.46 712,-153 710.38,-150.46 708.7,-147.9 706.98,-145.34"/>
<polygon fill="none" stroke="#63b8ff" points="706.97,-145.33 700.27,-142.67 700.14,-135.46 706.84,-138.12 706.97,-145.33"/>
</a>
</g>
<text text-anchor="middle" x="784.5" y="-178" font-family="Helvetica,sans-Serif" font-size="10.00" fill="grey"> #mNumVariables</text>
<text text-anchor="middle" x="784.5" y="-167" font-family="Helvetica,sans-Serif" font-size="10.00" fill="grey">#mOpenDatasetIndex</text>
<text text-anchor="middle" x="784.5" y="-156" font-family="Helvetica,sans-Serif" font-size="10.00" fill="grey">#mPrecision</text>
</g>
<!-- Node9 -->
<g id="Node000009" class="node">
<title>Node9</title>
<g id="a_Node000009"><a xlink:title=" ">
<polygon fill="white" stroke="transparent" points="933.5,-373 820.5,-373 820.5,-324 933.5,-324 933.5,-373"/>
<text text-anchor="start" x="826" y="-360.5" font-family="Helvetica,sans-Serif" font-size="10.00">vector&lt; std::string &gt;</text>
<text text-anchor="start" x="875.5" y="-345.5" font-family="Helvetica,sans-Serif" font-size="10.00"> </text>
<text text-anchor="start" x="875.5" y="-330.5" font-family="Helvetica,sans-Serif" font-size="10.00"> </text>
<polygon fill="#bfbfbf" stroke="#bfbfbf" points="821,-355.5 821,-355.5 934,-355.5 934,-355.5 821,-355.5"/>
<polygon fill="#bfbfbf" stroke="#bfbfbf" points="821,-340.5 821,-340.5 934,-340.5 934,-340.5 821,-340.5"/>
<polygon fill="none" stroke="#bfbfbf" points="820.5,-324 820.5,-373 933.5,-373 933.5,-324 820.5,-324"/>
</a>
</g>
</g>
<!-- Node9&#45;&gt;Node1 -->
<g id="edge9_Node000001_Node000009" class="edge">
<title>Node9&#45;&gt;Node1</title>
<g id="a_edge9_Node000001_Node000009"><a xlink:title=" ">
<path fill="none" stroke="#63b8ff" d="M879.59,-323.68C882.58,-283.88 882.77,-203.27 843,-153 817.58,-120.86 777.58,-100.74 740.25,-88.24"/>
<polygon fill="none" stroke="#63b8ff" points="740.2,-88.23 733.27,-90.23 728.76,-84.6 735.69,-82.6 740.2,-88.23"/>
</a>
</g>
<text text-anchor="middle" x="908" y="-167" font-family="Helvetica,sans-Serif" font-size="10.00" fill="grey"> #mDatasetNames</text>
</g>
<!-- Node10 -->
<g id="Node000010" class="node">
<title>Node10</title>
<g id="a_Node000010"><a xlink:title=" ">
<polygon fill="white" stroke="transparent" points="1124.5,-378.5 951.5,-378.5 951.5,-318.5 1124.5,-318.5 1124.5,-378.5"/>
<text text-anchor="start" x="957" y="-366.5" font-family="Helvetica,sans-Serif" font-size="10.00">AbstractTetrahedralMesh</text>
<text text-anchor="start" x="957" y="-355.5" font-family="Helvetica,sans-Serif" font-size="10.00">&lt; ELEMENT_DIM, SPACE_DIM &gt; *</text>
<text text-anchor="start" x="1036.5" y="-340.5" font-family="Helvetica,sans-Serif" font-size="10.00"> </text>
<text text-anchor="start" x="1036.5" y="-325.5" font-family="Helvetica,sans-Serif" font-size="10.00"> </text>
<polygon fill="#bfbfbf" stroke="#bfbfbf" points="952,-350.5 952,-350.5 1125,-350.5 1125,-350.5 952,-350.5"/>
<polygon fill="#bfbfbf" stroke="#bfbfbf" points="952,-335.5 952,-335.5 1125,-335.5 1125,-335.5 952,-335.5"/>
<polygon fill="none" stroke="#bfbfbf" points="951.5,-318.5 951.5,-378.5 1124.5,-378.5 1124.5,-318.5 951.5,-318.5"/>
</a>
</g>
</g>
<!-- Node10&#45;&gt;Node1 -->
<g id="edge10_Node000001_Node000010" class="edge">
<title>Node10&#45;&gt;Node1</title>
<g id="a_edge10_Node000001_Node000010"><a xlink:title=" ">
<path fill="none" stroke="#63b8ff" d="M1034.35,-318.46C1027.44,-275.84 1008.41,-196.71 959,-153 898.95,-99.87 808.82,-79.71 740.67,-72.27"/>
<polygon fill="none" stroke="#63b8ff" points="740.59,-72.26 734.22,-75.64 728.65,-71.06 735.02,-67.68 740.59,-72.26"/>
</a>
</g>
<text text-anchor="middle" x="1011" y="-167" font-family="Helvetica,sans-Serif" font-size="10.00" fill="grey"> #mpMesh</text>
</g>
<!-- Node11&#45;&gt;Node1 -->
<g id="edge11_Node000001_Node000011" class="edge">
<title>Node11&#45;&gt;Node1</title>
<g id="a_edge11_Node000001_Node000011"><a xlink:title=" ">
<path fill="none" stroke="#63b8ff" d="M64.69,-228.36C65.41,-200.94 72.06,-173.76 90,-153 148.5,-85.29 408.23,-71.22 551.06,-68.69"/>
<polygon fill="none" stroke="#63b8ff" points="551.25,-68.69 557.18,-64.59 563.25,-68.5 557.31,-72.59 551.25,-68.69"/>
</a>
</g>
<text text-anchor="middle" x="148" y="-167" font-family="Helvetica,sans-Serif" font-size="10.00" fill="grey"> #mpOutputFileHandler</text>
</g>
<!-- Node12 -->
<g id="Node000012" class="node">
<title>Node12</title>
<g id="a_Node000012"><a xlink:title=" ">
<polygon fill="white" stroke="transparent" points="51,-589 13,-589 13,-540 51,-540 51,-589"/>
<text text-anchor="start" x="18" y="-576.5" font-family="Helvetica,sans-Serif" font-size="10.00">string</text>
<text text-anchor="start" x="30" y="-561.5" font-family="Helvetica,sans-Serif" font-size="10.00"> </text>
<text text-anchor="start" x="30" y="-546.5" font-family="Helvetica,sans-Serif" font-size="10.00"> </text>
<polygon fill="#bfbfbf" stroke="#bfbfbf" points="13,-571.5 13,-571.5 51,-571.5 51,-571.5 13,-571.5"/>
<polygon fill="#bfbfbf" stroke="#bfbfbf" points="13,-556.5 13,-556.5 51,-556.5 51,-556.5 13,-556.5"/>
<polygon fill="none" stroke="#bfbfbf" points="13,-540 13,-589 51,-589 51,-540 13,-540"/>
</a>
</g>
</g>
<!-- Node12&#45;&gt;Node11 -->
<g id="edge12_Node000011_Node000012" class="edge">
<title>Node12&#45;&gt;Node11</title>
<g id="a_edge12_Node000011_Node000012"><a xlink:title=" ">
<path fill="none" stroke="#63b8ff" d="M30.88,-539.83C30.86,-530.75 31.34,-520.33 33,-511 34.8,-500.92 37.13,-490.62 39.82,-480.34"/>
<polygon fill="none" stroke="#63b8ff" points="39.82,-480.34 37.55,-473.5 42.99,-468.77 45.26,-475.61 39.82,-480.34"/>
</a>
</g>
<text text-anchor="middle" x="77" y="-514" font-family="Helvetica,sans-Serif" font-size="10.00" fill="grey"> +SIG_FILE_NAME</text>
</g>
</g>
</svg>
