<?xml version="1.0" encoding="UTF-8" standalone="no"?>
<!DOCTYPE svg PUBLIC "-//W3C//DTD SVG 1.1//EN"
 "http://www.w3.org/Graphics/SVG/1.1/DTD/svg11.dtd">
<!-- Generated by graphviz version 2.43.0 (0)
 -->
<!-- Title: Citations Pages: 1 -->
<svg width="294pt" height="168pt"
 viewBox="0.00 0.00 294.00 168.00" xmlns="http://www.w3.org/2000/svg" xmlns:xlink="http://www.w3.org/1999/xlink">
<g id="graph0" class="graph" transform="scale(1 1) rotate(0) translate(4 164)">
<title>Citations</title>
<!-- Node1 -->
<g id="Node000001" class="node">
<title>Node1</title>
<g id="a_Node000001"><a xlink:title=" ">
<polygon fill="#999999" stroke="transparent" points="143,-64 73,-64 73,0 143,0 143,-64"/>
<text text-anchor="start" x="86" y="-52" font-family="Helvetica,sans-Serif" font-size="10.00">Citations</text>
<text text-anchor="start" x="106" y="-37" font-family="Helvetica,sans-Serif" font-size="10.00"> </text>
<text text-anchor="start" x="77" y="-22" font-family="Helvetica,sans-Serif" font-size="10.00">+</text>
<text text-anchor="start" x="90" y="-22" font-family="Helvetica,sans-Serif" font-size="10.00">Register()</text>
<text text-anchor="start" x="77" y="-7" font-family="Helvetica,sans-Serif" font-size="10.00">+</text>
<text text-anchor="start" x="90" y="-7" font-family="Helvetica,sans-Serif" font-size="10.00">Print()</text>
<polygon fill="#666666" stroke="#666666" points="73,-47 73,-47 143,-47 143,-47 73,-47"/>
<polygon fill="#666666" stroke="#666666" points="73,-32 73,-32 143,-32 143,-32 73,-32"/>
<polygon fill="none" stroke="#666666" points="73,0 73,-64 143,-64 143,0 73,0"/>
</a>
</g>
</g>
<!-- Node2 -->
<g id="Node000002" class="node">
<title>Node2</title>
<g id="a_Node000002"><a xlink:title=" ">
<polygon fill="white" stroke="transparent" points="122,-160 0,-160 0,-111 122,-111 122,-160"/>
<text text-anchor="start" x="5" y="-147.5" font-family="Helvetica,sans-Serif" font-size="10.00">vector&lt; const char * &gt;</text>
<text text-anchor="start" x="59" y="-132.5" font-family="Helvetica,sans-Serif" font-size="10.00"> </text>
<text text-anchor="start" x="59" y="-117.5" font-family="Helvetica,sans-Serif" font-size="10.00"> </text>
<polygon fill="#bfbfbf" stroke="#bfbfbf" points="0,-142.5 0,-142.5 122,-142.5 122,-142.5 0,-142.5"/>
<polygon fill="#bfbfbf" stroke="#bfbfbf" points="0,-127.5 0,-127.5 122,-127.5 122,-127.5 0,-127.5"/>
<polygon fill="none" stroke="#bfbfbf" points="0,-111 0,-160 122,-160 122,-111 0,-111"/>
</a>
</g>
</g>
<!-- Node2&#45;&gt;Node1 -->
<g id="edge1_Node000001_Node000002" class="edge">
<title>Node2&#45;&gt;Node1</title>
<g id="a_edge1_Node000001_Node000002"><a xlink:title=" ">
<path fill="none" stroke="#63b8ff" d="M64.35,-110.86C66.18,-101.59 68.94,-91.04 73,-82 74.16,-79.43 75.46,-76.85 76.86,-74.3"/>
<polygon fill="none" stroke="#63b8ff" points="76.86,-74.3 76.56,-67.09 83.1,-64.05 83.4,-71.25 76.86,-74.3"/>
</a>
</g>
<text text-anchor="middle" x="103.5" y="-85" font-family="Helvetica,sans-Serif" font-size="10.00" fill="grey"> &#45;mCitations</text>
</g>
<!-- Node3 -->
<g id="Node000003" class="node">
<title>Node3</title>
<g id="a_Node000003"><a xlink:href="classbool.html" target="_top" xlink:title=" ">
<polygon fill="white" stroke="transparent" points="172,-160 140,-160 140,-111 172,-111 172,-160"/>
<text text-anchor="start" x="145" y="-147.5" font-family="Helvetica,sans-Serif" font-size="10.00">bool</text>
<text text-anchor="start" x="154" y="-132.5" font-family="Helvetica,sans-Serif" font-size="10.00"> </text>
<text text-anchor="start" x="154" y="-117.5" font-family="Helvetica,sans-Serif" font-size="10.00"> </text>
<polygon fill="#bfbfbf" stroke="#bfbfbf" points="140,-142.5 140,-142.5 172,-142.5 172,-142.5 140,-142.5"/>
<polygon fill="#bfbfbf" stroke="#bfbfbf" points="140,-127.5 140,-127.5 172,-127.5 172,-127.5 140,-127.5"/>
<polygon fill="none" stroke="#bfbfbf" points="140,-111 140,-160 172,-160 172,-111 140,-111"/>
</a>
</g>
</g>
<!-- Node3&#45;&gt;Node1 -->
<g id="edge2_Node000001_Node000003" class="edge">
<title>Node3&#45;&gt;Node1</title>
<g id="a_edge2_Node000001_Node000003"><a xlink:title=" ">
<path fill="none" stroke="#63b8ff" d="M146.6,-110.78C142.86,-101.69 138.4,-91.29 134,-82 132.92,-79.72 131.79,-77.4 130.63,-75.06"/>
<polygon fill="none" stroke="#63b8ff" points="130.52,-74.84 124.23,-71.31 125.07,-64.15 131.36,-67.68 130.52,-74.84"/>
</a>
</g>
<text text-anchor="middle" x="212" y="-85" font-family="Helvetica,sans-Serif" font-size="10.00" fill="grey"> &#45;mUseChasteImplementation</text>
</g>
</g>
</svg>
