<?xml version="1.0" encoding="UTF-8" standalone="no"?>
<!DOCTYPE svg PUBLIC "-//W3C//DTD SVG 1.1//EN"
 "http://www.w3.org/Graphics/SVG/1.1/DTD/svg11.dtd">
<!-- Generated by graphviz version 2.43.0 (0)
 -->
<!-- Title: PolynomialMaterialLaw3d Pages: 1 -->
<svg width="411pt" height="1259pt"
 viewBox="0.00 0.00 410.50 1259.00" xmlns="http://www.w3.org/2000/svg" xmlns:xlink="http://www.w3.org/1999/xlink">
<g id="graph0" class="graph" transform="scale(1 1) rotate(0) translate(4 1255)">
<title>PolynomialMaterialLaw3d</title>
<!-- Node1 -->
<g id="Node000001" class="node">
<title>Node1</title>
<g id="a_Node000001"><a xlink:title=" ">
<polygon fill="#999999" stroke="transparent" points="330.5,-154 174.5,-154 174.5,0 330.5,0 330.5,-154"/>
<text text-anchor="start" x="189" y="-142" font-family="Helvetica,sans-Serif" font-size="10.00">PolynomialMaterialLaw3d</text>
<text text-anchor="start" x="250.5" y="-127" font-family="Helvetica,sans-Serif" font-size="10.00"> </text>
<text text-anchor="start" x="178.5" y="-112" font-family="Helvetica,sans-Serif" font-size="10.00">+</text>
<text text-anchor="start" x="191.5" y="-112" font-family="Helvetica,sans-Serif" font-size="10.00">Get_dW_dI1()</text>
<text text-anchor="start" x="178.5" y="-97" font-family="Helvetica,sans-Serif" font-size="10.00">+</text>
<text text-anchor="start" x="191.5" y="-97" font-family="Helvetica,sans-Serif" font-size="10.00">Get_dW_dI2()</text>
<text text-anchor="start" x="178.5" y="-82" font-family="Helvetica,sans-Serif" font-size="10.00">+</text>
<text text-anchor="start" x="191.5" y="-82" font-family="Helvetica,sans-Serif" font-size="10.00">Get_d2W_dI1()</text>
<text text-anchor="start" x="178.5" y="-67" font-family="Helvetica,sans-Serif" font-size="10.00">+</text>
<text text-anchor="start" x="191.5" y="-67" font-family="Helvetica,sans-Serif" font-size="10.00">Get_d2W_dI2()</text>
<text text-anchor="start" x="178.5" y="-52" font-family="Helvetica,sans-Serif" font-size="10.00">+</text>
<text text-anchor="start" x="191.5" y="-52" font-family="Helvetica,sans-Serif" font-size="10.00">Get_d2W_dI1I2()</text>
<text text-anchor="start" x="178.5" y="-37" font-family="Helvetica,sans-Serif" font-size="10.00">+</text>
<text text-anchor="start" x="191.5" y="-37" font-family="Helvetica,sans-Serif" font-size="10.00">GetAlpha()</text>
<text text-anchor="start" x="178.5" y="-22" font-family="Helvetica,sans-Serif" font-size="10.00">+</text>
<text text-anchor="start" x="191.5" y="-22" font-family="Helvetica,sans-Serif" font-size="10.00">PolynomialMaterialLaw3d()</text>
<text text-anchor="start" x="178.5" y="-7" font-family="Helvetica,sans-Serif" font-size="10.00">+</text>
<text text-anchor="start" x="191.5" y="-7" font-family="Helvetica,sans-Serif" font-size="10.00">GetZeroedAlpha()</text>
<polygon fill="#666666" stroke="#666666" points="174.5,-137 174.5,-137 330.5,-137 330.5,-137 174.5,-137"/>
<polygon fill="#666666" stroke="#666666" points="174.5,-122 174.5,-122 330.5,-122 330.5,-122 174.5,-122"/>
<polygon fill="none" stroke="#666666" points="174.5,0 174.5,-154 330.5,-154 330.5,0 174.5,0"/>
</a>
</g>
</g>
<!-- Node2 -->
<g id="Node000002" class="node">
<title>Node2</title>
<g id="a_Node000002"><a xlink:href="classAbstractIsotropicIncompressibleMaterialLaw.html" target="_top" xlink:title=" ">
<polygon fill="white" stroke="transparent" points="207,-392 4,-392 4,-201 207,-201 207,-392"/>
<text text-anchor="start" x="27.5" y="-379.5" font-family="Helvetica,sans-Serif" font-size="10.00">AbstractIsotropicIncompressible</text>
<text text-anchor="start" x="61.5" y="-368.5" font-family="Helvetica,sans-Serif" font-size="10.00">MaterialLaw&lt; 3 &gt;</text>
<text text-anchor="start" x="104" y="-353.5" font-family="Helvetica,sans-Serif" font-size="10.00"> </text>
<text text-anchor="start" x="8.5" y="-338.5" font-family="Helvetica,sans-Serif" font-size="10.00">+</text>
<text text-anchor="start" x="21.5" y="-338.5" font-family="Helvetica,sans-Serif" font-size="10.00">ComputeStressAndStressDerivative()</text>
<text text-anchor="start" x="8.5" y="-323.5" font-family="Helvetica,sans-Serif" font-size="10.00">+</text>
<text text-anchor="start" x="21.5" y="-323.5" font-family="Helvetica,sans-Serif" font-size="10.00">~AbstractIsotropicIncompressible</text>
<text text-anchor="start" x="21.5" y="-312.5" font-family="Helvetica,sans-Serif" font-size="10.00">MaterialLaw()</text>
<text text-anchor="start" x="8.5" y="-297.5" font-family="Helvetica,sans-Serif" font-size="10.00">+</text>
<text text-anchor="start" x="21.5" y="-297.5" font-family="Helvetica,sans-Serif" font-size="10.00">GetZeroStrainPressure()</text>
<text text-anchor="start" x="8.5" y="-282.5" font-family="Helvetica,sans-Serif" font-size="10.00">+</text>
<text text-anchor="start" x="21.5" y="-282.5" font-family="Helvetica,sans-Serif" font-size="10.00">GetZeroStrainPressure()</text>
<text text-anchor="start" x="8.5" y="-267.5" font-family="Helvetica,sans-Serif" font-size="10.00">#</text>
<text text-anchor="start" x="21.5" y="-267.5" font-family="Helvetica,sans-Serif" font-size="10.00">Get_dW_dI1()</text>
<text text-anchor="start" x="8.5" y="-252.5" font-family="Helvetica,sans-Serif" font-size="10.00">#</text>
<text text-anchor="start" x="21.5" y="-252.5" font-family="Helvetica,sans-Serif" font-size="10.00">Get_dW_dI2()</text>
<text text-anchor="start" x="8.5" y="-237.5" font-family="Helvetica,sans-Serif" font-size="10.00">#</text>
<text text-anchor="start" x="21.5" y="-237.5" font-family="Helvetica,sans-Serif" font-size="10.00">Get_d2W_dI1()</text>
<text text-anchor="start" x="8.5" y="-222.5" font-family="Helvetica,sans-Serif" font-size="10.00">#</text>
<text text-anchor="start" x="21.5" y="-222.5" font-family="Helvetica,sans-Serif" font-size="10.00">Get_d2W_dI2()</text>
<text text-anchor="start" x="8.5" y="-207.5" font-family="Helvetica,sans-Serif" font-size="10.00">#</text>
<text text-anchor="start" x="21.5" y="-207.5" font-family="Helvetica,sans-Serif" font-size="10.00">Get_d2W_dI1I2()</text>
<polygon fill="#666666" stroke="#666666" points="4.5,-363.5 4.5,-363.5 207.5,-363.5 207.5,-363.5 4.5,-363.5"/>
<polygon fill="#666666" stroke="#666666" points="4.5,-348.5 4.5,-348.5 207.5,-348.5 207.5,-348.5 4.5,-348.5"/>
<polygon fill="none" stroke="#666666" points="4,-201 4,-392 207,-392 207,-201 4,-201"/>
</a>
</g>
</g>
<!-- Node2&#45;&gt;Node1 -->
<g id="edge1_Node000001_Node000002" class="edge">
<title>Node2&#45;&gt;Node1</title>
<g id="a_edge1_Node000001_Node000002"><a xlink:title=" ">
<path fill="none" stroke="#63b8ff" d="M175.24,-192.31C183.93,-179.46 192.68,-166.51 201.02,-154.17"/>
<polygon fill="none" stroke="#63b8ff" points="172.25,-190.49 169.55,-200.73 178.05,-194.41 172.25,-190.49"/>
</a>
</g>
</g>
<!-- Node3 -->
<g id="Node000003" class="node">
<title>Node3</title>
<g id="a_Node000003"><a xlink:href="classAbstractIncompressibleMaterialLaw.html" target="_top" xlink:title=" ">
<polygon fill="white" stroke="transparent" points="194,-779 9,-779 9,-667 194,-667 194,-779"/>
<text text-anchor="start" x="24" y="-767" font-family="Helvetica,sans-Serif" font-size="10.00">AbstractIncompressibleMaterial</text>
<text text-anchor="start" x="71" y="-756" font-family="Helvetica,sans-Serif" font-size="10.00">Law&lt; DIM &gt;</text>
<text text-anchor="start" x="100" y="-741" font-family="Helvetica,sans-Serif" font-size="10.00"> </text>
<text text-anchor="start" x="13.5" y="-726" font-family="Helvetica,sans-Serif" font-size="10.00">+</text>
<text text-anchor="start" x="26.5" y="-726" font-family="Helvetica,sans-Serif" font-size="10.00">AbstractIncompressibleMaterial</text>
<text text-anchor="start" x="26.5" y="-715" font-family="Helvetica,sans-Serif" font-size="10.00">Law()</text>
<text text-anchor="start" x="13.5" y="-700" font-family="Helvetica,sans-Serif" font-size="10.00">+</text>
<text text-anchor="start" x="26.5" y="-700" font-family="Helvetica,sans-Serif" font-size="10.00">~AbstractIncompressibleMaterial</text>
<text text-anchor="start" x="26.5" y="-689" font-family="Helvetica,sans-Serif" font-size="10.00">Law()</text>
<text text-anchor="start" x="13.5" y="-674" font-family="Helvetica,sans-Serif" font-size="10.00">+</text>
<text text-anchor="start" x="26.5" y="-674" font-family="Helvetica,sans-Serif" font-size="10.00">GetZeroStrainPressure()</text>
<polygon fill="#666666" stroke="#666666" points="9.5,-751 9.5,-751 194.5,-751 194.5,-751 9.5,-751"/>
<polygon fill="#666666" stroke="#666666" points="9.5,-736 9.5,-736 194.5,-736 194.5,-736 9.5,-736"/>
<polygon fill="none" stroke="#666666" points="9,-667 9,-779 194,-779 194,-667 9,-667"/>
</a>
</g>
</g>
<!-- Node3&#45;&gt;Node2 -->
<g id="edge2_Node000002_Node000003" class="edge">
<title>Node3&#45;&gt;Node2</title>
<g id="a_edge2_Node000002_Node000003"><a xlink:title=" ">
<path fill="none" stroke="#63b8ff" d="M102.11,-656.83C102.78,-586.15 103.85,-472.67 104.61,-392.17"/>
<polygon fill="none" stroke="#63b8ff" points="98.61,-656.91 102.02,-666.94 105.61,-656.97 98.61,-656.91"/>
</a>
</g>
</g>
<!-- Node7 -->
<g id="Node000007" class="node">
<title>Node7</title>
<g id="a_Node000007"><a xlink:href="classAbstractIsotropicIncompressibleMaterialLaw.html" target="_top" xlink:title=" ">
<polygon fill="white" stroke="transparent" points="321,-630 118,-630 118,-439 321,-439 321,-630"/>
<text text-anchor="start" x="141.5" y="-617.5" font-family="Helvetica,sans-Serif" font-size="10.00">AbstractIsotropicIncompressible</text>
<text text-anchor="start" x="168.5" y="-606.5" font-family="Helvetica,sans-Serif" font-size="10.00">MaterialLaw&lt; DIM &gt;</text>
<text text-anchor="start" x="218" y="-591.5" font-family="Helvetica,sans-Serif" font-size="10.00"> </text>
<text text-anchor="start" x="122.5" y="-576.5" font-family="Helvetica,sans-Serif" font-size="10.00">+</text>
<text text-anchor="start" x="135.5" y="-576.5" font-family="Helvetica,sans-Serif" font-size="10.00">ComputeStressAndStressDerivative()</text>
<text text-anchor="start" x="122.5" y="-561.5" font-family="Helvetica,sans-Serif" font-size="10.00">+</text>
<text text-anchor="start" x="135.5" y="-561.5" font-family="Helvetica,sans-Serif" font-size="10.00">~AbstractIsotropicIncompressible</text>
<text text-anchor="start" x="135.5" y="-550.5" font-family="Helvetica,sans-Serif" font-size="10.00">MaterialLaw()</text>
<text text-anchor="start" x="122.5" y="-535.5" font-family="Helvetica,sans-Serif" font-size="10.00">+</text>
<text text-anchor="start" x="135.5" y="-535.5" font-family="Helvetica,sans-Serif" font-size="10.00">GetZeroStrainPressure()</text>
<text text-anchor="start" x="122.5" y="-520.5" font-family="Helvetica,sans-Serif" font-size="10.00">+</text>
<text text-anchor="start" x="135.5" y="-520.5" font-family="Helvetica,sans-Serif" font-size="10.00">GetZeroStrainPressure()</text>
<text text-anchor="start" x="122.5" y="-505.5" font-family="Helvetica,sans-Serif" font-size="10.00">#</text>
<text text-anchor="start" x="135.5" y="-505.5" font-family="Helvetica,sans-Serif" font-size="10.00">Get_dW_dI1()</text>
<text text-anchor="start" x="122.5" y="-490.5" font-family="Helvetica,sans-Serif" font-size="10.00">#</text>
<text text-anchor="start" x="135.5" y="-490.5" font-family="Helvetica,sans-Serif" font-size="10.00">Get_dW_dI2()</text>
<text text-anchor="start" x="122.5" y="-475.5" font-family="Helvetica,sans-Serif" font-size="10.00">#</text>
<text text-anchor="start" x="135.5" y="-475.5" font-family="Helvetica,sans-Serif" font-size="10.00">Get_d2W_dI1()</text>
<text text-anchor="start" x="122.5" y="-460.5" font-family="Helvetica,sans-Serif" font-size="10.00">#</text>
<text text-anchor="start" x="135.5" y="-460.5" font-family="Helvetica,sans-Serif" font-size="10.00">Get_d2W_dI2()</text>
<text text-anchor="start" x="122.5" y="-445.5" font-family="Helvetica,sans-Serif" font-size="10.00">#</text>
<text text-anchor="start" x="135.5" y="-445.5" font-family="Helvetica,sans-Serif" font-size="10.00">Get_d2W_dI1I2()</text>
<polygon fill="#666666" stroke="#666666" points="118.5,-601.5 118.5,-601.5 321.5,-601.5 321.5,-601.5 118.5,-601.5"/>
<polygon fill="#666666" stroke="#666666" points="118.5,-586.5 118.5,-586.5 321.5,-586.5 321.5,-586.5 118.5,-586.5"/>
<polygon fill="none" stroke="#666666" points="118,-439 118,-630 321,-630 321,-439 118,-439"/>
</a>
</g>
</g>
<!-- Node3&#45;&gt;Node7 -->
<g id="edge7_Node000007_Node000003" class="edge">
<title>Node3&#45;&gt;Node7</title>
<g id="a_edge7_Node000007_Node000003"><a xlink:title=" ">
<path fill="none" stroke="#63b8ff" d="M141.85,-658.22C147.61,-649.12 153.63,-639.6 159.66,-630.07"/>
<polygon fill="none" stroke="#63b8ff" points="138.81,-656.48 136.42,-666.8 144.73,-660.22 138.81,-656.48"/>
</a>
</g>
</g>
<!-- Node4 -->
<g id="Node000004" class="node">
<title>Node4</title>
<g id="a_Node000004"><a xlink:href="classAbstractMaterialLaw.html" target="_top" xlink:title=" ">
<polygon fill="white" stroke="transparent" points="203,-1048 0,-1048 0,-816 203,-816 203,-1048"/>
<text text-anchor="start" x="51.5" y="-1036" font-family="Helvetica,sans-Serif" font-size="10.00">AbstractMaterialLaw</text>
<text text-anchor="start" x="80.5" y="-1025" font-family="Helvetica,sans-Serif" font-size="10.00">&lt; DIM &gt;</text>
<text text-anchor="start" x="100" y="-1010" font-family="Helvetica,sans-Serif" font-size="10.00"> </text>
<text text-anchor="start" x="4.5" y="-995" font-family="Helvetica,sans-Serif" font-size="10.00">+</text>
<text text-anchor="start" x="17.5" y="-995" font-family="Helvetica,sans-Serif" font-size="10.00">AbstractMaterialLaw()</text>
<text text-anchor="start" x="4.5" y="-980" font-family="Helvetica,sans-Serif" font-size="10.00">+</text>
<text text-anchor="start" x="17.5" y="-980" font-family="Helvetica,sans-Serif" font-size="10.00">~AbstractMaterialLaw()</text>
<text text-anchor="start" x="4.5" y="-965" font-family="Helvetica,sans-Serif" font-size="10.00">+</text>
<text text-anchor="start" x="17.5" y="-965" font-family="Helvetica,sans-Serif" font-size="10.00">ComputeStressAndStressDerivative()</text>
<text text-anchor="start" x="4.5" y="-950" font-family="Helvetica,sans-Serif" font-size="10.00">+</text>
<text text-anchor="start" x="17.5" y="-950" font-family="Helvetica,sans-Serif" font-size="10.00">ComputeCauchyStress()</text>
<text text-anchor="start" x="4.5" y="-935" font-family="Helvetica,sans-Serif" font-size="10.00">+</text>
<text text-anchor="start" x="17.5" y="-935" font-family="Helvetica,sans-Serif" font-size="10.00">Compute1stPiolaKirchoffStress()</text>
<text text-anchor="start" x="4.5" y="-920" font-family="Helvetica,sans-Serif" font-size="10.00">+</text>
<text text-anchor="start" x="17.5" y="-920" font-family="Helvetica,sans-Serif" font-size="10.00">Compute2ndPiolaKirchoffStress()</text>
<text text-anchor="start" x="4.5" y="-905" font-family="Helvetica,sans-Serif" font-size="10.00">+</text>
<text text-anchor="start" x="17.5" y="-905" font-family="Helvetica,sans-Serif" font-size="10.00">ScaleMaterialParameters()</text>
<text text-anchor="start" x="4.5" y="-890" font-family="Helvetica,sans-Serif" font-size="10.00">+</text>
<text text-anchor="start" x="17.5" y="-890" font-family="Helvetica,sans-Serif" font-size="10.00">SetChangeOfBasisMatrix()</text>
<text text-anchor="start" x="4.5" y="-875" font-family="Helvetica,sans-Serif" font-size="10.00">+</text>
<text text-anchor="start" x="17.5" y="-875" font-family="Helvetica,sans-Serif" font-size="10.00">ResetToNoChangeOfBasisMatrix()</text>
<text text-anchor="start" x="4.5" y="-860" font-family="Helvetica,sans-Serif" font-size="10.00">#</text>
<text text-anchor="start" x="17.5" y="-860" font-family="Helvetica,sans-Serif" font-size="10.00">ComputeTransformedDeformation</text>
<text text-anchor="start" x="17.5" y="-849" font-family="Helvetica,sans-Serif" font-size="10.00">Tensor()</text>
<text text-anchor="start" x="4.5" y="-834" font-family="Helvetica,sans-Serif" font-size="10.00">#</text>
<text text-anchor="start" x="17.5" y="-834" font-family="Helvetica,sans-Serif" font-size="10.00">TransformStressAndStress</text>
<text text-anchor="start" x="17.5" y="-823" font-family="Helvetica,sans-Serif" font-size="10.00">Derivative()</text>
<polygon fill="#666666" stroke="#666666" points="0.5,-1020 0.5,-1020 203.5,-1020 203.5,-1020 0.5,-1020"/>
<polygon fill="#666666" stroke="#666666" points="0.5,-1005 0.5,-1005 203.5,-1005 203.5,-1005 0.5,-1005"/>
<polygon fill="none" stroke="#666666" points="0,-816 0,-1048 203,-1048 203,-816 0,-816"/>
</a>
</g>
</g>
<!-- Node4&#45;&gt;Node3 -->
<g id="edge3_Node000003_Node000004" class="edge">
<title>Node4&#45;&gt;Node3</title>
<g id="a_edge3_Node000003_Node000004"><a xlink:title=" ">
<path fill="none" stroke="#63b8ff" d="M101.5,-805.9C101.5,-796.67 101.5,-787.68 101.5,-779.25"/>
<polygon fill="none" stroke="#63b8ff" points="98,-806 101.5,-816 105,-806 98,-806"/>
</a>
</g>
</g>
<!-- Node5 -->
<g id="Node000005" class="node">
<title>Node5</title>
<g id="a_Node000005"><a xlink:title=" ">
<polygon fill="white" stroke="transparent" points="164.5,-1155 38.5,-1155 38.5,-1095 164.5,-1095 164.5,-1155"/>
<text text-anchor="start" x="43.5" y="-1143" font-family="Helvetica,sans-Serif" font-size="10.00">c_matrix&lt; double, DIM,</text>
<text text-anchor="start" x="84.5" y="-1132" font-family="Helvetica,sans-Serif" font-size="10.00"> DIM &gt;</text>
<text text-anchor="start" x="99.5" y="-1117" font-family="Helvetica,sans-Serif" font-size="10.00"> </text>
<text text-anchor="start" x="99.5" y="-1102" font-family="Helvetica,sans-Serif" font-size="10.00"> </text>
<polygon fill="#bfbfbf" stroke="#bfbfbf" points="38.5,-1127 38.5,-1127 164.5,-1127 164.5,-1127 38.5,-1127"/>
<polygon fill="#bfbfbf" stroke="#bfbfbf" points="38.5,-1112 38.5,-1112 164.5,-1112 164.5,-1112 38.5,-1112"/>
<polygon fill="none" stroke="#bfbfbf" points="38.5,-1095 38.5,-1155 164.5,-1155 164.5,-1095 38.5,-1095"/>
</a>
</g>
</g>
<!-- Node5&#45;&gt;Node4 -->
<g id="edge4_Node000004_Node000005" class="edge">
<title>Node5&#45;&gt;Node4</title>
<g id="a_edge4_Node000004_Node000005"><a xlink:title=" ">
<path fill="none" stroke="#63b8ff" d="M101.5,-1094.99C101.5,-1085.11 101.5,-1073.33 101.5,-1060.71"/>
<polygon fill="none" stroke="#63b8ff" points="101.5,-1060.38 97.5,-1054.38 101.5,-1048.38 105.5,-1054.38 101.5,-1060.38"/>
</a>
</g>
<text text-anchor="middle" x="168" y="-1069" font-family="Helvetica,sans-Serif" font-size="10.00" fill="grey"> #mpChangeOfBasisMatrix</text>
</g>
<!-- Node6 -->
<g id="Node000006" class="node">
<title>Node6</title>
<g id="a_Node000006"><a xlink:title=" ">
<polygon fill="white" stroke="transparent" points="128,-1251 75,-1251 75,-1202 128,-1202 128,-1251"/>
<text text-anchor="start" x="80.5" y="-1238.5" font-family="Helvetica,sans-Serif" font-size="10.00">c_matrix</text>
<text text-anchor="start" x="100" y="-1223.5" font-family="Helvetica,sans-Serif" font-size="10.00"> </text>
<text text-anchor="start" x="100" y="-1208.5" font-family="Helvetica,sans-Serif" font-size="10.00"> </text>
<polygon fill="#bfbfbf" stroke="#bfbfbf" points="75.5,-1233.5 75.5,-1233.5 128.5,-1233.5 128.5,-1233.5 75.5,-1233.5"/>
<polygon fill="#bfbfbf" stroke="#bfbfbf" points="75.5,-1218.5 75.5,-1218.5 128.5,-1218.5 128.5,-1218.5 75.5,-1218.5"/>
<polygon fill="none" stroke="#bfbfbf" points="75,-1202 75,-1251 128,-1251 128,-1202 75,-1202"/>
</a>
</g>
</g>
<!-- Node6&#45;&gt;Node5 -->
<g id="edge5_Node000005_Node000006" class="edge">
<title>Node6&#45;&gt;Node5</title>
<g id="a_edge5_Node000005_Node000006"><a xlink:title=" ">
<path fill="none" stroke="orange" d="M101.5,-1191.87C101.5,-1179.94 101.5,-1166.62 101.5,-1155.1"/>
<polygon fill="orange" stroke="orange" points="98,-1191.92 101.5,-1201.92 105,-1191.92 98,-1191.92"/>
</a>
</g>
<text text-anchor="middle" x="156.5" y="-1176" font-family="Helvetica,sans-Serif" font-size="10.00" fill="grey"> &lt; double, DIM, DIM &gt;</text>
</g>
<!-- Node7&#45;&gt;Node2 -->
<g id="edge6_Node000002_Node000007" class="edge">
<title>Node7&#45;&gt;Node2</title>
<g id="a_edge6_Node000002_Node000007"><a xlink:title=" ">
<path fill="none" stroke="orange" d="M169.41,-429.8C163.36,-417.28 157.2,-404.53 151.22,-392.15"/>
<polygon fill="orange" stroke="orange" points="166.29,-431.39 173.79,-438.87 172.59,-428.34 166.29,-431.39"/>
</a>
</g>
<text text-anchor="middle" x="178.5" y="-413" font-family="Helvetica,sans-Serif" font-size="10.00" fill="grey"> &lt; 3 &gt;</text>
</g>
<!-- Node8 -->
<g id="Node000008" class="node">
<title>Node8</title>
<g id="a_Node000008"><a xlink:href="classunsigned.html" target="_top" xlink:title=" ">
<polygon fill="white" stroke="transparent" points="280,-321 225,-321 225,-272 280,-272 280,-321"/>
<text text-anchor="start" x="230.5" y="-308.5" font-family="Helvetica,sans-Serif" font-size="10.00">unsigned</text>
<text text-anchor="start" x="251" y="-293.5" font-family="Helvetica,sans-Serif" font-size="10.00"> </text>
<text text-anchor="start" x="251" y="-278.5" font-family="Helvetica,sans-Serif" font-size="10.00"> </text>
<polygon fill="#bfbfbf" stroke="#bfbfbf" points="225.5,-303.5 225.5,-303.5 280.5,-303.5 280.5,-303.5 225.5,-303.5"/>
<polygon fill="#bfbfbf" stroke="#bfbfbf" points="225.5,-288.5 225.5,-288.5 280.5,-288.5 280.5,-288.5 225.5,-288.5"/>
<polygon fill="none" stroke="#bfbfbf" points="225,-272 225,-321 280,-321 280,-272 225,-272"/>
</a>
</g>
</g>
<!-- Node8&#45;&gt;Node1 -->
<g id="edge8_Node000001_Node000008" class="edge">
<title>Node8&#45;&gt;Node1</title>
<g id="a_edge8_Node000001_Node000008"><a xlink:title=" ">
<path fill="none" stroke="#63b8ff" d="M252.5,-271.81C252.5,-246.48 252.5,-204.77 252.5,-166.52"/>
<polygon fill="none" stroke="#63b8ff" points="252.5,-166.25 248.5,-160.25 252.5,-154.25 256.5,-160.25 252.5,-166.25"/>
</a>
</g>
<text text-anchor="middle" x="265" y="-175" font-family="Helvetica,sans-Serif" font-size="10.00" fill="grey"> &#45;mN</text>
</g>
<!-- Node9 -->
<g id="Node000009" class="node">
<title>Node9</title>
<g id="a_Node000009"><a xlink:title=" ">
<polygon fill="white" stroke="transparent" points="402.5,-326.5 298.5,-326.5 298.5,-266.5 402.5,-266.5 402.5,-326.5"/>
<text text-anchor="start" x="303.5" y="-314.5" font-family="Helvetica,sans-Serif" font-size="10.00">vector&lt; std::vector</text>
<text text-anchor="start" x="317" y="-303.5" font-family="Helvetica,sans-Serif" font-size="10.00">&lt; double &gt; &gt;</text>
<text text-anchor="start" x="348.5" y="-288.5" font-family="Helvetica,sans-Serif" font-size="10.00"> </text>
<text text-anchor="start" x="348.5" y="-273.5" font-family="Helvetica,sans-Serif" font-size="10.00"> </text>
<polygon fill="#bfbfbf" stroke="#bfbfbf" points="298.5,-298.5 298.5,-298.5 402.5,-298.5 402.5,-298.5 298.5,-298.5"/>
<polygon fill="#bfbfbf" stroke="#bfbfbf" points="298.5,-283.5 298.5,-283.5 402.5,-283.5 402.5,-283.5 298.5,-283.5"/>
<polygon fill="none" stroke="#bfbfbf" points="298.5,-266.5 298.5,-326.5 402.5,-326.5 402.5,-266.5 298.5,-266.5"/>
</a>
</g>
</g>
<!-- Node9&#45;&gt;Node1 -->
<g id="edge9_Node000001_Node000009" class="edge">
<title>Node9&#45;&gt;Node1</title>
<g id="a_edge9_Node000001_Node000009"><a xlink:title=" ">
<path fill="none" stroke="#63b8ff" d="M337.28,-266.17C325.59,-240.21 307.91,-200.99 291.72,-165.05"/>
<polygon fill="none" stroke="#63b8ff" points="291.68,-164.97 285.57,-161.14 286.76,-154.03 292.87,-157.85 291.68,-164.97"/>
</a>
</g>
<text text-anchor="middle" x="321" y="-175" font-family="Helvetica,sans-Serif" font-size="10.00" fill="grey"> &#45;mAlpha</text>
</g>
</g>
</svg>
