<?xml version="1.0" encoding="UTF-8" standalone="no"?>
<!DOCTYPE svg PUBLIC "-//W3C//DTD SVG 1.1//EN"
 "http://www.w3.org/Graphics/SVG/1.1/DTD/svg11.dtd">
<!-- Generated by graphviz version 2.43.0 (0)
 -->
<!-- Title: OdeSystemInformation&lt; ODE_SYSTEM &gt; Pages: 1 -->
<svg width="622pt" height="705pt"
 viewBox="0.00 0.00 621.50 705.00" xmlns="http://www.w3.org/2000/svg" xmlns:xlink="http://www.w3.org/1999/xlink">
<g id="graph0" class="graph" transform="scale(1 1) rotate(0) translate(4 701)">
<title>OdeSystemInformation&lt; ODE_SYSTEM &gt;</title>
<!-- Node1 -->
<g id="Node000001" class="node">
<title>Node1</title>
<g id="a_Node000001"><a xlink:title=" ">
<polygon fill="#999999" stroke="transparent" points="487,-285 345,-285 345,0 487,0 487,-285"/>
<text text-anchor="start" x="359" y="-272.5" font-family="Helvetica,sans-Serif" font-size="10.00">OdeSystemInformation</text>
<text text-anchor="start" x="372" y="-261.5" font-family="Helvetica,sans-Serif" font-size="10.00">&lt; ODE_SYSTEM &gt;</text>
<text text-anchor="start" x="414" y="-246.5" font-family="Helvetica,sans-Serif" font-size="10.00"> </text>
<text text-anchor="start" x="349" y="-231.5" font-family="Helvetica,sans-Serif" font-size="10.00">+</text>
<text text-anchor="start" x="362" y="-231.5" font-family="Helvetica,sans-Serif" font-size="10.00">Instance()</text>
<text text-anchor="start" x="349" y="-216.5" font-family="Helvetica,sans-Serif" font-size="10.00">#</text>
<text text-anchor="start" x="362" y="-216.5" font-family="Helvetica,sans-Serif" font-size="10.00">OdeSystemInformation()</text>
<text text-anchor="start" x="349" y="-201.5" font-family="Helvetica,sans-Serif" font-size="10.00">#</text>
<text text-anchor="start" x="362" y="-201.5" font-family="Helvetica,sans-Serif" font-size="10.00">OdeSystemInformation()</text>
<text text-anchor="start" x="349" y="-186.5" font-family="Helvetica,sans-Serif" font-size="10.00">#</text>
<text text-anchor="start" x="362" y="-186.5" font-family="Helvetica,sans-Serif" font-size="10.00">operator=()</text>
<text text-anchor="start" x="349" y="-171.5" font-family="Helvetica,sans-Serif" font-size="10.00">#</text>
<text text-anchor="start" x="362" y="-171.5" font-family="Helvetica,sans-Serif" font-size="10.00">Initialise()</text>
<text text-anchor="start" x="349" y="-156.5" font-family="Helvetica,sans-Serif" font-size="10.00">#</text>
<text text-anchor="start" x="362" y="-156.5" font-family="Helvetica,sans-Serif" font-size="10.00">Initialise()</text>
<text text-anchor="start" x="349" y="-141.5" font-family="Helvetica,sans-Serif" font-size="10.00">#</text>
<text text-anchor="start" x="362" y="-141.5" font-family="Helvetica,sans-Serif" font-size="10.00">Initialise()</text>
<text text-anchor="start" x="349" y="-126.5" font-family="Helvetica,sans-Serif" font-size="10.00">#</text>
<text text-anchor="start" x="362" y="-126.5" font-family="Helvetica,sans-Serif" font-size="10.00">Initialise()</text>
<text text-anchor="start" x="349" y="-111.5" font-family="Helvetica,sans-Serif" font-size="10.00">#</text>
<text text-anchor="start" x="362" y="-111.5" font-family="Helvetica,sans-Serif" font-size="10.00">Initialise()</text>
<text text-anchor="start" x="349" y="-96.5" font-family="Helvetica,sans-Serif" font-size="10.00">#</text>
<text text-anchor="start" x="362" y="-96.5" font-family="Helvetica,sans-Serif" font-size="10.00">Initialise()</text>
<text text-anchor="start" x="349" y="-81.5" font-family="Helvetica,sans-Serif" font-size="10.00">#</text>
<text text-anchor="start" x="362" y="-81.5" font-family="Helvetica,sans-Serif" font-size="10.00">Initialise()</text>
<text text-anchor="start" x="349" y="-66.5" font-family="Helvetica,sans-Serif" font-size="10.00">#</text>
<text text-anchor="start" x="362" y="-66.5" font-family="Helvetica,sans-Serif" font-size="10.00">Initialise()</text>
<text text-anchor="start" x="349" y="-51.5" font-family="Helvetica,sans-Serif" font-size="10.00">#</text>
<text text-anchor="start" x="362" y="-51.5" font-family="Helvetica,sans-Serif" font-size="10.00">Initialise()</text>
<text text-anchor="start" x="349" y="-36.5" font-family="Helvetica,sans-Serif" font-size="10.00">#</text>
<text text-anchor="start" x="362" y="-36.5" font-family="Helvetica,sans-Serif" font-size="10.00">Initialise()</text>
<text text-anchor="start" x="349" y="-21.5" font-family="Helvetica,sans-Serif" font-size="10.00">#</text>
<text text-anchor="start" x="362" y="-21.5" font-family="Helvetica,sans-Serif" font-size="10.00">Initialise()</text>
<text text-anchor="start" x="349" y="-6.5" font-family="Helvetica,sans-Serif" font-size="10.00">#</text>
<text text-anchor="start" x="362" y="-6.5" font-family="Helvetica,sans-Serif" font-size="10.00">Initialise()</text>
<polygon fill="#666666" stroke="#666666" points="345,-256.5 345,-256.5 487,-256.5 487,-256.5 345,-256.5"/>
<polygon fill="#666666" stroke="#666666" points="345,-241.5 345,-241.5 487,-241.5 487,-241.5 345,-241.5"/>
<polygon fill="none" stroke="#666666" points="345,0 345,-285 487,-285 487,0 345,0"/>
</a>
</g>
</g>
<!-- Node2 -->
<g id="Node000002" class="node">
<title>Node2</title>
<g id="a_Node000002"><a xlink:href="classAbstractOdeSystemInformation.html" target="_top" xlink:title=" ">
<polygon fill="white" stroke="transparent" points="408.5,-546 217.5,-546 217.5,-332 408.5,-332 408.5,-546"/>
<text text-anchor="start" x="236.5" y="-534" font-family="Helvetica,sans-Serif" font-size="10.00">AbstractOdeSystemInformation</text>
<text text-anchor="start" x="311.5" y="-519" font-family="Helvetica,sans-Serif" font-size="10.00"> </text>
<text text-anchor="start" x="222" y="-504" font-family="Helvetica,sans-Serif" font-size="10.00">+</text>
<text text-anchor="start" x="235" y="-504" font-family="Helvetica,sans-Serif" font-size="10.00">AbstractOdeSystemInformation()</text>
<text text-anchor="start" x="222" y="-489" font-family="Helvetica,sans-Serif" font-size="10.00">+</text>
<text text-anchor="start" x="235" y="-489" font-family="Helvetica,sans-Serif" font-size="10.00">~AbstractOdeSystemInformation()</text>
<text text-anchor="start" x="222" y="-474" font-family="Helvetica,sans-Serif" font-size="10.00">+</text>
<text text-anchor="start" x="235" y="-474" font-family="Helvetica,sans-Serif" font-size="10.00">GetSystemName()</text>
<text text-anchor="start" x="222" y="-459" font-family="Helvetica,sans-Serif" font-size="10.00">+</text>
<text text-anchor="start" x="235" y="-459" font-family="Helvetica,sans-Serif" font-size="10.00">GetFreeVariableName()</text>
<text text-anchor="start" x="222" y="-444" font-family="Helvetica,sans-Serif" font-size="10.00">+</text>
<text text-anchor="start" x="235" y="-444" font-family="Helvetica,sans-Serif" font-size="10.00">GetFreeVariableUnits()</text>
<text text-anchor="start" x="222" y="-429" font-family="Helvetica,sans-Serif" font-size="10.00">+</text>
<text text-anchor="start" x="235" y="-429" font-family="Helvetica,sans-Serif" font-size="10.00">SetDefaultInitialConditions()</text>
<text text-anchor="start" x="222" y="-414" font-family="Helvetica,sans-Serif" font-size="10.00">+</text>
<text text-anchor="start" x="235" y="-414" font-family="Helvetica,sans-Serif" font-size="10.00">SetDefaultInitialCondition()</text>
<text text-anchor="start" x="222" y="-399" font-family="Helvetica,sans-Serif" font-size="10.00">+</text>
<text text-anchor="start" x="235" y="-399" font-family="Helvetica,sans-Serif" font-size="10.00">GetInitialConditions()</text>
<text text-anchor="start" x="222" y="-384" font-family="Helvetica,sans-Serif" font-size="10.00">+</text>
<text text-anchor="start" x="235" y="-384" font-family="Helvetica,sans-Serif" font-size="10.00">rGetStateVariableNames()</text>
<text text-anchor="start" x="222" y="-369" font-family="Helvetica,sans-Serif" font-size="10.00">+</text>
<text text-anchor="start" x="235" y="-369" font-family="Helvetica,sans-Serif" font-size="10.00">rGetStateVariableUnits()</text>
<text text-anchor="start" x="235" y="-354" font-family="Helvetica,sans-Serif" font-size="10.00">and 21 more...</text>
<text text-anchor="start" x="222" y="-339" font-family="Helvetica,sans-Serif" font-size="10.00">#</text>
<text text-anchor="start" x="235" y="-339" font-family="Helvetica,sans-Serif" font-size="10.00">Initialise()</text>
<polygon fill="#666666" stroke="#666666" points="218,-529 218,-529 409,-529 409,-529 218,-529"/>
<polygon fill="#666666" stroke="#666666" points="218,-514 218,-514 409,-514 409,-514 218,-514"/>
<polygon fill="none" stroke="#666666" points="217.5,-332 217.5,-546 408.5,-546 408.5,-332 217.5,-332"/>
</a>
</g>
</g>
<!-- Node2&#45;&gt;Node1 -->
<g id="edge1_Node000001_Node000002" class="edge">
<title>Node2&#45;&gt;Node1</title>
<g id="a_edge1_Node000001_Node000002"><a xlink:title=" ">
<path fill="none" stroke="#63b8ff" d="M353.57,-322.01C357.81,-309.87 362.17,-297.42 366.5,-285.04"/>
<polygon fill="none" stroke="#63b8ff" points="350.18,-321.08 350.19,-331.68 356.79,-323.39 350.18,-321.08"/>
</a>
</g>
</g>
<!-- Node3 -->
<g id="Node000003" class="node">
<title>Node3</title>
<g id="a_Node000003"><a xlink:title=" ">
<polygon fill="white" stroke="transparent" points="38,-697 0,-697 0,-648 38,-648 38,-697"/>
<text text-anchor="start" x="5" y="-684.5" font-family="Helvetica,sans-Serif" font-size="10.00">string</text>
<text text-anchor="start" x="17" y="-669.5" font-family="Helvetica,sans-Serif" font-size="10.00"> </text>
<text text-anchor="start" x="17" y="-654.5" font-family="Helvetica,sans-Serif" font-size="10.00"> </text>
<polygon fill="#bfbfbf" stroke="#bfbfbf" points="0,-679.5 0,-679.5 38,-679.5 38,-679.5 0,-679.5"/>
<polygon fill="#bfbfbf" stroke="#bfbfbf" points="0,-664.5 0,-664.5 38,-664.5 38,-664.5 0,-664.5"/>
<polygon fill="none" stroke="#bfbfbf" points="0,-648 0,-697 38,-697 38,-648 0,-648"/>
</a>
</g>
</g>
<!-- Node3&#45;&gt;Node2 -->
<g id="edge2_Node000002_Node000003" class="edge">
<title>Node3&#45;&gt;Node2</title>
<g id="a_edge2_Node000002_Node000003"><a xlink:title=" ">
<path fill="none" stroke="#63b8ff" d="M17.16,-647.58C16.61,-623.94 19.38,-587.94 38,-564 79,-511.29 147.37,-480.33 205.68,-462.52"/>
<polygon fill="none" stroke="#63b8ff" points="205.69,-462.52 210.31,-456.99 217.2,-459.13 212.57,-464.67 205.69,-462.52"/>
</a>
</g>
<text text-anchor="middle" x="94" y="-605.5" font-family="Helvetica,sans-Serif" font-size="10.00" fill="grey"> #mFreeVariableName</text>
<text text-anchor="middle" x="94" y="-594.5" font-family="Helvetica,sans-Serif" font-size="10.00" fill="grey">#mFreeVariableUnits</text>
<text text-anchor="middle" x="94" y="-583.5" font-family="Helvetica,sans-Serif" font-size="10.00" fill="grey">#mSystemName</text>
</g>
<!-- Node4 -->
<g id="Node000004" class="node">
<title>Node4</title>
<g id="a_Node000004"><a xlink:title=" ">
<polygon fill="white" stroke="transparent" points="210.5,-697 97.5,-697 97.5,-648 210.5,-648 210.5,-697"/>
<text text-anchor="start" x="103" y="-684.5" font-family="Helvetica,sans-Serif" font-size="10.00">vector&lt; std::string &gt;</text>
<text text-anchor="start" x="152.5" y="-669.5" font-family="Helvetica,sans-Serif" font-size="10.00"> </text>
<text text-anchor="start" x="152.5" y="-654.5" font-family="Helvetica,sans-Serif" font-size="10.00"> </text>
<polygon fill="#bfbfbf" stroke="#bfbfbf" points="98,-679.5 98,-679.5 211,-679.5 211,-679.5 98,-679.5"/>
<polygon fill="#bfbfbf" stroke="#bfbfbf" points="98,-664.5 98,-664.5 211,-664.5 211,-664.5 98,-664.5"/>
<polygon fill="none" stroke="#bfbfbf" points="97.5,-648 97.5,-697 210.5,-697 210.5,-648 97.5,-648"/>
</a>
</g>
</g>
<!-- Node4&#45;&gt;Node2 -->
<g id="edge3_Node000002_Node000004" class="edge">
<title>Node4&#45;&gt;Node2</title>
<g id="a_edge3_Node000002_Node000004"><a xlink:title=" ">
<path fill="none" stroke="#63b8ff" d="M152.93,-647.79C152.92,-624.96 155.65,-590.13 170,-564 179.91,-545.94 193.55,-529.29 208.49,-514.44"/>
<polygon fill="none" stroke="#63b8ff" points="208.74,-514.2 210.32,-507.16 217.42,-505.91 215.84,-512.95 208.74,-514.2"/>
</a>
</g>
<text text-anchor="middle" x="238" y="-622" font-family="Helvetica,sans-Serif" font-size="10.00" fill="grey"> #mDerivedQuantityNames</text>
<text text-anchor="middle" x="238" y="-611" font-family="Helvetica,sans-Serif" font-size="10.00" fill="grey">#mDerivedQuantityUnits</text>
<text text-anchor="middle" x="238" y="-600" font-family="Helvetica,sans-Serif" font-size="10.00" fill="grey">#mParameterNames</text>
<text text-anchor="middle" x="238" y="-589" font-family="Helvetica,sans-Serif" font-size="10.00" fill="grey">#mParameterUnits</text>
<text text-anchor="middle" x="238" y="-578" font-family="Helvetica,sans-Serif" font-size="10.00" fill="grey">#mVariableNames</text>
<text text-anchor="middle" x="238" y="-567" font-family="Helvetica,sans-Serif" font-size="10.00" fill="grey">#mVariableUnits</text>
</g>
<!-- Node5 -->
<g id="Node000005" class="node">
<title>Node5</title>
<g id="a_Node000005"><a xlink:title=" ">
<polygon fill="white" stroke="transparent" points="380.5,-697 237.5,-697 237.5,-648 380.5,-648 380.5,-697"/>
<text text-anchor="start" x="243" y="-684.5" font-family="Helvetica,sans-Serif" font-size="10.00">map&lt; std::string, double &gt;</text>
<text text-anchor="start" x="307.5" y="-669.5" font-family="Helvetica,sans-Serif" font-size="10.00"> </text>
<text text-anchor="start" x="307.5" y="-654.5" font-family="Helvetica,sans-Serif" font-size="10.00"> </text>
<polygon fill="#bfbfbf" stroke="#bfbfbf" points="238,-679.5 238,-679.5 381,-679.5 381,-679.5 238,-679.5"/>
<polygon fill="#bfbfbf" stroke="#bfbfbf" points="238,-664.5 238,-664.5 381,-664.5 381,-664.5 238,-664.5"/>
<polygon fill="none" stroke="#bfbfbf" points="237.5,-648 237.5,-697 380.5,-697 380.5,-648 237.5,-648"/>
</a>
</g>
</g>
<!-- Node5&#45;&gt;Node2 -->
<g id="edge4_Node000002_Node000005" class="edge">
<title>Node5&#45;&gt;Node2</title>
<g id="a_edge4_Node000002_Node000005"><a xlink:title=" ">
<path fill="none" stroke="#63b8ff" d="M309.41,-647.6C309.79,-625.9 310.37,-592.17 310.96,-558.17"/>
<polygon fill="none" stroke="#63b8ff" points="310.96,-558.15 307.06,-552.08 311.17,-546.15 315.06,-552.22 310.96,-558.15"/>
</a>
</g>
<text text-anchor="middle" x="346" y="-594.5" font-family="Helvetica,sans-Serif" font-size="10.00" fill="grey"> #mAttributes</text>
</g>
<!-- Node6 -->
<g id="Node000006" class="node">
<title>Node6</title>
<g id="a_Node000006"><a xlink:title=" ">
<polygon fill="white" stroke="transparent" points="495.5,-697 398.5,-697 398.5,-648 495.5,-648 495.5,-697"/>
<text text-anchor="start" x="404" y="-684.5" font-family="Helvetica,sans-Serif" font-size="10.00">vector&lt; double &gt;</text>
<text text-anchor="start" x="445.5" y="-669.5" font-family="Helvetica,sans-Serif" font-size="10.00"> </text>
<text text-anchor="start" x="445.5" y="-654.5" font-family="Helvetica,sans-Serif" font-size="10.00"> </text>
<polygon fill="#bfbfbf" stroke="#bfbfbf" points="399,-679.5 399,-679.5 496,-679.5 496,-679.5 399,-679.5"/>
<polygon fill="#bfbfbf" stroke="#bfbfbf" points="399,-664.5 399,-664.5 496,-664.5 496,-664.5 399,-664.5"/>
<polygon fill="none" stroke="#bfbfbf" points="398.5,-648 398.5,-697 495.5,-697 495.5,-648 398.5,-648"/>
</a>
</g>
</g>
<!-- Node6&#45;&gt;Node2 -->
<g id="edge5_Node000002_Node000006" class="edge">
<title>Node6&#45;&gt;Node2</title>
<g id="a_edge5_Node000002_Node000006"><a xlink:title=" ">
<path fill="none" stroke="#63b8ff" d="M424.21,-648C419.46,-642.37 414.76,-636.2 411,-630 394.66,-603.04 398.73,-592.38 385,-564 383.9,-561.72 382.77,-559.43 381.62,-557.13"/>
<polygon fill="none" stroke="#63b8ff" points="381.55,-557 375.26,-553.48 376.1,-546.31 382.39,-549.84 381.55,-557"/>
</a>
</g>
<text text-anchor="middle" x="461.5" y="-594.5" font-family="Helvetica,sans-Serif" font-size="10.00" fill="grey"> #mInitialConditions</text>
</g>
<!-- Node7 -->
<g id="Node000007" class="node">
<title>Node7</title>
<g id="a_Node000007"><a xlink:href="classbool.html" target="_top" xlink:title=" ">
<polygon fill="white" stroke="transparent" points="550,-697 518,-697 518,-648 550,-648 550,-697"/>
<text text-anchor="start" x="523" y="-684.5" font-family="Helvetica,sans-Serif" font-size="10.00">bool</text>
<text text-anchor="start" x="532" y="-669.5" font-family="Helvetica,sans-Serif" font-size="10.00"> </text>
<text text-anchor="start" x="532" y="-654.5" font-family="Helvetica,sans-Serif" font-size="10.00"> </text>
<polygon fill="#bfbfbf" stroke="#bfbfbf" points="518,-679.5 518,-679.5 550,-679.5 550,-679.5 518,-679.5"/>
<polygon fill="#bfbfbf" stroke="#bfbfbf" points="518,-664.5 518,-664.5 550,-664.5 550,-664.5 518,-664.5"/>
<polygon fill="none" stroke="#bfbfbf" points="518,-648 518,-697 550,-697 550,-648 518,-648"/>
</a>
</g>
</g>
<!-- Node7&#45;&gt;Node2 -->
<g id="edge6_Node000002_Node000007" class="edge">
<title>Node7&#45;&gt;Node2</title>
<g id="a_edge6_Node000002_Node000007"><a xlink:title=" ">
<path fill="none" stroke="#63b8ff" d="M536.15,-647.88C536.97,-623.43 534.1,-585.82 512,-564 484.16,-536.51 459.76,-561.29 419.42,-545.59"/>
<polygon fill="none" stroke="#63b8ff" points="419.39,-545.58 412.26,-546.67 408.51,-540.51 415.64,-539.42 419.39,-545.58"/>
</a>
</g>
<text text-anchor="middle" x="570" y="-594.5" font-family="Helvetica,sans-Serif" font-size="10.00" fill="grey"> #mInitialised</text>
</g>
<!-- Node8 -->
<g id="Node000008" class="node">
<title>Node8</title>
<g id="a_Node000008"><a xlink:title=" ">
<polygon fill="white" stroke="transparent" points="613.5,-469 426.5,-469 426.5,-409 613.5,-409 613.5,-469"/>
<text text-anchor="start" x="432" y="-457" font-family="Helvetica,sans-Serif" font-size="10.00">shared_ptr&lt; OdeSystemInformation</text>
<text text-anchor="start" x="470.5" y="-446" font-family="Helvetica,sans-Serif" font-size="10.00">&lt; ODE_SYSTEM &gt; &gt;</text>
<text text-anchor="start" x="518.5" y="-431" font-family="Helvetica,sans-Serif" font-size="10.00"> </text>
<text text-anchor="start" x="518.5" y="-416" font-family="Helvetica,sans-Serif" font-size="10.00"> </text>
<polygon fill="#bfbfbf" stroke="#bfbfbf" points="427,-441 427,-441 614,-441 614,-441 427,-441"/>
<polygon fill="#bfbfbf" stroke="#bfbfbf" points="427,-426 427,-426 614,-426 614,-426 427,-426"/>
<polygon fill="none" stroke="#bfbfbf" points="426.5,-409 426.5,-469 613.5,-469 613.5,-409 426.5,-409"/>
</a>
</g>
</g>
<!-- Node8&#45;&gt;Node1 -->
<g id="edge7_Node000001_Node000008" class="edge">
<title>Node8&#45;&gt;Node1</title>
<g id="a_edge7_Node000001_Node000008"><a xlink:title=" ">
<path fill="none" stroke="#63b8ff" d="M509.74,-408.96C500.22,-381.98 485.25,-339.6 470.05,-296.56"/>
<polygon fill="none" stroke="#63b8ff" points="469.97,-296.33 464.2,-292.01 465.98,-285.02 471.74,-289.34 469.97,-296.33"/>
</a>
</g>
<text text-anchor="middle" x="507" y="-306" font-family="Helvetica,sans-Serif" font-size="10.00" fill="grey"> &#45;mpInstance</text>
</g>
</g>
</svg>
