<?xml version="1.0" encoding="UTF-8" standalone="no"?>
<!DOCTYPE svg PUBLIC "-//W3C//DTD SVG 1.1//EN"
 "http://www.w3.org/Graphics/SVG/1.1/DTD/svg11.dtd">
<!-- Generated by graphviz version 2.43.0 (0)
 -->
<!-- Title: Nash2004ContractionModel Pages: 1 -->
<svg width="633pt" height="1648pt"
 viewBox="0.00 0.00 633.39 1648.00" xmlns="http://www.w3.org/2000/svg" xmlns:xlink="http://www.w3.org/1999/xlink">
<g id="graph0" class="graph" transform="scale(1 1) rotate(0) translate(4 1644)">
<title>Nash2004ContractionModel</title>
<!-- Node1 -->
<g id="Node000001" class="node">
<title>Node1</title>
<g id="a_Node000001"><a xlink:title=" ">
<polygon fill="#999999" stroke="transparent" points="474.39,-154 310.39,-154 310.39,0 474.39,0 474.39,-154"/>
<text text-anchor="start" x="324.39" y="-142" font-family="Helvetica,sans-Serif" font-size="10.00">Nash2004ContractionModel</text>
<text text-anchor="start" x="390.39" y="-127" font-family="Helvetica,sans-Serif" font-size="10.00"> </text>
<text text-anchor="start" x="314.39" y="-112" font-family="Helvetica,sans-Serif" font-size="10.00">+</text>
<text text-anchor="start" x="327.39" y="-112" font-family="Helvetica,sans-Serif" font-size="10.00">Nash2004ContractionModel()</text>
<text text-anchor="start" x="314.39" y="-97" font-family="Helvetica,sans-Serif" font-size="10.00">+</text>
<text text-anchor="start" x="327.39" y="-97" font-family="Helvetica,sans-Serif" font-size="10.00">EvaluateYDerivatives()</text>
<text text-anchor="start" x="314.39" y="-82" font-family="Helvetica,sans-Serif" font-size="10.00">+</text>
<text text-anchor="start" x="327.39" y="-82" font-family="Helvetica,sans-Serif" font-size="10.00">SetInputParameters()</text>
<text text-anchor="start" x="314.39" y="-67" font-family="Helvetica,sans-Serif" font-size="10.00">+</text>
<text text-anchor="start" x="327.39" y="-67" font-family="Helvetica,sans-Serif" font-size="10.00">SetStretchAndStretchRate()</text>
<text text-anchor="start" x="314.39" y="-52" font-family="Helvetica,sans-Serif" font-size="10.00">+</text>
<text text-anchor="start" x="327.39" y="-52" font-family="Helvetica,sans-Serif" font-size="10.00">GetActiveTension()</text>
<text text-anchor="start" x="314.39" y="-37" font-family="Helvetica,sans-Serif" font-size="10.00">+</text>
<text text-anchor="start" x="327.39" y="-37" font-family="Helvetica,sans-Serif" font-size="10.00">GetNextActiveTension()</text>
<text text-anchor="start" x="314.39" y="-22" font-family="Helvetica,sans-Serif" font-size="10.00">+</text>
<text text-anchor="start" x="327.39" y="-22" font-family="Helvetica,sans-Serif" font-size="10.00">IsStretchDependent()</text>
<text text-anchor="start" x="314.39" y="-7" font-family="Helvetica,sans-Serif" font-size="10.00">+</text>
<text text-anchor="start" x="327.39" y="-7" font-family="Helvetica,sans-Serif" font-size="10.00">IsStretchRateDependent()</text>
<polygon fill="#666666" stroke="#666666" points="310.39,-137 310.39,-137 474.39,-137 474.39,-137 310.39,-137"/>
<polygon fill="#666666" stroke="#666666" points="310.39,-122 310.39,-122 474.39,-122 474.39,-122 310.39,-122"/>
<polygon fill="none" stroke="#666666" points="310.39,0 310.39,-154 474.39,-154 474.39,0 310.39,0"/>
</a>
</g>
</g>
<!-- Node2 -->
<g id="Node000002" class="node">
<title>Node2</title>
<g id="a_Node000002"><a xlink:href="classAbstractOdeBasedContractionModel.html" target="_top" xlink:title=" ">
<polygon fill="white" stroke="transparent" points="416.39,-307 248.39,-307 248.39,-191 416.39,-191 416.39,-307"/>
<text text-anchor="start" x="258.89" y="-295" font-family="Helvetica,sans-Serif" font-size="10.00">AbstractOdeBasedContraction</text>
<text text-anchor="start" x="316.89" y="-284" font-family="Helvetica,sans-Serif" font-size="10.00">Model</text>
<text text-anchor="start" x="330.39" y="-269" font-family="Helvetica,sans-Serif" font-size="10.00"> </text>
<text text-anchor="start" x="252.39" y="-254" font-family="Helvetica,sans-Serif" font-size="10.00">+</text>
<text text-anchor="start" x="265.39" y="-254" font-family="Helvetica,sans-Serif" font-size="10.00">AbstractOdeBasedContraction</text>
<text text-anchor="start" x="265.39" y="-243" font-family="Helvetica,sans-Serif" font-size="10.00">Model()</text>
<text text-anchor="start" x="252.39" y="-228" font-family="Helvetica,sans-Serif" font-size="10.00">+</text>
<text text-anchor="start" x="265.39" y="-228" font-family="Helvetica,sans-Serif" font-size="10.00">RunDoNotUpdate()</text>
<text text-anchor="start" x="252.39" y="-213" font-family="Helvetica,sans-Serif" font-size="10.00">+</text>
<text text-anchor="start" x="265.39" y="-213" font-family="Helvetica,sans-Serif" font-size="10.00">UpdateStateVariables()</text>
<text text-anchor="start" x="252.39" y="-198" font-family="Helvetica,sans-Serif" font-size="10.00">+</text>
<text text-anchor="start" x="265.39" y="-198" font-family="Helvetica,sans-Serif" font-size="10.00">RunAndUpdate()</text>
<polygon fill="#666666" stroke="#666666" points="248.39,-279 248.39,-279 416.39,-279 416.39,-279 248.39,-279"/>
<polygon fill="#666666" stroke="#666666" points="248.39,-264 248.39,-264 416.39,-264 416.39,-264 248.39,-264"/>
<polygon fill="none" stroke="#666666" points="248.39,-191 248.39,-307 416.39,-307 416.39,-191 248.39,-191"/>
</a>
</g>
</g>
<!-- Node2&#45;&gt;Node1 -->
<g id="edge1_Node000001_Node000002" class="edge">
<title>Node2&#45;&gt;Node1</title>
<g id="a_edge1_Node000001_Node000002"><a xlink:title=" ">
<path fill="none" stroke="#63b8ff" d="M355.9,-181.39C359.04,-172.49 362.28,-163.31 365.47,-154.26"/>
<polygon fill="none" stroke="#63b8ff" points="352.56,-180.32 352.53,-190.92 359.16,-182.65 352.56,-180.32"/>
</a>
</g>
</g>
<!-- Node3 -->
<g id="Node000003" class="node">
<title>Node3</title>
<g id="a_Node000003"><a xlink:href="classAbstractOdeSystem.html" target="_top" xlink:title=" ">
<polygon fill="white" stroke="transparent" points="412.39,-545.5 264.39,-545.5 264.39,-376.5 412.39,-376.5 412.39,-545.5"/>
<text text-anchor="start" x="289.89" y="-533" font-family="Helvetica,sans-Serif" font-size="10.00">AbstractOdeSystem</text>
<text text-anchor="start" x="336.39" y="-518" font-family="Helvetica,sans-Serif" font-size="10.00"> </text>
<text text-anchor="start" x="268.39" y="-503" font-family="Helvetica,sans-Serif" font-size="10.00">+</text>
<text text-anchor="start" x="281.39" y="-503" font-family="Helvetica,sans-Serif" font-size="10.00">AbstractOdeSystem()</text>
<text text-anchor="start" x="268.39" y="-488" font-family="Helvetica,sans-Serif" font-size="10.00">+</text>
<text text-anchor="start" x="281.39" y="-488" font-family="Helvetica,sans-Serif" font-size="10.00">~AbstractOdeSystem()</text>
<text text-anchor="start" x="268.39" y="-473" font-family="Helvetica,sans-Serif" font-size="10.00">+</text>
<text text-anchor="start" x="281.39" y="-473" font-family="Helvetica,sans-Serif" font-size="10.00">EvaluateYDerivatives()</text>
<text text-anchor="start" x="268.39" y="-458" font-family="Helvetica,sans-Serif" font-size="10.00">+</text>
<text text-anchor="start" x="281.39" y="-458" font-family="Helvetica,sans-Serif" font-size="10.00">CalculateStoppingEvent()</text>
<text text-anchor="start" x="268.39" y="-443" font-family="Helvetica,sans-Serif" font-size="10.00">+</text>
<text text-anchor="start" x="281.39" y="-443" font-family="Helvetica,sans-Serif" font-size="10.00">CalculateRootFunction()</text>
<text text-anchor="start" x="268.39" y="-428" font-family="Helvetica,sans-Serif" font-size="10.00">+</text>
<text text-anchor="start" x="281.39" y="-428" font-family="Helvetica,sans-Serif" font-size="10.00">GetUseAnalyticJacobian()</text>
<text text-anchor="start" x="268.39" y="-413" font-family="Helvetica,sans-Serif" font-size="10.00">+</text>
<text text-anchor="start" x="281.39" y="-413" font-family="Helvetica,sans-Serif" font-size="10.00">rGetConstStateVariables()</text>
<text text-anchor="start" x="270.89" y="-398" font-family="Helvetica,sans-Serif" font-size="10.00">&#45;</text>
<text text-anchor="start" x="281.39" y="-398" font-family="Helvetica,sans-Serif" font-size="10.00">save()</text>
<text text-anchor="start" x="270.89" y="-383" font-family="Helvetica,sans-Serif" font-size="10.00">&#45;</text>
<text text-anchor="start" x="281.39" y="-383" font-family="Helvetica,sans-Serif" font-size="10.00">load()</text>
<polygon fill="#666666" stroke="#666666" points="264.39,-528 264.39,-528 412.39,-528 412.39,-528 264.39,-528"/>
<polygon fill="#666666" stroke="#666666" points="264.39,-513 264.39,-513 412.39,-513 412.39,-513 264.39,-513"/>
<polygon fill="none" stroke="#666666" points="264.39,-376.5 264.39,-545.5 412.39,-545.5 412.39,-376.5 264.39,-376.5"/>
</a>
</g>
</g>
<!-- Node3&#45;&gt;Node2 -->
<g id="edge2_Node000002_Node000003" class="edge">
<title>Node3&#45;&gt;Node2</title>
<g id="a_edge2_Node000002_Node000003"><a xlink:title=" ">
<path fill="none" stroke="#63b8ff" d="M335.71,-366.25C335.14,-346.12 334.54,-325.42 334.02,-307.17"/>
<polygon fill="none" stroke="#63b8ff" points="332.22,-366.5 336,-376.4 339.21,-366.3 332.22,-366.5"/>
</a>
</g>
</g>
<!-- Node4 -->
<g id="Node000004" class="node">
<title>Node4</title>
<g id="a_Node000004"><a xlink:href="classAbstractParameterisedSystem.html" target="_top" xlink:title=" ">
<polygon fill="white" stroke="transparent" points="438.89,-900 261.89,-900 261.89,-615 438.89,-615 438.89,-900"/>
<text text-anchor="start" x="276.89" y="-887.5" font-family="Helvetica,sans-Serif" font-size="10.00">AbstractParameterisedSystem</text>
<text text-anchor="start" x="285.89" y="-876.5" font-family="Helvetica,sans-Serif" font-size="10.00">&lt; std::vector&lt; double &gt; &gt;</text>
<text text-anchor="start" x="348.89" y="-861.5" font-family="Helvetica,sans-Serif" font-size="10.00"> </text>
<text text-anchor="start" x="266.39" y="-846.5" font-family="Helvetica,sans-Serif" font-size="10.00">+</text>
<text text-anchor="start" x="279.39" y="-846.5" font-family="Helvetica,sans-Serif" font-size="10.00">AbstractParameterisedSystem()</text>
<text text-anchor="start" x="266.39" y="-831.5" font-family="Helvetica,sans-Serif" font-size="10.00">+</text>
<text text-anchor="start" x="279.39" y="-831.5" font-family="Helvetica,sans-Serif" font-size="10.00">rGetStateVariables()</text>
<text text-anchor="start" x="266.39" y="-816.5" font-family="Helvetica,sans-Serif" font-size="10.00">+</text>
<text text-anchor="start" x="279.39" y="-816.5" font-family="Helvetica,sans-Serif" font-size="10.00">GetStateVariables()</text>
<text text-anchor="start" x="266.39" y="-801.5" font-family="Helvetica,sans-Serif" font-size="10.00">+</text>
<text text-anchor="start" x="279.39" y="-801.5" font-family="Helvetica,sans-Serif" font-size="10.00">SetStateVariables()</text>
<text text-anchor="start" x="266.39" y="-786.5" font-family="Helvetica,sans-Serif" font-size="10.00">+</text>
<text text-anchor="start" x="279.39" y="-786.5" font-family="Helvetica,sans-Serif" font-size="10.00">GetStateVariable()</text>
<text text-anchor="start" x="266.39" y="-771.5" font-family="Helvetica,sans-Serif" font-size="10.00">+</text>
<text text-anchor="start" x="279.39" y="-771.5" font-family="Helvetica,sans-Serif" font-size="10.00">GetStateVariable()</text>
<text text-anchor="start" x="266.39" y="-756.5" font-family="Helvetica,sans-Serif" font-size="10.00">+</text>
<text text-anchor="start" x="279.39" y="-756.5" font-family="Helvetica,sans-Serif" font-size="10.00">SetStateVariable()</text>
<text text-anchor="start" x="266.39" y="-741.5" font-family="Helvetica,sans-Serif" font-size="10.00">+</text>
<text text-anchor="start" x="279.39" y="-741.5" font-family="Helvetica,sans-Serif" font-size="10.00">SetStateVariable()</text>
<text text-anchor="start" x="266.39" y="-726.5" font-family="Helvetica,sans-Serif" font-size="10.00">+</text>
<text text-anchor="start" x="279.39" y="-726.5" font-family="Helvetica,sans-Serif" font-size="10.00">VerifyStateVariables()</text>
<text text-anchor="start" x="266.39" y="-711.5" font-family="Helvetica,sans-Serif" font-size="10.00">+</text>
<text text-anchor="start" x="279.39" y="-711.5" font-family="Helvetica,sans-Serif" font-size="10.00">SetDefaultInitialConditions()</text>
<text text-anchor="start" x="279.39" y="-696.5" font-family="Helvetica,sans-Serif" font-size="10.00">and 13 more...</text>
<text text-anchor="start" x="266.39" y="-681.5" font-family="Helvetica,sans-Serif" font-size="10.00">#</text>
<text text-anchor="start" x="279.39" y="-681.5" font-family="Helvetica,sans-Serif" font-size="10.00">DumpState()</text>
<text text-anchor="start" x="266.39" y="-666.5" font-family="Helvetica,sans-Serif" font-size="10.00">#</text>
<text text-anchor="start" x="279.39" y="-666.5" font-family="Helvetica,sans-Serif" font-size="10.00">DumpState()</text>
<text text-anchor="start" x="266.39" y="-651.5" font-family="Helvetica,sans-Serif" font-size="10.00">#</text>
<text text-anchor="start" x="279.39" y="-651.5" font-family="Helvetica,sans-Serif" font-size="10.00">DumpState()</text>
<text text-anchor="start" x="266.39" y="-636.5" font-family="Helvetica,sans-Serif" font-size="10.00">#</text>
<text text-anchor="start" x="279.39" y="-636.5" font-family="Helvetica,sans-Serif" font-size="10.00">CheckParametersOnLoad()</text>
<text text-anchor="start" x="268.89" y="-621.5" font-family="Helvetica,sans-Serif" font-size="10.00">&#45;</text>
<text text-anchor="start" x="279.39" y="-621.5" font-family="Helvetica,sans-Serif" font-size="10.00">GetStateMessage()</text>
<polygon fill="#666666" stroke="#666666" points="262.39,-871.5 262.39,-871.5 439.39,-871.5 439.39,-871.5 262.39,-871.5"/>
<polygon fill="#666666" stroke="#666666" points="262.39,-856.5 262.39,-856.5 439.39,-856.5 439.39,-856.5 262.39,-856.5"/>
<polygon fill="none" stroke="#666666" points="261.89,-615 261.89,-900 438.89,-900 438.89,-615 261.89,-615"/>
</a>
</g>
</g>
<!-- Node4&#45;&gt;Node3 -->
<g id="edge3_Node000003_Node000004" class="edge">
<title>Node4&#45;&gt;Node3</title>
<g id="a_edge3_Node000003_Node000004"><a xlink:title=" ">
<path fill="none" stroke="#63b8ff" d="M344.21,-604.84C343.38,-584.45 342.55,-564.17 341.79,-545.57"/>
<polygon fill="none" stroke="#63b8ff" points="340.71,-605.01 344.62,-614.86 347.71,-604.72 340.71,-605.01"/>
</a>
</g>
</g>
<!-- Node5 -->
<g id="Node000005" class="node">
<title>Node5</title>
<g id="a_Node000005"><a xlink:href="classAbstractUntemplatedParameterisedSystem.html" target="_top" xlink:title=" ">
<polygon fill="white" stroke="transparent" points="560.89,-1533 355.89,-1533 355.89,-1301 560.89,-1301 560.89,-1533"/>
<text text-anchor="start" x="371.39" y="-1521" font-family="Helvetica,sans-Serif" font-size="10.00">AbstractUntemplatedParameterised</text>
<text text-anchor="start" x="440.39" y="-1510" font-family="Helvetica,sans-Serif" font-size="10.00">System</text>
<text text-anchor="start" x="456.89" y="-1495" font-family="Helvetica,sans-Serif" font-size="10.00"> </text>
<text text-anchor="start" x="360.39" y="-1480" font-family="Helvetica,sans-Serif" font-size="10.00">+</text>
<text text-anchor="start" x="373.39" y="-1480" font-family="Helvetica,sans-Serif" font-size="10.00">AbstractUntemplatedParameterised</text>
<text text-anchor="start" x="373.39" y="-1469" font-family="Helvetica,sans-Serif" font-size="10.00">System()</text>
<text text-anchor="start" x="360.39" y="-1454" font-family="Helvetica,sans-Serif" font-size="10.00">+</text>
<text text-anchor="start" x="373.39" y="-1454" font-family="Helvetica,sans-Serif" font-size="10.00">~AbstractUntemplatedParameterised</text>
<text text-anchor="start" x="373.39" y="-1443" font-family="Helvetica,sans-Serif" font-size="10.00">System()</text>
<text text-anchor="start" x="360.39" y="-1428" font-family="Helvetica,sans-Serif" font-size="10.00">+</text>
<text text-anchor="start" x="373.39" y="-1428" font-family="Helvetica,sans-Serif" font-size="10.00">GetSystemInformation()</text>
<text text-anchor="start" x="360.39" y="-1413" font-family="Helvetica,sans-Serif" font-size="10.00">+</text>
<text text-anchor="start" x="373.39" y="-1413" font-family="Helvetica,sans-Serif" font-size="10.00">GetSystemName()</text>
<text text-anchor="start" x="360.39" y="-1398" font-family="Helvetica,sans-Serif" font-size="10.00">+</text>
<text text-anchor="start" x="373.39" y="-1398" font-family="Helvetica,sans-Serif" font-size="10.00">GetNumberOfAttributes()</text>
<text text-anchor="start" x="360.39" y="-1383" font-family="Helvetica,sans-Serif" font-size="10.00">+</text>
<text text-anchor="start" x="373.39" y="-1383" font-family="Helvetica,sans-Serif" font-size="10.00">HasAttribute()</text>
<text text-anchor="start" x="360.39" y="-1368" font-family="Helvetica,sans-Serif" font-size="10.00">+</text>
<text text-anchor="start" x="373.39" y="-1368" font-family="Helvetica,sans-Serif" font-size="10.00">GetAttribute()</text>
<text text-anchor="start" x="360.39" y="-1353" font-family="Helvetica,sans-Serif" font-size="10.00">+</text>
<text text-anchor="start" x="373.39" y="-1353" font-family="Helvetica,sans-Serif" font-size="10.00">GetNumberOfStateVariables()</text>
<text text-anchor="start" x="360.39" y="-1338" font-family="Helvetica,sans-Serif" font-size="10.00">+</text>
<text text-anchor="start" x="373.39" y="-1338" font-family="Helvetica,sans-Serif" font-size="10.00">rGetStateVariableNames()</text>
<text text-anchor="start" x="360.39" y="-1323" font-family="Helvetica,sans-Serif" font-size="10.00">+</text>
<text text-anchor="start" x="373.39" y="-1323" font-family="Helvetica,sans-Serif" font-size="10.00">rGetStateVariableUnits()</text>
<text text-anchor="start" x="373.39" y="-1308" font-family="Helvetica,sans-Serif" font-size="10.00">and 20 more...</text>
<polygon fill="#666666" stroke="#666666" points="356.39,-1505 356.39,-1505 561.39,-1505 561.39,-1505 356.39,-1505"/>
<polygon fill="#666666" stroke="#666666" points="356.39,-1490 356.39,-1490 561.39,-1490 561.39,-1490 356.39,-1490"/>
<polygon fill="none" stroke="#666666" points="355.89,-1301 355.89,-1533 560.89,-1533 560.89,-1301 355.89,-1301"/>
</a>
</g>
</g>
<!-- Node5&#45;&gt;Node4 -->
<g id="edge4_Node000004_Node000005" class="edge">
<title>Node5&#45;&gt;Node4</title>
<g id="a_edge4_Node000004_Node000005"><a xlink:title=" ">
<path fill="none" stroke="#63b8ff" d="M471.92,-1290.71C478.95,-1188.38 479.82,-1041.07 444.39,-918 442.7,-912.13 440.74,-906.26 438.57,-900.41"/>
<polygon fill="none" stroke="#63b8ff" points="468.42,-1290.55 471.19,-1300.78 475.4,-1291.06 468.42,-1290.55"/>
</a>
</g>
</g>
<!-- Node9 -->
<g id="Node000009" class="node">
<title>Node9</title>
<g id="a_Node000009"><a xlink:href="classAbstractParameterisedSystem.html" target="_top" xlink:title=" ">
<polygon fill="white" stroke="transparent" points="399.89,-1243 222.89,-1243 222.89,-958 399.89,-958 399.89,-1243"/>
<text text-anchor="start" x="237.89" y="-1230.5" font-family="Helvetica,sans-Serif" font-size="10.00">AbstractParameterisedSystem</text>
<text text-anchor="start" x="280.39" y="-1219.5" font-family="Helvetica,sans-Serif" font-size="10.00">&lt; VECTOR &gt;</text>
<text text-anchor="start" x="309.89" y="-1204.5" font-family="Helvetica,sans-Serif" font-size="10.00"> </text>
<text text-anchor="start" x="227.39" y="-1189.5" font-family="Helvetica,sans-Serif" font-size="10.00">+</text>
<text text-anchor="start" x="240.39" y="-1189.5" font-family="Helvetica,sans-Serif" font-size="10.00">AbstractParameterisedSystem()</text>
<text text-anchor="start" x="227.39" y="-1174.5" font-family="Helvetica,sans-Serif" font-size="10.00">+</text>
<text text-anchor="start" x="240.39" y="-1174.5" font-family="Helvetica,sans-Serif" font-size="10.00">rGetStateVariables()</text>
<text text-anchor="start" x="227.39" y="-1159.5" font-family="Helvetica,sans-Serif" font-size="10.00">+</text>
<text text-anchor="start" x="240.39" y="-1159.5" font-family="Helvetica,sans-Serif" font-size="10.00">GetStateVariables()</text>
<text text-anchor="start" x="227.39" y="-1144.5" font-family="Helvetica,sans-Serif" font-size="10.00">+</text>
<text text-anchor="start" x="240.39" y="-1144.5" font-family="Helvetica,sans-Serif" font-size="10.00">SetStateVariables()</text>
<text text-anchor="start" x="227.39" y="-1129.5" font-family="Helvetica,sans-Serif" font-size="10.00">+</text>
<text text-anchor="start" x="240.39" y="-1129.5" font-family="Helvetica,sans-Serif" font-size="10.00">GetStateVariable()</text>
<text text-anchor="start" x="227.39" y="-1114.5" font-family="Helvetica,sans-Serif" font-size="10.00">+</text>
<text text-anchor="start" x="240.39" y="-1114.5" font-family="Helvetica,sans-Serif" font-size="10.00">GetStateVariable()</text>
<text text-anchor="start" x="227.39" y="-1099.5" font-family="Helvetica,sans-Serif" font-size="10.00">+</text>
<text text-anchor="start" x="240.39" y="-1099.5" font-family="Helvetica,sans-Serif" font-size="10.00">SetStateVariable()</text>
<text text-anchor="start" x="227.39" y="-1084.5" font-family="Helvetica,sans-Serif" font-size="10.00">+</text>
<text text-anchor="start" x="240.39" y="-1084.5" font-family="Helvetica,sans-Serif" font-size="10.00">SetStateVariable()</text>
<text text-anchor="start" x="227.39" y="-1069.5" font-family="Helvetica,sans-Serif" font-size="10.00">+</text>
<text text-anchor="start" x="240.39" y="-1069.5" font-family="Helvetica,sans-Serif" font-size="10.00">VerifyStateVariables()</text>
<text text-anchor="start" x="227.39" y="-1054.5" font-family="Helvetica,sans-Serif" font-size="10.00">+</text>
<text text-anchor="start" x="240.39" y="-1054.5" font-family="Helvetica,sans-Serif" font-size="10.00">SetDefaultInitialConditions()</text>
<text text-anchor="start" x="240.39" y="-1039.5" font-family="Helvetica,sans-Serif" font-size="10.00">and 13 more...</text>
<text text-anchor="start" x="227.39" y="-1024.5" font-family="Helvetica,sans-Serif" font-size="10.00">#</text>
<text text-anchor="start" x="240.39" y="-1024.5" font-family="Helvetica,sans-Serif" font-size="10.00">DumpState()</text>
<text text-anchor="start" x="227.39" y="-1009.5" font-family="Helvetica,sans-Serif" font-size="10.00">#</text>
<text text-anchor="start" x="240.39" y="-1009.5" font-family="Helvetica,sans-Serif" font-size="10.00">DumpState()</text>
<text text-anchor="start" x="227.39" y="-994.5" font-family="Helvetica,sans-Serif" font-size="10.00">#</text>
<text text-anchor="start" x="240.39" y="-994.5" font-family="Helvetica,sans-Serif" font-size="10.00">DumpState()</text>
<text text-anchor="start" x="227.39" y="-979.5" font-family="Helvetica,sans-Serif" font-size="10.00">#</text>
<text text-anchor="start" x="240.39" y="-979.5" font-family="Helvetica,sans-Serif" font-size="10.00">CheckParametersOnLoad()</text>
<text text-anchor="start" x="229.89" y="-964.5" font-family="Helvetica,sans-Serif" font-size="10.00">&#45;</text>
<text text-anchor="start" x="240.39" y="-964.5" font-family="Helvetica,sans-Serif" font-size="10.00">GetStateMessage()</text>
<polygon fill="#666666" stroke="#666666" points="223.39,-1214.5 223.39,-1214.5 400.39,-1214.5 400.39,-1214.5 223.39,-1214.5"/>
<polygon fill="#666666" stroke="#666666" points="223.39,-1199.5 223.39,-1199.5 400.39,-1199.5 400.39,-1199.5 223.39,-1199.5"/>
<polygon fill="none" stroke="#666666" points="222.89,-958 222.89,-1243 399.89,-1243 399.89,-958 222.89,-958"/>
</a>
</g>
</g>
<!-- Node5&#45;&gt;Node9 -->
<g id="edge9_Node000009_Node000005" class="edge">
<title>Node5&#45;&gt;Node9</title>
<g id="a_edge9_Node000009_Node000005"><a xlink:title=" ">
<path fill="none" stroke="#63b8ff" d="M417.3,-1291.23C413.18,-1280.9 408.86,-1270.71 404.39,-1261 401.71,-1255.18 398.88,-1249.29 395.94,-1243.39"/>
<polygon fill="none" stroke="#63b8ff" points="414.12,-1292.7 421.02,-1300.74 420.64,-1290.15 414.12,-1292.7"/>
</a>
</g>
</g>
<!-- Node6 -->
<g id="Node000006" class="node">
<title>Node6</title>
<g id="a_Node000006"><a xlink:href="classunsigned.html" target="_top" xlink:title=" ">
<polygon fill="white" stroke="transparent" points="402.89,-1634.5 347.89,-1634.5 347.89,-1585.5 402.89,-1585.5 402.89,-1634.5"/>
<text text-anchor="start" x="353.39" y="-1622" font-family="Helvetica,sans-Serif" font-size="10.00">unsigned</text>
<text text-anchor="start" x="373.89" y="-1607" font-family="Helvetica,sans-Serif" font-size="10.00"> </text>
<text text-anchor="start" x="373.89" y="-1592" font-family="Helvetica,sans-Serif" font-size="10.00"> </text>
<polygon fill="#bfbfbf" stroke="#bfbfbf" points="348.39,-1617 348.39,-1617 403.39,-1617 403.39,-1617 348.39,-1617"/>
<polygon fill="#bfbfbf" stroke="#bfbfbf" points="348.39,-1602 348.39,-1602 403.39,-1602 403.39,-1602 348.39,-1602"/>
<polygon fill="none" stroke="#bfbfbf" points="347.89,-1585.5 347.89,-1634.5 402.89,-1634.5 402.89,-1585.5 347.89,-1585.5"/>
</a>
</g>
</g>
<!-- Node6&#45;&gt;Node5 -->
<g id="edge5_Node000005_Node000006" class="edge">
<title>Node6&#45;&gt;Node5</title>
<g id="a_edge5_Node000005_Node000006"><a xlink:title=" ">
<path fill="none" stroke="#63b8ff" d="M370.64,-1585.44C369.37,-1574.73 369.14,-1562.02 372.39,-1551 373.02,-1548.87 373.69,-1546.74 374.41,-1544.61"/>
<polygon fill="none" stroke="#63b8ff" points="374.44,-1544.53 372.79,-1537.51 378.64,-1533.29 380.29,-1540.31 374.44,-1544.53"/>
</a>
</g>
<text text-anchor="middle" x="443.39" y="-1554" font-family="Helvetica,sans-Serif" font-size="10.00" fill="grey"> #mNumberOfStateVariables</text>
</g>
<!-- Node7 -->
<g id="Node000007" class="node">
<title>Node7</title>
<g id="a_Node000007"><a xlink:title=" ">
<polygon fill="white" stroke="transparent" points="625.39,-1640 455.39,-1640 455.39,-1580 625.39,-1580 625.39,-1640"/>
<text text-anchor="start" x="460.39" y="-1628" font-family="Helvetica,sans-Serif" font-size="10.00">shared_ptr&lt; AbstractOdeSystem</text>
<text text-anchor="start" x="505.89" y="-1617" font-family="Helvetica,sans-Serif" font-size="10.00">Information &gt;</text>
<text text-anchor="start" x="538.39" y="-1602" font-family="Helvetica,sans-Serif" font-size="10.00"> </text>
<text text-anchor="start" x="538.39" y="-1587" font-family="Helvetica,sans-Serif" font-size="10.00"> </text>
<polygon fill="#bfbfbf" stroke="#bfbfbf" points="455.39,-1612 455.39,-1612 625.39,-1612 625.39,-1612 455.39,-1612"/>
<polygon fill="#bfbfbf" stroke="#bfbfbf" points="455.39,-1597 455.39,-1597 625.39,-1597 625.39,-1597 455.39,-1597"/>
<polygon fill="none" stroke="#bfbfbf" points="455.39,-1580 455.39,-1640 625.39,-1640 625.39,-1580 455.39,-1580"/>
</a>
</g>
</g>
<!-- Node7&#45;&gt;Node5 -->
<g id="edge6_Node000005_Node000007" class="edge">
<title>Node7&#45;&gt;Node5</title>
<g id="a_edge6_Node000005_Node000007"><a xlink:title=" ">
<path fill="none" stroke="#63b8ff" d="M529.77,-1579.95C526.26,-1570.65 522.27,-1560.35 518.39,-1551 517.48,-1548.81 516.56,-1546.6 515.62,-1544.37"/>
<polygon fill="none" stroke="#63b8ff" points="515.55,-1544.2 509.52,-1540.24 510.86,-1533.15 516.88,-1537.11 515.55,-1544.2"/>
</a>
</g>
<text text-anchor="middle" x="562.89" y="-1554" font-family="Helvetica,sans-Serif" font-size="10.00" fill="grey"> #mpSystemInfo</text>
</g>
<!-- Node8 -->
<g id="Node000008" class="node">
<title>Node8</title>
<g id="a_Node000008"><a xlink:title=" ">
<polygon fill="white" stroke="transparent" points="170.89,-1125 73.89,-1125 73.89,-1076 170.89,-1076 170.89,-1125"/>
<text text-anchor="start" x="79.39" y="-1112.5" font-family="Helvetica,sans-Serif" font-size="10.00">vector&lt; double &gt;</text>
<text text-anchor="start" x="120.89" y="-1097.5" font-family="Helvetica,sans-Serif" font-size="10.00"> </text>
<text text-anchor="start" x="120.89" y="-1082.5" font-family="Helvetica,sans-Serif" font-size="10.00"> </text>
<polygon fill="#bfbfbf" stroke="#bfbfbf" points="74.39,-1107.5 74.39,-1107.5 171.39,-1107.5 171.39,-1107.5 74.39,-1107.5"/>
<polygon fill="#bfbfbf" stroke="#bfbfbf" points="74.39,-1092.5 74.39,-1092.5 171.39,-1092.5 171.39,-1092.5 74.39,-1092.5"/>
<polygon fill="none" stroke="#bfbfbf" points="73.89,-1076 73.89,-1125 170.89,-1125 170.89,-1076 73.89,-1076"/>
</a>
</g>
</g>
<!-- Node8&#45;&gt;Node2 -->
<g id="edge13_Node000002_Node000008" class="edge">
<title>Node8&#45;&gt;Node2</title>
<g id="a_edge13_Node000002_Node000008"><a xlink:title=" ">
<path fill="none" stroke="#63b8ff" d="M111.18,-1075.72C66.23,-976.56 -90.77,-590.18 73.39,-354 110.25,-300.97 178.92,-274.97 236.3,-262.23"/>
<polygon fill="none" stroke="#63b8ff" points="236.61,-262.16 241.66,-257.02 248.35,-259.71 243.3,-264.85 236.61,-262.16"/>
</a>
</g>
<text text-anchor="middle" x="73.39" y="-589" font-family="Helvetica,sans-Serif" font-size="10.00" fill="grey"> #mTemporaryStateVariables</text>
</g>
<!-- Node8&#45;&gt;Node4 -->
<g id="edge7_Node000004_Node000008" class="edge">
<title>Node8&#45;&gt;Node4</title>
<g id="a_edge7_Node000004_Node000008"><a xlink:title=" ">
<path fill="none" stroke="#63b8ff" d="M130.13,-1075.88C143.25,-1038.73 172.84,-965.94 217.39,-918 227.72,-906.89 235.25,-910.3 246.39,-900 248.69,-897.87 250.97,-895.69 253.24,-893.45"/>
<polygon fill="none" stroke="#63b8ff" points="253.49,-893.19 254.82,-886.11 261.87,-884.61 260.55,-891.69 253.49,-893.19"/>
</a>
</g>
<text text-anchor="middle" x="261.89" y="-932" font-family="Helvetica,sans-Serif" font-size="10.00" fill="grey"> #mParameters</text>
<text text-anchor="middle" x="261.89" y="-921" font-family="Helvetica,sans-Serif" font-size="10.00" fill="grey">#mStateVariables</text>
</g>
<!-- Node9&#45;&gt;Node4 -->
<g id="edge8_Node000004_Node000009" class="edge">
<title>Node9&#45;&gt;Node4</title>
<g id="a_edge8_Node000004_Node000009"><a xlink:title=" ">
<path fill="none" stroke="orange" d="M308.7,-947.57C309.35,-937.55 310.23,-927.62 311.39,-918 312.09,-912.2 312.93,-906.3 313.87,-900.37"/>
<polygon fill="orange" stroke="orange" points="305.2,-947.43 308.12,-957.62 312.19,-947.83 305.2,-947.43"/>
</a>
</g>
<text text-anchor="middle" x="377.89" y="-926.5" font-family="Helvetica,sans-Serif" font-size="10.00" fill="grey"> &lt; std::vector&lt; double &gt; &gt;</text>
</g>
<!-- Node10 -->
<g id="Node000010" class="node">
<title>Node10</title>
<g id="a_Node000010"><a xlink:title=" ">
<polygon fill="white" stroke="transparent" points="336.39,-1441.5 286.39,-1441.5 286.39,-1392.5 336.39,-1392.5 336.39,-1441.5"/>
<text text-anchor="start" x="291.39" y="-1429" font-family="Helvetica,sans-Serif" font-size="10.00">VECTOR</text>
<text text-anchor="start" x="309.39" y="-1414" font-family="Helvetica,sans-Serif" font-size="10.00"> </text>
<text text-anchor="start" x="309.39" y="-1399" font-family="Helvetica,sans-Serif" font-size="10.00"> </text>
<polygon fill="#bfbfbf" stroke="#bfbfbf" points="286.39,-1424 286.39,-1424 336.39,-1424 336.39,-1424 286.39,-1424"/>
<polygon fill="#bfbfbf" stroke="#bfbfbf" points="286.39,-1409 286.39,-1409 336.39,-1409 336.39,-1409 286.39,-1409"/>
<polygon fill="none" stroke="#bfbfbf" points="286.39,-1392.5 286.39,-1441.5 336.39,-1441.5 336.39,-1392.5 286.39,-1392.5"/>
</a>
</g>
</g>
<!-- Node10&#45;&gt;Node9 -->
<g id="edge10_Node000009_Node000010" class="edge">
<title>Node10&#45;&gt;Node9</title>
<g id="a_edge10_Node000009_Node000010"><a xlink:title=" ">
<path fill="none" stroke="#63b8ff" d="M311.39,-1392.36C311.39,-1362.55 311.39,-1308.7 311.39,-1255.38"/>
<polygon fill="none" stroke="#63b8ff" points="311.39,-1255.3 307.39,-1249.3 311.39,-1243.3 315.39,-1249.3 311.39,-1255.3"/>
</a>
</g>
<text text-anchor="middle" x="355.89" y="-1275" font-family="Helvetica,sans-Serif" font-size="10.00" fill="grey"> #mParameters</text>
<text text-anchor="middle" x="355.89" y="-1264" font-family="Helvetica,sans-Serif" font-size="10.00" fill="grey">#mStateVariables</text>
</g>
<!-- Node11 -->
<g id="Node000011" class="node">
<title>Node11</title>
<g id="a_Node000011"><a xlink:href="classbool.html" target="_top" xlink:title=" ">
<polygon fill="white" stroke="transparent" points="237.39,-782 205.39,-782 205.39,-733 237.39,-733 237.39,-782"/>
<text text-anchor="start" x="210.39" y="-769.5" font-family="Helvetica,sans-Serif" font-size="10.00">bool</text>
<text text-anchor="start" x="219.39" y="-754.5" font-family="Helvetica,sans-Serif" font-size="10.00"> </text>
<text text-anchor="start" x="219.39" y="-739.5" font-family="Helvetica,sans-Serif" font-size="10.00"> </text>
<polygon fill="#bfbfbf" stroke="#bfbfbf" points="205.39,-764.5 205.39,-764.5 237.39,-764.5 237.39,-764.5 205.39,-764.5"/>
<polygon fill="#bfbfbf" stroke="#bfbfbf" points="205.39,-749.5 205.39,-749.5 237.39,-749.5 237.39,-749.5 205.39,-749.5"/>
<polygon fill="none" stroke="#bfbfbf" points="205.39,-733 205.39,-782 237.39,-782 237.39,-733 205.39,-733"/>
</a>
</g>
</g>
<!-- Node11&#45;&gt;Node3 -->
<g id="edge11_Node000003_Node000011" class="edge">
<title>Node11&#45;&gt;Node3</title>
<g id="a_edge11_Node000003_Node000011"><a xlink:title=" ">
<path fill="none" stroke="#63b8ff" d="M213.72,-732.91C203.88,-697.94 191.22,-631.58 219.39,-586 228.79,-570.78 241.54,-579.32 255.39,-568 260.48,-563.84 265.45,-559.32 270.27,-554.56"/>
<polygon fill="none" stroke="#63b8ff" points="270.44,-554.39 271.73,-547.29 278.78,-545.76 277.48,-552.86 270.44,-554.39"/>
</a>
</g>
<text text-anchor="middle" x="279.89" y="-589" font-family="Helvetica,sans-Serif" font-size="10.00" fill="grey"> #mUseAnalyticJacobian</text>
</g>
<!-- Node12 -->
<g id="Node000012" class="node">
<title>Node12</title>
<g id="a_Node000012"><a xlink:href="classAbstractContractionModel.html" target="_top" xlink:title=" ">
<polygon fill="white" stroke="transparent" points="246.39,-568 82.39,-568 82.39,-354 246.39,-354 246.39,-568"/>
<text text-anchor="start" x="100.89" y="-556" font-family="Helvetica,sans-Serif" font-size="10.00">AbstractContractionModel</text>
<text text-anchor="start" x="162.39" y="-541" font-family="Helvetica,sans-Serif" font-size="10.00"> </text>
<text text-anchor="start" x="86.39" y="-526" font-family="Helvetica,sans-Serif" font-size="10.00">+</text>
<text text-anchor="start" x="99.39" y="-526" font-family="Helvetica,sans-Serif" font-size="10.00">AbstractContractionModel()</text>
<text text-anchor="start" x="86.39" y="-511" font-family="Helvetica,sans-Serif" font-size="10.00">+</text>
<text text-anchor="start" x="99.39" y="-511" font-family="Helvetica,sans-Serif" font-size="10.00">~AbstractContractionModel()</text>
<text text-anchor="start" x="86.39" y="-496" font-family="Helvetica,sans-Serif" font-size="10.00">+</text>
<text text-anchor="start" x="99.39" y="-496" font-family="Helvetica,sans-Serif" font-size="10.00">IsStretchDependent()</text>
<text text-anchor="start" x="86.39" y="-481" font-family="Helvetica,sans-Serif" font-size="10.00">+</text>
<text text-anchor="start" x="99.39" y="-481" font-family="Helvetica,sans-Serif" font-size="10.00">IsStretchRateDependent()</text>
<text text-anchor="start" x="86.39" y="-466" font-family="Helvetica,sans-Serif" font-size="10.00">+</text>
<text text-anchor="start" x="99.39" y="-466" font-family="Helvetica,sans-Serif" font-size="10.00">SetInputParameters()</text>
<text text-anchor="start" x="86.39" y="-451" font-family="Helvetica,sans-Serif" font-size="10.00">+</text>
<text text-anchor="start" x="99.39" y="-451" font-family="Helvetica,sans-Serif" font-size="10.00">SetStretchAndStretchRate()</text>
<text text-anchor="start" x="86.39" y="-436" font-family="Helvetica,sans-Serif" font-size="10.00">+</text>
<text text-anchor="start" x="99.39" y="-436" font-family="Helvetica,sans-Serif" font-size="10.00">SetStretch()</text>
<text text-anchor="start" x="86.39" y="-421" font-family="Helvetica,sans-Serif" font-size="10.00">+</text>
<text text-anchor="start" x="99.39" y="-421" font-family="Helvetica,sans-Serif" font-size="10.00">RunDoNotUpdate()</text>
<text text-anchor="start" x="86.39" y="-406" font-family="Helvetica,sans-Serif" font-size="10.00">+</text>
<text text-anchor="start" x="99.39" y="-406" font-family="Helvetica,sans-Serif" font-size="10.00">RunAndUpdate()</text>
<text text-anchor="start" x="86.39" y="-391" font-family="Helvetica,sans-Serif" font-size="10.00">+</text>
<text text-anchor="start" x="99.39" y="-391" font-family="Helvetica,sans-Serif" font-size="10.00">UpdateStateVariables()</text>
<text text-anchor="start" x="86.39" y="-376" font-family="Helvetica,sans-Serif" font-size="10.00">+</text>
<text text-anchor="start" x="99.39" y="-376" font-family="Helvetica,sans-Serif" font-size="10.00">GetActiveTension()</text>
<text text-anchor="start" x="86.39" y="-361" font-family="Helvetica,sans-Serif" font-size="10.00">+</text>
<text text-anchor="start" x="99.39" y="-361" font-family="Helvetica,sans-Serif" font-size="10.00">GetNextActiveTension()</text>
<polygon fill="#666666" stroke="#666666" points="82.39,-551 82.39,-551 246.39,-551 246.39,-551 82.39,-551"/>
<polygon fill="#666666" stroke="#666666" points="82.39,-536 82.39,-536 246.39,-536 246.39,-536 82.39,-536"/>
<polygon fill="none" stroke="#666666" points="82.39,-354 82.39,-568 246.39,-568 246.39,-354 82.39,-354"/>
</a>
</g>
</g>
<!-- Node12&#45;&gt;Node2 -->
<g id="edge12_Node000002_Node000012" class="edge">
<title>Node12&#45;&gt;Node2</title>
<g id="a_edge12_Node000002_Node000012"><a xlink:title=" ">
<path fill="none" stroke="#63b8ff" d="M252.9,-349.36C264.55,-334.79 276.09,-320.37 286.61,-307.22"/>
<polygon fill="none" stroke="#63b8ff" points="249.93,-347.47 246.42,-357.46 255.4,-351.84 249.93,-347.47"/>
</a>
</g>
</g>
<!-- Node13 -->
<g id="Node000013" class="node">
<title>Node13</title>
<g id="a_Node000013"><a xlink:href="classdouble.html" target="_top" xlink:title=" ">
<polygon fill="white" stroke="transparent" points="474.39,-485.5 430.39,-485.5 430.39,-436.5 474.39,-436.5 474.39,-485.5"/>
<text text-anchor="start" x="435.39" y="-473" font-family="Helvetica,sans-Serif" font-size="10.00">double</text>
<text text-anchor="start" x="450.39" y="-458" font-family="Helvetica,sans-Serif" font-size="10.00"> </text>
<text text-anchor="start" x="450.39" y="-443" font-family="Helvetica,sans-Serif" font-size="10.00"> </text>
<polygon fill="#bfbfbf" stroke="#bfbfbf" points="430.39,-468 430.39,-468 474.39,-468 474.39,-468 430.39,-468"/>
<polygon fill="#bfbfbf" stroke="#bfbfbf" points="430.39,-453 430.39,-453 474.39,-453 474.39,-453 430.39,-453"/>
<polygon fill="none" stroke="#bfbfbf" points="430.39,-436.5 430.39,-485.5 474.39,-485.5 474.39,-436.5 430.39,-436.5"/>
</a>
</g>
</g>
<!-- Node13&#45;&gt;Node1 -->
<g id="edge15_Node000001_Node000013" class="edge">
<title>Node13&#45;&gt;Node1</title>
<g id="a_edge15_Node000001_Node000013"><a xlink:title=" ">
<path fill="none" stroke="#63b8ff" d="M451.48,-436.4C449.35,-389.33 442.82,-280.61 425.39,-191 423.8,-182.82 421.88,-174.38 419.77,-165.96"/>
<polygon fill="none" stroke="#63b8ff" points="419.71,-165.73 414.33,-160.94 416.68,-154.12 422.07,-158.92 419.71,-165.73"/>
</a>
</g>
<text text-anchor="middle" x="482.89" y="-257.5" font-family="Helvetica,sans-Serif" font-size="10.00" fill="grey"> &#45;e0ByT0</text>
<text text-anchor="middle" x="482.89" y="-246.5" font-family="Helvetica,sans-Serif" font-size="10.00" fill="grey">&#45;kTa</text>
<text text-anchor="middle" x="482.89" y="-235.5" font-family="Helvetica,sans-Serif" font-size="10.00" fill="grey">&#45;mScaledVoltage</text>
</g>
<!-- Node13&#45;&gt;Node2 -->
<g id="edge14_Node000002_Node000013" class="edge">
<title>Node13&#45;&gt;Node2</title>
<g id="a_edge14_Node000002_Node000013"><a xlink:title=" ">
<path fill="none" stroke="#63b8ff" d="M450.36,-436.33C447.33,-413.28 439.84,-378.27 421.39,-354 412.21,-341.92 403.4,-346.44 392.39,-336 386.35,-330.28 380.56,-323.86 375.11,-317.18"/>
<polygon fill="none" stroke="#63b8ff" points="374.76,-316.72 367.92,-314.43 367.4,-307.24 374.24,-309.53 374.76,-316.72"/>
</a>
</g>
<text text-anchor="middle" x="415.39" y="-328" font-family="Helvetica,sans-Serif" font-size="10.00" fill="grey"> #mTime</text>
</g>
</g>
</svg>
