<?xml version="1.0" encoding="UTF-8" standalone="no"?>
<!DOCTYPE svg PUBLIC "-//W3C//DTD SVG 1.1//EN"
 "http://www.w3.org/Graphics/SVG/1.1/DTD/svg11.dtd">
<!-- Generated by graphviz version 2.43.0 (0)
 -->
<!-- Title: AbstractVariableSizeTwoBodyInteractionForce&lt; ELEMENT_DIM, SPACE_DIM &gt; Pages: 1 -->
<svg width="947pt" height="1836pt"
 viewBox="0.00 0.00 946.50 1836.00" xmlns="http://www.w3.org/2000/svg" xmlns:xlink="http://www.w3.org/1999/xlink">
<g id="graph0" class="graph" transform="scale(1 1) rotate(0) translate(4 1832)">
<title>AbstractVariableSizeTwoBodyInteractionForce&lt; ELEMENT_DIM, SPACE_DIM &gt;</title>
<!-- Node1 -->
<g id="Node000001" class="node">
<title>Node1</title>
<g id="a_Node000001"><a xlink:title=" ">
<polygon fill="#999999" stroke="transparent" points="547.5,-1260 345.5,-1260 345.5,-924 547.5,-924 547.5,-1260"/>
<text text-anchor="start" x="374" y="-1248" font-family="Helvetica,sans-Serif" font-size="10.00">AbstractVariableSizeTwoBody</text>
<text text-anchor="start" x="374" y="-1237" font-family="Helvetica,sans-Serif" font-size="10.00">InteractionForce&lt; ELEMENT</text>
<text text-anchor="start" x="397.5" y="-1226" font-family="Helvetica,sans-Serif" font-size="10.00">_DIM, SPACE_DIM &gt;</text>
<text text-anchor="start" x="349.5" y="-1211" font-family="Helvetica,sans-Serif" font-size="10.00">#</text>
<text text-anchor="start" x="362.5" y="-1211" font-family="Helvetica,sans-Serif" font-size="10.00">mSpringStiffness</text>
<text text-anchor="start" x="349.5" y="-1196" font-family="Helvetica,sans-Serif" font-size="10.00">#</text>
<text text-anchor="start" x="362.5" y="-1196" font-family="Helvetica,sans-Serif" font-size="10.00">mDivisionRestingSpringLength</text>
<text text-anchor="start" x="349.5" y="-1181" font-family="Helvetica,sans-Serif" font-size="10.00">#</text>
<text text-anchor="start" x="362.5" y="-1181" font-family="Helvetica,sans-Serif" font-size="10.00">mSpringGrowthDuration</text>
<text text-anchor="start" x="349.5" y="-1166" font-family="Helvetica,sans-Serif" font-size="10.00">+</text>
<text text-anchor="start" x="362.5" y="-1166" font-family="Helvetica,sans-Serif" font-size="10.00">AbstractVariableSizeTwoBody</text>
<text text-anchor="start" x="362.5" y="-1155" font-family="Helvetica,sans-Serif" font-size="10.00">InteractionForce()</text>
<text text-anchor="start" x="349.5" y="-1140" font-family="Helvetica,sans-Serif" font-size="10.00">+</text>
<text text-anchor="start" x="362.5" y="-1140" font-family="Helvetica,sans-Serif" font-size="10.00">~AbstractVariableSizeTwo</text>
<text text-anchor="start" x="362.5" y="-1129" font-family="Helvetica,sans-Serif" font-size="10.00">BodyInteractionForce()</text>
<text text-anchor="start" x="349.5" y="-1114" font-family="Helvetica,sans-Serif" font-size="10.00">+</text>
<text text-anchor="start" x="362.5" y="-1114" font-family="Helvetica,sans-Serif" font-size="10.00">VariableSpringConstantMultiplication</text>
<text text-anchor="start" x="362.5" y="-1103" font-family="Helvetica,sans-Serif" font-size="10.00">Factor()</text>
<text text-anchor="start" x="349.5" y="-1088" font-family="Helvetica,sans-Serif" font-size="10.00">+</text>
<text text-anchor="start" x="362.5" y="-1088" font-family="Helvetica,sans-Serif" font-size="10.00">CalculateForceBetweenNodes()</text>
<text text-anchor="start" x="349.5" y="-1073" font-family="Helvetica,sans-Serif" font-size="10.00">+</text>
<text text-anchor="start" x="362.5" y="-1073" font-family="Helvetica,sans-Serif" font-size="10.00">CalculateLinkInteraction()</text>
<text text-anchor="start" x="349.5" y="-1058" font-family="Helvetica,sans-Serif" font-size="10.00">+</text>
<text text-anchor="start" x="362.5" y="-1058" font-family="Helvetica,sans-Serif" font-size="10.00">GetSpringStiffness()</text>
<text text-anchor="start" x="349.5" y="-1043" font-family="Helvetica,sans-Serif" font-size="10.00">+</text>
<text text-anchor="start" x="362.5" y="-1043" font-family="Helvetica,sans-Serif" font-size="10.00">GetDivisionRestingSpring</text>
<text text-anchor="start" x="362.5" y="-1032" font-family="Helvetica,sans-Serif" font-size="10.00">Length()</text>
<text text-anchor="start" x="349.5" y="-1017" font-family="Helvetica,sans-Serif" font-size="10.00">+</text>
<text text-anchor="start" x="362.5" y="-1017" font-family="Helvetica,sans-Serif" font-size="10.00">GetSpringGrowthDuration()</text>
<text text-anchor="start" x="349.5" y="-1002" font-family="Helvetica,sans-Serif" font-size="10.00">+</text>
<text text-anchor="start" x="362.5" y="-1002" font-family="Helvetica,sans-Serif" font-size="10.00">SetSpringStiffness()</text>
<text text-anchor="start" x="349.5" y="-987" font-family="Helvetica,sans-Serif" font-size="10.00">+</text>
<text text-anchor="start" x="362.5" y="-987" font-family="Helvetica,sans-Serif" font-size="10.00">SetDivisionRestingSpring</text>
<text text-anchor="start" x="362.5" y="-976" font-family="Helvetica,sans-Serif" font-size="10.00">Length()</text>
<text text-anchor="start" x="349.5" y="-961" font-family="Helvetica,sans-Serif" font-size="10.00">+</text>
<text text-anchor="start" x="362.5" y="-961" font-family="Helvetica,sans-Serif" font-size="10.00">SetSpringGrowthDuration()</text>
<text text-anchor="start" x="349.5" y="-946" font-family="Helvetica,sans-Serif" font-size="10.00">+</text>
<text text-anchor="start" x="362.5" y="-946" font-family="Helvetica,sans-Serif" font-size="10.00">OutputForceParameters()</text>
<text text-anchor="start" x="352" y="-931" font-family="Helvetica,sans-Serif" font-size="10.00">&#45;</text>
<text text-anchor="start" x="362.5" y="-931" font-family="Helvetica,sans-Serif" font-size="10.00">serialize()</text>
<polygon fill="#666666" stroke="#666666" points="345.5,-1221 345.5,-1221 547.5,-1221 547.5,-1221 345.5,-1221"/>
<polygon fill="#666666" stroke="#666666" points="345.5,-1176 345.5,-1176 360.5,-1176 360.5,-1176 345.5,-1176"/>
<polygon fill="#666666" stroke="#666666" points="360.5,-1176 360.5,-1176 547.5,-1176 547.5,-1176 360.5,-1176"/>
<polygon fill="none" stroke="#666666" points="345.5,-924 345.5,-1260 547.5,-1260 547.5,-924 345.5,-924"/>
</a>
</g>
</g>
<!-- Node5 -->
<g id="Node000005" class="node">
<title>Node5</title>
<g id="a_Node000005"><a xlink:href="classLinearSpringForce.html" target="_top" xlink:title=" ">
<polygon fill="white" stroke="transparent" points="164.5,-752.5 16.5,-752.5 16.5,-643.5 164.5,-643.5 164.5,-752.5"/>
<text text-anchor="start" x="32.5" y="-740" font-family="Helvetica,sans-Serif" font-size="10.00">LinearSpringForce&lt; 2 &gt;</text>
<text text-anchor="start" x="88.5" y="-725" font-family="Helvetica,sans-Serif" font-size="10.00"> </text>
<text text-anchor="start" x="20.5" y="-710" font-family="Helvetica,sans-Serif" font-size="10.00">+</text>
<text text-anchor="start" x="33.5" y="-710" font-family="Helvetica,sans-Serif" font-size="10.00">LinearSpringForce()</text>
<text text-anchor="start" x="20.5" y="-695" font-family="Helvetica,sans-Serif" font-size="10.00">+</text>
<text text-anchor="start" x="33.5" y="-695" font-family="Helvetica,sans-Serif" font-size="10.00">~LinearSpringForce()</text>
<text text-anchor="start" x="20.5" y="-680" font-family="Helvetica,sans-Serif" font-size="10.00">+</text>
<text text-anchor="start" x="33.5" y="-680" font-family="Helvetica,sans-Serif" font-size="10.00">OutputForceParameters()</text>
<text text-anchor="start" x="20.5" y="-665" font-family="Helvetica,sans-Serif" font-size="10.00">#</text>
<text text-anchor="start" x="33.5" y="-665" font-family="Helvetica,sans-Serif" font-size="10.00">CalculateLinkInteraction()</text>
<text text-anchor="start" x="23" y="-650" font-family="Helvetica,sans-Serif" font-size="10.00">&#45;</text>
<text text-anchor="start" x="33.5" y="-650" font-family="Helvetica,sans-Serif" font-size="10.00">serialize()</text>
<polygon fill="#666666" stroke="#666666" points="16.5,-735 16.5,-735 164.5,-735 164.5,-735 16.5,-735"/>
<polygon fill="#666666" stroke="#666666" points="16.5,-720 16.5,-720 164.5,-720 164.5,-720 16.5,-720"/>
<polygon fill="none" stroke="#666666" points="16.5,-643.5 16.5,-752.5 164.5,-752.5 164.5,-643.5 16.5,-643.5"/>
</a>
</g>
</g>
<!-- Node1&#45;&gt;Node5 -->
<g id="edge4_Node000001_Node000005" class="edge">
<title>Node1&#45;&gt;Node5</title>
<g id="a_edge4_Node000001_Node000005"><a xlink:title=" ">
<path fill="none" stroke="#63b8ff" d="M337.11,-1017.62C283.04,-977.46 219.65,-924.09 173.5,-866 146.31,-831.78 124.72,-787.21 110.38,-752.72"/>
<polygon fill="none" stroke="#63b8ff" points="335.24,-1020.59 345.36,-1023.7 339.39,-1014.95 335.24,-1020.59"/>
</a>
</g>
</g>
<!-- Node7 -->
<g id="Node000007" class="node">
<title>Node7</title>
<g id="a_Node000007"><a xlink:href="classLinearSpringForce.html" target="_top" xlink:title=" ">
<polygon fill="white" stroke="transparent" points="354.5,-758 182.5,-758 182.5,-638 354.5,-638 354.5,-758"/>
<text text-anchor="start" x="187.5" y="-746" font-family="Helvetica,sans-Serif" font-size="10.00">LinearSpringForce&lt;</text>
<text text-anchor="start" x="187.5" y="-735" font-family="Helvetica,sans-Serif" font-size="10.00"> ELEMENT_DIM, ELEMENT_DIM &gt;</text>
<text text-anchor="start" x="266.5" y="-720" font-family="Helvetica,sans-Serif" font-size="10.00"> </text>
<text text-anchor="start" x="192.5" y="-705" font-family="Helvetica,sans-Serif" font-size="10.00">+</text>
<text text-anchor="start" x="211.5" y="-705" font-family="Helvetica,sans-Serif" font-size="10.00">LinearSpringForce()</text>
<text text-anchor="start" x="192.5" y="-690" font-family="Helvetica,sans-Serif" font-size="10.00">+</text>
<text text-anchor="start" x="211.5" y="-690" font-family="Helvetica,sans-Serif" font-size="10.00">~LinearSpringForce()</text>
<text text-anchor="start" x="192.5" y="-675" font-family="Helvetica,sans-Serif" font-size="10.00">+</text>
<text text-anchor="start" x="211.5" y="-675" font-family="Helvetica,sans-Serif" font-size="10.00">OutputForceParameters()</text>
<text text-anchor="start" x="192.5" y="-660" font-family="Helvetica,sans-Serif" font-size="10.00">#</text>
<text text-anchor="start" x="211.5" y="-660" font-family="Helvetica,sans-Serif" font-size="10.00">CalculateLinkInteraction()</text>
<text text-anchor="start" x="195" y="-645" font-family="Helvetica,sans-Serif" font-size="10.00">&#45;</text>
<text text-anchor="start" x="211.5" y="-645" font-family="Helvetica,sans-Serif" font-size="10.00">serialize()</text>
<polygon fill="#666666" stroke="#666666" points="182.5,-730 182.5,-730 354.5,-730 354.5,-730 182.5,-730"/>
<polygon fill="#666666" stroke="#666666" points="182.5,-715 182.5,-715 354.5,-715 354.5,-715 182.5,-715"/>
<polygon fill="none" stroke="#666666" points="182.5,-638 182.5,-758 354.5,-758 354.5,-638 182.5,-638"/>
</a>
</g>
</g>
<!-- Node1&#45;&gt;Node7 -->
<g id="edge6_Node000001_Node000007" class="edge">
<title>Node1&#45;&gt;Node7</title>
<g id="a_edge6_Node000001_Node000007"><a xlink:title=" ">
<path fill="none" stroke="#63b8ff" d="M359.66,-914.55C334,-858.43 308.11,-800.15 290.45,-758.36"/>
<polygon fill="none" stroke="#63b8ff" points="356.59,-916.27 363.94,-923.9 362.96,-913.35 356.59,-916.27"/>
</a>
</g>
</g>
<!-- Node1&#45;&gt;Node7 -->
<g id="edge10_Node000001_Node000007" class="edge">
<title>Node1&#45;&gt;Node7</title>
<g id="a_edge10_Node000001_Node000007"><a xlink:title=" ">
<path fill="none" stroke="#63b8ff" d="M373.1,-914.55C347.79,-858.43 320.75,-800.15 300.46,-758.36"/>
<polygon fill="none" stroke="#63b8ff" points="370.01,-916.22 377.31,-923.9 376.39,-913.35 370.01,-916.22"/>
</a>
</g>
</g>
<!-- Node8 -->
<g id="Node000008" class="node">
<title>Node8</title>
<g id="a_Node000008"><a xlink:href="classLinearSpringForce.html" target="_top" xlink:title=" ">
<polygon fill="white" stroke="transparent" points="520.5,-758 372.5,-758 372.5,-638 520.5,-638 520.5,-758"/>
<text text-anchor="start" x="398.5" y="-746" font-family="Helvetica,sans-Serif" font-size="10.00">LinearSpringForce&lt;</text>
<text text-anchor="start" x="429.5" y="-735" font-family="Helvetica,sans-Serif" font-size="10.00"> DIM &gt;</text>
<text text-anchor="start" x="444.5" y="-720" font-family="Helvetica,sans-Serif" font-size="10.00"> </text>
<text text-anchor="start" x="376.5" y="-705" font-family="Helvetica,sans-Serif" font-size="10.00">+</text>
<text text-anchor="start" x="389.5" y="-705" font-family="Helvetica,sans-Serif" font-size="10.00">LinearSpringForce()</text>
<text text-anchor="start" x="376.5" y="-690" font-family="Helvetica,sans-Serif" font-size="10.00">+</text>
<text text-anchor="start" x="389.5" y="-690" font-family="Helvetica,sans-Serif" font-size="10.00">~LinearSpringForce()</text>
<text text-anchor="start" x="376.5" y="-675" font-family="Helvetica,sans-Serif" font-size="10.00">+</text>
<text text-anchor="start" x="389.5" y="-675" font-family="Helvetica,sans-Serif" font-size="10.00">OutputForceParameters()</text>
<text text-anchor="start" x="376.5" y="-660" font-family="Helvetica,sans-Serif" font-size="10.00">#</text>
<text text-anchor="start" x="389.5" y="-660" font-family="Helvetica,sans-Serif" font-size="10.00">CalculateLinkInteraction()</text>
<text text-anchor="start" x="379" y="-645" font-family="Helvetica,sans-Serif" font-size="10.00">&#45;</text>
<text text-anchor="start" x="389.5" y="-645" font-family="Helvetica,sans-Serif" font-size="10.00">serialize()</text>
<polygon fill="#666666" stroke="#666666" points="372.5,-730 372.5,-730 520.5,-730 520.5,-730 372.5,-730"/>
<polygon fill="#666666" stroke="#666666" points="372.5,-715 372.5,-715 520.5,-715 520.5,-715 372.5,-715"/>
<polygon fill="none" stroke="#666666" points="372.5,-638 372.5,-758 520.5,-758 520.5,-638 372.5,-638"/>
</a>
</g>
</g>
<!-- Node1&#45;&gt;Node8 -->
<g id="edge7_Node000001_Node000008" class="edge">
<title>Node1&#45;&gt;Node8</title>
<g id="a_edge7_Node000001_Node000008"><a xlink:title=" ">
<path fill="none" stroke="#63b8ff" d="M446.5,-913.86C446.5,-857.95 446.5,-799.98 446.5,-758.36"/>
<polygon fill="none" stroke="#63b8ff" points="443,-913.9 446.5,-923.9 450,-913.9 443,-913.9"/>
</a>
</g>
</g>
<!-- Node10 -->
<g id="Node000010" class="node">
<title>Node10</title>
<g id="a_Node000010"><a xlink:href="classPathmanathanInteractionForce.html" target="_top" xlink:title=" ">
<polygon fill="white" stroke="transparent" points="718.5,-778.5 538.5,-778.5 538.5,-617.5 718.5,-617.5 718.5,-778.5"/>
<text text-anchor="start" x="543.5" y="-766" font-family="Helvetica,sans-Serif" font-size="10.00">PathmanathanInteractionForce</text>
<text text-anchor="start" x="543.5" y="-755" font-family="Helvetica,sans-Serif" font-size="10.00">&lt; ELEMENT_DIM, ELEMENT_DIM &gt;</text>
<text text-anchor="start" x="543" y="-740" font-family="Helvetica,sans-Serif" font-size="10.00">#</text>
<text text-anchor="start" x="556.5" y="-740" font-family="Helvetica,sans-Serif" font-size="10.00">mAlpha</text>
<text text-anchor="start" x="543" y="-725" font-family="Helvetica,sans-Serif" font-size="10.00">+</text>
<text text-anchor="start" x="556.5" y="-725" font-family="Helvetica,sans-Serif" font-size="10.00">PathmanathanInteractionForce()</text>
<text text-anchor="start" x="543" y="-710" font-family="Helvetica,sans-Serif" font-size="10.00">+</text>
<text text-anchor="start" x="556.5" y="-710" font-family="Helvetica,sans-Serif" font-size="10.00">~PathmanathanInteraction</text>
<text text-anchor="start" x="556.5" y="-699" font-family="Helvetica,sans-Serif" font-size="10.00">Force()</text>
<text text-anchor="start" x="543" y="-684" font-family="Helvetica,sans-Serif" font-size="10.00">+</text>
<text text-anchor="start" x="556.5" y="-684" font-family="Helvetica,sans-Serif" font-size="10.00">GetAlpha()</text>
<text text-anchor="start" x="543" y="-669" font-family="Helvetica,sans-Serif" font-size="10.00">+</text>
<text text-anchor="start" x="556.5" y="-669" font-family="Helvetica,sans-Serif" font-size="10.00">SetAlpha()</text>
<text text-anchor="start" x="543" y="-654" font-family="Helvetica,sans-Serif" font-size="10.00">+</text>
<text text-anchor="start" x="556.5" y="-654" font-family="Helvetica,sans-Serif" font-size="10.00">OutputForceParameters()</text>
<text text-anchor="start" x="543" y="-639" font-family="Helvetica,sans-Serif" font-size="10.00">#</text>
<text text-anchor="start" x="556.5" y="-639" font-family="Helvetica,sans-Serif" font-size="10.00">CalculateLinkInteraction()</text>
<text text-anchor="start" x="545.5" y="-624" font-family="Helvetica,sans-Serif" font-size="10.00">&#45;</text>
<text text-anchor="start" x="556.5" y="-624" font-family="Helvetica,sans-Serif" font-size="10.00">serialize()</text>
<polygon fill="#666666" stroke="#666666" points="538.5,-750 538.5,-750 718.5,-750 718.5,-750 538.5,-750"/>
<polygon fill="#666666" stroke="#666666" points="538.5,-735 538.5,-735 554.5,-735 554.5,-735 538.5,-735"/>
<polygon fill="#666666" stroke="#666666" points="554.5,-735 554.5,-735 718.5,-735 718.5,-735 554.5,-735"/>
<polygon fill="none" stroke="#666666" points="538.5,-617.5 538.5,-778.5 718.5,-778.5 718.5,-617.5 538.5,-617.5"/>
</a>
</g>
</g>
<!-- Node1&#45;&gt;Node10 -->
<g id="edge9_Node000001_Node000010" class="edge">
<title>Node1&#45;&gt;Node10</title>
<g id="a_edge9_Node000001_Node000010"><a xlink:title=" ">
<path fill="none" stroke="#63b8ff" d="M521.62,-914.72C543.57,-867.13 566.78,-817.97 585.98,-778.63"/>
<polygon fill="none" stroke="#63b8ff" points="518.4,-913.36 517.4,-923.9 524.76,-916.28 518.4,-913.36"/>
</a>
</g>
</g>
<!-- Node1&#45;&gt;Node10 -->
<g id="edge11_Node000001_Node000010" class="edge">
<title>Node1&#45;&gt;Node10</title>
<g id="a_edge11_Node000001_Node000010"><a xlink:title=" ">
<path fill="none" stroke="#63b8ff" d="M535.06,-914.72C557.31,-867.13 579.74,-817.97 597.09,-778.63"/>
<polygon fill="none" stroke="#63b8ff" points="531.83,-913.36 530.76,-923.9 538.17,-916.33 531.83,-913.36"/>
</a>
</g>
</g>
<!-- Node11 -->
<g id="Node000011" class="node">
<title>Node11</title>
<g id="a_Node000011"><a xlink:href="classAbstractVariableSizeTwoBodyInteractionForce.html" target="_top" xlink:title=" ">
<polygon fill="white" stroke="transparent" points="938.5,-866 736.5,-866 736.5,-530 938.5,-530 938.5,-866"/>
<text text-anchor="start" x="765" y="-854" font-family="Helvetica,sans-Serif" font-size="10.00">AbstractVariableSizeTwoBody</text>
<text text-anchor="start" x="765" y="-843" font-family="Helvetica,sans-Serif" font-size="10.00">InteractionForce&lt; ELEMENT</text>
<text text-anchor="start" x="781" y="-832" font-family="Helvetica,sans-Serif" font-size="10.00">_DIM, ELEMENT_DIM &gt;</text>
<text text-anchor="start" x="740.5" y="-817" font-family="Helvetica,sans-Serif" font-size="10.00">#</text>
<text text-anchor="start" x="753.5" y="-817" font-family="Helvetica,sans-Serif" font-size="10.00">mSpringStiffness</text>
<text text-anchor="start" x="740.5" y="-802" font-family="Helvetica,sans-Serif" font-size="10.00">#</text>
<text text-anchor="start" x="753.5" y="-802" font-family="Helvetica,sans-Serif" font-size="10.00">mDivisionRestingSpringLength</text>
<text text-anchor="start" x="740.5" y="-787" font-family="Helvetica,sans-Serif" font-size="10.00">#</text>
<text text-anchor="start" x="753.5" y="-787" font-family="Helvetica,sans-Serif" font-size="10.00">mSpringGrowthDuration</text>
<text text-anchor="start" x="740.5" y="-772" font-family="Helvetica,sans-Serif" font-size="10.00">+</text>
<text text-anchor="start" x="753.5" y="-772" font-family="Helvetica,sans-Serif" font-size="10.00">AbstractVariableSizeTwoBody</text>
<text text-anchor="start" x="753.5" y="-761" font-family="Helvetica,sans-Serif" font-size="10.00">InteractionForce()</text>
<text text-anchor="start" x="740.5" y="-746" font-family="Helvetica,sans-Serif" font-size="10.00">+</text>
<text text-anchor="start" x="753.5" y="-746" font-family="Helvetica,sans-Serif" font-size="10.00">~AbstractVariableSizeTwo</text>
<text text-anchor="start" x="753.5" y="-735" font-family="Helvetica,sans-Serif" font-size="10.00">BodyInteractionForce()</text>
<text text-anchor="start" x="740.5" y="-720" font-family="Helvetica,sans-Serif" font-size="10.00">+</text>
<text text-anchor="start" x="753.5" y="-720" font-family="Helvetica,sans-Serif" font-size="10.00">VariableSpringConstantMultiplication</text>
<text text-anchor="start" x="753.5" y="-709" font-family="Helvetica,sans-Serif" font-size="10.00">Factor()</text>
<text text-anchor="start" x="740.5" y="-694" font-family="Helvetica,sans-Serif" font-size="10.00">+</text>
<text text-anchor="start" x="753.5" y="-694" font-family="Helvetica,sans-Serif" font-size="10.00">CalculateForceBetweenNodes()</text>
<text text-anchor="start" x="740.5" y="-679" font-family="Helvetica,sans-Serif" font-size="10.00">+</text>
<text text-anchor="start" x="753.5" y="-679" font-family="Helvetica,sans-Serif" font-size="10.00">CalculateLinkInteraction()</text>
<text text-anchor="start" x="740.5" y="-664" font-family="Helvetica,sans-Serif" font-size="10.00">+</text>
<text text-anchor="start" x="753.5" y="-664" font-family="Helvetica,sans-Serif" font-size="10.00">GetSpringStiffness()</text>
<text text-anchor="start" x="740.5" y="-649" font-family="Helvetica,sans-Serif" font-size="10.00">+</text>
<text text-anchor="start" x="753.5" y="-649" font-family="Helvetica,sans-Serif" font-size="10.00">GetDivisionRestingSpring</text>
<text text-anchor="start" x="753.5" y="-638" font-family="Helvetica,sans-Serif" font-size="10.00">Length()</text>
<text text-anchor="start" x="740.5" y="-623" font-family="Helvetica,sans-Serif" font-size="10.00">+</text>
<text text-anchor="start" x="753.5" y="-623" font-family="Helvetica,sans-Serif" font-size="10.00">GetSpringGrowthDuration()</text>
<text text-anchor="start" x="740.5" y="-608" font-family="Helvetica,sans-Serif" font-size="10.00">+</text>
<text text-anchor="start" x="753.5" y="-608" font-family="Helvetica,sans-Serif" font-size="10.00">SetSpringStiffness()</text>
<text text-anchor="start" x="740.5" y="-593" font-family="Helvetica,sans-Serif" font-size="10.00">+</text>
<text text-anchor="start" x="753.5" y="-593" font-family="Helvetica,sans-Serif" font-size="10.00">SetDivisionRestingSpring</text>
<text text-anchor="start" x="753.5" y="-582" font-family="Helvetica,sans-Serif" font-size="10.00">Length()</text>
<text text-anchor="start" x="740.5" y="-567" font-family="Helvetica,sans-Serif" font-size="10.00">+</text>
<text text-anchor="start" x="753.5" y="-567" font-family="Helvetica,sans-Serif" font-size="10.00">SetSpringGrowthDuration()</text>
<text text-anchor="start" x="740.5" y="-552" font-family="Helvetica,sans-Serif" font-size="10.00">+</text>
<text text-anchor="start" x="753.5" y="-552" font-family="Helvetica,sans-Serif" font-size="10.00">OutputForceParameters()</text>
<text text-anchor="start" x="743" y="-537" font-family="Helvetica,sans-Serif" font-size="10.00">&#45;</text>
<text text-anchor="start" x="753.5" y="-537" font-family="Helvetica,sans-Serif" font-size="10.00">serialize()</text>
<polygon fill="#666666" stroke="#666666" points="736.5,-827 736.5,-827 938.5,-827 938.5,-827 736.5,-827"/>
<polygon fill="#666666" stroke="#666666" points="736.5,-782 736.5,-782 751.5,-782 751.5,-782 736.5,-782"/>
<polygon fill="#666666" stroke="#666666" points="751.5,-782 751.5,-782 938.5,-782 938.5,-782 751.5,-782"/>
<polygon fill="none" stroke="#666666" points="736.5,-530 736.5,-866 938.5,-866 938.5,-530 736.5,-530"/>
</a>
</g>
</g>
<!-- Node1&#45;&gt;Node11 -->
<g id="edge12_Node000001_Node000011" class="edge">
<title>Node1&#45;&gt;Node11</title>
<g id="a_edge12_Node000001_Node000011"><a xlink:title=" ">
<path fill="none" stroke="orange" d="M555.97,-1015.95C610.96,-975.25 676.55,-921.91 727.5,-866 730.42,-862.79 733.32,-859.5 736.2,-856.14"/>
<polygon fill="orange" stroke="orange" points="553.57,-1013.37 547.59,-1022.11 557.72,-1019.01 553.57,-1013.37"/>
</a>
</g>
<text text-anchor="start" x="706.5" y="-898" font-family="Helvetica,sans-Serif" font-size="10.00" fill="grey"> &lt; ELEMENT_DIM, ELEMENT</text>
<text text-anchor="middle" x="775" y="-887" font-family="Helvetica,sans-Serif" font-size="10.00" fill="grey">_DIM &gt;</text>
</g>
<!-- Node2 -->
<g id="Node000002" class="node">
<title>Node2</title>
<g id="a_Node000002"><a xlink:href="classAbstractTwoBodyInteractionForce.html" target="_top" xlink:title=" ">
<polygon fill="white" stroke="transparent" points="542,-1514 351,-1514 351,-1297 542,-1297 542,-1514"/>
<text text-anchor="start" x="356.5" y="-1501.5" font-family="Helvetica,sans-Serif" font-size="10.00">AbstractTwoBodyInteraction</text>
<text text-anchor="start" x="356.5" y="-1490.5" font-family="Helvetica,sans-Serif" font-size="10.00">Force&lt; ELEMENT_DIM, SPACE_DIM &gt;</text>
<text text-anchor="start" x="359.5" y="-1475.5" font-family="Helvetica,sans-Serif" font-size="10.00">#</text>
<text text-anchor="start" x="376.5" y="-1475.5" font-family="Helvetica,sans-Serif" font-size="10.00">mUseCutOffLength</text>
<text text-anchor="start" x="359.5" y="-1460.5" font-family="Helvetica,sans-Serif" font-size="10.00">#</text>
<text text-anchor="start" x="376.5" y="-1460.5" font-family="Helvetica,sans-Serif" font-size="10.00">mMechanicsCutOffLength</text>
<text text-anchor="start" x="359.5" y="-1445.5" font-family="Helvetica,sans-Serif" font-size="10.00">+</text>
<text text-anchor="start" x="376.5" y="-1445.5" font-family="Helvetica,sans-Serif" font-size="10.00">AbstractTwoBodyInteraction</text>
<text text-anchor="start" x="376.5" y="-1434.5" font-family="Helvetica,sans-Serif" font-size="10.00">Force()</text>
<text text-anchor="start" x="359.5" y="-1419.5" font-family="Helvetica,sans-Serif" font-size="10.00">+</text>
<text text-anchor="start" x="376.5" y="-1419.5" font-family="Helvetica,sans-Serif" font-size="10.00">GetUseCutOffLength()</text>
<text text-anchor="start" x="359.5" y="-1404.5" font-family="Helvetica,sans-Serif" font-size="10.00">+</text>
<text text-anchor="start" x="376.5" y="-1404.5" font-family="Helvetica,sans-Serif" font-size="10.00">SetCutOffLength()</text>
<text text-anchor="start" x="359.5" y="-1389.5" font-family="Helvetica,sans-Serif" font-size="10.00">+</text>
<text text-anchor="start" x="376.5" y="-1389.5" font-family="Helvetica,sans-Serif" font-size="10.00">GetCutOffLength()</text>
<text text-anchor="start" x="359.5" y="-1374.5" font-family="Helvetica,sans-Serif" font-size="10.00">+</text>
<text text-anchor="start" x="376.5" y="-1374.5" font-family="Helvetica,sans-Serif" font-size="10.00">CalculateForceBetweenNodes()</text>
<text text-anchor="start" x="359.5" y="-1359.5" font-family="Helvetica,sans-Serif" font-size="10.00">+</text>
<text text-anchor="start" x="376.5" y="-1359.5" font-family="Helvetica,sans-Serif" font-size="10.00">AddForceContribution()</text>
<text text-anchor="start" x="359.5" y="-1344.5" font-family="Helvetica,sans-Serif" font-size="10.00">+</text>
<text text-anchor="start" x="376.5" y="-1344.5" font-family="Helvetica,sans-Serif" font-size="10.00">OutputForceParameters()</text>
<text text-anchor="start" x="359.5" y="-1329.5" font-family="Helvetica,sans-Serif" font-size="10.00">+</text>
<text text-anchor="start" x="376.5" y="-1329.5" font-family="Helvetica,sans-Serif" font-size="10.00">WriteDataToVisualizerSetup</text>
<text text-anchor="start" x="376.5" y="-1318.5" font-family="Helvetica,sans-Serif" font-size="10.00">File()</text>
<text text-anchor="start" x="362" y="-1303.5" font-family="Helvetica,sans-Serif" font-size="10.00">&#45;</text>
<text text-anchor="start" x="376.5" y="-1303.5" font-family="Helvetica,sans-Serif" font-size="10.00">serialize()</text>
<polygon fill="#666666" stroke="#666666" points="351.5,-1485.5 351.5,-1485.5 542.5,-1485.5 542.5,-1485.5 351.5,-1485.5"/>
<polygon fill="#666666" stroke="#666666" points="351.5,-1455.5 351.5,-1455.5 374.5,-1455.5 374.5,-1455.5 351.5,-1455.5"/>
<polygon fill="#666666" stroke="#666666" points="374.5,-1455.5 374.5,-1455.5 542.5,-1455.5 542.5,-1455.5 374.5,-1455.5"/>
<polygon fill="none" stroke="#666666" points="351,-1297 351,-1514 542,-1514 542,-1297 351,-1297"/>
</a>
</g>
</g>
<!-- Node2&#45;&gt;Node1 -->
<g id="edge1_Node000001_Node000002" class="edge">
<title>Node2&#45;&gt;Node1</title>
<g id="a_edge1_Node000001_Node000002"><a xlink:title=" ">
<path fill="none" stroke="#63b8ff" d="M446.5,-1286.68C446.5,-1277.93 446.5,-1269.02 446.5,-1260.05"/>
<polygon fill="none" stroke="#63b8ff" points="443,-1286.86 446.5,-1296.86 450,-1286.86 443,-1286.86"/>
</a>
</g>
</g>
<!-- Node3 -->
<g id="Node000003" class="node">
<title>Node3</title>
<g id="a_Node000003"><a xlink:href="classAbstractForce.html" target="_top" xlink:title=" ">
<polygon fill="white" stroke="transparent" points="525,-1712 368,-1712 368,-1551 525,-1551 525,-1712"/>
<text text-anchor="start" x="385" y="-1699.5" font-family="Helvetica,sans-Serif" font-size="10.00">AbstractForce&lt; ELEMENT</text>
<text text-anchor="start" x="398" y="-1688.5" font-family="Helvetica,sans-Serif" font-size="10.00">_DIM, SPACE_DIM &gt;</text>
<text text-anchor="start" x="445" y="-1673.5" font-family="Helvetica,sans-Serif" font-size="10.00"> </text>
<text text-anchor="start" x="372.5" y="-1658.5" font-family="Helvetica,sans-Serif" font-size="10.00">+</text>
<text text-anchor="start" x="385.5" y="-1658.5" font-family="Helvetica,sans-Serif" font-size="10.00">AbstractForce()</text>
<text text-anchor="start" x="372.5" y="-1643.5" font-family="Helvetica,sans-Serif" font-size="10.00">+</text>
<text text-anchor="start" x="385.5" y="-1643.5" font-family="Helvetica,sans-Serif" font-size="10.00">~AbstractForce()</text>
<text text-anchor="start" x="372.5" y="-1628.5" font-family="Helvetica,sans-Serif" font-size="10.00">+</text>
<text text-anchor="start" x="385.5" y="-1628.5" font-family="Helvetica,sans-Serif" font-size="10.00">AddForceContribution()</text>
<text text-anchor="start" x="372.5" y="-1613.5" font-family="Helvetica,sans-Serif" font-size="10.00">+</text>
<text text-anchor="start" x="385.5" y="-1613.5" font-family="Helvetica,sans-Serif" font-size="10.00">OutputForceInfo()</text>
<text text-anchor="start" x="372.5" y="-1598.5" font-family="Helvetica,sans-Serif" font-size="10.00">+</text>
<text text-anchor="start" x="385.5" y="-1598.5" font-family="Helvetica,sans-Serif" font-size="10.00">OutputForceParameters()</text>
<text text-anchor="start" x="372.5" y="-1583.5" font-family="Helvetica,sans-Serif" font-size="10.00">+</text>
<text text-anchor="start" x="385.5" y="-1583.5" font-family="Helvetica,sans-Serif" font-size="10.00">WriteDataToVisualizerSetup</text>
<text text-anchor="start" x="385.5" y="-1572.5" font-family="Helvetica,sans-Serif" font-size="10.00">File()</text>
<text text-anchor="start" x="375" y="-1557.5" font-family="Helvetica,sans-Serif" font-size="10.00">&#45;</text>
<text text-anchor="start" x="385.5" y="-1557.5" font-family="Helvetica,sans-Serif" font-size="10.00">serialize()</text>
<polygon fill="#666666" stroke="#666666" points="368.5,-1683.5 368.5,-1683.5 525.5,-1683.5 525.5,-1683.5 368.5,-1683.5"/>
<polygon fill="#666666" stroke="#666666" points="368.5,-1668.5 368.5,-1668.5 525.5,-1668.5 525.5,-1668.5 368.5,-1668.5"/>
<polygon fill="none" stroke="#666666" points="368,-1551 368,-1712 525,-1712 525,-1551 368,-1551"/>
</a>
</g>
</g>
<!-- Node3&#45;&gt;Node2 -->
<g id="edge2_Node000002_Node000003" class="edge">
<title>Node3&#45;&gt;Node2</title>
<g id="a_edge2_Node000002_Node000003"><a xlink:title=" ">
<path fill="none" stroke="#63b8ff" d="M446.5,-1540.7C446.5,-1531.93 446.5,-1522.97 446.5,-1514.05"/>
<polygon fill="none" stroke="#63b8ff" points="443,-1540.9 446.5,-1550.9 450,-1540.9 443,-1540.9"/>
</a>
</g>
</g>
<!-- Node4 -->
<g id="Node000004" class="node">
<title>Node4</title>
<g id="a_Node000004"><a xlink:href="classIdentifiable.html" target="_top" xlink:title=" ">
<polygon fill="white" stroke="transparent" points="534.5,-1828 358.5,-1828 358.5,-1749 534.5,-1749 534.5,-1828"/>
<text text-anchor="start" x="419" y="-1815.5" font-family="Helvetica,sans-Serif" font-size="10.00">Identifiable</text>
<text text-anchor="start" x="444.5" y="-1800.5" font-family="Helvetica,sans-Serif" font-size="10.00"> </text>
<text text-anchor="start" x="362.5" y="-1785.5" font-family="Helvetica,sans-Serif" font-size="10.00">+</text>
<text text-anchor="start" x="375.5" y="-1785.5" font-family="Helvetica,sans-Serif" font-size="10.00">~Identifiable()</text>
<text text-anchor="start" x="362.5" y="-1770.5" font-family="Helvetica,sans-Serif" font-size="10.00">+</text>
<text text-anchor="start" x="375.5" y="-1770.5" font-family="Helvetica,sans-Serif" font-size="10.00">GetIdentifier()</text>
<text text-anchor="start" x="365" y="-1755.5" font-family="Helvetica,sans-Serif" font-size="10.00">&#45;</text>
<text text-anchor="start" x="375.5" y="-1755.5" font-family="Helvetica,sans-Serif" font-size="10.00">TidyTemplatedExportIdentifier()</text>
<polygon fill="#666666" stroke="#666666" points="358.5,-1810.5 358.5,-1810.5 534.5,-1810.5 534.5,-1810.5 358.5,-1810.5"/>
<polygon fill="#666666" stroke="#666666" points="358.5,-1795.5 358.5,-1795.5 534.5,-1795.5 534.5,-1795.5 358.5,-1795.5"/>
<polygon fill="none" stroke="#666666" points="358.5,-1749 358.5,-1828 534.5,-1828 534.5,-1749 358.5,-1749"/>
</a>
</g>
</g>
<!-- Node4&#45;&gt;Node3 -->
<g id="edge3_Node000003_Node000004" class="edge">
<title>Node4&#45;&gt;Node3</title>
<g id="a_edge3_Node000003_Node000004"><a xlink:title=" ">
<path fill="none" stroke="#63b8ff" d="M446.5,-1738.73C446.5,-1730.25 446.5,-1721.23 446.5,-1712.17"/>
<polygon fill="none" stroke="#63b8ff" points="443,-1738.79 446.5,-1748.79 450,-1738.79 443,-1738.79"/>
</a>
</g>
</g>
<!-- Node6 -->
<g id="Node000006" class="node">
<title>Node6</title>
<g id="a_Node000006"><a xlink:href="classCryptProjectionForce.html" target="_top" xlink:title=" ">
<polygon fill="white" stroke="transparent" points="181,-409.5 0,-409.5 0,-83.5 181,-83.5 181,-409.5"/>
<text text-anchor="start" x="40" y="-397.5" font-family="Helvetica,sans-Serif" font-size="10.00">CryptProjectionForce</text>
<text text-anchor="start" x="7" y="-382.5" font-family="Helvetica,sans-Serif" font-size="10.00">&#45;</text>
<text text-anchor="start" x="17.5" y="-382.5" font-family="Helvetica,sans-Serif" font-size="10.00">mA</text>
<text text-anchor="start" x="7" y="-367.5" font-family="Helvetica,sans-Serif" font-size="10.00">&#45;</text>
<text text-anchor="start" x="17.5" y="-367.5" font-family="Helvetica,sans-Serif" font-size="10.00">mB</text>
<text text-anchor="start" x="7" y="-352.5" font-family="Helvetica,sans-Serif" font-size="10.00">&#45;</text>
<text text-anchor="start" x="17.5" y="-352.5" font-family="Helvetica,sans-Serif" font-size="10.00">mIncludeWntChemotaxis</text>
<text text-anchor="start" x="7" y="-337.5" font-family="Helvetica,sans-Serif" font-size="10.00">&#45;</text>
<text text-anchor="start" x="17.5" y="-337.5" font-family="Helvetica,sans-Serif" font-size="10.00">mWntChemotaxisStrength</text>
<text text-anchor="start" x="7" y="-322.5" font-family="Helvetica,sans-Serif" font-size="10.00">&#45;</text>
<text text-anchor="start" x="17.5" y="-322.5" font-family="Helvetica,sans-Serif" font-size="10.00">mNode3dLocationMap</text>
<text text-anchor="start" x="4.5" y="-307.5" font-family="Helvetica,sans-Serif" font-size="10.00">+</text>
<text text-anchor="start" x="17.5" y="-307.5" font-family="Helvetica,sans-Serif" font-size="10.00">CryptProjectionForce()</text>
<text text-anchor="start" x="4.5" y="-292.5" font-family="Helvetica,sans-Serif" font-size="10.00">+</text>
<text text-anchor="start" x="17.5" y="-292.5" font-family="Helvetica,sans-Serif" font-size="10.00">~CryptProjectionForce()</text>
<text text-anchor="start" x="4.5" y="-277.5" font-family="Helvetica,sans-Serif" font-size="10.00">+</text>
<text text-anchor="start" x="17.5" y="-277.5" font-family="Helvetica,sans-Serif" font-size="10.00">GetA()</text>
<text text-anchor="start" x="4.5" y="-262.5" font-family="Helvetica,sans-Serif" font-size="10.00">+</text>
<text text-anchor="start" x="17.5" y="-262.5" font-family="Helvetica,sans-Serif" font-size="10.00">GetB()</text>
<text text-anchor="start" x="4.5" y="-247.5" font-family="Helvetica,sans-Serif" font-size="10.00">+</text>
<text text-anchor="start" x="17.5" y="-247.5" font-family="Helvetica,sans-Serif" font-size="10.00">GetWntChemotaxisStrength()</text>
<text text-anchor="start" x="4.5" y="-232.5" font-family="Helvetica,sans-Serif" font-size="10.00">+</text>
<text text-anchor="start" x="17.5" y="-232.5" font-family="Helvetica,sans-Serif" font-size="10.00">SetWntChemotaxisStrength()</text>
<text text-anchor="start" x="4.5" y="-217.5" font-family="Helvetica,sans-Serif" font-size="10.00">+</text>
<text text-anchor="start" x="17.5" y="-217.5" font-family="Helvetica,sans-Serif" font-size="10.00">SetWntChemotaxis()</text>
<text text-anchor="start" x="4.5" y="-202.5" font-family="Helvetica,sans-Serif" font-size="10.00">+</text>
<text text-anchor="start" x="17.5" y="-202.5" font-family="Helvetica,sans-Serif" font-size="10.00">CalculateCryptSurfaceHeight</text>
<text text-anchor="start" x="17.5" y="-191.5" font-family="Helvetica,sans-Serif" font-size="10.00">AtPoint()</text>
<text text-anchor="start" x="4.5" y="-176.5" font-family="Helvetica,sans-Serif" font-size="10.00">+</text>
<text text-anchor="start" x="17.5" y="-176.5" font-family="Helvetica,sans-Serif" font-size="10.00">CalculateCryptSurfaceDerivative</text>
<text text-anchor="start" x="17.5" y="-165.5" font-family="Helvetica,sans-Serif" font-size="10.00">AtPoint()</text>
<text text-anchor="start" x="4.5" y="-150.5" font-family="Helvetica,sans-Serif" font-size="10.00">+</text>
<text text-anchor="start" x="17.5" y="-150.5" font-family="Helvetica,sans-Serif" font-size="10.00">AddForceContribution()</text>
<text text-anchor="start" x="4.5" y="-135.5" font-family="Helvetica,sans-Serif" font-size="10.00">+</text>
<text text-anchor="start" x="17.5" y="-135.5" font-family="Helvetica,sans-Serif" font-size="10.00">OutputForceParameters()</text>
<text text-anchor="start" x="7" y="-120.5" font-family="Helvetica,sans-Serif" font-size="10.00">&#45;</text>
<text text-anchor="start" x="17.5" y="-120.5" font-family="Helvetica,sans-Serif" font-size="10.00">serialize()</text>
<text text-anchor="start" x="7" y="-105.5" font-family="Helvetica,sans-Serif" font-size="10.00">&#45;</text>
<text text-anchor="start" x="17.5" y="-105.5" font-family="Helvetica,sans-Serif" font-size="10.00">UpdateNode3dLocationMap()</text>
<text text-anchor="start" x="7" y="-90.5" font-family="Helvetica,sans-Serif" font-size="10.00">&#45;</text>
<text text-anchor="start" x="17.5" y="-90.5" font-family="Helvetica,sans-Serif" font-size="10.00">CalculateForceBetweenNodes()</text>
<polygon fill="#666666" stroke="#666666" points="0.5,-392.5 0.5,-392.5 181.5,-392.5 181.5,-392.5 0.5,-392.5"/>
<polygon fill="#666666" stroke="#666666" points="0.5,-317.5 0.5,-317.5 15.5,-317.5 15.5,-317.5 0.5,-317.5"/>
<polygon fill="#666666" stroke="#666666" points="15.5,-317.5 15.5,-317.5 181.5,-317.5 181.5,-317.5 15.5,-317.5"/>
<polygon fill="none" stroke="#666666" points="0,-83.5 0,-409.5 181,-409.5 181,-83.5 0,-83.5"/>
</a>
</g>
</g>
<!-- Node5&#45;&gt;Node6 -->
<g id="edge5_Node000005_Node000006" class="edge">
<title>Node5&#45;&gt;Node6</title>
<g id="a_edge5_Node000005_Node000006"><a xlink:title=" ">
<path fill="none" stroke="#63b8ff" d="M90.5,-633.1C90.5,-575.04 90.5,-486.9 90.5,-409.54"/>
<polygon fill="none" stroke="#63b8ff" points="87,-633.23 90.5,-643.23 94,-633.23 87,-633.23"/>
</a>
</g>
</g>
<!-- Node9 -->
<g id="Node000009" class="node">
<title>Node9</title>
<g id="a_Node000009"><a xlink:href="classLinearSpringWithVariableSpringConstantsForce.html" target="_top" xlink:title=" ">
<polygon fill="white" stroke="transparent" points="547.5,-493 345.5,-493 345.5,0 547.5,0 547.5,-493"/>
<text text-anchor="start" x="372.5" y="-480.5" font-family="Helvetica,sans-Serif" font-size="10.00">LinearSpringWithVariable</text>
<text text-anchor="start" x="372.5" y="-469.5" font-family="Helvetica,sans-Serif" font-size="10.00">SpringConstantsForce&lt; DIM &gt;</text>
<text text-anchor="start" x="349.5" y="-454.5" font-family="Helvetica,sans-Serif" font-size="10.00">#</text>
<text text-anchor="start" x="362.5" y="-454.5" font-family="Helvetica,sans-Serif" font-size="10.00">mUseEdgeBasedSpringConstant</text>
<text text-anchor="start" x="349.5" y="-439.5" font-family="Helvetica,sans-Serif" font-size="10.00">#</text>
<text text-anchor="start" x="362.5" y="-439.5" font-family="Helvetica,sans-Serif" font-size="10.00">mUseMutantSprings</text>
<text text-anchor="start" x="349.5" y="-424.5" font-family="Helvetica,sans-Serif" font-size="10.00">#</text>
<text text-anchor="start" x="362.5" y="-424.5" font-family="Helvetica,sans-Serif" font-size="10.00">mMutantMutantMultiplier</text>
<text text-anchor="start" x="349.5" y="-409.5" font-family="Helvetica,sans-Serif" font-size="10.00">#</text>
<text text-anchor="start" x="362.5" y="-409.5" font-family="Helvetica,sans-Serif" font-size="10.00">mNormalMutantMultiplier</text>
<text text-anchor="start" x="349.5" y="-394.5" font-family="Helvetica,sans-Serif" font-size="10.00">#</text>
<text text-anchor="start" x="362.5" y="-394.5" font-family="Helvetica,sans-Serif" font-size="10.00">mUseBCatSprings</text>
<text text-anchor="start" x="349.5" y="-379.5" font-family="Helvetica,sans-Serif" font-size="10.00">#</text>
<text text-anchor="start" x="362.5" y="-379.5" font-family="Helvetica,sans-Serif" font-size="10.00">mUseApoptoticSprings</text>
<text text-anchor="start" x="349.5" y="-364.5" font-family="Helvetica,sans-Serif" font-size="10.00">#</text>
<text text-anchor="start" x="362.5" y="-364.5" font-family="Helvetica,sans-Serif" font-size="10.00">mBetaCatSpringScaler</text>
<text text-anchor="start" x="349.5" y="-349.5" font-family="Helvetica,sans-Serif" font-size="10.00">#</text>
<text text-anchor="start" x="362.5" y="-349.5" font-family="Helvetica,sans-Serif" font-size="10.00">mApoptoticSpringTensionStiffness</text>
<text text-anchor="start" x="349.5" y="-334.5" font-family="Helvetica,sans-Serif" font-size="10.00">#</text>
<text text-anchor="start" x="362.5" y="-334.5" font-family="Helvetica,sans-Serif" font-size="10.00">mApoptoticSpringCompression</text>
<text text-anchor="start" x="362.5" y="-323.5" font-family="Helvetica,sans-Serif" font-size="10.00">Stiffness</text>
<text text-anchor="start" x="349.5" y="-308.5" font-family="Helvetica,sans-Serif" font-size="10.00">+</text>
<text text-anchor="start" x="362.5" y="-308.5" font-family="Helvetica,sans-Serif" font-size="10.00">LinearSpringWithVariable</text>
<text text-anchor="start" x="362.5" y="-297.5" font-family="Helvetica,sans-Serif" font-size="10.00">SpringConstantsForce()</text>
<text text-anchor="start" x="349.5" y="-282.5" font-family="Helvetica,sans-Serif" font-size="10.00">+</text>
<text text-anchor="start" x="362.5" y="-282.5" font-family="Helvetica,sans-Serif" font-size="10.00">~LinearSpringWithVariable</text>
<text text-anchor="start" x="362.5" y="-271.5" font-family="Helvetica,sans-Serif" font-size="10.00">SpringConstantsForce()</text>
<text text-anchor="start" x="349.5" y="-256.5" font-family="Helvetica,sans-Serif" font-size="10.00">+</text>
<text text-anchor="start" x="362.5" y="-256.5" font-family="Helvetica,sans-Serif" font-size="10.00">SetEdgeBasedSpringConstant()</text>
<text text-anchor="start" x="349.5" y="-241.5" font-family="Helvetica,sans-Serif" font-size="10.00">+</text>
<text text-anchor="start" x="362.5" y="-241.5" font-family="Helvetica,sans-Serif" font-size="10.00">SetMutantSprings()</text>
<text text-anchor="start" x="349.5" y="-226.5" font-family="Helvetica,sans-Serif" font-size="10.00">+</text>
<text text-anchor="start" x="362.5" y="-226.5" font-family="Helvetica,sans-Serif" font-size="10.00">SetBetaCateninSprings()</text>
<text text-anchor="start" x="349.5" y="-211.5" font-family="Helvetica,sans-Serif" font-size="10.00">+</text>
<text text-anchor="start" x="362.5" y="-211.5" font-family="Helvetica,sans-Serif" font-size="10.00">SetApoptoticSprings()</text>
<text text-anchor="start" x="349.5" y="-196.5" font-family="Helvetica,sans-Serif" font-size="10.00">+</text>
<text text-anchor="start" x="362.5" y="-196.5" font-family="Helvetica,sans-Serif" font-size="10.00">VariableSpringConstantMultiplication</text>
<text text-anchor="start" x="362.5" y="-185.5" font-family="Helvetica,sans-Serif" font-size="10.00">Factor()</text>
<text text-anchor="start" x="349.5" y="-170.5" font-family="Helvetica,sans-Serif" font-size="10.00">+</text>
<text text-anchor="start" x="362.5" y="-170.5" font-family="Helvetica,sans-Serif" font-size="10.00">AddForceContribution()</text>
<text text-anchor="start" x="349.5" y="-155.5" font-family="Helvetica,sans-Serif" font-size="10.00">+</text>
<text text-anchor="start" x="362.5" y="-155.5" font-family="Helvetica,sans-Serif" font-size="10.00">GetBetaCatSpringScaler()</text>
<text text-anchor="start" x="349.5" y="-140.5" font-family="Helvetica,sans-Serif" font-size="10.00">+</text>
<text text-anchor="start" x="362.5" y="-140.5" font-family="Helvetica,sans-Serif" font-size="10.00">SetBetaCatSpringScaler()</text>
<text text-anchor="start" x="349.5" y="-125.5" font-family="Helvetica,sans-Serif" font-size="10.00">+</text>
<text text-anchor="start" x="362.5" y="-125.5" font-family="Helvetica,sans-Serif" font-size="10.00">GetApoptoticSpringTension</text>
<text text-anchor="start" x="362.5" y="-114.5" font-family="Helvetica,sans-Serif" font-size="10.00">Stiffness()</text>
<text text-anchor="start" x="349.5" y="-99.5" font-family="Helvetica,sans-Serif" font-size="10.00">+</text>
<text text-anchor="start" x="362.5" y="-99.5" font-family="Helvetica,sans-Serif" font-size="10.00">SetApoptoticSpringTension</text>
<text text-anchor="start" x="362.5" y="-88.5" font-family="Helvetica,sans-Serif" font-size="10.00">Stiffness()</text>
<text text-anchor="start" x="349.5" y="-73.5" font-family="Helvetica,sans-Serif" font-size="10.00">+</text>
<text text-anchor="start" x="362.5" y="-73.5" font-family="Helvetica,sans-Serif" font-size="10.00">GetApoptoticSpringCompression</text>
<text text-anchor="start" x="362.5" y="-62.5" font-family="Helvetica,sans-Serif" font-size="10.00">Stiffness()</text>
<text text-anchor="start" x="349.5" y="-47.5" font-family="Helvetica,sans-Serif" font-size="10.00">+</text>
<text text-anchor="start" x="362.5" y="-47.5" font-family="Helvetica,sans-Serif" font-size="10.00">SetApoptoticSpringCompression</text>
<text text-anchor="start" x="362.5" y="-36.5" font-family="Helvetica,sans-Serif" font-size="10.00">Stiffness()</text>
<text text-anchor="start" x="349.5" y="-21.5" font-family="Helvetica,sans-Serif" font-size="10.00">+</text>
<text text-anchor="start" x="362.5" y="-21.5" font-family="Helvetica,sans-Serif" font-size="10.00">OutputForceParameters()</text>
<text text-anchor="start" x="352" y="-6.5" font-family="Helvetica,sans-Serif" font-size="10.00">&#45;</text>
<text text-anchor="start" x="362.5" y="-6.5" font-family="Helvetica,sans-Serif" font-size="10.00">serialize()</text>
<polygon fill="#666666" stroke="#666666" points="345.5,-464.5 345.5,-464.5 547.5,-464.5 547.5,-464.5 345.5,-464.5"/>
<polygon fill="#666666" stroke="#666666" points="345.5,-318.5 345.5,-318.5 360.5,-318.5 360.5,-318.5 345.5,-318.5"/>
<polygon fill="#666666" stroke="#666666" points="360.5,-318.5 360.5,-318.5 547.5,-318.5 547.5,-318.5 360.5,-318.5"/>
<polygon fill="none" stroke="#666666" points="345.5,0 345.5,-493 547.5,-493 547.5,0 345.5,0"/>
</a>
</g>
</g>
<!-- Node8&#45;&gt;Node9 -->
<g id="edge8_Node000008_Node000009" class="edge">
<title>Node8&#45;&gt;Node9</title>
<g id="a_edge8_Node000008_Node000009"><a xlink:title=" ">
<path fill="none" stroke="#63b8ff" d="M446.5,-627.63C446.5,-590.61 446.5,-542.57 446.5,-493.17"/>
<polygon fill="none" stroke="#63b8ff" points="443,-627.77 446.5,-637.77 450,-627.77 443,-627.77"/>
</a>
</g>
</g>
</g>
</svg>
