<?xml version="1.0" encoding="UTF-8" standalone="no"?>
<!DOCTYPE svg PUBLIC "-//W3C//DTD SVG 1.1//EN"
 "http://www.w3.org/Graphics/SVG/1.1/DTD/svg11.dtd">
<!-- Generated by graphviz version 2.43.0 (0)
 -->
<!-- Title: DistributedVector::Stripe Pages: 1 -->
<svg width="436pt" height="585pt"
 viewBox="0.00 0.00 435.57 585.00" xmlns="http://www.w3.org/2000/svg" xmlns:xlink="http://www.w3.org/1999/xlink">
<g id="graph0" class="graph" transform="scale(1 1) rotate(0) translate(4 581)">
<title>DistributedVector::Stripe</title>
<!-- Node1 -->
<g id="Node000001" class="node">
<title>Node1</title>
<g id="a_Node000001"><a xlink:title=" ">
<polygon fill="#999999" stroke="transparent" points="218.07,-105 117.07,-105 117.07,0 218.07,0 218.07,-105"/>
<text text-anchor="start" x="122.57" y="-92.5" font-family="Helvetica,sans-Serif" font-size="10.00">DistributedVector::</text>
<text text-anchor="start" x="153.57" y="-81.5" font-family="Helvetica,sans-Serif" font-size="10.00">Stripe</text>
<text text-anchor="start" x="166.07" y="-66.5" font-family="Helvetica,sans-Serif" font-size="10.00"> </text>
<text text-anchor="start" x="126.07" y="-51.5" font-family="Helvetica,sans-Serif" font-size="10.00">+</text>
<text text-anchor="start" x="143.57" y="-51.5" font-family="Helvetica,sans-Serif" font-size="10.00">Stripe()</text>
<text text-anchor="start" x="126.07" y="-36.5" font-family="Helvetica,sans-Serif" font-size="10.00">+</text>
<text text-anchor="start" x="143.57" y="-36.5" font-family="Helvetica,sans-Serif" font-size="10.00">GetFactory()</text>
<text text-anchor="start" x="126.07" y="-21.5" font-family="Helvetica,sans-Serif" font-size="10.00">+</text>
<text text-anchor="start" x="143.57" y="-21.5" font-family="Helvetica,sans-Serif" font-size="10.00">operator[]()</text>
<text text-anchor="start" x="126.07" y="-6.5" font-family="Helvetica,sans-Serif" font-size="10.00">+</text>
<text text-anchor="start" x="143.57" y="-6.5" font-family="Helvetica,sans-Serif" font-size="10.00">operator[]()</text>
<polygon fill="#666666" stroke="#666666" points="117.57,-76.5 117.57,-76.5 218.57,-76.5 218.57,-76.5 117.57,-76.5"/>
<polygon fill="#666666" stroke="#666666" points="117.57,-61.5 117.57,-61.5 218.57,-61.5 218.57,-61.5 117.57,-61.5"/>
<polygon fill="none" stroke="#666666" points="117.07,0 117.07,-105 218.07,-105 218.07,0 117.07,0"/>
</a>
</g>
</g>
<!-- Node2 -->
<g id="Node000002" class="node">
<title>Node2</title>
<g id="a_Node000002"><a xlink:href="classunsigned.html" target="_top" xlink:title=" ">
<polygon fill="white" stroke="transparent" points="74.07,-577 19.07,-577 19.07,-528 74.07,-528 74.07,-577"/>
<text text-anchor="start" x="24.57" y="-564.5" font-family="Helvetica,sans-Serif" font-size="10.00">unsigned</text>
<text text-anchor="start" x="45.07" y="-549.5" font-family="Helvetica,sans-Serif" font-size="10.00"> </text>
<text text-anchor="start" x="45.07" y="-534.5" font-family="Helvetica,sans-Serif" font-size="10.00"> </text>
<polygon fill="#bfbfbf" stroke="#bfbfbf" points="19.57,-559.5 19.57,-559.5 74.57,-559.5 74.57,-559.5 19.57,-559.5"/>
<polygon fill="#bfbfbf" stroke="#bfbfbf" points="19.57,-544.5 19.57,-544.5 74.57,-544.5 74.57,-544.5 19.57,-544.5"/>
<polygon fill="none" stroke="#bfbfbf" points="19.07,-528 19.07,-577 74.07,-577 74.07,-528 19.07,-528"/>
</a>
</g>
</g>
<!-- Node2&#45;&gt;Node1 -->
<g id="edge1_Node000001_Node000002" class="edge">
<title>Node2&#45;&gt;Node1</title>
<g id="a_edge1_Node000001_Node000002"><a xlink:title=" ">
<path fill="none" stroke="#63b8ff" d="M38.23,-527.74C17.04,-463.11 -32.68,-280.38 32.57,-152 48.19,-121.27 78.39,-97.84 106.27,-81.57"/>
<polygon fill="none" stroke="#63b8ff" points="106.34,-81.53 109.62,-75.11 116.81,-75.68 113.53,-82.1 106.34,-81.53"/>
</a>
</g>
<text text-anchor="middle" x="54.07" y="-314" font-family="Helvetica,sans-Serif" font-size="10.00" fill="grey"> &#45;mHi</text>
<text text-anchor="middle" x="54.07" y="-303" font-family="Helvetica,sans-Serif" font-size="10.00" fill="grey">&#45;mLo</text>
<text text-anchor="middle" x="54.07" y="-292" font-family="Helvetica,sans-Serif" font-size="10.00" fill="grey">&#45;mStride</text>
<text text-anchor="middle" x="54.07" y="-281" font-family="Helvetica,sans-Serif" font-size="10.00" fill="grey">&#45;mStripe</text>
</g>
<!-- Node4 -->
<g id="Node000004" class="node">
<title>Node4</title>
<g id="a_Node000004"><a xlink:href="classDistributedVectorFactory.html" target="_top" xlink:title=" ">
<polygon fill="white" stroke="transparent" points="250.57,-448 84.57,-448 84.57,-152 250.57,-152 250.57,-448"/>
<text text-anchor="start" x="107.07" y="-436" font-family="Helvetica,sans-Serif" font-size="10.00">DistributedVectorFactory</text>
<text text-anchor="start" x="165.57" y="-421" font-family="Helvetica,sans-Serif" font-size="10.00"> </text>
<text text-anchor="start" x="88.57" y="-406" font-family="Helvetica,sans-Serif" font-size="10.00">+</text>
<text text-anchor="start" x="101.57" y="-406" font-family="Helvetica,sans-Serif" font-size="10.00">DistributedVectorFactory()</text>
<text text-anchor="start" x="88.57" y="-391" font-family="Helvetica,sans-Serif" font-size="10.00">+</text>
<text text-anchor="start" x="101.57" y="-391" font-family="Helvetica,sans-Serif" font-size="10.00">DistributedVectorFactory()</text>
<text text-anchor="start" x="88.57" y="-376" font-family="Helvetica,sans-Serif" font-size="10.00">+</text>
<text text-anchor="start" x="101.57" y="-376" font-family="Helvetica,sans-Serif" font-size="10.00">DistributedVectorFactory()</text>
<text text-anchor="start" x="88.57" y="-361" font-family="Helvetica,sans-Serif" font-size="10.00">+</text>
<text text-anchor="start" x="101.57" y="-361" font-family="Helvetica,sans-Serif" font-size="10.00">DistributedVectorFactory()</text>
<text text-anchor="start" x="88.57" y="-346" font-family="Helvetica,sans-Serif" font-size="10.00">+</text>
<text text-anchor="start" x="101.57" y="-346" font-family="Helvetica,sans-Serif" font-size="10.00">~DistributedVectorFactory()</text>
<text text-anchor="start" x="88.57" y="-331" font-family="Helvetica,sans-Serif" font-size="10.00">+</text>
<text text-anchor="start" x="101.57" y="-331" font-family="Helvetica,sans-Serif" font-size="10.00">CreateVec()</text>
<text text-anchor="start" x="88.57" y="-316" font-family="Helvetica,sans-Serif" font-size="10.00">+</text>
<text text-anchor="start" x="101.57" y="-316" font-family="Helvetica,sans-Serif" font-size="10.00">CreateVec()</text>
<text text-anchor="start" x="88.57" y="-301" font-family="Helvetica,sans-Serif" font-size="10.00">+</text>
<text text-anchor="start" x="101.57" y="-301" font-family="Helvetica,sans-Serif" font-size="10.00">CreateDistributedVector()</text>
<text text-anchor="start" x="88.57" y="-286" font-family="Helvetica,sans-Serif" font-size="10.00">+</text>
<text text-anchor="start" x="101.57" y="-286" font-family="Helvetica,sans-Serif" font-size="10.00">IsGlobalIndexLocal()</text>
<text text-anchor="start" x="88.57" y="-271" font-family="Helvetica,sans-Serif" font-size="10.00">+</text>
<text text-anchor="start" x="101.57" y="-271" font-family="Helvetica,sans-Serif" font-size="10.00">GetLocalOwnership()</text>
<text text-anchor="start" x="101.57" y="-256" font-family="Helvetica,sans-Serif" font-size="10.00">and 8 more...</text>
<text text-anchor="start" x="88.57" y="-241" font-family="Helvetica,sans-Serif" font-size="10.00">+</text>
<text text-anchor="start" x="101.57" y="-241" font-family="Helvetica,sans-Serif" font-size="10.00">SetCheckNumberOfProcesses</text>
<text text-anchor="start" x="101.57" y="-230" font-family="Helvetica,sans-Serif" font-size="10.00">OnLoad()</text>
<text text-anchor="start" x="88.57" y="-215" font-family="Helvetica,sans-Serif" font-size="10.00">+</text>
<text text-anchor="start" x="101.57" y="-215" font-family="Helvetica,sans-Serif" font-size="10.00">CheckNumberOfProcessesOn</text>
<text text-anchor="start" x="101.57" y="-204" font-family="Helvetica,sans-Serif" font-size="10.00">Load()</text>
<text text-anchor="start" x="91.07" y="-189" font-family="Helvetica,sans-Serif" font-size="10.00">&#45;</text>
<text text-anchor="start" x="101.57" y="-189" font-family="Helvetica,sans-Serif" font-size="10.00">CheckForPetsc()</text>
<text text-anchor="start" x="91.07" y="-174" font-family="Helvetica,sans-Serif" font-size="10.00">&#45;</text>
<text text-anchor="start" x="101.57" y="-174" font-family="Helvetica,sans-Serif" font-size="10.00">CalculateOwnership()</text>
<text text-anchor="start" x="91.07" y="-159" font-family="Helvetica,sans-Serif" font-size="10.00">&#45;</text>
<text text-anchor="start" x="101.57" y="-159" font-family="Helvetica,sans-Serif" font-size="10.00">serialize()</text>
<polygon fill="#666666" stroke="#666666" points="84.57,-431 84.57,-431 250.57,-431 250.57,-431 84.57,-431"/>
<polygon fill="#666666" stroke="#666666" points="84.57,-416 84.57,-416 250.57,-416 250.57,-416 84.57,-416"/>
<polygon fill="none" stroke="#666666" points="84.57,-152 84.57,-448 250.57,-448 250.57,-152 84.57,-152"/>
</a>
</g>
</g>
<!-- Node2&#45;&gt;Node4 -->
<g id="edge4_Node000004_Node000002" class="edge">
<title>Node2&#45;&gt;Node4</title>
<g id="a_edge4_Node000004_Node000002"><a xlink:title=" ">
<path fill="none" stroke="#63b8ff" d="M57.12,-527.81C64.85,-510.6 75.67,-486.77 85.57,-466 86.6,-463.83 87.64,-461.65 88.69,-459.46"/>
<polygon fill="none" stroke="#63b8ff" points="88.81,-459.22 87.8,-452.08 94.01,-448.41 95.01,-455.55 88.81,-459.22"/>
</a>
</g>
<text text-anchor="middle" x="123.07" y="-502" font-family="Helvetica,sans-Serif" font-size="10.00" fill="grey"> &#45;mHi</text>
<text text-anchor="middle" x="123.07" y="-491" font-family="Helvetica,sans-Serif" font-size="10.00" fill="grey">&#45;mLo</text>
<text text-anchor="middle" x="123.07" y="-480" font-family="Helvetica,sans-Serif" font-size="10.00" fill="grey">&#45;mNumProcs</text>
<text text-anchor="middle" x="123.07" y="-469" font-family="Helvetica,sans-Serif" font-size="10.00" fill="grey">&#45;mProblemSize</text>
</g>
<!-- Node3 -->
<g id="Node000003" class="node">
<title>Node3</title>
<g id="a_Node000003"><a xlink:href="classdouble.html" target="_top" xlink:title=" ">
<polygon fill="white" stroke="transparent" points="427.57,-324.5 383.57,-324.5 383.57,-275.5 427.57,-275.5 427.57,-324.5"/>
<text text-anchor="start" x="388.57" y="-312" font-family="Helvetica,sans-Serif" font-size="10.00">double</text>
<text text-anchor="start" x="403.57" y="-297" font-family="Helvetica,sans-Serif" font-size="10.00"> </text>
<text text-anchor="start" x="403.57" y="-282" font-family="Helvetica,sans-Serif" font-size="10.00"> </text>
<polygon fill="#bfbfbf" stroke="#bfbfbf" points="383.57,-307 383.57,-307 427.57,-307 427.57,-307 383.57,-307"/>
<polygon fill="#bfbfbf" stroke="#bfbfbf" points="383.57,-292 383.57,-292 427.57,-292 427.57,-292 383.57,-292"/>
<polygon fill="none" stroke="#bfbfbf" points="383.57,-275.5 383.57,-324.5 427.57,-324.5 427.57,-275.5 383.57,-275.5"/>
</a>
</g>
</g>
<!-- Node3&#45;&gt;Node1 -->
<g id="edge2_Node000001_Node000003" class="edge">
<title>Node3&#45;&gt;Node1</title>
<g id="a_edge2_Node000001_Node000003"><a xlink:title=" ">
<path fill="none" stroke="#63b8ff" d="M406.7,-275.47C406.98,-244.02 402.98,-188.06 374.57,-152 338.77,-106.56 276.9,-80.97 230.09,-67.33"/>
<polygon fill="none" stroke="#63b8ff" points="229.8,-67.25 222.95,-69.5 218.24,-64.04 225.09,-61.79 229.8,-67.25"/>
</a>
</g>
<text text-anchor="middle" x="377.57" y="-126" font-family="Helvetica,sans-Serif" font-size="10.00" fill="grey"> &#45;mpVec</text>
</g>
<!-- Node4&#45;&gt;Node1 -->
<g id="edge3_Node000001_Node000004" class="edge">
<title>Node4&#45;&gt;Node1</title>
<g id="a_edge3_Node000001_Node000004"><a xlink:title=" ">
<path fill="none" stroke="#63b8ff" d="M167.57,-151.94C167.57,-139.98 167.57,-128.33 167.57,-117.49"/>
<polygon fill="none" stroke="#63b8ff" points="167.57,-117.16 163.57,-111.16 167.57,-105.16 171.57,-111.16 167.57,-117.16"/>
</a>
</g>
<text text-anchor="middle" x="196.57" y="-126" font-family="Helvetica,sans-Serif" font-size="10.00" fill="grey"> &#45;mpFactory</text>
</g>
<!-- Node4&#45;&gt;Node4 -->
<g id="edge7_Node000004_Node000004" class="edge">
<title>Node4&#45;&gt;Node4</title>
<g id="a_edge7_Node000004_Node000004"><a xlink:title=" ">
<path fill="none" stroke="#63b8ff" d="M250.78,-327.94C261.49,-323.09 268.57,-313.78 268.57,-300 268.57,-291.17 265.66,-284.18 260.76,-279.02"/>
<polygon fill="none" stroke="#63b8ff" points="260.62,-278.92 253.41,-278.78 250.78,-272.06 257.99,-272.21 260.62,-278.92"/>
</a>
</g>
<text text-anchor="middle" x="317.07" y="-297.5" font-family="Helvetica,sans-Serif" font-size="10.00" fill="grey"> &#45;mpOriginalFactory</text>
</g>
<!-- Node5 -->
<g id="Node000005" class="node">
<title>Node5</title>
<g id="a_Node000005"><a xlink:href="classbool.html" target="_top" xlink:title=" ">
<polygon fill="white" stroke="transparent" points="179.57,-577 147.57,-577 147.57,-528 179.57,-528 179.57,-577"/>
<text text-anchor="start" x="152.57" y="-564.5" font-family="Helvetica,sans-Serif" font-size="10.00">bool</text>
<text text-anchor="start" x="161.57" y="-549.5" font-family="Helvetica,sans-Serif" font-size="10.00"> </text>
<text text-anchor="start" x="161.57" y="-534.5" font-family="Helvetica,sans-Serif" font-size="10.00"> </text>
<polygon fill="#bfbfbf" stroke="#bfbfbf" points="147.57,-559.5 147.57,-559.5 179.57,-559.5 179.57,-559.5 147.57,-559.5"/>
<polygon fill="#bfbfbf" stroke="#bfbfbf" points="147.57,-544.5 147.57,-544.5 179.57,-544.5 179.57,-544.5 147.57,-544.5"/>
<polygon fill="none" stroke="#bfbfbf" points="147.57,-528 147.57,-577 179.57,-577 179.57,-528 147.57,-528"/>
</a>
</g>
</g>
<!-- Node5&#45;&gt;Node4 -->
<g id="edge5_Node000004_Node000005" class="edge">
<title>Node5&#45;&gt;Node4</title>
<g id="a_edge5_Node000004_Node000005"><a xlink:title=" ">
<path fill="none" stroke="#63b8ff" d="M163.8,-527.91C163.98,-510.74 164.26,-486.93 164.57,-466 164.6,-464.07 164.63,-462.13 164.66,-460.18"/>
<polygon fill="none" stroke="#63b8ff" points="164.66,-460.08 160.75,-454.02 164.85,-448.09 168.75,-454.15 164.66,-460.08"/>
</a>
</g>
<text text-anchor="middle" x="238.57" y="-496.5" font-family="Helvetica,sans-Serif" font-size="10.00" fill="grey"> &#45;mPetscStatusKnown</text>
<text text-anchor="start" x="164.57" y="-485.5" font-family="Helvetica,sans-Serif" font-size="10.00" fill="grey">&#45;msCheckNumberOfProcesses</text>
<text text-anchor="middle" x="238.57" y="-474.5" font-family="Helvetica,sans-Serif" font-size="10.00" fill="grey">OnLoad</text>
</g>
<!-- Node6 -->
<g id="Node000006" class="node">
<title>Node6</title>
<g id="a_Node000006"><a xlink:title=" ">
<polygon fill="white" stroke="transparent" points="388.57,-577 280.57,-577 280.57,-528 388.57,-528 388.57,-577"/>
<text text-anchor="start" x="285.57" y="-564.5" font-family="Helvetica,sans-Serif" font-size="10.00">vector&lt; unsigned &gt;</text>
<text text-anchor="start" x="332.57" y="-549.5" font-family="Helvetica,sans-Serif" font-size="10.00"> </text>
<text text-anchor="start" x="332.57" y="-534.5" font-family="Helvetica,sans-Serif" font-size="10.00"> </text>
<polygon fill="#bfbfbf" stroke="#bfbfbf" points="280.57,-559.5 280.57,-559.5 388.57,-559.5 388.57,-559.5 280.57,-559.5"/>
<polygon fill="#bfbfbf" stroke="#bfbfbf" points="280.57,-544.5 280.57,-544.5 388.57,-544.5 388.57,-544.5 280.57,-544.5"/>
<polygon fill="none" stroke="#bfbfbf" points="280.57,-528 280.57,-577 388.57,-577 388.57,-528 280.57,-528"/>
</a>
</g>
</g>
<!-- Node6&#45;&gt;Node4 -->
<g id="edge6_Node000004_Node000006" class="edge">
<title>Node6&#45;&gt;Node4</title>
<g id="a_edge6_Node000004_Node000006"><a xlink:title=" ">
<path fill="none" stroke="#63b8ff" d="M331.54,-527.93C328.56,-510.13 322.89,-485.51 312.57,-466 298.33,-439.07 278.85,-412.87 258.8,-389.58"/>
<polygon fill="none" stroke="#63b8ff" points="258.71,-389.48 251.74,-387.61 250.79,-380.46 257.75,-382.33 258.71,-389.48"/>
</a>
</g>
<text text-anchor="middle" x="364.07" y="-485.5" font-family="Helvetica,sans-Serif" font-size="10.00" fill="grey"> &#45;mGlobalLows</text>
</g>
</g>
</svg>
