<?xml version="1.0" encoding="UTF-8" standalone="no"?>
<!DOCTYPE svg PUBLIC "-//W3C//DTD SVG 1.1//EN"
 "http://www.w3.org/Graphics/SVG/1.1/DTD/svg11.dtd">
<!-- Generated by graphviz version 2.43.0 (0)
 -->
<!-- Title: SimpleLogarithmicRepulsionForce&lt; ELEMENT_DIM, SPACE_DIM &gt; Pages: 1 -->
<svg width="591pt" height="717pt"
 viewBox="0.00 0.00 591.00 717.00" xmlns="http://www.w3.org/2000/svg" xmlns:xlink="http://www.w3.org/1999/xlink">
<g id="graph0" class="graph" transform="scale(1 1) rotate(0) translate(4 713)">
<title>SimpleLogarithmicRepulsionForce&lt; ELEMENT_DIM, SPACE_DIM &gt;</title>
<!-- Node1 -->
<g id="Node000001" class="node">
<title>Node1</title>
<g id="a_Node000001"><a xlink:title=" ">
<polygon fill="#999999" stroke="transparent" points="467.5,-146 276.5,-146 276.5,0 467.5,0 467.5,-146"/>
<text text-anchor="start" x="282" y="-134" font-family="Helvetica,sans-Serif" font-size="10.00">SimpleLogarithmicRepulsion</text>
<text text-anchor="start" x="282" y="-123" font-family="Helvetica,sans-Serif" font-size="10.00">Force&lt; ELEMENT_DIM, SPACE_DIM &gt;</text>
<text text-anchor="start" x="370.5" y="-108" font-family="Helvetica,sans-Serif" font-size="10.00"> </text>
<text text-anchor="start" x="285" y="-93" font-family="Helvetica,sans-Serif" font-size="10.00">+</text>
<text text-anchor="start" x="302" y="-93" font-family="Helvetica,sans-Serif" font-size="10.00">SimpleLogarithmicRepulsion</text>
<text text-anchor="start" x="302" y="-82" font-family="Helvetica,sans-Serif" font-size="10.00">Force()</text>
<text text-anchor="start" x="285" y="-67" font-family="Helvetica,sans-Serif" font-size="10.00">+</text>
<text text-anchor="start" x="302" y="-67" font-family="Helvetica,sans-Serif" font-size="10.00">GetRepulsionParameter()</text>
<text text-anchor="start" x="285" y="-52" font-family="Helvetica,sans-Serif" font-size="10.00">+</text>
<text text-anchor="start" x="302" y="-52" font-family="Helvetica,sans-Serif" font-size="10.00">SetRepulsionParameter()</text>
<text text-anchor="start" x="285" y="-37" font-family="Helvetica,sans-Serif" font-size="10.00">+</text>
<text text-anchor="start" x="302" y="-37" font-family="Helvetica,sans-Serif" font-size="10.00">CalculateForceBetweenNodes()</text>
<text text-anchor="start" x="285" y="-22" font-family="Helvetica,sans-Serif" font-size="10.00">+</text>
<text text-anchor="start" x="302" y="-22" font-family="Helvetica,sans-Serif" font-size="10.00">OutputForceParameters()</text>
<text text-anchor="start" x="287.5" y="-7" font-family="Helvetica,sans-Serif" font-size="10.00">&#45;</text>
<text text-anchor="start" x="302" y="-7" font-family="Helvetica,sans-Serif" font-size="10.00">serialize()</text>
<polygon fill="#666666" stroke="#666666" points="277,-118 277,-118 468,-118 468,-118 277,-118"/>
<polygon fill="#666666" stroke="#666666" points="277,-103 277,-103 468,-103 468,-103 277,-103"/>
<polygon fill="none" stroke="#666666" points="276.5,0 276.5,-146 467.5,-146 467.5,0 276.5,0"/>
</a>
</g>
</g>
<!-- Node2 -->
<g id="Node000002" class="node">
<title>Node2</title>
<g id="a_Node000002"><a xlink:href="classAbstractTwoBodyInteractionForce.html" target="_top" xlink:title=" ">
<polygon fill="white" stroke="transparent" points="360.5,-385 169.5,-385 169.5,-183 360.5,-183 360.5,-385"/>
<text text-anchor="start" x="175" y="-373" font-family="Helvetica,sans-Serif" font-size="10.00">AbstractTwoBodyInteraction</text>
<text text-anchor="start" x="175" y="-362" font-family="Helvetica,sans-Serif" font-size="10.00">Force&lt; ELEMENT_DIM, SPACE_DIM &gt;</text>
<text text-anchor="start" x="263.5" y="-347" font-family="Helvetica,sans-Serif" font-size="10.00"> </text>
<text text-anchor="start" x="178" y="-332" font-family="Helvetica,sans-Serif" font-size="10.00">+</text>
<text text-anchor="start" x="195" y="-332" font-family="Helvetica,sans-Serif" font-size="10.00">AbstractTwoBodyInteraction</text>
<text text-anchor="start" x="195" y="-321" font-family="Helvetica,sans-Serif" font-size="10.00">Force()</text>
<text text-anchor="start" x="178" y="-306" font-family="Helvetica,sans-Serif" font-size="10.00">+</text>
<text text-anchor="start" x="195" y="-306" font-family="Helvetica,sans-Serif" font-size="10.00">GetUseCutOffLength()</text>
<text text-anchor="start" x="178" y="-291" font-family="Helvetica,sans-Serif" font-size="10.00">+</text>
<text text-anchor="start" x="195" y="-291" font-family="Helvetica,sans-Serif" font-size="10.00">SetCutOffLength()</text>
<text text-anchor="start" x="178" y="-276" font-family="Helvetica,sans-Serif" font-size="10.00">+</text>
<text text-anchor="start" x="195" y="-276" font-family="Helvetica,sans-Serif" font-size="10.00">GetCutOffLength()</text>
<text text-anchor="start" x="178" y="-261" font-family="Helvetica,sans-Serif" font-size="10.00">+</text>
<text text-anchor="start" x="195" y="-261" font-family="Helvetica,sans-Serif" font-size="10.00">CalculateForceBetweenNodes()</text>
<text text-anchor="start" x="178" y="-246" font-family="Helvetica,sans-Serif" font-size="10.00">+</text>
<text text-anchor="start" x="195" y="-246" font-family="Helvetica,sans-Serif" font-size="10.00">AddForceContribution()</text>
<text text-anchor="start" x="178" y="-231" font-family="Helvetica,sans-Serif" font-size="10.00">+</text>
<text text-anchor="start" x="195" y="-231" font-family="Helvetica,sans-Serif" font-size="10.00">OutputForceParameters()</text>
<text text-anchor="start" x="178" y="-216" font-family="Helvetica,sans-Serif" font-size="10.00">+</text>
<text text-anchor="start" x="195" y="-216" font-family="Helvetica,sans-Serif" font-size="10.00">WriteDataToVisualizerSetup</text>
<text text-anchor="start" x="195" y="-205" font-family="Helvetica,sans-Serif" font-size="10.00">File()</text>
<text text-anchor="start" x="180.5" y="-190" font-family="Helvetica,sans-Serif" font-size="10.00">&#45;</text>
<text text-anchor="start" x="195" y="-190" font-family="Helvetica,sans-Serif" font-size="10.00">serialize()</text>
<polygon fill="#666666" stroke="#666666" points="170,-357 170,-357 361,-357 361,-357 170,-357"/>
<polygon fill="#666666" stroke="#666666" points="170,-342 170,-342 361,-342 361,-342 170,-342"/>
<polygon fill="none" stroke="#666666" points="169.5,-183 169.5,-385 360.5,-385 360.5,-183 169.5,-183"/>
</a>
</g>
</g>
<!-- Node2&#45;&gt;Node1 -->
<g id="edge1_Node000001_Node000002" class="edge">
<title>Node2&#45;&gt;Node1</title>
<g id="a_edge1_Node000001_Node000002"><a xlink:title=" ">
<path fill="none" stroke="#63b8ff" d="M320.91,-173.8C325.7,-164.43 330.47,-155.12 335.06,-146.15"/>
<polygon fill="none" stroke="#63b8ff" points="317.75,-172.29 316.31,-182.79 323.98,-175.48 317.75,-172.29"/>
</a>
</g>
</g>
<!-- Node3 -->
<g id="Node000003" class="node">
<title>Node3</title>
<g id="a_Node000003"><a xlink:href="classAbstractForce.html" target="_top" xlink:title=" ">
<polygon fill="white" stroke="transparent" points="166.5,-593 9.5,-593 9.5,-432 166.5,-432 166.5,-593"/>
<text text-anchor="start" x="26.5" y="-580.5" font-family="Helvetica,sans-Serif" font-size="10.00">AbstractForce&lt; ELEMENT</text>
<text text-anchor="start" x="39.5" y="-569.5" font-family="Helvetica,sans-Serif" font-size="10.00">_DIM, SPACE_DIM &gt;</text>
<text text-anchor="start" x="86.5" y="-554.5" font-family="Helvetica,sans-Serif" font-size="10.00"> </text>
<text text-anchor="start" x="14" y="-539.5" font-family="Helvetica,sans-Serif" font-size="10.00">+</text>
<text text-anchor="start" x="27" y="-539.5" font-family="Helvetica,sans-Serif" font-size="10.00">AbstractForce()</text>
<text text-anchor="start" x="14" y="-524.5" font-family="Helvetica,sans-Serif" font-size="10.00">+</text>
<text text-anchor="start" x="27" y="-524.5" font-family="Helvetica,sans-Serif" font-size="10.00">~AbstractForce()</text>
<text text-anchor="start" x="14" y="-509.5" font-family="Helvetica,sans-Serif" font-size="10.00">+</text>
<text text-anchor="start" x="27" y="-509.5" font-family="Helvetica,sans-Serif" font-size="10.00">AddForceContribution()</text>
<text text-anchor="start" x="14" y="-494.5" font-family="Helvetica,sans-Serif" font-size="10.00">+</text>
<text text-anchor="start" x="27" y="-494.5" font-family="Helvetica,sans-Serif" font-size="10.00">OutputForceInfo()</text>
<text text-anchor="start" x="14" y="-479.5" font-family="Helvetica,sans-Serif" font-size="10.00">+</text>
<text text-anchor="start" x="27" y="-479.5" font-family="Helvetica,sans-Serif" font-size="10.00">OutputForceParameters()</text>
<text text-anchor="start" x="14" y="-464.5" font-family="Helvetica,sans-Serif" font-size="10.00">+</text>
<text text-anchor="start" x="27" y="-464.5" font-family="Helvetica,sans-Serif" font-size="10.00">WriteDataToVisualizerSetup</text>
<text text-anchor="start" x="27" y="-453.5" font-family="Helvetica,sans-Serif" font-size="10.00">File()</text>
<text text-anchor="start" x="16.5" y="-438.5" font-family="Helvetica,sans-Serif" font-size="10.00">&#45;</text>
<text text-anchor="start" x="27" y="-438.5" font-family="Helvetica,sans-Serif" font-size="10.00">serialize()</text>
<polygon fill="#666666" stroke="#666666" points="10,-564.5 10,-564.5 167,-564.5 167,-564.5 10,-564.5"/>
<polygon fill="#666666" stroke="#666666" points="10,-549.5 10,-549.5 167,-549.5 167,-549.5 10,-549.5"/>
<polygon fill="none" stroke="#666666" points="9.5,-432 9.5,-593 166.5,-593 166.5,-432 9.5,-432"/>
</a>
</g>
</g>
<!-- Node3&#45;&gt;Node2 -->
<g id="edge2_Node000002_Node000003" class="edge">
<title>Node3&#45;&gt;Node2</title>
<g id="a_edge2_Node000002_Node000003"><a xlink:title=" ">
<path fill="none" stroke="#63b8ff" d="M156.32,-424.07C166.31,-411.29 176.67,-398.04 186.83,-385.03"/>
<polygon fill="none" stroke="#63b8ff" points="153.55,-421.93 150.15,-431.96 159.07,-426.24 153.55,-421.93"/>
</a>
</g>
</g>
<!-- Node4 -->
<g id="Node000004" class="node">
<title>Node4</title>
<g id="a_Node000004"><a xlink:href="classIdentifiable.html" target="_top" xlink:title=" ">
<polygon fill="white" stroke="transparent" points="176,-709 0,-709 0,-630 176,-630 176,-709"/>
<text text-anchor="start" x="60.5" y="-696.5" font-family="Helvetica,sans-Serif" font-size="10.00">Identifiable</text>
<text text-anchor="start" x="86" y="-681.5" font-family="Helvetica,sans-Serif" font-size="10.00"> </text>
<text text-anchor="start" x="4" y="-666.5" font-family="Helvetica,sans-Serif" font-size="10.00">+</text>
<text text-anchor="start" x="17" y="-666.5" font-family="Helvetica,sans-Serif" font-size="10.00">~Identifiable()</text>
<text text-anchor="start" x="4" y="-651.5" font-family="Helvetica,sans-Serif" font-size="10.00">+</text>
<text text-anchor="start" x="17" y="-651.5" font-family="Helvetica,sans-Serif" font-size="10.00">GetIdentifier()</text>
<text text-anchor="start" x="6.5" y="-636.5" font-family="Helvetica,sans-Serif" font-size="10.00">&#45;</text>
<text text-anchor="start" x="17" y="-636.5" font-family="Helvetica,sans-Serif" font-size="10.00">TidyTemplatedExportIdentifier()</text>
<polygon fill="#666666" stroke="#666666" points="0,-691.5 0,-691.5 176,-691.5 176,-691.5 0,-691.5"/>
<polygon fill="#666666" stroke="#666666" points="0,-676.5 0,-676.5 176,-676.5 176,-676.5 0,-676.5"/>
<polygon fill="none" stroke="#666666" points="0,-630 0,-709 176,-709 176,-630 0,-630"/>
</a>
</g>
</g>
<!-- Node4&#45;&gt;Node3 -->
<g id="edge3_Node000003_Node000004" class="edge">
<title>Node4&#45;&gt;Node3</title>
<g id="a_edge3_Node000003_Node000004"><a xlink:title=" ">
<path fill="none" stroke="#63b8ff" d="M88,-619.73C88,-611.25 88,-602.23 88,-593.17"/>
<polygon fill="none" stroke="#63b8ff" points="84.5,-619.79 88,-629.79 91.5,-619.79 84.5,-619.79"/>
</a>
</g>
</g>
<!-- Node5 -->
<g id="Node000005" class="node">
<title>Node5</title>
<g id="a_Node000005"><a xlink:href="classbool.html" target="_top" xlink:title=" ">
<polygon fill="white" stroke="transparent" points="217,-537 185,-537 185,-488 217,-488 217,-537"/>
<text text-anchor="start" x="190" y="-524.5" font-family="Helvetica,sans-Serif" font-size="10.00">bool</text>
<text text-anchor="start" x="199" y="-509.5" font-family="Helvetica,sans-Serif" font-size="10.00"> </text>
<text text-anchor="start" x="199" y="-494.5" font-family="Helvetica,sans-Serif" font-size="10.00"> </text>
<polygon fill="#bfbfbf" stroke="#bfbfbf" points="185,-519.5 185,-519.5 217,-519.5 217,-519.5 185,-519.5"/>
<polygon fill="#bfbfbf" stroke="#bfbfbf" points="185,-504.5 185,-504.5 217,-504.5 217,-504.5 185,-504.5"/>
<polygon fill="none" stroke="#bfbfbf" points="185,-488 185,-537 217,-537 217,-488 185,-488"/>
</a>
</g>
</g>
<!-- Node5&#45;&gt;Node2 -->
<g id="edge4_Node000002_Node000005" class="edge">
<title>Node5&#45;&gt;Node2</title>
<g id="a_edge4_Node000002_Node000005"><a xlink:title=" ">
<path fill="none" stroke="#63b8ff" d="M198.01,-487.8C195.95,-465.54 194.74,-431.47 202,-403 202.55,-400.86 203.14,-398.71 203.78,-396.56"/>
<polygon fill="none" stroke="#63b8ff" points="203.8,-396.49 201.88,-389.54 207.55,-385.09 209.48,-392.04 203.8,-396.49"/>
</a>
</g>
<text text-anchor="middle" x="254" y="-406" font-family="Helvetica,sans-Serif" font-size="10.00" fill="grey"> #mUseCutOffLength</text>
</g>
<!-- Node6 -->
<g id="Node000006" class="node">
<title>Node6</title>
<g id="a_Node000006"><a xlink:href="classdouble.html" target="_top" xlink:title=" ">
<polygon fill="white" stroke="transparent" points="426,-537 382,-537 382,-488 426,-488 426,-537"/>
<text text-anchor="start" x="387" y="-524.5" font-family="Helvetica,sans-Serif" font-size="10.00">double</text>
<text text-anchor="start" x="402" y="-509.5" font-family="Helvetica,sans-Serif" font-size="10.00"> </text>
<text text-anchor="start" x="402" y="-494.5" font-family="Helvetica,sans-Serif" font-size="10.00"> </text>
<polygon fill="#bfbfbf" stroke="#bfbfbf" points="382,-519.5 382,-519.5 426,-519.5 426,-519.5 382,-519.5"/>
<polygon fill="#bfbfbf" stroke="#bfbfbf" points="382,-504.5 382,-504.5 426,-504.5 426,-504.5 382,-504.5"/>
<polygon fill="none" stroke="#bfbfbf" points="382,-488 382,-537 426,-537 426,-488 382,-488"/>
</a>
</g>
</g>
<!-- Node6&#45;&gt;Node1 -->
<g id="edge6_Node000001_Node000006" class="edge">
<title>Node6&#45;&gt;Node1</title>
<g id="a_edge6_Node000001_Node000006"><a xlink:title=" ">
<path fill="none" stroke="#63b8ff" d="M426.02,-491.29C445.71,-470.74 470.78,-437.16 466,-403 454.05,-317.67 425.47,-223.42 402.93,-157.75"/>
<polygon fill="none" stroke="#63b8ff" points="402.87,-157.58 397.13,-153.22 398.95,-146.24 404.69,-150.6 402.87,-157.58"/>
</a>
</g>
<text text-anchor="middle" x="523" y="-281.5" font-family="Helvetica,sans-Serif" font-size="10.00" fill="grey"> #mRepulsionParameter</text>
</g>
<!-- Node6&#45;&gt;Node2 -->
<g id="edge5_Node000002_Node000006" class="edge">
<title>Node6&#45;&gt;Node2</title>
<g id="a_edge5_Node000002_Node000006"><a xlink:title=" ">
<path fill="none" stroke="#63b8ff" d="M383.5,-487.61C367.58,-468.44 345.51,-440.45 329,-414 325.31,-408.09 321.67,-401.94 318.1,-395.67"/>
<polygon fill="none" stroke="#63b8ff" points="318.01,-395.51 311.6,-392.21 312.18,-385.02 318.59,-388.32 318.01,-395.51"/>
</a>
</g>
<text text-anchor="middle" x="397.5" y="-406" font-family="Helvetica,sans-Serif" font-size="10.00" fill="grey"> #mMechanicsCutOffLength</text>
</g>
</g>
</svg>
