<?xml version="1.0" encoding="UTF-8" standalone="no"?>
<!DOCTYPE svg PUBLIC "-//W3C//DTD SVG 1.1//EN"
 "http://www.w3.org/Graphics/SVG/1.1/DTD/svg11.dtd">
<!-- Generated by graphviz version 2.43.0 (0)
 -->
<!-- Title: DistanceMapCalculator&lt; ELEMENT_DIM, SPACE_DIM &gt; Pages: 1 -->
<svg width="917pt" height="427pt"
 viewBox="0.00 0.00 917.00 427.00" xmlns="http://www.w3.org/2000/svg" xmlns:xlink="http://www.w3.org/1999/xlink">
<g id="graph0" class="graph" transform="scale(1 1) rotate(0) translate(4 423)">
<title>DistanceMapCalculator&lt; ELEMENT_DIM, SPACE_DIM &gt;</title>
<!-- Node1 -->
<g id="Node000001" class="node">
<title>Node1</title>
<g id="a_Node000001"><a xlink:title=" ">
<polygon fill="#999999" stroke="transparent" points="510.5,-150 345.5,-150 345.5,0 510.5,0 510.5,-150"/>
<text text-anchor="start" x="351" y="-138" font-family="Helvetica,sans-Serif" font-size="10.00">DistanceMapCalculator</text>
<text text-anchor="start" x="351" y="-127" font-family="Helvetica,sans-Serif" font-size="10.00">&lt; ELEMENT_DIM, SPACE_DIM &gt;</text>
<text text-anchor="start" x="426.5" y="-112" font-family="Helvetica,sans-Serif" font-size="10.00"> </text>
<text text-anchor="start" x="351.5" y="-97" font-family="Helvetica,sans-Serif" font-size="10.00">+</text>
<text text-anchor="start" x="366" y="-97" font-family="Helvetica,sans-Serif" font-size="10.00">DistanceMapCalculator()</text>
<text text-anchor="start" x="351.5" y="-82" font-family="Helvetica,sans-Serif" font-size="10.00">+</text>
<text text-anchor="start" x="366" y="-82" font-family="Helvetica,sans-Serif" font-size="10.00">~DistanceMapCalculator()</text>
<text text-anchor="start" x="351.5" y="-67" font-family="Helvetica,sans-Serif" font-size="10.00">+</text>
<text text-anchor="start" x="366" y="-67" font-family="Helvetica,sans-Serif" font-size="10.00">ComputeDistanceMap()</text>
<text text-anchor="start" x="351.5" y="-52" font-family="Helvetica,sans-Serif" font-size="10.00">+</text>
<text text-anchor="start" x="366" y="-52" font-family="Helvetica,sans-Serif" font-size="10.00">SingleDistance()</text>
<text text-anchor="start" x="354" y="-37" font-family="Helvetica,sans-Serif" font-size="10.00">&#45;</text>
<text text-anchor="start" x="366" y="-37" font-family="Helvetica,sans-Serif" font-size="10.00">WorkOnLocalQueue()</text>
<text text-anchor="start" x="354" y="-22" font-family="Helvetica,sans-Serif" font-size="10.00">&#45;</text>
<text text-anchor="start" x="366" y="-22" font-family="Helvetica,sans-Serif" font-size="10.00">UpdateQueueFromRemote()</text>
<text text-anchor="start" x="354" y="-7" font-family="Helvetica,sans-Serif" font-size="10.00">&#45;</text>
<text text-anchor="start" x="366" y="-7" font-family="Helvetica,sans-Serif" font-size="10.00">PushLocal()</text>
<polygon fill="#666666" stroke="#666666" points="346,-122 346,-122 511,-122 511,-122 346,-122"/>
<polygon fill="#666666" stroke="#666666" points="346,-107 346,-107 511,-107 511,-107 346,-107"/>
<polygon fill="none" stroke="#666666" points="345.5,0 345.5,-150 510.5,-150 510.5,0 345.5,0"/>
</a>
</g>
</g>
<!-- Node2 -->
<g id="Node000002" class="node">
<title>Node2</title>
<g id="a_Node000002"><a xlink:title=" ">
<polygon fill="white" stroke="transparent" points="176,-323 0,-323 0,-263 176,-263 176,-323"/>
<text text-anchor="start" x="5" y="-311" font-family="Helvetica,sans-Serif" font-size="10.00">AbstractTetrahedralMesh</text>
<text text-anchor="start" x="5" y="-300" font-family="Helvetica,sans-Serif" font-size="10.00">&lt; ELEMENT_DIM, SPACE_DIM &gt; &amp;</text>
<text text-anchor="start" x="86" y="-285" font-family="Helvetica,sans-Serif" font-size="10.00"> </text>
<text text-anchor="start" x="86" y="-270" font-family="Helvetica,sans-Serif" font-size="10.00"> </text>
<polygon fill="#bfbfbf" stroke="#bfbfbf" points="0,-295 0,-295 176,-295 176,-295 0,-295"/>
<polygon fill="#bfbfbf" stroke="#bfbfbf" points="0,-280 0,-280 176,-280 176,-280 0,-280"/>
<polygon fill="none" stroke="#bfbfbf" points="0,-263 0,-323 176,-323 176,-263 0,-263"/>
</a>
</g>
</g>
<!-- Node2&#45;&gt;Node1 -->
<g id="edge1_Node000001_Node000002" class="edge">
<title>Node2&#45;&gt;Node1</title>
<g id="a_edge1_Node000001_Node000002"><a xlink:title=" ">
<path fill="none" stroke="#63b8ff" d="M98.75,-262.92C110.51,-234.91 131.91,-193.17 163,-168 211.93,-128.39 279.01,-105.33 333.44,-92.2"/>
<polygon fill="none" stroke="#63b8ff" points="333.52,-92.18 338.46,-86.92 345.21,-89.46 340.27,-94.72 333.52,-92.18"/>
</a>
</g>
<text text-anchor="middle" x="186.5" y="-204" font-family="Helvetica,sans-Serif" font-size="10.00" fill="grey"> &#45;mrMesh</text>
</g>
<!-- Node3 -->
<g id="Node000003" class="node">
<title>Node3</title>
<g id="a_Node000003"><a xlink:href="classunsigned.html" target="_top" xlink:title=" ">
<polygon fill="white" stroke="transparent" points="249.5,-317.5 194.5,-317.5 194.5,-268.5 249.5,-268.5 249.5,-317.5"/>
<text text-anchor="start" x="200" y="-305" font-family="Helvetica,sans-Serif" font-size="10.00">unsigned</text>
<text text-anchor="start" x="220.5" y="-290" font-family="Helvetica,sans-Serif" font-size="10.00"> </text>
<text text-anchor="start" x="220.5" y="-275" font-family="Helvetica,sans-Serif" font-size="10.00"> </text>
<polygon fill="#bfbfbf" stroke="#bfbfbf" points="195,-300 195,-300 250,-300 250,-300 195,-300"/>
<polygon fill="#bfbfbf" stroke="#bfbfbf" points="195,-285 195,-285 250,-285 250,-285 195,-285"/>
<polygon fill="none" stroke="#bfbfbf" points="194.5,-268.5 194.5,-317.5 249.5,-317.5 249.5,-268.5 194.5,-268.5"/>
</a>
</g>
</g>
<!-- Node3&#45;&gt;Node1 -->
<g id="edge2_Node000001_Node000003" class="edge">
<title>Node3&#45;&gt;Node1</title>
<g id="a_edge2_Node000001_Node000003"><a xlink:title=" ">
<path fill="none" stroke="#63b8ff" d="M217.09,-268.22C212.95,-241.41 210.55,-197.69 231,-168 254.92,-133.28 295.47,-111.34 333.58,-97.64"/>
<polygon fill="none" stroke="#63b8ff" points="333.95,-97.52 338.34,-91.8 345.31,-93.65 340.92,-99.37 333.95,-97.52"/>
</a>
</g>
<text text-anchor="middle" x="290" y="-237" font-family="Helvetica,sans-Serif" font-size="10.00" fill="grey"> &#45;mHi</text>
<text text-anchor="middle" x="290" y="-226" font-family="Helvetica,sans-Serif" font-size="10.00" fill="grey">&#45;mLo</text>
<text text-anchor="middle" x="290" y="-215" font-family="Helvetica,sans-Serif" font-size="10.00" fill="grey">&#45;mNumHalosPerProcess</text>
<text text-anchor="middle" x="290" y="-204" font-family="Helvetica,sans-Serif" font-size="10.00" fill="grey">&#45;mNumNodes</text>
<text text-anchor="middle" x="290" y="-193" font-family="Helvetica,sans-Serif" font-size="10.00" fill="grey">&#45;mPopCounter</text>
<text text-anchor="middle" x="290" y="-182" font-family="Helvetica,sans-Serif" font-size="10.00" fill="grey">&#45;mRoundCounter</text>
<text text-anchor="middle" x="290" y="-171" font-family="Helvetica,sans-Serif" font-size="10.00" fill="grey">&#45;mTargetNodeIndex</text>
</g>
<!-- Node4 -->
<g id="Node000004" class="node">
<title>Node4</title>
<g id="a_Node000004"><a xlink:href="classbool.html" target="_top" xlink:title=" ">
<polygon fill="white" stroke="transparent" points="379,-317.5 347,-317.5 347,-268.5 379,-268.5 379,-317.5"/>
<text text-anchor="start" x="352" y="-305" font-family="Helvetica,sans-Serif" font-size="10.00">bool</text>
<text text-anchor="start" x="361" y="-290" font-family="Helvetica,sans-Serif" font-size="10.00"> </text>
<text text-anchor="start" x="361" y="-275" font-family="Helvetica,sans-Serif" font-size="10.00"> </text>
<polygon fill="#bfbfbf" stroke="#bfbfbf" points="347,-300 347,-300 379,-300 379,-300 347,-300"/>
<polygon fill="#bfbfbf" stroke="#bfbfbf" points="347,-285 347,-285 379,-285 379,-285 347,-285"/>
<polygon fill="none" stroke="#bfbfbf" points="347,-268.5 347,-317.5 379,-317.5 379,-268.5 347,-268.5"/>
</a>
</g>
</g>
<!-- Node4&#45;&gt;Node1 -->
<g id="edge3_Node000001_Node000004" class="edge">
<title>Node4&#45;&gt;Node1</title>
<g id="a_edge3_Node000001_Node000004"><a xlink:title=" ">
<path fill="none" stroke="#63b8ff" d="M357.83,-268.46C353.29,-243 348.95,-201.54 360,-168 360.75,-165.74 361.57,-163.48 362.47,-161.24"/>
<polygon fill="none" stroke="#63b8ff" points="362.53,-161.11 361.37,-153.99 367.49,-150.18 368.65,-157.3 362.53,-161.11"/>
</a>
</g>
<text text-anchor="middle" x="413.5" y="-209.5" font-family="Helvetica,sans-Serif" font-size="10.00" fill="grey"> &#45;mSingleTarget</text>
<text text-anchor="middle" x="413.5" y="-198.5" font-family="Helvetica,sans-Serif" font-size="10.00" fill="grey">&#45;mWorkOnEntireMesh</text>
</g>
<!-- Node5 -->
<g id="Node000005" class="node">
<title>Node5</title>
<g id="a_Node000005"><a xlink:title=" ">
<polygon fill="white" stroke="transparent" points="543,-317.5 435,-317.5 435,-268.5 543,-268.5 543,-317.5"/>
<text text-anchor="start" x="440" y="-305" font-family="Helvetica,sans-Serif" font-size="10.00">vector&lt; unsigned &gt;</text>
<text text-anchor="start" x="487" y="-290" font-family="Helvetica,sans-Serif" font-size="10.00"> </text>
<text text-anchor="start" x="487" y="-275" font-family="Helvetica,sans-Serif" font-size="10.00"> </text>
<polygon fill="#bfbfbf" stroke="#bfbfbf" points="435,-300 435,-300 543,-300 543,-300 435,-300"/>
<polygon fill="#bfbfbf" stroke="#bfbfbf" points="435,-285 435,-285 543,-285 543,-285 435,-285"/>
<polygon fill="none" stroke="#bfbfbf" points="435,-268.5 435,-317.5 543,-317.5 543,-268.5 435,-268.5"/>
</a>
</g>
</g>
<!-- Node5&#45;&gt;Node1 -->
<g id="edge4_Node000001_Node000005" class="edge">
<title>Node5&#45;&gt;Node1</title>
<g id="a_edge4_Node000001_Node000005"><a xlink:title=" ">
<path fill="none" stroke="#63b8ff" d="M487.62,-268.25C485.68,-242.95 481.16,-201.97 471,-168 470.36,-165.88 469.69,-163.74 468.97,-161.59"/>
<polygon fill="none" stroke="#63b8ff" points="468.9,-161.39 463.11,-157.09 464.85,-150.09 470.64,-154.39 468.9,-161.39"/>
</a>
</g>
<text text-anchor="middle" x="535" y="-204" font-family="Helvetica,sans-Serif" font-size="10.00" fill="grey"> &#45;mHaloNodeIndices</text>
</g>
<!-- Node6 -->
<g id="Node000006" class="node">
<title>Node6</title>
<g id="a_Node000006"><a xlink:title=" ">
<polygon fill="white" stroke="transparent" points="694.5,-323 561.5,-323 561.5,-263 694.5,-263 694.5,-323"/>
<text text-anchor="start" x="567" y="-311" font-family="Helvetica,sans-Serif" font-size="10.00">c_vector&lt; double, SPACE</text>
<text text-anchor="start" x="610" y="-300" font-family="Helvetica,sans-Serif" font-size="10.00">_DIM &gt;</text>
<text text-anchor="start" x="626.5" y="-285" font-family="Helvetica,sans-Serif" font-size="10.00"> </text>
<text text-anchor="start" x="626.5" y="-270" font-family="Helvetica,sans-Serif" font-size="10.00"> </text>
<polygon fill="#bfbfbf" stroke="#bfbfbf" points="562,-295 562,-295 695,-295 695,-295 562,-295"/>
<polygon fill="#bfbfbf" stroke="#bfbfbf" points="562,-280 562,-280 695,-280 695,-280 562,-280"/>
<polygon fill="none" stroke="#bfbfbf" points="561.5,-263 561.5,-323 694.5,-323 694.5,-263 561.5,-263"/>
</a>
</g>
</g>
<!-- Node6&#45;&gt;Node1 -->
<g id="edge5_Node000001_Node000006" class="edge">
<title>Node6&#45;&gt;Node1</title>
<g id="a_edge5_Node000001_Node000006"><a xlink:title=" ">
<path fill="none" stroke="#63b8ff" d="M624.95,-262.83C620.8,-235.72 611.16,-195.5 589,-168 571.06,-145.74 546.19,-127.85 521.36,-113.98"/>
<polygon fill="none" stroke="#63b8ff" points="521.31,-113.95 514.14,-114.64 510.74,-108.28 517.92,-107.59 521.31,-113.95"/>
</a>
</g>
<text text-anchor="middle" x="669.5" y="-204" font-family="Helvetica,sans-Serif" font-size="10.00" fill="grey"> &#45;mTargetNodePoint</text>
</g>
<!-- Node7 -->
<g id="Node000007" class="node">
<title>Node7</title>
<g id="a_Node000007"><a xlink:title=" ">
<polygon fill="white" stroke="transparent" points="654,-419 602,-419 602,-370 654,-370 654,-419"/>
<text text-anchor="start" x="607" y="-406.5" font-family="Helvetica,sans-Serif" font-size="10.00">c_vector</text>
<text text-anchor="start" x="626" y="-391.5" font-family="Helvetica,sans-Serif" font-size="10.00"> </text>
<text text-anchor="start" x="626" y="-376.5" font-family="Helvetica,sans-Serif" font-size="10.00"> </text>
<polygon fill="#bfbfbf" stroke="#bfbfbf" points="602,-401.5 602,-401.5 654,-401.5 654,-401.5 602,-401.5"/>
<polygon fill="#bfbfbf" stroke="#bfbfbf" points="602,-386.5 602,-386.5 654,-386.5 654,-386.5 602,-386.5"/>
<polygon fill="none" stroke="#bfbfbf" points="602,-370 602,-419 654,-419 654,-370 602,-370"/>
</a>
</g>
</g>
<!-- Node7&#45;&gt;Node6 -->
<g id="edge6_Node000006_Node000007" class="edge">
<title>Node7&#45;&gt;Node6</title>
<g id="a_edge6_Node000006_Node000007"><a xlink:title=" ">
<path fill="none" stroke="orange" d="M628,-359.87C628,-347.94 628,-334.62 628,-323.1"/>
<polygon fill="orange" stroke="orange" points="624.5,-359.92 628,-369.92 631.5,-359.92 624.5,-359.92"/>
</a>
</g>
<text text-anchor="middle" x="688.5" y="-344" font-family="Helvetica,sans-Serif" font-size="10.00" fill="grey"> &lt; double, SPACE_DIM &gt;</text>
</g>
<!-- Node8 -->
<g id="Node000008" class="node">
<title>Node8</title>
<g id="a_Node000008"><a xlink:title=" ">
<polygon fill="white" stroke="transparent" points="865,-323 713,-323 713,-263 865,-263 865,-323"/>
<text text-anchor="start" x="718" y="-311" font-family="Helvetica,sans-Serif" font-size="10.00">priority_queue&lt; std</text>
<text text-anchor="start" x="718" y="-300" font-family="Helvetica,sans-Serif" font-size="10.00">::pair&lt; double, unsigned &gt; &gt;</text>
<text text-anchor="start" x="787" y="-285" font-family="Helvetica,sans-Serif" font-size="10.00"> </text>
<text text-anchor="start" x="787" y="-270" font-family="Helvetica,sans-Serif" font-size="10.00"> </text>
<polygon fill="#bfbfbf" stroke="#bfbfbf" points="713,-295 713,-295 865,-295 865,-295 713,-295"/>
<polygon fill="#bfbfbf" stroke="#bfbfbf" points="713,-280 713,-280 865,-280 865,-280 713,-280"/>
<polygon fill="none" stroke="#bfbfbf" points="713,-263 713,-323 865,-323 865,-263 713,-263"/>
</a>
</g>
</g>
<!-- Node8&#45;&gt;Node1 -->
<g id="edge7_Node000001_Node000008" class="edge">
<title>Node8&#45;&gt;Node1</title>
<g id="a_edge7_Node000001_Node000008"><a xlink:title=" ">
<path fill="none" stroke="#63b8ff" d="M780.36,-262.74C770.6,-234.59 752.02,-192.75 722,-168 665.39,-121.34 585.05,-98.27 522.65,-86.91"/>
<polygon fill="none" stroke="#63b8ff" points="522.64,-86.91 516.05,-89.82 510.82,-84.85 517.42,-81.94 522.64,-86.91"/>
</a>
</g>
<text text-anchor="start" x="773" y="-209.5" font-family="Helvetica,sans-Serif" font-size="10.00" fill="grey"> &#45;mActivePriorityNodeIndex</text>
<text text-anchor="middle" x="841" y="-198.5" font-family="Helvetica,sans-Serif" font-size="10.00" fill="grey">Queue</text>
</g>
</g>
</svg>
