<?xml version="1.0" encoding="UTF-8" standalone="no"?>
<!DOCTYPE svg PUBLIC "-//W3C//DTD SVG 1.1//EN"
 "http://www.w3.org/Graphics/SVG/1.1/DTD/svg11.dtd">
<!-- Generated by graphviz version 2.43.0 (0)
 -->
<!-- Title: AbstractOdeBasedCellCycleModel Pages: 1 -->
<svg width="1025pt" height="1842pt"
 viewBox="0.00 0.00 1025.00 1842.00" xmlns="http://www.w3.org/2000/svg" xmlns:xlink="http://www.w3.org/1999/xlink">
<g id="graph0" class="graph" transform="scale(1 1) rotate(0) translate(4 1838)">
<title>AbstractOdeBasedCellCycleModel</title>
<!-- Node1 -->
<g id="Node000001" class="node">
<title>Node1</title>
<g id="a_Node000001"><a xlink:title=" ">
<polygon fill="#999999" stroke="transparent" points="578.5,-213 385.5,-213 385.5,0 578.5,0 578.5,-213"/>
<text text-anchor="start" x="414.5" y="-200.5" font-family="Helvetica,sans-Serif" font-size="10.00">AbstractOdeBasedCellCycle</text>
<text text-anchor="start" x="467" y="-189.5" font-family="Helvetica,sans-Serif" font-size="10.00">Model</text>
<text text-anchor="start" x="480.5" y="-174.5" font-family="Helvetica,sans-Serif" font-size="10.00"> </text>
<text text-anchor="start" x="390" y="-159.5" font-family="Helvetica,sans-Serif" font-size="10.00">+</text>
<text text-anchor="start" x="403" y="-159.5" font-family="Helvetica,sans-Serif" font-size="10.00">AbstractOdeBasedCellCycle</text>
<text text-anchor="start" x="403" y="-148.5" font-family="Helvetica,sans-Serif" font-size="10.00">Model()</text>
<text text-anchor="start" x="390" y="-133.5" font-family="Helvetica,sans-Serif" font-size="10.00">+</text>
<text text-anchor="start" x="403" y="-133.5" font-family="Helvetica,sans-Serif" font-size="10.00">~AbstractOdeBasedCellCycle</text>
<text text-anchor="start" x="403" y="-122.5" font-family="Helvetica,sans-Serif" font-size="10.00">Model()</text>
<text text-anchor="start" x="390" y="-107.5" font-family="Helvetica,sans-Serif" font-size="10.00">+</text>
<text text-anchor="start" x="403" y="-107.5" font-family="Helvetica,sans-Serif" font-size="10.00">GetOdeStopTime()</text>
<text text-anchor="start" x="390" y="-92.5" font-family="Helvetica,sans-Serif" font-size="10.00">+</text>
<text text-anchor="start" x="403" y="-92.5" font-family="Helvetica,sans-Serif" font-size="10.00">SetBirthTime()</text>
<text text-anchor="start" x="390" y="-77.5" font-family="Helvetica,sans-Serif" font-size="10.00">+</text>
<text text-anchor="start" x="403" y="-77.5" font-family="Helvetica,sans-Serif" font-size="10.00">ReadyToDivide()</text>
<text text-anchor="start" x="390" y="-62.5" font-family="Helvetica,sans-Serif" font-size="10.00">+</text>
<text text-anchor="start" x="403" y="-62.5" font-family="Helvetica,sans-Serif" font-size="10.00">ResetForDivision()</text>
<text text-anchor="start" x="390" y="-47.5" font-family="Helvetica,sans-Serif" font-size="10.00">+</text>
<text text-anchor="start" x="403" y="-47.5" font-family="Helvetica,sans-Serif" font-size="10.00">OutputCellCycleModelParameters()</text>
<text text-anchor="start" x="390" y="-32.5" font-family="Helvetica,sans-Serif" font-size="10.00">#</text>
<text text-anchor="start" x="403" y="-32.5" font-family="Helvetica,sans-Serif" font-size="10.00">AbstractOdeBasedCellCycle</text>
<text text-anchor="start" x="403" y="-21.5" font-family="Helvetica,sans-Serif" font-size="10.00">Model()</text>
<text text-anchor="start" x="392.5" y="-6.5" font-family="Helvetica,sans-Serif" font-size="10.00">&#45;</text>
<text text-anchor="start" x="403" y="-6.5" font-family="Helvetica,sans-Serif" font-size="10.00">serialize()</text>
<polygon fill="#666666" stroke="#666666" points="386,-184.5 386,-184.5 579,-184.5 579,-184.5 386,-184.5"/>
<polygon fill="#666666" stroke="#666666" points="386,-169.5 386,-169.5 579,-169.5 579,-169.5 386,-169.5"/>
<polygon fill="none" stroke="#666666" points="385.5,0 385.5,-213 578.5,-213 578.5,0 385.5,0"/>
</a>
</g>
</g>
<!-- Node2 -->
<g id="Node000002" class="node">
<title>Node2</title>
<g id="a_Node000002"><a xlink:href="classAbstractCellCycleModel.html" target="_top" xlink:title=" ">
<polygon fill="white" stroke="transparent" points="418,-514.5 264,-514.5 264,-270.5 418,-270.5 418,-514.5"/>
<text text-anchor="start" x="282.5" y="-502.5" font-family="Helvetica,sans-Serif" font-size="10.00">AbstractCellCycleModel</text>
<text text-anchor="start" x="339" y="-487.5" font-family="Helvetica,sans-Serif" font-size="10.00"> </text>
<text text-anchor="start" x="268" y="-472.5" font-family="Helvetica,sans-Serif" font-size="10.00">+</text>
<text text-anchor="start" x="281" y="-472.5" font-family="Helvetica,sans-Serif" font-size="10.00">AbstractCellCycleModel()</text>
<text text-anchor="start" x="268" y="-457.5" font-family="Helvetica,sans-Serif" font-size="10.00">+</text>
<text text-anchor="start" x="281" y="-457.5" font-family="Helvetica,sans-Serif" font-size="10.00">~AbstractCellCycleModel()</text>
<text text-anchor="start" x="268" y="-442.5" font-family="Helvetica,sans-Serif" font-size="10.00">+</text>
<text text-anchor="start" x="281" y="-442.5" font-family="Helvetica,sans-Serif" font-size="10.00">SetCell()</text>
<text text-anchor="start" x="268" y="-427.5" font-family="Helvetica,sans-Serif" font-size="10.00">+</text>
<text text-anchor="start" x="281" y="-427.5" font-family="Helvetica,sans-Serif" font-size="10.00">Initialise()</text>
<text text-anchor="start" x="268" y="-412.5" font-family="Helvetica,sans-Serif" font-size="10.00">+</text>
<text text-anchor="start" x="281" y="-412.5" font-family="Helvetica,sans-Serif" font-size="10.00">InitialiseDaughterCell()</text>
<text text-anchor="start" x="268" y="-397.5" font-family="Helvetica,sans-Serif" font-size="10.00">+</text>
<text text-anchor="start" x="281" y="-397.5" font-family="Helvetica,sans-Serif" font-size="10.00">GetCell()</text>
<text text-anchor="start" x="268" y="-382.5" font-family="Helvetica,sans-Serif" font-size="10.00">+</text>
<text text-anchor="start" x="281" y="-382.5" font-family="Helvetica,sans-Serif" font-size="10.00">SetBirthTime()</text>
<text text-anchor="start" x="268" y="-367.5" font-family="Helvetica,sans-Serif" font-size="10.00">+</text>
<text text-anchor="start" x="281" y="-367.5" font-family="Helvetica,sans-Serif" font-size="10.00">SetDimension()</text>
<text text-anchor="start" x="268" y="-352.5" font-family="Helvetica,sans-Serif" font-size="10.00">+</text>
<text text-anchor="start" x="281" y="-352.5" font-family="Helvetica,sans-Serif" font-size="10.00">GetDimension()</text>
<text text-anchor="start" x="268" y="-337.5" font-family="Helvetica,sans-Serif" font-size="10.00">+</text>
<text text-anchor="start" x="281" y="-337.5" font-family="Helvetica,sans-Serif" font-size="10.00">GetBirthTime()</text>
<text text-anchor="start" x="281" y="-322.5" font-family="Helvetica,sans-Serif" font-size="10.00">and 9 more...</text>
<text text-anchor="start" x="268" y="-307.5" font-family="Helvetica,sans-Serif" font-size="10.00">#</text>
<text text-anchor="start" x="281" y="-307.5" font-family="Helvetica,sans-Serif" font-size="10.00">AbstractCellCycleModel()</text>
<text text-anchor="start" x="270.5" y="-292.5" font-family="Helvetica,sans-Serif" font-size="10.00">&#45;</text>
<text text-anchor="start" x="281" y="-292.5" font-family="Helvetica,sans-Serif" font-size="10.00">serialize()</text>
<text text-anchor="start" x="270.5" y="-277.5" font-family="Helvetica,sans-Serif" font-size="10.00">&#45;</text>
<text text-anchor="start" x="281" y="-277.5" font-family="Helvetica,sans-Serif" font-size="10.00">operator=()</text>
<polygon fill="#666666" stroke="#666666" points="264,-497.5 264,-497.5 418,-497.5 418,-497.5 264,-497.5"/>
<polygon fill="#666666" stroke="#666666" points="264,-482.5 264,-482.5 418,-482.5 418,-482.5 264,-482.5"/>
<polygon fill="none" stroke="#666666" points="264,-270.5 264,-514.5 418,-514.5 418,-270.5 264,-270.5"/>
</a>
</g>
</g>
<!-- Node2&#45;&gt;Node1 -->
<g id="edge1_Node000001_Node000002" class="edge">
<title>Node2&#45;&gt;Node1</title>
<g id="a_edge1_Node000001_Node000002"><a xlink:title=" ">
<path fill="none" stroke="#63b8ff" d="M405.86,-260.85C413.8,-244.86 421.83,-228.68 429.56,-213.13"/>
<polygon fill="none" stroke="#63b8ff" points="402.52,-259.72 401.21,-270.23 408.79,-262.83 402.52,-259.72"/>
</a>
</g>
</g>
<!-- Node3 -->
<g id="Node000003" class="node">
<title>Node3</title>
<g id="a_Node000003"><a xlink:href="classIdentifiable.html" target="_top" xlink:title=" ">
<polygon fill="white" stroke="transparent" points="176,-717 0,-717 0,-638 176,-638 176,-717"/>
<text text-anchor="start" x="60.5" y="-704.5" font-family="Helvetica,sans-Serif" font-size="10.00">Identifiable</text>
<text text-anchor="start" x="86" y="-689.5" font-family="Helvetica,sans-Serif" font-size="10.00"> </text>
<text text-anchor="start" x="4" y="-674.5" font-family="Helvetica,sans-Serif" font-size="10.00">+</text>
<text text-anchor="start" x="17" y="-674.5" font-family="Helvetica,sans-Serif" font-size="10.00">~Identifiable()</text>
<text text-anchor="start" x="4" y="-659.5" font-family="Helvetica,sans-Serif" font-size="10.00">+</text>
<text text-anchor="start" x="17" y="-659.5" font-family="Helvetica,sans-Serif" font-size="10.00">GetIdentifier()</text>
<text text-anchor="start" x="6.5" y="-644.5" font-family="Helvetica,sans-Serif" font-size="10.00">&#45;</text>
<text text-anchor="start" x="17" y="-644.5" font-family="Helvetica,sans-Serif" font-size="10.00">TidyTemplatedExportIdentifier()</text>
<polygon fill="#666666" stroke="#666666" points="0,-699.5 0,-699.5 176,-699.5 176,-699.5 0,-699.5"/>
<polygon fill="#666666" stroke="#666666" points="0,-684.5 0,-684.5 176,-684.5 176,-684.5 0,-684.5"/>
<polygon fill="none" stroke="#666666" points="0,-638 0,-717 176,-717 176,-638 0,-638"/>
</a>
</g>
</g>
<!-- Node3&#45;&gt;Node2 -->
<g id="edge2_Node000002_Node000003" class="edge">
<title>Node3&#45;&gt;Node2</title>
<g id="a_edge2_Node000002_Node000003"><a xlink:title=" ">
<path fill="none" stroke="#63b8ff" d="M129.46,-630.13C165.83,-589.44 219.68,-529.21 263.94,-479.7"/>
<polygon fill="none" stroke="#63b8ff" points="126.7,-627.96 122.65,-637.74 131.92,-632.62 126.7,-627.96"/>
</a>
</g>
</g>
<!-- Node4 -->
<g id="Node000004" class="node">
<title>Node4</title>
<g id="a_Node000004"><a xlink:title=" ">
<polygon fill="white" stroke="transparent" points="298,-702 194,-702 194,-653 298,-653 298,-702"/>
<text text-anchor="start" x="199" y="-689.5" font-family="Helvetica,sans-Serif" font-size="10.00">shared_ptr&lt; Cell &gt;</text>
<text text-anchor="start" x="244" y="-674.5" font-family="Helvetica,sans-Serif" font-size="10.00"> </text>
<text text-anchor="start" x="244" y="-659.5" font-family="Helvetica,sans-Serif" font-size="10.00"> </text>
<polygon fill="#bfbfbf" stroke="#bfbfbf" points="194,-684.5 194,-684.5 298,-684.5 298,-684.5 194,-684.5"/>
<polygon fill="#bfbfbf" stroke="#bfbfbf" points="194,-669.5 194,-669.5 298,-669.5 298,-669.5 194,-669.5"/>
<polygon fill="none" stroke="#bfbfbf" points="194,-653 194,-702 298,-702 298,-653 194,-653"/>
</a>
</g>
</g>
<!-- Node4&#45;&gt;Node2 -->
<g id="edge3_Node000002_Node000004" class="edge">
<title>Node4&#45;&gt;Node2</title>
<g id="a_edge3_Node000002_Node000004"><a xlink:title=" ">
<path fill="none" stroke="#63b8ff" d="M247.86,-652.84C250.29,-627.64 255.54,-586.82 266,-553 268.73,-544.16 271.87,-535.19 275.27,-526.23"/>
<polygon fill="none" stroke="#63b8ff" points="275.33,-526.08 273.8,-519.03 279.71,-514.91 281.25,-521.95 275.33,-526.08"/>
</a>
</g>
<text text-anchor="middle" x="289" y="-561.5" font-family="Helvetica,sans-Serif" font-size="10.00" fill="grey"> #mpCell</text>
</g>
<!-- Node5 -->
<g id="Node000005" class="node">
<title>Node5</title>
<g id="a_Node000005"><a xlink:href="classdouble.html" target="_top" xlink:title=" ">
<polygon fill="white" stroke="transparent" points="528,-702 484,-702 484,-653 528,-653 528,-702"/>
<text text-anchor="start" x="489" y="-689.5" font-family="Helvetica,sans-Serif" font-size="10.00">double</text>
<text text-anchor="start" x="504" y="-674.5" font-family="Helvetica,sans-Serif" font-size="10.00"> </text>
<text text-anchor="start" x="504" y="-659.5" font-family="Helvetica,sans-Serif" font-size="10.00"> </text>
<polygon fill="#bfbfbf" stroke="#bfbfbf" points="484,-684.5 484,-684.5 528,-684.5 528,-684.5 484,-684.5"/>
<polygon fill="#bfbfbf" stroke="#bfbfbf" points="484,-669.5 484,-669.5 528,-669.5 528,-669.5 484,-669.5"/>
<polygon fill="none" stroke="#bfbfbf" points="484,-653 484,-702 528,-702 528,-653 484,-653"/>
</a>
</g>
</g>
<!-- Node5&#45;&gt;Node1 -->
<g id="edge21_Node000001_Node000005" class="edge">
<title>Node5&#45;&gt;Node1</title>
<g id="a_edge21_Node000001_Node000005"><a xlink:title=" ">
<path fill="none" stroke="#63b8ff" d="M502.83,-652.52C499.27,-624.41 493.63,-576.42 491,-535 484.37,-430.38 482.31,-311.11 481.8,-225.18"/>
<polygon fill="none" stroke="#63b8ff" points="481.8,-225.02 477.77,-219.04 481.74,-213.02 485.77,-218.99 481.8,-225.02"/>
</a>
</g>
<text text-anchor="middle" x="530" y="-390" font-family="Helvetica,sans-Serif" font-size="10.00" fill="grey"> #mDivideTime</text>
</g>
<!-- Node5&#45;&gt;Node2 -->
<g id="edge4_Node000002_Node000005" class="edge">
<title>Node5&#45;&gt;Node2</title>
<g id="a_edge4_Node000002_Node000005"><a xlink:title=" ">
<path fill="none" stroke="#63b8ff" d="M501.78,-652.91C497.18,-634.02 487.92,-608.23 470,-593 444.86,-571.64 422.01,-597.62 398,-575 383.6,-561.43 372.82,-544.27 364.75,-525.95"/>
<polygon fill="none" stroke="#63b8ff" points="364.71,-525.85 358.74,-521.79 360.19,-514.73 366.15,-518.78 364.71,-525.85"/>
</a>
</g>
<text text-anchor="middle" x="433" y="-561.5" font-family="Helvetica,sans-Serif" font-size="10.00" fill="grey"> #mBirthTime</text>
</g>
<!-- Node8 -->
<g id="Node000008" class="node">
<title>Node8</title>
<g id="a_Node000008"><a xlink:href="classCellCycleModelOdeHandler.html" target="_top" xlink:title=" ">
<polygon fill="white" stroke="transparent" points="749.5,-535 578.5,-535 578.5,-250 749.5,-250 749.5,-535"/>
<text text-anchor="start" x="597.5" y="-522.5" font-family="Helvetica,sans-Serif" font-size="10.00">CellCycleModelOdeHandler</text>
<text text-anchor="start" x="662.5" y="-507.5" font-family="Helvetica,sans-Serif" font-size="10.00"> </text>
<text text-anchor="start" x="583" y="-492.5" font-family="Helvetica,sans-Serif" font-size="10.00">+</text>
<text text-anchor="start" x="596" y="-492.5" font-family="Helvetica,sans-Serif" font-size="10.00">CellCycleModelOdeHandler()</text>
<text text-anchor="start" x="583" y="-477.5" font-family="Helvetica,sans-Serif" font-size="10.00">+</text>
<text text-anchor="start" x="596" y="-477.5" font-family="Helvetica,sans-Serif" font-size="10.00">~CellCycleModelOdeHandler()</text>
<text text-anchor="start" x="583" y="-462.5" font-family="Helvetica,sans-Serif" font-size="10.00">+</text>
<text text-anchor="start" x="596" y="-462.5" font-family="Helvetica,sans-Serif" font-size="10.00">GetOdeSystem()</text>
<text text-anchor="start" x="583" y="-447.5" font-family="Helvetica,sans-Serif" font-size="10.00">+</text>
<text text-anchor="start" x="596" y="-447.5" font-family="Helvetica,sans-Serif" font-size="10.00">SetOdeSystem()</text>
<text text-anchor="start" x="583" y="-432.5" font-family="Helvetica,sans-Serif" font-size="10.00">+</text>
<text text-anchor="start" x="596" y="-432.5" font-family="Helvetica,sans-Serif" font-size="10.00">GetOdeSolver()</text>
<text text-anchor="start" x="583" y="-417.5" font-family="Helvetica,sans-Serif" font-size="10.00">+</text>
<text text-anchor="start" x="596" y="-417.5" font-family="Helvetica,sans-Serif" font-size="10.00">SetLastTime()</text>
<text text-anchor="start" x="583" y="-402.5" font-family="Helvetica,sans-Serif" font-size="10.00">+</text>
<text text-anchor="start" x="596" y="-402.5" font-family="Helvetica,sans-Serif" font-size="10.00">GetDt()</text>
<text text-anchor="start" x="583" y="-387.5" font-family="Helvetica,sans-Serif" font-size="10.00">+</text>
<text text-anchor="start" x="596" y="-387.5" font-family="Helvetica,sans-Serif" font-size="10.00">SetDt()</text>
<text text-anchor="start" x="583" y="-372.5" font-family="Helvetica,sans-Serif" font-size="10.00">+</text>
<text text-anchor="start" x="596" y="-372.5" font-family="Helvetica,sans-Serif" font-size="10.00">SetStateVariables()</text>
<text text-anchor="start" x="583" y="-357.5" font-family="Helvetica,sans-Serif" font-size="10.00">+</text>
<text text-anchor="start" x="596" y="-357.5" font-family="Helvetica,sans-Serif" font-size="10.00">GetProteinConcentrations()</text>
<text text-anchor="start" x="583" y="-342.5" font-family="Helvetica,sans-Serif" font-size="10.00">+</text>
<text text-anchor="start" x="596" y="-342.5" font-family="Helvetica,sans-Serif" font-size="10.00">SetProteinConcentrations</text>
<text text-anchor="start" x="596" y="-331.5" font-family="Helvetica,sans-Serif" font-size="10.00">ForTestsOnly()</text>
<text text-anchor="start" x="583" y="-316.5" font-family="Helvetica,sans-Serif" font-size="10.00">#</text>
<text text-anchor="start" x="596" y="-316.5" font-family="Helvetica,sans-Serif" font-size="10.00">CellCycleModelOdeHandler()</text>
<text text-anchor="start" x="583" y="-301.5" font-family="Helvetica,sans-Serif" font-size="10.00">#</text>
<text text-anchor="start" x="596" y="-301.5" font-family="Helvetica,sans-Serif" font-size="10.00">SolveOdeToTime()</text>
<text text-anchor="start" x="583" y="-286.5" font-family="Helvetica,sans-Serif" font-size="10.00">#</text>
<text text-anchor="start" x="596" y="-286.5" font-family="Helvetica,sans-Serif" font-size="10.00">AdjustOdeParameters()</text>
<text text-anchor="start" x="585.5" y="-271.5" font-family="Helvetica,sans-Serif" font-size="10.00">&#45;</text>
<text text-anchor="start" x="596" y="-271.5" font-family="Helvetica,sans-Serif" font-size="10.00">serialize()</text>
<text text-anchor="start" x="585.5" y="-256.5" font-family="Helvetica,sans-Serif" font-size="10.00">&#45;</text>
<text text-anchor="start" x="596" y="-256.5" font-family="Helvetica,sans-Serif" font-size="10.00">operator=()</text>
<polygon fill="#666666" stroke="#666666" points="579,-517.5 579,-517.5 750,-517.5 750,-517.5 579,-517.5"/>
<polygon fill="#666666" stroke="#666666" points="579,-502.5 579,-502.5 750,-502.5 750,-502.5 579,-502.5"/>
<polygon fill="none" stroke="#666666" points="578.5,-250 578.5,-535 749.5,-535 749.5,-250 578.5,-250"/>
</a>
</g>
</g>
<!-- Node5&#45;&gt;Node8 -->
<g id="edge8_Node000008_Node000005" class="edge">
<title>Node5&#45;&gt;Node8</title>
<g id="a_edge8_Node000008_Node000005"><a xlink:title=" ">
<path fill="none" stroke="#63b8ff" d="M501.02,-652.98C496.73,-626.02 494.23,-581.85 516,-553 529.72,-534.81 545.96,-548.92 564,-535 565.68,-533.71 567.34,-532.37 568.98,-531.01"/>
<polygon fill="none" stroke="#63b8ff" points="569.22,-530.8 571.07,-523.83 578.22,-522.86 576.37,-529.83 569.22,-530.8"/>
</a>
</g>
<text text-anchor="middle" x="548" y="-567" font-family="Helvetica,sans-Serif" font-size="10.00" fill="grey"> #mDt</text>
<text text-anchor="middle" x="548" y="-556" font-family="Helvetica,sans-Serif" font-size="10.00" fill="grey">#mLastTime</text>
</g>
<!-- Node6 -->
<g id="Node000006" class="node">
<title>Node6</title>
<g id="a_Node000006"><a xlink:href="classbool.html" target="_top" xlink:title=" ">
<polygon fill="white" stroke="transparent" points="588,-976 556,-976 556,-927 588,-927 588,-976"/>
<text text-anchor="start" x="561" y="-963.5" font-family="Helvetica,sans-Serif" font-size="10.00">bool</text>
<text text-anchor="start" x="570" y="-948.5" font-family="Helvetica,sans-Serif" font-size="10.00"> </text>
<text text-anchor="start" x="570" y="-933.5" font-family="Helvetica,sans-Serif" font-size="10.00"> </text>
<polygon fill="#bfbfbf" stroke="#bfbfbf" points="556,-958.5 556,-958.5 588,-958.5 588,-958.5 556,-958.5"/>
<polygon fill="#bfbfbf" stroke="#bfbfbf" points="556,-943.5 556,-943.5 588,-943.5 588,-943.5 556,-943.5"/>
<polygon fill="none" stroke="#bfbfbf" points="556,-927 556,-976 588,-976 588,-927 556,-927"/>
</a>
</g>
</g>
<!-- Node6&#45;&gt;Node2 -->
<g id="edge5_Node000002_Node000006" class="edge">
<title>Node6&#45;&gt;Node2</title>
<g id="a_edge5_Node000002_Node000006"><a xlink:title=" ">
<path fill="none" stroke="#63b8ff" d="M555.84,-940.37C517.66,-915.45 422.04,-846.95 381,-762 361.4,-721.42 351.27,-614.94 346.12,-526.81"/>
<polygon fill="none" stroke="#63b8ff" points="346.12,-526.77 341.78,-521 345.44,-514.79 349.77,-520.55 346.12,-526.77"/>
</a>
</g>
<text text-anchor="middle" x="428" y="-675" font-family="Helvetica,sans-Serif" font-size="10.00" fill="grey"> #mReadyToDivide</text>
</g>
<!-- Node6&#45;&gt;Node8 -->
<g id="edge20_Node000008_Node000006" class="edge">
<title>Node6&#45;&gt;Node8</title>
<g id="a_edge20_Node000008_Node000006"><a xlink:title=" ">
<path fill="none" stroke="#63b8ff" d="M569.75,-926.73C564.89,-868.85 555.85,-716.3 582,-593 585.23,-577.75 589.59,-562.18 594.61,-546.8"/>
<polygon fill="none" stroke="#63b8ff" points="594.72,-546.45 592.86,-539.49 598.57,-535.09 600.43,-542.05 594.72,-546.45"/>
</a>
</g>
<text text-anchor="middle" x="645.5" y="-675" font-family="Helvetica,sans-Serif" font-size="10.00" fill="grey"> #mFinishedRunningOdes</text>
</g>
<!-- Node9 -->
<g id="Node000009" class="node">
<title>Node9</title>
<g id="a_Node000009"><a xlink:href="classAbstractOdeSystem.html" target="_top" xlink:title=" ">
<polygon fill="white" stroke="transparent" points="1017,-762 869,-762 869,-593 1017,-593 1017,-762"/>
<text text-anchor="start" x="894.5" y="-749.5" font-family="Helvetica,sans-Serif" font-size="10.00">AbstractOdeSystem</text>
<text text-anchor="start" x="941" y="-734.5" font-family="Helvetica,sans-Serif" font-size="10.00"> </text>
<text text-anchor="start" x="873" y="-719.5" font-family="Helvetica,sans-Serif" font-size="10.00">+</text>
<text text-anchor="start" x="886" y="-719.5" font-family="Helvetica,sans-Serif" font-size="10.00">AbstractOdeSystem()</text>
<text text-anchor="start" x="873" y="-704.5" font-family="Helvetica,sans-Serif" font-size="10.00">+</text>
<text text-anchor="start" x="886" y="-704.5" font-family="Helvetica,sans-Serif" font-size="10.00">~AbstractOdeSystem()</text>
<text text-anchor="start" x="873" y="-689.5" font-family="Helvetica,sans-Serif" font-size="10.00">+</text>
<text text-anchor="start" x="886" y="-689.5" font-family="Helvetica,sans-Serif" font-size="10.00">EvaluateYDerivatives()</text>
<text text-anchor="start" x="873" y="-674.5" font-family="Helvetica,sans-Serif" font-size="10.00">+</text>
<text text-anchor="start" x="886" y="-674.5" font-family="Helvetica,sans-Serif" font-size="10.00">CalculateStoppingEvent()</text>
<text text-anchor="start" x="873" y="-659.5" font-family="Helvetica,sans-Serif" font-size="10.00">+</text>
<text text-anchor="start" x="886" y="-659.5" font-family="Helvetica,sans-Serif" font-size="10.00">CalculateRootFunction()</text>
<text text-anchor="start" x="873" y="-644.5" font-family="Helvetica,sans-Serif" font-size="10.00">+</text>
<text text-anchor="start" x="886" y="-644.5" font-family="Helvetica,sans-Serif" font-size="10.00">GetUseAnalyticJacobian()</text>
<text text-anchor="start" x="873" y="-629.5" font-family="Helvetica,sans-Serif" font-size="10.00">+</text>
<text text-anchor="start" x="886" y="-629.5" font-family="Helvetica,sans-Serif" font-size="10.00">rGetConstStateVariables()</text>
<text text-anchor="start" x="875.5" y="-614.5" font-family="Helvetica,sans-Serif" font-size="10.00">&#45;</text>
<text text-anchor="start" x="886" y="-614.5" font-family="Helvetica,sans-Serif" font-size="10.00">save()</text>
<text text-anchor="start" x="875.5" y="-599.5" font-family="Helvetica,sans-Serif" font-size="10.00">&#45;</text>
<text text-anchor="start" x="886" y="-599.5" font-family="Helvetica,sans-Serif" font-size="10.00">load()</text>
<polygon fill="#666666" stroke="#666666" points="869,-744.5 869,-744.5 1017,-744.5 1017,-744.5 869,-744.5"/>
<polygon fill="#666666" stroke="#666666" points="869,-729.5 869,-729.5 1017,-729.5 1017,-729.5 869,-729.5"/>
<polygon fill="none" stroke="#666666" points="869,-593 869,-762 1017,-762 1017,-593 869,-593"/>
</a>
</g>
</g>
<!-- Node6&#45;&gt;Node9 -->
<g id="edge18_Node000009_Node000006" class="edge">
<title>Node6&#45;&gt;Node9</title>
<g id="a_edge18_Node000009_Node000006"><a xlink:title=" ">
<path fill="none" stroke="#63b8ff" d="M573.41,-926.86C576.56,-895.47 586.8,-840.34 620,-809 696.26,-737.01 758.14,-805.15 857.87,-762.22"/>
<polygon fill="none" stroke="#63b8ff" points="858.04,-762.13 861.8,-755.98 868.92,-757.07 865.17,-763.23 858.04,-762.13"/>
</a>
</g>
<text text-anchor="middle" x="726.5" y="-783" font-family="Helvetica,sans-Serif" font-size="10.00" fill="grey"> #mUseAnalyticJacobian</text>
</g>
<!-- Node7 -->
<g id="Node000007" class="node">
<title>Node7</title>
<g id="a_Node000007"><a xlink:href="classunsigned.html" target="_top" xlink:title=" ">
<polygon fill="white" stroke="transparent" points="401.5,-1828.5 346.5,-1828.5 346.5,-1779.5 401.5,-1779.5 401.5,-1828.5"/>
<text text-anchor="start" x="352" y="-1816" font-family="Helvetica,sans-Serif" font-size="10.00">unsigned</text>
<text text-anchor="start" x="372.5" y="-1801" font-family="Helvetica,sans-Serif" font-size="10.00"> </text>
<text text-anchor="start" x="372.5" y="-1786" font-family="Helvetica,sans-Serif" font-size="10.00"> </text>
<polygon fill="#bfbfbf" stroke="#bfbfbf" points="347,-1811 347,-1811 402,-1811 402,-1811 347,-1811"/>
<polygon fill="#bfbfbf" stroke="#bfbfbf" points="347,-1796 347,-1796 402,-1796 402,-1796 347,-1796"/>
<polygon fill="none" stroke="#bfbfbf" points="346.5,-1779.5 346.5,-1828.5 401.5,-1828.5 401.5,-1779.5 346.5,-1779.5"/>
</a>
</g>
</g>
<!-- Node7&#45;&gt;Node2 -->
<g id="edge6_Node000002_Node000007" class="edge">
<title>Node7&#45;&gt;Node2</title>
<g id="a_edge6_Node000002_Node000007"><a xlink:title=" ">
<path fill="none" stroke="#63b8ff" d="M364.05,-1779.36C349.99,-1743.74 326,-1673.89 326,-1612 326,-1612 326,-1612 326,-676.5 326,-627.62 328.26,-574.05 331.02,-526.8"/>
<polygon fill="none" stroke="#63b8ff" points="331.04,-526.59 327.4,-520.36 331.76,-514.61 335.39,-520.84 331.04,-526.59"/>
</a>
</g>
<text text-anchor="middle" x="363" y="-1120.5" font-family="Helvetica,sans-Serif" font-size="10.00" fill="grey"> #mDimension</text>
</g>
<!-- Node11 -->
<g id="Node000011" class="node">
<title>Node11</title>
<g id="a_Node000011"><a xlink:href="classAbstractUntemplatedParameterisedSystem.html" target="_top" xlink:title=" ">
<polygon fill="white" stroke="transparent" points="658.5,-1727 453.5,-1727 453.5,-1495 658.5,-1495 658.5,-1727"/>
<text text-anchor="start" x="469" y="-1715" font-family="Helvetica,sans-Serif" font-size="10.00">AbstractUntemplatedParameterised</text>
<text text-anchor="start" x="538" y="-1704" font-family="Helvetica,sans-Serif" font-size="10.00">System</text>
<text text-anchor="start" x="554.5" y="-1689" font-family="Helvetica,sans-Serif" font-size="10.00"> </text>
<text text-anchor="start" x="458" y="-1674" font-family="Helvetica,sans-Serif" font-size="10.00">+</text>
<text text-anchor="start" x="471" y="-1674" font-family="Helvetica,sans-Serif" font-size="10.00">AbstractUntemplatedParameterised</text>
<text text-anchor="start" x="471" y="-1663" font-family="Helvetica,sans-Serif" font-size="10.00">System()</text>
<text text-anchor="start" x="458" y="-1648" font-family="Helvetica,sans-Serif" font-size="10.00">+</text>
<text text-anchor="start" x="471" y="-1648" font-family="Helvetica,sans-Serif" font-size="10.00">~AbstractUntemplatedParameterised</text>
<text text-anchor="start" x="471" y="-1637" font-family="Helvetica,sans-Serif" font-size="10.00">System()</text>
<text text-anchor="start" x="458" y="-1622" font-family="Helvetica,sans-Serif" font-size="10.00">+</text>
<text text-anchor="start" x="471" y="-1622" font-family="Helvetica,sans-Serif" font-size="10.00">GetSystemInformation()</text>
<text text-anchor="start" x="458" y="-1607" font-family="Helvetica,sans-Serif" font-size="10.00">+</text>
<text text-anchor="start" x="471" y="-1607" font-family="Helvetica,sans-Serif" font-size="10.00">GetSystemName()</text>
<text text-anchor="start" x="458" y="-1592" font-family="Helvetica,sans-Serif" font-size="10.00">+</text>
<text text-anchor="start" x="471" y="-1592" font-family="Helvetica,sans-Serif" font-size="10.00">GetNumberOfAttributes()</text>
<text text-anchor="start" x="458" y="-1577" font-family="Helvetica,sans-Serif" font-size="10.00">+</text>
<text text-anchor="start" x="471" y="-1577" font-family="Helvetica,sans-Serif" font-size="10.00">HasAttribute()</text>
<text text-anchor="start" x="458" y="-1562" font-family="Helvetica,sans-Serif" font-size="10.00">+</text>
<text text-anchor="start" x="471" y="-1562" font-family="Helvetica,sans-Serif" font-size="10.00">GetAttribute()</text>
<text text-anchor="start" x="458" y="-1547" font-family="Helvetica,sans-Serif" font-size="10.00">+</text>
<text text-anchor="start" x="471" y="-1547" font-family="Helvetica,sans-Serif" font-size="10.00">GetNumberOfStateVariables()</text>
<text text-anchor="start" x="458" y="-1532" font-family="Helvetica,sans-Serif" font-size="10.00">+</text>
<text text-anchor="start" x="471" y="-1532" font-family="Helvetica,sans-Serif" font-size="10.00">rGetStateVariableNames()</text>
<text text-anchor="start" x="458" y="-1517" font-family="Helvetica,sans-Serif" font-size="10.00">+</text>
<text text-anchor="start" x="471" y="-1517" font-family="Helvetica,sans-Serif" font-size="10.00">rGetStateVariableUnits()</text>
<text text-anchor="start" x="471" y="-1502" font-family="Helvetica,sans-Serif" font-size="10.00">and 20 more...</text>
<polygon fill="#666666" stroke="#666666" points="454,-1699 454,-1699 659,-1699 659,-1699 454,-1699"/>
<polygon fill="#666666" stroke="#666666" points="454,-1684 454,-1684 659,-1684 659,-1684 454,-1684"/>
<polygon fill="none" stroke="#666666" points="453.5,-1495 453.5,-1727 658.5,-1727 658.5,-1495 453.5,-1495"/>
</a>
</g>
</g>
<!-- Node7&#45;&gt;Node11 -->
<g id="edge12_Node000011_Node000007" class="edge">
<title>Node7&#45;&gt;Node11</title>
<g id="a_edge12_Node000011_Node000007"><a xlink:title=" ">
<path fill="none" stroke="#63b8ff" d="M385.04,-1779.22C391.19,-1767.83 399.69,-1754.62 410,-1745 420.45,-1735.25 427.62,-1736.38 443.15,-1726.79"/>
<polygon fill="none" stroke="#63b8ff" points="443.47,-1726.56 446.13,-1719.86 453.34,-1719.74 450.68,-1726.44 443.47,-1726.56"/>
</a>
</g>
<text text-anchor="middle" x="481" y="-1748" font-family="Helvetica,sans-Serif" font-size="10.00" fill="grey"> #mNumberOfStateVariables</text>
</g>
<!-- Node8&#45;&gt;Node1 -->
<g id="edge7_Node000001_Node000008" class="edge">
<title>Node8&#45;&gt;Node1</title>
<g id="a_edge7_Node000001_Node000008"><a xlink:title=" ">
<path fill="none" stroke="#63b8ff" d="M572.93,-249.39C565.13,-237.22 557.33,-225.04 549.75,-213.23"/>
<polygon fill="none" stroke="#63b8ff" points="569.99,-251.29 578.33,-257.82 575.88,-247.51 569.99,-251.29"/>
</a>
</g>
</g>
<!-- Node9&#45;&gt;Node8 -->
<g id="edge9_Node000008_Node000009" class="edge">
<title>Node9&#45;&gt;Node8</title>
<g id="a_edge9_Node000008_Node000009"><a xlink:title=" ">
<path fill="none" stroke="#63b8ff" d="M868.97,-601.4C834.96,-566.92 794.25,-525.62 758.11,-488.96"/>
<polygon fill="none" stroke="#63b8ff" points="757.93,-488.78 750.87,-487.31 749.51,-480.23 756.57,-481.7 757.93,-488.78"/>
</a>
</g>
<text text-anchor="middle" x="878" y="-561.5" font-family="Helvetica,sans-Serif" font-size="10.00" fill="grey"> #mpOdeSystem</text>
</g>
<!-- Node10 -->
<g id="Node000010" class="node">
<title>Node10</title>
<g id="a_Node000010"><a xlink:href="classAbstractParameterisedSystem.html" target="_top" xlink:title=" ">
<polygon fill="white" stroke="transparent" points="805.5,-1094 628.5,-1094 628.5,-809 805.5,-809 805.5,-1094"/>
<text text-anchor="start" x="643.5" y="-1081.5" font-family="Helvetica,sans-Serif" font-size="10.00">AbstractParameterisedSystem</text>
<text text-anchor="start" x="652.5" y="-1070.5" font-family="Helvetica,sans-Serif" font-size="10.00">&lt; std::vector&lt; double &gt; &gt;</text>
<text text-anchor="start" x="715.5" y="-1055.5" font-family="Helvetica,sans-Serif" font-size="10.00"> </text>
<text text-anchor="start" x="633" y="-1040.5" font-family="Helvetica,sans-Serif" font-size="10.00">+</text>
<text text-anchor="start" x="646" y="-1040.5" font-family="Helvetica,sans-Serif" font-size="10.00">AbstractParameterisedSystem()</text>
<text text-anchor="start" x="633" y="-1025.5" font-family="Helvetica,sans-Serif" font-size="10.00">+</text>
<text text-anchor="start" x="646" y="-1025.5" font-family="Helvetica,sans-Serif" font-size="10.00">rGetStateVariables()</text>
<text text-anchor="start" x="633" y="-1010.5" font-family="Helvetica,sans-Serif" font-size="10.00">+</text>
<text text-anchor="start" x="646" y="-1010.5" font-family="Helvetica,sans-Serif" font-size="10.00">GetStateVariables()</text>
<text text-anchor="start" x="633" y="-995.5" font-family="Helvetica,sans-Serif" font-size="10.00">+</text>
<text text-anchor="start" x="646" y="-995.5" font-family="Helvetica,sans-Serif" font-size="10.00">SetStateVariables()</text>
<text text-anchor="start" x="633" y="-980.5" font-family="Helvetica,sans-Serif" font-size="10.00">+</text>
<text text-anchor="start" x="646" y="-980.5" font-family="Helvetica,sans-Serif" font-size="10.00">GetStateVariable()</text>
<text text-anchor="start" x="633" y="-965.5" font-family="Helvetica,sans-Serif" font-size="10.00">+</text>
<text text-anchor="start" x="646" y="-965.5" font-family="Helvetica,sans-Serif" font-size="10.00">GetStateVariable()</text>
<text text-anchor="start" x="633" y="-950.5" font-family="Helvetica,sans-Serif" font-size="10.00">+</text>
<text text-anchor="start" x="646" y="-950.5" font-family="Helvetica,sans-Serif" font-size="10.00">SetStateVariable()</text>
<text text-anchor="start" x="633" y="-935.5" font-family="Helvetica,sans-Serif" font-size="10.00">+</text>
<text text-anchor="start" x="646" y="-935.5" font-family="Helvetica,sans-Serif" font-size="10.00">SetStateVariable()</text>
<text text-anchor="start" x="633" y="-920.5" font-family="Helvetica,sans-Serif" font-size="10.00">+</text>
<text text-anchor="start" x="646" y="-920.5" font-family="Helvetica,sans-Serif" font-size="10.00">VerifyStateVariables()</text>
<text text-anchor="start" x="633" y="-905.5" font-family="Helvetica,sans-Serif" font-size="10.00">+</text>
<text text-anchor="start" x="646" y="-905.5" font-family="Helvetica,sans-Serif" font-size="10.00">SetDefaultInitialConditions()</text>
<text text-anchor="start" x="646" y="-890.5" font-family="Helvetica,sans-Serif" font-size="10.00">and 13 more...</text>
<text text-anchor="start" x="633" y="-875.5" font-family="Helvetica,sans-Serif" font-size="10.00">#</text>
<text text-anchor="start" x="646" y="-875.5" font-family="Helvetica,sans-Serif" font-size="10.00">DumpState()</text>
<text text-anchor="start" x="633" y="-860.5" font-family="Helvetica,sans-Serif" font-size="10.00">#</text>
<text text-anchor="start" x="646" y="-860.5" font-family="Helvetica,sans-Serif" font-size="10.00">DumpState()</text>
<text text-anchor="start" x="633" y="-845.5" font-family="Helvetica,sans-Serif" font-size="10.00">#</text>
<text text-anchor="start" x="646" y="-845.5" font-family="Helvetica,sans-Serif" font-size="10.00">DumpState()</text>
<text text-anchor="start" x="633" y="-830.5" font-family="Helvetica,sans-Serif" font-size="10.00">#</text>
<text text-anchor="start" x="646" y="-830.5" font-family="Helvetica,sans-Serif" font-size="10.00">CheckParametersOnLoad()</text>
<text text-anchor="start" x="635.5" y="-815.5" font-family="Helvetica,sans-Serif" font-size="10.00">&#45;</text>
<text text-anchor="start" x="646" y="-815.5" font-family="Helvetica,sans-Serif" font-size="10.00">GetStateMessage()</text>
<polygon fill="#666666" stroke="#666666" points="629,-1065.5 629,-1065.5 806,-1065.5 806,-1065.5 629,-1065.5"/>
<polygon fill="#666666" stroke="#666666" points="629,-1050.5 629,-1050.5 806,-1050.5 806,-1050.5 629,-1050.5"/>
<polygon fill="none" stroke="#666666" points="628.5,-809 628.5,-1094 805.5,-1094 805.5,-809 628.5,-809"/>
</a>
</g>
</g>
<!-- Node10&#45;&gt;Node9 -->
<g id="edge10_Node000009_Node000010" class="edge">
<title>Node10&#45;&gt;Node9</title>
<g id="a_edge10_Node000009_Node000010"><a xlink:title=" ">
<path fill="none" stroke="#63b8ff" d="M812.3,-835.8C832.82,-811.11 854.13,-785.46 873.44,-762.22"/>
<polygon fill="none" stroke="#63b8ff" points="809.37,-833.85 805.67,-843.78 814.76,-838.32 809.37,-833.85"/>
</a>
</g>
</g>
<!-- Node11&#45;&gt;Node10 -->
<g id="edge11_Node000010_Node000011" class="edge">
<title>Node11&#45;&gt;Node10</title>
<g id="a_edge11_Node000010_Node000011"><a xlink:title=" ">
<path fill="none" stroke="#63b8ff" d="M665.01,-1500.74C679.95,-1480.83 693.41,-1459.27 703,-1437 749.57,-1328.79 749.39,-1194.03 739.67,-1094.13"/>
<polygon fill="none" stroke="#63b8ff" points="662.09,-1498.8 658.77,-1508.86 667.64,-1503.07 662.09,-1498.8"/>
</a>
</g>
</g>
<!-- Node14 -->
<g id="Node000014" class="node">
<title>Node14</title>
<g id="a_Node000014"><a xlink:href="classAbstractParameterisedSystem.html" target="_top" xlink:title=" ">
<polygon fill="white" stroke="transparent" points="578.5,-1437 401.5,-1437 401.5,-1152 578.5,-1152 578.5,-1437"/>
<text text-anchor="start" x="416.5" y="-1424.5" font-family="Helvetica,sans-Serif" font-size="10.00">AbstractParameterisedSystem</text>
<text text-anchor="start" x="459" y="-1413.5" font-family="Helvetica,sans-Serif" font-size="10.00">&lt; VECTOR &gt;</text>
<text text-anchor="start" x="488.5" y="-1398.5" font-family="Helvetica,sans-Serif" font-size="10.00"> </text>
<text text-anchor="start" x="406" y="-1383.5" font-family="Helvetica,sans-Serif" font-size="10.00">+</text>
<text text-anchor="start" x="419" y="-1383.5" font-family="Helvetica,sans-Serif" font-size="10.00">AbstractParameterisedSystem()</text>
<text text-anchor="start" x="406" y="-1368.5" font-family="Helvetica,sans-Serif" font-size="10.00">+</text>
<text text-anchor="start" x="419" y="-1368.5" font-family="Helvetica,sans-Serif" font-size="10.00">rGetStateVariables()</text>
<text text-anchor="start" x="406" y="-1353.5" font-family="Helvetica,sans-Serif" font-size="10.00">+</text>
<text text-anchor="start" x="419" y="-1353.5" font-family="Helvetica,sans-Serif" font-size="10.00">GetStateVariables()</text>
<text text-anchor="start" x="406" y="-1338.5" font-family="Helvetica,sans-Serif" font-size="10.00">+</text>
<text text-anchor="start" x="419" y="-1338.5" font-family="Helvetica,sans-Serif" font-size="10.00">SetStateVariables()</text>
<text text-anchor="start" x="406" y="-1323.5" font-family="Helvetica,sans-Serif" font-size="10.00">+</text>
<text text-anchor="start" x="419" y="-1323.5" font-family="Helvetica,sans-Serif" font-size="10.00">GetStateVariable()</text>
<text text-anchor="start" x="406" y="-1308.5" font-family="Helvetica,sans-Serif" font-size="10.00">+</text>
<text text-anchor="start" x="419" y="-1308.5" font-family="Helvetica,sans-Serif" font-size="10.00">GetStateVariable()</text>
<text text-anchor="start" x="406" y="-1293.5" font-family="Helvetica,sans-Serif" font-size="10.00">+</text>
<text text-anchor="start" x="419" y="-1293.5" font-family="Helvetica,sans-Serif" font-size="10.00">SetStateVariable()</text>
<text text-anchor="start" x="406" y="-1278.5" font-family="Helvetica,sans-Serif" font-size="10.00">+</text>
<text text-anchor="start" x="419" y="-1278.5" font-family="Helvetica,sans-Serif" font-size="10.00">SetStateVariable()</text>
<text text-anchor="start" x="406" y="-1263.5" font-family="Helvetica,sans-Serif" font-size="10.00">+</text>
<text text-anchor="start" x="419" y="-1263.5" font-family="Helvetica,sans-Serif" font-size="10.00">VerifyStateVariables()</text>
<text text-anchor="start" x="406" y="-1248.5" font-family="Helvetica,sans-Serif" font-size="10.00">+</text>
<text text-anchor="start" x="419" y="-1248.5" font-family="Helvetica,sans-Serif" font-size="10.00">SetDefaultInitialConditions()</text>
<text text-anchor="start" x="419" y="-1233.5" font-family="Helvetica,sans-Serif" font-size="10.00">and 13 more...</text>
<text text-anchor="start" x="406" y="-1218.5" font-family="Helvetica,sans-Serif" font-size="10.00">#</text>
<text text-anchor="start" x="419" y="-1218.5" font-family="Helvetica,sans-Serif" font-size="10.00">DumpState()</text>
<text text-anchor="start" x="406" y="-1203.5" font-family="Helvetica,sans-Serif" font-size="10.00">#</text>
<text text-anchor="start" x="419" y="-1203.5" font-family="Helvetica,sans-Serif" font-size="10.00">DumpState()</text>
<text text-anchor="start" x="406" y="-1188.5" font-family="Helvetica,sans-Serif" font-size="10.00">#</text>
<text text-anchor="start" x="419" y="-1188.5" font-family="Helvetica,sans-Serif" font-size="10.00">DumpState()</text>
<text text-anchor="start" x="406" y="-1173.5" font-family="Helvetica,sans-Serif" font-size="10.00">#</text>
<text text-anchor="start" x="419" y="-1173.5" font-family="Helvetica,sans-Serif" font-size="10.00">CheckParametersOnLoad()</text>
<text text-anchor="start" x="408.5" y="-1158.5" font-family="Helvetica,sans-Serif" font-size="10.00">&#45;</text>
<text text-anchor="start" x="419" y="-1158.5" font-family="Helvetica,sans-Serif" font-size="10.00">GetStateMessage()</text>
<polygon fill="#666666" stroke="#666666" points="402,-1408.5 402,-1408.5 579,-1408.5 579,-1408.5 402,-1408.5"/>
<polygon fill="#666666" stroke="#666666" points="402,-1393.5 402,-1393.5 579,-1393.5 579,-1393.5 402,-1393.5"/>
<polygon fill="none" stroke="#666666" points="401.5,-1152 401.5,-1437 578.5,-1437 578.5,-1152 401.5,-1152"/>
</a>
</g>
</g>
<!-- Node11&#45;&gt;Node14 -->
<g id="edge16_Node000014_Node000011" class="edge">
<title>Node11&#45;&gt;Node14</title>
<g id="a_edge16_Node000014_Node000011"><a xlink:title=" ">
<path fill="none" stroke="#63b8ff" d="M529.66,-1484.49C526.39,-1468.88 523.02,-1452.84 519.7,-1437.01"/>
<polygon fill="none" stroke="#63b8ff" points="526.32,-1485.61 531.8,-1494.68 533.17,-1484.17 526.32,-1485.61"/>
</a>
</g>
</g>
<!-- Node12 -->
<g id="Node000012" class="node">
<title>Node12</title>
<g id="a_Node000012"><a xlink:title=" ">
<polygon fill="white" stroke="transparent" points="641,-1834 471,-1834 471,-1774 641,-1774 641,-1834"/>
<text text-anchor="start" x="476" y="-1822" font-family="Helvetica,sans-Serif" font-size="10.00">shared_ptr&lt; AbstractOdeSystem</text>
<text text-anchor="start" x="521.5" y="-1811" font-family="Helvetica,sans-Serif" font-size="10.00">Information &gt;</text>
<text text-anchor="start" x="554" y="-1796" font-family="Helvetica,sans-Serif" font-size="10.00"> </text>
<text text-anchor="start" x="554" y="-1781" font-family="Helvetica,sans-Serif" font-size="10.00"> </text>
<polygon fill="#bfbfbf" stroke="#bfbfbf" points="471,-1806 471,-1806 641,-1806 641,-1806 471,-1806"/>
<polygon fill="#bfbfbf" stroke="#bfbfbf" points="471,-1791 471,-1791 641,-1791 641,-1791 471,-1791"/>
<polygon fill="none" stroke="#bfbfbf" points="471,-1774 471,-1834 641,-1834 641,-1774 471,-1774"/>
</a>
</g>
</g>
<!-- Node12&#45;&gt;Node11 -->
<g id="edge13_Node000011_Node000012" class="edge">
<title>Node12&#45;&gt;Node11</title>
<g id="a_edge13_Node000011_Node000012"><a xlink:title=" ">
<path fill="none" stroke="#63b8ff" d="M556,-1773.99C556,-1764.11 556,-1752.33 556,-1739.71"/>
<polygon fill="none" stroke="#63b8ff" points="556,-1739.38 552,-1733.38 556,-1727.38 560,-1733.38 556,-1739.38"/>
</a>
</g>
<text text-anchor="middle" x="597.5" y="-1748" font-family="Helvetica,sans-Serif" font-size="10.00" fill="grey"> #mpSystemInfo</text>
</g>
<!-- Node13 -->
<g id="Node000013" class="node">
<title>Node13</title>
<g id="a_Node000013"><a xlink:title=" ">
<polygon fill="white" stroke="transparent" points="694.5,-1319 597.5,-1319 597.5,-1270 694.5,-1270 694.5,-1319"/>
<text text-anchor="start" x="603" y="-1306.5" font-family="Helvetica,sans-Serif" font-size="10.00">vector&lt; double &gt;</text>
<text text-anchor="start" x="644.5" y="-1291.5" font-family="Helvetica,sans-Serif" font-size="10.00"> </text>
<text text-anchor="start" x="644.5" y="-1276.5" font-family="Helvetica,sans-Serif" font-size="10.00"> </text>
<polygon fill="#bfbfbf" stroke="#bfbfbf" points="598,-1301.5 598,-1301.5 695,-1301.5 695,-1301.5 598,-1301.5"/>
<polygon fill="#bfbfbf" stroke="#bfbfbf" points="598,-1286.5 598,-1286.5 695,-1286.5 695,-1286.5 598,-1286.5"/>
<polygon fill="none" stroke="#bfbfbf" points="597.5,-1270 597.5,-1319 694.5,-1319 694.5,-1270 597.5,-1270"/>
</a>
</g>
</g>
<!-- Node13&#45;&gt;Node10 -->
<g id="edge14_Node000010_Node000013" class="edge">
<title>Node13&#45;&gt;Node10</title>
<g id="a_edge14_Node000010_Node000013"><a xlink:title=" ">
<path fill="none" stroke="#63b8ff" d="M643.12,-1269.97C639.52,-1235.04 635.17,-1167.63 647,-1112 647.43,-1109.97 647.89,-1107.93 648.38,-1105.88"/>
<polygon fill="none" stroke="#63b8ff" points="648.41,-1105.76 646.04,-1098.95 651.42,-1094.15 653.79,-1100.96 648.41,-1105.76"/>
</a>
</g>
<text text-anchor="middle" x="691.5" y="-1126" font-family="Helvetica,sans-Serif" font-size="10.00" fill="grey"> #mParameters</text>
<text text-anchor="middle" x="691.5" y="-1115" font-family="Helvetica,sans-Serif" font-size="10.00" fill="grey">#mStateVariables</text>
</g>
<!-- Node14&#45;&gt;Node10 -->
<g id="edge15_Node000010_Node000014" class="edge">
<title>Node14&#45;&gt;Node10</title>
<g id="a_edge15_Node000010_Node000014"><a xlink:title=" ">
<path fill="none" stroke="orange" d="M488.65,-1141.82C493.07,-1130.95 499.05,-1120.82 507,-1112 534.31,-1081.7 561.85,-1114.71 597,-1094 607.96,-1087.54 618.4,-1079.71 628.21,-1071.08"/>
<polygon fill="orange" stroke="orange" points="485.24,-1140.96 485.15,-1151.55 491.83,-1143.32 485.24,-1140.96"/>
</a>
</g>
<text text-anchor="middle" x="573.5" y="-1120.5" font-family="Helvetica,sans-Serif" font-size="10.00" fill="grey"> &lt; std::vector&lt; double &gt; &gt;</text>
</g>
<!-- Node15 -->
<g id="Node000015" class="node">
<title>Node15</title>
<g id="a_Node000015"><a xlink:title=" ">
<polygon fill="white" stroke="transparent" points="435,-1635.5 385,-1635.5 385,-1586.5 435,-1586.5 435,-1635.5"/>
<text text-anchor="start" x="390" y="-1623" font-family="Helvetica,sans-Serif" font-size="10.00">VECTOR</text>
<text text-anchor="start" x="408" y="-1608" font-family="Helvetica,sans-Serif" font-size="10.00"> </text>
<text text-anchor="start" x="408" y="-1593" font-family="Helvetica,sans-Serif" font-size="10.00"> </text>
<polygon fill="#bfbfbf" stroke="#bfbfbf" points="385,-1618 385,-1618 435,-1618 435,-1618 385,-1618"/>
<polygon fill="#bfbfbf" stroke="#bfbfbf" points="385,-1603 385,-1603 435,-1603 435,-1603 385,-1603"/>
<polygon fill="none" stroke="#bfbfbf" points="385,-1586.5 385,-1635.5 435,-1635.5 435,-1586.5 385,-1586.5"/>
</a>
</g>
</g>
<!-- Node15&#45;&gt;Node14 -->
<g id="edge17_Node000014_Node000015" class="edge">
<title>Node15&#45;&gt;Node14</title>
<g id="a_edge17_Node000014_Node000015"><a xlink:title=" ">
<path fill="none" stroke="#63b8ff" d="M411.82,-1586.34C414.53,-1555.68 420.57,-1500.75 432,-1455 432.5,-1452.99 433.02,-1450.96 433.56,-1448.93"/>
<polygon fill="none" stroke="#63b8ff" points="433.6,-1448.79 431.33,-1441.94 436.77,-1437.22 439.04,-1444.06 433.6,-1448.79"/>
</a>
</g>
<text text-anchor="middle" x="476.5" y="-1469" font-family="Helvetica,sans-Serif" font-size="10.00" fill="grey"> #mParameters</text>
<text text-anchor="middle" x="476.5" y="-1458" font-family="Helvetica,sans-Serif" font-size="10.00" fill="grey">#mStateVariables</text>
</g>
<!-- Node16 -->
<g id="Node000016" class="node">
<title>Node16</title>
<g id="a_Node000016"><a xlink:title=" ">
<polygon fill="white" stroke="transparent" points="850.5,-707.5 717.5,-707.5 717.5,-647.5 850.5,-647.5 850.5,-707.5"/>
<text text-anchor="start" x="723" y="-695.5" font-family="Helvetica,sans-Serif" font-size="10.00">shared_ptr&lt; AbstractCell</text>
<text text-anchor="start" x="725" y="-684.5" font-family="Helvetica,sans-Serif" font-size="10.00">CycleModelOdeSolver &gt;</text>
<text text-anchor="start" x="782.5" y="-669.5" font-family="Helvetica,sans-Serif" font-size="10.00"> </text>
<text text-anchor="start" x="782.5" y="-654.5" font-family="Helvetica,sans-Serif" font-size="10.00"> </text>
<polygon fill="#bfbfbf" stroke="#bfbfbf" points="718,-679.5 718,-679.5 851,-679.5 851,-679.5 718,-679.5"/>
<polygon fill="#bfbfbf" stroke="#bfbfbf" points="718,-664.5 718,-664.5 851,-664.5 851,-664.5 718,-664.5"/>
<polygon fill="none" stroke="#bfbfbf" points="717.5,-647.5 717.5,-707.5 850.5,-707.5 850.5,-647.5 717.5,-647.5"/>
</a>
</g>
</g>
<!-- Node16&#45;&gt;Node8 -->
<g id="edge19_Node000008_Node000016" class="edge">
<title>Node16&#45;&gt;Node8</title>
<g id="a_edge19_Node000008_Node000016"><a xlink:title=" ">
<path fill="none" stroke="#63b8ff" d="M771.61,-647.28C761.15,-622.6 745.29,-585.21 728.94,-546.65"/>
<polygon fill="none" stroke="#63b8ff" points="728.77,-546.26 722.75,-542.29 724.09,-535.21 730.11,-539.17 728.77,-546.26"/>
</a>
</g>
<text text-anchor="middle" x="777" y="-561.5" font-family="Helvetica,sans-Serif" font-size="10.00" fill="grey"> #mpOdeSolver</text>
</g>
</g>
</svg>
