<?xml version="1.0" encoding="UTF-8" standalone="no"?>
<!DOCTYPE svg PUBLIC "-//W3C//DTD SVG 1.1//EN"
 "http://www.w3.org/Graphics/SVG/1.1/DTD/svg11.dtd">
<!-- Generated by graphviz version 2.43.0 (0)
 -->
<!-- Title: AbstractIsotropicIncompressibleMaterialLaw&lt; DIM &gt; Pages: 1 -->
<svg width="551pt" height="1065pt"
 viewBox="0.00 0.00 551.00 1065.00" xmlns="http://www.w3.org/2000/svg" xmlns:xlink="http://www.w3.org/1999/xlink">
<g id="graph0" class="graph" transform="scale(1 1) rotate(0) translate(4 1061)">
<title>AbstractIsotropicIncompressibleMaterialLaw&lt; DIM &gt;</title>
<!-- Node1 -->
<g id="Node000001" class="node">
<title>Node1</title>
<g id="a_Node000001"><a xlink:title=" ">
<polygon fill="#999999" stroke="transparent" points="345,-639 142,-639 142,-448 345,-448 345,-639"/>
<text text-anchor="start" x="165.5" y="-626.5" font-family="Helvetica,sans-Serif" font-size="10.00">AbstractIsotropicIncompressible</text>
<text text-anchor="start" x="192.5" y="-615.5" font-family="Helvetica,sans-Serif" font-size="10.00">MaterialLaw&lt; DIM &gt;</text>
<text text-anchor="start" x="242" y="-600.5" font-family="Helvetica,sans-Serif" font-size="10.00"> </text>
<text text-anchor="start" x="146.5" y="-585.5" font-family="Helvetica,sans-Serif" font-size="10.00">+</text>
<text text-anchor="start" x="159.5" y="-585.5" font-family="Helvetica,sans-Serif" font-size="10.00">ComputeStressAndStressDerivative()</text>
<text text-anchor="start" x="146.5" y="-570.5" font-family="Helvetica,sans-Serif" font-size="10.00">+</text>
<text text-anchor="start" x="159.5" y="-570.5" font-family="Helvetica,sans-Serif" font-size="10.00">~AbstractIsotropicIncompressible</text>
<text text-anchor="start" x="159.5" y="-559.5" font-family="Helvetica,sans-Serif" font-size="10.00">MaterialLaw()</text>
<text text-anchor="start" x="146.5" y="-544.5" font-family="Helvetica,sans-Serif" font-size="10.00">+</text>
<text text-anchor="start" x="159.5" y="-544.5" font-family="Helvetica,sans-Serif" font-size="10.00">GetZeroStrainPressure()</text>
<text text-anchor="start" x="146.5" y="-529.5" font-family="Helvetica,sans-Serif" font-size="10.00">+</text>
<text text-anchor="start" x="159.5" y="-529.5" font-family="Helvetica,sans-Serif" font-size="10.00">GetZeroStrainPressure()</text>
<text text-anchor="start" x="146.5" y="-514.5" font-family="Helvetica,sans-Serif" font-size="10.00">#</text>
<text text-anchor="start" x="159.5" y="-514.5" font-family="Helvetica,sans-Serif" font-size="10.00">Get_dW_dI1()</text>
<text text-anchor="start" x="146.5" y="-499.5" font-family="Helvetica,sans-Serif" font-size="10.00">#</text>
<text text-anchor="start" x="159.5" y="-499.5" font-family="Helvetica,sans-Serif" font-size="10.00">Get_dW_dI2()</text>
<text text-anchor="start" x="146.5" y="-484.5" font-family="Helvetica,sans-Serif" font-size="10.00">#</text>
<text text-anchor="start" x="159.5" y="-484.5" font-family="Helvetica,sans-Serif" font-size="10.00">Get_d2W_dI1()</text>
<text text-anchor="start" x="146.5" y="-469.5" font-family="Helvetica,sans-Serif" font-size="10.00">#</text>
<text text-anchor="start" x="159.5" y="-469.5" font-family="Helvetica,sans-Serif" font-size="10.00">Get_d2W_dI2()</text>
<text text-anchor="start" x="146.5" y="-454.5" font-family="Helvetica,sans-Serif" font-size="10.00">#</text>
<text text-anchor="start" x="159.5" y="-454.5" font-family="Helvetica,sans-Serif" font-size="10.00">Get_d2W_dI1I2()</text>
<polygon fill="#666666" stroke="#666666" points="142.5,-610.5 142.5,-610.5 345.5,-610.5 345.5,-610.5 142.5,-610.5"/>
<polygon fill="#666666" stroke="#666666" points="142.5,-595.5 142.5,-595.5 345.5,-595.5 345.5,-595.5 142.5,-595.5"/>
<polygon fill="none" stroke="#666666" points="142,-448 142,-639 345,-639 345,-448 142,-448"/>
</a>
</g>
</g>
<!-- Node4 -->
<g id="Node000004" class="node">
<title>Node4</title>
<g id="a_Node000004"><a xlink:href="classExponentialMaterialLaw.html" target="_top" xlink:title=" ">
<polygon fill="white" stroke="transparent" points="147,-393.5 0,-393.5 0,-213.5 147,-213.5 147,-393.5"/>
<text text-anchor="start" x="15" y="-381.5" font-family="Helvetica,sans-Serif" font-size="10.00">ExponentialMaterialLaw</text>
<text text-anchor="start" x="52.5" y="-370.5" font-family="Helvetica,sans-Serif" font-size="10.00">&lt; DIM &gt;</text>
<text text-anchor="start" x="7" y="-355.5" font-family="Helvetica,sans-Serif" font-size="10.00">&#45;</text>
<text text-anchor="start" x="17.5" y="-355.5" font-family="Helvetica,sans-Serif" font-size="10.00">mA</text>
<text text-anchor="start" x="7" y="-340.5" font-family="Helvetica,sans-Serif" font-size="10.00">&#45;</text>
<text text-anchor="start" x="17.5" y="-340.5" font-family="Helvetica,sans-Serif" font-size="10.00">mB</text>
<text text-anchor="start" x="4.5" y="-325.5" font-family="Helvetica,sans-Serif" font-size="10.00">+</text>
<text text-anchor="start" x="17.5" y="-325.5" font-family="Helvetica,sans-Serif" font-size="10.00">Get_dW_dI1()</text>
<text text-anchor="start" x="4.5" y="-310.5" font-family="Helvetica,sans-Serif" font-size="10.00">+</text>
<text text-anchor="start" x="17.5" y="-310.5" font-family="Helvetica,sans-Serif" font-size="10.00">Get_dW_dI2()</text>
<text text-anchor="start" x="4.5" y="-295.5" font-family="Helvetica,sans-Serif" font-size="10.00">+</text>
<text text-anchor="start" x="17.5" y="-295.5" font-family="Helvetica,sans-Serif" font-size="10.00">Get_d2W_dI1()</text>
<text text-anchor="start" x="4.5" y="-280.5" font-family="Helvetica,sans-Serif" font-size="10.00">+</text>
<text text-anchor="start" x="17.5" y="-280.5" font-family="Helvetica,sans-Serif" font-size="10.00">Get_d2W_dI2()</text>
<text text-anchor="start" x="4.5" y="-265.5" font-family="Helvetica,sans-Serif" font-size="10.00">+</text>
<text text-anchor="start" x="17.5" y="-265.5" font-family="Helvetica,sans-Serif" font-size="10.00">Get_d2W_dI1I2()</text>
<text text-anchor="start" x="4.5" y="-250.5" font-family="Helvetica,sans-Serif" font-size="10.00">+</text>
<text text-anchor="start" x="17.5" y="-250.5" font-family="Helvetica,sans-Serif" font-size="10.00">GetA()</text>
<text text-anchor="start" x="4.5" y="-235.5" font-family="Helvetica,sans-Serif" font-size="10.00">+</text>
<text text-anchor="start" x="17.5" y="-235.5" font-family="Helvetica,sans-Serif" font-size="10.00">GetB()</text>
<text text-anchor="start" x="4.5" y="-220.5" font-family="Helvetica,sans-Serif" font-size="10.00">+</text>
<text text-anchor="start" x="17.5" y="-220.5" font-family="Helvetica,sans-Serif" font-size="10.00">ExponentialMaterialLaw()</text>
<polygon fill="#666666" stroke="#666666" points="0.5,-365.5 0.5,-365.5 147.5,-365.5 147.5,-365.5 0.5,-365.5"/>
<polygon fill="#666666" stroke="#666666" points="0.5,-335.5 0.5,-335.5 15.5,-335.5 15.5,-335.5 0.5,-335.5"/>
<polygon fill="#666666" stroke="#666666" points="15.5,-335.5 15.5,-335.5 147.5,-335.5 147.5,-335.5 15.5,-335.5"/>
<polygon fill="none" stroke="#666666" points="0,-213.5 0,-393.5 147,-393.5 147,-213.5 0,-213.5"/>
</a>
</g>
</g>
<!-- Node1&#45;&gt;Node4 -->
<g id="edge3_Node000001_Node000004" class="edge">
<title>Node1&#45;&gt;Node4</title>
<g id="a_edge3_Node000001_Node000004"><a xlink:title=" ">
<path fill="none" stroke="#63b8ff" d="M169.8,-439.32C158.9,-424.06 147.75,-408.44 137.08,-393.51"/>
<polygon fill="none" stroke="#63b8ff" points="167.16,-441.65 175.82,-447.75 172.86,-437.58 167.16,-441.65"/>
</a>
</g>
</g>
<!-- Node5 -->
<g id="Node000005" class="node">
<title>Node5</title>
<g id="a_Node000005"><a xlink:href="classMooneyRivlinMaterialLaw.html" target="_top" xlink:title=" ">
<polygon fill="white" stroke="transparent" points="321.5,-401 165.5,-401 165.5,-206 321.5,-206 321.5,-401"/>
<text text-anchor="start" x="180" y="-388.5" font-family="Helvetica,sans-Serif" font-size="10.00">MooneyRivlinMaterialLaw</text>
<text text-anchor="start" x="222" y="-377.5" font-family="Helvetica,sans-Serif" font-size="10.00">&lt; DIM &gt;</text>
<text text-anchor="start" x="172" y="-362.5" font-family="Helvetica,sans-Serif" font-size="10.00">&#45;</text>
<text text-anchor="start" x="182.5" y="-362.5" font-family="Helvetica,sans-Serif" font-size="10.00">mC1</text>
<text text-anchor="start" x="172" y="-347.5" font-family="Helvetica,sans-Serif" font-size="10.00">&#45;</text>
<text text-anchor="start" x="182.5" y="-347.5" font-family="Helvetica,sans-Serif" font-size="10.00">mC2</text>
<text text-anchor="start" x="169.5" y="-332.5" font-family="Helvetica,sans-Serif" font-size="10.00">+</text>
<text text-anchor="start" x="182.5" y="-332.5" font-family="Helvetica,sans-Serif" font-size="10.00">Get_dW_dI1()</text>
<text text-anchor="start" x="169.5" y="-317.5" font-family="Helvetica,sans-Serif" font-size="10.00">+</text>
<text text-anchor="start" x="182.5" y="-317.5" font-family="Helvetica,sans-Serif" font-size="10.00">Get_dW_dI2()</text>
<text text-anchor="start" x="169.5" y="-302.5" font-family="Helvetica,sans-Serif" font-size="10.00">+</text>
<text text-anchor="start" x="182.5" y="-302.5" font-family="Helvetica,sans-Serif" font-size="10.00">Get_d2W_dI1()</text>
<text text-anchor="start" x="169.5" y="-287.5" font-family="Helvetica,sans-Serif" font-size="10.00">+</text>
<text text-anchor="start" x="182.5" y="-287.5" font-family="Helvetica,sans-Serif" font-size="10.00">Get_d2W_dI2()</text>
<text text-anchor="start" x="169.5" y="-272.5" font-family="Helvetica,sans-Serif" font-size="10.00">+</text>
<text text-anchor="start" x="182.5" y="-272.5" font-family="Helvetica,sans-Serif" font-size="10.00">Get_d2W_dI1I2()</text>
<text text-anchor="start" x="169.5" y="-257.5" font-family="Helvetica,sans-Serif" font-size="10.00">+</text>
<text text-anchor="start" x="182.5" y="-257.5" font-family="Helvetica,sans-Serif" font-size="10.00">GetC1()</text>
<text text-anchor="start" x="169.5" y="-242.5" font-family="Helvetica,sans-Serif" font-size="10.00">+</text>
<text text-anchor="start" x="182.5" y="-242.5" font-family="Helvetica,sans-Serif" font-size="10.00">GetC2()</text>
<text text-anchor="start" x="169.5" y="-227.5" font-family="Helvetica,sans-Serif" font-size="10.00">+</text>
<text text-anchor="start" x="182.5" y="-227.5" font-family="Helvetica,sans-Serif" font-size="10.00">MooneyRivlinMaterialLaw()</text>
<text text-anchor="start" x="169.5" y="-212.5" font-family="Helvetica,sans-Serif" font-size="10.00">+</text>
<text text-anchor="start" x="182.5" y="-212.5" font-family="Helvetica,sans-Serif" font-size="10.00">ScaleMaterialParameters()</text>
<polygon fill="#666666" stroke="#666666" points="165.5,-372.5 165.5,-372.5 321.5,-372.5 321.5,-372.5 165.5,-372.5"/>
<polygon fill="#666666" stroke="#666666" points="165.5,-342.5 165.5,-342.5 180.5,-342.5 180.5,-342.5 165.5,-342.5"/>
<polygon fill="#666666" stroke="#666666" points="180.5,-342.5 180.5,-342.5 321.5,-342.5 321.5,-342.5 180.5,-342.5"/>
<polygon fill="none" stroke="#666666" points="165.5,-206 165.5,-401 321.5,-401 321.5,-206 165.5,-206"/>
</a>
</g>
</g>
<!-- Node1&#45;&gt;Node5 -->
<g id="edge4_Node000001_Node000005" class="edge">
<title>Node1&#45;&gt;Node5</title>
<g id="a_edge4_Node000001_Node000005"><a xlink:title=" ">
<path fill="none" stroke="#63b8ff" d="M243.5,-437.65C243.5,-425.54 243.5,-413.24 243.5,-401.26"/>
<polygon fill="none" stroke="#63b8ff" points="240,-437.75 243.5,-447.75 247,-437.75 240,-437.75"/>
</a>
</g>
</g>
<!-- Node6 -->
<g id="Node000006" class="node">
<title>Node6</title>
<g id="a_Node000006"><a xlink:href="classAbstractIsotropicIncompressibleMaterialLaw.html" target="_top" xlink:title=" ">
<polygon fill="white" stroke="transparent" points="543,-399 340,-399 340,-208 543,-208 543,-399"/>
<text text-anchor="start" x="363.5" y="-386.5" font-family="Helvetica,sans-Serif" font-size="10.00">AbstractIsotropicIncompressible</text>
<text text-anchor="start" x="397.5" y="-375.5" font-family="Helvetica,sans-Serif" font-size="10.00">MaterialLaw&lt; 3 &gt;</text>
<text text-anchor="start" x="440" y="-360.5" font-family="Helvetica,sans-Serif" font-size="10.00"> </text>
<text text-anchor="start" x="344.5" y="-345.5" font-family="Helvetica,sans-Serif" font-size="10.00">+</text>
<text text-anchor="start" x="357.5" y="-345.5" font-family="Helvetica,sans-Serif" font-size="10.00">ComputeStressAndStressDerivative()</text>
<text text-anchor="start" x="344.5" y="-330.5" font-family="Helvetica,sans-Serif" font-size="10.00">+</text>
<text text-anchor="start" x="357.5" y="-330.5" font-family="Helvetica,sans-Serif" font-size="10.00">~AbstractIsotropicIncompressible</text>
<text text-anchor="start" x="357.5" y="-319.5" font-family="Helvetica,sans-Serif" font-size="10.00">MaterialLaw()</text>
<text text-anchor="start" x="344.5" y="-304.5" font-family="Helvetica,sans-Serif" font-size="10.00">+</text>
<text text-anchor="start" x="357.5" y="-304.5" font-family="Helvetica,sans-Serif" font-size="10.00">GetZeroStrainPressure()</text>
<text text-anchor="start" x="344.5" y="-289.5" font-family="Helvetica,sans-Serif" font-size="10.00">+</text>
<text text-anchor="start" x="357.5" y="-289.5" font-family="Helvetica,sans-Serif" font-size="10.00">GetZeroStrainPressure()</text>
<text text-anchor="start" x="344.5" y="-274.5" font-family="Helvetica,sans-Serif" font-size="10.00">#</text>
<text text-anchor="start" x="357.5" y="-274.5" font-family="Helvetica,sans-Serif" font-size="10.00">Get_dW_dI1()</text>
<text text-anchor="start" x="344.5" y="-259.5" font-family="Helvetica,sans-Serif" font-size="10.00">#</text>
<text text-anchor="start" x="357.5" y="-259.5" font-family="Helvetica,sans-Serif" font-size="10.00">Get_dW_dI2()</text>
<text text-anchor="start" x="344.5" y="-244.5" font-family="Helvetica,sans-Serif" font-size="10.00">#</text>
<text text-anchor="start" x="357.5" y="-244.5" font-family="Helvetica,sans-Serif" font-size="10.00">Get_d2W_dI1()</text>
<text text-anchor="start" x="344.5" y="-229.5" font-family="Helvetica,sans-Serif" font-size="10.00">#</text>
<text text-anchor="start" x="357.5" y="-229.5" font-family="Helvetica,sans-Serif" font-size="10.00">Get_d2W_dI2()</text>
<text text-anchor="start" x="344.5" y="-214.5" font-family="Helvetica,sans-Serif" font-size="10.00">#</text>
<text text-anchor="start" x="357.5" y="-214.5" font-family="Helvetica,sans-Serif" font-size="10.00">Get_d2W_dI1I2()</text>
<polygon fill="#666666" stroke="#666666" points="340.5,-370.5 340.5,-370.5 543.5,-370.5 543.5,-370.5 340.5,-370.5"/>
<polygon fill="#666666" stroke="#666666" points="340.5,-355.5 340.5,-355.5 543.5,-355.5 543.5,-355.5 340.5,-355.5"/>
<polygon fill="none" stroke="#666666" points="340,-208 340,-399 543,-399 543,-208 340,-208"/>
</a>
</g>
</g>
<!-- Node1&#45;&gt;Node6 -->
<g id="edge5_Node000001_Node000006" class="edge">
<title>Node1&#45;&gt;Node6</title>
<g id="a_edge5_Node000001_Node000006"><a xlink:title=" ">
<path fill="none" stroke="orange" d="M328.89,-439.86C340.09,-426.39 351.53,-412.64 362.62,-399.31"/>
<polygon fill="orange" stroke="orange" points="326.03,-437.83 322.32,-447.75 331.41,-442.3 326.03,-437.83"/>
</a>
</g>
<text text-anchor="middle" x="358.5" y="-422" font-family="Helvetica,sans-Serif" font-size="10.00" fill="grey"> &lt; 3 &gt;</text>
</g>
<!-- Node2 -->
<g id="Node000002" class="node">
<title>Node2</title>
<g id="a_Node000002"><a xlink:href="classAbstractIncompressibleMaterialLaw.html" target="_top" xlink:title=" ">
<polygon fill="white" stroke="transparent" points="336,-788 151,-788 151,-676 336,-676 336,-788"/>
<text text-anchor="start" x="166" y="-776" font-family="Helvetica,sans-Serif" font-size="10.00">AbstractIncompressibleMaterial</text>
<text text-anchor="start" x="213" y="-765" font-family="Helvetica,sans-Serif" font-size="10.00">Law&lt; DIM &gt;</text>
<text text-anchor="start" x="242" y="-750" font-family="Helvetica,sans-Serif" font-size="10.00"> </text>
<text text-anchor="start" x="155.5" y="-735" font-family="Helvetica,sans-Serif" font-size="10.00">+</text>
<text text-anchor="start" x="168.5" y="-735" font-family="Helvetica,sans-Serif" font-size="10.00">AbstractIncompressibleMaterial</text>
<text text-anchor="start" x="168.5" y="-724" font-family="Helvetica,sans-Serif" font-size="10.00">Law()</text>
<text text-anchor="start" x="155.5" y="-709" font-family="Helvetica,sans-Serif" font-size="10.00">+</text>
<text text-anchor="start" x="168.5" y="-709" font-family="Helvetica,sans-Serif" font-size="10.00">~AbstractIncompressibleMaterial</text>
<text text-anchor="start" x="168.5" y="-698" font-family="Helvetica,sans-Serif" font-size="10.00">Law()</text>
<text text-anchor="start" x="155.5" y="-683" font-family="Helvetica,sans-Serif" font-size="10.00">+</text>
<text text-anchor="start" x="168.5" y="-683" font-family="Helvetica,sans-Serif" font-size="10.00">GetZeroStrainPressure()</text>
<polygon fill="#666666" stroke="#666666" points="151.5,-760 151.5,-760 336.5,-760 336.5,-760 151.5,-760"/>
<polygon fill="#666666" stroke="#666666" points="151.5,-745 151.5,-745 336.5,-745 336.5,-745 151.5,-745"/>
<polygon fill="none" stroke="#666666" points="151,-676 151,-788 336,-788 336,-676 151,-676"/>
</a>
</g>
</g>
<!-- Node2&#45;&gt;Node1 -->
<g id="edge1_Node000001_Node000002" class="edge">
<title>Node2&#45;&gt;Node1</title>
<g id="a_edge1_Node000001_Node000002"><a xlink:title=" ">
<path fill="none" stroke="#63b8ff" d="M243.5,-665.53C243.5,-656.94 243.5,-648.02 243.5,-639.07"/>
<polygon fill="none" stroke="#63b8ff" points="240,-665.8 243.5,-675.8 247,-665.8 240,-665.8"/>
</a>
</g>
</g>
<!-- Node3 -->
<g id="Node000003" class="node">
<title>Node3</title>
<g id="a_Node000003"><a xlink:href="classAbstractMaterialLaw.html" target="_top" xlink:title=" ">
<polygon fill="white" stroke="transparent" points="345,-1057 142,-1057 142,-825 345,-825 345,-1057"/>
<text text-anchor="start" x="193.5" y="-1045" font-family="Helvetica,sans-Serif" font-size="10.00">AbstractMaterialLaw</text>
<text text-anchor="start" x="222.5" y="-1034" font-family="Helvetica,sans-Serif" font-size="10.00">&lt; DIM &gt;</text>
<text text-anchor="start" x="146.5" y="-1019" font-family="Helvetica,sans-Serif" font-size="10.00">#</text>
<text text-anchor="start" x="159.5" y="-1019" font-family="Helvetica,sans-Serif" font-size="10.00">mpChangeOfBasisMatrix</text>
<text text-anchor="start" x="146.5" y="-1004" font-family="Helvetica,sans-Serif" font-size="10.00">+</text>
<text text-anchor="start" x="159.5" y="-1004" font-family="Helvetica,sans-Serif" font-size="10.00">AbstractMaterialLaw()</text>
<text text-anchor="start" x="146.5" y="-989" font-family="Helvetica,sans-Serif" font-size="10.00">+</text>
<text text-anchor="start" x="159.5" y="-989" font-family="Helvetica,sans-Serif" font-size="10.00">~AbstractMaterialLaw()</text>
<text text-anchor="start" x="146.5" y="-974" font-family="Helvetica,sans-Serif" font-size="10.00">+</text>
<text text-anchor="start" x="159.5" y="-974" font-family="Helvetica,sans-Serif" font-size="10.00">ComputeStressAndStressDerivative()</text>
<text text-anchor="start" x="146.5" y="-959" font-family="Helvetica,sans-Serif" font-size="10.00">+</text>
<text text-anchor="start" x="159.5" y="-959" font-family="Helvetica,sans-Serif" font-size="10.00">ComputeCauchyStress()</text>
<text text-anchor="start" x="146.5" y="-944" font-family="Helvetica,sans-Serif" font-size="10.00">+</text>
<text text-anchor="start" x="159.5" y="-944" font-family="Helvetica,sans-Serif" font-size="10.00">Compute1stPiolaKirchoffStress()</text>
<text text-anchor="start" x="146.5" y="-929" font-family="Helvetica,sans-Serif" font-size="10.00">+</text>
<text text-anchor="start" x="159.5" y="-929" font-family="Helvetica,sans-Serif" font-size="10.00">Compute2ndPiolaKirchoffStress()</text>
<text text-anchor="start" x="146.5" y="-914" font-family="Helvetica,sans-Serif" font-size="10.00">+</text>
<text text-anchor="start" x="159.5" y="-914" font-family="Helvetica,sans-Serif" font-size="10.00">ScaleMaterialParameters()</text>
<text text-anchor="start" x="146.5" y="-899" font-family="Helvetica,sans-Serif" font-size="10.00">+</text>
<text text-anchor="start" x="159.5" y="-899" font-family="Helvetica,sans-Serif" font-size="10.00">SetChangeOfBasisMatrix()</text>
<text text-anchor="start" x="146.5" y="-884" font-family="Helvetica,sans-Serif" font-size="10.00">+</text>
<text text-anchor="start" x="159.5" y="-884" font-family="Helvetica,sans-Serif" font-size="10.00">ResetToNoChangeOfBasisMatrix()</text>
<text text-anchor="start" x="146.5" y="-869" font-family="Helvetica,sans-Serif" font-size="10.00">#</text>
<text text-anchor="start" x="159.5" y="-869" font-family="Helvetica,sans-Serif" font-size="10.00">ComputeTransformedDeformation</text>
<text text-anchor="start" x="159.5" y="-858" font-family="Helvetica,sans-Serif" font-size="10.00">Tensor()</text>
<text text-anchor="start" x="146.5" y="-843" font-family="Helvetica,sans-Serif" font-size="10.00">#</text>
<text text-anchor="start" x="159.5" y="-843" font-family="Helvetica,sans-Serif" font-size="10.00">TransformStressAndStress</text>
<text text-anchor="start" x="159.5" y="-832" font-family="Helvetica,sans-Serif" font-size="10.00">Derivative()</text>
<polygon fill="#666666" stroke="#666666" points="142.5,-1029 142.5,-1029 345.5,-1029 345.5,-1029 142.5,-1029"/>
<polygon fill="#666666" stroke="#666666" points="142.5,-1014 142.5,-1014 157.5,-1014 157.5,-1014 142.5,-1014"/>
<polygon fill="#666666" stroke="#666666" points="157.5,-1014 157.5,-1014 345.5,-1014 345.5,-1014 157.5,-1014"/>
<polygon fill="none" stroke="#666666" points="142,-825 142,-1057 345,-1057 345,-825 142,-825"/>
</a>
</g>
</g>
<!-- Node3&#45;&gt;Node2 -->
<g id="edge2_Node000002_Node000003" class="edge">
<title>Node3&#45;&gt;Node2</title>
<g id="a_edge2_Node000002_Node000003"><a xlink:title=" ">
<path fill="none" stroke="#63b8ff" d="M243.5,-814.9C243.5,-805.67 243.5,-796.68 243.5,-788.25"/>
<polygon fill="none" stroke="#63b8ff" points="240,-815 243.5,-825 247,-815 240,-815"/>
</a>
</g>
</g>
<!-- Node7 -->
<g id="Node000007" class="node">
<title>Node7</title>
<g id="a_Node000007"><a xlink:href="classPolynomialMaterialLaw3d.html" target="_top" xlink:title=" ">
<polygon fill="white" stroke="transparent" points="519.5,-169 363.5,-169 363.5,0 519.5,0 519.5,-169"/>
<text text-anchor="start" x="378" y="-156.5" font-family="Helvetica,sans-Serif" font-size="10.00">PolynomialMaterialLaw3d</text>
<text text-anchor="start" x="370" y="-141.5" font-family="Helvetica,sans-Serif" font-size="10.00">&#45;</text>
<text text-anchor="start" x="380.5" y="-141.5" font-family="Helvetica,sans-Serif" font-size="10.00">mN</text>
<text text-anchor="start" x="370" y="-126.5" font-family="Helvetica,sans-Serif" font-size="10.00">&#45;</text>
<text text-anchor="start" x="380.5" y="-126.5" font-family="Helvetica,sans-Serif" font-size="10.00">mAlpha</text>
<text text-anchor="start" x="367.5" y="-111.5" font-family="Helvetica,sans-Serif" font-size="10.00">+</text>
<text text-anchor="start" x="380.5" y="-111.5" font-family="Helvetica,sans-Serif" font-size="10.00">Get_dW_dI1()</text>
<text text-anchor="start" x="367.5" y="-96.5" font-family="Helvetica,sans-Serif" font-size="10.00">+</text>
<text text-anchor="start" x="380.5" y="-96.5" font-family="Helvetica,sans-Serif" font-size="10.00">Get_dW_dI2()</text>
<text text-anchor="start" x="367.5" y="-81.5" font-family="Helvetica,sans-Serif" font-size="10.00">+</text>
<text text-anchor="start" x="380.5" y="-81.5" font-family="Helvetica,sans-Serif" font-size="10.00">Get_d2W_dI1()</text>
<text text-anchor="start" x="367.5" y="-66.5" font-family="Helvetica,sans-Serif" font-size="10.00">+</text>
<text text-anchor="start" x="380.5" y="-66.5" font-family="Helvetica,sans-Serif" font-size="10.00">Get_d2W_dI2()</text>
<text text-anchor="start" x="367.5" y="-51.5" font-family="Helvetica,sans-Serif" font-size="10.00">+</text>
<text text-anchor="start" x="380.5" y="-51.5" font-family="Helvetica,sans-Serif" font-size="10.00">Get_d2W_dI1I2()</text>
<text text-anchor="start" x="367.5" y="-36.5" font-family="Helvetica,sans-Serif" font-size="10.00">+</text>
<text text-anchor="start" x="380.5" y="-36.5" font-family="Helvetica,sans-Serif" font-size="10.00">GetAlpha()</text>
<text text-anchor="start" x="367.5" y="-21.5" font-family="Helvetica,sans-Serif" font-size="10.00">+</text>
<text text-anchor="start" x="380.5" y="-21.5" font-family="Helvetica,sans-Serif" font-size="10.00">PolynomialMaterialLaw3d()</text>
<text text-anchor="start" x="367.5" y="-6.5" font-family="Helvetica,sans-Serif" font-size="10.00">+</text>
<text text-anchor="start" x="380.5" y="-6.5" font-family="Helvetica,sans-Serif" font-size="10.00">GetZeroedAlpha()</text>
<polygon fill="#666666" stroke="#666666" points="363.5,-151.5 363.5,-151.5 519.5,-151.5 519.5,-151.5 363.5,-151.5"/>
<polygon fill="#666666" stroke="#666666" points="363.5,-121.5 363.5,-121.5 378.5,-121.5 378.5,-121.5 363.5,-121.5"/>
<polygon fill="#666666" stroke="#666666" points="378.5,-121.5 378.5,-121.5 519.5,-121.5 519.5,-121.5 378.5,-121.5"/>
<polygon fill="none" stroke="#666666" points="363.5,0 363.5,-169 519.5,-169 519.5,0 363.5,0"/>
</a>
</g>
</g>
<!-- Node6&#45;&gt;Node7 -->
<g id="edge6_Node000006_Node000007" class="edge">
<title>Node6&#45;&gt;Node7</title>
<g id="a_edge6_Node000006_Node000007"><a xlink:title=" ">
<path fill="none" stroke="#63b8ff" d="M441.5,-197.93C441.5,-188.28 441.5,-178.6 441.5,-169.18"/>
<polygon fill="none" stroke="#63b8ff" points="438,-197.95 441.5,-207.95 445,-197.95 438,-197.95"/>
</a>
</g>
</g>
</g>
</svg>
