<?xml version="1.0" encoding="UTF-8" standalone="no"?>
<!DOCTYPE svg PUBLIC "-//W3C//DTD SVG 1.1//EN"
 "http://www.w3.org/Graphics/SVG/1.1/DTD/svg11.dtd">
<!-- Generated by graphviz version 2.43.0 (0)
 -->
<!-- Title: BoundaryNodeWriter&lt; ELEMENT_DIM, SPACE_DIM &gt; Pages: 1 -->
<svg width="184pt" height="735pt"
 viewBox="0.00 0.00 184.00 735.00" xmlns="http://www.w3.org/2000/svg" xmlns:xlink="http://www.w3.org/1999/xlink">
<g id="graph0" class="graph" transform="scale(1 1) rotate(0) translate(4 731)">
<title>BoundaryNodeWriter&lt; ELEMENT_DIM, SPACE_DIM &gt;</title>
<!-- Node1 -->
<g id="Node000001" class="node">
<title>Node1</title>
<g id="a_Node000001"><a xlink:title=" ">
<polygon fill="#999999" stroke="transparent" points="170.5,-165 5.5,-165 5.5,0 170.5,0 170.5,-165"/>
<text text-anchor="start" x="11" y="-152.5" font-family="Helvetica,sans-Serif" font-size="10.00">BoundaryNodeWriter</text>
<text text-anchor="start" x="11" y="-141.5" font-family="Helvetica,sans-Serif" font-size="10.00">&lt; ELEMENT_DIM, SPACE_DIM &gt;</text>
<text text-anchor="start" x="86.5" y="-126.5" font-family="Helvetica,sans-Serif" font-size="10.00"> </text>
<text text-anchor="start" x="18.5" y="-111.5" font-family="Helvetica,sans-Serif" font-size="10.00">+</text>
<text text-anchor="start" x="40" y="-111.5" font-family="Helvetica,sans-Serif" font-size="10.00">BoundaryNodeWriter()</text>
<text text-anchor="start" x="18.5" y="-96.5" font-family="Helvetica,sans-Serif" font-size="10.00">+</text>
<text text-anchor="start" x="40" y="-96.5" font-family="Helvetica,sans-Serif" font-size="10.00">VisitAnyPopulation()</text>
<text text-anchor="start" x="18.5" y="-81.5" font-family="Helvetica,sans-Serif" font-size="10.00">+</text>
<text text-anchor="start" x="40" y="-81.5" font-family="Helvetica,sans-Serif" font-size="10.00">Visit()</text>
<text text-anchor="start" x="18.5" y="-66.5" font-family="Helvetica,sans-Serif" font-size="10.00">+</text>
<text text-anchor="start" x="40" y="-66.5" font-family="Helvetica,sans-Serif" font-size="10.00">Visit()</text>
<text text-anchor="start" x="18.5" y="-51.5" font-family="Helvetica,sans-Serif" font-size="10.00">+</text>
<text text-anchor="start" x="40" y="-51.5" font-family="Helvetica,sans-Serif" font-size="10.00">Visit()</text>
<text text-anchor="start" x="18.5" y="-36.5" font-family="Helvetica,sans-Serif" font-size="10.00">+</text>
<text text-anchor="start" x="40" y="-36.5" font-family="Helvetica,sans-Serif" font-size="10.00">Visit()</text>
<text text-anchor="start" x="18.5" y="-21.5" font-family="Helvetica,sans-Serif" font-size="10.00">+</text>
<text text-anchor="start" x="40" y="-21.5" font-family="Helvetica,sans-Serif" font-size="10.00">Visit()</text>
<text text-anchor="start" x="21" y="-6.5" font-family="Helvetica,sans-Serif" font-size="10.00">&#45;</text>
<text text-anchor="start" x="40" y="-6.5" font-family="Helvetica,sans-Serif" font-size="10.00">serialize()</text>
<polygon fill="#666666" stroke="#666666" points="6,-136.5 6,-136.5 171,-136.5 171,-136.5 6,-136.5"/>
<polygon fill="#666666" stroke="#666666" points="6,-121.5 6,-121.5 171,-121.5 171,-121.5 6,-121.5"/>
<polygon fill="none" stroke="#666666" points="5.5,0 5.5,-165 170.5,-165 170.5,0 5.5,0"/>
</a>
</g>
</g>
<!-- Node2 -->
<g id="Node000002" class="node">
<title>Node2</title>
<g id="a_Node000002"><a xlink:href="classAbstractCellPopulationWriter.html" target="_top" xlink:title=" ">
<polygon fill="white" stroke="transparent" points="173,-366 3,-366 3,-201 173,-201 173,-366"/>
<text text-anchor="start" x="10.5" y="-353.5" font-family="Helvetica,sans-Serif" font-size="10.00">AbstractCellPopulationWriter</text>
<text text-anchor="start" x="10.5" y="-342.5" font-family="Helvetica,sans-Serif" font-size="10.00">&lt; ELEMENT_DIM, SPACE_DIM &gt;</text>
<text text-anchor="start" x="86" y="-327.5" font-family="Helvetica,sans-Serif" font-size="10.00"> </text>
<text text-anchor="start" x="7" y="-312.5" font-family="Helvetica,sans-Serif" font-size="10.00">+</text>
<text text-anchor="start" x="20" y="-312.5" font-family="Helvetica,sans-Serif" font-size="10.00">AbstractCellPopulationWriter()</text>
<text text-anchor="start" x="7" y="-297.5" font-family="Helvetica,sans-Serif" font-size="10.00">+</text>
<text text-anchor="start" x="20" y="-297.5" font-family="Helvetica,sans-Serif" font-size="10.00">WriteHeader()</text>
<text text-anchor="start" x="7" y="-282.5" font-family="Helvetica,sans-Serif" font-size="10.00">+</text>
<text text-anchor="start" x="20" y="-282.5" font-family="Helvetica,sans-Serif" font-size="10.00">Visit()</text>
<text text-anchor="start" x="7" y="-267.5" font-family="Helvetica,sans-Serif" font-size="10.00">+</text>
<text text-anchor="start" x="20" y="-267.5" font-family="Helvetica,sans-Serif" font-size="10.00">Visit()</text>
<text text-anchor="start" x="7" y="-252.5" font-family="Helvetica,sans-Serif" font-size="10.00">+</text>
<text text-anchor="start" x="20" y="-252.5" font-family="Helvetica,sans-Serif" font-size="10.00">Visit()</text>
<text text-anchor="start" x="7" y="-237.5" font-family="Helvetica,sans-Serif" font-size="10.00">+</text>
<text text-anchor="start" x="20" y="-237.5" font-family="Helvetica,sans-Serif" font-size="10.00">Visit()</text>
<text text-anchor="start" x="7" y="-222.5" font-family="Helvetica,sans-Serif" font-size="10.00">+</text>
<text text-anchor="start" x="20" y="-222.5" font-family="Helvetica,sans-Serif" font-size="10.00">Visit()</text>
<text text-anchor="start" x="9.5" y="-207.5" font-family="Helvetica,sans-Serif" font-size="10.00">&#45;</text>
<text text-anchor="start" x="20" y="-207.5" font-family="Helvetica,sans-Serif" font-size="10.00">serialize()</text>
<polygon fill="#666666" stroke="#666666" points="3,-337.5 3,-337.5 173,-337.5 173,-337.5 3,-337.5"/>
<polygon fill="#666666" stroke="#666666" points="3,-322.5 3,-322.5 173,-322.5 173,-322.5 3,-322.5"/>
<polygon fill="none" stroke="#666666" points="3,-201 3,-366 173,-366 173,-201 3,-201"/>
</a>
</g>
</g>
<!-- Node2&#45;&gt;Node1 -->
<g id="edge1_Node000001_Node000002" class="edge">
<title>Node2&#45;&gt;Node1</title>
<g id="a_edge1_Node000001_Node000002"><a xlink:title=" ">
<path fill="none" stroke="#63b8ff" d="M88,-190.96C88,-182.37 88,-173.7 88,-165.21"/>
<polygon fill="none" stroke="#63b8ff" points="84.5,-190.98 88,-200.98 91.5,-190.98 84.5,-190.98"/>
</a>
</g>
</g>
<!-- Node3 -->
<g id="Node000003" class="node">
<title>Node3</title>
<g id="a_Node000003"><a xlink:href="classAbstractCellBasedWriter.html" target="_top" xlink:title=" ">
<polygon fill="white" stroke="transparent" points="170.5,-612 5.5,-612 5.5,-402 170.5,-402 170.5,-612"/>
<text text-anchor="start" x="11" y="-600" font-family="Helvetica,sans-Serif" font-size="10.00">AbstractCellBasedWriter</text>
<text text-anchor="start" x="11" y="-589" font-family="Helvetica,sans-Serif" font-size="10.00">&lt; ELEMENT_DIM, SPACE_DIM &gt;</text>
<text text-anchor="start" x="12" y="-574" font-family="Helvetica,sans-Serif" font-size="10.00">#</text>
<text text-anchor="start" x="27" y="-574" font-family="Helvetica,sans-Serif" font-size="10.00">mFileName</text>
<text text-anchor="start" x="12" y="-559" font-family="Helvetica,sans-Serif" font-size="10.00">#</text>
<text text-anchor="start" x="27" y="-559" font-family="Helvetica,sans-Serif" font-size="10.00">mpOutStream</text>
<text text-anchor="start" x="12" y="-544" font-family="Helvetica,sans-Serif" font-size="10.00">+</text>
<text text-anchor="start" x="27" y="-544" font-family="Helvetica,sans-Serif" font-size="10.00">AbstractCellBasedWriter()</text>
<text text-anchor="start" x="12" y="-529" font-family="Helvetica,sans-Serif" font-size="10.00">+</text>
<text text-anchor="start" x="27" y="-529" font-family="Helvetica,sans-Serif" font-size="10.00">~AbstractCellBasedWriter()</text>
<text text-anchor="start" x="12" y="-514" font-family="Helvetica,sans-Serif" font-size="10.00">+</text>
<text text-anchor="start" x="27" y="-514" font-family="Helvetica,sans-Serif" font-size="10.00">CloseFile()</text>
<text text-anchor="start" x="12" y="-499" font-family="Helvetica,sans-Serif" font-size="10.00">+</text>
<text text-anchor="start" x="27" y="-499" font-family="Helvetica,sans-Serif" font-size="10.00">OpenOutputFile()</text>
<text text-anchor="start" x="12" y="-484" font-family="Helvetica,sans-Serif" font-size="10.00">+</text>
<text text-anchor="start" x="27" y="-484" font-family="Helvetica,sans-Serif" font-size="10.00">OpenOutputFileForAppend()</text>
<text text-anchor="start" x="12" y="-469" font-family="Helvetica,sans-Serif" font-size="10.00">+</text>
<text text-anchor="start" x="27" y="-469" font-family="Helvetica,sans-Serif" font-size="10.00">WriteTimeStamp()</text>
<text text-anchor="start" x="12" y="-454" font-family="Helvetica,sans-Serif" font-size="10.00">+</text>
<text text-anchor="start" x="27" y="-454" font-family="Helvetica,sans-Serif" font-size="10.00">WriteNewline()</text>
<text text-anchor="start" x="12" y="-439" font-family="Helvetica,sans-Serif" font-size="10.00">+</text>
<text text-anchor="start" x="27" y="-439" font-family="Helvetica,sans-Serif" font-size="10.00">SetFileName()</text>
<text text-anchor="start" x="12" y="-424" font-family="Helvetica,sans-Serif" font-size="10.00">+</text>
<text text-anchor="start" x="27" y="-424" font-family="Helvetica,sans-Serif" font-size="10.00">GetFileName()</text>
<text text-anchor="start" x="14.5" y="-409" font-family="Helvetica,sans-Serif" font-size="10.00">&#45;</text>
<text text-anchor="start" x="27" y="-409" font-family="Helvetica,sans-Serif" font-size="10.00">serialize()</text>
<polygon fill="#666666" stroke="#666666" points="6,-584 6,-584 171,-584 171,-584 6,-584"/>
<polygon fill="#666666" stroke="#666666" points="6,-554 6,-554 25,-554 25,-554 6,-554"/>
<polygon fill="#666666" stroke="#666666" points="25,-554 25,-554 171,-554 171,-554 25,-554"/>
<polygon fill="none" stroke="#666666" points="5.5,-402 5.5,-612 170.5,-612 170.5,-402 5.5,-402"/>
</a>
</g>
</g>
<!-- Node3&#45;&gt;Node2 -->
<g id="edge2_Node000002_Node000003" class="edge">
<title>Node3&#45;&gt;Node2</title>
<g id="a_edge2_Node000002_Node000003"><a xlink:title=" ">
<path fill="none" stroke="#63b8ff" d="M88,-391.69C88,-383.13 88,-374.6 88,-366.3"/>
<polygon fill="none" stroke="#63b8ff" points="84.5,-391.74 88,-401.74 91.5,-391.74 84.5,-391.74"/>
</a>
</g>
</g>
<!-- Node4 -->
<g id="Node000004" class="node">
<title>Node4</title>
<g id="a_Node000004"><a xlink:href="classIdentifiable.html" target="_top" xlink:title=" ">
<polygon fill="white" stroke="transparent" points="176,-727 0,-727 0,-648 176,-648 176,-727"/>
<text text-anchor="start" x="60.5" y="-714.5" font-family="Helvetica,sans-Serif" font-size="10.00">Identifiable</text>
<text text-anchor="start" x="86" y="-699.5" font-family="Helvetica,sans-Serif" font-size="10.00"> </text>
<text text-anchor="start" x="4" y="-684.5" font-family="Helvetica,sans-Serif" font-size="10.00">+</text>
<text text-anchor="start" x="17" y="-684.5" font-family="Helvetica,sans-Serif" font-size="10.00">~Identifiable()</text>
<text text-anchor="start" x="4" y="-669.5" font-family="Helvetica,sans-Serif" font-size="10.00">+</text>
<text text-anchor="start" x="17" y="-669.5" font-family="Helvetica,sans-Serif" font-size="10.00">GetIdentifier()</text>
<text text-anchor="start" x="6.5" y="-654.5" font-family="Helvetica,sans-Serif" font-size="10.00">&#45;</text>
<text text-anchor="start" x="17" y="-654.5" font-family="Helvetica,sans-Serif" font-size="10.00">TidyTemplatedExportIdentifier()</text>
<polygon fill="#666666" stroke="#666666" points="0,-709.5 0,-709.5 176,-709.5 176,-709.5 0,-709.5"/>
<polygon fill="#666666" stroke="#666666" points="0,-694.5 0,-694.5 176,-694.5 176,-694.5 0,-694.5"/>
<polygon fill="none" stroke="#666666" points="0,-648 0,-727 176,-727 176,-648 0,-648"/>
</a>
</g>
</g>
<!-- Node4&#45;&gt;Node3 -->
<g id="edge3_Node000003_Node000004" class="edge">
<title>Node4&#45;&gt;Node3</title>
<g id="a_edge3_Node000003_Node000004"><a xlink:title=" ">
<path fill="none" stroke="#63b8ff" d="M88,-637.55C88,-629.51 88,-620.92 88,-612.13"/>
<polygon fill="none" stroke="#63b8ff" points="84.5,-637.77 88,-647.77 91.5,-637.77 84.5,-637.77"/>
</a>
</g>
</g>
</g>
</svg>
