<?xml version="1.0" encoding="UTF-8" standalone="no"?>
<!DOCTYPE svg PUBLIC "-//W3C//DTD SVG 1.1//EN"
 "http://www.w3.org/Graphics/SVG/1.1/DTD/svg11.dtd">
<!-- Generated by graphviz version 2.43.0 (0)
 -->
<!-- Title: Edge&lt; SPACE_DIM &gt; Pages: 1 -->
<svg width="364pt" height="344pt"
 viewBox="0.00 0.00 363.50 344.00" xmlns="http://www.w3.org/2000/svg" xmlns:xlink="http://www.w3.org/1999/xlink">
<g id="graph0" class="graph" transform="scale(1 1) rotate(0) translate(4 340)">
<title>Edge&lt; SPACE_DIM &gt;</title>
<!-- Node1 -->
<g id="Node000001" class="node">
<title>Node1</title>
<g id="a_Node000001"><a xlink:title=" ">
<polygon fill="#999999" stroke="transparent" points="200.5,-229 78.5,-229 78.5,0 200.5,0 200.5,-229"/>
<text text-anchor="start" x="88" y="-216.5" font-family="Helvetica,sans-Serif" font-size="10.00">Edge&lt; SPACE_DIM &gt;</text>
<text text-anchor="start" x="137.5" y="-201.5" font-family="Helvetica,sans-Serif" font-size="10.00"> </text>
<text text-anchor="start" x="82.5" y="-186.5" font-family="Helvetica,sans-Serif" font-size="10.00">+</text>
<text text-anchor="start" x="95.5" y="-186.5" font-family="Helvetica,sans-Serif" font-size="10.00">Edge()</text>
<text text-anchor="start" x="82.5" y="-171.5" font-family="Helvetica,sans-Serif" font-size="10.00">+</text>
<text text-anchor="start" x="95.5" y="-171.5" font-family="Helvetica,sans-Serif" font-size="10.00">Edge()</text>
<text text-anchor="start" x="82.5" y="-156.5" font-family="Helvetica,sans-Serif" font-size="10.00">+</text>
<text text-anchor="start" x="95.5" y="-156.5" font-family="Helvetica,sans-Serif" font-size="10.00">MarkAsDeleted()</text>
<text text-anchor="start" x="82.5" y="-141.5" font-family="Helvetica,sans-Serif" font-size="10.00">+</text>
<text text-anchor="start" x="95.5" y="-141.5" font-family="Helvetica,sans-Serif" font-size="10.00">IsDeleted()</text>
<text text-anchor="start" x="82.5" y="-126.5" font-family="Helvetica,sans-Serif" font-size="10.00">+</text>
<text text-anchor="start" x="95.5" y="-126.5" font-family="Helvetica,sans-Serif" font-size="10.00">SetIndex()</text>
<text text-anchor="start" x="82.5" y="-111.5" font-family="Helvetica,sans-Serif" font-size="10.00">+</text>
<text text-anchor="start" x="95.5" y="-111.5" font-family="Helvetica,sans-Serif" font-size="10.00">GetIndex()</text>
<text text-anchor="start" x="82.5" y="-96.5" font-family="Helvetica,sans-Serif" font-size="10.00">+</text>
<text text-anchor="start" x="95.5" y="-96.5" font-family="Helvetica,sans-Serif" font-size="10.00">GetMapIndex()</text>
<text text-anchor="start" x="82.5" y="-81.5" font-family="Helvetica,sans-Serif" font-size="10.00">+</text>
<text text-anchor="start" x="95.5" y="-81.5" font-family="Helvetica,sans-Serif" font-size="10.00">RemoveNodes()</text>
<text text-anchor="start" x="82.5" y="-66.5" font-family="Helvetica,sans-Serif" font-size="10.00">+</text>
<text text-anchor="start" x="95.5" y="-66.5" font-family="Helvetica,sans-Serif" font-size="10.00">SetNodes()</text>
<text text-anchor="start" x="82.5" y="-51.5" font-family="Helvetica,sans-Serif" font-size="10.00">+</text>
<text text-anchor="start" x="95.5" y="-51.5" font-family="Helvetica,sans-Serif" font-size="10.00">ReplaceNode()</text>
<text text-anchor="start" x="95.5" y="-36.5" font-family="Helvetica,sans-Serif" font-size="10.00">and 12 more...</text>
<text text-anchor="start" x="82.5" y="-21.5" font-family="Helvetica,sans-Serif" font-size="10.00">+</text>
<text text-anchor="start" x="95.5" y="-21.5" font-family="Helvetica,sans-Serif" font-size="10.00">GenerateMapIndex()</text>
<text text-anchor="start" x="85" y="-6.5" font-family="Helvetica,sans-Serif" font-size="10.00">&#45;</text>
<text text-anchor="start" x="95.5" y="-6.5" font-family="Helvetica,sans-Serif" font-size="10.00">serialize()</text>
<polygon fill="#666666" stroke="#666666" points="78.5,-211.5 78.5,-211.5 200.5,-211.5 200.5,-211.5 78.5,-211.5"/>
<polygon fill="#666666" stroke="#666666" points="78.5,-196.5 78.5,-196.5 200.5,-196.5 200.5,-196.5 78.5,-196.5"/>
<polygon fill="none" stroke="#666666" points="78.5,0 78.5,-229 200.5,-229 200.5,0 78.5,0"/>
</a>
</g>
</g>
<!-- Node2 -->
<g id="Node000002" class="node">
<title>Node2</title>
<g id="a_Node000002"><a xlink:href="classunsigned.html" target="_top" xlink:title=" ">
<polygon fill="white" stroke="transparent" points="55,-330.5 0,-330.5 0,-281.5 55,-281.5 55,-330.5"/>
<text text-anchor="start" x="5.5" y="-318" font-family="Helvetica,sans-Serif" font-size="10.00">unsigned</text>
<text text-anchor="start" x="26" y="-303" font-family="Helvetica,sans-Serif" font-size="10.00"> </text>
<text text-anchor="start" x="26" y="-288" font-family="Helvetica,sans-Serif" font-size="10.00"> </text>
<polygon fill="#bfbfbf" stroke="#bfbfbf" points="0.5,-313 0.5,-313 55.5,-313 55.5,-313 0.5,-313"/>
<polygon fill="#bfbfbf" stroke="#bfbfbf" points="0.5,-298 0.5,-298 55.5,-298 55.5,-298 0.5,-298"/>
<polygon fill="none" stroke="#bfbfbf" points="0,-281.5 0,-330.5 55,-330.5 55,-281.5 0,-281.5"/>
</a>
</g>
</g>
<!-- Node2&#45;&gt;Node1 -->
<g id="edge1_Node000001_Node000002" class="edge">
<title>Node2&#45;&gt;Node1</title>
<g id="a_edge1_Node000001_Node000002"><a xlink:title=" ">
<path fill="none" stroke="#63b8ff" d="M36.55,-281.41C40.95,-270.7 46.55,-258 52.5,-247 58.42,-236.05 64.98,-224.84 71.77,-213.81"/>
<polygon fill="none" stroke="#63b8ff" points="71.98,-213.49 71.76,-206.28 78.34,-203.31 78.55,-210.52 71.98,-213.49"/>
</a>
</g>
<text text-anchor="middle" x="74.5" y="-250" font-family="Helvetica,sans-Serif" font-size="10.00" fill="grey"> &#45;mIndex</text>
</g>
<!-- Node3 -->
<g id="Node000003" class="node">
<title>Node3</title>
<g id="a_Node000003"><a xlink:href="classbool.html" target="_top" xlink:title=" ">
<polygon fill="white" stroke="transparent" points="107.5,-330.5 75.5,-330.5 75.5,-281.5 107.5,-281.5 107.5,-330.5"/>
<text text-anchor="start" x="80.5" y="-318" font-family="Helvetica,sans-Serif" font-size="10.00">bool</text>
<text text-anchor="start" x="89.5" y="-303" font-family="Helvetica,sans-Serif" font-size="10.00"> </text>
<text text-anchor="start" x="89.5" y="-288" font-family="Helvetica,sans-Serif" font-size="10.00"> </text>
<polygon fill="#bfbfbf" stroke="#bfbfbf" points="75.5,-313 75.5,-313 107.5,-313 107.5,-313 75.5,-313"/>
<polygon fill="#bfbfbf" stroke="#bfbfbf" points="75.5,-298 75.5,-298 107.5,-298 107.5,-298 75.5,-298"/>
<polygon fill="none" stroke="#bfbfbf" points="75.5,-281.5 75.5,-330.5 107.5,-330.5 107.5,-281.5 75.5,-281.5"/>
</a>
</g>
</g>
<!-- Node3&#45;&gt;Node1 -->
<g id="edge2_Node000001_Node000003" class="edge">
<title>Node3&#45;&gt;Node1</title>
<g id="a_edge2_Node000001_Node000003"><a xlink:title=" ">
<path fill="none" stroke="#63b8ff" d="M96.07,-281.22C98.18,-270.7 100.81,-258.2 103.5,-247 103.98,-244.98 104.48,-242.95 104.98,-240.9"/>
<polygon fill="none" stroke="#63b8ff" points="105.03,-240.72 102.6,-233.93 107.93,-229.07 110.36,-235.86 105.03,-240.72"/>
</a>
</g>
<text text-anchor="middle" x="135.5" y="-250" font-family="Helvetica,sans-Serif" font-size="10.00" fill="grey"> &#45;mIsDeleted</text>
</g>
<!-- Node4 -->
<g id="Node000004" class="node">
<title>Node4</title>
<g id="a_Node000004"><a xlink:title=" ">
<polygon fill="white" stroke="transparent" points="245.5,-336 125.5,-336 125.5,-276 245.5,-276 245.5,-336"/>
<text text-anchor="start" x="130.5" y="-324" font-family="Helvetica,sans-Serif" font-size="10.00">vector&lt; Node&lt; SPACE</text>
<text text-anchor="start" x="157.5" y="-313" font-family="Helvetica,sans-Serif" font-size="10.00">_DIM &gt; * &gt;</text>
<text text-anchor="start" x="183.5" y="-298" font-family="Helvetica,sans-Serif" font-size="10.00"> </text>
<text text-anchor="start" x="183.5" y="-283" font-family="Helvetica,sans-Serif" font-size="10.00"> </text>
<polygon fill="#bfbfbf" stroke="#bfbfbf" points="125.5,-308 125.5,-308 245.5,-308 245.5,-308 125.5,-308"/>
<polygon fill="#bfbfbf" stroke="#bfbfbf" points="125.5,-293 125.5,-293 245.5,-293 245.5,-293 125.5,-293"/>
<polygon fill="none" stroke="#bfbfbf" points="125.5,-276 125.5,-336 245.5,-336 245.5,-276 125.5,-276"/>
</a>
</g>
</g>
<!-- Node4&#45;&gt;Node1 -->
<g id="edge3_Node000001_Node000004" class="edge">
<title>Node4&#45;&gt;Node1</title>
<g id="a_edge3_Node000001_Node000004"><a xlink:title=" ">
<path fill="none" stroke="#63b8ff" d="M178.41,-275.81C175.98,-265.79 173.09,-253.86 169.99,-241.09"/>
<polygon fill="none" stroke="#63b8ff" points="169.92,-240.81 164.62,-235.93 167.09,-229.15 172.39,-234.04 169.92,-240.81"/>
</a>
</g>
<text text-anchor="middle" x="196.5" y="-250" font-family="Helvetica,sans-Serif" font-size="10.00" fill="grey"> &#45;mNodes</text>
</g>
<!-- Node5 -->
<g id="Node000005" class="node">
<title>Node5</title>
<g id="a_Node000005"><a xlink:title=" ">
<polygon fill="white" stroke="transparent" points="355.5,-330.5 263.5,-330.5 263.5,-281.5 355.5,-281.5 355.5,-330.5"/>
<text text-anchor="start" x="268.5" y="-318" font-family="Helvetica,sans-Serif" font-size="10.00">set&lt; unsigned &gt;</text>
<text text-anchor="start" x="307.5" y="-303" font-family="Helvetica,sans-Serif" font-size="10.00"> </text>
<text text-anchor="start" x="307.5" y="-288" font-family="Helvetica,sans-Serif" font-size="10.00"> </text>
<polygon fill="#bfbfbf" stroke="#bfbfbf" points="263.5,-313 263.5,-313 355.5,-313 355.5,-313 263.5,-313"/>
<polygon fill="#bfbfbf" stroke="#bfbfbf" points="263.5,-298 263.5,-298 355.5,-298 355.5,-298 263.5,-298"/>
<polygon fill="none" stroke="#bfbfbf" points="263.5,-281.5 263.5,-330.5 355.5,-330.5 355.5,-281.5 263.5,-281.5"/>
</a>
</g>
</g>
<!-- Node5&#45;&gt;Node1 -->
<g id="edge4_Node000001_Node000005" class="edge">
<title>Node5&#45;&gt;Node1</title>
<g id="a_edge4_Node000001_Node000005"><a xlink:title=" ">
<path fill="none" stroke="#63b8ff" d="M288.31,-281.38C268.38,-259.17 237.43,-224.66 208.9,-192.86"/>
<polygon fill="none" stroke="#63b8ff" points="208.55,-192.47 201.56,-190.67 200.53,-183.54 207.52,-185.33 208.55,-192.47"/>
</a>
</g>
<text text-anchor="middle" x="309.5" y="-250" font-family="Helvetica,sans-Serif" font-size="10.00" fill="grey"> &#45;mElementIndices</text>
</g>
</g>
</svg>
