<?xml version="1.0" encoding="UTF-8" standalone="no"?>
<!DOCTYPE svg PUBLIC "-//W3C//DTD SVG 1.1//EN"
 "http://www.w3.org/Graphics/SVG/1.1/DTD/svg11.dtd">
<!-- Generated by graphviz version 2.43.0 (0)
 -->
<!-- Title: AbstractFileComparison Pages: 1 -->
<svg width="378pt" height="239pt"
 viewBox="0.00 0.00 378.00 239.00" xmlns="http://www.w3.org/2000/svg" xmlns:xlink="http://www.w3.org/1999/xlink">
<g id="graph0" class="graph" transform="scale(1 1) rotate(0) translate(4 235)">
<title>AbstractFileComparison</title>
<!-- Node1 -->
<g id="Node000001" class="node">
<title>Node1</title>
<g id="a_Node000001"><a xlink:title=" ">
<polygon fill="#999999" stroke="transparent" points="229,-124 75,-124 75,0 229,0 229,-124"/>
<text text-anchor="start" x="93.5" y="-112" font-family="Helvetica,sans-Serif" font-size="10.00">AbstractFileComparison</text>
<text text-anchor="start" x="150" y="-97" font-family="Helvetica,sans-Serif" font-size="10.00"> </text>
<text text-anchor="start" x="79" y="-82" font-family="Helvetica,sans-Serif" font-size="10.00">+</text>
<text text-anchor="start" x="92" y="-82" font-family="Helvetica,sans-Serif" font-size="10.00">AbstractFileComparison()</text>
<text text-anchor="start" x="79" y="-67" font-family="Helvetica,sans-Serif" font-size="10.00">+</text>
<text text-anchor="start" x="92" y="-67" font-family="Helvetica,sans-Serif" font-size="10.00">AbstractFileComparison()</text>
<text text-anchor="start" x="79" y="-52" font-family="Helvetica,sans-Serif" font-size="10.00">+</text>
<text text-anchor="start" x="92" y="-52" font-family="Helvetica,sans-Serif" font-size="10.00">~AbstractFileComparison()</text>
<text text-anchor="start" x="79" y="-37" font-family="Helvetica,sans-Serif" font-size="10.00">#</text>
<text text-anchor="start" x="92" y="-37" font-family="Helvetica,sans-Serif" font-size="10.00">ResetFiles()</text>
<text text-anchor="start" x="79" y="-22" font-family="Helvetica,sans-Serif" font-size="10.00">#</text>
<text text-anchor="start" x="92" y="-22" font-family="Helvetica,sans-Serif" font-size="10.00">SkipHeaderLines()</text>
<text text-anchor="start" x="81.5" y="-7" font-family="Helvetica,sans-Serif" font-size="10.00">&#45;</text>
<text text-anchor="start" x="92" y="-7" font-family="Helvetica,sans-Serif" font-size="10.00">Setup()</text>
<polygon fill="#666666" stroke="#666666" points="75,-107 75,-107 229,-107 229,-107 75,-107"/>
<polygon fill="#666666" stroke="#666666" points="75,-92 75,-92 229,-92 229,-92 75,-92"/>
<polygon fill="none" stroke="#666666" points="75,0 75,-124 229,-124 229,0 75,0"/>
</a>
</g>
</g>
<!-- Node2 -->
<g id="Node000002" class="node">
<title>Node2</title>
<g id="a_Node000002"><a xlink:title=" ">
<polygon fill="white" stroke="transparent" points="38,-231 0,-231 0,-182 38,-182 38,-231"/>
<text text-anchor="start" x="5" y="-218.5" font-family="Helvetica,sans-Serif" font-size="10.00">string</text>
<text text-anchor="start" x="17" y="-203.5" font-family="Helvetica,sans-Serif" font-size="10.00"> </text>
<text text-anchor="start" x="17" y="-188.5" font-family="Helvetica,sans-Serif" font-size="10.00"> </text>
<polygon fill="#bfbfbf" stroke="#bfbfbf" points="0,-213.5 0,-213.5 38,-213.5 38,-213.5 0,-213.5"/>
<polygon fill="#bfbfbf" stroke="#bfbfbf" points="0,-198.5 0,-198.5 38,-198.5 38,-198.5 0,-198.5"/>
<polygon fill="none" stroke="#bfbfbf" points="0,-182 0,-231 38,-231 38,-182 0,-182"/>
</a>
</g>
</g>
<!-- Node2&#45;&gt;Node1 -->
<g id="edge1_Node000001_Node000002" class="edge">
<title>Node2&#45;&gt;Node1</title>
<g id="a_edge1_Node000001_Node000002"><a xlink:title=" ">
<path fill="none" stroke="#63b8ff" d="M21.31,-181.77C23.5,-169.05 27.74,-153.63 36,-142 44.02,-130.7 54.19,-120.53 65.18,-111.54"/>
<polygon fill="none" stroke="#63b8ff" points="65.51,-111.28 67.81,-104.44 75,-103.94 72.7,-110.77 65.51,-111.28"/>
</a>
</g>
<text text-anchor="middle" x="72.5" y="-156" font-family="Helvetica,sans-Serif" font-size="10.00" fill="grey"> #mFilename1</text>
<text text-anchor="middle" x="72.5" y="-145" font-family="Helvetica,sans-Serif" font-size="10.00" fill="grey">#mFilename2</text>
</g>
<!-- Node3 -->
<g id="Node000003" class="node">
<title>Node3</title>
<g id="a_Node000003"><a xlink:title=" ">
<polygon fill="white" stroke="transparent" points="144,-231 84,-231 84,-182 144,-182 144,-231"/>
<text text-anchor="start" x="89" y="-218.5" font-family="Helvetica,sans-Serif" font-size="10.00">ifstream *</text>
<text text-anchor="start" x="112" y="-203.5" font-family="Helvetica,sans-Serif" font-size="10.00"> </text>
<text text-anchor="start" x="112" y="-188.5" font-family="Helvetica,sans-Serif" font-size="10.00"> </text>
<polygon fill="#bfbfbf" stroke="#bfbfbf" points="84,-213.5 84,-213.5 144,-213.5 144,-213.5 84,-213.5"/>
<polygon fill="#bfbfbf" stroke="#bfbfbf" points="84,-198.5 84,-198.5 144,-198.5 144,-198.5 84,-198.5"/>
<polygon fill="none" stroke="#bfbfbf" points="84,-182 84,-231 144,-231 144,-182 84,-182"/>
</a>
</g>
</g>
<!-- Node3&#45;&gt;Node1 -->
<g id="edge2_Node000001_Node000003" class="edge">
<title>Node3&#45;&gt;Node1</title>
<g id="a_edge2_Node000001_Node000003"><a xlink:title=" ">
<path fill="none" stroke="#63b8ff" d="M113.06,-181.99C113.09,-169.89 113.93,-155 117,-142 117.47,-139.99 118,-137.97 118.57,-135.95"/>
<polygon fill="none" stroke="#63b8ff" points="118.62,-135.78 116.62,-128.86 122.24,-124.34 124.24,-131.27 118.62,-135.78"/>
</a>
</g>
<text text-anchor="middle" x="142.5" y="-156" font-family="Helvetica,sans-Serif" font-size="10.00" fill="grey"> #mpFile1</text>
<text text-anchor="middle" x="142.5" y="-145" font-family="Helvetica,sans-Serif" font-size="10.00" fill="grey">#mpFile2</text>
</g>
<!-- Node4 -->
<g id="Node000004" class="node">
<title>Node4</title>
<g id="a_Node000004"><a xlink:href="classunsigned.html" target="_top" xlink:title=" ">
<polygon fill="white" stroke="transparent" points="217.5,-231 162.5,-231 162.5,-182 217.5,-182 217.5,-231"/>
<text text-anchor="start" x="168" y="-218.5" font-family="Helvetica,sans-Serif" font-size="10.00">unsigned</text>
<text text-anchor="start" x="188.5" y="-203.5" font-family="Helvetica,sans-Serif" font-size="10.00"> </text>
<text text-anchor="start" x="188.5" y="-188.5" font-family="Helvetica,sans-Serif" font-size="10.00"> </text>
<polygon fill="#bfbfbf" stroke="#bfbfbf" points="163,-213.5 163,-213.5 218,-213.5 218,-213.5 163,-213.5"/>
<polygon fill="#bfbfbf" stroke="#bfbfbf" points="163,-198.5 163,-198.5 218,-198.5 218,-198.5 163,-198.5"/>
<polygon fill="none" stroke="#bfbfbf" points="162.5,-182 162.5,-231 217.5,-231 217.5,-182 162.5,-182"/>
</a>
</g>
</g>
<!-- Node4&#45;&gt;Node1 -->
<g id="edge3_Node000001_Node000004" class="edge">
<title>Node4&#45;&gt;Node1</title>
<g id="a_edge3_Node000001_Node000004"><a xlink:title=" ">
<path fill="none" stroke="#63b8ff" d="M183.73,-181.97C180.33,-169.25 175.94,-152.77 171.51,-136.15"/>
<polygon fill="none" stroke="#63b8ff" points="171.38,-135.67 165.97,-130.91 168.29,-124.08 173.7,-128.85 171.38,-135.67"/>
</a>
</g>
<text text-anchor="middle" x="210.5" y="-150.5" font-family="Helvetica,sans-Serif" font-size="10.00" fill="grey"> #mLineNum</text>
</g>
<!-- Node5 -->
<g id="Node000005" class="node">
<title>Node5</title>
<g id="a_Node000005"><a xlink:href="classbool.html" target="_top" xlink:title=" ">
<polygon fill="white" stroke="transparent" points="294,-231 262,-231 262,-182 294,-182 294,-231"/>
<text text-anchor="start" x="267" y="-218.5" font-family="Helvetica,sans-Serif" font-size="10.00">bool</text>
<text text-anchor="start" x="276" y="-203.5" font-family="Helvetica,sans-Serif" font-size="10.00"> </text>
<text text-anchor="start" x="276" y="-188.5" font-family="Helvetica,sans-Serif" font-size="10.00"> </text>
<polygon fill="#bfbfbf" stroke="#bfbfbf" points="262,-213.5 262,-213.5 294,-213.5 294,-213.5 262,-213.5"/>
<polygon fill="#bfbfbf" stroke="#bfbfbf" points="262,-198.5 262,-198.5 294,-198.5 294,-198.5 262,-198.5"/>
<polygon fill="none" stroke="#bfbfbf" points="262,-182 262,-231 294,-231 294,-182 262,-182"/>
</a>
</g>
</g>
<!-- Node5&#45;&gt;Node1 -->
<g id="edge4_Node000001_Node000005" class="edge">
<title>Node5&#45;&gt;Node1</title>
<g id="a_edge4_Node000001_Node000005"><a xlink:title=" ">
<path fill="none" stroke="#63b8ff" d="M269.27,-181.81C263.96,-169.24 256.39,-153.96 247,-142 244.1,-138.31 241.01,-134.67 237.77,-131.11"/>
<polygon fill="none" stroke="#63b8ff" points="237.74,-131.08 230.7,-129.5 229.45,-122.4 236.49,-123.98 237.74,-131.08"/>
</a>
</g>
<text text-anchor="middle" x="315" y="-156" font-family="Helvetica,sans-Serif" font-size="10.00" fill="grey"> #mCalledCollectively</text>
<text text-anchor="middle" x="315" y="-145" font-family="Helvetica,sans-Serif" font-size="10.00" fill="grey">#mSuppressOutput</text>
</g>
</g>
</svg>
