<?xml version="1.0" encoding="UTF-8" standalone="no"?>
<!DOCTYPE svg PUBLIC "-//W3C//DTD SVG 1.1//EN"
 "http://www.w3.org/Graphics/SVG/1.1/DTD/svg11.dtd">
<!-- Generated by graphviz version 2.43.0 (0)
 -->
<!-- Title: ObsoleteBoxCollection&lt; DIM &gt; Pages: 1 -->
<svg width="798pt" height="537pt"
 viewBox="0.00 0.00 798.00 537.00" xmlns="http://www.w3.org/2000/svg" xmlns:xlink="http://www.w3.org/1999/xlink">
<g id="graph0" class="graph" transform="scale(1 1) rotate(0) translate(4 533)">
<title>ObsoleteBoxCollection&lt; DIM &gt;</title>
<!-- Node1 -->
<g id="Node000001" class="node">
<title>Node1</title>
<g id="a_Node000001"><a xlink:title=" ">
<polygon fill="#999999" stroke="transparent" points="454.5,-315 300.5,-315 300.5,0 454.5,0 454.5,-315"/>
<text text-anchor="start" x="321.5" y="-302.5" font-family="Helvetica,sans-Serif" font-size="10.00">ObsoleteBoxCollection</text>
<text text-anchor="start" x="356" y="-291.5" font-family="Helvetica,sans-Serif" font-size="10.00">&lt; DIM &gt;</text>
<text text-anchor="start" x="375.5" y="-276.5" font-family="Helvetica,sans-Serif" font-size="10.00"> </text>
<text text-anchor="start" x="304.5" y="-261.5" font-family="Helvetica,sans-Serif" font-size="10.00">+</text>
<text text-anchor="start" x="317.5" y="-261.5" font-family="Helvetica,sans-Serif" font-size="10.00">ObsoleteBoxCollection()</text>
<text text-anchor="start" x="304.5" y="-246.5" font-family="Helvetica,sans-Serif" font-size="10.00">+</text>
<text text-anchor="start" x="317.5" y="-246.5" font-family="Helvetica,sans-Serif" font-size="10.00">EmptyBoxes()</text>
<text text-anchor="start" x="304.5" y="-231.5" font-family="Helvetica,sans-Serif" font-size="10.00">+</text>
<text text-anchor="start" x="317.5" y="-231.5" font-family="Helvetica,sans-Serif" font-size="10.00">CalculateContainingBox()</text>
<text text-anchor="start" x="304.5" y="-216.5" font-family="Helvetica,sans-Serif" font-size="10.00">+</text>
<text text-anchor="start" x="317.5" y="-216.5" font-family="Helvetica,sans-Serif" font-size="10.00">CalculateContainingBox()</text>
<text text-anchor="start" x="304.5" y="-201.5" font-family="Helvetica,sans-Serif" font-size="10.00">+</text>
<text text-anchor="start" x="317.5" y="-201.5" font-family="Helvetica,sans-Serif" font-size="10.00">rGetBox()</text>
<text text-anchor="start" x="304.5" y="-186.5" font-family="Helvetica,sans-Serif" font-size="10.00">+</text>
<text text-anchor="start" x="317.5" y="-186.5" font-family="Helvetica,sans-Serif" font-size="10.00">GetNumBoxes()</text>
<text text-anchor="start" x="304.5" y="-171.5" font-family="Helvetica,sans-Serif" font-size="10.00">+</text>
<text text-anchor="start" x="317.5" y="-171.5" font-family="Helvetica,sans-Serif" font-size="10.00">SetupLocalBoxesHalfOnly()</text>
<text text-anchor="start" x="304.5" y="-156.5" font-family="Helvetica,sans-Serif" font-size="10.00">+</text>
<text text-anchor="start" x="317.5" y="-156.5" font-family="Helvetica,sans-Serif" font-size="10.00">SetupAllLocalBoxes()</text>
<text text-anchor="start" x="304.5" y="-141.5" font-family="Helvetica,sans-Serif" font-size="10.00">+</text>
<text text-anchor="start" x="317.5" y="-141.5" font-family="Helvetica,sans-Serif" font-size="10.00">rGetLocalBoxes()</text>
<text text-anchor="start" x="304.5" y="-126.5" font-family="Helvetica,sans-Serif" font-size="10.00">+</text>
<text text-anchor="start" x="317.5" y="-126.5" font-family="Helvetica,sans-Serif" font-size="10.00">rGetDomainSize()</text>
<text text-anchor="start" x="304.5" y="-111.5" font-family="Helvetica,sans-Serif" font-size="10.00">+</text>
<text text-anchor="start" x="317.5" y="-111.5" font-family="Helvetica,sans-Serif" font-size="10.00">CalculateNodePairs()</text>
<text text-anchor="start" x="304.5" y="-96.5" font-family="Helvetica,sans-Serif" font-size="10.00">+</text>
<text text-anchor="start" x="317.5" y="-96.5" font-family="Helvetica,sans-Serif" font-size="10.00">IsOwned()</text>
<text text-anchor="start" x="304.5" y="-81.5" font-family="Helvetica,sans-Serif" font-size="10.00">+</text>
<text text-anchor="start" x="317.5" y="-81.5" font-family="Helvetica,sans-Serif" font-size="10.00">IsBoxOwned()</text>
<text text-anchor="start" x="307" y="-66.5" font-family="Helvetica,sans-Serif" font-size="10.00">&#45;</text>
<text text-anchor="start" x="317.5" y="-66.5" font-family="Helvetica,sans-Serif" font-size="10.00">GetLinearIndex()</text>
<text text-anchor="start" x="307" y="-51.5" font-family="Helvetica,sans-Serif" font-size="10.00">&#45;</text>
<text text-anchor="start" x="317.5" y="-51.5" font-family="Helvetica,sans-Serif" font-size="10.00">GetGridIndices()</text>
<text text-anchor="start" x="307" y="-36.5" font-family="Helvetica,sans-Serif" font-size="10.00">&#45;</text>
<text text-anchor="start" x="317.5" y="-36.5" font-family="Helvetica,sans-Serif" font-size="10.00">IsBoxInDomain()</text>
<text text-anchor="start" x="307" y="-21.5" font-family="Helvetica,sans-Serif" font-size="10.00">&#45;</text>
<text text-anchor="start" x="317.5" y="-21.5" font-family="Helvetica,sans-Serif" font-size="10.00">IsIndexPenultimate()</text>
<text text-anchor="start" x="307" y="-6.5" font-family="Helvetica,sans-Serif" font-size="10.00">&#45;</text>
<text text-anchor="start" x="317.5" y="-6.5" font-family="Helvetica,sans-Serif" font-size="10.00">SetupLocalBoxes()</text>
<polygon fill="#666666" stroke="#666666" points="300.5,-286.5 300.5,-286.5 454.5,-286.5 454.5,-286.5 300.5,-286.5"/>
<polygon fill="#666666" stroke="#666666" points="300.5,-271.5 300.5,-271.5 454.5,-271.5 454.5,-271.5 300.5,-271.5"/>
<polygon fill="none" stroke="#666666" points="300.5,0 300.5,-315 454.5,-315 454.5,0 300.5,0"/>
</a>
</g>
</g>
<!-- Node2 -->
<g id="Node000002" class="node">
<title>Node2</title>
<g id="a_Node000002"><a xlink:title=" ">
<polygon fill="white" stroke="transparent" points="125,-427.5 0,-427.5 0,-378.5 125,-378.5 125,-427.5"/>
<text text-anchor="start" x="5.5" y="-415" font-family="Helvetica,sans-Serif" font-size="10.00">vector&lt; Box&lt; DIM &gt; &gt;</text>
<text text-anchor="start" x="61" y="-400" font-family="Helvetica,sans-Serif" font-size="10.00"> </text>
<text text-anchor="start" x="61" y="-385" font-family="Helvetica,sans-Serif" font-size="10.00"> </text>
<polygon fill="#bfbfbf" stroke="#bfbfbf" points="0.5,-410 0.5,-410 125.5,-410 125.5,-410 0.5,-410"/>
<polygon fill="#bfbfbf" stroke="#bfbfbf" points="0.5,-395 0.5,-395 125.5,-395 125.5,-395 0.5,-395"/>
<polygon fill="none" stroke="#bfbfbf" points="0,-378.5 0,-427.5 125,-427.5 125,-378.5 0,-378.5"/>
</a>
</g>
</g>
<!-- Node2&#45;&gt;Node1 -->
<g id="edge1_Node000001_Node000002" class="edge">
<title>Node2&#45;&gt;Node1</title>
<g id="a_edge1_Node000001_Node000002"><a xlink:title=" ">
<path fill="none" stroke="#63b8ff" d="M92.99,-378.43C138.24,-343.45 224.92,-276.45 290.76,-225.55"/>
<polygon fill="none" stroke="#63b8ff" points="290.82,-225.5 293.12,-218.67 300.32,-218.17 298.01,-225 290.82,-225.5"/>
</a>
</g>
<text text-anchor="middle" x="170.5" y="-341.5" font-family="Helvetica,sans-Serif" font-size="10.00" fill="grey"> &#45;mBoxes</text>
</g>
<!-- Node3 -->
<g id="Node000003" class="node">
<title>Node3</title>
<g id="a_Node000003"><a xlink:title=" ">
<polygon fill="white" stroke="transparent" points="251.5,-433 143.5,-433 143.5,-373 251.5,-373 251.5,-433"/>
<text text-anchor="start" x="148.5" y="-421" font-family="Helvetica,sans-Serif" font-size="10.00">c_vector&lt; double, 2</text>
<text text-anchor="start" x="177.5" y="-410" font-family="Helvetica,sans-Serif" font-size="10.00"> *DIM &gt;</text>
<text text-anchor="start" x="195.5" y="-395" font-family="Helvetica,sans-Serif" font-size="10.00"> </text>
<text text-anchor="start" x="195.5" y="-380" font-family="Helvetica,sans-Serif" font-size="10.00"> </text>
<polygon fill="#bfbfbf" stroke="#bfbfbf" points="143.5,-405 143.5,-405 251.5,-405 251.5,-405 143.5,-405"/>
<polygon fill="#bfbfbf" stroke="#bfbfbf" points="143.5,-390 143.5,-390 251.5,-390 251.5,-390 143.5,-390"/>
<polygon fill="none" stroke="#bfbfbf" points="143.5,-373 143.5,-433 251.5,-433 251.5,-373 143.5,-373"/>
</a>
</g>
</g>
<!-- Node3&#45;&gt;Node1 -->
<g id="edge2_Node000001_Node000003" class="edge">
<title>Node3&#45;&gt;Node1</title>
<g id="a_edge2_Node000001_Node000003"><a xlink:title=" ">
<path fill="none" stroke="#63b8ff" d="M202.28,-372.95C205.18,-360.16 209.68,-345.27 216.5,-333 236.18,-297.57 264.49,-263.61 291.9,-235.22"/>
<polygon fill="none" stroke="#63b8ff" points="291.97,-235.16 293.31,-228.07 300.37,-226.59 299.02,-233.68 291.97,-235.16"/>
</a>
</g>
<text text-anchor="middle" x="254.5" y="-341.5" font-family="Helvetica,sans-Serif" font-size="10.00" fill="grey"> &#45;mDomainSize</text>
</g>
<!-- Node4 -->
<g id="Node000004" class="node">
<title>Node4</title>
<g id="a_Node000004"><a xlink:title=" ">
<polygon fill="white" stroke="transparent" points="350.5,-529 298.5,-529 298.5,-480 350.5,-480 350.5,-529"/>
<text text-anchor="start" x="303.5" y="-516.5" font-family="Helvetica,sans-Serif" font-size="10.00">c_vector</text>
<text text-anchor="start" x="322.5" y="-501.5" font-family="Helvetica,sans-Serif" font-size="10.00"> </text>
<text text-anchor="start" x="322.5" y="-486.5" font-family="Helvetica,sans-Serif" font-size="10.00"> </text>
<polygon fill="#bfbfbf" stroke="#bfbfbf" points="298.5,-511.5 298.5,-511.5 350.5,-511.5 350.5,-511.5 298.5,-511.5"/>
<polygon fill="#bfbfbf" stroke="#bfbfbf" points="298.5,-496.5 298.5,-496.5 350.5,-496.5 350.5,-496.5 298.5,-496.5"/>
<polygon fill="none" stroke="#bfbfbf" points="298.5,-480 298.5,-529 350.5,-529 350.5,-480 298.5,-480"/>
</a>
</g>
</g>
<!-- Node4&#45;&gt;Node3 -->
<g id="edge3_Node000003_Node000004" class="edge">
<title>Node4&#45;&gt;Node3</title>
<g id="a_edge3_Node000003_Node000004"><a xlink:title=" ">
<path fill="none" stroke="orange" d="M288.18,-496.34C266.43,-490.4 239.59,-479.92 221.5,-462 213.6,-454.18 208.19,-443.38 204.53,-433.22"/>
<polygon fill="orange" stroke="orange" points="287.52,-499.78 298.07,-498.83 289.23,-493 287.52,-499.78"/>
</a>
</g>
<text text-anchor="middle" x="271" y="-454" font-family="Helvetica,sans-Serif" font-size="10.00" fill="grey"> &lt; double, 2 *DIM &gt;</text>
</g>
<!-- Node6 -->
<g id="Node000006" class="node">
<title>Node6</title>
<g id="a_Node000006"><a xlink:title=" ">
<polygon fill="white" stroke="transparent" points="379.5,-433 269.5,-433 269.5,-373 379.5,-373 379.5,-433"/>
<text text-anchor="start" x="274.5" y="-421" font-family="Helvetica,sans-Serif" font-size="10.00">c_vector&lt; unsigned,</text>
<text text-anchor="start" x="307.5" y="-410" font-family="Helvetica,sans-Serif" font-size="10.00"> DIM &gt;</text>
<text text-anchor="start" x="322.5" y="-395" font-family="Helvetica,sans-Serif" font-size="10.00"> </text>
<text text-anchor="start" x="322.5" y="-380" font-family="Helvetica,sans-Serif" font-size="10.00"> </text>
<polygon fill="#bfbfbf" stroke="#bfbfbf" points="269.5,-405 269.5,-405 379.5,-405 379.5,-405 269.5,-405"/>
<polygon fill="#bfbfbf" stroke="#bfbfbf" points="269.5,-390 269.5,-390 379.5,-390 379.5,-390 269.5,-390"/>
<polygon fill="none" stroke="#bfbfbf" points="269.5,-373 269.5,-433 379.5,-433 379.5,-373 269.5,-373"/>
</a>
</g>
</g>
<!-- Node4&#45;&gt;Node6 -->
<g id="edge6_Node000006_Node000004" class="edge">
<title>Node4&#45;&gt;Node6</title>
<g id="a_edge6_Node000006_Node000004"><a xlink:title=" ">
<path fill="none" stroke="orange" d="M324.5,-469.87C324.5,-457.94 324.5,-444.62 324.5,-433.1"/>
<polygon fill="orange" stroke="orange" points="321,-469.92 324.5,-479.92 328,-469.92 321,-469.92"/>
</a>
</g>
<text text-anchor="middle" x="372.5" y="-454" font-family="Helvetica,sans-Serif" font-size="10.00" fill="grey"> &lt; unsigned, DIM &gt;</text>
</g>
<!-- Node8 -->
<g id="Node000008" class="node">
<title>Node8</title>
<g id="a_Node000008"><a xlink:title=" ">
<polygon fill="white" stroke="transparent" points="519,-427.5 398,-427.5 398,-378.5 519,-378.5 519,-427.5"/>
<text text-anchor="start" x="403.5" y="-415" font-family="Helvetica,sans-Serif" font-size="10.00">c_vector&lt; bool, DIM &gt;</text>
<text text-anchor="start" x="457" y="-400" font-family="Helvetica,sans-Serif" font-size="10.00"> </text>
<text text-anchor="start" x="457" y="-385" font-family="Helvetica,sans-Serif" font-size="10.00"> </text>
<polygon fill="#bfbfbf" stroke="#bfbfbf" points="398.5,-410 398.5,-410 519.5,-410 519.5,-410 398.5,-410"/>
<polygon fill="#bfbfbf" stroke="#bfbfbf" points="398.5,-395 398.5,-395 519.5,-395 519.5,-395 398.5,-395"/>
<polygon fill="none" stroke="#bfbfbf" points="398,-378.5 398,-427.5 519,-427.5 519,-378.5 398,-378.5"/>
</a>
</g>
</g>
<!-- Node4&#45;&gt;Node8 -->
<g id="edge9_Node000008_Node000004" class="edge">
<title>Node4&#45;&gt;Node8</title>
<g id="a_edge9_Node000008_Node000004"><a xlink:title=" ">
<path fill="none" stroke="orange" d="M360.46,-494.74C381.01,-488.33 406.24,-477.92 424.5,-462 435.15,-452.72 443.32,-439.25 448.99,-427.63"/>
<polygon fill="orange" stroke="orange" points="359.42,-491.4 350.8,-497.58 361.39,-498.12 359.42,-491.4"/>
</a>
</g>
<text text-anchor="middle" x="470" y="-454" font-family="Helvetica,sans-Serif" font-size="10.00" fill="grey"> &lt; bool, DIM &gt;</text>
</g>
<!-- Node5 -->
<g id="Node000005" class="node">
<title>Node5</title>
<g id="a_Node000005"><a xlink:href="classdouble.html" target="_top" xlink:title=" ">
<polygon fill="white" stroke="transparent" points="605.5,-427.5 561.5,-427.5 561.5,-378.5 605.5,-378.5 605.5,-427.5"/>
<text text-anchor="start" x="566.5" y="-415" font-family="Helvetica,sans-Serif" font-size="10.00">double</text>
<text text-anchor="start" x="581.5" y="-400" font-family="Helvetica,sans-Serif" font-size="10.00"> </text>
<text text-anchor="start" x="581.5" y="-385" font-family="Helvetica,sans-Serif" font-size="10.00"> </text>
<polygon fill="#bfbfbf" stroke="#bfbfbf" points="561.5,-410 561.5,-410 605.5,-410 605.5,-410 561.5,-410"/>
<polygon fill="#bfbfbf" stroke="#bfbfbf" points="561.5,-395 561.5,-395 605.5,-395 605.5,-395 561.5,-395"/>
<polygon fill="none" stroke="#bfbfbf" points="561.5,-378.5 561.5,-427.5 605.5,-427.5 605.5,-378.5 561.5,-378.5"/>
</a>
</g>
</g>
<!-- Node5&#45;&gt;Node1 -->
<g id="edge4_Node000001_Node000005" class="edge">
<title>Node5&#45;&gt;Node1</title>
<g id="a_edge4_Node000001_Node000005"><a xlink:title=" ">
<path fill="none" stroke="#63b8ff" d="M573.26,-378.33C566.78,-364.53 557.72,-347.12 547.5,-333 523,-299.16 492.1,-265.45 463.38,-236.81"/>
<polygon fill="none" stroke="#63b8ff" points="463.09,-236.53 456.01,-235.16 454.55,-228.09 461.63,-229.46 463.09,-236.53"/>
</a>
</g>
<text text-anchor="middle" x="592.5" y="-347" font-family="Helvetica,sans-Serif" font-size="10.00" fill="grey"> &#45;mBoxWidth</text>
<text text-anchor="middle" x="592.5" y="-336" font-family="Helvetica,sans-Serif" font-size="10.00" fill="grey">&#45;msFudge</text>
</g>
<!-- Node6&#45;&gt;Node1 -->
<g id="edge5_Node000001_Node000006" class="edge">
<title>Node6&#45;&gt;Node1</title>
<g id="a_edge5_Node000001_Node000006"><a xlink:title=" ">
<path fill="none" stroke="#63b8ff" d="M305.46,-372.86C302.59,-367.15 300.06,-361.05 298.5,-355 296.06,-345.53 296.44,-342.56 298.5,-333 298.91,-331.08 299.35,-329.16 299.81,-327.23"/>
<polygon fill="none" stroke="#63b8ff" points="299.88,-326.98 297.51,-320.16 302.89,-315.36 305.26,-322.17 299.88,-326.98"/>
</a>
</g>
<text text-anchor="middle" x="367" y="-341.5" font-family="Helvetica,sans-Serif" font-size="10.00" fill="grey"> &#45;mNumBoxesEachDirection</text>
</g>
<!-- Node7 -->
<g id="Node000007" class="node">
<title>Node7</title>
<g id="a_Node000007"><a xlink:title=" ">
<polygon fill="white" stroke="transparent" points="790,-427.5 623,-427.5 623,-378.5 790,-378.5 790,-427.5"/>
<text text-anchor="start" x="628.5" y="-415" font-family="Helvetica,sans-Serif" font-size="10.00">vector&lt; std::set&lt; unsigned &gt; &gt;</text>
<text text-anchor="start" x="705" y="-400" font-family="Helvetica,sans-Serif" font-size="10.00"> </text>
<text text-anchor="start" x="705" y="-385" font-family="Helvetica,sans-Serif" font-size="10.00"> </text>
<polygon fill="#bfbfbf" stroke="#bfbfbf" points="623.5,-410 623.5,-410 790.5,-410 790.5,-410 623.5,-410"/>
<polygon fill="#bfbfbf" stroke="#bfbfbf" points="623.5,-395 623.5,-395 790.5,-395 790.5,-395 623.5,-395"/>
<polygon fill="none" stroke="#bfbfbf" points="623,-378.5 623,-427.5 790,-427.5 790,-378.5 623,-378.5"/>
</a>
</g>
</g>
<!-- Node7&#45;&gt;Node1 -->
<g id="edge7_Node000001_Node000007" class="edge">
<title>Node7&#45;&gt;Node1</title>
<g id="a_edge7_Node000001_Node000007"><a xlink:title=" ">
<path fill="none" stroke="#63b8ff" d="M681.15,-378.22C666.2,-364.55 646.7,-347.3 628.5,-333 575.8,-291.6 514.03,-248.59 464.95,-215.63"/>
<polygon fill="none" stroke="#63b8ff" points="464.65,-215.42 457.43,-215.41 454.67,-208.75 461.89,-208.76 464.65,-215.42"/>
</a>
</g>
<text text-anchor="middle" x="690.5" y="-341.5" font-family="Helvetica,sans-Serif" font-size="10.00" fill="grey"> &#45;mLocalBoxes</text>
</g>
<!-- Node8&#45;&gt;Node1 -->
<g id="edge8_Node000001_Node000008" class="edge">
<title>Node8&#45;&gt;Node1</title>
<g id="a_edge8_Node000001_Node000008"><a xlink:title=" ">
<path fill="none" stroke="#63b8ff" d="M450.59,-378.21C446.14,-364.84 440.15,-346.85 433.51,-326.89"/>
<polygon fill="none" stroke="#63b8ff" points="433.44,-326.66 427.75,-322.23 429.65,-315.27 435.34,-319.7 433.44,-326.66"/>
</a>
</g>
<text text-anchor="middle" x="492" y="-341.5" font-family="Helvetica,sans-Serif" font-size="10.00" fill="grey"> &#45;mIsDomainPeriodic</text>
</g>
</g>
</svg>
