<?xml version="1.0" encoding="UTF-8" standalone="no"?>
<!DOCTYPE svg PUBLIC "-//W3C//DTD SVG 1.1//EN"
 "http://www.w3.org/Graphics/SVG/1.1/DTD/svg11.dtd">
<!-- Generated by graphviz version 2.43.0 (0)
 -->
<!-- Title: AbstractConductivityTensors&lt; ELEMENT_DIM, SPACE_DIM &gt; Pages: 1 -->
<svg width="752pt" height="666pt"
 viewBox="0.00 0.00 751.50 666.00" xmlns="http://www.w3.org/2000/svg" xmlns:xlink="http://www.w3.org/1999/xlink">
<g id="graph0" class="graph" transform="scale(1 1) rotate(0) translate(4 662)">
<title>AbstractConductivityTensors&lt; ELEMENT_DIM, SPACE_DIM &gt;</title>
<!-- Node1 -->
<g id="Node000001" class="node">
<title>Node1</title>
<g id="a_Node000001"><a xlink:title="Forward declaration which is going to be used for friendship.">
<polygon fill="#999999" stroke="transparent" points="446.5,-658 263.5,-658 263.5,-358 446.5,-358 446.5,-658"/>
<text text-anchor="start" x="278" y="-646" font-family="Helvetica,sans-Serif" font-size="10.00">AbstractConductivityTensors</text>
<text text-anchor="start" x="278" y="-635" font-family="Helvetica,sans-Serif" font-size="10.00">&lt; ELEMENT_DIM, SPACE_DIM &gt;</text>
<text text-anchor="start" x="268" y="-620" font-family="Helvetica,sans-Serif" font-size="10.00">#</text>
<text text-anchor="start" x="281" y="-620" font-family="Helvetica,sans-Serif" font-size="10.00">mpMesh</text>
<text text-anchor="start" x="268" y="-605" font-family="Helvetica,sans-Serif" font-size="10.00">#</text>
<text text-anchor="start" x="281" y="-605" font-family="Helvetica,sans-Serif" font-size="10.00">mUseNonConstantConductivities</text>
<text text-anchor="start" x="268" y="-590" font-family="Helvetica,sans-Serif" font-size="10.00">#</text>
<text text-anchor="start" x="281" y="-590" font-family="Helvetica,sans-Serif" font-size="10.00">mUseFibreOrientation</text>
<text text-anchor="start" x="268" y="-575" font-family="Helvetica,sans-Serif" font-size="10.00">#</text>
<text text-anchor="start" x="281" y="-575" font-family="Helvetica,sans-Serif" font-size="10.00">mConstantConductivities</text>
<text text-anchor="start" x="268" y="-560" font-family="Helvetica,sans-Serif" font-size="10.00">#</text>
<text text-anchor="start" x="281" y="-560" font-family="Helvetica,sans-Serif" font-size="10.00">mpNonConstantConductivities</text>
<text text-anchor="start" x="268" y="-545" font-family="Helvetica,sans-Serif" font-size="10.00">#</text>
<text text-anchor="start" x="281" y="-545" font-family="Helvetica,sans-Serif" font-size="10.00">mTensors</text>
<text text-anchor="start" x="268" y="-530" font-family="Helvetica,sans-Serif" font-size="10.00">#</text>
<text text-anchor="start" x="281" y="-530" font-family="Helvetica,sans-Serif" font-size="10.00">mInitialised</text>
<text text-anchor="start" x="268" y="-515" font-family="Helvetica,sans-Serif" font-size="10.00">#</text>
<text text-anchor="start" x="281" y="-515" font-family="Helvetica,sans-Serif" font-size="10.00">mFibreOrientationFile</text>
<text text-anchor="start" x="268" y="-500" font-family="Helvetica,sans-Serif" font-size="10.00">#</text>
<text text-anchor="start" x="281" y="-500" font-family="Helvetica,sans-Serif" font-size="10.00">mFileReader</text>
<text text-anchor="start" x="268" y="-485" font-family="Helvetica,sans-Serif" font-size="10.00">+</text>
<text text-anchor="start" x="281" y="-485" font-family="Helvetica,sans-Serif" font-size="10.00">AbstractConductivityTensors()</text>
<text text-anchor="start" x="268" y="-470" font-family="Helvetica,sans-Serif" font-size="10.00">+</text>
<text text-anchor="start" x="281" y="-470" font-family="Helvetica,sans-Serif" font-size="10.00">~AbstractConductivityTensors()</text>
<text text-anchor="start" x="268" y="-455" font-family="Helvetica,sans-Serif" font-size="10.00">+</text>
<text text-anchor="start" x="281" y="-455" font-family="Helvetica,sans-Serif" font-size="10.00">SetFibreOrientationFile()</text>
<text text-anchor="start" x="268" y="-440" font-family="Helvetica,sans-Serif" font-size="10.00">+</text>
<text text-anchor="start" x="281" y="-440" font-family="Helvetica,sans-Serif" font-size="10.00">SetConstantConductivities()</text>
<text text-anchor="start" x="268" y="-425" font-family="Helvetica,sans-Serif" font-size="10.00">+</text>
<text text-anchor="start" x="281" y="-425" font-family="Helvetica,sans-Serif" font-size="10.00">SetConstantConductivities()</text>
<text text-anchor="start" x="268" y="-410" font-family="Helvetica,sans-Serif" font-size="10.00">+</text>
<text text-anchor="start" x="281" y="-410" font-family="Helvetica,sans-Serif" font-size="10.00">SetConstantConductivities()</text>
<text text-anchor="start" x="268" y="-395" font-family="Helvetica,sans-Serif" font-size="10.00">+</text>
<text text-anchor="start" x="281" y="-395" font-family="Helvetica,sans-Serif" font-size="10.00">SetNonConstantConductivities()</text>
<text text-anchor="start" x="268" y="-380" font-family="Helvetica,sans-Serif" font-size="10.00">+</text>
<text text-anchor="start" x="281" y="-380" font-family="Helvetica,sans-Serif" font-size="10.00">Init()</text>
<text text-anchor="start" x="268" y="-365" font-family="Helvetica,sans-Serif" font-size="10.00">+</text>
<text text-anchor="start" x="281" y="-365" font-family="Helvetica,sans-Serif" font-size="10.00">operator[]()</text>
<polygon fill="#666666" stroke="#666666" points="264,-630 264,-630 447,-630 447,-630 264,-630"/>
<polygon fill="#666666" stroke="#666666" points="264,-495 264,-495 279,-495 279,-495 264,-495"/>
<polygon fill="#666666" stroke="#666666" points="279,-495 279,-495 447,-495 447,-495 279,-495"/>
<polygon fill="none" stroke="#666666" points="263.5,-358 263.5,-658 446.5,-658 446.5,-358 263.5,-358"/>
</a>
</g>
</g>
<!-- Node2 -->
<g id="Node000002" class="node">
<title>Node2</title>
<g id="a_Node000002"><a xlink:href="classAxisymmetricConductivityTensors.html" target="_top" xlink:title=" ">
<polygon fill="white" stroke="transparent" points="158,-206 0,-206 0,-94 158,-94 158,-206"/>
<text text-anchor="start" x="14" y="-194" font-family="Helvetica,sans-Serif" font-size="10.00">AxisymmetricConductivity</text>
<text text-anchor="start" x="14" y="-183" font-family="Helvetica,sans-Serif" font-size="10.00">Tensors&lt; ELEMENT_DIM,</text>
<text text-anchor="start" x="44" y="-172" font-family="Helvetica,sans-Serif" font-size="10.00"> SPACE_DIM &gt;</text>
<text text-anchor="start" x="77" y="-157" font-family="Helvetica,sans-Serif" font-size="10.00"> </text>
<text text-anchor="start" x="4" y="-142" font-family="Helvetica,sans-Serif" font-size="10.00">+</text>
<text text-anchor="start" x="17" y="-142" font-family="Helvetica,sans-Serif" font-size="10.00">AxisymmetricConductivity</text>
<text text-anchor="start" x="17" y="-131" font-family="Helvetica,sans-Serif" font-size="10.00">Tensors()</text>
<text text-anchor="start" x="4" y="-116" font-family="Helvetica,sans-Serif" font-size="10.00">+</text>
<text text-anchor="start" x="17" y="-116" font-family="Helvetica,sans-Serif" font-size="10.00">SetConstantConductivities()</text>
<text text-anchor="start" x="4" y="-101" font-family="Helvetica,sans-Serif" font-size="10.00">+</text>
<text text-anchor="start" x="17" y="-101" font-family="Helvetica,sans-Serif" font-size="10.00">Init()</text>
<polygon fill="#666666" stroke="#666666" points="0,-167 0,-167 158,-167 158,-167 0,-167"/>
<polygon fill="#666666" stroke="#666666" points="0,-152 0,-152 158,-152 158,-152 0,-152"/>
<polygon fill="none" stroke="#666666" points="0,-94 0,-206 158,-206 158,-94 0,-94"/>
</a>
</g>
</g>
<!-- Node1&#45;&gt;Node2 -->
<g id="edge1_Node000001_Node000002" class="edge">
<title>Node1&#45;&gt;Node2</title>
<g id="a_edge1_Node000001_Node000002"><a xlink:title=" ">
<path fill="none" stroke="#63b8ff" d="M256.64,-407C226.39,-374.12 193.99,-336.6 167,-300 145.16,-270.38 124.07,-234.99 108.01,-206.13"/>
<polygon fill="none" stroke="#63b8ff" points="254.11,-409.42 263.46,-414.38 259.24,-404.66 254.11,-409.42"/>
</a>
</g>
</g>
<!-- Node3 -->
<g id="Node000003" class="node">
<title>Node3</title>
<g id="a_Node000003"><a xlink:href="classOrthotropicConductivityTensors.html" target="_top" xlink:title=" ">
<polygon fill="white" stroke="transparent" points="341.5,-180 176.5,-180 176.5,-120 341.5,-120 341.5,-180"/>
<text text-anchor="start" x="182" y="-168" font-family="Helvetica,sans-Serif" font-size="10.00">OrthotropicConductivityTensors</text>
<text text-anchor="start" x="182" y="-157" font-family="Helvetica,sans-Serif" font-size="10.00">&lt; ELEMENT_DIM, SPACE_DIM &gt;</text>
<text text-anchor="start" x="257.5" y="-142" font-family="Helvetica,sans-Serif" font-size="10.00"> </text>
<text text-anchor="start" x="211" y="-127" font-family="Helvetica,sans-Serif" font-size="10.00">+</text>
<text text-anchor="start" x="254" y="-127" font-family="Helvetica,sans-Serif" font-size="10.00">Init()</text>
<polygon fill="#666666" stroke="#666666" points="177,-152 177,-152 342,-152 342,-152 177,-152"/>
<polygon fill="#666666" stroke="#666666" points="177,-137 177,-137 342,-137 342,-137 177,-137"/>
<polygon fill="none" stroke="#666666" points="176.5,-120 176.5,-180 341.5,-180 341.5,-120 176.5,-120"/>
</a>
</g>
</g>
<!-- Node1&#45;&gt;Node3 -->
<g id="edge2_Node000001_Node000003" class="edge">
<title>Node1&#45;&gt;Node3</title>
<g id="a_edge2_Node000001_Node000003"><a xlink:title=" ">
<path fill="none" stroke="#63b8ff" d="M312.13,-348.03C294.92,-284.22 276.82,-217.1 266.82,-180"/>
<polygon fill="none" stroke="#63b8ff" points="308.79,-349.09 314.77,-357.83 315.55,-347.26 308.79,-349.09"/>
</a>
</g>
</g>
<!-- Node4 -->
<g id="Node000004" class="node">
<title>Node4</title>
<g id="a_Node000004"><a xlink:href="classAbstractConductivityTensors.html" target="_top" xlink:title=" ">
<polygon fill="white" stroke="transparent" points="542.5,-300 359.5,-300 359.5,0 542.5,0 542.5,-300"/>
<text text-anchor="start" x="366.5" y="-288" font-family="Helvetica,sans-Serif" font-size="10.00">AbstractConductivityTensors</text>
<text text-anchor="start" x="366.5" y="-277" font-family="Helvetica,sans-Serif" font-size="10.00">&lt; ELEMENT_DIM, ELEMENT_DIM &gt;</text>
<text text-anchor="start" x="364" y="-262" font-family="Helvetica,sans-Serif" font-size="10.00">#</text>
<text text-anchor="start" x="377" y="-262" font-family="Helvetica,sans-Serif" font-size="10.00">mpMesh</text>
<text text-anchor="start" x="364" y="-247" font-family="Helvetica,sans-Serif" font-size="10.00">#</text>
<text text-anchor="start" x="377" y="-247" font-family="Helvetica,sans-Serif" font-size="10.00">mUseNonConstantConductivities</text>
<text text-anchor="start" x="364" y="-232" font-family="Helvetica,sans-Serif" font-size="10.00">#</text>
<text text-anchor="start" x="377" y="-232" font-family="Helvetica,sans-Serif" font-size="10.00">mUseFibreOrientation</text>
<text text-anchor="start" x="364" y="-217" font-family="Helvetica,sans-Serif" font-size="10.00">#</text>
<text text-anchor="start" x="377" y="-217" font-family="Helvetica,sans-Serif" font-size="10.00">mConstantConductivities</text>
<text text-anchor="start" x="364" y="-202" font-family="Helvetica,sans-Serif" font-size="10.00">#</text>
<text text-anchor="start" x="377" y="-202" font-family="Helvetica,sans-Serif" font-size="10.00">mpNonConstantConductivities</text>
<text text-anchor="start" x="364" y="-187" font-family="Helvetica,sans-Serif" font-size="10.00">#</text>
<text text-anchor="start" x="377" y="-187" font-family="Helvetica,sans-Serif" font-size="10.00">mTensors</text>
<text text-anchor="start" x="364" y="-172" font-family="Helvetica,sans-Serif" font-size="10.00">#</text>
<text text-anchor="start" x="377" y="-172" font-family="Helvetica,sans-Serif" font-size="10.00">mInitialised</text>
<text text-anchor="start" x="364" y="-157" font-family="Helvetica,sans-Serif" font-size="10.00">#</text>
<text text-anchor="start" x="377" y="-157" font-family="Helvetica,sans-Serif" font-size="10.00">mFibreOrientationFile</text>
<text text-anchor="start" x="364" y="-142" font-family="Helvetica,sans-Serif" font-size="10.00">#</text>
<text text-anchor="start" x="377" y="-142" font-family="Helvetica,sans-Serif" font-size="10.00">mFileReader</text>
<text text-anchor="start" x="364" y="-127" font-family="Helvetica,sans-Serif" font-size="10.00">+</text>
<text text-anchor="start" x="377" y="-127" font-family="Helvetica,sans-Serif" font-size="10.00">AbstractConductivityTensors()</text>
<text text-anchor="start" x="364" y="-112" font-family="Helvetica,sans-Serif" font-size="10.00">+</text>
<text text-anchor="start" x="377" y="-112" font-family="Helvetica,sans-Serif" font-size="10.00">~AbstractConductivityTensors()</text>
<text text-anchor="start" x="364" y="-97" font-family="Helvetica,sans-Serif" font-size="10.00">+</text>
<text text-anchor="start" x="377" y="-97" font-family="Helvetica,sans-Serif" font-size="10.00">SetFibreOrientationFile()</text>
<text text-anchor="start" x="364" y="-82" font-family="Helvetica,sans-Serif" font-size="10.00">+</text>
<text text-anchor="start" x="377" y="-82" font-family="Helvetica,sans-Serif" font-size="10.00">SetConstantConductivities()</text>
<text text-anchor="start" x="364" y="-67" font-family="Helvetica,sans-Serif" font-size="10.00">+</text>
<text text-anchor="start" x="377" y="-67" font-family="Helvetica,sans-Serif" font-size="10.00">SetConstantConductivities()</text>
<text text-anchor="start" x="364" y="-52" font-family="Helvetica,sans-Serif" font-size="10.00">+</text>
<text text-anchor="start" x="377" y="-52" font-family="Helvetica,sans-Serif" font-size="10.00">SetConstantConductivities()</text>
<text text-anchor="start" x="364" y="-37" font-family="Helvetica,sans-Serif" font-size="10.00">+</text>
<text text-anchor="start" x="377" y="-37" font-family="Helvetica,sans-Serif" font-size="10.00">SetNonConstantConductivities()</text>
<text text-anchor="start" x="364" y="-22" font-family="Helvetica,sans-Serif" font-size="10.00">+</text>
<text text-anchor="start" x="377" y="-22" font-family="Helvetica,sans-Serif" font-size="10.00">Init()</text>
<text text-anchor="start" x="364" y="-7" font-family="Helvetica,sans-Serif" font-size="10.00">+</text>
<text text-anchor="start" x="377" y="-7" font-family="Helvetica,sans-Serif" font-size="10.00">operator[]()</text>
<polygon fill="#666666" stroke="#666666" points="360,-272 360,-272 543,-272 543,-272 360,-272"/>
<polygon fill="#666666" stroke="#666666" points="360,-137 360,-137 375,-137 375,-137 360,-137"/>
<polygon fill="#666666" stroke="#666666" points="375,-137 375,-137 543,-137 543,-137 375,-137"/>
<polygon fill="none" stroke="#666666" points="359.5,0 359.5,-300 542.5,-300 542.5,0 359.5,0"/>
</a>
</g>
</g>
<!-- Node1&#45;&gt;Node4 -->
<g id="edge3_Node000001_Node000004" class="edge">
<title>Node1&#45;&gt;Node4</title>
<g id="a_edge3_Node000001_Node000004"><a xlink:title=" ">
<path fill="none" stroke="orange" d="M397.88,-347.98C402.16,-332.1 406.5,-316.02 410.75,-300.25"/>
<polygon fill="orange" stroke="orange" points="394.45,-347.26 395.23,-357.83 401.21,-349.09 394.45,-347.26"/>
</a>
</g>
<text text-anchor="start" x="406" y="-332" font-family="Helvetica,sans-Serif" font-size="10.00" fill="grey"> &lt; ELEMENT_DIM, ELEMENT</text>
<text text-anchor="middle" x="474.5" y="-321" font-family="Helvetica,sans-Serif" font-size="10.00" fill="grey">_DIM &gt;</text>
</g>
<!-- Node5 -->
<g id="Node000005" class="node">
<title>Node5</title>
<g id="a_Node000005"><a xlink:href="classAbstractConductivityTensors.html" target="_top" xlink:title=" ">
<polygon fill="white" stroke="transparent" points="743.5,-300 560.5,-300 560.5,0 743.5,0 743.5,-300"/>
<text text-anchor="start" x="582.5" y="-288" font-family="Helvetica,sans-Serif" font-size="10.00">AbstractConductivityTensors</text>
<text text-anchor="start" x="582.5" y="-277" font-family="Helvetica,sans-Serif" font-size="10.00">&lt; SPACE_DIM, SPACE_DIM &gt;</text>
<text text-anchor="start" x="565" y="-262" font-family="Helvetica,sans-Serif" font-size="10.00">#</text>
<text text-anchor="start" x="578" y="-262" font-family="Helvetica,sans-Serif" font-size="10.00">mpMesh</text>
<text text-anchor="start" x="565" y="-247" font-family="Helvetica,sans-Serif" font-size="10.00">#</text>
<text text-anchor="start" x="578" y="-247" font-family="Helvetica,sans-Serif" font-size="10.00">mUseNonConstantConductivities</text>
<text text-anchor="start" x="565" y="-232" font-family="Helvetica,sans-Serif" font-size="10.00">#</text>
<text text-anchor="start" x="578" y="-232" font-family="Helvetica,sans-Serif" font-size="10.00">mUseFibreOrientation</text>
<text text-anchor="start" x="565" y="-217" font-family="Helvetica,sans-Serif" font-size="10.00">#</text>
<text text-anchor="start" x="578" y="-217" font-family="Helvetica,sans-Serif" font-size="10.00">mConstantConductivities</text>
<text text-anchor="start" x="565" y="-202" font-family="Helvetica,sans-Serif" font-size="10.00">#</text>
<text text-anchor="start" x="578" y="-202" font-family="Helvetica,sans-Serif" font-size="10.00">mpNonConstantConductivities</text>
<text text-anchor="start" x="565" y="-187" font-family="Helvetica,sans-Serif" font-size="10.00">#</text>
<text text-anchor="start" x="578" y="-187" font-family="Helvetica,sans-Serif" font-size="10.00">mTensors</text>
<text text-anchor="start" x="565" y="-172" font-family="Helvetica,sans-Serif" font-size="10.00">#</text>
<text text-anchor="start" x="578" y="-172" font-family="Helvetica,sans-Serif" font-size="10.00">mInitialised</text>
<text text-anchor="start" x="565" y="-157" font-family="Helvetica,sans-Serif" font-size="10.00">#</text>
<text text-anchor="start" x="578" y="-157" font-family="Helvetica,sans-Serif" font-size="10.00">mFibreOrientationFile</text>
<text text-anchor="start" x="565" y="-142" font-family="Helvetica,sans-Serif" font-size="10.00">#</text>
<text text-anchor="start" x="578" y="-142" font-family="Helvetica,sans-Serif" font-size="10.00">mFileReader</text>
<text text-anchor="start" x="565" y="-127" font-family="Helvetica,sans-Serif" font-size="10.00">+</text>
<text text-anchor="start" x="578" y="-127" font-family="Helvetica,sans-Serif" font-size="10.00">AbstractConductivityTensors()</text>
<text text-anchor="start" x="565" y="-112" font-family="Helvetica,sans-Serif" font-size="10.00">+</text>
<text text-anchor="start" x="578" y="-112" font-family="Helvetica,sans-Serif" font-size="10.00">~AbstractConductivityTensors()</text>
<text text-anchor="start" x="565" y="-97" font-family="Helvetica,sans-Serif" font-size="10.00">+</text>
<text text-anchor="start" x="578" y="-97" font-family="Helvetica,sans-Serif" font-size="10.00">SetFibreOrientationFile()</text>
<text text-anchor="start" x="565" y="-82" font-family="Helvetica,sans-Serif" font-size="10.00">+</text>
<text text-anchor="start" x="578" y="-82" font-family="Helvetica,sans-Serif" font-size="10.00">SetConstantConductivities()</text>
<text text-anchor="start" x="565" y="-67" font-family="Helvetica,sans-Serif" font-size="10.00">+</text>
<text text-anchor="start" x="578" y="-67" font-family="Helvetica,sans-Serif" font-size="10.00">SetConstantConductivities()</text>
<text text-anchor="start" x="565" y="-52" font-family="Helvetica,sans-Serif" font-size="10.00">+</text>
<text text-anchor="start" x="578" y="-52" font-family="Helvetica,sans-Serif" font-size="10.00">SetConstantConductivities()</text>
<text text-anchor="start" x="565" y="-37" font-family="Helvetica,sans-Serif" font-size="10.00">+</text>
<text text-anchor="start" x="578" y="-37" font-family="Helvetica,sans-Serif" font-size="10.00">SetNonConstantConductivities()</text>
<text text-anchor="start" x="565" y="-22" font-family="Helvetica,sans-Serif" font-size="10.00">+</text>
<text text-anchor="start" x="578" y="-22" font-family="Helvetica,sans-Serif" font-size="10.00">Init()</text>
<text text-anchor="start" x="565" y="-7" font-family="Helvetica,sans-Serif" font-size="10.00">+</text>
<text text-anchor="start" x="578" y="-7" font-family="Helvetica,sans-Serif" font-size="10.00">operator[]()</text>
<polygon fill="#666666" stroke="#666666" points="561,-272 561,-272 744,-272 744,-272 561,-272"/>
<polygon fill="#666666" stroke="#666666" points="561,-137 561,-137 576,-137 576,-137 561,-137"/>
<polygon fill="#666666" stroke="#666666" points="576,-137 576,-137 744,-137 744,-137 576,-137"/>
<polygon fill="none" stroke="#666666" points="560.5,0 560.5,-300 743.5,-300 743.5,0 560.5,0"/>
</a>
</g>
</g>
<!-- Node1&#45;&gt;Node5 -->
<g id="edge4_Node000001_Node000005" class="edge">
<title>Node1&#45;&gt;Node5</title>
<g id="a_edge4_Node000001_Node000005"><a xlink:title=" ">
<path fill="none" stroke="orange" d="M454.63,-431.73C486.39,-404.89 520.21,-373.07 547,-340 557.04,-327.61 566.65,-314.12 575.68,-300.24"/>
<polygon fill="orange" stroke="orange" points="452.03,-429.35 446.6,-438.45 456.52,-434.72 452.03,-429.35"/>
</a>
</g>
<text text-anchor="start" x="561" y="-332" font-family="Helvetica,sans-Serif" font-size="10.00" fill="grey"> &lt; SPACE_DIM, SPACE</text>
<text text-anchor="middle" x="614.5" y="-321" font-family="Helvetica,sans-Serif" font-size="10.00" fill="grey">_DIM &gt;</text>
</g>
</g>
</svg>
