<?xml version="1.0" encoding="UTF-8" standalone="no"?>
<!DOCTYPE svg PUBLIC "-//W3C//DTD SVG 1.1//EN"
 "http://www.w3.org/Graphics/SVG/1.1/DTD/svg11.dtd">
<!-- Generated by graphviz version 2.43.0 (0)
 -->
<!-- Title: AbstractTetrahedralElement&lt; 0, SPACE_DIM &gt; Pages: 1 -->
<svg width="602pt" height="832pt"
 viewBox="0.00 0.00 601.50 832.00" xmlns="http://www.w3.org/2000/svg" xmlns:xlink="http://www.w3.org/1999/xlink">
<g id="graph0" class="graph" transform="scale(1 1) rotate(0) translate(4 828)">
<title>AbstractTetrahedralElement&lt; 0, SPACE_DIM &gt;</title>
<!-- Node1 -->
<g id="Node000001" class="node">
<title>Node1</title>
<g id="a_Node000001"><a xlink:title=" ">
<polygon fill="#999999" stroke="transparent" points="346,-161 173,-161 173,0 346,0 346,-161"/>
<text text-anchor="start" x="192" y="-148.5" font-family="Helvetica,sans-Serif" font-size="10.00">AbstractTetrahedralElement</text>
<text text-anchor="start" x="214.5" y="-137.5" font-family="Helvetica,sans-Serif" font-size="10.00">&lt; 0, SPACE_DIM &gt;</text>
<text text-anchor="start" x="258" y="-122.5" font-family="Helvetica,sans-Serif" font-size="10.00"> </text>
<text text-anchor="start" x="177.5" y="-107.5" font-family="Helvetica,sans-Serif" font-size="10.00">+</text>
<text text-anchor="start" x="190.5" y="-107.5" font-family="Helvetica,sans-Serif" font-size="10.00">AbstractTetrahedralElement()</text>
<text text-anchor="start" x="177.5" y="-92.5" font-family="Helvetica,sans-Serif" font-size="10.00">+</text>
<text text-anchor="start" x="190.5" y="-92.5" font-family="Helvetica,sans-Serif" font-size="10.00">AbstractTetrahedralElement()</text>
<text text-anchor="start" x="177.5" y="-77.5" font-family="Helvetica,sans-Serif" font-size="10.00">+</text>
<text text-anchor="start" x="190.5" y="-77.5" font-family="Helvetica,sans-Serif" font-size="10.00">~AbstractTetrahedralElement()</text>
<text text-anchor="start" x="177.5" y="-62.5" font-family="Helvetica,sans-Serif" font-size="10.00">+</text>
<text text-anchor="start" x="190.5" y="-62.5" font-family="Helvetica,sans-Serif" font-size="10.00">CalculateCentroid()</text>
<text text-anchor="start" x="177.5" y="-47.5" font-family="Helvetica,sans-Serif" font-size="10.00">+</text>
<text text-anchor="start" x="190.5" y="-47.5" font-family="Helvetica,sans-Serif" font-size="10.00">CalculateWeightedDirection()</text>
<text text-anchor="start" x="177.5" y="-32.5" font-family="Helvetica,sans-Serif" font-size="10.00">+</text>
<text text-anchor="start" x="190.5" y="-32.5" font-family="Helvetica,sans-Serif" font-size="10.00">CalculateNormal()</text>
<text text-anchor="start" x="177.5" y="-17.5" font-family="Helvetica,sans-Serif" font-size="10.00">+</text>
<text text-anchor="start" x="190.5" y="-17.5" font-family="Helvetica,sans-Serif" font-size="10.00">GetStiffnessMatrixGlobal</text>
<text text-anchor="start" x="190.5" y="-6.5" font-family="Helvetica,sans-Serif" font-size="10.00">Indices()</text>
<polygon fill="#666666" stroke="#666666" points="173.5,-132.5 173.5,-132.5 346.5,-132.5 346.5,-132.5 173.5,-132.5"/>
<polygon fill="#666666" stroke="#666666" points="173.5,-117.5 173.5,-117.5 346.5,-117.5 346.5,-117.5 173.5,-117.5"/>
<polygon fill="none" stroke="#666666" points="173,0 173,-161 346,-161 346,0 173,0"/>
</a>
</g>
</g>
<!-- Node2 -->
<g id="Node000002" class="node">
<title>Node2</title>
<g id="a_Node000002"><a xlink:href="classAbstractElement.html" target="_top" xlink:title=" ">
<polygon fill="white" stroke="transparent" points="341.5,-423 177.5,-423 177.5,-198 341.5,-198 341.5,-423"/>
<text text-anchor="start" x="208.5" y="-410.5" font-family="Helvetica,sans-Serif" font-size="10.00">AbstractElement&lt; 0,</text>
<text text-anchor="start" x="224.5" y="-399.5" font-family="Helvetica,sans-Serif" font-size="10.00"> SPACE_DIM &gt;</text>
<text text-anchor="start" x="257.5" y="-384.5" font-family="Helvetica,sans-Serif" font-size="10.00"> </text>
<text text-anchor="start" x="181.5" y="-369.5" font-family="Helvetica,sans-Serif" font-size="10.00">+</text>
<text text-anchor="start" x="194.5" y="-369.5" font-family="Helvetica,sans-Serif" font-size="10.00">AbstractElement()</text>
<text text-anchor="start" x="181.5" y="-354.5" font-family="Helvetica,sans-Serif" font-size="10.00">+</text>
<text text-anchor="start" x="194.5" y="-354.5" font-family="Helvetica,sans-Serif" font-size="10.00">AbstractElement()</text>
<text text-anchor="start" x="181.5" y="-339.5" font-family="Helvetica,sans-Serif" font-size="10.00">+</text>
<text text-anchor="start" x="194.5" y="-339.5" font-family="Helvetica,sans-Serif" font-size="10.00">~AbstractElement()</text>
<text text-anchor="start" x="181.5" y="-324.5" font-family="Helvetica,sans-Serif" font-size="10.00">+</text>
<text text-anchor="start" x="194.5" y="-324.5" font-family="Helvetica,sans-Serif" font-size="10.00">UpdateNode()</text>
<text text-anchor="start" x="181.5" y="-309.5" font-family="Helvetica,sans-Serif" font-size="10.00">+</text>
<text text-anchor="start" x="194.5" y="-309.5" font-family="Helvetica,sans-Serif" font-size="10.00">ReplaceNode()</text>
<text text-anchor="start" x="181.5" y="-294.5" font-family="Helvetica,sans-Serif" font-size="10.00">+</text>
<text text-anchor="start" x="194.5" y="-294.5" font-family="Helvetica,sans-Serif" font-size="10.00">MarkAsDeleted()</text>
<text text-anchor="start" x="181.5" y="-279.5" font-family="Helvetica,sans-Serif" font-size="10.00">+</text>
<text text-anchor="start" x="194.5" y="-279.5" font-family="Helvetica,sans-Serif" font-size="10.00">RegisterWithNodes()</text>
<text text-anchor="start" x="181.5" y="-264.5" font-family="Helvetica,sans-Serif" font-size="10.00">+</text>
<text text-anchor="start" x="194.5" y="-264.5" font-family="Helvetica,sans-Serif" font-size="10.00">GetNodeLocation()</text>
<text text-anchor="start" x="181.5" y="-249.5" font-family="Helvetica,sans-Serif" font-size="10.00">+</text>
<text text-anchor="start" x="194.5" y="-249.5" font-family="Helvetica,sans-Serif" font-size="10.00">GetNodeLocation()</text>
<text text-anchor="start" x="181.5" y="-234.5" font-family="Helvetica,sans-Serif" font-size="10.00">+</text>
<text text-anchor="start" x="194.5" y="-234.5" font-family="Helvetica,sans-Serif" font-size="10.00">GetNodeGlobalIndex()</text>
<text text-anchor="start" x="194.5" y="-219.5" font-family="Helvetica,sans-Serif" font-size="10.00">and 14 more...</text>
<text text-anchor="start" x="181.5" y="-204.5" font-family="Helvetica,sans-Serif" font-size="10.00">#</text>
<text text-anchor="start" x="194.5" y="-204.5" font-family="Helvetica,sans-Serif" font-size="10.00">ConstructElementAttributes()</text>
<polygon fill="#666666" stroke="#666666" points="177.5,-394.5 177.5,-394.5 341.5,-394.5 341.5,-394.5 177.5,-394.5"/>
<polygon fill="#666666" stroke="#666666" points="177.5,-379.5 177.5,-379.5 341.5,-379.5 341.5,-379.5 177.5,-379.5"/>
<polygon fill="none" stroke="#666666" points="177.5,-198 177.5,-423 341.5,-423 341.5,-198 177.5,-198"/>
</a>
</g>
</g>
<!-- Node2&#45;&gt;Node1 -->
<g id="edge1_Node000001_Node000002" class="edge">
<title>Node2&#45;&gt;Node1</title>
<g id="a_edge1_Node000001_Node000002"><a xlink:title=" ">
<path fill="none" stroke="#63b8ff" d="M259.5,-187.66C259.5,-178.66 259.5,-169.73 259.5,-161.08"/>
<polygon fill="none" stroke="#63b8ff" points="256,-187.84 259.5,-197.84 263,-187.84 256,-187.84"/>
</a>
</g>
</g>
<!-- Node3 -->
<g id="Node000003" class="node">
<title>Node3</title>
<g id="a_Node000003"><a xlink:title=" ">
<polygon fill="white" stroke="transparent" points="203.5,-818.5 83.5,-818.5 83.5,-758.5 203.5,-758.5 203.5,-818.5"/>
<text text-anchor="start" x="88.5" y="-806.5" font-family="Helvetica,sans-Serif" font-size="10.00">vector&lt; Node&lt; SPACE</text>
<text text-anchor="start" x="115.5" y="-795.5" font-family="Helvetica,sans-Serif" font-size="10.00">_DIM &gt; * &gt;</text>
<text text-anchor="start" x="141.5" y="-780.5" font-family="Helvetica,sans-Serif" font-size="10.00"> </text>
<text text-anchor="start" x="141.5" y="-765.5" font-family="Helvetica,sans-Serif" font-size="10.00"> </text>
<polygon fill="#bfbfbf" stroke="#bfbfbf" points="83.5,-790.5 83.5,-790.5 203.5,-790.5 203.5,-790.5 83.5,-790.5"/>
<polygon fill="#bfbfbf" stroke="#bfbfbf" points="83.5,-775.5 83.5,-775.5 203.5,-775.5 203.5,-775.5 83.5,-775.5"/>
<polygon fill="none" stroke="#bfbfbf" points="83.5,-758.5 83.5,-818.5 203.5,-818.5 203.5,-758.5 83.5,-758.5"/>
</a>
</g>
</g>
<!-- Node3&#45;&gt;Node2 -->
<g id="edge2_Node000002_Node000003" class="edge">
<title>Node3&#45;&gt;Node2</title>
<g id="a_edge2_Node000002_Node000003"><a xlink:title=" ">
<path fill="none" stroke="#63b8ff" d="M132.74,-758.28C113.35,-700.86 77.99,-570.17 116.5,-470 127.94,-440.25 147.83,-412.59 169.21,-388.99"/>
<polygon fill="none" stroke="#63b8ff" points="169.28,-388.92 170.44,-381.8 177.46,-380.14 176.29,-387.26 169.28,-388.92"/>
</a>
</g>
<text text-anchor="middle" x="142.5" y="-580" font-family="Helvetica,sans-Serif" font-size="10.00" fill="grey"> #mNodes</text>
</g>
<!-- Node7 -->
<g id="Node000007" class="node">
<title>Node7</title>
<g id="a_Node000007"><a xlink:href="classAbstractElement.html" target="_top" xlink:title=" ">
<polygon fill="white" stroke="transparent" points="341.5,-695 177.5,-695 177.5,-470 341.5,-470 341.5,-695"/>
<text text-anchor="start" x="190" y="-682.5" font-family="Helvetica,sans-Serif" font-size="10.00">AbstractElement&lt; ELEMENT</text>
<text text-anchor="start" x="210.5" y="-671.5" font-family="Helvetica,sans-Serif" font-size="10.00">_DIM, SPACE_DIM &gt;</text>
<text text-anchor="start" x="257.5" y="-656.5" font-family="Helvetica,sans-Serif" font-size="10.00"> </text>
<text text-anchor="start" x="181.5" y="-641.5" font-family="Helvetica,sans-Serif" font-size="10.00">+</text>
<text text-anchor="start" x="194.5" y="-641.5" font-family="Helvetica,sans-Serif" font-size="10.00">AbstractElement()</text>
<text text-anchor="start" x="181.5" y="-626.5" font-family="Helvetica,sans-Serif" font-size="10.00">+</text>
<text text-anchor="start" x="194.5" y="-626.5" font-family="Helvetica,sans-Serif" font-size="10.00">AbstractElement()</text>
<text text-anchor="start" x="181.5" y="-611.5" font-family="Helvetica,sans-Serif" font-size="10.00">+</text>
<text text-anchor="start" x="194.5" y="-611.5" font-family="Helvetica,sans-Serif" font-size="10.00">~AbstractElement()</text>
<text text-anchor="start" x="181.5" y="-596.5" font-family="Helvetica,sans-Serif" font-size="10.00">+</text>
<text text-anchor="start" x="194.5" y="-596.5" font-family="Helvetica,sans-Serif" font-size="10.00">UpdateNode()</text>
<text text-anchor="start" x="181.5" y="-581.5" font-family="Helvetica,sans-Serif" font-size="10.00">+</text>
<text text-anchor="start" x="194.5" y="-581.5" font-family="Helvetica,sans-Serif" font-size="10.00">ReplaceNode()</text>
<text text-anchor="start" x="181.5" y="-566.5" font-family="Helvetica,sans-Serif" font-size="10.00">+</text>
<text text-anchor="start" x="194.5" y="-566.5" font-family="Helvetica,sans-Serif" font-size="10.00">MarkAsDeleted()</text>
<text text-anchor="start" x="181.5" y="-551.5" font-family="Helvetica,sans-Serif" font-size="10.00">+</text>
<text text-anchor="start" x="194.5" y="-551.5" font-family="Helvetica,sans-Serif" font-size="10.00">RegisterWithNodes()</text>
<text text-anchor="start" x="181.5" y="-536.5" font-family="Helvetica,sans-Serif" font-size="10.00">+</text>
<text text-anchor="start" x="194.5" y="-536.5" font-family="Helvetica,sans-Serif" font-size="10.00">GetNodeLocation()</text>
<text text-anchor="start" x="181.5" y="-521.5" font-family="Helvetica,sans-Serif" font-size="10.00">+</text>
<text text-anchor="start" x="194.5" y="-521.5" font-family="Helvetica,sans-Serif" font-size="10.00">GetNodeLocation()</text>
<text text-anchor="start" x="181.5" y="-506.5" font-family="Helvetica,sans-Serif" font-size="10.00">+</text>
<text text-anchor="start" x="194.5" y="-506.5" font-family="Helvetica,sans-Serif" font-size="10.00">GetNodeGlobalIndex()</text>
<text text-anchor="start" x="194.5" y="-491.5" font-family="Helvetica,sans-Serif" font-size="10.00">and 14 more...</text>
<text text-anchor="start" x="181.5" y="-476.5" font-family="Helvetica,sans-Serif" font-size="10.00">#</text>
<text text-anchor="start" x="194.5" y="-476.5" font-family="Helvetica,sans-Serif" font-size="10.00">ConstructElementAttributes()</text>
<polygon fill="#666666" stroke="#666666" points="177.5,-666.5 177.5,-666.5 341.5,-666.5 341.5,-666.5 177.5,-666.5"/>
<polygon fill="#666666" stroke="#666666" points="177.5,-651.5 177.5,-651.5 341.5,-651.5 341.5,-651.5 177.5,-651.5"/>
<polygon fill="none" stroke="#666666" points="177.5,-470 177.5,-695 341.5,-695 341.5,-470 177.5,-470"/>
</a>
</g>
</g>
<!-- Node3&#45;&gt;Node7 -->
<g id="edge7_Node000007_Node000003" class="edge">
<title>Node3&#45;&gt;Node7</title>
<g id="a_edge7_Node000007_Node000003"><a xlink:title=" ">
<path fill="none" stroke="#63b8ff" d="M158.82,-758.35C166.17,-744.54 175.16,-727.85 183.5,-713 184.82,-710.65 186.16,-708.27 187.52,-705.88"/>
<polygon fill="none" stroke="#63b8ff" points="187.6,-705.74 187.09,-698.54 193.53,-695.3 194.04,-702.5 187.6,-705.74"/>
</a>
</g>
<text text-anchor="middle" x="209.5" y="-721.5" font-family="Helvetica,sans-Serif" font-size="10.00" fill="grey"> #mNodes</text>
</g>
<!-- Node4 -->
<g id="Node000004" class="node">
<title>Node4</title>
<g id="a_Node000004"><a xlink:href="classunsigned.html" target="_top" xlink:title=" ">
<polygon fill="white" stroke="transparent" points="55,-813 0,-813 0,-764 55,-764 55,-813"/>
<text text-anchor="start" x="5.5" y="-800.5" font-family="Helvetica,sans-Serif" font-size="10.00">unsigned</text>
<text text-anchor="start" x="26" y="-785.5" font-family="Helvetica,sans-Serif" font-size="10.00"> </text>
<text text-anchor="start" x="26" y="-770.5" font-family="Helvetica,sans-Serif" font-size="10.00"> </text>
<polygon fill="#bfbfbf" stroke="#bfbfbf" points="0.5,-795.5 0.5,-795.5 55.5,-795.5 55.5,-795.5 0.5,-795.5"/>
<polygon fill="#bfbfbf" stroke="#bfbfbf" points="0.5,-780.5 0.5,-780.5 55.5,-780.5 55.5,-780.5 0.5,-780.5"/>
<polygon fill="none" stroke="#bfbfbf" points="0,-764 0,-813 55,-813 55,-764 0,-764"/>
</a>
</g>
</g>
<!-- Node4&#45;&gt;Node2 -->
<g id="edge3_Node000002_Node000004" class="edge">
<title>Node4&#45;&gt;Node2</title>
<g id="a_edge3_Node000002_Node000004"><a xlink:title=" ">
<path fill="none" stroke="#63b8ff" d="M22.52,-763.77C12.21,-708.38 -6.4,-567.89 46.5,-470 73.08,-420.82 122.27,-382.66 166.7,-356.13"/>
<polygon fill="none" stroke="#63b8ff" points="166.91,-356.01 170.08,-349.53 177.28,-349.97 174.1,-356.44 166.91,-356.01"/>
</a>
</g>
<text text-anchor="middle" x="71" y="-580" font-family="Helvetica,sans-Serif" font-size="10.00" fill="grey"> #mIndex</text>
</g>
<!-- Node4&#45;&gt;Node7 -->
<g id="edge8_Node000007_Node000004" class="edge">
<title>Node4&#45;&gt;Node7</title>
<g id="a_edge8_Node000007_Node000004"><a xlink:title=" ">
<path fill="none" stroke="#63b8ff" d="M52.56,-763.82C70.27,-747.97 95.09,-727.45 119.5,-713 137.68,-702.24 146.35,-707.35 163.5,-695 164.96,-693.95 166.41,-692.87 167.85,-691.77"/>
<polygon fill="none" stroke="#63b8ff" points="167.9,-691.73 170.05,-684.85 177.23,-684.18 175.08,-691.07 167.9,-691.73"/>
</a>
</g>
<text text-anchor="middle" x="144" y="-721.5" font-family="Helvetica,sans-Serif" font-size="10.00" fill="grey"> #mIndex</text>
</g>
<!-- Node5 -->
<g id="Node000005" class="node">
<title>Node5</title>
<g id="a_Node000005"><a xlink:href="classbool.html" target="_top" xlink:title=" ">
<polygon fill="white" stroke="transparent" points="471.5,-813 439.5,-813 439.5,-764 471.5,-764 471.5,-813"/>
<text text-anchor="start" x="444.5" y="-800.5" font-family="Helvetica,sans-Serif" font-size="10.00">bool</text>
<text text-anchor="start" x="453.5" y="-785.5" font-family="Helvetica,sans-Serif" font-size="10.00"> </text>
<text text-anchor="start" x="453.5" y="-770.5" font-family="Helvetica,sans-Serif" font-size="10.00"> </text>
<polygon fill="#bfbfbf" stroke="#bfbfbf" points="439.5,-795.5 439.5,-795.5 471.5,-795.5 471.5,-795.5 439.5,-795.5"/>
<polygon fill="#bfbfbf" stroke="#bfbfbf" points="439.5,-780.5 439.5,-780.5 471.5,-780.5 471.5,-780.5 439.5,-780.5"/>
<polygon fill="none" stroke="#bfbfbf" points="439.5,-764 439.5,-813 471.5,-813 471.5,-764 439.5,-764"/>
</a>
</g>
</g>
<!-- Node5&#45;&gt;Node2 -->
<g id="edge4_Node000002_Node000005" class="edge">
<title>Node5&#45;&gt;Node2</title>
<g id="a_edge4_Node000002_Node000005"><a xlink:title=" ">
<path fill="none" stroke="#63b8ff" d="M469.71,-763.75C479.69,-745.62 492.17,-719.65 497.5,-695 518.65,-597.26 544.71,-558.16 497.5,-470 466.87,-412.8 405.48,-372.69 352.72,-347.13"/>
<polygon fill="none" stroke="#63b8ff" points="352.46,-347.01 345.33,-348.07 341.61,-341.9 348.74,-340.84 352.46,-347.01"/>
</a>
</g>
<text text-anchor="middle" x="558.5" y="-585.5" font-family="Helvetica,sans-Serif" font-size="10.00" fill="grey"> #mIsDeleted</text>
<text text-anchor="middle" x="558.5" y="-574.5" font-family="Helvetica,sans-Serif" font-size="10.00" fill="grey">#mOwnership</text>
</g>
<!-- Node5&#45;&gt;Node7 -->
<g id="edge9_Node000007_Node000005" class="edge">
<title>Node5&#45;&gt;Node7</title>
<g id="a_edge9_Node000007_Node000005"><a xlink:title=" ">
<path fill="none" stroke="#63b8ff" d="M439.3,-772.7C413,-748.65 363.18,-702.96 355.5,-695 353.63,-693.06 351.74,-691.09 349.86,-689.09"/>
<polygon fill="none" stroke="#63b8ff" points="349.75,-688.98 342.73,-687.33 341.56,-680.21 348.58,-681.87 349.75,-688.98"/>
</a>
</g>
<text text-anchor="middle" x="433.5" y="-727" font-family="Helvetica,sans-Serif" font-size="10.00" fill="grey"> #mIsDeleted</text>
<text text-anchor="middle" x="433.5" y="-716" font-family="Helvetica,sans-Serif" font-size="10.00" fill="grey">#mOwnership</text>
</g>
<!-- Node6 -->
<g id="Node000006" class="node">
<title>Node6</title>
<g id="a_Node000006"><a xlink:title=" ">
<polygon fill="white" stroke="transparent" points="409,-824 288,-824 288,-753 409,-753 409,-824"/>
<text text-anchor="start" x="293.5" y="-811.5" font-family="Helvetica,sans-Serif" font-size="10.00">ElementAttributes&lt;</text>
<text text-anchor="start" x="293.5" y="-800.5" font-family="Helvetica,sans-Serif" font-size="10.00"> ELEMENT_DIM, SPACE</text>
<text text-anchor="start" x="326.5" y="-789.5" font-family="Helvetica,sans-Serif" font-size="10.00">_DIM &gt; *</text>
<text text-anchor="start" x="347" y="-774.5" font-family="Helvetica,sans-Serif" font-size="10.00"> </text>
<text text-anchor="start" x="347" y="-759.5" font-family="Helvetica,sans-Serif" font-size="10.00"> </text>
<polygon fill="#bfbfbf" stroke="#bfbfbf" points="288.5,-784.5 288.5,-784.5 409.5,-784.5 409.5,-784.5 288.5,-784.5"/>
<polygon fill="#bfbfbf" stroke="#bfbfbf" points="288.5,-769.5 288.5,-769.5 409.5,-769.5 409.5,-769.5 288.5,-769.5"/>
<polygon fill="none" stroke="#bfbfbf" points="288,-753 288,-824 409,-824 409,-753 288,-753"/>
</a>
</g>
</g>
<!-- Node6&#45;&gt;Node2 -->
<g id="edge5_Node000002_Node000006" class="edge">
<title>Node6&#45;&gt;Node2</title>
<g id="a_edge5_Node000002_Node000006"><a xlink:title=" ">
<path fill="none" stroke="#63b8ff" d="M359.88,-752.77C361.38,-746.9 362.68,-740.82 363.5,-735 364.86,-725.32 363.61,-722.78 363.5,-713 362.17,-592.09 397.25,-555.2 357.5,-441 354.76,-433.13 351.35,-425.35 347.45,-417.74"/>
<polygon fill="none" stroke="#63b8ff" points="347.39,-417.64 341.01,-414.29 341.64,-407.11 348.03,-410.46 347.39,-417.64"/>
</a>
</g>
<text text-anchor="middle" x="435.5" y="-580" font-family="Helvetica,sans-Serif" font-size="10.00" fill="grey"> #mpElementAttributes</text>
</g>
<!-- Node6&#45;&gt;Node7 -->
<g id="edge10_Node000007_Node000006" class="edge">
<title>Node6&#45;&gt;Node7</title>
<g id="a_edge10_Node000007_Node000006"><a xlink:title=" ">
<path fill="none" stroke="#63b8ff" d="M287.82,-769.08C271.96,-761.2 256.73,-750.2 247.5,-735 242.29,-726.42 238.9,-717.05 236.89,-707.31"/>
<polygon fill="none" stroke="#63b8ff" points="236.86,-707.14 232.03,-701.79 235.1,-695.27 239.94,-700.61 236.86,-707.14"/>
</a>
</g>
<text text-anchor="middle" x="305.5" y="-721.5" font-family="Helvetica,sans-Serif" font-size="10.00" fill="grey"> #mpElementAttributes</text>
</g>
<!-- Node7&#45;&gt;Node2 -->
<g id="edge6_Node000002_Node000007" class="edge">
<title>Node7&#45;&gt;Node2</title>
<g id="a_edge6_Node000002_Node000007"><a xlink:title=" ">
<path fill="none" stroke="orange" d="M259.5,-459.59C259.5,-447.46 259.5,-435.2 259.5,-423.18"/>
<polygon fill="orange" stroke="orange" points="256,-459.73 259.5,-469.73 263,-459.73 256,-459.73"/>
</a>
</g>
<text text-anchor="middle" x="306.5" y="-444" font-family="Helvetica,sans-Serif" font-size="10.00" fill="grey"> &lt; 0, SPACE_DIM &gt;</text>
</g>
</g>
</svg>
