<?xml version="1.0" encoding="UTF-8" standalone="no"?>
<!DOCTYPE svg PUBLIC "-//W3C//DTD SVG 1.1//EN"
 "http://www.w3.org/Graphics/SVG/1.1/DTD/svg11.dtd">
<!-- Generated by graphviz version 2.43.0 (0)
 -->
<!-- Title: AbstractTetrahedralMesh&lt; ELEMENT_DIM, SPACE_DIM &gt;::ElementIterator Pages: 1 -->
<svg width="1166pt" height="1301pt"
 viewBox="0.00 0.00 1166.00 1301.00" xmlns="http://www.w3.org/2000/svg" xmlns:xlink="http://www.w3.org/1999/xlink">
<g id="graph0" class="graph" transform="scale(1 1) rotate(0) translate(4 1297)">
<title>AbstractTetrahedralMesh&lt; ELEMENT_DIM, SPACE_DIM &gt;::ElementIterator</title>
<!-- Node1 -->
<g id="Node000001" class="node">
<title>Node1</title>
<g id="a_Node000001"><a xlink:title=" ">
<polygon fill="#999999" stroke="transparent" points="330,-161 176,-161 176,0 330,0 330,-161"/>
<text text-anchor="start" x="181" y="-148.5" font-family="Helvetica,sans-Serif" font-size="10.00">AbstractTetrahedralMesh</text>
<text text-anchor="start" x="181" y="-137.5" font-family="Helvetica,sans-Serif" font-size="10.00">&lt; ELEMENT_DIM, SPACE_DIM</text>
<text text-anchor="start" x="206" y="-126.5" font-family="Helvetica,sans-Serif" font-size="10.00"> &gt;::ElementIterator</text>
<text text-anchor="start" x="251" y="-111.5" font-family="Helvetica,sans-Serif" font-size="10.00"> </text>
<text text-anchor="start" x="189" y="-96.5" font-family="Helvetica,sans-Serif" font-size="10.00">+</text>
<text text-anchor="start" x="211" y="-96.5" font-family="Helvetica,sans-Serif" font-size="10.00">operator*()</text>
<text text-anchor="start" x="189" y="-81.5" font-family="Helvetica,sans-Serif" font-size="10.00">+</text>
<text text-anchor="start" x="211" y="-81.5" font-family="Helvetica,sans-Serif" font-size="10.00">operator&#45;&gt;()</text>
<text text-anchor="start" x="189" y="-66.5" font-family="Helvetica,sans-Serif" font-size="10.00">+</text>
<text text-anchor="start" x="211" y="-66.5" font-family="Helvetica,sans-Serif" font-size="10.00">operator!=()</text>
<text text-anchor="start" x="189" y="-51.5" font-family="Helvetica,sans-Serif" font-size="10.00">+</text>
<text text-anchor="start" x="211" y="-51.5" font-family="Helvetica,sans-Serif" font-size="10.00">operator++()</text>
<text text-anchor="start" x="189" y="-36.5" font-family="Helvetica,sans-Serif" font-size="10.00">+</text>
<text text-anchor="start" x="211" y="-36.5" font-family="Helvetica,sans-Serif" font-size="10.00">ElementIterator()</text>
<text text-anchor="start" x="191.5" y="-21.5" font-family="Helvetica,sans-Serif" font-size="10.00">&#45;</text>
<text text-anchor="start" x="211" y="-21.5" font-family="Helvetica,sans-Serif" font-size="10.00">IsAtEnd()</text>
<text text-anchor="start" x="191.5" y="-6.5" font-family="Helvetica,sans-Serif" font-size="10.00">&#45;</text>
<text text-anchor="start" x="211" y="-6.5" font-family="Helvetica,sans-Serif" font-size="10.00">IsAllowedElement()</text>
<polygon fill="#666666" stroke="#666666" points="176,-121.5 176,-121.5 330,-121.5 330,-121.5 176,-121.5"/>
<polygon fill="#666666" stroke="#666666" points="176,-106.5 176,-106.5 330,-106.5 330,-106.5 176,-106.5"/>
<polygon fill="none" stroke="#666666" points="176,0 176,-161 330,-161 330,0 176,0"/>
</a>
</g>
</g>
<!-- Node2 -->
<g id="Node000002" class="node">
<title>Node2</title>
<g id="a_Node000002"><a xlink:href="classAbstractTetrahedralMesh.html" target="_top" xlink:title=" ">
<polygon fill="white" stroke="transparent" points="346.5,-493 159.5,-493 159.5,-208 346.5,-208 346.5,-493"/>
<text text-anchor="start" x="176" y="-480.5" font-family="Helvetica,sans-Serif" font-size="10.00">AbstractTetrahedralMesh</text>
<text text-anchor="start" x="176" y="-469.5" font-family="Helvetica,sans-Serif" font-size="10.00">&lt; ELEMENT_DIM, SPACE_DIM &gt;</text>
<text text-anchor="start" x="251.5" y="-454.5" font-family="Helvetica,sans-Serif" font-size="10.00"> </text>
<text text-anchor="start" x="164" y="-439.5" font-family="Helvetica,sans-Serif" font-size="10.00">+</text>
<text text-anchor="start" x="177" y="-439.5" font-family="Helvetica,sans-Serif" font-size="10.00">GetElementIteratorBegin()</text>
<text text-anchor="start" x="164" y="-424.5" font-family="Helvetica,sans-Serif" font-size="10.00">+</text>
<text text-anchor="start" x="177" y="-424.5" font-family="Helvetica,sans-Serif" font-size="10.00">GetElementIteratorEnd()</text>
<text text-anchor="start" x="164" y="-409.5" font-family="Helvetica,sans-Serif" font-size="10.00">+</text>
<text text-anchor="start" x="177" y="-409.5" font-family="Helvetica,sans-Serif" font-size="10.00">AbstractTetrahedralMesh()</text>
<text text-anchor="start" x="164" y="-394.5" font-family="Helvetica,sans-Serif" font-size="10.00">+</text>
<text text-anchor="start" x="177" y="-394.5" font-family="Helvetica,sans-Serif" font-size="10.00">~AbstractTetrahedralMesh()</text>
<text text-anchor="start" x="164" y="-379.5" font-family="Helvetica,sans-Serif" font-size="10.00">+</text>
<text text-anchor="start" x="177" y="-379.5" font-family="Helvetica,sans-Serif" font-size="10.00">GetNumElements()</text>
<text text-anchor="start" x="164" y="-364.5" font-family="Helvetica,sans-Serif" font-size="10.00">+</text>
<text text-anchor="start" x="177" y="-364.5" font-family="Helvetica,sans-Serif" font-size="10.00">GetNumLocalElements()</text>
<text text-anchor="start" x="164" y="-349.5" font-family="Helvetica,sans-Serif" font-size="10.00">+</text>
<text text-anchor="start" x="177" y="-349.5" font-family="Helvetica,sans-Serif" font-size="10.00">GetNumBoundaryElements()</text>
<text text-anchor="start" x="164" y="-334.5" font-family="Helvetica,sans-Serif" font-size="10.00">+</text>
<text text-anchor="start" x="177" y="-334.5" font-family="Helvetica,sans-Serif" font-size="10.00">GetNumLocalBoundaryElements()</text>
<text text-anchor="start" x="164" y="-319.5" font-family="Helvetica,sans-Serif" font-size="10.00">+</text>
<text text-anchor="start" x="177" y="-319.5" font-family="Helvetica,sans-Serif" font-size="10.00">GetNumAllElements()</text>
<text text-anchor="start" x="164" y="-304.5" font-family="Helvetica,sans-Serif" font-size="10.00">+</text>
<text text-anchor="start" x="177" y="-304.5" font-family="Helvetica,sans-Serif" font-size="10.00">GetNumAllBoundaryElements()</text>
<text text-anchor="start" x="177" y="-289.5" font-family="Helvetica,sans-Serif" font-size="10.00">and 25 more...</text>
<text text-anchor="start" x="164" y="-274.5" font-family="Helvetica,sans-Serif" font-size="10.00">#</text>
<text text-anchor="start" x="177" y="-274.5" font-family="Helvetica,sans-Serif" font-size="10.00">SetElementOwnerships()</text>
<text text-anchor="start" x="166.5" y="-259.5" font-family="Helvetica,sans-Serif" font-size="10.00">&#45;</text>
<text text-anchor="start" x="177" y="-259.5" font-family="Helvetica,sans-Serif" font-size="10.00">SolveElementMapping()</text>
<text text-anchor="start" x="166.5" y="-244.5" font-family="Helvetica,sans-Serif" font-size="10.00">&#45;</text>
<text text-anchor="start" x="177" y="-244.5" font-family="Helvetica,sans-Serif" font-size="10.00">SolveBoundaryElementMapping()</text>
<text text-anchor="start" x="166.5" y="-229.5" font-family="Helvetica,sans-Serif" font-size="10.00">&#45;</text>
<text text-anchor="start" x="177" y="-229.5" font-family="Helvetica,sans-Serif" font-size="10.00">save()</text>
<text text-anchor="start" x="166.5" y="-214.5" font-family="Helvetica,sans-Serif" font-size="10.00">&#45;</text>
<text text-anchor="start" x="177" y="-214.5" font-family="Helvetica,sans-Serif" font-size="10.00">load()</text>
<polygon fill="#666666" stroke="#666666" points="160,-464.5 160,-464.5 347,-464.5 347,-464.5 160,-464.5"/>
<polygon fill="#666666" stroke="#666666" points="160,-449.5 160,-449.5 347,-449.5 347,-449.5 160,-449.5"/>
<polygon fill="none" stroke="#666666" points="159.5,-208 159.5,-493 346.5,-493 346.5,-208 159.5,-208"/>
</a>
</g>
</g>
<!-- Node2&#45;&gt;Node1 -->
<g id="edge1_Node000001_Node000002" class="edge">
<title>Node2&#45;&gt;Node1</title>
<g id="a_edge1_Node000001_Node000002"><a xlink:title=" ">
<path fill="none" stroke="#63b8ff" d="M253,-207.65C253,-196.07 253,-184.56 253,-173.48"/>
<polygon fill="none" stroke="#63b8ff" points="253,-173.17 249,-167.17 253,-161.17 257,-167.17 253,-173.17"/>
</a>
</g>
<text text-anchor="middle" x="276.5" y="-182" font-family="Helvetica,sans-Serif" font-size="10.00" fill="grey"> &#45;mrMesh</text>
</g>
<!-- Node3 -->
<g id="Node000003" class="node">
<title>Node3</title>
<g id="a_Node000003"><a xlink:href="classAbstractMesh.html" target="_top" xlink:title=" ">
<polygon fill="white" stroke="transparent" points="806.5,-810 659.5,-810 659.5,-540 806.5,-540 806.5,-810"/>
<text text-anchor="start" x="671.5" y="-798" font-family="Helvetica,sans-Serif" font-size="10.00">AbstractMesh&lt; ELEMENT</text>
<text text-anchor="start" x="684.5" y="-787" font-family="Helvetica,sans-Serif" font-size="10.00">_DIM, SPACE_DIM &gt;</text>
<text text-anchor="start" x="731.5" y="-772" font-family="Helvetica,sans-Serif" font-size="10.00"> </text>
<text text-anchor="start" x="664" y="-757" font-family="Helvetica,sans-Serif" font-size="10.00">+</text>
<text text-anchor="start" x="677" y="-757" font-family="Helvetica,sans-Serif" font-size="10.00">GetNodeIteratorBegin()</text>
<text text-anchor="start" x="664" y="-742" font-family="Helvetica,sans-Serif" font-size="10.00">+</text>
<text text-anchor="start" x="677" y="-742" font-family="Helvetica,sans-Serif" font-size="10.00">GetNodeIteratorEnd()</text>
<text text-anchor="start" x="664" y="-727" font-family="Helvetica,sans-Serif" font-size="10.00">+</text>
<text text-anchor="start" x="677" y="-727" font-family="Helvetica,sans-Serif" font-size="10.00">AbstractMesh()</text>
<text text-anchor="start" x="664" y="-712" font-family="Helvetica,sans-Serif" font-size="10.00">+</text>
<text text-anchor="start" x="677" y="-712" font-family="Helvetica,sans-Serif" font-size="10.00">~AbstractMesh()</text>
<text text-anchor="start" x="664" y="-697" font-family="Helvetica,sans-Serif" font-size="10.00">+</text>
<text text-anchor="start" x="677" y="-697" font-family="Helvetica,sans-Serif" font-size="10.00">GetNumNodes()</text>
<text text-anchor="start" x="664" y="-682" font-family="Helvetica,sans-Serif" font-size="10.00">+</text>
<text text-anchor="start" x="677" y="-682" font-family="Helvetica,sans-Serif" font-size="10.00">GetNumBoundaryNodes()</text>
<text text-anchor="start" x="664" y="-667" font-family="Helvetica,sans-Serif" font-size="10.00">+</text>
<text text-anchor="start" x="677" y="-667" font-family="Helvetica,sans-Serif" font-size="10.00">GetNumAllNodes()</text>
<text text-anchor="start" x="664" y="-652" font-family="Helvetica,sans-Serif" font-size="10.00">+</text>
<text text-anchor="start" x="677" y="-652" font-family="Helvetica,sans-Serif" font-size="10.00">GetNumNodeAttributes()</text>
<text text-anchor="start" x="664" y="-637" font-family="Helvetica,sans-Serif" font-size="10.00">+</text>
<text text-anchor="start" x="677" y="-637" font-family="Helvetica,sans-Serif" font-size="10.00">GetNode()</text>
<text text-anchor="start" x="664" y="-622" font-family="Helvetica,sans-Serif" font-size="10.00">+</text>
<text text-anchor="start" x="677" y="-622" font-family="Helvetica,sans-Serif" font-size="10.00">GetNodeOrHaloNode()</text>
<text text-anchor="start" x="677" y="-607" font-family="Helvetica,sans-Serif" font-size="10.00">and 28 more...</text>
<text text-anchor="start" x="664" y="-592" font-family="Helvetica,sans-Serif" font-size="10.00">#</text>
<text text-anchor="start" x="677" y="-592" font-family="Helvetica,sans-Serif" font-size="10.00">SetElementOwnerships()</text>
<text text-anchor="start" x="664" y="-577" font-family="Helvetica,sans-Serif" font-size="10.00">#</text>
<text text-anchor="start" x="677" y="-577" font-family="Helvetica,sans-Serif" font-size="10.00">CalculateBoundingBox()</text>
<text text-anchor="start" x="666.5" y="-562" font-family="Helvetica,sans-Serif" font-size="10.00">&#45;</text>
<text text-anchor="start" x="677" y="-562" font-family="Helvetica,sans-Serif" font-size="10.00">SolveNodeMapping()</text>
<text text-anchor="start" x="666.5" y="-547" font-family="Helvetica,sans-Serif" font-size="10.00">&#45;</text>
<text text-anchor="start" x="677" y="-547" font-family="Helvetica,sans-Serif" font-size="10.00">serialize()</text>
<polygon fill="#666666" stroke="#666666" points="660,-782 660,-782 807,-782 807,-782 660,-782"/>
<polygon fill="#666666" stroke="#666666" points="660,-767 660,-767 807,-767 807,-767 660,-767"/>
<polygon fill="none" stroke="#666666" points="659.5,-540 659.5,-810 806.5,-810 806.5,-540 659.5,-540"/>
</a>
</g>
</g>
<!-- Node3&#45;&gt;Node2 -->
<g id="edge2_Node000002_Node000003" class="edge">
<title>Node3&#45;&gt;Node2</title>
<g id="a_edge2_Node000002_Node000003"><a xlink:title=" ">
<path fill="none" stroke="#63b8ff" d="M650.74,-616.21C596.6,-580.78 522.89,-537.32 452,-511 411.3,-495.89 392.7,-516.19 356,-493 352.79,-490.97 349.65,-488.8 346.57,-486.51"/>
<polygon fill="none" stroke="#63b8ff" points="648.98,-619.24 659.25,-621.82 652.83,-613.4 648.98,-619.24"/>
</a>
</g>
</g>
<!-- Node4 -->
<g id="Node000004" class="node">
<title>Node4</title>
<g id="a_Node000004"><a xlink:title=" ">
<polygon fill="white" stroke="transparent" points="1020,-1040.5 914,-1040.5 914,-991.5 1020,-991.5 1020,-1040.5"/>
<text text-anchor="start" x="919" y="-1028" font-family="Helvetica,sans-Serif" font-size="10.00">boost::noncopyable</text>
<text text-anchor="start" x="965" y="-1013" font-family="Helvetica,sans-Serif" font-size="10.00"> </text>
<text text-anchor="start" x="965" y="-998" font-family="Helvetica,sans-Serif" font-size="10.00"> </text>
<polygon fill="#bfbfbf" stroke="#bfbfbf" points="914,-1023 914,-1023 1020,-1023 1020,-1023 914,-1023"/>
<polygon fill="#bfbfbf" stroke="#bfbfbf" points="914,-1008 914,-1008 1020,-1008 1020,-1008 914,-1008"/>
<polygon fill="none" stroke="#bfbfbf" points="914,-991.5 914,-1040.5 1020,-1040.5 1020,-991.5 914,-991.5"/>
</a>
</g>
</g>
<!-- Node4&#45;&gt;Node3 -->
<g id="edge3_Node000003_Node000004" class="edge">
<title>Node4&#45;&gt;Node3</title>
<g id="a_edge3_Node000003_Node000004"><a xlink:title=" ">
<path fill="none" stroke="#8b1a1a" d="M972.74,-981.36C977.7,-941.87 980.35,-875.71 953,-828 920.45,-771.21 857.02,-730.87 806.59,-706.08"/>
<polygon fill="none" stroke="#8b1a1a" points="969.27,-980.89 971.37,-991.28 976.2,-981.85 969.27,-980.89"/>
</a>
</g>
</g>
<!-- Node5 -->
<g id="Node000005" class="node">
<title>Node5</title>
<g id="a_Node000005"><a xlink:title=" ">
<polygon fill="white" stroke="transparent" points="1158,-1046 1038,-1046 1038,-986 1158,-986 1158,-1046"/>
<text text-anchor="start" x="1043" y="-1034" font-family="Helvetica,sans-Serif" font-size="10.00">vector&lt; Node&lt; SPACE</text>
<text text-anchor="start" x="1070" y="-1023" font-family="Helvetica,sans-Serif" font-size="10.00">_DIM &gt; * &gt;</text>
<text text-anchor="start" x="1096" y="-1008" font-family="Helvetica,sans-Serif" font-size="10.00"> </text>
<text text-anchor="start" x="1096" y="-993" font-family="Helvetica,sans-Serif" font-size="10.00"> </text>
<polygon fill="#bfbfbf" stroke="#bfbfbf" points="1038,-1018 1038,-1018 1158,-1018 1158,-1018 1038,-1018"/>
<polygon fill="#bfbfbf" stroke="#bfbfbf" points="1038,-1003 1038,-1003 1158,-1003 1158,-1003 1038,-1003"/>
<polygon fill="none" stroke="#bfbfbf" points="1038,-986 1038,-1046 1158,-1046 1158,-986 1038,-986"/>
</a>
</g>
</g>
<!-- Node5&#45;&gt;Node3 -->
<g id="edge4_Node000003_Node000005" class="edge">
<title>Node5&#45;&gt;Node3</title>
<g id="a_edge4_Node000003_Node000005"><a xlink:title=" ">
<path fill="none" stroke="#63b8ff" d="M1089.44,-985.93C1079.04,-954.3 1059.07,-903.49 1029,-868 971.07,-799.64 882.69,-746.71 817.58,-713.9"/>
<polygon fill="none" stroke="#63b8ff" points="817.27,-713.74 810.12,-714.66 806.52,-708.41 813.68,-707.49 817.27,-713.74"/>
</a>
</g>
<text text-anchor="middle" x="1058.5" y="-842" font-family="Helvetica,sans-Serif" font-size="10.00" fill="grey"> #mBoundaryNodes</text>
<text text-anchor="middle" x="1058.5" y="-831" font-family="Helvetica,sans-Serif" font-size="10.00" fill="grey">#mNodes</text>
</g>
<!-- Node6 -->
<g id="Node000006" class="node">
<title>Node6</title>
<g id="a_Node000006"><a xlink:href="classDistributedVectorFactory.html" target="_top" xlink:title=" ">
<polygon fill="white" stroke="transparent" points="582,-1164 416,-1164 416,-868 582,-868 582,-1164"/>
<text text-anchor="start" x="438.5" y="-1152" font-family="Helvetica,sans-Serif" font-size="10.00">DistributedVectorFactory</text>
<text text-anchor="start" x="497" y="-1137" font-family="Helvetica,sans-Serif" font-size="10.00"> </text>
<text text-anchor="start" x="420" y="-1122" font-family="Helvetica,sans-Serif" font-size="10.00">+</text>
<text text-anchor="start" x="433" y="-1122" font-family="Helvetica,sans-Serif" font-size="10.00">DistributedVectorFactory()</text>
<text text-anchor="start" x="420" y="-1107" font-family="Helvetica,sans-Serif" font-size="10.00">+</text>
<text text-anchor="start" x="433" y="-1107" font-family="Helvetica,sans-Serif" font-size="10.00">DistributedVectorFactory()</text>
<text text-anchor="start" x="420" y="-1092" font-family="Helvetica,sans-Serif" font-size="10.00">+</text>
<text text-anchor="start" x="433" y="-1092" font-family="Helvetica,sans-Serif" font-size="10.00">DistributedVectorFactory()</text>
<text text-anchor="start" x="420" y="-1077" font-family="Helvetica,sans-Serif" font-size="10.00">+</text>
<text text-anchor="start" x="433" y="-1077" font-family="Helvetica,sans-Serif" font-size="10.00">DistributedVectorFactory()</text>
<text text-anchor="start" x="420" y="-1062" font-family="Helvetica,sans-Serif" font-size="10.00">+</text>
<text text-anchor="start" x="433" y="-1062" font-family="Helvetica,sans-Serif" font-size="10.00">~DistributedVectorFactory()</text>
<text text-anchor="start" x="420" y="-1047" font-family="Helvetica,sans-Serif" font-size="10.00">+</text>
<text text-anchor="start" x="433" y="-1047" font-family="Helvetica,sans-Serif" font-size="10.00">CreateVec()</text>
<text text-anchor="start" x="420" y="-1032" font-family="Helvetica,sans-Serif" font-size="10.00">+</text>
<text text-anchor="start" x="433" y="-1032" font-family="Helvetica,sans-Serif" font-size="10.00">CreateVec()</text>
<text text-anchor="start" x="420" y="-1017" font-family="Helvetica,sans-Serif" font-size="10.00">+</text>
<text text-anchor="start" x="433" y="-1017" font-family="Helvetica,sans-Serif" font-size="10.00">CreateDistributedVector()</text>
<text text-anchor="start" x="420" y="-1002" font-family="Helvetica,sans-Serif" font-size="10.00">+</text>
<text text-anchor="start" x="433" y="-1002" font-family="Helvetica,sans-Serif" font-size="10.00">IsGlobalIndexLocal()</text>
<text text-anchor="start" x="420" y="-987" font-family="Helvetica,sans-Serif" font-size="10.00">+</text>
<text text-anchor="start" x="433" y="-987" font-family="Helvetica,sans-Serif" font-size="10.00">GetLocalOwnership()</text>
<text text-anchor="start" x="433" y="-972" font-family="Helvetica,sans-Serif" font-size="10.00">and 8 more...</text>
<text text-anchor="start" x="420" y="-957" font-family="Helvetica,sans-Serif" font-size="10.00">+</text>
<text text-anchor="start" x="433" y="-957" font-family="Helvetica,sans-Serif" font-size="10.00">SetCheckNumberOfProcesses</text>
<text text-anchor="start" x="433" y="-946" font-family="Helvetica,sans-Serif" font-size="10.00">OnLoad()</text>
<text text-anchor="start" x="420" y="-931" font-family="Helvetica,sans-Serif" font-size="10.00">+</text>
<text text-anchor="start" x="433" y="-931" font-family="Helvetica,sans-Serif" font-size="10.00">CheckNumberOfProcessesOn</text>
<text text-anchor="start" x="433" y="-920" font-family="Helvetica,sans-Serif" font-size="10.00">Load()</text>
<text text-anchor="start" x="422.5" y="-905" font-family="Helvetica,sans-Serif" font-size="10.00">&#45;</text>
<text text-anchor="start" x="433" y="-905" font-family="Helvetica,sans-Serif" font-size="10.00">CheckForPetsc()</text>
<text text-anchor="start" x="422.5" y="-890" font-family="Helvetica,sans-Serif" font-size="10.00">&#45;</text>
<text text-anchor="start" x="433" y="-890" font-family="Helvetica,sans-Serif" font-size="10.00">CalculateOwnership()</text>
<text text-anchor="start" x="422.5" y="-875" font-family="Helvetica,sans-Serif" font-size="10.00">&#45;</text>
<text text-anchor="start" x="433" y="-875" font-family="Helvetica,sans-Serif" font-size="10.00">serialize()</text>
<polygon fill="#666666" stroke="#666666" points="416,-1147 416,-1147 582,-1147 582,-1147 416,-1147"/>
<polygon fill="#666666" stroke="#666666" points="416,-1132 416,-1132 582,-1132 582,-1132 416,-1132"/>
<polygon fill="none" stroke="#666666" points="416,-868 416,-1164 582,-1164 582,-868 416,-868"/>
</a>
</g>
</g>
<!-- Node6&#45;&gt;Node3 -->
<g id="edge5_Node000003_Node000006" class="edge">
<title>Node6&#45;&gt;Node3</title>
<g id="a_edge5_Node000003_Node000006"><a xlink:title=" ">
<path fill="none" stroke="#63b8ff" d="M548.24,-867.83C555.07,-853.93 562.65,-840.41 571,-828 592.66,-795.81 622.32,-765.44 650.35,-740.44"/>
<polygon fill="none" stroke="#63b8ff" points="650.36,-740.43 652.23,-733.47 659.37,-732.52 657.5,-739.48 650.36,-740.43"/>
</a>
</g>
<text text-anchor="middle" x="645" y="-836.5" font-family="Helvetica,sans-Serif" font-size="10.00" fill="grey"> #mpDistributedVectorFactory</text>
</g>
<!-- Node6&#45;&gt;Node6 -->
<g id="edge9_Node000006_Node000006" class="edge">
<title>Node6&#45;&gt;Node6</title>
<g id="a_edge9_Node000006_Node000006"><a xlink:title=" ">
<path fill="none" stroke="#63b8ff" d="M582.21,-1044.92C592.92,-1039.91 600,-1030.27 600,-1016 600,-1006.86 597.1,-999.62 592.19,-994.28"/>
<polygon fill="none" stroke="#63b8ff" points="591.94,-994.1 584.74,-993.83 582.21,-987.08 589.41,-987.34 591.94,-994.1"/>
</a>
</g>
<text text-anchor="middle" x="648.5" y="-1013.5" font-family="Helvetica,sans-Serif" font-size="10.00" fill="grey"> &#45;mpOriginalFactory</text>
</g>
<!-- Node7 -->
<g id="Node000007" class="node">
<title>Node7</title>
<g id="a_Node000007"><a xlink:href="classunsigned.html" target="_top" xlink:title=" ">
<polygon fill="white" stroke="transparent" points="526.5,-1293 471.5,-1293 471.5,-1244 526.5,-1244 526.5,-1293"/>
<text text-anchor="start" x="477" y="-1280.5" font-family="Helvetica,sans-Serif" font-size="10.00">unsigned</text>
<text text-anchor="start" x="497.5" y="-1265.5" font-family="Helvetica,sans-Serif" font-size="10.00"> </text>
<text text-anchor="start" x="497.5" y="-1250.5" font-family="Helvetica,sans-Serif" font-size="10.00"> </text>
<polygon fill="#bfbfbf" stroke="#bfbfbf" points="472,-1275.5 472,-1275.5 527,-1275.5 527,-1275.5 472,-1275.5"/>
<polygon fill="#bfbfbf" stroke="#bfbfbf" points="472,-1260.5 472,-1260.5 527,-1260.5 527,-1260.5 472,-1260.5"/>
<polygon fill="none" stroke="#bfbfbf" points="471.5,-1244 471.5,-1293 526.5,-1293 526.5,-1244 471.5,-1244"/>
</a>
</g>
</g>
<!-- Node7&#45;&gt;Node6 -->
<g id="edge6_Node000006_Node000007" class="edge">
<title>Node7&#45;&gt;Node6</title>
<g id="a_edge6_Node000006_Node000007"><a xlink:title=" ">
<path fill="none" stroke="#63b8ff" d="M499,-1243.93C499,-1227.14 499,-1202.93 499,-1176.52"/>
<polygon fill="none" stroke="#63b8ff" points="499,-1176.25 495,-1170.25 499,-1164.25 503,-1170.25 499,-1176.25"/>
</a>
</g>
<text text-anchor="middle" x="536.5" y="-1218" font-family="Helvetica,sans-Serif" font-size="10.00" fill="grey"> &#45;mHi</text>
<text text-anchor="middle" x="536.5" y="-1207" font-family="Helvetica,sans-Serif" font-size="10.00" fill="grey">&#45;mLo</text>
<text text-anchor="middle" x="536.5" y="-1196" font-family="Helvetica,sans-Serif" font-size="10.00" fill="grey">&#45;mNumProcs</text>
<text text-anchor="middle" x="536.5" y="-1185" font-family="Helvetica,sans-Serif" font-size="10.00" fill="grey">&#45;mProblemSize</text>
</g>
<!-- Node8 -->
<g id="Node000008" class="node">
<title>Node8</title>
<g id="a_Node000008"><a xlink:href="classbool.html" target="_top" xlink:title=" ">
<polygon fill="white" stroke="transparent" points="216,-1293 184,-1293 184,-1244 216,-1244 216,-1293"/>
<text text-anchor="start" x="189" y="-1280.5" font-family="Helvetica,sans-Serif" font-size="10.00">bool</text>
<text text-anchor="start" x="198" y="-1265.5" font-family="Helvetica,sans-Serif" font-size="10.00"> </text>
<text text-anchor="start" x="198" y="-1250.5" font-family="Helvetica,sans-Serif" font-size="10.00"> </text>
<polygon fill="#bfbfbf" stroke="#bfbfbf" points="184,-1275.5 184,-1275.5 216,-1275.5 216,-1275.5 184,-1275.5"/>
<polygon fill="#bfbfbf" stroke="#bfbfbf" points="184,-1260.5 184,-1260.5 216,-1260.5 216,-1260.5 184,-1260.5"/>
<polygon fill="none" stroke="#bfbfbf" points="184,-1244 184,-1293 216,-1293 216,-1244 184,-1244"/>
</a>
</g>
</g>
<!-- Node8&#45;&gt;Node1 -->
<g id="edge17_Node000001_Node000008" class="edge">
<title>Node8&#45;&gt;Node1</title>
<g id="a_edge17_Node000001_Node000008"><a xlink:title=" ">
<path fill="none" stroke="#63b8ff" d="M183.97,-1258.09C136.51,-1228.9 0,-1134.7 0,-1017 0,-1017 0,-1017 0,-349.5 0,-250.7 92.04,-173.59 165.09,-127.94"/>
<polygon fill="none" stroke="#63b8ff" points="165.48,-127.7 168.51,-121.16 175.72,-121.44 172.69,-127.98 165.48,-127.7"/>
</a>
</g>
<text text-anchor="middle" x="61" y="-672.5" font-family="Helvetica,sans-Serif" font-size="10.00" fill="grey"> &#45;mSkipDeletedElements</text>
</g>
<!-- Node8&#45;&gt;Node2 -->
<g id="edge13_Node000002_Node000008" class="edge">
<title>Node8&#45;&gt;Node2</title>
<g id="a_edge13_Node000002_Node000008"><a xlink:title=" ">
<path fill="none" stroke="#63b8ff" d="M184.91,-1243.58C181.9,-1237.98 179.05,-1231.92 177,-1226 167.88,-1199.62 169.5,-1191.8 167,-1164 142.21,-887.78 107.53,-810.44 169,-540 171.68,-528.22 175.11,-516.27 179.05,-504.4"/>
<polygon fill="none" stroke="#63b8ff" points="179.05,-504.4 177.23,-497.42 182.97,-493.06 184.79,-500.04 179.05,-504.4"/>
</a>
</g>
<text text-anchor="middle" x="179" y="-836.5" font-family="Helvetica,sans-Serif" font-size="10.00" fill="grey"> #mMeshIsLinear</text>
</g>
<!-- Node8&#45;&gt;Node3 -->
<g id="edge12_Node000003_Node000008" class="edge">
<title>Node8&#45;&gt;Node3</title>
<g id="a_edge12_Node000003_Node000008"><a xlink:title=" ">
<path fill="none" stroke="#63b8ff" d="M193.3,-1243.62C175.78,-1175.47 136.23,-977.89 232,-868 310.64,-777.76 383.18,-852.72 495,-810 548.62,-789.52 604.74,-758.44 649.01,-731.38"/>
<polygon fill="none" stroke="#63b8ff" points="649.21,-731.25 652.22,-724.7 659.43,-724.95 656.42,-731.51 649.21,-731.25"/>
</a>
</g>
<text text-anchor="middle" x="319.5" y="-1013.5" font-family="Helvetica,sans-Serif" font-size="10.00" fill="grey"> #mMeshChangesDuringSimulation</text>
</g>
<!-- Node8&#45;&gt;Node6 -->
<g id="edge7_Node000006_Node000008" class="edge">
<title>Node8&#45;&gt;Node6</title>
<g id="a_edge7_Node000006_Node000008"><a xlink:title=" ">
<path fill="none" stroke="#63b8ff" d="M216.15,-1256.58C242.59,-1239.05 297.16,-1204.35 347,-1182 370.47,-1171.48 381.55,-1179.6 402,-1164 403.48,-1162.87 404.95,-1161.71 406.4,-1160.52"/>
<polygon fill="none" stroke="#63b8ff" points="406.73,-1160.23 408.59,-1153.27 415.74,-1152.31 413.87,-1159.28 406.73,-1160.23"/>
</a>
</g>
<text text-anchor="middle" x="421" y="-1212.5" font-family="Helvetica,sans-Serif" font-size="10.00" fill="grey"> &#45;mPetscStatusKnown</text>
<text text-anchor="start" x="347" y="-1201.5" font-family="Helvetica,sans-Serif" font-size="10.00" fill="grey">&#45;msCheckNumberOfProcesses</text>
<text text-anchor="middle" x="421" y="-1190.5" font-family="Helvetica,sans-Serif" font-size="10.00" fill="grey">OnLoad</text>
</g>
<!-- Node9 -->
<g id="Node000009" class="node">
<title>Node9</title>
<g id="a_Node000009"><a xlink:title=" ">
<polygon fill="white" stroke="transparent" points="731,-1293 623,-1293 623,-1244 731,-1244 731,-1293"/>
<text text-anchor="start" x="628" y="-1280.5" font-family="Helvetica,sans-Serif" font-size="10.00">vector&lt; unsigned &gt;</text>
<text text-anchor="start" x="675" y="-1265.5" font-family="Helvetica,sans-Serif" font-size="10.00"> </text>
<text text-anchor="start" x="675" y="-1250.5" font-family="Helvetica,sans-Serif" font-size="10.00"> </text>
<polygon fill="#bfbfbf" stroke="#bfbfbf" points="623,-1275.5 623,-1275.5 731,-1275.5 731,-1275.5 623,-1275.5"/>
<polygon fill="#bfbfbf" stroke="#bfbfbf" points="623,-1260.5 623,-1260.5 731,-1260.5 731,-1260.5 623,-1260.5"/>
<polygon fill="none" stroke="#bfbfbf" points="623,-1244 623,-1293 731,-1293 731,-1244 623,-1244"/>
</a>
</g>
</g>
<!-- Node9&#45;&gt;Node3 -->
<g id="edge10_Node000003_Node000009" class="edge">
<title>Node9&#45;&gt;Node3</title>
<g id="a_edge10_Node000003_Node000009"><a xlink:title=" ">
<path fill="none" stroke="#63b8ff" d="M707.21,-1243.58C711.97,-1238.32 716.23,-1232.4 719,-1226 734.62,-1189.91 735.94,-972.69 734.89,-822.29"/>
<polygon fill="none" stroke="#63b8ff" points="734.89,-822.22 730.84,-816.25 734.8,-810.22 738.84,-816.19 734.89,-822.22"/>
</a>
</g>
<text text-anchor="middle" x="788.5" y="-1013.5" font-family="Helvetica,sans-Serif" font-size="10.00" fill="grey"> #mNodePermutation</text>
</g>
<!-- Node9&#45;&gt;Node6 -->
<g id="edge8_Node000006_Node000009" class="edge">
<title>Node9&#45;&gt;Node6</title>
<g id="a_edge8_Node000006_Node000009"><a xlink:title=" ">
<path fill="none" stroke="#63b8ff" d="M659.18,-1243.88C654.83,-1238.06 650.22,-1231.82 646,-1226 627.47,-1200.44 607.89,-1172.94 589.26,-1146.56"/>
<polygon fill="none" stroke="#63b8ff" points="589.09,-1146.32 582.36,-1143.72 582.18,-1136.51 588.9,-1139.11 589.09,-1146.32"/>
</a>
</g>
<text text-anchor="middle" x="682.5" y="-1201.5" font-family="Helvetica,sans-Serif" font-size="10.00" fill="grey"> &#45;mGlobalLows</text>
</g>
<!-- Node10 -->
<g id="Node000010" class="node">
<title>Node10</title>
<g id="a_Node000010"><a xlink:title=" ">
<polygon fill="white" stroke="transparent" points="896,-1040.5 858,-1040.5 858,-991.5 896,-991.5 896,-1040.5"/>
<text text-anchor="start" x="863" y="-1028" font-family="Helvetica,sans-Serif" font-size="10.00">string</text>
<text text-anchor="start" x="875" y="-1013" font-family="Helvetica,sans-Serif" font-size="10.00"> </text>
<text text-anchor="start" x="875" y="-998" font-family="Helvetica,sans-Serif" font-size="10.00"> </text>
<polygon fill="#bfbfbf" stroke="#bfbfbf" points="858,-1023 858,-1023 896,-1023 896,-1023 858,-1023"/>
<polygon fill="#bfbfbf" stroke="#bfbfbf" points="858,-1008 858,-1008 896,-1008 896,-1008 858,-1008"/>
<polygon fill="none" stroke="#bfbfbf" points="858,-991.5 858,-1040.5 896,-1040.5 896,-991.5 858,-991.5"/>
</a>
</g>
</g>
<!-- Node10&#45;&gt;Node3 -->
<g id="edge11_Node000003_Node000010" class="edge">
<title>Node10&#45;&gt;Node3</title>
<g id="a_edge11_Node000003_Node000010"><a xlink:title=" ">
<path fill="none" stroke="#63b8ff" d="M873.96,-991.44C869.64,-961.86 860.37,-909.9 844,-868 841.1,-860.59 828.5,-837.93 812.76,-810.65"/>
<polygon fill="none" stroke="#63b8ff" points="812.6,-810.38 806.13,-807.19 806.58,-800 813.05,-803.18 812.6,-810.38"/>
</a>
</g>
<text text-anchor="middle" x="892" y="-836.5" font-family="Helvetica,sans-Serif" font-size="10.00" fill="grey"> #mMeshFileBaseName</text>
</g>
<!-- Node11 -->
<g id="Node000011" class="node">
<title>Node11</title>
<g id="a_Node000011"><a xlink:title=" ">
<polygon fill="white" stroke="transparent" points="328,-705 178,-705 178,-645 328,-645 328,-705"/>
<text text-anchor="start" x="183" y="-693" font-family="Helvetica,sans-Serif" font-size="10.00">vector&lt; Element&lt; ELEMENT</text>
<text text-anchor="start" x="194" y="-682" font-family="Helvetica,sans-Serif" font-size="10.00">_DIM, SPACE_DIM &gt; * &gt;</text>
<text text-anchor="start" x="251" y="-667" font-family="Helvetica,sans-Serif" font-size="10.00"> </text>
<text text-anchor="start" x="251" y="-652" font-family="Helvetica,sans-Serif" font-size="10.00"> </text>
<polygon fill="#bfbfbf" stroke="#bfbfbf" points="178,-677 178,-677 328,-677 328,-677 178,-677"/>
<polygon fill="#bfbfbf" stroke="#bfbfbf" points="178,-662 178,-662 328,-662 328,-662 178,-662"/>
<polygon fill="none" stroke="#bfbfbf" points="178,-645 178,-705 328,-705 328,-645 178,-645"/>
</a>
</g>
</g>
<!-- Node11&#45;&gt;Node2 -->
<g id="edge14_Node000002_Node000011" class="edge">
<title>Node11&#45;&gt;Node2</title>
<g id="a_edge14_Node000002_Node000011"><a xlink:title=" ">
<path fill="none" stroke="#63b8ff" d="M253,-644.81C253,-612.67 253,-558.46 253,-505.33"/>
<polygon fill="none" stroke="#63b8ff" points="253,-505.31 249,-499.31 253,-493.31 257,-499.31 253,-505.31"/>
</a>
</g>
<text text-anchor="middle" x="286.5" y="-514" font-family="Helvetica,sans-Serif" font-size="10.00" fill="grey"> #mElements</text>
</g>
<!-- Node12 -->
<g id="Node000012" class="node">
<title>Node12</title>
<g id="a_Node000012"><a xlink:title=" ">
<polygon fill="white" stroke="transparent" points="486,-710.5 346,-710.5 346,-639.5 486,-639.5 486,-710.5"/>
<text text-anchor="start" x="351" y="-698" font-family="Helvetica,sans-Serif" font-size="10.00">vector&lt; BoundaryElement</text>
<text text-anchor="start" x="351" y="-687" font-family="Helvetica,sans-Serif" font-size="10.00">&lt; ELEMENT_DIM&#45;1, SPACE</text>
<text text-anchor="start" x="388" y="-676" font-family="Helvetica,sans-Serif" font-size="10.00">_DIM &gt; * &gt;</text>
<text text-anchor="start" x="414" y="-661" font-family="Helvetica,sans-Serif" font-size="10.00"> </text>
<text text-anchor="start" x="414" y="-646" font-family="Helvetica,sans-Serif" font-size="10.00"> </text>
<polygon fill="#bfbfbf" stroke="#bfbfbf" points="346,-671 346,-671 486,-671 486,-671 346,-671"/>
<polygon fill="#bfbfbf" stroke="#bfbfbf" points="346,-656 346,-656 486,-656 486,-656 346,-656"/>
<polygon fill="none" stroke="#bfbfbf" points="346,-639.5 346,-710.5 486,-710.5 486,-639.5 346,-639.5"/>
</a>
</g>
</g>
<!-- Node12&#45;&gt;Node2 -->
<g id="edge15_Node000002_Node000012" class="edge">
<title>Node12&#45;&gt;Node2</title>
<g id="a_edge15_Node000002_Node000012"><a xlink:title=" ">
<path fill="none" stroke="#63b8ff" d="M398.56,-639.49C381.92,-606.57 355.66,-554.61 329.99,-503.84"/>
<polygon fill="none" stroke="#63b8ff" points="329.94,-503.74 323.67,-500.19 324.53,-493.03 330.81,-496.58 329.94,-503.74"/>
</a>
</g>
<text text-anchor="middle" x="391" y="-514" font-family="Helvetica,sans-Serif" font-size="10.00" fill="grey"> #mBoundaryElements</text>
</g>
<!-- Node13 -->
<g id="Node000013" class="node">
<title>Node13</title>
<g id="a_Node000013"><a xlink:title=" ">
<polygon fill="white" stroke="transparent" points="411.5,-375 364.5,-375 364.5,-326 411.5,-326 411.5,-375"/>
<text text-anchor="start" x="370" y="-362.5" font-family="Helvetica,sans-Serif" font-size="10.00">iterator</text>
<text text-anchor="start" x="386.5" y="-347.5" font-family="Helvetica,sans-Serif" font-size="10.00"> </text>
<text text-anchor="start" x="386.5" y="-332.5" font-family="Helvetica,sans-Serif" font-size="10.00"> </text>
<polygon fill="#bfbfbf" stroke="#bfbfbf" points="365,-357.5 365,-357.5 412,-357.5 412,-357.5 365,-357.5"/>
<polygon fill="#bfbfbf" stroke="#bfbfbf" points="365,-342.5 365,-342.5 412,-342.5 412,-342.5 365,-342.5"/>
<polygon fill="none" stroke="#bfbfbf" points="364.5,-326 364.5,-375 411.5,-375 411.5,-326 364.5,-326"/>
</a>
</g>
</g>
<!-- Node13&#45;&gt;Node1 -->
<g id="edge16_Node000001_Node000013" class="edge">
<title>Node13&#45;&gt;Node1</title>
<g id="a_edge16_Node000001_Node000013"><a xlink:title=" ">
<path fill="none" stroke="#63b8ff" d="M385.76,-325.88C382.28,-296.88 373.91,-246.77 355,-208 348.86,-195.42 341.28,-182.97 333.03,-171.06"/>
<polygon fill="none" stroke="#63b8ff" points="332.95,-170.95 326.21,-168.41 325.96,-161.2 332.71,-163.75 332.95,-170.95"/>
</a>
</g>
<text text-anchor="middle" x="381" y="-182" font-family="Helvetica,sans-Serif" font-size="10.00" fill="grey"> &#45;mElementIter</text>
</g>
</g>
</svg>
