<?xml version="1.0" encoding="UTF-8" standalone="no"?>
<!DOCTYPE svg PUBLIC "-//W3C//DTD SVG 1.1//EN"
 "http://www.w3.org/Graphics/SVG/1.1/DTD/svg11.dtd">
<!-- Generated by graphviz version 2.43.0 (0)
 -->
<!-- Title: NumericFileComparison Pages: 1 -->
<svg width="378pt" height="370pt"
 viewBox="0.00 0.00 378.00 370.00" xmlns="http://www.w3.org/2000/svg" xmlns:xlink="http://www.w3.org/1999/xlink">
<g id="graph0" class="graph" transform="scale(1 1) rotate(0) translate(4 366)">
<title>NumericFileComparison</title>
<!-- Node1 -->
<g id="Node000001" class="node">
<title>Node1</title>
<g id="a_Node000001"><a xlink:title=" ">
<polygon fill="#999999" stroke="transparent" points="225,-94 79,-94 79,0 225,0 225,-94"/>
<text text-anchor="start" x="93" y="-82" font-family="Helvetica,sans-Serif" font-size="10.00">NumericFileComparison</text>
<text text-anchor="start" x="150" y="-67" font-family="Helvetica,sans-Serif" font-size="10.00"> </text>
<text text-anchor="start" x="83" y="-52" font-family="Helvetica,sans-Serif" font-size="10.00">+</text>
<text text-anchor="start" x="96" y="-52" font-family="Helvetica,sans-Serif" font-size="10.00">NumericFileComparison()</text>
<text text-anchor="start" x="83" y="-37" font-family="Helvetica,sans-Serif" font-size="10.00">+</text>
<text text-anchor="start" x="96" y="-37" font-family="Helvetica,sans-Serif" font-size="10.00">NumericFileComparison()</text>
<text text-anchor="start" x="83" y="-22" font-family="Helvetica,sans-Serif" font-size="10.00">+</text>
<text text-anchor="start" x="96" y="-22" font-family="Helvetica,sans-Serif" font-size="10.00">CompareFiles()</text>
<text text-anchor="start" x="85.5" y="-7" font-family="Helvetica,sans-Serif" font-size="10.00">&#45;</text>
<text text-anchor="start" x="96" y="-7" font-family="Helvetica,sans-Serif" font-size="10.00">ReadNextToken()</text>
<polygon fill="#666666" stroke="#666666" points="79,-77 79,-77 225,-77 225,-77 79,-77"/>
<polygon fill="#666666" stroke="#666666" points="79,-62 79,-62 225,-62 225,-62 79,-62"/>
<polygon fill="none" stroke="#666666" points="79,0 79,-94 225,-94 225,0 79,0"/>
</a>
</g>
</g>
<!-- Node2 -->
<g id="Node000002" class="node">
<title>Node2</title>
<g id="a_Node000002"><a xlink:href="classAbstractFileComparison.html" target="_top" xlink:title=" ">
<polygon fill="white" stroke="transparent" points="229,-255 75,-255 75,-131 229,-131 229,-255"/>
<text text-anchor="start" x="93.5" y="-243" font-family="Helvetica,sans-Serif" font-size="10.00">AbstractFileComparison</text>
<text text-anchor="start" x="150" y="-228" font-family="Helvetica,sans-Serif" font-size="10.00"> </text>
<text text-anchor="start" x="79" y="-213" font-family="Helvetica,sans-Serif" font-size="10.00">+</text>
<text text-anchor="start" x="92" y="-213" font-family="Helvetica,sans-Serif" font-size="10.00">AbstractFileComparison()</text>
<text text-anchor="start" x="79" y="-198" font-family="Helvetica,sans-Serif" font-size="10.00">+</text>
<text text-anchor="start" x="92" y="-198" font-family="Helvetica,sans-Serif" font-size="10.00">AbstractFileComparison()</text>
<text text-anchor="start" x="79" y="-183" font-family="Helvetica,sans-Serif" font-size="10.00">+</text>
<text text-anchor="start" x="92" y="-183" font-family="Helvetica,sans-Serif" font-size="10.00">~AbstractFileComparison()</text>
<text text-anchor="start" x="79" y="-168" font-family="Helvetica,sans-Serif" font-size="10.00">#</text>
<text text-anchor="start" x="92" y="-168" font-family="Helvetica,sans-Serif" font-size="10.00">ResetFiles()</text>
<text text-anchor="start" x="79" y="-153" font-family="Helvetica,sans-Serif" font-size="10.00">#</text>
<text text-anchor="start" x="92" y="-153" font-family="Helvetica,sans-Serif" font-size="10.00">SkipHeaderLines()</text>
<text text-anchor="start" x="81.5" y="-138" font-family="Helvetica,sans-Serif" font-size="10.00">&#45;</text>
<text text-anchor="start" x="92" y="-138" font-family="Helvetica,sans-Serif" font-size="10.00">Setup()</text>
<polygon fill="#666666" stroke="#666666" points="75,-238 75,-238 229,-238 229,-238 75,-238"/>
<polygon fill="#666666" stroke="#666666" points="75,-223 75,-223 229,-223 229,-223 75,-223"/>
<polygon fill="none" stroke="#666666" points="75,-131 75,-255 229,-255 229,-131 75,-131"/>
</a>
</g>
</g>
<!-- Node2&#45;&gt;Node1 -->
<g id="edge1_Node000001_Node000002" class="edge">
<title>Node2&#45;&gt;Node1</title>
<g id="a_edge1_Node000001_Node000002"><a xlink:title=" ">
<path fill="none" stroke="#63b8ff" d="M152,-120.8C152,-111.8 152,-102.78 152,-94.31"/>
<polygon fill="none" stroke="#63b8ff" points="148.5,-120.93 152,-130.93 155.5,-120.93 148.5,-120.93"/>
</a>
</g>
</g>
<!-- Node3 -->
<g id="Node000003" class="node">
<title>Node3</title>
<g id="a_Node000003"><a xlink:title=" ">
<polygon fill="white" stroke="transparent" points="38,-362 0,-362 0,-313 38,-313 38,-362"/>
<text text-anchor="start" x="5" y="-349.5" font-family="Helvetica,sans-Serif" font-size="10.00">string</text>
<text text-anchor="start" x="17" y="-334.5" font-family="Helvetica,sans-Serif" font-size="10.00"> </text>
<text text-anchor="start" x="17" y="-319.5" font-family="Helvetica,sans-Serif" font-size="10.00"> </text>
<polygon fill="#bfbfbf" stroke="#bfbfbf" points="0,-344.5 0,-344.5 38,-344.5 38,-344.5 0,-344.5"/>
<polygon fill="#bfbfbf" stroke="#bfbfbf" points="0,-329.5 0,-329.5 38,-329.5 38,-329.5 0,-329.5"/>
<polygon fill="none" stroke="#bfbfbf" points="0,-313 0,-362 38,-362 38,-313 0,-313"/>
</a>
</g>
</g>
<!-- Node3&#45;&gt;Node2 -->
<g id="edge2_Node000002_Node000003" class="edge">
<title>Node3&#45;&gt;Node2</title>
<g id="a_edge2_Node000002_Node000003"><a xlink:title=" ">
<path fill="none" stroke="#63b8ff" d="M21.31,-312.77C23.5,-300.05 27.74,-284.63 36,-273 44.02,-261.7 54.19,-251.53 65.18,-242.54"/>
<polygon fill="none" stroke="#63b8ff" points="65.51,-242.28 67.81,-235.44 75,-234.94 72.7,-241.77 65.51,-242.28"/>
</a>
</g>
<text text-anchor="middle" x="72.5" y="-287" font-family="Helvetica,sans-Serif" font-size="10.00" fill="grey"> #mFilename1</text>
<text text-anchor="middle" x="72.5" y="-276" font-family="Helvetica,sans-Serif" font-size="10.00" fill="grey">#mFilename2</text>
</g>
<!-- Node4 -->
<g id="Node000004" class="node">
<title>Node4</title>
<g id="a_Node000004"><a xlink:title=" ">
<polygon fill="white" stroke="transparent" points="144,-362 84,-362 84,-313 144,-313 144,-362"/>
<text text-anchor="start" x="89" y="-349.5" font-family="Helvetica,sans-Serif" font-size="10.00">ifstream *</text>
<text text-anchor="start" x="112" y="-334.5" font-family="Helvetica,sans-Serif" font-size="10.00"> </text>
<text text-anchor="start" x="112" y="-319.5" font-family="Helvetica,sans-Serif" font-size="10.00"> </text>
<polygon fill="#bfbfbf" stroke="#bfbfbf" points="84,-344.5 84,-344.5 144,-344.5 144,-344.5 84,-344.5"/>
<polygon fill="#bfbfbf" stroke="#bfbfbf" points="84,-329.5 84,-329.5 144,-329.5 144,-329.5 84,-329.5"/>
<polygon fill="none" stroke="#bfbfbf" points="84,-313 84,-362 144,-362 144,-313 84,-313"/>
</a>
</g>
</g>
<!-- Node4&#45;&gt;Node2 -->
<g id="edge3_Node000002_Node000004" class="edge">
<title>Node4&#45;&gt;Node2</title>
<g id="a_edge3_Node000002_Node000004"><a xlink:title=" ">
<path fill="none" stroke="#63b8ff" d="M113.06,-312.99C113.09,-300.89 113.93,-286 117,-273 117.47,-270.99 118,-268.97 118.57,-266.95"/>
<polygon fill="none" stroke="#63b8ff" points="118.62,-266.78 116.62,-259.86 122.24,-255.34 124.24,-262.27 118.62,-266.78"/>
</a>
</g>
<text text-anchor="middle" x="142.5" y="-287" font-family="Helvetica,sans-Serif" font-size="10.00" fill="grey"> #mpFile1</text>
<text text-anchor="middle" x="142.5" y="-276" font-family="Helvetica,sans-Serif" font-size="10.00" fill="grey">#mpFile2</text>
</g>
<!-- Node5 -->
<g id="Node000005" class="node">
<title>Node5</title>
<g id="a_Node000005"><a xlink:href="classunsigned.html" target="_top" xlink:title=" ">
<polygon fill="white" stroke="transparent" points="217.5,-362 162.5,-362 162.5,-313 217.5,-313 217.5,-362"/>
<text text-anchor="start" x="168" y="-349.5" font-family="Helvetica,sans-Serif" font-size="10.00">unsigned</text>
<text text-anchor="start" x="188.5" y="-334.5" font-family="Helvetica,sans-Serif" font-size="10.00"> </text>
<text text-anchor="start" x="188.5" y="-319.5" font-family="Helvetica,sans-Serif" font-size="10.00"> </text>
<polygon fill="#bfbfbf" stroke="#bfbfbf" points="163,-344.5 163,-344.5 218,-344.5 218,-344.5 163,-344.5"/>
<polygon fill="#bfbfbf" stroke="#bfbfbf" points="163,-329.5 163,-329.5 218,-329.5 218,-329.5 163,-329.5"/>
<polygon fill="none" stroke="#bfbfbf" points="162.5,-313 162.5,-362 217.5,-362 217.5,-313 162.5,-313"/>
</a>
</g>
</g>
<!-- Node5&#45;&gt;Node2 -->
<g id="edge4_Node000002_Node000005" class="edge">
<title>Node5&#45;&gt;Node2</title>
<g id="a_edge4_Node000002_Node000005"><a xlink:title=" ">
<path fill="none" stroke="#63b8ff" d="M183.73,-312.97C180.33,-300.25 175.94,-283.77 171.51,-267.15"/>
<polygon fill="none" stroke="#63b8ff" points="171.38,-266.67 165.97,-261.91 168.29,-255.08 173.7,-259.85 171.38,-266.67"/>
</a>
</g>
<text text-anchor="middle" x="210.5" y="-281.5" font-family="Helvetica,sans-Serif" font-size="10.00" fill="grey"> #mLineNum</text>
</g>
<!-- Node6 -->
<g id="Node000006" class="node">
<title>Node6</title>
<g id="a_Node000006"><a xlink:href="classbool.html" target="_top" xlink:title=" ">
<polygon fill="white" stroke="transparent" points="294,-362 262,-362 262,-313 294,-313 294,-362"/>
<text text-anchor="start" x="267" y="-349.5" font-family="Helvetica,sans-Serif" font-size="10.00">bool</text>
<text text-anchor="start" x="276" y="-334.5" font-family="Helvetica,sans-Serif" font-size="10.00"> </text>
<text text-anchor="start" x="276" y="-319.5" font-family="Helvetica,sans-Serif" font-size="10.00"> </text>
<polygon fill="#bfbfbf" stroke="#bfbfbf" points="262,-344.5 262,-344.5 294,-344.5 294,-344.5 262,-344.5"/>
<polygon fill="#bfbfbf" stroke="#bfbfbf" points="262,-329.5 262,-329.5 294,-329.5 294,-329.5 262,-329.5"/>
<polygon fill="none" stroke="#bfbfbf" points="262,-313 262,-362 294,-362 294,-313 262,-313"/>
</a>
</g>
</g>
<!-- Node6&#45;&gt;Node2 -->
<g id="edge5_Node000002_Node000006" class="edge">
<title>Node6&#45;&gt;Node2</title>
<g id="a_edge5_Node000002_Node000006"><a xlink:title=" ">
<path fill="none" stroke="#63b8ff" d="M269.27,-312.81C263.96,-300.24 256.39,-284.96 247,-273 244.1,-269.31 241.01,-265.67 237.77,-262.11"/>
<polygon fill="none" stroke="#63b8ff" points="237.74,-262.08 230.7,-260.5 229.45,-253.4 236.49,-254.98 237.74,-262.08"/>
</a>
</g>
<text text-anchor="middle" x="315" y="-287" font-family="Helvetica,sans-Serif" font-size="10.00" fill="grey"> #mCalledCollectively</text>
<text text-anchor="middle" x="315" y="-276" font-family="Helvetica,sans-Serif" font-size="10.00" fill="grey">#mSuppressOutput</text>
</g>
</g>
</svg>
