<?xml version="1.0" encoding="UTF-8" standalone="no"?>
<!DOCTYPE svg PUBLIC "-//W3C//DTD SVG 1.1//EN"
 "http://www.w3.org/Graphics/SVG/1.1/DTD/svg11.dtd">
<!-- Generated by graphviz version 2.43.0 (0)
 -->
<!-- Title: AbstractOutputModifier Pages: 1 -->
<svg width="193pt" height="243pt"
 viewBox="0.00 0.00 192.50 243.00" xmlns="http://www.w3.org/2000/svg" xmlns:xlink="http://www.w3.org/1999/xlink">
<g id="graph0" class="graph" transform="scale(1 1) rotate(0) translate(4 239)">
<title>AbstractOutputModifier</title>
<!-- Node1 -->
<g id="Node000001" class="node">
<title>Node1</title>
<g id="a_Node000001"><a xlink:title=" ">
<polygon fill="#999999" stroke="transparent" points="163,-139 0,-139 0,0 163,0 163,-139"/>
<text text-anchor="start" x="25" y="-126.5" font-family="Helvetica,sans-Serif" font-size="10.00">AbstractOutputModifier</text>
<text text-anchor="start" x="80" y="-111.5" font-family="Helvetica,sans-Serif" font-size="10.00"> </text>
<text text-anchor="start" x="4.5" y="-96.5" font-family="Helvetica,sans-Serif" font-size="10.00">+</text>
<text text-anchor="start" x="17.5" y="-96.5" font-family="Helvetica,sans-Serif" font-size="10.00">AbstractOutputModifier()</text>
<text text-anchor="start" x="4.5" y="-81.5" font-family="Helvetica,sans-Serif" font-size="10.00">+</text>
<text text-anchor="start" x="17.5" y="-81.5" font-family="Helvetica,sans-Serif" font-size="10.00">~AbstractOutputModifier()</text>
<text text-anchor="start" x="4.5" y="-66.5" font-family="Helvetica,sans-Serif" font-size="10.00">+</text>
<text text-anchor="start" x="17.5" y="-66.5" font-family="Helvetica,sans-Serif" font-size="10.00">InitialiseAtStart()</text>
<text text-anchor="start" x="4.5" y="-51.5" font-family="Helvetica,sans-Serif" font-size="10.00">+</text>
<text text-anchor="start" x="17.5" y="-51.5" font-family="Helvetica,sans-Serif" font-size="10.00">FinaliseAtEnd()</text>
<text text-anchor="start" x="4.5" y="-36.5" font-family="Helvetica,sans-Serif" font-size="10.00">+</text>
<text text-anchor="start" x="17.5" y="-36.5" font-family="Helvetica,sans-Serif" font-size="10.00">ProcessSolutionAtTimeStep()</text>
<text text-anchor="start" x="4.5" y="-21.5" font-family="Helvetica,sans-Serif" font-size="10.00">#</text>
<text text-anchor="start" x="17.5" y="-21.5" font-family="Helvetica,sans-Serif" font-size="10.00">AbstractOutputModifier()</text>
<text text-anchor="start" x="7" y="-6.5" font-family="Helvetica,sans-Serif" font-size="10.00">&#45;</text>
<text text-anchor="start" x="17.5" y="-6.5" font-family="Helvetica,sans-Serif" font-size="10.00">serialize()</text>
<polygon fill="#666666" stroke="#666666" points="0.5,-121.5 0.5,-121.5 163.5,-121.5 163.5,-121.5 0.5,-121.5"/>
<polygon fill="#666666" stroke="#666666" points="0.5,-106.5 0.5,-106.5 163.5,-106.5 163.5,-106.5 0.5,-106.5"/>
<polygon fill="none" stroke="#666666" points="0,0 0,-139 163,-139 163,0 0,0"/>
</a>
</g>
</g>
<!-- Node2 -->
<g id="Node000002" class="node">
<title>Node2</title>
<g id="a_Node000002"><a xlink:title=" ">
<polygon fill="white" stroke="transparent" points="55.5,-235 17.5,-235 17.5,-186 55.5,-186 55.5,-235"/>
<text text-anchor="start" x="22.5" y="-222.5" font-family="Helvetica,sans-Serif" font-size="10.00">string</text>
<text text-anchor="start" x="34.5" y="-207.5" font-family="Helvetica,sans-Serif" font-size="10.00"> </text>
<text text-anchor="start" x="34.5" y="-192.5" font-family="Helvetica,sans-Serif" font-size="10.00"> </text>
<polygon fill="#bfbfbf" stroke="#bfbfbf" points="17.5,-217.5 17.5,-217.5 55.5,-217.5 55.5,-217.5 17.5,-217.5"/>
<polygon fill="#bfbfbf" stroke="#bfbfbf" points="17.5,-202.5 17.5,-202.5 55.5,-202.5 55.5,-202.5 17.5,-202.5"/>
<polygon fill="none" stroke="#bfbfbf" points="17.5,-186 17.5,-235 55.5,-235 55.5,-186 17.5,-186"/>
</a>
</g>
</g>
<!-- Node2&#45;&gt;Node1 -->
<g id="edge1_Node000001_Node000002" class="edge">
<title>Node2&#45;&gt;Node1</title>
<g id="a_edge1_Node000001_Node000002"><a xlink:title=" ">
<path fill="none" stroke="#63b8ff" d="M34.71,-185.94C34.59,-176.79 35.18,-166.29 37.5,-157 38.01,-154.98 38.56,-152.95 39.17,-150.92"/>
<polygon fill="none" stroke="#63b8ff" points="39.26,-150.67 37.4,-143.7 43.12,-139.31 44.98,-146.28 39.26,-150.67"/>
</a>
</g>
<text text-anchor="middle" x="71" y="-160" font-family="Helvetica,sans-Serif" font-size="10.00" fill="grey"> #mFilename</text>
</g>
<!-- Node3 -->
<g id="Node000003" class="node">
<title>Node3</title>
<g id="a_Node000003"><a xlink:href="classdouble.html" target="_top" xlink:title=" ">
<polygon fill="white" stroke="transparent" points="148.5,-235 104.5,-235 104.5,-186 148.5,-186 148.5,-235"/>
<text text-anchor="start" x="109.5" y="-222.5" font-family="Helvetica,sans-Serif" font-size="10.00">double</text>
<text text-anchor="start" x="124.5" y="-207.5" font-family="Helvetica,sans-Serif" font-size="10.00"> </text>
<text text-anchor="start" x="124.5" y="-192.5" font-family="Helvetica,sans-Serif" font-size="10.00"> </text>
<polygon fill="#bfbfbf" stroke="#bfbfbf" points="104.5,-217.5 104.5,-217.5 148.5,-217.5 148.5,-217.5 104.5,-217.5"/>
<polygon fill="#bfbfbf" stroke="#bfbfbf" points="104.5,-202.5 104.5,-202.5 148.5,-202.5 148.5,-202.5 104.5,-202.5"/>
<polygon fill="none" stroke="#bfbfbf" points="104.5,-186 104.5,-235 148.5,-235 148.5,-186 104.5,-186"/>
</a>
</g>
</g>
<!-- Node3&#45;&gt;Node1 -->
<g id="edge2_Node000001_Node000003" class="edge">
<title>Node3&#45;&gt;Node1</title>
<g id="a_edge2_Node000001_Node000003"><a xlink:title=" ">
<path fill="none" stroke="#63b8ff" d="M118.87,-185.92C115.64,-175.96 111.68,-163.72 107.55,-150.97"/>
<polygon fill="none" stroke="#63b8ff" points="107.43,-150.59 101.77,-146.11 103.73,-139.17 109.39,-143.65 107.43,-150.59"/>
</a>
</g>
<text text-anchor="middle" x="148" y="-160" font-family="Helvetica,sans-Serif" font-size="10.00" fill="grey"> #mFlushTime</text>
</g>
</g>
</svg>
