<?xml version="1.0" encoding="UTF-8" standalone="no"?>
<!DOCTYPE svg PUBLIC "-//W3C//DTD SVG 1.1//EN"
 "http://www.w3.org/Graphics/SVG/1.1/DTD/svg11.dtd">
<!-- Generated by graphviz version 2.43.0 (0)
 -->
<!-- Title: WntCellCycleOdeSystem Pages: 1 -->
<svg width="601pt" height="1740pt"
 viewBox="0.00 0.00 600.50 1740.00" xmlns="http://www.w3.org/2000/svg" xmlns:xlink="http://www.w3.org/1999/xlink">
<g id="graph0" class="graph" transform="scale(1 1) rotate(0) translate(4 1736)">
<title>WntCellCycleOdeSystem</title>
<!-- Node1 -->
<g id="Node000001" class="node">
<title>Node1</title>
<g id="a_Node000001"><a xlink:title=" ">
<polygon fill="#999999" stroke="transparent" points="490,-334 331,-334 331,0 490,0 490,-334"/>
<text text-anchor="start" x="350" y="-322" font-family="Helvetica,sans-Serif" font-size="10.00">WntCellCycleOdeSystem</text>
<text text-anchor="start" x="338" y="-307" font-family="Helvetica,sans-Serif" font-size="10.00">&#45;</text>
<text text-anchor="start" x="348.5" y="-307" font-family="Helvetica,sans-Serif" font-size="10.00">mk2d</text>
<text text-anchor="start" x="338" y="-292" font-family="Helvetica,sans-Serif" font-size="10.00">&#45;</text>
<text text-anchor="start" x="348.5" y="-292" font-family="Helvetica,sans-Serif" font-size="10.00">mk3d</text>
<text text-anchor="start" x="338" y="-277" font-family="Helvetica,sans-Serif" font-size="10.00">&#45;</text>
<text text-anchor="start" x="348.5" y="-277" font-family="Helvetica,sans-Serif" font-size="10.00">mk34d</text>
<text text-anchor="start" x="338" y="-262" font-family="Helvetica,sans-Serif" font-size="10.00">&#45;</text>
<text text-anchor="start" x="348.5" y="-262" font-family="Helvetica,sans-Serif" font-size="10.00">mk43d</text>
<text text-anchor="start" x="338" y="-247" font-family="Helvetica,sans-Serif" font-size="10.00">&#45;</text>
<text text-anchor="start" x="348.5" y="-247" font-family="Helvetica,sans-Serif" font-size="10.00">mk23d</text>
<text text-anchor="start" x="338" y="-232" font-family="Helvetica,sans-Serif" font-size="10.00">&#45;</text>
<text text-anchor="start" x="348.5" y="-232" font-family="Helvetica,sans-Serif" font-size="10.00">mad</text>
<text text-anchor="start" x="338" y="-217" font-family="Helvetica,sans-Serif" font-size="10.00">&#45;</text>
<text text-anchor="start" x="348.5" y="-217" font-family="Helvetica,sans-Serif" font-size="10.00">mkpd</text>
<text text-anchor="start" x="338" y="-202" font-family="Helvetica,sans-Serif" font-size="10.00">&#45;</text>
<text text-anchor="start" x="348.5" y="-202" font-family="Helvetica,sans-Serif" font-size="10.00">mphi_r</text>
<text text-anchor="start" x="338" y="-187" font-family="Helvetica,sans-Serif" font-size="10.00">&#45;</text>
<text text-anchor="start" x="348.5" y="-187" font-family="Helvetica,sans-Serif" font-size="10.00">mphi_i</text>
<text text-anchor="start" x="338" y="-172" font-family="Helvetica,sans-Serif" font-size="10.00">&#45;</text>
<text text-anchor="start" x="348.5" y="-172" font-family="Helvetica,sans-Serif" font-size="10.00">mphi_j</text>
<text text-anchor="start" x="348.5" y="-157" font-family="Helvetica,sans-Serif" font-size="10.00">and 6 more...</text>
<text text-anchor="start" x="335.5" y="-142" font-family="Helvetica,sans-Serif" font-size="10.00">+</text>
<text text-anchor="start" x="348.5" y="-142" font-family="Helvetica,sans-Serif" font-size="10.00">WntCellCycleOdeSystem()</text>
<text text-anchor="start" x="335.5" y="-127" font-family="Helvetica,sans-Serif" font-size="10.00">+</text>
<text text-anchor="start" x="348.5" y="-127" font-family="Helvetica,sans-Serif" font-size="10.00">~WntCellCycleOdeSystem()</text>
<text text-anchor="start" x="335.5" y="-112" font-family="Helvetica,sans-Serif" font-size="10.00">+</text>
<text text-anchor="start" x="348.5" y="-112" font-family="Helvetica,sans-Serif" font-size="10.00">Init()</text>
<text text-anchor="start" x="335.5" y="-97" font-family="Helvetica,sans-Serif" font-size="10.00">+</text>
<text text-anchor="start" x="348.5" y="-97" font-family="Helvetica,sans-Serif" font-size="10.00">SetMutationState()</text>
<text text-anchor="start" x="335.5" y="-82" font-family="Helvetica,sans-Serif" font-size="10.00">+</text>
<text text-anchor="start" x="348.5" y="-82" font-family="Helvetica,sans-Serif" font-size="10.00">GetMutationState()</text>
<text text-anchor="start" x="335.5" y="-67" font-family="Helvetica,sans-Serif" font-size="10.00">+</text>
<text text-anchor="start" x="348.5" y="-67" font-family="Helvetica,sans-Serif" font-size="10.00">EvaluateYDerivatives()</text>
<text text-anchor="start" x="335.5" y="-52" font-family="Helvetica,sans-Serif" font-size="10.00">+</text>
<text text-anchor="start" x="348.5" y="-52" font-family="Helvetica,sans-Serif" font-size="10.00">CalculateStoppingEvent()</text>
<text text-anchor="start" x="335.5" y="-37" font-family="Helvetica,sans-Serif" font-size="10.00">+</text>
<text text-anchor="start" x="348.5" y="-37" font-family="Helvetica,sans-Serif" font-size="10.00">CalculateRootFunction()</text>
<text text-anchor="start" x="335.5" y="-22" font-family="Helvetica,sans-Serif" font-size="10.00">+</text>
<text text-anchor="start" x="348.5" y="-22" font-family="Helvetica,sans-Serif" font-size="10.00">GetWntLevel()</text>
<text text-anchor="start" x="338" y="-7" font-family="Helvetica,sans-Serif" font-size="10.00">&#45;</text>
<text text-anchor="start" x="348.5" y="-7" font-family="Helvetica,sans-Serif" font-size="10.00">serialize()</text>
<polygon fill="#666666" stroke="#666666" points="331.5,-317 331.5,-317 490.5,-317 490.5,-317 331.5,-317"/>
<polygon fill="#666666" stroke="#666666" points="331.5,-152 331.5,-152 346.5,-152 346.5,-152 331.5,-152"/>
<polygon fill="#666666" stroke="#666666" points="346.5,-152 346.5,-152 490.5,-152 490.5,-152 346.5,-152"/>
<polygon fill="none" stroke="#666666" points="331,0 331,-334 490,-334 490,0 331,0"/>
</a>
</g>
</g>
<!-- Node2 -->
<g id="Node000002" class="node">
<title>Node2</title>
<g id="a_Node000002"><a xlink:href="classAbstractOdeSystem.html" target="_top" xlink:title=" ">
<polygon fill="white" stroke="transparent" points="370.5,-660 222.5,-660 222.5,-491 370.5,-491 370.5,-660"/>
<text text-anchor="start" x="248" y="-647.5" font-family="Helvetica,sans-Serif" font-size="10.00">AbstractOdeSystem</text>
<text text-anchor="start" x="294.5" y="-632.5" font-family="Helvetica,sans-Serif" font-size="10.00"> </text>
<text text-anchor="start" x="226.5" y="-617.5" font-family="Helvetica,sans-Serif" font-size="10.00">+</text>
<text text-anchor="start" x="239.5" y="-617.5" font-family="Helvetica,sans-Serif" font-size="10.00">AbstractOdeSystem()</text>
<text text-anchor="start" x="226.5" y="-602.5" font-family="Helvetica,sans-Serif" font-size="10.00">+</text>
<text text-anchor="start" x="239.5" y="-602.5" font-family="Helvetica,sans-Serif" font-size="10.00">~AbstractOdeSystem()</text>
<text text-anchor="start" x="226.5" y="-587.5" font-family="Helvetica,sans-Serif" font-size="10.00">+</text>
<text text-anchor="start" x="239.5" y="-587.5" font-family="Helvetica,sans-Serif" font-size="10.00">EvaluateYDerivatives()</text>
<text text-anchor="start" x="226.5" y="-572.5" font-family="Helvetica,sans-Serif" font-size="10.00">+</text>
<text text-anchor="start" x="239.5" y="-572.5" font-family="Helvetica,sans-Serif" font-size="10.00">CalculateStoppingEvent()</text>
<text text-anchor="start" x="226.5" y="-557.5" font-family="Helvetica,sans-Serif" font-size="10.00">+</text>
<text text-anchor="start" x="239.5" y="-557.5" font-family="Helvetica,sans-Serif" font-size="10.00">CalculateRootFunction()</text>
<text text-anchor="start" x="226.5" y="-542.5" font-family="Helvetica,sans-Serif" font-size="10.00">+</text>
<text text-anchor="start" x="239.5" y="-542.5" font-family="Helvetica,sans-Serif" font-size="10.00">GetUseAnalyticJacobian()</text>
<text text-anchor="start" x="226.5" y="-527.5" font-family="Helvetica,sans-Serif" font-size="10.00">+</text>
<text text-anchor="start" x="239.5" y="-527.5" font-family="Helvetica,sans-Serif" font-size="10.00">rGetConstStateVariables()</text>
<text text-anchor="start" x="229" y="-512.5" font-family="Helvetica,sans-Serif" font-size="10.00">&#45;</text>
<text text-anchor="start" x="239.5" y="-512.5" font-family="Helvetica,sans-Serif" font-size="10.00">save()</text>
<text text-anchor="start" x="229" y="-497.5" font-family="Helvetica,sans-Serif" font-size="10.00">&#45;</text>
<text text-anchor="start" x="239.5" y="-497.5" font-family="Helvetica,sans-Serif" font-size="10.00">load()</text>
<polygon fill="#666666" stroke="#666666" points="222.5,-642.5 222.5,-642.5 370.5,-642.5 370.5,-642.5 222.5,-642.5"/>
<polygon fill="#666666" stroke="#666666" points="222.5,-627.5 222.5,-627.5 370.5,-627.5 370.5,-627.5 222.5,-627.5"/>
<polygon fill="none" stroke="#666666" points="222.5,-491 222.5,-660 370.5,-660 370.5,-491 222.5,-491"/>
</a>
</g>
</g>
<!-- Node2&#45;&gt;Node1 -->
<g id="edge1_Node000001_Node000002" class="edge">
<title>Node2&#45;&gt;Node1</title>
<g id="a_edge1_Node000001_Node000002"><a xlink:title=" ">
<path fill="none" stroke="#63b8ff" d="M322.71,-481.05C334.92,-437.5 349.83,-384.34 363.87,-334.27"/>
<polygon fill="none" stroke="#63b8ff" points="319.31,-480.19 319.98,-490.77 326.05,-482.08 319.31,-480.19"/>
</a>
</g>
</g>
<!-- Node3 -->
<g id="Node000003" class="node">
<title>Node3</title>
<g id="a_Node000003"><a xlink:href="classAbstractParameterisedSystem.html" target="_top" xlink:title=" ">
<polygon fill="white" stroke="transparent" points="324,-992 147,-992 147,-707 324,-707 324,-992"/>
<text text-anchor="start" x="162" y="-979.5" font-family="Helvetica,sans-Serif" font-size="10.00">AbstractParameterisedSystem</text>
<text text-anchor="start" x="171" y="-968.5" font-family="Helvetica,sans-Serif" font-size="10.00">&lt; std::vector&lt; double &gt; &gt;</text>
<text text-anchor="start" x="234" y="-953.5" font-family="Helvetica,sans-Serif" font-size="10.00"> </text>
<text text-anchor="start" x="151.5" y="-938.5" font-family="Helvetica,sans-Serif" font-size="10.00">+</text>
<text text-anchor="start" x="164.5" y="-938.5" font-family="Helvetica,sans-Serif" font-size="10.00">AbstractParameterisedSystem()</text>
<text text-anchor="start" x="151.5" y="-923.5" font-family="Helvetica,sans-Serif" font-size="10.00">+</text>
<text text-anchor="start" x="164.5" y="-923.5" font-family="Helvetica,sans-Serif" font-size="10.00">rGetStateVariables()</text>
<text text-anchor="start" x="151.5" y="-908.5" font-family="Helvetica,sans-Serif" font-size="10.00">+</text>
<text text-anchor="start" x="164.5" y="-908.5" font-family="Helvetica,sans-Serif" font-size="10.00">GetStateVariables()</text>
<text text-anchor="start" x="151.5" y="-893.5" font-family="Helvetica,sans-Serif" font-size="10.00">+</text>
<text text-anchor="start" x="164.5" y="-893.5" font-family="Helvetica,sans-Serif" font-size="10.00">SetStateVariables()</text>
<text text-anchor="start" x="151.5" y="-878.5" font-family="Helvetica,sans-Serif" font-size="10.00">+</text>
<text text-anchor="start" x="164.5" y="-878.5" font-family="Helvetica,sans-Serif" font-size="10.00">GetStateVariable()</text>
<text text-anchor="start" x="151.5" y="-863.5" font-family="Helvetica,sans-Serif" font-size="10.00">+</text>
<text text-anchor="start" x="164.5" y="-863.5" font-family="Helvetica,sans-Serif" font-size="10.00">GetStateVariable()</text>
<text text-anchor="start" x="151.5" y="-848.5" font-family="Helvetica,sans-Serif" font-size="10.00">+</text>
<text text-anchor="start" x="164.5" y="-848.5" font-family="Helvetica,sans-Serif" font-size="10.00">SetStateVariable()</text>
<text text-anchor="start" x="151.5" y="-833.5" font-family="Helvetica,sans-Serif" font-size="10.00">+</text>
<text text-anchor="start" x="164.5" y="-833.5" font-family="Helvetica,sans-Serif" font-size="10.00">SetStateVariable()</text>
<text text-anchor="start" x="151.5" y="-818.5" font-family="Helvetica,sans-Serif" font-size="10.00">+</text>
<text text-anchor="start" x="164.5" y="-818.5" font-family="Helvetica,sans-Serif" font-size="10.00">VerifyStateVariables()</text>
<text text-anchor="start" x="151.5" y="-803.5" font-family="Helvetica,sans-Serif" font-size="10.00">+</text>
<text text-anchor="start" x="164.5" y="-803.5" font-family="Helvetica,sans-Serif" font-size="10.00">SetDefaultInitialConditions()</text>
<text text-anchor="start" x="164.5" y="-788.5" font-family="Helvetica,sans-Serif" font-size="10.00">and 13 more...</text>
<text text-anchor="start" x="151.5" y="-773.5" font-family="Helvetica,sans-Serif" font-size="10.00">#</text>
<text text-anchor="start" x="164.5" y="-773.5" font-family="Helvetica,sans-Serif" font-size="10.00">DumpState()</text>
<text text-anchor="start" x="151.5" y="-758.5" font-family="Helvetica,sans-Serif" font-size="10.00">#</text>
<text text-anchor="start" x="164.5" y="-758.5" font-family="Helvetica,sans-Serif" font-size="10.00">DumpState()</text>
<text text-anchor="start" x="151.5" y="-743.5" font-family="Helvetica,sans-Serif" font-size="10.00">#</text>
<text text-anchor="start" x="164.5" y="-743.5" font-family="Helvetica,sans-Serif" font-size="10.00">DumpState()</text>
<text text-anchor="start" x="151.5" y="-728.5" font-family="Helvetica,sans-Serif" font-size="10.00">#</text>
<text text-anchor="start" x="164.5" y="-728.5" font-family="Helvetica,sans-Serif" font-size="10.00">CheckParametersOnLoad()</text>
<text text-anchor="start" x="154" y="-713.5" font-family="Helvetica,sans-Serif" font-size="10.00">&#45;</text>
<text text-anchor="start" x="164.5" y="-713.5" font-family="Helvetica,sans-Serif" font-size="10.00">GetStateMessage()</text>
<polygon fill="#666666" stroke="#666666" points="147.5,-963.5 147.5,-963.5 324.5,-963.5 324.5,-963.5 147.5,-963.5"/>
<polygon fill="#666666" stroke="#666666" points="147.5,-948.5 147.5,-948.5 324.5,-948.5 324.5,-948.5 147.5,-948.5"/>
<polygon fill="none" stroke="#666666" points="147,-707 147,-992 324,-992 324,-707 147,-707"/>
</a>
</g>
</g>
<!-- Node3&#45;&gt;Node2 -->
<g id="edge2_Node000002_Node000003" class="edge">
<title>Node3&#45;&gt;Node2</title>
<g id="a_edge2_Node000002_Node000003"><a xlink:title=" ">
<path fill="none" stroke="#63b8ff" d="M269.52,-696.82C272.34,-684.25 275.11,-671.87 277.75,-660.1"/>
<polygon fill="none" stroke="#63b8ff" points="266.02,-696.4 267.25,-706.92 272.85,-697.93 266.02,-696.4"/>
</a>
</g>
</g>
<!-- Node4 -->
<g id="Node000004" class="node">
<title>Node4</title>
<g id="a_Node000004"><a xlink:href="classAbstractUntemplatedParameterisedSystem.html" target="_top" xlink:title=" ">
<polygon fill="white" stroke="transparent" points="338,-1625 133,-1625 133,-1393 338,-1393 338,-1625"/>
<text text-anchor="start" x="148.5" y="-1613" font-family="Helvetica,sans-Serif" font-size="10.00">AbstractUntemplatedParameterised</text>
<text text-anchor="start" x="217.5" y="-1602" font-family="Helvetica,sans-Serif" font-size="10.00">System</text>
<text text-anchor="start" x="234" y="-1587" font-family="Helvetica,sans-Serif" font-size="10.00"> </text>
<text text-anchor="start" x="137.5" y="-1572" font-family="Helvetica,sans-Serif" font-size="10.00">+</text>
<text text-anchor="start" x="150.5" y="-1572" font-family="Helvetica,sans-Serif" font-size="10.00">AbstractUntemplatedParameterised</text>
<text text-anchor="start" x="150.5" y="-1561" font-family="Helvetica,sans-Serif" font-size="10.00">System()</text>
<text text-anchor="start" x="137.5" y="-1546" font-family="Helvetica,sans-Serif" font-size="10.00">+</text>
<text text-anchor="start" x="150.5" y="-1546" font-family="Helvetica,sans-Serif" font-size="10.00">~AbstractUntemplatedParameterised</text>
<text text-anchor="start" x="150.5" y="-1535" font-family="Helvetica,sans-Serif" font-size="10.00">System()</text>
<text text-anchor="start" x="137.5" y="-1520" font-family="Helvetica,sans-Serif" font-size="10.00">+</text>
<text text-anchor="start" x="150.5" y="-1520" font-family="Helvetica,sans-Serif" font-size="10.00">GetSystemInformation()</text>
<text text-anchor="start" x="137.5" y="-1505" font-family="Helvetica,sans-Serif" font-size="10.00">+</text>
<text text-anchor="start" x="150.5" y="-1505" font-family="Helvetica,sans-Serif" font-size="10.00">GetSystemName()</text>
<text text-anchor="start" x="137.5" y="-1490" font-family="Helvetica,sans-Serif" font-size="10.00">+</text>
<text text-anchor="start" x="150.5" y="-1490" font-family="Helvetica,sans-Serif" font-size="10.00">GetNumberOfAttributes()</text>
<text text-anchor="start" x="137.5" y="-1475" font-family="Helvetica,sans-Serif" font-size="10.00">+</text>
<text text-anchor="start" x="150.5" y="-1475" font-family="Helvetica,sans-Serif" font-size="10.00">HasAttribute()</text>
<text text-anchor="start" x="137.5" y="-1460" font-family="Helvetica,sans-Serif" font-size="10.00">+</text>
<text text-anchor="start" x="150.5" y="-1460" font-family="Helvetica,sans-Serif" font-size="10.00">GetAttribute()</text>
<text text-anchor="start" x="137.5" y="-1445" font-family="Helvetica,sans-Serif" font-size="10.00">+</text>
<text text-anchor="start" x="150.5" y="-1445" font-family="Helvetica,sans-Serif" font-size="10.00">GetNumberOfStateVariables()</text>
<text text-anchor="start" x="137.5" y="-1430" font-family="Helvetica,sans-Serif" font-size="10.00">+</text>
<text text-anchor="start" x="150.5" y="-1430" font-family="Helvetica,sans-Serif" font-size="10.00">rGetStateVariableNames()</text>
<text text-anchor="start" x="137.5" y="-1415" font-family="Helvetica,sans-Serif" font-size="10.00">+</text>
<text text-anchor="start" x="150.5" y="-1415" font-family="Helvetica,sans-Serif" font-size="10.00">rGetStateVariableUnits()</text>
<text text-anchor="start" x="150.5" y="-1400" font-family="Helvetica,sans-Serif" font-size="10.00">and 20 more...</text>
<polygon fill="#666666" stroke="#666666" points="133.5,-1597 133.5,-1597 338.5,-1597 338.5,-1597 133.5,-1597"/>
<polygon fill="#666666" stroke="#666666" points="133.5,-1582 133.5,-1582 338.5,-1582 338.5,-1582 133.5,-1582"/>
<polygon fill="none" stroke="#666666" points="133,-1393 133,-1625 338,-1625 338,-1393 133,-1393"/>
</a>
</g>
</g>
<!-- Node4&#45;&gt;Node3 -->
<g id="edge3_Node000003_Node000004" class="edge">
<title>Node4&#45;&gt;Node3</title>
<g id="a_edge3_Node000003_Node000004"><a xlink:title=" ">
<path fill="none" stroke="#63b8ff" d="M235.5,-1382.43C235.5,-1270.91 235.5,-1108.09 235.5,-992"/>
<polygon fill="none" stroke="#63b8ff" points="232,-1382.72 235.5,-1392.72 239,-1382.72 232,-1382.72"/>
</a>
</g>
</g>
<!-- Node8 -->
<g id="Node000008" class="node">
<title>Node8</title>
<g id="a_Node000008"><a xlink:href="classAbstractParameterisedSystem.html" target="_top" xlink:title=" ">
<polygon fill="white" stroke="transparent" points="177,-1335 0,-1335 0,-1050 177,-1050 177,-1335"/>
<text text-anchor="start" x="15" y="-1322.5" font-family="Helvetica,sans-Serif" font-size="10.00">AbstractParameterisedSystem</text>
<text text-anchor="start" x="57.5" y="-1311.5" font-family="Helvetica,sans-Serif" font-size="10.00">&lt; VECTOR &gt;</text>
<text text-anchor="start" x="87" y="-1296.5" font-family="Helvetica,sans-Serif" font-size="10.00"> </text>
<text text-anchor="start" x="4.5" y="-1281.5" font-family="Helvetica,sans-Serif" font-size="10.00">+</text>
<text text-anchor="start" x="17.5" y="-1281.5" font-family="Helvetica,sans-Serif" font-size="10.00">AbstractParameterisedSystem()</text>
<text text-anchor="start" x="4.5" y="-1266.5" font-family="Helvetica,sans-Serif" font-size="10.00">+</text>
<text text-anchor="start" x="17.5" y="-1266.5" font-family="Helvetica,sans-Serif" font-size="10.00">rGetStateVariables()</text>
<text text-anchor="start" x="4.5" y="-1251.5" font-family="Helvetica,sans-Serif" font-size="10.00">+</text>
<text text-anchor="start" x="17.5" y="-1251.5" font-family="Helvetica,sans-Serif" font-size="10.00">GetStateVariables()</text>
<text text-anchor="start" x="4.5" y="-1236.5" font-family="Helvetica,sans-Serif" font-size="10.00">+</text>
<text text-anchor="start" x="17.5" y="-1236.5" font-family="Helvetica,sans-Serif" font-size="10.00">SetStateVariables()</text>
<text text-anchor="start" x="4.5" y="-1221.5" font-family="Helvetica,sans-Serif" font-size="10.00">+</text>
<text text-anchor="start" x="17.5" y="-1221.5" font-family="Helvetica,sans-Serif" font-size="10.00">GetStateVariable()</text>
<text text-anchor="start" x="4.5" y="-1206.5" font-family="Helvetica,sans-Serif" font-size="10.00">+</text>
<text text-anchor="start" x="17.5" y="-1206.5" font-family="Helvetica,sans-Serif" font-size="10.00">GetStateVariable()</text>
<text text-anchor="start" x="4.5" y="-1191.5" font-family="Helvetica,sans-Serif" font-size="10.00">+</text>
<text text-anchor="start" x="17.5" y="-1191.5" font-family="Helvetica,sans-Serif" font-size="10.00">SetStateVariable()</text>
<text text-anchor="start" x="4.5" y="-1176.5" font-family="Helvetica,sans-Serif" font-size="10.00">+</text>
<text text-anchor="start" x="17.5" y="-1176.5" font-family="Helvetica,sans-Serif" font-size="10.00">SetStateVariable()</text>
<text text-anchor="start" x="4.5" y="-1161.5" font-family="Helvetica,sans-Serif" font-size="10.00">+</text>
<text text-anchor="start" x="17.5" y="-1161.5" font-family="Helvetica,sans-Serif" font-size="10.00">VerifyStateVariables()</text>
<text text-anchor="start" x="4.5" y="-1146.5" font-family="Helvetica,sans-Serif" font-size="10.00">+</text>
<text text-anchor="start" x="17.5" y="-1146.5" font-family="Helvetica,sans-Serif" font-size="10.00">SetDefaultInitialConditions()</text>
<text text-anchor="start" x="17.5" y="-1131.5" font-family="Helvetica,sans-Serif" font-size="10.00">and 13 more...</text>
<text text-anchor="start" x="4.5" y="-1116.5" font-family="Helvetica,sans-Serif" font-size="10.00">#</text>
<text text-anchor="start" x="17.5" y="-1116.5" font-family="Helvetica,sans-Serif" font-size="10.00">DumpState()</text>
<text text-anchor="start" x="4.5" y="-1101.5" font-family="Helvetica,sans-Serif" font-size="10.00">#</text>
<text text-anchor="start" x="17.5" y="-1101.5" font-family="Helvetica,sans-Serif" font-size="10.00">DumpState()</text>
<text text-anchor="start" x="4.5" y="-1086.5" font-family="Helvetica,sans-Serif" font-size="10.00">#</text>
<text text-anchor="start" x="17.5" y="-1086.5" font-family="Helvetica,sans-Serif" font-size="10.00">DumpState()</text>
<text text-anchor="start" x="4.5" y="-1071.5" font-family="Helvetica,sans-Serif" font-size="10.00">#</text>
<text text-anchor="start" x="17.5" y="-1071.5" font-family="Helvetica,sans-Serif" font-size="10.00">CheckParametersOnLoad()</text>
<text text-anchor="start" x="7" y="-1056.5" font-family="Helvetica,sans-Serif" font-size="10.00">&#45;</text>
<text text-anchor="start" x="17.5" y="-1056.5" font-family="Helvetica,sans-Serif" font-size="10.00">GetStateMessage()</text>
<polygon fill="#666666" stroke="#666666" points="0.5,-1306.5 0.5,-1306.5 177.5,-1306.5 177.5,-1306.5 0.5,-1306.5"/>
<polygon fill="#666666" stroke="#666666" points="0.5,-1291.5 0.5,-1291.5 177.5,-1291.5 177.5,-1291.5 0.5,-1291.5"/>
<polygon fill="none" stroke="#666666" points="0,-1050 0,-1335 177,-1335 177,-1050 0,-1050"/>
</a>
</g>
</g>
<!-- Node4&#45;&gt;Node8 -->
<g id="edge8_Node000008_Node000004" class="edge">
<title>Node4&#45;&gt;Node8</title>
<g id="a_edge8_Node000008_Node000004"><a xlink:title=" ">
<path fill="none" stroke="#63b8ff" d="M194.41,-1383.23C190.29,-1372.9 185.97,-1362.71 181.5,-1353 178.82,-1347.18 175.99,-1341.29 173.05,-1335.39"/>
<polygon fill="none" stroke="#63b8ff" points="191.23,-1384.7 198.13,-1392.74 197.75,-1382.15 191.23,-1384.7"/>
</a>
</g>
</g>
<!-- Node5 -->
<g id="Node000005" class="node">
<title>Node5</title>
<g id="a_Node000005"><a xlink:href="classunsigned.html" target="_top" xlink:title=" ">
<polygon fill="white" stroke="transparent" points="180,-1726.5 125,-1726.5 125,-1677.5 180,-1677.5 180,-1726.5"/>
<text text-anchor="start" x="130.5" y="-1714" font-family="Helvetica,sans-Serif" font-size="10.00">unsigned</text>
<text text-anchor="start" x="151" y="-1699" font-family="Helvetica,sans-Serif" font-size="10.00"> </text>
<text text-anchor="start" x="151" y="-1684" font-family="Helvetica,sans-Serif" font-size="10.00"> </text>
<polygon fill="#bfbfbf" stroke="#bfbfbf" points="125.5,-1709 125.5,-1709 180.5,-1709 180.5,-1709 125.5,-1709"/>
<polygon fill="#bfbfbf" stroke="#bfbfbf" points="125.5,-1694 125.5,-1694 180.5,-1694 180.5,-1694 125.5,-1694"/>
<polygon fill="none" stroke="#bfbfbf" points="125,-1677.5 125,-1726.5 180,-1726.5 180,-1677.5 125,-1677.5"/>
</a>
</g>
</g>
<!-- Node5&#45;&gt;Node4 -->
<g id="edge4_Node000004_Node000005" class="edge">
<title>Node5&#45;&gt;Node4</title>
<g id="a_edge4_Node000004_Node000005"><a xlink:title=" ">
<path fill="none" stroke="#63b8ff" d="M147.75,-1677.44C146.49,-1666.73 146.25,-1654.02 149.5,-1643 150.13,-1640.87 150.8,-1638.74 151.52,-1636.61"/>
<polygon fill="none" stroke="#63b8ff" points="151.55,-1636.53 149.9,-1629.51 155.75,-1625.29 157.4,-1632.31 151.55,-1636.53"/>
</a>
</g>
<text text-anchor="middle" x="220.5" y="-1646" font-family="Helvetica,sans-Serif" font-size="10.00" fill="grey"> #mNumberOfStateVariables</text>
</g>
<!-- Node6 -->
<g id="Node000006" class="node">
<title>Node6</title>
<g id="a_Node000006"><a xlink:title=" ">
<polygon fill="white" stroke="transparent" points="402.5,-1732 232.5,-1732 232.5,-1672 402.5,-1672 402.5,-1732"/>
<text text-anchor="start" x="237.5" y="-1720" font-family="Helvetica,sans-Serif" font-size="10.00">shared_ptr&lt; AbstractOdeSystem</text>
<text text-anchor="start" x="283" y="-1709" font-family="Helvetica,sans-Serif" font-size="10.00">Information &gt;</text>
<text text-anchor="start" x="315.5" y="-1694" font-family="Helvetica,sans-Serif" font-size="10.00"> </text>
<text text-anchor="start" x="315.5" y="-1679" font-family="Helvetica,sans-Serif" font-size="10.00"> </text>
<polygon fill="#bfbfbf" stroke="#bfbfbf" points="232.5,-1704 232.5,-1704 402.5,-1704 402.5,-1704 232.5,-1704"/>
<polygon fill="#bfbfbf" stroke="#bfbfbf" points="232.5,-1689 232.5,-1689 402.5,-1689 402.5,-1689 232.5,-1689"/>
<polygon fill="none" stroke="#bfbfbf" points="232.5,-1672 232.5,-1732 402.5,-1732 402.5,-1672 232.5,-1672"/>
</a>
</g>
</g>
<!-- Node6&#45;&gt;Node4 -->
<g id="edge5_Node000004_Node000006" class="edge">
<title>Node6&#45;&gt;Node4</title>
<g id="a_edge5_Node000004_Node000006"><a xlink:title=" ">
<path fill="none" stroke="#63b8ff" d="M306.88,-1671.95C303.37,-1662.65 299.38,-1652.35 295.5,-1643 294.59,-1640.81 293.67,-1638.6 292.73,-1636.37"/>
<polygon fill="none" stroke="#63b8ff" points="292.66,-1636.2 286.63,-1632.24 287.97,-1625.15 294,-1629.11 292.66,-1636.2"/>
</a>
</g>
<text text-anchor="middle" x="341" y="-1646" font-family="Helvetica,sans-Serif" font-size="10.00" fill="grey"> #mpSystemInfo</text>
</g>
<!-- Node7 -->
<g id="Node000007" class="node">
<title>Node7</title>
<g id="a_Node000007"><a xlink:title=" ">
<polygon fill="white" stroke="transparent" points="361,-1217 264,-1217 264,-1168 361,-1168 361,-1217"/>
<text text-anchor="start" x="269.5" y="-1204.5" font-family="Helvetica,sans-Serif" font-size="10.00">vector&lt; double &gt;</text>
<text text-anchor="start" x="311" y="-1189.5" font-family="Helvetica,sans-Serif" font-size="10.00"> </text>
<text text-anchor="start" x="311" y="-1174.5" font-family="Helvetica,sans-Serif" font-size="10.00"> </text>
<polygon fill="#bfbfbf" stroke="#bfbfbf" points="264.5,-1199.5 264.5,-1199.5 361.5,-1199.5 361.5,-1199.5 264.5,-1199.5"/>
<polygon fill="#bfbfbf" stroke="#bfbfbf" points="264.5,-1184.5 264.5,-1184.5 361.5,-1184.5 361.5,-1184.5 264.5,-1184.5"/>
<polygon fill="none" stroke="#bfbfbf" points="264,-1168 264,-1217 361,-1217 361,-1168 264,-1168"/>
</a>
</g>
</g>
<!-- Node7&#45;&gt;Node3 -->
<g id="edge6_Node000003_Node000007" class="edge">
<title>Node7&#45;&gt;Node3</title>
<g id="a_edge6_Node000003_Node000007"><a xlink:title=" ">
<path fill="none" stroke="#63b8ff" d="M307.15,-1167.79C299.39,-1133.45 284.4,-1067.05 270.12,-1003.83"/>
<polygon fill="none" stroke="#63b8ff" points="270.11,-1003.77 264.89,-998.8 267.47,-992.07 272.69,-997.04 270.11,-1003.77"/>
</a>
</g>
<text text-anchor="middle" x="321" y="-1024" font-family="Helvetica,sans-Serif" font-size="10.00" fill="grey"> #mParameters</text>
<text text-anchor="middle" x="321" y="-1013" font-family="Helvetica,sans-Serif" font-size="10.00" fill="grey">#mStateVariables</text>
</g>
<!-- Node8&#45;&gt;Node3 -->
<g id="edge7_Node000003_Node000008" class="edge">
<title>Node8&#45;&gt;Node3</title>
<g id="a_edge7_Node000003_Node000008"><a xlink:title=" ">
<path fill="none" stroke="orange" d="M79.97,-1039.93C81.98,-1029.63 84.76,-1019.56 88.5,-1010 101.03,-977.9 123.39,-948.38 146.94,-923.68"/>
<polygon fill="orange" stroke="orange" points="76.5,-1039.41 78.26,-1049.85 83.4,-1040.59 76.5,-1039.41"/>
</a>
</g>
<text text-anchor="middle" x="155" y="-1018.5" font-family="Helvetica,sans-Serif" font-size="10.00" fill="grey"> &lt; std::vector&lt; double &gt; &gt;</text>
</g>
<!-- Node9 -->
<g id="Node000009" class="node">
<title>Node9</title>
<g id="a_Node000009"><a xlink:title=" ">
<polygon fill="white" stroke="transparent" points="113.5,-1533.5 63.5,-1533.5 63.5,-1484.5 113.5,-1484.5 113.5,-1533.5"/>
<text text-anchor="start" x="68.5" y="-1521" font-family="Helvetica,sans-Serif" font-size="10.00">VECTOR</text>
<text text-anchor="start" x="86.5" y="-1506" font-family="Helvetica,sans-Serif" font-size="10.00"> </text>
<text text-anchor="start" x="86.5" y="-1491" font-family="Helvetica,sans-Serif" font-size="10.00"> </text>
<polygon fill="#bfbfbf" stroke="#bfbfbf" points="63.5,-1516 63.5,-1516 113.5,-1516 113.5,-1516 63.5,-1516"/>
<polygon fill="#bfbfbf" stroke="#bfbfbf" points="63.5,-1501 63.5,-1501 113.5,-1501 113.5,-1501 63.5,-1501"/>
<polygon fill="none" stroke="#bfbfbf" points="63.5,-1484.5 63.5,-1533.5 113.5,-1533.5 113.5,-1484.5 63.5,-1484.5"/>
</a>
</g>
</g>
<!-- Node9&#45;&gt;Node8 -->
<g id="edge9_Node000008_Node000009" class="edge">
<title>Node9&#45;&gt;Node8</title>
<g id="a_edge9_Node000008_Node000009"><a xlink:title=" ">
<path fill="none" stroke="#63b8ff" d="M88.5,-1484.36C88.5,-1454.55 88.5,-1400.7 88.5,-1347.38"/>
<polygon fill="none" stroke="#63b8ff" points="88.5,-1347.3 84.5,-1341.3 88.5,-1335.3 92.5,-1341.3 88.5,-1347.3"/>
</a>
</g>
<text text-anchor="middle" x="133" y="-1367" font-family="Helvetica,sans-Serif" font-size="10.00" fill="grey"> #mParameters</text>
<text text-anchor="middle" x="133" y="-1356" font-family="Helvetica,sans-Serif" font-size="10.00" fill="grey">#mStateVariables</text>
</g>
<!-- Node10 -->
<g id="Node000010" class="node">
<title>Node10</title>
<g id="a_Node000010"><a xlink:href="classbool.html" target="_top" xlink:title=" ">
<polygon fill="white" stroke="transparent" points="373.5,-874 341.5,-874 341.5,-825 373.5,-825 373.5,-874"/>
<text text-anchor="start" x="346.5" y="-861.5" font-family="Helvetica,sans-Serif" font-size="10.00">bool</text>
<text text-anchor="start" x="355.5" y="-846.5" font-family="Helvetica,sans-Serif" font-size="10.00"> </text>
<text text-anchor="start" x="355.5" y="-831.5" font-family="Helvetica,sans-Serif" font-size="10.00"> </text>
<polygon fill="#bfbfbf" stroke="#bfbfbf" points="341.5,-856.5 341.5,-856.5 373.5,-856.5 373.5,-856.5 341.5,-856.5"/>
<polygon fill="#bfbfbf" stroke="#bfbfbf" points="341.5,-841.5 341.5,-841.5 373.5,-841.5 373.5,-841.5 341.5,-841.5"/>
<polygon fill="none" stroke="#bfbfbf" points="341.5,-825 341.5,-874 373.5,-874 373.5,-825 341.5,-825"/>
</a>
</g>
</g>
<!-- Node10&#45;&gt;Node2 -->
<g id="edge10_Node000002_Node000010" class="edge">
<title>Node10&#45;&gt;Node2</title>
<g id="a_edge10_Node000002_Node000010"><a xlink:title=" ">
<path fill="none" stroke="#63b8ff" d="M354.02,-824.83C349.71,-796.62 341.78,-748.12 332.5,-707 329.92,-695.57 326.98,-683.63 323.91,-671.83"/>
<polygon fill="none" stroke="#63b8ff" points="323.88,-671.7 318.48,-666.92 320.82,-660.1 326.22,-664.88 323.88,-671.7"/>
</a>
</g>
<text text-anchor="middle" x="388" y="-681" font-family="Helvetica,sans-Serif" font-size="10.00" fill="grey"> #mUseAnalyticJacobian</text>
</g>
<!-- Node11 -->
<g id="Node000011" class="node">
<title>Node11</title>
<g id="a_Node000011"><a xlink:href="classdouble.html" target="_top" xlink:title=" ">
<polygon fill="white" stroke="transparent" points="432.5,-600 388.5,-600 388.5,-551 432.5,-551 432.5,-600"/>
<text text-anchor="start" x="393.5" y="-587.5" font-family="Helvetica,sans-Serif" font-size="10.00">double</text>
<text text-anchor="start" x="408.5" y="-572.5" font-family="Helvetica,sans-Serif" font-size="10.00"> </text>
<text text-anchor="start" x="408.5" y="-557.5" font-family="Helvetica,sans-Serif" font-size="10.00"> </text>
<polygon fill="#bfbfbf" stroke="#bfbfbf" points="388.5,-582.5 388.5,-582.5 432.5,-582.5 432.5,-582.5 388.5,-582.5"/>
<polygon fill="#bfbfbf" stroke="#bfbfbf" points="388.5,-567.5 388.5,-567.5 432.5,-567.5 432.5,-567.5 388.5,-567.5"/>
<polygon fill="none" stroke="#bfbfbf" points="388.5,-551 388.5,-600 432.5,-600 432.5,-551 388.5,-551"/>
</a>
</g>
</g>
<!-- Node11&#45;&gt;Node1 -->
<g id="edge11_Node000001_Node000011" class="edge">
<title>Node11&#45;&gt;Node1</title>
<g id="a_edge11_Node000001_Node000011"><a xlink:title=" ">
<path fill="none" stroke="#63b8ff" d="M410.5,-550.89C410.5,-510.8 410.5,-425.99 410.5,-346.36"/>
<polygon fill="none" stroke="#63b8ff" points="410.5,-346.15 406.5,-340.15 410.5,-334.15 414.5,-340.15 410.5,-346.15"/>
</a>
</g>
<text text-anchor="middle" x="440.5" y="-465" font-family="Helvetica,sans-Serif" font-size="10.00" fill="grey"> &#45;mJ11d</text>
<text text-anchor="middle" x="440.5" y="-454" font-family="Helvetica,sans-Serif" font-size="10.00" fill="grey">&#45;mJ12d</text>
<text text-anchor="middle" x="440.5" y="-443" font-family="Helvetica,sans-Serif" font-size="10.00" fill="grey">&#45;mJ13d</text>
<text text-anchor="middle" x="440.5" y="-432" font-family="Helvetica,sans-Serif" font-size="10.00" fill="grey">&#45;mJ61d</text>
<text text-anchor="middle" x="440.5" y="-421" font-family="Helvetica,sans-Serif" font-size="10.00" fill="grey">&#45;mJ62d</text>
<text text-anchor="middle" x="440.5" y="-410" font-family="Helvetica,sans-Serif" font-size="10.00" fill="grey">&#45;mJ63d</text>
<text text-anchor="middle" x="440.5" y="-399" font-family="Helvetica,sans-Serif" font-size="10.00" fill="grey">&#45;mKm1d</text>
<text text-anchor="middle" x="440.5" y="-388" font-family="Helvetica,sans-Serif" font-size="10.00" fill="grey">&#45;mPhiE2F1</text>
<text text-anchor="middle" x="440.5" y="-377" font-family="Helvetica,sans-Serif" font-size="10.00" fill="grey">&#45;mWntLevel</text>
<text text-anchor="middle" x="440.5" y="-366" font-family="Helvetica,sans-Serif" font-size="10.00" fill="grey">&#45;ma2d</text>
<text text-anchor="middle" x="440.5" y="-355" font-family="Helvetica,sans-Serif" font-size="10.00" fill="grey">...</text>
</g>
<!-- Node12 -->
<g id="Node000012" class="node">
<title>Node12</title>
<g id="a_Node000012"><a xlink:title=" ">
<polygon fill="white" stroke="transparent" points="584,-605.5 451,-605.5 451,-545.5 584,-545.5 584,-605.5"/>
<text text-anchor="start" x="456.5" y="-593.5" font-family="Helvetica,sans-Serif" font-size="10.00">shared_ptr&lt; AbstractCell</text>
<text text-anchor="start" x="477.5" y="-582.5" font-family="Helvetica,sans-Serif" font-size="10.00">MutationState &gt;</text>
<text text-anchor="start" x="516" y="-567.5" font-family="Helvetica,sans-Serif" font-size="10.00"> </text>
<text text-anchor="start" x="516" y="-552.5" font-family="Helvetica,sans-Serif" font-size="10.00"> </text>
<polygon fill="#bfbfbf" stroke="#bfbfbf" points="451.5,-577.5 451.5,-577.5 584.5,-577.5 584.5,-577.5 451.5,-577.5"/>
<polygon fill="#bfbfbf" stroke="#bfbfbf" points="451.5,-562.5 451.5,-562.5 584.5,-562.5 584.5,-562.5 451.5,-562.5"/>
<polygon fill="none" stroke="#bfbfbf" points="451,-545.5 451,-605.5 584,-605.5 584,-545.5 451,-545.5"/>
</a>
</g>
</g>
<!-- Node12&#45;&gt;Node1 -->
<g id="edge12_Node000001_Node000012" class="edge">
<title>Node12&#45;&gt;Node1</title>
<g id="a_edge12_Node000001_Node000012"><a xlink:title=" ">
<path fill="none" stroke="#63b8ff" d="M513.25,-545.4C506.68,-502.6 492.9,-420.39 474.5,-352 473.96,-349.98 473.4,-347.95 472.84,-345.91"/>
<polygon fill="none" stroke="#63b8ff" points="472.78,-345.7 467.29,-341.02 469.49,-334.16 474.98,-338.83 472.78,-345.7"/>
</a>
</g>
<text text-anchor="middle" x="546.5" y="-410" font-family="Helvetica,sans-Serif" font-size="10.00" fill="grey"> &#45;mpMutationState</text>
</g>
</g>
</svg>
