<?xml version="1.0" encoding="UTF-8" standalone="no"?>
<!DOCTYPE svg PUBLIC "-//W3C//DTD SVG 1.1//EN"
 "http://www.w3.org/Graphics/SVG/1.1/DTD/svg11.dtd">
<!-- Generated by graphviz version 2.43.0 (0)
 -->
<!-- Title: AbstractCellPopulationWriter&lt; ELEMENT_DIM, SPACE_DIM &gt; Pages: 1 -->
<svg width="504pt" height="1014pt"
 viewBox="0.00 0.00 504.00 1014.00" xmlns="http://www.w3.org/2000/svg" xmlns:xlink="http://www.w3.org/1999/xlink">
<g id="graph0" class="graph" transform="scale(1 1) rotate(0) translate(4 1010)">
<title>AbstractCellPopulationWriter&lt; ELEMENT_DIM, SPACE_DIM &gt;</title>
<!-- Node1 -->
<g id="Node000001" class="node">
<title>Node1</title>
<g id="a_Node000001"><a xlink:title=" ">
<polygon fill="#999999" stroke="transparent" points="309,-165 139,-165 139,0 309,0 309,-165"/>
<text text-anchor="start" x="146.5" y="-152.5" font-family="Helvetica,sans-Serif" font-size="10.00">AbstractCellPopulationWriter</text>
<text text-anchor="start" x="146.5" y="-141.5" font-family="Helvetica,sans-Serif" font-size="10.00">&lt; ELEMENT_DIM, SPACE_DIM &gt;</text>
<text text-anchor="start" x="222" y="-126.5" font-family="Helvetica,sans-Serif" font-size="10.00"> </text>
<text text-anchor="start" x="143" y="-111.5" font-family="Helvetica,sans-Serif" font-size="10.00">+</text>
<text text-anchor="start" x="156" y="-111.5" font-family="Helvetica,sans-Serif" font-size="10.00">AbstractCellPopulationWriter()</text>
<text text-anchor="start" x="143" y="-96.5" font-family="Helvetica,sans-Serif" font-size="10.00">+</text>
<text text-anchor="start" x="156" y="-96.5" font-family="Helvetica,sans-Serif" font-size="10.00">WriteHeader()</text>
<text text-anchor="start" x="143" y="-81.5" font-family="Helvetica,sans-Serif" font-size="10.00">+</text>
<text text-anchor="start" x="156" y="-81.5" font-family="Helvetica,sans-Serif" font-size="10.00">Visit()</text>
<text text-anchor="start" x="143" y="-66.5" font-family="Helvetica,sans-Serif" font-size="10.00">+</text>
<text text-anchor="start" x="156" y="-66.5" font-family="Helvetica,sans-Serif" font-size="10.00">Visit()</text>
<text text-anchor="start" x="143" y="-51.5" font-family="Helvetica,sans-Serif" font-size="10.00">+</text>
<text text-anchor="start" x="156" y="-51.5" font-family="Helvetica,sans-Serif" font-size="10.00">Visit()</text>
<text text-anchor="start" x="143" y="-36.5" font-family="Helvetica,sans-Serif" font-size="10.00">+</text>
<text text-anchor="start" x="156" y="-36.5" font-family="Helvetica,sans-Serif" font-size="10.00">Visit()</text>
<text text-anchor="start" x="143" y="-21.5" font-family="Helvetica,sans-Serif" font-size="10.00">+</text>
<text text-anchor="start" x="156" y="-21.5" font-family="Helvetica,sans-Serif" font-size="10.00">Visit()</text>
<text text-anchor="start" x="145.5" y="-6.5" font-family="Helvetica,sans-Serif" font-size="10.00">&#45;</text>
<text text-anchor="start" x="156" y="-6.5" font-family="Helvetica,sans-Serif" font-size="10.00">serialize()</text>
<polygon fill="#666666" stroke="#666666" points="139,-136.5 139,-136.5 309,-136.5 309,-136.5 139,-136.5"/>
<polygon fill="#666666" stroke="#666666" points="139,-121.5 139,-121.5 309,-121.5 309,-121.5 139,-121.5"/>
<polygon fill="none" stroke="#666666" points="139,0 139,-165 309,-165 309,0 139,0"/>
</a>
</g>
</g>
<!-- Node2 -->
<g id="Node000002" class="node">
<title>Node2</title>
<g id="a_Node000002"><a xlink:href="classAbstractCellBasedWriter.html" target="_top" xlink:title=" ">
<polygon fill="white" stroke="transparent" points="306.5,-397 141.5,-397 141.5,-202 306.5,-202 306.5,-397"/>
<text text-anchor="start" x="147" y="-384.5" font-family="Helvetica,sans-Serif" font-size="10.00">AbstractCellBasedWriter</text>
<text text-anchor="start" x="147" y="-373.5" font-family="Helvetica,sans-Serif" font-size="10.00">&lt; ELEMENT_DIM, SPACE_DIM &gt;</text>
<text text-anchor="start" x="222.5" y="-358.5" font-family="Helvetica,sans-Serif" font-size="10.00"> </text>
<text text-anchor="start" x="148" y="-343.5" font-family="Helvetica,sans-Serif" font-size="10.00">+</text>
<text text-anchor="start" x="163" y="-343.5" font-family="Helvetica,sans-Serif" font-size="10.00">AbstractCellBasedWriter()</text>
<text text-anchor="start" x="148" y="-328.5" font-family="Helvetica,sans-Serif" font-size="10.00">+</text>
<text text-anchor="start" x="163" y="-328.5" font-family="Helvetica,sans-Serif" font-size="10.00">~AbstractCellBasedWriter()</text>
<text text-anchor="start" x="148" y="-313.5" font-family="Helvetica,sans-Serif" font-size="10.00">+</text>
<text text-anchor="start" x="163" y="-313.5" font-family="Helvetica,sans-Serif" font-size="10.00">CloseFile()</text>
<text text-anchor="start" x="148" y="-298.5" font-family="Helvetica,sans-Serif" font-size="10.00">+</text>
<text text-anchor="start" x="163" y="-298.5" font-family="Helvetica,sans-Serif" font-size="10.00">OpenOutputFile()</text>
<text text-anchor="start" x="148" y="-283.5" font-family="Helvetica,sans-Serif" font-size="10.00">+</text>
<text text-anchor="start" x="163" y="-283.5" font-family="Helvetica,sans-Serif" font-size="10.00">OpenOutputFileForAppend()</text>
<text text-anchor="start" x="148" y="-268.5" font-family="Helvetica,sans-Serif" font-size="10.00">+</text>
<text text-anchor="start" x="163" y="-268.5" font-family="Helvetica,sans-Serif" font-size="10.00">WriteTimeStamp()</text>
<text text-anchor="start" x="148" y="-253.5" font-family="Helvetica,sans-Serif" font-size="10.00">+</text>
<text text-anchor="start" x="163" y="-253.5" font-family="Helvetica,sans-Serif" font-size="10.00">WriteNewline()</text>
<text text-anchor="start" x="148" y="-238.5" font-family="Helvetica,sans-Serif" font-size="10.00">+</text>
<text text-anchor="start" x="163" y="-238.5" font-family="Helvetica,sans-Serif" font-size="10.00">SetFileName()</text>
<text text-anchor="start" x="148" y="-223.5" font-family="Helvetica,sans-Serif" font-size="10.00">+</text>
<text text-anchor="start" x="163" y="-223.5" font-family="Helvetica,sans-Serif" font-size="10.00">GetFileName()</text>
<text text-anchor="start" x="150.5" y="-208.5" font-family="Helvetica,sans-Serif" font-size="10.00">&#45;</text>
<text text-anchor="start" x="163" y="-208.5" font-family="Helvetica,sans-Serif" font-size="10.00">serialize()</text>
<polygon fill="#666666" stroke="#666666" points="142,-368.5 142,-368.5 307,-368.5 307,-368.5 142,-368.5"/>
<polygon fill="#666666" stroke="#666666" points="142,-353.5 142,-353.5 307,-353.5 307,-353.5 142,-353.5"/>
<polygon fill="none" stroke="#666666" points="141.5,-202 141.5,-397 306.5,-397 306.5,-202 141.5,-202"/>
</a>
</g>
</g>
<!-- Node2&#45;&gt;Node1 -->
<g id="edge1_Node000001_Node000002" class="edge">
<title>Node2&#45;&gt;Node1</title>
<g id="a_edge1_Node000001_Node000002"><a xlink:title=" ">
<path fill="none" stroke="#63b8ff" d="M224,-191.41C224,-182.64 224,-173.87 224,-165.32"/>
<polygon fill="none" stroke="#63b8ff" points="220.5,-191.69 224,-201.69 227.5,-191.69 220.5,-191.69"/>
</a>
</g>
</g>
<!-- Node3 -->
<g id="Node000003" class="node">
<title>Node3</title>
<g id="a_Node000003"><a xlink:href="classIdentifiable.html" target="_top" xlink:title=" ">
<polygon fill="white" stroke="transparent" points="176,-523 0,-523 0,-444 176,-444 176,-523"/>
<text text-anchor="start" x="60.5" y="-510.5" font-family="Helvetica,sans-Serif" font-size="10.00">Identifiable</text>
<text text-anchor="start" x="86" y="-495.5" font-family="Helvetica,sans-Serif" font-size="10.00"> </text>
<text text-anchor="start" x="4" y="-480.5" font-family="Helvetica,sans-Serif" font-size="10.00">+</text>
<text text-anchor="start" x="17" y="-480.5" font-family="Helvetica,sans-Serif" font-size="10.00">~Identifiable()</text>
<text text-anchor="start" x="4" y="-465.5" font-family="Helvetica,sans-Serif" font-size="10.00">+</text>
<text text-anchor="start" x="17" y="-465.5" font-family="Helvetica,sans-Serif" font-size="10.00">GetIdentifier()</text>
<text text-anchor="start" x="6.5" y="-450.5" font-family="Helvetica,sans-Serif" font-size="10.00">&#45;</text>
<text text-anchor="start" x="17" y="-450.5" font-family="Helvetica,sans-Serif" font-size="10.00">TidyTemplatedExportIdentifier()</text>
<polygon fill="#666666" stroke="#666666" points="0,-505.5 0,-505.5 176,-505.5 176,-505.5 0,-505.5"/>
<polygon fill="#666666" stroke="#666666" points="0,-490.5 0,-490.5 176,-490.5 176,-490.5 0,-490.5"/>
<polygon fill="none" stroke="#666666" points="0,-444 0,-523 176,-523 176,-444 0,-444"/>
</a>
</g>
</g>
<!-- Node3&#45;&gt;Node2 -->
<g id="edge2_Node000002_Node000003" class="edge">
<title>Node3&#45;&gt;Node2</title>
<g id="a_edge2_Node000002_Node000003"><a xlink:title=" ">
<path fill="none" stroke="#63b8ff" d="M122.86,-435.85C131.8,-423.89 141.75,-410.57 151.82,-397.09"/>
<polygon fill="none" stroke="#63b8ff" points="120.02,-433.8 116.84,-443.9 125.63,-437.99 120.02,-433.8"/>
</a>
</g>
</g>
<!-- Node4 -->
<g id="Node000004" class="node">
<title>Node4</title>
<g id="a_Node000004"><a xlink:title=" ">
<polygon fill="white" stroke="transparent" points="253.5,-508 194.5,-508 194.5,-459 253.5,-459 253.5,-508"/>
<text text-anchor="start" x="200" y="-495.5" font-family="Helvetica,sans-Serif" font-size="10.00">std::string</text>
<text text-anchor="start" x="222.5" y="-480.5" font-family="Helvetica,sans-Serif" font-size="10.00"> </text>
<text text-anchor="start" x="222.5" y="-465.5" font-family="Helvetica,sans-Serif" font-size="10.00"> </text>
<polygon fill="#666666" stroke="#666666" points="195,-490.5 195,-490.5 254,-490.5 254,-490.5 195,-490.5"/>
<polygon fill="#666666" stroke="#666666" points="195,-475.5 195,-475.5 254,-475.5 254,-475.5 195,-475.5"/>
<polygon fill="none" stroke="#666666" points="194.5,-459 194.5,-508 253.5,-508 253.5,-459 194.5,-459"/>
</a>
</g>
</g>
<!-- Node4&#45;&gt;Node2 -->
<g id="edge3_Node000002_Node000004" class="edge">
<title>Node4&#45;&gt;Node2</title>
<g id="a_edge3_Node000002_Node000004"><a xlink:title=" ">
<path fill="none" stroke="#63b8ff" d="M224,-458.71C224,-445.44 224,-427.88 224,-409.28"/>
<polygon fill="none" stroke="#63b8ff" points="224,-409.27 220,-403.27 224,-397.27 228,-403.27 224,-409.27"/>
</a>
</g>
<text text-anchor="middle" x="258" y="-418" font-family="Helvetica,sans-Serif" font-size="10.00" fill="grey"> #mFileName</text>
</g>
<!-- Node5 -->
<g id="Node000005" class="node">
<title>Node5</title>
<g id="a_Node000005"><a xlink:title=" ">
<polygon fill="white" stroke="transparent" points="272,-630 174,-630 174,-570 272,-570 272,-630"/>
<text text-anchor="start" x="179" y="-618" font-family="Helvetica,sans-Serif" font-size="10.00">std::basic_string&lt;</text>
<text text-anchor="start" x="204.5" y="-607" font-family="Helvetica,sans-Serif" font-size="10.00"> Char &gt;</text>
<text text-anchor="start" x="221" y="-592" font-family="Helvetica,sans-Serif" font-size="10.00"> </text>
<text text-anchor="start" x="221" y="-577" font-family="Helvetica,sans-Serif" font-size="10.00"> </text>
<polygon fill="#666666" stroke="#666666" points="174,-602 174,-602 272,-602 272,-602 174,-602"/>
<polygon fill="#666666" stroke="#666666" points="174,-587 174,-587 272,-587 272,-587 174,-587"/>
<polygon fill="none" stroke="#666666" points="174,-570 174,-630 272,-630 272,-570 174,-570"/>
</a>
</g>
</g>
<!-- Node5&#45;&gt;Node4 -->
<g id="edge4_Node000004_Node000005" class="edge">
<title>Node5&#45;&gt;Node4</title>
<g id="a_edge4_Node000004_Node000005"><a xlink:title=" ">
<path fill="none" stroke="#63b8ff" d="M223.34,-559.54C223.49,-542.47 223.66,-523.05 223.79,-508.24"/>
<polygon fill="none" stroke="#63b8ff" points="219.84,-559.78 223.25,-569.81 226.84,-559.84 219.84,-559.78"/>
</a>
</g>
</g>
<!-- Node6 -->
<g id="Node000006" class="node">
<title>Node6</title>
<g id="a_Node000006"><a xlink:title=" ">
<polygon fill="white" stroke="transparent" points="383,-513.5 273,-513.5 273,-453.5 383,-453.5 383,-513.5"/>
<text text-anchor="start" x="278" y="-501.5" font-family="Helvetica,sans-Serif" font-size="10.00">std::shared_ptr&lt; std</text>
<text text-anchor="start" x="297" y="-490.5" font-family="Helvetica,sans-Serif" font-size="10.00">::ofstream &gt;</text>
<text text-anchor="start" x="326" y="-475.5" font-family="Helvetica,sans-Serif" font-size="10.00"> </text>
<text text-anchor="start" x="284" y="-460.5" font-family="Helvetica,sans-Serif" font-size="10.00">+</text>
<text text-anchor="start" x="304" y="-460.5" font-family="Helvetica,sans-Serif" font-size="10.00">operator&#45;&gt;()</text>
<polygon fill="#666666" stroke="#666666" points="273,-485.5 273,-485.5 383,-485.5 383,-485.5 273,-485.5"/>
<polygon fill="#666666" stroke="#666666" points="273,-470.5 273,-470.5 383,-470.5 383,-470.5 273,-470.5"/>
<polygon fill="none" stroke="#666666" points="273,-453.5 273,-513.5 383,-513.5 383,-453.5 273,-453.5"/>
</a>
</g>
</g>
<!-- Node6&#45;&gt;Node2 -->
<g id="edge5_Node000002_Node000006" class="edge">
<title>Node6&#45;&gt;Node2</title>
<g id="a_edge5_Node000002_Node000006"><a xlink:title=" ">
<path fill="none" stroke="#63b8ff" d="M315.04,-453.22C309.49,-441.21 302.74,-427.28 296,-415 294.69,-412.62 293.35,-410.21 291.99,-407.8"/>
<polygon fill="none" stroke="#63b8ff" points="291.86,-407.57 285.41,-404.35 285.89,-397.16 292.35,-400.37 291.86,-407.57"/>
</a>
</g>
<text text-anchor="middle" x="342" y="-418" font-family="Helvetica,sans-Serif" font-size="10.00" fill="grey"> #mpOutStream</text>
</g>
<!-- Node7 -->
<g id="Node000007" class="node">
<title>Node7</title>
<g id="a_Node000007"><a xlink:title=" ">
<polygon fill="white" stroke="transparent" points="366,-624.5 290,-624.5 290,-575.5 366,-575.5 366,-624.5"/>
<text text-anchor="start" x="295" y="-612" font-family="Helvetica,sans-Serif" font-size="10.00">std::ofstream</text>
<text text-anchor="start" x="326" y="-597" font-family="Helvetica,sans-Serif" font-size="10.00"> </text>
<text text-anchor="start" x="326" y="-582" font-family="Helvetica,sans-Serif" font-size="10.00"> </text>
<polygon fill="#666666" stroke="#666666" points="290,-607 290,-607 366,-607 366,-607 290,-607"/>
<polygon fill="#666666" stroke="#666666" points="290,-592 290,-592 366,-592 366,-592 290,-592"/>
<polygon fill="none" stroke="#666666" points="290,-575.5 290,-624.5 366,-624.5 366,-575.5 290,-575.5"/>
</a>
</g>
</g>
<!-- Node7&#45;&gt;Node6 -->
<g id="edge6_Node000006_Node000007" class="edge">
<title>Node7&#45;&gt;Node6</title>
<g id="a_edge6_Node000006_Node000007"><a xlink:title=" ">
<path fill="none" stroke="#63b8ff" d="M328,-575.28C328,-561.08 328,-542.63 328,-526.08"/>
<polygon fill="none" stroke="#63b8ff" points="328,-525.89 324,-519.89 328,-513.89 332,-519.89 328,-525.89"/>
</a>
</g>
<text text-anchor="middle" x="340.5" y="-544" font-family="Helvetica,sans-Serif" font-size="10.00" fill="grey"> +ptr</text>
</g>
<!-- Node8 -->
<g id="Node000008" class="node">
<title>Node8</title>
<g id="a_Node000008"><a xlink:title=" ">
<polygon fill="white" stroke="transparent" points="381.5,-737 274.5,-737 274.5,-677 381.5,-677 381.5,-737"/>
<text text-anchor="start" x="280" y="-725" font-family="Helvetica,sans-Serif" font-size="10.00">std::basic_ofstream</text>
<text text-anchor="start" x="305.5" y="-714" font-family="Helvetica,sans-Serif" font-size="10.00">&lt; Char &gt;</text>
<text text-anchor="start" x="326.5" y="-699" font-family="Helvetica,sans-Serif" font-size="10.00"> </text>
<text text-anchor="start" x="326.5" y="-684" font-family="Helvetica,sans-Serif" font-size="10.00"> </text>
<polygon fill="#666666" stroke="#666666" points="275,-709 275,-709 382,-709 382,-709 275,-709"/>
<polygon fill="#666666" stroke="#666666" points="275,-694 275,-694 382,-694 382,-694 275,-694"/>
<polygon fill="none" stroke="#666666" points="274.5,-677 274.5,-737 381.5,-737 381.5,-677 274.5,-677"/>
</a>
</g>
</g>
<!-- Node8&#45;&gt;Node7 -->
<g id="edge7_Node000007_Node000008" class="edge">
<title>Node8&#45;&gt;Node7</title>
<g id="a_edge7_Node000007_Node000008"><a xlink:title=" ">
<path fill="none" stroke="#63b8ff" d="M328,-666.37C328,-652.37 328,-637.07 328,-624.79"/>
<polygon fill="none" stroke="#63b8ff" points="324.5,-666.75 328,-676.75 331.5,-666.75 324.5,-666.75"/>
</a>
</g>
</g>
<!-- Node9 -->
<g id="Node000009" class="node">
<title>Node9</title>
<g id="a_Node000009"><a xlink:title=" ">
<polygon fill="white" stroke="transparent" points="379.5,-834 276.5,-834 276.5,-774 379.5,-774 379.5,-834"/>
<text text-anchor="start" x="282" y="-822" font-family="Helvetica,sans-Serif" font-size="10.00">std::basic_ostream</text>
<text text-anchor="start" x="305.5" y="-811" font-family="Helvetica,sans-Serif" font-size="10.00">&lt; Char &gt;</text>
<text text-anchor="start" x="326.5" y="-796" font-family="Helvetica,sans-Serif" font-size="10.00"> </text>
<text text-anchor="start" x="326.5" y="-781" font-family="Helvetica,sans-Serif" font-size="10.00"> </text>
<polygon fill="#666666" stroke="#666666" points="277,-806 277,-806 380,-806 380,-806 277,-806"/>
<polygon fill="#666666" stroke="#666666" points="277,-791 277,-791 380,-791 380,-791 277,-791"/>
<polygon fill="none" stroke="#666666" points="276.5,-774 276.5,-834 379.5,-834 379.5,-774 276.5,-774"/>
</a>
</g>
</g>
<!-- Node9&#45;&gt;Node8 -->
<g id="edge8_Node000008_Node000009" class="edge">
<title>Node9&#45;&gt;Node8</title>
<g id="a_edge8_Node000008_Node000009"><a xlink:title=" ">
<path fill="none" stroke="#63b8ff" d="M328,-763.79C328,-754.88 328,-745.57 328,-737.17"/>
<polygon fill="none" stroke="#63b8ff" points="324.5,-763.98 328,-773.98 331.5,-763.98 324.5,-763.98"/>
</a>
</g>
</g>
<!-- Node10 -->
<g id="Node000010" class="node">
<title>Node10</title>
<g id="a_Node000010"><a xlink:title=" ">
<polygon fill="white" stroke="transparent" points="389,-920 267,-920 267,-871 389,-871 389,-920"/>
<text text-anchor="start" x="272" y="-907.5" font-family="Helvetica,sans-Serif" font-size="10.00">std::basic_ios&lt; Char &gt;</text>
<text text-anchor="start" x="326" y="-892.5" font-family="Helvetica,sans-Serif" font-size="10.00"> </text>
<text text-anchor="start" x="326" y="-877.5" font-family="Helvetica,sans-Serif" font-size="10.00"> </text>
<polygon fill="#666666" stroke="#666666" points="267,-902.5 267,-902.5 389,-902.5 389,-902.5 267,-902.5"/>
<polygon fill="#666666" stroke="#666666" points="267,-887.5 267,-887.5 389,-887.5 389,-887.5 267,-887.5"/>
<polygon fill="none" stroke="#666666" points="267,-871 267,-920 389,-920 389,-871 267,-871"/>
</a>
</g>
</g>
<!-- Node10&#45;&gt;Node9 -->
<g id="edge9_Node000009_Node000010" class="edge">
<title>Node10&#45;&gt;Node9</title>
<g id="a_edge9_Node000009_Node000010"><a xlink:title=" ">
<path fill="none" stroke="#63b8ff" d="M328,-860.7C328,-851.95 328,-842.6 328,-834.12"/>
<polygon fill="none" stroke="#63b8ff" points="324.5,-860.98 328,-870.98 331.5,-860.98 324.5,-860.98"/>
</a>
</g>
</g>
<!-- Node11 -->
<g id="Node000011" class="node">
<title>Node11</title>
<g id="a_Node000011"><a xlink:title=" ">
<polygon fill="white" stroke="transparent" points="365,-1006 291,-1006 291,-957 365,-957 365,-1006"/>
<text text-anchor="start" x="296" y="-993.5" font-family="Helvetica,sans-Serif" font-size="10.00">std::ios_base</text>
<text text-anchor="start" x="326" y="-978.5" font-family="Helvetica,sans-Serif" font-size="10.00"> </text>
<text text-anchor="start" x="326" y="-963.5" font-family="Helvetica,sans-Serif" font-size="10.00"> </text>
<polygon fill="#666666" stroke="#666666" points="291,-988.5 291,-988.5 365,-988.5 365,-988.5 291,-988.5"/>
<polygon fill="#666666" stroke="#666666" points="291,-973.5 291,-973.5 365,-973.5 365,-973.5 291,-973.5"/>
<polygon fill="none" stroke="#666666" points="291,-957 291,-1006 365,-1006 365,-957 291,-957"/>
</a>
</g>
</g>
<!-- Node11&#45;&gt;Node10 -->
<g id="edge10_Node000010_Node000011" class="edge">
<title>Node11&#45;&gt;Node10</title>
<g id="a_edge10_Node000010_Node000011"><a xlink:title=" ">
<path fill="none" stroke="#63b8ff" d="M328,-946.57C328,-937.69 328,-928.32 328,-920.12"/>
<polygon fill="none" stroke="#63b8ff" points="324.5,-946.65 328,-956.65 331.5,-946.65 324.5,-946.65"/>
</a>
</g>
</g>
<!-- Node12 -->
<g id="Node000012" class="node">
<title>Node12</title>
<g id="a_Node000012"><a xlink:title=" ">
<polygon fill="white" stroke="transparent" points="496,-624.5 384,-624.5 384,-575.5 496,-575.5 496,-624.5"/>
<text text-anchor="start" x="389" y="-612" font-family="Helvetica,sans-Serif" font-size="10.00">std::shared_ptr&lt; T &gt;</text>
<text text-anchor="start" x="438" y="-597" font-family="Helvetica,sans-Serif" font-size="10.00"> </text>
<text text-anchor="start" x="395.5" y="-582" font-family="Helvetica,sans-Serif" font-size="10.00">+</text>
<text text-anchor="start" x="416" y="-582" font-family="Helvetica,sans-Serif" font-size="10.00">operator&#45;&gt;()</text>
<polygon fill="#666666" stroke="#666666" points="384,-607 384,-607 496,-607 496,-607 384,-607"/>
<polygon fill="#666666" stroke="#666666" points="384,-592 384,-592 496,-592 496,-592 384,-592"/>
<polygon fill="none" stroke="#666666" points="384,-575.5 384,-624.5 496,-624.5 496,-575.5 384,-575.5"/>
</a>
</g>
</g>
<!-- Node12&#45;&gt;Node6 -->
<g id="edge11_Node000006_Node000012" class="edge">
<title>Node12&#45;&gt;Node6</title>
<g id="a_edge11_Node000006_Node000012"><a xlink:title=" ">
<path fill="none" stroke="orange" d="M409.53,-567.85C393.09,-551.05 372.92,-530.42 356.75,-513.89"/>
<polygon fill="orange" stroke="orange" points="407.3,-570.57 416.79,-575.28 412.3,-565.68 407.3,-570.57"/>
</a>
</g>
<text text-anchor="middle" x="436.5" y="-544" font-family="Helvetica,sans-Serif" font-size="10.00" fill="grey"> &lt; std::ofstream &gt;</text>
</g>
<!-- Node13 -->
<g id="Node000013" class="node">
<title>Node13</title>
<g id="a_Node000013"><a xlink:title=" ">
<polygon fill="white" stroke="transparent" points="448.5,-731.5 431.5,-731.5 431.5,-682.5 448.5,-682.5 448.5,-731.5"/>
<text text-anchor="start" x="437" y="-719" font-family="Helvetica,sans-Serif" font-size="10.00">T</text>
<text text-anchor="start" x="438.5" y="-704" font-family="Helvetica,sans-Serif" font-size="10.00"> </text>
<text text-anchor="start" x="438.5" y="-689" font-family="Helvetica,sans-Serif" font-size="10.00"> </text>
<polygon fill="#bfbfbf" stroke="#bfbfbf" points="432,-714 432,-714 449,-714 449,-714 432,-714"/>
<polygon fill="#bfbfbf" stroke="#bfbfbf" points="432,-699 432,-699 449,-699 449,-699 432,-699"/>
<polygon fill="none" stroke="#bfbfbf" points="431.5,-682.5 431.5,-731.5 448.5,-731.5 448.5,-682.5 431.5,-682.5"/>
</a>
</g>
</g>
<!-- Node13&#45;&gt;Node12 -->
<g id="edge12_Node000012_Node000013" class="edge">
<title>Node13&#45;&gt;Node12</title>
<g id="a_edge12_Node000012_Node000013"><a xlink:title=" ">
<path fill="none" stroke="#63b8ff" d="M440,-682.44C440,-669.02 440,-651.94 440,-636.89"/>
<polygon fill="none" stroke="#63b8ff" points="440,-636.85 436,-630.85 440,-624.85 444,-630.85 440,-636.85"/>
</a>
</g>
<text text-anchor="middle" x="452.5" y="-651" font-family="Helvetica,sans-Serif" font-size="10.00" fill="grey"> +ptr</text>
</g>
</g>
</svg>
