<?xml version="1.0" encoding="UTF-8" standalone="no"?>
<!DOCTYPE svg PUBLIC "-//W3C//DTD SVG 1.1//EN"
 "http://www.w3.org/Graphics/SVG/1.1/DTD/svg11.dtd">
<!-- Generated by graphviz version 2.43.0 (0)
 -->
<!-- Title: ActivationOutputModifier Pages: 1 -->
<svg width="521pt" height="447pt"
 viewBox="0.00 0.00 520.50 447.00" xmlns="http://www.w3.org/2000/svg" xmlns:xlink="http://www.w3.org/1999/xlink">
<g id="graph0" class="graph" transform="scale(1 1) rotate(0) translate(4 443)">
<title>ActivationOutputModifier</title>
<!-- Node1 -->
<g id="Node000001" class="node">
<title>Node1</title>
<g id="a_Node000001"><a xlink:title=" ">
<polygon fill="#999999" stroke="transparent" points="336,-124 173,-124 173,0 336,0 336,-124"/>
<text text-anchor="start" x="193.5" y="-112" font-family="Helvetica,sans-Serif" font-size="10.00">ActivationOutputModifier</text>
<text text-anchor="start" x="253" y="-97" font-family="Helvetica,sans-Serif" font-size="10.00"> </text>
<text text-anchor="start" x="177.5" y="-82" font-family="Helvetica,sans-Serif" font-size="10.00">+</text>
<text text-anchor="start" x="190.5" y="-82" font-family="Helvetica,sans-Serif" font-size="10.00">ActivationOutputModifier()</text>
<text text-anchor="start" x="177.5" y="-67" font-family="Helvetica,sans-Serif" font-size="10.00">+</text>
<text text-anchor="start" x="190.5" y="-67" font-family="Helvetica,sans-Serif" font-size="10.00">InitialiseAtStart()</text>
<text text-anchor="start" x="177.5" y="-52" font-family="Helvetica,sans-Serif" font-size="10.00">+</text>
<text text-anchor="start" x="190.5" y="-52" font-family="Helvetica,sans-Serif" font-size="10.00">FinaliseAtEnd()</text>
<text text-anchor="start" x="177.5" y="-37" font-family="Helvetica,sans-Serif" font-size="10.00">+</text>
<text text-anchor="start" x="190.5" y="-37" font-family="Helvetica,sans-Serif" font-size="10.00">ProcessSolutionAtTimeStep()</text>
<text text-anchor="start" x="180" y="-22" font-family="Helvetica,sans-Serif" font-size="10.00">&#45;</text>
<text text-anchor="start" x="190.5" y="-22" font-family="Helvetica,sans-Serif" font-size="10.00">serialize()</text>
<text text-anchor="start" x="180" y="-7" font-family="Helvetica,sans-Serif" font-size="10.00">&#45;</text>
<text text-anchor="start" x="190.5" y="-7" font-family="Helvetica,sans-Serif" font-size="10.00">ActivationOutputModifier()</text>
<polygon fill="#666666" stroke="#666666" points="173.5,-107 173.5,-107 336.5,-107 336.5,-107 173.5,-107"/>
<polygon fill="#666666" stroke="#666666" points="173.5,-92 173.5,-92 336.5,-92 336.5,-92 173.5,-92"/>
<polygon fill="none" stroke="#666666" points="173,0 173,-124 336,-124 336,0 173,0"/>
</a>
</g>
</g>
<!-- Node2 -->
<g id="Node000002" class="node">
<title>Node2</title>
<g id="a_Node000002"><a xlink:href="classAbstractOutputModifier.html" target="_top" xlink:title=" ">
<polygon fill="white" stroke="transparent" points="163,-343 0,-343 0,-204 163,-204 163,-343"/>
<text text-anchor="start" x="25" y="-330.5" font-family="Helvetica,sans-Serif" font-size="10.00">AbstractOutputModifier</text>
<text text-anchor="start" x="80" y="-315.5" font-family="Helvetica,sans-Serif" font-size="10.00"> </text>
<text text-anchor="start" x="4.5" y="-300.5" font-family="Helvetica,sans-Serif" font-size="10.00">+</text>
<text text-anchor="start" x="17.5" y="-300.5" font-family="Helvetica,sans-Serif" font-size="10.00">AbstractOutputModifier()</text>
<text text-anchor="start" x="4.5" y="-285.5" font-family="Helvetica,sans-Serif" font-size="10.00">+</text>
<text text-anchor="start" x="17.5" y="-285.5" font-family="Helvetica,sans-Serif" font-size="10.00">~AbstractOutputModifier()</text>
<text text-anchor="start" x="4.5" y="-270.5" font-family="Helvetica,sans-Serif" font-size="10.00">+</text>
<text text-anchor="start" x="17.5" y="-270.5" font-family="Helvetica,sans-Serif" font-size="10.00">InitialiseAtStart()</text>
<text text-anchor="start" x="4.5" y="-255.5" font-family="Helvetica,sans-Serif" font-size="10.00">+</text>
<text text-anchor="start" x="17.5" y="-255.5" font-family="Helvetica,sans-Serif" font-size="10.00">FinaliseAtEnd()</text>
<text text-anchor="start" x="4.5" y="-240.5" font-family="Helvetica,sans-Serif" font-size="10.00">+</text>
<text text-anchor="start" x="17.5" y="-240.5" font-family="Helvetica,sans-Serif" font-size="10.00">ProcessSolutionAtTimeStep()</text>
<text text-anchor="start" x="4.5" y="-225.5" font-family="Helvetica,sans-Serif" font-size="10.00">#</text>
<text text-anchor="start" x="17.5" y="-225.5" font-family="Helvetica,sans-Serif" font-size="10.00">AbstractOutputModifier()</text>
<text text-anchor="start" x="7" y="-210.5" font-family="Helvetica,sans-Serif" font-size="10.00">&#45;</text>
<text text-anchor="start" x="17.5" y="-210.5" font-family="Helvetica,sans-Serif" font-size="10.00">serialize()</text>
<polygon fill="#666666" stroke="#666666" points="0.5,-325.5 0.5,-325.5 163.5,-325.5 163.5,-325.5 0.5,-325.5"/>
<polygon fill="#666666" stroke="#666666" points="0.5,-310.5 0.5,-310.5 163.5,-310.5 163.5,-310.5 0.5,-310.5"/>
<polygon fill="none" stroke="#666666" points="0,-204 0,-343 163,-343 163,-204 0,-204"/>
</a>
</g>
</g>
<!-- Node2&#45;&gt;Node1 -->
<g id="edge1_Node000001_Node000002" class="edge">
<title>Node2&#45;&gt;Node1</title>
<g id="a_edge1_Node000001_Node000002"><a xlink:title=" ">
<path fill="none" stroke="#63b8ff" d="M141.63,-195.86C155.86,-178.06 171.09,-159.26 185.5,-142 190.4,-136.13 195.55,-130.06 200.73,-124.01"/>
<polygon fill="none" stroke="#63b8ff" points="138.67,-193.96 135.17,-203.96 144.14,-198.33 138.67,-193.96"/>
</a>
</g>
</g>
<!-- Node3 -->
<g id="Node000003" class="node">
<title>Node3</title>
<g id="a_Node000003"><a xlink:title=" ">
<polygon fill="white" stroke="transparent" points="40.5,-439 2.5,-439 2.5,-390 40.5,-390 40.5,-439"/>
<text text-anchor="start" x="7.5" y="-426.5" font-family="Helvetica,sans-Serif" font-size="10.00">string</text>
<text text-anchor="start" x="19.5" y="-411.5" font-family="Helvetica,sans-Serif" font-size="10.00"> </text>
<text text-anchor="start" x="19.5" y="-396.5" font-family="Helvetica,sans-Serif" font-size="10.00"> </text>
<polygon fill="#bfbfbf" stroke="#bfbfbf" points="2.5,-421.5 2.5,-421.5 40.5,-421.5 40.5,-421.5 2.5,-421.5"/>
<polygon fill="#bfbfbf" stroke="#bfbfbf" points="2.5,-406.5 2.5,-406.5 40.5,-406.5 40.5,-406.5 2.5,-406.5"/>
<polygon fill="none" stroke="#bfbfbf" points="2.5,-390 2.5,-439 40.5,-439 40.5,-390 2.5,-390"/>
</a>
</g>
</g>
<!-- Node3&#45;&gt;Node2 -->
<g id="edge2_Node000002_Node000003" class="edge">
<title>Node3&#45;&gt;Node2</title>
<g id="a_edge2_Node000002_Node000003"><a xlink:title=" ">
<path fill="none" stroke="#63b8ff" d="M19.1,-389.77C18.9,-380.59 19.59,-370.12 22.5,-361 23.23,-358.73 24.03,-356.46 24.91,-354.2"/>
<polygon fill="none" stroke="#63b8ff" points="24.99,-354.02 23.75,-346.92 29.83,-343.04 31.07,-350.14 24.99,-354.02"/>
</a>
</g>
<text text-anchor="middle" x="56" y="-364" font-family="Helvetica,sans-Serif" font-size="10.00" fill="grey"> #mFilename</text>
</g>
<!-- Node4 -->
<g id="Node000004" class="node">
<title>Node4</title>
<g id="a_Node000004"><a xlink:href="classdouble.html" target="_top" xlink:title=" ">
<polygon fill="white" stroke="transparent" points="177.5,-439 133.5,-439 133.5,-390 177.5,-390 177.5,-439"/>
<text text-anchor="start" x="138.5" y="-426.5" font-family="Helvetica,sans-Serif" font-size="10.00">double</text>
<text text-anchor="start" x="153.5" y="-411.5" font-family="Helvetica,sans-Serif" font-size="10.00"> </text>
<text text-anchor="start" x="153.5" y="-396.5" font-family="Helvetica,sans-Serif" font-size="10.00"> </text>
<polygon fill="#bfbfbf" stroke="#bfbfbf" points="133.5,-421.5 133.5,-421.5 177.5,-421.5 177.5,-421.5 133.5,-421.5"/>
<polygon fill="#bfbfbf" stroke="#bfbfbf" points="133.5,-406.5 133.5,-406.5 177.5,-406.5 177.5,-406.5 133.5,-406.5"/>
<polygon fill="none" stroke="#bfbfbf" points="133.5,-390 133.5,-439 177.5,-439 177.5,-390 133.5,-390"/>
</a>
</g>
</g>
<!-- Node4&#45;&gt;Node1 -->
<g id="edge4_Node000001_Node000004" class="edge">
<title>Node4&#45;&gt;Node1</title>
<g id="a_edge4_Node000001_Node000004"><a xlink:title=" ">
<path fill="none" stroke="#63b8ff" d="M175.69,-389.65C179.49,-384.14 183.04,-378.1 185.5,-372 213.75,-302.07 192.64,-277.52 209.5,-204 214.66,-181.5 221.74,-157.42 228.76,-135.65"/>
<polygon fill="none" stroke="#63b8ff" points="228.79,-135.56 226.86,-128.61 232.53,-124.15 234.46,-131.1 228.79,-135.56"/>
</a>
</g>
<text text-anchor="middle" x="242" y="-271" font-family="Helvetica,sans-Serif" font-size="10.00" fill="grey"> &#45;mThreshold</text>
</g>
<!-- Node4&#45;&gt;Node2 -->
<g id="edge3_Node000002_Node000004" class="edge">
<title>Node4&#45;&gt;Node2</title>
<g id="a_edge3_Node000002_Node000004"><a xlink:title=" ">
<path fill="none" stroke="#63b8ff" d="M133.15,-395.87C125.73,-389.08 117.97,-380.82 112.5,-372 109.05,-366.44 105.94,-360.45 103.16,-354.28"/>
<polygon fill="none" stroke="#63b8ff" points="103.1,-354.12 97.1,-350.11 98.5,-343.03 104.49,-347.04 103.1,-354.12"/>
</a>
</g>
<text text-anchor="middle" x="149" y="-364" font-family="Helvetica,sans-Serif" font-size="10.00" fill="grey"> #mFlushTime</text>
</g>
<!-- Node5 -->
<g id="Node000005" class="node">
<title>Node5</title>
<g id="a_Node000005"><a xlink:href="classunsigned.html" target="_top" xlink:title=" ">
<polygon fill="white" stroke="transparent" points="338,-298 283,-298 283,-249 338,-249 338,-298"/>
<text text-anchor="start" x="288.5" y="-285.5" font-family="Helvetica,sans-Serif" font-size="10.00">unsigned</text>
<text text-anchor="start" x="309" y="-270.5" font-family="Helvetica,sans-Serif" font-size="10.00"> </text>
<text text-anchor="start" x="309" y="-255.5" font-family="Helvetica,sans-Serif" font-size="10.00"> </text>
<polygon fill="#bfbfbf" stroke="#bfbfbf" points="283.5,-280.5 283.5,-280.5 338.5,-280.5 338.5,-280.5 283.5,-280.5"/>
<polygon fill="#bfbfbf" stroke="#bfbfbf" points="283.5,-265.5 283.5,-265.5 338.5,-265.5 338.5,-265.5 283.5,-265.5"/>
<polygon fill="none" stroke="#bfbfbf" points="283,-249 283,-298 338,-298 338,-249 283,-249"/>
</a>
</g>
</g>
<!-- Node5&#45;&gt;Node1 -->
<g id="edge5_Node000001_Node000005" class="edge">
<title>Node5&#45;&gt;Node1</title>
<g id="a_edge5_Node000001_Node000005"><a xlink:title=" ">
<path fill="none" stroke="#63b8ff" d="M304.18,-248.87C296.88,-221.57 284.52,-175.3 273.95,-135.76"/>
<polygon fill="none" stroke="#63b8ff" points="273.91,-135.6 268.49,-130.83 270.81,-124 276.22,-128.77 273.91,-135.6"/>
</a>
</g>
<text text-anchor="middle" x="317" y="-161.5" font-family="Helvetica,sans-Serif" font-size="10.00" fill="grey"> &#45;mLocalSize</text>
</g>
<!-- Node6 -->
<g id="Node000006" class="node">
<title>Node6</title>
<g id="a_Node000006"><a xlink:title=" ">
<polygon fill="white" stroke="transparent" points="453,-298 356,-298 356,-249 453,-249 453,-298"/>
<text text-anchor="start" x="361.5" y="-285.5" font-family="Helvetica,sans-Serif" font-size="10.00">vector&lt; double &gt;</text>
<text text-anchor="start" x="403" y="-270.5" font-family="Helvetica,sans-Serif" font-size="10.00"> </text>
<text text-anchor="start" x="403" y="-255.5" font-family="Helvetica,sans-Serif" font-size="10.00"> </text>
<polygon fill="#bfbfbf" stroke="#bfbfbf" points="356.5,-280.5 356.5,-280.5 453.5,-280.5 453.5,-280.5 356.5,-280.5"/>
<polygon fill="#bfbfbf" stroke="#bfbfbf" points="356.5,-265.5 356.5,-265.5 453.5,-265.5 453.5,-265.5 356.5,-265.5"/>
<polygon fill="none" stroke="#bfbfbf" points="356,-249 356,-298 453,-298 453,-249 356,-249"/>
</a>
</g>
</g>
<!-- Node6&#45;&gt;Node1 -->
<g id="edge6_Node000001_Node000006" class="edge">
<title>Node6&#45;&gt;Node1</title>
<g id="a_edge6_Node000001_Node000006"><a xlink:title=" ">
<path fill="none" stroke="#63b8ff" d="M398.92,-248.53C391.62,-220.87 376.83,-174.97 352.5,-142 350.02,-138.65 347.37,-135.35 344.59,-132.13"/>
<polygon fill="none" stroke="#63b8ff" points="344.53,-132.07 337.53,-130.37 336.41,-123.24 343.42,-124.95 344.53,-132.07"/>
</a>
</g>
<text text-anchor="middle" x="444.5" y="-178" font-family="Helvetica,sans-Serif" font-size="10.00" fill="grey"> &#45;mFirstActivitationTimes</text>
<text text-anchor="middle" x="444.5" y="-167" font-family="Helvetica,sans-Serif" font-size="10.00" fill="grey">&#45;mFirstRecoveryTimes</text>
<text text-anchor="middle" x="444.5" y="-156" font-family="Helvetica,sans-Serif" font-size="10.00" fill="grey">&#45;mSecondActivitationTimes</text>
<text text-anchor="middle" x="444.5" y="-145" font-family="Helvetica,sans-Serif" font-size="10.00" fill="grey">&#45;mSecondRecoveryTimes</text>
</g>
</g>
</svg>
