<?xml version="1.0" encoding="UTF-8" standalone="no"?>
<!DOCTYPE svg PUBLIC "-//W3C//DTD SVG 1.1//EN"
 "http://www.w3.org/Graphics/SVG/1.1/DTD/svg11.dtd">
<!-- Generated by graphviz version 2.43.0 (0)
 -->
<!-- Title: TimeStepper Pages: 1 -->
<svg width="427pt" height="388pt"
 viewBox="0.00 0.00 427.00 388.00" xmlns="http://www.w3.org/2000/svg" xmlns:xlink="http://www.w3.org/1999/xlink">
<g id="graph0" class="graph" transform="scale(1 1) rotate(0) translate(4 384)">
<title>TimeStepper</title>
<!-- Node1 -->
<g id="Node000001" class="node">
<title>Node1</title>
<g id="a_Node000001"><a xlink:title=" ">
<polygon fill="#999999" stroke="transparent" points="181.5,-229 32.5,-229 32.5,0 181.5,0 181.5,-229"/>
<text text-anchor="start" x="76" y="-216.5" font-family="Helvetica,sans-Serif" font-size="10.00">TimeStepper</text>
<text text-anchor="start" x="105.5" y="-201.5" font-family="Helvetica,sans-Serif" font-size="10.00"> </text>
<text text-anchor="start" x="37" y="-186.5" font-family="Helvetica,sans-Serif" font-size="10.00">+</text>
<text text-anchor="start" x="50" y="-186.5" font-family="Helvetica,sans-Serif" font-size="10.00">TimeStepper()</text>
<text text-anchor="start" x="37" y="-171.5" font-family="Helvetica,sans-Serif" font-size="10.00">+</text>
<text text-anchor="start" x="50" y="-171.5" font-family="Helvetica,sans-Serif" font-size="10.00">AdvanceOneTimeStep()</text>
<text text-anchor="start" x="37" y="-156.5" font-family="Helvetica,sans-Serif" font-size="10.00">+</text>
<text text-anchor="start" x="50" y="-156.5" font-family="Helvetica,sans-Serif" font-size="10.00">GetTime()</text>
<text text-anchor="start" x="37" y="-141.5" font-family="Helvetica,sans-Serif" font-size="10.00">+</text>
<text text-anchor="start" x="50" y="-141.5" font-family="Helvetica,sans-Serif" font-size="10.00">GetNextTime()</text>
<text text-anchor="start" x="37" y="-126.5" font-family="Helvetica,sans-Serif" font-size="10.00">+</text>
<text text-anchor="start" x="50" y="-126.5" font-family="Helvetica,sans-Serif" font-size="10.00">GetNextTimeStep()</text>
<text text-anchor="start" x="37" y="-111.5" font-family="Helvetica,sans-Serif" font-size="10.00">+</text>
<text text-anchor="start" x="50" y="-111.5" font-family="Helvetica,sans-Serif" font-size="10.00">GetIdealTimeStep()</text>
<text text-anchor="start" x="37" y="-96.5" font-family="Helvetica,sans-Serif" font-size="10.00">+</text>
<text text-anchor="start" x="50" y="-96.5" font-family="Helvetica,sans-Serif" font-size="10.00">IsTimeAtEnd()</text>
<text text-anchor="start" x="37" y="-81.5" font-family="Helvetica,sans-Serif" font-size="10.00">+</text>
<text text-anchor="start" x="50" y="-81.5" font-family="Helvetica,sans-Serif" font-size="10.00">EstimateTimeSteps()</text>
<text text-anchor="start" x="37" y="-66.5" font-family="Helvetica,sans-Serif" font-size="10.00">+</text>
<text text-anchor="start" x="50" y="-66.5" font-family="Helvetica,sans-Serif" font-size="10.00">GetTotalTimeStepsTaken()</text>
<text text-anchor="start" x="37" y="-51.5" font-family="Helvetica,sans-Serif" font-size="10.00">+</text>
<text text-anchor="start" x="50" y="-51.5" font-family="Helvetica,sans-Serif" font-size="10.00">ResetTimeStep()</text>
<text text-anchor="start" x="39.5" y="-36.5" font-family="Helvetica,sans-Serif" font-size="10.00">&#45;</text>
<text text-anchor="start" x="50" y="-36.5" font-family="Helvetica,sans-Serif" font-size="10.00">TimeStepper()</text>
<text text-anchor="start" x="39.5" y="-21.5" font-family="Helvetica,sans-Serif" font-size="10.00">&#45;</text>
<text text-anchor="start" x="50" y="-21.5" font-family="Helvetica,sans-Serif" font-size="10.00">CalculateNextTime()</text>
<text text-anchor="start" x="39.5" y="-6.5" font-family="Helvetica,sans-Serif" font-size="10.00">&#45;</text>
<text text-anchor="start" x="50" y="-6.5" font-family="Helvetica,sans-Serif" font-size="10.00">serialize()</text>
<polygon fill="#666666" stroke="#666666" points="33,-211.5 33,-211.5 182,-211.5 182,-211.5 33,-211.5"/>
<polygon fill="#666666" stroke="#666666" points="33,-196.5 33,-196.5 182,-196.5 182,-196.5 33,-196.5"/>
<polygon fill="none" stroke="#666666" points="32.5,0 32.5,-229 181.5,-229 181.5,0 32.5,0"/>
</a>
</g>
</g>
<!-- Node2 -->
<g id="Node000002" class="node">
<title>Node2</title>
<g id="a_Node000002"><a xlink:href="classdouble.html" target="_top" xlink:title=" ">
<polygon fill="white" stroke="transparent" points="44,-380 0,-380 0,-331 44,-331 44,-380"/>
<text text-anchor="start" x="5" y="-367.5" font-family="Helvetica,sans-Serif" font-size="10.00">double</text>
<text text-anchor="start" x="20" y="-352.5" font-family="Helvetica,sans-Serif" font-size="10.00"> </text>
<text text-anchor="start" x="20" y="-337.5" font-family="Helvetica,sans-Serif" font-size="10.00"> </text>
<polygon fill="#bfbfbf" stroke="#bfbfbf" points="0,-362.5 0,-362.5 44,-362.5 44,-362.5 0,-362.5"/>
<polygon fill="#bfbfbf" stroke="#bfbfbf" points="0,-347.5 0,-347.5 44,-347.5 44,-347.5 0,-347.5"/>
<polygon fill="none" stroke="#bfbfbf" points="0,-331 0,-380 44,-380 44,-331 0,-331"/>
</a>
</g>
</g>
<!-- Node2&#45;&gt;Node1 -->
<g id="edge1_Node000001_Node000002" class="edge">
<title>Node2&#45;&gt;Node1</title>
<g id="a_edge1_Node000001_Node000002"><a xlink:title=" ">
<path fill="none" stroke="#63b8ff" d="M24.17,-330.95C26.68,-308.84 31.7,-275.06 41,-247 41.74,-244.77 42.51,-242.54 43.31,-240.29"/>
<polygon fill="none" stroke="#63b8ff" points="43.31,-240.28 41.68,-233.26 47.53,-229.04 49.17,-236.07 43.31,-240.28"/>
</a>
</g>
<text text-anchor="middle" x="72" y="-305" font-family="Helvetica,sans-Serif" font-size="10.00" fill="grey"> &#45;mDt</text>
<text text-anchor="middle" x="72" y="-294" font-family="Helvetica,sans-Serif" font-size="10.00" fill="grey">&#45;mEnd</text>
<text text-anchor="middle" x="72" y="-283" font-family="Helvetica,sans-Serif" font-size="10.00" fill="grey">&#45;mEpsilon</text>
<text text-anchor="middle" x="72" y="-272" font-family="Helvetica,sans-Serif" font-size="10.00" fill="grey">&#45;mNextTime</text>
<text text-anchor="middle" x="72" y="-261" font-family="Helvetica,sans-Serif" font-size="10.00" fill="grey">&#45;mStart</text>
<text text-anchor="middle" x="72" y="-250" font-family="Helvetica,sans-Serif" font-size="10.00" fill="grey">&#45;mTime</text>
</g>
<!-- Node3 -->
<g id="Node000003" class="node">
<title>Node3</title>
<g id="a_Node000003"><a xlink:href="classunsigned.html" target="_top" xlink:title=" ">
<polygon fill="white" stroke="transparent" points="134.5,-380 79.5,-380 79.5,-331 134.5,-331 134.5,-380"/>
<text text-anchor="start" x="85" y="-367.5" font-family="Helvetica,sans-Serif" font-size="10.00">unsigned</text>
<text text-anchor="start" x="105.5" y="-352.5" font-family="Helvetica,sans-Serif" font-size="10.00"> </text>
<text text-anchor="start" x="105.5" y="-337.5" font-family="Helvetica,sans-Serif" font-size="10.00"> </text>
<polygon fill="#bfbfbf" stroke="#bfbfbf" points="80,-362.5 80,-362.5 135,-362.5 135,-362.5 80,-362.5"/>
<polygon fill="#bfbfbf" stroke="#bfbfbf" points="80,-347.5 80,-347.5 135,-347.5 135,-347.5 80,-347.5"/>
<polygon fill="none" stroke="#bfbfbf" points="79.5,-331 79.5,-380 134.5,-380 134.5,-331 79.5,-331"/>
</a>
</g>
</g>
<!-- Node3&#45;&gt;Node1 -->
<g id="edge2_Node000001_Node000003" class="edge">
<title>Node3&#45;&gt;Node1</title>
<g id="a_edge2_Node000001_Node000003"><a xlink:title=" ">
<path fill="none" stroke="#63b8ff" d="M107,-330.71C107,-309.11 107,-275.47 107,-241.16"/>
<polygon fill="none" stroke="#63b8ff" points="107,-241.01 103,-235.01 107,-229.01 111,-235.01 107,-241.01"/>
</a>
</g>
<text text-anchor="start" x="107" y="-288.5" font-family="Helvetica,sans-Serif" font-size="10.00" fill="grey"> &#45;mAdditionalTimesReached</text>
<text text-anchor="middle" x="176.5" y="-277.5" font-family="Helvetica,sans-Serif" font-size="10.00" fill="grey">Deprecated</text>
<text text-anchor="middle" x="176.5" y="-266.5" font-family="Helvetica,sans-Serif" font-size="10.00" fill="grey">&#45;mTotalTimeStepsTaken</text>
</g>
<!-- Node4 -->
<g id="Node000004" class="node">
<title>Node4</title>
<g id="a_Node000004"><a xlink:title=" ">
<polygon fill="white" stroke="transparent" points="317.5,-380 220.5,-380 220.5,-331 317.5,-331 317.5,-380"/>
<text text-anchor="start" x="226" y="-367.5" font-family="Helvetica,sans-Serif" font-size="10.00">vector&lt; double &gt;</text>
<text text-anchor="start" x="267.5" y="-352.5" font-family="Helvetica,sans-Serif" font-size="10.00"> </text>
<text text-anchor="start" x="267.5" y="-337.5" font-family="Helvetica,sans-Serif" font-size="10.00"> </text>
<polygon fill="#bfbfbf" stroke="#bfbfbf" points="221,-362.5 221,-362.5 318,-362.5 318,-362.5 221,-362.5"/>
<polygon fill="#bfbfbf" stroke="#bfbfbf" points="221,-347.5 221,-347.5 318,-347.5 318,-347.5 221,-347.5"/>
<polygon fill="none" stroke="#bfbfbf" points="220.5,-331 220.5,-380 317.5,-380 317.5,-331 220.5,-331"/>
</a>
</g>
</g>
<!-- Node4&#45;&gt;Node1 -->
<g id="edge3_Node000001_Node000004" class="edge">
<title>Node4&#45;&gt;Node1</title>
<g id="a_edge3_Node000001_Node000004"><a xlink:title=" ">
<path fill="none" stroke="#63b8ff" d="M268.25,-330.85C266.62,-308.07 261.67,-273.28 247,-247 232.85,-221.65 212.13,-198.34 190.94,-178.6"/>
<polygon fill="none" stroke="#63b8ff" points="190.75,-178.42 183.62,-177.36 181.86,-170.37 188.99,-171.43 190.75,-178.42"/>
</a>
</g>
<text text-anchor="middle" x="342.5" y="-277.5" font-family="Helvetica,sans-Serif" font-size="10.00" fill="grey"> &#45;mAdditionalTimesDeprecated</text>
</g>
</g>
</svg>
