<?xml version="1.0" encoding="UTF-8" standalone="no"?>
<!DOCTYPE svg PUBLIC "-//W3C//DTD SVG 1.1//EN"
 "http://www.w3.org/Graphics/SVG/1.1/DTD/svg11.dtd">
<!-- Generated by graphviz version 2.43.0 (0)
 -->
<!-- Title: CellwiseSourceParabolicPde&lt; DIM &gt; Pages: 1 -->
<svg width="308pt" height="989pt"
 viewBox="0.00 0.00 308.00 989.00" xmlns="http://www.w3.org/2000/svg" xmlns:xlink="http://www.w3.org/1999/xlink">
<g id="graph0" class="graph" transform="scale(1 1) rotate(0) translate(4 985)">
<title>CellwiseSourceParabolicPde&lt; DIM &gt;</title>
<!-- Node1 -->
<g id="Node000001" class="node">
<title>Node1</title>
<g id="a_Node000001"><a xlink:title=" ">
<polygon fill="#999999" stroke="transparent" points="192,-300 0,-300 0,0 192,0 192,-300"/>
<text text-anchor="start" x="27.5" y="-288" font-family="Helvetica,sans-Serif" font-size="10.00">CellwiseSourceParabolicPde</text>
<text text-anchor="start" x="74.5" y="-277" font-family="Helvetica,sans-Serif" font-size="10.00">&lt; DIM &gt;</text>
<text text-anchor="start" x="4" y="-262" font-family="Helvetica,sans-Serif" font-size="10.00">#</text>
<text text-anchor="start" x="17" y="-262" font-family="Helvetica,sans-Serif" font-size="10.00">mrCellPopulation</text>
<text text-anchor="start" x="4" y="-247" font-family="Helvetica,sans-Serif" font-size="10.00">#</text>
<text text-anchor="start" x="17" y="-247" font-family="Helvetica,sans-Serif" font-size="10.00">mConstantSourceCoefficient</text>
<text text-anchor="start" x="4" y="-232" font-family="Helvetica,sans-Serif" font-size="10.00">#</text>
<text text-anchor="start" x="17" y="-232" font-family="Helvetica,sans-Serif" font-size="10.00">mLinearSourceCoefficient</text>
<text text-anchor="start" x="4" y="-217" font-family="Helvetica,sans-Serif" font-size="10.00">#</text>
<text text-anchor="start" x="17" y="-217" font-family="Helvetica,sans-Serif" font-size="10.00">mDiffusionCoefficient</text>
<text text-anchor="start" x="4" y="-202" font-family="Helvetica,sans-Serif" font-size="10.00">#</text>
<text text-anchor="start" x="17" y="-202" font-family="Helvetica,sans-Serif" font-size="10.00">mDuDtCoefficient</text>
<text text-anchor="start" x="4" y="-187" font-family="Helvetica,sans-Serif" font-size="10.00">#</text>
<text text-anchor="start" x="17" y="-187" font-family="Helvetica,sans-Serif" font-size="10.00">mScaleByCellVolume</text>
<text text-anchor="start" x="4" y="-172" font-family="Helvetica,sans-Serif" font-size="10.00">+</text>
<text text-anchor="start" x="17" y="-172" font-family="Helvetica,sans-Serif" font-size="10.00">CellwiseSourceParabolicPde()</text>
<text text-anchor="start" x="4" y="-157" font-family="Helvetica,sans-Serif" font-size="10.00">+</text>
<text text-anchor="start" x="17" y="-157" font-family="Helvetica,sans-Serif" font-size="10.00">rGetCellPopulation()</text>
<text text-anchor="start" x="4" y="-142" font-family="Helvetica,sans-Serif" font-size="10.00">+</text>
<text text-anchor="start" x="17" y="-142" font-family="Helvetica,sans-Serif" font-size="10.00">GetConstantCoefficient()</text>
<text text-anchor="start" x="4" y="-127" font-family="Helvetica,sans-Serif" font-size="10.00">+</text>
<text text-anchor="start" x="17" y="-127" font-family="Helvetica,sans-Serif" font-size="10.00">GetLinearCoefficient()</text>
<text text-anchor="start" x="4" y="-112" font-family="Helvetica,sans-Serif" font-size="10.00">+</text>
<text text-anchor="start" x="17" y="-112" font-family="Helvetica,sans-Serif" font-size="10.00">GetDiffusionCoefficient()</text>
<text text-anchor="start" x="4" y="-97" font-family="Helvetica,sans-Serif" font-size="10.00">+</text>
<text text-anchor="start" x="17" y="-97" font-family="Helvetica,sans-Serif" font-size="10.00">GetDuDtCoefficient()</text>
<text text-anchor="start" x="4" y="-82" font-family="Helvetica,sans-Serif" font-size="10.00">+</text>
<text text-anchor="start" x="17" y="-82" font-family="Helvetica,sans-Serif" font-size="10.00">GetScaleByCellVolume()</text>
<text text-anchor="start" x="4" y="-67" font-family="Helvetica,sans-Serif" font-size="10.00">+</text>
<text text-anchor="start" x="17" y="-67" font-family="Helvetica,sans-Serif" font-size="10.00">ComputeDuDtCoefficientFunction()</text>
<text text-anchor="start" x="4" y="-52" font-family="Helvetica,sans-Serif" font-size="10.00">+</text>
<text text-anchor="start" x="17" y="-52" font-family="Helvetica,sans-Serif" font-size="10.00">ComputeSourceTerm()</text>
<text text-anchor="start" x="4" y="-37" font-family="Helvetica,sans-Serif" font-size="10.00">+</text>
<text text-anchor="start" x="17" y="-37" font-family="Helvetica,sans-Serif" font-size="10.00">ComputeSourceTermAtNode()</text>
<text text-anchor="start" x="4" y="-22" font-family="Helvetica,sans-Serif" font-size="10.00">+</text>
<text text-anchor="start" x="17" y="-22" font-family="Helvetica,sans-Serif" font-size="10.00">ComputeDiffusionTerm()</text>
<text text-anchor="start" x="6.5" y="-7" font-family="Helvetica,sans-Serif" font-size="10.00">&#45;</text>
<text text-anchor="start" x="17" y="-7" font-family="Helvetica,sans-Serif" font-size="10.00">serialize()</text>
<polygon fill="#666666" stroke="#666666" points="0,-272 0,-272 192,-272 192,-272 0,-272"/>
<polygon fill="#666666" stroke="#666666" points="0,-182 0,-182 15,-182 15,-182 0,-182"/>
<polygon fill="#666666" stroke="#666666" points="15,-182 15,-182 192,-182 192,-182 15,-182"/>
<polygon fill="none" stroke="#666666" points="0,0 0,-300 192,-300 192,0 0,0"/>
</a>
</g>
</g>
<!-- Node2 -->
<g id="Node000002" class="node">
<title>Node2</title>
<g id="a_Node000002"><a xlink:href="classAbstractLinearParabolicPde.html" target="_top" xlink:title=" ">
<polygon fill="white" stroke="transparent" points="192,-498 0,-498 0,-337 192,-337 192,-498"/>
<text text-anchor="start" x="29.5" y="-485.5" font-family="Helvetica,sans-Serif" font-size="10.00">AbstractLinearParabolicPde</text>
<text text-anchor="start" x="62" y="-474.5" font-family="Helvetica,sans-Serif" font-size="10.00">&lt; DIM, DIM &gt;</text>
<text text-anchor="start" x="94" y="-459.5" font-family="Helvetica,sans-Serif" font-size="10.00"> </text>
<text text-anchor="start" x="4" y="-444.5" font-family="Helvetica,sans-Serif" font-size="10.00">+</text>
<text text-anchor="start" x="17" y="-444.5" font-family="Helvetica,sans-Serif" font-size="10.00">AbstractLinearParabolicPde()</text>
<text text-anchor="start" x="4" y="-429.5" font-family="Helvetica,sans-Serif" font-size="10.00">+</text>
<text text-anchor="start" x="17" y="-429.5" font-family="Helvetica,sans-Serif" font-size="10.00">~AbstractLinearParabolic</text>
<text text-anchor="start" x="17" y="-418.5" font-family="Helvetica,sans-Serif" font-size="10.00">Pde()</text>
<text text-anchor="start" x="4" y="-403.5" font-family="Helvetica,sans-Serif" font-size="10.00">+</text>
<text text-anchor="start" x="17" y="-403.5" font-family="Helvetica,sans-Serif" font-size="10.00">ComputeDuDtCoefficientFunction()</text>
<text text-anchor="start" x="4" y="-388.5" font-family="Helvetica,sans-Serif" font-size="10.00">+</text>
<text text-anchor="start" x="17" y="-388.5" font-family="Helvetica,sans-Serif" font-size="10.00">ComputeSourceTerm()</text>
<text text-anchor="start" x="4" y="-373.5" font-family="Helvetica,sans-Serif" font-size="10.00">+</text>
<text text-anchor="start" x="17" y="-373.5" font-family="Helvetica,sans-Serif" font-size="10.00">ComputeSourceTermAtNode()</text>
<text text-anchor="start" x="4" y="-358.5" font-family="Helvetica,sans-Serif" font-size="10.00">+</text>
<text text-anchor="start" x="17" y="-358.5" font-family="Helvetica,sans-Serif" font-size="10.00">ComputeDiffusionTerm()</text>
<text text-anchor="start" x="6.5" y="-343.5" font-family="Helvetica,sans-Serif" font-size="10.00">&#45;</text>
<text text-anchor="start" x="17" y="-343.5" font-family="Helvetica,sans-Serif" font-size="10.00">serialize()</text>
<polygon fill="#666666" stroke="#666666" points="0,-469.5 0,-469.5 192,-469.5 192,-469.5 0,-469.5"/>
<polygon fill="#666666" stroke="#666666" points="0,-454.5 0,-454.5 192,-454.5 192,-454.5 0,-454.5"/>
<polygon fill="none" stroke="#666666" points="0,-337 0,-498 192,-498 192,-337 0,-337"/>
</a>
</g>
</g>
<!-- Node2&#45;&gt;Node1 -->
<g id="edge1_Node000001_Node000002" class="edge">
<title>Node2&#45;&gt;Node1</title>
<g id="a_edge1_Node000001_Node000002"><a xlink:title=" ">
<path fill="none" stroke="#63b8ff" d="M96,-326.77C96,-318.07 96,-309.1 96,-300.03"/>
<polygon fill="none" stroke="#63b8ff" points="92.5,-326.84 96,-336.84 99.5,-326.84 92.5,-326.84"/>
</a>
</g>
</g>
<!-- Node3 -->
<g id="Node000003" class="node">
<title>Node3</title>
<g id="a_Node000003"><a xlink:href="classAbstractLinearPde.html" target="_top" xlink:title=" ">
<polygon fill="white" stroke="transparent" points="170.5,-833 13.5,-833 13.5,-743 170.5,-743 170.5,-833"/>
<text text-anchor="start" x="19" y="-821" font-family="Helvetica,sans-Serif" font-size="10.00">AbstractLinearPde&lt;</text>
<text text-anchor="start" x="19" y="-810" font-family="Helvetica,sans-Serif" font-size="10.00"> ELEMENT_DIM, SPACE_DIM &gt;</text>
<text text-anchor="start" x="90.5" y="-795" font-family="Helvetica,sans-Serif" font-size="10.00"> </text>
<text text-anchor="start" x="25.5" y="-780" font-family="Helvetica,sans-Serif" font-size="10.00">+</text>
<text text-anchor="start" x="46" y="-780" font-family="Helvetica,sans-Serif" font-size="10.00">AbstractLinearPde()</text>
<text text-anchor="start" x="25.5" y="-765" font-family="Helvetica,sans-Serif" font-size="10.00">+</text>
<text text-anchor="start" x="46" y="-765" font-family="Helvetica,sans-Serif" font-size="10.00">~AbstractLinearPde()</text>
<text text-anchor="start" x="28" y="-750" font-family="Helvetica,sans-Serif" font-size="10.00">&#45;</text>
<text text-anchor="start" x="46" y="-750" font-family="Helvetica,sans-Serif" font-size="10.00">serialize()</text>
<polygon fill="#666666" stroke="#666666" points="14,-805 14,-805 171,-805 171,-805 14,-805"/>
<polygon fill="#666666" stroke="#666666" points="14,-790 14,-790 171,-790 171,-790 14,-790"/>
<polygon fill="none" stroke="#666666" points="13.5,-743 13.5,-833 170.5,-833 170.5,-743 13.5,-743"/>
</a>
</g>
</g>
<!-- Node3&#45;&gt;Node2 -->
<g id="edge2_Node000002_Node000003" class="edge">
<title>Node3&#45;&gt;Node2</title>
<g id="a_edge2_Node000002_Node000003"><a xlink:title=" ">
<path fill="none" stroke="#63b8ff" d="M92.59,-732.59C93.26,-670.68 94.37,-569.02 95.14,-498.19"/>
<polygon fill="none" stroke="#63b8ff" points="89.09,-732.88 92.48,-742.92 96.09,-732.95 89.09,-732.88"/>
</a>
</g>
</g>
<!-- Node5 -->
<g id="Node000005" class="node">
<title>Node5</title>
<g id="a_Node000005"><a xlink:href="classAbstractLinearParabolicPde.html" target="_top" xlink:title=" ">
<polygon fill="white" stroke="transparent" points="300,-706 108,-706 108,-545 300,-545 300,-706"/>
<text text-anchor="start" x="126.5" y="-693.5" font-family="Helvetica,sans-Serif" font-size="10.00">AbstractLinearParabolicPde</text>
<text text-anchor="start" x="126.5" y="-682.5" font-family="Helvetica,sans-Serif" font-size="10.00">&lt; ELEMENT_DIM, SPACE_DIM &gt;</text>
<text text-anchor="start" x="202" y="-667.5" font-family="Helvetica,sans-Serif" font-size="10.00"> </text>
<text text-anchor="start" x="112" y="-652.5" font-family="Helvetica,sans-Serif" font-size="10.00">+</text>
<text text-anchor="start" x="125" y="-652.5" font-family="Helvetica,sans-Serif" font-size="10.00">AbstractLinearParabolicPde()</text>
<text text-anchor="start" x="112" y="-637.5" font-family="Helvetica,sans-Serif" font-size="10.00">+</text>
<text text-anchor="start" x="125" y="-637.5" font-family="Helvetica,sans-Serif" font-size="10.00">~AbstractLinearParabolic</text>
<text text-anchor="start" x="125" y="-626.5" font-family="Helvetica,sans-Serif" font-size="10.00">Pde()</text>
<text text-anchor="start" x="112" y="-611.5" font-family="Helvetica,sans-Serif" font-size="10.00">+</text>
<text text-anchor="start" x="125" y="-611.5" font-family="Helvetica,sans-Serif" font-size="10.00">ComputeDuDtCoefficientFunction()</text>
<text text-anchor="start" x="112" y="-596.5" font-family="Helvetica,sans-Serif" font-size="10.00">+</text>
<text text-anchor="start" x="125" y="-596.5" font-family="Helvetica,sans-Serif" font-size="10.00">ComputeSourceTerm()</text>
<text text-anchor="start" x="112" y="-581.5" font-family="Helvetica,sans-Serif" font-size="10.00">+</text>
<text text-anchor="start" x="125" y="-581.5" font-family="Helvetica,sans-Serif" font-size="10.00">ComputeSourceTermAtNode()</text>
<text text-anchor="start" x="112" y="-566.5" font-family="Helvetica,sans-Serif" font-size="10.00">+</text>
<text text-anchor="start" x="125" y="-566.5" font-family="Helvetica,sans-Serif" font-size="10.00">ComputeDiffusionTerm()</text>
<text text-anchor="start" x="114.5" y="-551.5" font-family="Helvetica,sans-Serif" font-size="10.00">&#45;</text>
<text text-anchor="start" x="125" y="-551.5" font-family="Helvetica,sans-Serif" font-size="10.00">serialize()</text>
<polygon fill="#666666" stroke="#666666" points="108,-677.5 108,-677.5 300,-677.5 300,-677.5 108,-677.5"/>
<polygon fill="#666666" stroke="#666666" points="108,-662.5 108,-662.5 300,-662.5 300,-662.5 108,-662.5"/>
<polygon fill="none" stroke="#666666" points="108,-545 108,-706 300,-706 300,-545 108,-545"/>
</a>
</g>
</g>
<!-- Node3&#45;&gt;Node5 -->
<g id="edge5_Node000005_Node000003" class="edge">
<title>Node3&#45;&gt;Node5</title>
<g id="a_edge5_Node000005_Node000003"><a xlink:title=" ">
<path fill="none" stroke="#63b8ff" d="M128.63,-734.51C135,-725.38 141.75,-715.71 148.49,-706.05"/>
<polygon fill="none" stroke="#63b8ff" points="125.75,-732.51 122.9,-742.72 131.49,-736.52 125.75,-732.51"/>
</a>
</g>
</g>
<!-- Node4 -->
<g id="Node000004" class="node">
<title>Node4</title>
<g id="a_Node000004"><a xlink:href="classAbstractLinearPde.html" target="_top" xlink:title=" ">
<polygon fill="white" stroke="transparent" points="170.5,-981 13.5,-981 13.5,-891 170.5,-891 170.5,-981"/>
<text text-anchor="start" x="19" y="-969" font-family="Helvetica,sans-Serif" font-size="10.00">AbstractLinearPde&lt;</text>
<text text-anchor="start" x="19" y="-958" font-family="Helvetica,sans-Serif" font-size="10.00"> ELEMENT_DIM, SPACE_DIM &gt;</text>
<text text-anchor="start" x="90.5" y="-943" font-family="Helvetica,sans-Serif" font-size="10.00"> </text>
<text text-anchor="start" x="25.5" y="-928" font-family="Helvetica,sans-Serif" font-size="10.00">+</text>
<text text-anchor="start" x="46" y="-928" font-family="Helvetica,sans-Serif" font-size="10.00">AbstractLinearPde()</text>
<text text-anchor="start" x="25.5" y="-913" font-family="Helvetica,sans-Serif" font-size="10.00">+</text>
<text text-anchor="start" x="46" y="-913" font-family="Helvetica,sans-Serif" font-size="10.00">~AbstractLinearPde()</text>
<text text-anchor="start" x="28" y="-898" font-family="Helvetica,sans-Serif" font-size="10.00">&#45;</text>
<text text-anchor="start" x="46" y="-898" font-family="Helvetica,sans-Serif" font-size="10.00">serialize()</text>
<polygon fill="#666666" stroke="#666666" points="14,-953 14,-953 171,-953 171,-953 14,-953"/>
<polygon fill="#666666" stroke="#666666" points="14,-938 14,-938 171,-938 171,-938 14,-938"/>
<polygon fill="none" stroke="#666666" points="13.5,-891 13.5,-981 170.5,-981 170.5,-891 13.5,-891"/>
</a>
</g>
</g>
<!-- Node4&#45;&gt;Node3 -->
<g id="edge3_Node000003_Node000004" class="edge">
<title>Node4&#45;&gt;Node3</title>
<g id="a_edge3_Node000003_Node000004"><a xlink:title=" ">
<path fill="none" stroke="orange" d="M92,-880.69C92,-864.99 92,-848.05 92,-833.05"/>
<polygon fill="orange" stroke="orange" points="88.5,-880.8 92,-890.8 95.5,-880.8 88.5,-880.8"/>
</a>
</g>
<text text-anchor="start" x="92" y="-865" font-family="Helvetica,sans-Serif" font-size="10.00" fill="grey"> &lt; ELEMENT_DIM, SPACE</text>
<text text-anchor="middle" x="153" y="-854" font-family="Helvetica,sans-Serif" font-size="10.00" fill="grey">_DIM &gt;</text>
</g>
<!-- Node5&#45;&gt;Node2 -->
<g id="edge4_Node000002_Node000005" class="edge">
<title>Node5&#45;&gt;Node2</title>
<g id="a_edge4_Node000002_Node000005"><a xlink:title=" ">
<path fill="none" stroke="orange" d="M157.51,-535.83C150.97,-523.34 144.27,-510.58 137.82,-498.27"/>
<polygon fill="orange" stroke="orange" points="154.5,-537.62 162.24,-544.86 160.7,-534.37 154.5,-537.62"/>
</a>
</g>
<text text-anchor="middle" x="185.5" y="-519" font-family="Helvetica,sans-Serif" font-size="10.00" fill="grey"> &lt; DIM, DIM &gt;</text>
</g>
</g>
</svg>
