<?xml version="1.0" encoding="UTF-8" standalone="no"?>
<!DOCTYPE svg PUBLIC "-//W3C//DTD SVG 1.1//EN"
 "http://www.w3.org/Graphics/SVG/1.1/DTD/svg11.dtd">
<!-- Generated by graphviz version 2.43.0 (0)
 -->
<!-- Title: AbstractCellPopulationEventWriter&lt; ELEMENT_DIM, SPACE_DIM &gt; Pages: 1 -->
<svg width="360pt" height="746pt"
 viewBox="0.00 0.00 359.50 746.00" xmlns="http://www.w3.org/2000/svg" xmlns:xlink="http://www.w3.org/1999/xlink">
<g id="graph0" class="graph" transform="scale(1 1) rotate(0) translate(4 742)">
<title>AbstractCellPopulationEventWriter&lt; ELEMENT_DIM, SPACE_DIM &gt;</title>
<!-- Node1 -->
<g id="Node000001" class="node">
<title>Node1</title>
<g id="a_Node000001"><a xlink:title=" ">
<polygon fill="#999999" stroke="transparent" points="272,-377 77,-377 77,-201 272,-201 272,-377"/>
<text text-anchor="start" x="82.5" y="-365" font-family="Helvetica,sans-Serif" font-size="10.00">AbstractCellPopulationEvent</text>
<text text-anchor="start" x="82.5" y="-354" font-family="Helvetica,sans-Serif" font-size="10.00">Writer&lt; ELEMENT_DIM, SPACE_DIM &gt;</text>
<text text-anchor="start" x="173" y="-339" font-family="Helvetica,sans-Serif" font-size="10.00"> </text>
<text text-anchor="start" x="90" y="-324" font-family="Helvetica,sans-Serif" font-size="10.00">+</text>
<text text-anchor="start" x="111.5" y="-324" font-family="Helvetica,sans-Serif" font-size="10.00">AbstractCellPopulationEvent</text>
<text text-anchor="start" x="111.5" y="-313" font-family="Helvetica,sans-Serif" font-size="10.00">Writer()</text>
<text text-anchor="start" x="90" y="-298" font-family="Helvetica,sans-Serif" font-size="10.00">+</text>
<text text-anchor="start" x="111.5" y="-298" font-family="Helvetica,sans-Serif" font-size="10.00">WriteHeader()</text>
<text text-anchor="start" x="90" y="-283" font-family="Helvetica,sans-Serif" font-size="10.00">+</text>
<text text-anchor="start" x="111.5" y="-283" font-family="Helvetica,sans-Serif" font-size="10.00">Visit()</text>
<text text-anchor="start" x="90" y="-268" font-family="Helvetica,sans-Serif" font-size="10.00">+</text>
<text text-anchor="start" x="111.5" y="-268" font-family="Helvetica,sans-Serif" font-size="10.00">Visit()</text>
<text text-anchor="start" x="90" y="-253" font-family="Helvetica,sans-Serif" font-size="10.00">+</text>
<text text-anchor="start" x="111.5" y="-253" font-family="Helvetica,sans-Serif" font-size="10.00">Visit()</text>
<text text-anchor="start" x="90" y="-238" font-family="Helvetica,sans-Serif" font-size="10.00">+</text>
<text text-anchor="start" x="111.5" y="-238" font-family="Helvetica,sans-Serif" font-size="10.00">Visit()</text>
<text text-anchor="start" x="90" y="-223" font-family="Helvetica,sans-Serif" font-size="10.00">+</text>
<text text-anchor="start" x="111.5" y="-223" font-family="Helvetica,sans-Serif" font-size="10.00">Visit()</text>
<text text-anchor="start" x="92.5" y="-208" font-family="Helvetica,sans-Serif" font-size="10.00">&#45;</text>
<text text-anchor="start" x="111.5" y="-208" font-family="Helvetica,sans-Serif" font-size="10.00">serialize()</text>
<polygon fill="#666666" stroke="#666666" points="77.5,-349 77.5,-349 272.5,-349 272.5,-349 77.5,-349"/>
<polygon fill="#666666" stroke="#666666" points="77.5,-334 77.5,-334 272.5,-334 272.5,-334 77.5,-334"/>
<polygon fill="none" stroke="#666666" points="77,-201 77,-377 272,-377 272,-201 77,-201"/>
</a>
</g>
</g>
<!-- Node4 -->
<g id="Node000004" class="node">
<title>Node4</title>
<g id="a_Node000004"><a xlink:href="classCellDivisionLocationsWriter.html" target="_top" xlink:title=" ">
<polygon fill="white" stroke="transparent" points="165,-165 0,-165 0,0 165,0 165,-165"/>
<text text-anchor="start" x="5.5" y="-152.5" font-family="Helvetica,sans-Serif" font-size="10.00">CellDivisionLocationsWriter</text>
<text text-anchor="start" x="5.5" y="-141.5" font-family="Helvetica,sans-Serif" font-size="10.00">&lt; ELEMENT_DIM, SPACE_DIM &gt;</text>
<text text-anchor="start" x="81" y="-126.5" font-family="Helvetica,sans-Serif" font-size="10.00"> </text>
<text text-anchor="start" x="4.5" y="-111.5" font-family="Helvetica,sans-Serif" font-size="10.00">+</text>
<text text-anchor="start" x="17.5" y="-111.5" font-family="Helvetica,sans-Serif" font-size="10.00">CellDivisionLocationsWriter()</text>
<text text-anchor="start" x="4.5" y="-96.5" font-family="Helvetica,sans-Serif" font-size="10.00">+</text>
<text text-anchor="start" x="17.5" y="-96.5" font-family="Helvetica,sans-Serif" font-size="10.00">VisitAnyPopulation()</text>
<text text-anchor="start" x="4.5" y="-81.5" font-family="Helvetica,sans-Serif" font-size="10.00">+</text>
<text text-anchor="start" x="17.5" y="-81.5" font-family="Helvetica,sans-Serif" font-size="10.00">Visit()</text>
<text text-anchor="start" x="4.5" y="-66.5" font-family="Helvetica,sans-Serif" font-size="10.00">+</text>
<text text-anchor="start" x="17.5" y="-66.5" font-family="Helvetica,sans-Serif" font-size="10.00">Visit()</text>
<text text-anchor="start" x="4.5" y="-51.5" font-family="Helvetica,sans-Serif" font-size="10.00">+</text>
<text text-anchor="start" x="17.5" y="-51.5" font-family="Helvetica,sans-Serif" font-size="10.00">Visit()</text>
<text text-anchor="start" x="4.5" y="-36.5" font-family="Helvetica,sans-Serif" font-size="10.00">+</text>
<text text-anchor="start" x="17.5" y="-36.5" font-family="Helvetica,sans-Serif" font-size="10.00">Visit()</text>
<text text-anchor="start" x="4.5" y="-21.5" font-family="Helvetica,sans-Serif" font-size="10.00">+</text>
<text text-anchor="start" x="17.5" y="-21.5" font-family="Helvetica,sans-Serif" font-size="10.00">Visit()</text>
<text text-anchor="start" x="7" y="-6.5" font-family="Helvetica,sans-Serif" font-size="10.00">&#45;</text>
<text text-anchor="start" x="17.5" y="-6.5" font-family="Helvetica,sans-Serif" font-size="10.00">serialize()</text>
<polygon fill="#666666" stroke="#666666" points="0.5,-136.5 0.5,-136.5 165.5,-136.5 165.5,-136.5 0.5,-136.5"/>
<polygon fill="#666666" stroke="#666666" points="0.5,-121.5 0.5,-121.5 165.5,-121.5 165.5,-121.5 0.5,-121.5"/>
<polygon fill="none" stroke="#666666" points="0,0 0,-165 165,-165 165,0 0,0"/>
</a>
</g>
</g>
<!-- Node1&#45;&gt;Node4 -->
<g id="edge3_Node000001_Node000004" class="edge">
<title>Node1&#45;&gt;Node4</title>
<g id="a_edge3_Node000001_Node000004"><a xlink:title=" ">
<path fill="none" stroke="#63b8ff" d="M131.21,-191.77C127.22,-182.9 123.2,-173.97 119.28,-165.25"/>
<polygon fill="none" stroke="#63b8ff" points="128.06,-193.29 135.35,-200.98 134.44,-190.42 128.06,-193.29"/>
</a>
</g>
</g>
<!-- Node5 -->
<g id="Node000005" class="node">
<title>Node5</title>
<g id="a_Node000005"><a xlink:href="classCellRemovalLocationsWriter.html" target="_top" xlink:title=" ">
<polygon fill="white" stroke="transparent" points="351.5,-165 183.5,-165 183.5,0 351.5,0 351.5,-165"/>
<text text-anchor="start" x="190" y="-152.5" font-family="Helvetica,sans-Serif" font-size="10.00">CellRemovalLocationsWriter</text>
<text text-anchor="start" x="190" y="-141.5" font-family="Helvetica,sans-Serif" font-size="10.00">&lt; ELEMENT_DIM, SPACE_DIM &gt;</text>
<text text-anchor="start" x="265.5" y="-126.5" font-family="Helvetica,sans-Serif" font-size="10.00"> </text>
<text text-anchor="start" x="187.5" y="-111.5" font-family="Helvetica,sans-Serif" font-size="10.00">+</text>
<text text-anchor="start" x="200.5" y="-111.5" font-family="Helvetica,sans-Serif" font-size="10.00">CellRemovalLocationsWriter()</text>
<text text-anchor="start" x="187.5" y="-96.5" font-family="Helvetica,sans-Serif" font-size="10.00">+</text>
<text text-anchor="start" x="200.5" y="-96.5" font-family="Helvetica,sans-Serif" font-size="10.00">VisitAnyPopulation()</text>
<text text-anchor="start" x="187.5" y="-81.5" font-family="Helvetica,sans-Serif" font-size="10.00">+</text>
<text text-anchor="start" x="200.5" y="-81.5" font-family="Helvetica,sans-Serif" font-size="10.00">Visit()</text>
<text text-anchor="start" x="187.5" y="-66.5" font-family="Helvetica,sans-Serif" font-size="10.00">+</text>
<text text-anchor="start" x="200.5" y="-66.5" font-family="Helvetica,sans-Serif" font-size="10.00">Visit()</text>
<text text-anchor="start" x="187.5" y="-51.5" font-family="Helvetica,sans-Serif" font-size="10.00">+</text>
<text text-anchor="start" x="200.5" y="-51.5" font-family="Helvetica,sans-Serif" font-size="10.00">Visit()</text>
<text text-anchor="start" x="187.5" y="-36.5" font-family="Helvetica,sans-Serif" font-size="10.00">+</text>
<text text-anchor="start" x="200.5" y="-36.5" font-family="Helvetica,sans-Serif" font-size="10.00">Visit()</text>
<text text-anchor="start" x="187.5" y="-21.5" font-family="Helvetica,sans-Serif" font-size="10.00">+</text>
<text text-anchor="start" x="200.5" y="-21.5" font-family="Helvetica,sans-Serif" font-size="10.00">Visit()</text>
<text text-anchor="start" x="190" y="-6.5" font-family="Helvetica,sans-Serif" font-size="10.00">&#45;</text>
<text text-anchor="start" x="200.5" y="-6.5" font-family="Helvetica,sans-Serif" font-size="10.00">serialize()</text>
<polygon fill="#666666" stroke="#666666" points="183.5,-136.5 183.5,-136.5 351.5,-136.5 351.5,-136.5 183.5,-136.5"/>
<polygon fill="#666666" stroke="#666666" points="183.5,-121.5 183.5,-121.5 351.5,-121.5 351.5,-121.5 183.5,-121.5"/>
<polygon fill="none" stroke="#666666" points="183.5,0 183.5,-165 351.5,-165 351.5,0 183.5,0"/>
</a>
</g>
</g>
<!-- Node1&#45;&gt;Node5 -->
<g id="edge4_Node000001_Node000005" class="edge">
<title>Node1&#45;&gt;Node5</title>
<g id="a_edge4_Node000001_Node000005"><a xlink:title=" ">
<path fill="none" stroke="#63b8ff" d="M218.26,-191.77C222.3,-182.9 226.36,-173.97 230.32,-165.25"/>
<polygon fill="none" stroke="#63b8ff" points="215.03,-190.43 214.08,-200.98 221.4,-193.32 215.03,-190.43"/>
</a>
</g>
</g>
<!-- Node2 -->
<g id="Node000002" class="node">
<title>Node2</title>
<g id="a_Node000002"><a xlink:href="classAbstractCellBasedWriter.html" target="_top" xlink:title=" ">
<polygon fill="white" stroke="transparent" points="257,-623 92,-623 92,-413 257,-413 257,-623"/>
<text text-anchor="start" x="97.5" y="-611" font-family="Helvetica,sans-Serif" font-size="10.00">AbstractCellBasedWriter</text>
<text text-anchor="start" x="97.5" y="-600" font-family="Helvetica,sans-Serif" font-size="10.00">&lt; ELEMENT_DIM, SPACE_DIM &gt;</text>
<text text-anchor="start" x="98.5" y="-585" font-family="Helvetica,sans-Serif" font-size="10.00">#</text>
<text text-anchor="start" x="113.5" y="-585" font-family="Helvetica,sans-Serif" font-size="10.00">mFileName</text>
<text text-anchor="start" x="98.5" y="-570" font-family="Helvetica,sans-Serif" font-size="10.00">#</text>
<text text-anchor="start" x="113.5" y="-570" font-family="Helvetica,sans-Serif" font-size="10.00">mpOutStream</text>
<text text-anchor="start" x="98.5" y="-555" font-family="Helvetica,sans-Serif" font-size="10.00">+</text>
<text text-anchor="start" x="113.5" y="-555" font-family="Helvetica,sans-Serif" font-size="10.00">AbstractCellBasedWriter()</text>
<text text-anchor="start" x="98.5" y="-540" font-family="Helvetica,sans-Serif" font-size="10.00">+</text>
<text text-anchor="start" x="113.5" y="-540" font-family="Helvetica,sans-Serif" font-size="10.00">~AbstractCellBasedWriter()</text>
<text text-anchor="start" x="98.5" y="-525" font-family="Helvetica,sans-Serif" font-size="10.00">+</text>
<text text-anchor="start" x="113.5" y="-525" font-family="Helvetica,sans-Serif" font-size="10.00">CloseFile()</text>
<text text-anchor="start" x="98.5" y="-510" font-family="Helvetica,sans-Serif" font-size="10.00">+</text>
<text text-anchor="start" x="113.5" y="-510" font-family="Helvetica,sans-Serif" font-size="10.00">OpenOutputFile()</text>
<text text-anchor="start" x="98.5" y="-495" font-family="Helvetica,sans-Serif" font-size="10.00">+</text>
<text text-anchor="start" x="113.5" y="-495" font-family="Helvetica,sans-Serif" font-size="10.00">OpenOutputFileForAppend()</text>
<text text-anchor="start" x="98.5" y="-480" font-family="Helvetica,sans-Serif" font-size="10.00">+</text>
<text text-anchor="start" x="113.5" y="-480" font-family="Helvetica,sans-Serif" font-size="10.00">WriteTimeStamp()</text>
<text text-anchor="start" x="98.5" y="-465" font-family="Helvetica,sans-Serif" font-size="10.00">+</text>
<text text-anchor="start" x="113.5" y="-465" font-family="Helvetica,sans-Serif" font-size="10.00">WriteNewline()</text>
<text text-anchor="start" x="98.5" y="-450" font-family="Helvetica,sans-Serif" font-size="10.00">+</text>
<text text-anchor="start" x="113.5" y="-450" font-family="Helvetica,sans-Serif" font-size="10.00">SetFileName()</text>
<text text-anchor="start" x="98.5" y="-435" font-family="Helvetica,sans-Serif" font-size="10.00">+</text>
<text text-anchor="start" x="113.5" y="-435" font-family="Helvetica,sans-Serif" font-size="10.00">GetFileName()</text>
<text text-anchor="start" x="101" y="-420" font-family="Helvetica,sans-Serif" font-size="10.00">&#45;</text>
<text text-anchor="start" x="113.5" y="-420" font-family="Helvetica,sans-Serif" font-size="10.00">serialize()</text>
<polygon fill="#666666" stroke="#666666" points="92.5,-595 92.5,-595 257.5,-595 257.5,-595 92.5,-595"/>
<polygon fill="#666666" stroke="#666666" points="92.5,-565 92.5,-565 111.5,-565 111.5,-565 92.5,-565"/>
<polygon fill="#666666" stroke="#666666" points="111.5,-565 111.5,-565 257.5,-565 257.5,-565 111.5,-565"/>
<polygon fill="none" stroke="#666666" points="92,-413 92,-623 257,-623 257,-413 92,-413"/>
</a>
</g>
</g>
<!-- Node2&#45;&gt;Node1 -->
<g id="edge1_Node000001_Node000002" class="edge">
<title>Node2&#45;&gt;Node1</title>
<g id="a_edge1_Node000001_Node000002"><a xlink:title=" ">
<path fill="none" stroke="#63b8ff" d="M174.5,-402.75C174.5,-394.18 174.5,-385.62 174.5,-377.25"/>
<polygon fill="none" stroke="#63b8ff" points="171,-402.8 174.5,-412.8 178,-402.8 171,-402.8"/>
</a>
</g>
</g>
<!-- Node3 -->
<g id="Node000003" class="node">
<title>Node3</title>
<g id="a_Node000003"><a xlink:href="classIdentifiable.html" target="_top" xlink:title=" ">
<polygon fill="white" stroke="transparent" points="262.5,-738 86.5,-738 86.5,-659 262.5,-659 262.5,-738"/>
<text text-anchor="start" x="147" y="-725.5" font-family="Helvetica,sans-Serif" font-size="10.00">Identifiable</text>
<text text-anchor="start" x="172.5" y="-710.5" font-family="Helvetica,sans-Serif" font-size="10.00"> </text>
<text text-anchor="start" x="90.5" y="-695.5" font-family="Helvetica,sans-Serif" font-size="10.00">+</text>
<text text-anchor="start" x="103.5" y="-695.5" font-family="Helvetica,sans-Serif" font-size="10.00">~Identifiable()</text>
<text text-anchor="start" x="90.5" y="-680.5" font-family="Helvetica,sans-Serif" font-size="10.00">+</text>
<text text-anchor="start" x="103.5" y="-680.5" font-family="Helvetica,sans-Serif" font-size="10.00">GetIdentifier()</text>
<text text-anchor="start" x="93" y="-665.5" font-family="Helvetica,sans-Serif" font-size="10.00">&#45;</text>
<text text-anchor="start" x="103.5" y="-665.5" font-family="Helvetica,sans-Serif" font-size="10.00">TidyTemplatedExportIdentifier()</text>
<polygon fill="#666666" stroke="#666666" points="86.5,-720.5 86.5,-720.5 262.5,-720.5 262.5,-720.5 86.5,-720.5"/>
<polygon fill="#666666" stroke="#666666" points="86.5,-705.5 86.5,-705.5 262.5,-705.5 262.5,-705.5 86.5,-705.5"/>
<polygon fill="none" stroke="#666666" points="86.5,-659 86.5,-738 262.5,-738 262.5,-659 86.5,-659"/>
</a>
</g>
</g>
<!-- Node3&#45;&gt;Node2 -->
<g id="edge2_Node000002_Node000003" class="edge">
<title>Node3&#45;&gt;Node2</title>
<g id="a_edge2_Node000002_Node000003"><a xlink:title=" ">
<path fill="none" stroke="#63b8ff" d="M174.5,-648.55C174.5,-640.51 174.5,-631.92 174.5,-623.13"/>
<polygon fill="none" stroke="#63b8ff" points="171,-648.77 174.5,-658.77 178,-648.77 171,-648.77"/>
</a>
</g>
</g>
</g>
</svg>
