<?xml version="1.0" encoding="UTF-8" standalone="no"?>
<!DOCTYPE svg PUBLIC "-//W3C//DTD SVG 1.1//EN"
 "http://www.w3.org/Graphics/SVG/1.1/DTD/svg11.dtd">
<!-- Generated by graphviz version 2.43.0 (0)
 -->
<!-- Title: CombinedOdeSystemInformation Pages: 1 -->
<svg width="638pt" height="529pt"
 viewBox="0.00 0.00 637.50 529.00" xmlns="http://www.w3.org/2000/svg" xmlns:xlink="http://www.w3.org/1999/xlink">
<g id="graph0" class="graph" transform="scale(1 1) rotate(0) translate(4 525)">
<title>CombinedOdeSystemInformation</title>
<!-- Node1 -->
<g id="Node000001" class="node">
<title>Node1</title>
<g id="a_Node000001"><a xlink:title=" ">
<polygon fill="#999999" stroke="transparent" points="516,-109 324,-109 324,0 516,0 516,-109"/>
<text text-anchor="start" x="338.5" y="-96.5" font-family="Helvetica,sans-Serif" font-size="10.00">CombinedOdeSystemInformation</text>
<text text-anchor="start" x="418" y="-81.5" font-family="Helvetica,sans-Serif" font-size="10.00"> </text>
<text text-anchor="start" x="328" y="-66.5" font-family="Helvetica,sans-Serif" font-size="10.00">+</text>
<text text-anchor="start" x="341" y="-66.5" font-family="Helvetica,sans-Serif" font-size="10.00">Instance()</text>
<text text-anchor="start" x="328" y="-51.5" font-family="Helvetica,sans-Serif" font-size="10.00">#</text>
<text text-anchor="start" x="341" y="-51.5" font-family="Helvetica,sans-Serif" font-size="10.00">CombinedOdeSystemInformation()</text>
<text text-anchor="start" x="328" y="-36.5" font-family="Helvetica,sans-Serif" font-size="10.00">#</text>
<text text-anchor="start" x="341" y="-36.5" font-family="Helvetica,sans-Serif" font-size="10.00">CombinedOdeSystemInformation()</text>
<text text-anchor="start" x="328" y="-21.5" font-family="Helvetica,sans-Serif" font-size="10.00">#</text>
<text text-anchor="start" x="341" y="-21.5" font-family="Helvetica,sans-Serif" font-size="10.00">operator=()</text>
<text text-anchor="start" x="328" y="-6.5" font-family="Helvetica,sans-Serif" font-size="10.00">#</text>
<text text-anchor="start" x="341" y="-6.5" font-family="Helvetica,sans-Serif" font-size="10.00">Initialise()</text>
<polygon fill="#666666" stroke="#666666" points="324,-91.5 324,-91.5 516,-91.5 516,-91.5 324,-91.5"/>
<polygon fill="#666666" stroke="#666666" points="324,-76.5 324,-76.5 516,-76.5 516,-76.5 324,-76.5"/>
<polygon fill="none" stroke="#666666" points="324,0 324,-109 516,-109 516,0 324,0"/>
</a>
</g>
</g>
<!-- Node2 -->
<g id="Node000002" class="node">
<title>Node2</title>
<g id="a_Node000002"><a xlink:href="classAbstractOdeSystemInformation.html" target="_top" xlink:title=" ">
<polygon fill="white" stroke="transparent" points="408.5,-370 217.5,-370 217.5,-156 408.5,-156 408.5,-370"/>
<text text-anchor="start" x="236.5" y="-358" font-family="Helvetica,sans-Serif" font-size="10.00">AbstractOdeSystemInformation</text>
<text text-anchor="start" x="311.5" y="-343" font-family="Helvetica,sans-Serif" font-size="10.00"> </text>
<text text-anchor="start" x="222" y="-328" font-family="Helvetica,sans-Serif" font-size="10.00">+</text>
<text text-anchor="start" x="235" y="-328" font-family="Helvetica,sans-Serif" font-size="10.00">AbstractOdeSystemInformation()</text>
<text text-anchor="start" x="222" y="-313" font-family="Helvetica,sans-Serif" font-size="10.00">+</text>
<text text-anchor="start" x="235" y="-313" font-family="Helvetica,sans-Serif" font-size="10.00">~AbstractOdeSystemInformation()</text>
<text text-anchor="start" x="222" y="-298" font-family="Helvetica,sans-Serif" font-size="10.00">+</text>
<text text-anchor="start" x="235" y="-298" font-family="Helvetica,sans-Serif" font-size="10.00">GetSystemName()</text>
<text text-anchor="start" x="222" y="-283" font-family="Helvetica,sans-Serif" font-size="10.00">+</text>
<text text-anchor="start" x="235" y="-283" font-family="Helvetica,sans-Serif" font-size="10.00">GetFreeVariableName()</text>
<text text-anchor="start" x="222" y="-268" font-family="Helvetica,sans-Serif" font-size="10.00">+</text>
<text text-anchor="start" x="235" y="-268" font-family="Helvetica,sans-Serif" font-size="10.00">GetFreeVariableUnits()</text>
<text text-anchor="start" x="222" y="-253" font-family="Helvetica,sans-Serif" font-size="10.00">+</text>
<text text-anchor="start" x="235" y="-253" font-family="Helvetica,sans-Serif" font-size="10.00">SetDefaultInitialConditions()</text>
<text text-anchor="start" x="222" y="-238" font-family="Helvetica,sans-Serif" font-size="10.00">+</text>
<text text-anchor="start" x="235" y="-238" font-family="Helvetica,sans-Serif" font-size="10.00">SetDefaultInitialCondition()</text>
<text text-anchor="start" x="222" y="-223" font-family="Helvetica,sans-Serif" font-size="10.00">+</text>
<text text-anchor="start" x="235" y="-223" font-family="Helvetica,sans-Serif" font-size="10.00">GetInitialConditions()</text>
<text text-anchor="start" x="222" y="-208" font-family="Helvetica,sans-Serif" font-size="10.00">+</text>
<text text-anchor="start" x="235" y="-208" font-family="Helvetica,sans-Serif" font-size="10.00">rGetStateVariableNames()</text>
<text text-anchor="start" x="222" y="-193" font-family="Helvetica,sans-Serif" font-size="10.00">+</text>
<text text-anchor="start" x="235" y="-193" font-family="Helvetica,sans-Serif" font-size="10.00">rGetStateVariableUnits()</text>
<text text-anchor="start" x="235" y="-178" font-family="Helvetica,sans-Serif" font-size="10.00">and 21 more...</text>
<text text-anchor="start" x="222" y="-163" font-family="Helvetica,sans-Serif" font-size="10.00">#</text>
<text text-anchor="start" x="235" y="-163" font-family="Helvetica,sans-Serif" font-size="10.00">Initialise()</text>
<polygon fill="#666666" stroke="#666666" points="218,-353 218,-353 409,-353 409,-353 218,-353"/>
<polygon fill="#666666" stroke="#666666" points="218,-338 218,-338 409,-338 409,-338 218,-338"/>
<polygon fill="none" stroke="#666666" points="217.5,-156 217.5,-370 408.5,-370 408.5,-156 217.5,-156"/>
</a>
</g>
</g>
<!-- Node2&#45;&gt;Node1 -->
<g id="edge1_Node000001_Node000002" class="edge">
<title>Node2&#45;&gt;Node1</title>
<g id="a_edge1_Node000001_Node000002"><a xlink:title=" ">
<path fill="none" stroke="#63b8ff" d="M372.78,-146.63C379.56,-133.54 386.21,-120.71 392.28,-109"/>
<polygon fill="none" stroke="#63b8ff" points="369.56,-145.24 368.07,-155.73 375.78,-148.46 369.56,-145.24"/>
</a>
</g>
</g>
<!-- Node3 -->
<g id="Node000003" class="node">
<title>Node3</title>
<g id="a_Node000003"><a xlink:title=" ">
<polygon fill="white" stroke="transparent" points="38,-521 0,-521 0,-472 38,-472 38,-521"/>
<text text-anchor="start" x="5" y="-508.5" font-family="Helvetica,sans-Serif" font-size="10.00">string</text>
<text text-anchor="start" x="17" y="-493.5" font-family="Helvetica,sans-Serif" font-size="10.00"> </text>
<text text-anchor="start" x="17" y="-478.5" font-family="Helvetica,sans-Serif" font-size="10.00"> </text>
<polygon fill="#bfbfbf" stroke="#bfbfbf" points="0,-503.5 0,-503.5 38,-503.5 38,-503.5 0,-503.5"/>
<polygon fill="#bfbfbf" stroke="#bfbfbf" points="0,-488.5 0,-488.5 38,-488.5 38,-488.5 0,-488.5"/>
<polygon fill="none" stroke="#bfbfbf" points="0,-472 0,-521 38,-521 38,-472 0,-472"/>
</a>
</g>
</g>
<!-- Node3&#45;&gt;Node2 -->
<g id="edge2_Node000002_Node000003" class="edge">
<title>Node3&#45;&gt;Node2</title>
<g id="a_edge2_Node000002_Node000003"><a xlink:title=" ">
<path fill="none" stroke="#63b8ff" d="M17.16,-471.58C16.61,-447.94 19.38,-411.94 38,-388 79,-335.29 147.37,-304.33 205.68,-286.52"/>
<polygon fill="none" stroke="#63b8ff" points="205.69,-286.52 210.31,-280.99 217.2,-283.13 212.57,-288.67 205.69,-286.52"/>
</a>
</g>
<text text-anchor="middle" x="94" y="-429.5" font-family="Helvetica,sans-Serif" font-size="10.00" fill="grey"> #mFreeVariableName</text>
<text text-anchor="middle" x="94" y="-418.5" font-family="Helvetica,sans-Serif" font-size="10.00" fill="grey">#mFreeVariableUnits</text>
<text text-anchor="middle" x="94" y="-407.5" font-family="Helvetica,sans-Serif" font-size="10.00" fill="grey">#mSystemName</text>
</g>
<!-- Node4 -->
<g id="Node000004" class="node">
<title>Node4</title>
<g id="a_Node000004"><a xlink:title=" ">
<polygon fill="white" stroke="transparent" points="210.5,-521 97.5,-521 97.5,-472 210.5,-472 210.5,-521"/>
<text text-anchor="start" x="103" y="-508.5" font-family="Helvetica,sans-Serif" font-size="10.00">vector&lt; std::string &gt;</text>
<text text-anchor="start" x="152.5" y="-493.5" font-family="Helvetica,sans-Serif" font-size="10.00"> </text>
<text text-anchor="start" x="152.5" y="-478.5" font-family="Helvetica,sans-Serif" font-size="10.00"> </text>
<polygon fill="#bfbfbf" stroke="#bfbfbf" points="98,-503.5 98,-503.5 211,-503.5 211,-503.5 98,-503.5"/>
<polygon fill="#bfbfbf" stroke="#bfbfbf" points="98,-488.5 98,-488.5 211,-488.5 211,-488.5 98,-488.5"/>
<polygon fill="none" stroke="#bfbfbf" points="97.5,-472 97.5,-521 210.5,-521 210.5,-472 97.5,-472"/>
</a>
</g>
</g>
<!-- Node4&#45;&gt;Node2 -->
<g id="edge3_Node000002_Node000004" class="edge">
<title>Node4&#45;&gt;Node2</title>
<g id="a_edge3_Node000002_Node000004"><a xlink:title=" ">
<path fill="none" stroke="#63b8ff" d="M152.93,-471.79C152.92,-448.96 155.65,-414.13 170,-388 179.91,-369.94 193.55,-353.29 208.49,-338.44"/>
<polygon fill="none" stroke="#63b8ff" points="208.74,-338.2 210.32,-331.16 217.42,-329.91 215.84,-336.95 208.74,-338.2"/>
</a>
</g>
<text text-anchor="middle" x="238" y="-446" font-family="Helvetica,sans-Serif" font-size="10.00" fill="grey"> #mDerivedQuantityNames</text>
<text text-anchor="middle" x="238" y="-435" font-family="Helvetica,sans-Serif" font-size="10.00" fill="grey">#mDerivedQuantityUnits</text>
<text text-anchor="middle" x="238" y="-424" font-family="Helvetica,sans-Serif" font-size="10.00" fill="grey">#mParameterNames</text>
<text text-anchor="middle" x="238" y="-413" font-family="Helvetica,sans-Serif" font-size="10.00" fill="grey">#mParameterUnits</text>
<text text-anchor="middle" x="238" y="-402" font-family="Helvetica,sans-Serif" font-size="10.00" fill="grey">#mVariableNames</text>
<text text-anchor="middle" x="238" y="-391" font-family="Helvetica,sans-Serif" font-size="10.00" fill="grey">#mVariableUnits</text>
</g>
<!-- Node5 -->
<g id="Node000005" class="node">
<title>Node5</title>
<g id="a_Node000005"><a xlink:title=" ">
<polygon fill="white" stroke="transparent" points="380.5,-521 237.5,-521 237.5,-472 380.5,-472 380.5,-521"/>
<text text-anchor="start" x="243" y="-508.5" font-family="Helvetica,sans-Serif" font-size="10.00">map&lt; std::string, double &gt;</text>
<text text-anchor="start" x="307.5" y="-493.5" font-family="Helvetica,sans-Serif" font-size="10.00"> </text>
<text text-anchor="start" x="307.5" y="-478.5" font-family="Helvetica,sans-Serif" font-size="10.00"> </text>
<polygon fill="#bfbfbf" stroke="#bfbfbf" points="238,-503.5 238,-503.5 381,-503.5 381,-503.5 238,-503.5"/>
<polygon fill="#bfbfbf" stroke="#bfbfbf" points="238,-488.5 238,-488.5 381,-488.5 381,-488.5 238,-488.5"/>
<polygon fill="none" stroke="#bfbfbf" points="237.5,-472 237.5,-521 380.5,-521 380.5,-472 237.5,-472"/>
</a>
</g>
</g>
<!-- Node5&#45;&gt;Node2 -->
<g id="edge4_Node000002_Node000005" class="edge">
<title>Node5&#45;&gt;Node2</title>
<g id="a_edge4_Node000002_Node000005"><a xlink:title=" ">
<path fill="none" stroke="#63b8ff" d="M309.41,-471.6C309.79,-449.9 310.37,-416.17 310.96,-382.17"/>
<polygon fill="none" stroke="#63b8ff" points="310.96,-382.15 307.06,-376.08 311.17,-370.15 315.06,-376.22 310.96,-382.15"/>
</a>
</g>
<text text-anchor="middle" x="346" y="-418.5" font-family="Helvetica,sans-Serif" font-size="10.00" fill="grey"> #mAttributes</text>
</g>
<!-- Node6 -->
<g id="Node000006" class="node">
<title>Node6</title>
<g id="a_Node000006"><a xlink:title=" ">
<polygon fill="white" stroke="transparent" points="495.5,-521 398.5,-521 398.5,-472 495.5,-472 495.5,-521"/>
<text text-anchor="start" x="404" y="-508.5" font-family="Helvetica,sans-Serif" font-size="10.00">vector&lt; double &gt;</text>
<text text-anchor="start" x="445.5" y="-493.5" font-family="Helvetica,sans-Serif" font-size="10.00"> </text>
<text text-anchor="start" x="445.5" y="-478.5" font-family="Helvetica,sans-Serif" font-size="10.00"> </text>
<polygon fill="#bfbfbf" stroke="#bfbfbf" points="399,-503.5 399,-503.5 496,-503.5 496,-503.5 399,-503.5"/>
<polygon fill="#bfbfbf" stroke="#bfbfbf" points="399,-488.5 399,-488.5 496,-488.5 496,-488.5 399,-488.5"/>
<polygon fill="none" stroke="#bfbfbf" points="398.5,-472 398.5,-521 495.5,-521 495.5,-472 398.5,-472"/>
</a>
</g>
</g>
<!-- Node6&#45;&gt;Node2 -->
<g id="edge5_Node000002_Node000006" class="edge">
<title>Node6&#45;&gt;Node2</title>
<g id="a_edge5_Node000002_Node000006"><a xlink:title=" ">
<path fill="none" stroke="#63b8ff" d="M424.21,-472C419.46,-466.37 414.76,-460.2 411,-454 394.66,-427.04 398.73,-416.38 385,-388 383.9,-385.72 382.77,-383.43 381.62,-381.13"/>
<polygon fill="none" stroke="#63b8ff" points="381.55,-381 375.26,-377.48 376.1,-370.31 382.39,-373.84 381.55,-381"/>
</a>
</g>
<text text-anchor="middle" x="461.5" y="-418.5" font-family="Helvetica,sans-Serif" font-size="10.00" fill="grey"> #mInitialConditions</text>
</g>
<!-- Node7 -->
<g id="Node000007" class="node">
<title>Node7</title>
<g id="a_Node000007"><a xlink:href="classbool.html" target="_top" xlink:title=" ">
<polygon fill="white" stroke="transparent" points="550,-521 518,-521 518,-472 550,-472 550,-521"/>
<text text-anchor="start" x="523" y="-508.5" font-family="Helvetica,sans-Serif" font-size="10.00">bool</text>
<text text-anchor="start" x="532" y="-493.5" font-family="Helvetica,sans-Serif" font-size="10.00"> </text>
<text text-anchor="start" x="532" y="-478.5" font-family="Helvetica,sans-Serif" font-size="10.00"> </text>
<polygon fill="#bfbfbf" stroke="#bfbfbf" points="518,-503.5 518,-503.5 550,-503.5 550,-503.5 518,-503.5"/>
<polygon fill="#bfbfbf" stroke="#bfbfbf" points="518,-488.5 518,-488.5 550,-488.5 550,-488.5 518,-488.5"/>
<polygon fill="none" stroke="#bfbfbf" points="518,-472 518,-521 550,-521 550,-472 518,-472"/>
</a>
</g>
</g>
<!-- Node7&#45;&gt;Node2 -->
<g id="edge6_Node000002_Node000007" class="edge">
<title>Node7&#45;&gt;Node2</title>
<g id="a_edge6_Node000002_Node000007"><a xlink:title=" ">
<path fill="none" stroke="#63b8ff" d="M536.15,-471.88C536.97,-447.43 534.1,-409.82 512,-388 484.16,-360.51 459.76,-385.29 419.42,-369.59"/>
<polygon fill="none" stroke="#63b8ff" points="419.39,-369.58 412.26,-370.67 408.51,-364.51 415.64,-363.42 419.39,-369.58"/>
</a>
</g>
<text text-anchor="middle" x="570" y="-418.5" font-family="Helvetica,sans-Serif" font-size="10.00" fill="grey"> #mInitialised</text>
</g>
<!-- Node8 -->
<g id="Node000008" class="node">
<title>Node8</title>
<g id="a_Node000008"><a xlink:title=" ">
<polygon fill="white" stroke="transparent" points="629.5,-293 426.5,-293 426.5,-233 629.5,-233 629.5,-293"/>
<text text-anchor="start" x="432" y="-281" font-family="Helvetica,sans-Serif" font-size="10.00">vector&lt; struct CombinedOde</text>
<text text-anchor="start" x="432" y="-270" font-family="Helvetica,sans-Serif" font-size="10.00">SystemInformation::InstancePointers &gt;</text>
<text text-anchor="start" x="526.5" y="-255" font-family="Helvetica,sans-Serif" font-size="10.00"> </text>
<text text-anchor="start" x="526.5" y="-240" font-family="Helvetica,sans-Serif" font-size="10.00"> </text>
<polygon fill="#bfbfbf" stroke="#bfbfbf" points="427,-265 427,-265 630,-265 630,-265 427,-265"/>
<polygon fill="#bfbfbf" stroke="#bfbfbf" points="427,-250 427,-250 630,-250 630,-250 427,-250"/>
<polygon fill="none" stroke="#bfbfbf" points="426.5,-233 426.5,-293 629.5,-293 629.5,-233 426.5,-233"/>
</a>
</g>
</g>
<!-- Node8&#45;&gt;Node1 -->
<g id="edge7_Node000001_Node000008" class="edge">
<title>Node8&#45;&gt;Node1</title>
<g id="a_edge7_Node000001_Node000008"><a xlink:title=" ">
<path fill="none" stroke="#63b8ff" d="M512.76,-232.85C497.51,-203.71 473.57,-157.92 453.82,-120.17"/>
<polygon fill="none" stroke="#63b8ff" points="453.67,-119.88 447.35,-116.42 448.11,-109.25 454.44,-112.71 453.67,-119.88"/>
</a>
</g>
<text text-anchor="middle" x="496.5" y="-130" font-family="Helvetica,sans-Serif" font-size="10.00" fill="grey"> &#45;msInstances</text>
</g>
</g>
</svg>
