<?xml version="1.0" encoding="UTF-8" standalone="no"?>
<!DOCTYPE svg PUBLIC "-//W3C//DTD SVG 1.1//EN"
 "http://www.w3.org/Graphics/SVG/1.1/DTD/svg11.dtd">
<!-- Generated by graphviz version 2.43.0 (0)
 -->
<!-- Title: ParabolicBoxDomainPdeModifier&lt; DIM &gt; Pages: 1 -->
<svg width="327pt" height="1704pt"
 viewBox="0.00 0.00 327.00 1704.00" xmlns="http://www.w3.org/2000/svg" xmlns:xlink="http://www.w3.org/1999/xlink">
<g id="graph0" class="graph" transform="scale(1 1) rotate(0) translate(4 1700)">
<title>ParabolicBoxDomainPdeModifier&lt; DIM &gt;</title>
<!-- Node1 -->
<g id="Node000001" class="node">
<title>Node1</title>
<g id="a_Node000001"><a xlink:title=" ">
<polygon fill="#999999" stroke="transparent" points="199.5,-258 3.5,-258 3.5,0 199.5,0 199.5,-258"/>
<text text-anchor="start" x="21.5" y="-246" font-family="Helvetica,sans-Serif" font-size="10.00">ParabolicBoxDomainPdeModifier</text>
<text text-anchor="start" x="80" y="-235" font-family="Helvetica,sans-Serif" font-size="10.00">&lt; DIM &gt;</text>
<text text-anchor="start" x="10" y="-220" font-family="Helvetica,sans-Serif" font-size="10.00">&#45;</text>
<text text-anchor="start" x="20.5" y="-220" font-family="Helvetica,sans-Serif" font-size="10.00">mMoveSolutionWithCells</text>
<text text-anchor="start" x="10" y="-205" font-family="Helvetica,sans-Serif" font-size="10.00">&#45;</text>
<text text-anchor="start" x="20.5" y="-205" font-family="Helvetica,sans-Serif" font-size="10.00">mOldCellLocations</text>
<text text-anchor="start" x="7.5" y="-190" font-family="Helvetica,sans-Serif" font-size="10.00">+</text>
<text text-anchor="start" x="20.5" y="-190" font-family="Helvetica,sans-Serif" font-size="10.00">ParabolicBoxDomainPdeModifier()</text>
<text text-anchor="start" x="7.5" y="-175" font-family="Helvetica,sans-Serif" font-size="10.00">+</text>
<text text-anchor="start" x="20.5" y="-175" font-family="Helvetica,sans-Serif" font-size="10.00">~ParabolicBoxDomainPdeModifier()</text>
<text text-anchor="start" x="7.5" y="-160" font-family="Helvetica,sans-Serif" font-size="10.00">+</text>
<text text-anchor="start" x="20.5" y="-160" font-family="Helvetica,sans-Serif" font-size="10.00">UpdateAtEndOfTimeStep()</text>
<text text-anchor="start" x="7.5" y="-145" font-family="Helvetica,sans-Serif" font-size="10.00">+</text>
<text text-anchor="start" x="20.5" y="-145" font-family="Helvetica,sans-Serif" font-size="10.00">SetupSolve()</text>
<text text-anchor="start" x="7.5" y="-130" font-family="Helvetica,sans-Serif" font-size="10.00">+</text>
<text text-anchor="start" x="20.5" y="-130" font-family="Helvetica,sans-Serif" font-size="10.00">ConstructBoundaryConditions</text>
<text text-anchor="start" x="20.5" y="-119" font-family="Helvetica,sans-Serif" font-size="10.00">Container()</text>
<text text-anchor="start" x="7.5" y="-104" font-family="Helvetica,sans-Serif" font-size="10.00">+</text>
<text text-anchor="start" x="20.5" y="-104" font-family="Helvetica,sans-Serif" font-size="10.00">SetupInitialSolutionVector()</text>
<text text-anchor="start" x="7.5" y="-89" font-family="Helvetica,sans-Serif" font-size="10.00">+</text>
<text text-anchor="start" x="20.5" y="-89" font-family="Helvetica,sans-Serif" font-size="10.00">InterpolateSolutionFromCell</text>
<text text-anchor="start" x="20.5" y="-78" font-family="Helvetica,sans-Serif" font-size="10.00">Movement()</text>
<text text-anchor="start" x="7.5" y="-63" font-family="Helvetica,sans-Serif" font-size="10.00">+</text>
<text text-anchor="start" x="20.5" y="-63" font-family="Helvetica,sans-Serif" font-size="10.00">SetMoveSolutionWithCells()</text>
<text text-anchor="start" x="7.5" y="-48" font-family="Helvetica,sans-Serif" font-size="10.00">+</text>
<text text-anchor="start" x="20.5" y="-48" font-family="Helvetica,sans-Serif" font-size="10.00">GetMoveSolutionWithCells()</text>
<text text-anchor="start" x="7.5" y="-33" font-family="Helvetica,sans-Serif" font-size="10.00">+</text>
<text text-anchor="start" x="20.5" y="-33" font-family="Helvetica,sans-Serif" font-size="10.00">OutputSimulationModifier</text>
<text text-anchor="start" x="20.5" y="-22" font-family="Helvetica,sans-Serif" font-size="10.00">Parameters()</text>
<text text-anchor="start" x="10" y="-7" font-family="Helvetica,sans-Serif" font-size="10.00">&#45;</text>
<text text-anchor="start" x="20.5" y="-7" font-family="Helvetica,sans-Serif" font-size="10.00">serialize()</text>
<polygon fill="#666666" stroke="#666666" points="3.5,-230 3.5,-230 199.5,-230 199.5,-230 3.5,-230"/>
<polygon fill="#666666" stroke="#666666" points="3.5,-200 3.5,-200 18.5,-200 18.5,-200 3.5,-200"/>
<polygon fill="#666666" stroke="#666666" points="18.5,-200 18.5,-200 199.5,-200 199.5,-200 18.5,-200"/>
<polygon fill="none" stroke="#666666" points="3.5,0 3.5,-258 199.5,-258 199.5,0 3.5,0"/>
</a>
</g>
</g>
<!-- Node2 -->
<g id="Node000002" class="node">
<title>Node2</title>
<g id="a_Node000002"><a xlink:href="classAbstractBoxDomainPdeModifier.html" target="_top" xlink:title=" ">
<polygon fill="white" stroke="transparent" points="203,-610 0,-610 0,-295 203,-295 203,-610"/>
<text text-anchor="start" x="24" y="-597.5" font-family="Helvetica,sans-Serif" font-size="10.00">AbstractBoxDomainPdeModifier</text>
<text text-anchor="start" x="80.5" y="-586.5" font-family="Helvetica,sans-Serif" font-size="10.00">&lt; DIM &gt;</text>
<text text-anchor="start" x="4.5" y="-571.5" font-family="Helvetica,sans-Serif" font-size="10.00">#</text>
<text text-anchor="start" x="17.5" y="-571.5" font-family="Helvetica,sans-Serif" font-size="10.00">mCellPdeElementMap</text>
<text text-anchor="start" x="4.5" y="-556.5" font-family="Helvetica,sans-Serif" font-size="10.00">#</text>
<text text-anchor="start" x="17.5" y="-556.5" font-family="Helvetica,sans-Serif" font-size="10.00">mpMeshCuboid</text>
<text text-anchor="start" x="4.5" y="-541.5" font-family="Helvetica,sans-Serif" font-size="10.00">#</text>
<text text-anchor="start" x="17.5" y="-541.5" font-family="Helvetica,sans-Serif" font-size="10.00">mStepSize</text>
<text text-anchor="start" x="4.5" y="-526.5" font-family="Helvetica,sans-Serif" font-size="10.00">#</text>
<text text-anchor="start" x="17.5" y="-526.5" font-family="Helvetica,sans-Serif" font-size="10.00">mSetBcsOnBoxBoundary</text>
<text text-anchor="start" x="4.5" y="-511.5" font-family="Helvetica,sans-Serif" font-size="10.00">#</text>
<text text-anchor="start" x="17.5" y="-511.5" font-family="Helvetica,sans-Serif" font-size="10.00">mSetBcsOnBoundingSphere</text>
<text text-anchor="start" x="4.5" y="-496.5" font-family="Helvetica,sans-Serif" font-size="10.00">#</text>
<text text-anchor="start" x="17.5" y="-496.5" font-family="Helvetica,sans-Serif" font-size="10.00">mUseVoronoiCellsForInterpolation</text>
<text text-anchor="start" x="4.5" y="-481.5" font-family="Helvetica,sans-Serif" font-size="10.00">#</text>
<text text-anchor="start" x="17.5" y="-481.5" font-family="Helvetica,sans-Serif" font-size="10.00">mTypicalCellRadius</text>
<text text-anchor="start" x="4.5" y="-466.5" font-family="Helvetica,sans-Serif" font-size="10.00">+</text>
<text text-anchor="start" x="17.5" y="-466.5" font-family="Helvetica,sans-Serif" font-size="10.00">AbstractBoxDomainPdeModifier()</text>
<text text-anchor="start" x="4.5" y="-451.5" font-family="Helvetica,sans-Serif" font-size="10.00">+</text>
<text text-anchor="start" x="17.5" y="-451.5" font-family="Helvetica,sans-Serif" font-size="10.00">~AbstractBoxDomainPdeModifier()</text>
<text text-anchor="start" x="4.5" y="-436.5" font-family="Helvetica,sans-Serif" font-size="10.00">+</text>
<text text-anchor="start" x="17.5" y="-436.5" font-family="Helvetica,sans-Serif" font-size="10.00">GetStepSize()</text>
<text text-anchor="start" x="4.5" y="-421.5" font-family="Helvetica,sans-Serif" font-size="10.00">+</text>
<text text-anchor="start" x="17.5" y="-421.5" font-family="Helvetica,sans-Serif" font-size="10.00">SetBcsOnBoxBoundary()</text>
<text text-anchor="start" x="4.5" y="-406.5" font-family="Helvetica,sans-Serif" font-size="10.00">+</text>
<text text-anchor="start" x="17.5" y="-406.5" font-family="Helvetica,sans-Serif" font-size="10.00">AreBcsSetOnBoxBoundary()</text>
<text text-anchor="start" x="4.5" y="-391.5" font-family="Helvetica,sans-Serif" font-size="10.00">+</text>
<text text-anchor="start" x="17.5" y="-391.5" font-family="Helvetica,sans-Serif" font-size="10.00">SetBcsOnBoundingSphere()</text>
<text text-anchor="start" x="4.5" y="-376.5" font-family="Helvetica,sans-Serif" font-size="10.00">+</text>
<text text-anchor="start" x="17.5" y="-376.5" font-family="Helvetica,sans-Serif" font-size="10.00">AreBcsSetOnBoundingSphere()</text>
<text text-anchor="start" x="4.5" y="-361.5" font-family="Helvetica,sans-Serif" font-size="10.00">+</text>
<text text-anchor="start" x="17.5" y="-361.5" font-family="Helvetica,sans-Serif" font-size="10.00">SetUseVoronoiCellsForInterpolation()</text>
<text text-anchor="start" x="4.5" y="-346.5" font-family="Helvetica,sans-Serif" font-size="10.00">+</text>
<text text-anchor="start" x="17.5" y="-346.5" font-family="Helvetica,sans-Serif" font-size="10.00">GetUseVoronoiCellsForInterpolation()</text>
<text text-anchor="start" x="4.5" y="-331.5" font-family="Helvetica,sans-Serif" font-size="10.00">+</text>
<text text-anchor="start" x="17.5" y="-331.5" font-family="Helvetica,sans-Serif" font-size="10.00">SetTypicalCellRadius()</text>
<text text-anchor="start" x="17.5" y="-316.5" font-family="Helvetica,sans-Serif" font-size="10.00">and 9 more...</text>
<text text-anchor="start" x="7" y="-301.5" font-family="Helvetica,sans-Serif" font-size="10.00">&#45;</text>
<text text-anchor="start" x="17.5" y="-301.5" font-family="Helvetica,sans-Serif" font-size="10.00">serialize()</text>
<polygon fill="#666666" stroke="#666666" points="0.5,-581.5 0.5,-581.5 203.5,-581.5 203.5,-581.5 0.5,-581.5"/>
<polygon fill="#666666" stroke="#666666" points="0.5,-476.5 0.5,-476.5 15.5,-476.5 15.5,-476.5 0.5,-476.5"/>
<polygon fill="#666666" stroke="#666666" points="15.5,-476.5 15.5,-476.5 203.5,-476.5 203.5,-476.5 15.5,-476.5"/>
<polygon fill="none" stroke="#666666" points="0,-295 0,-610 203,-610 203,-295 0,-295"/>
</a>
</g>
</g>
<!-- Node2&#45;&gt;Node1 -->
<g id="edge1_Node000001_Node000002" class="edge">
<title>Node2&#45;&gt;Node1</title>
<g id="a_edge1_Node000001_Node000002"><a xlink:title=" ">
<path fill="none" stroke="#63b8ff" d="M101.5,-284.9C101.5,-275.97 101.5,-267.06 101.5,-258.29"/>
<polygon fill="none" stroke="#63b8ff" points="98,-284.99 101.5,-294.99 105,-284.99 98,-284.99"/>
</a>
</g>
</g>
<!-- Node3 -->
<g id="Node000003" class="node">
<title>Node3</title>
<g id="a_Node000003"><a xlink:href="classAbstractPdeModifier.html" target="_top" xlink:title=" ">
<polygon fill="white" stroke="transparent" points="191.5,-1048 11.5,-1048 11.5,-647 191.5,-647 191.5,-1048"/>
<text text-anchor="start" x="52" y="-1035.5" font-family="Helvetica,sans-Serif" font-size="10.00">AbstractPdeModifier</text>
<text text-anchor="start" x="80" y="-1024.5" font-family="Helvetica,sans-Serif" font-size="10.00">&lt; DIM &gt;</text>
<text text-anchor="start" x="15.5" y="-1009.5" font-family="Helvetica,sans-Serif" font-size="10.00">#</text>
<text text-anchor="start" x="28.5" y="-1009.5" font-family="Helvetica,sans-Serif" font-size="10.00">mpPde</text>
<text text-anchor="start" x="15.5" y="-994.5" font-family="Helvetica,sans-Serif" font-size="10.00">#</text>
<text text-anchor="start" x="28.5" y="-994.5" font-family="Helvetica,sans-Serif" font-size="10.00">mpBoundaryCondition</text>
<text text-anchor="start" x="15.5" y="-979.5" font-family="Helvetica,sans-Serif" font-size="10.00">#</text>
<text text-anchor="start" x="28.5" y="-979.5" font-family="Helvetica,sans-Serif" font-size="10.00">mIsNeumannBoundaryCondition</text>
<text text-anchor="start" x="15.5" y="-964.5" font-family="Helvetica,sans-Serif" font-size="10.00">#</text>
<text text-anchor="start" x="28.5" y="-964.5" font-family="Helvetica,sans-Serif" font-size="10.00">mDependentVariableName</text>
<text text-anchor="start" x="15.5" y="-949.5" font-family="Helvetica,sans-Serif" font-size="10.00">#</text>
<text text-anchor="start" x="28.5" y="-949.5" font-family="Helvetica,sans-Serif" font-size="10.00">mSolution</text>
<text text-anchor="start" x="15.5" y="-934.5" font-family="Helvetica,sans-Serif" font-size="10.00">#</text>
<text text-anchor="start" x="28.5" y="-934.5" font-family="Helvetica,sans-Serif" font-size="10.00">mpFeMesh</text>
<text text-anchor="start" x="15.5" y="-919.5" font-family="Helvetica,sans-Serif" font-size="10.00">#</text>
<text text-anchor="start" x="28.5" y="-919.5" font-family="Helvetica,sans-Serif" font-size="10.00">mOutputDirectory</text>
<text text-anchor="start" x="15.5" y="-904.5" font-family="Helvetica,sans-Serif" font-size="10.00">#</text>
<text text-anchor="start" x="28.5" y="-904.5" font-family="Helvetica,sans-Serif" font-size="10.00">mOutputGradient</text>
<text text-anchor="start" x="15.5" y="-889.5" font-family="Helvetica,sans-Serif" font-size="10.00">#</text>
<text text-anchor="start" x="28.5" y="-889.5" font-family="Helvetica,sans-Serif" font-size="10.00">mOutputSolutionAtPdeNodes</text>
<text text-anchor="start" x="15.5" y="-874.5" font-family="Helvetica,sans-Serif" font-size="10.00">#</text>
<text text-anchor="start" x="28.5" y="-874.5" font-family="Helvetica,sans-Serif" font-size="10.00">mpVizPdeSolutionResultsFile</text>
<text text-anchor="start" x="15.5" y="-859.5" font-family="Helvetica,sans-Serif" font-size="10.00">#</text>
<text text-anchor="start" x="28.5" y="-859.5" font-family="Helvetica,sans-Serif" font-size="10.00">mDeleteFeMesh</text>
<text text-anchor="start" x="15.5" y="-844.5" font-family="Helvetica,sans-Serif" font-size="10.00">#</text>
<text text-anchor="start" x="28.5" y="-844.5" font-family="Helvetica,sans-Serif" font-size="10.00">mIsDirichletBoundaryNode</text>
<text text-anchor="start" x="15.5" y="-829.5" font-family="Helvetica,sans-Serif" font-size="10.00">+</text>
<text text-anchor="start" x="28.5" y="-829.5" font-family="Helvetica,sans-Serif" font-size="10.00">AbstractPdeModifier()</text>
<text text-anchor="start" x="15.5" y="-814.5" font-family="Helvetica,sans-Serif" font-size="10.00">+</text>
<text text-anchor="start" x="28.5" y="-814.5" font-family="Helvetica,sans-Serif" font-size="10.00">~AbstractPdeModifier()</text>
<text text-anchor="start" x="15.5" y="-799.5" font-family="Helvetica,sans-Serif" font-size="10.00">+</text>
<text text-anchor="start" x="28.5" y="-799.5" font-family="Helvetica,sans-Serif" font-size="10.00">GetPde()</text>
<text text-anchor="start" x="15.5" y="-784.5" font-family="Helvetica,sans-Serif" font-size="10.00">+</text>
<text text-anchor="start" x="28.5" y="-784.5" font-family="Helvetica,sans-Serif" font-size="10.00">GetBoundaryCondition()</text>
<text text-anchor="start" x="15.5" y="-769.5" font-family="Helvetica,sans-Serif" font-size="10.00">+</text>
<text text-anchor="start" x="28.5" y="-769.5" font-family="Helvetica,sans-Serif" font-size="10.00">IsNeumannBoundaryCondition()</text>
<text text-anchor="start" x="15.5" y="-754.5" font-family="Helvetica,sans-Serif" font-size="10.00">+</text>
<text text-anchor="start" x="28.5" y="-754.5" font-family="Helvetica,sans-Serif" font-size="10.00">SetDependentVariableName()</text>
<text text-anchor="start" x="15.5" y="-739.5" font-family="Helvetica,sans-Serif" font-size="10.00">+</text>
<text text-anchor="start" x="28.5" y="-739.5" font-family="Helvetica,sans-Serif" font-size="10.00">rGetDependentVariableName()</text>
<text text-anchor="start" x="15.5" y="-724.5" font-family="Helvetica,sans-Serif" font-size="10.00">+</text>
<text text-anchor="start" x="28.5" y="-724.5" font-family="Helvetica,sans-Serif" font-size="10.00">HasAveragedSourcePde()</text>
<text text-anchor="start" x="15.5" y="-709.5" font-family="Helvetica,sans-Serif" font-size="10.00">+</text>
<text text-anchor="start" x="28.5" y="-709.5" font-family="Helvetica,sans-Serif" font-size="10.00">SetUpSourceTermsForAveraged</text>
<text text-anchor="start" x="28.5" y="-698.5" font-family="Helvetica,sans-Serif" font-size="10.00">SourcePde()</text>
<text text-anchor="start" x="15.5" y="-683.5" font-family="Helvetica,sans-Serif" font-size="10.00">+</text>
<text text-anchor="start" x="28.5" y="-683.5" font-family="Helvetica,sans-Serif" font-size="10.00">GetSolution()</text>
<text text-anchor="start" x="28.5" y="-668.5" font-family="Helvetica,sans-Serif" font-size="10.00">and 10 more...</text>
<text text-anchor="start" x="18" y="-653.5" font-family="Helvetica,sans-Serif" font-size="10.00">&#45;</text>
<text text-anchor="start" x="28.5" y="-653.5" font-family="Helvetica,sans-Serif" font-size="10.00">serialize()</text>
<polygon fill="#666666" stroke="#666666" points="11.5,-1019.5 11.5,-1019.5 191.5,-1019.5 191.5,-1019.5 11.5,-1019.5"/>
<polygon fill="#666666" stroke="#666666" points="11.5,-839.5 11.5,-839.5 26.5,-839.5 26.5,-839.5 11.5,-839.5"/>
<polygon fill="#666666" stroke="#666666" points="26.5,-839.5 26.5,-839.5 191.5,-839.5 191.5,-839.5 26.5,-839.5"/>
<polygon fill="none" stroke="#666666" points="11.5,-647 11.5,-1048 191.5,-1048 191.5,-647 11.5,-647"/>
</a>
</g>
</g>
<!-- Node3&#45;&gt;Node2 -->
<g id="edge2_Node000002_Node000003" class="edge">
<title>Node3&#45;&gt;Node2</title>
<g id="a_edge2_Node000002_Node000003"><a xlink:title=" ">
<path fill="none" stroke="#63b8ff" d="M101.5,-636.72C101.5,-627.77 101.5,-618.86 101.5,-610.07"/>
<polygon fill="none" stroke="#63b8ff" points="98,-636.83 101.5,-646.83 105,-636.83 98,-636.83"/>
</a>
</g>
</g>
<!-- Node4 -->
<g id="Node000004" class="node">
<title>Node4</title>
<g id="a_Node000004"><a xlink:href="classAbstractCellBasedSimulationModifier.html" target="_top" xlink:title=" ">
<polygon fill="white" stroke="transparent" points="193.5,-1309 9.5,-1309 9.5,-1085 193.5,-1085 193.5,-1309"/>
<text text-anchor="start" x="30.5" y="-1297" font-family="Helvetica,sans-Serif" font-size="10.00">AbstractCellBasedSimulation</text>
<text text-anchor="start" x="47.5" y="-1286" font-family="Helvetica,sans-Serif" font-size="10.00">Modifier&lt; DIM, DIM &gt;</text>
<text text-anchor="start" x="99.5" y="-1271" font-family="Helvetica,sans-Serif" font-size="10.00"> </text>
<text text-anchor="start" x="13.5" y="-1256" font-family="Helvetica,sans-Serif" font-size="10.00">+</text>
<text text-anchor="start" x="26.5" y="-1256" font-family="Helvetica,sans-Serif" font-size="10.00">AbstractCellBasedSimulation</text>
<text text-anchor="start" x="26.5" y="-1245" font-family="Helvetica,sans-Serif" font-size="10.00">Modifier()</text>
<text text-anchor="start" x="13.5" y="-1230" font-family="Helvetica,sans-Serif" font-size="10.00">+</text>
<text text-anchor="start" x="26.5" y="-1230" font-family="Helvetica,sans-Serif" font-size="10.00">~AbstractCellBasedSimulation</text>
<text text-anchor="start" x="26.5" y="-1219" font-family="Helvetica,sans-Serif" font-size="10.00">Modifier()</text>
<text text-anchor="start" x="13.5" y="-1204" font-family="Helvetica,sans-Serif" font-size="10.00">+</text>
<text text-anchor="start" x="26.5" y="-1204" font-family="Helvetica,sans-Serif" font-size="10.00">UpdateAtEndOfTimeStep()</text>
<text text-anchor="start" x="13.5" y="-1189" font-family="Helvetica,sans-Serif" font-size="10.00">+</text>
<text text-anchor="start" x="26.5" y="-1189" font-family="Helvetica,sans-Serif" font-size="10.00">UpdateAtEndOfOutputTimeStep()</text>
<text text-anchor="start" x="13.5" y="-1174" font-family="Helvetica,sans-Serif" font-size="10.00">+</text>
<text text-anchor="start" x="26.5" y="-1174" font-family="Helvetica,sans-Serif" font-size="10.00">SetupSolve()</text>
<text text-anchor="start" x="13.5" y="-1159" font-family="Helvetica,sans-Serif" font-size="10.00">+</text>
<text text-anchor="start" x="26.5" y="-1159" font-family="Helvetica,sans-Serif" font-size="10.00">UpdateAtEndOfSolve()</text>
<text text-anchor="start" x="13.5" y="-1144" font-family="Helvetica,sans-Serif" font-size="10.00">+</text>
<text text-anchor="start" x="26.5" y="-1144" font-family="Helvetica,sans-Serif" font-size="10.00">OutputSimulationModifier</text>
<text text-anchor="start" x="26.5" y="-1133" font-family="Helvetica,sans-Serif" font-size="10.00">Info()</text>
<text text-anchor="start" x="13.5" y="-1118" font-family="Helvetica,sans-Serif" font-size="10.00">+</text>
<text text-anchor="start" x="26.5" y="-1118" font-family="Helvetica,sans-Serif" font-size="10.00">OutputSimulationModifier</text>
<text text-anchor="start" x="26.5" y="-1107" font-family="Helvetica,sans-Serif" font-size="10.00">Parameters()</text>
<text text-anchor="start" x="16" y="-1092" font-family="Helvetica,sans-Serif" font-size="10.00">&#45;</text>
<text text-anchor="start" x="26.5" y="-1092" font-family="Helvetica,sans-Serif" font-size="10.00">serialize()</text>
<polygon fill="#666666" stroke="#666666" points="9.5,-1281 9.5,-1281 193.5,-1281 193.5,-1281 9.5,-1281"/>
<polygon fill="#666666" stroke="#666666" points="9.5,-1266 9.5,-1266 193.5,-1266 193.5,-1266 9.5,-1266"/>
<polygon fill="none" stroke="#666666" points="9.5,-1085 9.5,-1309 193.5,-1309 193.5,-1085 9.5,-1085"/>
</a>
</g>
</g>
<!-- Node4&#45;&gt;Node3 -->
<g id="edge3_Node000003_Node000004" class="edge">
<title>Node4&#45;&gt;Node3</title>
<g id="a_edge3_Node000003_Node000004"><a xlink:title=" ">
<path fill="none" stroke="#63b8ff" d="M101.5,-1074.55C101.5,-1065.9 101.5,-1057.05 101.5,-1048.11"/>
<polygon fill="none" stroke="#63b8ff" points="98,-1074.61 101.5,-1084.61 105,-1074.61 98,-1074.61"/>
</a>
</g>
</g>
<!-- Node5 -->
<g id="Node000005" class="node">
<title>Node5</title>
<g id="a_Node000005"><a xlink:href="classIdentifiable.html" target="_top" xlink:title=" ">
<polygon fill="white" stroke="transparent" points="185.5,-1696 9.5,-1696 9.5,-1617 185.5,-1617 185.5,-1696"/>
<text text-anchor="start" x="70" y="-1683.5" font-family="Helvetica,sans-Serif" font-size="10.00">Identifiable</text>
<text text-anchor="start" x="95.5" y="-1668.5" font-family="Helvetica,sans-Serif" font-size="10.00"> </text>
<text text-anchor="start" x="13.5" y="-1653.5" font-family="Helvetica,sans-Serif" font-size="10.00">+</text>
<text text-anchor="start" x="26.5" y="-1653.5" font-family="Helvetica,sans-Serif" font-size="10.00">~Identifiable()</text>
<text text-anchor="start" x="13.5" y="-1638.5" font-family="Helvetica,sans-Serif" font-size="10.00">+</text>
<text text-anchor="start" x="26.5" y="-1638.5" font-family="Helvetica,sans-Serif" font-size="10.00">GetIdentifier()</text>
<text text-anchor="start" x="16" y="-1623.5" font-family="Helvetica,sans-Serif" font-size="10.00">&#45;</text>
<text text-anchor="start" x="26.5" y="-1623.5" font-family="Helvetica,sans-Serif" font-size="10.00">TidyTemplatedExportIdentifier()</text>
<polygon fill="#666666" stroke="#666666" points="9.5,-1678.5 9.5,-1678.5 185.5,-1678.5 185.5,-1678.5 9.5,-1678.5"/>
<polygon fill="#666666" stroke="#666666" points="9.5,-1663.5 9.5,-1663.5 185.5,-1663.5 185.5,-1663.5 9.5,-1663.5"/>
<polygon fill="none" stroke="#666666" points="9.5,-1617 9.5,-1696 185.5,-1696 185.5,-1617 9.5,-1617"/>
</a>
</g>
</g>
<!-- Node5&#45;&gt;Node4 -->
<g id="edge4_Node000004_Node000005" class="edge">
<title>Node5&#45;&gt;Node4</title>
<g id="a_edge4_Node000004_Node000005"><a xlink:title=" ">
<path fill="none" stroke="#63b8ff" d="M97.93,-1606.53C98.54,-1536.02 99.7,-1403.96 100.53,-1309.05"/>
<polygon fill="none" stroke="#63b8ff" points="94.43,-1606.86 97.84,-1616.89 101.42,-1606.92 94.43,-1606.86"/>
</a>
</g>
</g>
<!-- Node6 -->
<g id="Node000006" class="node">
<title>Node6</title>
<g id="a_Node000006"><a xlink:href="classAbstractCellBasedSimulationModifier.html" target="_top" xlink:title=" ">
<polygon fill="white" stroke="transparent" points="319,-1580 114,-1580 114,-1356 319,-1356 319,-1580"/>
<text text-anchor="start" x="119.5" y="-1568" font-family="Helvetica,sans-Serif" font-size="10.00">AbstractCellBasedSimulation</text>
<text text-anchor="start" x="119.5" y="-1557" font-family="Helvetica,sans-Serif" font-size="10.00">Modifier&lt; ELEMENT_DIM, SPACE_DIM &gt;</text>
<text text-anchor="start" x="215" y="-1542" font-family="Helvetica,sans-Serif" font-size="10.00"> </text>
<text text-anchor="start" x="123.5" y="-1527" font-family="Helvetica,sans-Serif" font-size="10.00">+</text>
<text text-anchor="start" x="141.5" y="-1527" font-family="Helvetica,sans-Serif" font-size="10.00">AbstractCellBasedSimulation</text>
<text text-anchor="start" x="141.5" y="-1516" font-family="Helvetica,sans-Serif" font-size="10.00">Modifier()</text>
<text text-anchor="start" x="123.5" y="-1501" font-family="Helvetica,sans-Serif" font-size="10.00">+</text>
<text text-anchor="start" x="141.5" y="-1501" font-family="Helvetica,sans-Serif" font-size="10.00">~AbstractCellBasedSimulation</text>
<text text-anchor="start" x="141.5" y="-1490" font-family="Helvetica,sans-Serif" font-size="10.00">Modifier()</text>
<text text-anchor="start" x="123.5" y="-1475" font-family="Helvetica,sans-Serif" font-size="10.00">+</text>
<text text-anchor="start" x="141.5" y="-1475" font-family="Helvetica,sans-Serif" font-size="10.00">UpdateAtEndOfTimeStep()</text>
<text text-anchor="start" x="123.5" y="-1460" font-family="Helvetica,sans-Serif" font-size="10.00">+</text>
<text text-anchor="start" x="141.5" y="-1460" font-family="Helvetica,sans-Serif" font-size="10.00">UpdateAtEndOfOutputTimeStep()</text>
<text text-anchor="start" x="123.5" y="-1445" font-family="Helvetica,sans-Serif" font-size="10.00">+</text>
<text text-anchor="start" x="141.5" y="-1445" font-family="Helvetica,sans-Serif" font-size="10.00">SetupSolve()</text>
<text text-anchor="start" x="123.5" y="-1430" font-family="Helvetica,sans-Serif" font-size="10.00">+</text>
<text text-anchor="start" x="141.5" y="-1430" font-family="Helvetica,sans-Serif" font-size="10.00">UpdateAtEndOfSolve()</text>
<text text-anchor="start" x="123.5" y="-1415" font-family="Helvetica,sans-Serif" font-size="10.00">+</text>
<text text-anchor="start" x="141.5" y="-1415" font-family="Helvetica,sans-Serif" font-size="10.00">OutputSimulationModifier</text>
<text text-anchor="start" x="141.5" y="-1404" font-family="Helvetica,sans-Serif" font-size="10.00">Info()</text>
<text text-anchor="start" x="123.5" y="-1389" font-family="Helvetica,sans-Serif" font-size="10.00">+</text>
<text text-anchor="start" x="141.5" y="-1389" font-family="Helvetica,sans-Serif" font-size="10.00">OutputSimulationModifier</text>
<text text-anchor="start" x="141.5" y="-1378" font-family="Helvetica,sans-Serif" font-size="10.00">Parameters()</text>
<text text-anchor="start" x="126" y="-1363" font-family="Helvetica,sans-Serif" font-size="10.00">&#45;</text>
<text text-anchor="start" x="141.5" y="-1363" font-family="Helvetica,sans-Serif" font-size="10.00">serialize()</text>
<polygon fill="#666666" stroke="#666666" points="114.5,-1552 114.5,-1552 319.5,-1552 319.5,-1552 114.5,-1552"/>
<polygon fill="#666666" stroke="#666666" points="114.5,-1537 114.5,-1537 319.5,-1537 319.5,-1537 114.5,-1537"/>
<polygon fill="none" stroke="#666666" points="114,-1356 114,-1580 319,-1580 319,-1356 114,-1356"/>
</a>
</g>
</g>
<!-- Node5&#45;&gt;Node6 -->
<g id="edge6_Node000006_Node000005" class="edge">
<title>Node5&#45;&gt;Node6</title>
<g id="a_edge6_Node000006_Node000005"><a xlink:title=" ">
<path fill="none" stroke="#63b8ff" d="M127.59,-1608.34C133.19,-1599.56 139.26,-1590.06 145.5,-1580.28"/>
<polygon fill="none" stroke="#63b8ff" points="124.59,-1606.54 122.16,-1616.86 130.49,-1610.31 124.59,-1606.54"/>
</a>
</g>
</g>
<!-- Node6&#45;&gt;Node4 -->
<g id="edge5_Node000004_Node000006" class="edge">
<title>Node6&#45;&gt;Node4</title>
<g id="a_edge5_Node000004_Node000006"><a xlink:title=" ">
<path fill="none" stroke="orange" d="M164.88,-1346.27C159.62,-1333.95 154.29,-1321.48 149.07,-1309.27"/>
<polygon fill="orange" stroke="orange" points="161.75,-1347.83 168.89,-1355.65 168.18,-1345.07 161.75,-1347.83"/>
</a>
</g>
<text text-anchor="middle" x="194" y="-1330" font-family="Helvetica,sans-Serif" font-size="10.00" fill="grey"> &lt; DIM, DIM &gt;</text>
</g>
</g>
</svg>
