<?xml version="1.0" encoding="UTF-8" standalone="no"?>
<!DOCTYPE svg PUBLIC "-//W3C//DTD SVG 1.1//EN"
 "http://www.w3.org/Graphics/SVG/1.1/DTD/svg11.dtd">
<!-- Generated by graphviz version 2.43.0 (0)
 -->
<!-- Title: MutableElement&lt; ELEMENT_DIM, SPACE_DIM &gt; Pages: 1 -->
<svg width="312pt" height="1003pt"
 viewBox="0.00 0.00 311.50 1003.00" xmlns="http://www.w3.org/2000/svg" xmlns:xlink="http://www.w3.org/1999/xlink">
<g id="graph0" class="graph" transform="scale(1 1) rotate(0) translate(4 999)">
<title>MutableElement&lt; ELEMENT_DIM, SPACE_DIM &gt;</title>
<!-- Node1 -->
<g id="Node000001" class="node">
<title>Node1</title>
<g id="a_Node000001"><a xlink:title=" ">
<polygon fill="#999999" stroke="transparent" points="170,-673 22,-673 22,-433 170,-433 170,-673"/>
<text text-anchor="start" x="27" y="-661" font-family="Helvetica,sans-Serif" font-size="10.00">MutableElement&lt; ELEMENT</text>
<text text-anchor="start" x="47" y="-650" font-family="Helvetica,sans-Serif" font-size="10.00">_DIM, SPACE_DIM &gt;</text>
<text text-anchor="start" x="32" y="-635" font-family="Helvetica,sans-Serif" font-size="10.00">#</text>
<text text-anchor="start" x="51" y="-635" font-family="Helvetica,sans-Serif" font-size="10.00">mEdges</text>
<text text-anchor="start" x="32" y="-620" font-family="Helvetica,sans-Serif" font-size="10.00">#</text>
<text text-anchor="start" x="51" y="-620" font-family="Helvetica,sans-Serif" font-size="10.00">mEdgeHelper</text>
<text text-anchor="start" x="32" y="-605" font-family="Helvetica,sans-Serif" font-size="10.00">+</text>
<text text-anchor="start" x="51" y="-605" font-family="Helvetica,sans-Serif" font-size="10.00">MutableElement()</text>
<text text-anchor="start" x="32" y="-590" font-family="Helvetica,sans-Serif" font-size="10.00">+</text>
<text text-anchor="start" x="51" y="-590" font-family="Helvetica,sans-Serif" font-size="10.00">MutableElement()</text>
<text text-anchor="start" x="32" y="-575" font-family="Helvetica,sans-Serif" font-size="10.00">+</text>
<text text-anchor="start" x="51" y="-575" font-family="Helvetica,sans-Serif" font-size="10.00">~MutableElement()</text>
<text text-anchor="start" x="32" y="-560" font-family="Helvetica,sans-Serif" font-size="10.00">+</text>
<text text-anchor="start" x="51" y="-560" font-family="Helvetica,sans-Serif" font-size="10.00">RegisterWithNodes()</text>
<text text-anchor="start" x="32" y="-545" font-family="Helvetica,sans-Serif" font-size="10.00">+</text>
<text text-anchor="start" x="51" y="-545" font-family="Helvetica,sans-Serif" font-size="10.00">MarkAsDeleted()</text>
<text text-anchor="start" x="32" y="-530" font-family="Helvetica,sans-Serif" font-size="10.00">+</text>
<text text-anchor="start" x="51" y="-530" font-family="Helvetica,sans-Serif" font-size="10.00">ResetIndex()</text>
<text text-anchor="start" x="32" y="-515" font-family="Helvetica,sans-Serif" font-size="10.00">+</text>
<text text-anchor="start" x="51" y="-515" font-family="Helvetica,sans-Serif" font-size="10.00">UpdateNode()</text>
<text text-anchor="start" x="32" y="-500" font-family="Helvetica,sans-Serif" font-size="10.00">+</text>
<text text-anchor="start" x="51" y="-500" font-family="Helvetica,sans-Serif" font-size="10.00">DeleteNode()</text>
<text text-anchor="start" x="32" y="-485" font-family="Helvetica,sans-Serif" font-size="10.00">+</text>
<text text-anchor="start" x="51" y="-485" font-family="Helvetica,sans-Serif" font-size="10.00">AddNode()</text>
<text text-anchor="start" x="32" y="-470" font-family="Helvetica,sans-Serif" font-size="10.00">+</text>
<text text-anchor="start" x="51" y="-470" font-family="Helvetica,sans-Serif" font-size="10.00">GetNodeLocalIndex()</text>
<text text-anchor="start" x="51" y="-455" font-family="Helvetica,sans-Serif" font-size="10.00">and 12 more...</text>
<text text-anchor="start" x="34.5" y="-440" font-family="Helvetica,sans-Serif" font-size="10.00">&#45;</text>
<text text-anchor="start" x="51" y="-440" font-family="Helvetica,sans-Serif" font-size="10.00">serialize()</text>
<polygon fill="#666666" stroke="#666666" points="22,-645 22,-645 170,-645 170,-645 22,-645"/>
<polygon fill="#666666" stroke="#666666" points="22,-615 22,-615 49,-615 49,-615 22,-615"/>
<polygon fill="#666666" stroke="#666666" points="49,-615 49,-615 170,-615 170,-615 49,-615"/>
<polygon fill="none" stroke="#666666" points="22,-433 22,-673 170,-673 170,-433 22,-433"/>
</a>
</g>
</g>
<!-- Node3 -->
<g id="Node000003" class="node">
<title>Node3</title>
<g id="a_Node000003"><a xlink:href="classVertexElement.html" target="_top" xlink:title=" ">
<polygon fill="white" stroke="transparent" points="160,-371 0,-371 0,-161 160,-161 160,-371"/>
<text text-anchor="start" x="15" y="-359" font-family="Helvetica,sans-Serif" font-size="10.00">VertexElement&lt; ELEMENT</text>
<text text-anchor="start" x="31" y="-348" font-family="Helvetica,sans-Serif" font-size="10.00">_DIM, SPACE_DIM &gt;</text>
<text text-anchor="start" x="6.5" y="-333" font-family="Helvetica,sans-Serif" font-size="10.00">&#45;</text>
<text text-anchor="start" x="17" y="-333" font-family="Helvetica,sans-Serif" font-size="10.00">mFaces</text>
<text text-anchor="start" x="6.5" y="-318" font-family="Helvetica,sans-Serif" font-size="10.00">&#45;</text>
<text text-anchor="start" x="17" y="-318" font-family="Helvetica,sans-Serif" font-size="10.00">mOrientations</text>
<text text-anchor="start" x="4" y="-303" font-family="Helvetica,sans-Serif" font-size="10.00">+</text>
<text text-anchor="start" x="17" y="-303" font-family="Helvetica,sans-Serif" font-size="10.00">VertexElement()</text>
<text text-anchor="start" x="4" y="-288" font-family="Helvetica,sans-Serif" font-size="10.00">+</text>
<text text-anchor="start" x="17" y="-288" font-family="Helvetica,sans-Serif" font-size="10.00">VertexElement()</text>
<text text-anchor="start" x="4" y="-273" font-family="Helvetica,sans-Serif" font-size="10.00">+</text>
<text text-anchor="start" x="17" y="-273" font-family="Helvetica,sans-Serif" font-size="10.00">VertexElement()</text>
<text text-anchor="start" x="4" y="-258" font-family="Helvetica,sans-Serif" font-size="10.00">+</text>
<text text-anchor="start" x="17" y="-258" font-family="Helvetica,sans-Serif" font-size="10.00">VertexElement()</text>
<text text-anchor="start" x="4" y="-243" font-family="Helvetica,sans-Serif" font-size="10.00">+</text>
<text text-anchor="start" x="17" y="-243" font-family="Helvetica,sans-Serif" font-size="10.00">~VertexElement()</text>
<text text-anchor="start" x="4" y="-228" font-family="Helvetica,sans-Serif" font-size="10.00">+</text>
<text text-anchor="start" x="17" y="-228" font-family="Helvetica,sans-Serif" font-size="10.00">GetNumFaces()</text>
<text text-anchor="start" x="4" y="-213" font-family="Helvetica,sans-Serif" font-size="10.00">+</text>
<text text-anchor="start" x="17" y="-213" font-family="Helvetica,sans-Serif" font-size="10.00">AddFace()</text>
<text text-anchor="start" x="4" y="-198" font-family="Helvetica,sans-Serif" font-size="10.00">+</text>
<text text-anchor="start" x="17" y="-198" font-family="Helvetica,sans-Serif" font-size="10.00">GetFace()</text>
<text text-anchor="start" x="4" y="-183" font-family="Helvetica,sans-Serif" font-size="10.00">+</text>
<text text-anchor="start" x="17" y="-183" font-family="Helvetica,sans-Serif" font-size="10.00">FaceIsOrientatedClockwise()</text>
<text text-anchor="start" x="6.5" y="-168" font-family="Helvetica,sans-Serif" font-size="10.00">&#45;</text>
<text text-anchor="start" x="17" y="-168" font-family="Helvetica,sans-Serif" font-size="10.00">serialize()</text>
<polygon fill="#666666" stroke="#666666" points="0,-343 0,-343 160,-343 160,-343 0,-343"/>
<polygon fill="#666666" stroke="#666666" points="0,-313 0,-313 15,-313 15,-313 0,-313"/>
<polygon fill="#666666" stroke="#666666" points="15,-313 15,-313 160,-313 160,-313 15,-313"/>
<polygon fill="none" stroke="#666666" points="0,-161 0,-371 160,-371 160,-161 0,-161"/>
</a>
</g>
</g>
<!-- Node1&#45;&gt;Node3 -->
<g id="edge2_Node000001_Node000003" class="edge">
<title>Node1&#45;&gt;Node3</title>
<g id="a_edge2_Node000001_Node000003"><a xlink:title=" ">
<path fill="none" stroke="#63b8ff" d="M88.74,-422.68C87.77,-405.45 86.79,-387.97 85.85,-371.24"/>
<polygon fill="none" stroke="#63b8ff" points="85.25,-423 89.31,-432.79 92.24,-422.61 85.25,-423"/>
</a>
</g>
</g>
<!-- Node4 -->
<g id="Node000004" class="node">
<title>Node4</title>
<g id="a_Node000004"><a xlink:href="classMutableElement.html" target="_top" xlink:title=" ">
<polygon fill="white" stroke="transparent" points="303.5,-386 178.5,-386 178.5,-146 303.5,-146 303.5,-386"/>
<text text-anchor="start" x="184" y="-374" font-family="Helvetica,sans-Serif" font-size="10.00">MutableElement&lt; DIM,</text>
<text text-anchor="start" x="224.5" y="-363" font-family="Helvetica,sans-Serif" font-size="10.00"> DIM &gt;</text>
<text text-anchor="start" x="183" y="-348" font-family="Helvetica,sans-Serif" font-size="10.00">#</text>
<text text-anchor="start" x="196" y="-348" font-family="Helvetica,sans-Serif" font-size="10.00">mEdges</text>
<text text-anchor="start" x="183" y="-333" font-family="Helvetica,sans-Serif" font-size="10.00">#</text>
<text text-anchor="start" x="196" y="-333" font-family="Helvetica,sans-Serif" font-size="10.00">mEdgeHelper</text>
<text text-anchor="start" x="183" y="-318" font-family="Helvetica,sans-Serif" font-size="10.00">+</text>
<text text-anchor="start" x="196" y="-318" font-family="Helvetica,sans-Serif" font-size="10.00">MutableElement()</text>
<text text-anchor="start" x="183" y="-303" font-family="Helvetica,sans-Serif" font-size="10.00">+</text>
<text text-anchor="start" x="196" y="-303" font-family="Helvetica,sans-Serif" font-size="10.00">MutableElement()</text>
<text text-anchor="start" x="183" y="-288" font-family="Helvetica,sans-Serif" font-size="10.00">+</text>
<text text-anchor="start" x="196" y="-288" font-family="Helvetica,sans-Serif" font-size="10.00">~MutableElement()</text>
<text text-anchor="start" x="183" y="-273" font-family="Helvetica,sans-Serif" font-size="10.00">+</text>
<text text-anchor="start" x="196" y="-273" font-family="Helvetica,sans-Serif" font-size="10.00">RegisterWithNodes()</text>
<text text-anchor="start" x="183" y="-258" font-family="Helvetica,sans-Serif" font-size="10.00">+</text>
<text text-anchor="start" x="196" y="-258" font-family="Helvetica,sans-Serif" font-size="10.00">MarkAsDeleted()</text>
<text text-anchor="start" x="183" y="-243" font-family="Helvetica,sans-Serif" font-size="10.00">+</text>
<text text-anchor="start" x="196" y="-243" font-family="Helvetica,sans-Serif" font-size="10.00">ResetIndex()</text>
<text text-anchor="start" x="183" y="-228" font-family="Helvetica,sans-Serif" font-size="10.00">+</text>
<text text-anchor="start" x="196" y="-228" font-family="Helvetica,sans-Serif" font-size="10.00">UpdateNode()</text>
<text text-anchor="start" x="183" y="-213" font-family="Helvetica,sans-Serif" font-size="10.00">+</text>
<text text-anchor="start" x="196" y="-213" font-family="Helvetica,sans-Serif" font-size="10.00">DeleteNode()</text>
<text text-anchor="start" x="183" y="-198" font-family="Helvetica,sans-Serif" font-size="10.00">+</text>
<text text-anchor="start" x="196" y="-198" font-family="Helvetica,sans-Serif" font-size="10.00">AddNode()</text>
<text text-anchor="start" x="183" y="-183" font-family="Helvetica,sans-Serif" font-size="10.00">+</text>
<text text-anchor="start" x="196" y="-183" font-family="Helvetica,sans-Serif" font-size="10.00">GetNodeLocalIndex()</text>
<text text-anchor="start" x="196" y="-168" font-family="Helvetica,sans-Serif" font-size="10.00">and 12 more...</text>
<text text-anchor="start" x="185.5" y="-153" font-family="Helvetica,sans-Serif" font-size="10.00">&#45;</text>
<text text-anchor="start" x="196" y="-153" font-family="Helvetica,sans-Serif" font-size="10.00">serialize()</text>
<polygon fill="#666666" stroke="#666666" points="179,-358 179,-358 304,-358 304,-358 179,-358"/>
<polygon fill="#666666" stroke="#666666" points="179,-328 179,-328 194,-328 194,-328 179,-328"/>
<polygon fill="#666666" stroke="#666666" points="194,-328 194,-328 304,-328 304,-328 194,-328"/>
<polygon fill="none" stroke="#666666" points="178.5,-146 178.5,-386 303.5,-386 303.5,-146 178.5,-146"/>
</a>
</g>
</g>
<!-- Node1&#45;&gt;Node4 -->
<g id="edge3_Node000001_Node000004" class="edge">
<title>Node1&#45;&gt;Node4</title>
<g id="a_edge3_Node000001_Node000004"><a xlink:title=" ">
<path fill="none" stroke="orange" d="M161.26,-423.72C167.62,-411.23 174.05,-398.59 180.36,-386.19"/>
<polygon fill="orange" stroke="orange" points="158.07,-422.29 156.65,-432.79 164.31,-425.46 158.07,-422.29"/>
</a>
</g>
<text text-anchor="middle" x="204.5" y="-407" font-family="Helvetica,sans-Serif" font-size="10.00" fill="grey"> &lt; DIM, DIM &gt;</text>
</g>
<!-- Node2 -->
<g id="Node000002" class="node">
<title>Node2</title>
<g id="a_Node000002"><a xlink:href="classAbstractElement.html" target="_top" xlink:title=" ">
<polygon fill="white" stroke="transparent" points="178,-995 14,-995 14,-710 178,-710 178,-995"/>
<text text-anchor="start" x="26.5" y="-982.5" font-family="Helvetica,sans-Serif" font-size="10.00">AbstractElement&lt; ELEMENT</text>
<text text-anchor="start" x="47" y="-971.5" font-family="Helvetica,sans-Serif" font-size="10.00">_DIM, SPACE_DIM &gt;</text>
<text text-anchor="start" x="18" y="-956.5" font-family="Helvetica,sans-Serif" font-size="10.00">#</text>
<text text-anchor="start" x="31" y="-956.5" font-family="Helvetica,sans-Serif" font-size="10.00">mNodes</text>
<text text-anchor="start" x="18" y="-941.5" font-family="Helvetica,sans-Serif" font-size="10.00">#</text>
<text text-anchor="start" x="31" y="-941.5" font-family="Helvetica,sans-Serif" font-size="10.00">mIndex</text>
<text text-anchor="start" x="18" y="-926.5" font-family="Helvetica,sans-Serif" font-size="10.00">#</text>
<text text-anchor="start" x="31" y="-926.5" font-family="Helvetica,sans-Serif" font-size="10.00">mIsDeleted</text>
<text text-anchor="start" x="18" y="-911.5" font-family="Helvetica,sans-Serif" font-size="10.00">#</text>
<text text-anchor="start" x="31" y="-911.5" font-family="Helvetica,sans-Serif" font-size="10.00">mOwnership</text>
<text text-anchor="start" x="18" y="-896.5" font-family="Helvetica,sans-Serif" font-size="10.00">#</text>
<text text-anchor="start" x="31" y="-896.5" font-family="Helvetica,sans-Serif" font-size="10.00">mpElementAttributes</text>
<text text-anchor="start" x="18" y="-881.5" font-family="Helvetica,sans-Serif" font-size="10.00">+</text>
<text text-anchor="start" x="31" y="-881.5" font-family="Helvetica,sans-Serif" font-size="10.00">AbstractElement()</text>
<text text-anchor="start" x="18" y="-866.5" font-family="Helvetica,sans-Serif" font-size="10.00">+</text>
<text text-anchor="start" x="31" y="-866.5" font-family="Helvetica,sans-Serif" font-size="10.00">AbstractElement()</text>
<text text-anchor="start" x="18" y="-851.5" font-family="Helvetica,sans-Serif" font-size="10.00">+</text>
<text text-anchor="start" x="31" y="-851.5" font-family="Helvetica,sans-Serif" font-size="10.00">~AbstractElement()</text>
<text text-anchor="start" x="18" y="-836.5" font-family="Helvetica,sans-Serif" font-size="10.00">+</text>
<text text-anchor="start" x="31" y="-836.5" font-family="Helvetica,sans-Serif" font-size="10.00">UpdateNode()</text>
<text text-anchor="start" x="18" y="-821.5" font-family="Helvetica,sans-Serif" font-size="10.00">+</text>
<text text-anchor="start" x="31" y="-821.5" font-family="Helvetica,sans-Serif" font-size="10.00">ReplaceNode()</text>
<text text-anchor="start" x="18" y="-806.5" font-family="Helvetica,sans-Serif" font-size="10.00">+</text>
<text text-anchor="start" x="31" y="-806.5" font-family="Helvetica,sans-Serif" font-size="10.00">MarkAsDeleted()</text>
<text text-anchor="start" x="18" y="-791.5" font-family="Helvetica,sans-Serif" font-size="10.00">+</text>
<text text-anchor="start" x="31" y="-791.5" font-family="Helvetica,sans-Serif" font-size="10.00">RegisterWithNodes()</text>
<text text-anchor="start" x="18" y="-776.5" font-family="Helvetica,sans-Serif" font-size="10.00">+</text>
<text text-anchor="start" x="31" y="-776.5" font-family="Helvetica,sans-Serif" font-size="10.00">GetNodeLocation()</text>
<text text-anchor="start" x="18" y="-761.5" font-family="Helvetica,sans-Serif" font-size="10.00">+</text>
<text text-anchor="start" x="31" y="-761.5" font-family="Helvetica,sans-Serif" font-size="10.00">GetNodeLocation()</text>
<text text-anchor="start" x="18" y="-746.5" font-family="Helvetica,sans-Serif" font-size="10.00">+</text>
<text text-anchor="start" x="31" y="-746.5" font-family="Helvetica,sans-Serif" font-size="10.00">GetNodeGlobalIndex()</text>
<text text-anchor="start" x="31" y="-731.5" font-family="Helvetica,sans-Serif" font-size="10.00">and 14 more...</text>
<text text-anchor="start" x="18" y="-716.5" font-family="Helvetica,sans-Serif" font-size="10.00">#</text>
<text text-anchor="start" x="31" y="-716.5" font-family="Helvetica,sans-Serif" font-size="10.00">ConstructElementAttributes()</text>
<polygon fill="#666666" stroke="#666666" points="14,-966.5 14,-966.5 178,-966.5 178,-966.5 14,-966.5"/>
<polygon fill="#666666" stroke="#666666" points="14,-891.5 14,-891.5 29,-891.5 29,-891.5 14,-891.5"/>
<polygon fill="#666666" stroke="#666666" points="29,-891.5 29,-891.5 178,-891.5 178,-891.5 29,-891.5"/>
<polygon fill="none" stroke="#666666" points="14,-710 14,-995 178,-995 178,-710 14,-710"/>
</a>
</g>
</g>
<!-- Node2&#45;&gt;Node1 -->
<g id="edge1_Node000001_Node000002" class="edge">
<title>Node2&#45;&gt;Node1</title>
<g id="a_edge1_Node000001_Node000002"><a xlink:title=" ">
<path fill="none" stroke="#63b8ff" d="M96,-699.65C96,-690.72 96,-681.81 96,-673.05"/>
<polygon fill="none" stroke="#63b8ff" points="92.5,-699.72 96,-709.72 99.5,-699.72 92.5,-699.72"/>
</a>
</g>
</g>
<!-- Node5 -->
<g id="Node000005" class="node">
<title>Node5</title>
<g id="a_Node000005"><a xlink:href="classPottsElement.html" target="_top" xlink:title=" ">
<polygon fill="white" stroke="transparent" points="300,-109 182,-109 182,0 300,0 300,-109"/>
<text text-anchor="start" x="187" y="-96.5" font-family="Helvetica,sans-Serif" font-size="10.00">PottsElement&lt; DIM &gt;</text>
<text text-anchor="start" x="239" y="-81.5" font-family="Helvetica,sans-Serif" font-size="10.00"> </text>
<text text-anchor="start" x="189" y="-66.5" font-family="Helvetica,sans-Serif" font-size="10.00">+</text>
<text text-anchor="start" x="205" y="-66.5" font-family="Helvetica,sans-Serif" font-size="10.00">PottsElement()</text>
<text text-anchor="start" x="189" y="-51.5" font-family="Helvetica,sans-Serif" font-size="10.00">+</text>
<text text-anchor="start" x="205" y="-51.5" font-family="Helvetica,sans-Serif" font-size="10.00">~PottsElement()</text>
<text text-anchor="start" x="189" y="-36.5" font-family="Helvetica,sans-Serif" font-size="10.00">+</text>
<text text-anchor="start" x="205" y="-36.5" font-family="Helvetica,sans-Serif" font-size="10.00">AddNode()</text>
<text text-anchor="start" x="189" y="-21.5" font-family="Helvetica,sans-Serif" font-size="10.00">+</text>
<text text-anchor="start" x="205" y="-21.5" font-family="Helvetica,sans-Serif" font-size="10.00">GetAspectRatio()</text>
<text text-anchor="start" x="191.5" y="-6.5" font-family="Helvetica,sans-Serif" font-size="10.00">&#45;</text>
<text text-anchor="start" x="205" y="-6.5" font-family="Helvetica,sans-Serif" font-size="10.00">serialize()</text>
<polygon fill="#666666" stroke="#666666" points="182,-91.5 182,-91.5 300,-91.5 300,-91.5 182,-91.5"/>
<polygon fill="#666666" stroke="#666666" points="182,-76.5 182,-76.5 300,-76.5 300,-76.5 182,-76.5"/>
<polygon fill="none" stroke="#666666" points="182,0 182,-109 300,-109 300,0 182,0"/>
</a>
</g>
</g>
<!-- Node4&#45;&gt;Node5 -->
<g id="edge4_Node000004_Node000005" class="edge">
<title>Node4&#45;&gt;Node5</title>
<g id="a_edge4_Node000004_Node000005"><a xlink:title=" ">
<path fill="none" stroke="#63b8ff" d="M241,-135.81C241,-126.63 241,-117.71 241,-109.36"/>
<polygon fill="none" stroke="#63b8ff" points="237.5,-135.87 241,-145.87 244.5,-135.87 237.5,-135.87"/>
</a>
</g>
</g>
</g>
</svg>
