<?xml version="1.0" encoding="UTF-8" standalone="no"?>
<!DOCTYPE svg PUBLIC "-//W3C//DTD SVG 1.1//EN"
 "http://www.w3.org/Graphics/SVG/1.1/DTD/svg11.dtd">
<!-- Generated by graphviz version 2.43.0 (0)
 -->
<!-- Title: AxisymmetricConductivityTensors&lt; ELEMENT_DIM, SPACE_DIM &gt; Pages: 1 -->
<svg width="1233pt" height="769pt"
 viewBox="0.00 0.00 1232.50 769.00" xmlns="http://www.w3.org/2000/svg" xmlns:xlink="http://www.w3.org/1999/xlink">
<g id="graph0" class="graph" transform="scale(1 1) rotate(0) translate(4 765)">
<title>AxisymmetricConductivityTensors&lt; ELEMENT_DIM, SPACE_DIM &gt;</title>
<!-- Node1 -->
<g id="Node000001" class="node">
<title>Node1</title>
<g id="a_Node000001"><a xlink:title=" ">
<polygon fill="#999999" stroke="transparent" points="735.5,-112 577.5,-112 577.5,0 735.5,0 735.5,-112"/>
<text text-anchor="start" x="591.5" y="-100" font-family="Helvetica,sans-Serif" font-size="10.00">AxisymmetricConductivity</text>
<text text-anchor="start" x="591.5" y="-89" font-family="Helvetica,sans-Serif" font-size="10.00">Tensors&lt; ELEMENT_DIM,</text>
<text text-anchor="start" x="621.5" y="-78" font-family="Helvetica,sans-Serif" font-size="10.00"> SPACE_DIM &gt;</text>
<text text-anchor="start" x="654.5" y="-63" font-family="Helvetica,sans-Serif" font-size="10.00"> </text>
<text text-anchor="start" x="581.5" y="-48" font-family="Helvetica,sans-Serif" font-size="10.00">+</text>
<text text-anchor="start" x="594.5" y="-48" font-family="Helvetica,sans-Serif" font-size="10.00">AxisymmetricConductivity</text>
<text text-anchor="start" x="594.5" y="-37" font-family="Helvetica,sans-Serif" font-size="10.00">Tensors()</text>
<text text-anchor="start" x="581.5" y="-22" font-family="Helvetica,sans-Serif" font-size="10.00">+</text>
<text text-anchor="start" x="594.5" y="-22" font-family="Helvetica,sans-Serif" font-size="10.00">SetConstantConductivities()</text>
<text text-anchor="start" x="581.5" y="-7" font-family="Helvetica,sans-Serif" font-size="10.00">+</text>
<text text-anchor="start" x="594.5" y="-7" font-family="Helvetica,sans-Serif" font-size="10.00">Init()</text>
<polygon fill="#666666" stroke="#666666" points="577.5,-73 577.5,-73 735.5,-73 735.5,-73 577.5,-73"/>
<polygon fill="#666666" stroke="#666666" points="577.5,-58 577.5,-58 735.5,-58 735.5,-58 577.5,-58"/>
<polygon fill="none" stroke="#666666" points="577.5,0 577.5,-112 735.5,-112 735.5,0 577.5,0"/>
</a>
</g>
</g>
<!-- Node2 -->
<g id="Node000002" class="node">
<title>Node2</title>
<g id="a_Node000002"><a xlink:href="classAbstractConductivityTensors.html" target="_top" xlink:title="Forward declaration which is going to be used for friendship.">
<polygon fill="white" stroke="transparent" points="745.5,-329 567.5,-329 567.5,-149 745.5,-149 745.5,-329"/>
<text text-anchor="start" x="579" y="-317" font-family="Helvetica,sans-Serif" font-size="10.00">AbstractConductivityTensors</text>
<text text-anchor="start" x="579" y="-306" font-family="Helvetica,sans-Serif" font-size="10.00">&lt; ELEMENT_DIM, SPACE_DIM &gt;</text>
<text text-anchor="start" x="654.5" y="-291" font-family="Helvetica,sans-Serif" font-size="10.00"> </text>
<text text-anchor="start" x="571.5" y="-276" font-family="Helvetica,sans-Serif" font-size="10.00">+</text>
<text text-anchor="start" x="584.5" y="-276" font-family="Helvetica,sans-Serif" font-size="10.00">AbstractConductivityTensors()</text>
<text text-anchor="start" x="571.5" y="-261" font-family="Helvetica,sans-Serif" font-size="10.00">+</text>
<text text-anchor="start" x="584.5" y="-261" font-family="Helvetica,sans-Serif" font-size="10.00">~AbstractConductivityTensors()</text>
<text text-anchor="start" x="571.5" y="-246" font-family="Helvetica,sans-Serif" font-size="10.00">+</text>
<text text-anchor="start" x="584.5" y="-246" font-family="Helvetica,sans-Serif" font-size="10.00">SetFibreOrientationFile()</text>
<text text-anchor="start" x="571.5" y="-231" font-family="Helvetica,sans-Serif" font-size="10.00">+</text>
<text text-anchor="start" x="584.5" y="-231" font-family="Helvetica,sans-Serif" font-size="10.00">SetConstantConductivities()</text>
<text text-anchor="start" x="571.5" y="-216" font-family="Helvetica,sans-Serif" font-size="10.00">+</text>
<text text-anchor="start" x="584.5" y="-216" font-family="Helvetica,sans-Serif" font-size="10.00">SetConstantConductivities()</text>
<text text-anchor="start" x="571.5" y="-201" font-family="Helvetica,sans-Serif" font-size="10.00">+</text>
<text text-anchor="start" x="584.5" y="-201" font-family="Helvetica,sans-Serif" font-size="10.00">SetConstantConductivities()</text>
<text text-anchor="start" x="571.5" y="-186" font-family="Helvetica,sans-Serif" font-size="10.00">+</text>
<text text-anchor="start" x="584.5" y="-186" font-family="Helvetica,sans-Serif" font-size="10.00">SetNonConstantConductivities()</text>
<text text-anchor="start" x="571.5" y="-171" font-family="Helvetica,sans-Serif" font-size="10.00">+</text>
<text text-anchor="start" x="584.5" y="-171" font-family="Helvetica,sans-Serif" font-size="10.00">Init()</text>
<text text-anchor="start" x="571.5" y="-156" font-family="Helvetica,sans-Serif" font-size="10.00">+</text>
<text text-anchor="start" x="584.5" y="-156" font-family="Helvetica,sans-Serif" font-size="10.00">operator[]()</text>
<polygon fill="#666666" stroke="#666666" points="567.5,-301 567.5,-301 745.5,-301 745.5,-301 567.5,-301"/>
<polygon fill="#666666" stroke="#666666" points="567.5,-286 567.5,-286 745.5,-286 745.5,-286 567.5,-286"/>
<polygon fill="none" stroke="#666666" points="567.5,-149 567.5,-329 745.5,-329 745.5,-149 567.5,-149"/>
</a>
</g>
</g>
<!-- Node2&#45;&gt;Node1 -->
<g id="edge1_Node000001_Node000002" class="edge">
<title>Node2&#45;&gt;Node1</title>
<g id="a_edge1_Node000001_Node000002"><a xlink:title=" ">
<path fill="none" stroke="#63b8ff" d="M656.5,-138.59C656.5,-129.55 656.5,-120.63 656.5,-112.2"/>
<polygon fill="none" stroke="#63b8ff" points="653,-138.83 656.5,-148.83 660,-138.83 653,-138.83"/>
</a>
</g>
</g>
<!-- Node3 -->
<g id="Node000003" class="node">
<title>Node3</title>
<g id="a_Node000003"><a xlink:title=" ">
<polygon fill="white" stroke="transparent" points="173,-550.5 0,-550.5 0,-490.5 173,-490.5 173,-550.5"/>
<text text-anchor="start" x="5.5" y="-538.5" font-family="Helvetica,sans-Serif" font-size="10.00">AbstractTetrahedralMesh</text>
<text text-anchor="start" x="5.5" y="-527.5" font-family="Helvetica,sans-Serif" font-size="10.00">&lt; ELEMENT_DIM, SPACE_DIM &gt; *</text>
<text text-anchor="start" x="85" y="-512.5" font-family="Helvetica,sans-Serif" font-size="10.00"> </text>
<text text-anchor="start" x="85" y="-497.5" font-family="Helvetica,sans-Serif" font-size="10.00"> </text>
<polygon fill="#bfbfbf" stroke="#bfbfbf" points="0.5,-522.5 0.5,-522.5 173.5,-522.5 173.5,-522.5 0.5,-522.5"/>
<polygon fill="#bfbfbf" stroke="#bfbfbf" points="0.5,-507.5 0.5,-507.5 173.5,-507.5 173.5,-507.5 0.5,-507.5"/>
<polygon fill="none" stroke="#bfbfbf" points="0,-490.5 0,-550.5 173,-550.5 173,-490.5 0,-490.5"/>
</a>
</g>
</g>
<!-- Node3&#45;&gt;Node2 -->
<g id="edge2_Node000002_Node000003" class="edge">
<title>Node3&#45;&gt;Node2</title>
<g id="a_edge2_Node000002_Node000003"><a xlink:title=" ">
<path fill="none" stroke="#63b8ff" d="M87.22,-490.34C89.82,-451.68 100.4,-384.04 141.5,-347 201.32,-293.09 423.15,-262.67 555.37,-248.97"/>
<polygon fill="none" stroke="#63b8ff" points="555.55,-248.95 561.11,-244.36 567.49,-247.73 561.92,-252.32 555.55,-248.95"/>
</a>
</g>
<text text-anchor="middle" x="168.5" y="-350" font-family="Helvetica,sans-Serif" font-size="10.00" fill="grey"> #mpMesh</text>
</g>
<!-- Node4 -->
<g id="Node000004" class="node">
<title>Node4</title>
<g id="a_Node000004"><a xlink:href="classbool.html" target="_top" xlink:title=" ">
<polygon fill="white" stroke="transparent" points="257.5,-761 225.5,-761 225.5,-712 257.5,-712 257.5,-761"/>
<text text-anchor="start" x="230.5" y="-748.5" font-family="Helvetica,sans-Serif" font-size="10.00">bool</text>
<text text-anchor="start" x="239.5" y="-733.5" font-family="Helvetica,sans-Serif" font-size="10.00"> </text>
<text text-anchor="start" x="239.5" y="-718.5" font-family="Helvetica,sans-Serif" font-size="10.00"> </text>
<polygon fill="#bfbfbf" stroke="#bfbfbf" points="225.5,-743.5 225.5,-743.5 257.5,-743.5 257.5,-743.5 225.5,-743.5"/>
<polygon fill="#bfbfbf" stroke="#bfbfbf" points="225.5,-728.5 225.5,-728.5 257.5,-728.5 257.5,-728.5 225.5,-728.5"/>
<polygon fill="none" stroke="#bfbfbf" points="225.5,-712 225.5,-761 257.5,-761 257.5,-712 225.5,-712"/>
</a>
</g>
</g>
<!-- Node4&#45;&gt;Node2 -->
<g id="edge3_Node000002_Node000004" class="edge">
<title>Node4&#45;&gt;Node2</title>
<g id="a_edge3_Node000002_Node000004"><a xlink:title=" ">
<path fill="none" stroke="#63b8ff" d="M230.47,-711.59C203.55,-649.3 142.09,-479.73 218.5,-376 258.64,-321.51 438.58,-279.42 554.98,-257.29"/>
<polygon fill="none" stroke="#63b8ff" points="555.29,-257.23 560.45,-252.19 567.09,-255.01 561.93,-260.05 555.29,-257.23"/>
</a>
</g>
<text text-anchor="middle" x="303.5" y="-529" font-family="Helvetica,sans-Serif" font-size="10.00" fill="grey"> #mInitialised</text>
<text text-anchor="middle" x="303.5" y="-518" font-family="Helvetica,sans-Serif" font-size="10.00" fill="grey">#mUseFibreOrientation</text>
<text text-anchor="middle" x="303.5" y="-507" font-family="Helvetica,sans-Serif" font-size="10.00" fill="grey">#mUseNonConstantConductivities</text>
</g>
<!-- Node9 -->
<g id="Node000009" class="node">
<title>Node9</title>
<g id="a_Node000009"><a xlink:href="classFileFinder.html" target="_top" xlink:title=" ">
<polygon fill="white" stroke="transparent" points="583.5,-665 397.5,-665 397.5,-376 583.5,-376 583.5,-665"/>
<text text-anchor="start" x="466.5" y="-652.5" font-family="Helvetica,sans-Serif" font-size="10.00">FileFinder</text>
<text text-anchor="start" x="488.5" y="-637.5" font-family="Helvetica,sans-Serif" font-size="10.00"> </text>
<text text-anchor="start" x="401.5" y="-622.5" font-family="Helvetica,sans-Serif" font-size="10.00">+</text>
<text text-anchor="start" x="414.5" y="-622.5" font-family="Helvetica,sans-Serif" font-size="10.00">FileFinder()</text>
<text text-anchor="start" x="401.5" y="-607.5" font-family="Helvetica,sans-Serif" font-size="10.00">+</text>
<text text-anchor="start" x="414.5" y="-607.5" font-family="Helvetica,sans-Serif" font-size="10.00">FileFinder()</text>
<text text-anchor="start" x="401.5" y="-592.5" font-family="Helvetica,sans-Serif" font-size="10.00">+</text>
<text text-anchor="start" x="414.5" y="-592.5" font-family="Helvetica,sans-Serif" font-size="10.00">FileFinder()</text>
<text text-anchor="start" x="401.5" y="-577.5" font-family="Helvetica,sans-Serif" font-size="10.00">+</text>
<text text-anchor="start" x="414.5" y="-577.5" font-family="Helvetica,sans-Serif" font-size="10.00">FileFinder()</text>
<text text-anchor="start" x="401.5" y="-562.5" font-family="Helvetica,sans-Serif" font-size="10.00">+</text>
<text text-anchor="start" x="414.5" y="-562.5" font-family="Helvetica,sans-Serif" font-size="10.00">~FileFinder()</text>
<text text-anchor="start" x="401.5" y="-547.5" font-family="Helvetica,sans-Serif" font-size="10.00">+</text>
<text text-anchor="start" x="414.5" y="-547.5" font-family="Helvetica,sans-Serif" font-size="10.00">SetPath()</text>
<text text-anchor="start" x="401.5" y="-532.5" font-family="Helvetica,sans-Serif" font-size="10.00">+</text>
<text text-anchor="start" x="414.5" y="-532.5" font-family="Helvetica,sans-Serif" font-size="10.00">SetPath()</text>
<text text-anchor="start" x="401.5" y="-517.5" font-family="Helvetica,sans-Serif" font-size="10.00">+</text>
<text text-anchor="start" x="414.5" y="-517.5" font-family="Helvetica,sans-Serif" font-size="10.00">IsPathSet()</text>
<text text-anchor="start" x="401.5" y="-502.5" font-family="Helvetica,sans-Serif" font-size="10.00">+</text>
<text text-anchor="start" x="414.5" y="-502.5" font-family="Helvetica,sans-Serif" font-size="10.00">Exists()</text>
<text text-anchor="start" x="401.5" y="-487.5" font-family="Helvetica,sans-Serif" font-size="10.00">+</text>
<text text-anchor="start" x="414.5" y="-487.5" font-family="Helvetica,sans-Serif" font-size="10.00">IsFile()</text>
<text text-anchor="start" x="414.5" y="-472.5" font-family="Helvetica,sans-Serif" font-size="10.00">and 14 more...</text>
<text text-anchor="start" x="401.5" y="-457.5" font-family="Helvetica,sans-Serif" font-size="10.00">+</text>
<text text-anchor="start" x="414.5" y="-457.5" font-family="Helvetica,sans-Serif" font-size="10.00">IsAbsolutePath()</text>
<text text-anchor="start" x="401.5" y="-442.5" font-family="Helvetica,sans-Serif" font-size="10.00">+</text>
<text text-anchor="start" x="414.5" y="-442.5" font-family="Helvetica,sans-Serif" font-size="10.00">ReplaceSpacesWithUnderscores()</text>
<text text-anchor="start" x="401.5" y="-427.5" font-family="Helvetica,sans-Serif" font-size="10.00">+</text>
<text text-anchor="start" x="414.5" y="-427.5" font-family="Helvetica,sans-Serif" font-size="10.00">ReplaceUnderscoresWithSpaces()</text>
<text text-anchor="start" x="401.5" y="-412.5" font-family="Helvetica,sans-Serif" font-size="10.00">+</text>
<text text-anchor="start" x="414.5" y="-412.5" font-family="Helvetica,sans-Serif" font-size="10.00">FakePath()</text>
<text text-anchor="start" x="401.5" y="-397.5" font-family="Helvetica,sans-Serif" font-size="10.00">+</text>
<text text-anchor="start" x="414.5" y="-397.5" font-family="Helvetica,sans-Serif" font-size="10.00">StopFaking()</text>
<text text-anchor="start" x="404" y="-382.5" font-family="Helvetica,sans-Serif" font-size="10.00">&#45;</text>
<text text-anchor="start" x="414.5" y="-382.5" font-family="Helvetica,sans-Serif" font-size="10.00">PrivateRemove()</text>
<polygon fill="#666666" stroke="#666666" points="397.5,-647.5 397.5,-647.5 583.5,-647.5 583.5,-647.5 397.5,-647.5"/>
<polygon fill="#666666" stroke="#666666" points="397.5,-632.5 397.5,-632.5 583.5,-632.5 583.5,-632.5 397.5,-632.5"/>
<polygon fill="none" stroke="#666666" points="397.5,-376 397.5,-665 583.5,-665 583.5,-376 397.5,-376"/>
</a>
</g>
</g>
<!-- Node4&#45;&gt;Node9 -->
<g id="edge10_Node000009_Node000004" class="edge">
<title>Node4&#45;&gt;Node9</title>
<g id="a_edge10_Node000009_Node000004"><a xlink:title=" ">
<path fill="none" stroke="#63b8ff" d="M257.83,-730.24C285.81,-720.63 343.77,-698.15 383.5,-665 385.1,-663.67 386.69,-662.3 388.27,-660.91"/>
<polygon fill="none" stroke="#63b8ff" points="388.36,-660.83 390.06,-653.82 397.18,-652.69 395.48,-659.7 388.36,-660.83"/>
</a>
</g>
<text text-anchor="middle" x="382.5" y="-686" font-family="Helvetica,sans-Serif" font-size="10.00" fill="grey"> &#45;msFaking</text>
</g>
<!-- Node5 -->
<g id="Node000005" class="node">
<title>Node5</title>
<g id="a_Node000005"><a xlink:title=" ">
<polygon fill="white" stroke="transparent" points="735,-550.5 602,-550.5 602,-490.5 735,-490.5 735,-550.5"/>
<text text-anchor="start" x="607.5" y="-538.5" font-family="Helvetica,sans-Serif" font-size="10.00">c_vector&lt; double, SPACE</text>
<text text-anchor="start" x="650.5" y="-527.5" font-family="Helvetica,sans-Serif" font-size="10.00">_DIM &gt;</text>
<text text-anchor="start" x="667" y="-512.5" font-family="Helvetica,sans-Serif" font-size="10.00"> </text>
<text text-anchor="start" x="667" y="-497.5" font-family="Helvetica,sans-Serif" font-size="10.00"> </text>
<polygon fill="#bfbfbf" stroke="#bfbfbf" points="602.5,-522.5 602.5,-522.5 735.5,-522.5 735.5,-522.5 602.5,-522.5"/>
<polygon fill="#bfbfbf" stroke="#bfbfbf" points="602.5,-507.5 602.5,-507.5 735.5,-507.5 735.5,-507.5 602.5,-507.5"/>
<polygon fill="none" stroke="#bfbfbf" points="602,-490.5 602,-550.5 735,-550.5 735,-490.5 602,-490.5"/>
</a>
</g>
</g>
<!-- Node5&#45;&gt;Node2 -->
<g id="edge4_Node000002_Node000005" class="edge">
<title>Node5&#45;&gt;Node2</title>
<g id="a_edge4_Node000002_Node000005"><a xlink:title=" ">
<path fill="none" stroke="#63b8ff" d="M665.99,-490.35C663.33,-458.03 659.27,-404.34 657.5,-358 657.29,-352.61 657.12,-347.09 656.97,-341.51"/>
<polygon fill="none" stroke="#63b8ff" points="656.97,-341.25 652.83,-335.34 656.69,-329.25 660.83,-335.16 656.97,-341.25"/>
</a>
</g>
<text text-anchor="middle" x="725" y="-350" font-family="Helvetica,sans-Serif" font-size="10.00" fill="grey"> #mConstantConductivities</text>
</g>
<!-- Node6 -->
<g id="Node000006" class="node">
<title>Node6</title>
<g id="a_Node000006"><a xlink:title=" ">
<polygon fill="white" stroke="transparent" points="695.5,-761 643.5,-761 643.5,-712 695.5,-712 695.5,-761"/>
<text text-anchor="start" x="648.5" y="-748.5" font-family="Helvetica,sans-Serif" font-size="10.00">c_vector</text>
<text text-anchor="start" x="667.5" y="-733.5" font-family="Helvetica,sans-Serif" font-size="10.00"> </text>
<text text-anchor="start" x="667.5" y="-718.5" font-family="Helvetica,sans-Serif" font-size="10.00"> </text>
<polygon fill="#bfbfbf" stroke="#bfbfbf" points="643.5,-743.5 643.5,-743.5 695.5,-743.5 695.5,-743.5 643.5,-743.5"/>
<polygon fill="#bfbfbf" stroke="#bfbfbf" points="643.5,-728.5 643.5,-728.5 695.5,-728.5 695.5,-728.5 643.5,-728.5"/>
<polygon fill="none" stroke="#bfbfbf" points="643.5,-712 643.5,-761 695.5,-761 695.5,-712 643.5,-712"/>
</a>
</g>
</g>
<!-- Node6&#45;&gt;Node5 -->
<g id="edge5_Node000005_Node000006" class="edge">
<title>Node6&#45;&gt;Node5</title>
<g id="a_edge5_Node000005_Node000006"><a xlink:title=" ">
<path fill="none" stroke="orange" d="M669.34,-701.6C669.15,-660 668.82,-590.15 668.64,-550.78"/>
<polygon fill="orange" stroke="orange" points="665.84,-701.8 669.39,-711.78 672.84,-701.76 665.84,-701.8"/>
</a>
</g>
<text text-anchor="middle" x="729" y="-686" font-family="Helvetica,sans-Serif" font-size="10.00" fill="grey"> &lt; double, SPACE_DIM &gt;</text>
</g>
<!-- Node7 -->
<g id="Node000007" class="node">
<title>Node7</title>
<g id="a_Node000007"><a xlink:title=" ">
<polygon fill="white" stroke="transparent" points="894,-550.5 753,-550.5 753,-490.5 894,-490.5 894,-550.5"/>
<text text-anchor="start" x="758.5" y="-538.5" font-family="Helvetica,sans-Serif" font-size="10.00">vector&lt; c_vector&lt; double,</text>
<text text-anchor="start" x="779" y="-527.5" font-family="Helvetica,sans-Serif" font-size="10.00"> SPACE_DIM &gt; &gt; *</text>
<text text-anchor="start" x="822" y="-512.5" font-family="Helvetica,sans-Serif" font-size="10.00"> </text>
<text text-anchor="start" x="822" y="-497.5" font-family="Helvetica,sans-Serif" font-size="10.00"> </text>
<polygon fill="#bfbfbf" stroke="#bfbfbf" points="753.5,-522.5 753.5,-522.5 894.5,-522.5 894.5,-522.5 753.5,-522.5"/>
<polygon fill="#bfbfbf" stroke="#bfbfbf" points="753.5,-507.5 753.5,-507.5 894.5,-507.5 894.5,-507.5 753.5,-507.5"/>
<polygon fill="none" stroke="#bfbfbf" points="753,-490.5 753,-550.5 894,-550.5 894,-490.5 753,-490.5"/>
</a>
</g>
</g>
<!-- Node7&#45;&gt;Node2 -->
<g id="edge6_Node000002_Node000007" class="edge">
<title>Node7&#45;&gt;Node2</title>
<g id="a_edge6_Node000002_Node000007"><a xlink:title=" ">
<path fill="none" stroke="#63b8ff" d="M824.38,-490.46C824.18,-454.31 819.45,-391.86 792.5,-347 782.63,-330.58 769.25,-315.7 754.7,-302.61"/>
<polygon fill="none" stroke="#63b8ff" points="754.61,-302.53 747.45,-301.65 745.52,-294.7 752.67,-295.58 754.61,-302.53"/>
</a>
</g>
<text text-anchor="middle" x="876.5" y="-350" font-family="Helvetica,sans-Serif" font-size="10.00" fill="grey"> #mpNonConstantConductivities</text>
</g>
<!-- Node8 -->
<g id="Node000008" class="node">
<title>Node8</title>
<g id="a_Node000008"><a xlink:title=" ">
<polygon fill="white" stroke="transparent" points="1074,-550.5 921,-550.5 921,-490.5 1074,-490.5 1074,-550.5"/>
<text text-anchor="start" x="926.5" y="-538.5" font-family="Helvetica,sans-Serif" font-size="10.00">vector&lt; c_matrix&lt; double,</text>
<text text-anchor="start" x="926.5" y="-527.5" font-family="Helvetica,sans-Serif" font-size="10.00"> SPACE_DIM, SPACE_DIM &gt; &gt;</text>
<text text-anchor="start" x="996" y="-512.5" font-family="Helvetica,sans-Serif" font-size="10.00"> </text>
<text text-anchor="start" x="996" y="-497.5" font-family="Helvetica,sans-Serif" font-size="10.00"> </text>
<polygon fill="#bfbfbf" stroke="#bfbfbf" points="921.5,-522.5 921.5,-522.5 1074.5,-522.5 1074.5,-522.5 921.5,-522.5"/>
<polygon fill="#bfbfbf" stroke="#bfbfbf" points="921.5,-507.5 921.5,-507.5 1074.5,-507.5 1074.5,-507.5 921.5,-507.5"/>
<polygon fill="none" stroke="#bfbfbf" points="921,-490.5 921,-550.5 1074,-550.5 1074,-490.5 921,-490.5"/>
</a>
</g>
</g>
<!-- Node8&#45;&gt;Node2 -->
<g id="edge7_Node000002_Node000008" class="edge">
<title>Node8&#45;&gt;Node2</title>
<g id="a_edge7_Node000002_Node000008"><a xlink:title=" ">
<path fill="none" stroke="#63b8ff" d="M999.38,-490.38C1000.18,-452.69 995.82,-387.12 960.5,-347 909.32,-288.86 824.59,-262.31 757.57,-250.19"/>
<polygon fill="none" stroke="#63b8ff" points="757.53,-250.18 750.94,-253.11 745.7,-248.16 752.29,-245.23 757.53,-250.18"/>
</a>
</g>
<text text-anchor="middle" x="994.5" y="-350" font-family="Helvetica,sans-Serif" font-size="10.00" fill="grey"> #mTensors</text>
</g>
<!-- Node9&#45;&gt;Node2 -->
<g id="edge8_Node000002_Node000009" class="edge">
<title>Node9&#45;&gt;Node2</title>
<g id="a_edge8_Node000002_Node000009"><a xlink:title=" ">
<path fill="none" stroke="#63b8ff" d="M519.8,-375.97C524.05,-365.86 528.92,-356.09 534.5,-347 541.32,-335.88 549.67,-325.28 558.77,-315.37"/>
<polygon fill="none" stroke="#63b8ff" points="559,-315.13 560.27,-308.03 567.31,-306.48 566.04,-313.58 559,-315.13"/>
</a>
</g>
<text text-anchor="middle" x="593.5" y="-350" font-family="Helvetica,sans-Serif" font-size="10.00" fill="grey"> #mFibreOrientationFile</text>
</g>
<!-- Node10 -->
<g id="Node000010" class="node">
<title>Node10</title>
<g id="a_Node000010"><a xlink:title=" ">
<polygon fill="white" stroke="transparent" points="428.5,-761 390.5,-761 390.5,-712 428.5,-712 428.5,-761"/>
<text text-anchor="start" x="395.5" y="-748.5" font-family="Helvetica,sans-Serif" font-size="10.00">string</text>
<text text-anchor="start" x="407.5" y="-733.5" font-family="Helvetica,sans-Serif" font-size="10.00"> </text>
<text text-anchor="start" x="407.5" y="-718.5" font-family="Helvetica,sans-Serif" font-size="10.00"> </text>
<polygon fill="#bfbfbf" stroke="#bfbfbf" points="390.5,-743.5 390.5,-743.5 428.5,-743.5 428.5,-743.5 390.5,-743.5"/>
<polygon fill="#bfbfbf" stroke="#bfbfbf" points="390.5,-728.5 390.5,-728.5 428.5,-728.5 428.5,-728.5 390.5,-728.5"/>
<polygon fill="none" stroke="#bfbfbf" points="390.5,-712 390.5,-761 428.5,-761 428.5,-712 390.5,-712"/>
</a>
</g>
</g>
<!-- Node10&#45;&gt;Node9 -->
<g id="edge9_Node000009_Node000010" class="edge">
<title>Node10&#45;&gt;Node9</title>
<g id="a_edge9_Node000009_Node000010"><a xlink:title=" ">
<path fill="none" stroke="#63b8ff" d="M418.48,-711.78C422.15,-702.09 426.72,-690.01 431.77,-676.67"/>
<polygon fill="none" stroke="#63b8ff" points="431.86,-676.42 430.25,-669.39 436.11,-665.19 437.73,-672.22 431.86,-676.42"/>
</a>
</g>
<text text-anchor="middle" x="457.5" y="-686" font-family="Helvetica,sans-Serif" font-size="10.00" fill="grey"> &#45;mAbsPath</text>
</g>
<!-- Node11 -->
<g id="Node000011" class="node">
<title>Node11</title>
<g id="a_Node000011"><a xlink:title=" ">
<polygon fill="white" stroke="transparent" points="507.5,-761 469.5,-761 469.5,-712 507.5,-712 507.5,-761"/>
<text text-anchor="start" x="474.5" y="-748.5" font-family="Helvetica,sans-Serif" font-size="10.00">Value</text>
<text text-anchor="start" x="486.5" y="-733.5" font-family="Helvetica,sans-Serif" font-size="10.00"> </text>
<text text-anchor="start" x="486.5" y="-718.5" font-family="Helvetica,sans-Serif" font-size="10.00"> </text>
<polygon fill="#bfbfbf" stroke="#bfbfbf" points="469.5,-743.5 469.5,-743.5 507.5,-743.5 507.5,-743.5 469.5,-743.5"/>
<polygon fill="#bfbfbf" stroke="#bfbfbf" points="469.5,-728.5 469.5,-728.5 507.5,-728.5 507.5,-728.5 469.5,-728.5"/>
<polygon fill="none" stroke="#bfbfbf" points="469.5,-712 469.5,-761 507.5,-761 507.5,-712 469.5,-712"/>
</a>
</g>
</g>
<!-- Node11&#45;&gt;Node9 -->
<g id="edge11_Node000009_Node000011" class="edge">
<title>Node11&#45;&gt;Node9</title>
<g id="a_edge11_Node000009_Node000011"><a xlink:title=" ">
<path fill="none" stroke="#63b8ff" d="M488.72,-711.78C488.81,-702.28 488.92,-690.49 489.04,-677.47"/>
<polygon fill="none" stroke="#63b8ff" points="489.04,-677.19 485.1,-671.15 489.16,-665.19 493.1,-671.23 489.04,-677.19"/>
</a>
</g>
<text text-anchor="middle" x="524.5" y="-686" font-family="Helvetica,sans-Serif" font-size="10.00" fill="grey"> &#45;msFakeWhat</text>
</g>
<!-- Node12 -->
<g id="Node000012" class="node">
<title>Node12</title>
<g id="a_Node000012"><a xlink:title=" ">
<polygon fill="white" stroke="transparent" points="600.5,-761 562.5,-761 562.5,-712 600.5,-712 600.5,-761"/>
<text text-anchor="start" x="567.5" y="-748.5" font-family="Helvetica,sans-Serif" font-size="10.00">string</text>
<text text-anchor="start" x="579.5" y="-733.5" font-family="Helvetica,sans-Serif" font-size="10.00"> </text>
<text text-anchor="start" x="579.5" y="-718.5" font-family="Helvetica,sans-Serif" font-size="10.00"> </text>
<polygon fill="#bfbfbf" stroke="#bfbfbf" points="562.5,-743.5 562.5,-743.5 600.5,-743.5 600.5,-743.5 562.5,-743.5"/>
<polygon fill="#bfbfbf" stroke="#bfbfbf" points="562.5,-728.5 562.5,-728.5 600.5,-728.5 600.5,-728.5 562.5,-728.5"/>
<polygon fill="none" stroke="#bfbfbf" points="562.5,-712 562.5,-761 600.5,-761 600.5,-712 562.5,-712"/>
</a>
</g>
</g>
<!-- Node12&#45;&gt;Node9 -->
<g id="edge12_Node000009_Node000012" class="edge">
<title>Node12&#45;&gt;Node9</title>
<g id="a_edge12_Node000009_Node000012"><a xlink:title=" ">
<path fill="none" stroke="#63b8ff" d="M571.68,-711.96C567.89,-702.9 563.51,-692.47 559.5,-683 558.56,-680.79 557.62,-678.56 556.67,-676.32"/>
<polygon fill="none" stroke="#63b8ff" points="556.56,-676.06 550.54,-672.1 551.88,-665.01 557.9,-668.97 556.56,-676.06"/>
</a>
</g>
<text text-anchor="middle" x="596" y="-686" font-family="Helvetica,sans-Serif" font-size="10.00" fill="grey"> &#45;msFakePath</text>
</g>
<!-- Node13 -->
<g id="Node000013" class="node">
<title>Node13</title>
<g id="a_Node000013"><a xlink:title=" ">
<polygon fill="white" stroke="transparent" points="1224.5,-550.5 1092.5,-550.5 1092.5,-490.5 1224.5,-490.5 1224.5,-550.5"/>
<text text-anchor="start" x="1097.5" y="-538.5" font-family="Helvetica,sans-Serif" font-size="10.00">shared_ptr&lt; FibreReader</text>
<text text-anchor="start" x="1113.5" y="-527.5" font-family="Helvetica,sans-Serif" font-size="10.00">&lt; SPACE_DIM &gt; &gt;</text>
<text text-anchor="start" x="1156.5" y="-512.5" font-family="Helvetica,sans-Serif" font-size="10.00"> </text>
<text text-anchor="start" x="1156.5" y="-497.5" font-family="Helvetica,sans-Serif" font-size="10.00"> </text>
<polygon fill="#bfbfbf" stroke="#bfbfbf" points="1092.5,-522.5 1092.5,-522.5 1224.5,-522.5 1224.5,-522.5 1092.5,-522.5"/>
<polygon fill="#bfbfbf" stroke="#bfbfbf" points="1092.5,-507.5 1092.5,-507.5 1224.5,-507.5 1224.5,-507.5 1092.5,-507.5"/>
<polygon fill="none" stroke="#bfbfbf" points="1092.5,-490.5 1092.5,-550.5 1224.5,-550.5 1224.5,-490.5 1092.5,-490.5"/>
</a>
</g>
</g>
<!-- Node13&#45;&gt;Node2 -->
<g id="edge13_Node000002_Node000013" class="edge">
<title>Node13&#45;&gt;Node2</title>
<g id="a_edge13_Node000002_Node000013"><a xlink:title=" ">
<path fill="none" stroke="#63b8ff" d="M1149.26,-490.4C1138.02,-458.89 1116.36,-408.74 1083.5,-376 996.29,-289.11 853.75,-257.68 757.61,-246.34"/>
<polygon fill="none" stroke="#63b8ff" points="757.46,-246.32 751.05,-249.63 745.53,-244.99 751.94,-241.68 757.46,-246.32"/>
</a>
</g>
<text text-anchor="middle" x="1093" y="-350" font-family="Helvetica,sans-Serif" font-size="10.00" fill="grey"> #mFileReader</text>
</g>
</g>
</svg>
