<?xml version="1.0" encoding="UTF-8" standalone="no"?>
<!DOCTYPE svg PUBLIC "-//W3C//DTD SVG 1.1//EN"
 "http://www.w3.org/Graphics/SVG/1.1/DTD/svg11.dtd">
<!-- Generated by graphviz version 2.43.0 (0)
 -->
<!-- Title: PropagationPropertiesCalculator Pages: 1 -->
<svg width="1338pt" height="1312pt"
 viewBox="0.00 0.00 1337.50 1312.00" xmlns="http://www.w3.org/2000/svg" xmlns:xlink="http://www.w3.org/1999/xlink">
<g id="graph0" class="graph" transform="scale(1 1) rotate(0) translate(4 1308)">
<title>PropagationPropertiesCalculator</title>
<!-- Node1 -->
<g id="Node000001" class="node">
<title>Node1</title>
<g id="a_Node000001"><a xlink:title=" ">
<polygon fill="#999999" stroke="transparent" points="999,-336 776,-336 776,0 999,0 999,-336"/>
<text text-anchor="start" x="809" y="-324" font-family="Helvetica,sans-Serif" font-size="10.00">PropagationPropertiesCalculator</text>
<text text-anchor="start" x="886" y="-309" font-family="Helvetica,sans-Serif" font-size="10.00"> </text>
<text text-anchor="start" x="780.5" y="-294" font-family="Helvetica,sans-Serif" font-size="10.00">+</text>
<text text-anchor="start" x="793.5" y="-294" font-family="Helvetica,sans-Serif" font-size="10.00">PropagationPropertiesCalculator()</text>
<text text-anchor="start" x="780.5" y="-279" font-family="Helvetica,sans-Serif" font-size="10.00">+</text>
<text text-anchor="start" x="793.5" y="-279" font-family="Helvetica,sans-Serif" font-size="10.00">~PropagationPropertiesCalculator()</text>
<text text-anchor="start" x="780.5" y="-264" font-family="Helvetica,sans-Serif" font-size="10.00">+</text>
<text text-anchor="start" x="793.5" y="-264" font-family="Helvetica,sans-Serif" font-size="10.00">CalculateMaximumUpstroke</text>
<text text-anchor="start" x="793.5" y="-253" font-family="Helvetica,sans-Serif" font-size="10.00">Velocity()</text>
<text text-anchor="start" x="780.5" y="-238" font-family="Helvetica,sans-Serif" font-size="10.00">+</text>
<text text-anchor="start" x="793.5" y="-238" font-family="Helvetica,sans-Serif" font-size="10.00">CalculateAllMaximumUpstroke</text>
<text text-anchor="start" x="793.5" y="-227" font-family="Helvetica,sans-Serif" font-size="10.00">Velocities()</text>
<text text-anchor="start" x="780.5" y="-212" font-family="Helvetica,sans-Serif" font-size="10.00">+</text>
<text text-anchor="start" x="793.5" y="-212" font-family="Helvetica,sans-Serif" font-size="10.00">CalculateUpstrokeTimes()</text>
<text text-anchor="start" x="780.5" y="-197" font-family="Helvetica,sans-Serif" font-size="10.00">+</text>
<text text-anchor="start" x="793.5" y="-197" font-family="Helvetica,sans-Serif" font-size="10.00">CalculateConductionVelocity()</text>
<text text-anchor="start" x="780.5" y="-182" font-family="Helvetica,sans-Serif" font-size="10.00">+</text>
<text text-anchor="start" x="793.5" y="-182" font-family="Helvetica,sans-Serif" font-size="10.00">CalculateAllConductionVelocities()</text>
<text text-anchor="start" x="780.5" y="-167" font-family="Helvetica,sans-Serif" font-size="10.00">+</text>
<text text-anchor="start" x="793.5" y="-167" font-family="Helvetica,sans-Serif" font-size="10.00">CalculateActionPotential</text>
<text text-anchor="start" x="793.5" y="-156" font-family="Helvetica,sans-Serif" font-size="10.00">Duration()</text>
<text text-anchor="start" x="780.5" y="-141" font-family="Helvetica,sans-Serif" font-size="10.00">+</text>
<text text-anchor="start" x="793.5" y="-141" font-family="Helvetica,sans-Serif" font-size="10.00">CalculatePeakMembranePotential()</text>
<text text-anchor="start" x="780.5" y="-126" font-family="Helvetica,sans-Serif" font-size="10.00">+</text>
<text text-anchor="start" x="793.5" y="-126" font-family="Helvetica,sans-Serif" font-size="10.00">CalculateAllActionPotential</text>
<text text-anchor="start" x="793.5" y="-115" font-family="Helvetica,sans-Serif" font-size="10.00">Durations()</text>
<text text-anchor="start" x="780.5" y="-100" font-family="Helvetica,sans-Serif" font-size="10.00">+</text>
<text text-anchor="start" x="793.5" y="-100" font-family="Helvetica,sans-Serif" font-size="10.00">CalculateAllActionPotential</text>
<text text-anchor="start" x="793.5" y="-89" font-family="Helvetica,sans-Serif" font-size="10.00">DurationsForNodeRange()</text>
<text text-anchor="start" x="780.5" y="-74" font-family="Helvetica,sans-Serif" font-size="10.00">+</text>
<text text-anchor="start" x="793.5" y="-74" font-family="Helvetica,sans-Serif" font-size="10.00">CalculateAllAboveThreshold</text>
<text text-anchor="start" x="793.5" y="-63" font-family="Helvetica,sans-Serif" font-size="10.00">Depolarisations()</text>
<text text-anchor="start" x="780.5" y="-48" font-family="Helvetica,sans-Serif" font-size="10.00">+</text>
<text text-anchor="start" x="793.5" y="-48" font-family="Helvetica,sans-Serif" font-size="10.00">CalculateAboveThresholdDepolarisations</text>
<text text-anchor="start" x="793.5" y="-37" font-family="Helvetica,sans-Serif" font-size="10.00">ForLastAp()</text>
<text text-anchor="start" x="780.5" y="-22" font-family="Helvetica,sans-Serif" font-size="10.00">+</text>
<text text-anchor="start" x="793.5" y="-22" font-family="Helvetica,sans-Serif" font-size="10.00">SetHdf5DataReader()</text>
<text text-anchor="start" x="780.5" y="-7" font-family="Helvetica,sans-Serif" font-size="10.00">#</text>
<text text-anchor="start" x="793.5" y="-7" font-family="Helvetica,sans-Serif" font-size="10.00">rGetCachedVoltages()</text>
<polygon fill="#666666" stroke="#666666" points="776.5,-319 776.5,-319 999.5,-319 999.5,-319 776.5,-319"/>
<polygon fill="#666666" stroke="#666666" points="776.5,-304 776.5,-304 999.5,-304 999.5,-304 776.5,-304"/>
<polygon fill="none" stroke="#666666" points="776,0 776,-336 999,-336 999,0 776,0"/>
</a>
</g>
</g>
<!-- Node2 -->
<g id="Node000002" class="node">
<title>Node2</title>
<g id="a_Node000002"><a xlink:href="classHdf5DataReader.html" target="_top" xlink:title=" ">
<polygon fill="white" stroke="transparent" points="921.5,-619 731.5,-619 731.5,-394 921.5,-394 921.5,-619"/>
<text text-anchor="start" x="785.5" y="-606.5" font-family="Helvetica,sans-Serif" font-size="10.00">Hdf5DataReader</text>
<text text-anchor="start" x="824.5" y="-591.5" font-family="Helvetica,sans-Serif" font-size="10.00"> </text>
<text text-anchor="start" x="735.5" y="-576.5" font-family="Helvetica,sans-Serif" font-size="10.00">+</text>
<text text-anchor="start" x="748.5" y="-576.5" font-family="Helvetica,sans-Serif" font-size="10.00">Hdf5DataReader()</text>
<text text-anchor="start" x="735.5" y="-561.5" font-family="Helvetica,sans-Serif" font-size="10.00">+</text>
<text text-anchor="start" x="748.5" y="-561.5" font-family="Helvetica,sans-Serif" font-size="10.00">Hdf5DataReader()</text>
<text text-anchor="start" x="735.5" y="-546.5" font-family="Helvetica,sans-Serif" font-size="10.00">+</text>
<text text-anchor="start" x="748.5" y="-546.5" font-family="Helvetica,sans-Serif" font-size="10.00">GetVariableOverTime()</text>
<text text-anchor="start" x="735.5" y="-531.5" font-family="Helvetica,sans-Serif" font-size="10.00">+</text>
<text text-anchor="start" x="748.5" y="-531.5" font-family="Helvetica,sans-Serif" font-size="10.00">GetVariableOverTimeOverMultiple</text>
<text text-anchor="start" x="748.5" y="-520.5" font-family="Helvetica,sans-Serif" font-size="10.00">Nodes()</text>
<text text-anchor="start" x="735.5" y="-505.5" font-family="Helvetica,sans-Serif" font-size="10.00">+</text>
<text text-anchor="start" x="748.5" y="-505.5" font-family="Helvetica,sans-Serif" font-size="10.00">GetVariableOverNodes()</text>
<text text-anchor="start" x="735.5" y="-490.5" font-family="Helvetica,sans-Serif" font-size="10.00">+</text>
<text text-anchor="start" x="748.5" y="-490.5" font-family="Helvetica,sans-Serif" font-size="10.00">GetUnlimitedDimensionValues()</text>
<text text-anchor="start" x="735.5" y="-475.5" font-family="Helvetica,sans-Serif" font-size="10.00">+</text>
<text text-anchor="start" x="748.5" y="-475.5" font-family="Helvetica,sans-Serif" font-size="10.00">GetNumberOfRows()</text>
<text text-anchor="start" x="735.5" y="-460.5" font-family="Helvetica,sans-Serif" font-size="10.00">+</text>
<text text-anchor="start" x="748.5" y="-460.5" font-family="Helvetica,sans-Serif" font-size="10.00">GetVariableNames()</text>
<text text-anchor="start" x="735.5" y="-445.5" font-family="Helvetica,sans-Serif" font-size="10.00">+</text>
<text text-anchor="start" x="748.5" y="-445.5" font-family="Helvetica,sans-Serif" font-size="10.00">GetUnit()</text>
<text text-anchor="start" x="735.5" y="-430.5" font-family="Helvetica,sans-Serif" font-size="10.00">+</text>
<text text-anchor="start" x="748.5" y="-430.5" font-family="Helvetica,sans-Serif" font-size="10.00">Close()</text>
<text text-anchor="start" x="735.5" y="-415.5" font-family="Helvetica,sans-Serif" font-size="10.00">+</text>
<text text-anchor="start" x="748.5" y="-415.5" font-family="Helvetica,sans-Serif" font-size="10.00">~Hdf5DataReader()</text>
<text text-anchor="start" x="738" y="-400.5" font-family="Helvetica,sans-Serif" font-size="10.00">&#45;</text>
<text text-anchor="start" x="748.5" y="-400.5" font-family="Helvetica,sans-Serif" font-size="10.00">CommonConstructor()</text>
<polygon fill="#666666" stroke="#666666" points="731.5,-601.5 731.5,-601.5 921.5,-601.5 921.5,-601.5 731.5,-601.5"/>
<polygon fill="#666666" stroke="#666666" points="731.5,-586.5 731.5,-586.5 921.5,-586.5 921.5,-586.5 731.5,-586.5"/>
<polygon fill="none" stroke="#666666" points="731.5,-394 731.5,-619 921.5,-619 921.5,-394 731.5,-394"/>
</a>
</g>
</g>
<!-- Node2&#45;&gt;Node1 -->
<g id="edge1_Node000001_Node000002" class="edge">
<title>Node2&#45;&gt;Node1</title>
<g id="a_edge1_Node000001_Node000002"><a xlink:title=" ">
<path fill="none" stroke="#63b8ff" d="M839.27,-393.62C841.17,-380.24 843.25,-366.79 845.5,-354 845.84,-352.08 846.18,-350.16 846.53,-348.22"/>
<polygon fill="none" stroke="#63b8ff" points="846.56,-348.04 843.73,-341.41 848.76,-336.24 851.59,-342.87 846.56,-348.04"/>
</a>
</g>
<text text-anchor="middle" x="886" y="-362.5" font-family="Helvetica,sans-Serif" font-size="10.00" fill="grey"> &#45;mpDataReader</text>
</g>
<!-- Node3 -->
<g id="Node000003" class="node">
<title>Node3</title>
<g id="a_Node000003"><a xlink:href="classAbstractHdf5Access.html" target="_top" xlink:title=" ">
<polygon fill="white" stroke="transparent" points="589,-850 400,-850 400,-666 589,-666 589,-850"/>
<text text-anchor="start" x="446" y="-838" font-family="Helvetica,sans-Serif" font-size="10.00">AbstractHdf5Access</text>
<text text-anchor="start" x="493" y="-823" font-family="Helvetica,sans-Serif" font-size="10.00"> </text>
<text text-anchor="start" x="404.5" y="-808" font-family="Helvetica,sans-Serif" font-size="10.00">+</text>
<text text-anchor="start" x="417.5" y="-808" font-family="Helvetica,sans-Serif" font-size="10.00">AbstractHdf5Access()</text>
<text text-anchor="start" x="404.5" y="-793" font-family="Helvetica,sans-Serif" font-size="10.00">+</text>
<text text-anchor="start" x="417.5" y="-793" font-family="Helvetica,sans-Serif" font-size="10.00">AbstractHdf5Access()</text>
<text text-anchor="start" x="404.5" y="-778" font-family="Helvetica,sans-Serif" font-size="10.00">+</text>
<text text-anchor="start" x="417.5" y="-778" font-family="Helvetica,sans-Serif" font-size="10.00">~AbstractHdf5Access()</text>
<text text-anchor="start" x="404.5" y="-763" font-family="Helvetica,sans-Serif" font-size="10.00">+</text>
<text text-anchor="start" x="417.5" y="-763" font-family="Helvetica,sans-Serif" font-size="10.00">IsDataComplete()</text>
<text text-anchor="start" x="404.5" y="-748" font-family="Helvetica,sans-Serif" font-size="10.00">+</text>
<text text-anchor="start" x="417.5" y="-748" font-family="Helvetica,sans-Serif" font-size="10.00">GetIncompleteNodeMap()</text>
<text text-anchor="start" x="404.5" y="-733" font-family="Helvetica,sans-Serif" font-size="10.00">+</text>
<text text-anchor="start" x="417.5" y="-733" font-family="Helvetica,sans-Serif" font-size="10.00">GetUnlimitedDimensionName()</text>
<text text-anchor="start" x="404.5" y="-718" font-family="Helvetica,sans-Serif" font-size="10.00">+</text>
<text text-anchor="start" x="417.5" y="-718" font-family="Helvetica,sans-Serif" font-size="10.00">GetUnlimitedDimensionUnit()</text>
<text text-anchor="start" x="404.5" y="-703" font-family="Helvetica,sans-Serif" font-size="10.00">#</text>
<text text-anchor="start" x="417.5" y="-703" font-family="Helvetica,sans-Serif" font-size="10.00">DoesDatasetExist()</text>
<text text-anchor="start" x="404.5" y="-688" font-family="Helvetica,sans-Serif" font-size="10.00">#</text>
<text text-anchor="start" x="417.5" y="-688" font-family="Helvetica,sans-Serif" font-size="10.00">SetUnlimitedDatasetId()</text>
<text text-anchor="start" x="404.5" y="-673" font-family="Helvetica,sans-Serif" font-size="10.00">#</text>
<text text-anchor="start" x="417.5" y="-673" font-family="Helvetica,sans-Serif" font-size="10.00">SetMainDatasetRawChunkCache()</text>
<polygon fill="#666666" stroke="#666666" points="400.5,-833 400.5,-833 589.5,-833 589.5,-833 400.5,-833"/>
<polygon fill="#666666" stroke="#666666" points="400.5,-818 400.5,-818 589.5,-818 589.5,-818 400.5,-818"/>
<polygon fill="none" stroke="#666666" points="400,-666 400,-850 589,-850 589,-666 400,-666"/>
</a>
</g>
</g>
<!-- Node3&#45;&gt;Node2 -->
<g id="edge2_Node000002_Node000003" class="edge">
<title>Node3&#45;&gt;Node2</title>
<g id="a_edge2_Node000002_Node000003"><a xlink:title=" ">
<path fill="none" stroke="#63b8ff" d="M597.38,-679.69C640.14,-647.55 689.48,-610.47 731.39,-578.97"/>
<polygon fill="none" stroke="#63b8ff" points="595.09,-677.03 589.19,-685.84 599.29,-682.63 595.09,-677.03"/>
</a>
</g>
</g>
<!-- Node4 -->
<g id="Node000004" class="node">
<title>Node4</title>
<g id="a_Node000004"><a xlink:title=" ">
<polygon fill="white" stroke="transparent" points="384.5,-1304 346.5,-1304 346.5,-1255 384.5,-1255 384.5,-1304"/>
<text text-anchor="start" x="351.5" y="-1291.5" font-family="Helvetica,sans-Serif" font-size="10.00">string</text>
<text text-anchor="start" x="363.5" y="-1276.5" font-family="Helvetica,sans-Serif" font-size="10.00"> </text>
<text text-anchor="start" x="363.5" y="-1261.5" font-family="Helvetica,sans-Serif" font-size="10.00"> </text>
<polygon fill="#bfbfbf" stroke="#bfbfbf" points="346.5,-1286.5 346.5,-1286.5 384.5,-1286.5 384.5,-1286.5 346.5,-1286.5"/>
<polygon fill="#bfbfbf" stroke="#bfbfbf" points="346.5,-1271.5 346.5,-1271.5 384.5,-1271.5 384.5,-1271.5 346.5,-1271.5"/>
<polygon fill="none" stroke="#bfbfbf" points="346.5,-1255 346.5,-1304 384.5,-1304 384.5,-1255 346.5,-1255"/>
</a>
</g>
</g>
<!-- Node4&#45;&gt;Node3 -->
<g id="edge3_Node000003_Node000004" class="edge">
<title>Node4&#45;&gt;Node3</title>
<g id="a_edge3_Node000003_Node000004"><a xlink:title=" ">
<path fill="none" stroke="#63b8ff" d="M361.17,-1254.84C348.64,-1183.2 315.78,-970.36 357.5,-919 382.12,-888.69 414.04,-926.64 443.5,-901 455.9,-890.21 465.29,-876.17 472.39,-861.13"/>
<polygon fill="none" stroke="#63b8ff" points="472.43,-861.05 471.13,-853.96 477.17,-850.03 478.47,-857.12 472.43,-861.05"/>
</a>
</g>
<text text-anchor="middle" x="431.5" y="-1077.5" font-family="Helvetica,sans-Serif" font-size="10.00" fill="grey"> #mBaseName</text>
<text text-anchor="middle" x="431.5" y="-1066.5" font-family="Helvetica,sans-Serif" font-size="10.00" fill="grey">#mDatasetName</text>
<text text-anchor="middle" x="431.5" y="-1055.5" font-family="Helvetica,sans-Serif" font-size="10.00" fill="grey">#mUnlimitedDimensionName</text>
<text text-anchor="middle" x="431.5" y="-1044.5" font-family="Helvetica,sans-Serif" font-size="10.00" fill="grey">#mUnlimitedDimensionUnit</text>
</g>
<!-- Node5 -->
<g id="Node000005" class="node">
<title>Node5</title>
<g id="a_Node000005"><a xlink:href="classFileFinder.html" target="_top" xlink:title=" ">
<polygon fill="white" stroke="transparent" points="700.5,-1208 514.5,-1208 514.5,-919 700.5,-919 700.5,-1208"/>
<text text-anchor="start" x="583.5" y="-1195.5" font-family="Helvetica,sans-Serif" font-size="10.00">FileFinder</text>
<text text-anchor="start" x="605.5" y="-1180.5" font-family="Helvetica,sans-Serif" font-size="10.00"> </text>
<text text-anchor="start" x="518.5" y="-1165.5" font-family="Helvetica,sans-Serif" font-size="10.00">+</text>
<text text-anchor="start" x="531.5" y="-1165.5" font-family="Helvetica,sans-Serif" font-size="10.00">FileFinder()</text>
<text text-anchor="start" x="518.5" y="-1150.5" font-family="Helvetica,sans-Serif" font-size="10.00">+</text>
<text text-anchor="start" x="531.5" y="-1150.5" font-family="Helvetica,sans-Serif" font-size="10.00">FileFinder()</text>
<text text-anchor="start" x="518.5" y="-1135.5" font-family="Helvetica,sans-Serif" font-size="10.00">+</text>
<text text-anchor="start" x="531.5" y="-1135.5" font-family="Helvetica,sans-Serif" font-size="10.00">FileFinder()</text>
<text text-anchor="start" x="518.5" y="-1120.5" font-family="Helvetica,sans-Serif" font-size="10.00">+</text>
<text text-anchor="start" x="531.5" y="-1120.5" font-family="Helvetica,sans-Serif" font-size="10.00">FileFinder()</text>
<text text-anchor="start" x="518.5" y="-1105.5" font-family="Helvetica,sans-Serif" font-size="10.00">+</text>
<text text-anchor="start" x="531.5" y="-1105.5" font-family="Helvetica,sans-Serif" font-size="10.00">~FileFinder()</text>
<text text-anchor="start" x="518.5" y="-1090.5" font-family="Helvetica,sans-Serif" font-size="10.00">+</text>
<text text-anchor="start" x="531.5" y="-1090.5" font-family="Helvetica,sans-Serif" font-size="10.00">SetPath()</text>
<text text-anchor="start" x="518.5" y="-1075.5" font-family="Helvetica,sans-Serif" font-size="10.00">+</text>
<text text-anchor="start" x="531.5" y="-1075.5" font-family="Helvetica,sans-Serif" font-size="10.00">SetPath()</text>
<text text-anchor="start" x="518.5" y="-1060.5" font-family="Helvetica,sans-Serif" font-size="10.00">+</text>
<text text-anchor="start" x="531.5" y="-1060.5" font-family="Helvetica,sans-Serif" font-size="10.00">IsPathSet()</text>
<text text-anchor="start" x="518.5" y="-1045.5" font-family="Helvetica,sans-Serif" font-size="10.00">+</text>
<text text-anchor="start" x="531.5" y="-1045.5" font-family="Helvetica,sans-Serif" font-size="10.00">Exists()</text>
<text text-anchor="start" x="518.5" y="-1030.5" font-family="Helvetica,sans-Serif" font-size="10.00">+</text>
<text text-anchor="start" x="531.5" y="-1030.5" font-family="Helvetica,sans-Serif" font-size="10.00">IsFile()</text>
<text text-anchor="start" x="531.5" y="-1015.5" font-family="Helvetica,sans-Serif" font-size="10.00">and 14 more...</text>
<text text-anchor="start" x="518.5" y="-1000.5" font-family="Helvetica,sans-Serif" font-size="10.00">+</text>
<text text-anchor="start" x="531.5" y="-1000.5" font-family="Helvetica,sans-Serif" font-size="10.00">IsAbsolutePath()</text>
<text text-anchor="start" x="518.5" y="-985.5" font-family="Helvetica,sans-Serif" font-size="10.00">+</text>
<text text-anchor="start" x="531.5" y="-985.5" font-family="Helvetica,sans-Serif" font-size="10.00">ReplaceSpacesWithUnderscores()</text>
<text text-anchor="start" x="518.5" y="-970.5" font-family="Helvetica,sans-Serif" font-size="10.00">+</text>
<text text-anchor="start" x="531.5" y="-970.5" font-family="Helvetica,sans-Serif" font-size="10.00">ReplaceUnderscoresWithSpaces()</text>
<text text-anchor="start" x="518.5" y="-955.5" font-family="Helvetica,sans-Serif" font-size="10.00">+</text>
<text text-anchor="start" x="531.5" y="-955.5" font-family="Helvetica,sans-Serif" font-size="10.00">FakePath()</text>
<text text-anchor="start" x="518.5" y="-940.5" font-family="Helvetica,sans-Serif" font-size="10.00">+</text>
<text text-anchor="start" x="531.5" y="-940.5" font-family="Helvetica,sans-Serif" font-size="10.00">StopFaking()</text>
<text text-anchor="start" x="521" y="-925.5" font-family="Helvetica,sans-Serif" font-size="10.00">&#45;</text>
<text text-anchor="start" x="531.5" y="-925.5" font-family="Helvetica,sans-Serif" font-size="10.00">PrivateRemove()</text>
<polygon fill="#666666" stroke="#666666" points="514.5,-1190.5 514.5,-1190.5 700.5,-1190.5 700.5,-1190.5 514.5,-1190.5"/>
<polygon fill="#666666" stroke="#666666" points="514.5,-1175.5 514.5,-1175.5 700.5,-1175.5 700.5,-1175.5 514.5,-1175.5"/>
<polygon fill="none" stroke="#666666" points="514.5,-919 514.5,-1208 700.5,-1208 700.5,-919 514.5,-919"/>
</a>
</g>
</g>
<!-- Node4&#45;&gt;Node5 -->
<g id="edge5_Node000005_Node000004" class="edge">
<title>Node4&#45;&gt;Node5</title>
<g id="a_edge5_Node000005_Node000004"><a xlink:title=" ">
<path fill="none" stroke="#63b8ff" d="M384.77,-1262.96C399.78,-1251.47 421.52,-1236.13 442.5,-1226 466.81,-1214.27 478.46,-1223.58 500.5,-1208 501.97,-1206.96 503.42,-1205.9 504.87,-1204.81"/>
<polygon fill="none" stroke="#63b8ff" points="504.87,-1204.81 507.03,-1197.93 514.22,-1197.29 512.05,-1204.17 504.87,-1204.81"/>
</a>
</g>
<text text-anchor="middle" x="470.5" y="-1229" font-family="Helvetica,sans-Serif" font-size="10.00" fill="grey"> &#45;mAbsPath</text>
</g>
<!-- Node5&#45;&gt;Node3 -->
<g id="edge4_Node000003_Node000005" class="edge">
<title>Node5&#45;&gt;Node3</title>
<g id="a_edge4_Node000003_Node000005"><a xlink:title=" ">
<path fill="none" stroke="#63b8ff" d="M553.98,-918.75C546.8,-899.46 539.55,-880 532.71,-861.62"/>
<polygon fill="none" stroke="#63b8ff" points="532.69,-861.58 526.85,-857.35 528.5,-850.33 534.35,-854.56 532.69,-861.58"/>
</a>
</g>
<text text-anchor="middle" x="578" y="-882" font-family="Helvetica,sans-Serif" font-size="10.00" fill="grey"> #mDirectory</text>
</g>
<!-- Node6 -->
<g id="Node000006" class="node">
<title>Node6</title>
<g id="a_Node000006"><a xlink:href="classbool.html" target="_top" xlink:title=" ">
<polygon fill="white" stroke="transparent" points="752.5,-1304 720.5,-1304 720.5,-1255 752.5,-1255 752.5,-1304"/>
<text text-anchor="start" x="725.5" y="-1291.5" font-family="Helvetica,sans-Serif" font-size="10.00">bool</text>
<text text-anchor="start" x="734.5" y="-1276.5" font-family="Helvetica,sans-Serif" font-size="10.00"> </text>
<text text-anchor="start" x="734.5" y="-1261.5" font-family="Helvetica,sans-Serif" font-size="10.00"> </text>
<polygon fill="#bfbfbf" stroke="#bfbfbf" points="720.5,-1286.5 720.5,-1286.5 752.5,-1286.5 752.5,-1286.5 720.5,-1286.5"/>
<polygon fill="#bfbfbf" stroke="#bfbfbf" points="720.5,-1271.5 720.5,-1271.5 752.5,-1271.5 752.5,-1271.5 720.5,-1271.5"/>
<polygon fill="none" stroke="#bfbfbf" points="720.5,-1255 720.5,-1304 752.5,-1304 752.5,-1255 720.5,-1255"/>
</a>
</g>
</g>
<!-- Node6&#45;&gt;Node2 -->
<g id="edge19_Node000002_Node000006" class="edge">
<title>Node6&#45;&gt;Node2</title>
<g id="a_edge19_Node000002_Node000006"><a xlink:title=" ">
<path fill="none" stroke="#63b8ff" d="M752.58,-1276.08C790.13,-1269.86 885.45,-1250.69 952.5,-1208 1136.31,-1090.95 1207.46,-1052.68 1287.5,-850 1317.54,-773.94 1330.49,-735.56 1287.5,-666 1272.35,-641.48 1257.34,-644.46 1229.5,-637 1168.47,-620.64 1008.16,-644.67 932.96,-618.97"/>
<polygon fill="none" stroke="#63b8ff" points="932.78,-618.9 925.72,-620.36 921.66,-614.4 928.72,-612.94 932.78,-618.9"/>
</a>
</g>
<text text-anchor="middle" x="1304.5" y="-882" font-family="Helvetica,sans-Serif" font-size="10.00" fill="grey"> &#45;mClosed</text>
</g>
<!-- Node6&#45;&gt;Node3 -->
<g id="edge10_Node000003_Node000006" class="edge">
<title>Node6&#45;&gt;Node3</title>
<g id="a_edge10_Node000003_Node000006"><a xlink:title=" ">
<path fill="none" stroke="#63b8ff" d="M737.23,-1254.95C739.02,-1184.54 741.41,-976.99 709.5,-919 705.9,-912.46 651.94,-872.31 598.98,-833.87"/>
<polygon fill="none" stroke="#63b8ff" points="598.83,-833.76 591.62,-833.48 589.11,-826.72 596.32,-827 598.83,-833.76"/>
</a>
</g>
<text text-anchor="middle" x="810" y="-1066.5" font-family="Helvetica,sans-Serif" font-size="10.00" fill="grey"> #mIsDataComplete</text>
<text text-anchor="middle" x="810" y="-1055.5" font-family="Helvetica,sans-Serif" font-size="10.00" fill="grey">#mIsUnlimitedDimensionSet</text>
</g>
<!-- Node6&#45;&gt;Node5 -->
<g id="edge6_Node000005_Node000006" class="edge">
<title>Node6&#45;&gt;Node5</title>
<g id="a_edge6_Node000005_Node000006"><a xlink:title=" ">
<path fill="none" stroke="#63b8ff" d="M720.29,-1272.37C704.94,-1265.8 682.26,-1253.97 668.5,-1237 663.77,-1231.17 659.4,-1224.95 655.35,-1218.46"/>
<polygon fill="none" stroke="#63b8ff" points="655.32,-1218.4 648.84,-1215.25 649.26,-1208.05 655.74,-1211.2 655.32,-1218.4"/>
</a>
</g>
<text text-anchor="middle" x="695.5" y="-1229" font-family="Helvetica,sans-Serif" font-size="10.00" fill="grey"> &#45;msFaking</text>
</g>
<!-- Node7 -->
<g id="Node000007" class="node">
<title>Node7</title>
<g id="a_Node000007"><a xlink:title=" ">
<polygon fill="white" stroke="transparent" points="505.5,-1304 467.5,-1304 467.5,-1255 505.5,-1255 505.5,-1304"/>
<text text-anchor="start" x="472.5" y="-1291.5" font-family="Helvetica,sans-Serif" font-size="10.00">Value</text>
<text text-anchor="start" x="484.5" y="-1276.5" font-family="Helvetica,sans-Serif" font-size="10.00"> </text>
<text text-anchor="start" x="484.5" y="-1261.5" font-family="Helvetica,sans-Serif" font-size="10.00"> </text>
<polygon fill="#bfbfbf" stroke="#bfbfbf" points="467.5,-1286.5 467.5,-1286.5 505.5,-1286.5 505.5,-1286.5 467.5,-1286.5"/>
<polygon fill="#bfbfbf" stroke="#bfbfbf" points="467.5,-1271.5 467.5,-1271.5 505.5,-1271.5 505.5,-1271.5 467.5,-1271.5"/>
<polygon fill="none" stroke="#bfbfbf" points="467.5,-1255 467.5,-1304 505.5,-1304 505.5,-1255 467.5,-1255"/>
</a>
</g>
</g>
<!-- Node7&#45;&gt;Node5 -->
<g id="edge7_Node000005_Node000007" class="edge">
<title>Node7&#45;&gt;Node5</title>
<g id="a_edge7_Node000005_Node000007"><a xlink:title=" ">
<path fill="none" stroke="#63b8ff" d="M494.41,-1254.82C497.76,-1245.65 501.94,-1235.17 506.5,-1226 507.7,-1223.59 508.92,-1221.18 510.16,-1218.76"/>
<polygon fill="none" stroke="#63b8ff" points="510.18,-1218.72 509.43,-1211.55 515.76,-1208.1 516.51,-1215.27 510.18,-1218.72"/>
</a>
</g>
<text text-anchor="middle" x="541.5" y="-1229" font-family="Helvetica,sans-Serif" font-size="10.00" fill="grey"> &#45;msFakeWhat</text>
</g>
<!-- Node8 -->
<g id="Node000008" class="node">
<title>Node8</title>
<g id="a_Node000008"><a xlink:title=" ">
<polygon fill="white" stroke="transparent" points="598.5,-1304 560.5,-1304 560.5,-1255 598.5,-1255 598.5,-1304"/>
<text text-anchor="start" x="565.5" y="-1291.5" font-family="Helvetica,sans-Serif" font-size="10.00">string</text>
<text text-anchor="start" x="577.5" y="-1276.5" font-family="Helvetica,sans-Serif" font-size="10.00"> </text>
<text text-anchor="start" x="577.5" y="-1261.5" font-family="Helvetica,sans-Serif" font-size="10.00"> </text>
<polygon fill="#bfbfbf" stroke="#bfbfbf" points="560.5,-1286.5 560.5,-1286.5 598.5,-1286.5 598.5,-1286.5 560.5,-1286.5"/>
<polygon fill="#bfbfbf" stroke="#bfbfbf" points="560.5,-1271.5 560.5,-1271.5 598.5,-1271.5 598.5,-1271.5 560.5,-1271.5"/>
<polygon fill="none" stroke="#bfbfbf" points="560.5,-1255 560.5,-1304 598.5,-1304 598.5,-1255 560.5,-1255"/>
</a>
</g>
</g>
<!-- Node8&#45;&gt;Node5 -->
<g id="edge8_Node000005_Node000008" class="edge">
<title>Node8&#45;&gt;Node5</title>
<g id="a_edge8_Node000005_Node000008"><a xlink:title=" ">
<path fill="none" stroke="#63b8ff" d="M579.21,-1254.94C579.3,-1245.88 579.63,-1235.44 580.5,-1226 580.67,-1224.19 580.84,-1222.36 581.03,-1220.53"/>
<polygon fill="none" stroke="#63b8ff" points="581.06,-1220.26 577.73,-1213.86 582.36,-1208.33 585.68,-1214.72 581.06,-1220.26"/>
</a>
</g>
<text text-anchor="middle" x="613" y="-1229" font-family="Helvetica,sans-Serif" font-size="10.00" fill="grey"> &#45;msFakePath</text>
</g>
<!-- Node9 -->
<g id="Node000009" class="node">
<title>Node9</title>
<g id="a_Node000009"><a xlink:href="classunsigned.html" target="_top" xlink:title=" ">
<polygon fill="white" stroke="transparent" points="55,-1088 0,-1088 0,-1039 55,-1039 55,-1088"/>
<text text-anchor="start" x="5.5" y="-1075.5" font-family="Helvetica,sans-Serif" font-size="10.00">unsigned</text>
<text text-anchor="start" x="26" y="-1060.5" font-family="Helvetica,sans-Serif" font-size="10.00"> </text>
<text text-anchor="start" x="26" y="-1045.5" font-family="Helvetica,sans-Serif" font-size="10.00"> </text>
<polygon fill="#bfbfbf" stroke="#bfbfbf" points="0.5,-1070.5 0.5,-1070.5 55.5,-1070.5 55.5,-1070.5 0.5,-1070.5"/>
<polygon fill="#bfbfbf" stroke="#bfbfbf" points="0.5,-1055.5 0.5,-1055.5 55.5,-1055.5 55.5,-1055.5 0.5,-1055.5"/>
<polygon fill="none" stroke="#bfbfbf" points="0,-1039 0,-1088 55,-1088 55,-1039 0,-1039"/>
</a>
</g>
</g>
<!-- Node9&#45;&gt;Node1 -->
<g id="edge22_Node000001_Node000009" class="edge">
<title>Node9&#45;&gt;Node1</title>
<g id="a_edge22_Node000001_Node000009"><a xlink:title=" ">
<path fill="none" stroke="#63b8ff" d="M21.44,-1038.63C6.22,-972.98 -27.1,-786.61 50.5,-666 218.21,-405.33 575.24,-263.07 764.23,-203.34"/>
<polygon fill="none" stroke="#63b8ff" points="764.42,-203.28 768.95,-197.67 775.87,-199.7 771.34,-205.31 764.42,-203.28"/>
</a>
</g>
<text text-anchor="middle" x="136" y="-640" font-family="Helvetica,sans-Serif" font-size="10.00" fill="grey"> &#45;mCachedNodeGlobalIndex</text>
</g>
<!-- Node9&#45;&gt;Node2 -->
<g id="edge14_Node000002_Node000009" class="edge">
<title>Node9&#45;&gt;Node2</title>
<g id="a_edge14_Node000002_Node000009"><a xlink:title=" ">
<path fill="none" stroke="#63b8ff" d="M24.29,-1038.89C20.22,-1000.76 16.73,-924.22 44.5,-868 103.43,-748.69 149.23,-730.72 265.5,-666 411.23,-584.88 601.81,-542.52 719.11,-522.63"/>
<polygon fill="none" stroke="#63b8ff" points="719.44,-522.57 724.7,-517.64 731.28,-520.6 726.02,-525.53 719.44,-522.57"/>
</a>
</g>
<text text-anchor="middle" x="328" y="-755.5" font-family="Helvetica,sans-Serif" font-size="10.00" fill="grey"> &#45;mVariablesDatasetRank</text>
</g>
<!-- Node9&#45;&gt;Node3 -->
<g id="edge9_Node000003_Node000009" class="edge">
<title>Node9&#45;&gt;Node3</title>
<g id="a_edge9_Node000003_Node000009"><a xlink:title=" ">
<path fill="none" stroke="#63b8ff" d="M25.1,-1038.95C22.34,-998.08 23.13,-913.97 69.5,-868 97.54,-840.2 118.09,-859.14 156.5,-850 234.44,-831.46 321.75,-807.88 388.1,-789.37"/>
<polygon fill="none" stroke="#63b8ff" points="388.26,-789.33 392.96,-783.86 399.82,-786.1 395.12,-791.56 388.26,-789.33"/>
</a>
</g>
<text text-anchor="middle" x="112.5" y="-882" font-family="Helvetica,sans-Serif" font-size="10.00" fill="grey"> #DATASET_DIMS</text>
</g>
<!-- Node10 -->
<g id="Node000010" class="node">
<title>Node10</title>
<g id="a_Node000010"><a xlink:title=" ">
<polygon fill="white" stroke="transparent" points="223.5,-1088 115.5,-1088 115.5,-1039 223.5,-1039 223.5,-1088"/>
<text text-anchor="start" x="120.5" y="-1075.5" font-family="Helvetica,sans-Serif" font-size="10.00">vector&lt; unsigned &gt;</text>
<text text-anchor="start" x="167.5" y="-1060.5" font-family="Helvetica,sans-Serif" font-size="10.00"> </text>
<text text-anchor="start" x="167.5" y="-1045.5" font-family="Helvetica,sans-Serif" font-size="10.00"> </text>
<polygon fill="#bfbfbf" stroke="#bfbfbf" points="115.5,-1070.5 115.5,-1070.5 223.5,-1070.5 223.5,-1070.5 115.5,-1070.5"/>
<polygon fill="#bfbfbf" stroke="#bfbfbf" points="115.5,-1055.5 115.5,-1055.5 223.5,-1055.5 223.5,-1055.5 115.5,-1055.5"/>
<polygon fill="none" stroke="#bfbfbf" points="115.5,-1039 115.5,-1088 223.5,-1088 223.5,-1039 115.5,-1039"/>
</a>
</g>
</g>
<!-- Node10&#45;&gt;Node3 -->
<g id="edge11_Node000003_Node000010" class="edge">
<title>Node10&#45;&gt;Node3</title>
<g id="a_edge11_Node000003_Node000010"><a xlink:title=" ">
<path fill="none" stroke="#63b8ff" d="M162.39,-1038.8C152.07,-999.18 137.97,-918.82 175.5,-868 224.33,-801.89 315.58,-775.51 388.02,-765.17"/>
<polygon fill="none" stroke="#63b8ff" points="388.04,-765.16 393.46,-760.41 399.93,-763.58 394.51,-768.34 388.04,-765.16"/>
</a>
</g>
<text text-anchor="middle" x="243.5" y="-882" font-family="Helvetica,sans-Serif" font-size="10.00" fill="grey"> #mIncompleteNodeIndices</text>
</g>
<!-- Node11 -->
<g id="Node000011" class="node">
<title>Node11</title>
<g id="a_Node000011"><a xlink:title=" ">
<polygon fill="white" stroke="transparent" points="312,-1088 277,-1088 277,-1039 312,-1039 312,-1088"/>
<text text-anchor="start" x="282.5" y="-1075.5" font-family="Helvetica,sans-Serif" font-size="10.00">hid_t</text>
<text text-anchor="start" x="293" y="-1060.5" font-family="Helvetica,sans-Serif" font-size="10.00"> </text>
<text text-anchor="start" x="293" y="-1045.5" font-family="Helvetica,sans-Serif" font-size="10.00"> </text>
<polygon fill="#bfbfbf" stroke="#bfbfbf" points="277.5,-1070.5 277.5,-1070.5 312.5,-1070.5 312.5,-1070.5 277.5,-1070.5"/>
<polygon fill="#bfbfbf" stroke="#bfbfbf" points="277.5,-1055.5 277.5,-1055.5 312.5,-1055.5 312.5,-1055.5 277.5,-1055.5"/>
<polygon fill="none" stroke="#bfbfbf" points="277,-1039 277,-1088 312,-1088 312,-1039 277,-1039"/>
</a>
</g>
</g>
<!-- Node11&#45;&gt;Node3 -->
<g id="edge12_Node000003_Node000011" class="edge">
<title>Node11&#45;&gt;Node3</title>
<g id="a_edge12_Node000003_Node000011"><a xlink:title=" ">
<path fill="none" stroke="#63b8ff" d="M293.04,-1038.78C291.82,-999.82 294.39,-921.29 329.5,-868 344.72,-844.9 366.7,-825.54 389.69,-809.86"/>
<polygon fill="none" stroke="#63b8ff" points="389.9,-809.72 392.73,-803.08 399.94,-803.14 397.11,-809.77 389.9,-809.72"/>
</a>
</g>
<text text-anchor="middle" x="386.5" y="-893" font-family="Helvetica,sans-Serif" font-size="10.00" fill="grey"> #mFileId</text>
<text text-anchor="middle" x="386.5" y="-882" font-family="Helvetica,sans-Serif" font-size="10.00" fill="grey">#mUnlimitedDatasetId</text>
<text text-anchor="middle" x="386.5" y="-871" font-family="Helvetica,sans-Serif" font-size="10.00" fill="grey">#mVariablesDatasetId</text>
</g>
<!-- Node12 -->
<g id="Node000012" class="node">
<title>Node12</title>
<g id="a_Node000012"><a xlink:href="classhsize__t.html" target="_top" xlink:title=" ">
<polygon fill="white" stroke="transparent" points="943,-1088 898,-1088 898,-1039 943,-1039 943,-1088"/>
<text text-anchor="start" x="903.5" y="-1075.5" font-family="Helvetica,sans-Serif" font-size="10.00">hsize_t</text>
<text text-anchor="start" x="919" y="-1060.5" font-family="Helvetica,sans-Serif" font-size="10.00"> </text>
<text text-anchor="start" x="919" y="-1045.5" font-family="Helvetica,sans-Serif" font-size="10.00"> </text>
<polygon fill="#bfbfbf" stroke="#bfbfbf" points="898.5,-1070.5 898.5,-1070.5 943.5,-1070.5 943.5,-1070.5 898.5,-1070.5"/>
<polygon fill="#bfbfbf" stroke="#bfbfbf" points="898.5,-1055.5 898.5,-1055.5 943.5,-1055.5 943.5,-1055.5 898.5,-1055.5"/>
<polygon fill="none" stroke="#bfbfbf" points="898,-1039 898,-1088 943,-1088 943,-1039 898,-1039"/>
</a>
</g>
</g>
<!-- Node12&#45;&gt;Node2 -->
<g id="edge15_Node000002_Node000012" class="edge">
<title>Node12&#45;&gt;Node2</title>
<g id="a_edge15_Node000002_Node000012"><a xlink:title=" ">
<path fill="none" stroke="#63b8ff" d="M919.91,-1038.98C918.02,-1008.41 910.72,-954.7 883.5,-919 855.86,-882.75 835.82,-887.26 794.5,-868 773.47,-858.2 758.78,-869.02 745.5,-850 700.69,-785.79 721.03,-700.05 752.53,-630.41"/>
<polygon fill="none" stroke="#63b8ff" points="752.61,-630.26 751.52,-623.13 757.68,-619.38 758.77,-626.51 752.61,-630.26"/>
</a>
</g>
<text text-anchor="middle" x="799" y="-755.5" font-family="Helvetica,sans-Serif" font-size="10.00" fill="grey"> &#45;mNumberTimesteps</text>
</g>
<!-- Node12&#45;&gt;Node3 -->
<g id="edge13_Node000003_Node000012" class="edge">
<title>Node12&#45;&gt;Node3</title>
<g id="a_edge13_Node000003_Node000012"><a xlink:title=" ">
<path fill="none" stroke="#63b8ff" d="M921.95,-1038.97C922.54,-1006.58 918.21,-948.88 883.5,-919 854.04,-893.64 742.99,-920.74 709.5,-901 694.1,-891.92 699.71,-880.04 686.5,-868 661.15,-844.89 630.05,-824.61 600.33,-808.01"/>
<polygon fill="none" stroke="#63b8ff" points="599.98,-807.82 592.8,-808.45 589.45,-802.07 596.63,-801.44 599.98,-807.82"/>
</a>
</g>
<text text-anchor="middle" x="752" y="-882" font-family="Helvetica,sans-Serif" font-size="10.00" fill="grey"> #mDatasetDims</text>
</g>
<!-- Node13 -->
<g id="Node000013" class="node">
<title>Node13</title>
<g id="a_Node000013"><a xlink:title=" ">
<polygon fill="white" stroke="transparent" points="974,-782.5 861,-782.5 861,-733.5 974,-733.5 974,-782.5"/>
<text text-anchor="start" x="866.5" y="-770" font-family="Helvetica,sans-Serif" font-size="10.00">vector&lt; std::string &gt;</text>
<text text-anchor="start" x="916" y="-755" font-family="Helvetica,sans-Serif" font-size="10.00"> </text>
<text text-anchor="start" x="916" y="-740" font-family="Helvetica,sans-Serif" font-size="10.00"> </text>
<polygon fill="#bfbfbf" stroke="#bfbfbf" points="861.5,-765 861.5,-765 974.5,-765 974.5,-765 861.5,-765"/>
<polygon fill="#bfbfbf" stroke="#bfbfbf" points="861.5,-750 861.5,-750 974.5,-750 974.5,-750 861.5,-750"/>
<polygon fill="none" stroke="#bfbfbf" points="861,-733.5 861,-782.5 974,-782.5 974,-733.5 861,-733.5"/>
</a>
</g>
</g>
<!-- Node13&#45;&gt;Node2 -->
<g id="edge16_Node000002_Node000013" class="edge">
<title>Node13&#45;&gt;Node2</title>
<g id="a_edge16_Node000002_Node000013"><a xlink:title=" ">
<path fill="none" stroke="#63b8ff" d="M908.77,-733.08C899.95,-708.88 885.61,-669.57 871.36,-630.49"/>
<polygon fill="none" stroke="#63b8ff" points="871.36,-630.48 865.54,-626.22 867.24,-619.21 873.06,-623.48 871.36,-630.48"/>
</a>
</g>
<text text-anchor="middle" x="922" y="-640" font-family="Helvetica,sans-Serif" font-size="10.00" fill="grey"> &#45;mVariableNames</text>
</g>
<!-- Node14 -->
<g id="Node000014" class="node">
<title>Node14</title>
<g id="a_Node000014"><a xlink:title=" ">
<polygon fill="white" stroke="transparent" points="1146.5,-782.5 992.5,-782.5 992.5,-733.5 1146.5,-733.5 1146.5,-782.5"/>
<text text-anchor="start" x="997.5" y="-770" font-family="Helvetica,sans-Serif" font-size="10.00">map&lt; std::string, unsigned &gt;</text>
<text text-anchor="start" x="1067.5" y="-755" font-family="Helvetica,sans-Serif" font-size="10.00"> </text>
<text text-anchor="start" x="1067.5" y="-740" font-family="Helvetica,sans-Serif" font-size="10.00"> </text>
<polygon fill="#bfbfbf" stroke="#bfbfbf" points="992.5,-765 992.5,-765 1146.5,-765 1146.5,-765 992.5,-765"/>
<polygon fill="#bfbfbf" stroke="#bfbfbf" points="992.5,-750 992.5,-750 1146.5,-750 1146.5,-750 992.5,-750"/>
<polygon fill="none" stroke="#bfbfbf" points="992.5,-733.5 992.5,-782.5 1146.5,-782.5 1146.5,-733.5 992.5,-733.5"/>
</a>
</g>
</g>
<!-- Node14&#45;&gt;Node2 -->
<g id="edge17_Node000002_Node000014" class="edge">
<title>Node14&#45;&gt;Node2</title>
<g id="a_edge17_Node000002_Node000014"><a xlink:title=" ">
<path fill="none" stroke="#63b8ff" d="M1055.17,-733.43C1038.07,-706.96 1007.26,-664.18 971.5,-637 958.01,-626.75 949.53,-629.25 931.93,-619.12"/>
<polygon fill="none" stroke="#63b8ff" points="931.87,-619.08 924.66,-619.16 921.82,-612.54 929.03,-612.46 931.87,-619.08"/>
</a>
</g>
<text text-anchor="middle" x="1049.5" y="-640" font-family="Helvetica,sans-Serif" font-size="10.00" fill="grey"> &#45;mVariableToColumnIndex</text>
</g>
<!-- Node15 -->
<g id="Node000015" class="node">
<title>Node15</title>
<g id="a_Node000015"><a xlink:title=" ">
<polygon fill="white" stroke="transparent" points="1278,-788 1165,-788 1165,-728 1278,-728 1278,-788"/>
<text text-anchor="start" x="1170.5" y="-776" font-family="Helvetica,sans-Serif" font-size="10.00">map&lt; std::string, std</text>
<text text-anchor="start" x="1199" y="-765" font-family="Helvetica,sans-Serif" font-size="10.00">::string &gt;</text>
<text text-anchor="start" x="1220" y="-750" font-family="Helvetica,sans-Serif" font-size="10.00"> </text>
<text text-anchor="start" x="1220" y="-735" font-family="Helvetica,sans-Serif" font-size="10.00"> </text>
<polygon fill="#bfbfbf" stroke="#bfbfbf" points="1165.5,-760 1165.5,-760 1278.5,-760 1278.5,-760 1165.5,-760"/>
<polygon fill="#bfbfbf" stroke="#bfbfbf" points="1165.5,-745 1165.5,-745 1278.5,-745 1278.5,-745 1165.5,-745"/>
<polygon fill="none" stroke="#bfbfbf" points="1165,-728 1165,-788 1278,-788 1278,-728 1165,-728"/>
</a>
</g>
</g>
<!-- Node15&#45;&gt;Node2 -->
<g id="edge18_Node000002_Node000015" class="edge">
<title>Node15&#45;&gt;Node2</title>
<g id="a_edge18_Node000002_Node000015"><a xlink:title=" ">
<path fill="none" stroke="#63b8ff" d="M1207.39,-727.92C1191.03,-698.13 1160.91,-653.85 1119.5,-637 1044.86,-606.62 1009.44,-651.85 932.82,-619.38"/>
<polygon fill="none" stroke="#63b8ff" points="932.62,-619.28 925.5,-620.41 921.72,-614.26 928.85,-613.14 932.62,-619.28"/>
</a>
</g>
<text text-anchor="middle" x="1181.5" y="-640" font-family="Helvetica,sans-Serif" font-size="10.00" fill="grey"> &#45;mVariableToUnit</text>
</g>
<!-- Node16 -->
<g id="Node000016" class="node">
<title>Node16</title>
<g id="a_Node000016"><a xlink:title=" ">
<polygon fill="white" stroke="transparent" points="977.5,-531 939.5,-531 939.5,-482 977.5,-482 977.5,-531"/>
<text text-anchor="start" x="944.5" y="-518.5" font-family="Helvetica,sans-Serif" font-size="10.00">string</text>
<text text-anchor="start" x="956.5" y="-503.5" font-family="Helvetica,sans-Serif" font-size="10.00"> </text>
<text text-anchor="start" x="956.5" y="-488.5" font-family="Helvetica,sans-Serif" font-size="10.00"> </text>
<polygon fill="#bfbfbf" stroke="#bfbfbf" points="939.5,-513.5 939.5,-513.5 977.5,-513.5 977.5,-513.5 939.5,-513.5"/>
<polygon fill="#bfbfbf" stroke="#bfbfbf" points="939.5,-498.5 939.5,-498.5 977.5,-498.5 977.5,-498.5 939.5,-498.5"/>
<polygon fill="none" stroke="#bfbfbf" points="939.5,-482 939.5,-531 977.5,-531 977.5,-482 939.5,-482"/>
</a>
</g>
</g>
<!-- Node16&#45;&gt;Node1 -->
<g id="edge20_Node000001_Node000016" class="edge">
<title>Node16&#45;&gt;Node1</title>
<g id="a_edge20_Node000001_Node000016"><a xlink:title=" ">
<path fill="none" stroke="#63b8ff" d="M953.51,-481.84C947.42,-452.98 936.55,-401.46 925.36,-348.44"/>
<polygon fill="none" stroke="#63b8ff" points="925.3,-348.14 920.15,-343.1 922.82,-336.4 927.97,-341.44 925.3,-348.14"/>
</a>
</g>
<text text-anchor="middle" x="970" y="-362.5" font-family="Helvetica,sans-Serif" font-size="10.00" fill="grey"> &#45;mVoltageName</text>
</g>
<!-- Node17 -->
<g id="Node000017" class="node">
<title>Node17</title>
<g id="a_Node000017"><a xlink:title=" ">
<polygon fill="white" stroke="transparent" points="1103,-531 1006,-531 1006,-482 1103,-482 1103,-531"/>
<text text-anchor="start" x="1011.5" y="-518.5" font-family="Helvetica,sans-Serif" font-size="10.00">vector&lt; double &gt;</text>
<text text-anchor="start" x="1053" y="-503.5" font-family="Helvetica,sans-Serif" font-size="10.00"> </text>
<text text-anchor="start" x="1053" y="-488.5" font-family="Helvetica,sans-Serif" font-size="10.00"> </text>
<polygon fill="#bfbfbf" stroke="#bfbfbf" points="1006.5,-513.5 1006.5,-513.5 1103.5,-513.5 1103.5,-513.5 1006.5,-513.5"/>
<polygon fill="#bfbfbf" stroke="#bfbfbf" points="1006.5,-498.5 1006.5,-498.5 1103.5,-498.5 1103.5,-498.5 1006.5,-498.5"/>
<polygon fill="none" stroke="#bfbfbf" points="1006,-482 1006,-531 1103,-531 1103,-482 1006,-482"/>
</a>
</g>
</g>
<!-- Node17&#45;&gt;Node1 -->
<g id="edge21_Node000001_Node000017" class="edge">
<title>Node17&#45;&gt;Node1</title>
<g id="a_edge21_Node000001_Node000017"><a xlink:title=" ">
<path fill="none" stroke="#63b8ff" d="M1051.06,-481.79C1046.04,-451.21 1035.08,-396.86 1015.5,-354 1012.24,-346.86 1008.7,-339.71 1004.95,-332.58"/>
<polygon fill="none" stroke="#63b8ff" points="1004.82,-332.34 998.45,-328.97 999.11,-321.79 1005.48,-325.16 1004.82,-332.34"/>
</a>
</g>
<text text-anchor="middle" x="1071" y="-368" font-family="Helvetica,sans-Serif" font-size="10.00" fill="grey"> &#45;mCachedVoltages</text>
<text text-anchor="middle" x="1071" y="-357" font-family="Helvetica,sans-Serif" font-size="10.00" fill="grey">&#45;mTimes</text>
</g>
</g>
</svg>
