<?xml version="1.0" encoding="UTF-8" standalone="no"?>
<!DOCTYPE svg PUBLIC "-//W3C//DTD SVG 1.1//EN"
 "http://www.w3.org/Graphics/SVG/1.1/DTD/svg11.dtd">
<!-- Generated by graphviz version 2.43.0 (0)
 -->
<!-- Title: CompressibleExponentialLaw&lt; DIM &gt; Pages: 1 -->
<svg width="470pt" height="739pt"
 viewBox="0.00 0.00 470.00 739.00" xmlns="http://www.w3.org/2000/svg" xmlns:xlink="http://www.w3.org/1999/xlink">
<g id="graph0" class="graph" transform="scale(1 1) rotate(0) translate(4 735)">
<title>CompressibleExponentialLaw&lt; DIM &gt;</title>
<!-- Node1 -->
<g id="Node000001" class="node">
<title>Node1</title>
<g id="a_Node000001"><a xlink:title=" ">
<polygon fill="#999999" stroke="transparent" points="336.5,-120 133.5,-120 133.5,0 336.5,0 336.5,-120"/>
<text text-anchor="start" x="163" y="-108" font-family="Helvetica,sans-Serif" font-size="10.00">CompressibleExponentialLaw</text>
<text text-anchor="start" x="214" y="-97" font-family="Helvetica,sans-Serif" font-size="10.00">&lt; DIM &gt;</text>
<text text-anchor="start" x="233.5" y="-82" font-family="Helvetica,sans-Serif" font-size="10.00"> </text>
<text text-anchor="start" x="138" y="-67" font-family="Helvetica,sans-Serif" font-size="10.00">+</text>
<text text-anchor="start" x="151" y="-67" font-family="Helvetica,sans-Serif" font-size="10.00">CompressibleExponentialLaw()</text>
<text text-anchor="start" x="138" y="-52" font-family="Helvetica,sans-Serif" font-size="10.00">+</text>
<text text-anchor="start" x="151" y="-52" font-family="Helvetica,sans-Serif" font-size="10.00">ComputeStressAndStressDerivative()</text>
<text text-anchor="start" x="138" y="-37" font-family="Helvetica,sans-Serif" font-size="10.00">+</text>
<text text-anchor="start" x="151" y="-37" font-family="Helvetica,sans-Serif" font-size="10.00">GetA()</text>
<text text-anchor="start" x="138" y="-22" font-family="Helvetica,sans-Serif" font-size="10.00">+</text>
<text text-anchor="start" x="151" y="-22" font-family="Helvetica,sans-Serif" font-size="10.00">GetB()</text>
<text text-anchor="start" x="138" y="-7" font-family="Helvetica,sans-Serif" font-size="10.00">+</text>
<text text-anchor="start" x="151" y="-7" font-family="Helvetica,sans-Serif" font-size="10.00">GetCompressibilityParam()</text>
<polygon fill="#666666" stroke="#666666" points="134,-92 134,-92 337,-92 337,-92 134,-92"/>
<polygon fill="#666666" stroke="#666666" points="134,-77 134,-77 337,-77 337,-77 134,-77"/>
<polygon fill="none" stroke="#666666" points="133.5,0 133.5,-120 336.5,-120 336.5,0 133.5,0"/>
</a>
</g>
</g>
<!-- Node2 -->
<g id="Node000002" class="node">
<title>Node2</title>
<g id="a_Node000002"><a xlink:href="classAbstractCompressibleMaterialLaw.html" target="_top" xlink:title=" ">
<polygon fill="white" stroke="transparent" points="252.5,-249 83.5,-249 83.5,-178 252.5,-178 252.5,-249"/>
<text text-anchor="start" x="94.5" y="-236.5" font-family="Helvetica,sans-Serif" font-size="10.00">AbstractCompressibleMaterial</text>
<text text-anchor="start" x="137.5" y="-225.5" font-family="Helvetica,sans-Serif" font-size="10.00">Law&lt; DIM &gt;</text>
<text text-anchor="start" x="166.5" y="-210.5" font-family="Helvetica,sans-Serif" font-size="10.00"> </text>
<text text-anchor="start" x="88" y="-195.5" font-family="Helvetica,sans-Serif" font-size="10.00">+</text>
<text text-anchor="start" x="101" y="-195.5" font-family="Helvetica,sans-Serif" font-size="10.00">AbstractCompressibleMaterial</text>
<text text-anchor="start" x="101" y="-184.5" font-family="Helvetica,sans-Serif" font-size="10.00">Law()</text>
<polygon fill="#666666" stroke="#666666" points="84,-220.5 84,-220.5 253,-220.5 253,-220.5 84,-220.5"/>
<polygon fill="#666666" stroke="#666666" points="84,-205.5 84,-205.5 253,-205.5 253,-205.5 84,-205.5"/>
<polygon fill="none" stroke="#666666" points="83.5,-178 83.5,-249 252.5,-249 252.5,-178 83.5,-178"/>
</a>
</g>
</g>
<!-- Node2&#45;&gt;Node1 -->
<g id="edge1_Node000001_Node000002" class="edge">
<title>Node2&#45;&gt;Node1</title>
<g id="a_edge1_Node000001_Node000002"><a xlink:title=" ">
<path fill="none" stroke="#63b8ff" d="M187.59,-168.21C194.22,-153.21 201.74,-136.22 208.8,-120.25"/>
<polygon fill="none" stroke="#63b8ff" points="184.21,-167.18 183.37,-177.74 190.62,-170.01 184.21,-167.18"/>
</a>
</g>
</g>
<!-- Node3 -->
<g id="Node000003" class="node">
<title>Node3</title>
<g id="a_Node000003"><a xlink:href="classAbstractMaterialLaw.html" target="_top" xlink:title=" ">
<polygon fill="white" stroke="transparent" points="278.5,-528 75.5,-528 75.5,-296 278.5,-296 278.5,-528"/>
<text text-anchor="start" x="127" y="-516" font-family="Helvetica,sans-Serif" font-size="10.00">AbstractMaterialLaw</text>
<text text-anchor="start" x="156" y="-505" font-family="Helvetica,sans-Serif" font-size="10.00">&lt; DIM &gt;</text>
<text text-anchor="start" x="175.5" y="-490" font-family="Helvetica,sans-Serif" font-size="10.00"> </text>
<text text-anchor="start" x="80" y="-475" font-family="Helvetica,sans-Serif" font-size="10.00">+</text>
<text text-anchor="start" x="93" y="-475" font-family="Helvetica,sans-Serif" font-size="10.00">AbstractMaterialLaw()</text>
<text text-anchor="start" x="80" y="-460" font-family="Helvetica,sans-Serif" font-size="10.00">+</text>
<text text-anchor="start" x="93" y="-460" font-family="Helvetica,sans-Serif" font-size="10.00">~AbstractMaterialLaw()</text>
<text text-anchor="start" x="80" y="-445" font-family="Helvetica,sans-Serif" font-size="10.00">+</text>
<text text-anchor="start" x="93" y="-445" font-family="Helvetica,sans-Serif" font-size="10.00">ComputeStressAndStressDerivative()</text>
<text text-anchor="start" x="80" y="-430" font-family="Helvetica,sans-Serif" font-size="10.00">+</text>
<text text-anchor="start" x="93" y="-430" font-family="Helvetica,sans-Serif" font-size="10.00">ComputeCauchyStress()</text>
<text text-anchor="start" x="80" y="-415" font-family="Helvetica,sans-Serif" font-size="10.00">+</text>
<text text-anchor="start" x="93" y="-415" font-family="Helvetica,sans-Serif" font-size="10.00">Compute1stPiolaKirchoffStress()</text>
<text text-anchor="start" x="80" y="-400" font-family="Helvetica,sans-Serif" font-size="10.00">+</text>
<text text-anchor="start" x="93" y="-400" font-family="Helvetica,sans-Serif" font-size="10.00">Compute2ndPiolaKirchoffStress()</text>
<text text-anchor="start" x="80" y="-385" font-family="Helvetica,sans-Serif" font-size="10.00">+</text>
<text text-anchor="start" x="93" y="-385" font-family="Helvetica,sans-Serif" font-size="10.00">ScaleMaterialParameters()</text>
<text text-anchor="start" x="80" y="-370" font-family="Helvetica,sans-Serif" font-size="10.00">+</text>
<text text-anchor="start" x="93" y="-370" font-family="Helvetica,sans-Serif" font-size="10.00">SetChangeOfBasisMatrix()</text>
<text text-anchor="start" x="80" y="-355" font-family="Helvetica,sans-Serif" font-size="10.00">+</text>
<text text-anchor="start" x="93" y="-355" font-family="Helvetica,sans-Serif" font-size="10.00">ResetToNoChangeOfBasisMatrix()</text>
<text text-anchor="start" x="80" y="-340" font-family="Helvetica,sans-Serif" font-size="10.00">#</text>
<text text-anchor="start" x="93" y="-340" font-family="Helvetica,sans-Serif" font-size="10.00">ComputeTransformedDeformation</text>
<text text-anchor="start" x="93" y="-329" font-family="Helvetica,sans-Serif" font-size="10.00">Tensor()</text>
<text text-anchor="start" x="80" y="-314" font-family="Helvetica,sans-Serif" font-size="10.00">#</text>
<text text-anchor="start" x="93" y="-314" font-family="Helvetica,sans-Serif" font-size="10.00">TransformStressAndStress</text>
<text text-anchor="start" x="93" y="-303" font-family="Helvetica,sans-Serif" font-size="10.00">Derivative()</text>
<polygon fill="#666666" stroke="#666666" points="76,-500 76,-500 279,-500 279,-500 76,-500"/>
<polygon fill="#666666" stroke="#666666" points="76,-485 76,-485 279,-485 279,-485 76,-485"/>
<polygon fill="none" stroke="#666666" points="75.5,-296 75.5,-528 278.5,-528 278.5,-296 75.5,-296"/>
</a>
</g>
</g>
<!-- Node3&#45;&gt;Node2 -->
<g id="edge2_Node000002_Node000003" class="edge">
<title>Node3&#45;&gt;Node2</title>
<g id="a_edge2_Node000002_Node000003"><a xlink:title=" ">
<path fill="none" stroke="#63b8ff" d="M171.26,-285.63C170.65,-272.44 170.08,-259.96 169.59,-249.24"/>
<polygon fill="none" stroke="#63b8ff" points="167.77,-286.01 171.73,-295.84 174.76,-285.69 167.77,-286.01"/>
</a>
</g>
</g>
<!-- Node4 -->
<g id="Node000004" class="node">
<title>Node4</title>
<g id="a_Node000004"><a xlink:title=" ">
<polygon fill="white" stroke="transparent" points="126,-635 0,-635 0,-575 126,-575 126,-635"/>
<text text-anchor="start" x="5" y="-623" font-family="Helvetica,sans-Serif" font-size="10.00">c_matrix&lt; double, DIM,</text>
<text text-anchor="start" x="46" y="-612" font-family="Helvetica,sans-Serif" font-size="10.00"> DIM &gt;</text>
<text text-anchor="start" x="61" y="-597" font-family="Helvetica,sans-Serif" font-size="10.00"> </text>
<text text-anchor="start" x="61" y="-582" font-family="Helvetica,sans-Serif" font-size="10.00"> </text>
<polygon fill="#bfbfbf" stroke="#bfbfbf" points="0,-607 0,-607 126,-607 126,-607 0,-607"/>
<polygon fill="#bfbfbf" stroke="#bfbfbf" points="0,-592 0,-592 126,-592 126,-592 0,-592"/>
<polygon fill="none" stroke="#bfbfbf" points="0,-575 0,-635 126,-635 126,-575 0,-575"/>
</a>
</g>
</g>
<!-- Node4&#45;&gt;Node1 -->
<g id="edge7_Node000001_Node000004" class="edge">
<title>Node4&#45;&gt;Node1</title>
<g id="a_edge7_Node000001_Node000004"><a xlink:title=" ">
<path fill="none" stroke="#63b8ff" d="M55.14,-574.76C37.35,-502.17 0.98,-310.08 74,-178 86,-156.3 103.92,-137.57 123.5,-121.86"/>
<polygon fill="none" stroke="#63b8ff" points="123.71,-121.7 126.03,-114.87 133.23,-114.38 130.91,-121.21 123.71,-121.7"/>
</a>
</g>
<text text-anchor="middle" x="69.5" y="-270" font-family="Helvetica,sans-Serif" font-size="10.00" fill="grey"> &#45;mIdentity</text>
</g>
<!-- Node4&#45;&gt;Node3 -->
<g id="edge3_Node000003_Node000004" class="edge">
<title>Node4&#45;&gt;Node3</title>
<g id="a_edge3_Node000003_Node000004"><a xlink:title=" ">
<path fill="none" stroke="#63b8ff" d="M80.31,-574.99C86.52,-564.6 93.97,-552.11 101.94,-538.75"/>
<polygon fill="none" stroke="#63b8ff" points="101.98,-538.69 101.62,-531.48 108.13,-528.38 108.49,-535.58 101.98,-538.69"/>
</a>
</g>
<text text-anchor="middle" x="163.5" y="-549" font-family="Helvetica,sans-Serif" font-size="10.00" fill="grey"> #mpChangeOfBasisMatrix</text>
</g>
<!-- Node5 -->
<g id="Node000005" class="node">
<title>Node5</title>
<g id="a_Node000005"><a xlink:title=" ">
<polygon fill="white" stroke="transparent" points="89.5,-731 36.5,-731 36.5,-682 89.5,-682 89.5,-731"/>
<text text-anchor="start" x="42" y="-718.5" font-family="Helvetica,sans-Serif" font-size="10.00">c_matrix</text>
<text text-anchor="start" x="61.5" y="-703.5" font-family="Helvetica,sans-Serif" font-size="10.00"> </text>
<text text-anchor="start" x="61.5" y="-688.5" font-family="Helvetica,sans-Serif" font-size="10.00"> </text>
<polygon fill="#bfbfbf" stroke="#bfbfbf" points="37,-713.5 37,-713.5 90,-713.5 90,-713.5 37,-713.5"/>
<polygon fill="#bfbfbf" stroke="#bfbfbf" points="37,-698.5 37,-698.5 90,-698.5 90,-698.5 37,-698.5"/>
<polygon fill="none" stroke="#bfbfbf" points="36.5,-682 36.5,-731 89.5,-731 89.5,-682 36.5,-682"/>
</a>
</g>
</g>
<!-- Node5&#45;&gt;Node4 -->
<g id="edge4_Node000004_Node000005" class="edge">
<title>Node5&#45;&gt;Node4</title>
<g id="a_edge4_Node000004_Node000005"><a xlink:title=" ">
<path fill="none" stroke="orange" d="M63,-671.87C63,-659.94 63,-646.62 63,-635.1"/>
<polygon fill="orange" stroke="orange" points="59.5,-671.92 63,-681.92 66.5,-671.92 59.5,-671.92"/>
</a>
</g>
<text text-anchor="middle" x="118" y="-656" font-family="Helvetica,sans-Serif" font-size="10.00" fill="grey"> &lt; double, DIM, DIM &gt;</text>
</g>
<!-- Node6 -->
<g id="Node000006" class="node">
<title>Node6</title>
<g id="a_Node000006"><a xlink:href="classdouble.html" target="_top" xlink:title=" ">
<polygon fill="white" stroke="transparent" points="314,-238 270,-238 270,-189 314,-189 314,-238"/>
<text text-anchor="start" x="275" y="-225.5" font-family="Helvetica,sans-Serif" font-size="10.00">double</text>
<text text-anchor="start" x="290" y="-210.5" font-family="Helvetica,sans-Serif" font-size="10.00"> </text>
<text text-anchor="start" x="290" y="-195.5" font-family="Helvetica,sans-Serif" font-size="10.00"> </text>
<polygon fill="#bfbfbf" stroke="#bfbfbf" points="270,-220.5 270,-220.5 314,-220.5 314,-220.5 270,-220.5"/>
<polygon fill="#bfbfbf" stroke="#bfbfbf" points="270,-205.5 270,-205.5 314,-205.5 314,-205.5 270,-205.5"/>
<polygon fill="none" stroke="#bfbfbf" points="270,-189 270,-238 314,-238 314,-189 270,-189"/>
</a>
</g>
</g>
<!-- Node6&#45;&gt;Node1 -->
<g id="edge5_Node000001_Node000006" class="edge">
<title>Node6&#45;&gt;Node1</title>
<g id="a_edge5_Node000001_Node000006"><a xlink:title=" ">
<path fill="none" stroke="#63b8ff" d="M279.87,-188.75C275.55,-179.85 270.81,-169.57 267,-160 263.39,-150.93 259.88,-141.28 256.59,-131.7"/>
<polygon fill="none" stroke="#63b8ff" points="256.51,-131.46 250.81,-127.05 252.69,-120.09 258.39,-124.5 256.51,-131.46"/>
</a>
</g>
<text text-anchor="middle" x="327.5" y="-152" font-family="Helvetica,sans-Serif" font-size="10.00" fill="grey"> &#45;mA</text>
<text text-anchor="middle" x="327.5" y="-141" font-family="Helvetica,sans-Serif" font-size="10.00" fill="grey">&#45;mCompressibilityParam</text>
</g>
<!-- Node7 -->
<g id="Node000007" class="node">
<title>Node7</title>
<g id="a_Node000007"><a xlink:title=" ">
<polygon fill="white" stroke="transparent" points="462,-243.5 358,-243.5 358,-183.5 462,-183.5 462,-243.5"/>
<text text-anchor="start" x="363" y="-231.5" font-family="Helvetica,sans-Serif" font-size="10.00">vector&lt; std::vector</text>
<text text-anchor="start" x="376.5" y="-220.5" font-family="Helvetica,sans-Serif" font-size="10.00">&lt; double &gt; &gt;</text>
<text text-anchor="start" x="408" y="-205.5" font-family="Helvetica,sans-Serif" font-size="10.00"> </text>
<text text-anchor="start" x="408" y="-190.5" font-family="Helvetica,sans-Serif" font-size="10.00"> </text>
<polygon fill="#bfbfbf" stroke="#bfbfbf" points="358,-215.5 358,-215.5 462,-215.5 462,-215.5 358,-215.5"/>
<polygon fill="#bfbfbf" stroke="#bfbfbf" points="358,-200.5 358,-200.5 462,-200.5 462,-200.5 358,-200.5"/>
<polygon fill="none" stroke="#bfbfbf" points="358,-183.5 358,-243.5 462,-243.5 462,-183.5 358,-183.5"/>
</a>
</g>
</g>
<!-- Node7&#45;&gt;Node1 -->
<g id="edge6_Node000001_Node000007" class="edge">
<title>Node7&#45;&gt;Node1</title>
<g id="a_edge6_Node000001_Node000007"><a xlink:title=" ">
<path fill="none" stroke="#63b8ff" d="M406.97,-183.38C404.13,-168.43 398.63,-150.73 388,-138 376.77,-124.56 362.61,-113.22 347.46,-103.74"/>
<polygon fill="none" stroke="#63b8ff" points="347.17,-103.57 339.97,-103.96 336.83,-97.47 344.04,-97.07 347.17,-103.57"/>
</a>
</g>
<text text-anchor="middle" x="412" y="-146.5" font-family="Helvetica,sans-Serif" font-size="10.00" fill="grey"> &#45;mB</text>
</g>
</g>
</svg>
