<?xml version="1.0" encoding="UTF-8" standalone="no"?>
<!DOCTYPE svg PUBLIC "-//W3C//DTD SVG 1.1//EN"
 "http://www.w3.org/Graphics/SVG/1.1/DTD/svg11.dtd">
<!-- Generated by graphviz version 2.43.0 (0)
 -->
<!-- Title: CombinedOdeSystem Pages: 1 -->
<svg width="1009pt" height="1386pt"
 viewBox="0.00 0.00 1008.50 1386.00" xmlns="http://www.w3.org/2000/svg" xmlns:xlink="http://www.w3.org/1999/xlink">
<g id="graph0" class="graph" transform="scale(1 1) rotate(0) translate(4 1382)">
<title>CombinedOdeSystem</title>
<!-- Node1 -->
<g id="Node000001" class="node">
<title>Node1</title>
<g id="a_Node000001"><a xlink:title=" ">
<polygon fill="#999999" stroke="transparent" points="696,-79 561,-79 561,0 696,0 696,-79"/>
<text text-anchor="start" x="576" y="-66.5" font-family="Helvetica,sans-Serif" font-size="10.00">CombinedOdeSystem</text>
<text text-anchor="start" x="627" y="-51.5" font-family="Helvetica,sans-Serif" font-size="10.00"> </text>
<text text-anchor="start" x="565.5" y="-36.5" font-family="Helvetica,sans-Serif" font-size="10.00">+</text>
<text text-anchor="start" x="578.5" y="-36.5" font-family="Helvetica,sans-Serif" font-size="10.00">CombinedOdeSystem()</text>
<text text-anchor="start" x="565.5" y="-21.5" font-family="Helvetica,sans-Serif" font-size="10.00">+</text>
<text text-anchor="start" x="578.5" y="-21.5" font-family="Helvetica,sans-Serif" font-size="10.00">Configure()</text>
<text text-anchor="start" x="565.5" y="-6.5" font-family="Helvetica,sans-Serif" font-size="10.00">+</text>
<text text-anchor="start" x="578.5" y="-6.5" font-family="Helvetica,sans-Serif" font-size="10.00">EvaluateYDerivatives()</text>
<polygon fill="#666666" stroke="#666666" points="561.5,-61.5 561.5,-61.5 696.5,-61.5 696.5,-61.5 561.5,-61.5"/>
<polygon fill="#666666" stroke="#666666" points="561.5,-46.5 561.5,-46.5 696.5,-46.5 696.5,-46.5 561.5,-46.5"/>
<polygon fill="none" stroke="#666666" points="561,0 561,-79 696,-79 696,0 561,0"/>
</a>
</g>
</g>
<!-- Node2 -->
<g id="Node000002" class="node">
<title>Node2</title>
<g id="a_Node000002"><a xlink:href="classAbstractOdeSystem.html" target="_top" xlink:title=" ">
<polygon fill="white" stroke="transparent" points="370.5,-306 222.5,-306 222.5,-137 370.5,-137 370.5,-306"/>
<text text-anchor="start" x="248" y="-293.5" font-family="Helvetica,sans-Serif" font-size="10.00">AbstractOdeSystem</text>
<text text-anchor="start" x="294.5" y="-278.5" font-family="Helvetica,sans-Serif" font-size="10.00"> </text>
<text text-anchor="start" x="226.5" y="-263.5" font-family="Helvetica,sans-Serif" font-size="10.00">+</text>
<text text-anchor="start" x="239.5" y="-263.5" font-family="Helvetica,sans-Serif" font-size="10.00">AbstractOdeSystem()</text>
<text text-anchor="start" x="226.5" y="-248.5" font-family="Helvetica,sans-Serif" font-size="10.00">+</text>
<text text-anchor="start" x="239.5" y="-248.5" font-family="Helvetica,sans-Serif" font-size="10.00">~AbstractOdeSystem()</text>
<text text-anchor="start" x="226.5" y="-233.5" font-family="Helvetica,sans-Serif" font-size="10.00">+</text>
<text text-anchor="start" x="239.5" y="-233.5" font-family="Helvetica,sans-Serif" font-size="10.00">EvaluateYDerivatives()</text>
<text text-anchor="start" x="226.5" y="-218.5" font-family="Helvetica,sans-Serif" font-size="10.00">+</text>
<text text-anchor="start" x="239.5" y="-218.5" font-family="Helvetica,sans-Serif" font-size="10.00">CalculateStoppingEvent()</text>
<text text-anchor="start" x="226.5" y="-203.5" font-family="Helvetica,sans-Serif" font-size="10.00">+</text>
<text text-anchor="start" x="239.5" y="-203.5" font-family="Helvetica,sans-Serif" font-size="10.00">CalculateRootFunction()</text>
<text text-anchor="start" x="226.5" y="-188.5" font-family="Helvetica,sans-Serif" font-size="10.00">+</text>
<text text-anchor="start" x="239.5" y="-188.5" font-family="Helvetica,sans-Serif" font-size="10.00">GetUseAnalyticJacobian()</text>
<text text-anchor="start" x="226.5" y="-173.5" font-family="Helvetica,sans-Serif" font-size="10.00">+</text>
<text text-anchor="start" x="239.5" y="-173.5" font-family="Helvetica,sans-Serif" font-size="10.00">rGetConstStateVariables()</text>
<text text-anchor="start" x="229" y="-158.5" font-family="Helvetica,sans-Serif" font-size="10.00">&#45;</text>
<text text-anchor="start" x="239.5" y="-158.5" font-family="Helvetica,sans-Serif" font-size="10.00">save()</text>
<text text-anchor="start" x="229" y="-143.5" font-family="Helvetica,sans-Serif" font-size="10.00">&#45;</text>
<text text-anchor="start" x="239.5" y="-143.5" font-family="Helvetica,sans-Serif" font-size="10.00">load()</text>
<polygon fill="#666666" stroke="#666666" points="222.5,-288.5 222.5,-288.5 370.5,-288.5 370.5,-288.5 222.5,-288.5"/>
<polygon fill="#666666" stroke="#666666" points="222.5,-273.5 222.5,-273.5 370.5,-273.5 370.5,-273.5 222.5,-273.5"/>
<polygon fill="none" stroke="#666666" points="222.5,-137 222.5,-306 370.5,-306 370.5,-137 222.5,-137"/>
</a>
</g>
</g>
<!-- Node2&#45;&gt;Node1 -->
<g id="edge1_Node000001_Node000002" class="edge">
<title>Node2&#45;&gt;Node1</title>
<g id="a_edge1_Node000001_Node000002"><a xlink:title=" ">
<path fill="none" stroke="#63b8ff" d="M378.94,-137.37C379.13,-137.25 379.31,-137.12 379.5,-137 435.96,-100.08 508.68,-73.96 560.93,-58.28"/>
<polygon fill="none" stroke="#63b8ff" points="376.78,-134.61 370.59,-143.21 380.79,-140.34 376.78,-134.61"/>
</a>
</g>
</g>
<!-- Node3 -->
<g id="Node000003" class="node">
<title>Node3</title>
<g id="a_Node000003"><a xlink:href="classAbstractParameterisedSystem.html" target="_top" xlink:title=" ">
<polygon fill="white" stroke="transparent" points="324,-638 147,-638 147,-353 324,-353 324,-638"/>
<text text-anchor="start" x="162" y="-625.5" font-family="Helvetica,sans-Serif" font-size="10.00">AbstractParameterisedSystem</text>
<text text-anchor="start" x="171" y="-614.5" font-family="Helvetica,sans-Serif" font-size="10.00">&lt; std::vector&lt; double &gt; &gt;</text>
<text text-anchor="start" x="234" y="-599.5" font-family="Helvetica,sans-Serif" font-size="10.00"> </text>
<text text-anchor="start" x="151.5" y="-584.5" font-family="Helvetica,sans-Serif" font-size="10.00">+</text>
<text text-anchor="start" x="164.5" y="-584.5" font-family="Helvetica,sans-Serif" font-size="10.00">AbstractParameterisedSystem()</text>
<text text-anchor="start" x="151.5" y="-569.5" font-family="Helvetica,sans-Serif" font-size="10.00">+</text>
<text text-anchor="start" x="164.5" y="-569.5" font-family="Helvetica,sans-Serif" font-size="10.00">rGetStateVariables()</text>
<text text-anchor="start" x="151.5" y="-554.5" font-family="Helvetica,sans-Serif" font-size="10.00">+</text>
<text text-anchor="start" x="164.5" y="-554.5" font-family="Helvetica,sans-Serif" font-size="10.00">GetStateVariables()</text>
<text text-anchor="start" x="151.5" y="-539.5" font-family="Helvetica,sans-Serif" font-size="10.00">+</text>
<text text-anchor="start" x="164.5" y="-539.5" font-family="Helvetica,sans-Serif" font-size="10.00">SetStateVariables()</text>
<text text-anchor="start" x="151.5" y="-524.5" font-family="Helvetica,sans-Serif" font-size="10.00">+</text>
<text text-anchor="start" x="164.5" y="-524.5" font-family="Helvetica,sans-Serif" font-size="10.00">GetStateVariable()</text>
<text text-anchor="start" x="151.5" y="-509.5" font-family="Helvetica,sans-Serif" font-size="10.00">+</text>
<text text-anchor="start" x="164.5" y="-509.5" font-family="Helvetica,sans-Serif" font-size="10.00">GetStateVariable()</text>
<text text-anchor="start" x="151.5" y="-494.5" font-family="Helvetica,sans-Serif" font-size="10.00">+</text>
<text text-anchor="start" x="164.5" y="-494.5" font-family="Helvetica,sans-Serif" font-size="10.00">SetStateVariable()</text>
<text text-anchor="start" x="151.5" y="-479.5" font-family="Helvetica,sans-Serif" font-size="10.00">+</text>
<text text-anchor="start" x="164.5" y="-479.5" font-family="Helvetica,sans-Serif" font-size="10.00">SetStateVariable()</text>
<text text-anchor="start" x="151.5" y="-464.5" font-family="Helvetica,sans-Serif" font-size="10.00">+</text>
<text text-anchor="start" x="164.5" y="-464.5" font-family="Helvetica,sans-Serif" font-size="10.00">VerifyStateVariables()</text>
<text text-anchor="start" x="151.5" y="-449.5" font-family="Helvetica,sans-Serif" font-size="10.00">+</text>
<text text-anchor="start" x="164.5" y="-449.5" font-family="Helvetica,sans-Serif" font-size="10.00">SetDefaultInitialConditions()</text>
<text text-anchor="start" x="164.5" y="-434.5" font-family="Helvetica,sans-Serif" font-size="10.00">and 13 more...</text>
<text text-anchor="start" x="151.5" y="-419.5" font-family="Helvetica,sans-Serif" font-size="10.00">#</text>
<text text-anchor="start" x="164.5" y="-419.5" font-family="Helvetica,sans-Serif" font-size="10.00">DumpState()</text>
<text text-anchor="start" x="151.5" y="-404.5" font-family="Helvetica,sans-Serif" font-size="10.00">#</text>
<text text-anchor="start" x="164.5" y="-404.5" font-family="Helvetica,sans-Serif" font-size="10.00">DumpState()</text>
<text text-anchor="start" x="151.5" y="-389.5" font-family="Helvetica,sans-Serif" font-size="10.00">#</text>
<text text-anchor="start" x="164.5" y="-389.5" font-family="Helvetica,sans-Serif" font-size="10.00">DumpState()</text>
<text text-anchor="start" x="151.5" y="-374.5" font-family="Helvetica,sans-Serif" font-size="10.00">#</text>
<text text-anchor="start" x="164.5" y="-374.5" font-family="Helvetica,sans-Serif" font-size="10.00">CheckParametersOnLoad()</text>
<text text-anchor="start" x="154" y="-359.5" font-family="Helvetica,sans-Serif" font-size="10.00">&#45;</text>
<text text-anchor="start" x="164.5" y="-359.5" font-family="Helvetica,sans-Serif" font-size="10.00">GetStateMessage()</text>
<polygon fill="#666666" stroke="#666666" points="147.5,-609.5 147.5,-609.5 324.5,-609.5 324.5,-609.5 147.5,-609.5"/>
<polygon fill="#666666" stroke="#666666" points="147.5,-594.5 147.5,-594.5 324.5,-594.5 324.5,-594.5 147.5,-594.5"/>
<polygon fill="none" stroke="#666666" points="147,-353 147,-638 324,-638 324,-353 147,-353"/>
</a>
</g>
</g>
<!-- Node3&#45;&gt;Node2 -->
<g id="edge2_Node000002_Node000003" class="edge">
<title>Node3&#45;&gt;Node2</title>
<g id="a_edge2_Node000002_Node000003"><a xlink:title=" ">
<path fill="none" stroke="#63b8ff" d="M269.52,-342.82C272.34,-330.25 275.11,-317.87 277.75,-306.1"/>
<polygon fill="none" stroke="#63b8ff" points="266.02,-342.4 267.25,-352.92 272.85,-343.93 266.02,-342.4"/>
</a>
</g>
</g>
<!-- Node4 -->
<g id="Node000004" class="node">
<title>Node4</title>
<g id="a_Node000004"><a xlink:href="classAbstractUntemplatedParameterisedSystem.html" target="_top" xlink:title=" ">
<polygon fill="white" stroke="transparent" points="338,-1271 133,-1271 133,-1039 338,-1039 338,-1271"/>
<text text-anchor="start" x="148.5" y="-1259" font-family="Helvetica,sans-Serif" font-size="10.00">AbstractUntemplatedParameterised</text>
<text text-anchor="start" x="217.5" y="-1248" font-family="Helvetica,sans-Serif" font-size="10.00">System</text>
<text text-anchor="start" x="234" y="-1233" font-family="Helvetica,sans-Serif" font-size="10.00"> </text>
<text text-anchor="start" x="137.5" y="-1218" font-family="Helvetica,sans-Serif" font-size="10.00">+</text>
<text text-anchor="start" x="150.5" y="-1218" font-family="Helvetica,sans-Serif" font-size="10.00">AbstractUntemplatedParameterised</text>
<text text-anchor="start" x="150.5" y="-1207" font-family="Helvetica,sans-Serif" font-size="10.00">System()</text>
<text text-anchor="start" x="137.5" y="-1192" font-family="Helvetica,sans-Serif" font-size="10.00">+</text>
<text text-anchor="start" x="150.5" y="-1192" font-family="Helvetica,sans-Serif" font-size="10.00">~AbstractUntemplatedParameterised</text>
<text text-anchor="start" x="150.5" y="-1181" font-family="Helvetica,sans-Serif" font-size="10.00">System()</text>
<text text-anchor="start" x="137.5" y="-1166" font-family="Helvetica,sans-Serif" font-size="10.00">+</text>
<text text-anchor="start" x="150.5" y="-1166" font-family="Helvetica,sans-Serif" font-size="10.00">GetSystemInformation()</text>
<text text-anchor="start" x="137.5" y="-1151" font-family="Helvetica,sans-Serif" font-size="10.00">+</text>
<text text-anchor="start" x="150.5" y="-1151" font-family="Helvetica,sans-Serif" font-size="10.00">GetSystemName()</text>
<text text-anchor="start" x="137.5" y="-1136" font-family="Helvetica,sans-Serif" font-size="10.00">+</text>
<text text-anchor="start" x="150.5" y="-1136" font-family="Helvetica,sans-Serif" font-size="10.00">GetNumberOfAttributes()</text>
<text text-anchor="start" x="137.5" y="-1121" font-family="Helvetica,sans-Serif" font-size="10.00">+</text>
<text text-anchor="start" x="150.5" y="-1121" font-family="Helvetica,sans-Serif" font-size="10.00">HasAttribute()</text>
<text text-anchor="start" x="137.5" y="-1106" font-family="Helvetica,sans-Serif" font-size="10.00">+</text>
<text text-anchor="start" x="150.5" y="-1106" font-family="Helvetica,sans-Serif" font-size="10.00">GetAttribute()</text>
<text text-anchor="start" x="137.5" y="-1091" font-family="Helvetica,sans-Serif" font-size="10.00">+</text>
<text text-anchor="start" x="150.5" y="-1091" font-family="Helvetica,sans-Serif" font-size="10.00">GetNumberOfStateVariables()</text>
<text text-anchor="start" x="137.5" y="-1076" font-family="Helvetica,sans-Serif" font-size="10.00">+</text>
<text text-anchor="start" x="150.5" y="-1076" font-family="Helvetica,sans-Serif" font-size="10.00">rGetStateVariableNames()</text>
<text text-anchor="start" x="137.5" y="-1061" font-family="Helvetica,sans-Serif" font-size="10.00">+</text>
<text text-anchor="start" x="150.5" y="-1061" font-family="Helvetica,sans-Serif" font-size="10.00">rGetStateVariableUnits()</text>
<text text-anchor="start" x="150.5" y="-1046" font-family="Helvetica,sans-Serif" font-size="10.00">and 20 more...</text>
<polygon fill="#666666" stroke="#666666" points="133.5,-1243 133.5,-1243 338.5,-1243 338.5,-1243 133.5,-1243"/>
<polygon fill="#666666" stroke="#666666" points="133.5,-1228 133.5,-1228 338.5,-1228 338.5,-1228 133.5,-1228"/>
<polygon fill="none" stroke="#666666" points="133,-1039 133,-1271 338,-1271 338,-1039 133,-1039"/>
</a>
</g>
</g>
<!-- Node4&#45;&gt;Node3 -->
<g id="edge3_Node000003_Node000004" class="edge">
<title>Node4&#45;&gt;Node3</title>
<g id="a_edge3_Node000003_Node000004"><a xlink:title=" ">
<path fill="none" stroke="#63b8ff" d="M235.5,-1028.43C235.5,-916.91 235.5,-754.09 235.5,-638"/>
<polygon fill="none" stroke="#63b8ff" points="232,-1028.72 235.5,-1038.72 239,-1028.72 232,-1028.72"/>
</a>
</g>
</g>
<!-- Node8 -->
<g id="Node000008" class="node">
<title>Node8</title>
<g id="a_Node000008"><a xlink:href="classAbstractParameterisedSystem.html" target="_top" xlink:title=" ">
<polygon fill="white" stroke="transparent" points="177,-981 0,-981 0,-696 177,-696 177,-981"/>
<text text-anchor="start" x="15" y="-968.5" font-family="Helvetica,sans-Serif" font-size="10.00">AbstractParameterisedSystem</text>
<text text-anchor="start" x="57.5" y="-957.5" font-family="Helvetica,sans-Serif" font-size="10.00">&lt; VECTOR &gt;</text>
<text text-anchor="start" x="87" y="-942.5" font-family="Helvetica,sans-Serif" font-size="10.00"> </text>
<text text-anchor="start" x="4.5" y="-927.5" font-family="Helvetica,sans-Serif" font-size="10.00">+</text>
<text text-anchor="start" x="17.5" y="-927.5" font-family="Helvetica,sans-Serif" font-size="10.00">AbstractParameterisedSystem()</text>
<text text-anchor="start" x="4.5" y="-912.5" font-family="Helvetica,sans-Serif" font-size="10.00">+</text>
<text text-anchor="start" x="17.5" y="-912.5" font-family="Helvetica,sans-Serif" font-size="10.00">rGetStateVariables()</text>
<text text-anchor="start" x="4.5" y="-897.5" font-family="Helvetica,sans-Serif" font-size="10.00">+</text>
<text text-anchor="start" x="17.5" y="-897.5" font-family="Helvetica,sans-Serif" font-size="10.00">GetStateVariables()</text>
<text text-anchor="start" x="4.5" y="-882.5" font-family="Helvetica,sans-Serif" font-size="10.00">+</text>
<text text-anchor="start" x="17.5" y="-882.5" font-family="Helvetica,sans-Serif" font-size="10.00">SetStateVariables()</text>
<text text-anchor="start" x="4.5" y="-867.5" font-family="Helvetica,sans-Serif" font-size="10.00">+</text>
<text text-anchor="start" x="17.5" y="-867.5" font-family="Helvetica,sans-Serif" font-size="10.00">GetStateVariable()</text>
<text text-anchor="start" x="4.5" y="-852.5" font-family="Helvetica,sans-Serif" font-size="10.00">+</text>
<text text-anchor="start" x="17.5" y="-852.5" font-family="Helvetica,sans-Serif" font-size="10.00">GetStateVariable()</text>
<text text-anchor="start" x="4.5" y="-837.5" font-family="Helvetica,sans-Serif" font-size="10.00">+</text>
<text text-anchor="start" x="17.5" y="-837.5" font-family="Helvetica,sans-Serif" font-size="10.00">SetStateVariable()</text>
<text text-anchor="start" x="4.5" y="-822.5" font-family="Helvetica,sans-Serif" font-size="10.00">+</text>
<text text-anchor="start" x="17.5" y="-822.5" font-family="Helvetica,sans-Serif" font-size="10.00">SetStateVariable()</text>
<text text-anchor="start" x="4.5" y="-807.5" font-family="Helvetica,sans-Serif" font-size="10.00">+</text>
<text text-anchor="start" x="17.5" y="-807.5" font-family="Helvetica,sans-Serif" font-size="10.00">VerifyStateVariables()</text>
<text text-anchor="start" x="4.5" y="-792.5" font-family="Helvetica,sans-Serif" font-size="10.00">+</text>
<text text-anchor="start" x="17.5" y="-792.5" font-family="Helvetica,sans-Serif" font-size="10.00">SetDefaultInitialConditions()</text>
<text text-anchor="start" x="17.5" y="-777.5" font-family="Helvetica,sans-Serif" font-size="10.00">and 13 more...</text>
<text text-anchor="start" x="4.5" y="-762.5" font-family="Helvetica,sans-Serif" font-size="10.00">#</text>
<text text-anchor="start" x="17.5" y="-762.5" font-family="Helvetica,sans-Serif" font-size="10.00">DumpState()</text>
<text text-anchor="start" x="4.5" y="-747.5" font-family="Helvetica,sans-Serif" font-size="10.00">#</text>
<text text-anchor="start" x="17.5" y="-747.5" font-family="Helvetica,sans-Serif" font-size="10.00">DumpState()</text>
<text text-anchor="start" x="4.5" y="-732.5" font-family="Helvetica,sans-Serif" font-size="10.00">#</text>
<text text-anchor="start" x="17.5" y="-732.5" font-family="Helvetica,sans-Serif" font-size="10.00">DumpState()</text>
<text text-anchor="start" x="4.5" y="-717.5" font-family="Helvetica,sans-Serif" font-size="10.00">#</text>
<text text-anchor="start" x="17.5" y="-717.5" font-family="Helvetica,sans-Serif" font-size="10.00">CheckParametersOnLoad()</text>
<text text-anchor="start" x="7" y="-702.5" font-family="Helvetica,sans-Serif" font-size="10.00">&#45;</text>
<text text-anchor="start" x="17.5" y="-702.5" font-family="Helvetica,sans-Serif" font-size="10.00">GetStateMessage()</text>
<polygon fill="#666666" stroke="#666666" points="0.5,-952.5 0.5,-952.5 177.5,-952.5 177.5,-952.5 0.5,-952.5"/>
<polygon fill="#666666" stroke="#666666" points="0.5,-937.5 0.5,-937.5 177.5,-937.5 177.5,-937.5 0.5,-937.5"/>
<polygon fill="none" stroke="#666666" points="0,-696 0,-981 177,-981 177,-696 0,-696"/>
</a>
</g>
</g>
<!-- Node4&#45;&gt;Node8 -->
<g id="edge8_Node000008_Node000004" class="edge">
<title>Node4&#45;&gt;Node8</title>
<g id="a_edge8_Node000008_Node000004"><a xlink:title=" ">
<path fill="none" stroke="#63b8ff" d="M194.41,-1029.23C190.29,-1018.9 185.97,-1008.71 181.5,-999 178.82,-993.18 175.99,-987.29 173.05,-981.39"/>
<polygon fill="none" stroke="#63b8ff" points="191.23,-1030.7 198.13,-1038.74 197.75,-1028.15 191.23,-1030.7"/>
</a>
</g>
</g>
<!-- Node5 -->
<g id="Node000005" class="node">
<title>Node5</title>
<g id="a_Node000005"><a xlink:href="classunsigned.html" target="_top" xlink:title=" ">
<polygon fill="white" stroke="transparent" points="180,-1372.5 125,-1372.5 125,-1323.5 180,-1323.5 180,-1372.5"/>
<text text-anchor="start" x="130.5" y="-1360" font-family="Helvetica,sans-Serif" font-size="10.00">unsigned</text>
<text text-anchor="start" x="151" y="-1345" font-family="Helvetica,sans-Serif" font-size="10.00"> </text>
<text text-anchor="start" x="151" y="-1330" font-family="Helvetica,sans-Serif" font-size="10.00"> </text>
<polygon fill="#bfbfbf" stroke="#bfbfbf" points="125.5,-1355 125.5,-1355 180.5,-1355 180.5,-1355 125.5,-1355"/>
<polygon fill="#bfbfbf" stroke="#bfbfbf" points="125.5,-1340 125.5,-1340 180.5,-1340 180.5,-1340 125.5,-1340"/>
<polygon fill="none" stroke="#bfbfbf" points="125,-1323.5 125,-1372.5 180,-1372.5 180,-1323.5 125,-1323.5"/>
</a>
</g>
</g>
<!-- Node5&#45;&gt;Node4 -->
<g id="edge4_Node000004_Node000005" class="edge">
<title>Node5&#45;&gt;Node4</title>
<g id="a_edge4_Node000004_Node000005"><a xlink:title=" ">
<path fill="none" stroke="#63b8ff" d="M147.75,-1323.44C146.49,-1312.73 146.25,-1300.02 149.5,-1289 150.13,-1286.87 150.8,-1284.74 151.52,-1282.61"/>
<polygon fill="none" stroke="#63b8ff" points="151.55,-1282.53 149.9,-1275.51 155.75,-1271.29 157.4,-1278.31 151.55,-1282.53"/>
</a>
</g>
<text text-anchor="middle" x="220.5" y="-1292" font-family="Helvetica,sans-Serif" font-size="10.00" fill="grey"> #mNumberOfStateVariables</text>
</g>
<!-- Node6 -->
<g id="Node000006" class="node">
<title>Node6</title>
<g id="a_Node000006"><a xlink:title=" ">
<polygon fill="white" stroke="transparent" points="402.5,-1378 232.5,-1378 232.5,-1318 402.5,-1318 402.5,-1378"/>
<text text-anchor="start" x="237.5" y="-1366" font-family="Helvetica,sans-Serif" font-size="10.00">shared_ptr&lt; AbstractOdeSystem</text>
<text text-anchor="start" x="283" y="-1355" font-family="Helvetica,sans-Serif" font-size="10.00">Information &gt;</text>
<text text-anchor="start" x="315.5" y="-1340" font-family="Helvetica,sans-Serif" font-size="10.00"> </text>
<text text-anchor="start" x="315.5" y="-1325" font-family="Helvetica,sans-Serif" font-size="10.00"> </text>
<polygon fill="#bfbfbf" stroke="#bfbfbf" points="232.5,-1350 232.5,-1350 402.5,-1350 402.5,-1350 232.5,-1350"/>
<polygon fill="#bfbfbf" stroke="#bfbfbf" points="232.5,-1335 232.5,-1335 402.5,-1335 402.5,-1335 232.5,-1335"/>
<polygon fill="none" stroke="#bfbfbf" points="232.5,-1318 232.5,-1378 402.5,-1378 402.5,-1318 232.5,-1318"/>
</a>
</g>
</g>
<!-- Node6&#45;&gt;Node4 -->
<g id="edge5_Node000004_Node000006" class="edge">
<title>Node6&#45;&gt;Node4</title>
<g id="a_edge5_Node000004_Node000006"><a xlink:title=" ">
<path fill="none" stroke="#63b8ff" d="M306.88,-1317.95C303.37,-1308.65 299.38,-1298.35 295.5,-1289 294.59,-1286.81 293.67,-1284.6 292.73,-1282.37"/>
<polygon fill="none" stroke="#63b8ff" points="292.66,-1282.2 286.63,-1278.24 287.97,-1271.15 294,-1275.11 292.66,-1282.2"/>
</a>
</g>
<text text-anchor="middle" x="341" y="-1292" font-family="Helvetica,sans-Serif" font-size="10.00" fill="grey"> #mpSystemInfo</text>
</g>
<!-- Node7 -->
<g id="Node000007" class="node">
<title>Node7</title>
<g id="a_Node000007"><a xlink:title=" ">
<polygon fill="white" stroke="transparent" points="361,-863 264,-863 264,-814 361,-814 361,-863"/>
<text text-anchor="start" x="269.5" y="-850.5" font-family="Helvetica,sans-Serif" font-size="10.00">vector&lt; double &gt;</text>
<text text-anchor="start" x="311" y="-835.5" font-family="Helvetica,sans-Serif" font-size="10.00"> </text>
<text text-anchor="start" x="311" y="-820.5" font-family="Helvetica,sans-Serif" font-size="10.00"> </text>
<polygon fill="#bfbfbf" stroke="#bfbfbf" points="264.5,-845.5 264.5,-845.5 361.5,-845.5 361.5,-845.5 264.5,-845.5"/>
<polygon fill="#bfbfbf" stroke="#bfbfbf" points="264.5,-830.5 264.5,-830.5 361.5,-830.5 361.5,-830.5 264.5,-830.5"/>
<polygon fill="none" stroke="#bfbfbf" points="264,-814 264,-863 361,-863 361,-814 264,-814"/>
</a>
</g>
</g>
<!-- Node7&#45;&gt;Node3 -->
<g id="edge6_Node000003_Node000007" class="edge">
<title>Node7&#45;&gt;Node3</title>
<g id="a_edge6_Node000003_Node000007"><a xlink:title=" ">
<path fill="none" stroke="#63b8ff" d="M307.15,-813.79C299.39,-779.45 284.4,-713.05 270.12,-649.83"/>
<polygon fill="none" stroke="#63b8ff" points="270.11,-649.77 264.89,-644.8 267.47,-638.07 272.69,-643.04 270.11,-649.77"/>
</a>
</g>
<text text-anchor="middle" x="321" y="-670" font-family="Helvetica,sans-Serif" font-size="10.00" fill="grey"> #mParameters</text>
<text text-anchor="middle" x="321" y="-659" font-family="Helvetica,sans-Serif" font-size="10.00" fill="grey">#mStateVariables</text>
</g>
<!-- Node8&#45;&gt;Node3 -->
<g id="edge7_Node000003_Node000008" class="edge">
<title>Node8&#45;&gt;Node3</title>
<g id="a_edge7_Node000003_Node000008"><a xlink:title=" ">
<path fill="none" stroke="orange" d="M79.97,-685.93C81.98,-675.63 84.76,-665.56 88.5,-656 101.03,-623.9 123.39,-594.38 146.94,-569.68"/>
<polygon fill="orange" stroke="orange" points="76.5,-685.41 78.26,-695.85 83.4,-686.59 76.5,-685.41"/>
</a>
</g>
<text text-anchor="middle" x="155" y="-664.5" font-family="Helvetica,sans-Serif" font-size="10.00" fill="grey"> &lt; std::vector&lt; double &gt; &gt;</text>
</g>
<!-- Node9 -->
<g id="Node000009" class="node">
<title>Node9</title>
<g id="a_Node000009"><a xlink:title=" ">
<polygon fill="white" stroke="transparent" points="113.5,-1179.5 63.5,-1179.5 63.5,-1130.5 113.5,-1130.5 113.5,-1179.5"/>
<text text-anchor="start" x="68.5" y="-1167" font-family="Helvetica,sans-Serif" font-size="10.00">VECTOR</text>
<text text-anchor="start" x="86.5" y="-1152" font-family="Helvetica,sans-Serif" font-size="10.00"> </text>
<text text-anchor="start" x="86.5" y="-1137" font-family="Helvetica,sans-Serif" font-size="10.00"> </text>
<polygon fill="#bfbfbf" stroke="#bfbfbf" points="63.5,-1162 63.5,-1162 113.5,-1162 113.5,-1162 63.5,-1162"/>
<polygon fill="#bfbfbf" stroke="#bfbfbf" points="63.5,-1147 63.5,-1147 113.5,-1147 113.5,-1147 63.5,-1147"/>
<polygon fill="none" stroke="#bfbfbf" points="63.5,-1130.5 63.5,-1179.5 113.5,-1179.5 113.5,-1130.5 63.5,-1130.5"/>
</a>
</g>
</g>
<!-- Node9&#45;&gt;Node8 -->
<g id="edge9_Node000008_Node000009" class="edge">
<title>Node9&#45;&gt;Node8</title>
<g id="a_edge9_Node000008_Node000009"><a xlink:title=" ">
<path fill="none" stroke="#63b8ff" d="M88.5,-1130.36C88.5,-1100.55 88.5,-1046.7 88.5,-993.38"/>
<polygon fill="none" stroke="#63b8ff" points="88.5,-993.3 84.5,-987.3 88.5,-981.3 92.5,-987.3 88.5,-993.3"/>
</a>
</g>
<text text-anchor="middle" x="133" y="-1013" font-family="Helvetica,sans-Serif" font-size="10.00" fill="grey"> #mParameters</text>
<text text-anchor="middle" x="133" y="-1002" font-family="Helvetica,sans-Serif" font-size="10.00" fill="grey">#mStateVariables</text>
</g>
<!-- Node10 -->
<g id="Node000010" class="node">
<title>Node10</title>
<g id="a_Node000010"><a xlink:href="classbool.html" target="_top" xlink:title=" ">
<polygon fill="white" stroke="transparent" points="373.5,-520 341.5,-520 341.5,-471 373.5,-471 373.5,-520"/>
<text text-anchor="start" x="346.5" y="-507.5" font-family="Helvetica,sans-Serif" font-size="10.00">bool</text>
<text text-anchor="start" x="355.5" y="-492.5" font-family="Helvetica,sans-Serif" font-size="10.00"> </text>
<text text-anchor="start" x="355.5" y="-477.5" font-family="Helvetica,sans-Serif" font-size="10.00"> </text>
<polygon fill="#bfbfbf" stroke="#bfbfbf" points="341.5,-502.5 341.5,-502.5 373.5,-502.5 373.5,-502.5 341.5,-502.5"/>
<polygon fill="#bfbfbf" stroke="#bfbfbf" points="341.5,-487.5 341.5,-487.5 373.5,-487.5 373.5,-487.5 341.5,-487.5"/>
<polygon fill="none" stroke="#bfbfbf" points="341.5,-471 341.5,-520 373.5,-520 373.5,-471 341.5,-471"/>
</a>
</g>
</g>
<!-- Node10&#45;&gt;Node2 -->
<g id="edge10_Node000002_Node000010" class="edge">
<title>Node10&#45;&gt;Node2</title>
<g id="a_edge10_Node000002_Node000010"><a xlink:title=" ">
<path fill="none" stroke="#63b8ff" d="M354.02,-470.83C349.71,-442.62 341.78,-394.12 332.5,-353 329.92,-341.57 326.98,-329.63 323.91,-317.83"/>
<polygon fill="none" stroke="#63b8ff" points="323.88,-317.7 318.48,-312.92 320.82,-306.1 326.22,-310.88 323.88,-317.7"/>
</a>
</g>
<text text-anchor="middle" x="388" y="-327" font-family="Helvetica,sans-Serif" font-size="10.00" fill="grey"> #mUseAnalyticJacobian</text>
</g>
<!-- Node11 -->
<g id="Node000011" class="node">
<title>Node11</title>
<g id="a_Node000011"><a xlink:title=" ">
<polygon fill="white" stroke="transparent" points="558,-246 389,-246 389,-197 558,-197 558,-246"/>
<text text-anchor="start" x="394.5" y="-233.5" font-family="Helvetica,sans-Serif" font-size="10.00">vector&lt; AbstractOdeSystem * &gt;</text>
<text text-anchor="start" x="472" y="-218.5" font-family="Helvetica,sans-Serif" font-size="10.00"> </text>
<text text-anchor="start" x="472" y="-203.5" font-family="Helvetica,sans-Serif" font-size="10.00"> </text>
<polygon fill="#bfbfbf" stroke="#bfbfbf" points="389.5,-228.5 389.5,-228.5 558.5,-228.5 558.5,-228.5 389.5,-228.5"/>
<polygon fill="#bfbfbf" stroke="#bfbfbf" points="389.5,-213.5 389.5,-213.5 558.5,-213.5 558.5,-213.5 389.5,-213.5"/>
<polygon fill="none" stroke="#bfbfbf" points="389,-197 389,-246 558,-246 558,-197 389,-197"/>
</a>
</g>
</g>
<!-- Node11&#45;&gt;Node1 -->
<g id="edge11_Node000001_Node000011" class="edge">
<title>Node11&#45;&gt;Node1</title>
<g id="a_edge11_Node000001_Node000011"><a xlink:title=" ">
<path fill="none" stroke="#63b8ff" d="M483.52,-196.61C495.47,-170.11 517.4,-127.13 545.5,-97 548.69,-93.58 552.11,-90.26 555.7,-87.06"/>
<polygon fill="none" stroke="#63b8ff" points="555.7,-87.05 557.72,-80.13 564.88,-79.33 562.87,-86.25 555.7,-87.05"/>
</a>
</g>
<text text-anchor="middle" x="585" y="-105.5" font-family="Helvetica,sans-Serif" font-size="10.00" fill="grey"> &#45;mOdeSystems</text>
</g>
<!-- Node12 -->
<g id="Node000012" class="node">
<title>Node12</title>
<g id="a_Node000012"><a xlink:title=" ">
<polygon fill="white" stroke="transparent" points="680.5,-251.5 576.5,-251.5 576.5,-191.5 680.5,-191.5 680.5,-251.5"/>
<text text-anchor="start" x="581.5" y="-239.5" font-family="Helvetica,sans-Serif" font-size="10.00">vector&lt; std::vector</text>
<text text-anchor="start" x="595" y="-228.5" font-family="Helvetica,sans-Serif" font-size="10.00">&lt; double &gt; &gt;</text>
<text text-anchor="start" x="626.5" y="-213.5" font-family="Helvetica,sans-Serif" font-size="10.00"> </text>
<text text-anchor="start" x="626.5" y="-198.5" font-family="Helvetica,sans-Serif" font-size="10.00"> </text>
<polygon fill="#bfbfbf" stroke="#bfbfbf" points="576.5,-223.5 576.5,-223.5 680.5,-223.5 680.5,-223.5 576.5,-223.5"/>
<polygon fill="#bfbfbf" stroke="#bfbfbf" points="576.5,-208.5 576.5,-208.5 680.5,-208.5 680.5,-208.5 576.5,-208.5"/>
<polygon fill="none" stroke="#bfbfbf" points="576.5,-191.5 576.5,-251.5 680.5,-251.5 680.5,-191.5 576.5,-191.5"/>
</a>
</g>
</g>
<!-- Node12&#45;&gt;Node1 -->
<g id="edge12_Node000001_Node000012" class="edge">
<title>Node12&#45;&gt;Node1</title>
<g id="a_edge12_Node000001_Node000012"><a xlink:title=" ">
<path fill="none" stroke="#63b8ff" d="M628.5,-191.18C628.5,-164.27 628.5,-123.81 628.5,-91.59"/>
<polygon fill="none" stroke="#63b8ff" points="628.5,-91.24 624.5,-85.24 628.5,-79.24 632.5,-85.24 628.5,-91.24"/>
</a>
</g>
<text text-anchor="middle" x="678.5" y="-111" font-family="Helvetica,sans-Serif" font-size="10.00" fill="grey"> &#45;mWorkingDerivs</text>
<text text-anchor="middle" x="678.5" y="-100" font-family="Helvetica,sans-Serif" font-size="10.00" fill="grey">&#45;mWorkingStateVars</text>
</g>
<!-- Node13 -->
<g id="Node000013" class="node">
<title>Node13</title>
<g id="a_Node000013"><a xlink:title=" ">
<polygon fill="white" stroke="transparent" points="806.5,-246 698.5,-246 698.5,-197 806.5,-197 806.5,-246"/>
<text text-anchor="start" x="703.5" y="-233.5" font-family="Helvetica,sans-Serif" font-size="10.00">vector&lt; unsigned &gt;</text>
<text text-anchor="start" x="750.5" y="-218.5" font-family="Helvetica,sans-Serif" font-size="10.00"> </text>
<text text-anchor="start" x="750.5" y="-203.5" font-family="Helvetica,sans-Serif" font-size="10.00"> </text>
<polygon fill="#bfbfbf" stroke="#bfbfbf" points="698.5,-228.5 698.5,-228.5 806.5,-228.5 806.5,-228.5 698.5,-228.5"/>
<polygon fill="#bfbfbf" stroke="#bfbfbf" points="698.5,-213.5 698.5,-213.5 806.5,-213.5 806.5,-213.5 698.5,-213.5"/>
<polygon fill="none" stroke="#bfbfbf" points="698.5,-197 698.5,-246 806.5,-246 806.5,-197 698.5,-197"/>
</a>
</g>
</g>
<!-- Node13&#45;&gt;Node1 -->
<g id="edge13_Node000001_Node000013" class="edge">
<title>Node13&#45;&gt;Node1</title>
<g id="a_edge13_Node000001_Node000013"><a xlink:title=" ">
<path fill="none" stroke="#63b8ff" d="M754.04,-196.83C754.57,-170.13 751.65,-126.59 730.5,-97 724.02,-87.93 715.6,-80.15 706.38,-73.52"/>
<polygon fill="none" stroke="#63b8ff" points="706.15,-73.36 698.94,-73.41 696.12,-66.77 703.34,-66.72 706.15,-73.36"/>
</a>
</g>
<text text-anchor="middle" x="767.5" y="-105.5" font-family="Helvetica,sans-Serif" font-size="10.00" fill="grey"> &#45;mOffsets</text>
</g>
<!-- Node14 -->
<g id="Node000014" class="node">
<title>Node14</title>
<g id="a_Node000014"><a xlink:title=" ">
<polygon fill="white" stroke="transparent" points="1000.5,-251.5 824.5,-251.5 824.5,-191.5 1000.5,-191.5 1000.5,-251.5"/>
<text text-anchor="start" x="829.5" y="-239.5" font-family="Helvetica,sans-Serif" font-size="10.00">vector&lt; struct CombinedOde</text>
<text text-anchor="start" x="829.5" y="-228.5" font-family="Helvetica,sans-Serif" font-size="10.00">System::VariableParameterMap &gt;</text>
<text text-anchor="start" x="910.5" y="-213.5" font-family="Helvetica,sans-Serif" font-size="10.00"> </text>
<text text-anchor="start" x="910.5" y="-198.5" font-family="Helvetica,sans-Serif" font-size="10.00"> </text>
<polygon fill="#bfbfbf" stroke="#bfbfbf" points="824.5,-223.5 824.5,-223.5 1000.5,-223.5 1000.5,-223.5 824.5,-223.5"/>
<polygon fill="#bfbfbf" stroke="#bfbfbf" points="824.5,-208.5 824.5,-208.5 1000.5,-208.5 1000.5,-208.5 824.5,-208.5"/>
<polygon fill="none" stroke="#bfbfbf" points="824.5,-191.5 824.5,-251.5 1000.5,-251.5 1000.5,-191.5 824.5,-191.5"/>
</a>
</g>
</g>
<!-- Node14&#45;&gt;Node1 -->
<g id="edge14_Node000001_Node000014" class="edge">
<title>Node14&#45;&gt;Node1</title>
<g id="a_edge14_Node000001_Node000014"><a xlink:title=" ">
<path fill="none" stroke="#63b8ff" d="M892.16,-191.34C871.33,-163.48 836.55,-122.13 797.5,-97 770.4,-79.56 737.37,-66.96 707.73,-58.14"/>
<polygon fill="none" stroke="#63b8ff" points="707.66,-58.13 700.79,-60.32 696.12,-54.83 702.99,-52.63 707.66,-58.13"/>
</a>
</g>
<text text-anchor="middle" x="889" y="-105.5" font-family="Helvetica,sans-Serif" font-size="10.00" fill="grey"> &#45;mVariableParameterMaps</text>
</g>
</g>
</svg>
