<?xml version="1.0" encoding="UTF-8" standalone="no"?>
<!DOCTYPE svg PUBLIC "-//W3C//DTD SVG 1.1//EN"
 "http://www.w3.org/Graphics/SVG/1.1/DTD/svg11.dtd">
<!-- Generated by graphviz version 2.43.0 (0)
 -->
<!-- Title: S1S2Stimulus Pages: 1 -->
<svg width="406pt" height="440pt"
 viewBox="0.00 0.00 406.00 440.00" xmlns="http://www.w3.org/2000/svg" xmlns:xlink="http://www.w3.org/1999/xlink">
<g id="graph0" class="graph" transform="scale(1 1) rotate(0) translate(4 436)">
<title>S1S2Stimulus</title>
<!-- Node1 -->
<g id="Node000001" class="node">
<title>Node1</title>
<g id="a_Node000001"><a xlink:title=" ">
<polygon fill="#999999" stroke="transparent" points="335.5,-124 164.5,-124 164.5,0 335.5,0 335.5,-124"/>
<text text-anchor="start" x="217" y="-112" font-family="Helvetica,sans-Serif" font-size="10.00">S1S2Stimulus</text>
<text text-anchor="start" x="248.5" y="-97" font-family="Helvetica,sans-Serif" font-size="10.00"> </text>
<text text-anchor="start" x="169" y="-82" font-family="Helvetica,sans-Serif" font-size="10.00">+</text>
<text text-anchor="start" x="182" y="-82" font-family="Helvetica,sans-Serif" font-size="10.00">S1S2Stimulus()</text>
<text text-anchor="start" x="169" y="-67" font-family="Helvetica,sans-Serif" font-size="10.00">+</text>
<text text-anchor="start" x="182" y="-67" font-family="Helvetica,sans-Serif" font-size="10.00">GetStimulus()</text>
<text text-anchor="start" x="169" y="-52" font-family="Helvetica,sans-Serif" font-size="10.00">+</text>
<text text-anchor="start" x="182" y="-52" font-family="Helvetica,sans-Serif" font-size="10.00">SetS2ExperimentPeriodIndex()</text>
<text text-anchor="start" x="169" y="-37" font-family="Helvetica,sans-Serif" font-size="10.00">+</text>
<text text-anchor="start" x="182" y="-37" font-family="Helvetica,sans-Serif" font-size="10.00">GetNumS2FrequencyValues()</text>
<text text-anchor="start" x="171.5" y="-22" font-family="Helvetica,sans-Serif" font-size="10.00">&#45;</text>
<text text-anchor="start" x="182" y="-22" font-family="Helvetica,sans-Serif" font-size="10.00">serialize()</text>
<text text-anchor="start" x="171.5" y="-7" font-family="Helvetica,sans-Serif" font-size="10.00">&#45;</text>
<text text-anchor="start" x="182" y="-7" font-family="Helvetica,sans-Serif" font-size="10.00">S1S2Stimulus()</text>
<polygon fill="#666666" stroke="#666666" points="165,-107 165,-107 336,-107 336,-107 165,-107"/>
<polygon fill="#666666" stroke="#666666" points="165,-92 165,-92 336,-92 336,-92 165,-92"/>
<polygon fill="none" stroke="#666666" points="164.5,0 164.5,-124 335.5,-124 335.5,0 164.5,0"/>
</a>
</g>
</g>
<!-- Node2 -->
<g id="Node000002" class="node">
<title>Node2</title>
<g id="a_Node000002"><a xlink:href="classMultiStimulus.html" target="_top" xlink:title=" ">
<polygon fill="white" stroke="transparent" points="229.5,-291 124.5,-291 124.5,-182 229.5,-182 229.5,-291"/>
<text text-anchor="start" x="143.5" y="-278.5" font-family="Helvetica,sans-Serif" font-size="10.00">MultiStimulus</text>
<text text-anchor="start" x="175.5" y="-263.5" font-family="Helvetica,sans-Serif" font-size="10.00"> </text>
<text text-anchor="start" x="129" y="-248.5" font-family="Helvetica,sans-Serif" font-size="10.00">+</text>
<text text-anchor="start" x="142" y="-248.5" font-family="Helvetica,sans-Serif" font-size="10.00">~MultiStimulus()</text>
<text text-anchor="start" x="129" y="-233.5" font-family="Helvetica,sans-Serif" font-size="10.00">+</text>
<text text-anchor="start" x="142" y="-233.5" font-family="Helvetica,sans-Serif" font-size="10.00">AddStimulus()</text>
<text text-anchor="start" x="129" y="-218.5" font-family="Helvetica,sans-Serif" font-size="10.00">+</text>
<text text-anchor="start" x="142" y="-218.5" font-family="Helvetica,sans-Serif" font-size="10.00">GetStimulus()</text>
<text text-anchor="start" x="129" y="-203.5" font-family="Helvetica,sans-Serif" font-size="10.00">+</text>
<text text-anchor="start" x="142" y="-203.5" font-family="Helvetica,sans-Serif" font-size="10.00">Clear()</text>
<text text-anchor="start" x="131.5" y="-188.5" font-family="Helvetica,sans-Serif" font-size="10.00">&#45;</text>
<text text-anchor="start" x="142" y="-188.5" font-family="Helvetica,sans-Serif" font-size="10.00">serialize()</text>
<polygon fill="#666666" stroke="#666666" points="125,-273.5 125,-273.5 230,-273.5 230,-273.5 125,-273.5"/>
<polygon fill="#666666" stroke="#666666" points="125,-258.5 125,-258.5 230,-258.5 230,-258.5 125,-258.5"/>
<polygon fill="none" stroke="#666666" points="124.5,-182 124.5,-291 229.5,-291 229.5,-182 124.5,-182"/>
</a>
</g>
</g>
<!-- Node2&#45;&gt;Node1 -->
<g id="edge1_Node000001_Node000002" class="edge">
<title>Node2&#45;&gt;Node1</title>
<g id="a_edge1_Node000001_Node000002"><a xlink:title=" ">
<path fill="none" stroke="#63b8ff" d="M203.77,-172.25C210.41,-156.54 217.53,-139.74 224.13,-124.13"/>
<polygon fill="none" stroke="#63b8ff" points="200.37,-171.29 199.7,-181.87 206.82,-174.02 200.37,-171.29"/>
</a>
</g>
</g>
<!-- Node3 -->
<g id="Node000003" class="node">
<title>Node3</title>
<g id="a_Node000003"><a xlink:href="classAbstractStimulusFunction.html" target="_top" xlink:title=" ">
<polygon fill="white" stroke="transparent" points="162,-432 0,-432 0,-338 162,-338 162,-432"/>
<text text-anchor="start" x="18.5" y="-420" font-family="Helvetica,sans-Serif" font-size="10.00">AbstractStimulusFunction</text>
<text text-anchor="start" x="79" y="-405" font-family="Helvetica,sans-Serif" font-size="10.00"> </text>
<text text-anchor="start" x="4" y="-390" font-family="Helvetica,sans-Serif" font-size="10.00">+</text>
<text text-anchor="start" x="17" y="-390" font-family="Helvetica,sans-Serif" font-size="10.00">GetStimulus()</text>
<text text-anchor="start" x="4" y="-375" font-family="Helvetica,sans-Serif" font-size="10.00">+</text>
<text text-anchor="start" x="17" y="-375" font-family="Helvetica,sans-Serif" font-size="10.00">~AbstractStimulusFunction()</text>
<text text-anchor="start" x="4" y="-360" font-family="Helvetica,sans-Serif" font-size="10.00">+</text>
<text text-anchor="start" x="17" y="-360" font-family="Helvetica,sans-Serif" font-size="10.00">Clear()</text>
<text text-anchor="start" x="6.5" y="-345" font-family="Helvetica,sans-Serif" font-size="10.00">&#45;</text>
<text text-anchor="start" x="17" y="-345" font-family="Helvetica,sans-Serif" font-size="10.00">serialize()</text>
<polygon fill="#666666" stroke="#666666" points="0,-415 0,-415 162,-415 162,-415 0,-415"/>
<polygon fill="#666666" stroke="#666666" points="0,-400 0,-400 162,-400 162,-400 0,-400"/>
<polygon fill="none" stroke="#666666" points="0,-338 0,-432 162,-432 162,-338 0,-338"/>
</a>
</g>
</g>
<!-- Node3&#45;&gt;Node2 -->
<g id="edge2_Node000002_Node000003" class="edge">
<title>Node3&#45;&gt;Node2</title>
<g id="a_edge2_Node000002_Node000003"><a xlink:title=" ">
<path fill="none" stroke="#63b8ff" d="M116.92,-329.19C125.06,-316.77 133.69,-303.59 141.8,-291.22"/>
<polygon fill="none" stroke="#63b8ff" points="113.93,-327.36 111.38,-337.65 119.78,-331.2 113.93,-327.36"/>
</a>
</g>
</g>
<!-- Node4 -->
<g id="Node000004" class="node">
<title>Node4</title>
<g id="a_Node000004"><a xlink:title=" ">
<polygon fill="white" stroke="transparent" points="368,-415 180,-415 180,-355 368,-355 368,-415"/>
<text text-anchor="start" x="185" y="-403" font-family="Helvetica,sans-Serif" font-size="10.00">vector&lt; boost::shared</text>
<text text-anchor="start" x="185" y="-392" font-family="Helvetica,sans-Serif" font-size="10.00">_ptr&lt; AbstractStimulusFunction &gt; &gt;</text>
<text text-anchor="start" x="272" y="-377" font-family="Helvetica,sans-Serif" font-size="10.00"> </text>
<text text-anchor="start" x="272" y="-362" font-family="Helvetica,sans-Serif" font-size="10.00"> </text>
<polygon fill="#bfbfbf" stroke="#bfbfbf" points="180,-387 180,-387 368,-387 368,-387 180,-387"/>
<polygon fill="#bfbfbf" stroke="#bfbfbf" points="180,-372 180,-372 368,-372 368,-372 180,-372"/>
<polygon fill="none" stroke="#bfbfbf" points="180,-355 180,-415 368,-415 368,-355 180,-355"/>
</a>
</g>
</g>
<!-- Node4&#45;&gt;Node2 -->
<g id="edge3_Node000002_Node000004" class="edge">
<title>Node4&#45;&gt;Node2</title>
<g id="a_edge3_Node000002_Node000004"><a xlink:title=" ">
<path fill="none" stroke="#63b8ff" d="M254.6,-354.71C244.43,-339.35 231.56,-319.9 219.23,-301.28"/>
<polygon fill="none" stroke="#63b8ff" points="219.08,-301.05 212.43,-298.26 212.46,-291.05 219.1,-293.84 219.08,-301.05"/>
</a>
</g>
<text text-anchor="middle" x="260" y="-312" font-family="Helvetica,sans-Serif" font-size="10.00" fill="grey"> #mStimuli</text>
</g>
<!-- Node5 -->
<g id="Node000005" class="node">
<title>Node5</title>
<g id="a_Node000005"><a xlink:href="classunsigned.html" target="_top" xlink:title=" ">
<polygon fill="white" stroke="transparent" points="302.5,-261 247.5,-261 247.5,-212 302.5,-212 302.5,-261"/>
<text text-anchor="start" x="253" y="-248.5" font-family="Helvetica,sans-Serif" font-size="10.00">unsigned</text>
<text text-anchor="start" x="273.5" y="-233.5" font-family="Helvetica,sans-Serif" font-size="10.00"> </text>
<text text-anchor="start" x="273.5" y="-218.5" font-family="Helvetica,sans-Serif" font-size="10.00"> </text>
<polygon fill="#bfbfbf" stroke="#bfbfbf" points="248,-243.5 248,-243.5 303,-243.5 303,-243.5 248,-243.5"/>
<polygon fill="#bfbfbf" stroke="#bfbfbf" points="248,-228.5 248,-228.5 303,-228.5 303,-228.5 248,-228.5"/>
<polygon fill="none" stroke="#bfbfbf" points="247.5,-212 247.5,-261 302.5,-261 302.5,-212 247.5,-212"/>
</a>
</g>
</g>
<!-- Node5&#45;&gt;Node1 -->
<g id="edge4_Node000001_Node000005" class="edge">
<title>Node5&#45;&gt;Node1</title>
<g id="a_edge4_Node000001_Node000005"><a xlink:title=" ">
<path fill="none" stroke="#63b8ff" d="M271.58,-211.88C268.73,-192.26 264.53,-163.28 260.59,-136.08"/>
<polygon fill="none" stroke="#63b8ff" points="260.59,-136.04 255.77,-130.67 258.86,-124.16 263.68,-129.53 260.59,-136.04"/>
</a>
</g>
<text text-anchor="middle" x="330.5" y="-156" font-family="Helvetica,sans-Serif" font-size="10.00" fill="grey"> &#45;mNumS2FrequencyValues</text>
<text text-anchor="middle" x="330.5" y="-145" font-family="Helvetica,sans-Serif" font-size="10.00" fill="grey">&#45;mS2Index</text>
</g>
</g>
</svg>
