<?xml version="1.0" encoding="UTF-8" standalone="no"?>
<!DOCTYPE svg PUBLIC "-//W3C//DTD SVG 1.1//EN"
 "http://www.w3.org/Graphics/SVG/1.1/DTD/svg11.dtd">
<!-- Generated by graphviz version 2.43.0 (0)
 -->
<!-- Title: AbstractTetrahedralElement&lt; ELEMENT_DIM, SPACE_DIM &gt; Pages: 1 -->
<svg width="360pt" height="852pt"
 viewBox="0.00 0.00 360.00 852.00" xmlns="http://www.w3.org/2000/svg" xmlns:xlink="http://www.w3.org/1999/xlink">
<g id="graph0" class="graph" transform="scale(1 1) rotate(0) translate(4 848)">
<title>AbstractTetrahedralElement&lt; ELEMENT_DIM, SPACE_DIM &gt;</title>
<!-- Node1 -->
<g id="Node000001" class="node">
<title>Node1</title>
<g id="a_Node000001"><a xlink:title=" ">
<polygon fill="#999999" stroke="transparent" points="256,-523 83,-523 83,-302 256,-302 256,-523"/>
<text text-anchor="start" x="92.5" y="-510.5" font-family="Helvetica,sans-Serif" font-size="10.00">AbstractTetrahedralElement</text>
<text text-anchor="start" x="92.5" y="-499.5" font-family="Helvetica,sans-Serif" font-size="10.00">&lt; ELEMENT_DIM, SPACE_DIM &gt;</text>
<text text-anchor="start" x="168" y="-484.5" font-family="Helvetica,sans-Serif" font-size="10.00"> </text>
<text text-anchor="start" x="87.5" y="-469.5" font-family="Helvetica,sans-Serif" font-size="10.00">+</text>
<text text-anchor="start" x="100.5" y="-469.5" font-family="Helvetica,sans-Serif" font-size="10.00">AbstractTetrahedralElement()</text>
<text text-anchor="start" x="87.5" y="-454.5" font-family="Helvetica,sans-Serif" font-size="10.00">+</text>
<text text-anchor="start" x="100.5" y="-454.5" font-family="Helvetica,sans-Serif" font-size="10.00">AbstractTetrahedralElement()</text>
<text text-anchor="start" x="87.5" y="-439.5" font-family="Helvetica,sans-Serif" font-size="10.00">+</text>
<text text-anchor="start" x="100.5" y="-439.5" font-family="Helvetica,sans-Serif" font-size="10.00">~AbstractTetrahedralElement()</text>
<text text-anchor="start" x="87.5" y="-424.5" font-family="Helvetica,sans-Serif" font-size="10.00">+</text>
<text text-anchor="start" x="100.5" y="-424.5" font-family="Helvetica,sans-Serif" font-size="10.00">CalculateCentroid()</text>
<text text-anchor="start" x="87.5" y="-409.5" font-family="Helvetica,sans-Serif" font-size="10.00">+</text>
<text text-anchor="start" x="100.5" y="-409.5" font-family="Helvetica,sans-Serif" font-size="10.00">CalculateJacobian()</text>
<text text-anchor="start" x="87.5" y="-394.5" font-family="Helvetica,sans-Serif" font-size="10.00">+</text>
<text text-anchor="start" x="100.5" y="-394.5" font-family="Helvetica,sans-Serif" font-size="10.00">CalculateWeightedDirection()</text>
<text text-anchor="start" x="87.5" y="-379.5" font-family="Helvetica,sans-Serif" font-size="10.00">+</text>
<text text-anchor="start" x="100.5" y="-379.5" font-family="Helvetica,sans-Serif" font-size="10.00">CalculateNormal()</text>
<text text-anchor="start" x="87.5" y="-364.5" font-family="Helvetica,sans-Serif" font-size="10.00">+</text>
<text text-anchor="start" x="100.5" y="-364.5" font-family="Helvetica,sans-Serif" font-size="10.00">CalculateInverseJacobian()</text>
<text text-anchor="start" x="87.5" y="-349.5" font-family="Helvetica,sans-Serif" font-size="10.00">+</text>
<text text-anchor="start" x="100.5" y="-349.5" font-family="Helvetica,sans-Serif" font-size="10.00">GetVolume()</text>
<text text-anchor="start" x="87.5" y="-334.5" font-family="Helvetica,sans-Serif" font-size="10.00">+</text>
<text text-anchor="start" x="100.5" y="-334.5" font-family="Helvetica,sans-Serif" font-size="10.00">GetStiffnessMatrixGlobal</text>
<text text-anchor="start" x="100.5" y="-323.5" font-family="Helvetica,sans-Serif" font-size="10.00">Indices()</text>
<text text-anchor="start" x="87.5" y="-308.5" font-family="Helvetica,sans-Serif" font-size="10.00">#</text>
<text text-anchor="start" x="100.5" y="-308.5" font-family="Helvetica,sans-Serif" font-size="10.00">RefreshJacobian()</text>
<polygon fill="#666666" stroke="#666666" points="83.5,-494.5 83.5,-494.5 256.5,-494.5 256.5,-494.5 83.5,-494.5"/>
<polygon fill="#666666" stroke="#666666" points="83.5,-479.5 83.5,-479.5 256.5,-479.5 256.5,-479.5 83.5,-479.5"/>
<polygon fill="none" stroke="#666666" points="83,-302 83,-523 256,-523 256,-302 83,-302"/>
</a>
</g>
</g>
<!-- Node3 -->
<g id="Node000003" class="node">
<title>Node3</title>
<g id="a_Node000003"><a xlink:href="classBoundaryElement.html" target="_top" xlink:title=" ">
<polygon fill="white" stroke="transparent" points="155,-208 0,-208 0,-58 155,-58 155,-208"/>
<text text-anchor="start" x="5.5" y="-196" font-family="Helvetica,sans-Serif" font-size="10.00">BoundaryElement&lt; ELEMENT</text>
<text text-anchor="start" x="29" y="-185" font-family="Helvetica,sans-Serif" font-size="10.00">_DIM, SPACE_DIM &gt;</text>
<text text-anchor="start" x="76" y="-170" font-family="Helvetica,sans-Serif" font-size="10.00"> </text>
<text text-anchor="start" x="12.5" y="-155" font-family="Helvetica,sans-Serif" font-size="10.00">+</text>
<text text-anchor="start" x="33.5" y="-155" font-family="Helvetica,sans-Serif" font-size="10.00">BoundaryElement()</text>
<text text-anchor="start" x="12.5" y="-140" font-family="Helvetica,sans-Serif" font-size="10.00">+</text>
<text text-anchor="start" x="33.5" y="-140" font-family="Helvetica,sans-Serif" font-size="10.00">BoundaryElement()</text>
<text text-anchor="start" x="12.5" y="-125" font-family="Helvetica,sans-Serif" font-size="10.00">+</text>
<text text-anchor="start" x="33.5" y="-125" font-family="Helvetica,sans-Serif" font-size="10.00">RegisterWithNodes()</text>
<text text-anchor="start" x="12.5" y="-110" font-family="Helvetica,sans-Serif" font-size="10.00">+</text>
<text text-anchor="start" x="33.5" y="-110" font-family="Helvetica,sans-Serif" font-size="10.00">ResetIndex()</text>
<text text-anchor="start" x="12.5" y="-95" font-family="Helvetica,sans-Serif" font-size="10.00">+</text>
<text text-anchor="start" x="33.5" y="-95" font-family="Helvetica,sans-Serif" font-size="10.00">MarkAsDeleted()</text>
<text text-anchor="start" x="12.5" y="-80" font-family="Helvetica,sans-Serif" font-size="10.00">+</text>
<text text-anchor="start" x="33.5" y="-80" font-family="Helvetica,sans-Serif" font-size="10.00">UpdateNode()</text>
<text text-anchor="start" x="12.5" y="-65" font-family="Helvetica,sans-Serif" font-size="10.00">#</text>
<text text-anchor="start" x="33.5" y="-65" font-family="Helvetica,sans-Serif" font-size="10.00">BoundaryElement()</text>
<polygon fill="#666666" stroke="#666666" points="0.5,-180 0.5,-180 155.5,-180 155.5,-180 0.5,-180"/>
<polygon fill="#666666" stroke="#666666" points="0.5,-165 0.5,-165 155.5,-165 155.5,-165 0.5,-165"/>
<polygon fill="none" stroke="#666666" points="0,-58 0,-208 155,-208 155,-58 0,-58"/>
</a>
</g>
</g>
<!-- Node1&#45;&gt;Node3 -->
<g id="edge2_Node000001_Node000003" class="edge">
<title>Node1&#45;&gt;Node3</title>
<g id="a_edge2_Node000001_Node000003"><a xlink:title=" ">
<path fill="none" stroke="#63b8ff" d="M129.95,-292.21C120.51,-263.72 110.69,-234.12 102.14,-208.33"/>
<polygon fill="none" stroke="#63b8ff" points="126.67,-293.43 133.14,-301.82 133.31,-291.23 126.67,-293.43"/>
</a>
</g>
</g>
<!-- Node4 -->
<g id="Node000004" class="node">
<title>Node4</title>
<g id="a_Node000004"><a xlink:href="classElement.html" target="_top" xlink:title=" ">
<polygon fill="white" stroke="transparent" points="352,-266 173,-266 173,0 352,0 352,-266"/>
<text text-anchor="start" x="200" y="-254" font-family="Helvetica,sans-Serif" font-size="10.00">Element&lt; ELEMENT_DIM,</text>
<text text-anchor="start" x="228" y="-243" font-family="Helvetica,sans-Serif" font-size="10.00"> SPACE_DIM &gt;</text>
<text text-anchor="start" x="261" y="-228" font-family="Helvetica,sans-Serif" font-size="10.00"> </text>
<text text-anchor="start" x="177.5" y="-213" font-family="Helvetica,sans-Serif" font-size="10.00">+</text>
<text text-anchor="start" x="190.5" y="-213" font-family="Helvetica,sans-Serif" font-size="10.00">Element()</text>
<text text-anchor="start" x="177.5" y="-198" font-family="Helvetica,sans-Serif" font-size="10.00">+</text>
<text text-anchor="start" x="190.5" y="-198" font-family="Helvetica,sans-Serif" font-size="10.00">Element()</text>
<text text-anchor="start" x="177.5" y="-183" font-family="Helvetica,sans-Serif" font-size="10.00">+</text>
<text text-anchor="start" x="190.5" y="-183" font-family="Helvetica,sans-Serif" font-size="10.00">RegisterWithNodes()</text>
<text text-anchor="start" x="177.5" y="-168" font-family="Helvetica,sans-Serif" font-size="10.00">+</text>
<text text-anchor="start" x="190.5" y="-168" font-family="Helvetica,sans-Serif" font-size="10.00">MarkAsDeleted()</text>
<text text-anchor="start" x="177.5" y="-153" font-family="Helvetica,sans-Serif" font-size="10.00">+</text>
<text text-anchor="start" x="190.5" y="-153" font-family="Helvetica,sans-Serif" font-size="10.00">UpdateNode()</text>
<text text-anchor="start" x="177.5" y="-138" font-family="Helvetica,sans-Serif" font-size="10.00">+</text>
<text text-anchor="start" x="190.5" y="-138" font-family="Helvetica,sans-Serif" font-size="10.00">ResetIndex()</text>
<text text-anchor="start" x="177.5" y="-123" font-family="Helvetica,sans-Serif" font-size="10.00">+</text>
<text text-anchor="start" x="190.5" y="-123" font-family="Helvetica,sans-Serif" font-size="10.00">CalculateCircumsphere()</text>
<text text-anchor="start" x="177.5" y="-108" font-family="Helvetica,sans-Serif" font-size="10.00">+</text>
<text text-anchor="start" x="190.5" y="-108" font-family="Helvetica,sans-Serif" font-size="10.00">CalculateCircumsphereVolume()</text>
<text text-anchor="start" x="177.5" y="-93" font-family="Helvetica,sans-Serif" font-size="10.00">+</text>
<text text-anchor="start" x="190.5" y="-93" font-family="Helvetica,sans-Serif" font-size="10.00">CalculateQuality()</text>
<text text-anchor="start" x="177.5" y="-78" font-family="Helvetica,sans-Serif" font-size="10.00">+</text>
<text text-anchor="start" x="190.5" y="-78" font-family="Helvetica,sans-Serif" font-size="10.00">CalculateMinMaxEdgeLengths()</text>
<text text-anchor="start" x="177.5" y="-63" font-family="Helvetica,sans-Serif" font-size="10.00">+</text>
<text text-anchor="start" x="190.5" y="-63" font-family="Helvetica,sans-Serif" font-size="10.00">CalculateInterpolationWeights()</text>
<text text-anchor="start" x="177.5" y="-48" font-family="Helvetica,sans-Serif" font-size="10.00">+</text>
<text text-anchor="start" x="190.5" y="-48" font-family="Helvetica,sans-Serif" font-size="10.00">CalculateInterpolationWeights</text>
<text text-anchor="start" x="190.5" y="-37" font-family="Helvetica,sans-Serif" font-size="10.00">WithProjection()</text>
<text text-anchor="start" x="177.5" y="-22" font-family="Helvetica,sans-Serif" font-size="10.00">+</text>
<text text-anchor="start" x="190.5" y="-22" font-family="Helvetica,sans-Serif" font-size="10.00">CalculateXi()</text>
<text text-anchor="start" x="177.5" y="-7" font-family="Helvetica,sans-Serif" font-size="10.00">+</text>
<text text-anchor="start" x="190.5" y="-7" font-family="Helvetica,sans-Serif" font-size="10.00">IncludesPoint()</text>
<polygon fill="#666666" stroke="#666666" points="173.5,-238 173.5,-238 352.5,-238 352.5,-238 173.5,-238"/>
<polygon fill="#666666" stroke="#666666" points="173.5,-223 173.5,-223 352.5,-223 352.5,-223 173.5,-223"/>
<polygon fill="none" stroke="#666666" points="173,0 173,-266 352,-266 352,0 173,0"/>
</a>
</g>
</g>
<!-- Node1&#45;&gt;Node4 -->
<g id="edge3_Node000001_Node000004" class="edge">
<title>Node1&#45;&gt;Node4</title>
<g id="a_edge3_Node000001_Node000004"><a xlink:title=" ">
<path fill="none" stroke="#63b8ff" d="M209.48,-292.2C212.35,-283.63 215.26,-274.96 218.16,-266.32"/>
<polygon fill="none" stroke="#63b8ff" points="206.12,-291.23 206.26,-301.82 212.75,-293.46 206.12,-291.23"/>
</a>
</g>
</g>
<!-- Node2 -->
<g id="Node000002" class="node">
<title>Node2</title>
<g id="a_Node000002"><a xlink:href="classAbstractElement.html" target="_top" xlink:title=" ">
<polygon fill="white" stroke="transparent" points="251.5,-844 87.5,-844 87.5,-559 251.5,-559 251.5,-844"/>
<text text-anchor="start" x="100" y="-831.5" font-family="Helvetica,sans-Serif" font-size="10.00">AbstractElement&lt; ELEMENT</text>
<text text-anchor="start" x="120.5" y="-820.5" font-family="Helvetica,sans-Serif" font-size="10.00">_DIM, SPACE_DIM &gt;</text>
<text text-anchor="start" x="91.5" y="-805.5" font-family="Helvetica,sans-Serif" font-size="10.00">#</text>
<text text-anchor="start" x="104.5" y="-805.5" font-family="Helvetica,sans-Serif" font-size="10.00">mNodes</text>
<text text-anchor="start" x="91.5" y="-790.5" font-family="Helvetica,sans-Serif" font-size="10.00">#</text>
<text text-anchor="start" x="104.5" y="-790.5" font-family="Helvetica,sans-Serif" font-size="10.00">mIndex</text>
<text text-anchor="start" x="91.5" y="-775.5" font-family="Helvetica,sans-Serif" font-size="10.00">#</text>
<text text-anchor="start" x="104.5" y="-775.5" font-family="Helvetica,sans-Serif" font-size="10.00">mIsDeleted</text>
<text text-anchor="start" x="91.5" y="-760.5" font-family="Helvetica,sans-Serif" font-size="10.00">#</text>
<text text-anchor="start" x="104.5" y="-760.5" font-family="Helvetica,sans-Serif" font-size="10.00">mOwnership</text>
<text text-anchor="start" x="91.5" y="-745.5" font-family="Helvetica,sans-Serif" font-size="10.00">#</text>
<text text-anchor="start" x="104.5" y="-745.5" font-family="Helvetica,sans-Serif" font-size="10.00">mpElementAttributes</text>
<text text-anchor="start" x="91.5" y="-730.5" font-family="Helvetica,sans-Serif" font-size="10.00">+</text>
<text text-anchor="start" x="104.5" y="-730.5" font-family="Helvetica,sans-Serif" font-size="10.00">AbstractElement()</text>
<text text-anchor="start" x="91.5" y="-715.5" font-family="Helvetica,sans-Serif" font-size="10.00">+</text>
<text text-anchor="start" x="104.5" y="-715.5" font-family="Helvetica,sans-Serif" font-size="10.00">AbstractElement()</text>
<text text-anchor="start" x="91.5" y="-700.5" font-family="Helvetica,sans-Serif" font-size="10.00">+</text>
<text text-anchor="start" x="104.5" y="-700.5" font-family="Helvetica,sans-Serif" font-size="10.00">~AbstractElement()</text>
<text text-anchor="start" x="91.5" y="-685.5" font-family="Helvetica,sans-Serif" font-size="10.00">+</text>
<text text-anchor="start" x="104.5" y="-685.5" font-family="Helvetica,sans-Serif" font-size="10.00">UpdateNode()</text>
<text text-anchor="start" x="91.5" y="-670.5" font-family="Helvetica,sans-Serif" font-size="10.00">+</text>
<text text-anchor="start" x="104.5" y="-670.5" font-family="Helvetica,sans-Serif" font-size="10.00">ReplaceNode()</text>
<text text-anchor="start" x="91.5" y="-655.5" font-family="Helvetica,sans-Serif" font-size="10.00">+</text>
<text text-anchor="start" x="104.5" y="-655.5" font-family="Helvetica,sans-Serif" font-size="10.00">MarkAsDeleted()</text>
<text text-anchor="start" x="91.5" y="-640.5" font-family="Helvetica,sans-Serif" font-size="10.00">+</text>
<text text-anchor="start" x="104.5" y="-640.5" font-family="Helvetica,sans-Serif" font-size="10.00">RegisterWithNodes()</text>
<text text-anchor="start" x="91.5" y="-625.5" font-family="Helvetica,sans-Serif" font-size="10.00">+</text>
<text text-anchor="start" x="104.5" y="-625.5" font-family="Helvetica,sans-Serif" font-size="10.00">GetNodeLocation()</text>
<text text-anchor="start" x="91.5" y="-610.5" font-family="Helvetica,sans-Serif" font-size="10.00">+</text>
<text text-anchor="start" x="104.5" y="-610.5" font-family="Helvetica,sans-Serif" font-size="10.00">GetNodeLocation()</text>
<text text-anchor="start" x="91.5" y="-595.5" font-family="Helvetica,sans-Serif" font-size="10.00">+</text>
<text text-anchor="start" x="104.5" y="-595.5" font-family="Helvetica,sans-Serif" font-size="10.00">GetNodeGlobalIndex()</text>
<text text-anchor="start" x="104.5" y="-580.5" font-family="Helvetica,sans-Serif" font-size="10.00">and 14 more...</text>
<text text-anchor="start" x="91.5" y="-565.5" font-family="Helvetica,sans-Serif" font-size="10.00">#</text>
<text text-anchor="start" x="104.5" y="-565.5" font-family="Helvetica,sans-Serif" font-size="10.00">ConstructElementAttributes()</text>
<polygon fill="#666666" stroke="#666666" points="87.5,-815.5 87.5,-815.5 251.5,-815.5 251.5,-815.5 87.5,-815.5"/>
<polygon fill="#666666" stroke="#666666" points="87.5,-740.5 87.5,-740.5 102.5,-740.5 102.5,-740.5 87.5,-740.5"/>
<polygon fill="#666666" stroke="#666666" points="102.5,-740.5 102.5,-740.5 251.5,-740.5 251.5,-740.5 102.5,-740.5"/>
<polygon fill="none" stroke="#666666" points="87.5,-559 87.5,-844 251.5,-844 251.5,-559 87.5,-559"/>
</a>
</g>
</g>
<!-- Node2&#45;&gt;Node1 -->
<g id="edge1_Node000001_Node000002" class="edge">
<title>Node2&#45;&gt;Node1</title>
<g id="a_edge1_Node000001_Node000002"><a xlink:title=" ">
<path fill="none" stroke="#63b8ff" d="M169.5,-548.68C169.5,-540.16 169.5,-531.69 169.5,-523.37"/>
<polygon fill="none" stroke="#63b8ff" points="166,-548.68 169.5,-558.68 173,-548.68 166,-548.68"/>
</a>
</g>
</g>
</g>
</svg>
