<?xml version="1.0" encoding="UTF-8" standalone="no"?>
<!DOCTYPE svg PUBLIC "-//W3C//DTD SVG 1.1//EN"
 "http://www.w3.org/Graphics/SVG/1.1/DTD/svg11.dtd">
<!-- Generated by graphviz version 2.43.0 (0)
 -->
<!-- Title: CryptProjectionForce Pages: 1 -->
<svg width="740pt" height="1501pt"
 viewBox="0.00 0.00 739.50 1501.00" xmlns="http://www.w3.org/2000/svg" xmlns:xlink="http://www.w3.org/1999/xlink">
<g id="graph0" class="graph" transform="scale(1 1) rotate(0) translate(4 1497)">
<title>CryptProjectionForce</title>
<!-- Node1 -->
<g id="Node000001" class="node">
<title>Node1</title>
<g id="a_Node000001"><a xlink:title=" ">
<polygon fill="#999999" stroke="transparent" points="607.5,-266 426.5,-266 426.5,0 607.5,0 607.5,-266"/>
<text text-anchor="start" x="466.5" y="-254" font-family="Helvetica,sans-Serif" font-size="10.00">CryptProjectionForce</text>
<text text-anchor="start" x="515.5" y="-239" font-family="Helvetica,sans-Serif" font-size="10.00"> </text>
<text text-anchor="start" x="431" y="-224" font-family="Helvetica,sans-Serif" font-size="10.00">+</text>
<text text-anchor="start" x="444" y="-224" font-family="Helvetica,sans-Serif" font-size="10.00">CryptProjectionForce()</text>
<text text-anchor="start" x="431" y="-209" font-family="Helvetica,sans-Serif" font-size="10.00">+</text>
<text text-anchor="start" x="444" y="-209" font-family="Helvetica,sans-Serif" font-size="10.00">~CryptProjectionForce()</text>
<text text-anchor="start" x="431" y="-194" font-family="Helvetica,sans-Serif" font-size="10.00">+</text>
<text text-anchor="start" x="444" y="-194" font-family="Helvetica,sans-Serif" font-size="10.00">GetA()</text>
<text text-anchor="start" x="431" y="-179" font-family="Helvetica,sans-Serif" font-size="10.00">+</text>
<text text-anchor="start" x="444" y="-179" font-family="Helvetica,sans-Serif" font-size="10.00">GetB()</text>
<text text-anchor="start" x="431" y="-164" font-family="Helvetica,sans-Serif" font-size="10.00">+</text>
<text text-anchor="start" x="444" y="-164" font-family="Helvetica,sans-Serif" font-size="10.00">GetWntChemotaxisStrength()</text>
<text text-anchor="start" x="431" y="-149" font-family="Helvetica,sans-Serif" font-size="10.00">+</text>
<text text-anchor="start" x="444" y="-149" font-family="Helvetica,sans-Serif" font-size="10.00">SetWntChemotaxisStrength()</text>
<text text-anchor="start" x="431" y="-134" font-family="Helvetica,sans-Serif" font-size="10.00">+</text>
<text text-anchor="start" x="444" y="-134" font-family="Helvetica,sans-Serif" font-size="10.00">SetWntChemotaxis()</text>
<text text-anchor="start" x="431" y="-119" font-family="Helvetica,sans-Serif" font-size="10.00">+</text>
<text text-anchor="start" x="444" y="-119" font-family="Helvetica,sans-Serif" font-size="10.00">CalculateCryptSurfaceHeight</text>
<text text-anchor="start" x="444" y="-108" font-family="Helvetica,sans-Serif" font-size="10.00">AtPoint()</text>
<text text-anchor="start" x="431" y="-93" font-family="Helvetica,sans-Serif" font-size="10.00">+</text>
<text text-anchor="start" x="444" y="-93" font-family="Helvetica,sans-Serif" font-size="10.00">CalculateCryptSurfaceDerivative</text>
<text text-anchor="start" x="444" y="-82" font-family="Helvetica,sans-Serif" font-size="10.00">AtPoint()</text>
<text text-anchor="start" x="431" y="-67" font-family="Helvetica,sans-Serif" font-size="10.00">+</text>
<text text-anchor="start" x="444" y="-67" font-family="Helvetica,sans-Serif" font-size="10.00">AddForceContribution()</text>
<text text-anchor="start" x="431" y="-52" font-family="Helvetica,sans-Serif" font-size="10.00">+</text>
<text text-anchor="start" x="444" y="-52" font-family="Helvetica,sans-Serif" font-size="10.00">OutputForceParameters()</text>
<text text-anchor="start" x="433.5" y="-37" font-family="Helvetica,sans-Serif" font-size="10.00">&#45;</text>
<text text-anchor="start" x="444" y="-37" font-family="Helvetica,sans-Serif" font-size="10.00">serialize()</text>
<text text-anchor="start" x="433.5" y="-22" font-family="Helvetica,sans-Serif" font-size="10.00">&#45;</text>
<text text-anchor="start" x="444" y="-22" font-family="Helvetica,sans-Serif" font-size="10.00">UpdateNode3dLocationMap()</text>
<text text-anchor="start" x="433.5" y="-7" font-family="Helvetica,sans-Serif" font-size="10.00">&#45;</text>
<text text-anchor="start" x="444" y="-7" font-family="Helvetica,sans-Serif" font-size="10.00">CalculateForceBetweenNodes()</text>
<polygon fill="#666666" stroke="#666666" points="427,-249 427,-249 608,-249 608,-249 427,-249"/>
<polygon fill="#666666" stroke="#666666" points="427,-234 427,-234 608,-234 608,-234 427,-234"/>
<polygon fill="none" stroke="#666666" points="426.5,0 426.5,-266 607.5,-266 607.5,0 426.5,0"/>
</a>
</g>
</g>
<!-- Node2 -->
<g id="Node000002" class="node">
<title>Node2</title>
<g id="a_Node000002"><a xlink:href="classGeneralisedLinearSpringForce.html" target="_top" xlink:title=" ">
<polygon fill="white" stroke="transparent" points="371,-571 169,-571 169,-313 371,-313 371,-571"/>
<text text-anchor="start" x="182.5" y="-559" font-family="Helvetica,sans-Serif" font-size="10.00">GeneralisedLinearSpringForce&lt; 2 &gt;</text>
<text text-anchor="start" x="268" y="-544" font-family="Helvetica,sans-Serif" font-size="10.00"> </text>
<text text-anchor="start" x="173" y="-529" font-family="Helvetica,sans-Serif" font-size="10.00">+</text>
<text text-anchor="start" x="186" y="-529" font-family="Helvetica,sans-Serif" font-size="10.00">GeneralisedLinearSpringForce()</text>
<text text-anchor="start" x="173" y="-514" font-family="Helvetica,sans-Serif" font-size="10.00">+</text>
<text text-anchor="start" x="186" y="-514" font-family="Helvetica,sans-Serif" font-size="10.00">~GeneralisedLinearSpring</text>
<text text-anchor="start" x="186" y="-503" font-family="Helvetica,sans-Serif" font-size="10.00">Force()</text>
<text text-anchor="start" x="173" y="-488" font-family="Helvetica,sans-Serif" font-size="10.00">+</text>
<text text-anchor="start" x="186" y="-488" font-family="Helvetica,sans-Serif" font-size="10.00">VariableSpringConstantMultiplication</text>
<text text-anchor="start" x="186" y="-477" font-family="Helvetica,sans-Serif" font-size="10.00">Factor()</text>
<text text-anchor="start" x="173" y="-462" font-family="Helvetica,sans-Serif" font-size="10.00">+</text>
<text text-anchor="start" x="186" y="-462" font-family="Helvetica,sans-Serif" font-size="10.00">CalculateForceBetweenNodes()</text>
<text text-anchor="start" x="173" y="-447" font-family="Helvetica,sans-Serif" font-size="10.00">+</text>
<text text-anchor="start" x="186" y="-447" font-family="Helvetica,sans-Serif" font-size="10.00">GetMeinekeSpringStiffness()</text>
<text text-anchor="start" x="173" y="-432" font-family="Helvetica,sans-Serif" font-size="10.00">+</text>
<text text-anchor="start" x="186" y="-432" font-family="Helvetica,sans-Serif" font-size="10.00">GetMeinekeDivisionResting</text>
<text text-anchor="start" x="186" y="-421" font-family="Helvetica,sans-Serif" font-size="10.00">SpringLength()</text>
<text text-anchor="start" x="173" y="-406" font-family="Helvetica,sans-Serif" font-size="10.00">+</text>
<text text-anchor="start" x="186" y="-406" font-family="Helvetica,sans-Serif" font-size="10.00">GetMeinekeSpringGrowthDuration()</text>
<text text-anchor="start" x="173" y="-391" font-family="Helvetica,sans-Serif" font-size="10.00">+</text>
<text text-anchor="start" x="186" y="-391" font-family="Helvetica,sans-Serif" font-size="10.00">SetMeinekeSpringStiffness()</text>
<text text-anchor="start" x="173" y="-376" font-family="Helvetica,sans-Serif" font-size="10.00">+</text>
<text text-anchor="start" x="186" y="-376" font-family="Helvetica,sans-Serif" font-size="10.00">SetMeinekeDivisionResting</text>
<text text-anchor="start" x="186" y="-365" font-family="Helvetica,sans-Serif" font-size="10.00">SpringLength()</text>
<text text-anchor="start" x="173" y="-350" font-family="Helvetica,sans-Serif" font-size="10.00">+</text>
<text text-anchor="start" x="186" y="-350" font-family="Helvetica,sans-Serif" font-size="10.00">SetMeinekeSpringGrowthDuration()</text>
<text text-anchor="start" x="173" y="-335" font-family="Helvetica,sans-Serif" font-size="10.00">+</text>
<text text-anchor="start" x="186" y="-335" font-family="Helvetica,sans-Serif" font-size="10.00">OutputForceParameters()</text>
<text text-anchor="start" x="175.5" y="-320" font-family="Helvetica,sans-Serif" font-size="10.00">&#45;</text>
<text text-anchor="start" x="186" y="-320" font-family="Helvetica,sans-Serif" font-size="10.00">serialize()</text>
<polygon fill="#666666" stroke="#666666" points="169,-554 169,-554 371,-554 371,-554 169,-554"/>
<polygon fill="#666666" stroke="#666666" points="169,-539 169,-539 371,-539 371,-539 169,-539"/>
<polygon fill="none" stroke="#666666" points="169,-313 169,-571 371,-571 371,-313 169,-313"/>
</a>
</g>
</g>
<!-- Node2&#45;&gt;Node1 -->
<g id="edge1_Node000001_Node000002" class="edge">
<title>Node2&#45;&gt;Node1</title>
<g id="a_edge1_Node000001_Node000002"><a xlink:title=" ">
<path fill="none" stroke="#63b8ff" d="M377.62,-307.24C393.85,-287.06 410.46,-266.43 426.29,-246.75"/>
<polygon fill="none" stroke="#63b8ff" points="374.72,-305.26 371.18,-315.25 380.17,-309.65 374.72,-305.26"/>
</a>
</g>
</g>
<!-- Node3 -->
<g id="Node000003" class="node">
<title>Node3</title>
<g id="a_Node000003"><a xlink:href="classAbstractTwoBodyInteractionForce.html" target="_top" xlink:title=" ">
<polygon fill="white" stroke="transparent" points="267.5,-1169 76.5,-1169 76.5,-967 267.5,-967 267.5,-1169"/>
<text text-anchor="start" x="82" y="-1157" font-family="Helvetica,sans-Serif" font-size="10.00">AbstractTwoBodyInteraction</text>
<text text-anchor="start" x="82" y="-1146" font-family="Helvetica,sans-Serif" font-size="10.00">Force&lt; ELEMENT_DIM, SPACE_DIM &gt;</text>
<text text-anchor="start" x="170.5" y="-1131" font-family="Helvetica,sans-Serif" font-size="10.00"> </text>
<text text-anchor="start" x="85" y="-1116" font-family="Helvetica,sans-Serif" font-size="10.00">+</text>
<text text-anchor="start" x="102" y="-1116" font-family="Helvetica,sans-Serif" font-size="10.00">AbstractTwoBodyInteraction</text>
<text text-anchor="start" x="102" y="-1105" font-family="Helvetica,sans-Serif" font-size="10.00">Force()</text>
<text text-anchor="start" x="85" y="-1090" font-family="Helvetica,sans-Serif" font-size="10.00">+</text>
<text text-anchor="start" x="102" y="-1090" font-family="Helvetica,sans-Serif" font-size="10.00">GetUseCutOffLength()</text>
<text text-anchor="start" x="85" y="-1075" font-family="Helvetica,sans-Serif" font-size="10.00">+</text>
<text text-anchor="start" x="102" y="-1075" font-family="Helvetica,sans-Serif" font-size="10.00">SetCutOffLength()</text>
<text text-anchor="start" x="85" y="-1060" font-family="Helvetica,sans-Serif" font-size="10.00">+</text>
<text text-anchor="start" x="102" y="-1060" font-family="Helvetica,sans-Serif" font-size="10.00">GetCutOffLength()</text>
<text text-anchor="start" x="85" y="-1045" font-family="Helvetica,sans-Serif" font-size="10.00">+</text>
<text text-anchor="start" x="102" y="-1045" font-family="Helvetica,sans-Serif" font-size="10.00">CalculateForceBetweenNodes()</text>
<text text-anchor="start" x="85" y="-1030" font-family="Helvetica,sans-Serif" font-size="10.00">+</text>
<text text-anchor="start" x="102" y="-1030" font-family="Helvetica,sans-Serif" font-size="10.00">AddForceContribution()</text>
<text text-anchor="start" x="85" y="-1015" font-family="Helvetica,sans-Serif" font-size="10.00">+</text>
<text text-anchor="start" x="102" y="-1015" font-family="Helvetica,sans-Serif" font-size="10.00">OutputForceParameters()</text>
<text text-anchor="start" x="85" y="-1000" font-family="Helvetica,sans-Serif" font-size="10.00">+</text>
<text text-anchor="start" x="102" y="-1000" font-family="Helvetica,sans-Serif" font-size="10.00">WriteDataToVisualizerSetup</text>
<text text-anchor="start" x="102" y="-989" font-family="Helvetica,sans-Serif" font-size="10.00">File()</text>
<text text-anchor="start" x="87.5" y="-974" font-family="Helvetica,sans-Serif" font-size="10.00">&#45;</text>
<text text-anchor="start" x="102" y="-974" font-family="Helvetica,sans-Serif" font-size="10.00">serialize()</text>
<polygon fill="#666666" stroke="#666666" points="77,-1141 77,-1141 268,-1141 268,-1141 77,-1141"/>
<polygon fill="#666666" stroke="#666666" points="77,-1126 77,-1126 268,-1126 268,-1126 77,-1126"/>
<polygon fill="none" stroke="#666666" points="76.5,-967 76.5,-1169 267.5,-1169 267.5,-967 76.5,-967"/>
</a>
</g>
</g>
<!-- Node3&#45;&gt;Node2 -->
<g id="edge2_Node000002_Node000003" class="edge">
<title>Node3&#45;&gt;Node2</title>
<g id="a_edge2_Node000002_Node000003"><a xlink:title=" ">
<path fill="none" stroke="#63b8ff" d="M173.97,-956.75C177.64,-859.03 187.87,-713.02 216,-589 217.34,-583.07 218.87,-577.05 220.53,-571.01"/>
<polygon fill="none" stroke="#63b8ff" points="170.46,-956.82 173.6,-966.94 177.46,-957.07 170.46,-956.82"/>
</a>
</g>
</g>
<!-- Node8 -->
<g id="Node000008" class="node">
<title>Node8</title>
<g id="a_Node000008"><a xlink:href="classGeneralisedLinearSpringForce.html" target="_top" xlink:title=" ">
<polygon fill="white" stroke="transparent" points="460,-887 258,-887 258,-618 460,-618 460,-887"/>
<text text-anchor="start" x="281.5" y="-874.5" font-family="Helvetica,sans-Serif" font-size="10.00">GeneralisedLinearSpringForce</text>
<text text-anchor="start" x="281.5" y="-863.5" font-family="Helvetica,sans-Serif" font-size="10.00">&lt; ELEMENT_DIM, SPACE_DIM &gt;</text>
<text text-anchor="start" x="357" y="-848.5" font-family="Helvetica,sans-Serif" font-size="10.00"> </text>
<text text-anchor="start" x="262" y="-833.5" font-family="Helvetica,sans-Serif" font-size="10.00">+</text>
<text text-anchor="start" x="275" y="-833.5" font-family="Helvetica,sans-Serif" font-size="10.00">GeneralisedLinearSpringForce()</text>
<text text-anchor="start" x="262" y="-818.5" font-family="Helvetica,sans-Serif" font-size="10.00">+</text>
<text text-anchor="start" x="275" y="-818.5" font-family="Helvetica,sans-Serif" font-size="10.00">~GeneralisedLinearSpring</text>
<text text-anchor="start" x="275" y="-807.5" font-family="Helvetica,sans-Serif" font-size="10.00">Force()</text>
<text text-anchor="start" x="262" y="-792.5" font-family="Helvetica,sans-Serif" font-size="10.00">+</text>
<text text-anchor="start" x="275" y="-792.5" font-family="Helvetica,sans-Serif" font-size="10.00">VariableSpringConstantMultiplication</text>
<text text-anchor="start" x="275" y="-781.5" font-family="Helvetica,sans-Serif" font-size="10.00">Factor()</text>
<text text-anchor="start" x="262" y="-766.5" font-family="Helvetica,sans-Serif" font-size="10.00">+</text>
<text text-anchor="start" x="275" y="-766.5" font-family="Helvetica,sans-Serif" font-size="10.00">CalculateForceBetweenNodes()</text>
<text text-anchor="start" x="262" y="-751.5" font-family="Helvetica,sans-Serif" font-size="10.00">+</text>
<text text-anchor="start" x="275" y="-751.5" font-family="Helvetica,sans-Serif" font-size="10.00">GetMeinekeSpringStiffness()</text>
<text text-anchor="start" x="262" y="-736.5" font-family="Helvetica,sans-Serif" font-size="10.00">+</text>
<text text-anchor="start" x="275" y="-736.5" font-family="Helvetica,sans-Serif" font-size="10.00">GetMeinekeDivisionResting</text>
<text text-anchor="start" x="275" y="-725.5" font-family="Helvetica,sans-Serif" font-size="10.00">SpringLength()</text>
<text text-anchor="start" x="262" y="-710.5" font-family="Helvetica,sans-Serif" font-size="10.00">+</text>
<text text-anchor="start" x="275" y="-710.5" font-family="Helvetica,sans-Serif" font-size="10.00">GetMeinekeSpringGrowthDuration()</text>
<text text-anchor="start" x="262" y="-695.5" font-family="Helvetica,sans-Serif" font-size="10.00">+</text>
<text text-anchor="start" x="275" y="-695.5" font-family="Helvetica,sans-Serif" font-size="10.00">SetMeinekeSpringStiffness()</text>
<text text-anchor="start" x="262" y="-680.5" font-family="Helvetica,sans-Serif" font-size="10.00">+</text>
<text text-anchor="start" x="275" y="-680.5" font-family="Helvetica,sans-Serif" font-size="10.00">SetMeinekeDivisionResting</text>
<text text-anchor="start" x="275" y="-669.5" font-family="Helvetica,sans-Serif" font-size="10.00">SpringLength()</text>
<text text-anchor="start" x="262" y="-654.5" font-family="Helvetica,sans-Serif" font-size="10.00">+</text>
<text text-anchor="start" x="275" y="-654.5" font-family="Helvetica,sans-Serif" font-size="10.00">SetMeinekeSpringGrowthDuration()</text>
<text text-anchor="start" x="262" y="-639.5" font-family="Helvetica,sans-Serif" font-size="10.00">+</text>
<text text-anchor="start" x="275" y="-639.5" font-family="Helvetica,sans-Serif" font-size="10.00">OutputForceParameters()</text>
<text text-anchor="start" x="264.5" y="-624.5" font-family="Helvetica,sans-Serif" font-size="10.00">&#45;</text>
<text text-anchor="start" x="275" y="-624.5" font-family="Helvetica,sans-Serif" font-size="10.00">serialize()</text>
<polygon fill="#666666" stroke="#666666" points="258,-858.5 258,-858.5 460,-858.5 460,-858.5 258,-858.5"/>
<polygon fill="#666666" stroke="#666666" points="258,-843.5 258,-843.5 460,-843.5 460,-843.5 258,-843.5"/>
<polygon fill="none" stroke="#666666" points="258,-618 258,-887 460,-887 460,-618 258,-618"/>
</a>
</g>
</g>
<!-- Node3&#45;&gt;Node8 -->
<g id="edge9_Node000008_Node000003" class="edge">
<title>Node3&#45;&gt;Node8</title>
<g id="a_edge9_Node000008_Node000003"><a xlink:title=" ">
<path fill="none" stroke="#63b8ff" d="M190.08,-956.68C195.37,-938.78 202.2,-920.91 211,-905 223.45,-882.47 240.16,-860.94 257.87,-841.54"/>
<polygon fill="none" stroke="#63b8ff" points="186.62,-956.04 187.29,-966.62 193.36,-957.93 186.62,-956.04"/>
</a>
</g>
</g>
<!-- Node4 -->
<g id="Node000004" class="node">
<title>Node4</title>
<g id="a_Node000004"><a xlink:href="classAbstractForce.html" target="_top" xlink:title=" ">
<polygon fill="white" stroke="transparent" points="230.5,-1377 73.5,-1377 73.5,-1216 230.5,-1216 230.5,-1377"/>
<text text-anchor="start" x="90.5" y="-1364.5" font-family="Helvetica,sans-Serif" font-size="10.00">AbstractForce&lt; ELEMENT</text>
<text text-anchor="start" x="103.5" y="-1353.5" font-family="Helvetica,sans-Serif" font-size="10.00">_DIM, SPACE_DIM &gt;</text>
<text text-anchor="start" x="150.5" y="-1338.5" font-family="Helvetica,sans-Serif" font-size="10.00"> </text>
<text text-anchor="start" x="78" y="-1323.5" font-family="Helvetica,sans-Serif" font-size="10.00">+</text>
<text text-anchor="start" x="91" y="-1323.5" font-family="Helvetica,sans-Serif" font-size="10.00">AbstractForce()</text>
<text text-anchor="start" x="78" y="-1308.5" font-family="Helvetica,sans-Serif" font-size="10.00">+</text>
<text text-anchor="start" x="91" y="-1308.5" font-family="Helvetica,sans-Serif" font-size="10.00">~AbstractForce()</text>
<text text-anchor="start" x="78" y="-1293.5" font-family="Helvetica,sans-Serif" font-size="10.00">+</text>
<text text-anchor="start" x="91" y="-1293.5" font-family="Helvetica,sans-Serif" font-size="10.00">AddForceContribution()</text>
<text text-anchor="start" x="78" y="-1278.5" font-family="Helvetica,sans-Serif" font-size="10.00">+</text>
<text text-anchor="start" x="91" y="-1278.5" font-family="Helvetica,sans-Serif" font-size="10.00">OutputForceInfo()</text>
<text text-anchor="start" x="78" y="-1263.5" font-family="Helvetica,sans-Serif" font-size="10.00">+</text>
<text text-anchor="start" x="91" y="-1263.5" font-family="Helvetica,sans-Serif" font-size="10.00">OutputForceParameters()</text>
<text text-anchor="start" x="78" y="-1248.5" font-family="Helvetica,sans-Serif" font-size="10.00">+</text>
<text text-anchor="start" x="91" y="-1248.5" font-family="Helvetica,sans-Serif" font-size="10.00">WriteDataToVisualizerSetup</text>
<text text-anchor="start" x="91" y="-1237.5" font-family="Helvetica,sans-Serif" font-size="10.00">File()</text>
<text text-anchor="start" x="80.5" y="-1222.5" font-family="Helvetica,sans-Serif" font-size="10.00">&#45;</text>
<text text-anchor="start" x="91" y="-1222.5" font-family="Helvetica,sans-Serif" font-size="10.00">serialize()</text>
<polygon fill="#666666" stroke="#666666" points="74,-1348.5 74,-1348.5 231,-1348.5 231,-1348.5 74,-1348.5"/>
<polygon fill="#666666" stroke="#666666" points="74,-1333.5 74,-1333.5 231,-1333.5 231,-1333.5 74,-1333.5"/>
<polygon fill="none" stroke="#666666" points="73.5,-1216 73.5,-1377 230.5,-1377 230.5,-1216 73.5,-1216"/>
</a>
</g>
</g>
<!-- Node4&#45;&gt;Node3 -->
<g id="edge3_Node000003_Node000004" class="edge">
<title>Node4&#45;&gt;Node3</title>
<g id="a_edge3_Node000003_Node000004"><a xlink:title=" ">
<path fill="none" stroke="#63b8ff" d="M159.91,-1205.89C160.98,-1193.79 162.08,-1181.3 163.17,-1169.03"/>
<polygon fill="none" stroke="#63b8ff" points="156.42,-1205.69 159.02,-1215.96 163.39,-1206.31 156.42,-1205.69"/>
</a>
</g>
</g>
<!-- Node5 -->
<g id="Node000005" class="node">
<title>Node5</title>
<g id="a_Node000005"><a xlink:href="classIdentifiable.html" target="_top" xlink:title=" ">
<polygon fill="white" stroke="transparent" points="240,-1493 64,-1493 64,-1414 240,-1414 240,-1493"/>
<text text-anchor="start" x="124.5" y="-1480.5" font-family="Helvetica,sans-Serif" font-size="10.00">Identifiable</text>
<text text-anchor="start" x="150" y="-1465.5" font-family="Helvetica,sans-Serif" font-size="10.00"> </text>
<text text-anchor="start" x="68" y="-1450.5" font-family="Helvetica,sans-Serif" font-size="10.00">+</text>
<text text-anchor="start" x="81" y="-1450.5" font-family="Helvetica,sans-Serif" font-size="10.00">~Identifiable()</text>
<text text-anchor="start" x="68" y="-1435.5" font-family="Helvetica,sans-Serif" font-size="10.00">+</text>
<text text-anchor="start" x="81" y="-1435.5" font-family="Helvetica,sans-Serif" font-size="10.00">GetIdentifier()</text>
<text text-anchor="start" x="70.5" y="-1420.5" font-family="Helvetica,sans-Serif" font-size="10.00">&#45;</text>
<text text-anchor="start" x="81" y="-1420.5" font-family="Helvetica,sans-Serif" font-size="10.00">TidyTemplatedExportIdentifier()</text>
<polygon fill="#666666" stroke="#666666" points="64,-1475.5 64,-1475.5 240,-1475.5 240,-1475.5 64,-1475.5"/>
<polygon fill="#666666" stroke="#666666" points="64,-1460.5 64,-1460.5 240,-1460.5 240,-1460.5 64,-1460.5"/>
<polygon fill="none" stroke="#666666" points="64,-1414 64,-1493 240,-1493 240,-1414 64,-1414"/>
</a>
</g>
</g>
<!-- Node5&#45;&gt;Node4 -->
<g id="edge4_Node000004_Node000005" class="edge">
<title>Node5&#45;&gt;Node4</title>
<g id="a_edge4_Node000004_Node000005"><a xlink:title=" ">
<path fill="none" stroke="#63b8ff" d="M152,-1403.73C152,-1395.25 152,-1386.23 152,-1377.17"/>
<polygon fill="none" stroke="#63b8ff" points="148.5,-1403.79 152,-1413.79 155.5,-1403.79 148.5,-1403.79"/>
</a>
</g>
</g>
<!-- Node6 -->
<g id="Node000006" class="node">
<title>Node6</title>
<g id="a_Node000006"><a xlink:href="classbool.html" target="_top" xlink:title=" ">
<polygon fill="white" stroke="transparent" points="33,-1321 1,-1321 1,-1272 33,-1272 33,-1321"/>
<text text-anchor="start" x="6" y="-1308.5" font-family="Helvetica,sans-Serif" font-size="10.00">bool</text>
<text text-anchor="start" x="15" y="-1293.5" font-family="Helvetica,sans-Serif" font-size="10.00"> </text>
<text text-anchor="start" x="15" y="-1278.5" font-family="Helvetica,sans-Serif" font-size="10.00"> </text>
<polygon fill="#bfbfbf" stroke="#bfbfbf" points="1,-1303.5 1,-1303.5 33,-1303.5 33,-1303.5 1,-1303.5"/>
<polygon fill="#bfbfbf" stroke="#bfbfbf" points="1,-1288.5 1,-1288.5 33,-1288.5 33,-1288.5 1,-1288.5"/>
<polygon fill="none" stroke="#bfbfbf" points="1,-1272 1,-1321 33,-1321 33,-1272 1,-1272"/>
</a>
</g>
</g>
<!-- Node6&#45;&gt;Node1 -->
<g id="edge12_Node000001_Node000006" class="edge">
<title>Node6&#45;&gt;Node1</title>
<g id="a_edge12_Node000001_Node000006"><a xlink:title=" ">
<path fill="none" stroke="#63b8ff" d="M14.04,-1271.74C9.17,-1230.54 0,-1143.14 0,-1069 0,-1069 0,-1069 0,-441 0,-250.18 263.61,-175.34 414.36,-148.14"/>
<polygon fill="none" stroke="#63b8ff" points="414.53,-148.11 419.75,-143.13 426.35,-146.04 421.14,-151.01 414.53,-148.11"/>
</a>
</g>
<text text-anchor="middle" x="65" y="-750" font-family="Helvetica,sans-Serif" font-size="10.00" fill="grey"> &#45;mIncludeWntChemotaxis</text>
</g>
<!-- Node6&#45;&gt;Node3 -->
<g id="edge5_Node000003_Node000006" class="edge">
<title>Node6&#45;&gt;Node3</title>
<g id="a_edge5_Node000003_Node000006"><a xlink:title=" ">
<path fill="none" stroke="#63b8ff" d="M21.52,-1271.69C26.64,-1248.73 36.48,-1213.65 53,-1187 57.64,-1179.52 62.84,-1172.16 68.41,-1165"/>
<polygon fill="none" stroke="#63b8ff" points="68.67,-1164.68 69.33,-1157.5 76.22,-1155.36 75.55,-1162.54 68.67,-1164.68"/>
</a>
</g>
<text text-anchor="middle" x="105" y="-1190" font-family="Helvetica,sans-Serif" font-size="10.00" fill="grey"> #mUseCutOffLength</text>
</g>
<!-- Node7 -->
<g id="Node000007" class="node">
<title>Node7</title>
<g id="a_Node000007"><a xlink:href="classdouble.html" target="_top" xlink:title=" ">
<polygon fill="white" stroke="transparent" points="376,-1321 332,-1321 332,-1272 376,-1272 376,-1321"/>
<text text-anchor="start" x="337" y="-1308.5" font-family="Helvetica,sans-Serif" font-size="10.00">double</text>
<text text-anchor="start" x="352" y="-1293.5" font-family="Helvetica,sans-Serif" font-size="10.00"> </text>
<text text-anchor="start" x="352" y="-1278.5" font-family="Helvetica,sans-Serif" font-size="10.00"> </text>
<polygon fill="#bfbfbf" stroke="#bfbfbf" points="332,-1303.5 332,-1303.5 376,-1303.5 376,-1303.5 332,-1303.5"/>
<polygon fill="#bfbfbf" stroke="#bfbfbf" points="332,-1288.5 332,-1288.5 376,-1288.5 376,-1288.5 332,-1288.5"/>
<polygon fill="none" stroke="#bfbfbf" points="332,-1272 332,-1321 376,-1321 376,-1272 332,-1272"/>
</a>
</g>
</g>
<!-- Node7&#45;&gt;Node1 -->
<g id="edge11_Node000001_Node000007" class="edge">
<title>Node7&#45;&gt;Node1</title>
<g id="a_edge11_Node000001_Node000007"><a xlink:title=" ">
<path fill="none" stroke="#63b8ff" d="M376.24,-1288.51C418.69,-1273.89 510.9,-1235.8 554,-1169 578.33,-1131.29 568,-1113.88 568,-1069 568,-1069 568,-1069 568,-441 568,-387.37 560.33,-329.17 550.94,-278.01"/>
<polygon fill="none" stroke="#63b8ff" points="550.94,-277.98 545.9,-272.82 548.72,-266.18 553.76,-271.34 550.94,-277.98"/>
</a>
</g>
<text text-anchor="middle" x="634.5" y="-761" font-family="Helvetica,sans-Serif" font-size="10.00" fill="grey"> &#45;mA</text>
<text text-anchor="middle" x="634.5" y="-750" font-family="Helvetica,sans-Serif" font-size="10.00" fill="grey">&#45;mB</text>
<text text-anchor="middle" x="634.5" y="-739" font-family="Helvetica,sans-Serif" font-size="10.00" fill="grey">&#45;mWntChemotaxisStrength</text>
</g>
<!-- Node7&#45;&gt;Node2 -->
<g id="edge7_Node000002_Node000007" class="edge">
<title>Node7&#45;&gt;Node2</title>
<g id="a_edge7_Node000002_Node000007"><a xlink:title=" ">
<path fill="none" stroke="#63b8ff" d="M355.46,-1271.85C357.79,-1212.69 355.58,-1056.65 276,-967 260.6,-949.65 240.28,-968.02 227,-949 219.54,-938.32 215.64,-957.39 249,-618 250.11,-606.7 251.34,-595 252.63,-583.25"/>
<polygon fill="none" stroke="#63b8ff" points="252.67,-582.93 249.36,-576.52 254,-571 257.31,-577.41 252.67,-582.93"/>
</a>
</g>
<text text-anchor="start" x="227" y="-941" font-family="Helvetica,sans-Serif" font-size="10.00" fill="grey"> #mMeinekeDivisionResting</text>
<text text-anchor="middle" x="311" y="-930" font-family="Helvetica,sans-Serif" font-size="10.00" fill="grey">SpringLength</text>
<text text-anchor="middle" x="311" y="-919" font-family="Helvetica,sans-Serif" font-size="10.00" fill="grey">#mMeinekeSpringGrowthDuration</text>
<text text-anchor="middle" x="311" y="-908" font-family="Helvetica,sans-Serif" font-size="10.00" fill="grey">#mMeinekeSpringStiffness</text>
</g>
<!-- Node7&#45;&gt;Node3 -->
<g id="edge6_Node000003_Node000007" class="edge">
<title>Node7&#45;&gt;Node3</title>
<g id="a_edge6_Node000003_Node000007"><a xlink:title=" ">
<path fill="none" stroke="#63b8ff" d="M331.83,-1277.38C309.49,-1259.81 273.47,-1233.34 239,-1216 216.78,-1204.82 201.56,-1217.41 186,-1198 181.73,-1192.67 178.27,-1186.8 175.5,-1180.58"/>
<polygon fill="none" stroke="#63b8ff" points="175.4,-1180.31 169.56,-1176.08 171.21,-1169.06 177.05,-1173.29 175.4,-1180.31"/>
</a>
</g>
<text text-anchor="middle" x="254.5" y="-1190" font-family="Helvetica,sans-Serif" font-size="10.00" fill="grey"> #mMechanicsCutOffLength</text>
</g>
<!-- Node7&#45;&gt;Node8 -->
<g id="edge10_Node000008_Node000007" class="edge">
<title>Node7&#45;&gt;Node8</title>
<g id="a_edge10_Node000008_Node000007"><a xlink:title=" ">
<path fill="none" stroke="#63b8ff" d="M354.72,-1271.54C356.94,-1205.64 364.88,-1022.88 386,-967 389.49,-957.77 395.96,-958.39 399,-949 405.02,-930.39 401.52,-924.39 399,-905 398.75,-903.1 398.49,-901.18 398.21,-899.26"/>
<polygon fill="none" stroke="#63b8ff" points="398.2,-899.22 393.31,-893.93 396.31,-887.37 401.2,-892.67 398.2,-899.22"/>
</a>
</g>
<text text-anchor="start" x="386" y="-1082" font-family="Helvetica,sans-Serif" font-size="10.00" fill="grey"> #mMeinekeDivisionResting</text>
<text text-anchor="middle" x="470" y="-1071" font-family="Helvetica,sans-Serif" font-size="10.00" fill="grey">SpringLength</text>
<text text-anchor="middle" x="470" y="-1060" font-family="Helvetica,sans-Serif" font-size="10.00" fill="grey">#mMeinekeSpringGrowthDuration</text>
<text text-anchor="middle" x="470" y="-1049" font-family="Helvetica,sans-Serif" font-size="10.00" fill="grey">#mMeinekeSpringStiffness</text>
</g>
<!-- Node8&#45;&gt;Node2 -->
<g id="edge8_Node000002_Node000008" class="edge">
<title>Node8&#45;&gt;Node2</title>
<g id="a_edge8_Node000002_Node000008"><a xlink:title=" ">
<path fill="none" stroke="orange" d="M317.65,-608.16C314.11,-595.88 310.54,-583.51 307.03,-571.36"/>
<polygon fill="orange" stroke="orange" points="314.35,-609.34 320.48,-617.98 321.07,-607.4 314.35,-609.34"/>
</a>
</g>
<text text-anchor="middle" x="331" y="-592" font-family="Helvetica,sans-Serif" font-size="10.00" fill="grey"> &lt; 2 &gt;</text>
</g>
<!-- Node9 -->
<g id="Node000009" class="node">
<title>Node9</title>
<g id="a_Node000009"><a xlink:title=" ">
<polygon fill="white" stroke="transparent" points="731.5,-472 596.5,-472 596.5,-412 731.5,-412 731.5,-472"/>
<text text-anchor="start" x="602" y="-460" font-family="Helvetica,sans-Serif" font-size="10.00">map&lt; unsigned, c_vector</text>
<text text-anchor="start" x="625" y="-449" font-family="Helvetica,sans-Serif" font-size="10.00">&lt; double, 3 &gt; &gt;</text>
<text text-anchor="start" x="662.5" y="-434" font-family="Helvetica,sans-Serif" font-size="10.00"> </text>
<text text-anchor="start" x="662.5" y="-419" font-family="Helvetica,sans-Serif" font-size="10.00"> </text>
<polygon fill="#bfbfbf" stroke="#bfbfbf" points="597,-444 597,-444 732,-444 732,-444 597,-444"/>
<polygon fill="#bfbfbf" stroke="#bfbfbf" points="597,-429 597,-429 732,-429 732,-429 597,-429"/>
<polygon fill="none" stroke="#bfbfbf" points="596.5,-412 596.5,-472 731.5,-472 731.5,-412 596.5,-412"/>
</a>
</g>
</g>
<!-- Node9&#45;&gt;Node1 -->
<g id="edge13_Node000001_Node000009" class="edge">
<title>Node9&#45;&gt;Node1</title>
<g id="a_edge13_Node000001_Node000009"><a xlink:title=" ">
<path fill="none" stroke="#63b8ff" d="M650.04,-411.84C634.98,-380.4 609.89,-327.99 585.53,-277.11"/>
<polygon fill="none" stroke="#63b8ff" points="585.52,-277.11 579.33,-273.43 580.34,-266.29 586.54,-269.97 585.52,-277.11"/>
</a>
</g>
<text text-anchor="middle" x="649.5" y="-287" font-family="Helvetica,sans-Serif" font-size="10.00" fill="grey"> &#45;mNode3dLocationMap</text>
</g>
</g>
</svg>
