<?xml version="1.0" encoding="UTF-8" standalone="no"?>
<!DOCTYPE svg PUBLIC "-//W3C//DTD SVG 1.1//EN"
 "http://www.w3.org/Graphics/SVG/1.1/DTD/svg11.dtd">
<!-- Generated by graphviz version 2.43.0 (0)
 -->
<!-- Title: AbstractLinearParabolicPde&lt; ELEMENT_DIM, SPACE_DIM &gt; Pages: 1 -->
<svg width="200pt" height="295pt"
 viewBox="0.00 0.00 200.00 295.00" xmlns="http://www.w3.org/2000/svg" xmlns:xlink="http://www.w3.org/1999/xlink">
<g id="graph0" class="graph" transform="scale(1 1) rotate(0) translate(4 291)">
<title>AbstractLinearParabolicPde&lt; ELEMENT_DIM, SPACE_DIM &gt;</title>
<!-- Node1 -->
<g id="Node000001" class="node">
<title>Node1</title>
<g id="a_Node000001"><a xlink:title=" ">
<polygon fill="#999999" stroke="transparent" points="192,-161 0,-161 0,0 192,0 192,-161"/>
<text text-anchor="start" x="18.5" y="-148.5" font-family="Helvetica,sans-Serif" font-size="10.00">AbstractLinearParabolicPde</text>
<text text-anchor="start" x="18.5" y="-137.5" font-family="Helvetica,sans-Serif" font-size="10.00">&lt; ELEMENT_DIM, SPACE_DIM &gt;</text>
<text text-anchor="start" x="94" y="-122.5" font-family="Helvetica,sans-Serif" font-size="10.00"> </text>
<text text-anchor="start" x="4" y="-107.5" font-family="Helvetica,sans-Serif" font-size="10.00">+</text>
<text text-anchor="start" x="17" y="-107.5" font-family="Helvetica,sans-Serif" font-size="10.00">AbstractLinearParabolicPde()</text>
<text text-anchor="start" x="4" y="-92.5" font-family="Helvetica,sans-Serif" font-size="10.00">+</text>
<text text-anchor="start" x="17" y="-92.5" font-family="Helvetica,sans-Serif" font-size="10.00">~AbstractLinearParabolic</text>
<text text-anchor="start" x="17" y="-81.5" font-family="Helvetica,sans-Serif" font-size="10.00">Pde()</text>
<text text-anchor="start" x="4" y="-66.5" font-family="Helvetica,sans-Serif" font-size="10.00">+</text>
<text text-anchor="start" x="17" y="-66.5" font-family="Helvetica,sans-Serif" font-size="10.00">ComputeDuDtCoefficientFunction()</text>
<text text-anchor="start" x="4" y="-51.5" font-family="Helvetica,sans-Serif" font-size="10.00">+</text>
<text text-anchor="start" x="17" y="-51.5" font-family="Helvetica,sans-Serif" font-size="10.00">ComputeSourceTerm()</text>
<text text-anchor="start" x="4" y="-36.5" font-family="Helvetica,sans-Serif" font-size="10.00">+</text>
<text text-anchor="start" x="17" y="-36.5" font-family="Helvetica,sans-Serif" font-size="10.00">ComputeSourceTermAtNode()</text>
<text text-anchor="start" x="4" y="-21.5" font-family="Helvetica,sans-Serif" font-size="10.00">+</text>
<text text-anchor="start" x="17" y="-21.5" font-family="Helvetica,sans-Serif" font-size="10.00">ComputeDiffusionTerm()</text>
<text text-anchor="start" x="6.5" y="-6.5" font-family="Helvetica,sans-Serif" font-size="10.00">&#45;</text>
<text text-anchor="start" x="17" y="-6.5" font-family="Helvetica,sans-Serif" font-size="10.00">serialize()</text>
<polygon fill="#666666" stroke="#666666" points="0,-132.5 0,-132.5 192,-132.5 192,-132.5 0,-132.5"/>
<polygon fill="#666666" stroke="#666666" points="0,-117.5 0,-117.5 192,-117.5 192,-117.5 0,-117.5"/>
<polygon fill="none" stroke="#666666" points="0,0 0,-161 192,-161 192,0 0,0"/>
</a>
</g>
</g>
<!-- Node2 -->
<g id="Node000002" class="node">
<title>Node2</title>
<g id="a_Node000002"><a xlink:href="classAbstractLinearPde.html" target="_top" xlink:title=" ">
<polygon fill="white" stroke="transparent" points="174.5,-287 17.5,-287 17.5,-197 174.5,-197 174.5,-287"/>
<text text-anchor="start" x="23" y="-275" font-family="Helvetica,sans-Serif" font-size="10.00">AbstractLinearPde&lt;</text>
<text text-anchor="start" x="23" y="-264" font-family="Helvetica,sans-Serif" font-size="10.00"> ELEMENT_DIM, SPACE_DIM &gt;</text>
<text text-anchor="start" x="94.5" y="-249" font-family="Helvetica,sans-Serif" font-size="10.00"> </text>
<text text-anchor="start" x="29.5" y="-234" font-family="Helvetica,sans-Serif" font-size="10.00">+</text>
<text text-anchor="start" x="50" y="-234" font-family="Helvetica,sans-Serif" font-size="10.00">AbstractLinearPde()</text>
<text text-anchor="start" x="29.5" y="-219" font-family="Helvetica,sans-Serif" font-size="10.00">+</text>
<text text-anchor="start" x="50" y="-219" font-family="Helvetica,sans-Serif" font-size="10.00">~AbstractLinearPde()</text>
<text text-anchor="start" x="32" y="-204" font-family="Helvetica,sans-Serif" font-size="10.00">&#45;</text>
<text text-anchor="start" x="50" y="-204" font-family="Helvetica,sans-Serif" font-size="10.00">serialize()</text>
<polygon fill="#666666" stroke="#666666" points="18,-259 18,-259 175,-259 175,-259 18,-259"/>
<polygon fill="#666666" stroke="#666666" points="18,-244 18,-244 175,-244 175,-244 18,-244"/>
<polygon fill="none" stroke="#666666" points="17.5,-197 17.5,-287 174.5,-287 174.5,-197 17.5,-197"/>
</a>
</g>
</g>
<!-- Node2&#45;&gt;Node1 -->
<g id="edge1_Node000001_Node000002" class="edge">
<title>Node2&#45;&gt;Node1</title>
<g id="a_edge1_Node000001_Node000002"><a xlink:title=" ">
<path fill="none" stroke="#63b8ff" d="M96,-186.78C96,-178.51 96,-169.84 96,-161.17"/>
<polygon fill="none" stroke="#63b8ff" points="92.5,-186.99 96,-196.99 99.5,-186.99 92.5,-186.99"/>
</a>
</g>
</g>
</g>
</svg>
