<?xml version="1.0" encoding="UTF-8" standalone="no"?>
<!DOCTYPE svg PUBLIC "-//W3C//DTD SVG 1.1//EN"
 "http://www.w3.org/Graphics/SVG/1.1/DTD/svg11.dtd">
<!-- Generated by graphviz version 2.43.0 (0)
 -->
<!-- Title: AbstractTetrahedralMeshWriter&lt; ELEMENT_DIM, SPACE_DIM &gt; Pages: 1 -->
<svg width="715pt" height="1364pt"
 viewBox="0.00 0.00 715.00 1364.00" xmlns="http://www.w3.org/2000/svg" xmlns:xlink="http://www.w3.org/1999/xlink">
<g id="graph0" class="graph" transform="scale(1 1) rotate(0) translate(4 1360)">
<title>AbstractTetrahedralMeshWriter&lt; ELEMENT_DIM, SPACE_DIM &gt;</title>
<!-- Node1 -->
<g id="Node000001" class="node">
<title>Node1</title>
<g id="a_Node000001"><a xlink:title=" ">
<polygon fill="#999999" stroke="transparent" points="464,-990 249,-990 249,-492 464,-492 464,-990"/>
<text text-anchor="start" x="279.5" y="-978" font-family="Helvetica,sans-Serif" font-size="10.00">AbstractTetrahedralMeshWriter</text>
<text text-anchor="start" x="279.5" y="-967" font-family="Helvetica,sans-Serif" font-size="10.00">&lt; ELEMENT_DIM, SPACE_DIM &gt;</text>
<text text-anchor="start" x="253.5" y="-952" font-family="Helvetica,sans-Serif" font-size="10.00">#</text>
<text text-anchor="start" x="266.5" y="-952" font-family="Helvetica,sans-Serif" font-size="10.00">mNodesPerElement</text>
<text text-anchor="start" x="253.5" y="-937" font-family="Helvetica,sans-Serif" font-size="10.00">#</text>
<text text-anchor="start" x="266.5" y="-937" font-family="Helvetica,sans-Serif" font-size="10.00">mNodesPerBoundaryElement</text>
<text text-anchor="start" x="253.5" y="-922" font-family="Helvetica,sans-Serif" font-size="10.00">#</text>
<text text-anchor="start" x="266.5" y="-922" font-family="Helvetica,sans-Serif" font-size="10.00">mpMesh</text>
<text text-anchor="start" x="253.5" y="-907" font-family="Helvetica,sans-Serif" font-size="10.00">#</text>
<text text-anchor="start" x="266.5" y="-907" font-family="Helvetica,sans-Serif" font-size="10.00">mpDistributedMesh</text>
<text text-anchor="start" x="253.5" y="-892" font-family="Helvetica,sans-Serif" font-size="10.00">#</text>
<text text-anchor="start" x="266.5" y="-892" font-family="Helvetica,sans-Serif" font-size="10.00">mpMixedMesh</text>
<text text-anchor="start" x="253.5" y="-877" font-family="Helvetica,sans-Serif" font-size="10.00">#</text>
<text text-anchor="start" x="266.5" y="-877" font-family="Helvetica,sans-Serif" font-size="10.00">mpIters</text>
<text text-anchor="start" x="253.5" y="-862" font-family="Helvetica,sans-Serif" font-size="10.00">#</text>
<text text-anchor="start" x="266.5" y="-862" font-family="Helvetica,sans-Serif" font-size="10.00">mIndexFromZero</text>
<text text-anchor="start" x="253.5" y="-847" font-family="Helvetica,sans-Serif" font-size="10.00">#</text>
<text text-anchor="start" x="266.5" y="-847" font-family="Helvetica,sans-Serif" font-size="10.00">mWriteMetaFile</text>
<text text-anchor="start" x="253.5" y="-832" font-family="Helvetica,sans-Serif" font-size="10.00">#</text>
<text text-anchor="start" x="266.5" y="-832" font-family="Helvetica,sans-Serif" font-size="10.00">mNodeCounterForParallelMesh</text>
<text text-anchor="start" x="253.5" y="-817" font-family="Helvetica,sans-Serif" font-size="10.00">#</text>
<text text-anchor="start" x="266.5" y="-817" font-family="Helvetica,sans-Serif" font-size="10.00">mElementCounterForParallelMesh</text>
<text text-anchor="start" x="253.5" y="-802" font-family="Helvetica,sans-Serif" font-size="10.00">#</text>
<text text-anchor="start" x="266.5" y="-802" font-family="Helvetica,sans-Serif" font-size="10.00">mBoundaryElementCounterFor</text>
<text text-anchor="start" x="266.5" y="-791" font-family="Helvetica,sans-Serif" font-size="10.00">ParallelMesh</text>
<text text-anchor="start" x="253.5" y="-776" font-family="Helvetica,sans-Serif" font-size="10.00">#</text>
<text text-anchor="start" x="266.5" y="-776" font-family="Helvetica,sans-Serif" font-size="10.00">mCableElementCounterForParallelMesh</text>
<text text-anchor="start" x="253.5" y="-761" font-family="Helvetica,sans-Serif" font-size="10.00">#</text>
<text text-anchor="start" x="266.5" y="-761" font-family="Helvetica,sans-Serif" font-size="10.00">mFilesAreBinary</text>
<text text-anchor="start" x="256" y="-746" font-family="Helvetica,sans-Serif" font-size="10.00">&#45;</text>
<text text-anchor="start" x="266.5" y="-746" font-family="Helvetica,sans-Serif" font-size="10.00">mpNodeMap</text>
<text text-anchor="start" x="253.5" y="-731" font-family="Helvetica,sans-Serif" font-size="10.00">+</text>
<text text-anchor="start" x="266.5" y="-731" font-family="Helvetica,sans-Serif" font-size="10.00">AbstractTetrahedralMeshWriter()</text>
<text text-anchor="start" x="253.5" y="-716" font-family="Helvetica,sans-Serif" font-size="10.00">+</text>
<text text-anchor="start" x="266.5" y="-716" font-family="Helvetica,sans-Serif" font-size="10.00">~AbstractTetrahedralMesh</text>
<text text-anchor="start" x="266.5" y="-705" font-family="Helvetica,sans-Serif" font-size="10.00">Writer()</text>
<text text-anchor="start" x="253.5" y="-690" font-family="Helvetica,sans-Serif" font-size="10.00">+</text>
<text text-anchor="start" x="266.5" y="-690" font-family="Helvetica,sans-Serif" font-size="10.00">WriteFilesUsingMesh()</text>
<text text-anchor="start" x="253.5" y="-675" font-family="Helvetica,sans-Serif" font-size="10.00">+</text>
<text text-anchor="start" x="266.5" y="-675" font-family="Helvetica,sans-Serif" font-size="10.00">WriteFilesUsingMeshReader</text>
<text text-anchor="start" x="266.5" y="-664" font-family="Helvetica,sans-Serif" font-size="10.00">AndMesh()</text>
<text text-anchor="start" x="253.5" y="-649" font-family="Helvetica,sans-Serif" font-size="10.00">+</text>
<text text-anchor="start" x="266.5" y="-649" font-family="Helvetica,sans-Serif" font-size="10.00">GetNextNode()</text>
<text text-anchor="start" x="253.5" y="-634" font-family="Helvetica,sans-Serif" font-size="10.00">+</text>
<text text-anchor="start" x="266.5" y="-634" font-family="Helvetica,sans-Serif" font-size="10.00">GetNextElement()</text>
<text text-anchor="start" x="253.5" y="-619" font-family="Helvetica,sans-Serif" font-size="10.00">+</text>
<text text-anchor="start" x="266.5" y="-619" font-family="Helvetica,sans-Serif" font-size="10.00">GetNextBoundaryElement()</text>
<text text-anchor="start" x="253.5" y="-604" font-family="Helvetica,sans-Serif" font-size="10.00">+</text>
<text text-anchor="start" x="266.5" y="-604" font-family="Helvetica,sans-Serif" font-size="10.00">GetNextCableElement()</text>
<text text-anchor="start" x="256" y="-589" font-family="Helvetica,sans-Serif" font-size="10.00">&#45;</text>
<text text-anchor="start" x="266.5" y="-589" font-family="Helvetica,sans-Serif" font-size="10.00">PostElement()</text>
<text text-anchor="start" x="256" y="-574" font-family="Helvetica,sans-Serif" font-size="10.00">&#45;</text>
<text text-anchor="start" x="266.5" y="-574" font-family="Helvetica,sans-Serif" font-size="10.00">UnpackElement()</text>
<text text-anchor="start" x="256" y="-559" font-family="Helvetica,sans-Serif" font-size="10.00">&#45;</text>
<text text-anchor="start" x="266.5" y="-559" font-family="Helvetica,sans-Serif" font-size="10.00">WriteFilesUsingParallelMesh()</text>
<text text-anchor="start" x="256" y="-544" font-family="Helvetica,sans-Serif" font-size="10.00">&#45;</text>
<text text-anchor="start" x="266.5" y="-544" font-family="Helvetica,sans-Serif" font-size="10.00">WriteNclFile()</text>
<text text-anchor="start" x="256" y="-529" font-family="Helvetica,sans-Serif" font-size="10.00">&#45;</text>
<text text-anchor="start" x="266.5" y="-529" font-family="Helvetica,sans-Serif" font-size="10.00">CreateFilesWithHeaders()</text>
<text text-anchor="start" x="256" y="-514" font-family="Helvetica,sans-Serif" font-size="10.00">&#45;</text>
<text text-anchor="start" x="266.5" y="-514" font-family="Helvetica,sans-Serif" font-size="10.00">AppendLocalDataToFiles()</text>
<text text-anchor="start" x="256" y="-499" font-family="Helvetica,sans-Serif" font-size="10.00">&#45;</text>
<text text-anchor="start" x="266.5" y="-499" font-family="Helvetica,sans-Serif" font-size="10.00">WriteFilesFooter()</text>
<polygon fill="#666666" stroke="#666666" points="249.5,-962 249.5,-962 464.5,-962 464.5,-962 249.5,-962"/>
<polygon fill="#666666" stroke="#666666" points="249.5,-741 249.5,-741 264.5,-741 264.5,-741 249.5,-741"/>
<polygon fill="#666666" stroke="#666666" points="264.5,-741 264.5,-741 464.5,-741 464.5,-741 264.5,-741"/>
<polygon fill="none" stroke="#666666" points="249,-492 249,-990 464,-990 464,-492 249,-492"/>
</a>
</g>
</g>
<!-- Node3 -->
<g id="Node000003" class="node">
<title>Node3</title>
<g id="a_Node000003"><a xlink:href="classMeshalyzerMeshWriter.html" target="_top" xlink:title=" ">
<polygon fill="white" stroke="transparent" points="165,-388.5 0,-388.5 0,-178.5 165,-178.5 165,-388.5"/>
<text text-anchor="start" x="5.5" y="-376.5" font-family="Helvetica,sans-Serif" font-size="10.00">MeshalyzerMeshWriter</text>
<text text-anchor="start" x="5.5" y="-365.5" font-family="Helvetica,sans-Serif" font-size="10.00">&lt; ELEMENT_DIM, SPACE_DIM &gt;</text>
<text text-anchor="start" x="81" y="-350.5" font-family="Helvetica,sans-Serif" font-size="10.00"> </text>
<text text-anchor="start" x="8" y="-335.5" font-family="Helvetica,sans-Serif" font-size="10.00">+</text>
<text text-anchor="start" x="24.5" y="-335.5" font-family="Helvetica,sans-Serif" font-size="10.00">MeshalyzerMeshWriter()</text>
<text text-anchor="start" x="8" y="-320.5" font-family="Helvetica,sans-Serif" font-size="10.00">+</text>
<text text-anchor="start" x="24.5" y="-320.5" font-family="Helvetica,sans-Serif" font-size="10.00">WriteFiles()</text>
<text text-anchor="start" x="8" y="-305.5" font-family="Helvetica,sans-Serif" font-size="10.00">+</text>
<text text-anchor="start" x="24.5" y="-305.5" font-family="Helvetica,sans-Serif" font-size="10.00">~MeshalyzerMeshWriter()</text>
<text text-anchor="start" x="8" y="-290.5" font-family="Helvetica,sans-Serif" font-size="10.00">#</text>
<text text-anchor="start" x="24.5" y="-290.5" font-family="Helvetica,sans-Serif" font-size="10.00">CreateFilesWithHeaders()</text>
<text text-anchor="start" x="8" y="-275.5" font-family="Helvetica,sans-Serif" font-size="10.00">#</text>
<text text-anchor="start" x="24.5" y="-275.5" font-family="Helvetica,sans-Serif" font-size="10.00">AppendLocalDataToFiles()</text>
<text text-anchor="start" x="10.5" y="-260.5" font-family="Helvetica,sans-Serif" font-size="10.00">&#45;</text>
<text text-anchor="start" x="24.5" y="-260.5" font-family="Helvetica,sans-Serif" font-size="10.00">OpenNodeFile()</text>
<text text-anchor="start" x="10.5" y="-245.5" font-family="Helvetica,sans-Serif" font-size="10.00">&#45;</text>
<text text-anchor="start" x="24.5" y="-245.5" font-family="Helvetica,sans-Serif" font-size="10.00">OpenElementFile()</text>
<text text-anchor="start" x="10.5" y="-230.5" font-family="Helvetica,sans-Serif" font-size="10.00">&#45;</text>
<text text-anchor="start" x="24.5" y="-230.5" font-family="Helvetica,sans-Serif" font-size="10.00">OpenFaceFile()</text>
<text text-anchor="start" x="10.5" y="-215.5" font-family="Helvetica,sans-Serif" font-size="10.00">&#45;</text>
<text text-anchor="start" x="24.5" y="-215.5" font-family="Helvetica,sans-Serif" font-size="10.00">WriteMetaFile()</text>
<text text-anchor="start" x="10.5" y="-200.5" font-family="Helvetica,sans-Serif" font-size="10.00">&#45;</text>
<text text-anchor="start" x="24.5" y="-200.5" font-family="Helvetica,sans-Serif" font-size="10.00">WriteFilesFooter()</text>
<text text-anchor="start" x="10.5" y="-185.5" font-family="Helvetica,sans-Serif" font-size="10.00">&#45;</text>
<text text-anchor="start" x="24.5" y="-185.5" font-family="Helvetica,sans-Serif" font-size="10.00">GetOpenMode()</text>
<polygon fill="#666666" stroke="#666666" points="0.5,-360.5 0.5,-360.5 165.5,-360.5 165.5,-360.5 0.5,-360.5"/>
<polygon fill="#666666" stroke="#666666" points="0.5,-345.5 0.5,-345.5 165.5,-345.5 165.5,-345.5 0.5,-345.5"/>
<polygon fill="none" stroke="#666666" points="0,-178.5 0,-388.5 165,-388.5 165,-178.5 0,-178.5"/>
</a>
</g>
</g>
<!-- Node1&#45;&gt;Node3 -->
<g id="edge2_Node000001_Node000003" class="edge">
<title>Node1&#45;&gt;Node3</title>
<g id="a_edge2_Node000001_Node000003"><a xlink:title=" ">
<path fill="none" stroke="#63b8ff" d="M243.2,-569.3C219.58,-532.3 195.26,-493.13 173.5,-456 160.89,-434.48 147.96,-411.07 135.96,-388.67"/>
<polygon fill="none" stroke="#63b8ff" points="240.53,-571.62 248.87,-578.15 246.42,-567.84 240.53,-571.62"/>
</a>
</g>
</g>
<!-- Node4 -->
<g id="Node000004" class="node">
<title>Node4</title>
<g id="a_Node000004"><a xlink:href="classTrianglesMeshWriter.html" target="_top" xlink:title=" ">
<polygon fill="white" stroke="transparent" points="348,-366 183,-366 183,-201 348,-201 348,-366"/>
<text text-anchor="start" x="188.5" y="-353.5" font-family="Helvetica,sans-Serif" font-size="10.00">TrianglesMeshWriter</text>
<text text-anchor="start" x="188.5" y="-342.5" font-family="Helvetica,sans-Serif" font-size="10.00">&lt; ELEMENT_DIM, SPACE_DIM &gt;</text>
<text text-anchor="start" x="264" y="-327.5" font-family="Helvetica,sans-Serif" font-size="10.00"> </text>
<text text-anchor="start" x="193.5" y="-312.5" font-family="Helvetica,sans-Serif" font-size="10.00">+</text>
<text text-anchor="start" x="212.5" y="-312.5" font-family="Helvetica,sans-Serif" font-size="10.00">TrianglesMeshWriter()</text>
<text text-anchor="start" x="193.5" y="-297.5" font-family="Helvetica,sans-Serif" font-size="10.00">+</text>
<text text-anchor="start" x="212.5" y="-297.5" font-family="Helvetica,sans-Serif" font-size="10.00">SetWriteFilesAsBinary()</text>
<text text-anchor="start" x="193.5" y="-282.5" font-family="Helvetica,sans-Serif" font-size="10.00">+</text>
<text text-anchor="start" x="212.5" y="-282.5" font-family="Helvetica,sans-Serif" font-size="10.00">WriteFiles()</text>
<text text-anchor="start" x="193.5" y="-267.5" font-family="Helvetica,sans-Serif" font-size="10.00">+</text>
<text text-anchor="start" x="212.5" y="-267.5" font-family="Helvetica,sans-Serif" font-size="10.00">WriteElementsAsFaces()</text>
<text text-anchor="start" x="193.5" y="-252.5" font-family="Helvetica,sans-Serif" font-size="10.00">+</text>
<text text-anchor="start" x="212.5" y="-252.5" font-family="Helvetica,sans-Serif" font-size="10.00">WriteFacesAsEdges()</text>
<text text-anchor="start" x="193.5" y="-237.5" font-family="Helvetica,sans-Serif" font-size="10.00">+</text>
<text text-anchor="start" x="212.5" y="-237.5" font-family="Helvetica,sans-Serif" font-size="10.00">WriteItem()</text>
<text text-anchor="start" x="193.5" y="-222.5" font-family="Helvetica,sans-Serif" font-size="10.00">+</text>
<text text-anchor="start" x="212.5" y="-222.5" font-family="Helvetica,sans-Serif" font-size="10.00">WriteItem()</text>
<text text-anchor="start" x="193.5" y="-207.5" font-family="Helvetica,sans-Serif" font-size="10.00">+</text>
<text text-anchor="start" x="212.5" y="-207.5" font-family="Helvetica,sans-Serif" font-size="10.00">~TrianglesMeshWriter()</text>
<polygon fill="#666666" stroke="#666666" points="183.5,-337.5 183.5,-337.5 348.5,-337.5 348.5,-337.5 183.5,-337.5"/>
<polygon fill="#666666" stroke="#666666" points="183.5,-322.5 183.5,-322.5 348.5,-322.5 348.5,-322.5 183.5,-322.5"/>
<polygon fill="none" stroke="#666666" points="183,-201 183,-366 348,-366 348,-201 183,-201"/>
</a>
</g>
</g>
<!-- Node1&#45;&gt;Node4 -->
<g id="edge3_Node000001_Node000004" class="edge">
<title>Node1&#45;&gt;Node4</title>
<g id="a_edge3_Node000001_Node000004"><a xlink:title=" ">
<path fill="none" stroke="#63b8ff" d="M304.98,-482.09C296.59,-440.12 288.48,-399.54 281.82,-366.19"/>
<polygon fill="none" stroke="#63b8ff" points="301.55,-482.8 306.94,-491.92 308.41,-481.43 301.55,-482.8"/>
</a>
</g>
</g>
<!-- Node5 -->
<g id="Node000005" class="node">
<title>Node5</title>
<g id="a_Node000005"><a xlink:href="classVtkMeshWriter.html" target="_top" xlink:title=" ">
<polygon fill="white" stroke="transparent" points="531,-456 366,-456 366,-111 531,-111 531,-456"/>
<text text-anchor="start" x="384" y="-443.5" font-family="Helvetica,sans-Serif" font-size="10.00">VtkMeshWriter&lt; ELEMENT</text>
<text text-anchor="start" x="400" y="-432.5" font-family="Helvetica,sans-Serif" font-size="10.00">_DIM, SPACE_DIM &gt;</text>
<text text-anchor="start" x="373" y="-417.5" font-family="Helvetica,sans-Serif" font-size="10.00">&#45;</text>
<text text-anchor="start" x="383.5" y="-417.5" font-family="Helvetica,sans-Serif" font-size="10.00">mWriteParallelFiles</text>
<text text-anchor="start" x="373" y="-402.5" font-family="Helvetica,sans-Serif" font-size="10.00">&#45;</text>
<text text-anchor="start" x="383.5" y="-402.5" font-family="Helvetica,sans-Serif" font-size="10.00">mGlobalToNodeIndexMap</text>
<text text-anchor="start" x="373" y="-387.5" font-family="Helvetica,sans-Serif" font-size="10.00">&#45;</text>
<text text-anchor="start" x="383.5" y="-387.5" font-family="Helvetica,sans-Serif" font-size="10.00">mNodesToSendPerProcess</text>
<text text-anchor="start" x="373" y="-372.5" font-family="Helvetica,sans-Serif" font-size="10.00">&#45;</text>
<text text-anchor="start" x="383.5" y="-372.5" font-family="Helvetica,sans-Serif" font-size="10.00">mNodesToReceivePerProcess</text>
<text text-anchor="start" x="373" y="-357.5" font-family="Helvetica,sans-Serif" font-size="10.00">&#45;</text>
<text text-anchor="start" x="383.5" y="-357.5" font-family="Helvetica,sans-Serif" font-size="10.00">mpNodesOnlyMesh</text>
<text text-anchor="start" x="373" y="-342.5" font-family="Helvetica,sans-Serif" font-size="10.00">&#45;</text>
<text text-anchor="start" x="383.5" y="-342.5" font-family="Helvetica,sans-Serif" font-size="10.00">mpVtkUnstructedMesh</text>
<text text-anchor="start" x="370.5" y="-327.5" font-family="Helvetica,sans-Serif" font-size="10.00">+</text>
<text text-anchor="start" x="383.5" y="-327.5" font-family="Helvetica,sans-Serif" font-size="10.00">VtkMeshWriter()</text>
<text text-anchor="start" x="370.5" y="-312.5" font-family="Helvetica,sans-Serif" font-size="10.00">+</text>
<text text-anchor="start" x="383.5" y="-312.5" font-family="Helvetica,sans-Serif" font-size="10.00">WriteFiles()</text>
<text text-anchor="start" x="370.5" y="-297.5" font-family="Helvetica,sans-Serif" font-size="10.00">+</text>
<text text-anchor="start" x="383.5" y="-297.5" font-family="Helvetica,sans-Serif" font-size="10.00">AddCellData()</text>
<text text-anchor="start" x="370.5" y="-282.5" font-family="Helvetica,sans-Serif" font-size="10.00">+</text>
<text text-anchor="start" x="383.5" y="-282.5" font-family="Helvetica,sans-Serif" font-size="10.00">AddCellData()</text>
<text text-anchor="start" x="370.5" y="-267.5" font-family="Helvetica,sans-Serif" font-size="10.00">+</text>
<text text-anchor="start" x="383.5" y="-267.5" font-family="Helvetica,sans-Serif" font-size="10.00">AddTensorCellData()</text>
<text text-anchor="start" x="370.5" y="-252.5" font-family="Helvetica,sans-Serif" font-size="10.00">+</text>
<text text-anchor="start" x="383.5" y="-252.5" font-family="Helvetica,sans-Serif" font-size="10.00">AddTensorCellData()</text>
<text text-anchor="start" x="370.5" y="-237.5" font-family="Helvetica,sans-Serif" font-size="10.00">+</text>
<text text-anchor="start" x="383.5" y="-237.5" font-family="Helvetica,sans-Serif" font-size="10.00">AddPointData()</text>
<text text-anchor="start" x="370.5" y="-222.5" font-family="Helvetica,sans-Serif" font-size="10.00">+</text>
<text text-anchor="start" x="383.5" y="-222.5" font-family="Helvetica,sans-Serif" font-size="10.00">AddPointData()</text>
<text text-anchor="start" x="370.5" y="-207.5" font-family="Helvetica,sans-Serif" font-size="10.00">+</text>
<text text-anchor="start" x="383.5" y="-207.5" font-family="Helvetica,sans-Serif" font-size="10.00">AddTensorPointData()</text>
<text text-anchor="start" x="370.5" y="-192.5" font-family="Helvetica,sans-Serif" font-size="10.00">+</text>
<text text-anchor="start" x="383.5" y="-192.5" font-family="Helvetica,sans-Serif" font-size="10.00">SetParallelFiles()</text>
<text text-anchor="start" x="370.5" y="-177.5" font-family="Helvetica,sans-Serif" font-size="10.00">+</text>
<text text-anchor="start" x="383.5" y="-177.5" font-family="Helvetica,sans-Serif" font-size="10.00">WriteFilesUsingMesh()</text>
<text text-anchor="start" x="370.5" y="-162.5" font-family="Helvetica,sans-Serif" font-size="10.00">+</text>
<text text-anchor="start" x="383.5" y="-162.5" font-family="Helvetica,sans-Serif" font-size="10.00">AddProvenance()</text>
<text text-anchor="start" x="370.5" y="-147.5" font-family="Helvetica,sans-Serif" font-size="10.00">+</text>
<text text-anchor="start" x="383.5" y="-147.5" font-family="Helvetica,sans-Serif" font-size="10.00">~VtkMeshWriter()</text>
<text text-anchor="start" x="373" y="-132.5" font-family="Helvetica,sans-Serif" font-size="10.00">&#45;</text>
<text text-anchor="start" x="383.5" y="-132.5" font-family="Helvetica,sans-Serif" font-size="10.00">MakeVtkMesh()</text>
<text text-anchor="start" x="373" y="-117.5" font-family="Helvetica,sans-Serif" font-size="10.00">&#45;</text>
<text text-anchor="start" x="383.5" y="-117.5" font-family="Helvetica,sans-Serif" font-size="10.00">AugmentCellData()</text>
<polygon fill="#666666" stroke="#666666" points="366.5,-427.5 366.5,-427.5 531.5,-427.5 531.5,-427.5 366.5,-427.5"/>
<polygon fill="#666666" stroke="#666666" points="366.5,-337.5 366.5,-337.5 381.5,-337.5 381.5,-337.5 366.5,-337.5"/>
<polygon fill="#666666" stroke="#666666" points="381.5,-337.5 381.5,-337.5 531.5,-337.5 531.5,-337.5 381.5,-337.5"/>
<polygon fill="none" stroke="#666666" points="366,-111 366,-456 531,-456 531,-111 366,-111"/>
</a>
</g>
</g>
<!-- Node1&#45;&gt;Node5 -->
<g id="edge4_Node000001_Node000005" class="edge">
<title>Node1&#45;&gt;Node5</title>
<g id="a_edge4_Node000001_Node000005"><a xlink:title=" ">
<path fill="none" stroke="#63b8ff" d="M408.6,-482.03C410.37,-473.28 412.12,-464.6 413.86,-456.03"/>
<polygon fill="none" stroke="#63b8ff" points="405.15,-481.43 406.61,-491.92 412.02,-482.81 405.15,-481.43"/>
</a>
</g>
</g>
<!-- Node6 -->
<g id="Node000006" class="node">
<title>Node6</title>
<g id="a_Node000006"><a xlink:href="classXdmfMeshWriter.html" target="_top" xlink:title=" ">
<polygon fill="white" stroke="transparent" points="699.5,-351 549.5,-351 549.5,-216 699.5,-216 699.5,-351"/>
<text text-anchor="start" x="554.5" y="-338.5" font-family="Helvetica,sans-Serif" font-size="10.00">XdmfMeshWriter&lt; ELEMENT</text>
<text text-anchor="start" x="575.5" y="-327.5" font-family="Helvetica,sans-Serif" font-size="10.00">_DIM, SPACE_DIM &gt;</text>
<text text-anchor="start" x="557" y="-312.5" font-family="Helvetica,sans-Serif" font-size="10.00">#</text>
<text text-anchor="start" x="573.5" y="-312.5" font-family="Helvetica,sans-Serif" font-size="10.00">mNumberOfTimePoints</text>
<text text-anchor="start" x="557" y="-297.5" font-family="Helvetica,sans-Serif" font-size="10.00">#</text>
<text text-anchor="start" x="573.5" y="-297.5" font-family="Helvetica,sans-Serif" font-size="10.00">mTimeStep</text>
<text text-anchor="start" x="557" y="-282.5" font-family="Helvetica,sans-Serif" font-size="10.00">+</text>
<text text-anchor="start" x="573.5" y="-282.5" font-family="Helvetica,sans-Serif" font-size="10.00">XdmfMeshWriter()</text>
<text text-anchor="start" x="557" y="-267.5" font-family="Helvetica,sans-Serif" font-size="10.00">+</text>
<text text-anchor="start" x="573.5" y="-267.5" font-family="Helvetica,sans-Serif" font-size="10.00">WriteFiles()</text>
<text text-anchor="start" x="557" y="-252.5" font-family="Helvetica,sans-Serif" font-size="10.00">+</text>
<text text-anchor="start" x="573.5" y="-252.5" font-family="Helvetica,sans-Serif" font-size="10.00">WriteFilesUsingMesh()</text>
<text text-anchor="start" x="559.5" y="-237.5" font-family="Helvetica,sans-Serif" font-size="10.00">&#45;</text>
<text text-anchor="start" x="573.5" y="-237.5" font-family="Helvetica,sans-Serif" font-size="10.00">WriteXdmfMasterFile()</text>
<text text-anchor="start" x="559.5" y="-222.5" font-family="Helvetica,sans-Serif" font-size="10.00">&#45;</text>
<text text-anchor="start" x="573.5" y="-222.5" font-family="Helvetica,sans-Serif" font-size="10.00">AddDataOnNodes()</text>
<polygon fill="#666666" stroke="#666666" points="549.5,-322.5 549.5,-322.5 699.5,-322.5 699.5,-322.5 549.5,-322.5"/>
<polygon fill="#666666" stroke="#666666" points="549.5,-292.5 549.5,-292.5 571.5,-292.5 571.5,-292.5 549.5,-292.5"/>
<polygon fill="#666666" stroke="#666666" points="571.5,-292.5 571.5,-292.5 699.5,-292.5 699.5,-292.5 571.5,-292.5"/>
<polygon fill="none" stroke="#666666" points="549.5,-216 549.5,-351 699.5,-351 699.5,-216 549.5,-216"/>
</a>
</g>
</g>
<!-- Node1&#45;&gt;Node6 -->
<g id="edge5_Node000001_Node000006" class="edge">
<title>Node1&#45;&gt;Node6</title>
<g id="a_edge5_Node000001_Node000006"><a xlink:title=" ">
<path fill="none" stroke="#63b8ff" d="M469.62,-571.28C493.5,-533.8 517.96,-493.94 539.5,-456 558.69,-422.19 578.1,-383.46 593.51,-351.37"/>
<polygon fill="none" stroke="#63b8ff" points="466.65,-569.42 464.21,-579.73 472.55,-573.19 466.65,-569.42"/>
</a>
</g>
</g>
<!-- Node2 -->
<g id="Node000002" class="node">
<title>Node2</title>
<g id="a_Node000002"><a xlink:href="classAbstractMeshWriter.html" target="_top" xlink:title=" ">
<polygon fill="white" stroke="transparent" points="439.5,-1356 273.5,-1356 273.5,-1026 439.5,-1026 439.5,-1356"/>
<text text-anchor="start" x="279" y="-1344" font-family="Helvetica,sans-Serif" font-size="10.00">AbstractMeshWriter</text>
<text text-anchor="start" x="279" y="-1333" font-family="Helvetica,sans-Serif" font-size="10.00">&lt; ELEMENT_DIM, SPACE_DIM &gt;</text>
<text text-anchor="start" x="277.5" y="-1318" font-family="Helvetica,sans-Serif" font-size="10.00">#</text>
<text text-anchor="start" x="290.5" y="-1318" font-family="Helvetica,sans-Serif" font-size="10.00">mpOutputFileHandler</text>
<text text-anchor="start" x="277.5" y="-1303" font-family="Helvetica,sans-Serif" font-size="10.00">#</text>
<text text-anchor="start" x="290.5" y="-1303" font-family="Helvetica,sans-Serif" font-size="10.00">mBaseName</text>
<text text-anchor="start" x="277.5" y="-1288" font-family="Helvetica,sans-Serif" font-size="10.00">#</text>
<text text-anchor="start" x="290.5" y="-1288" font-family="Helvetica,sans-Serif" font-size="10.00">mpMeshReader</text>
<text text-anchor="start" x="277.5" y="-1273" font-family="Helvetica,sans-Serif" font-size="10.00">#</text>
<text text-anchor="start" x="290.5" y="-1273" font-family="Helvetica,sans-Serif" font-size="10.00">mNumNodes</text>
<text text-anchor="start" x="277.5" y="-1258" font-family="Helvetica,sans-Serif" font-size="10.00">#</text>
<text text-anchor="start" x="290.5" y="-1258" font-family="Helvetica,sans-Serif" font-size="10.00">mNumElements</text>
<text text-anchor="start" x="277.5" y="-1243" font-family="Helvetica,sans-Serif" font-size="10.00">#</text>
<text text-anchor="start" x="290.5" y="-1243" font-family="Helvetica,sans-Serif" font-size="10.00">mNumBoundaryElements</text>
<text text-anchor="start" x="277.5" y="-1228" font-family="Helvetica,sans-Serif" font-size="10.00">#</text>
<text text-anchor="start" x="290.5" y="-1228" font-family="Helvetica,sans-Serif" font-size="10.00">mNumCableElements</text>
<text text-anchor="start" x="277.5" y="-1213" font-family="Helvetica,sans-Serif" font-size="10.00">+</text>
<text text-anchor="start" x="290.5" y="-1213" font-family="Helvetica,sans-Serif" font-size="10.00">AbstractMeshWriter()</text>
<text text-anchor="start" x="277.5" y="-1198" font-family="Helvetica,sans-Serif" font-size="10.00">+</text>
<text text-anchor="start" x="290.5" y="-1198" font-family="Helvetica,sans-Serif" font-size="10.00">~AbstractMeshWriter()</text>
<text text-anchor="start" x="277.5" y="-1183" font-family="Helvetica,sans-Serif" font-size="10.00">+</text>
<text text-anchor="start" x="290.5" y="-1183" font-family="Helvetica,sans-Serif" font-size="10.00">GetOutputDirectory()</text>
<text text-anchor="start" x="277.5" y="-1168" font-family="Helvetica,sans-Serif" font-size="10.00">+</text>
<text text-anchor="start" x="290.5" y="-1168" font-family="Helvetica,sans-Serif" font-size="10.00">GetNumNodes()</text>
<text text-anchor="start" x="277.5" y="-1153" font-family="Helvetica,sans-Serif" font-size="10.00">+</text>
<text text-anchor="start" x="290.5" y="-1153" font-family="Helvetica,sans-Serif" font-size="10.00">GetNumElements()</text>
<text text-anchor="start" x="277.5" y="-1138" font-family="Helvetica,sans-Serif" font-size="10.00">+</text>
<text text-anchor="start" x="290.5" y="-1138" font-family="Helvetica,sans-Serif" font-size="10.00">GetNumBoundaryFaces()</text>
<text text-anchor="start" x="277.5" y="-1123" font-family="Helvetica,sans-Serif" font-size="10.00">+</text>
<text text-anchor="start" x="290.5" y="-1123" font-family="Helvetica,sans-Serif" font-size="10.00">GetNumCableElements()</text>
<text text-anchor="start" x="277.5" y="-1108" font-family="Helvetica,sans-Serif" font-size="10.00">+</text>
<text text-anchor="start" x="290.5" y="-1108" font-family="Helvetica,sans-Serif" font-size="10.00">GetNextNode()</text>
<text text-anchor="start" x="277.5" y="-1093" font-family="Helvetica,sans-Serif" font-size="10.00">+</text>
<text text-anchor="start" x="290.5" y="-1093" font-family="Helvetica,sans-Serif" font-size="10.00">GetNextElement()</text>
<text text-anchor="start" x="277.5" y="-1078" font-family="Helvetica,sans-Serif" font-size="10.00">+</text>
<text text-anchor="start" x="290.5" y="-1078" font-family="Helvetica,sans-Serif" font-size="10.00">GetNextBoundaryElement()</text>
<text text-anchor="start" x="277.5" y="-1063" font-family="Helvetica,sans-Serif" font-size="10.00">+</text>
<text text-anchor="start" x="290.5" y="-1063" font-family="Helvetica,sans-Serif" font-size="10.00">GetNextCableElement()</text>
<text text-anchor="start" x="277.5" y="-1048" font-family="Helvetica,sans-Serif" font-size="10.00">+</text>
<text text-anchor="start" x="290.5" y="-1048" font-family="Helvetica,sans-Serif" font-size="10.00">WriteFiles()</text>
<text text-anchor="start" x="277.5" y="-1033" font-family="Helvetica,sans-Serif" font-size="10.00">+</text>
<text text-anchor="start" x="290.5" y="-1033" font-family="Helvetica,sans-Serif" font-size="10.00">WriteFilesUsingMeshReader()</text>
<polygon fill="#666666" stroke="#666666" points="273.5,-1328 273.5,-1328 439.5,-1328 439.5,-1328 273.5,-1328"/>
<polygon fill="#666666" stroke="#666666" points="273.5,-1223 273.5,-1223 288.5,-1223 288.5,-1223 273.5,-1223"/>
<polygon fill="#666666" stroke="#666666" points="288.5,-1223 288.5,-1223 439.5,-1223 439.5,-1223 288.5,-1223"/>
<polygon fill="none" stroke="#666666" points="273.5,-1026 273.5,-1356 439.5,-1356 439.5,-1026 273.5,-1026"/>
</a>
</g>
</g>
<!-- Node2&#45;&gt;Node1 -->
<g id="edge1_Node000001_Node000002" class="edge">
<title>Node2&#45;&gt;Node1</title>
<g id="a_edge1_Node000001_Node000002"><a xlink:title=" ">
<path fill="none" stroke="#63b8ff" d="M356.5,-1015.6C356.5,-1007.26 356.5,-998.82 356.5,-990.33"/>
<polygon fill="none" stroke="#63b8ff" points="353,-1015.73 356.5,-1025.73 360,-1015.73 353,-1015.73"/>
</a>
</g>
</g>
<!-- Node7 -->
<g id="Node000007" class="node">
<title>Node7</title>
<g id="a_Node000007"><a xlink:href="classHdf5ToXdmfConverter.html" target="_top" xlink:title=" ">
<polygon fill="white" stroke="transparent" points="707,-75 542,-75 542,0 707,0 707,-75"/>
<text text-anchor="start" x="547.5" y="-62.5" font-family="Helvetica,sans-Serif" font-size="10.00">Hdf5ToXdmfConverter</text>
<text text-anchor="start" x="547.5" y="-51.5" font-family="Helvetica,sans-Serif" font-size="10.00">&lt; ELEMENT_DIM, SPACE_DIM &gt;</text>
<text text-anchor="start" x="623" y="-36.5" font-family="Helvetica,sans-Serif" font-size="10.00"> </text>
<text text-anchor="start" x="553.5" y="-21.5" font-family="Helvetica,sans-Serif" font-size="10.00">+</text>
<text text-anchor="start" x="573.5" y="-21.5" font-family="Helvetica,sans-Serif" font-size="10.00">Hdf5ToXdmfConverter()</text>
<text text-anchor="start" x="553.5" y="-6.5" font-family="Helvetica,sans-Serif" font-size="10.00">+</text>
<text text-anchor="start" x="573.5" y="-6.5" font-family="Helvetica,sans-Serif" font-size="10.00">AddDataOnNodes()</text>
<polygon fill="#666666" stroke="#666666" points="542.5,-46.5 542.5,-46.5 707.5,-46.5 707.5,-46.5 542.5,-46.5"/>
<polygon fill="#666666" stroke="#666666" points="542.5,-31.5 542.5,-31.5 707.5,-31.5 707.5,-31.5 542.5,-31.5"/>
<polygon fill="none" stroke="#666666" points="542,0 542,-75 707,-75 707,0 542,0"/>
</a>
</g>
</g>
<!-- Node6&#45;&gt;Node7 -->
<g id="edge6_Node000006_Node000007" class="edge">
<title>Node6&#45;&gt;Node7</title>
<g id="a_edge6_Node000006_Node000007"><a xlink:title=" ">
<path fill="none" stroke="#63b8ff" d="M624.5,-205.82C624.5,-162.23 624.5,-109.65 624.5,-75.21"/>
<polygon fill="none" stroke="#63b8ff" points="621,-205.83 624.5,-215.83 628,-205.83 621,-205.83"/>
</a>
</g>
</g>
</g>
</svg>
