<?xml version="1.0" encoding="UTF-8" standalone="no"?>
<!DOCTYPE svg PUBLIC "-//W3C//DTD SVG 1.1//EN"
 "http://www.w3.org/Graphics/SVG/1.1/DTD/svg11.dtd">
<!-- Generated by graphviz version 2.43.0 (0)
 -->
<!-- Title: AbstractCellPopulationCountWriter&lt; ELEMENT_DIM, SPACE_DIM &gt; Pages: 1 -->
<svg width="504pt" height="1025pt"
 viewBox="0.00 0.00 504.00 1025.00" xmlns="http://www.w3.org/2000/svg" xmlns:xlink="http://www.w3.org/1999/xlink">
<g id="graph0" class="graph" transform="scale(1 1) rotate(0) translate(4 1021)">
<title>AbstractCellPopulationCountWriter&lt; ELEMENT_DIM, SPACE_DIM &gt;</title>
<!-- Node1 -->
<g id="Node000001" class="node">
<title>Node1</title>
<g id="a_Node000001"><a xlink:title=" ">
<polygon fill="#999999" stroke="transparent" points="321.5,-176 126.5,-176 126.5,0 321.5,0 321.5,-176"/>
<text text-anchor="start" x="132" y="-164" font-family="Helvetica,sans-Serif" font-size="10.00">AbstractCellPopulationCount</text>
<text text-anchor="start" x="132" y="-153" font-family="Helvetica,sans-Serif" font-size="10.00">Writer&lt; ELEMENT_DIM, SPACE_DIM &gt;</text>
<text text-anchor="start" x="222.5" y="-138" font-family="Helvetica,sans-Serif" font-size="10.00"> </text>
<text text-anchor="start" x="139.5" y="-123" font-family="Helvetica,sans-Serif" font-size="10.00">+</text>
<text text-anchor="start" x="161" y="-123" font-family="Helvetica,sans-Serif" font-size="10.00">AbstractCellPopulationCount</text>
<text text-anchor="start" x="161" y="-112" font-family="Helvetica,sans-Serif" font-size="10.00">Writer()</text>
<text text-anchor="start" x="139.5" y="-97" font-family="Helvetica,sans-Serif" font-size="10.00">+</text>
<text text-anchor="start" x="161" y="-97" font-family="Helvetica,sans-Serif" font-size="10.00">WriteHeader()</text>
<text text-anchor="start" x="139.5" y="-82" font-family="Helvetica,sans-Serif" font-size="10.00">+</text>
<text text-anchor="start" x="161" y="-82" font-family="Helvetica,sans-Serif" font-size="10.00">Visit()</text>
<text text-anchor="start" x="139.5" y="-67" font-family="Helvetica,sans-Serif" font-size="10.00">+</text>
<text text-anchor="start" x="161" y="-67" font-family="Helvetica,sans-Serif" font-size="10.00">Visit()</text>
<text text-anchor="start" x="139.5" y="-52" font-family="Helvetica,sans-Serif" font-size="10.00">+</text>
<text text-anchor="start" x="161" y="-52" font-family="Helvetica,sans-Serif" font-size="10.00">Visit()</text>
<text text-anchor="start" x="139.5" y="-37" font-family="Helvetica,sans-Serif" font-size="10.00">+</text>
<text text-anchor="start" x="161" y="-37" font-family="Helvetica,sans-Serif" font-size="10.00">Visit()</text>
<text text-anchor="start" x="139.5" y="-22" font-family="Helvetica,sans-Serif" font-size="10.00">+</text>
<text text-anchor="start" x="161" y="-22" font-family="Helvetica,sans-Serif" font-size="10.00">Visit()</text>
<text text-anchor="start" x="142" y="-7" font-family="Helvetica,sans-Serif" font-size="10.00">&#45;</text>
<text text-anchor="start" x="161" y="-7" font-family="Helvetica,sans-Serif" font-size="10.00">serialize()</text>
<polygon fill="#666666" stroke="#666666" points="127,-148 127,-148 322,-148 322,-148 127,-148"/>
<polygon fill="#666666" stroke="#666666" points="127,-133 127,-133 322,-133 322,-133 127,-133"/>
<polygon fill="none" stroke="#666666" points="126.5,0 126.5,-176 321.5,-176 321.5,0 126.5,0"/>
</a>
</g>
</g>
<!-- Node2 -->
<g id="Node000002" class="node">
<title>Node2</title>
<g id="a_Node000002"><a xlink:href="classAbstractCellBasedWriter.html" target="_top" xlink:title=" ">
<polygon fill="white" stroke="transparent" points="306.5,-408 141.5,-408 141.5,-213 306.5,-213 306.5,-408"/>
<text text-anchor="start" x="147" y="-395.5" font-family="Helvetica,sans-Serif" font-size="10.00">AbstractCellBasedWriter</text>
<text text-anchor="start" x="147" y="-384.5" font-family="Helvetica,sans-Serif" font-size="10.00">&lt; ELEMENT_DIM, SPACE_DIM &gt;</text>
<text text-anchor="start" x="222.5" y="-369.5" font-family="Helvetica,sans-Serif" font-size="10.00"> </text>
<text text-anchor="start" x="148" y="-354.5" font-family="Helvetica,sans-Serif" font-size="10.00">+</text>
<text text-anchor="start" x="163" y="-354.5" font-family="Helvetica,sans-Serif" font-size="10.00">AbstractCellBasedWriter()</text>
<text text-anchor="start" x="148" y="-339.5" font-family="Helvetica,sans-Serif" font-size="10.00">+</text>
<text text-anchor="start" x="163" y="-339.5" font-family="Helvetica,sans-Serif" font-size="10.00">~AbstractCellBasedWriter()</text>
<text text-anchor="start" x="148" y="-324.5" font-family="Helvetica,sans-Serif" font-size="10.00">+</text>
<text text-anchor="start" x="163" y="-324.5" font-family="Helvetica,sans-Serif" font-size="10.00">CloseFile()</text>
<text text-anchor="start" x="148" y="-309.5" font-family="Helvetica,sans-Serif" font-size="10.00">+</text>
<text text-anchor="start" x="163" y="-309.5" font-family="Helvetica,sans-Serif" font-size="10.00">OpenOutputFile()</text>
<text text-anchor="start" x="148" y="-294.5" font-family="Helvetica,sans-Serif" font-size="10.00">+</text>
<text text-anchor="start" x="163" y="-294.5" font-family="Helvetica,sans-Serif" font-size="10.00">OpenOutputFileForAppend()</text>
<text text-anchor="start" x="148" y="-279.5" font-family="Helvetica,sans-Serif" font-size="10.00">+</text>
<text text-anchor="start" x="163" y="-279.5" font-family="Helvetica,sans-Serif" font-size="10.00">WriteTimeStamp()</text>
<text text-anchor="start" x="148" y="-264.5" font-family="Helvetica,sans-Serif" font-size="10.00">+</text>
<text text-anchor="start" x="163" y="-264.5" font-family="Helvetica,sans-Serif" font-size="10.00">WriteNewline()</text>
<text text-anchor="start" x="148" y="-249.5" font-family="Helvetica,sans-Serif" font-size="10.00">+</text>
<text text-anchor="start" x="163" y="-249.5" font-family="Helvetica,sans-Serif" font-size="10.00">SetFileName()</text>
<text text-anchor="start" x="148" y="-234.5" font-family="Helvetica,sans-Serif" font-size="10.00">+</text>
<text text-anchor="start" x="163" y="-234.5" font-family="Helvetica,sans-Serif" font-size="10.00">GetFileName()</text>
<text text-anchor="start" x="150.5" y="-219.5" font-family="Helvetica,sans-Serif" font-size="10.00">&#45;</text>
<text text-anchor="start" x="163" y="-219.5" font-family="Helvetica,sans-Serif" font-size="10.00">serialize()</text>
<polygon fill="#666666" stroke="#666666" points="142,-379.5 142,-379.5 307,-379.5 307,-379.5 142,-379.5"/>
<polygon fill="#666666" stroke="#666666" points="142,-364.5 142,-364.5 307,-364.5 307,-364.5 142,-364.5"/>
<polygon fill="none" stroke="#666666" points="141.5,-213 141.5,-408 306.5,-408 306.5,-213 141.5,-213"/>
</a>
</g>
</g>
<!-- Node2&#45;&gt;Node1 -->
<g id="edge1_Node000001_Node000002" class="edge">
<title>Node2&#45;&gt;Node1</title>
<g id="a_edge1_Node000001_Node000002"><a xlink:title=" ">
<path fill="none" stroke="#63b8ff" d="M224,-202.78C224,-193.9 224,-184.98 224,-176.27"/>
<polygon fill="none" stroke="#63b8ff" points="220.5,-202.79 224,-212.79 227.5,-202.79 220.5,-202.79"/>
</a>
</g>
</g>
<!-- Node3 -->
<g id="Node000003" class="node">
<title>Node3</title>
<g id="a_Node000003"><a xlink:href="classIdentifiable.html" target="_top" xlink:title=" ">
<polygon fill="white" stroke="transparent" points="176,-534 0,-534 0,-455 176,-455 176,-534"/>
<text text-anchor="start" x="60.5" y="-521.5" font-family="Helvetica,sans-Serif" font-size="10.00">Identifiable</text>
<text text-anchor="start" x="86" y="-506.5" font-family="Helvetica,sans-Serif" font-size="10.00"> </text>
<text text-anchor="start" x="4" y="-491.5" font-family="Helvetica,sans-Serif" font-size="10.00">+</text>
<text text-anchor="start" x="17" y="-491.5" font-family="Helvetica,sans-Serif" font-size="10.00">~Identifiable()</text>
<text text-anchor="start" x="4" y="-476.5" font-family="Helvetica,sans-Serif" font-size="10.00">+</text>
<text text-anchor="start" x="17" y="-476.5" font-family="Helvetica,sans-Serif" font-size="10.00">GetIdentifier()</text>
<text text-anchor="start" x="6.5" y="-461.5" font-family="Helvetica,sans-Serif" font-size="10.00">&#45;</text>
<text text-anchor="start" x="17" y="-461.5" font-family="Helvetica,sans-Serif" font-size="10.00">TidyTemplatedExportIdentifier()</text>
<polygon fill="#666666" stroke="#666666" points="0,-516.5 0,-516.5 176,-516.5 176,-516.5 0,-516.5"/>
<polygon fill="#666666" stroke="#666666" points="0,-501.5 0,-501.5 176,-501.5 176,-501.5 0,-501.5"/>
<polygon fill="none" stroke="#666666" points="0,-455 0,-534 176,-534 176,-455 0,-455"/>
</a>
</g>
</g>
<!-- Node3&#45;&gt;Node2 -->
<g id="edge2_Node000002_Node000003" class="edge">
<title>Node3&#45;&gt;Node2</title>
<g id="a_edge2_Node000002_Node000003"><a xlink:title=" ">
<path fill="none" stroke="#63b8ff" d="M122.86,-446.85C131.8,-434.89 141.75,-421.57 151.82,-408.09"/>
<polygon fill="none" stroke="#63b8ff" points="120.02,-444.8 116.84,-454.9 125.63,-448.99 120.02,-444.8"/>
</a>
</g>
</g>
<!-- Node4 -->
<g id="Node000004" class="node">
<title>Node4</title>
<g id="a_Node000004"><a xlink:title=" ">
<polygon fill="white" stroke="transparent" points="253.5,-519 194.5,-519 194.5,-470 253.5,-470 253.5,-519"/>
<text text-anchor="start" x="200" y="-506.5" font-family="Helvetica,sans-Serif" font-size="10.00">std::string</text>
<text text-anchor="start" x="222.5" y="-491.5" font-family="Helvetica,sans-Serif" font-size="10.00"> </text>
<text text-anchor="start" x="222.5" y="-476.5" font-family="Helvetica,sans-Serif" font-size="10.00"> </text>
<polygon fill="#666666" stroke="#666666" points="195,-501.5 195,-501.5 254,-501.5 254,-501.5 195,-501.5"/>
<polygon fill="#666666" stroke="#666666" points="195,-486.5 195,-486.5 254,-486.5 254,-486.5 195,-486.5"/>
<polygon fill="none" stroke="#666666" points="194.5,-470 194.5,-519 253.5,-519 253.5,-470 194.5,-470"/>
</a>
</g>
</g>
<!-- Node4&#45;&gt;Node2 -->
<g id="edge3_Node000002_Node000004" class="edge">
<title>Node4&#45;&gt;Node2</title>
<g id="a_edge3_Node000002_Node000004"><a xlink:title=" ">
<path fill="none" stroke="#63b8ff" d="M224,-469.71C224,-456.44 224,-438.88 224,-420.28"/>
<polygon fill="none" stroke="#63b8ff" points="224,-420.27 220,-414.27 224,-408.27 228,-414.27 224,-420.27"/>
</a>
</g>
<text text-anchor="middle" x="258" y="-429" font-family="Helvetica,sans-Serif" font-size="10.00" fill="grey"> #mFileName</text>
</g>
<!-- Node5 -->
<g id="Node000005" class="node">
<title>Node5</title>
<g id="a_Node000005"><a xlink:title=" ">
<polygon fill="white" stroke="transparent" points="272,-641 174,-641 174,-581 272,-581 272,-641"/>
<text text-anchor="start" x="179" y="-629" font-family="Helvetica,sans-Serif" font-size="10.00">std::basic_string&lt;</text>
<text text-anchor="start" x="204.5" y="-618" font-family="Helvetica,sans-Serif" font-size="10.00"> Char &gt;</text>
<text text-anchor="start" x="221" y="-603" font-family="Helvetica,sans-Serif" font-size="10.00"> </text>
<text text-anchor="start" x="221" y="-588" font-family="Helvetica,sans-Serif" font-size="10.00"> </text>
<polygon fill="#666666" stroke="#666666" points="174,-613 174,-613 272,-613 272,-613 174,-613"/>
<polygon fill="#666666" stroke="#666666" points="174,-598 174,-598 272,-598 272,-598 174,-598"/>
<polygon fill="none" stroke="#666666" points="174,-581 174,-641 272,-641 272,-581 174,-581"/>
</a>
</g>
</g>
<!-- Node5&#45;&gt;Node4 -->
<g id="edge4_Node000004_Node000005" class="edge">
<title>Node5&#45;&gt;Node4</title>
<g id="a_edge4_Node000004_Node000005"><a xlink:title=" ">
<path fill="none" stroke="#63b8ff" d="M223.34,-570.54C223.49,-553.47 223.66,-534.05 223.79,-519.24"/>
<polygon fill="none" stroke="#63b8ff" points="219.84,-570.78 223.25,-580.81 226.84,-570.84 219.84,-570.78"/>
</a>
</g>
</g>
<!-- Node6 -->
<g id="Node000006" class="node">
<title>Node6</title>
<g id="a_Node000006"><a xlink:title=" ">
<polygon fill="white" stroke="transparent" points="383,-524.5 273,-524.5 273,-464.5 383,-464.5 383,-524.5"/>
<text text-anchor="start" x="278" y="-512.5" font-family="Helvetica,sans-Serif" font-size="10.00">std::shared_ptr&lt; std</text>
<text text-anchor="start" x="297" y="-501.5" font-family="Helvetica,sans-Serif" font-size="10.00">::ofstream &gt;</text>
<text text-anchor="start" x="326" y="-486.5" font-family="Helvetica,sans-Serif" font-size="10.00"> </text>
<text text-anchor="start" x="284" y="-471.5" font-family="Helvetica,sans-Serif" font-size="10.00">+</text>
<text text-anchor="start" x="304" y="-471.5" font-family="Helvetica,sans-Serif" font-size="10.00">operator&#45;&gt;()</text>
<polygon fill="#666666" stroke="#666666" points="273,-496.5 273,-496.5 383,-496.5 383,-496.5 273,-496.5"/>
<polygon fill="#666666" stroke="#666666" points="273,-481.5 273,-481.5 383,-481.5 383,-481.5 273,-481.5"/>
<polygon fill="none" stroke="#666666" points="273,-464.5 273,-524.5 383,-524.5 383,-464.5 273,-464.5"/>
</a>
</g>
</g>
<!-- Node6&#45;&gt;Node2 -->
<g id="edge5_Node000002_Node000006" class="edge">
<title>Node6&#45;&gt;Node2</title>
<g id="a_edge5_Node000002_Node000006"><a xlink:title=" ">
<path fill="none" stroke="#63b8ff" d="M315.04,-464.22C309.49,-452.21 302.74,-438.28 296,-426 294.69,-423.62 293.35,-421.21 291.99,-418.8"/>
<polygon fill="none" stroke="#63b8ff" points="291.86,-418.57 285.41,-415.35 285.89,-408.16 292.35,-411.37 291.86,-418.57"/>
</a>
</g>
<text text-anchor="middle" x="342" y="-429" font-family="Helvetica,sans-Serif" font-size="10.00" fill="grey"> #mpOutStream</text>
</g>
<!-- Node7 -->
<g id="Node000007" class="node">
<title>Node7</title>
<g id="a_Node000007"><a xlink:title=" ">
<polygon fill="white" stroke="transparent" points="366,-635.5 290,-635.5 290,-586.5 366,-586.5 366,-635.5"/>
<text text-anchor="start" x="295" y="-623" font-family="Helvetica,sans-Serif" font-size="10.00">std::ofstream</text>
<text text-anchor="start" x="326" y="-608" font-family="Helvetica,sans-Serif" font-size="10.00"> </text>
<text text-anchor="start" x="326" y="-593" font-family="Helvetica,sans-Serif" font-size="10.00"> </text>
<polygon fill="#666666" stroke="#666666" points="290,-618 290,-618 366,-618 366,-618 290,-618"/>
<polygon fill="#666666" stroke="#666666" points="290,-603 290,-603 366,-603 366,-603 290,-603"/>
<polygon fill="none" stroke="#666666" points="290,-586.5 290,-635.5 366,-635.5 366,-586.5 290,-586.5"/>
</a>
</g>
</g>
<!-- Node7&#45;&gt;Node6 -->
<g id="edge6_Node000006_Node000007" class="edge">
<title>Node7&#45;&gt;Node6</title>
<g id="a_edge6_Node000006_Node000007"><a xlink:title=" ">
<path fill="none" stroke="#63b8ff" d="M328,-586.28C328,-572.08 328,-553.63 328,-537.08"/>
<polygon fill="none" stroke="#63b8ff" points="328,-536.89 324,-530.89 328,-524.89 332,-530.89 328,-536.89"/>
</a>
</g>
<text text-anchor="middle" x="340.5" y="-555" font-family="Helvetica,sans-Serif" font-size="10.00" fill="grey"> +ptr</text>
</g>
<!-- Node8 -->
<g id="Node000008" class="node">
<title>Node8</title>
<g id="a_Node000008"><a xlink:title=" ">
<polygon fill="white" stroke="transparent" points="381.5,-748 274.5,-748 274.5,-688 381.5,-688 381.5,-748"/>
<text text-anchor="start" x="280" y="-736" font-family="Helvetica,sans-Serif" font-size="10.00">std::basic_ofstream</text>
<text text-anchor="start" x="305.5" y="-725" font-family="Helvetica,sans-Serif" font-size="10.00">&lt; Char &gt;</text>
<text text-anchor="start" x="326.5" y="-710" font-family="Helvetica,sans-Serif" font-size="10.00"> </text>
<text text-anchor="start" x="326.5" y="-695" font-family="Helvetica,sans-Serif" font-size="10.00"> </text>
<polygon fill="#666666" stroke="#666666" points="275,-720 275,-720 382,-720 382,-720 275,-720"/>
<polygon fill="#666666" stroke="#666666" points="275,-705 275,-705 382,-705 382,-705 275,-705"/>
<polygon fill="none" stroke="#666666" points="274.5,-688 274.5,-748 381.5,-748 381.5,-688 274.5,-688"/>
</a>
</g>
</g>
<!-- Node8&#45;&gt;Node7 -->
<g id="edge7_Node000007_Node000008" class="edge">
<title>Node8&#45;&gt;Node7</title>
<g id="a_edge7_Node000007_Node000008"><a xlink:title=" ">
<path fill="none" stroke="#63b8ff" d="M328,-677.37C328,-663.37 328,-648.07 328,-635.79"/>
<polygon fill="none" stroke="#63b8ff" points="324.5,-677.75 328,-687.75 331.5,-677.75 324.5,-677.75"/>
</a>
</g>
</g>
<!-- Node9 -->
<g id="Node000009" class="node">
<title>Node9</title>
<g id="a_Node000009"><a xlink:title=" ">
<polygon fill="white" stroke="transparent" points="379.5,-845 276.5,-845 276.5,-785 379.5,-785 379.5,-845"/>
<text text-anchor="start" x="282" y="-833" font-family="Helvetica,sans-Serif" font-size="10.00">std::basic_ostream</text>
<text text-anchor="start" x="305.5" y="-822" font-family="Helvetica,sans-Serif" font-size="10.00">&lt; Char &gt;</text>
<text text-anchor="start" x="326.5" y="-807" font-family="Helvetica,sans-Serif" font-size="10.00"> </text>
<text text-anchor="start" x="326.5" y="-792" font-family="Helvetica,sans-Serif" font-size="10.00"> </text>
<polygon fill="#666666" stroke="#666666" points="277,-817 277,-817 380,-817 380,-817 277,-817"/>
<polygon fill="#666666" stroke="#666666" points="277,-802 277,-802 380,-802 380,-802 277,-802"/>
<polygon fill="none" stroke="#666666" points="276.5,-785 276.5,-845 379.5,-845 379.5,-785 276.5,-785"/>
</a>
</g>
</g>
<!-- Node9&#45;&gt;Node8 -->
<g id="edge8_Node000008_Node000009" class="edge">
<title>Node9&#45;&gt;Node8</title>
<g id="a_edge8_Node000008_Node000009"><a xlink:title=" ">
<path fill="none" stroke="#63b8ff" d="M328,-774.79C328,-765.88 328,-756.57 328,-748.17"/>
<polygon fill="none" stroke="#63b8ff" points="324.5,-774.98 328,-784.98 331.5,-774.98 324.5,-774.98"/>
</a>
</g>
</g>
<!-- Node10 -->
<g id="Node000010" class="node">
<title>Node10</title>
<g id="a_Node000010"><a xlink:title=" ">
<polygon fill="white" stroke="transparent" points="389,-931 267,-931 267,-882 389,-882 389,-931"/>
<text text-anchor="start" x="272" y="-918.5" font-family="Helvetica,sans-Serif" font-size="10.00">std::basic_ios&lt; Char &gt;</text>
<text text-anchor="start" x="326" y="-903.5" font-family="Helvetica,sans-Serif" font-size="10.00"> </text>
<text text-anchor="start" x="326" y="-888.5" font-family="Helvetica,sans-Serif" font-size="10.00"> </text>
<polygon fill="#666666" stroke="#666666" points="267,-913.5 267,-913.5 389,-913.5 389,-913.5 267,-913.5"/>
<polygon fill="#666666" stroke="#666666" points="267,-898.5 267,-898.5 389,-898.5 389,-898.5 267,-898.5"/>
<polygon fill="none" stroke="#666666" points="267,-882 267,-931 389,-931 389,-882 267,-882"/>
</a>
</g>
</g>
<!-- Node10&#45;&gt;Node9 -->
<g id="edge9_Node000009_Node000010" class="edge">
<title>Node10&#45;&gt;Node9</title>
<g id="a_edge9_Node000009_Node000010"><a xlink:title=" ">
<path fill="none" stroke="#63b8ff" d="M328,-871.7C328,-862.95 328,-853.6 328,-845.12"/>
<polygon fill="none" stroke="#63b8ff" points="324.5,-871.98 328,-881.98 331.5,-871.98 324.5,-871.98"/>
</a>
</g>
</g>
<!-- Node11 -->
<g id="Node000011" class="node">
<title>Node11</title>
<g id="a_Node000011"><a xlink:title=" ">
<polygon fill="white" stroke="transparent" points="365,-1017 291,-1017 291,-968 365,-968 365,-1017"/>
<text text-anchor="start" x="296" y="-1004.5" font-family="Helvetica,sans-Serif" font-size="10.00">std::ios_base</text>
<text text-anchor="start" x="326" y="-989.5" font-family="Helvetica,sans-Serif" font-size="10.00"> </text>
<text text-anchor="start" x="326" y="-974.5" font-family="Helvetica,sans-Serif" font-size="10.00"> </text>
<polygon fill="#666666" stroke="#666666" points="291,-999.5 291,-999.5 365,-999.5 365,-999.5 291,-999.5"/>
<polygon fill="#666666" stroke="#666666" points="291,-984.5 291,-984.5 365,-984.5 365,-984.5 291,-984.5"/>
<polygon fill="none" stroke="#666666" points="291,-968 291,-1017 365,-1017 365,-968 291,-968"/>
</a>
</g>
</g>
<!-- Node11&#45;&gt;Node10 -->
<g id="edge10_Node000010_Node000011" class="edge">
<title>Node11&#45;&gt;Node10</title>
<g id="a_edge10_Node000010_Node000011"><a xlink:title=" ">
<path fill="none" stroke="#63b8ff" d="M328,-957.57C328,-948.69 328,-939.32 328,-931.12"/>
<polygon fill="none" stroke="#63b8ff" points="324.5,-957.65 328,-967.65 331.5,-957.65 324.5,-957.65"/>
</a>
</g>
</g>
<!-- Node12 -->
<g id="Node000012" class="node">
<title>Node12</title>
<g id="a_Node000012"><a xlink:title=" ">
<polygon fill="white" stroke="transparent" points="496,-635.5 384,-635.5 384,-586.5 496,-586.5 496,-635.5"/>
<text text-anchor="start" x="389" y="-623" font-family="Helvetica,sans-Serif" font-size="10.00">std::shared_ptr&lt; T &gt;</text>
<text text-anchor="start" x="438" y="-608" font-family="Helvetica,sans-Serif" font-size="10.00"> </text>
<text text-anchor="start" x="395.5" y="-593" font-family="Helvetica,sans-Serif" font-size="10.00">+</text>
<text text-anchor="start" x="416" y="-593" font-family="Helvetica,sans-Serif" font-size="10.00">operator&#45;&gt;()</text>
<polygon fill="#666666" stroke="#666666" points="384,-618 384,-618 496,-618 496,-618 384,-618"/>
<polygon fill="#666666" stroke="#666666" points="384,-603 384,-603 496,-603 496,-603 384,-603"/>
<polygon fill="none" stroke="#666666" points="384,-586.5 384,-635.5 496,-635.5 496,-586.5 384,-586.5"/>
</a>
</g>
</g>
<!-- Node12&#45;&gt;Node6 -->
<g id="edge11_Node000006_Node000012" class="edge">
<title>Node12&#45;&gt;Node6</title>
<g id="a_edge11_Node000006_Node000012"><a xlink:title=" ">
<path fill="none" stroke="orange" d="M409.53,-578.85C393.09,-562.05 372.92,-541.42 356.75,-524.89"/>
<polygon fill="orange" stroke="orange" points="407.3,-581.57 416.79,-586.28 412.3,-576.68 407.3,-581.57"/>
</a>
</g>
<text text-anchor="middle" x="436.5" y="-555" font-family="Helvetica,sans-Serif" font-size="10.00" fill="grey"> &lt; std::ofstream &gt;</text>
</g>
<!-- Node13 -->
<g id="Node000013" class="node">
<title>Node13</title>
<g id="a_Node000013"><a xlink:title=" ">
<polygon fill="white" stroke="transparent" points="448.5,-742.5 431.5,-742.5 431.5,-693.5 448.5,-693.5 448.5,-742.5"/>
<text text-anchor="start" x="437" y="-730" font-family="Helvetica,sans-Serif" font-size="10.00">T</text>
<text text-anchor="start" x="438.5" y="-715" font-family="Helvetica,sans-Serif" font-size="10.00"> </text>
<text text-anchor="start" x="438.5" y="-700" font-family="Helvetica,sans-Serif" font-size="10.00"> </text>
<polygon fill="#bfbfbf" stroke="#bfbfbf" points="432,-725 432,-725 449,-725 449,-725 432,-725"/>
<polygon fill="#bfbfbf" stroke="#bfbfbf" points="432,-710 432,-710 449,-710 449,-710 432,-710"/>
<polygon fill="none" stroke="#bfbfbf" points="431.5,-693.5 431.5,-742.5 448.5,-742.5 448.5,-693.5 431.5,-693.5"/>
</a>
</g>
</g>
<!-- Node13&#45;&gt;Node12 -->
<g id="edge12_Node000012_Node000013" class="edge">
<title>Node13&#45;&gt;Node12</title>
<g id="a_edge12_Node000012_Node000013"><a xlink:title=" ">
<path fill="none" stroke="#63b8ff" d="M440,-693.44C440,-680.02 440,-662.94 440,-647.89"/>
<polygon fill="none" stroke="#63b8ff" points="440,-647.85 436,-641.85 440,-635.85 444,-641.85 440,-647.85"/>
</a>
</g>
<text text-anchor="middle" x="452.5" y="-662" font-family="Helvetica,sans-Serif" font-size="10.00" fill="grey"> +ptr</text>
</g>
</g>
</svg>
