<?xml version="1.0" encoding="UTF-8" standalone="no"?>
<!DOCTYPE svg PUBLIC "-//W3C//DTD SVG 1.1//EN"
 "http://www.w3.org/Graphics/SVG/1.1/DTD/svg11.dtd">
<!-- Generated by graphviz version 2.43.0 (0)
 -->
<!-- Title: DistributedBoxCollection&lt; DIM &gt; Pages: 1 -->
<svg width="1547pt" height="731pt"
 viewBox="0.00 0.00 1547.00 731.00" xmlns="http://www.w3.org/2000/svg" xmlns:xlink="http://www.w3.org/1999/xlink">
<g id="graph0" class="graph" transform="scale(1 1) rotate(0) translate(4 727)">
<title>DistributedBoxCollection&lt; DIM &gt;</title>
<!-- Node1 -->
<g id="Node000001" class="node">
<title>Node1</title>
<g id="a_Node000001"><a xlink:title=" ">
<polygon fill="#999999" stroke="transparent" points="914,-240 755,-240 755,0 914,0 914,-240"/>
<text text-anchor="start" x="774" y="-228" font-family="Helvetica,sans-Serif" font-size="10.00">DistributedBoxCollection</text>
<text text-anchor="start" x="813.5" y="-217" font-family="Helvetica,sans-Serif" font-size="10.00">&lt; DIM &gt;</text>
<text text-anchor="start" x="833" y="-202" font-family="Helvetica,sans-Serif" font-size="10.00"> </text>
<text text-anchor="start" x="759.5" y="-187" font-family="Helvetica,sans-Serif" font-size="10.00">+</text>
<text text-anchor="start" x="772.5" y="-187" font-family="Helvetica,sans-Serif" font-size="10.00">DistributedBoxCollection()</text>
<text text-anchor="start" x="759.5" y="-172" font-family="Helvetica,sans-Serif" font-size="10.00">+</text>
<text text-anchor="start" x="772.5" y="-172" font-family="Helvetica,sans-Serif" font-size="10.00">~DistributedBoxCollection()</text>
<text text-anchor="start" x="759.5" y="-157" font-family="Helvetica,sans-Serif" font-size="10.00">+</text>
<text text-anchor="start" x="772.5" y="-157" font-family="Helvetica,sans-Serif" font-size="10.00">EmptyBoxes()</text>
<text text-anchor="start" x="759.5" y="-142" font-family="Helvetica,sans-Serif" font-size="10.00">+</text>
<text text-anchor="start" x="772.5" y="-142" font-family="Helvetica,sans-Serif" font-size="10.00">UpdateHaloBoxes()</text>
<text text-anchor="start" x="759.5" y="-127" font-family="Helvetica,sans-Serif" font-size="10.00">+</text>
<text text-anchor="start" x="772.5" y="-127" font-family="Helvetica,sans-Serif" font-size="10.00">GetNumLocalRows()</text>
<text text-anchor="start" x="759.5" y="-112" font-family="Helvetica,sans-Serif" font-size="10.00">+</text>
<text text-anchor="start" x="772.5" y="-112" font-family="Helvetica,sans-Serif" font-size="10.00">IsBoxOwned()</text>
<text text-anchor="start" x="759.5" y="-97" font-family="Helvetica,sans-Serif" font-size="10.00">+</text>
<text text-anchor="start" x="772.5" y="-97" font-family="Helvetica,sans-Serif" font-size="10.00">IsInteriorBox()</text>
<text text-anchor="start" x="759.5" y="-82" font-family="Helvetica,sans-Serif" font-size="10.00">+</text>
<text text-anchor="start" x="772.5" y="-82" font-family="Helvetica,sans-Serif" font-size="10.00">IsHaloBox()</text>
<text text-anchor="start" x="759.5" y="-67" font-family="Helvetica,sans-Serif" font-size="10.00">+</text>
<text text-anchor="start" x="772.5" y="-67" font-family="Helvetica,sans-Serif" font-size="10.00">CalculateGlobalIndex()</text>
<text text-anchor="start" x="759.5" y="-52" font-family="Helvetica,sans-Serif" font-size="10.00">+</text>
<text text-anchor="start" x="772.5" y="-52" font-family="Helvetica,sans-Serif" font-size="10.00">CalculateContainingBox()</text>
<text text-anchor="start" x="772.5" y="-37" font-family="Helvetica,sans-Serif" font-size="10.00">and 30 more...</text>
<text text-anchor="start" x="762" y="-22" font-family="Helvetica,sans-Serif" font-size="10.00">&#45;</text>
<text text-anchor="start" x="772.5" y="-22" font-family="Helvetica,sans-Serif" font-size="10.00">SetupHaloBoxes()</text>
<text text-anchor="start" x="762" y="-7" font-family="Helvetica,sans-Serif" font-size="10.00">&#45;</text>
<text text-anchor="start" x="772.5" y="-7" font-family="Helvetica,sans-Serif" font-size="10.00">serialize()</text>
<polygon fill="#666666" stroke="#666666" points="755.5,-212 755.5,-212 914.5,-212 914.5,-212 755.5,-212"/>
<polygon fill="#666666" stroke="#666666" points="755.5,-197 755.5,-197 914.5,-197 914.5,-197 755.5,-197"/>
<polygon fill="none" stroke="#666666" points="755,0 755,-240 914,-240 914,0 755,0"/>
</a>
</g>
</g>
<!-- Node2 -->
<g id="Node000002" class="node">
<title>Node2</title>
<g id="a_Node000002"><a xlink:title=" ">
<polygon fill="white" stroke="transparent" points="125,-470.5 0,-470.5 0,-421.5 125,-421.5 125,-470.5"/>
<text text-anchor="start" x="5.5" y="-458" font-family="Helvetica,sans-Serif" font-size="10.00">vector&lt; Box&lt; DIM &gt; &gt;</text>
<text text-anchor="start" x="61" y="-443" font-family="Helvetica,sans-Serif" font-size="10.00"> </text>
<text text-anchor="start" x="61" y="-428" font-family="Helvetica,sans-Serif" font-size="10.00"> </text>
<polygon fill="#bfbfbf" stroke="#bfbfbf" points="0.5,-453 0.5,-453 125.5,-453 125.5,-453 0.5,-453"/>
<polygon fill="#bfbfbf" stroke="#bfbfbf" points="0.5,-438 0.5,-438 125.5,-438 125.5,-438 0.5,-438"/>
<polygon fill="none" stroke="#bfbfbf" points="0,-421.5 0,-470.5 125,-470.5 125,-421.5 0,-421.5"/>
</a>
</g>
</g>
<!-- Node2&#45;&gt;Node1 -->
<g id="edge1_Node000001_Node000002" class="edge">
<title>Node2&#45;&gt;Node1</title>
<g id="a_edge1_Node000001_Node000002"><a xlink:title=" ">
<path fill="none" stroke="#63b8ff" d="M56.87,-421.33C49.03,-381.94 40.08,-302.81 81.5,-258 169.61,-162.67 561.85,-133.05 742.66,-124.37"/>
<polygon fill="none" stroke="#63b8ff" points="742.8,-124.37 748.61,-120.09 754.79,-123.81 748.98,-128.08 742.8,-124.37"/>
</a>
</g>
<text text-anchor="middle" x="114.5" y="-272" font-family="Helvetica,sans-Serif" font-size="10.00" fill="grey"> &#45;mBoxes</text>
<text text-anchor="middle" x="114.5" y="-261" font-family="Helvetica,sans-Serif" font-size="10.00" fill="grey">&#45;mHaloBoxes</text>
</g>
<!-- Node3 -->
<g id="Node000003" class="node">
<title>Node3</title>
<g id="a_Node000003"><a xlink:title=" ">
<polygon fill="white" stroke="transparent" points="319.5,-723 211.5,-723 211.5,-674 319.5,-674 319.5,-723"/>
<text text-anchor="start" x="216.5" y="-710.5" font-family="Helvetica,sans-Serif" font-size="10.00">vector&lt; unsigned &gt;</text>
<text text-anchor="start" x="263.5" y="-695.5" font-family="Helvetica,sans-Serif" font-size="10.00"> </text>
<text text-anchor="start" x="263.5" y="-680.5" font-family="Helvetica,sans-Serif" font-size="10.00"> </text>
<polygon fill="#bfbfbf" stroke="#bfbfbf" points="211.5,-705.5 211.5,-705.5 319.5,-705.5 319.5,-705.5 211.5,-705.5"/>
<polygon fill="#bfbfbf" stroke="#bfbfbf" points="211.5,-690.5 211.5,-690.5 319.5,-690.5 319.5,-690.5 211.5,-690.5"/>
<polygon fill="none" stroke="#bfbfbf" points="211.5,-674 211.5,-723 319.5,-723 319.5,-674 211.5,-674"/>
</a>
</g>
</g>
<!-- Node3&#45;&gt;Node1 -->
<g id="edge2_Node000001_Node000003" class="edge">
<title>Node3&#45;&gt;Node1</title>
<g id="a_edge2_Node000001_Node000003"><a xlink:title=" ">
<path fill="none" stroke="#63b8ff" d="M233.71,-673.8C211.31,-654.99 183.15,-626.5 170.5,-594 146.63,-532.7 130.42,-350.16 170.5,-298 240.13,-207.38 577.41,-153.26 742.75,-131.77"/>
<polygon fill="none" stroke="#63b8ff" points="742.93,-131.75 748.37,-127.01 754.83,-130.22 749.39,-134.95 742.93,-131.75"/>
</a>
</g>
<text text-anchor="middle" x="217" y="-460" font-family="Helvetica,sans-Serif" font-size="10.00" fill="grey"> &#45;mHaloNodesLeft</text>
<text text-anchor="middle" x="217" y="-449" font-family="Helvetica,sans-Serif" font-size="10.00" fill="grey">&#45;mHaloNodesRight</text>
<text text-anchor="middle" x="217" y="-438" font-family="Helvetica,sans-Serif" font-size="10.00" fill="grey">&#45;mHalosLeft</text>
<text text-anchor="middle" x="217" y="-427" font-family="Helvetica,sans-Serif" font-size="10.00" fill="grey">&#45;mHalosRight</text>
</g>
<!-- Node12 -->
<g id="Node000012" class="node">
<title>Node12</title>
<g id="a_Node000012"><a xlink:href="classDistributedVectorFactory.html" target="_top" xlink:title=" ">
<polygon fill="white" stroke="transparent" points="438.5,-594 272.5,-594 272.5,-298 438.5,-298 438.5,-594"/>
<text text-anchor="start" x="295" y="-582" font-family="Helvetica,sans-Serif" font-size="10.00">DistributedVectorFactory</text>
<text text-anchor="start" x="353.5" y="-567" font-family="Helvetica,sans-Serif" font-size="10.00"> </text>
<text text-anchor="start" x="276.5" y="-552" font-family="Helvetica,sans-Serif" font-size="10.00">+</text>
<text text-anchor="start" x="289.5" y="-552" font-family="Helvetica,sans-Serif" font-size="10.00">DistributedVectorFactory()</text>
<text text-anchor="start" x="276.5" y="-537" font-family="Helvetica,sans-Serif" font-size="10.00">+</text>
<text text-anchor="start" x="289.5" y="-537" font-family="Helvetica,sans-Serif" font-size="10.00">DistributedVectorFactory()</text>
<text text-anchor="start" x="276.5" y="-522" font-family="Helvetica,sans-Serif" font-size="10.00">+</text>
<text text-anchor="start" x="289.5" y="-522" font-family="Helvetica,sans-Serif" font-size="10.00">DistributedVectorFactory()</text>
<text text-anchor="start" x="276.5" y="-507" font-family="Helvetica,sans-Serif" font-size="10.00">+</text>
<text text-anchor="start" x="289.5" y="-507" font-family="Helvetica,sans-Serif" font-size="10.00">DistributedVectorFactory()</text>
<text text-anchor="start" x="276.5" y="-492" font-family="Helvetica,sans-Serif" font-size="10.00">+</text>
<text text-anchor="start" x="289.5" y="-492" font-family="Helvetica,sans-Serif" font-size="10.00">~DistributedVectorFactory()</text>
<text text-anchor="start" x="276.5" y="-477" font-family="Helvetica,sans-Serif" font-size="10.00">+</text>
<text text-anchor="start" x="289.5" y="-477" font-family="Helvetica,sans-Serif" font-size="10.00">CreateVec()</text>
<text text-anchor="start" x="276.5" y="-462" font-family="Helvetica,sans-Serif" font-size="10.00">+</text>
<text text-anchor="start" x="289.5" y="-462" font-family="Helvetica,sans-Serif" font-size="10.00">CreateVec()</text>
<text text-anchor="start" x="276.5" y="-447" font-family="Helvetica,sans-Serif" font-size="10.00">+</text>
<text text-anchor="start" x="289.5" y="-447" font-family="Helvetica,sans-Serif" font-size="10.00">CreateDistributedVector()</text>
<text text-anchor="start" x="276.5" y="-432" font-family="Helvetica,sans-Serif" font-size="10.00">+</text>
<text text-anchor="start" x="289.5" y="-432" font-family="Helvetica,sans-Serif" font-size="10.00">IsGlobalIndexLocal()</text>
<text text-anchor="start" x="276.5" y="-417" font-family="Helvetica,sans-Serif" font-size="10.00">+</text>
<text text-anchor="start" x="289.5" y="-417" font-family="Helvetica,sans-Serif" font-size="10.00">GetLocalOwnership()</text>
<text text-anchor="start" x="289.5" y="-402" font-family="Helvetica,sans-Serif" font-size="10.00">and 8 more...</text>
<text text-anchor="start" x="276.5" y="-387" font-family="Helvetica,sans-Serif" font-size="10.00">+</text>
<text text-anchor="start" x="289.5" y="-387" font-family="Helvetica,sans-Serif" font-size="10.00">SetCheckNumberOfProcesses</text>
<text text-anchor="start" x="289.5" y="-376" font-family="Helvetica,sans-Serif" font-size="10.00">OnLoad()</text>
<text text-anchor="start" x="276.5" y="-361" font-family="Helvetica,sans-Serif" font-size="10.00">+</text>
<text text-anchor="start" x="289.5" y="-361" font-family="Helvetica,sans-Serif" font-size="10.00">CheckNumberOfProcessesOn</text>
<text text-anchor="start" x="289.5" y="-350" font-family="Helvetica,sans-Serif" font-size="10.00">Load()</text>
<text text-anchor="start" x="279" y="-335" font-family="Helvetica,sans-Serif" font-size="10.00">&#45;</text>
<text text-anchor="start" x="289.5" y="-335" font-family="Helvetica,sans-Serif" font-size="10.00">CheckForPetsc()</text>
<text text-anchor="start" x="279" y="-320" font-family="Helvetica,sans-Serif" font-size="10.00">&#45;</text>
<text text-anchor="start" x="289.5" y="-320" font-family="Helvetica,sans-Serif" font-size="10.00">CalculateOwnership()</text>
<text text-anchor="start" x="279" y="-305" font-family="Helvetica,sans-Serif" font-size="10.00">&#45;</text>
<text text-anchor="start" x="289.5" y="-305" font-family="Helvetica,sans-Serif" font-size="10.00">serialize()</text>
<polygon fill="#666666" stroke="#666666" points="272.5,-577 272.5,-577 438.5,-577 438.5,-577 272.5,-577"/>
<polygon fill="#666666" stroke="#666666" points="272.5,-562 272.5,-562 438.5,-562 438.5,-562 272.5,-562"/>
<polygon fill="none" stroke="#666666" points="272.5,-298 272.5,-594 438.5,-594 438.5,-298 272.5,-298"/>
</a>
</g>
</g>
<!-- Node3&#45;&gt;Node12 -->
<g id="edge15_Node000012_Node000003" class="edge">
<title>Node3&#45;&gt;Node12</title>
<g id="a_edge15_Node000012_Node000003"><a xlink:title=" ">
<path fill="none" stroke="#63b8ff" d="M273.97,-673.93C280.05,-656.99 288.85,-632.5 298.44,-605.81"/>
<polygon fill="none" stroke="#63b8ff" points="298.54,-605.55 296.8,-598.55 302.59,-594.25 304.33,-601.25 298.54,-605.55"/>
</a>
</g>
<text text-anchor="middle" x="332" y="-631.5" font-family="Helvetica,sans-Serif" font-size="10.00" fill="grey"> &#45;mGlobalLows</text>
</g>
<!-- Node4 -->
<g id="Node000004" class="node">
<title>Node4</title>
<g id="a_Node000004"><a xlink:title=" ">
<polygon fill="white" stroke="transparent" points="1038,-470.5 889,-470.5 889,-421.5 1038,-421.5 1038,-470.5"/>
<text text-anchor="start" x="894.5" y="-458" font-family="Helvetica,sans-Serif" font-size="10.00">map&lt; unsigned, unsigned &gt;</text>
<text text-anchor="start" x="962" y="-443" font-family="Helvetica,sans-Serif" font-size="10.00"> </text>
<text text-anchor="start" x="962" y="-428" font-family="Helvetica,sans-Serif" font-size="10.00"> </text>
<polygon fill="#bfbfbf" stroke="#bfbfbf" points="889.5,-453 889.5,-453 1038.5,-453 1038.5,-453 889.5,-453"/>
<polygon fill="#bfbfbf" stroke="#bfbfbf" points="889.5,-438 889.5,-438 1038.5,-438 1038.5,-438 889.5,-438"/>
<polygon fill="none" stroke="#bfbfbf" points="889,-421.5 889,-470.5 1038,-470.5 1038,-421.5 889,-421.5"/>
</a>
</g>
</g>
<!-- Node4&#45;&gt;Node1 -->
<g id="edge3_Node000001_Node000004" class="edge">
<title>Node4&#45;&gt;Node1</title>
<g id="a_edge3_Node000001_Node000004"><a xlink:title=" ">
<path fill="none" stroke="#63b8ff" d="M954.12,-421.44C939.9,-385.72 911.85,-315.28 886.49,-251.58"/>
<polygon fill="none" stroke="#63b8ff" points="886.39,-251.33 880.46,-247.24 881.95,-240.18 887.89,-244.28 886.39,-251.33"/>
</a>
</g>
<text text-anchor="middle" x="950" y="-266.5" font-family="Helvetica,sans-Serif" font-size="10.00" fill="grey"> &#45;mHaloBoxesMapping</text>
</g>
<!-- Node5 -->
<g id="Node000005" class="node">
<title>Node5</title>
<g id="a_Node000005"><a xlink:title=" ">
<polygon fill="white" stroke="transparent" points="1164.5,-476 1056.5,-476 1056.5,-416 1164.5,-416 1164.5,-476"/>
<text text-anchor="start" x="1061.5" y="-464" font-family="Helvetica,sans-Serif" font-size="10.00">c_vector&lt; double, 2</text>
<text text-anchor="start" x="1090.5" y="-453" font-family="Helvetica,sans-Serif" font-size="10.00"> *DIM &gt;</text>
<text text-anchor="start" x="1108.5" y="-438" font-family="Helvetica,sans-Serif" font-size="10.00"> </text>
<text text-anchor="start" x="1108.5" y="-423" font-family="Helvetica,sans-Serif" font-size="10.00"> </text>
<polygon fill="#bfbfbf" stroke="#bfbfbf" points="1056.5,-448 1056.5,-448 1164.5,-448 1164.5,-448 1056.5,-448"/>
<polygon fill="#bfbfbf" stroke="#bfbfbf" points="1056.5,-433 1056.5,-433 1164.5,-433 1164.5,-433 1056.5,-433"/>
<polygon fill="none" stroke="#bfbfbf" points="1056.5,-416 1056.5,-476 1164.5,-476 1164.5,-416 1056.5,-416"/>
</a>
</g>
</g>
<!-- Node5&#45;&gt;Node1 -->
<g id="edge4_Node000001_Node000005" class="edge">
<title>Node5&#45;&gt;Node1</title>
<g id="a_edge4_Node000001_Node000005"><a xlink:title=" ">
<path fill="none" stroke="#63b8ff" d="M1101.45,-415.86C1091.13,-385.06 1072.39,-335.8 1047.5,-298 1015.73,-249.76 966.87,-207.81 923.95,-176.88"/>
<polygon fill="none" stroke="#63b8ff" points="923.83,-176.79 916.62,-176.58 914.04,-169.85 921.25,-170.06 923.83,-176.79"/>
</a>
</g>
<text text-anchor="middle" x="1072.5" y="-266.5" font-family="Helvetica,sans-Serif" font-size="10.00" fill="grey"> &#45;mDomainSize</text>
</g>
<!-- Node6 -->
<g id="Node000006" class="node">
<title>Node6</title>
<g id="a_Node000006"><a xlink:title=" ">
<polygon fill="white" stroke="transparent" points="1199.5,-723 1147.5,-723 1147.5,-674 1199.5,-674 1199.5,-723"/>
<text text-anchor="start" x="1152.5" y="-710.5" font-family="Helvetica,sans-Serif" font-size="10.00">c_vector</text>
<text text-anchor="start" x="1171.5" y="-695.5" font-family="Helvetica,sans-Serif" font-size="10.00"> </text>
<text text-anchor="start" x="1171.5" y="-680.5" font-family="Helvetica,sans-Serif" font-size="10.00"> </text>
<polygon fill="#bfbfbf" stroke="#bfbfbf" points="1147.5,-705.5 1147.5,-705.5 1199.5,-705.5 1199.5,-705.5 1147.5,-705.5"/>
<polygon fill="#bfbfbf" stroke="#bfbfbf" points="1147.5,-690.5 1147.5,-690.5 1199.5,-690.5 1199.5,-690.5 1147.5,-690.5"/>
<polygon fill="none" stroke="#bfbfbf" points="1147.5,-674 1147.5,-723 1199.5,-723 1199.5,-674 1147.5,-674"/>
</a>
</g>
</g>
<!-- Node6&#45;&gt;Node5 -->
<g id="edge5_Node000005_Node000006" class="edge">
<title>Node6&#45;&gt;Node5</title>
<g id="a_edge5_Node000005_Node000006"><a xlink:title=" ">
<path fill="none" stroke="orange" d="M1138.5,-680.73C1129.02,-674.37 1119.9,-666.16 1114.5,-656 1083.84,-598.32 1094.32,-518.42 1103.24,-476.07"/>
<polygon fill="orange" stroke="orange" points="1136.85,-683.82 1147.21,-686.04 1140.5,-677.85 1136.85,-683.82"/>
</a>
</g>
<text text-anchor="middle" x="1164" y="-631.5" font-family="Helvetica,sans-Serif" font-size="10.00" fill="grey"> &lt; double, 2 *DIM &gt;</text>
</g>
<!-- Node9 -->
<g id="Node000009" class="node">
<title>Node9</title>
<g id="a_Node000009"><a xlink:title=" ">
<polygon fill="white" stroke="transparent" points="1292.5,-476 1182.5,-476 1182.5,-416 1292.5,-416 1292.5,-476"/>
<text text-anchor="start" x="1187.5" y="-464" font-family="Helvetica,sans-Serif" font-size="10.00">c_vector&lt; unsigned,</text>
<text text-anchor="start" x="1220.5" y="-453" font-family="Helvetica,sans-Serif" font-size="10.00"> DIM &gt;</text>
<text text-anchor="start" x="1235.5" y="-438" font-family="Helvetica,sans-Serif" font-size="10.00"> </text>
<text text-anchor="start" x="1235.5" y="-423" font-family="Helvetica,sans-Serif" font-size="10.00"> </text>
<polygon fill="#bfbfbf" stroke="#bfbfbf" points="1182.5,-448 1182.5,-448 1292.5,-448 1292.5,-448 1182.5,-448"/>
<polygon fill="#bfbfbf" stroke="#bfbfbf" points="1182.5,-433 1182.5,-433 1292.5,-433 1292.5,-433 1182.5,-433"/>
<polygon fill="none" stroke="#bfbfbf" points="1182.5,-416 1182.5,-476 1292.5,-476 1292.5,-416 1182.5,-416"/>
</a>
</g>
</g>
<!-- Node6&#45;&gt;Node9 -->
<g id="edge9_Node000009_Node000006" class="edge">
<title>Node6&#45;&gt;Node9</title>
<g id="a_edge9_Node000009_Node000006"><a xlink:title=" ">
<path fill="none" stroke="orange" d="M1206.29,-667.72C1209.09,-664.01 1211.58,-660.08 1213.5,-656 1241.39,-596.87 1242.01,-518.25 1239.86,-476.3"/>
<polygon fill="orange" stroke="orange" points="1203.55,-665.54 1199.79,-675.45 1208.91,-670.05 1203.55,-665.54"/>
</a>
</g>
<text text-anchor="middle" x="1276.5" y="-631.5" font-family="Helvetica,sans-Serif" font-size="10.00" fill="grey"> &lt; unsigned, DIM &gt;</text>
</g>
<!-- Node7 -->
<g id="Node000007" class="node">
<title>Node7</title>
<g id="a_Node000007"><a xlink:href="classdouble.html" target="_top" xlink:title=" ">
<polygon fill="white" stroke="transparent" points="1354.5,-470.5 1310.5,-470.5 1310.5,-421.5 1354.5,-421.5 1354.5,-470.5"/>
<text text-anchor="start" x="1315.5" y="-458" font-family="Helvetica,sans-Serif" font-size="10.00">double</text>
<text text-anchor="start" x="1330.5" y="-443" font-family="Helvetica,sans-Serif" font-size="10.00"> </text>
<text text-anchor="start" x="1330.5" y="-428" font-family="Helvetica,sans-Serif" font-size="10.00"> </text>
<polygon fill="#bfbfbf" stroke="#bfbfbf" points="1310.5,-453 1310.5,-453 1354.5,-453 1354.5,-453 1310.5,-453"/>
<polygon fill="#bfbfbf" stroke="#bfbfbf" points="1310.5,-438 1310.5,-438 1354.5,-438 1354.5,-438 1310.5,-438"/>
<polygon fill="none" stroke="#bfbfbf" points="1310.5,-421.5 1310.5,-470.5 1354.5,-470.5 1354.5,-421.5 1310.5,-421.5"/>
</a>
</g>
</g>
<!-- Node7&#45;&gt;Node1 -->
<g id="edge6_Node000001_Node000007" class="edge">
<title>Node7&#45;&gt;Node1</title>
<g id="a_edge6_Node000001_Node000007"><a xlink:title=" ">
<path fill="none" stroke="#63b8ff" d="M1334.69,-421.21C1336.92,-381.98 1335.35,-303.54 1293.5,-258 1198.91,-155.07 1030.64,-128.24 926.24,-121.96"/>
<polygon fill="none" stroke="#63b8ff" points="926.13,-121.95 919.92,-125.62 914.14,-121.3 920.35,-117.63 926.13,-121.95"/>
</a>
</g>
<text text-anchor="middle" x="1340.5" y="-272" font-family="Helvetica,sans-Serif" font-size="10.00" fill="grey"> &#45;mBoxWidth</text>
<text text-anchor="middle" x="1340.5" y="-261" font-family="Helvetica,sans-Serif" font-size="10.00" fill="grey">&#45;msFudge</text>
</g>
<!-- Node8 -->
<g id="Node000008" class="node">
<title>Node8</title>
<g id="a_Node000008"><a xlink:href="classunsigned.html" target="_top" xlink:title=" ">
<polygon fill="white" stroke="transparent" points="462,-723 407,-723 407,-674 462,-674 462,-723"/>
<text text-anchor="start" x="412.5" y="-710.5" font-family="Helvetica,sans-Serif" font-size="10.00">unsigned</text>
<text text-anchor="start" x="433" y="-695.5" font-family="Helvetica,sans-Serif" font-size="10.00"> </text>
<text text-anchor="start" x="433" y="-680.5" font-family="Helvetica,sans-Serif" font-size="10.00"> </text>
<polygon fill="#bfbfbf" stroke="#bfbfbf" points="407.5,-705.5 407.5,-705.5 462.5,-705.5 462.5,-705.5 407.5,-705.5"/>
<polygon fill="#bfbfbf" stroke="#bfbfbf" points="407.5,-690.5 407.5,-690.5 462.5,-690.5 462.5,-690.5 407.5,-690.5"/>
<polygon fill="none" stroke="#bfbfbf" points="407,-674 407,-723 462,-723 462,-674 407,-674"/>
</a>
</g>
</g>
<!-- Node8&#45;&gt;Node1 -->
<g id="edge7_Node000001_Node000008" class="edge">
<title>Node8&#45;&gt;Node1</title>
<g id="a_edge7_Node000001_Node000008"><a xlink:title=" ">
<path fill="none" stroke="#63b8ff" d="M462.08,-682.05C474.28,-674.74 488.54,-665.54 500.5,-656 508.12,-649.92 557.88,-602.58 562.5,-594 626.23,-475.76 554.67,-413.34 623.5,-298 653.11,-248.39 701.78,-206.17 744.91,-175.43"/>
<polygon fill="none" stroke="#63b8ff" points="745.05,-175.33 747.67,-168.62 754.88,-168.45 752.26,-175.17 745.05,-175.33"/>
</a>
</g>
<text text-anchor="middle" x="675.5" y="-460" font-family="Helvetica,sans-Serif" font-size="10.00" fill="grey"> &#45;mMaxBoxIndex</text>
<text text-anchor="middle" x="675.5" y="-449" font-family="Helvetica,sans-Serif" font-size="10.00" fill="grey">&#45;mMinBoxIndex</text>
<text text-anchor="middle" x="675.5" y="-438" font-family="Helvetica,sans-Serif" font-size="10.00" fill="grey">&#45;mNumBoxes</text>
<text text-anchor="middle" x="675.5" y="-427" font-family="Helvetica,sans-Serif" font-size="10.00" fill="grey">&#45;mNumBoxesInAFace</text>
</g>
<!-- Node8&#45;&gt;Node12 -->
<g id="edge13_Node000012_Node000008" class="edge">
<title>Node8&#45;&gt;Node12</title>
<g id="a_edge13_Node000012_Node000008"><a xlink:title=" ">
<path fill="none" stroke="#63b8ff" d="M427.07,-673.93C421.72,-656.99 414,-632.5 405.58,-605.81"/>
<polygon fill="none" stroke="#63b8ff" points="405.55,-605.7 399.93,-601.18 401.94,-594.25 407.56,-598.77 405.55,-605.7"/>
</a>
</g>
<text text-anchor="middle" x="459" y="-648" font-family="Helvetica,sans-Serif" font-size="10.00" fill="grey"> &#45;mHi</text>
<text text-anchor="middle" x="459" y="-637" font-family="Helvetica,sans-Serif" font-size="10.00" fill="grey">&#45;mLo</text>
<text text-anchor="middle" x="459" y="-626" font-family="Helvetica,sans-Serif" font-size="10.00" fill="grey">&#45;mNumProcs</text>
<text text-anchor="middle" x="459" y="-615" font-family="Helvetica,sans-Serif" font-size="10.00" fill="grey">&#45;mProblemSize</text>
</g>
<!-- Node9&#45;&gt;Node1 -->
<g id="edge8_Node000001_Node000009" class="edge">
<title>Node9&#45;&gt;Node1</title>
<g id="a_edge8_Node000001_Node000009"><a xlink:title=" ">
<path fill="none" stroke="#63b8ff" d="M1230.11,-415.88C1220.94,-384.19 1202.83,-333.34 1173.5,-298 1109.27,-220.62 1002.36,-172.84 925.77,-146.73"/>
<polygon fill="none" stroke="#63b8ff" points="925.61,-146.67 918.65,-148.57 914.22,-142.87 921.18,-140.98 925.61,-146.67"/>
</a>
</g>
<text text-anchor="middle" x="1221" y="-266.5" font-family="Helvetica,sans-Serif" font-size="10.00" fill="grey"> &#45;mNumBoxesEachDirection</text>
</g>
<!-- Node10 -->
<g id="Node000010" class="node">
<title>Node10</title>
<g id="a_Node000010"><a xlink:title=" ">
<polygon fill="white" stroke="transparent" points="1539,-470.5 1372,-470.5 1372,-421.5 1539,-421.5 1539,-470.5"/>
<text text-anchor="start" x="1377.5" y="-458" font-family="Helvetica,sans-Serif" font-size="10.00">vector&lt; std::set&lt; unsigned &gt; &gt;</text>
<text text-anchor="start" x="1454" y="-443" font-family="Helvetica,sans-Serif" font-size="10.00"> </text>
<text text-anchor="start" x="1454" y="-428" font-family="Helvetica,sans-Serif" font-size="10.00"> </text>
<polygon fill="#bfbfbf" stroke="#bfbfbf" points="1372.5,-453 1372.5,-453 1539.5,-453 1539.5,-453 1372.5,-453"/>
<polygon fill="#bfbfbf" stroke="#bfbfbf" points="1372.5,-438 1372.5,-438 1539.5,-438 1539.5,-438 1372.5,-438"/>
<polygon fill="none" stroke="#bfbfbf" points="1372,-421.5 1372,-470.5 1539,-470.5 1539,-421.5 1372,-421.5"/>
</a>
</g>
</g>
<!-- Node10&#45;&gt;Node1 -->
<g id="edge10_Node000001_Node000010" class="edge">
<title>Node10&#45;&gt;Node1</title>
<g id="a_edge10_Node000001_Node000010"><a xlink:title=" ">
<path fill="none" stroke="#63b8ff" d="M1452.33,-421.24C1445.71,-381.35 1426.64,-301.04 1376.5,-258 1309.3,-200.32 1062.48,-155.26 926.28,-134.13"/>
<polygon fill="none" stroke="#63b8ff" points="926.12,-134.11 919.58,-137.15 914.26,-132.29 920.79,-129.24 926.12,-134.11"/>
</a>
</g>
<text text-anchor="middle" x="1430.5" y="-266.5" font-family="Helvetica,sans-Serif" font-size="10.00" fill="grey"> &#45;mLocalBoxes</text>
</g>
<!-- Node11 -->
<g id="Node000011" class="node">
<title>Node11</title>
<g id="a_Node000011"><a xlink:href="classbool.html" target="_top" xlink:title=" ">
<polygon fill="white" stroke="transparent" points="663.5,-723 631.5,-723 631.5,-674 663.5,-674 663.5,-723"/>
<text text-anchor="start" x="636.5" y="-710.5" font-family="Helvetica,sans-Serif" font-size="10.00">bool</text>
<text text-anchor="start" x="645.5" y="-695.5" font-family="Helvetica,sans-Serif" font-size="10.00"> </text>
<text text-anchor="start" x="645.5" y="-680.5" font-family="Helvetica,sans-Serif" font-size="10.00"> </text>
<polygon fill="#bfbfbf" stroke="#bfbfbf" points="631.5,-705.5 631.5,-705.5 663.5,-705.5 663.5,-705.5 631.5,-705.5"/>
<polygon fill="#bfbfbf" stroke="#bfbfbf" points="631.5,-690.5 631.5,-690.5 663.5,-690.5 663.5,-690.5 631.5,-690.5"/>
<polygon fill="none" stroke="#bfbfbf" points="631.5,-674 631.5,-723 663.5,-723 663.5,-674 631.5,-674"/>
</a>
</g>
</g>
<!-- Node11&#45;&gt;Node1 -->
<g id="edge11_Node000001_Node000011" class="edge">
<title>Node11&#45;&gt;Node1</title>
<g id="a_edge11_Node000001_Node000011"><a xlink:title=" ">
<path fill="none" stroke="#63b8ff" d="M663.57,-692.57C679.74,-686.69 703.89,-675.16 715.5,-656 756.83,-587.81 717.48,-374.63 739.5,-298 743.96,-282.49 749.9,-266.81 756.66,-251.51"/>
<polygon fill="none" stroke="#63b8ff" points="756.73,-251.37 755.58,-244.25 761.71,-240.46 762.86,-247.58 756.73,-251.37"/>
</a>
</g>
<text text-anchor="middle" x="810" y="-471" font-family="Helvetica,sans-Serif" font-size="10.00" fill="grey"> &#45;mAreLocalBoxesSet</text>
<text text-anchor="middle" x="810" y="-460" font-family="Helvetica,sans-Serif" font-size="10.00" fill="grey">&#45;mCalculateNodeNeighbours</text>
<text text-anchor="middle" x="810" y="-449" font-family="Helvetica,sans-Serif" font-size="10.00" fill="grey">&#45;mIsPeriodicAcrossProcs</text>
<text text-anchor="middle" x="810" y="-438" font-family="Helvetica,sans-Serif" font-size="10.00" fill="grey">&#45;mIsPeriodicInX</text>
<text text-anchor="middle" x="810" y="-427" font-family="Helvetica,sans-Serif" font-size="10.00" fill="grey">&#45;mIsPeriodicInY</text>
<text text-anchor="middle" x="810" y="-416" font-family="Helvetica,sans-Serif" font-size="10.00" fill="grey">&#45;mIsPeriodicInZ</text>
</g>
<!-- Node11&#45;&gt;Node12 -->
<g id="edge14_Node000012_Node000011" class="edge">
<title>Node11&#45;&gt;Node12</title>
<g id="a_edge14_Node000012_Node000011"><a xlink:title=" ">
<path fill="none" stroke="#63b8ff" d="M631.36,-690.85C614.59,-683.56 588.01,-670.9 567.5,-656 524.83,-624.99 482.48,-585.48 446.98,-549.19"/>
<polygon fill="none" stroke="#63b8ff" points="446.94,-549.14 439.89,-547.62 438.58,-540.52 445.63,-542.05 446.94,-549.14"/>
</a>
</g>
<text text-anchor="middle" x="641.5" y="-642.5" font-family="Helvetica,sans-Serif" font-size="10.00" fill="grey"> &#45;mPetscStatusKnown</text>
<text text-anchor="start" x="567.5" y="-631.5" font-family="Helvetica,sans-Serif" font-size="10.00" fill="grey">&#45;msCheckNumberOfProcesses</text>
<text text-anchor="middle" x="641.5" y="-620.5" font-family="Helvetica,sans-Serif" font-size="10.00" fill="grey">OnLoad</text>
</g>
<!-- Node12&#45;&gt;Node1 -->
<g id="edge12_Node000001_Node000012" class="edge">
<title>Node12&#45;&gt;Node1</title>
<g id="a_edge12_Node000001_Node000012"><a xlink:title=" ">
<path fill="none" stroke="#63b8ff" d="M389,-297.75C396.63,-283.13 406,-269.47 417.5,-258 504.99,-170.75 648.93,-139.06 742.72,-127.56"/>
<polygon fill="none" stroke="#63b8ff" points="742.84,-127.55 748.34,-122.88 754.76,-126.16 749.26,-130.83 742.84,-127.55"/>
</a>
</g>
<text text-anchor="middle" x="496.5" y="-266.5" font-family="Helvetica,sans-Serif" font-size="10.00" fill="grey"> &#45;mpDistributedBoxStackFactory</text>
</g>
<!-- Node12&#45;&gt;Node12 -->
<g id="edge16_Node000012_Node000012" class="edge">
<title>Node12&#45;&gt;Node12</title>
<g id="a_edge16_Node000012_Node000012"><a xlink:title=" ">
<path fill="none" stroke="#63b8ff" d="M438.71,-474.92C449.42,-469.91 456.5,-460.27 456.5,-446 456.5,-436.86 453.6,-429.62 448.69,-424.28"/>
<polygon fill="none" stroke="#63b8ff" points="448.44,-424.1 441.24,-423.83 438.71,-417.08 445.91,-417.34 448.44,-424.1"/>
</a>
</g>
<text text-anchor="middle" x="505" y="-443.5" font-family="Helvetica,sans-Serif" font-size="10.00" fill="grey"> &#45;mpOriginalFactory</text>
</g>
</g>
</svg>
