<?xml version="1.0" encoding="UTF-8" standalone="no"?>
<!DOCTYPE svg PUBLIC "-//W3C//DTD SVG 1.1//EN"
 "http://www.w3.org/Graphics/SVG/1.1/DTD/svg11.dtd">
<!-- Generated by graphviz version 2.43.0 (0)
 -->
<!-- Title: NashHunterPoleZeroLaw&lt; DIM &gt; Pages: 1 -->
<svg width="395pt" height="933pt"
 viewBox="0.00 0.00 395.00 933.00" xmlns="http://www.w3.org/2000/svg" xmlns:xlink="http://www.w3.org/1999/xlink">
<g id="graph0" class="graph" transform="scale(1 1) rotate(0) translate(4 929)">
<title>NashHunterPoleZeroLaw&lt; DIM &gt;</title>
<!-- Node1 -->
<g id="Node000001" class="node">
<title>Node1</title>
<g id="a_Node000001"><a xlink:title=" ">
<polygon fill="#999999" stroke="transparent" points="247,-90 97,-90 97,0 247,0 247,-90"/>
<text text-anchor="start" x="111.5" y="-78" font-family="Helvetica,sans-Serif" font-size="10.00">NashHunterPoleZeroLaw</text>
<text text-anchor="start" x="150.5" y="-67" font-family="Helvetica,sans-Serif" font-size="10.00">&lt; DIM &gt;</text>
<text text-anchor="start" x="170" y="-52" font-family="Helvetica,sans-Serif" font-size="10.00"> </text>
<text text-anchor="start" x="101" y="-37" font-family="Helvetica,sans-Serif" font-size="10.00">+</text>
<text text-anchor="start" x="114" y="-37" font-family="Helvetica,sans-Serif" font-size="10.00">NashHunterPoleZeroLaw()</text>
<text text-anchor="start" x="101" y="-22" font-family="Helvetica,sans-Serif" font-size="10.00">+</text>
<text text-anchor="start" x="114" y="-22" font-family="Helvetica,sans-Serif" font-size="10.00">NashHunterPoleZeroLaw()</text>
<text text-anchor="start" x="101" y="-7" font-family="Helvetica,sans-Serif" font-size="10.00">+</text>
<text text-anchor="start" x="114" y="-7" font-family="Helvetica,sans-Serif" font-size="10.00">NashHunterPoleZeroLaw()</text>
<polygon fill="#666666" stroke="#666666" points="97,-62 97,-62 247,-62 247,-62 97,-62"/>
<polygon fill="#666666" stroke="#666666" points="97,-47 97,-47 247,-47 247,-47 97,-47"/>
<polygon fill="none" stroke="#666666" points="97,0 97,-90 247,-90 247,0 97,0"/>
</a>
</g>
</g>
<!-- Node2 -->
<g id="Node000002" class="node">
<title>Node2</title>
<g id="a_Node000002"><a xlink:href="classPoleZeroMaterialLaw.html" target="_top" xlink:title=" ">
<polygon fill="white" stroke="transparent" points="273.5,-262 70.5,-262 70.5,-127 273.5,-127 273.5,-262"/>
<text text-anchor="start" x="120.5" y="-249.5" font-family="Helvetica,sans-Serif" font-size="10.00">PoleZeroMaterialLaw</text>
<text text-anchor="start" x="151" y="-238.5" font-family="Helvetica,sans-Serif" font-size="10.00">&lt; DIM &gt;</text>
<text text-anchor="start" x="170.5" y="-223.5" font-family="Helvetica,sans-Serif" font-size="10.00"> </text>
<text text-anchor="start" x="75" y="-208.5" font-family="Helvetica,sans-Serif" font-size="10.00">+</text>
<text text-anchor="start" x="88" y="-208.5" font-family="Helvetica,sans-Serif" font-size="10.00">PoleZeroMaterialLaw()</text>
<text text-anchor="start" x="75" y="-193.5" font-family="Helvetica,sans-Serif" font-size="10.00">+</text>
<text text-anchor="start" x="88" y="-193.5" font-family="Helvetica,sans-Serif" font-size="10.00">ComputeStressAndStressDerivative()</text>
<text text-anchor="start" x="75" y="-178.5" font-family="Helvetica,sans-Serif" font-size="10.00">+</text>
<text text-anchor="start" x="88" y="-178.5" font-family="Helvetica,sans-Serif" font-size="10.00">GetZeroStrainPressure()</text>
<text text-anchor="start" x="75" y="-163.5" font-family="Helvetica,sans-Serif" font-size="10.00">+</text>
<text text-anchor="start" x="88" y="-163.5" font-family="Helvetica,sans-Serif" font-size="10.00">ScaleMaterialParameters()</text>
<text text-anchor="start" x="75" y="-148.5" font-family="Helvetica,sans-Serif" font-size="10.00">#</text>
<text text-anchor="start" x="88" y="-148.5" font-family="Helvetica,sans-Serif" font-size="10.00">PoleZeroMaterialLaw()</text>
<text text-anchor="start" x="75" y="-133.5" font-family="Helvetica,sans-Serif" font-size="10.00">#</text>
<text text-anchor="start" x="88" y="-133.5" font-family="Helvetica,sans-Serif" font-size="10.00">SetParameters()</text>
<polygon fill="#666666" stroke="#666666" points="71,-233.5 71,-233.5 274,-233.5 274,-233.5 71,-233.5"/>
<polygon fill="#666666" stroke="#666666" points="71,-218.5 71,-218.5 274,-218.5 274,-218.5 71,-218.5"/>
<polygon fill="none" stroke="#666666" points="70.5,-127 70.5,-262 273.5,-262 273.5,-127 70.5,-127"/>
</a>
</g>
</g>
<!-- Node2&#45;&gt;Node1 -->
<g id="edge1_Node000001_Node000002" class="edge">
<title>Node2&#45;&gt;Node1</title>
<g id="a_edge1_Node000001_Node000002"><a xlink:title=" ">
<path fill="none" stroke="#63b8ff" d="M172,-116.5C172,-107.5 172,-98.56 172,-90.23"/>
<polygon fill="none" stroke="#63b8ff" points="168.5,-116.66 172,-126.66 175.5,-116.66 168.5,-116.66"/>
</a>
</g>
</g>
<!-- Node3 -->
<g id="Node000003" class="node">
<title>Node3</title>
<g id="a_Node000003"><a xlink:href="classAbstractIncompressibleMaterialLaw.html" target="_top" xlink:title=" ">
<polygon fill="white" stroke="transparent" points="264.5,-443 79.5,-443 79.5,-331 264.5,-331 264.5,-443"/>
<text text-anchor="start" x="94.5" y="-431" font-family="Helvetica,sans-Serif" font-size="10.00">AbstractIncompressibleMaterial</text>
<text text-anchor="start" x="141.5" y="-420" font-family="Helvetica,sans-Serif" font-size="10.00">Law&lt; DIM &gt;</text>
<text text-anchor="start" x="170.5" y="-405" font-family="Helvetica,sans-Serif" font-size="10.00"> </text>
<text text-anchor="start" x="84" y="-390" font-family="Helvetica,sans-Serif" font-size="10.00">+</text>
<text text-anchor="start" x="97" y="-390" font-family="Helvetica,sans-Serif" font-size="10.00">AbstractIncompressibleMaterial</text>
<text text-anchor="start" x="97" y="-379" font-family="Helvetica,sans-Serif" font-size="10.00">Law()</text>
<text text-anchor="start" x="84" y="-364" font-family="Helvetica,sans-Serif" font-size="10.00">+</text>
<text text-anchor="start" x="97" y="-364" font-family="Helvetica,sans-Serif" font-size="10.00">~AbstractIncompressibleMaterial</text>
<text text-anchor="start" x="97" y="-353" font-family="Helvetica,sans-Serif" font-size="10.00">Law()</text>
<text text-anchor="start" x="84" y="-338" font-family="Helvetica,sans-Serif" font-size="10.00">+</text>
<text text-anchor="start" x="97" y="-338" font-family="Helvetica,sans-Serif" font-size="10.00">GetZeroStrainPressure()</text>
<polygon fill="#666666" stroke="#666666" points="80,-415 80,-415 265,-415 265,-415 80,-415"/>
<polygon fill="#666666" stroke="#666666" points="80,-400 80,-400 265,-400 265,-400 80,-400"/>
<polygon fill="none" stroke="#666666" points="79.5,-331 79.5,-443 264.5,-443 264.5,-331 79.5,-331"/>
</a>
</g>
</g>
<!-- Node3&#45;&gt;Node2 -->
<g id="edge2_Node000002_Node000003" class="edge">
<title>Node3&#45;&gt;Node2</title>
<g id="a_edge2_Node000002_Node000003"><a xlink:title=" ">
<path fill="none" stroke="#63b8ff" d="M172,-320.9C172,-301.99 172,-281.31 172,-262.3"/>
<polygon fill="none" stroke="#63b8ff" points="168.5,-320.9 172,-330.9 175.5,-320.9 168.5,-320.9"/>
</a>
</g>
</g>
<!-- Node4 -->
<g id="Node000004" class="node">
<title>Node4</title>
<g id="a_Node000004"><a xlink:href="classAbstractMaterialLaw.html" target="_top" xlink:title=" ">
<polygon fill="white" stroke="transparent" points="278.5,-722 75.5,-722 75.5,-490 278.5,-490 278.5,-722"/>
<text text-anchor="start" x="127" y="-710" font-family="Helvetica,sans-Serif" font-size="10.00">AbstractMaterialLaw</text>
<text text-anchor="start" x="156" y="-699" font-family="Helvetica,sans-Serif" font-size="10.00">&lt; DIM &gt;</text>
<text text-anchor="start" x="175.5" y="-684" font-family="Helvetica,sans-Serif" font-size="10.00"> </text>
<text text-anchor="start" x="80" y="-669" font-family="Helvetica,sans-Serif" font-size="10.00">+</text>
<text text-anchor="start" x="93" y="-669" font-family="Helvetica,sans-Serif" font-size="10.00">AbstractMaterialLaw()</text>
<text text-anchor="start" x="80" y="-654" font-family="Helvetica,sans-Serif" font-size="10.00">+</text>
<text text-anchor="start" x="93" y="-654" font-family="Helvetica,sans-Serif" font-size="10.00">~AbstractMaterialLaw()</text>
<text text-anchor="start" x="80" y="-639" font-family="Helvetica,sans-Serif" font-size="10.00">+</text>
<text text-anchor="start" x="93" y="-639" font-family="Helvetica,sans-Serif" font-size="10.00">ComputeStressAndStressDerivative()</text>
<text text-anchor="start" x="80" y="-624" font-family="Helvetica,sans-Serif" font-size="10.00">+</text>
<text text-anchor="start" x="93" y="-624" font-family="Helvetica,sans-Serif" font-size="10.00">ComputeCauchyStress()</text>
<text text-anchor="start" x="80" y="-609" font-family="Helvetica,sans-Serif" font-size="10.00">+</text>
<text text-anchor="start" x="93" y="-609" font-family="Helvetica,sans-Serif" font-size="10.00">Compute1stPiolaKirchoffStress()</text>
<text text-anchor="start" x="80" y="-594" font-family="Helvetica,sans-Serif" font-size="10.00">+</text>
<text text-anchor="start" x="93" y="-594" font-family="Helvetica,sans-Serif" font-size="10.00">Compute2ndPiolaKirchoffStress()</text>
<text text-anchor="start" x="80" y="-579" font-family="Helvetica,sans-Serif" font-size="10.00">+</text>
<text text-anchor="start" x="93" y="-579" font-family="Helvetica,sans-Serif" font-size="10.00">ScaleMaterialParameters()</text>
<text text-anchor="start" x="80" y="-564" font-family="Helvetica,sans-Serif" font-size="10.00">+</text>
<text text-anchor="start" x="93" y="-564" font-family="Helvetica,sans-Serif" font-size="10.00">SetChangeOfBasisMatrix()</text>
<text text-anchor="start" x="80" y="-549" font-family="Helvetica,sans-Serif" font-size="10.00">+</text>
<text text-anchor="start" x="93" y="-549" font-family="Helvetica,sans-Serif" font-size="10.00">ResetToNoChangeOfBasisMatrix()</text>
<text text-anchor="start" x="80" y="-534" font-family="Helvetica,sans-Serif" font-size="10.00">#</text>
<text text-anchor="start" x="93" y="-534" font-family="Helvetica,sans-Serif" font-size="10.00">ComputeTransformedDeformation</text>
<text text-anchor="start" x="93" y="-523" font-family="Helvetica,sans-Serif" font-size="10.00">Tensor()</text>
<text text-anchor="start" x="80" y="-508" font-family="Helvetica,sans-Serif" font-size="10.00">#</text>
<text text-anchor="start" x="93" y="-508" font-family="Helvetica,sans-Serif" font-size="10.00">TransformStressAndStress</text>
<text text-anchor="start" x="93" y="-497" font-family="Helvetica,sans-Serif" font-size="10.00">Derivative()</text>
<polygon fill="#666666" stroke="#666666" points="76,-694 76,-694 279,-694 279,-694 76,-694"/>
<polygon fill="#666666" stroke="#666666" points="76,-679 76,-679 279,-679 279,-679 76,-679"/>
<polygon fill="none" stroke="#666666" points="75.5,-490 75.5,-722 278.5,-722 278.5,-490 75.5,-490"/>
</a>
</g>
</g>
<!-- Node4&#45;&gt;Node3 -->
<g id="edge3_Node000003_Node000004" class="edge">
<title>Node4&#45;&gt;Node3</title>
<g id="a_edge3_Node000003_Node000004"><a xlink:title=" ">
<path fill="none" stroke="#63b8ff" d="M174.11,-479.6C173.82,-466.91 173.53,-454.54 173.27,-443.2"/>
<polygon fill="none" stroke="#63b8ff" points="170.62,-479.91 174.35,-489.83 177.61,-479.75 170.62,-479.91"/>
</a>
</g>
</g>
<!-- Node5 -->
<g id="Node000005" class="node">
<title>Node5</title>
<g id="a_Node000005"><a xlink:title=" ">
<polygon fill="white" stroke="transparent" points="126,-829 0,-829 0,-769 126,-769 126,-829"/>
<text text-anchor="start" x="5" y="-817" font-family="Helvetica,sans-Serif" font-size="10.00">c_matrix&lt; double, DIM,</text>
<text text-anchor="start" x="46" y="-806" font-family="Helvetica,sans-Serif" font-size="10.00"> DIM &gt;</text>
<text text-anchor="start" x="61" y="-791" font-family="Helvetica,sans-Serif" font-size="10.00"> </text>
<text text-anchor="start" x="61" y="-776" font-family="Helvetica,sans-Serif" font-size="10.00"> </text>
<polygon fill="#bfbfbf" stroke="#bfbfbf" points="0,-801 0,-801 126,-801 126,-801 0,-801"/>
<polygon fill="#bfbfbf" stroke="#bfbfbf" points="0,-786 0,-786 126,-786 126,-786 0,-786"/>
<polygon fill="none" stroke="#bfbfbf" points="0,-769 0,-829 126,-829 126,-769 0,-769"/>
</a>
</g>
</g>
<!-- Node5&#45;&gt;Node2 -->
<g id="edge7_Node000002_Node000005" class="edge">
<title>Node5&#45;&gt;Node2</title>
<g id="a_edge7_Node000002_Node000005"><a xlink:title=" ">
<path fill="none" stroke="#63b8ff" d="M57.26,-768.75C43.79,-693.51 15.25,-488.16 70,-331 77.23,-310.24 88.92,-290.06 101.86,-271.89"/>
<polygon fill="none" stroke="#63b8ff" points="102.02,-271.66 102.37,-264.46 109.15,-262.01 108.81,-269.21 102.02,-271.66"/>
</a>
</g>
<text text-anchor="middle" x="70.5" y="-464" font-family="Helvetica,sans-Serif" font-size="10.00" fill="grey"> &#45;mIdentity</text>
</g>
<!-- Node5&#45;&gt;Node4 -->
<g id="edge4_Node000004_Node000005" class="edge">
<title>Node5&#45;&gt;Node4</title>
<g id="a_edge4_Node000004_Node000005"><a xlink:title=" ">
<path fill="none" stroke="#63b8ff" d="M80.31,-768.99C86.52,-758.6 93.97,-746.11 101.94,-732.75"/>
<polygon fill="none" stroke="#63b8ff" points="101.98,-732.69 101.62,-725.48 108.13,-722.38 108.49,-729.58 101.98,-732.69"/>
</a>
</g>
<text text-anchor="middle" x="163.5" y="-743" font-family="Helvetica,sans-Serif" font-size="10.00" fill="grey"> #mpChangeOfBasisMatrix</text>
</g>
<!-- Node6 -->
<g id="Node000006" class="node">
<title>Node6</title>
<g id="a_Node000006"><a xlink:title=" ">
<polygon fill="white" stroke="transparent" points="89.5,-925 36.5,-925 36.5,-876 89.5,-876 89.5,-925"/>
<text text-anchor="start" x="42" y="-912.5" font-family="Helvetica,sans-Serif" font-size="10.00">c_matrix</text>
<text text-anchor="start" x="61.5" y="-897.5" font-family="Helvetica,sans-Serif" font-size="10.00"> </text>
<text text-anchor="start" x="61.5" y="-882.5" font-family="Helvetica,sans-Serif" font-size="10.00"> </text>
<polygon fill="#bfbfbf" stroke="#bfbfbf" points="37,-907.5 37,-907.5 90,-907.5 90,-907.5 37,-907.5"/>
<polygon fill="#bfbfbf" stroke="#bfbfbf" points="37,-892.5 37,-892.5 90,-892.5 90,-892.5 37,-892.5"/>
<polygon fill="none" stroke="#bfbfbf" points="36.5,-876 36.5,-925 89.5,-925 89.5,-876 36.5,-876"/>
</a>
</g>
</g>
<!-- Node6&#45;&gt;Node5 -->
<g id="edge5_Node000005_Node000006" class="edge">
<title>Node6&#45;&gt;Node5</title>
<g id="a_edge5_Node000005_Node000006"><a xlink:title=" ">
<path fill="none" stroke="orange" d="M63,-865.87C63,-853.94 63,-840.62 63,-829.1"/>
<polygon fill="orange" stroke="orange" points="59.5,-865.92 63,-875.92 66.5,-865.92 59.5,-865.92"/>
</a>
</g>
<text text-anchor="middle" x="118" y="-850" font-family="Helvetica,sans-Serif" font-size="10.00" fill="grey"> &lt; double, DIM, DIM &gt;</text>
</g>
<!-- Node7 -->
<g id="Node000007" class="node">
<title>Node7</title>
<g id="a_Node000007"><a xlink:title=" ">
<polygon fill="white" stroke="transparent" points="387,-417 283,-417 283,-357 387,-357 387,-417"/>
<text text-anchor="start" x="288" y="-405" font-family="Helvetica,sans-Serif" font-size="10.00">vector&lt; std::vector</text>
<text text-anchor="start" x="301.5" y="-394" font-family="Helvetica,sans-Serif" font-size="10.00">&lt; double &gt; &gt;</text>
<text text-anchor="start" x="333" y="-379" font-family="Helvetica,sans-Serif" font-size="10.00"> </text>
<text text-anchor="start" x="333" y="-364" font-family="Helvetica,sans-Serif" font-size="10.00"> </text>
<polygon fill="#bfbfbf" stroke="#bfbfbf" points="283,-389 283,-389 387,-389 387,-389 283,-389"/>
<polygon fill="#bfbfbf" stroke="#bfbfbf" points="283,-374 283,-374 387,-374 387,-374 283,-374"/>
<polygon fill="none" stroke="#bfbfbf" points="283,-357 283,-417 387,-417 387,-357 283,-357"/>
</a>
</g>
</g>
<!-- Node7&#45;&gt;Node2 -->
<g id="edge6_Node000002_Node000007" class="edge">
<title>Node7&#45;&gt;Node2</title>
<g id="a_edge6_Node000002_Node000007"><a xlink:title=" ">
<path fill="none" stroke="#63b8ff" d="M309.89,-356.65C290.38,-333.86 262.43,-301.19 236.78,-271.21"/>
<polygon fill="none" stroke="#63b8ff" points="236.71,-271.13 229.77,-269.17 228.91,-262.01 235.85,-263.97 236.71,-271.13"/>
</a>
</g>
<text text-anchor="middle" x="281" y="-305" font-family="Helvetica,sans-Serif" font-size="10.00" fill="grey"> &#45;mA</text>
<text text-anchor="middle" x="281" y="-294" font-family="Helvetica,sans-Serif" font-size="10.00" fill="grey">&#45;mB</text>
<text text-anchor="middle" x="281" y="-283" font-family="Helvetica,sans-Serif" font-size="10.00" fill="grey">&#45;mK</text>
</g>
</g>
</svg>
