<?xml version="1.0" encoding="UTF-8" standalone="no"?>
<!DOCTYPE svg PUBLIC "-//W3C//DTD SVG 1.1//EN"
 "http://www.w3.org/Graphics/SVG/1.1/DTD/svg11.dtd">
<!-- Generated by graphviz version 2.43.0 (0)
 -->
<!-- Title: CylindricalHoneycombMeshGenerator Pages: 1 -->
<svg width="661pt" height="440pt"
 viewBox="0.00 0.00 661.00 440.00" xmlns="http://www.w3.org/2000/svg" xmlns:xlink="http://www.w3.org/1999/xlink">
<g id="graph0" class="graph" transform="scale(1 1) rotate(0) translate(4 436)">
<title>CylindricalHoneycombMeshGenerator</title>
<!-- Node1 -->
<g id="Node000001" class="node">
<title>Node1</title>
<g id="a_Node000001"><a xlink:title=" ">
<polygon fill="#999999" stroke="transparent" points="416,-101 258,-101 258,0 416,0 416,-101"/>
<text text-anchor="start" x="268.5" y="-88.5" font-family="Helvetica,sans-Serif" font-size="10.00">CylindricalHoneycombMesh</text>
<text text-anchor="start" x="312.5" y="-77.5" font-family="Helvetica,sans-Serif" font-size="10.00">Generator</text>
<text text-anchor="start" x="335" y="-62.5" font-family="Helvetica,sans-Serif" font-size="10.00"> </text>
<text text-anchor="start" x="262" y="-47.5" font-family="Helvetica,sans-Serif" font-size="10.00">+</text>
<text text-anchor="start" x="275" y="-47.5" font-family="Helvetica,sans-Serif" font-size="10.00">CylindricalHoneycombMesh</text>
<text text-anchor="start" x="275" y="-36.5" font-family="Helvetica,sans-Serif" font-size="10.00">Generator()</text>
<text text-anchor="start" x="262" y="-21.5" font-family="Helvetica,sans-Serif" font-size="10.00">+</text>
<text text-anchor="start" x="275" y="-21.5" font-family="Helvetica,sans-Serif" font-size="10.00">GetMesh()</text>
<text text-anchor="start" x="262" y="-6.5" font-family="Helvetica,sans-Serif" font-size="10.00">+</text>
<text text-anchor="start" x="275" y="-6.5" font-family="Helvetica,sans-Serif" font-size="10.00">GetCylindricalMesh()</text>
<polygon fill="#666666" stroke="#666666" points="258,-72.5 258,-72.5 416,-72.5 416,-72.5 258,-72.5"/>
<polygon fill="#666666" stroke="#666666" points="258,-57.5 258,-57.5 416,-57.5 416,-57.5 258,-57.5"/>
<polygon fill="none" stroke="#666666" points="258,0 258,-101 416,-101 416,0 258,0"/>
</a>
</g>
</g>
<!-- Node2 -->
<g id="Node000002" class="node">
<title>Node2</title>
<g id="a_Node000002"><a xlink:href="classHoneycombMeshGenerator.html" target="_top" xlink:title=" ">
<polygon fill="white" stroke="transparent" points="422.5,-292 251.5,-292 251.5,-138 422.5,-138 422.5,-292"/>
<text text-anchor="start" x="270.5" y="-280" font-family="Helvetica,sans-Serif" font-size="10.00">HoneycombMeshGenerator</text>
<text text-anchor="start" x="335.5" y="-265" font-family="Helvetica,sans-Serif" font-size="10.00"> </text>
<text text-anchor="start" x="256" y="-250" font-family="Helvetica,sans-Serif" font-size="10.00">+</text>
<text text-anchor="start" x="269" y="-250" font-family="Helvetica,sans-Serif" font-size="10.00">HoneycombMeshGenerator()</text>
<text text-anchor="start" x="256" y="-235" font-family="Helvetica,sans-Serif" font-size="10.00">+</text>
<text text-anchor="start" x="269" y="-235" font-family="Helvetica,sans-Serif" font-size="10.00">HoneycombMeshGenerator()</text>
<text text-anchor="start" x="256" y="-220" font-family="Helvetica,sans-Serif" font-size="10.00">+</text>
<text text-anchor="start" x="269" y="-220" font-family="Helvetica,sans-Serif" font-size="10.00">~HoneycombMeshGenerator()</text>
<text text-anchor="start" x="256" y="-205" font-family="Helvetica,sans-Serif" font-size="10.00">+</text>
<text text-anchor="start" x="269" y="-205" font-family="Helvetica,sans-Serif" font-size="10.00">GetMesh()</text>
<text text-anchor="start" x="256" y="-190" font-family="Helvetica,sans-Serif" font-size="10.00">+</text>
<text text-anchor="start" x="269" y="-190" font-family="Helvetica,sans-Serif" font-size="10.00">GetCellLocationIndices()</text>
<text text-anchor="start" x="256" y="-175" font-family="Helvetica,sans-Serif" font-size="10.00">+</text>
<text text-anchor="start" x="269" y="-175" font-family="Helvetica,sans-Serif" font-size="10.00">GetCircularMesh()</text>
<text text-anchor="start" x="256" y="-160" font-family="Helvetica,sans-Serif" font-size="10.00">+</text>
<text text-anchor="start" x="269" y="-160" font-family="Helvetica,sans-Serif" font-size="10.00">GetDomainDepth()</text>
<text text-anchor="start" x="256" y="-145" font-family="Helvetica,sans-Serif" font-size="10.00">+</text>
<text text-anchor="start" x="269" y="-145" font-family="Helvetica,sans-Serif" font-size="10.00">GetDomainWidth()</text>
<polygon fill="#666666" stroke="#666666" points="252,-275 252,-275 423,-275 423,-275 252,-275"/>
<polygon fill="#666666" stroke="#666666" points="252,-260 252,-260 423,-260 423,-260 252,-260"/>
<polygon fill="none" stroke="#666666" points="251.5,-138 251.5,-292 422.5,-292 422.5,-138 251.5,-138"/>
</a>
</g>
</g>
<!-- Node2&#45;&gt;Node1 -->
<g id="edge1_Node000001_Node000002" class="edge">
<title>Node2&#45;&gt;Node1</title>
<g id="a_edge1_Node000001_Node000002"><a xlink:title=" ">
<path fill="none" stroke="#63b8ff" d="M337,-127.97C337,-118.74 337,-109.6 337,-101.02"/>
<polygon fill="none" stroke="#63b8ff" points="333.5,-127.98 337,-137.98 340.5,-127.98 333.5,-127.98"/>
</a>
</g>
</g>
<!-- Node3 -->
<g id="Node000003" class="node">
<title>Node3</title>
<g id="a_Node000003"><a xlink:title=" ">
<polygon fill="white" stroke="transparent" points="140,-432 0,-432 0,-372 140,-372 140,-432"/>
<text text-anchor="start" x="5" y="-420" font-family="Helvetica,sans-Serif" font-size="10.00">shared_ptr&lt; MutableMesh</text>
<text text-anchor="start" x="44" y="-409" font-family="Helvetica,sans-Serif" font-size="10.00">&lt; 2, 2 &gt; &gt;</text>
<text text-anchor="start" x="68" y="-394" font-family="Helvetica,sans-Serif" font-size="10.00"> </text>
<text text-anchor="start" x="68" y="-379" font-family="Helvetica,sans-Serif" font-size="10.00"> </text>
<polygon fill="#bfbfbf" stroke="#bfbfbf" points="0,-404 0,-404 140,-404 140,-404 0,-404"/>
<polygon fill="#bfbfbf" stroke="#bfbfbf" points="0,-389 0,-389 140,-389 140,-389 0,-389"/>
<polygon fill="none" stroke="#bfbfbf" points="0,-372 0,-432 140,-432 140,-372 0,-372"/>
</a>
</g>
</g>
<!-- Node3&#45;&gt;Node2 -->
<g id="edge2_Node000002_Node000003" class="edge">
<title>Node3&#45;&gt;Node2</title>
<g id="a_edge2_Node000002_Node000003"><a xlink:title=" ">
<path fill="none" stroke="#63b8ff" d="M91,-371.71C105.89,-352.44 127.19,-327.62 150,-310 177.28,-288.93 210.01,-270.57 240.42,-255.8"/>
<polygon fill="none" stroke="#63b8ff" points="240.66,-255.69 244.36,-249.5 251.5,-250.53 247.8,-256.72 240.66,-255.69"/>
</a>
</g>
<text text-anchor="middle" x="177" y="-329.5" font-family="Helvetica,sans-Serif" font-size="10.00" fill="grey"> #mpMesh</text>
</g>
<!-- Node4 -->
<g id="Node000004" class="node">
<title>Node4</title>
<g id="a_Node000004"><a xlink:title=" ">
<polygon fill="white" stroke="transparent" points="250,-426.5 158,-426.5 158,-377.5 250,-377.5 250,-426.5"/>
<text text-anchor="start" x="163" y="-414" font-family="Helvetica,sans-Serif" font-size="10.00">set&lt; unsigned &gt;</text>
<text text-anchor="start" x="202" y="-399" font-family="Helvetica,sans-Serif" font-size="10.00"> </text>
<text text-anchor="start" x="202" y="-384" font-family="Helvetica,sans-Serif" font-size="10.00"> </text>
<polygon fill="#bfbfbf" stroke="#bfbfbf" points="158,-409 158,-409 250,-409 250,-409 158,-409"/>
<polygon fill="#bfbfbf" stroke="#bfbfbf" points="158,-394 158,-394 250,-394 250,-394 158,-394"/>
<polygon fill="none" stroke="#bfbfbf" points="158,-377.5 158,-426.5 250,-426.5 250,-377.5 158,-377.5"/>
</a>
</g>
</g>
<!-- Node4&#45;&gt;Node2 -->
<g id="edge3_Node000002_Node000004" class="edge">
<title>Node4&#45;&gt;Node2</title>
<g id="a_edge3_Node000002_Node000004"><a xlink:title=" ">
<path fill="none" stroke="#63b8ff" d="M204.67,-377.38C206.17,-358.03 210.56,-330.58 223,-310 228.6,-300.73 235.46,-291.96 243,-283.78"/>
<polygon fill="none" stroke="#63b8ff" points="243.05,-283.72 244.38,-276.64 251.43,-275.13 250.1,-282.22 243.05,-283.72"/>
</a>
</g>
<text text-anchor="middle" x="278" y="-329.5" font-family="Helvetica,sans-Serif" font-size="10.00" fill="grey"> #mGhostNodeIndices</text>
</g>
<!-- Node5 -->
<g id="Node000005" class="node">
<title>Node5</title>
<g id="a_Node000005"><a xlink:title=" ">
<polygon fill="white" stroke="transparent" points="356,-426.5 318,-426.5 318,-377.5 356,-377.5 356,-426.5"/>
<text text-anchor="start" x="323" y="-414" font-family="Helvetica,sans-Serif" font-size="10.00">string</text>
<text text-anchor="start" x="335" y="-399" font-family="Helvetica,sans-Serif" font-size="10.00"> </text>
<text text-anchor="start" x="335" y="-384" font-family="Helvetica,sans-Serif" font-size="10.00"> </text>
<polygon fill="#bfbfbf" stroke="#bfbfbf" points="318,-409 318,-409 356,-409 356,-409 318,-409"/>
<polygon fill="#bfbfbf" stroke="#bfbfbf" points="318,-394 318,-394 356,-394 356,-394 318,-394"/>
<polygon fill="none" stroke="#bfbfbf" points="318,-377.5 318,-426.5 356,-426.5 356,-377.5 318,-377.5"/>
</a>
</g>
</g>
<!-- Node5&#45;&gt;Node2 -->
<g id="edge4_Node000002_Node000005" class="edge">
<title>Node5&#45;&gt;Node2</title>
<g id="a_edge4_Node000002_Node000005"><a xlink:title=" ">
<path fill="none" stroke="#63b8ff" d="M337,-377.19C337,-358.49 337,-331.2 337,-304.38"/>
<polygon fill="none" stroke="#63b8ff" points="337,-304.12 333,-298.12 337,-292.12 341,-298.12 337,-304.12"/>
</a>
</g>
<text text-anchor="middle" x="383.5" y="-329.5" font-family="Helvetica,sans-Serif" font-size="10.00" fill="grey"> #mMeshFilename</text>
</g>
<!-- Node6 -->
<g id="Node000006" class="node">
<title>Node6</title>
<g id="a_Node000006"><a xlink:href="classdouble.html" target="_top" xlink:title=" ">
<polygon fill="white" stroke="transparent" points="475,-426.5 431,-426.5 431,-377.5 475,-377.5 475,-426.5"/>
<text text-anchor="start" x="436" y="-414" font-family="Helvetica,sans-Serif" font-size="10.00">double</text>
<text text-anchor="start" x="451" y="-399" font-family="Helvetica,sans-Serif" font-size="10.00"> </text>
<text text-anchor="start" x="451" y="-384" font-family="Helvetica,sans-Serif" font-size="10.00"> </text>
<polygon fill="#bfbfbf" stroke="#bfbfbf" points="431,-409 431,-409 475,-409 475,-409 431,-409"/>
<polygon fill="#bfbfbf" stroke="#bfbfbf" points="431,-394 431,-394 475,-394 475,-394 431,-394"/>
<polygon fill="none" stroke="#bfbfbf" points="431,-377.5 431,-426.5 475,-426.5 475,-377.5 431,-377.5"/>
</a>
</g>
</g>
<!-- Node6&#45;&gt;Node2 -->
<g id="edge5_Node000002_Node000006" class="edge">
<title>Node6&#45;&gt;Node2</title>
<g id="a_edge5_Node000002_Node000006"><a xlink:title=" ">
<path fill="none" stroke="#63b8ff" d="M450.84,-377.28C448.28,-358.12 442.77,-330.98 431,-310 429.49,-307.31 427.89,-304.65 426.2,-302.02"/>
<polygon fill="none" stroke="#63b8ff" points="426.12,-301.9 419.41,-299.24 419.3,-292.03 426,-294.69 426.12,-301.9"/>
</a>
</g>
<text text-anchor="middle" x="489" y="-346" font-family="Helvetica,sans-Serif" font-size="10.00" fill="grey"> #mBottom</text>
<text text-anchor="middle" x="489" y="-335" font-family="Helvetica,sans-Serif" font-size="10.00" fill="grey">#mDomainDepth</text>
<text text-anchor="middle" x="489" y="-324" font-family="Helvetica,sans-Serif" font-size="10.00" fill="grey">#mDomainWidth</text>
<text text-anchor="middle" x="489" y="-313" font-family="Helvetica,sans-Serif" font-size="10.00" fill="grey">#mTop</text>
</g>
<!-- Node7 -->
<g id="Node000007" class="node">
<title>Node7</title>
<g id="a_Node000007"><a xlink:href="classunsigned.html" target="_top" xlink:title=" ">
<polygon fill="white" stroke="transparent" points="589.5,-426.5 534.5,-426.5 534.5,-377.5 589.5,-377.5 589.5,-426.5"/>
<text text-anchor="start" x="540" y="-414" font-family="Helvetica,sans-Serif" font-size="10.00">unsigned</text>
<text text-anchor="start" x="560.5" y="-399" font-family="Helvetica,sans-Serif" font-size="10.00"> </text>
<text text-anchor="start" x="560.5" y="-384" font-family="Helvetica,sans-Serif" font-size="10.00"> </text>
<polygon fill="#bfbfbf" stroke="#bfbfbf" points="535,-409 535,-409 590,-409 590,-409 535,-409"/>
<polygon fill="#bfbfbf" stroke="#bfbfbf" points="535,-394 535,-394 590,-394 590,-394 535,-394"/>
<polygon fill="none" stroke="#bfbfbf" points="534.5,-377.5 534.5,-426.5 589.5,-426.5 589.5,-377.5 534.5,-377.5"/>
</a>
</g>
</g>
<!-- Node7&#45;&gt;Node2 -->
<g id="edge6_Node000002_Node000007" class="edge">
<title>Node7&#45;&gt;Node2</title>
<g id="a_edge6_Node000002_Node000007"><a xlink:title=" ">
<path fill="none" stroke="#63b8ff" d="M560.57,-377.18C558.22,-357.18 552.06,-328.91 536,-310 509.56,-278.85 470.48,-257.32 433.94,-242.81"/>
<polygon fill="none" stroke="#63b8ff" points="433.91,-242.8 426.88,-244.41 422.7,-238.53 429.73,-236.93 433.91,-242.8"/>
</a>
</g>
<text text-anchor="middle" x="604.5" y="-335" font-family="Helvetica,sans-Serif" font-size="10.00" fill="grey"> #mNumCellLength</text>
<text text-anchor="middle" x="604.5" y="-324" font-family="Helvetica,sans-Serif" font-size="10.00" fill="grey">#mNumCellWidth</text>
</g>
</g>
</svg>
