<?xml version="1.0" encoding="UTF-8" standalone="no"?>
<!DOCTYPE svg PUBLIC "-//W3C//DTD SVG 1.1//EN"
 "http://www.w3.org/Graphics/SVG/1.1/DTD/svg11.dtd">
<!-- Generated by graphviz version 2.43.0 (0)
 -->
<!-- Title: NhsContractionModel Pages: 1 -->
<svg width="568pt" height="1938pt"
 viewBox="0.00 0.00 567.50 1938.00" xmlns="http://www.w3.org/2000/svg" xmlns:xlink="http://www.w3.org/1999/xlink">
<g id="graph0" class="graph" transform="scale(1 1) rotate(0) translate(4 1934)">
<title>NhsContractionModel</title>
<!-- Node1 -->
<g id="Node000001" class="node">
<title>Node1</title>
<g id="a_Node000001"><a xlink:title=" ">
<polygon fill="#999999" stroke="transparent" points="476,-439 265,-439 265,0 476,0 476,-439"/>
<text text-anchor="start" x="318" y="-426.5" font-family="Helvetica,sans-Serif" font-size="10.00">NhsContractionModel</text>
<text text-anchor="start" x="269.5" y="-411.5" font-family="Helvetica,sans-Serif" font-size="10.00">#</text>
<text text-anchor="start" x="282.5" y="-411.5" font-family="Helvetica,sans-Serif" font-size="10.00">mLambda</text>
<text text-anchor="start" x="269.5" y="-396.5" font-family="Helvetica,sans-Serif" font-size="10.00">#</text>
<text text-anchor="start" x="282.5" y="-396.5" font-family="Helvetica,sans-Serif" font-size="10.00">mDLambdaDt</text>
<text text-anchor="start" x="269.5" y="-381.5" font-family="Helvetica,sans-Serif" font-size="10.00">#</text>
<text text-anchor="start" x="282.5" y="-381.5" font-family="Helvetica,sans-Serif" font-size="10.00">mCalciumI</text>
<text text-anchor="start" x="269.5" y="-366.5" font-family="Helvetica,sans-Serif" font-size="10.00">#</text>
<text text-anchor="start" x="282.5" y="-366.5" font-family="Helvetica,sans-Serif" font-size="10.00">mCalciumTrop50</text>
<text text-anchor="start" x="269.5" y="-351.5" font-family="Helvetica,sans-Serif" font-size="10.00">#</text>
<text text-anchor="start" x="282.5" y="-351.5" font-family="Helvetica,sans-Serif" font-size="10.00">mK1</text>
<text text-anchor="start" x="269.5" y="-336.5" font-family="Helvetica,sans-Serif" font-size="10.00">#</text>
<text text-anchor="start" x="282.5" y="-336.5" font-family="Helvetica,sans-Serif" font-size="10.00">mK2</text>
<text text-anchor="start" x="269.5" y="-321.5" font-family="Helvetica,sans-Serif" font-size="10.00">#</text>
<text text-anchor="start" x="282.5" y="-321.5" font-family="Helvetica,sans-Serif" font-size="10.00">mKon</text>
<text text-anchor="start" x="269.5" y="-306.5" font-family="Helvetica,sans-Serif" font-size="10.00">#</text>
<text text-anchor="start" x="282.5" y="-306.5" font-family="Helvetica,sans-Serif" font-size="10.00">mKrefoff</text>
<text text-anchor="start" x="269.5" y="-291.5" font-family="Helvetica,sans-Serif" font-size="10.00">#</text>
<text text-anchor="start" x="282.5" y="-291.5" font-family="Helvetica,sans-Serif" font-size="10.00">mGamma</text>
<text text-anchor="start" x="269.5" y="-276.5" font-family="Helvetica,sans-Serif" font-size="10.00">#</text>
<text text-anchor="start" x="282.5" y="-276.5" font-family="Helvetica,sans-Serif" font-size="10.00">mCalciumTroponinMax</text>
<text text-anchor="start" x="269.5" y="-261.5" font-family="Helvetica,sans-Serif" font-size="10.00">#</text>
<text text-anchor="start" x="282.5" y="-261.5" font-family="Helvetica,sans-Serif" font-size="10.00">mKZ</text>
<text text-anchor="start" x="269.5" y="-246.5" font-family="Helvetica,sans-Serif" font-size="10.00">#</text>
<text text-anchor="start" x="282.5" y="-246.5" font-family="Helvetica,sans-Serif" font-size="10.00">mBeta1</text>
<text text-anchor="start" x="269.5" y="-231.5" font-family="Helvetica,sans-Serif" font-size="10.00">#</text>
<text text-anchor="start" x="282.5" y="-231.5" font-family="Helvetica,sans-Serif" font-size="10.00">mZp</text>
<text text-anchor="start" x="269.5" y="-216.5" font-family="Helvetica,sans-Serif" font-size="10.00">#</text>
<text text-anchor="start" x="282.5" y="-216.5" font-family="Helvetica,sans-Serif" font-size="10.00">mCalcium50ref</text>
<text text-anchor="start" x="269.5" y="-201.5" font-family="Helvetica,sans-Serif" font-size="10.00">#</text>
<text text-anchor="start" x="282.5" y="-201.5" font-family="Helvetica,sans-Serif" font-size="10.00">mTref</text>
<text text-anchor="start" x="269.5" y="-186.5" font-family="Helvetica,sans-Serif" font-size="10.00">#</text>
<text text-anchor="start" x="282.5" y="-186.5" font-family="Helvetica,sans-Serif" font-size="10.00">mBeta0</text>
<text text-anchor="start" x="269.5" y="-171.5" font-family="Helvetica,sans-Serif" font-size="10.00">+</text>
<text text-anchor="start" x="282.5" y="-171.5" font-family="Helvetica,sans-Serif" font-size="10.00">NhsContractionModel()</text>
<text text-anchor="start" x="269.5" y="-156.5" font-family="Helvetica,sans-Serif" font-size="10.00">+</text>
<text text-anchor="start" x="282.5" y="-156.5" font-family="Helvetica,sans-Serif" font-size="10.00">SetStretchAndStretchRate()</text>
<text text-anchor="start" x="269.5" y="-141.5" font-family="Helvetica,sans-Serif" font-size="10.00">+</text>
<text text-anchor="start" x="282.5" y="-141.5" font-family="Helvetica,sans-Serif" font-size="10.00">SetInputParameters()</text>
<text text-anchor="start" x="269.5" y="-126.5" font-family="Helvetica,sans-Serif" font-size="10.00">+</text>
<text text-anchor="start" x="282.5" y="-126.5" font-family="Helvetica,sans-Serif" font-size="10.00">SetIntracellularCalciumConcentration()</text>
<text text-anchor="start" x="269.5" y="-111.5" font-family="Helvetica,sans-Serif" font-size="10.00">+</text>
<text text-anchor="start" x="282.5" y="-111.5" font-family="Helvetica,sans-Serif" font-size="10.00">GetCalciumTroponinValue()</text>
<text text-anchor="start" x="269.5" y="-96.5" font-family="Helvetica,sans-Serif" font-size="10.00">+</text>
<text text-anchor="start" x="282.5" y="-96.5" font-family="Helvetica,sans-Serif" font-size="10.00">EvaluateYDerivatives()</text>
<text text-anchor="start" x="269.5" y="-81.5" font-family="Helvetica,sans-Serif" font-size="10.00">+</text>
<text text-anchor="start" x="282.5" y="-81.5" font-family="Helvetica,sans-Serif" font-size="10.00">GetActiveTension()</text>
<text text-anchor="start" x="269.5" y="-66.5" font-family="Helvetica,sans-Serif" font-size="10.00">+</text>
<text text-anchor="start" x="282.5" y="-66.5" font-family="Helvetica,sans-Serif" font-size="10.00">GetNextActiveTension()</text>
<text text-anchor="start" x="269.5" y="-51.5" font-family="Helvetica,sans-Serif" font-size="10.00">+</text>
<text text-anchor="start" x="282.5" y="-51.5" font-family="Helvetica,sans-Serif" font-size="10.00">IsStretchDependent()</text>
<text text-anchor="start" x="269.5" y="-36.5" font-family="Helvetica,sans-Serif" font-size="10.00">+</text>
<text text-anchor="start" x="282.5" y="-36.5" font-family="Helvetica,sans-Serif" font-size="10.00">IsStretchRateDependent()</text>
<text text-anchor="start" x="269.5" y="-21.5" font-family="Helvetica,sans-Serif" font-size="10.00">#</text>
<text text-anchor="start" x="282.5" y="-21.5" font-family="Helvetica,sans-Serif" font-size="10.00">CalculateCalciumTrop50()</text>
<text text-anchor="start" x="269.5" y="-6.5" font-family="Helvetica,sans-Serif" font-size="10.00">#</text>
<text text-anchor="start" x="282.5" y="-6.5" font-family="Helvetica,sans-Serif" font-size="10.00">CalculateT0()</text>
<polygon fill="#666666" stroke="#666666" points="265.5,-421.5 265.5,-421.5 476.5,-421.5 476.5,-421.5 265.5,-421.5"/>
<polygon fill="#666666" stroke="#666666" points="265.5,-181.5 265.5,-181.5 280.5,-181.5 280.5,-181.5 265.5,-181.5"/>
<polygon fill="#666666" stroke="#666666" points="280.5,-181.5 280.5,-181.5 476.5,-181.5 476.5,-181.5 280.5,-181.5"/>
<polygon fill="none" stroke="#666666" points="265,0 265,-439 476,-439 476,0 265,0"/>
</a>
</g>
</g>
<!-- Node2 -->
<g id="Node000002" class="node">
<title>Node2</title>
<g id="a_Node000002"><a xlink:href="classAbstractOdeBasedContractionModel.html" target="_top" xlink:title=" ">
<polygon fill="white" stroke="transparent" points="454.5,-594.5 286.5,-594.5 286.5,-478.5 454.5,-478.5 454.5,-594.5"/>
<text text-anchor="start" x="297" y="-582.5" font-family="Helvetica,sans-Serif" font-size="10.00">AbstractOdeBasedContraction</text>
<text text-anchor="start" x="355" y="-571.5" font-family="Helvetica,sans-Serif" font-size="10.00">Model</text>
<text text-anchor="start" x="368.5" y="-556.5" font-family="Helvetica,sans-Serif" font-size="10.00"> </text>
<text text-anchor="start" x="290.5" y="-541.5" font-family="Helvetica,sans-Serif" font-size="10.00">+</text>
<text text-anchor="start" x="303.5" y="-541.5" font-family="Helvetica,sans-Serif" font-size="10.00">AbstractOdeBasedContraction</text>
<text text-anchor="start" x="303.5" y="-530.5" font-family="Helvetica,sans-Serif" font-size="10.00">Model()</text>
<text text-anchor="start" x="290.5" y="-515.5" font-family="Helvetica,sans-Serif" font-size="10.00">+</text>
<text text-anchor="start" x="303.5" y="-515.5" font-family="Helvetica,sans-Serif" font-size="10.00">RunDoNotUpdate()</text>
<text text-anchor="start" x="290.5" y="-500.5" font-family="Helvetica,sans-Serif" font-size="10.00">+</text>
<text text-anchor="start" x="303.5" y="-500.5" font-family="Helvetica,sans-Serif" font-size="10.00">UpdateStateVariables()</text>
<text text-anchor="start" x="290.5" y="-485.5" font-family="Helvetica,sans-Serif" font-size="10.00">+</text>
<text text-anchor="start" x="303.5" y="-485.5" font-family="Helvetica,sans-Serif" font-size="10.00">RunAndUpdate()</text>
<polygon fill="#666666" stroke="#666666" points="286.5,-566.5 286.5,-566.5 454.5,-566.5 454.5,-566.5 286.5,-566.5"/>
<polygon fill="#666666" stroke="#666666" points="286.5,-551.5 286.5,-551.5 454.5,-551.5 454.5,-551.5 286.5,-551.5"/>
<polygon fill="none" stroke="#666666" points="286.5,-478.5 286.5,-594.5 454.5,-594.5 454.5,-478.5 286.5,-478.5"/>
</a>
</g>
</g>
<!-- Node2&#45;&gt;Node1 -->
<g id="edge1_Node000001_Node000002" class="edge">
<title>Node2&#45;&gt;Node1</title>
<g id="a_edge1_Node000001_Node000002"><a xlink:title=" ">
<path fill="none" stroke="#63b8ff" d="M370.5,-468.35C370.5,-459.16 370.5,-449.35 370.5,-439.13"/>
<polygon fill="none" stroke="#63b8ff" points="367,-468.46 370.5,-478.46 374,-468.46 367,-468.46"/>
</a>
</g>
</g>
<!-- Node3 -->
<g id="Node000003" class="node">
<title>Node3</title>
<g id="a_Node000003"><a xlink:href="classAbstractOdeSystem.html" target="_top" xlink:title=" ">
<polygon fill="white" stroke="transparent" points="387.5,-835.5 239.5,-835.5 239.5,-666.5 387.5,-666.5 387.5,-835.5"/>
<text text-anchor="start" x="265" y="-823" font-family="Helvetica,sans-Serif" font-size="10.00">AbstractOdeSystem</text>
<text text-anchor="start" x="311.5" y="-808" font-family="Helvetica,sans-Serif" font-size="10.00"> </text>
<text text-anchor="start" x="243.5" y="-793" font-family="Helvetica,sans-Serif" font-size="10.00">+</text>
<text text-anchor="start" x="256.5" y="-793" font-family="Helvetica,sans-Serif" font-size="10.00">AbstractOdeSystem()</text>
<text text-anchor="start" x="243.5" y="-778" font-family="Helvetica,sans-Serif" font-size="10.00">+</text>
<text text-anchor="start" x="256.5" y="-778" font-family="Helvetica,sans-Serif" font-size="10.00">~AbstractOdeSystem()</text>
<text text-anchor="start" x="243.5" y="-763" font-family="Helvetica,sans-Serif" font-size="10.00">+</text>
<text text-anchor="start" x="256.5" y="-763" font-family="Helvetica,sans-Serif" font-size="10.00">EvaluateYDerivatives()</text>
<text text-anchor="start" x="243.5" y="-748" font-family="Helvetica,sans-Serif" font-size="10.00">+</text>
<text text-anchor="start" x="256.5" y="-748" font-family="Helvetica,sans-Serif" font-size="10.00">CalculateStoppingEvent()</text>
<text text-anchor="start" x="243.5" y="-733" font-family="Helvetica,sans-Serif" font-size="10.00">+</text>
<text text-anchor="start" x="256.5" y="-733" font-family="Helvetica,sans-Serif" font-size="10.00">CalculateRootFunction()</text>
<text text-anchor="start" x="243.5" y="-718" font-family="Helvetica,sans-Serif" font-size="10.00">+</text>
<text text-anchor="start" x="256.5" y="-718" font-family="Helvetica,sans-Serif" font-size="10.00">GetUseAnalyticJacobian()</text>
<text text-anchor="start" x="243.5" y="-703" font-family="Helvetica,sans-Serif" font-size="10.00">+</text>
<text text-anchor="start" x="256.5" y="-703" font-family="Helvetica,sans-Serif" font-size="10.00">rGetConstStateVariables()</text>
<text text-anchor="start" x="246" y="-688" font-family="Helvetica,sans-Serif" font-size="10.00">&#45;</text>
<text text-anchor="start" x="256.5" y="-688" font-family="Helvetica,sans-Serif" font-size="10.00">save()</text>
<text text-anchor="start" x="246" y="-673" font-family="Helvetica,sans-Serif" font-size="10.00">&#45;</text>
<text text-anchor="start" x="256.5" y="-673" font-family="Helvetica,sans-Serif" font-size="10.00">load()</text>
<polygon fill="#666666" stroke="#666666" points="239.5,-818 239.5,-818 387.5,-818 387.5,-818 239.5,-818"/>
<polygon fill="#666666" stroke="#666666" points="239.5,-803 239.5,-803 387.5,-803 387.5,-803 239.5,-803"/>
<polygon fill="none" stroke="#666666" points="239.5,-666.5 239.5,-835.5 387.5,-835.5 387.5,-666.5 239.5,-666.5"/>
</a>
</g>
</g>
<!-- Node3&#45;&gt;Node2 -->
<g id="edge2_Node000002_Node000003" class="edge">
<title>Node3&#45;&gt;Node2</title>
<g id="a_edge2_Node000002_Node000003"><a xlink:title=" ">
<path fill="none" stroke="#63b8ff" d="M338.61,-656.38C344.26,-635.33 350.09,-613.61 355.19,-594.58"/>
<polygon fill="none" stroke="#63b8ff" points="335.16,-655.75 335.95,-666.32 341.92,-657.57 335.16,-655.75"/>
</a>
</g>
</g>
<!-- Node4 -->
<g id="Node000004" class="node">
<title>Node4</title>
<g id="a_Node000004"><a xlink:href="classAbstractParameterisedSystem.html" target="_top" xlink:title=" ">
<polygon fill="white" stroke="transparent" points="388,-1190 211,-1190 211,-905 388,-905 388,-1190"/>
<text text-anchor="start" x="226" y="-1177.5" font-family="Helvetica,sans-Serif" font-size="10.00">AbstractParameterisedSystem</text>
<text text-anchor="start" x="235" y="-1166.5" font-family="Helvetica,sans-Serif" font-size="10.00">&lt; std::vector&lt; double &gt; &gt;</text>
<text text-anchor="start" x="298" y="-1151.5" font-family="Helvetica,sans-Serif" font-size="10.00"> </text>
<text text-anchor="start" x="215.5" y="-1136.5" font-family="Helvetica,sans-Serif" font-size="10.00">+</text>
<text text-anchor="start" x="228.5" y="-1136.5" font-family="Helvetica,sans-Serif" font-size="10.00">AbstractParameterisedSystem()</text>
<text text-anchor="start" x="215.5" y="-1121.5" font-family="Helvetica,sans-Serif" font-size="10.00">+</text>
<text text-anchor="start" x="228.5" y="-1121.5" font-family="Helvetica,sans-Serif" font-size="10.00">rGetStateVariables()</text>
<text text-anchor="start" x="215.5" y="-1106.5" font-family="Helvetica,sans-Serif" font-size="10.00">+</text>
<text text-anchor="start" x="228.5" y="-1106.5" font-family="Helvetica,sans-Serif" font-size="10.00">GetStateVariables()</text>
<text text-anchor="start" x="215.5" y="-1091.5" font-family="Helvetica,sans-Serif" font-size="10.00">+</text>
<text text-anchor="start" x="228.5" y="-1091.5" font-family="Helvetica,sans-Serif" font-size="10.00">SetStateVariables()</text>
<text text-anchor="start" x="215.5" y="-1076.5" font-family="Helvetica,sans-Serif" font-size="10.00">+</text>
<text text-anchor="start" x="228.5" y="-1076.5" font-family="Helvetica,sans-Serif" font-size="10.00">GetStateVariable()</text>
<text text-anchor="start" x="215.5" y="-1061.5" font-family="Helvetica,sans-Serif" font-size="10.00">+</text>
<text text-anchor="start" x="228.5" y="-1061.5" font-family="Helvetica,sans-Serif" font-size="10.00">GetStateVariable()</text>
<text text-anchor="start" x="215.5" y="-1046.5" font-family="Helvetica,sans-Serif" font-size="10.00">+</text>
<text text-anchor="start" x="228.5" y="-1046.5" font-family="Helvetica,sans-Serif" font-size="10.00">SetStateVariable()</text>
<text text-anchor="start" x="215.5" y="-1031.5" font-family="Helvetica,sans-Serif" font-size="10.00">+</text>
<text text-anchor="start" x="228.5" y="-1031.5" font-family="Helvetica,sans-Serif" font-size="10.00">SetStateVariable()</text>
<text text-anchor="start" x="215.5" y="-1016.5" font-family="Helvetica,sans-Serif" font-size="10.00">+</text>
<text text-anchor="start" x="228.5" y="-1016.5" font-family="Helvetica,sans-Serif" font-size="10.00">VerifyStateVariables()</text>
<text text-anchor="start" x="215.5" y="-1001.5" font-family="Helvetica,sans-Serif" font-size="10.00">+</text>
<text text-anchor="start" x="228.5" y="-1001.5" font-family="Helvetica,sans-Serif" font-size="10.00">SetDefaultInitialConditions()</text>
<text text-anchor="start" x="228.5" y="-986.5" font-family="Helvetica,sans-Serif" font-size="10.00">and 13 more...</text>
<text text-anchor="start" x="215.5" y="-971.5" font-family="Helvetica,sans-Serif" font-size="10.00">#</text>
<text text-anchor="start" x="228.5" y="-971.5" font-family="Helvetica,sans-Serif" font-size="10.00">DumpState()</text>
<text text-anchor="start" x="215.5" y="-956.5" font-family="Helvetica,sans-Serif" font-size="10.00">#</text>
<text text-anchor="start" x="228.5" y="-956.5" font-family="Helvetica,sans-Serif" font-size="10.00">DumpState()</text>
<text text-anchor="start" x="215.5" y="-941.5" font-family="Helvetica,sans-Serif" font-size="10.00">#</text>
<text text-anchor="start" x="228.5" y="-941.5" font-family="Helvetica,sans-Serif" font-size="10.00">DumpState()</text>
<text text-anchor="start" x="215.5" y="-926.5" font-family="Helvetica,sans-Serif" font-size="10.00">#</text>
<text text-anchor="start" x="228.5" y="-926.5" font-family="Helvetica,sans-Serif" font-size="10.00">CheckParametersOnLoad()</text>
<text text-anchor="start" x="218" y="-911.5" font-family="Helvetica,sans-Serif" font-size="10.00">&#45;</text>
<text text-anchor="start" x="228.5" y="-911.5" font-family="Helvetica,sans-Serif" font-size="10.00">GetStateMessage()</text>
<polygon fill="#666666" stroke="#666666" points="211.5,-1161.5 211.5,-1161.5 388.5,-1161.5 388.5,-1161.5 211.5,-1161.5"/>
<polygon fill="#666666" stroke="#666666" points="211.5,-1146.5 211.5,-1146.5 388.5,-1146.5 388.5,-1146.5 211.5,-1146.5"/>
<polygon fill="none" stroke="#666666" points="211,-905 211,-1190 388,-1190 388,-905 211,-905"/>
</a>
</g>
</g>
<!-- Node4&#45;&gt;Node3 -->
<g id="edge3_Node000003_Node000004" class="edge">
<title>Node4&#45;&gt;Node3</title>
<g id="a_edge3_Node000003_Node000004"><a xlink:title=" ">
<path fill="none" stroke="#63b8ff" d="M306.71,-894.84C307.68,-874.45 308.64,-854.17 309.53,-835.57"/>
<polygon fill="none" stroke="#63b8ff" points="303.21,-894.7 306.23,-904.86 310.2,-895.03 303.21,-894.7"/>
</a>
</g>
</g>
<!-- Node5 -->
<g id="Node000005" class="node">
<title>Node5</title>
<g id="a_Node000005"><a xlink:href="classAbstractUntemplatedParameterisedSystem.html" target="_top" xlink:title=" ">
<polygon fill="white" stroke="transparent" points="244,-1823 39,-1823 39,-1591 244,-1591 244,-1823"/>
<text text-anchor="start" x="54.5" y="-1811" font-family="Helvetica,sans-Serif" font-size="10.00">AbstractUntemplatedParameterised</text>
<text text-anchor="start" x="123.5" y="-1800" font-family="Helvetica,sans-Serif" font-size="10.00">System</text>
<text text-anchor="start" x="140" y="-1785" font-family="Helvetica,sans-Serif" font-size="10.00"> </text>
<text text-anchor="start" x="43.5" y="-1770" font-family="Helvetica,sans-Serif" font-size="10.00">+</text>
<text text-anchor="start" x="56.5" y="-1770" font-family="Helvetica,sans-Serif" font-size="10.00">AbstractUntemplatedParameterised</text>
<text text-anchor="start" x="56.5" y="-1759" font-family="Helvetica,sans-Serif" font-size="10.00">System()</text>
<text text-anchor="start" x="43.5" y="-1744" font-family="Helvetica,sans-Serif" font-size="10.00">+</text>
<text text-anchor="start" x="56.5" y="-1744" font-family="Helvetica,sans-Serif" font-size="10.00">~AbstractUntemplatedParameterised</text>
<text text-anchor="start" x="56.5" y="-1733" font-family="Helvetica,sans-Serif" font-size="10.00">System()</text>
<text text-anchor="start" x="43.5" y="-1718" font-family="Helvetica,sans-Serif" font-size="10.00">+</text>
<text text-anchor="start" x="56.5" y="-1718" font-family="Helvetica,sans-Serif" font-size="10.00">GetSystemInformation()</text>
<text text-anchor="start" x="43.5" y="-1703" font-family="Helvetica,sans-Serif" font-size="10.00">+</text>
<text text-anchor="start" x="56.5" y="-1703" font-family="Helvetica,sans-Serif" font-size="10.00">GetSystemName()</text>
<text text-anchor="start" x="43.5" y="-1688" font-family="Helvetica,sans-Serif" font-size="10.00">+</text>
<text text-anchor="start" x="56.5" y="-1688" font-family="Helvetica,sans-Serif" font-size="10.00">GetNumberOfAttributes()</text>
<text text-anchor="start" x="43.5" y="-1673" font-family="Helvetica,sans-Serif" font-size="10.00">+</text>
<text text-anchor="start" x="56.5" y="-1673" font-family="Helvetica,sans-Serif" font-size="10.00">HasAttribute()</text>
<text text-anchor="start" x="43.5" y="-1658" font-family="Helvetica,sans-Serif" font-size="10.00">+</text>
<text text-anchor="start" x="56.5" y="-1658" font-family="Helvetica,sans-Serif" font-size="10.00">GetAttribute()</text>
<text text-anchor="start" x="43.5" y="-1643" font-family="Helvetica,sans-Serif" font-size="10.00">+</text>
<text text-anchor="start" x="56.5" y="-1643" font-family="Helvetica,sans-Serif" font-size="10.00">GetNumberOfStateVariables()</text>
<text text-anchor="start" x="43.5" y="-1628" font-family="Helvetica,sans-Serif" font-size="10.00">+</text>
<text text-anchor="start" x="56.5" y="-1628" font-family="Helvetica,sans-Serif" font-size="10.00">rGetStateVariableNames()</text>
<text text-anchor="start" x="43.5" y="-1613" font-family="Helvetica,sans-Serif" font-size="10.00">+</text>
<text text-anchor="start" x="56.5" y="-1613" font-family="Helvetica,sans-Serif" font-size="10.00">rGetStateVariableUnits()</text>
<text text-anchor="start" x="56.5" y="-1598" font-family="Helvetica,sans-Serif" font-size="10.00">and 20 more...</text>
<polygon fill="#666666" stroke="#666666" points="39.5,-1795 39.5,-1795 244.5,-1795 244.5,-1795 39.5,-1795"/>
<polygon fill="#666666" stroke="#666666" points="39.5,-1780 39.5,-1780 244.5,-1780 244.5,-1780 39.5,-1780"/>
<polygon fill="none" stroke="#666666" points="39,-1591 39,-1823 244,-1823 244,-1591 39,-1591"/>
</a>
</g>
</g>
<!-- Node5&#45;&gt;Node4 -->
<g id="edge4_Node000004_Node000005" class="edge">
<title>Node5&#45;&gt;Node4</title>
<g id="a_edge4_Node000004_Node000005"><a xlink:title=" ">
<path fill="none" stroke="#63b8ff" d="M102.43,-1580.89C76.3,-1470.35 60.3,-1311.12 144.5,-1208 161.57,-1187.09 180.78,-1206.02 202.5,-1190 205.38,-1187.88 208.2,-1185.65 210.96,-1183.32"/>
<polygon fill="none" stroke="#63b8ff" points="99.07,-1581.87 104.82,-1590.77 105.87,-1580.22 99.07,-1581.87"/>
</a>
</g>
</g>
<!-- Node9 -->
<g id="Node000009" class="node">
<title>Node9</title>
<g id="a_Node000009"><a xlink:href="classAbstractParameterisedSystem.html" target="_top" xlink:title=" ">
<polygon fill="white" stroke="transparent" points="327,-1533 150,-1533 150,-1248 327,-1248 327,-1533"/>
<text text-anchor="start" x="165" y="-1520.5" font-family="Helvetica,sans-Serif" font-size="10.00">AbstractParameterisedSystem</text>
<text text-anchor="start" x="207.5" y="-1509.5" font-family="Helvetica,sans-Serif" font-size="10.00">&lt; VECTOR &gt;</text>
<text text-anchor="start" x="237" y="-1494.5" font-family="Helvetica,sans-Serif" font-size="10.00"> </text>
<text text-anchor="start" x="154.5" y="-1479.5" font-family="Helvetica,sans-Serif" font-size="10.00">+</text>
<text text-anchor="start" x="167.5" y="-1479.5" font-family="Helvetica,sans-Serif" font-size="10.00">AbstractParameterisedSystem()</text>
<text text-anchor="start" x="154.5" y="-1464.5" font-family="Helvetica,sans-Serif" font-size="10.00">+</text>
<text text-anchor="start" x="167.5" y="-1464.5" font-family="Helvetica,sans-Serif" font-size="10.00">rGetStateVariables()</text>
<text text-anchor="start" x="154.5" y="-1449.5" font-family="Helvetica,sans-Serif" font-size="10.00">+</text>
<text text-anchor="start" x="167.5" y="-1449.5" font-family="Helvetica,sans-Serif" font-size="10.00">GetStateVariables()</text>
<text text-anchor="start" x="154.5" y="-1434.5" font-family="Helvetica,sans-Serif" font-size="10.00">+</text>
<text text-anchor="start" x="167.5" y="-1434.5" font-family="Helvetica,sans-Serif" font-size="10.00">SetStateVariables()</text>
<text text-anchor="start" x="154.5" y="-1419.5" font-family="Helvetica,sans-Serif" font-size="10.00">+</text>
<text text-anchor="start" x="167.5" y="-1419.5" font-family="Helvetica,sans-Serif" font-size="10.00">GetStateVariable()</text>
<text text-anchor="start" x="154.5" y="-1404.5" font-family="Helvetica,sans-Serif" font-size="10.00">+</text>
<text text-anchor="start" x="167.5" y="-1404.5" font-family="Helvetica,sans-Serif" font-size="10.00">GetStateVariable()</text>
<text text-anchor="start" x="154.5" y="-1389.5" font-family="Helvetica,sans-Serif" font-size="10.00">+</text>
<text text-anchor="start" x="167.5" y="-1389.5" font-family="Helvetica,sans-Serif" font-size="10.00">SetStateVariable()</text>
<text text-anchor="start" x="154.5" y="-1374.5" font-family="Helvetica,sans-Serif" font-size="10.00">+</text>
<text text-anchor="start" x="167.5" y="-1374.5" font-family="Helvetica,sans-Serif" font-size="10.00">SetStateVariable()</text>
<text text-anchor="start" x="154.5" y="-1359.5" font-family="Helvetica,sans-Serif" font-size="10.00">+</text>
<text text-anchor="start" x="167.5" y="-1359.5" font-family="Helvetica,sans-Serif" font-size="10.00">VerifyStateVariables()</text>
<text text-anchor="start" x="154.5" y="-1344.5" font-family="Helvetica,sans-Serif" font-size="10.00">+</text>
<text text-anchor="start" x="167.5" y="-1344.5" font-family="Helvetica,sans-Serif" font-size="10.00">SetDefaultInitialConditions()</text>
<text text-anchor="start" x="167.5" y="-1329.5" font-family="Helvetica,sans-Serif" font-size="10.00">and 13 more...</text>
<text text-anchor="start" x="154.5" y="-1314.5" font-family="Helvetica,sans-Serif" font-size="10.00">#</text>
<text text-anchor="start" x="167.5" y="-1314.5" font-family="Helvetica,sans-Serif" font-size="10.00">DumpState()</text>
<text text-anchor="start" x="154.5" y="-1299.5" font-family="Helvetica,sans-Serif" font-size="10.00">#</text>
<text text-anchor="start" x="167.5" y="-1299.5" font-family="Helvetica,sans-Serif" font-size="10.00">DumpState()</text>
<text text-anchor="start" x="154.5" y="-1284.5" font-family="Helvetica,sans-Serif" font-size="10.00">#</text>
<text text-anchor="start" x="167.5" y="-1284.5" font-family="Helvetica,sans-Serif" font-size="10.00">DumpState()</text>
<text text-anchor="start" x="154.5" y="-1269.5" font-family="Helvetica,sans-Serif" font-size="10.00">#</text>
<text text-anchor="start" x="167.5" y="-1269.5" font-family="Helvetica,sans-Serif" font-size="10.00">CheckParametersOnLoad()</text>
<text text-anchor="start" x="157" y="-1254.5" font-family="Helvetica,sans-Serif" font-size="10.00">&#45;</text>
<text text-anchor="start" x="167.5" y="-1254.5" font-family="Helvetica,sans-Serif" font-size="10.00">GetStateMessage()</text>
<polygon fill="#666666" stroke="#666666" points="150.5,-1504.5 150.5,-1504.5 327.5,-1504.5 327.5,-1504.5 150.5,-1504.5"/>
<polygon fill="#666666" stroke="#666666" points="150.5,-1489.5 150.5,-1489.5 327.5,-1489.5 327.5,-1489.5 150.5,-1489.5"/>
<polygon fill="none" stroke="#666666" points="150,-1248 150,-1533 327,-1533 327,-1248 150,-1248"/>
</a>
</g>
</g>
<!-- Node5&#45;&gt;Node9 -->
<g id="edge9_Node000009_Node000005" class="edge">
<title>Node5&#45;&gt;Node9</title>
<g id="a_edge9_Node000009_Node000005"><a xlink:title=" ">
<path fill="none" stroke="#63b8ff" d="M180.07,-1580.94C184.93,-1565.19 189.93,-1548.99 194.86,-1533.01"/>
<polygon fill="none" stroke="#63b8ff" points="176.67,-1580.09 177.07,-1590.68 183.36,-1582.15 176.67,-1580.09"/>
</a>
</g>
</g>
<!-- Node6 -->
<g id="Node000006" class="node">
<title>Node6</title>
<g id="a_Node000006"><a xlink:href="classunsigned.html" target="_top" xlink:title=" ">
<polygon fill="white" stroke="transparent" points="55,-1924.5 0,-1924.5 0,-1875.5 55,-1875.5 55,-1924.5"/>
<text text-anchor="start" x="5.5" y="-1912" font-family="Helvetica,sans-Serif" font-size="10.00">unsigned</text>
<text text-anchor="start" x="26" y="-1897" font-family="Helvetica,sans-Serif" font-size="10.00"> </text>
<text text-anchor="start" x="26" y="-1882" font-family="Helvetica,sans-Serif" font-size="10.00"> </text>
<polygon fill="#bfbfbf" stroke="#bfbfbf" points="0.5,-1907 0.5,-1907 55.5,-1907 55.5,-1907 0.5,-1907"/>
<polygon fill="#bfbfbf" stroke="#bfbfbf" points="0.5,-1892 0.5,-1892 55.5,-1892 55.5,-1892 0.5,-1892"/>
<polygon fill="none" stroke="#bfbfbf" points="0,-1875.5 0,-1924.5 55,-1924.5 55,-1875.5 0,-1875.5"/>
</a>
</g>
</g>
<!-- Node6&#45;&gt;Node1 -->
<g id="edge16_Node000001_Node000006" class="edge">
<title>Node6&#45;&gt;Node1</title>
<g id="a_edge16_Node000001_Node000006"><a xlink:title=" ">
<path fill="none" stroke="#63b8ff" d="M24.02,-1875.24C19.05,-1839.18 10.5,-1768.42 10.5,-1708 10.5,-1708 10.5,-1708 10.5,-535.5 10.5,-403.76 148.74,-314.33 253.89,-265.36"/>
<polygon fill="none" stroke="#63b8ff" points="254.01,-265.31 257.8,-259.18 264.92,-260.32 261.13,-266.45 254.01,-265.31"/>
</a>
</g>
<text text-anchor="middle" x="25.5" y="-1050.5" font-family="Helvetica,sans-Serif" font-size="10.00" fill="grey"> #mN</text>
<text text-anchor="middle" x="25.5" y="-1039.5" font-family="Helvetica,sans-Serif" font-size="10.00" fill="grey">#mNr</text>
</g>
<!-- Node6&#45;&gt;Node5 -->
<g id="edge5_Node000005_Node000006" class="edge">
<title>Node6&#45;&gt;Node5</title>
<g id="a_edge5_Node000005_Node000006"><a xlink:title=" ">
<path fill="none" stroke="#63b8ff" d="M31.94,-1875.43C34.49,-1864.61 38.25,-1851.81 43.5,-1841 44.67,-1838.59 45.89,-1836.18 47.14,-1833.77"/>
<polygon fill="none" stroke="#63b8ff" points="47.15,-1833.76 46.51,-1826.58 52.89,-1823.23 53.53,-1830.41 47.15,-1833.76"/>
</a>
</g>
<text text-anchor="middle" x="114.5" y="-1844" font-family="Helvetica,sans-Serif" font-size="10.00" fill="grey"> #mNumberOfStateVariables</text>
</g>
<!-- Node7 -->
<g id="Node000007" class="node">
<title>Node7</title>
<g id="a_Node000007"><a xlink:title=" ">
<polygon fill="white" stroke="transparent" points="293.5,-1930 123.5,-1930 123.5,-1870 293.5,-1870 293.5,-1930"/>
<text text-anchor="start" x="128.5" y="-1918" font-family="Helvetica,sans-Serif" font-size="10.00">shared_ptr&lt; AbstractOdeSystem</text>
<text text-anchor="start" x="174" y="-1907" font-family="Helvetica,sans-Serif" font-size="10.00">Information &gt;</text>
<text text-anchor="start" x="206.5" y="-1892" font-family="Helvetica,sans-Serif" font-size="10.00"> </text>
<text text-anchor="start" x="206.5" y="-1877" font-family="Helvetica,sans-Serif" font-size="10.00"> </text>
<polygon fill="#bfbfbf" stroke="#bfbfbf" points="123.5,-1902 123.5,-1902 293.5,-1902 293.5,-1902 123.5,-1902"/>
<polygon fill="#bfbfbf" stroke="#bfbfbf" points="123.5,-1887 123.5,-1887 293.5,-1887 293.5,-1887 123.5,-1887"/>
<polygon fill="none" stroke="#bfbfbf" points="123.5,-1870 123.5,-1930 293.5,-1930 293.5,-1870 123.5,-1870"/>
</a>
</g>
</g>
<!-- Node7&#45;&gt;Node5 -->
<g id="edge6_Node000005_Node000007" class="edge">
<title>Node7&#45;&gt;Node5</title>
<g id="a_edge6_Node000005_Node000007"><a xlink:title=" ">
<path fill="none" stroke="#63b8ff" d="M198.32,-1869.99C194.78,-1859.9 190.56,-1847.85 186.02,-1834.93"/>
<polygon fill="none" stroke="#63b8ff" points="185.95,-1834.7 180.19,-1830.37 181.97,-1823.38 187.73,-1827.72 185.95,-1834.7"/>
</a>
</g>
<text text-anchor="middle" x="233" y="-1844" font-family="Helvetica,sans-Serif" font-size="10.00" fill="grey"> #mpSystemInfo</text>
</g>
<!-- Node8 -->
<g id="Node000008" class="node">
<title>Node8</title>
<g id="a_Node000008"><a xlink:title=" ">
<polygon fill="white" stroke="transparent" points="453,-1415 356,-1415 356,-1366 453,-1366 453,-1415"/>
<text text-anchor="start" x="361.5" y="-1402.5" font-family="Helvetica,sans-Serif" font-size="10.00">vector&lt; double &gt;</text>
<text text-anchor="start" x="403" y="-1387.5" font-family="Helvetica,sans-Serif" font-size="10.00"> </text>
<text text-anchor="start" x="403" y="-1372.5" font-family="Helvetica,sans-Serif" font-size="10.00"> </text>
<polygon fill="#bfbfbf" stroke="#bfbfbf" points="356.5,-1397.5 356.5,-1397.5 453.5,-1397.5 453.5,-1397.5 356.5,-1397.5"/>
<polygon fill="#bfbfbf" stroke="#bfbfbf" points="356.5,-1382.5 356.5,-1382.5 453.5,-1382.5 453.5,-1382.5 356.5,-1382.5"/>
<polygon fill="none" stroke="#bfbfbf" points="356,-1366 356,-1415 453,-1415 453,-1366 356,-1366"/>
</a>
</g>
</g>
<!-- Node8&#45;&gt;Node2 -->
<g id="edge13_Node000002_Node000008" class="edge">
<title>Node8&#45;&gt;Node2</title>
<g id="a_edge13_Node000002_Node000008"><a xlink:title=" ">
<path fill="none" stroke="#63b8ff" d="M406.2,-1365.87C412.44,-1273.24 431.99,-926.21 396.5,-644 394.95,-631.69 392.51,-618.75 389.72,-606.29"/>
<polygon fill="none" stroke="#63b8ff" points="389.71,-606.22 384.44,-601.29 386.97,-594.53 392.23,-599.46 389.71,-606.22"/>
</a>
</g>
<text text-anchor="middle" x="487.5" y="-879" font-family="Helvetica,sans-Serif" font-size="10.00" fill="grey"> #mTemporaryStateVariables</text>
</g>
<!-- Node8&#45;&gt;Node4 -->
<g id="edge7_Node000004_Node000008" class="edge">
<title>Node8&#45;&gt;Node4</title>
<g id="a_edge7_Node000004_Node000008"><a xlink:title=" ">
<path fill="none" stroke="#63b8ff" d="M396.73,-1365.86C386.17,-1336.16 365.15,-1284.65 335.5,-1248 327.34,-1237.91 318.6,-1241.46 312.5,-1230 307.75,-1221.08 303.99,-1211.56 301.04,-1201.72"/>
<polygon fill="none" stroke="#63b8ff" points="301.02,-1201.64 295.61,-1196.87 297.93,-1190.04 303.34,-1194.81 301.02,-1201.64"/>
</a>
</g>
<text text-anchor="middle" x="357" y="-1222" font-family="Helvetica,sans-Serif" font-size="10.00" fill="grey"> #mParameters</text>
<text text-anchor="middle" x="357" y="-1211" font-family="Helvetica,sans-Serif" font-size="10.00" fill="grey">#mStateVariables</text>
</g>
<!-- Node9&#45;&gt;Node4 -->
<g id="edge8_Node000004_Node000009" class="edge">
<title>Node9&#45;&gt;Node4</title>
<g id="a_edge8_Node000004_Node000009"><a xlink:title=" ">
<path fill="none" stroke="orange" d="M147.31,-1263.26C143.1,-1244.13 144.83,-1225.1 156.5,-1208 168.88,-1189.87 185.31,-1203.66 202.5,-1190 205.3,-1187.78 208.05,-1185.45 210.75,-1183.04"/>
<polygon fill="orange" stroke="orange" points="143.94,-1264.21 149.93,-1272.95 150.7,-1262.38 143.94,-1264.21"/>
</a>
</g>
<text text-anchor="middle" x="223" y="-1216.5" font-family="Helvetica,sans-Serif" font-size="10.00" fill="grey"> &lt; std::vector&lt; double &gt; &gt;</text>
</g>
<!-- Node10 -->
<g id="Node000010" class="node">
<title>Node10</title>
<g id="a_Node000010"><a xlink:title=" ">
<polygon fill="white" stroke="transparent" points="312.5,-1731.5 262.5,-1731.5 262.5,-1682.5 312.5,-1682.5 312.5,-1731.5"/>
<text text-anchor="start" x="267.5" y="-1719" font-family="Helvetica,sans-Serif" font-size="10.00">VECTOR</text>
<text text-anchor="start" x="285.5" y="-1704" font-family="Helvetica,sans-Serif" font-size="10.00"> </text>
<text text-anchor="start" x="285.5" y="-1689" font-family="Helvetica,sans-Serif" font-size="10.00"> </text>
<polygon fill="#bfbfbf" stroke="#bfbfbf" points="262.5,-1714 262.5,-1714 312.5,-1714 312.5,-1714 262.5,-1714"/>
<polygon fill="#bfbfbf" stroke="#bfbfbf" points="262.5,-1699 262.5,-1699 312.5,-1699 312.5,-1699 262.5,-1699"/>
<polygon fill="none" stroke="#bfbfbf" points="262.5,-1682.5 262.5,-1731.5 312.5,-1731.5 312.5,-1682.5 262.5,-1682.5"/>
</a>
</g>
</g>
<!-- Node10&#45;&gt;Node9 -->
<g id="edge10_Node000009_Node000010" class="edge">
<title>Node10&#45;&gt;Node9</title>
<g id="a_edge10_Node000009_Node000010"><a xlink:title=" ">
<path fill="none" stroke="#63b8ff" d="M283.82,-1682.36C279.17,-1652.55 270.78,-1598.7 262.48,-1545.38"/>
<polygon fill="none" stroke="#63b8ff" points="262.44,-1545.16 257.56,-1539.85 260.59,-1533.3 265.47,-1538.61 262.44,-1545.16"/>
</a>
</g>
<text text-anchor="middle" x="311" y="-1565" font-family="Helvetica,sans-Serif" font-size="10.00" fill="grey"> #mParameters</text>
<text text-anchor="middle" x="311" y="-1554" font-family="Helvetica,sans-Serif" font-size="10.00" fill="grey">#mStateVariables</text>
</g>
<!-- Node11 -->
<g id="Node000011" class="node">
<title>Node11</title>
<g id="a_Node000011"><a xlink:href="classbool.html" target="_top" xlink:title=" ">
<polygon fill="white" stroke="transparent" points="193.5,-1072 161.5,-1072 161.5,-1023 193.5,-1023 193.5,-1072"/>
<text text-anchor="start" x="166.5" y="-1059.5" font-family="Helvetica,sans-Serif" font-size="10.00">bool</text>
<text text-anchor="start" x="175.5" y="-1044.5" font-family="Helvetica,sans-Serif" font-size="10.00"> </text>
<text text-anchor="start" x="175.5" y="-1029.5" font-family="Helvetica,sans-Serif" font-size="10.00"> </text>
<polygon fill="#bfbfbf" stroke="#bfbfbf" points="161.5,-1054.5 161.5,-1054.5 193.5,-1054.5 193.5,-1054.5 161.5,-1054.5"/>
<polygon fill="#bfbfbf" stroke="#bfbfbf" points="161.5,-1039.5 161.5,-1039.5 193.5,-1039.5 193.5,-1039.5 161.5,-1039.5"/>
<polygon fill="none" stroke="#bfbfbf" points="161.5,-1023 161.5,-1072 193.5,-1072 193.5,-1023 161.5,-1023"/>
</a>
</g>
</g>
<!-- Node11&#45;&gt;Node3 -->
<g id="edge11_Node000003_Node000011" class="edge">
<title>Node11&#45;&gt;Node3</title>
<g id="a_edge11_Node000003_Node000011"><a xlink:title=" ">
<path fill="none" stroke="#63b8ff" d="M170.65,-1022.99C161.85,-987.52 151.15,-919.84 182.5,-876 195.75,-857.47 212.13,-871.47 230.5,-858 236.18,-853.84 241.66,-849.19 246.93,-844.23"/>
<polygon fill="none" stroke="#63b8ff" points="247.08,-844.08 248.51,-837.01 255.58,-835.61 254.15,-842.67 247.08,-844.08"/>
</a>
</g>
<text text-anchor="middle" x="243" y="-879" font-family="Helvetica,sans-Serif" font-size="10.00" fill="grey"> #mUseAnalyticJacobian</text>
</g>
<!-- Node12 -->
<g id="Node000012" class="node">
<title>Node12</title>
<g id="a_Node000012"><a xlink:href="classAbstractContractionModel.html" target="_top" xlink:title=" ">
<polygon fill="white" stroke="transparent" points="221.5,-858 57.5,-858 57.5,-644 221.5,-644 221.5,-858"/>
<text text-anchor="start" x="76" y="-846" font-family="Helvetica,sans-Serif" font-size="10.00">AbstractContractionModel</text>
<text text-anchor="start" x="137.5" y="-831" font-family="Helvetica,sans-Serif" font-size="10.00"> </text>
<text text-anchor="start" x="61.5" y="-816" font-family="Helvetica,sans-Serif" font-size="10.00">+</text>
<text text-anchor="start" x="74.5" y="-816" font-family="Helvetica,sans-Serif" font-size="10.00">AbstractContractionModel()</text>
<text text-anchor="start" x="61.5" y="-801" font-family="Helvetica,sans-Serif" font-size="10.00">+</text>
<text text-anchor="start" x="74.5" y="-801" font-family="Helvetica,sans-Serif" font-size="10.00">~AbstractContractionModel()</text>
<text text-anchor="start" x="61.5" y="-786" font-family="Helvetica,sans-Serif" font-size="10.00">+</text>
<text text-anchor="start" x="74.5" y="-786" font-family="Helvetica,sans-Serif" font-size="10.00">IsStretchDependent()</text>
<text text-anchor="start" x="61.5" y="-771" font-family="Helvetica,sans-Serif" font-size="10.00">+</text>
<text text-anchor="start" x="74.5" y="-771" font-family="Helvetica,sans-Serif" font-size="10.00">IsStretchRateDependent()</text>
<text text-anchor="start" x="61.5" y="-756" font-family="Helvetica,sans-Serif" font-size="10.00">+</text>
<text text-anchor="start" x="74.5" y="-756" font-family="Helvetica,sans-Serif" font-size="10.00">SetInputParameters()</text>
<text text-anchor="start" x="61.5" y="-741" font-family="Helvetica,sans-Serif" font-size="10.00">+</text>
<text text-anchor="start" x="74.5" y="-741" font-family="Helvetica,sans-Serif" font-size="10.00">SetStretchAndStretchRate()</text>
<text text-anchor="start" x="61.5" y="-726" font-family="Helvetica,sans-Serif" font-size="10.00">+</text>
<text text-anchor="start" x="74.5" y="-726" font-family="Helvetica,sans-Serif" font-size="10.00">SetStretch()</text>
<text text-anchor="start" x="61.5" y="-711" font-family="Helvetica,sans-Serif" font-size="10.00">+</text>
<text text-anchor="start" x="74.5" y="-711" font-family="Helvetica,sans-Serif" font-size="10.00">RunDoNotUpdate()</text>
<text text-anchor="start" x="61.5" y="-696" font-family="Helvetica,sans-Serif" font-size="10.00">+</text>
<text text-anchor="start" x="74.5" y="-696" font-family="Helvetica,sans-Serif" font-size="10.00">RunAndUpdate()</text>
<text text-anchor="start" x="61.5" y="-681" font-family="Helvetica,sans-Serif" font-size="10.00">+</text>
<text text-anchor="start" x="74.5" y="-681" font-family="Helvetica,sans-Serif" font-size="10.00">UpdateStateVariables()</text>
<text text-anchor="start" x="61.5" y="-666" font-family="Helvetica,sans-Serif" font-size="10.00">+</text>
<text text-anchor="start" x="74.5" y="-666" font-family="Helvetica,sans-Serif" font-size="10.00">GetActiveTension()</text>
<text text-anchor="start" x="61.5" y="-651" font-family="Helvetica,sans-Serif" font-size="10.00">+</text>
<text text-anchor="start" x="74.5" y="-651" font-family="Helvetica,sans-Serif" font-size="10.00">GetNextActiveTension()</text>
<polygon fill="#666666" stroke="#666666" points="57.5,-841 57.5,-841 221.5,-841 221.5,-841 57.5,-841"/>
<polygon fill="#666666" stroke="#666666" points="57.5,-826 57.5,-826 221.5,-826 221.5,-826 57.5,-826"/>
<polygon fill="none" stroke="#666666" points="57.5,-644 57.5,-858 221.5,-858 221.5,-644 57.5,-644"/>
</a>
</g>
</g>
<!-- Node12&#45;&gt;Node2 -->
<g id="edge12_Node000002_Node000012" class="edge">
<title>Node12&#45;&gt;Node2</title>
<g id="a_edge12_Node000002_Node000012"><a xlink:title=" ">
<path fill="none" stroke="#63b8ff" d="M228.81,-645.6C229.37,-645.06 229.94,-644.53 230.5,-644 248.61,-626.93 269.38,-609.93 289.28,-594.69"/>
<polygon fill="none" stroke="#63b8ff" points="226.21,-643.25 221.5,-652.74 231.1,-648.25 226.21,-643.25"/>
</a>
</g>
</g>
<!-- Node13 -->
<g id="Node000013" class="node">
<title>Node13</title>
<g id="a_Node000013"><a xlink:href="classdouble.html" target="_top" xlink:title=" ">
<polygon fill="white" stroke="transparent" points="509.5,-775.5 465.5,-775.5 465.5,-726.5 509.5,-726.5 509.5,-775.5"/>
<text text-anchor="start" x="470.5" y="-763" font-family="Helvetica,sans-Serif" font-size="10.00">double</text>
<text text-anchor="start" x="485.5" y="-748" font-family="Helvetica,sans-Serif" font-size="10.00"> </text>
<text text-anchor="start" x="485.5" y="-733" font-family="Helvetica,sans-Serif" font-size="10.00"> </text>
<polygon fill="#bfbfbf" stroke="#bfbfbf" points="465.5,-758 465.5,-758 509.5,-758 509.5,-758 465.5,-758"/>
<polygon fill="#bfbfbf" stroke="#bfbfbf" points="465.5,-743 465.5,-743 509.5,-743 509.5,-743 465.5,-743"/>
<polygon fill="none" stroke="#bfbfbf" points="465.5,-726.5 465.5,-775.5 509.5,-775.5 509.5,-726.5 465.5,-726.5"/>
</a>
</g>
</g>
<!-- Node13&#45;&gt;Node1 -->
<g id="edge15_Node000001_Node000013" class="edge">
<title>Node13&#45;&gt;Node1</title>
<g id="a_edge15_Node000001_Node000013"><a xlink:title=" ">
<path fill="none" stroke="#63b8ff" d="M487.05,-726.06C486.39,-699.04 484.87,-653.8 481.5,-615 476.11,-552.94 478.24,-536.52 463.5,-476 461.46,-467.64 459.25,-459.18 456.89,-450.68"/>
<polygon fill="none" stroke="#63b8ff" points="456.86,-450.59 451.37,-445.92 453.58,-439.05 459.07,-443.73 456.86,-450.59"/>
</a>
</g>
<text text-anchor="middle" x="509" y="-589" font-family="Helvetica,sans-Serif" font-size="10.00" fill="grey"> #mA</text>
<text text-anchor="middle" x="509" y="-578" font-family="Helvetica,sans-Serif" font-size="10.00" fill="grey">#mA1</text>
<text text-anchor="middle" x="509" y="-567" font-family="Helvetica,sans-Serif" font-size="10.00" fill="grey">#mA2</text>
<text text-anchor="middle" x="509" y="-556" font-family="Helvetica,sans-Serif" font-size="10.00" fill="grey">#mA3</text>
<text text-anchor="middle" x="509" y="-545" font-family="Helvetica,sans-Serif" font-size="10.00" fill="grey">#mAlpha0</text>
<text text-anchor="middle" x="509" y="-534" font-family="Helvetica,sans-Serif" font-size="10.00" fill="grey">#mAlpha1</text>
<text text-anchor="middle" x="509" y="-523" font-family="Helvetica,sans-Serif" font-size="10.00" fill="grey">#mAlpha2</text>
<text text-anchor="middle" x="509" y="-512" font-family="Helvetica,sans-Serif" font-size="10.00" fill="grey">#mAlpha3</text>
<text text-anchor="middle" x="509" y="-501" font-family="Helvetica,sans-Serif" font-size="10.00" fill="grey">#mAlphaR1</text>
<text text-anchor="middle" x="509" y="-490" font-family="Helvetica,sans-Serif" font-size="10.00" fill="grey">#mAlphaR2</text>
<text text-anchor="middle" x="509" y="-479" font-family="Helvetica,sans-Serif" font-size="10.00" fill="grey">...</text>
</g>
<!-- Node13&#45;&gt;Node2 -->
<g id="edge14_Node000002_Node000013" class="edge">
<title>Node13&#45;&gt;Node2</title>
<g id="a_edge14_Node000002_Node000013"><a xlink:title=" ">
<path fill="none" stroke="#63b8ff" d="M478.51,-726.36C467.66,-698.84 448.16,-652.39 426.5,-615 424.54,-611.62 422.48,-608.22 420.33,-604.81"/>
<polygon fill="none" stroke="#63b8ff" points="420.25,-604.68 413.63,-601.83 413.71,-594.62 420.33,-597.47 420.25,-604.68"/>
</a>
</g>
<text text-anchor="middle" x="454.5" y="-618" font-family="Helvetica,sans-Serif" font-size="10.00" fill="grey"> #mTime</text>
</g>
</g>
</svg>
