<?xml version="1.0" encoding="UTF-8" standalone="no"?>
<!DOCTYPE svg PUBLIC "-//W3C//DTD SVG 1.1//EN"
 "http://www.w3.org/Graphics/SVG/1.1/DTD/svg11.dtd">
<!-- Generated by graphviz version 2.43.0 (0)
 -->
<!-- Title: RKC21IvpOdeSolver Pages: 1 -->
<svg width="451pt" height="575pt"
 viewBox="0.00 0.00 451.00 575.00" xmlns="http://www.w3.org/2000/svg" xmlns:xlink="http://www.w3.org/1999/xlink">
<g id="graph0" class="graph" transform="scale(1 1) rotate(0) translate(4 571)">
<title>RKC21IvpOdeSolver</title>
<!-- Node1 -->
<g id="Node000001" class="node">
<title>Node1</title>
<g id="a_Node000001"><a xlink:title=" ">
<polygon fill="#999999" stroke="transparent" points="352.5,-79 221.5,-79 221.5,0 352.5,0 352.5,-79"/>
<text text-anchor="start" x="239" y="-66.5" font-family="Helvetica,sans-Serif" font-size="10.00">RKC21IvpOdeSolver</text>
<text text-anchor="start" x="285.5" y="-51.5" font-family="Helvetica,sans-Serif" font-size="10.00"> </text>
<text text-anchor="start" x="226" y="-36.5" font-family="Helvetica,sans-Serif" font-size="10.00">+</text>
<text text-anchor="start" x="239" y="-36.5" font-family="Helvetica,sans-Serif" font-size="10.00">RKC21IvpOdeSolver()</text>
<text text-anchor="start" x="226" y="-21.5" font-family="Helvetica,sans-Serif" font-size="10.00">#</text>
<text text-anchor="start" x="239" y="-21.5" font-family="Helvetica,sans-Serif" font-size="10.00">CalculateNextYValue()</text>
<text text-anchor="start" x="228.5" y="-6.5" font-family="Helvetica,sans-Serif" font-size="10.00">&#45;</text>
<text text-anchor="start" x="239" y="-6.5" font-family="Helvetica,sans-Serif" font-size="10.00">serialize()</text>
<polygon fill="#666666" stroke="#666666" points="222,-61.5 222,-61.5 353,-61.5 353,-61.5 222,-61.5"/>
<polygon fill="#666666" stroke="#666666" points="222,-46.5 222,-46.5 353,-46.5 353,-46.5 222,-46.5"/>
<polygon fill="none" stroke="#666666" points="221.5,0 221.5,-79 352.5,-79 352.5,0 221.5,0"/>
</a>
</g>
</g>
<!-- Node2 -->
<g id="Node000002" class="node">
<title>Node2</title>
<g id="a_Node000002"><a xlink:href="classAbstractOneStepIvpOdeSolver.html" target="_top" xlink:title=" ">
<polygon fill="white" stroke="transparent" points="379,-240 195,-240 195,-116 379,-116 379,-240"/>
<text text-anchor="start" x="213" y="-228" font-family="Helvetica,sans-Serif" font-size="10.00">AbstractOneStepIvpOdeSolver</text>
<text text-anchor="start" x="285" y="-213" font-family="Helvetica,sans-Serif" font-size="10.00"> </text>
<text text-anchor="start" x="199" y="-198" font-family="Helvetica,sans-Serif" font-size="10.00">+</text>
<text text-anchor="start" x="212" y="-198" font-family="Helvetica,sans-Serif" font-size="10.00">Solve()</text>
<text text-anchor="start" x="199" y="-183" font-family="Helvetica,sans-Serif" font-size="10.00">+</text>
<text text-anchor="start" x="212" y="-183" font-family="Helvetica,sans-Serif" font-size="10.00">Solve()</text>
<text text-anchor="start" x="199" y="-168" font-family="Helvetica,sans-Serif" font-size="10.00">+</text>
<text text-anchor="start" x="212" y="-168" font-family="Helvetica,sans-Serif" font-size="10.00">~AbstractOneStepIvpOdeSolver()</text>
<text text-anchor="start" x="199" y="-153" font-family="Helvetica,sans-Serif" font-size="10.00">#</text>
<text text-anchor="start" x="212" y="-153" font-family="Helvetica,sans-Serif" font-size="10.00">InternalSolve()</text>
<text text-anchor="start" x="199" y="-138" font-family="Helvetica,sans-Serif" font-size="10.00">#</text>
<text text-anchor="start" x="212" y="-138" font-family="Helvetica,sans-Serif" font-size="10.00">CalculateNextYValue()</text>
<text text-anchor="start" x="201.5" y="-123" font-family="Helvetica,sans-Serif" font-size="10.00">&#45;</text>
<text text-anchor="start" x="212" y="-123" font-family="Helvetica,sans-Serif" font-size="10.00">serialize()</text>
<polygon fill="#666666" stroke="#666666" points="195,-223 195,-223 379,-223 379,-223 195,-223"/>
<polygon fill="#666666" stroke="#666666" points="195,-208 195,-208 379,-208 379,-208 195,-208"/>
<polygon fill="none" stroke="#666666" points="195,-116 195,-240 379,-240 379,-116 195,-116"/>
</a>
</g>
</g>
<!-- Node2&#45;&gt;Node1 -->
<g id="edge1_Node000001_Node000002" class="edge">
<title>Node2&#45;&gt;Node1</title>
<g id="a_edge1_Node000001_Node000002"><a xlink:title=" ">
<path fill="none" stroke="#63b8ff" d="M287,-105.65C287,-96.54 287,-87.5 287,-79.18"/>
<polygon fill="none" stroke="#63b8ff" points="283.5,-105.94 287,-115.94 290.5,-105.94 283.5,-105.94"/>
</a>
</g>
</g>
<!-- Node3 -->
<g id="Node000003" class="node">
<title>Node3</title>
<g id="a_Node000003"><a xlink:href="classAbstractIvpOdeSolver.html" target="_top" xlink:title=" ">
<polygon fill="white" stroke="transparent" points="297.5,-441 122.5,-441 122.5,-287 297.5,-287 297.5,-441"/>
<text text-anchor="start" x="157.5" y="-429" font-family="Helvetica,sans-Serif" font-size="10.00">AbstractIvpOdeSolver</text>
<text text-anchor="start" x="208.5" y="-414" font-family="Helvetica,sans-Serif" font-size="10.00"> </text>
<text text-anchor="start" x="127" y="-399" font-family="Helvetica,sans-Serif" font-size="10.00">+</text>
<text text-anchor="start" x="140" y="-399" font-family="Helvetica,sans-Serif" font-size="10.00">Solve()</text>
<text text-anchor="start" x="127" y="-384" font-family="Helvetica,sans-Serif" font-size="10.00">+</text>
<text text-anchor="start" x="140" y="-384" font-family="Helvetica,sans-Serif" font-size="10.00">Solve()</text>
<text text-anchor="start" x="127" y="-369" font-family="Helvetica,sans-Serif" font-size="10.00">+</text>
<text text-anchor="start" x="140" y="-369" font-family="Helvetica,sans-Serif" font-size="10.00">SolveAndUpdateStateVariable()</text>
<text text-anchor="start" x="127" y="-354" font-family="Helvetica,sans-Serif" font-size="10.00">+</text>
<text text-anchor="start" x="140" y="-354" font-family="Helvetica,sans-Serif" font-size="10.00">StoppingEventOccurred()</text>
<text text-anchor="start" x="127" y="-339" font-family="Helvetica,sans-Serif" font-size="10.00">+</text>
<text text-anchor="start" x="140" y="-339" font-family="Helvetica,sans-Serif" font-size="10.00">GetStoppingTime()</text>
<text text-anchor="start" x="127" y="-324" font-family="Helvetica,sans-Serif" font-size="10.00">+</text>
<text text-anchor="start" x="140" y="-324" font-family="Helvetica,sans-Serif" font-size="10.00">AbstractIvpOdeSolver()</text>
<text text-anchor="start" x="127" y="-309" font-family="Helvetica,sans-Serif" font-size="10.00">+</text>
<text text-anchor="start" x="140" y="-309" font-family="Helvetica,sans-Serif" font-size="10.00">~AbstractIvpOdeSolver()</text>
<text text-anchor="start" x="129.5" y="-294" font-family="Helvetica,sans-Serif" font-size="10.00">&#45;</text>
<text text-anchor="start" x="140" y="-294" font-family="Helvetica,sans-Serif" font-size="10.00">serialize()</text>
<polygon fill="#666666" stroke="#666666" points="123,-424 123,-424 298,-424 298,-424 123,-424"/>
<polygon fill="#666666" stroke="#666666" points="123,-409 123,-409 298,-409 298,-409 123,-409"/>
<polygon fill="none" stroke="#666666" points="122.5,-287 122.5,-441 297.5,-441 297.5,-287 122.5,-287"/>
</a>
</g>
</g>
<!-- Node3&#45;&gt;Node2 -->
<g id="edge2_Node000002_Node000003" class="edge">
<title>Node3&#45;&gt;Node2</title>
<g id="a_edge2_Node000002_Node000003"><a xlink:title=" ">
<path fill="none" stroke="#63b8ff" d="M245.86,-277.31C251.09,-264.8 256.39,-252.14 261.37,-240.25"/>
<polygon fill="none" stroke="#63b8ff" points="242.51,-276.26 241.87,-286.83 248.96,-278.96 242.51,-276.26"/>
</a>
</g>
</g>
<!-- Node4 -->
<g id="Node000004" class="node">
<title>Node4</title>
<g id="a_Node000004"><a xlink:href="classIdentifiable.html" target="_top" xlink:title=" ">
<polygon fill="white" stroke="transparent" points="176,-567 0,-567 0,-488 176,-488 176,-567"/>
<text text-anchor="start" x="60.5" y="-554.5" font-family="Helvetica,sans-Serif" font-size="10.00">Identifiable</text>
<text text-anchor="start" x="86" y="-539.5" font-family="Helvetica,sans-Serif" font-size="10.00"> </text>
<text text-anchor="start" x="4" y="-524.5" font-family="Helvetica,sans-Serif" font-size="10.00">+</text>
<text text-anchor="start" x="17" y="-524.5" font-family="Helvetica,sans-Serif" font-size="10.00">~Identifiable()</text>
<text text-anchor="start" x="4" y="-509.5" font-family="Helvetica,sans-Serif" font-size="10.00">+</text>
<text text-anchor="start" x="17" y="-509.5" font-family="Helvetica,sans-Serif" font-size="10.00">GetIdentifier()</text>
<text text-anchor="start" x="6.5" y="-494.5" font-family="Helvetica,sans-Serif" font-size="10.00">&#45;</text>
<text text-anchor="start" x="17" y="-494.5" font-family="Helvetica,sans-Serif" font-size="10.00">TidyTemplatedExportIdentifier()</text>
<polygon fill="#666666" stroke="#666666" points="0,-549.5 0,-549.5 176,-549.5 176,-549.5 0,-549.5"/>
<polygon fill="#666666" stroke="#666666" points="0,-534.5 0,-534.5 176,-534.5 176,-534.5 0,-534.5"/>
<polygon fill="none" stroke="#666666" points="0,-488 0,-567 176,-567 176,-488 0,-488"/>
</a>
</g>
</g>
<!-- Node4&#45;&gt;Node3 -->
<g id="edge3_Node000003_Node000004" class="edge">
<title>Node4&#45;&gt;Node3</title>
<g id="a_edge3_Node000003_Node000004"><a xlink:title=" ">
<path fill="none" stroke="#63b8ff" d="M123.39,-479.66C132.52,-467.56 142.6,-454.22 152.55,-441.06"/>
<polygon fill="none" stroke="#63b8ff" points="120.46,-477.73 117.22,-487.82 126.04,-481.95 120.46,-477.73"/>
</a>
</g>
</g>
<!-- Node5 -->
<g id="Node000005" class="node">
<title>Node5</title>
<g id="a_Node000005"><a xlink:href="classbool.html" target="_top" xlink:title=" ">
<polygon fill="white" stroke="transparent" points="226,-552 194,-552 194,-503 226,-503 226,-552"/>
<text text-anchor="start" x="199" y="-539.5" font-family="Helvetica,sans-Serif" font-size="10.00">bool</text>
<text text-anchor="start" x="208" y="-524.5" font-family="Helvetica,sans-Serif" font-size="10.00"> </text>
<text text-anchor="start" x="208" y="-509.5" font-family="Helvetica,sans-Serif" font-size="10.00"> </text>
<polygon fill="#bfbfbf" stroke="#bfbfbf" points="194,-534.5 194,-534.5 226,-534.5 226,-534.5 194,-534.5"/>
<polygon fill="#bfbfbf" stroke="#bfbfbf" points="194,-519.5 194,-519.5 226,-519.5 226,-519.5 194,-519.5"/>
<polygon fill="none" stroke="#bfbfbf" points="194,-503 194,-552 226,-552 226,-503 194,-503"/>
</a>
</g>
</g>
<!-- Node5&#45;&gt;Node3 -->
<g id="edge4_Node000003_Node000005" class="edge">
<title>Node5&#45;&gt;Node3</title>
<g id="a_edge4_Node000003_Node000005"><a xlink:title=" ">
<path fill="none" stroke="#63b8ff" d="M210,-502.67C210,-489.21 210,-471.46 210,-453.19"/>
<polygon fill="none" stroke="#63b8ff" points="210,-453.16 206,-447.16 210,-441.16 214,-447.16 210,-453.16"/>
</a>
</g>
<text text-anchor="middle" x="278" y="-462" font-family="Helvetica,sans-Serif" font-size="10.00" fill="grey"> #mStoppingEventOccurred</text>
</g>
<!-- Node6 -->
<g id="Node000006" class="node">
<title>Node6</title>
<g id="a_Node000006"><a xlink:href="classdouble.html" target="_top" xlink:title=" ">
<polygon fill="white" stroke="transparent" points="391,-552 347,-552 347,-503 391,-503 391,-552"/>
<text text-anchor="start" x="352" y="-539.5" font-family="Helvetica,sans-Serif" font-size="10.00">double</text>
<text text-anchor="start" x="367" y="-524.5" font-family="Helvetica,sans-Serif" font-size="10.00"> </text>
<text text-anchor="start" x="367" y="-509.5" font-family="Helvetica,sans-Serif" font-size="10.00"> </text>
<polygon fill="#bfbfbf" stroke="#bfbfbf" points="347,-534.5 347,-534.5 391,-534.5 391,-534.5 347,-534.5"/>
<polygon fill="#bfbfbf" stroke="#bfbfbf" points="347,-519.5 347,-519.5 391,-519.5 391,-519.5 347,-519.5"/>
<polygon fill="none" stroke="#bfbfbf" points="347,-503 347,-552 391,-552 391,-503 347,-503"/>
</a>
</g>
</g>
<!-- Node6&#45;&gt;Node3 -->
<g id="edge5_Node000003_Node000006" class="edge">
<title>Node6&#45;&gt;Node3</title>
<g id="a_edge5_Node000003_Node000006"><a xlink:title=" ">
<path fill="none" stroke="#63b8ff" d="M366.16,-502.85C363.38,-488.68 357.87,-471.11 347,-459 335.91,-446.65 326.8,-449.59 308.25,-440.88"/>
<polygon fill="none" stroke="#63b8ff" points="308.18,-440.84 301,-441.5 297.64,-435.12 304.82,-434.46 308.18,-440.84"/>
</a>
</g>
<text text-anchor="middle" x="398.5" y="-462" font-family="Helvetica,sans-Serif" font-size="10.00" fill="grey"> #mStoppingTime</text>
</g>
<!-- Node7 -->
<g id="Node000007" class="node">
<title>Node7</title>
<g id="a_Node000007"><a xlink:title=" ">
<polygon fill="white" stroke="transparent" points="412.5,-388.5 315.5,-388.5 315.5,-339.5 412.5,-339.5 412.5,-388.5"/>
<text text-anchor="start" x="321" y="-376" font-family="Helvetica,sans-Serif" font-size="10.00">vector&lt; double &gt;</text>
<text text-anchor="start" x="362.5" y="-361" font-family="Helvetica,sans-Serif" font-size="10.00"> </text>
<text text-anchor="start" x="362.5" y="-346" font-family="Helvetica,sans-Serif" font-size="10.00"> </text>
<polygon fill="#bfbfbf" stroke="#bfbfbf" points="316,-371 316,-371 413,-371 413,-371 316,-371"/>
<polygon fill="#bfbfbf" stroke="#bfbfbf" points="316,-356 316,-356 413,-356 413,-356 316,-356"/>
<polygon fill="none" stroke="#bfbfbf" points="315.5,-339.5 315.5,-388.5 412.5,-388.5 412.5,-339.5 315.5,-339.5"/>
</a>
</g>
</g>
<!-- Node7&#45;&gt;Node2 -->
<g id="edge6_Node000002_Node000007" class="edge">
<title>Node7&#45;&gt;Node2</title>
<g id="a_edge6_Node000002_Node000007"><a xlink:title=" ">
<path fill="none" stroke="#63b8ff" d="M354.09,-339.32C344.79,-317.11 330.4,-282.71 317.33,-251.47"/>
<polygon fill="none" stroke="#63b8ff" points="317.21,-251.2 311.21,-247.21 312.58,-240.13 318.59,-244.12 317.21,-251.2"/>
</a>
</g>
<text text-anchor="middle" x="372.5" y="-261" font-family="Helvetica,sans-Serif" font-size="10.00" fill="grey"> &#45;mWorkingMemory</text>
</g>
</g>
</svg>
