<?xml version="1.0" encoding="UTF-8" standalone="no"?>
<!DOCTYPE svg PUBLIC "-//W3C//DTD SVG 1.1//EN"
 "http://www.w3.org/Graphics/SVG/1.1/DTD/svg11.dtd">
<!-- Generated by graphviz version 2.43.0 (0)
 -->
<!-- Title: AveragedSourceEllipticPde&lt; DIM &gt; Pages: 1 -->
<svg width="291pt" height="1107pt"
 viewBox="0.00 0.00 290.50 1107.00" xmlns="http://www.w3.org/2000/svg" xmlns:xlink="http://www.w3.org/1999/xlink">
<g id="graph0" class="graph" transform="scale(1 1) rotate(0) translate(4 1103)">
<title>AveragedSourceEllipticPde&lt; DIM &gt;</title>
<!-- Node1 -->
<g id="Node000001" class="node">
<title>Node1</title>
<g id="a_Node000001"><a xlink:title=" ">
<polygon fill="#999999" stroke="transparent" points="181,-322 0,-322 0,0 181,0 181,-322"/>
<text text-anchor="start" x="26" y="-310" font-family="Helvetica,sans-Serif" font-size="10.00">AveragedSourceEllipticPde</text>
<text text-anchor="start" x="69.5" y="-299" font-family="Helvetica,sans-Serif" font-size="10.00">&lt; DIM &gt;</text>
<text text-anchor="start" x="4.5" y="-284" font-family="Helvetica,sans-Serif" font-size="10.00">#</text>
<text text-anchor="start" x="17.5" y="-284" font-family="Helvetica,sans-Serif" font-size="10.00">mrCellPopulation</text>
<text text-anchor="start" x="4.5" y="-269" font-family="Helvetica,sans-Serif" font-size="10.00">#</text>
<text text-anchor="start" x="17.5" y="-269" font-family="Helvetica,sans-Serif" font-size="10.00">mConstantSourceCoefficient</text>
<text text-anchor="start" x="4.5" y="-254" font-family="Helvetica,sans-Serif" font-size="10.00">#</text>
<text text-anchor="start" x="17.5" y="-254" font-family="Helvetica,sans-Serif" font-size="10.00">mLinearSourceCoefficient</text>
<text text-anchor="start" x="4.5" y="-239" font-family="Helvetica,sans-Serif" font-size="10.00">#</text>
<text text-anchor="start" x="17.5" y="-239" font-family="Helvetica,sans-Serif" font-size="10.00">mDiffusionCoefficient</text>
<text text-anchor="start" x="4.5" y="-224" font-family="Helvetica,sans-Serif" font-size="10.00">#</text>
<text text-anchor="start" x="17.5" y="-224" font-family="Helvetica,sans-Serif" font-size="10.00">mScaleByCellVolume</text>
<text text-anchor="start" x="4.5" y="-209" font-family="Helvetica,sans-Serif" font-size="10.00">#</text>
<text text-anchor="start" x="17.5" y="-209" font-family="Helvetica,sans-Serif" font-size="10.00">mCellDensityOnCoarseElements</text>
<text text-anchor="start" x="4.5" y="-194" font-family="Helvetica,sans-Serif" font-size="10.00">+</text>
<text text-anchor="start" x="17.5" y="-194" font-family="Helvetica,sans-Serif" font-size="10.00">AveragedSourceEllipticPde()</text>
<text text-anchor="start" x="4.5" y="-179" font-family="Helvetica,sans-Serif" font-size="10.00">+</text>
<text text-anchor="start" x="17.5" y="-179" font-family="Helvetica,sans-Serif" font-size="10.00">rGetCellPopulation()</text>
<text text-anchor="start" x="4.5" y="-164" font-family="Helvetica,sans-Serif" font-size="10.00">+</text>
<text text-anchor="start" x="17.5" y="-164" font-family="Helvetica,sans-Serif" font-size="10.00">GetConstantCoefficient()</text>
<text text-anchor="start" x="4.5" y="-149" font-family="Helvetica,sans-Serif" font-size="10.00">+</text>
<text text-anchor="start" x="17.5" y="-149" font-family="Helvetica,sans-Serif" font-size="10.00">GetLinearCoefficient()</text>
<text text-anchor="start" x="4.5" y="-134" font-family="Helvetica,sans-Serif" font-size="10.00">+</text>
<text text-anchor="start" x="17.5" y="-134" font-family="Helvetica,sans-Serif" font-size="10.00">GetDiffusionCoefficient()</text>
<text text-anchor="start" x="4.5" y="-119" font-family="Helvetica,sans-Serif" font-size="10.00">+</text>
<text text-anchor="start" x="17.5" y="-119" font-family="Helvetica,sans-Serif" font-size="10.00">GetScaleByCellVolume()</text>
<text text-anchor="start" x="4.5" y="-104" font-family="Helvetica,sans-Serif" font-size="10.00">+</text>
<text text-anchor="start" x="17.5" y="-104" font-family="Helvetica,sans-Serif" font-size="10.00">SetupSourceTerms()</text>
<text text-anchor="start" x="4.5" y="-89" font-family="Helvetica,sans-Serif" font-size="10.00">+</text>
<text text-anchor="start" x="17.5" y="-89" font-family="Helvetica,sans-Serif" font-size="10.00">ComputeConstantInUSource</text>
<text text-anchor="start" x="17.5" y="-78" font-family="Helvetica,sans-Serif" font-size="10.00">Term()</text>
<text text-anchor="start" x="4.5" y="-63" font-family="Helvetica,sans-Serif" font-size="10.00">+</text>
<text text-anchor="start" x="17.5" y="-63" font-family="Helvetica,sans-Serif" font-size="10.00">ComputeLinearInUCoeffInSource</text>
<text text-anchor="start" x="17.5" y="-52" font-family="Helvetica,sans-Serif" font-size="10.00">Term()</text>
<text text-anchor="start" x="4.5" y="-37" font-family="Helvetica,sans-Serif" font-size="10.00">+</text>
<text text-anchor="start" x="17.5" y="-37" font-family="Helvetica,sans-Serif" font-size="10.00">ComputeDiffusionTerm()</text>
<text text-anchor="start" x="4.5" y="-22" font-family="Helvetica,sans-Serif" font-size="10.00">+</text>
<text text-anchor="start" x="17.5" y="-22" font-family="Helvetica,sans-Serif" font-size="10.00">GetUptakeRateForElement()</text>
<text text-anchor="start" x="7" y="-7" font-family="Helvetica,sans-Serif" font-size="10.00">&#45;</text>
<text text-anchor="start" x="17.5" y="-7" font-family="Helvetica,sans-Serif" font-size="10.00">serialize()</text>
<polygon fill="#666666" stroke="#666666" points="0.5,-294 0.5,-294 181.5,-294 181.5,-294 0.5,-294"/>
<polygon fill="#666666" stroke="#666666" points="0.5,-204 0.5,-204 15.5,-204 15.5,-204 0.5,-204"/>
<polygon fill="#666666" stroke="#666666" points="15.5,-204 15.5,-204 181.5,-204 181.5,-204 15.5,-204"/>
<polygon fill="none" stroke="#666666" points="0,0 0,-322 181,-322 181,0 0,0"/>
</a>
</g>
</g>
<!-- Node2 -->
<g id="Node000002" class="node">
<title>Node2</title>
<g id="a_Node000002"><a xlink:href="classAbstractLinearEllipticPde.html" target="_top" xlink:title=" ">
<polygon fill="white" stroke="transparent" points="180.5,-568 0.5,-568 0.5,-359 180.5,-359 180.5,-568"/>
<text text-anchor="start" x="29.5" y="-555.5" font-family="Helvetica,sans-Serif" font-size="10.00">AbstractLinearEllipticPde</text>
<text text-anchor="start" x="56.5" y="-544.5" font-family="Helvetica,sans-Serif" font-size="10.00">&lt; DIM, DIM &gt;</text>
<text text-anchor="start" x="88.5" y="-529.5" font-family="Helvetica,sans-Serif" font-size="10.00"> </text>
<text text-anchor="start" x="4.5" y="-514.5" font-family="Helvetica,sans-Serif" font-size="10.00">+</text>
<text text-anchor="start" x="17.5" y="-514.5" font-family="Helvetica,sans-Serif" font-size="10.00">AbstractLinearEllipticPde()</text>
<text text-anchor="start" x="4.5" y="-499.5" font-family="Helvetica,sans-Serif" font-size="10.00">+</text>
<text text-anchor="start" x="17.5" y="-499.5" font-family="Helvetica,sans-Serif" font-size="10.00">~AbstractLinearEllipticPde()</text>
<text text-anchor="start" x="4.5" y="-484.5" font-family="Helvetica,sans-Serif" font-size="10.00">+</text>
<text text-anchor="start" x="17.5" y="-484.5" font-family="Helvetica,sans-Serif" font-size="10.00">ComputeConstantInUSource</text>
<text text-anchor="start" x="17.5" y="-473.5" font-family="Helvetica,sans-Serif" font-size="10.00">Term()</text>
<text text-anchor="start" x="4.5" y="-458.5" font-family="Helvetica,sans-Serif" font-size="10.00">+</text>
<text text-anchor="start" x="17.5" y="-458.5" font-family="Helvetica,sans-Serif" font-size="10.00">ComputeLinearInUCoeffInSource</text>
<text text-anchor="start" x="17.5" y="-447.5" font-family="Helvetica,sans-Serif" font-size="10.00">Term()</text>
<text text-anchor="start" x="4.5" y="-432.5" font-family="Helvetica,sans-Serif" font-size="10.00">+</text>
<text text-anchor="start" x="17.5" y="-432.5" font-family="Helvetica,sans-Serif" font-size="10.00">ComputeDiffusionTerm()</text>
<text text-anchor="start" x="4.5" y="-417.5" font-family="Helvetica,sans-Serif" font-size="10.00">+</text>
<text text-anchor="start" x="17.5" y="-417.5" font-family="Helvetica,sans-Serif" font-size="10.00">ComputeConstantInUSource</text>
<text text-anchor="start" x="17.5" y="-406.5" font-family="Helvetica,sans-Serif" font-size="10.00">TermAtNode()</text>
<text text-anchor="start" x="4.5" y="-391.5" font-family="Helvetica,sans-Serif" font-size="10.00">+</text>
<text text-anchor="start" x="17.5" y="-391.5" font-family="Helvetica,sans-Serif" font-size="10.00">ComputeLinearInUCoeffInSource</text>
<text text-anchor="start" x="17.5" y="-380.5" font-family="Helvetica,sans-Serif" font-size="10.00">TermAtNode()</text>
<text text-anchor="start" x="7" y="-365.5" font-family="Helvetica,sans-Serif" font-size="10.00">&#45;</text>
<text text-anchor="start" x="17.5" y="-365.5" font-family="Helvetica,sans-Serif" font-size="10.00">serialize()</text>
<polygon fill="#666666" stroke="#666666" points="0.5,-539.5 0.5,-539.5 180.5,-539.5 180.5,-539.5 0.5,-539.5"/>
<polygon fill="#666666" stroke="#666666" points="0.5,-524.5 0.5,-524.5 180.5,-524.5 180.5,-524.5 0.5,-524.5"/>
<polygon fill="none" stroke="#666666" points="0.5,-359 0.5,-568 180.5,-568 180.5,-359 0.5,-359"/>
</a>
</g>
</g>
<!-- Node2&#45;&gt;Node1 -->
<g id="edge1_Node000001_Node000002" class="edge">
<title>Node2&#45;&gt;Node1</title>
<g id="a_edge1_Node000001_Node000002"><a xlink:title=" ">
<path fill="none" stroke="#63b8ff" d="M90.5,-348.55C90.5,-339.86 90.5,-331 90.5,-322.09"/>
<polygon fill="none" stroke="#63b8ff" points="87,-348.66 90.5,-358.66 94,-348.66 87,-348.66"/>
</a>
</g>
</g>
<!-- Node3 -->
<g id="Node000003" class="node">
<title>Node3</title>
<g id="a_Node000003"><a xlink:href="classAbstractLinearPde.html" target="_top" xlink:title=" ">
<polygon fill="white" stroke="transparent" points="165,-951 8,-951 8,-861 165,-861 165,-951"/>
<text text-anchor="start" x="13.5" y="-939" font-family="Helvetica,sans-Serif" font-size="10.00">AbstractLinearPde&lt;</text>
<text text-anchor="start" x="13.5" y="-928" font-family="Helvetica,sans-Serif" font-size="10.00"> ELEMENT_DIM, SPACE_DIM &gt;</text>
<text text-anchor="start" x="85" y="-913" font-family="Helvetica,sans-Serif" font-size="10.00"> </text>
<text text-anchor="start" x="20" y="-898" font-family="Helvetica,sans-Serif" font-size="10.00">+</text>
<text text-anchor="start" x="40.5" y="-898" font-family="Helvetica,sans-Serif" font-size="10.00">AbstractLinearPde()</text>
<text text-anchor="start" x="20" y="-883" font-family="Helvetica,sans-Serif" font-size="10.00">+</text>
<text text-anchor="start" x="40.5" y="-883" font-family="Helvetica,sans-Serif" font-size="10.00">~AbstractLinearPde()</text>
<text text-anchor="start" x="22.5" y="-868" font-family="Helvetica,sans-Serif" font-size="10.00">&#45;</text>
<text text-anchor="start" x="40.5" y="-868" font-family="Helvetica,sans-Serif" font-size="10.00">serialize()</text>
<polygon fill="#666666" stroke="#666666" points="8.5,-923 8.5,-923 165.5,-923 165.5,-923 8.5,-923"/>
<polygon fill="#666666" stroke="#666666" points="8.5,-908 8.5,-908 165.5,-908 165.5,-908 8.5,-908"/>
<polygon fill="none" stroke="#666666" points="8,-861 8,-951 165,-951 165,-861 8,-861"/>
</a>
</g>
</g>
<!-- Node3&#45;&gt;Node2 -->
<g id="edge2_Node000002_Node000003" class="edge">
<title>Node3&#45;&gt;Node2</title>
<g id="a_edge2_Node000002_Node000003"><a xlink:title=" ">
<path fill="none" stroke="#63b8ff" d="M87,-850.36C87.63,-780.13 88.75,-656.74 89.56,-568.39"/>
<polygon fill="none" stroke="#63b8ff" points="83.49,-850.71 86.9,-860.75 90.49,-850.78 83.49,-850.71"/>
</a>
</g>
</g>
<!-- Node5 -->
<g id="Node000005" class="node">
<title>Node5</title>
<g id="a_Node000005"><a xlink:href="classAbstractLinearEllipticPde.html" target="_top" xlink:title=" ">
<polygon fill="white" stroke="transparent" points="282.5,-824 102.5,-824 102.5,-615 282.5,-615 282.5,-824"/>
<text text-anchor="start" x="115" y="-811.5" font-family="Helvetica,sans-Serif" font-size="10.00">AbstractLinearEllipticPde</text>
<text text-anchor="start" x="115" y="-800.5" font-family="Helvetica,sans-Serif" font-size="10.00">&lt; ELEMENT_DIM, SPACE_DIM &gt;</text>
<text text-anchor="start" x="190.5" y="-785.5" font-family="Helvetica,sans-Serif" font-size="10.00"> </text>
<text text-anchor="start" x="106.5" y="-770.5" font-family="Helvetica,sans-Serif" font-size="10.00">+</text>
<text text-anchor="start" x="119.5" y="-770.5" font-family="Helvetica,sans-Serif" font-size="10.00">AbstractLinearEllipticPde()</text>
<text text-anchor="start" x="106.5" y="-755.5" font-family="Helvetica,sans-Serif" font-size="10.00">+</text>
<text text-anchor="start" x="119.5" y="-755.5" font-family="Helvetica,sans-Serif" font-size="10.00">~AbstractLinearEllipticPde()</text>
<text text-anchor="start" x="106.5" y="-740.5" font-family="Helvetica,sans-Serif" font-size="10.00">+</text>
<text text-anchor="start" x="119.5" y="-740.5" font-family="Helvetica,sans-Serif" font-size="10.00">ComputeConstantInUSource</text>
<text text-anchor="start" x="119.5" y="-729.5" font-family="Helvetica,sans-Serif" font-size="10.00">Term()</text>
<text text-anchor="start" x="106.5" y="-714.5" font-family="Helvetica,sans-Serif" font-size="10.00">+</text>
<text text-anchor="start" x="119.5" y="-714.5" font-family="Helvetica,sans-Serif" font-size="10.00">ComputeLinearInUCoeffInSource</text>
<text text-anchor="start" x="119.5" y="-703.5" font-family="Helvetica,sans-Serif" font-size="10.00">Term()</text>
<text text-anchor="start" x="106.5" y="-688.5" font-family="Helvetica,sans-Serif" font-size="10.00">+</text>
<text text-anchor="start" x="119.5" y="-688.5" font-family="Helvetica,sans-Serif" font-size="10.00">ComputeDiffusionTerm()</text>
<text text-anchor="start" x="106.5" y="-673.5" font-family="Helvetica,sans-Serif" font-size="10.00">+</text>
<text text-anchor="start" x="119.5" y="-673.5" font-family="Helvetica,sans-Serif" font-size="10.00">ComputeConstantInUSource</text>
<text text-anchor="start" x="119.5" y="-662.5" font-family="Helvetica,sans-Serif" font-size="10.00">TermAtNode()</text>
<text text-anchor="start" x="106.5" y="-647.5" font-family="Helvetica,sans-Serif" font-size="10.00">+</text>
<text text-anchor="start" x="119.5" y="-647.5" font-family="Helvetica,sans-Serif" font-size="10.00">ComputeLinearInUCoeffInSource</text>
<text text-anchor="start" x="119.5" y="-636.5" font-family="Helvetica,sans-Serif" font-size="10.00">TermAtNode()</text>
<text text-anchor="start" x="109" y="-621.5" font-family="Helvetica,sans-Serif" font-size="10.00">&#45;</text>
<text text-anchor="start" x="119.5" y="-621.5" font-family="Helvetica,sans-Serif" font-size="10.00">serialize()</text>
<polygon fill="#666666" stroke="#666666" points="102.5,-795.5 102.5,-795.5 282.5,-795.5 282.5,-795.5 102.5,-795.5"/>
<polygon fill="#666666" stroke="#666666" points="102.5,-780.5 102.5,-780.5 282.5,-780.5 282.5,-780.5 102.5,-780.5"/>
<polygon fill="none" stroke="#666666" points="102.5,-615 102.5,-824 282.5,-824 282.5,-615 102.5,-615"/>
</a>
</g>
</g>
<!-- Node3&#45;&gt;Node5 -->
<g id="edge5_Node000005_Node000003" class="edge">
<title>Node3&#45;&gt;Node5</title>
<g id="a_edge5_Node000005_Node000003"><a xlink:title=" ">
<path fill="none" stroke="#63b8ff" d="M117,-851.91C122.04,-843.15 127.4,-833.81 132.86,-824.31"/>
<polygon fill="none" stroke="#63b8ff" points="113.84,-850.39 111.89,-860.81 119.91,-853.88 113.84,-850.39"/>
</a>
</g>
</g>
<!-- Node4 -->
<g id="Node000004" class="node">
<title>Node4</title>
<g id="a_Node000004"><a xlink:href="classAbstractLinearPde.html" target="_top" xlink:title=" ">
<polygon fill="white" stroke="transparent" points="165,-1099 8,-1099 8,-1009 165,-1009 165,-1099"/>
<text text-anchor="start" x="13.5" y="-1087" font-family="Helvetica,sans-Serif" font-size="10.00">AbstractLinearPde&lt;</text>
<text text-anchor="start" x="13.5" y="-1076" font-family="Helvetica,sans-Serif" font-size="10.00"> ELEMENT_DIM, SPACE_DIM &gt;</text>
<text text-anchor="start" x="85" y="-1061" font-family="Helvetica,sans-Serif" font-size="10.00"> </text>
<text text-anchor="start" x="20" y="-1046" font-family="Helvetica,sans-Serif" font-size="10.00">+</text>
<text text-anchor="start" x="40.5" y="-1046" font-family="Helvetica,sans-Serif" font-size="10.00">AbstractLinearPde()</text>
<text text-anchor="start" x="20" y="-1031" font-family="Helvetica,sans-Serif" font-size="10.00">+</text>
<text text-anchor="start" x="40.5" y="-1031" font-family="Helvetica,sans-Serif" font-size="10.00">~AbstractLinearPde()</text>
<text text-anchor="start" x="22.5" y="-1016" font-family="Helvetica,sans-Serif" font-size="10.00">&#45;</text>
<text text-anchor="start" x="40.5" y="-1016" font-family="Helvetica,sans-Serif" font-size="10.00">serialize()</text>
<polygon fill="#666666" stroke="#666666" points="8.5,-1071 8.5,-1071 165.5,-1071 165.5,-1071 8.5,-1071"/>
<polygon fill="#666666" stroke="#666666" points="8.5,-1056 8.5,-1056 165.5,-1056 165.5,-1056 8.5,-1056"/>
<polygon fill="none" stroke="#666666" points="8,-1009 8,-1099 165,-1099 165,-1009 8,-1009"/>
</a>
</g>
</g>
<!-- Node4&#45;&gt;Node3 -->
<g id="edge3_Node000003_Node000004" class="edge">
<title>Node4&#45;&gt;Node3</title>
<g id="a_edge3_Node000003_Node000004"><a xlink:title=" ">
<path fill="none" stroke="orange" d="M86.5,-998.69C86.5,-982.99 86.5,-966.05 86.5,-951.05"/>
<polygon fill="orange" stroke="orange" points="83,-998.8 86.5,-1008.8 90,-998.8 83,-998.8"/>
</a>
</g>
<text text-anchor="start" x="86.5" y="-983" font-family="Helvetica,sans-Serif" font-size="10.00" fill="grey"> &lt; ELEMENT_DIM, SPACE</text>
<text text-anchor="middle" x="147.5" y="-972" font-family="Helvetica,sans-Serif" font-size="10.00" fill="grey">_DIM &gt;</text>
</g>
<!-- Node5&#45;&gt;Node2 -->
<g id="edge4_Node000002_Node000005" class="edge">
<title>Node5&#45;&gt;Node2</title>
<g id="a_edge4_Node000002_Node000005"><a xlink:title=" ">
<path fill="none" stroke="orange" d="M147.09,-605.41C142.12,-593.04 137.08,-580.5 132.17,-568.26"/>
<polygon fill="orange" stroke="orange" points="143.89,-606.85 150.87,-614.82 150.39,-604.24 143.89,-606.85"/>
</a>
</g>
<text text-anchor="middle" x="177" y="-589" font-family="Helvetica,sans-Serif" font-size="10.00" fill="grey"> &lt; DIM, DIM &gt;</text>
</g>
</g>
</svg>
