<?xml version="1.0" encoding="UTF-8" standalone="no"?>
<!DOCTYPE svg PUBLIC "-//W3C//DTD SVG 1.1//EN"
 "http://www.w3.org/Graphics/SVG/1.1/DTD/svg11.dtd">
<!-- Generated by graphviz version 2.43.0 (0)
 -->
<!-- Title: AbstractChasteRegion&lt; SPACE_DIM &gt; Pages: 1 -->
<svg width="426pt" height="329pt"
 viewBox="0.00 0.00 426.00 329.00" xmlns="http://www.w3.org/2000/svg" xmlns:xlink="http://www.w3.org/1999/xlink">
<g id="graph0" class="graph" transform="scale(1 1) rotate(0) translate(4 325)">
<title>AbstractChasteRegion&lt; SPACE_DIM &gt;</title>
<!-- Node1 -->
<g id="Node000001" class="node">
<title>Node1</title>
<g id="a_Node000001"><a xlink:title=" ">
<polygon fill="#999999" stroke="transparent" points="274.5,-321 129.5,-321 129.5,-201 274.5,-201 274.5,-321"/>
<text text-anchor="start" x="148" y="-309" font-family="Helvetica,sans-Serif" font-size="10.00">AbstractChasteRegion</text>
<text text-anchor="start" x="163" y="-298" font-family="Helvetica,sans-Serif" font-size="10.00">&lt; SPACE_DIM &gt;</text>
<text text-anchor="start" x="200.5" y="-283" font-family="Helvetica,sans-Serif" font-size="10.00"> </text>
<text text-anchor="start" x="134" y="-268" font-family="Helvetica,sans-Serif" font-size="10.00">+</text>
<text text-anchor="start" x="147" y="-268" font-family="Helvetica,sans-Serif" font-size="10.00">AbstractChasteRegion()</text>
<text text-anchor="start" x="134" y="-253" font-family="Helvetica,sans-Serif" font-size="10.00">+</text>
<text text-anchor="start" x="147" y="-253" font-family="Helvetica,sans-Serif" font-size="10.00">Destroy()</text>
<text text-anchor="start" x="134" y="-238" font-family="Helvetica,sans-Serif" font-size="10.00">+</text>
<text text-anchor="start" x="147" y="-238" font-family="Helvetica,sans-Serif" font-size="10.00">~AbstractChasteRegion()</text>
<text text-anchor="start" x="134" y="-223" font-family="Helvetica,sans-Serif" font-size="10.00">+</text>
<text text-anchor="start" x="147" y="-223" font-family="Helvetica,sans-Serif" font-size="10.00">DoesContain()</text>
<text text-anchor="start" x="136.5" y="-208" font-family="Helvetica,sans-Serif" font-size="10.00">&#45;</text>
<text text-anchor="start" x="147" y="-208" font-family="Helvetica,sans-Serif" font-size="10.00">serialize()</text>
<polygon fill="#666666" stroke="#666666" points="130,-293 130,-293 275,-293 275,-293 130,-293"/>
<polygon fill="#666666" stroke="#666666" points="130,-278 130,-278 275,-278 275,-278 130,-278"/>
<polygon fill="none" stroke="#666666" points="129.5,-201 129.5,-321 274.5,-321 274.5,-201 129.5,-201"/>
</a>
</g>
</g>
<!-- Node2 -->
<g id="Node000002" class="node">
<title>Node2</title>
<g id="a_Node000002"><a xlink:href="classChasteCuboid.html" target="_top" xlink:title=" ">
<polygon fill="white" stroke="transparent" points="120,-165 0,-165 0,0 120,0 120,-165"/>
<text text-anchor="start" x="5" y="-152.5" font-family="Helvetica,sans-Serif" font-size="10.00">ChasteCuboid&lt; SPACE</text>
<text text-anchor="start" x="41.5" y="-141.5" font-family="Helvetica,sans-Serif" font-size="10.00">_DIM &gt;</text>
<text text-anchor="start" x="8.5" y="-126.5" font-family="Helvetica,sans-Serif" font-size="10.00">&#45;</text>
<text text-anchor="start" x="21" y="-126.5" font-family="Helvetica,sans-Serif" font-size="10.00">mLowerCorner</text>
<text text-anchor="start" x="8.5" y="-111.5" font-family="Helvetica,sans-Serif" font-size="10.00">&#45;</text>
<text text-anchor="start" x="21" y="-111.5" font-family="Helvetica,sans-Serif" font-size="10.00">mUpperCorner</text>
<text text-anchor="start" x="6" y="-96.5" font-family="Helvetica,sans-Serif" font-size="10.00">+</text>
<text text-anchor="start" x="21" y="-96.5" font-family="Helvetica,sans-Serif" font-size="10.00">ChasteCuboid()</text>
<text text-anchor="start" x="6" y="-81.5" font-family="Helvetica,sans-Serif" font-size="10.00">+</text>
<text text-anchor="start" x="21" y="-81.5" font-family="Helvetica,sans-Serif" font-size="10.00">DoesContain()</text>
<text text-anchor="start" x="6" y="-66.5" font-family="Helvetica,sans-Serif" font-size="10.00">+</text>
<text text-anchor="start" x="21" y="-66.5" font-family="Helvetica,sans-Serif" font-size="10.00">rGetUpperCorner()</text>
<text text-anchor="start" x="6" y="-51.5" font-family="Helvetica,sans-Serif" font-size="10.00">+</text>
<text text-anchor="start" x="21" y="-51.5" font-family="Helvetica,sans-Serif" font-size="10.00">rGetLowerCorner()</text>
<text text-anchor="start" x="6" y="-36.5" font-family="Helvetica,sans-Serif" font-size="10.00">+</text>
<text text-anchor="start" x="21" y="-36.5" font-family="Helvetica,sans-Serif" font-size="10.00">GetWidth()</text>
<text text-anchor="start" x="6" y="-21.5" font-family="Helvetica,sans-Serif" font-size="10.00">+</text>
<text text-anchor="start" x="21" y="-21.5" font-family="Helvetica,sans-Serif" font-size="10.00">GetLongestAxis()</text>
<text text-anchor="start" x="8.5" y="-6.5" font-family="Helvetica,sans-Serif" font-size="10.00">&#45;</text>
<text text-anchor="start" x="21" y="-6.5" font-family="Helvetica,sans-Serif" font-size="10.00">serialize()</text>
<polygon fill="#666666" stroke="#666666" points="0,-136.5 0,-136.5 120,-136.5 120,-136.5 0,-136.5"/>
<polygon fill="#666666" stroke="#666666" points="0,-106.5 0,-106.5 19,-106.5 19,-106.5 0,-106.5"/>
<polygon fill="#666666" stroke="#666666" points="19,-106.5 19,-106.5 120,-106.5 120,-106.5 19,-106.5"/>
<polygon fill="none" stroke="#666666" points="0,0 0,-165 120,-165 120,0 0,0"/>
</a>
</g>
</g>
<!-- Node1&#45;&gt;Node2 -->
<g id="edge1_Node000001_Node000002" class="edge">
<title>Node1&#45;&gt;Node2</title>
<g id="a_edge1_Node000001_Node000002"><a xlink:title=" ">
<path fill="none" stroke="#63b8ff" d="M147.81,-192.65C138.77,-181.41 129.34,-169.69 120.16,-158.28"/>
<polygon fill="none" stroke="#63b8ff" points="145.33,-195.14 154.32,-200.74 150.78,-190.75 145.33,-195.14"/>
</a>
</g>
</g>
<!-- Node3 -->
<g id="Node000003" class="node">
<title>Node3</title>
<g id="a_Node000003"><a xlink:href="classChasteEllipsoid.html" target="_top" xlink:title=" ">
<polygon fill="white" stroke="transparent" points="266,-150 138,-150 138,-15 266,-15 266,-150"/>
<text text-anchor="start" x="143" y="-137.5" font-family="Helvetica,sans-Serif" font-size="10.00">ChasteEllipsoid&lt; SPACE</text>
<text text-anchor="start" x="183.5" y="-126.5" font-family="Helvetica,sans-Serif" font-size="10.00">_DIM &gt;</text>
<text text-anchor="start" x="150.5" y="-111.5" font-family="Helvetica,sans-Serif" font-size="10.00">&#45;</text>
<text text-anchor="start" x="167" y="-111.5" font-family="Helvetica,sans-Serif" font-size="10.00">mCentre</text>
<text text-anchor="start" x="150.5" y="-96.5" font-family="Helvetica,sans-Serif" font-size="10.00">&#45;</text>
<text text-anchor="start" x="167" y="-96.5" font-family="Helvetica,sans-Serif" font-size="10.00">mRadii</text>
<text text-anchor="start" x="148" y="-81.5" font-family="Helvetica,sans-Serif" font-size="10.00">+</text>
<text text-anchor="start" x="167" y="-81.5" font-family="Helvetica,sans-Serif" font-size="10.00">ChasteEllipsoid()</text>
<text text-anchor="start" x="148" y="-66.5" font-family="Helvetica,sans-Serif" font-size="10.00">+</text>
<text text-anchor="start" x="167" y="-66.5" font-family="Helvetica,sans-Serif" font-size="10.00">DoesContain()</text>
<text text-anchor="start" x="148" y="-51.5" font-family="Helvetica,sans-Serif" font-size="10.00">+</text>
<text text-anchor="start" x="167" y="-51.5" font-family="Helvetica,sans-Serif" font-size="10.00">rGetCentre()</text>
<text text-anchor="start" x="148" y="-36.5" font-family="Helvetica,sans-Serif" font-size="10.00">+</text>
<text text-anchor="start" x="167" y="-36.5" font-family="Helvetica,sans-Serif" font-size="10.00">rGetRadii()</text>
<text text-anchor="start" x="150.5" y="-21.5" font-family="Helvetica,sans-Serif" font-size="10.00">&#45;</text>
<text text-anchor="start" x="167" y="-21.5" font-family="Helvetica,sans-Serif" font-size="10.00">serialize()</text>
<polygon fill="#666666" stroke="#666666" points="138,-121.5 138,-121.5 266,-121.5 266,-121.5 138,-121.5"/>
<polygon fill="#666666" stroke="#666666" points="138,-91.5 138,-91.5 165,-91.5 165,-91.5 138,-91.5"/>
<polygon fill="#666666" stroke="#666666" points="165,-91.5 165,-91.5 266,-91.5 266,-91.5 165,-91.5"/>
<polygon fill="none" stroke="#666666" points="138,-15 138,-150 266,-150 266,-15 138,-15"/>
</a>
</g>
</g>
<!-- Node1&#45;&gt;Node3 -->
<g id="edge2_Node000001_Node000003" class="edge">
<title>Node1&#45;&gt;Node3</title>
<g id="a_edge2_Node000001_Node000003"><a xlink:title=" ">
<path fill="none" stroke="#63b8ff" d="M202,-190.69C202,-177.37 202,-163.45 202,-150.21"/>
<polygon fill="none" stroke="#63b8ff" points="198.5,-190.74 202,-200.74 205.5,-190.74 198.5,-190.74"/>
</a>
</g>
</g>
<!-- Node4 -->
<g id="Node000004" class="node">
<title>Node4</title>
<g id="a_Node000004"><a xlink:href="classChasteNodesList.html" target="_top" xlink:title=" ">
<polygon fill="white" stroke="transparent" points="418,-157.5 284,-157.5 284,-7.5 418,-7.5 418,-157.5"/>
<text text-anchor="start" x="289" y="-145.5" font-family="Helvetica,sans-Serif" font-size="10.00">ChasteNodesList&lt; SPACE</text>
<text text-anchor="start" x="332.5" y="-134.5" font-family="Helvetica,sans-Serif" font-size="10.00">_DIM &gt;</text>
<text text-anchor="start" x="294" y="-119.5" font-family="Helvetica,sans-Serif" font-size="10.00">&#45;</text>
<text text-anchor="start" x="308" y="-119.5" font-family="Helvetica,sans-Serif" font-size="10.00">mListOfNodes</text>
<text text-anchor="start" x="294" y="-104.5" font-family="Helvetica,sans-Serif" font-size="10.00">&#45;</text>
<text text-anchor="start" x="308" y="-104.5" font-family="Helvetica,sans-Serif" font-size="10.00">mOwnNodes</text>
<text text-anchor="start" x="291.5" y="-89.5" font-family="Helvetica,sans-Serif" font-size="10.00">+</text>
<text text-anchor="start" x="308" y="-89.5" font-family="Helvetica,sans-Serif" font-size="10.00">ChasteNodesList()</text>
<text text-anchor="start" x="291.5" y="-74.5" font-family="Helvetica,sans-Serif" font-size="10.00">+</text>
<text text-anchor="start" x="308" y="-74.5" font-family="Helvetica,sans-Serif" font-size="10.00">~ChasteNodesList()</text>
<text text-anchor="start" x="291.5" y="-59.5" font-family="Helvetica,sans-Serif" font-size="10.00">+</text>
<text text-anchor="start" x="308" y="-59.5" font-family="Helvetica,sans-Serif" font-size="10.00">rGetNodesList()</text>
<text text-anchor="start" x="291.5" y="-44.5" font-family="Helvetica,sans-Serif" font-size="10.00">+</text>
<text text-anchor="start" x="308" y="-44.5" font-family="Helvetica,sans-Serif" font-size="10.00">DoesContain()</text>
<text text-anchor="start" x="291.5" y="-29.5" font-family="Helvetica,sans-Serif" font-size="10.00">+</text>
<text text-anchor="start" x="308" y="-29.5" font-family="Helvetica,sans-Serif" font-size="10.00">GetSize()</text>
<text text-anchor="start" x="294" y="-14.5" font-family="Helvetica,sans-Serif" font-size="10.00">&#45;</text>
<text text-anchor="start" x="308" y="-14.5" font-family="Helvetica,sans-Serif" font-size="10.00">serialize()</text>
<polygon fill="#666666" stroke="#666666" points="284,-129.5 284,-129.5 418,-129.5 418,-129.5 284,-129.5"/>
<polygon fill="#666666" stroke="#666666" points="284,-99.5 284,-99.5 306,-99.5 306,-99.5 284,-99.5"/>
<polygon fill="#666666" stroke="#666666" points="306,-99.5 306,-99.5 418,-99.5 418,-99.5 306,-99.5"/>
<polygon fill="none" stroke="#666666" points="284,-7.5 284,-157.5 418,-157.5 418,-7.5 284,-7.5"/>
</a>
</g>
</g>
<!-- Node1&#45;&gt;Node4 -->
<g id="edge3_Node000001_Node000004" class="edge">
<title>Node1&#45;&gt;Node4</title>
<g id="a_edge3_Node000001_Node000004"><a xlink:title=" ">
<path fill="none" stroke="#63b8ff" d="M258.68,-192.86C268.39,-181.35 278.54,-169.33 288.4,-157.65"/>
<polygon fill="none" stroke="#63b8ff" points="255.81,-190.84 252.03,-200.74 261.15,-195.35 255.81,-190.84"/>
</a>
</g>
</g>
</g>
</svg>
