<?xml version="1.0" encoding="UTF-8" standalone="no"?>
<!DOCTYPE svg PUBLIC "-//W3C//DTD SVG 1.1//EN"
 "http://www.w3.org/Graphics/SVG/1.1/DTD/svg11.dtd">
<!-- Generated by graphviz version 2.43.0 (0)
 -->
<!-- Title: VertexMeshReader&lt; ELEMENT_DIM, SPACE_DIM &gt; Pages: 1 -->
<svg width="682pt" height="635pt"
 viewBox="0.00 0.00 682.00 635.00" xmlns="http://www.w3.org/2000/svg" xmlns:xlink="http://www.w3.org/1999/xlink">
<g id="graph0" class="graph" transform="scale(1 1) rotate(0) translate(4 631)">
<title>VertexMeshReader&lt; ELEMENT_DIM, SPACE_DIM &gt;</title>
<!-- Node1 -->
<g id="Node000001" class="node">
<title>Node1</title>
<g id="a_Node000001"><a xlink:title=" ">
<polygon fill="#999999" stroke="transparent" points="430.5,-315 247.5,-315 247.5,0 430.5,0 430.5,-315"/>
<text text-anchor="start" x="264.5" y="-302.5" font-family="Helvetica,sans-Serif" font-size="10.00">VertexMeshReader&lt; ELEMENT</text>
<text text-anchor="start" x="290.5" y="-291.5" font-family="Helvetica,sans-Serif" font-size="10.00">_DIM, SPACE_DIM &gt;</text>
<text text-anchor="start" x="337.5" y="-276.5" font-family="Helvetica,sans-Serif" font-size="10.00"> </text>
<text text-anchor="start" x="252" y="-261.5" font-family="Helvetica,sans-Serif" font-size="10.00">+</text>
<text text-anchor="start" x="265" y="-261.5" font-family="Helvetica,sans-Serif" font-size="10.00">VertexMeshReader()</text>
<text text-anchor="start" x="252" y="-246.5" font-family="Helvetica,sans-Serif" font-size="10.00">+</text>
<text text-anchor="start" x="265" y="-246.5" font-family="Helvetica,sans-Serif" font-size="10.00">~VertexMeshReader()</text>
<text text-anchor="start" x="252" y="-231.5" font-family="Helvetica,sans-Serif" font-size="10.00">+</text>
<text text-anchor="start" x="265" y="-231.5" font-family="Helvetica,sans-Serif" font-size="10.00">GetNumElements()</text>
<text text-anchor="start" x="252" y="-216.5" font-family="Helvetica,sans-Serif" font-size="10.00">+</text>
<text text-anchor="start" x="265" y="-216.5" font-family="Helvetica,sans-Serif" font-size="10.00">GetNumNodes()</text>
<text text-anchor="start" x="252" y="-201.5" font-family="Helvetica,sans-Serif" font-size="10.00">+</text>
<text text-anchor="start" x="265" y="-201.5" font-family="Helvetica,sans-Serif" font-size="10.00">GetNumElementAttributes()</text>
<text text-anchor="start" x="252" y="-186.5" font-family="Helvetica,sans-Serif" font-size="10.00">+</text>
<text text-anchor="start" x="265" y="-186.5" font-family="Helvetica,sans-Serif" font-size="10.00">GetNumFaces()</text>
<text text-anchor="start" x="252" y="-171.5" font-family="Helvetica,sans-Serif" font-size="10.00">+</text>
<text text-anchor="start" x="265" y="-171.5" font-family="Helvetica,sans-Serif" font-size="10.00">GetNextFaceData()</text>
<text text-anchor="start" x="252" y="-156.5" font-family="Helvetica,sans-Serif" font-size="10.00">+</text>
<text text-anchor="start" x="265" y="-156.5" font-family="Helvetica,sans-Serif" font-size="10.00">GetNumEdges()</text>
<text text-anchor="start" x="252" y="-141.5" font-family="Helvetica,sans-Serif" font-size="10.00">+</text>
<text text-anchor="start" x="265" y="-141.5" font-family="Helvetica,sans-Serif" font-size="10.00">Reset()</text>
<text text-anchor="start" x="252" y="-126.5" font-family="Helvetica,sans-Serif" font-size="10.00">+</text>
<text text-anchor="start" x="265" y="-126.5" font-family="Helvetica,sans-Serif" font-size="10.00">GetNextNode()</text>
<text text-anchor="start" x="252" y="-111.5" font-family="Helvetica,sans-Serif" font-size="10.00">+</text>
<text text-anchor="start" x="265" y="-111.5" font-family="Helvetica,sans-Serif" font-size="10.00">GetNextElementData()</text>
<text text-anchor="start" x="252" y="-96.5" font-family="Helvetica,sans-Serif" font-size="10.00">+</text>
<text text-anchor="start" x="265" y="-96.5" font-family="Helvetica,sans-Serif" font-size="10.00">GetNextElementDataWithFaces()</text>
<text text-anchor="start" x="254.5" y="-81.5" font-family="Helvetica,sans-Serif" font-size="10.00">&#45;</text>
<text text-anchor="start" x="265" y="-81.5" font-family="Helvetica,sans-Serif" font-size="10.00">OpenFiles()</text>
<text text-anchor="start" x="254.5" y="-66.5" font-family="Helvetica,sans-Serif" font-size="10.00">&#45;</text>
<text text-anchor="start" x="265" y="-66.5" font-family="Helvetica,sans-Serif" font-size="10.00">OpenNodeFile()</text>
<text text-anchor="start" x="254.5" y="-51.5" font-family="Helvetica,sans-Serif" font-size="10.00">&#45;</text>
<text text-anchor="start" x="265" y="-51.5" font-family="Helvetica,sans-Serif" font-size="10.00">OpenElementsFile()</text>
<text text-anchor="start" x="254.5" y="-36.5" font-family="Helvetica,sans-Serif" font-size="10.00">&#45;</text>
<text text-anchor="start" x="265" y="-36.5" font-family="Helvetica,sans-Serif" font-size="10.00">ReadHeaders()</text>
<text text-anchor="start" x="254.5" y="-21.5" font-family="Helvetica,sans-Serif" font-size="10.00">&#45;</text>
<text text-anchor="start" x="265" y="-21.5" font-family="Helvetica,sans-Serif" font-size="10.00">CloseFiles()</text>
<text text-anchor="start" x="254.5" y="-6.5" font-family="Helvetica,sans-Serif" font-size="10.00">&#45;</text>
<text text-anchor="start" x="265" y="-6.5" font-family="Helvetica,sans-Serif" font-size="10.00">GetNextLineFromStream()</text>
<polygon fill="#666666" stroke="#666666" points="248,-286.5 248,-286.5 431,-286.5 431,-286.5 248,-286.5"/>
<polygon fill="#666666" stroke="#666666" points="248,-271.5 248,-271.5 431,-271.5 431,-271.5 248,-271.5"/>
<polygon fill="none" stroke="#666666" points="247.5,0 247.5,-315 430.5,-315 430.5,0 247.5,0"/>
</a>
</g>
</g>
<!-- Node2 -->
<g id="Node000002" class="node">
<title>Node2</title>
<g id="a_Node000002"><a xlink:href="classAbstractMeshReader.html" target="_top" xlink:title=" ">
<polygon fill="white" stroke="transparent" points="186,-627 0,-627 0,-417 186,-417 186,-627"/>
<text text-anchor="start" x="15.5" y="-615" font-family="Helvetica,sans-Serif" font-size="10.00">AbstractMeshReader</text>
<text text-anchor="start" x="15.5" y="-604" font-family="Helvetica,sans-Serif" font-size="10.00">&lt; ELEMENT_DIM, SPACE_DIM &gt;</text>
<text text-anchor="start" x="91" y="-589" font-family="Helvetica,sans-Serif" font-size="10.00"> </text>
<text text-anchor="start" x="4" y="-574" font-family="Helvetica,sans-Serif" font-size="10.00">+</text>
<text text-anchor="start" x="17" y="-574" font-family="Helvetica,sans-Serif" font-size="10.00">~AbstractMeshReader()</text>
<text text-anchor="start" x="4" y="-559" font-family="Helvetica,sans-Serif" font-size="10.00">+</text>
<text text-anchor="start" x="17" y="-559" font-family="Helvetica,sans-Serif" font-size="10.00">GetNumElements()</text>
<text text-anchor="start" x="4" y="-544" font-family="Helvetica,sans-Serif" font-size="10.00">+</text>
<text text-anchor="start" x="17" y="-544" font-family="Helvetica,sans-Serif" font-size="10.00">GetNumNodes()</text>
<text text-anchor="start" x="4" y="-529" font-family="Helvetica,sans-Serif" font-size="10.00">+</text>
<text text-anchor="start" x="17" y="-529" font-family="Helvetica,sans-Serif" font-size="10.00">GetNumFaces()</text>
<text text-anchor="start" x="4" y="-514" font-family="Helvetica,sans-Serif" font-size="10.00">+</text>
<text text-anchor="start" x="17" y="-514" font-family="Helvetica,sans-Serif" font-size="10.00">GetNumCableElements()</text>
<text text-anchor="start" x="4" y="-499" font-family="Helvetica,sans-Serif" font-size="10.00">+</text>
<text text-anchor="start" x="17" y="-499" font-family="Helvetica,sans-Serif" font-size="10.00">GetNumElementAttributes()</text>
<text text-anchor="start" x="4" y="-484" font-family="Helvetica,sans-Serif" font-size="10.00">+</text>
<text text-anchor="start" x="17" y="-484" font-family="Helvetica,sans-Serif" font-size="10.00">GetNumFaceAttributes()</text>
<text text-anchor="start" x="4" y="-469" font-family="Helvetica,sans-Serif" font-size="10.00">+</text>
<text text-anchor="start" x="17" y="-469" font-family="Helvetica,sans-Serif" font-size="10.00">GetNumCableElementAttributes()</text>
<text text-anchor="start" x="4" y="-454" font-family="Helvetica,sans-Serif" font-size="10.00">+</text>
<text text-anchor="start" x="17" y="-454" font-family="Helvetica,sans-Serif" font-size="10.00">GetNodeAttributes()</text>
<text text-anchor="start" x="4" y="-439" font-family="Helvetica,sans-Serif" font-size="10.00">+</text>
<text text-anchor="start" x="17" y="-439" font-family="Helvetica,sans-Serif" font-size="10.00">GetNumEdges()</text>
<text text-anchor="start" x="17" y="-424" font-family="Helvetica,sans-Serif" font-size="10.00">and 25 more...</text>
<polygon fill="#666666" stroke="#666666" points="0,-599 0,-599 186,-599 186,-599 0,-599"/>
<polygon fill="#666666" stroke="#666666" points="0,-584 0,-584 186,-584 186,-584 0,-584"/>
<polygon fill="none" stroke="#666666" points="0,-417 0,-627 186,-627 186,-417 0,-417"/>
</a>
</g>
</g>
<!-- Node2&#45;&gt;Node1 -->
<g id="edge1_Node000001_Node000002" class="edge">
<title>Node2&#45;&gt;Node1</title>
<g id="a_edge1_Node000001_Node000002"><a xlink:title=" ">
<path fill="none" stroke="#63b8ff" d="M169.68,-408C194.29,-371.74 221.8,-331.21 247.36,-293.53"/>
<polygon fill="none" stroke="#63b8ff" points="166.54,-406.4 163.82,-416.64 172.33,-410.33 166.54,-406.4"/>
</a>
</g>
</g>
<!-- Node3 -->
<g id="Node000003" class="node">
<title>Node3</title>
<g id="a_Node000003"><a xlink:title=" ">
<polygon fill="white" stroke="transparent" points="242,-546.5 204,-546.5 204,-497.5 242,-497.5 242,-546.5"/>
<text text-anchor="start" x="209" y="-534" font-family="Helvetica,sans-Serif" font-size="10.00">string</text>
<text text-anchor="start" x="221" y="-519" font-family="Helvetica,sans-Serif" font-size="10.00"> </text>
<text text-anchor="start" x="221" y="-504" font-family="Helvetica,sans-Serif" font-size="10.00"> </text>
<polygon fill="#bfbfbf" stroke="#bfbfbf" points="204,-529 204,-529 242,-529 242,-529 204,-529"/>
<polygon fill="#bfbfbf" stroke="#bfbfbf" points="204,-514 204,-514 242,-514 242,-514 204,-514"/>
<polygon fill="none" stroke="#bfbfbf" points="204,-497.5 204,-546.5 242,-546.5 242,-497.5 204,-497.5"/>
</a>
</g>
</g>
<!-- Node3&#45;&gt;Node1 -->
<g id="edge2_Node000001_Node000003" class="edge">
<title>Node3&#45;&gt;Node1</title>
<g id="a_edge2_Node000001_Node000003"><a xlink:title=" ">
<path fill="none" stroke="#63b8ff" d="M222.36,-497.24C222.06,-460.96 224.13,-389.97 242,-333 242.67,-330.86 243.37,-328.72 244.1,-326.57"/>
<polygon fill="none" stroke="#63b8ff" points="244.16,-326.39 242.42,-319.39 248.21,-315.1 249.95,-322.1 244.16,-326.39"/>
</a>
</g>
<text text-anchor="middle" x="288.5" y="-363.5" font-family="Helvetica,sans-Serif" font-size="10.00" fill="grey"> &#45;mFilesBaseName</text>
</g>
<!-- Node4 -->
<g id="Node000004" class="node">
<title>Node4</title>
<g id="a_Node000004"><a xlink:title=" ">
<polygon fill="white" stroke="transparent" points="365,-546.5 313,-546.5 313,-497.5 365,-497.5 365,-546.5"/>
<text text-anchor="start" x="318" y="-534" font-family="Helvetica,sans-Serif" font-size="10.00">ifstream</text>
<text text-anchor="start" x="337" y="-519" font-family="Helvetica,sans-Serif" font-size="10.00"> </text>
<text text-anchor="start" x="337" y="-504" font-family="Helvetica,sans-Serif" font-size="10.00"> </text>
<polygon fill="#bfbfbf" stroke="#bfbfbf" points="313,-529 313,-529 365,-529 365,-529 313,-529"/>
<polygon fill="#bfbfbf" stroke="#bfbfbf" points="313,-514 313,-514 365,-514 365,-514 313,-514"/>
<polygon fill="none" stroke="#bfbfbf" points="313,-497.5 313,-546.5 365,-546.5 365,-497.5 313,-497.5"/>
</a>
</g>
</g>
<!-- Node4&#45;&gt;Node1 -->
<g id="edge3_Node000001_Node000004" class="edge">
<title>Node4&#45;&gt;Node1</title>
<g id="a_edge3_Node000001_Node000004"><a xlink:title=" ">
<path fill="none" stroke="#63b8ff" d="M339,-497.49C339,-462.56 339,-393.91 339,-327.47"/>
<polygon fill="none" stroke="#63b8ff" points="339,-327.1 335,-321.1 339,-315.1 343,-321.1 339,-327.1"/>
</a>
</g>
<text text-anchor="middle" x="379" y="-369" font-family="Helvetica,sans-Serif" font-size="10.00" fill="grey"> &#45;mElementsFile</text>
<text text-anchor="middle" x="379" y="-358" font-family="Helvetica,sans-Serif" font-size="10.00" fill="grey">&#45;mNodesFile</text>
</g>
<!-- Node5 -->
<g id="Node000005" class="node">
<title>Node5</title>
<g id="a_Node000005"><a xlink:href="classbool.html" target="_top" xlink:title=" ">
<polygon fill="white" stroke="transparent" points="458,-546.5 426,-546.5 426,-497.5 458,-497.5 458,-546.5"/>
<text text-anchor="start" x="431" y="-534" font-family="Helvetica,sans-Serif" font-size="10.00">bool</text>
<text text-anchor="start" x="440" y="-519" font-family="Helvetica,sans-Serif" font-size="10.00"> </text>
<text text-anchor="start" x="440" y="-504" font-family="Helvetica,sans-Serif" font-size="10.00"> </text>
<polygon fill="#bfbfbf" stroke="#bfbfbf" points="426,-529 426,-529 458,-529 458,-529 426,-529"/>
<polygon fill="#bfbfbf" stroke="#bfbfbf" points="426,-514 426,-514 458,-514 458,-514 426,-514"/>
<polygon fill="none" stroke="#bfbfbf" points="426,-497.5 426,-546.5 458,-546.5 458,-497.5 426,-497.5"/>
</a>
</g>
</g>
<!-- Node5&#45;&gt;Node1 -->
<g id="edge4_Node000001_Node000005" class="edge">
<title>Node5&#45;&gt;Node1</title>
<g id="a_edge4_Node000001_Node000005"><a xlink:title=" ">
<path fill="none" stroke="#63b8ff" d="M441.63,-497.38C440.53,-461.29 436.27,-390.55 420,-333 419.4,-330.86 418.77,-328.72 418.12,-326.57"/>
<polygon fill="none" stroke="#63b8ff" points="418.09,-326.48 412.46,-321.98 414.45,-315.05 420.08,-319.55 418.09,-326.48"/>
</a>
</g>
<text text-anchor="middle" x="477.5" y="-363.5" font-family="Helvetica,sans-Serif" font-size="10.00" fill="grey"> &#45;mIndexFromZero</text>
</g>
<!-- Node6 -->
<g id="Node000006" class="node">
<title>Node6</title>
<g id="a_Node000006"><a xlink:href="classunsigned.html" target="_top" xlink:title=" ">
<polygon fill="white" stroke="transparent" points="583.5,-546.5 528.5,-546.5 528.5,-497.5 583.5,-497.5 583.5,-546.5"/>
<text text-anchor="start" x="534" y="-534" font-family="Helvetica,sans-Serif" font-size="10.00">unsigned</text>
<text text-anchor="start" x="554.5" y="-519" font-family="Helvetica,sans-Serif" font-size="10.00"> </text>
<text text-anchor="start" x="554.5" y="-504" font-family="Helvetica,sans-Serif" font-size="10.00"> </text>
<polygon fill="#bfbfbf" stroke="#bfbfbf" points="529,-529 529,-529 584,-529 584,-529 529,-529"/>
<polygon fill="#bfbfbf" stroke="#bfbfbf" points="529,-514 529,-514 584,-514 584,-514 529,-514"/>
<polygon fill="none" stroke="#bfbfbf" points="528.5,-497.5 528.5,-546.5 583.5,-546.5 583.5,-497.5 528.5,-497.5"/>
</a>
</g>
</g>
<!-- Node6&#45;&gt;Node1 -->
<g id="edge5_Node000001_Node000006" class="edge">
<title>Node6&#45;&gt;Node1</title>
<g id="a_edge5_Node000001_Node000006"><a xlink:title=" ">
<path fill="none" stroke="#63b8ff" d="M557.17,-497.49C558,-460.31 555.48,-386.68 527,-333 506.11,-293.63 472.82,-258.37 440.01,-230.02"/>
<polygon fill="none" stroke="#63b8ff" points="439.94,-229.97 432.78,-229.14 430.78,-222.21 437.95,-223.04 439.94,-229.97"/>
</a>
</g>
<text text-anchor="middle" x="611" y="-391" font-family="Helvetica,sans-Serif" font-size="10.00" fill="grey"> &#45;mElementsRead</text>
<text text-anchor="middle" x="611" y="-380" font-family="Helvetica,sans-Serif" font-size="10.00" fill="grey">&#45;mNodesRead</text>
<text text-anchor="middle" x="611" y="-369" font-family="Helvetica,sans-Serif" font-size="10.00" fill="grey">&#45;mNumElementAttributes</text>
<text text-anchor="middle" x="611" y="-358" font-family="Helvetica,sans-Serif" font-size="10.00" fill="grey">&#45;mNumElements</text>
<text text-anchor="middle" x="611" y="-347" font-family="Helvetica,sans-Serif" font-size="10.00" fill="grey">&#45;mNumNodeAttributes</text>
<text text-anchor="middle" x="611" y="-336" font-family="Helvetica,sans-Serif" font-size="10.00" fill="grey">&#45;mNumNodes</text>
</g>
</g>
</svg>
