<?xml version="1.0" encoding="UTF-8" standalone="no"?>
<!DOCTYPE svg PUBLIC "-//W3C//DTD SVG 1.1//EN"
 "http://www.w3.org/Graphics/SVG/1.1/DTD/svg11.dtd">
<!-- Generated by graphviz version 2.43.0 (0)
 -->
<!-- Title: Graphical Class Hierarchy Pages: 1 -->
<svg width="567pt" height="450pt"
 viewBox="0.00 0.00 567.00 449.50" xmlns="http://www.w3.org/2000/svg" xmlns:xlink="http://www.w3.org/1999/xlink">
<g id="graph0" class="graph" transform="scale(1 1) rotate(0) translate(4 445.5)">
<title>Graphical Class Hierarchy</title>
<!-- Node0 -->
<g id="Node000000" class="node">
<title>Node0</title>
<g id="a_Node000000"><a xlink:href="classAbstractElement.html" target="_top" xlink:title=" ">
<polygon fill="white" stroke="#666666" points="155,-286 0,-286 0,-256 155,-256 155,-286"/>
<text text-anchor="start" x="8" y="-274" font-family="Helvetica,sans-Serif" font-size="10.00">AbstractElement&lt; ELEMENT</text>
<text text-anchor="middle" x="77.5" y="-263" font-family="Helvetica,sans-Serif" font-size="10.00">_DIM, SPACE_DIM &gt;</text>
</a>
</g>
</g>
<!-- Node1 -->
<g id="Node000001" class="node">
<title>Node1</title>
<g id="a_Node000001"><a xlink:href="classMutableElement.html" target="_top" xlink:title=" ">
<polygon fill="white" stroke="#666666" points="342,-401 211,-401 211,-371 342,-371 342,-401"/>
<text text-anchor="start" x="219" y="-389" font-family="Helvetica,sans-Serif" font-size="10.00">MutableElement&lt; DIM,</text>
<text text-anchor="middle" x="276.5" y="-378" font-family="Helvetica,sans-Serif" font-size="10.00"> DIM &gt;</text>
</a>
</g>
</g>
<!-- Node0&#45;&gt;Node1 -->
<g id="edge251_Node000000_Node000001" class="edge">
<title>Node0&#45;&gt;Node1</title>
<g id="a_edge251_Node000000_Node000001"><a xlink:title=" ">
<path fill="none" stroke="#63b8ff" d="M113.17,-291.24C152.22,-314.03 214.78,-350.56 249.74,-370.96"/>
<polygon fill="#63b8ff" stroke="#63b8ff" points="114.66,-288.05 104.25,-286.03 111.13,-294.1 114.66,-288.05"/>
</a>
</g>
</g>
<!-- Node3 -->
<g id="Node000003" class="node">
<title>Node3</title>
<g id="a_Node000003"><a xlink:href="classAbstractTetrahedralElement.html" target="_top" xlink:title=" ">
<polygon fill="white" stroke="#666666" points="362,-286 191,-286 191,-256 362,-256 362,-286"/>
<text text-anchor="start" x="199" y="-274" font-family="Helvetica,sans-Serif" font-size="10.00">AbstractTetrahedralElement</text>
<text text-anchor="middle" x="276.5" y="-263" font-family="Helvetica,sans-Serif" font-size="10.00">&lt; ELEMENT_DIM, SPACE_DIM &gt;</text>
</a>
</g>
</g>
<!-- Node0&#45;&gt;Node3 -->
<g id="edge253_Node000000_Node000003" class="edge">
<title>Node0&#45;&gt;Node3</title>
<g id="a_edge253_Node000000_Node000003"><a xlink:title=" ">
<path fill="none" stroke="#63b8ff" d="M165.44,-271C173.87,-271 182.41,-271 190.82,-271"/>
<polygon fill="#63b8ff" stroke="#63b8ff" points="165.23,-267.5 155.23,-271 165.23,-274.5 165.23,-267.5"/>
</a>
</g>
</g>
<!-- Node10 -->
<g id="Node000010" class="node">
<title>Node10</title>
<g id="a_Node000010"><a xlink:href="classMutableElement.html" target="_top" xlink:title=" ">
<polygon fill="white" stroke="#666666" points="353.5,-102 199.5,-102 199.5,-72 353.5,-72 353.5,-102"/>
<text text-anchor="start" x="207.5" y="-90" font-family="Helvetica,sans-Serif" font-size="10.00">MutableElement&lt; ELEMENT</text>
<text text-anchor="middle" x="276.5" y="-79" font-family="Helvetica,sans-Serif" font-size="10.00">_DIM, SPACE_DIM &gt;</text>
</a>
</g>
</g>
<!-- Node0&#45;&gt;Node10 -->
<g id="edge260_Node000000_Node000010" class="edge">
<title>Node0&#45;&gt;Node10</title>
<g id="a_edge260_Node000000_Node000010"><a xlink:title=" ">
<path fill="none" stroke="#63b8ff" d="M102.17,-248.89C142.79,-210.95 224.76,-134.39 259.43,-102.01"/>
<polygon fill="#63b8ff" stroke="#63b8ff" points="99.54,-246.56 94.62,-255.94 104.32,-251.67 99.54,-246.56"/>
</a>
</g>
</g>
<!-- Node2 -->
<g id="Node000002" class="node">
<title>Node2</title>
<g id="a_Node000002"><a xlink:href="classPottsElement.html" target="_top" xlink:title=" ">
<polygon fill="white" stroke="#666666" points="540.5,-441.5 416.5,-441.5 416.5,-422.5 540.5,-422.5 540.5,-441.5"/>
<text text-anchor="middle" x="478.5" y="-429.5" font-family="Helvetica,sans-Serif" font-size="10.00">PottsElement&lt; DIM &gt;</text>
</a>
</g>
</g>
<!-- Node1&#45;&gt;Node2 -->
<g id="edge252_Node000001_Node000002" class="edge">
<title>Node1&#45;&gt;Node2</title>
<g id="a_edge252_Node000001_Node000002"><a xlink:title=" ">
<path fill="none" stroke="#63b8ff" d="M352.06,-403.15C380.46,-409.68 411.78,-416.89 436.03,-422.46"/>
<polygon fill="#63b8ff" stroke="#63b8ff" points="352.69,-399.7 342.16,-400.87 351.12,-406.52 352.69,-399.7"/>
</a>
</g>
</g>
<!-- Node4 -->
<g id="Node000004" class="node">
<title>Node4</title>
<g id="a_Node000004"><a xlink:href="classBoundaryElement.html" target="_top" xlink:title=" ">
<polygon fill="white" stroke="#666666" points="559,-404 398,-404 398,-374 559,-374 559,-404"/>
<text text-anchor="start" x="406" y="-392" font-family="Helvetica,sans-Serif" font-size="10.00">BoundaryElement&lt; ELEMENT</text>
<text text-anchor="middle" x="478.5" y="-381" font-family="Helvetica,sans-Serif" font-size="10.00">_DIM&#45;1, SPACE_DIM &gt;</text>
</a>
</g>
</g>
<!-- Node3&#45;&gt;Node4 -->
<g id="edge254_Node000003_Node000004" class="edge">
<title>Node3&#45;&gt;Node4</title>
<g id="a_edge254_Node000003_Node000004"><a xlink:title=" ">
<path fill="none" stroke="#63b8ff" d="M300.45,-293.17C323.44,-314.3 360.7,-345.68 398,-365 404.53,-368.38 411.61,-371.37 418.77,-373.98"/>
<polygon fill="#63b8ff" stroke="#63b8ff" points="302.63,-290.42 292.93,-286.16 297.85,-295.54 302.63,-290.42"/>
</a>
</g>
</g>
<!-- Node5 -->
<g id="Node000005" class="node">
<title>Node5</title>
<g id="a_Node000005"><a xlink:href="classBoundaryElement.html" target="_top" xlink:title=" ">
<polygon fill="white" stroke="#666666" points="545.5,-356 411.5,-356 411.5,-326 545.5,-326 545.5,-356"/>
<text text-anchor="start" x="419.5" y="-344" font-family="Helvetica,sans-Serif" font-size="10.00">BoundaryElement&lt; DIM</text>
<text text-anchor="middle" x="478.5" y="-333" font-family="Helvetica,sans-Serif" font-size="10.00">&#45;1, DIM &gt;</text>
</a>
</g>
</g>
<!-- Node3&#45;&gt;Node5 -->
<g id="edge255_Node000003_Node000005" class="edge">
<title>Node3&#45;&gt;Node5</title>
<g id="a_edge255_Node000003_Node000005"><a xlink:title=" ">
<path fill="none" stroke="#63b8ff" d="M324.48,-289.83C346.64,-298.48 373.54,-308.65 398,-317 406.87,-320.03 416.36,-323.06 425.58,-325.91"/>
<polygon fill="#63b8ff" stroke="#63b8ff" points="325.56,-286.49 314.97,-286.1 323,-293.01 325.56,-286.49"/>
</a>
</g>
</g>
<!-- Node6 -->
<g id="Node000006" class="node">
<title>Node6</title>
<g id="a_Node000006"><a xlink:href="classElement.html" target="_top" xlink:title=" ">
<polygon fill="white" stroke="#666666" points="537,-308 420,-308 420,-278 537,-278 537,-308"/>
<text text-anchor="start" x="428" y="-296" font-family="Helvetica,sans-Serif" font-size="10.00">Element&lt; 1u, SPACE</text>
<text text-anchor="middle" x="478.5" y="-285" font-family="Helvetica,sans-Serif" font-size="10.00">_DIM &gt;</text>
</a>
</g>
</g>
<!-- Node3&#45;&gt;Node6 -->
<g id="edge256_Node000003_Node000006" class="edge">
<title>Node3&#45;&gt;Node6</title>
<g id="a_edge256_Node000003_Node000006"><a xlink:title=" ">
<path fill="none" stroke="#63b8ff" d="M372.14,-281.41C388.45,-283.2 404.96,-285.02 419.9,-286.66"/>
<polygon fill="#63b8ff" stroke="#63b8ff" points="372.35,-277.91 362.03,-280.3 371.59,-284.87 372.35,-277.91"/>
</a>
</g>
</g>
<!-- Node7 -->
<g id="Node000007" class="node">
<title>Node7</title>
<g id="a_Node000007"><a xlink:href="classElement.html" target="_top" xlink:title=" ">
<polygon fill="white" stroke="#666666" points="541,-259.5 416,-259.5 416,-240.5 541,-240.5 541,-259.5"/>
<text text-anchor="middle" x="478.5" y="-247.5" font-family="Helvetica,sans-Serif" font-size="10.00">Element&lt; DIM, DIM &gt;</text>
</a>
</g>
</g>
<!-- Node3&#45;&gt;Node7 -->
<g id="edge257_Node000003_Node000007" class="edge">
<title>Node3&#45;&gt;Node7</title>
<g id="a_edge257_Node000003_Node000007"><a xlink:title=" ">
<path fill="none" stroke="#63b8ff" d="M372.22,-261.05C387,-259.5 401.93,-257.93 415.72,-256.49"/>
<polygon fill="#63b8ff" stroke="#63b8ff" points="371.61,-257.6 362.03,-262.12 372.34,-264.56 371.61,-257.6"/>
</a>
</g>
</g>
<!-- Node8 -->
<g id="Node000008" class="node">
<title>Node8</title>
<g id="a_Node000008"><a xlink:href="classBoundaryElement.html" target="_top" xlink:title=" ">
<polygon fill="white" stroke="#666666" points="559,-222 398,-222 398,-192 559,-192 559,-222"/>
<text text-anchor="start" x="406" y="-210" font-family="Helvetica,sans-Serif" font-size="10.00">BoundaryElement&lt; ELEMENT</text>
<text text-anchor="middle" x="478.5" y="-199" font-family="Helvetica,sans-Serif" font-size="10.00">_DIM, SPACE_DIM &gt;</text>
</a>
</g>
</g>
<!-- Node3&#45;&gt;Node8 -->
<g id="edge258_Node000003_Node000008" class="edge">
<title>Node3&#45;&gt;Node8</title>
<g id="a_edge258_Node000003_Node000008"><a xlink:title=" ">
<path fill="none" stroke="#63b8ff" d="M333.54,-252.76C353.83,-246.18 376.94,-238.72 398,-232 408.2,-228.75 419.15,-225.28 429.55,-222.01"/>
<polygon fill="#63b8ff" stroke="#63b8ff" points="332.25,-249.49 323.82,-255.91 334.41,-256.15 332.25,-249.49"/>
</a>
</g>
</g>
<!-- Node9 -->
<g id="Node000009" class="node">
<title>Node9</title>
<g id="a_Node000009"><a xlink:href="classElement.html" target="_top" xlink:title=" ">
<polygon fill="white" stroke="#666666" points="549.5,-174 407.5,-174 407.5,-144 549.5,-144 549.5,-174"/>
<text text-anchor="start" x="415.5" y="-162" font-family="Helvetica,sans-Serif" font-size="10.00">Element&lt; ELEMENT_DIM,</text>
<text text-anchor="middle" x="478.5" y="-151" font-family="Helvetica,sans-Serif" font-size="10.00"> SPACE_DIM &gt;</text>
</a>
</g>
</g>
<!-- Node3&#45;&gt;Node9 -->
<g id="edge259_Node000003_Node000009" class="edge">
<title>Node3&#45;&gt;Node9</title>
<g id="a_edge259_Node000003_Node000009"><a xlink:title=" ">
<path fill="none" stroke="#63b8ff" d="M301.89,-249.32C325.16,-229.62 361.91,-200.97 398,-183 404.71,-179.66 411.98,-176.68 419.29,-174.07"/>
<polygon fill="#63b8ff" stroke="#63b8ff" points="299.56,-246.71 294.25,-255.88 304.12,-252.02 299.56,-246.71"/>
</a>
</g>
</g>
<!-- Node11 -->
<g id="Node000011" class="node">
<title>Node11</title>
<g id="a_Node000011"><a xlink:href="classVertexElement.html" target="_top" xlink:title=" ">
<polygon fill="white" stroke="#666666" points="551.5,-126 405.5,-126 405.5,-96 551.5,-96 551.5,-126"/>
<text text-anchor="start" x="413.5" y="-114" font-family="Helvetica,sans-Serif" font-size="10.00">VertexElement&lt; ELEMENT</text>
<text text-anchor="middle" x="478.5" y="-103" font-family="Helvetica,sans-Serif" font-size="10.00">_DIM &#45; 1, SPACE_DIM &gt;</text>
</a>
</g>
</g>
<!-- Node10&#45;&gt;Node11 -->
<g id="edge261_Node000010_Node000011" class="edge">
<title>Node10&#45;&gt;Node11</title>
<g id="a_edge261_Node000010_Node000011"><a xlink:title=" ">
<path fill="none" stroke="#63b8ff" d="M363.74,-97.35C377.66,-99.02 391.94,-100.73 405.48,-102.36"/>
<polygon fill="#63b8ff" stroke="#63b8ff" points="364.03,-93.86 353.68,-96.14 363.19,-100.81 364.03,-93.86"/>
</a>
</g>
</g>
<!-- Node12 -->
<g id="Node000012" class="node">
<title>Node12</title>
<g id="a_Node000012"><a xlink:href="classVertexElement.html" target="_top" xlink:title=" ">
<polygon fill="white" stroke="#666666" points="551.5,-78 405.5,-78 405.5,-48 551.5,-48 551.5,-78"/>
<text text-anchor="start" x="413.5" y="-66" font-family="Helvetica,sans-Serif" font-size="10.00">VertexElement&lt; ELEMENT</text>
<text text-anchor="middle" x="478.5" y="-55" font-family="Helvetica,sans-Serif" font-size="10.00">_DIM&#45;1, SPACE_DIM &gt;</text>
</a>
</g>
</g>
<!-- Node10&#45;&gt;Node12 -->
<g id="edge262_Node000010_Node000012" class="edge">
<title>Node10&#45;&gt;Node12</title>
<g id="a_edge262_Node000010_Node000012"><a xlink:title=" ">
<path fill="none" stroke="#63b8ff" d="M363.74,-76.65C377.66,-74.98 391.94,-73.27 405.48,-71.64"/>
<polygon fill="#63b8ff" stroke="#63b8ff" points="363.19,-73.19 353.68,-77.86 364.03,-80.14 363.19,-73.19"/>
</a>
</g>
</g>
<!-- Node13 -->
<g id="Node000013" class="node">
<title>Node13</title>
<g id="a_Node000013"><a xlink:href="classVertexElement.html" target="_top" xlink:title=" ">
<polygon fill="white" stroke="#666666" points="551.5,-30 405.5,-30 405.5,0 551.5,0 551.5,-30"/>
<text text-anchor="start" x="413.5" y="-18" font-family="Helvetica,sans-Serif" font-size="10.00">VertexElement&lt; ELEMENT</text>
<text text-anchor="middle" x="478.5" y="-7" font-family="Helvetica,sans-Serif" font-size="10.00">_DIM, SPACE_DIM &gt;</text>
</a>
</g>
</g>
<!-- Node10&#45;&gt;Node13 -->
<g id="edge263_Node000010_Node000013" class="edge">
<title>Node10&#45;&gt;Node13</title>
<g id="a_edge263_Node000010_Node000013"><a xlink:title=" ">
<path fill="none" stroke="#63b8ff" d="M322.36,-68.07C344.89,-58.83 372.7,-47.84 398,-39 406.71,-35.96 416.03,-32.93 425.12,-30.11"/>
<polygon fill="#63b8ff" stroke="#63b8ff" points="320.96,-64.86 313.05,-71.91 323.63,-71.33 320.96,-64.86"/>
</a>
</g>
</g>
</g>
</svg>
