<?xml version="1.0" encoding="UTF-8" standalone="no"?>
<!DOCTYPE svg PUBLIC "-//W3C//DTD SVG 1.1//EN"
 "http://www.w3.org/Graphics/SVG/1.1/DTD/svg11.dtd">
<!-- Generated by graphviz version 2.43.0 (0)
 -->
<!-- Title: Graphical Class Hierarchy Pages: 1 -->
<svg width="601pt" height="254pt"
 viewBox="0.00 0.00 601.00 254.00" xmlns="http://www.w3.org/2000/svg" xmlns:xlink="http://www.w3.org/1999/xlink">
<g id="graph0" class="graph" transform="scale(1 1) rotate(0) translate(4 250)">
<title>Graphical Class Hierarchy</title>
<!-- Node0 -->
<g id="Node000000" class="node">
<title>Node0</title>
<g id="a_Node000000"><a xlink:href="classAbstractMeshReader.html" target="_top" xlink:title=" ">
<polygon fill="white" stroke="#666666" points="171,-126 0,-126 0,-96 171,-96 171,-126"/>
<text text-anchor="start" x="8" y="-114" font-family="Helvetica,sans-Serif" font-size="10.00">AbstractMeshReader</text>
<text text-anchor="middle" x="85.5" y="-103" font-family="Helvetica,sans-Serif" font-size="10.00">&lt; ELEMENT_DIM, SPACE_DIM &gt;</text>
</a>
</g>
</g>
<!-- Node1 -->
<g id="Node000001" class="node">
<title>Node1</title>
<g id="a_Node000001"><a xlink:href="classAbstractCachedMeshReader.html" target="_top" xlink:title=" ">
<polygon fill="white" stroke="#666666" points="378,-222 207,-222 207,-192 378,-192 378,-222"/>
<text text-anchor="start" x="215" y="-210" font-family="Helvetica,sans-Serif" font-size="10.00">AbstractCachedMeshReader</text>
<text text-anchor="middle" x="292.5" y="-199" font-family="Helvetica,sans-Serif" font-size="10.00">&lt; ELEMENT_DIM, SPACE_DIM &gt;</text>
</a>
</g>
</g>
<!-- Node0&#45;&gt;Node1 -->
<g id="edge310_Node000000_Node000001" class="edge">
<title>Node0&#45;&gt;Node1</title>
<g id="a_edge310_Node000000_Node000001"><a xlink:title=" ">
<path fill="none" stroke="#63b8ff" d="M116.31,-131.83C140.01,-147.63 174.46,-168.95 207,-183 214.7,-186.33 222.99,-189.33 231.27,-192"/>
<polygon fill="#63b8ff" stroke="#63b8ff" points="118.03,-128.77 107.79,-126.07 114.12,-134.57 118.03,-128.77"/>
</a>
</g>
</g>
<!-- Node4 -->
<g id="Node000004" class="node">
<title>Node4</title>
<g id="a_Node000004"><a xlink:href="classGmshMeshReader.html" target="_top" xlink:title=" ">
<polygon fill="white" stroke="#666666" points="374,-174 211,-174 211,-144 374,-144 374,-174"/>
<text text-anchor="start" x="219" y="-162" font-family="Helvetica,sans-Serif" font-size="10.00">GmshMeshReader&lt; ELEMENT</text>
<text text-anchor="middle" x="292.5" y="-151" font-family="Helvetica,sans-Serif" font-size="10.00">_DIM, SPACE_DIM &gt;</text>
</a>
</g>
</g>
<!-- Node0&#45;&gt;Node4 -->
<g id="edge313_Node000000_Node000004" class="edge">
<title>Node0&#45;&gt;Node4</title>
<g id="a_edge313_Node000000_Node000004"><a xlink:title=" ">
<path fill="none" stroke="#63b8ff" d="M160.69,-128.37C182.55,-133.49 206.27,-139.04 227.43,-144"/>
<polygon fill="#63b8ff" stroke="#63b8ff" points="161.34,-124.93 150.8,-126.06 159.74,-131.74 161.34,-124.93"/>
</a>
</g>
</g>
<!-- Node5 -->
<g id="Node000005" class="node">
<title>Node5</title>
<g id="a_Node000005"><a xlink:href="classTrianglesMeshReader.html" target="_top" xlink:title=" ">
<polygon fill="white" stroke="#666666" points="378,-126 207,-126 207,-96 378,-96 378,-126"/>
<text text-anchor="start" x="215" y="-114" font-family="Helvetica,sans-Serif" font-size="10.00">TrianglesMeshReader</text>
<text text-anchor="middle" x="292.5" y="-103" font-family="Helvetica,sans-Serif" font-size="10.00">&lt; ELEMENT_DIM, SPACE_DIM &gt;</text>
</a>
</g>
</g>
<!-- Node0&#45;&gt;Node5 -->
<g id="edge314_Node000000_Node000005" class="edge">
<title>Node0&#45;&gt;Node5</title>
<g id="a_edge314_Node000000_Node000005"><a xlink:title=" ">
<path fill="none" stroke="#63b8ff" d="M181.09,-111C189.66,-111 198.31,-111 206.8,-111"/>
<polygon fill="#63b8ff" stroke="#63b8ff" points="181.06,-107.5 171.06,-111 181.06,-114.5 181.06,-107.5"/>
</a>
</g>
</g>
<!-- Node6 -->
<g id="Node000006" class="node">
<title>Node6</title>
<g id="a_Node000006"><a xlink:href="classVertexMeshReader.html" target="_top" xlink:title=" ">
<polygon fill="white" stroke="#666666" points="375.5,-78 209.5,-78 209.5,-48 375.5,-48 375.5,-78"/>
<text text-anchor="start" x="217.5" y="-66" font-family="Helvetica,sans-Serif" font-size="10.00">VertexMeshReader&lt; ELEMENT</text>
<text text-anchor="middle" x="292.5" y="-55" font-family="Helvetica,sans-Serif" font-size="10.00">_DIM, SPACE_DIM &gt;</text>
</a>
</g>
</g>
<!-- Node0&#45;&gt;Node6 -->
<g id="edge315_Node000000_Node000006" class="edge">
<title>Node0&#45;&gt;Node6</title>
<g id="a_edge315_Node000000_Node000006"><a xlink:title=" ">
<path fill="none" stroke="#63b8ff" d="M160.69,-93.63C182.55,-88.51 206.27,-82.96 227.43,-78"/>
<polygon fill="#63b8ff" stroke="#63b8ff" points="159.74,-90.26 150.8,-95.94 161.34,-97.07 159.74,-90.26"/>
</a>
</g>
</g>
<!-- Node7 -->
<g id="Node000007" class="node">
<title>Node7</title>
<g id="a_Node000007"><a xlink:href="classVtkMeshReader.html" target="_top" xlink:title=" ">
<polygon fill="white" stroke="#666666" points="368,-30 217,-30 217,0 368,0 368,-30"/>
<text text-anchor="start" x="225" y="-18" font-family="Helvetica,sans-Serif" font-size="10.00">VtkMeshReader&lt; ELEMENT</text>
<text text-anchor="middle" x="292.5" y="-7" font-family="Helvetica,sans-Serif" font-size="10.00">_DIM, SPACE_DIM &gt;</text>
</a>
</g>
</g>
<!-- Node0&#45;&gt;Node7 -->
<g id="edge316_Node000000_Node000007" class="edge">
<title>Node0&#45;&gt;Node7</title>
<g id="a_edge316_Node000000_Node000007"><a xlink:title=" ">
<path fill="none" stroke="#63b8ff" d="M116.31,-90.17C140.01,-74.37 174.46,-53.05 207,-39 214.7,-35.67 222.99,-32.67 231.27,-30"/>
<polygon fill="#63b8ff" stroke="#63b8ff" points="114.12,-87.43 107.79,-95.93 118.03,-93.23 114.12,-87.43"/>
</a>
</g>
</g>
<!-- Node2 -->
<g id="Node000002" class="node">
<title>Node2</title>
<g id="a_Node000002"><a xlink:href="classFemlabMeshReader.html" target="_top" xlink:title=" ">
<polygon fill="white" stroke="#666666" points="588.5,-246 418.5,-246 418.5,-216 588.5,-216 588.5,-246"/>
<text text-anchor="start" x="426.5" y="-234" font-family="Helvetica,sans-Serif" font-size="10.00">FemlabMeshReader&lt; ELEMENT</text>
<text text-anchor="middle" x="503.5" y="-223" font-family="Helvetica,sans-Serif" font-size="10.00">_DIM, SPACE_DIM &gt;</text>
</a>
</g>
</g>
<!-- Node1&#45;&gt;Node2 -->
<g id="edge311_Node000001_Node000002" class="edge">
<title>Node1&#45;&gt;Node2</title>
<g id="a_edge311_Node000001_Node000002"><a xlink:title=" ">
<path fill="none" stroke="#63b8ff" d="M388.2,-217.88C398.26,-219.03 408.43,-220.2 418.35,-221.34"/>
<polygon fill="#63b8ff" stroke="#63b8ff" points="388.54,-214.39 378.21,-216.73 387.74,-221.35 388.54,-214.39"/>
</a>
</g>
</g>
<!-- Node3 -->
<g id="Node000003" class="node">
<title>Node3</title>
<g id="a_Node000003"><a xlink:href="classMemfemMeshReader.html" target="_top" xlink:title=" ">
<polygon fill="white" stroke="#666666" points="593,-198 414,-198 414,-168 593,-168 593,-198"/>
<text text-anchor="start" x="422" y="-186" font-family="Helvetica,sans-Serif" font-size="10.00">MemfemMeshReader&lt; ELEMENT</text>
<text text-anchor="middle" x="503.5" y="-175" font-family="Helvetica,sans-Serif" font-size="10.00">_DIM, SPACE_DIM &gt;</text>
</a>
</g>
</g>
<!-- Node1&#45;&gt;Node3 -->
<g id="edge312_Node000001_Node000003" class="edge">
<title>Node1&#45;&gt;Node3</title>
<g id="a_edge312_Node000001_Node000003"><a xlink:title=" ">
<path fill="none" stroke="#63b8ff" d="M388.2,-196.12C396.77,-195.14 405.42,-194.15 413.93,-193.17"/>
<polygon fill="#63b8ff" stroke="#63b8ff" points="387.74,-192.65 378.21,-197.27 388.54,-199.61 387.74,-192.65"/>
</a>
</g>
</g>
</g>
</svg>
