<?xml version="1.0" encoding="UTF-8" standalone="no"?>
<!DOCTYPE svg PUBLIC "-//W3C//DTD SVG 1.1//EN"
 "http://www.w3.org/Graphics/SVG/1.1/DTD/svg11.dtd">
<!-- Generated by graphviz version 2.43.0 (0)
 -->
<!-- Title: Graphical Class Hierarchy Pages: 1 -->
<svg width="594pt" height="92pt"
 viewBox="0.00 0.00 594.00 91.50" xmlns="http://www.w3.org/2000/svg" xmlns:xlink="http://www.w3.org/1999/xlink">
<g id="graph0" class="graph" transform="scale(1 1) rotate(0) translate(4 87.5)">
<title>Graphical Class Hierarchy</title>
<!-- Node0 -->
<g id="Node000000" class="node">
<title>Node0</title>
<g id="a_Node000000"><a xlink:href="classAbstractCardiacCellFactory.html" target="_top" xlink:title=" ">
<polygon fill="white" stroke="#666666" points="171,-59.5 0,-59.5 0,-29.5 171,-29.5 171,-59.5"/>
<text text-anchor="start" x="8" y="-47.5" font-family="Helvetica,sans-Serif" font-size="10.00">AbstractCardiacCellFactory</text>
<text text-anchor="middle" x="85.5" y="-36.5" font-family="Helvetica,sans-Serif" font-size="10.00">&lt; ELEMENT_DIM, SPACE_DIM &gt;</text>
</a>
</g>
</g>
<!-- Node1 -->
<g id="Node000001" class="node">
<title>Node1</title>
<g id="a_Node000001"><a xlink:href="classAbstractPurkinjeCellFactory.html" target="_top" xlink:title=" ">
<polygon fill="white" stroke="#666666" points="392.5,-83.5 221.5,-83.5 221.5,-53.5 392.5,-53.5 392.5,-83.5"/>
<text text-anchor="start" x="229.5" y="-71.5" font-family="Helvetica,sans-Serif" font-size="10.00">AbstractPurkinjeCellFactory</text>
<text text-anchor="middle" x="307" y="-60.5" font-family="Helvetica,sans-Serif" font-size="10.00">&lt; ELEMENT_DIM, SPACE_DIM &gt;</text>
</a>
</g>
</g>
<!-- Node0&#45;&gt;Node1 -->
<g id="edge8_Node000000_Node000001" class="edge">
<title>Node0&#45;&gt;Node1</title>
<g id="a_edge8_Node000000_Node000001"><a xlink:title=" ">
<path fill="none" stroke="#63b8ff" d="M181.22,-54.86C194.61,-56.32 208.31,-57.82 221.49,-59.26"/>
<polygon fill="#63b8ff" stroke="#63b8ff" points="181.37,-51.35 171.05,-53.74 180.61,-58.31 181.37,-51.35"/>
</a>
</g>
</g>
<!-- Node2 -->
<g id="Node000002" class="node">
<title>Node2</title>
<g id="a_Node000002"><a xlink:href="classPlaneStimulusCellFactory.html" target="_top" xlink:title=" ">
<polygon fill="white" stroke="#666666" points="407,-35.5 207,-35.5 207,-5.5 407,-5.5 407,-35.5"/>
<text text-anchor="start" x="215" y="-23.5" font-family="Helvetica,sans-Serif" font-size="10.00">PlaneStimulusCellFactory</text>
<text text-anchor="middle" x="307" y="-12.5" font-family="Helvetica,sans-Serif" font-size="10.00">&lt; CELL, ELEMENT_DIM, SPACE_DIM &gt;</text>
</a>
</g>
</g>
<!-- Node0&#45;&gt;Node2 -->
<g id="edge9_Node000000_Node000002" class="edge">
<title>Node0&#45;&gt;Node2</title>
<g id="a_edge9_Node000000_Node000002"><a xlink:title=" ">
<path fill="none" stroke="#63b8ff" d="M181.02,-34.17C189.57,-33.23 198.25,-32.28 206.84,-31.34"/>
<polygon fill="#63b8ff" stroke="#63b8ff" points="180.61,-30.69 171.05,-35.26 181.37,-37.65 180.61,-30.69"/>
</a>
</g>
</g>
<!-- Node3 -->
<g id="Node000003" class="node">
<title>Node3</title>
<g id="a_Node000003"><a xlink:href="classGeneralPlaneStimulusCellFactory.html" target="_top" xlink:title=" ">
<polygon fill="white" stroke="#666666" points="586,-41 443,-41 443,0 586,0 586,-41"/>
<text text-anchor="start" x="451" y="-29" font-family="Helvetica,sans-Serif" font-size="10.00">GeneralPlaneStimulusCell</text>
<text text-anchor="start" x="451" y="-18" font-family="Helvetica,sans-Serif" font-size="10.00">Factory&lt; CELL, ELEMENT</text>
<text text-anchor="middle" x="514.5" y="-7" font-family="Helvetica,sans-Serif" font-size="10.00">_DIM, SPACE_DIM &gt;</text>
</a>
</g>
</g>
<!-- Node2&#45;&gt;Node3 -->
<g id="edge10_Node000002_Node000003" class="edge">
<title>Node2&#45;&gt;Node3</title>
<g id="a_edge10_Node000002_Node000003"><a xlink:title=" ">
<path fill="none" stroke="#63b8ff" d="M417.36,-20.5C426.05,-20.5 434.68,-20.5 443,-20.5"/>
<polygon fill="#63b8ff" stroke="#63b8ff" points="417.14,-17 407.14,-20.5 417.14,-24 417.14,-17"/>
</a>
</g>
</g>
</g>
</svg>
