<?xml version="1.0" encoding="UTF-8" standalone="no"?>
<!DOCTYPE svg PUBLIC "-//W3C//DTD SVG 1.1//EN"
 "http://www.w3.org/Graphics/SVG/1.1/DTD/svg11.dtd">
<!-- Generated by graphviz version 2.43.0 (0)
 -->
<!-- Title: Graphical Class Hierarchy Pages: 1 -->
<svg width="805pt" height="470pt"
 viewBox="0.00 0.00 805.00 470.00" xmlns="http://www.w3.org/2000/svg" xmlns:xlink="http://www.w3.org/1999/xlink">
<g id="graph0" class="graph" transform="scale(1 1) rotate(0) translate(4 466)">
<title>Graphical Class Hierarchy</title>
<!-- Node0 -->
<g id="Node000000" class="node">
<title>Node0</title>
<g id="a_Node000000"><a xlink:href="classAbstractHdf5Converter.html" target="_top" xlink:title=" ">
<polygon fill="white" stroke="#666666" points="589,-366 418,-366 418,-336 589,-336 589,-366"/>
<text text-anchor="start" x="426" y="-354" font-family="Helvetica,sans-Serif" font-size="10.00">AbstractHdf5Converter</text>
<text text-anchor="middle" x="503.5" y="-343" font-family="Helvetica,sans-Serif" font-size="10.00">&lt; ELEMENT_DIM, SPACE_DIM &gt;</text>
</a>
</g>
</g>
<!-- Node1 -->
<g id="Node000001" class="node">
<title>Node1</title>
<g id="a_Node000001"><a xlink:href="classHdf5ToCmguiConverter.html" target="_top" xlink:title=" ">
<polygon fill="white" stroke="#666666" points="796.5,-366 625.5,-366 625.5,-336 796.5,-336 796.5,-366"/>
<text text-anchor="start" x="633.5" y="-354" font-family="Helvetica,sans-Serif" font-size="10.00">Hdf5ToCmguiConverter</text>
<text text-anchor="middle" x="711" y="-343" font-family="Helvetica,sans-Serif" font-size="10.00">&lt; ELEMENT_DIM, SPACE_DIM &gt;</text>
</a>
</g>
</g>
<!-- Node0&#45;&gt;Node1 -->
<g id="edge269_Node000000_Node000001" class="edge">
<title>Node0&#45;&gt;Node1</title>
<g id="a_edge269_Node000000_Node000001"><a xlink:title=" ">
<path fill="none" stroke="#63b8ff" d="M599.41,-351C608.09,-351 616.84,-351 625.42,-351"/>
<polygon fill="#63b8ff" stroke="#63b8ff" points="599.27,-347.5 589.27,-351 599.27,-354.5 599.27,-347.5"/>
</a>
</g>
</g>
<!-- Node2 -->
<g id="Node000002" class="node">
<title>Node2</title>
<g id="a_Node000002"><a xlink:href="classHdf5ToMeshalyzerConverter.html" target="_top" xlink:title=" ">
<polygon fill="white" stroke="#666666" points="796.5,-318 625.5,-318 625.5,-288 796.5,-288 796.5,-318"/>
<text text-anchor="start" x="633.5" y="-306" font-family="Helvetica,sans-Serif" font-size="10.00">Hdf5ToMeshalyzerConverter</text>
<text text-anchor="middle" x="711" y="-295" font-family="Helvetica,sans-Serif" font-size="10.00">&lt; ELEMENT_DIM, SPACE_DIM &gt;</text>
</a>
</g>
</g>
<!-- Node0&#45;&gt;Node2 -->
<g id="edge270_Node000000_Node000002" class="edge">
<title>Node0&#45;&gt;Node2</title>
<g id="a_edge270_Node000000_Node000002"><a xlink:title=" ">
<path fill="none" stroke="#63b8ff" d="M578.88,-333.63C600.78,-328.51 624.56,-322.96 645.77,-318"/>
<polygon fill="#63b8ff" stroke="#63b8ff" points="577.9,-330.26 568.96,-335.94 579.49,-337.08 577.9,-330.26"/>
</a>
</g>
</g>
<!-- Node3 -->
<g id="Node000003" class="node">
<title>Node3</title>
<g id="a_Node000003"><a xlink:href="classHdf5ToTxtConverter.html" target="_top" xlink:title=" ">
<polygon fill="white" stroke="#666666" points="796.5,-462 625.5,-462 625.5,-432 796.5,-432 796.5,-462"/>
<text text-anchor="start" x="633.5" y="-450" font-family="Helvetica,sans-Serif" font-size="10.00">Hdf5ToTxtConverter</text>
<text text-anchor="middle" x="711" y="-439" font-family="Helvetica,sans-Serif" font-size="10.00">&lt; ELEMENT_DIM, SPACE_DIM &gt;</text>
</a>
</g>
</g>
<!-- Node0&#45;&gt;Node3 -->
<g id="edge271_Node000000_Node000003" class="edge">
<title>Node0&#45;&gt;Node3</title>
<g id="a_edge271_Node000000_Node000003"><a xlink:title=" ">
<path fill="none" stroke="#63b8ff" d="M534.31,-371.85C558,-387.65 592.45,-408.97 625,-423 632.6,-426.28 640.78,-429.24 648.95,-431.87"/>
<polygon fill="#63b8ff" stroke="#63b8ff" points="536.03,-368.78 525.78,-366.08 532.11,-374.58 536.03,-368.78"/>
</a>
</g>
</g>
<!-- Node4 -->
<g id="Node000004" class="node">
<title>Node4</title>
<g id="a_Node000004"><a xlink:href="classHdf5ToVtkConverter.html" target="_top" xlink:title=" ">
<polygon fill="white" stroke="#666666" points="796.5,-414 625.5,-414 625.5,-384 796.5,-384 796.5,-414"/>
<text text-anchor="start" x="633.5" y="-402" font-family="Helvetica,sans-Serif" font-size="10.00">Hdf5ToVtkConverter</text>
<text text-anchor="middle" x="711" y="-391" font-family="Helvetica,sans-Serif" font-size="10.00">&lt; ELEMENT_DIM, SPACE_DIM &gt;</text>
</a>
</g>
</g>
<!-- Node0&#45;&gt;Node4 -->
<g id="edge272_Node000000_Node000004" class="edge">
<title>Node0&#45;&gt;Node4</title>
<g id="a_edge272_Node000000_Node000004"><a xlink:title=" ">
<path fill="none" stroke="#63b8ff" d="M578.88,-368.37C600.78,-373.49 624.56,-379.04 645.77,-384"/>
<polygon fill="#63b8ff" stroke="#63b8ff" points="579.49,-364.92 568.96,-366.06 577.9,-371.74 579.49,-364.92"/>
</a>
</g>
</g>
<!-- Node5 -->
<g id="Node000005" class="node">
<title>Node5</title>
<g id="a_Node000005"><a xlink:href="classHdf5ToXdmfConverter.html" target="_top" xlink:title=" ">
<polygon fill="white" stroke="#666666" points="796.5,-270 625.5,-270 625.5,-240 796.5,-240 796.5,-270"/>
<text text-anchor="start" x="633.5" y="-258" font-family="Helvetica,sans-Serif" font-size="10.00">Hdf5ToXdmfConverter</text>
<text text-anchor="middle" x="711" y="-247" font-family="Helvetica,sans-Serif" font-size="10.00">&lt; ELEMENT_DIM, SPACE_DIM &gt;</text>
</a>
</g>
</g>
<!-- Node0&#45;&gt;Node5 -->
<g id="edge273_Node000000_Node000005" class="edge">
<title>Node0&#45;&gt;Node5</title>
<g id="a_edge273_Node000000_Node000005"><a xlink:title=" ">
<path fill="none" stroke="#63b8ff" d="M534.31,-330.15C558,-314.35 592.45,-293.03 625,-279 632.6,-275.72 640.78,-272.76 648.95,-270.13"/>
<polygon fill="#63b8ff" stroke="#63b8ff" points="532.11,-327.42 525.78,-335.92 536.03,-333.22 532.11,-327.42"/>
</a>
</g>
</g>
<!-- Node14 -->
<g id="Node000014" class="node">
<title>Node14</title>
<g id="a_Node000014"><a xlink:href="classAbstractMeshWriter.html" target="_top" xlink:title=" ">
<polygon fill="white" stroke="#666666" points="171,-102 0,-102 0,-72 171,-72 171,-102"/>
<text text-anchor="start" x="8" y="-90" font-family="Helvetica,sans-Serif" font-size="10.00">AbstractMeshWriter</text>
<text text-anchor="middle" x="85.5" y="-79" font-family="Helvetica,sans-Serif" font-size="10.00">&lt; ELEMENT_DIM, SPACE_DIM &gt;</text>
</a>
</g>
</g>
<!-- Node7 -->
<g id="Node000007" class="node">
<title>Node7</title>
<g id="a_Node000007"><a xlink:href="classAbstractTetrahedralMeshWriter.html" target="_top" xlink:title=" ">
<polygon fill="white" stroke="#666666" points="380,-150 209,-150 209,-120 380,-120 380,-150"/>
<text text-anchor="start" x="217" y="-138" font-family="Helvetica,sans-Serif" font-size="10.00">AbstractTetrahedralMeshWriter</text>
<text text-anchor="middle" x="294.5" y="-127" font-family="Helvetica,sans-Serif" font-size="10.00">&lt; ELEMENT_DIM, SPACE_DIM &gt;</text>
</a>
</g>
</g>
<!-- Node14&#45;&gt;Node7 -->
<g id="edge274_Node000014_Node000007" class="edge">
<title>Node14&#45;&gt;Node7</title>
<g id="a_edge274_Node000014_Node000007"><a xlink:title=" ">
<path fill="none" stroke="#63b8ff" d="M161.42,-104.37C183.49,-109.49 207.43,-115.04 228.8,-120"/>
<polygon fill="#63b8ff" stroke="#63b8ff" points="161.96,-100.91 151.43,-102.06 160.38,-107.72 161.96,-100.91"/>
</a>
</g>
</g>
<!-- Node15 -->
<g id="Node000015" class="node">
<title>Node15</title>
<g id="a_Node000015"><a xlink:href="classTrapezoidEdgeVertexMeshWriter.html" target="_top" xlink:title=" ">
<polygon fill="white" stroke="#666666" points="382,-102 207,-102 207,-72 382,-72 382,-102"/>
<text text-anchor="start" x="215" y="-90" font-family="Helvetica,sans-Serif" font-size="10.00">TrapezoidEdgeVertexMeshWriter</text>
<text text-anchor="middle" x="294.5" y="-79" font-family="Helvetica,sans-Serif" font-size="10.00">&lt; ELEMENT_DIM, SPACE_DIM &gt;</text>
</a>
</g>
</g>
<!-- Node14&#45;&gt;Node15 -->
<g id="edge283_Node000014_Node000015" class="edge">
<title>Node14&#45;&gt;Node15</title>
<g id="a_edge283_Node000014_Node000015"><a xlink:title=" ">
<path fill="none" stroke="#63b8ff" d="M181.53,-87C189.96,-87 198.47,-87 206.83,-87"/>
<polygon fill="#63b8ff" stroke="#63b8ff" points="181.29,-83.5 171.29,-87 181.29,-90.5 181.29,-83.5"/>
</a>
</g>
</g>
<!-- Node16 -->
<g id="Node000016" class="node">
<title>Node16</title>
<g id="a_Node000016"><a xlink:href="classVertexMeshWriter.html" target="_top" xlink:title=" ">
<polygon fill="white" stroke="#666666" points="375,-54 214,-54 214,-24 375,-24 375,-54"/>
<text text-anchor="start" x="222" y="-42" font-family="Helvetica,sans-Serif" font-size="10.00">VertexMeshWriter&lt; ELEMENT</text>
<text text-anchor="middle" x="294.5" y="-31" font-family="Helvetica,sans-Serif" font-size="10.00">_DIM, SPACE_DIM &gt;</text>
</a>
</g>
</g>
<!-- Node14&#45;&gt;Node16 -->
<g id="edge284_Node000014_Node000016" class="edge">
<title>Node14&#45;&gt;Node16</title>
<g id="a_edge284_Node000014_Node000016"><a xlink:title=" ">
<path fill="none" stroke="#63b8ff" d="M161.42,-69.63C183.49,-64.51 207.43,-58.96 228.8,-54"/>
<polygon fill="#63b8ff" stroke="#63b8ff" points="160.38,-66.28 151.43,-71.94 161.96,-73.09 160.38,-66.28"/>
</a>
</g>
</g>
<!-- Node8 -->
<g id="Node000008" class="node">
<title>Node8</title>
<g id="a_Node000008"><a xlink:href="classCmguiMeshWriter.html" target="_top" xlink:title=" ">
<polygon fill="white" stroke="#666666" points="572.5,-222 434.5,-222 434.5,-192 572.5,-192 572.5,-222"/>
<text text-anchor="start" x="442.5" y="-210" font-family="Helvetica,sans-Serif" font-size="10.00">CmguiMeshWriter&lt; DIM,</text>
<text text-anchor="middle" x="503.5" y="-199" font-family="Helvetica,sans-Serif" font-size="10.00"> DIM &gt;</text>
</a>
</g>
</g>
<!-- Node7&#45;&gt;Node8 -->
<g id="edge275_Node000007_Node000008" class="edge">
<title>Node7&#45;&gt;Node8</title>
<g id="a_edge275_Node000007_Node000008"><a xlink:title=" ">
<path fill="none" stroke="#63b8ff" d="M340.82,-153.97C363.75,-163.26 392.15,-174.29 418,-183 427.1,-186.07 436.85,-189.08 446.36,-191.88"/>
<polygon fill="#63b8ff" stroke="#63b8ff" points="341.93,-150.64 331.34,-150.1 339.28,-157.12 341.93,-150.64"/>
</a>
</g>
</g>
<!-- Node10 -->
<g id="Node000010" class="node">
<title>Node10</title>
<g id="a_Node000010"><a xlink:href="classCmguiMeshWriter.html" target="_top" xlink:title=" ">
<polygon fill="white" stroke="#666666" points="584,-174 423,-174 423,-144 584,-144 584,-174"/>
<text text-anchor="start" x="431" y="-162" font-family="Helvetica,sans-Serif" font-size="10.00">CmguiMeshWriter&lt; ELEMENT</text>
<text text-anchor="middle" x="503.5" y="-151" font-family="Helvetica,sans-Serif" font-size="10.00">_DIM, SPACE_DIM &gt;</text>
</a>
</g>
</g>
<!-- Node7&#45;&gt;Node10 -->
<g id="edge277_Node000007_Node000010" class="edge">
<title>Node7&#45;&gt;Node10</title>
<g id="a_edge277_Node000007_Node000010"><a xlink:title=" ">
<path fill="none" stroke="#63b8ff" d="M390.25,-145.99C401.14,-147.25 412.17,-148.53 422.84,-149.76"/>
<polygon fill="#63b8ff" stroke="#63b8ff" points="390.63,-142.51 380.29,-144.83 389.82,-149.46 390.63,-142.51"/>
</a>
</g>
</g>
<!-- Node11 -->
<g id="Node000011" class="node">
<title>Node11</title>
<g id="a_Node000011"><a xlink:href="classMeshalyzerMeshWriter.html" target="_top" xlink:title=" ">
<polygon fill="white" stroke="#666666" points="589,-126 418,-126 418,-96 589,-96 589,-126"/>
<text text-anchor="start" x="426" y="-114" font-family="Helvetica,sans-Serif" font-size="10.00">MeshalyzerMeshWriter</text>
<text text-anchor="middle" x="503.5" y="-103" font-family="Helvetica,sans-Serif" font-size="10.00">&lt; ELEMENT_DIM, SPACE_DIM &gt;</text>
</a>
</g>
</g>
<!-- Node7&#45;&gt;Node11 -->
<g id="edge278_Node000007_Node000011" class="edge">
<title>Node7&#45;&gt;Node11</title>
<g id="a_edge278_Node000007_Node000011"><a xlink:title=" ">
<path fill="none" stroke="#63b8ff" d="M390.23,-124.02C399.44,-122.95 408.74,-121.87 417.84,-120.82"/>
<polygon fill="#63b8ff" stroke="#63b8ff" points="389.82,-120.54 380.29,-125.17 390.63,-127.49 389.82,-120.54"/>
</a>
</g>
</g>
<!-- Node12 -->
<g id="Node000012" class="node">
<title>Node12</title>
<g id="a_Node000012"><a xlink:href="classTrianglesMeshWriter.html" target="_top" xlink:title=" ">
<polygon fill="white" stroke="#666666" points="589,-78 418,-78 418,-48 589,-48 589,-78"/>
<text text-anchor="start" x="426" y="-66" font-family="Helvetica,sans-Serif" font-size="10.00">TrianglesMeshWriter</text>
<text text-anchor="middle" x="503.5" y="-55" font-family="Helvetica,sans-Serif" font-size="10.00">&lt; ELEMENT_DIM, SPACE_DIM &gt;</text>
</a>
</g>
</g>
<!-- Node7&#45;&gt;Node12 -->
<g id="edge279_Node000007_Node000012" class="edge">
<title>Node7&#45;&gt;Node12</title>
<g id="a_edge279_Node000007_Node000012"><a xlink:title=" ">
<path fill="none" stroke="#63b8ff" d="M368.38,-116.61C373.05,-114.87 377.62,-113 382,-111 399.48,-103 400.54,-95.06 418,-87 425.2,-83.68 432.96,-80.71 440.76,-78.1"/>
<polygon fill="#63b8ff" stroke="#63b8ff" points="366.99,-113.39 358.71,-119.99 369.3,-120 366.99,-113.39"/>
</a>
</g>
</g>
<!-- Node13 -->
<g id="Node000013" class="node">
<title>Node13</title>
<g id="a_Node000013"><a xlink:href="classVtkMeshWriter.html" target="_top" xlink:title=" ">
<polygon fill="white" stroke="#666666" points="576.5,-30 430.5,-30 430.5,0 576.5,0 576.5,-30"/>
<text text-anchor="start" x="438.5" y="-18" font-family="Helvetica,sans-Serif" font-size="10.00">VtkMeshWriter&lt; ELEMENT</text>
<text text-anchor="middle" x="503.5" y="-7" font-family="Helvetica,sans-Serif" font-size="10.00">_DIM, SPACE_DIM &gt;</text>
</a>
</g>
</g>
<!-- Node7&#45;&gt;Node13 -->
<g id="edge280_Node000007_Node000013" class="edge">
<title>Node7&#45;&gt;Node13</title>
<g id="a_edge280_Node000007_Node000013"><a xlink:title=" ">
<path fill="none" stroke="#63b8ff" d="M377.08,-114.69C378.78,-113.53 380.42,-112.3 382,-111 409.62,-88.26 390.45,-61.83 418,-39 422.11,-35.59 426.68,-32.67 431.5,-30.16"/>
<polygon fill="#63b8ff" stroke="#63b8ff" points="374.99,-111.86 368.18,-119.98 378.56,-117.88 374.99,-111.86"/>
</a>
</g>
</g>
<!-- Node6 -->
<g id="Node000006" class="node">
<title>Node6</title>
<g id="a_Node000006"><a xlink:href="classXdmfMeshWriter.html" target="_top" xlink:title=" ">
<polygon fill="white" stroke="#666666" points="581.5,-270 425.5,-270 425.5,-240 581.5,-240 581.5,-270"/>
<text text-anchor="start" x="433.5" y="-258" font-family="Helvetica,sans-Serif" font-size="10.00">XdmfMeshWriter&lt; ELEMENT</text>
<text text-anchor="middle" x="503.5" y="-247" font-family="Helvetica,sans-Serif" font-size="10.00">_DIM, SPACE_DIM &gt;</text>
</a>
</g>
</g>
<!-- Node7&#45;&gt;Node6 -->
<g id="edge281_Node000007_Node000006" class="edge">
<title>Node7&#45;&gt;Node6</title>
<g id="a_edge281_Node000007_Node000006"><a xlink:title=" ">
<path fill="none" stroke="#63b8ff" d="M318.04,-157.14C341.29,-178.83 379.49,-211.4 418,-231 424.66,-234.39 431.87,-237.36 439.17,-239.95"/>
<polygon fill="#63b8ff" stroke="#63b8ff" points="320.42,-154.57 310.75,-150.23 315.6,-159.65 320.42,-154.57"/>
</a>
</g>
</g>
<!-- Node9 -->
<g id="Node000009" class="node">
<title>Node9</title>
<g id="a_Node000009"><a xlink:href="classCmguiDeformedSolutionsWriter.html" target="_top" xlink:title=" ">
<polygon fill="white" stroke="#666666" points="797,-222 625,-222 625,-192 797,-192 797,-222"/>
<text text-anchor="start" x="633" y="-210" font-family="Helvetica,sans-Serif" font-size="10.00">CmguiDeformedSolutionsWriter</text>
<text text-anchor="middle" x="711" y="-199" font-family="Helvetica,sans-Serif" font-size="10.00">&lt; DIM &gt;</text>
</a>
</g>
</g>
<!-- Node8&#45;&gt;Node9 -->
<g id="edge276_Node000008_Node000009" class="edge">
<title>Node8&#45;&gt;Node9</title>
<g id="a_edge276_Node000008_Node000009"><a xlink:title=" ">
<path fill="none" stroke="#63b8ff" d="M582.98,-207C596.67,-207 610.97,-207 624.84,-207"/>
<polygon fill="#63b8ff" stroke="#63b8ff" points="582.64,-203.5 572.64,-207 582.64,-210.5 582.64,-203.5"/>
</a>
</g>
</g>
<!-- Node6&#45;&gt;Node5 -->
<g id="edge282_Node000006_Node000005" class="edge">
<title>Node6&#45;&gt;Node5</title>
<g id="a_edge282_Node000006_Node000005"><a xlink:title=" ">
<path fill="none" stroke="#63b8ff" d="M591.72,-255C602.82,-255 614.17,-255 625.23,-255"/>
<polygon fill="#63b8ff" stroke="#63b8ff" points="591.61,-251.5 581.61,-255 591.61,-258.5 591.61,-251.5"/>
</a>
</g>
</g>
</g>
</svg>
