<?xml version="1.0" encoding="UTF-8" standalone="no"?>
<!DOCTYPE svg PUBLIC "-//W3C//DTD SVG 1.1//EN"
 "http://www.w3.org/Graphics/SVG/1.1/DTD/svg11.dtd">
<!-- Generated by graphviz version 2.43.0 (0)
 -->
<!-- Title: CombinedOdeSystemInformation::InstancePointers Pages: 1 -->
<svg width="372pt" height="186pt"
 viewBox="0.00 0.00 372.00 186.00" xmlns="http://www.w3.org/2000/svg" xmlns:xlink="http://www.w3.org/1999/xlink">
<g id="graph0" class="graph" transform="scale(1 1) rotate(0) translate(4 182)">
<title>CombinedOdeSystemInformation::InstancePointers</title>
<!-- Node1 -->
<g id="Node000001" class="node">
<title>Node1</title>
<g id="a_Node000001"><a xlink:title=" ">
<polygon fill="#999999" stroke="transparent" points="271,-60 98,-60 98,0 271,0 271,-60"/>
<text text-anchor="start" x="103.5" y="-48" font-family="Helvetica,sans-Serif" font-size="10.00">CombinedOdeSystemInformation</text>
<text text-anchor="start" x="141" y="-37" font-family="Helvetica,sans-Serif" font-size="10.00">::InstancePointers</text>
<text text-anchor="start" x="183" y="-22" font-family="Helvetica,sans-Serif" font-size="10.00"> </text>
<text text-anchor="start" x="183" y="-7" font-family="Helvetica,sans-Serif" font-size="10.00"> </text>
<polygon fill="#666666" stroke="#666666" points="98.5,-32 98.5,-32 271.5,-32 271.5,-32 98.5,-32"/>
<polygon fill="#666666" stroke="#666666" points="98.5,-17 98.5,-17 271.5,-17 271.5,-17 98.5,-17"/>
<polygon fill="none" stroke="#666666" points="98,0 98,-60 271,-60 271,0 98,0"/>
</a>
</g>
</g>
<!-- Node2 -->
<g id="Node000002" class="node">
<title>Node2</title>
<g id="a_Node000002"><a xlink:title=" ">
<polygon fill="white" stroke="transparent" points="179,-172.5 0,-172.5 0,-112.5 179,-112.5 179,-172.5"/>
<text text-anchor="start" x="5.5" y="-160.5" font-family="Helvetica,sans-Serif" font-size="10.00">shared_ptr&lt; CombinedOdeSystem</text>
<text text-anchor="start" x="55.5" y="-149.5" font-family="Helvetica,sans-Serif" font-size="10.00">Information &gt;</text>
<text text-anchor="start" x="88" y="-134.5" font-family="Helvetica,sans-Serif" font-size="10.00"> </text>
<text text-anchor="start" x="88" y="-119.5" font-family="Helvetica,sans-Serif" font-size="10.00"> </text>
<polygon fill="#bfbfbf" stroke="#bfbfbf" points="0.5,-144.5 0.5,-144.5 179.5,-144.5 179.5,-144.5 0.5,-144.5"/>
<polygon fill="#bfbfbf" stroke="#bfbfbf" points="0.5,-129.5 0.5,-129.5 179.5,-129.5 179.5,-129.5 0.5,-129.5"/>
<polygon fill="none" stroke="#bfbfbf" points="0,-112.5 0,-172.5 179,-172.5 179,-112.5 0,-112.5"/>
</a>
</g>
</g>
<!-- Node2&#45;&gt;Node1 -->
<g id="edge1_Node000001_Node000002" class="edge">
<title>Node2&#45;&gt;Node1</title>
<g id="a_edge1_Node000001_Node000002"><a xlink:title=" ">
<path fill="none" stroke="#63b8ff" d="M114.46,-112.47C125.72,-99.37 139.17,-83.73 151.26,-69.66"/>
<polygon fill="none" stroke="#63b8ff" points="151.55,-69.32 152.43,-62.16 159.38,-60.22 158.5,-67.38 151.55,-69.32"/>
</a>
</g>
<text text-anchor="middle" x="182.5" y="-81" font-family="Helvetica,sans-Serif" font-size="10.00" fill="grey"> +pInfoInstance</text>
</g>
<!-- Node3 -->
<g id="Node000003" class="node">
<title>Node3</title>
<g id="a_Node000003"><a xlink:title=" ">
<polygon fill="white" stroke="transparent" points="364,-178 197,-178 197,-107 364,-107 364,-178"/>
<text text-anchor="start" x="202.5" y="-165.5" font-family="Helvetica,sans-Serif" font-size="10.00">vector&lt; boost::shared</text>
<text text-anchor="start" x="202.5" y="-154.5" font-family="Helvetica,sans-Serif" font-size="10.00">_ptr&lt; const AbstractOdeSystem</text>
<text text-anchor="start" x="241" y="-143.5" font-family="Helvetica,sans-Serif" font-size="10.00">Information &gt; &gt;</text>
<text text-anchor="start" x="279" y="-128.5" font-family="Helvetica,sans-Serif" font-size="10.00"> </text>
<text text-anchor="start" x="279" y="-113.5" font-family="Helvetica,sans-Serif" font-size="10.00"> </text>
<polygon fill="#bfbfbf" stroke="#bfbfbf" points="197.5,-138.5 197.5,-138.5 364.5,-138.5 364.5,-138.5 197.5,-138.5"/>
<polygon fill="#bfbfbf" stroke="#bfbfbf" points="197.5,-123.5 197.5,-123.5 364.5,-123.5 364.5,-123.5 197.5,-123.5"/>
<polygon fill="none" stroke="#bfbfbf" points="197,-107 197,-178 364,-178 364,-107 197,-107"/>
</a>
</g>
</g>
<!-- Node3&#45;&gt;Node1 -->
<g id="edge2_Node000001_Node000003" class="edge">
<title>Node3&#45;&gt;Node1</title>
<g id="a_edge2_Node000001_Node000003"><a xlink:title=" ">
<path fill="none" stroke="#63b8ff" d="M250.55,-106.88C242.43,-97.5 233.63,-87.36 225.5,-78 223.06,-75.19 220.53,-72.29 217.99,-69.36"/>
<polygon fill="none" stroke="#63b8ff" points="217.77,-69.12 210.81,-67.22 209.89,-60.07 216.84,-61.96 217.77,-69.12"/>
</a>
</g>
<text text-anchor="middle" x="295.5" y="-81" font-family="Helvetica,sans-Serif" font-size="10.00" fill="grey"> +subsystemInformation</text>
</g>
</g>
</svg>
