<?xml version="1.0" encoding="UTF-8" standalone="no"?>
<!DOCTYPE svg PUBLIC "-//W3C//DTD SVG 1.1//EN"
 "http://www.w3.org/Graphics/SVG/1.1/DTD/svg11.dtd">
<!-- Generated by graphviz version 2.43.0 (0)
 -->
<!-- Title: CvodeData_ Pages: 1 -->
<svg width="464pt" height="1345pt"
 viewBox="0.00 0.00 463.50 1345.00" xmlns="http://www.w3.org/2000/svg" xmlns:xlink="http://www.w3.org/1999/xlink">
<g id="graph0" class="graph" transform="scale(1 1) rotate(0) translate(4 1341)">
<title>CvodeData_</title>
<!-- Node1 -->
<g id="Node000001" class="node">
<title>Node1</title>
<g id="a_Node000001"><a xlink:title=" ">
<polygon fill="#999999" stroke="transparent" points="227.5,-49 157.5,-49 157.5,0 227.5,0 227.5,-49"/>
<text text-anchor="start" x="162.5" y="-36.5" font-family="Helvetica,sans-Serif" font-size="10.00">CvodeData_</text>
<text text-anchor="start" x="190.5" y="-21.5" font-family="Helvetica,sans-Serif" font-size="10.00"> </text>
<text text-anchor="start" x="190.5" y="-6.5" font-family="Helvetica,sans-Serif" font-size="10.00"> </text>
<polygon fill="#666666" stroke="#666666" points="157.5,-31.5 157.5,-31.5 227.5,-31.5 227.5,-31.5 157.5,-31.5"/>
<polygon fill="#666666" stroke="#666666" points="157.5,-16.5 157.5,-16.5 227.5,-16.5 227.5,-16.5 157.5,-16.5"/>
<polygon fill="none" stroke="#666666" points="157.5,0 157.5,-49 227.5,-49 227.5,0 157.5,0"/>
</a>
</g>
</g>
<!-- Node2 -->
<g id="Node000002" class="node">
<title>Node2</title>
<g id="a_Node000002"><a xlink:title=" ">
<polygon fill="white" stroke="transparent" points="226,-205 113,-205 113,-156 226,-156 226,-205"/>
<text text-anchor="start" x="118.5" y="-192.5" font-family="Helvetica,sans-Serif" font-size="10.00">vector&lt; realtype &gt; *</text>
<text text-anchor="start" x="168" y="-177.5" font-family="Helvetica,sans-Serif" font-size="10.00"> </text>
<text text-anchor="start" x="168" y="-162.5" font-family="Helvetica,sans-Serif" font-size="10.00"> </text>
<polygon fill="#bfbfbf" stroke="#bfbfbf" points="113.5,-187.5 113.5,-187.5 226.5,-187.5 226.5,-187.5 113.5,-187.5"/>
<polygon fill="#bfbfbf" stroke="#bfbfbf" points="113.5,-172.5 113.5,-172.5 226.5,-172.5 226.5,-172.5 113.5,-172.5"/>
<polygon fill="none" stroke="#bfbfbf" points="113,-156 113,-205 226,-205 226,-156 113,-156"/>
</a>
</g>
</g>
<!-- Node2&#45;&gt;Node1 -->
<g id="edge1_Node000001_Node000002" class="edge">
<title>Node2&#45;&gt;Node1</title>
<g id="a_edge1_Node000001_Node000002"><a xlink:title=" ">
<path fill="none" stroke="#63b8ff" d="M173.04,-155.77C176.81,-130.57 182.81,-90.41 187.15,-61.34"/>
<polygon fill="none" stroke="#63b8ff" points="187.18,-61.12 184.11,-54.6 188.95,-49.25 192.02,-55.78 187.18,-61.12"/>
</a>
</g>
<text text-anchor="middle" x="198.5" y="-70" font-family="Helvetica,sans-Serif" font-size="10.00" fill="grey"> +pY</text>
</g>
<!-- Node3 -->
<g id="Node000003" class="node">
<title>Node3</title>
<g id="a_Node000003"><a xlink:href="classAbstractOdeSystem.html" target="_top" xlink:title=" ">
<polygon fill="white" stroke="transparent" points="392.5,-265 244.5,-265 244.5,-96 392.5,-96 392.5,-265"/>
<text text-anchor="start" x="270" y="-252.5" font-family="Helvetica,sans-Serif" font-size="10.00">AbstractOdeSystem</text>
<text text-anchor="start" x="316.5" y="-237.5" font-family="Helvetica,sans-Serif" font-size="10.00"> </text>
<text text-anchor="start" x="248.5" y="-222.5" font-family="Helvetica,sans-Serif" font-size="10.00">+</text>
<text text-anchor="start" x="261.5" y="-222.5" font-family="Helvetica,sans-Serif" font-size="10.00">AbstractOdeSystem()</text>
<text text-anchor="start" x="248.5" y="-207.5" font-family="Helvetica,sans-Serif" font-size="10.00">+</text>
<text text-anchor="start" x="261.5" y="-207.5" font-family="Helvetica,sans-Serif" font-size="10.00">~AbstractOdeSystem()</text>
<text text-anchor="start" x="248.5" y="-192.5" font-family="Helvetica,sans-Serif" font-size="10.00">+</text>
<text text-anchor="start" x="261.5" y="-192.5" font-family="Helvetica,sans-Serif" font-size="10.00">EvaluateYDerivatives()</text>
<text text-anchor="start" x="248.5" y="-177.5" font-family="Helvetica,sans-Serif" font-size="10.00">+</text>
<text text-anchor="start" x="261.5" y="-177.5" font-family="Helvetica,sans-Serif" font-size="10.00">CalculateStoppingEvent()</text>
<text text-anchor="start" x="248.5" y="-162.5" font-family="Helvetica,sans-Serif" font-size="10.00">+</text>
<text text-anchor="start" x="261.5" y="-162.5" font-family="Helvetica,sans-Serif" font-size="10.00">CalculateRootFunction()</text>
<text text-anchor="start" x="248.5" y="-147.5" font-family="Helvetica,sans-Serif" font-size="10.00">+</text>
<text text-anchor="start" x="261.5" y="-147.5" font-family="Helvetica,sans-Serif" font-size="10.00">GetUseAnalyticJacobian()</text>
<text text-anchor="start" x="248.5" y="-132.5" font-family="Helvetica,sans-Serif" font-size="10.00">+</text>
<text text-anchor="start" x="261.5" y="-132.5" font-family="Helvetica,sans-Serif" font-size="10.00">rGetConstStateVariables()</text>
<text text-anchor="start" x="251" y="-117.5" font-family="Helvetica,sans-Serif" font-size="10.00">&#45;</text>
<text text-anchor="start" x="261.5" y="-117.5" font-family="Helvetica,sans-Serif" font-size="10.00">save()</text>
<text text-anchor="start" x="251" y="-102.5" font-family="Helvetica,sans-Serif" font-size="10.00">&#45;</text>
<text text-anchor="start" x="261.5" y="-102.5" font-family="Helvetica,sans-Serif" font-size="10.00">load()</text>
<polygon fill="#666666" stroke="#666666" points="244.5,-247.5 244.5,-247.5 392.5,-247.5 392.5,-247.5 244.5,-247.5"/>
<polygon fill="#666666" stroke="#666666" points="244.5,-232.5 244.5,-232.5 392.5,-232.5 392.5,-232.5 244.5,-232.5"/>
<polygon fill="none" stroke="#666666" points="244.5,-96 244.5,-265 392.5,-265 392.5,-96 244.5,-96"/>
</a>
</g>
</g>
<!-- Node3&#45;&gt;Node1 -->
<g id="edge2_Node000001_Node000003" class="edge">
<title>Node3&#45;&gt;Node1</title>
<g id="a_edge2_Node000001_Node000003"><a xlink:title=" ">
<path fill="none" stroke="#63b8ff" d="M249.97,-95.74C239.27,-82.67 228.79,-69.86 219.77,-58.84"/>
<polygon fill="none" stroke="#63b8ff" points="219.54,-58.54 212.64,-56.43 211.94,-49.26 218.83,-51.37 219.54,-58.54"/>
</a>
</g>
<text text-anchor="middle" x="261" y="-70" font-family="Helvetica,sans-Serif" font-size="10.00" fill="grey"> +pSystem</text>
</g>
<!-- Node4 -->
<g id="Node000004" class="node">
<title>Node4</title>
<g id="a_Node000004"><a xlink:href="classAbstractParameterisedSystem.html" target="_top" xlink:title=" ">
<polygon fill="white" stroke="transparent" points="324,-597 147,-597 147,-312 324,-312 324,-597"/>
<text text-anchor="start" x="162" y="-584.5" font-family="Helvetica,sans-Serif" font-size="10.00">AbstractParameterisedSystem</text>
<text text-anchor="start" x="171" y="-573.5" font-family="Helvetica,sans-Serif" font-size="10.00">&lt; std::vector&lt; double &gt; &gt;</text>
<text text-anchor="start" x="234" y="-558.5" font-family="Helvetica,sans-Serif" font-size="10.00"> </text>
<text text-anchor="start" x="151.5" y="-543.5" font-family="Helvetica,sans-Serif" font-size="10.00">+</text>
<text text-anchor="start" x="164.5" y="-543.5" font-family="Helvetica,sans-Serif" font-size="10.00">AbstractParameterisedSystem()</text>
<text text-anchor="start" x="151.5" y="-528.5" font-family="Helvetica,sans-Serif" font-size="10.00">+</text>
<text text-anchor="start" x="164.5" y="-528.5" font-family="Helvetica,sans-Serif" font-size="10.00">rGetStateVariables()</text>
<text text-anchor="start" x="151.5" y="-513.5" font-family="Helvetica,sans-Serif" font-size="10.00">+</text>
<text text-anchor="start" x="164.5" y="-513.5" font-family="Helvetica,sans-Serif" font-size="10.00">GetStateVariables()</text>
<text text-anchor="start" x="151.5" y="-498.5" font-family="Helvetica,sans-Serif" font-size="10.00">+</text>
<text text-anchor="start" x="164.5" y="-498.5" font-family="Helvetica,sans-Serif" font-size="10.00">SetStateVariables()</text>
<text text-anchor="start" x="151.5" y="-483.5" font-family="Helvetica,sans-Serif" font-size="10.00">+</text>
<text text-anchor="start" x="164.5" y="-483.5" font-family="Helvetica,sans-Serif" font-size="10.00">GetStateVariable()</text>
<text text-anchor="start" x="151.5" y="-468.5" font-family="Helvetica,sans-Serif" font-size="10.00">+</text>
<text text-anchor="start" x="164.5" y="-468.5" font-family="Helvetica,sans-Serif" font-size="10.00">GetStateVariable()</text>
<text text-anchor="start" x="151.5" y="-453.5" font-family="Helvetica,sans-Serif" font-size="10.00">+</text>
<text text-anchor="start" x="164.5" y="-453.5" font-family="Helvetica,sans-Serif" font-size="10.00">SetStateVariable()</text>
<text text-anchor="start" x="151.5" y="-438.5" font-family="Helvetica,sans-Serif" font-size="10.00">+</text>
<text text-anchor="start" x="164.5" y="-438.5" font-family="Helvetica,sans-Serif" font-size="10.00">SetStateVariable()</text>
<text text-anchor="start" x="151.5" y="-423.5" font-family="Helvetica,sans-Serif" font-size="10.00">+</text>
<text text-anchor="start" x="164.5" y="-423.5" font-family="Helvetica,sans-Serif" font-size="10.00">VerifyStateVariables()</text>
<text text-anchor="start" x="151.5" y="-408.5" font-family="Helvetica,sans-Serif" font-size="10.00">+</text>
<text text-anchor="start" x="164.5" y="-408.5" font-family="Helvetica,sans-Serif" font-size="10.00">SetDefaultInitialConditions()</text>
<text text-anchor="start" x="164.5" y="-393.5" font-family="Helvetica,sans-Serif" font-size="10.00">and 13 more...</text>
<text text-anchor="start" x="151.5" y="-378.5" font-family="Helvetica,sans-Serif" font-size="10.00">#</text>
<text text-anchor="start" x="164.5" y="-378.5" font-family="Helvetica,sans-Serif" font-size="10.00">DumpState()</text>
<text text-anchor="start" x="151.5" y="-363.5" font-family="Helvetica,sans-Serif" font-size="10.00">#</text>
<text text-anchor="start" x="164.5" y="-363.5" font-family="Helvetica,sans-Serif" font-size="10.00">DumpState()</text>
<text text-anchor="start" x="151.5" y="-348.5" font-family="Helvetica,sans-Serif" font-size="10.00">#</text>
<text text-anchor="start" x="164.5" y="-348.5" font-family="Helvetica,sans-Serif" font-size="10.00">DumpState()</text>
<text text-anchor="start" x="151.5" y="-333.5" font-family="Helvetica,sans-Serif" font-size="10.00">#</text>
<text text-anchor="start" x="164.5" y="-333.5" font-family="Helvetica,sans-Serif" font-size="10.00">CheckParametersOnLoad()</text>
<text text-anchor="start" x="154" y="-318.5" font-family="Helvetica,sans-Serif" font-size="10.00">&#45;</text>
<text text-anchor="start" x="164.5" y="-318.5" font-family="Helvetica,sans-Serif" font-size="10.00">GetStateMessage()</text>
<polygon fill="#666666" stroke="#666666" points="147.5,-568.5 147.5,-568.5 324.5,-568.5 324.5,-568.5 147.5,-568.5"/>
<polygon fill="#666666" stroke="#666666" points="147.5,-553.5 147.5,-553.5 324.5,-553.5 324.5,-553.5 147.5,-553.5"/>
<polygon fill="none" stroke="#666666" points="147,-312 147,-597 324,-597 324,-312 147,-312"/>
</a>
</g>
</g>
<!-- Node4&#45;&gt;Node3 -->
<g id="edge3_Node000003_Node000004" class="edge">
<title>Node4&#45;&gt;Node3</title>
<g id="a_edge3_Node000003_Node000004"><a xlink:title=" ">
<path fill="none" stroke="#63b8ff" d="M281.67,-302.19C285.55,-289.5 289.36,-276.98 292.99,-265.1"/>
<polygon fill="none" stroke="#63b8ff" points="278.27,-301.34 278.7,-311.92 284.97,-303.38 278.27,-301.34"/>
</a>
</g>
</g>
<!-- Node5 -->
<g id="Node000005" class="node">
<title>Node5</title>
<g id="a_Node000005"><a xlink:href="classAbstractUntemplatedParameterisedSystem.html" target="_top" xlink:title=" ">
<polygon fill="white" stroke="transparent" points="338,-1230 133,-1230 133,-998 338,-998 338,-1230"/>
<text text-anchor="start" x="148.5" y="-1218" font-family="Helvetica,sans-Serif" font-size="10.00">AbstractUntemplatedParameterised</text>
<text text-anchor="start" x="217.5" y="-1207" font-family="Helvetica,sans-Serif" font-size="10.00">System</text>
<text text-anchor="start" x="234" y="-1192" font-family="Helvetica,sans-Serif" font-size="10.00"> </text>
<text text-anchor="start" x="137.5" y="-1177" font-family="Helvetica,sans-Serif" font-size="10.00">+</text>
<text text-anchor="start" x="150.5" y="-1177" font-family="Helvetica,sans-Serif" font-size="10.00">AbstractUntemplatedParameterised</text>
<text text-anchor="start" x="150.5" y="-1166" font-family="Helvetica,sans-Serif" font-size="10.00">System()</text>
<text text-anchor="start" x="137.5" y="-1151" font-family="Helvetica,sans-Serif" font-size="10.00">+</text>
<text text-anchor="start" x="150.5" y="-1151" font-family="Helvetica,sans-Serif" font-size="10.00">~AbstractUntemplatedParameterised</text>
<text text-anchor="start" x="150.5" y="-1140" font-family="Helvetica,sans-Serif" font-size="10.00">System()</text>
<text text-anchor="start" x="137.5" y="-1125" font-family="Helvetica,sans-Serif" font-size="10.00">+</text>
<text text-anchor="start" x="150.5" y="-1125" font-family="Helvetica,sans-Serif" font-size="10.00">GetSystemInformation()</text>
<text text-anchor="start" x="137.5" y="-1110" font-family="Helvetica,sans-Serif" font-size="10.00">+</text>
<text text-anchor="start" x="150.5" y="-1110" font-family="Helvetica,sans-Serif" font-size="10.00">GetSystemName()</text>
<text text-anchor="start" x="137.5" y="-1095" font-family="Helvetica,sans-Serif" font-size="10.00">+</text>
<text text-anchor="start" x="150.5" y="-1095" font-family="Helvetica,sans-Serif" font-size="10.00">GetNumberOfAttributes()</text>
<text text-anchor="start" x="137.5" y="-1080" font-family="Helvetica,sans-Serif" font-size="10.00">+</text>
<text text-anchor="start" x="150.5" y="-1080" font-family="Helvetica,sans-Serif" font-size="10.00">HasAttribute()</text>
<text text-anchor="start" x="137.5" y="-1065" font-family="Helvetica,sans-Serif" font-size="10.00">+</text>
<text text-anchor="start" x="150.5" y="-1065" font-family="Helvetica,sans-Serif" font-size="10.00">GetAttribute()</text>
<text text-anchor="start" x="137.5" y="-1050" font-family="Helvetica,sans-Serif" font-size="10.00">+</text>
<text text-anchor="start" x="150.5" y="-1050" font-family="Helvetica,sans-Serif" font-size="10.00">GetNumberOfStateVariables()</text>
<text text-anchor="start" x="137.5" y="-1035" font-family="Helvetica,sans-Serif" font-size="10.00">+</text>
<text text-anchor="start" x="150.5" y="-1035" font-family="Helvetica,sans-Serif" font-size="10.00">rGetStateVariableNames()</text>
<text text-anchor="start" x="137.5" y="-1020" font-family="Helvetica,sans-Serif" font-size="10.00">+</text>
<text text-anchor="start" x="150.5" y="-1020" font-family="Helvetica,sans-Serif" font-size="10.00">rGetStateVariableUnits()</text>
<text text-anchor="start" x="150.5" y="-1005" font-family="Helvetica,sans-Serif" font-size="10.00">and 20 more...</text>
<polygon fill="#666666" stroke="#666666" points="133.5,-1202 133.5,-1202 338.5,-1202 338.5,-1202 133.5,-1202"/>
<polygon fill="#666666" stroke="#666666" points="133.5,-1187 133.5,-1187 338.5,-1187 338.5,-1187 133.5,-1187"/>
<polygon fill="none" stroke="#666666" points="133,-998 133,-1230 338,-1230 338,-998 133,-998"/>
</a>
</g>
</g>
<!-- Node5&#45;&gt;Node4 -->
<g id="edge4_Node000004_Node000005" class="edge">
<title>Node5&#45;&gt;Node4</title>
<g id="a_edge4_Node000004_Node000005"><a xlink:title=" ">
<path fill="none" stroke="#63b8ff" d="M235.5,-987.43C235.5,-875.91 235.5,-713.09 235.5,-597"/>
<polygon fill="none" stroke="#63b8ff" points="232,-987.72 235.5,-997.72 239,-987.72 232,-987.72"/>
</a>
</g>
</g>
<!-- Node9 -->
<g id="Node000009" class="node">
<title>Node9</title>
<g id="a_Node000009"><a xlink:href="classAbstractParameterisedSystem.html" target="_top" xlink:title=" ">
<polygon fill="white" stroke="transparent" points="177,-940 0,-940 0,-655 177,-655 177,-940"/>
<text text-anchor="start" x="15" y="-927.5" font-family="Helvetica,sans-Serif" font-size="10.00">AbstractParameterisedSystem</text>
<text text-anchor="start" x="57.5" y="-916.5" font-family="Helvetica,sans-Serif" font-size="10.00">&lt; VECTOR &gt;</text>
<text text-anchor="start" x="87" y="-901.5" font-family="Helvetica,sans-Serif" font-size="10.00"> </text>
<text text-anchor="start" x="4.5" y="-886.5" font-family="Helvetica,sans-Serif" font-size="10.00">+</text>
<text text-anchor="start" x="17.5" y="-886.5" font-family="Helvetica,sans-Serif" font-size="10.00">AbstractParameterisedSystem()</text>
<text text-anchor="start" x="4.5" y="-871.5" font-family="Helvetica,sans-Serif" font-size="10.00">+</text>
<text text-anchor="start" x="17.5" y="-871.5" font-family="Helvetica,sans-Serif" font-size="10.00">rGetStateVariables()</text>
<text text-anchor="start" x="4.5" y="-856.5" font-family="Helvetica,sans-Serif" font-size="10.00">+</text>
<text text-anchor="start" x="17.5" y="-856.5" font-family="Helvetica,sans-Serif" font-size="10.00">GetStateVariables()</text>
<text text-anchor="start" x="4.5" y="-841.5" font-family="Helvetica,sans-Serif" font-size="10.00">+</text>
<text text-anchor="start" x="17.5" y="-841.5" font-family="Helvetica,sans-Serif" font-size="10.00">SetStateVariables()</text>
<text text-anchor="start" x="4.5" y="-826.5" font-family="Helvetica,sans-Serif" font-size="10.00">+</text>
<text text-anchor="start" x="17.5" y="-826.5" font-family="Helvetica,sans-Serif" font-size="10.00">GetStateVariable()</text>
<text text-anchor="start" x="4.5" y="-811.5" font-family="Helvetica,sans-Serif" font-size="10.00">+</text>
<text text-anchor="start" x="17.5" y="-811.5" font-family="Helvetica,sans-Serif" font-size="10.00">GetStateVariable()</text>
<text text-anchor="start" x="4.5" y="-796.5" font-family="Helvetica,sans-Serif" font-size="10.00">+</text>
<text text-anchor="start" x="17.5" y="-796.5" font-family="Helvetica,sans-Serif" font-size="10.00">SetStateVariable()</text>
<text text-anchor="start" x="4.5" y="-781.5" font-family="Helvetica,sans-Serif" font-size="10.00">+</text>
<text text-anchor="start" x="17.5" y="-781.5" font-family="Helvetica,sans-Serif" font-size="10.00">SetStateVariable()</text>
<text text-anchor="start" x="4.5" y="-766.5" font-family="Helvetica,sans-Serif" font-size="10.00">+</text>
<text text-anchor="start" x="17.5" y="-766.5" font-family="Helvetica,sans-Serif" font-size="10.00">VerifyStateVariables()</text>
<text text-anchor="start" x="4.5" y="-751.5" font-family="Helvetica,sans-Serif" font-size="10.00">+</text>
<text text-anchor="start" x="17.5" y="-751.5" font-family="Helvetica,sans-Serif" font-size="10.00">SetDefaultInitialConditions()</text>
<text text-anchor="start" x="17.5" y="-736.5" font-family="Helvetica,sans-Serif" font-size="10.00">and 13 more...</text>
<text text-anchor="start" x="4.5" y="-721.5" font-family="Helvetica,sans-Serif" font-size="10.00">#</text>
<text text-anchor="start" x="17.5" y="-721.5" font-family="Helvetica,sans-Serif" font-size="10.00">DumpState()</text>
<text text-anchor="start" x="4.5" y="-706.5" font-family="Helvetica,sans-Serif" font-size="10.00">#</text>
<text text-anchor="start" x="17.5" y="-706.5" font-family="Helvetica,sans-Serif" font-size="10.00">DumpState()</text>
<text text-anchor="start" x="4.5" y="-691.5" font-family="Helvetica,sans-Serif" font-size="10.00">#</text>
<text text-anchor="start" x="17.5" y="-691.5" font-family="Helvetica,sans-Serif" font-size="10.00">DumpState()</text>
<text text-anchor="start" x="4.5" y="-676.5" font-family="Helvetica,sans-Serif" font-size="10.00">#</text>
<text text-anchor="start" x="17.5" y="-676.5" font-family="Helvetica,sans-Serif" font-size="10.00">CheckParametersOnLoad()</text>
<text text-anchor="start" x="7" y="-661.5" font-family="Helvetica,sans-Serif" font-size="10.00">&#45;</text>
<text text-anchor="start" x="17.5" y="-661.5" font-family="Helvetica,sans-Serif" font-size="10.00">GetStateMessage()</text>
<polygon fill="#666666" stroke="#666666" points="0.5,-911.5 0.5,-911.5 177.5,-911.5 177.5,-911.5 0.5,-911.5"/>
<polygon fill="#666666" stroke="#666666" points="0.5,-896.5 0.5,-896.5 177.5,-896.5 177.5,-896.5 0.5,-896.5"/>
<polygon fill="none" stroke="#666666" points="0,-655 0,-940 177,-940 177,-655 0,-655"/>
</a>
</g>
</g>
<!-- Node5&#45;&gt;Node9 -->
<g id="edge9_Node000009_Node000005" class="edge">
<title>Node5&#45;&gt;Node9</title>
<g id="a_edge9_Node000009_Node000005"><a xlink:title=" ">
<path fill="none" stroke="#63b8ff" d="M194.41,-988.23C190.29,-977.9 185.97,-967.71 181.5,-958 178.82,-952.18 175.99,-946.29 173.05,-940.39"/>
<polygon fill="none" stroke="#63b8ff" points="191.23,-989.7 198.13,-997.74 197.75,-987.15 191.23,-989.7"/>
</a>
</g>
</g>
<!-- Node6 -->
<g id="Node000006" class="node">
<title>Node6</title>
<g id="a_Node000006"><a xlink:href="classunsigned.html" target="_top" xlink:title=" ">
<polygon fill="white" stroke="transparent" points="180,-1331.5 125,-1331.5 125,-1282.5 180,-1282.5 180,-1331.5"/>
<text text-anchor="start" x="130.5" y="-1319" font-family="Helvetica,sans-Serif" font-size="10.00">unsigned</text>
<text text-anchor="start" x="151" y="-1304" font-family="Helvetica,sans-Serif" font-size="10.00"> </text>
<text text-anchor="start" x="151" y="-1289" font-family="Helvetica,sans-Serif" font-size="10.00"> </text>
<polygon fill="#bfbfbf" stroke="#bfbfbf" points="125.5,-1314 125.5,-1314 180.5,-1314 180.5,-1314 125.5,-1314"/>
<polygon fill="#bfbfbf" stroke="#bfbfbf" points="125.5,-1299 125.5,-1299 180.5,-1299 180.5,-1299 125.5,-1299"/>
<polygon fill="none" stroke="#bfbfbf" points="125,-1282.5 125,-1331.5 180,-1331.5 180,-1282.5 125,-1282.5"/>
</a>
</g>
</g>
<!-- Node6&#45;&gt;Node5 -->
<g id="edge5_Node000005_Node000006" class="edge">
<title>Node6&#45;&gt;Node5</title>
<g id="a_edge5_Node000005_Node000006"><a xlink:title=" ">
<path fill="none" stroke="#63b8ff" d="M147.75,-1282.44C146.49,-1271.73 146.25,-1259.02 149.5,-1248 150.13,-1245.87 150.8,-1243.74 151.52,-1241.61"/>
<polygon fill="none" stroke="#63b8ff" points="151.55,-1241.53 149.9,-1234.51 155.75,-1230.29 157.4,-1237.31 151.55,-1241.53"/>
</a>
</g>
<text text-anchor="middle" x="220.5" y="-1251" font-family="Helvetica,sans-Serif" font-size="10.00" fill="grey"> #mNumberOfStateVariables</text>
</g>
<!-- Node7 -->
<g id="Node000007" class="node">
<title>Node7</title>
<g id="a_Node000007"><a xlink:title=" ">
<polygon fill="white" stroke="transparent" points="402.5,-1337 232.5,-1337 232.5,-1277 402.5,-1277 402.5,-1337"/>
<text text-anchor="start" x="237.5" y="-1325" font-family="Helvetica,sans-Serif" font-size="10.00">shared_ptr&lt; AbstractOdeSystem</text>
<text text-anchor="start" x="283" y="-1314" font-family="Helvetica,sans-Serif" font-size="10.00">Information &gt;</text>
<text text-anchor="start" x="315.5" y="-1299" font-family="Helvetica,sans-Serif" font-size="10.00"> </text>
<text text-anchor="start" x="315.5" y="-1284" font-family="Helvetica,sans-Serif" font-size="10.00"> </text>
<polygon fill="#bfbfbf" stroke="#bfbfbf" points="232.5,-1309 232.5,-1309 402.5,-1309 402.5,-1309 232.5,-1309"/>
<polygon fill="#bfbfbf" stroke="#bfbfbf" points="232.5,-1294 232.5,-1294 402.5,-1294 402.5,-1294 232.5,-1294"/>
<polygon fill="none" stroke="#bfbfbf" points="232.5,-1277 232.5,-1337 402.5,-1337 402.5,-1277 232.5,-1277"/>
</a>
</g>
</g>
<!-- Node7&#45;&gt;Node5 -->
<g id="edge6_Node000005_Node000007" class="edge">
<title>Node7&#45;&gt;Node5</title>
<g id="a_edge6_Node000005_Node000007"><a xlink:title=" ">
<path fill="none" stroke="#63b8ff" d="M306.88,-1276.95C303.37,-1267.65 299.38,-1257.35 295.5,-1248 294.59,-1245.81 293.67,-1243.6 292.73,-1241.37"/>
<polygon fill="none" stroke="#63b8ff" points="292.66,-1241.2 286.63,-1237.24 287.97,-1230.15 294,-1234.11 292.66,-1241.2"/>
</a>
</g>
<text text-anchor="middle" x="341" y="-1251" font-family="Helvetica,sans-Serif" font-size="10.00" fill="grey"> #mpSystemInfo</text>
</g>
<!-- Node8 -->
<g id="Node000008" class="node">
<title>Node8</title>
<g id="a_Node000008"><a xlink:title=" ">
<polygon fill="white" stroke="transparent" points="361,-822 264,-822 264,-773 361,-773 361,-822"/>
<text text-anchor="start" x="269.5" y="-809.5" font-family="Helvetica,sans-Serif" font-size="10.00">vector&lt; double &gt;</text>
<text text-anchor="start" x="311" y="-794.5" font-family="Helvetica,sans-Serif" font-size="10.00"> </text>
<text text-anchor="start" x="311" y="-779.5" font-family="Helvetica,sans-Serif" font-size="10.00"> </text>
<polygon fill="#bfbfbf" stroke="#bfbfbf" points="264.5,-804.5 264.5,-804.5 361.5,-804.5 361.5,-804.5 264.5,-804.5"/>
<polygon fill="#bfbfbf" stroke="#bfbfbf" points="264.5,-789.5 264.5,-789.5 361.5,-789.5 361.5,-789.5 264.5,-789.5"/>
<polygon fill="none" stroke="#bfbfbf" points="264,-773 264,-822 361,-822 361,-773 264,-773"/>
</a>
</g>
</g>
<!-- Node8&#45;&gt;Node4 -->
<g id="edge7_Node000004_Node000008" class="edge">
<title>Node8&#45;&gt;Node4</title>
<g id="a_edge7_Node000004_Node000008"><a xlink:title=" ">
<path fill="none" stroke="#63b8ff" d="M307.15,-772.79C299.39,-738.45 284.4,-672.05 270.12,-608.83"/>
<polygon fill="none" stroke="#63b8ff" points="270.11,-608.77 264.89,-603.8 267.47,-597.07 272.69,-602.04 270.11,-608.77"/>
</a>
</g>
<text text-anchor="middle" x="321" y="-629" font-family="Helvetica,sans-Serif" font-size="10.00" fill="grey"> #mParameters</text>
<text text-anchor="middle" x="321" y="-618" font-family="Helvetica,sans-Serif" font-size="10.00" fill="grey">#mStateVariables</text>
</g>
<!-- Node9&#45;&gt;Node4 -->
<g id="edge8_Node000004_Node000009" class="edge">
<title>Node9&#45;&gt;Node4</title>
<g id="a_edge8_Node000004_Node000009"><a xlink:title=" ">
<path fill="none" stroke="orange" d="M79.97,-644.93C81.98,-634.63 84.76,-624.56 88.5,-615 101.03,-582.9 123.39,-553.38 146.94,-528.68"/>
<polygon fill="orange" stroke="orange" points="76.5,-644.41 78.26,-654.85 83.4,-645.59 76.5,-644.41"/>
</a>
</g>
<text text-anchor="middle" x="155" y="-623.5" font-family="Helvetica,sans-Serif" font-size="10.00" fill="grey"> &lt; std::vector&lt; double &gt; &gt;</text>
</g>
<!-- Node10 -->
<g id="Node000010" class="node">
<title>Node10</title>
<g id="a_Node000010"><a xlink:title=" ">
<polygon fill="white" stroke="transparent" points="113.5,-1138.5 63.5,-1138.5 63.5,-1089.5 113.5,-1089.5 113.5,-1138.5"/>
<text text-anchor="start" x="68.5" y="-1126" font-family="Helvetica,sans-Serif" font-size="10.00">VECTOR</text>
<text text-anchor="start" x="86.5" y="-1111" font-family="Helvetica,sans-Serif" font-size="10.00"> </text>
<text text-anchor="start" x="86.5" y="-1096" font-family="Helvetica,sans-Serif" font-size="10.00"> </text>
<polygon fill="#bfbfbf" stroke="#bfbfbf" points="63.5,-1121 63.5,-1121 113.5,-1121 113.5,-1121 63.5,-1121"/>
<polygon fill="#bfbfbf" stroke="#bfbfbf" points="63.5,-1106 63.5,-1106 113.5,-1106 113.5,-1106 63.5,-1106"/>
<polygon fill="none" stroke="#bfbfbf" points="63.5,-1089.5 63.5,-1138.5 113.5,-1138.5 113.5,-1089.5 63.5,-1089.5"/>
</a>
</g>
</g>
<!-- Node10&#45;&gt;Node9 -->
<g id="edge10_Node000009_Node000010" class="edge">
<title>Node10&#45;&gt;Node9</title>
<g id="a_edge10_Node000009_Node000010"><a xlink:title=" ">
<path fill="none" stroke="#63b8ff" d="M88.5,-1089.36C88.5,-1059.55 88.5,-1005.7 88.5,-952.38"/>
<polygon fill="none" stroke="#63b8ff" points="88.5,-952.3 84.5,-946.3 88.5,-940.3 92.5,-946.3 88.5,-952.3"/>
</a>
</g>
<text text-anchor="middle" x="133" y="-972" font-family="Helvetica,sans-Serif" font-size="10.00" fill="grey"> #mParameters</text>
<text text-anchor="middle" x="133" y="-961" font-family="Helvetica,sans-Serif" font-size="10.00" fill="grey">#mStateVariables</text>
</g>
<!-- Node11 -->
<g id="Node000011" class="node">
<title>Node11</title>
<g id="a_Node000011"><a xlink:href="classbool.html" target="_top" xlink:title=" ">
<polygon fill="white" stroke="transparent" points="373.5,-479 341.5,-479 341.5,-430 373.5,-430 373.5,-479"/>
<text text-anchor="start" x="346.5" y="-466.5" font-family="Helvetica,sans-Serif" font-size="10.00">bool</text>
<text text-anchor="start" x="355.5" y="-451.5" font-family="Helvetica,sans-Serif" font-size="10.00"> </text>
<text text-anchor="start" x="355.5" y="-436.5" font-family="Helvetica,sans-Serif" font-size="10.00"> </text>
<polygon fill="#bfbfbf" stroke="#bfbfbf" points="341.5,-461.5 341.5,-461.5 373.5,-461.5 373.5,-461.5 341.5,-461.5"/>
<polygon fill="#bfbfbf" stroke="#bfbfbf" points="341.5,-446.5 341.5,-446.5 373.5,-446.5 373.5,-446.5 341.5,-446.5"/>
<polygon fill="none" stroke="#bfbfbf" points="341.5,-430 341.5,-479 373.5,-479 373.5,-430 341.5,-430"/>
</a>
</g>
</g>
<!-- Node11&#45;&gt;Node3 -->
<g id="edge11_Node000003_Node000011" class="edge">
<title>Node11&#45;&gt;Node3</title>
<g id="a_edge11_Node000003_Node000011"><a xlink:title=" ">
<path fill="none" stroke="#63b8ff" d="M354.11,-429.84C349.26,-396.01 340.06,-331.88 332.23,-277.27"/>
<polygon fill="none" stroke="#63b8ff" points="332.18,-276.93 327.37,-271.56 330.48,-265.06 335.29,-270.43 332.18,-276.93"/>
</a>
</g>
<text text-anchor="middle" x="395" y="-286" font-family="Helvetica,sans-Serif" font-size="10.00" fill="grey"> #mUseAnalyticJacobian</text>
</g>
</g>
</svg>
