<?xml version="1.0" encoding="UTF-8" standalone="no"?>
<!DOCTYPE svg PUBLIC "-//W3C//DTD SVG 1.1//EN"
 "http://www.w3.org/Graphics/SVG/1.1/DTD/svg11.dtd">
<!-- Generated by graphviz version 2.43.0 (0)
 -->
<!-- Title: ElementData Pages: 1 -->
<svg width="352pt" height="153pt"
 viewBox="0.00 0.00 352.00 153.00" xmlns="http://www.w3.org/2000/svg" xmlns:xlink="http://www.w3.org/1999/xlink">
<g id="graph0" class="graph" transform="scale(1 1) rotate(0) translate(4 149)">
<title>ElementData</title>
<!-- Node1 -->
<g id="Node000001" class="node">
<title>Node1</title>
<g id="a_Node000001"><a xlink:title=" ">
<polygon fill="#999999" stroke="transparent" points="195.5,-49 102.5,-49 102.5,0 195.5,0 195.5,-49"/>
<text text-anchor="start" x="117.5" y="-36.5" font-family="Helvetica,sans-Serif" font-size="10.00">ElementData</text>
<text text-anchor="start" x="147.5" y="-21.5" font-family="Helvetica,sans-Serif" font-size="10.00"> </text>
<text text-anchor="start" x="107" y="-6.5" font-family="Helvetica,sans-Serif" font-size="10.00">+</text>
<text text-anchor="start" x="120" y="-6.5" font-family="Helvetica,sans-Serif" font-size="10.00">ElementData()</text>
<polygon fill="#666666" stroke="#666666" points="103,-31.5 103,-31.5 196,-31.5 196,-31.5 103,-31.5"/>
<polygon fill="#666666" stroke="#666666" points="103,-16.5 103,-16.5 196,-16.5 196,-16.5 103,-16.5"/>
<polygon fill="none" stroke="#666666" points="102.5,0 102.5,-49 195.5,-49 195.5,0 102.5,0"/>
</a>
</g>
</g>
<!-- Node2 -->
<g id="Node000002" class="node">
<title>Node2</title>
<g id="a_Node000002"><a xlink:title=" ">
<polygon fill="white" stroke="transparent" points="108,-145 0,-145 0,-96 108,-96 108,-145"/>
<text text-anchor="start" x="5" y="-132.5" font-family="Helvetica,sans-Serif" font-size="10.00">vector&lt; unsigned &gt;</text>
<text text-anchor="start" x="52" y="-117.5" font-family="Helvetica,sans-Serif" font-size="10.00"> </text>
<text text-anchor="start" x="52" y="-102.5" font-family="Helvetica,sans-Serif" font-size="10.00"> </text>
<polygon fill="#bfbfbf" stroke="#bfbfbf" points="0,-127.5 0,-127.5 108,-127.5 108,-127.5 0,-127.5"/>
<polygon fill="#bfbfbf" stroke="#bfbfbf" points="0,-112.5 0,-112.5 108,-112.5 108,-112.5 0,-112.5"/>
<polygon fill="none" stroke="#bfbfbf" points="0,-96 0,-145 108,-145 108,-96 0,-96"/>
</a>
</g>
</g>
<!-- Node2&#45;&gt;Node1 -->
<g id="edge1_Node000001_Node000002" class="edge">
<title>Node2&#45;&gt;Node1</title>
<g id="a_edge1_Node000001_Node000002"><a xlink:title=" ">
<path fill="none" stroke="#63b8ff" d="M58.64,-95.91C61.49,-86.12 65.99,-75.17 73,-67 78.33,-60.79 84.82,-55.35 91.75,-50.62"/>
<polygon fill="none" stroke="#63b8ff" points="91.92,-50.52 94.92,-43.96 102.13,-44.21 99.13,-50.77 91.92,-50.52"/>
</a>
</g>
<text text-anchor="middle" x="109" y="-70" font-family="Helvetica,sans-Serif" font-size="10.00" fill="grey"> +NodeIndices</text>
</g>
<!-- Node3 -->
<g id="Node000003" class="node">
<title>Node3</title>
<g id="a_Node000003"><a xlink:href="classdouble.html" target="_top" xlink:title=" ">
<polygon fill="white" stroke="transparent" points="171,-145 127,-145 127,-96 171,-96 171,-145"/>
<text text-anchor="start" x="132" y="-132.5" font-family="Helvetica,sans-Serif" font-size="10.00">double</text>
<text text-anchor="start" x="147" y="-117.5" font-family="Helvetica,sans-Serif" font-size="10.00"> </text>
<text text-anchor="start" x="147" y="-102.5" font-family="Helvetica,sans-Serif" font-size="10.00"> </text>
<polygon fill="#bfbfbf" stroke="#bfbfbf" points="127,-127.5 127,-127.5 171,-127.5 171,-127.5 127,-127.5"/>
<polygon fill="#bfbfbf" stroke="#bfbfbf" points="127,-112.5 127,-112.5 171,-112.5 171,-112.5 127,-112.5"/>
<polygon fill="none" stroke="#bfbfbf" points="127,-96 127,-145 171,-145 171,-96 127,-96"/>
</a>
</g>
</g>
<!-- Node3&#45;&gt;Node1 -->
<g id="edge2_Node000001_Node000003" class="edge">
<title>Node3&#45;&gt;Node1</title>
<g id="a_edge2_Node000001_Node000003"><a xlink:title=" ">
<path fill="none" stroke="#63b8ff" d="M149,-95.78C149,-85.32 149,-72.79 149,-61.23"/>
<polygon fill="none" stroke="#63b8ff" points="149,-61.21 145,-55.21 149,-49.21 153,-55.21 149,-61.21"/>
</a>
</g>
<text text-anchor="middle" x="190" y="-70" font-family="Helvetica,sans-Serif" font-size="10.00" fill="grey"> +AttributeValue</text>
</g>
<!-- Node4 -->
<g id="Node000004" class="node">
<title>Node4</title>
<g id="a_Node000004"><a xlink:href="classunsigned.html" target="_top" xlink:title=" ">
<polygon fill="white" stroke="transparent" points="281.5,-145 226.5,-145 226.5,-96 281.5,-96 281.5,-145"/>
<text text-anchor="start" x="232" y="-132.5" font-family="Helvetica,sans-Serif" font-size="10.00">unsigned</text>
<text text-anchor="start" x="252.5" y="-117.5" font-family="Helvetica,sans-Serif" font-size="10.00"> </text>
<text text-anchor="start" x="252.5" y="-102.5" font-family="Helvetica,sans-Serif" font-size="10.00"> </text>
<polygon fill="#bfbfbf" stroke="#bfbfbf" points="227,-127.5 227,-127.5 282,-127.5 282,-127.5 227,-127.5"/>
<polygon fill="#bfbfbf" stroke="#bfbfbf" points="227,-112.5 227,-112.5 282,-112.5 282,-112.5 227,-112.5"/>
<polygon fill="none" stroke="#bfbfbf" points="226.5,-96 226.5,-145 281.5,-145 281.5,-96 226.5,-96"/>
</a>
</g>
</g>
<!-- Node4&#45;&gt;Node1 -->
<g id="edge3_Node000001_Node000004" class="edge">
<title>Node4&#45;&gt;Node1</title>
<g id="a_edge3_Node000001_Node000004"><a xlink:title=" ">
<path fill="none" stroke="#63b8ff" d="M248.03,-95.76C244.62,-85.95 239.49,-75.01 232,-67 224.72,-59.22 215.67,-52.69 206.24,-47.29"/>
<polygon fill="none" stroke="#63b8ff" points="206.14,-47.23 198.97,-47.98 195.51,-41.65 202.68,-40.9 206.14,-47.23"/>
</a>
</g>
<text text-anchor="middle" x="291.5" y="-70" font-family="Helvetica,sans-Serif" font-size="10.00" fill="grey"> +ContainingElement</text>
</g>
</g>
</svg>
