<?xml version="1.0" encoding="UTF-8" standalone="no"?>
<!DOCTYPE svg PUBLIC "-//W3C//DTD SVG 1.1//EN"
 "http://www.w3.org/Graphics/SVG/1.1/DTD/svg11.dtd">
<!-- Generated by graphviz version 2.43.0 (0)
 -->
<!-- Title: DataWriterVariable Pages: 1 -->
<svg width="300pt" height="164pt"
 viewBox="0.00 0.00 300.00 164.00" xmlns="http://www.w3.org/2000/svg" xmlns:xlink="http://www.w3.org/1999/xlink">
<g id="graph0" class="graph" transform="scale(1 1) rotate(0) translate(4 160)">
<title>DataWriterVariable</title>
<!-- Node1 -->
<g id="Node000001" class="node">
<title>Node1</title>
<g id="a_Node000001"><a xlink:title=" ">
<polygon fill="#999999" stroke="transparent" points="128,-49 24,-49 24,0 128,0 128,-49"/>
<text text-anchor="start" x="29" y="-36.5" font-family="Helvetica,sans-Serif" font-size="10.00">DataWriterVariable</text>
<text text-anchor="start" x="74" y="-21.5" font-family="Helvetica,sans-Serif" font-size="10.00"> </text>
<text text-anchor="start" x="74" y="-6.5" font-family="Helvetica,sans-Serif" font-size="10.00"> </text>
<polygon fill="#666666" stroke="#666666" points="24,-31.5 24,-31.5 128,-31.5 128,-31.5 24,-31.5"/>
<polygon fill="#666666" stroke="#666666" points="24,-16.5 24,-16.5 128,-16.5 128,-16.5 24,-16.5"/>
<polygon fill="none" stroke="#666666" points="24,0 24,-49 128,-49 128,0 24,0"/>
</a>
</g>
</g>
<!-- Node2 -->
<g id="Node000002" class="node">
<title>Node2</title>
<g id="a_Node000002"><a xlink:title=" ">
<polygon fill="white" stroke="transparent" points="38,-156 0,-156 0,-107 38,-107 38,-156"/>
<text text-anchor="start" x="5" y="-143.5" font-family="Helvetica,sans-Serif" font-size="10.00">string</text>
<text text-anchor="start" x="17" y="-128.5" font-family="Helvetica,sans-Serif" font-size="10.00"> </text>
<text text-anchor="start" x="17" y="-113.5" font-family="Helvetica,sans-Serif" font-size="10.00"> </text>
<polygon fill="#bfbfbf" stroke="#bfbfbf" points="0,-138.5 0,-138.5 38,-138.5 38,-138.5 0,-138.5"/>
<polygon fill="#bfbfbf" stroke="#bfbfbf" points="0,-123.5 0,-123.5 38,-123.5 38,-123.5 0,-123.5"/>
<polygon fill="none" stroke="#bfbfbf" points="0,-107 0,-156 38,-156 38,-107 0,-107"/>
</a>
</g>
</g>
<!-- Node2&#45;&gt;Node1 -->
<g id="edge1_Node000001_Node000002" class="edge">
<title>Node2&#45;&gt;Node1</title>
<g id="a_edge1_Node000001_Node000002"><a xlink:title=" ">
<path fill="none" stroke="#63b8ff" d="M14.54,-106.96C13.32,-94.44 13.75,-79.16 20,-67 21.63,-63.82 23.63,-60.82 25.9,-58.01"/>
<polygon fill="none" stroke="#63b8ff" points="26.12,-57.78 27.4,-50.68 34.44,-49.13 33.16,-56.23 26.12,-57.78"/>
</a>
</g>
<text text-anchor="middle" x="65.5" y="-81" font-family="Helvetica,sans-Serif" font-size="10.00" fill="grey"> +mVariableName</text>
<text text-anchor="middle" x="65.5" y="-70" font-family="Helvetica,sans-Serif" font-size="10.00" fill="grey">+mVariableUnits</text>
</g>
<!-- Node3 -->
<g id="Node000003" class="node">
<title>Node3</title>
<g id="a_Node000003"><a xlink:href="classbool.html" target="_top" xlink:title=" ">
<polygon fill="white" stroke="transparent" points="149,-156 117,-156 117,-107 149,-107 149,-156"/>
<text text-anchor="start" x="122" y="-143.5" font-family="Helvetica,sans-Serif" font-size="10.00">bool</text>
<text text-anchor="start" x="131" y="-128.5" font-family="Helvetica,sans-Serif" font-size="10.00"> </text>
<text text-anchor="start" x="131" y="-113.5" font-family="Helvetica,sans-Serif" font-size="10.00"> </text>
<polygon fill="#bfbfbf" stroke="#bfbfbf" points="117,-138.5 117,-138.5 149,-138.5 149,-138.5 117,-138.5"/>
<polygon fill="#bfbfbf" stroke="#bfbfbf" points="117,-123.5 117,-123.5 149,-123.5 149,-123.5 117,-123.5"/>
<polygon fill="none" stroke="#bfbfbf" points="117,-107 117,-156 149,-156 149,-107 117,-107"/>
</a>
</g>
</g>
<!-- Node3&#45;&gt;Node1 -->
<g id="edge2_Node000001_Node000003" class="edge">
<title>Node3&#45;&gt;Node1</title>
<g id="a_edge2_Node000001_Node000003"><a xlink:title=" ">
<path fill="none" stroke="#63b8ff" d="M127.1,-106.99C123.45,-94.62 118.09,-79.47 111,-67 109.49,-64.35 107.8,-61.7 106.01,-59.1"/>
<polygon fill="none" stroke="#63b8ff" points="105.92,-58.99 99.11,-56.61 98.69,-49.41 105.5,-51.79 105.92,-58.99"/>
</a>
</g>
<text text-anchor="middle" x="206" y="-81" font-family="Helvetica,sans-Serif" font-size="10.00" fill="grey"> +mVariesWithFixedDimension</text>
<text text-anchor="middle" x="206" y="-70" font-family="Helvetica,sans-Serif" font-size="10.00" fill="grey">+mVariesWithUnlimitedDimension</text>
</g>
</g>
</svg>
