<?xml version="1.0" encoding="UTF-8" standalone="no"?>
<!DOCTYPE svg PUBLIC "-//W3C//DTD SVG 1.1//EN"
 "http://www.w3.org/Graphics/SVG/1.1/DTD/svg11.dtd">
<!-- Generated by graphviz version 2.43.0 (0)
 -->
<!-- Title: VertexElementData Pages: 1 -->
<svg width="493pt" height="164pt"
 viewBox="0.00 0.00 493.00 164.00" xmlns="http://www.w3.org/2000/svg" xmlns:xlink="http://www.w3.org/1999/xlink">
<g id="graph0" class="graph" transform="scale(1 1) rotate(0) translate(4 160)">
<title>VertexElementData</title>
<!-- Node1 -->
<g id="Node000001" class="node">
<title>Node1</title>
<g id="a_Node000001"><a xlink:title=" ">
<polygon fill="#999999" stroke="transparent" points="303,-49 197,-49 197,0 303,0 303,-49"/>
<text text-anchor="start" x="202" y="-36.5" font-family="Helvetica,sans-Serif" font-size="10.00">VertexElementData</text>
<text text-anchor="start" x="248" y="-21.5" font-family="Helvetica,sans-Serif" font-size="10.00"> </text>
<text text-anchor="start" x="248" y="-6.5" font-family="Helvetica,sans-Serif" font-size="10.00"> </text>
<polygon fill="#666666" stroke="#666666" points="197,-31.5 197,-31.5 303,-31.5 303,-31.5 197,-31.5"/>
<polygon fill="#666666" stroke="#666666" points="197,-16.5 197,-16.5 303,-16.5 303,-16.5 197,-16.5"/>
<polygon fill="none" stroke="#666666" points="197,0 197,-49 303,-49 303,0 197,0"/>
</a>
</g>
</g>
<!-- Node2 -->
<g id="Node000002" class="node">
<title>Node2</title>
<g id="a_Node000002"><a xlink:title=" ">
<polygon fill="white" stroke="transparent" points="108,-156 0,-156 0,-107 108,-107 108,-156"/>
<text text-anchor="start" x="5" y="-143.5" font-family="Helvetica,sans-Serif" font-size="10.00">vector&lt; unsigned &gt;</text>
<text text-anchor="start" x="52" y="-128.5" font-family="Helvetica,sans-Serif" font-size="10.00"> </text>
<text text-anchor="start" x="52" y="-113.5" font-family="Helvetica,sans-Serif" font-size="10.00"> </text>
<polygon fill="#bfbfbf" stroke="#bfbfbf" points="0,-138.5 0,-138.5 108,-138.5 108,-138.5 0,-138.5"/>
<polygon fill="#bfbfbf" stroke="#bfbfbf" points="0,-123.5 0,-123.5 108,-123.5 108,-123.5 0,-123.5"/>
<polygon fill="none" stroke="#bfbfbf" points="0,-107 0,-156 108,-156 108,-107 0,-107"/>
</a>
</g>
</g>
<!-- Node2&#45;&gt;Node1 -->
<g id="edge1_Node000001_Node000002" class="edge">
<title>Node2&#45;&gt;Node1</title>
<g id="a_edge1_Node000001_Node000002"><a xlink:title=" ">
<path fill="none" stroke="#63b8ff" d="M80.98,-106.87C96.8,-93.87 117.64,-78.15 138,-67 152.78,-58.9 169.47,-51.77 185.36,-45.79"/>
<polygon fill="none" stroke="#63b8ff" points="185.47,-45.75 189.74,-39.94 196.75,-41.65 192.47,-47.46 185.47,-45.75"/>
</a>
</g>
<text text-anchor="middle" x="174" y="-75.5" font-family="Helvetica,sans-Serif" font-size="10.00" fill="grey"> +NodeIndices</text>
</g>
<!-- Node3 -->
<g id="Node000003" class="node">
<title>Node3</title>
<g id="a_Node000003"><a xlink:title=" ">
<polygon fill="white" stroke="transparent" points="254,-156 126,-156 126,-107 254,-107 254,-156"/>
<text text-anchor="start" x="131" y="-143.5" font-family="Helvetica,sans-Serif" font-size="10.00">vector&lt; ElementData &gt;</text>
<text text-anchor="start" x="188" y="-128.5" font-family="Helvetica,sans-Serif" font-size="10.00"> </text>
<text text-anchor="start" x="188" y="-113.5" font-family="Helvetica,sans-Serif" font-size="10.00"> </text>
<polygon fill="#bfbfbf" stroke="#bfbfbf" points="126,-138.5 126,-138.5 254,-138.5 254,-138.5 126,-138.5"/>
<polygon fill="#bfbfbf" stroke="#bfbfbf" points="126,-123.5 126,-123.5 254,-123.5 254,-123.5 126,-123.5"/>
<polygon fill="none" stroke="#bfbfbf" points="126,-107 126,-156 254,-156 254,-107 126,-107"/>
</a>
</g>
</g>
<!-- Node3&#45;&gt;Node1 -->
<g id="edge2_Node000001_Node000003" class="edge">
<title>Node3&#45;&gt;Node1</title>
<g id="a_edge2_Node000001_Node000003"><a xlink:title=" ">
<path fill="none" stroke="#63b8ff" d="M203.47,-106.94C211.36,-93.12 221.48,-75.41 230.26,-60.04"/>
<polygon fill="none" stroke="#63b8ff" points="230.42,-59.77 229.92,-52.57 236.37,-49.35 236.87,-56.54 230.42,-59.77"/>
</a>
</g>
<text text-anchor="middle" x="244.5" y="-75.5" font-family="Helvetica,sans-Serif" font-size="10.00" fill="grey"> +Faces</text>
</g>
<!-- Node4 -->
<g id="Node000004" class="node">
<title>Node4</title>
<g id="a_Node000004"><a xlink:title=" ">
<polygon fill="white" stroke="transparent" points="357.5,-156 272.5,-156 272.5,-107 357.5,-107 357.5,-156"/>
<text text-anchor="start" x="278" y="-143.5" font-family="Helvetica,sans-Serif" font-size="10.00">vector&lt; bool &gt;</text>
<text text-anchor="start" x="313.5" y="-128.5" font-family="Helvetica,sans-Serif" font-size="10.00"> </text>
<text text-anchor="start" x="313.5" y="-113.5" font-family="Helvetica,sans-Serif" font-size="10.00"> </text>
<polygon fill="#bfbfbf" stroke="#bfbfbf" points="273,-138.5 273,-138.5 358,-138.5 358,-138.5 273,-138.5"/>
<polygon fill="#bfbfbf" stroke="#bfbfbf" points="273,-123.5 273,-123.5 358,-123.5 358,-123.5 273,-123.5"/>
<polygon fill="none" stroke="#bfbfbf" points="272.5,-107 272.5,-156 357.5,-156 357.5,-107 272.5,-107"/>
</a>
</g>
</g>
<!-- Node4&#45;&gt;Node1 -->
<g id="edge3_Node000001_Node000004" class="edge">
<title>Node4&#45;&gt;Node1</title>
<g id="a_edge3_Node000001_Node000004"><a xlink:title=" ">
<path fill="none" stroke="#63b8ff" d="M300.41,-106.94C291.78,-92.98 280.68,-75.07 271.1,-59.59"/>
<polygon fill="none" stroke="#63b8ff" points="271.08,-59.55 264.52,-56.56 264.76,-49.35 271.32,-52.34 271.08,-59.55"/>
</a>
</g>
<text text-anchor="middle" x="324" y="-75.5" font-family="Helvetica,sans-Serif" font-size="10.00" fill="grey"> +Orientations</text>
</g>
<!-- Node5 -->
<g id="Node000005" class="node">
<title>Node5</title>
<g id="a_Node000005"><a xlink:href="classunsigned.html" target="_top" xlink:title=" ">
<polygon fill="white" stroke="transparent" points="433.5,-156 378.5,-156 378.5,-107 433.5,-107 433.5,-156"/>
<text text-anchor="start" x="384" y="-143.5" font-family="Helvetica,sans-Serif" font-size="10.00">unsigned</text>
<text text-anchor="start" x="404.5" y="-128.5" font-family="Helvetica,sans-Serif" font-size="10.00"> </text>
<text text-anchor="start" x="404.5" y="-113.5" font-family="Helvetica,sans-Serif" font-size="10.00"> </text>
<polygon fill="#bfbfbf" stroke="#bfbfbf" points="379,-138.5 379,-138.5 434,-138.5 434,-138.5 379,-138.5"/>
<polygon fill="#bfbfbf" stroke="#bfbfbf" points="379,-123.5 379,-123.5 434,-123.5 434,-123.5 379,-123.5"/>
<polygon fill="none" stroke="#bfbfbf" points="378.5,-107 378.5,-156 433.5,-156 433.5,-107 378.5,-107"/>
</a>
</g>
</g>
<!-- Node5&#45;&gt;Node1 -->
<g id="edge4_Node000001_Node000005" class="edge">
<title>Node5&#45;&gt;Node1</title>
<g id="a_edge4_Node000001_Node000005"><a xlink:title=" ">
<path fill="none" stroke="#63b8ff" d="M395.13,-106.92C387.95,-93.6 377.39,-77.56 364,-67 349.69,-55.71 332.03,-47.32 314.92,-41.14"/>
<polygon fill="none" stroke="#63b8ff" points="314.58,-41.03 307.62,-42.92 303.21,-37.22 310.17,-35.33 314.58,-41.03"/>
</a>
</g>
<text text-anchor="middle" x="434" y="-81" font-family="Helvetica,sans-Serif" font-size="10.00" fill="grey"> +AttributeValue</text>
<text text-anchor="middle" x="434" y="-70" font-family="Helvetica,sans-Serif" font-size="10.00" fill="grey">+ContainingElement</text>
</g>
</g>
</svg>
