<?xml version="1.0" encoding="UTF-8" standalone="no"?>
<!DOCTYPE svg PUBLIC "-//W3C//DTD SVG 1.1//EN"
 "http://www.w3.org/Graphics/SVG/1.1/DTD/svg11.dtd">
<!-- Generated by graphviz version 2.43.0 (0)
 -->
<!-- Title: linalg/src/UblasCustomFunctions.hpp Pages: 1 -->
<svg width="1253pt" height="214pt"
 viewBox="0.00 0.00 1252.50 214.00" xmlns="http://www.w3.org/2000/svg" xmlns:xlink="http://www.w3.org/1999/xlink">
<g id="graph0" class="graph" transform="scale(1 1) rotate(0) translate(4 210)">
<title>linalg/src/UblasCustomFunctions.hpp</title>
<!-- Node1 -->
<g id="Node000001" class="node">
<title>Node1</title>
<g id="a_Node000001"><a xlink:title=" ">
<polygon fill="#999999" stroke="#666666" points="838,-206 641,-206 641,-187 838,-187 838,-206"/>
<text text-anchor="middle" x="739.5" y="-194" font-family="Helvetica,sans-Serif" font-size="10.00">linalg/src/UblasCustomFunctions.hpp</text>
</a>
</g>
</g>
<!-- Node2 -->
<g id="Node000002" class="node">
<title>Node2</title>
<g id="a_Node000002"><a xlink:href="UblasIncludes_8hpp.html" target="_top" xlink:title=" ">
<polygon fill="white" stroke="#666666" points="481.5,-151 375.5,-151 375.5,-132 481.5,-132 481.5,-151"/>
<text text-anchor="middle" x="428.5" y="-139" font-family="Helvetica,sans-Serif" font-size="10.00">UblasIncludes.hpp</text>
</a>
</g>
</g>
<!-- Node1&#45;&gt;Node2 -->
<g id="edge1_Node000001_Node000002" class="edge">
<title>Node1&#45;&gt;Node2</title>
<g id="a_edge1_Node000001_Node000002"><a xlink:title=" ">
<path fill="none" stroke="#63b8ff" d="M689.53,-186.98C634.86,-177.67 547.25,-162.74 488.8,-152.78"/>
<polygon fill="#63b8ff" stroke="#63b8ff" points="489.05,-149.27 478.6,-151.04 487.87,-156.17 489.05,-149.27"/>
</a>
</g>
</g>
<!-- Node10 -->
<g id="Node000010" class="node">
<title>Node10</title>
<g id="a_Node000010"><a xlink:href="Exception_8hpp.html" target="_top" xlink:title=" ">
<polygon fill="white" stroke="#666666" points="951.5,-151 865.5,-151 865.5,-132 951.5,-132 951.5,-151"/>
<text text-anchor="middle" x="908.5" y="-139" font-family="Helvetica,sans-Serif" font-size="10.00">Exception.hpp</text>
</a>
</g>
</g>
<!-- Node1&#45;&gt;Node10 -->
<g id="edge9_Node000001_Node000010" class="edge">
<title>Node1&#45;&gt;Node10</title>
<g id="a_edge9_Node000001_Node000010"><a xlink:title=" ">
<path fill="none" stroke="#63b8ff" d="M766.65,-186.98C795.03,-178.09 839.73,-164.07 871.36,-154.15"/>
<polygon fill="#63b8ff" stroke="#63b8ff" points="872.64,-157.41 881.13,-151.08 870.55,-150.73 872.64,-157.41"/>
</a>
</g>
</g>
<!-- Node18 -->
<g id="Node000018" class="node">
<title>Node18</title>
<g id="a_Node000018"><a xlink:href="MathsCustomFunctions_8hpp.html" target="_top" xlink:title=" ">
<polygon fill="white" stroke="#666666" points="815.5,-151 663.5,-151 663.5,-132 815.5,-132 815.5,-151"/>
<text text-anchor="middle" x="739.5" y="-139" font-family="Helvetica,sans-Serif" font-size="10.00">MathsCustomFunctions.hpp</text>
</a>
</g>
</g>
<!-- Node1&#45;&gt;Node18 -->
<g id="edge17_Node000001_Node000018" class="edge">
<title>Node1&#45;&gt;Node18</title>
<g id="a_edge17_Node000001_Node000018"><a xlink:title=" ">
<path fill="none" stroke="#63b8ff" d="M739.5,-186.75C739.5,-179.8 739.5,-169.85 739.5,-161.13"/>
<polygon fill="#63b8ff" stroke="#63b8ff" points="743,-161.09 739.5,-151.09 736,-161.09 743,-161.09"/>
</a>
</g>
</g>
<!-- Node3 -->
<g id="Node000003" class="node">
<title>Node3</title>
<g id="a_Node000003"><a xlink:href="UblasVectorInclude_8hpp.html" target="_top" xlink:title=" ">
<polygon fill="white" stroke="#666666" points="131,-90.5 0,-90.5 0,-71.5 131,-71.5 131,-90.5"/>
<text text-anchor="middle" x="65.5" y="-78.5" font-family="Helvetica,sans-Serif" font-size="10.00">UblasVectorInclude.hpp</text>
</a>
</g>
</g>
<!-- Node2&#45;&gt;Node3 -->
<g id="edge2_Node000002_Node000003" class="edge">
<title>Node2&#45;&gt;Node3</title>
<g id="a_edge2_Node000002_Node000003"><a xlink:title=" ">
<path fill="none" stroke="#63b8ff" d="M375.34,-132.79C317.48,-124.29 222.29,-109.95 140.5,-96 133.83,-94.86 126.84,-93.62 119.92,-92.37"/>
<polygon fill="#63b8ff" stroke="#63b8ff" points="120.34,-88.88 109.88,-90.52 119.08,-95.77 120.34,-88.88"/>
</a>
</g>
</g>
<!-- Node5 -->
<g id="Node000005" class="node">
<title>Node5</title>
<g id="a_Node000005"><a xlink:href="UblasMatrixInclude_8hpp.html" target="_top" xlink:title=" ">
<polygon fill="white" stroke="#666666" points="281.5,-90.5 149.5,-90.5 149.5,-71.5 281.5,-71.5 281.5,-90.5"/>
<text text-anchor="middle" x="215.5" y="-78.5" font-family="Helvetica,sans-Serif" font-size="10.00">UblasMatrixInclude.hpp</text>
</a>
</g>
</g>
<!-- Node2&#45;&gt;Node5 -->
<g id="edge4_Node000002_Node000005" class="edge">
<title>Node2&#45;&gt;Node5</title>
<g id="a_edge4_Node000002_Node000005"><a xlink:title=" ">
<path fill="none" stroke="#63b8ff" d="M397.53,-131.99C360.22,-121.75 297.44,-104.5 256.23,-93.19"/>
<polygon fill="#63b8ff" stroke="#63b8ff" points="257.08,-89.79 246.51,-90.52 255.23,-96.54 257.08,-89.79"/>
</a>
</g>
</g>
<!-- Node7 -->
<g id="Node000007" class="node">
<title>Node7</title>
<g id="a_Node000007"><a xlink:title=" ">
<polygon fill="#e0e0e0" stroke="#999999" points="415.5,-96 299.5,-96 299.5,-66 415.5,-66 415.5,-96"/>
<text text-anchor="start" x="307.5" y="-84" font-family="Helvetica,sans-Serif" font-size="10.00">boost/numeric/ublas</text>
<text text-anchor="middle" x="357.5" y="-73" font-family="Helvetica,sans-Serif" font-size="10.00">/matrix_proxy.hpp</text>
</a>
</g>
</g>
<!-- Node2&#45;&gt;Node7 -->
<g id="edge6_Node000002_Node000007" class="edge">
<title>Node2&#45;&gt;Node7</title>
<g id="a_edge6_Node000002_Node000007"><a xlink:title=" ">
<path fill="none" stroke="#63b8ff" d="M418.02,-131.87C408.75,-124.22 394.83,-112.76 382.68,-102.75"/>
<polygon fill="#63b8ff" stroke="#63b8ff" points="384.57,-99.77 374.63,-96.11 380.12,-105.17 384.57,-99.77"/>
</a>
</g>
</g>
<!-- Node8 -->
<g id="Node000008" class="node">
<title>Node8</title>
<g id="a_Node000008"><a xlink:title=" ">
<polygon fill="#e0e0e0" stroke="#999999" points="565,-96 434,-96 434,-66 565,-66 565,-96"/>
<text text-anchor="start" x="442" y="-84" font-family="Helvetica,sans-Serif" font-size="10.00">boost/numeric/ublas</text>
<text text-anchor="middle" x="499.5" y="-73" font-family="Helvetica,sans-Serif" font-size="10.00">/matrix_expression.hpp</text>
</a>
</g>
</g>
<!-- Node2&#45;&gt;Node8 -->
<g id="edge7_Node000002_Node000008" class="edge">
<title>Node2&#45;&gt;Node8</title>
<g id="a_edge7_Node000002_Node000008"><a xlink:title=" ">
<path fill="none" stroke="#63b8ff" d="M438.98,-131.87C448.25,-124.22 462.17,-112.76 474.32,-102.75"/>
<polygon fill="#63b8ff" stroke="#63b8ff" points="476.88,-105.17 482.37,-96.11 472.43,-99.77 476.88,-105.17"/>
</a>
</g>
</g>
<!-- Node9 -->
<g id="Node000009" class="node">
<title>Node9</title>
<g id="a_Node000009"><a xlink:title=" ">
<polygon fill="#e0e0e0" stroke="#999999" points="699.5,-96 583.5,-96 583.5,-66 699.5,-66 699.5,-96"/>
<text text-anchor="start" x="591.5" y="-84" font-family="Helvetica,sans-Serif" font-size="10.00">boost/numeric/ublas</text>
<text text-anchor="middle" x="641.5" y="-73" font-family="Helvetica,sans-Serif" font-size="10.00">/io.hpp</text>
</a>
</g>
</g>
<!-- Node2&#45;&gt;Node9 -->
<g id="edge8_Node000002_Node000009" class="edge">
<title>Node2&#45;&gt;Node9</title>
<g id="a_edge8_Node000002_Node000009"><a xlink:title=" ">
<path fill="none" stroke="#63b8ff" d="M459.47,-131.99C491.06,-123.32 540.92,-109.62 580.47,-98.76"/>
<polygon fill="#63b8ff" stroke="#63b8ff" points="581.58,-102.09 590.29,-96.06 579.72,-95.34 581.58,-102.09"/>
</a>
</g>
</g>
<!-- Node4 -->
<g id="Node000004" class="node">
<title>Node4</title>
<g id="a_Node000004"><a xlink:title=" ">
<polygon fill="#e0e0e0" stroke="#999999" points="123.5,-30 7.5,-30 7.5,0 123.5,0 123.5,-30"/>
<text text-anchor="start" x="15.5" y="-18" font-family="Helvetica,sans-Serif" font-size="10.00">boost/numeric/ublas</text>
<text text-anchor="middle" x="65.5" y="-7" font-family="Helvetica,sans-Serif" font-size="10.00">/vector.hpp</text>
</a>
</g>
</g>
<!-- Node3&#45;&gt;Node4 -->
<g id="edge3_Node000003_Node000004" class="edge">
<title>Node3&#45;&gt;Node4</title>
<g id="a_edge3_Node000003_Node000004"><a xlink:title=" ">
<path fill="none" stroke="#63b8ff" d="M65.5,-71.37C65.5,-63.49 65.5,-51.45 65.5,-40.6"/>
<polygon fill="#63b8ff" stroke="#63b8ff" points="69,-40.36 65.5,-30.36 62,-40.36 69,-40.36"/>
</a>
</g>
</g>
<!-- Node6 -->
<g id="Node000006" class="node">
<title>Node6</title>
<g id="a_Node000006"><a xlink:title=" ">
<polygon fill="#e0e0e0" stroke="#999999" points="273.5,-30 157.5,-30 157.5,0 273.5,0 273.5,-30"/>
<text text-anchor="start" x="165.5" y="-18" font-family="Helvetica,sans-Serif" font-size="10.00">boost/numeric/ublas</text>
<text text-anchor="middle" x="215.5" y="-7" font-family="Helvetica,sans-Serif" font-size="10.00">/matrix.hpp</text>
</a>
</g>
</g>
<!-- Node5&#45;&gt;Node6 -->
<g id="edge5_Node000005_Node000006" class="edge">
<title>Node5&#45;&gt;Node6</title>
<g id="a_edge5_Node000005_Node000006"><a xlink:title=" ">
<path fill="none" stroke="#63b8ff" d="M215.5,-71.37C215.5,-63.49 215.5,-51.45 215.5,-40.6"/>
<polygon fill="#63b8ff" stroke="#63b8ff" points="219,-40.36 215.5,-30.36 212,-40.36 219,-40.36"/>
</a>
</g>
</g>
<!-- Node11 -->
<g id="Node000011" class="node">
<title>Node11</title>
<g id="a_Node000011"><a xlink:title=" ">
<polygon fill="#e0e0e0" stroke="#999999" points="823.5,-90.5 779.5,-90.5 779.5,-71.5 823.5,-71.5 823.5,-90.5"/>
<text text-anchor="middle" x="801.5" y="-78.5" font-family="Helvetica,sans-Serif" font-size="10.00">string</text>
</a>
</g>
</g>
<!-- Node10&#45;&gt;Node11 -->
<g id="edge10_Node000010_Node000011" class="edge">
<title>Node10&#45;&gt;Node11</title>
<g id="a_edge10_Node000010_Node000011"><a xlink:title=" ">
<path fill="none" stroke="#63b8ff" d="M892.71,-131.87C875.17,-122.28 846.62,-106.67 826.13,-95.47"/>
<polygon fill="#63b8ff" stroke="#63b8ff" points="827.81,-92.39 817.35,-90.67 824.45,-98.54 827.81,-92.39"/>
</a>
</g>
</g>
<!-- Node12 -->
<g id="Node000012" class="node">
<title>Node12</title>
<g id="a_Node000012"><a xlink:title=" ">
<polygon fill="#e0e0e0" stroke="#999999" points="897.5,-90.5 841.5,-90.5 841.5,-71.5 897.5,-71.5 897.5,-90.5"/>
<text text-anchor="middle" x="869.5" y="-78.5" font-family="Helvetica,sans-Serif" font-size="10.00">sstream</text>
</a>
</g>
</g>
<!-- Node10&#45;&gt;Node12 -->
<g id="edge11_Node000010_Node000012" class="edge">
<title>Node10&#45;&gt;Node12</title>
<g id="a_edge11_Node000010_Node000012"><a xlink:title=" ">
<path fill="none" stroke="#63b8ff" d="M902.75,-131.87C897.04,-123.31 888.15,-109.97 880.99,-99.24"/>
<polygon fill="#63b8ff" stroke="#63b8ff" points="883.74,-97.05 875.28,-90.67 877.91,-100.93 883.74,-97.05"/>
</a>
</g>
</g>
<!-- Node13 -->
<g id="Node000013" class="node">
<title>Node13</title>
<g id="a_Node000013"><a xlink:title=" ">
<polygon fill="#e0e0e0" stroke="#999999" points="761.5,-90.5 717.5,-90.5 717.5,-71.5 761.5,-71.5 761.5,-90.5"/>
<text text-anchor="middle" x="739.5" y="-78.5" font-family="Helvetica,sans-Serif" font-size="10.00">cfloat</text>
</a>
</g>
</g>
<!-- Node10&#45;&gt;Node13 -->
<g id="edge12_Node000010_Node000013" class="edge">
<title>Node10&#45;&gt;Node13</title>
<g id="a_edge12_Node000010_Node000013"><a xlink:title=" ">
<path fill="none" stroke="#63b8ff" d="M878.82,-131.98C850.65,-123.65 807.26,-110.18 770.5,-96 769.32,-95.55 768.13,-95.07 766.92,-94.58"/>
<polygon fill="#63b8ff" stroke="#63b8ff" points="768.29,-91.36 757.72,-90.64 765.53,-97.79 768.29,-91.36"/>
</a>
</g>
</g>
<!-- Node14 -->
<g id="Node000014" class="node">
<title>Node14</title>
<g id="a_Node000014"><a xlink:title=" ">
<polygon fill="#e0e0e0" stroke="#999999" points="965.5,-90.5 915.5,-90.5 915.5,-71.5 965.5,-71.5 965.5,-90.5"/>
<text text-anchor="middle" x="940.5" y="-78.5" font-family="Helvetica,sans-Serif" font-size="10.00">climits</text>
</a>
</g>
</g>
<!-- Node10&#45;&gt;Node14 -->
<g id="edge13_Node000010_Node000014" class="edge">
<title>Node10&#45;&gt;Node14</title>
<g id="a_edge13_Node000010_Node000014"><a xlink:title=" ">
<path fill="none" stroke="#63b8ff" d="M913.22,-131.87C917.85,-123.4 925.05,-110.24 930.89,-99.57"/>
<polygon fill="#63b8ff" stroke="#63b8ff" points="934.03,-101.12 935.76,-90.67 927.89,-97.76 934.03,-101.12"/>
</a>
</g>
</g>
<!-- Node15 -->
<g id="Node000015" class="node">
<title>Node15</title>
<g id="a_Node000015"><a xlink:title=" ">
<polygon fill="#e0e0e0" stroke="#999999" points="1033,-90.5 984,-90.5 984,-71.5 1033,-71.5 1033,-90.5"/>
<text text-anchor="middle" x="1008.5" y="-78.5" font-family="Helvetica,sans-Serif" font-size="10.00">cstdlib</text>
</a>
</g>
</g>
<!-- Node10&#45;&gt;Node15 -->
<g id="edge14_Node000010_Node000015" class="edge">
<title>Node10&#45;&gt;Node15</title>
<g id="a_edge14_Node000010_Node000015"><a xlink:title=" ">
<path fill="none" stroke="#63b8ff" d="M923.26,-131.87C939.5,-122.36 965.85,-106.95 984.96,-95.77"/>
<polygon fill="#63b8ff" stroke="#63b8ff" points="986.82,-98.74 993.68,-90.67 983.29,-92.7 986.82,-98.74"/>
</a>
</g>
</g>
<!-- Node16 -->
<g id="Node000016" class="node">
<title>Node16</title>
<g id="a_Node000016"><a xlink:title=" ">
<polygon fill="#e0e0e0" stroke="#999999" points="1116,-90.5 1051,-90.5 1051,-71.5 1116,-71.5 1116,-90.5"/>
<text text-anchor="middle" x="1083.5" y="-78.5" font-family="Helvetica,sans-Serif" font-size="10.00">exception</text>
</a>
</g>
</g>
<!-- Node10&#45;&gt;Node16 -->
<g id="edge15_Node000010_Node000016" class="edge">
<title>Node10&#45;&gt;Node16</title>
<g id="a_edge15_Node000010_Node000016"><a xlink:title=" ">
<path fill="none" stroke="#63b8ff" d="M934.46,-131.95C961.47,-123.04 1004.98,-108.64 1042.5,-96 1044.59,-95.3 1046.73,-94.57 1048.89,-93.84"/>
<polygon fill="#63b8ff" stroke="#63b8ff" points="1050.02,-97.15 1058.36,-90.62 1047.76,-90.53 1050.02,-97.15"/>
</a>
</g>
</g>
<!-- Node17 -->
<g id="Node000017" class="node">
<title>Node17</title>
<g id="a_Node000017"><a xlink:title=" ">
<polygon fill="#e0e0e0" stroke="#999999" points="1244.5,-96 1134.5,-96 1134.5,-66 1244.5,-66 1244.5,-96"/>
<text text-anchor="start" x="1142.5" y="-84" font-family="Helvetica,sans-Serif" font-size="10.00">boost/preprocessor</text>
<text text-anchor="middle" x="1189.5" y="-73" font-family="Helvetica,sans-Serif" font-size="10.00">/stringize.hpp</text>
</a>
</g>
</g>
<!-- Node10&#45;&gt;Node17 -->
<g id="edge16_Node000010_Node000017" class="edge">
<title>Node10&#45;&gt;Node17</title>
<g id="a_edge16_Node000010_Node000017"><a xlink:title=" ">
<path fill="none" stroke="#63b8ff" d="M950.95,-131.97C992.58,-123.56 1058.13,-110.22 1124.18,-96.26"/>
<polygon fill="#63b8ff" stroke="#63b8ff" points="1125.29,-99.61 1134.35,-94.11 1123.84,-92.76 1125.29,-99.61"/>
</a>
</g>
</g>
<!-- Node18&#45;&gt;Node13 -->
<g id="edge18_Node000018_Node000013" class="edge">
<title>Node18&#45;&gt;Node13</title>
<g id="a_edge18_Node000018_Node000013"><a xlink:title=" ">
<path fill="none" stroke="#63b8ff" d="M739.5,-131.87C739.5,-123.75 739.5,-111.31 739.5,-100.89"/>
<polygon fill="#63b8ff" stroke="#63b8ff" points="743,-100.67 739.5,-90.67 736,-100.67 743,-100.67"/>
</a>
</g>
</g>
</g>
</svg>
